<?xml version="1.0" encoding="UTF-8"?>
<svg id="Layer_2" data-name="Layer 2" xmlns="http://www.w3.org/2000/svg" viewBox="0 0 87.53 98.48">
  <defs>
    <style>
      .cls-1 {
        fill: #43443f;
      }

      .cls-1, .cls-2, .cls-3, .cls-4, .cls-5, .cls-6, .cls-7 {
        stroke-width: 0px;
      }

      .cls-2 {
        fill: #7e7f74;
      }

      .cls-3 {
        fill: #fff;
      }

      .cls-4 {
        fill: #231f20;
      }

      .cls-5 {
        fill: #555651;
      }

      .cls-6 {
        fill: #4e4f49;
      }

      .cls-7 {
        fill: #6a6c60;
      }
    </style>
  </defs>
  <g id="_100" data-name="100">
    <g>
      <path class="cls-1" d="m40.07,67.88s.76,11.24,1.42,14.08c.65,2.84,1.94,9.93,1.57,10.7-.37.76-6.04,1.09-8.99.98-2.95-.11-7.2-23.25-1.86-25.76,5.35-2.51,6.77-6.44,7.86,0Z"/>
      <path class="cls-1" d="m49.77,68.38s-.11,11.07,0,14.45c.11,3.38,0,9.61.98,9.61s6.15.87,5.97-.44c-.18-1.31,2.95-25.68-.58-26.27-3.53-.58-6.33-1.76-6.37,2.65Z"/>
      <path class="cls-7" d="m64.33,96.03c-.04.22-.11.42-.19.6-1.37.17-5.77.7-6.81.6-1.23-.11-.14-6.22-.14-9.6s-.79-17.22.31-19.25c1.11-2.03,2.31-4.35,1.65-4.01-.65.34-3.22,1.85-3.57.77-.36-1.08.44-3.48,1.13-6.76.69-3.27,4.51-12.88,1.89-19.1-2.62-6.22-26.68-8.77-28.95,6.96,0,0,.82,10.17,1.73,12.03.92,1.86,2.23,7.51,1.35,6.1-.87-1.41-3.03-2.32-1.35,1.36,1.68,3.67,2.47,1.71,1.64,5.97-.83,4.26.3,14.41.33,16.37.03,1.96,2.58,6.99.87,7.75-1.71.76-5.01,1.27-6.79.75-.19-.41-.33-.88-.45-1.41.91-.12,1.6-1.63,1.48-4.25-.12-2.62-.53-19.65-.53-24.45s.22-5.79,1.2-4.92c.98.87.11-1.09-.98-3.27-1.09-2.18-.72-11.55-.72-11.55-1.08-.28-2.07-.3-2.98-.11-.37-1.39-.64-2.26-.64-2.26-3.2-27.54,26.91-21.57,33.51-19.58,4.52,1.36,6.46,10.11,7.01,18.88-.71.23-1.28,1.44-1.59,3.92,0,0,.22,12.55-.76,14.3-.98,1.75.11.63,0,2.5-.11,1.87-.5,11.47.18,16.39.69,4.91.46,14.51,2.15,15.28Z"/>
      <path class="cls-6" d="m64.14,96.64c-1.15,2.54-5.99,1.73-8.56,1.73-2.76,0-1.17-10.5-1.01-14.57.16-4.07-1.58-13.86-1.58-13.86-9.03,2.95-15.53-.49-15.53-.49,0,0-1.47,5.65-.74,10.55.74,4.9,2.21,12.78,2.21,16.04s-6.63,2.14-9.4,2.14c-.97,0-1.65-.61-2.1-1.61,1.79.53,5.09.02,6.79-.75,1.71-.76-.84-5.79-.87-7.75-.03-1.96-1.17-12.12-.33-16.37.83-4.26.04-2.29-1.64-5.97-1.68-3.67.48-2.77,1.35-1.36.87,1.41-.44-4.24-1.35-6.1-.92-1.85-1.73-12.03-1.73-12.03,2.27-15.74,26.33-13.19,28.95-6.96,2.62,6.22-1.2,15.83-1.89,19.1-.69,3.27-1.49,5.68-1.13,6.76.36,1.08,2.92-.43,3.57-.77.65-.34-.55,1.98-1.65,4.01-1.11,2.03-.31,15.87-.31,19.25s-1.09,9.5.14,9.6c1.04.09,5.44-.44,6.81-.6Z"/>
      <path class="cls-2" d="m29.14,61.55c-.98-.87-1.2.12-1.2,4.92s.41,21.83.53,24.45c.12,2.62-.57,4.13-1.48,4.25-.4-1.85-.41-4.34-.25-6.84.33-4.95.41-22.56,0-29.19-.28-4.47-1.51-9.63-2.28-12.51.91-.19,1.9-.17,2.98.11,0,0-.37,9.37.72,11.55,1.09,2.18,1.96,4.15.98,3.27Z"/>
      <path class="cls-2" d="m64.33,96.03c-1.7-.77-1.47-10.36-2.15-15.28-.69-4.91-.29-14.52-.18-16.39.11-1.87-.98-.75,0-2.5.98-1.75.76-14.3.76-14.3.31-2.47.88-3.69,1.59-3.92.26,4.07.21,8.14-.01,11.49-.72,10.55-1.82,13.56-1.04,19.47.78,5.91,1.68,18.15,1.04,21.41Z"/>
      <path class="cls-7" d="m56.72,34.19c1.61-.89,3.41.04,4.53,3.22,0,0,.49,6.52,2.46,6.94,1.96.43,9.82,1.47,13.26-.16,2.96-1.4,7-3.73,10.26-3.36.19-.25.3-.55.3-.93-1.47-4.87-7.12-14.28-8.6-18.77-1.47-4.49-1.96-6.32-7.25-9.68-5.28-3.36-9.2-2.11-9.2-2.11-.59-.02-1.16-.11-1.69-.25-1.81,4.51-3.29,15.84-4.07,25.09Z"/>
      <path class="cls-5" d="m56.34,47.72c.98,1.96,7.37,1.23,12.28,0,4.91-1.23,10.56-.49,12.52-3.29,1.66-2.36,5.07-2.24,6.09-3.6-3.26-.37-7.31,1.97-10.26,3.36-3.44,1.63-11.3.59-13.26.16-1.96-.42-2.46-6.94-2.46-6.94-1.12-3.18-2.92-4.12-4.53-3.22-.58,6.97-.76,12.76-.38,13.53Z"/>
      <path class="cls-2" d="m60.79,9.11c.54.14,1.1.23,1.69.25,0,0,3.92-1.25,9.2,2.11,5.28,3.36,5.77,5.19,7.25,9.68,1.47,4.49,7.12,13.89,8.6,18.77,0-2.41-4.67-16.25-6.14-20.97-1.47-4.72-8.59-10.26-12.52-12.43-3.93-2.17-7.12.93-7.12.93-.33.33-.65.9-.96,1.67Z"/>
      <path class="cls-5" d="m62.02,19.41s1.07,8.17,1.27,12.03c.2,3.86-.17,8.32,5.47,10.88,5.64,2.56,11.01.5,11.01.5,0,0-3.27,5.51-17.75,3.42-14.49-2.1,0-26.83,0-26.83Z"/>
      <path class="cls-7" d="m30.81,34.19c-1.61-.89-3.41.04-4.53,3.22,0,0-.49,6.52-2.46,6.94-1.96.43-9.82,1.47-13.26-.16-2.96-1.4-7-3.73-10.26-3.36-.19-.25-.3-.55-.3-.93,1.47-4.87,7.12-14.28,8.6-18.77,1.47-4.49,1.96-6.32,7.25-9.68,5.28-3.36,9.2-2.11,9.2-2.11.59-.02,1.16-.11,1.69-.25,1.81,4.51,3.29,15.84,4.07,25.09Z"/>
      <path class="cls-5" d="m31.19,47.72c-.98,1.96-7.37,1.23-12.28,0-4.91-1.23-10.56-.49-12.52-3.29-1.66-2.36-5.07-2.24-6.09-3.6,3.26-.37,7.31,1.97,10.26,3.36,3.44,1.63,11.3.59,13.26.16,1.96-.42,2.46-6.94,2.46-6.94,1.12-3.18,2.92-4.12,4.53-3.22.58,6.97.76,12.76.38,13.53Z"/>
      <path class="cls-2" d="m26.74,9.11c-.54.14-1.1.23-1.69.25,0,0-3.92-1.25-9.2,2.11-5.28,3.36-5.77,5.19-7.25,9.68-1.47,4.49-7.12,13.89-8.6,18.77,0-2.41,4.67-16.25,6.14-20.97,1.47-4.72,8.59-10.26,12.52-12.43,3.93-2.17,7.12.93,7.12.93.33.33.65.9.96,1.67Z"/>
      <path class="cls-5" d="m24.34,20.63s1,14.43-.31,17.62-1.67,6.99-4.93,6.91c-3.25-.09,3.79,3.96,7.88,0,4.09-3.96,3.31-12.54,3.46-18.93.14-6.39-6.47-16.1-6.1-5.6Z"/>
      <path class="cls-7" d="m63.26,17.86c-.27,4.7-1.88,11.08-2.15,14.52-.17,2.22-1.66,6.2-3.31,10.2,0,0,0,0,0,0-2.4,3.84-2.34.58-2.34.58v-5.24s-21.78-1.96-22.27,0c-.49,1.96-.82,8.02-2.09,7.16-.44-.3-.95-.72-1.43-1.14-1.74-4.4-3.23-8.84-3.44-11.55-.27-3.44-1.88-9.82-2.15-14.52-.27-4.7.88-10.57,7.15-14.83,7.37-5.01,11.85-2.39,12.44-1.99.6-.4,5.07-3.02,12.44,1.99,6.27,4.26,7.42,10.13,7.15,14.83Z"/>
      <path class="cls-4" d="m31,32.62s.76-3.93-2.07-4.26c0,0-1.42.65-.76,2.95.65,2.29,2.84,1.31,2.84,1.31Z"/>
      <ellipse class="cls-3" cx="29.99" cy="30.44" rx=".45" ry=".65"/>
      <path class="cls-4" d="m56.33,32.62s-.76-3.93,2.07-4.26c0,0,1.42.65.76,2.95s-2.84,1.31-2.84,1.31Z"/>
      <path class="cls-3" d="m56.88,30.44c0,.36.2.65.45.65s.45-.29.45-.65-.2-.65-.45-.65-.45.29-.45.65Z"/>
      <path class="cls-5" d="m57.79,42.58c-.91,2.19-1.86,4.39-2.67,6.3-2.11,4.97-10.36,6.25-11.39,6.55-.03,0-.05.01-.07.02-.02,0-.04-.01-.07-.02-1.03-.3-10.4-3.04-12.51-8.02-.48-1.14-.96-2.31-1.43-3.48.48.42.99.85,1.43,1.14,1.27.86,1.6-5.2,2.09-7.16.49-1.96,22.27,0,22.27,0v5.24s-.06,3.26,2.34-.58Z"/>
      <path class="cls-7" d="m55.22,42.17c0,.05-.02.1-.02.15-.29.15-.49.37-.57.66-.82,2.95-4.26,23.25-4.75,28.98s-1.47,8.02-5.14,8.02-5.01-11.46-6.97-18.66c-1.52-5.57-2.96-12.25-3.53-14.98,0,0,0-.02,0-.02-.01-.07-.03-.14-.04-.22-.96-4.67-2-9.34-2-9.34-.7-3.18,7.16-6.22,9.29-6.33,2.13-.11,9.99-.71,12.61,1.72,2.62,2.42,2.42,2.22,1.14,10.02Z"/>
      <path class="cls-2" d="m41.53,1.73s-6.32-1.56-11.08,2.95c-4.76,4.51-3.56,6.06-2.46,6.06s4.9-2.13,6.27.82c1.38,2.95-1.66,6.71-3.17,9.99-1.51,3.27-.91,5.52,1.04,6.82,1.96,1.3,3.17,8.34,4.48,13.04,1.31,4.7,2.44,22.71,7.12,24.18,4.67,1.47,6.8-8.51,7.62-15.39s1.31-17.9,2.78-20.41,4.9-2.35,2.74-6.96-5.24-7.83-4.65-11.1c.59-3.27,6.18,1.22,7.8-.65,1.61-1.88-6.06-9.2-9.33-9.59-3.27-.39-5.16,1.78-9.17.26Z"/>
      <path class="cls-5" d="m51.07,83.34c.24,2.48.88,8.33-2.5,8.88-3.33.54-6.38-4.72-6.47-4.87,0,0,0,0,0,0-1.01-2.58-1.61-5.51-1.94-8.17-.82-6.55-3.93-20.79-4.56-25.38-.24-1.73-.78-4.58-1.37-7.45.57,2.74,2.01,9.41,3.53,14.98,1.96,7.2,3.3,18.66,6.97,18.66s4.65-2.29,5.14-8.02,3.93-26.03,4.75-28.98c.08-.29.28-.51.57-.66-1.28,7.89-3.58,26.91-4.23,33.9-.3,3.26-.15,5.57.1,7.12Z"/>
      <path class="cls-5" d="m57.33,87.36c-.19,2.46-1.77,7.53-7.83,7.04-3.6-.29-5.92-3.29-7.39-7.06.09.16,3.13,5.41,6.47,4.87,3.38-.55,2.74-6.39,2.5-8.88.29,1.79.72,2.54.72,2.54.33-2.13,2.78-2.09,2.78-2.09,0,0,2.95,1.11,2.76,3.57Z"/>
    </g>
  </g>
</svg>