<?xml version="1.0" encoding="UTF-8"?>
<svg id="Layer_2" data-name="Layer 2" xmlns="http://www.w3.org/2000/svg" xmlns:xlink="http://www.w3.org/1999/xlink" viewBox="0 0 99.22 87.14">
  <defs>
    <style>
      .cls-1 {
        fill: #c09c3f;
      }

      .cls-1, .cls-2, .cls-3, .cls-4, .cls-5, .cls-6, .cls-7, .cls-8 {
        stroke-width: 0px;
      }

      .cls-2 {
        fill: #a57f2d;
      }

      .cls-3 {
        fill: none;
      }

      .cls-4 {
        fill: #e4be50;
      }

      .cls-5 {
        fill: #fff;
      }

      .cls-6 {
        fill: #231f20;
      }

      .cls-9 {
        clip-path: url(#clippath);
      }

      .cls-7 {
        fill: #d1d3d4;
      }

      .cls-8 {
        fill: #c49a6c;
      }
    </style>
    <clipPath id="clippath">
      <path class="cls-3" d="m96.71,72.41c-3.25-1.71-5.69-4.77-6.77-16.93-.61-6.82-1.42-13.22-2.01-17.54-.16-1.14-.3-2.14-.42-2.95.14-5.05-2.09-11.95-8.72-13.74-8.38-2.27-22.89,1.1-30.82,1.79-7.93.7-16.76-2.19-22.19-7.2-.91-.84-2.13-1.78-3.54-2.72.15-.65.25-1.35.25-2.11,0-.93-.14-1.97-.46-3.15,1.43-1.93,3.23-6.33-.11-7.1-1.57-.36-2.8-.07-3.71.4-1.49-1.05-3.37-1.16-6.3-1.16s-4.8.11-6.29,1.16c-.91-.47-2.14-.76-3.71-.4-3.34.77-1.54,5.17-.11,7.1-.88,3.19-.37,5.34.45,7.2h0c.13.29.26.57.4.85.46.91,1.21,1.98,2.06,2.97.96,4.61,2.57,11.94,3.63,14.36.42.95,1.28,2.77,2.66,4.94.15,3.19,1.25,5.56,3.68,8.87,3.17,4.31,3.85,3.86,5.21,8.16,1.36,4.3,2.84,24.02,2.84,24.7s-.19,1.89-2.49,2.72c-1.94.7-1.55,1.51-1.25,2.41.3.91,1.06,1.81,3.5,1.81s3.76.81,4.46-3.22c.7-4.03.55-22.79.85-26.82.11-1.47.2-3.15.22-4.8,2.4.73,5.04,1.16,7.94,1.16,12.14,0,21.26-1.89,27.36-4.09.46.15.95.27,1.47.34.06.35.13.7.21,1.04.38,1.56,1.01,2.96,2.01,4.06,4.29,4.75,9.5,11.94,11.31,13.55s-2.94,13.85-4.3,14.52c-1.36.68-1.91.82-2.82,1.52-.91.7-.61,2.78,1.21,2.78s4.79,1.14,6.32-1.98c1.53-3.12,4.86-13.69,6.36-16.41,1.51-2.72-4.28-10.71-5.86-13.72-1.33-2.52,2.35-9,4.84-13.45.45,3.26.93,7.72,1.8,14.1,2.17,15.92,4.88,18.91,9.76,20.47,4.88,1.56,4.34-1.83,1.08-3.54Z"/>
    </clipPath>
  </defs>
  <g id="_100" data-name="100">
    <g>
      <path class="cls-2" d="m24.8,54.9c-.3,4.03-.15,22.79-.85,26.82s-2.02,3.22-4.46,3.22-3.2-.9-3.5-1.81c-.3-.91-.69-1.71,1.25-2.41,2.3-.83,2.49-2.04,2.49-2.72s-1.48-20.4-2.84-24.7c-1.36-4.3-2.04-3.85-5.21-8.16-3.17-4.31-4.08-7.02-3.57-12.03.5-4.93,2.16-6.49,2.21-6.53-.04.18-1.5,6.44,2.17,12.37,3.39,5.47,10.01,12.01,12.08,4.95.66,2.86.52,7.5.25,11.01Z"/>
      <path class="cls-2" d="m82.34,37.15c-2.16,4.09-7.7,12.74-6.11,15.75,1.58,3.01,7.37,11,5.86,13.72-1.51,2.72-4.83,13.29-6.36,16.41-1.53,3.12-4.51,1.98-6.32,1.98s-2.11-2.08-1.21-2.78c.91-.7,1.46-.85,2.82-1.52,1.36-.68,6.12-12.91,4.3-14.52-1.81-1.61-7.02-8.81-11.31-13.55-1-1.1-1.63-2.51-2.01-4.06,2.38,1.18,6.5,2.12,10.12-2.61,5.49-7.16,9.04-12.44,6.55-21.18h0c3.2,3.94,4.85,10.15,3.67,12.37Z"/>
      <path class="cls-2" d="m72.12,45.95c-3.62,4.73-7.75,3.79-10.12,2.61-1.24-5.13.29-11.96.64-15.45.45-4.56,5.43-9.8,5.43-9.8,4.13-3.55,7.91-1.84,10.59,1.47h0c2.49,8.74-1.06,14.02-6.55,21.18Z"/>
      <path class="cls-1" d="m95.63,75.95c-4.88-1.56-7.59-4.55-9.76-20.47-.88-6.5-1.36-11-1.82-14.27-.98.48-2.14.86-3.37,1.22,2.18-2.87,3.83-5.61,2.94-6.43-2-1.86-12.17-5.01-12.17-5.01,0,0-5.01,6.44-7.87,10.31-2.86,3.87-15.89,6.87-27.16,5.87-11.27-1-16.79-5.87-21.94-12.31s-4.27-14.03-4.27-14.03c.12-7.47-2.88-8.13-6.25-7.43.65-6.71,6.97-5.95,12.88-3.27-.32,2.38-.05,5.23,1.21,8.6,0,0-2.72,4.54-4.01,6.83-1.29,2.29-1.43,3.01,0,6.01,1.43,3.01,11.6,11.74,11.6,11.74,0,0,8.16,4.29,23.19,2.29,15.03-2.01,20.18-16.46,21.04-16.61.86-.14,13.31,4.2,13.31,4.2,0,0,1.74,4.84,4.73,4.76.59,4.32,1.41,10.73,2.01,17.54,1.08,12.16,3.52,15.21,6.77,16.93,3.25,1.71,3.79,5.1-1.08,3.54Z"/>
      <path class="cls-7" d="m80.68,42.43c-3.7,1.05-8.11,1.76-10.73,3.5-4.76,3.16-16.09,7.26-33.99,7.26s-26.04-16.31-27.63-19.94c-1.59-3.62-4.42-18.28-4.42-18.28-.01-.56,0-1.09.05-1.57,3.37-.7,6.36-.04,6.25,7.43,0,0-.89,7.59,4.27,14.03s10.67,11.31,21.94,12.31c11.27,1,24.3-2,27.16-5.87,2.86-3.87,7.87-10.31,7.87-10.31,0,0,10.17,3.15,12.17,5.01.88.82-.76,3.56-2.94,6.43Z"/>
      <path class="cls-4" d="m87.92,37.94c-3,.08-4.73-4.76-4.73-4.76,0,0-12.45-4.34-13.31-4.2-.86.14-6.01,14.6-21.04,16.61-15.03,2-23.19-2.29-23.19-2.29,0,0-10.16-8.73-11.6-11.74-1.43-3.01-1.29-3.72,0-6.01,1.29-2.29,4.01-6.83,4.01-6.83-1.26-3.36-1.53-6.21-1.21-8.6,3.56,1.61,6.97,3.92,8.92,5.72,5.43,5.01,14.27,7.9,22.19,7.2,7.93-.7,22.44-4.06,30.82-1.79,6.63,1.79,8.87,8.69,8.72,13.74.12.82.26,1.81.42,2.95Z"/>
      <path class="cls-1" d="m27.81,56.83c-.3,4.03-.15,22.79-.85,26.82-.7,4.03-2.02,3.22-4.46,3.22s-3.2-.9-3.5-1.81c-.3-.91-.69-1.71,1.25-2.41,2.3-.83,2.49-2.04,2.49-2.72s-1.48-20.4-2.84-24.7c-1.36-4.3-2.04-3.85-5.21-8.16-3.17-4.31-4.08-7.02-3.57-12.03.5-4.93,2.16-6.49,2.21-6.53-.04.18-1.5,6.44,2.17,12.37,3.39,5.47,10.01,12.01,12.08,4.95.66,2.86.52,7.5.25,11.01Z"/>
      <path class="cls-1" d="m85.35,39.08c-2.16,4.09-7.7,12.74-6.11,15.75,1.58,3.01,7.37,11,5.86,13.72-1.51,2.72-4.83,13.29-6.36,16.41-1.53,3.12-4.51,1.98-6.32,1.98s-2.11-2.08-1.21-2.78c.91-.7,1.46-.85,2.82-1.52,1.36-.68,6.12-12.91,4.3-14.52s-7.02-8.81-11.31-13.55c-1-1.1-1.63-2.51-2.01-4.06,2.38,1.18,6.5,2.12,10.12-2.61,5.49-7.16,9.04-12.44,6.55-21.18h0c3.2,3.94,4.85,10.15,3.67,12.37Z"/>
      <path class="cls-4" d="m27.56,45.82c-2.06,7.06-8.69.52-12.08-4.95-3.67-5.93-2.21-12.19-2.17-12.37,0,0,0,0,0,0,1.81-1.95,5.13,4.07,6.19,5.88,1.06,1.81,6.65,7.7,7.7,10.29.14.34.26.73.35,1.15Z"/>
      <path class="cls-4" d="m75.13,47.88c-3.62,4.73-7.75,3.79-10.12,2.61-1.24-5.13.29-11.96.64-15.45.45-4.56,5.43-9.8,5.43-9.8,4.13-3.55,7.91-1.84,10.59,1.47h0c2.49,8.74-1.06,14.02-6.55,21.18Z"/>
      <path class="cls-4" d="m16.21,2.95s1.81-3.09,5.69-2.19c3.89.9.81,6.72-.54,7.83-1.36,1.11-5.15-5.64-5.15-5.64Z"/>
      <path class="cls-1" d="m18.3,2.21s2.31-1.05,3.9,0c1.59,1.05-.09,4.87-1.53,4.61s-2.65-3.38-2.37-4.61Z"/>
      <path class="cls-4" d="m7.59,2.95S5.78-.13,1.9.76c-3.89.9-.81,6.72.54,7.83,1.36,1.11,5.15-5.64,5.15-5.64Z"/>
      <path class="cls-1" d="m5.5,2.21s-2.31-1.05-3.9,0,.09,4.87,1.53,4.61c1.45-.26,2.65-3.38,2.37-4.61Z"/>
      <path class="cls-5" d="m21.56,15.07c-.13.29-.26.57-.4.85-1.24,2.49-4.71,6.14-6.23,6.14h-6.06c-1.52,0-4.98-3.65-6.23-6.14-.14-.28-.27-.56-.4-.85,0,0,1.52,1.5,3.05,1.77,1.53.26,2.3.23,2.3.23,0,0,.89,1.25,1.79,1.12.89-.13.9-1.54.62-1.81s-.33-1.61.31-1.45c.31.08.99.23,1.59.37.6-.13,1.28-.28,1.59-.37.64-.17.59,1.17.31,1.45s-.27,1.68.62,1.81c.89.13,1.79-1.12,1.79-1.12,0,0,.77.04,2.3-.23,1.53-.26,3.05-1.77,3.05-1.77Z"/>
      <path class="cls-4" d="m22.48,11.01c0,1.59-.4,2.88-.92,4.06,0,0-1.52,1.5-3.05,1.77-1.53.26-2.3.23-2.3.23,0,0-.89,1.25-1.79,1.12-.89-.13-.9-1.54-.62-1.81s.33-1.61-.31-1.45c-.31.08-.99.23-1.59.37-.6-.13-1.28-.28-1.59-.37-.64-.17-.59,1.17-.31,1.45s.27,1.68-.62,1.81c-.89.13-1.79-1.12-1.79-1.12,0,0-.76.04-2.3-.23-1.53-.26-3.05-1.77-3.05-1.77h0c-1.02-2.3-1.56-5.03.4-9.6C4.85.33,6.79,0,11.9,0s7.05.33,9.26,5.47c.96,2.23,1.32,4.02,1.32,5.54Z"/>
      <path class="cls-6" d="m11.9,17.32c-.9,0-1.83-1.13-1.67-1.96.15-.83,1.67-.67,1.67-.67,0,0,1.52-.16,1.67.67.15.83-.78,1.96-1.67,1.96Z"/>
      <path class="cls-6" d="m8.97,19.18s-.96-1.57-1.17-2.77c-.22-1.2,1.05-3.72,1.17-3.95.12-.22-.6-1.71-.6-1.71,0,0-1.22.14-1.99-.24s-1.02-1.41-1.02-1.41c0,0,1.42-.17,2.03,0,.61.17,1.45,1.54,1.58,1.93.12.39.4.95.4,1.44s-1.42,2.42-1.34,3.45c.08,1.03.93,3.27.93,3.27Z"/>
      <path class="cls-8" d="m8.27,10.4s-.38-.76-.83-.91c0,0,.04.58-.25.56s-.32-.56-.32-.56v-.12s-.79-.03-1.17,0c0,0,.29.76,1,.95.71.19,1.57.08,1.57.08Z"/>
      <path class="cls-5" d="m7.07,9.62c0-.09-.07-.16-.16-.16s-.16.07-.16.16.07.16.16.16.16-.07.16-.16Z"/>
      <path class="cls-6" d="m13.9,19.53s-1.04.06-2-.79c-.96.85-2,.79-2,.79,0,0,.88-.21,1.42-.74.54-.53.25-1.56.25-1.56l.33-.38.33.38s-.29,1.04.25,1.56c.54.53,1.42.74,1.42.74Z"/>
      <path class="cls-6" d="m14.83,19.18s.96-1.57,1.17-2.77c.22-1.2-1.05-3.72-1.17-3.95s.6-1.71.6-1.71c0,0,1.22.14,1.99-.24s1.02-1.41,1.02-1.41c0,0-1.42-.17-2.03,0s-1.45,1.54-1.58,1.93c-.12.39-.4.95-.4,1.44s1.42,2.42,1.34,3.45c-.08,1.03-.93,3.27-.93,3.27Z"/>
      <path class="cls-8" d="m15.53,10.4s.38-.76.83-.91c0,0-.04.58.25.56s.32-.56.32-.56v-.12s.79-.03,1.17,0c0,0-.29.76-1,.95-.71.19-1.57.08-1.57.08Z"/>
      <path class="cls-5" d="m16.73,9.62c0-.09.07-.16.16-.16s.16.07.16.16-.07.16-.16.16-.16-.07-.16-.16Z"/>
      <g class="cls-9">
        <g>
          <path class="cls-6" d="m19.02,10.93c.16.2.19.18.22.46.02.2.08.31.18.48.11.19.28.27.37.45.08.16.15.32.23.48.08.17.14.34.21.52.05.12.06.33.19.42-.01-.16.03-.35-.02-.5-.06-.15-.24-.3-.28-.45-.09-.35-.09-.74-.32-1.06-.11-.16-.23-.24-.32-.42-.03-.07-.06-.15-.1-.22-.04-.07-.15-.15-.18-.21-.08-.15,0-.32-.07-.48-.07-.15-.27-.17-.42-.71,0-.02,0-.05,0-.07-.03.24.06.51.1.74.04.21.09.41.22.57Z"/>
          <path class="cls-6" d="m3.32,11.09c-.24.36-.3.66-.42,1.05-.06.19-.18.34-.2.57,0,.16,0,.32,0,.48,0,.22-.06.34-.1.54-.03.18,0,.38-.01.56.09-.24.09-.42.11-.67.02-.26.16-.47.25-.71.06-.16.03-.27.07-.43.03-.1.14-.22.19-.31.1-.17.27-.32.33-.52.06-.16.07-.29.15-.45.13-.27.42-.48.29-1.07.06.3-.51.73-.67.97Z"/>
          <path class="cls-6" d="m21.69,22.59s-.06,0-.09,0l-.43-.54c-.63,0-1.58.44-1.08,1.21.45.71,1.99-.1,1.6-.67Z"/>
          <path class="cls-6" d="m24.26,18.41s-.07.05-.09.08l.12.12-.02-.2Z"/>
          <path class="cls-6" d="m23.01,18.61c0,.37.34.63.7.53.22-.08.37-.23.44-.46-.01-.08,0-.14.02-.18l-.31-.31c-.36-.15-.83-.17-.85.43Z"/>
          <path class="cls-6" d="m26.23,21.11c-.19.33.3.71.58.74.26.02.44-.14.59-.34l-.32-.54c-.24,0-.7-.11-.84.14Z"/>
          <path class="cls-6" d="m11.94,23.48s0,.05,0,.07l.11-.43c-.04-.37-.84.17-.9.33.11.22.73.37.8.03Z"/>
          <path class="cls-6" d="m15.03,22.02c-.3.05-.53.13-.83.13l-.32.21c.12.13.16.44.32.52.09.05.39.09.5.11.39.09.82.03.8-.42-.01-.18-.03-.41-.16-.55-.17-.17-.14-.04-.29-.01Z"/>
          <path class="cls-6" d="m19.72,18.08c-.13.16-.6.46-.59.64l.43.43c.3,0,.91.08,1.07-.27.16-.35-.23-1.09-.43-1.42-.14.2-.33.42-.48.61Z"/>
          <path class="cls-6" d="m22.89,15.71c.33.07.35-.17.43-.43l-.54-.11c-.07-.02-.14-.01-.2,0-.12.23.09.48.31.53Z"/>
          <path class="cls-6" d="m17.94,21.61c.02-.07.03-.14,0-.21l-.21-.32c-.17-.03-.46-.03-.43.21.02.16.5.33.64.32Z"/>
          <path class="cls-6" d="m21.19,21.06c.29,0,.46-.27.41-.52l-.54-.32c-.06.01-.12.02-.18.03-.13.27-.08.81.31.81Z"/>
          <path class="cls-6" d="m25.33,17.58c-.25.32-.07.96.24,1.16.43.27,1.22.34,1.53-.16.2-.31.04-.62-.23-.81-.04.03-.09.06-.13.09l-.75-.32c-.3-.1-.46-.22-.67.04Z"/>
          <path class="cls-6" d="m23.24,22.49c.25.29.75.85,1.16.58.18-.12.33-.5.13-.67,0,.03-.02.05-.03.08l-.97-.86c-.56-.02-.66.46-.3.87Z"/>
          <path class="cls-6" d="m29.43,20.92c.25.09.7.28.93.1.14-.11.25-.64-.04-.57,0,.03-.01.07-.02.1l-.64-.54c-.2,0-.47-.04-.63.09-.43.34.1.71.41.82Z"/>
          <path class="cls-6" d="m25.28,23.9c.07.18.4.57.65.52.29-.07.34-.49.61-.55l-.64-.86c-.49.14-.85.27-.61.89Z"/>
          <path class="cls-6" d="m31.25,22.49c.16.12.54.43.75.29.24-.15.22-.62.23-.84l-.97-.32c-.13.04-.39.05-.45.2-.1.22.35.6.44.68Z"/>
          <path class="cls-6" d="m24.99,16.23c.37.26.9.17,1.11-.23.02-.05.11-.25.11-.3,0-.17-.1-.19-.25-.27-.4-.22-.48-.1-.92-.05l-.11.32c-.09.21-.21.33.06.52Z"/>
          <path class="cls-6" d="m21.81,18.3c.17-.11.1-.33.13-.5.03.02.06.03.09.05l-.43-.54c-.21-.04-.28.03-.33.22-.11.39.2.68.54.76Z"/>
          <path class="cls-6" d="m32.48,20.43c.21-.04.5-.18.5-.43,0-.19-.14-.27-.32-.21l-.86-.21c0,.17-.05.39,0,.54.09.27.42.35.68.31Z"/>
          <path class="cls-6" d="m14.66,32.11c.27-.15.18-.59.18-.83l-.32-.43c-.12,0-.31-.06-.42.02-.15.11.03.87.08.97.08.18.25.39.48.27Z"/>
          <path class="cls-6" d="m14.73,36.97c-.6.07-.61,1.1-.27,1.44.15.15.58.27.78.1.19-.16.04-.94-.08-1.11l-.43-.43Z"/>
          <path class="cls-6" d="m16.4,24.83c.2-.1.32-.3.27-.53l-.21-.86c-.54-.09-.88.5-.74.98.1.33.36.57.69.41Z"/>
          <path class="cls-6" d="m12.16,29.99c.2-.16.1-.63.1-.85l-.21-.54c0,.22-.18.39-.21.61-.04.28.1.61.33.78Z"/>
          <path class="cls-6" d="m17.54,23.49c.23.26.84-.06.84-.37l-.32-.43c-.18.15-.81.47-.51.8Z"/>
          <path class="cls-6" d="m11.82,27.71c.13.08.27.07.41-.01.15-.06.26-.16.33-.3.14-.08.13-.1.34-.1l-.32-.32c-.14,0-.29-.04-.43,0-.27.09-.35.47-.33.73Z"/>
          <path class="cls-6" d="m13.87,24.19l-.32-.64c-.19.02-.4.01-.55.16-.18.18-.26.69-.15.91.34.69.78-.15,1.02-.43Z"/>
          <path class="cls-6" d="m24.07,20.33l-.54-.43c-.22.03-.51.23-.43.49.11.36.75-.05.97-.06Z"/>
          <path class="cls-6" d="m13.81,27.48c-.08.16-.15.39-.17.57.52.14.71-.25,1.08-.42l-.64-.54c-.03.13-.22.27-.27.39Z"/>
          <path class="cls-6" d="m11.66,34.87c-.22.35-.13,1.18.16,1.48.34-.05.78-.75.65-1.1l-.43-.86c.08.25-.28.31-.39.48Z"/>
          <path class="cls-6" d="m16.45,34.71l-.54-.21s-.02-.05-.03-.07c-.26.2-.07,1.06.18,1.2.48.27.38-.64.38-.91Z"/>
          <path class="cls-6" d="m11.83,41.05c-.27-.09-.32.28-.33.48-.04.58.37,1.1.92,1.23.2-.24.05-1.06-.16-1.28l-.43-.43Z"/>
          <path class="cls-6" d="m16.98,40.94c-.47,0-.76,0-.66.67.05.33.49.9.89.85.53-.07.43-.82.41-1.19l-.64-.32Z"/>
          <path class="cls-6" d="m17.29,37.61c.06.33.48.65.82.55.35-.1.29-.49.27-.77l-.21-.21c-.36-.25-.97-.13-.87.43Z"/>
          <path class="cls-6" d="m18.53,25.73c.44.28,1.3-.4.81-.79l-.21-.54c-.28.24-1.27.9-.6,1.33Z"/>
          <path class="cls-6" d="m23.53,25.07s0,.06,0,.08l-.21-.64c-.17.03-.27-.08-.43-.11-.5-.07-.49.57-.43.91.17.94,1.19.6,1.07-.25Z"/>
          <path class="cls-6" d="m14.51,45.66l-.43-.54c-.53.02-1.08,0-1.13.71-.04.52.29.74.76.81.31.04.7.16,1.01.1.02-.15.11-1.12-.21-1.08Z"/>
          <path class="cls-6" d="m13.01,39.01l-.43-.32c-.03-.22-.25-.12-.36-.03-.25.22-.22.68-.08.94.14.25.5.47.75.19.18-.2.11-.54.11-.78Z"/>
          <path class="cls-6" d="m14.51,41.91c-.54-.09-.88.35-.71.86.08.24.48.76.83.66.42-.12.47-.68.31-.99l-.43-.54Z"/>
          <path class="cls-6" d="m13.32,34.27c-.19.31-.21,1.17.21,1.29.3.08.43-.19.55-.42v-.64c-.26-.16-.45-.27-.76-.22Z"/>
          <path class="cls-6" d="m16.25,45.11c.15.12.31.11.49-.03.25-.15.31-.44.25-.71l-.32-.54c-.52-.07-.74.57-.59,1-.03.15.03.25.17.28Z"/>
          <path class="cls-6" d="m15.05,39.87c-.34,0-.92-.04-.76.54.08.28.45.38.69.29.33-.12.29-.33.28-.62l-.21-.21Z"/>
          <path class="cls-6" d="m19.77,41.16l-.43-.54c0-.14-.12-.12-.23-.12-.44,0-.56.37-.51.76.12.92,1.26.8,1.17-.1Z"/>
          <path class="cls-6" d="m18.16,45.96c.4.22.55-.36.65-.62l-.11-.54c-.28-.2-.51-.57-.8-.14-.19.29-.07,1.11.25,1.3Z"/>
          <path class="cls-6" d="m17.2,48.35l-.32-.54c-.59-.4-1.3,0-1.19.72.07.48.51.75.96.79.72.07.72-.4.65-.96-.03,0-.06-.01-.09-.02Z"/>
          <path class="cls-6" d="m20.15,45.25c.09-.21.07-.44.06-.66l-.32-.54c-.61-.09-.76.75-.49,1.16.22.33.54.53.75.04Z"/>
          <path class="cls-6" d="m21.17,41.94c.3.71,1.33.06.86-.41-.04.02-.08.04-.12.05l-.21-.32c0-.13-.11-.13-.21-.13-.34,0-.42.58-.32.81Z"/>
          <path class="cls-6" d="m18.4,48.14c-.21.06-.49.39-.49.61,0,.17.17.4.33.47.36.15.54-.19.69-.44l-.11-.54c-.15-.08-.25-.14-.41-.1Z"/>
          <path class="cls-6" d="m21.06,46.42v-.43c-.19,0-.38-.02-.56-.02-.58.01-.67.4-.39.86.52.84,1.37-.08.95-.41Z"/>
          <path class="cls-6" d="m19.88,42.87l-.21-.32c-.25,0-.56.02-.44.41.09.29.7.25.65-.09Z"/>
          <path class="cls-6" d="m24.93,46.2l-.21-.32c-.13-.18-.51-.2-.66-.04-.27.3-.15.98.13,1.2.23.19.62.25.84,0,.14-.16.25-.84-.1-.83Z"/>
          <path class="cls-6" d="m19.95,53.13c.4-.35.41-.83.36-1.34,0,.04,0,.07,0,.11l-.43-.86c-.14-.16-.53-.18-.69-.05-.24.19-.15.66-.1.9.07.39.45,1.09.86,1.25Z"/>
          <path class="cls-6" d="m21.38,57.47l-.64.21c.1-.29-.33-.38-.53-.41-.14-.03-.5-.1-.63-.03-.31.17-.14.67-.07.92.21.68.89,1.09,1.49.6.39-.32.55-.8.38-1.29Z"/>
          <path class="cls-6" d="m23.63,57.03c.23-.18.43-.69.44-.96h-.1s-.32-.1-.32-.1c-.49-.16-.85-.14-.72.56.05.27.34.8.71.5Z"/>
          <path class="cls-6" d="m24.39,60.59v-.1c-.37-.09-.6.29-.69.57-.11.3-.14.61-.08.93,0,.37.18.58.52.62.25-.11.4-.3.45-.56.1-.23.18-.47.22-.72l-.43-.75Z"/>
          <path class="cls-6" d="m25.15,52.33c.34-.05.42-.25.43-.54v-.11c-.27-.29-1.07,0-.94.45.06.18.36.23.51.2Z"/>
          <path class="cls-6" d="m22.03,49.42l-.21-.54c-.39-.51-1.21-.2-1.3.4-.15.98,1.32.96,1.52.14Z"/>
          <path class="cls-6" d="m22.98,44.02l-.31-.61c-.11,0-.23-.06-.33.01-.25.18-.07.81.01,1.01.31.02.54-.12.63-.41Z"/>
          <path class="cls-6" d="m23.01,43.88c0,.05-.02.1-.03.14l.02.03c0-.06,0-.12.01-.17Z"/>
          <path class="cls-6" d="m21.76,54.06c.21-.02.81-.71.59-.93,0,.09,0,.17,0,.26l-.11-.54c-.18-.19-.13-.28-.42-.37-.34-.11-.56.08-.64.44-.08.32.09,1.17.58,1.13Z"/>
          <path class="cls-6" d="m19.57,55.65c-.32.87,1.17,1.02.95.11l-.64.11c.07-.22-.14-.26-.31-.21Z"/>
          <path class="cls-6" d="m22.78,58.98h-.32c-.12,0-.32-.05-.43.03-.19.14-.15.46,0,.61.36.35.6-.36.74-.64Z"/>
          <path class="cls-6" d="m26.65,56.19l-.11-.32c-.23,0-.46-.07-.66.11-.3.28-.3,1.05-.09,1.36.16.23.48.33.71.14.21-.17.44-1.15.15-1.28Z"/>
          <path class="cls-6" d="m24.28,53.5l-.43-.11s-.08,0-.12,0c-.24.31-.08.79.14,1.05.35-.06.45-.64.41-.94Z"/>
          <path class="cls-6" d="m27.4,52.43c.36-.16.22-.88.21-1.18l-.32-.64c-.67-.18-.62,1.12-.48,1.44.1.24.27.53.58.39Z"/>
          <path class="cls-6" d="m24.07,50.07l-.43-.32c-.1-.4-.45-.11-.42.21.03.25.21.45.47.41.12-.02.38-.16.37-.3Z"/>
          <path class="cls-6" d="m23.32,73.58l-.54-.43c-.15.02-.23-.08-.36-.1-.48-.08-.64.38-.6.76.06.54.42.93.96.97.71.05.56-.71.53-1.2Z"/>
          <path class="cls-6" d="m24.77,67.96c.16-.13.22-.3.16-.5l-.54-.32-.02-.1c-.28.02-.38.55-.26.75.18.22.4.28.66.18Z"/>
          <path class="cls-6" d="m22.14,63.92l-.11-.75c0-.16-.12-.1-.22-.12-.37-.07-.78.3-.87.62-.27.99,1.17,1.15,1.2.25Z"/>
          <path class="cls-6" d="m25.7,60.35c0,.16.08.44.29.45.36.02.42-.55.44-.75l-.11-.11c-.38-.17-.64-.15-.62.41Z"/>
          <path class="cls-6" d="m24.61,73.15l-.21-.32c0-.08-.02-.12-.1-.14-.29.12-.48.91-.17,1.11.42.26.63-.36.58-.65-.03,0-.06,0-.1,0Z"/>
          <path class="cls-6" d="m24.39,80.67c-.17,0-.37-.04-.54-.02-.35.04-.42.44-.22.71.2.27.62.59.87.2.12-.18.13-.46.11-.67l-.21-.21Z"/>
          <path class="cls-6" d="m24.72,77.29c0,.26.1.49.38.54.5.08.67-.34.69-.7l-.32-.43c-.41,0-.73.06-.74.59Z"/>
          <path class="cls-6" d="m26.86,68.86l-.21-.21s0-.06-.01-.09c-.8-.31-1.03.74-.73,1.3.49.9.93-.61.95-.99Z"/>
          <path class="cls-6" d="m27.93,62.63l-.64-.11c-.1,0-.34-.06-.43-.03-.37.11-.23.87-.15,1.14.32,1.15,1.55-.44,1.59-1.01-.1-.12-.22-.11-.36,0Z"/>
          <path class="cls-6" d="m22.78,68.75l-.43-.43c-.02-.13-.1-.16-.24-.12-.32.1-.34.85-.33,1.06.05.89,1.04-.03.99-.51Z"/>
          <path class="cls-6" d="m24.17,64.3c-.26.31-.16.89.1,1.15.21-.07.45-.19.44-.46l-.21-.54c-.13-.02-.22-.1-.33-.15Z"/>
          <path class="cls-6" d="m23.96,70.47l.11-.54c-.03-.18-.36-.28-.52-.26-.49.08-.38.92-.32,1.25.3.2.6-.28.73-.46Z"/>
          <path class="cls-6" d="m27.29,75.3l-.43-.75c-.13,0-.29-.04-.41.03-.22.13-.26.57-.26.78,0,.37.19.85.68.67.26-.09.63-.38.53-.69-.03-.01-.07-.02-.1-.03Z"/>
          <path class="cls-6" d="m23.1,79.05c-.25,0-.6-.07-.83.02-.11.4.07,1.13.53,1.27.43.13.74-.36.95-.65l-.64-.64Z"/>
          <path class="cls-6" d="m24.5,42.34l.11-.32s-.01-.06-.02-.09c-.07-.02-.25-.12-.31-.11-.3.07,0,.88.12,1.02.22.26.4.33.59-.02.07-.12.1-.26.07-.41-.14-.18-.33-.21-.55-.08Z"/>
          <path class="cls-6" d="m19.31,38.94c-.12.23-.09.45.09.67.2.31.48.5.83.59.21-.02.32-.13.31-.34,0-.16-.01-.19-.02-.09l-.32-.75c-.13,0-.3.02-.43,0-.17-.02-.28-.17-.46-.08Z"/>
          <path class="cls-6" d="m26.86,45.02l-.54-.32c-.78-.13-.32,1.21-.12,1.49.18.26.53.48.74.12.1-.17.15-1.23-.08-1.28Z"/>
          <path class="cls-6" d="m19.1,35.35c-.06,0-.12,0-.18,0l-.54-.32c-.17-.06-.22.04-.25.19-.07.4.41.7.69.84.2-.15.49-.42.28-.71Z"/>
          <path class="cls-6" d="m22.99,39.35c-.15-.05-.52-.09-.65,0-.29.2.02.78.15.94.18.23.71.61,1.03.33.24-.21.18-.64.02-.86l-.54-.32s0-.06,0-.09Z"/>
          <path class="cls-6" d="m20.66,35.87c.29-.26.36-.45.41-.84l-.43-.64c-.52.04-.36,1.33.02,1.48Z"/>
          <path class="cls-6" d="m17.17,33.1c.16-.27.01-.57-.19-.75l-.54-.43c.04.31-.22.71-.14,1,.1.32.6.21.86.18Z"/>
          <path class="cls-6" d="m22.4,37.86c.25-.12.38-.77.24-.99-.06.03-.12.06-.18.1v-.21c.02-.16-.1-.22-.23-.24-.45-.08-.54.58-.46.87.08.31.3.64.64.48Z"/>
          <path class="cls-6" d="m18.7,32.02c-.21.05-.25.73-.24.86.05.54.8.38.67-.16,0,.05,0,.11,0,.16l-.21-.64c.06-.18-.05-.26-.21-.22Z"/>
          <path class="cls-6" d="m16.48,29.89c-.01.07-.02.14-.03.2l-.21-1.4c-.25-.06-.34.41-.38.58-.12.51-.05,1.01.18,1.47.38.06.56-.6.44-.86Z"/>
          <path class="cls-6" d="m14.63,25.79c.06.21.18.24.42.24.08,0,.22.02.29-.03l-.29-.73c-.05-.38-.49.29-.42.53Z"/>
          <path class="cls-6" d="m15.37,25.87c.02.07,0,.1-.03.13l.14.34c0-.17-.04-.32-.11-.47Z"/>
          <path class="cls-6" d="m14.94,29.45l-.32-.32s0-.05,0-.07c-.09.18-.23.3-.21.51.03.24.24.41.48.32.07-.14.08-.28.04-.43Z"/>
          <path class="cls-6" d="m17.77,28.86c-.31.19-.27.7-.12.97.11.19.41.49.65.36.18-.1.29-.44.29-.62l-.21-.75c-.19-.01-.43-.06-.61.05Z"/>
          <path class="cls-6" d="m16.68,26.39c.09.26.77.48.73.06l-.21-.64c-.31,0-.65.18-.51.59Z"/>
          <path class="cls-6" d="m21.17,27.2l-.21-1.07c-.14.02-.26-.09-.4-.08-.26.03-.49.44-.51.66-.03.39.33.96.76.92.22-.02.39-.21.36-.43Z"/>
          <path class="cls-6" d="m20.24,33.41c.31-.13.28-.72.29-.96l-.54-.43c-.36.05-.23.93-.15,1.11.08.17.16.37.4.27Z"/>
          <path class="cls-6" d="m18.17,27.3c0,.25.35.24.53.22v-.21c-.13-.15-.41-.17-.53,0Z"/>
          <path class="cls-6" d="m19.35,30.06c-.25.16-.28.55-.22.82.28.15.68-.13.86-.35l-.11-.54c-.2,0-.36-.05-.53.07Z"/>
          <path class="cls-6" d="m22.24,34.39l-.32-.32c-.16,0-.2-.07-.31.08-.12.16-.01.56.11.67.36.33.57-.06.52-.43Z"/>
          <path class="cls-6" d="m23.85,38.04s-.06.02-.09.03c-.11.41.23,1.99.94,1.54.53-.34-.29-1.34-.31-1.78l-.54.21Z"/>
          <path class="cls-6" d="m29.54,48.13c-.65-.73-1.29,1.27-.59,1.68.42.24,1.12.05,1.46-.27.34-.32.13-.71-.02-1.09l-.86-.32Z"/>
          <path class="cls-6" d="m27.19,44.01s0,.08,0,.12c.01-.06.01-.09,0-.12Z"/>
          <path class="cls-6" d="m27.28,42.25c-.47-.12-.9-.12-1.38-.12v.43c.2.36.47.81.75,1.12.07.08.19.23.28.27.09.04.23-.01.26.07.02-.57.26-1.24.09-1.77Z"/>
          <path class="cls-6" d="m31.77,44.5c.25-.28.15-.78.03-1.09h-.21c-.46-.05-.73.11-.81.46-.15.22-.1.44.13.65.24.27.62.25.87-.03Z"/>
          <path class="cls-6" d="m27.72,37.08l-.54-.64c-.36.04-.32,1.02-.22,1.19.35.61.87-.07.76-.55Z"/>
          <path class="cls-6" d="m21.39,28.36c-.18.45.29,1.46.8,1.41.57-.06.3-.5.16-.86l-.54-.32c-.1-.13-.24-.26-.42-.23Z"/>
          <path class="cls-6" d="m24.55,25.58c.09.29.35.74.74.67.21-.04.24-.22.16-.44-.03,0-.06,0-.09,0l-.21-.54c-.17-.01-.26-.17-.41-.2-.35-.07-.27.25-.19.52Z"/>
          <path class="cls-6" d="m22.14,31.81c-.13.01-.33-.16-.43-.14-.35.06-.12.77-.06.88.17.29.63.89,1.01.54.18-.17.19-.58.02-.74l-.54-.54Z"/>
          <path class="cls-6" d="m25.79,34.82l-.97-.43c-.02-.08-.06-.15-.13-.19-.22-.14-.26,0-.3.17-.08.43.45,1.04.83,1.15.54.15.52-.22.56-.7Z"/>
          <path class="cls-6" d="m24.93,28.59l-.97-1.18c-.18.03-.37-.13-.51-.11-.3.04-.28.45-.23.68.1.51.62,1,1.15,1.05.34.03.56-.09.57-.45Z"/>
          <path class="cls-6" d="m24.82,32.78l-.54-.43c-.17-.23-.41-.38-.42.07,0,.3.25.68.54.78.36.12.42-.11.42-.42Z"/>
          <path class="cls-6" d="m33.62,47.6c-.96-.08-1.54,1-.94,1.77.33.43.97.8,1.35.2.23-.36.11-.73.02-1.1l-.43-.86Z"/>
          <path class="cls-6" d="m28.58,41.2c.57.22.83-.09,1.07-.58l-1.29-.75c-.1-.19-.42-.37-.65-.32,0,.61.24,1.42.86,1.65Z"/>
          <path class="cls-6" d="m25.35,30.55c-.12.58.43,1.17.97,1.15.1-.19.19-.45,0-.63l-.32-.75c-.29,0-.58-.1-.65.24Z"/>
          <path class="cls-6" d="m27.27,34.33c-.73.48.55,1.17.91,1.25.12-.18.07-.47.07-.66l-.11-.32c-.16-.22-.64-.43-.88-.27Z"/>
          <path class="cls-6" d="m28.28,23.2c.27.08.49,0,.65-.25.11-.15.14-.31.08-.48l-.32-.86c-.14-.16-.25-.15-.38-.04-.12.17-.17.36-.15.58-.08.37-.04.71.13,1.04Z"/>
          <path class="cls-6" d="m26.21,27c-.2.12-.25.73-.24.91.07.66,1.12.61.99-.07l-.21-.64c-.1-.1-.4-.28-.54-.2Z"/>
          <path class="cls-6" d="m29.33,46.2c.2-.15.18-.59,0-.75l-.64-.86c-.64-.12-.54,1.13-.3,1.4.14.16.72.37.94.21Z"/>
          <path class="cls-6" d="m30.11,38.78c.33-.07.59-.3.62-.63l-.97-.75c-.31.05-.27.84-.21,1.03.08.3.18.44.56.36Z"/>
          <path class="cls-6" d="m35.77,44.05l-.75-.64s0-.06,0-.09c-.14-.05-.46-.09-.6,0-.39.25-.17.98.07,1.23.26.28.71.39,1.06.2.21-.12.47-.41.32-.68-.03,0-.06,0-.09,0Z"/>
          <path class="cls-6" d="m31.57,40.73c-.25.09-.57.49-.52.76.06.3.46.4.74.31.3-.1.28-.3.44-.54l-.32-.64c-.1.15-.21.07-.34.11Z"/>
          <path class="cls-6" d="m27.04,25.94c.13.32.41.91.86.73.13-.05.26-.17.25-.32l-.75-1.18c-.5,0-.58.23-.35.78Z"/>
          <path class="cls-6" d="m30.17,23.64c-.36-.04-.51.12-.41.48.13.51,1.37.78,1.29.07l-.54-.43c-.17.02-.2-.11-.34-.12Z"/>
          <path class="cls-6" d="m34.86,22.07c.55.02.68-.25.7-.77l-.64-.21s0-.06-.01-.09c-.4-.14-.84,0-.73.5.07.3.34.56.69.57Z"/>
          <path class="cls-6" d="m28.26,29.99l-.54-.75c-.1,0-.34-.05-.44,0-.33.16-.07.94.03,1.17.18.39.57.78.94.39.14-.15.27-.72,0-.8Z"/>
          <path class="cls-6" d="m25.8,32.9c-.22.35.19.64.52.51.02-.07.02-.13,0-.2l-.21-.21c.08-.26-.19-.29-.31-.1Z"/>
          <path class="cls-6" d="m31.25,36.74c.15-.22.03-.72-.2-.85l-.75-.64c-.15-.14-.38-.36-.61-.2-.33.24.33,1.07.39,1.16.11.13.86.97,1.17.53Z"/>
          <path class="cls-6" d="m30.33,26.07l-.14.06-.86-.64c-.14-.05-.19,0-.24.1-.14.3.23.69.42.86.19.18.7.62.97.31.17-.19.04-.57-.15-.69Z"/>
          <path class="cls-6" d="m28.65,33.4c.33.14.66-.3.36-.51l-.43-.64c-.07-.02-.13-.02-.2,0-.1.31-.09,1,.27,1.16Z"/>
          <path class="cls-6" d="m33.2,40.07c-.02-.37-.11-.7-.22-1.06l-.86-.32c-.09-.1-.18-.14-.31-.11-.11.38-.06.94.22,1.24.24.25.84.42,1.16.25Z"/>
          <path class="cls-6" d="m36.74,46.95c-.06-.07-.21-.24-.32-.25-.31-.01-.41.67-.36.82.16.5.69.69,1.2.64.4-.03.33-.33.34-.68l-.86-.54Z"/>
          <path class="cls-6" d="m31.48,45.75c-.26.01-.28.49-.2.66.27.54.59.02.95.01l-.54-.54s-.16-.13-.21-.13Z"/>
          <path class="cls-6" d="m34.38,41.05c-.16.27.18.72.32.86.39.39.88.71,1.43.76.25-.38.16-.57-.05-.97l-.64-.43c-.37,0-.69-.3-1.07-.22Z"/>
          <path class="cls-6" d="m30.26,31.17c-.11.3-.09.6.1.86.14.19.44.47.71.31.24-.14.2-.52.19-.74l-.75-.64c-.19-.05-.19.05-.25.21Z"/>
          <path class="cls-6" d="m28.53,28.59c.34.59.9-.1.91-.53l-.43-.43c-.43.06-.72.56-.48.96Z"/>
          <path class="cls-6" d="m31.89,24.43c.05.43.87.71,1.19.47.02-.13,0-.26,0-.39l-.54-.54c-.31,0-.71.02-.66.46Z"/>
          <path class="cls-6" d="m35.61,24.03c.16.33.75.44.7-.05l-.21-.75c-.44-.06-.69.39-.49.8Z"/>
          <path class="cls-6" d="m38.78,23.11c.45-.08.42-.26.42-.64,0-.47,0-.56-.54-.54l-.32-.11c-.33-.1-.46.52-.45.73.03.5.45.63.88.56Z"/>
          <path class="cls-6" d="m32.87,26.98l-.43-.86c-.34.24-1.21-.04-.74.7.17.26.73.57,1.05.48.12-.03.42-.28.12-.32Z"/>
          <path class="cls-6" d="m29.91,29.03c-.25,1.2,1.11.63,1.03.21l-.54-.54c-.13-.5-.44.08-.49.33Z"/>
          <path class="cls-6" d="m31.65,35.49c.3.08,1.18-.26.81-.68-.1-.02-.18.02-.23.11l-.43-.54c-.03-.15-.21-.21-.35-.23-.25-.02-.31.01-.32.3-.01.36.11.91.52,1.02Z"/>
          <path class="cls-6" d="m35.02,39.68c.31-.23.26-.86.2-1.2-.03,0-.06-.01-.09-.02l-.64-.11c-.53.06-.57.74-.31,1.11.2.29.54.43.84.21Z"/>
          <path class="cls-6" d="m38.56,48.99c-.2,0-.3-.07-.41.14-.14.27-.03.75.1.99.17.34.44.57.84.4.46-.19.35-.43.12-.77l-.64-.75Z"/>
          <path class="cls-6" d="m42.11,45.45l-.32-.21s0-.06,0-.09c-.17-.06-.37-.07-.53.03-.26.18-.31.75-.08,1.01.2.22.47.35.76.23.42-.17.45-.56.35-.92-.06-.02-.12-.03-.19-.05Z"/>
          <path class="cls-6" d="m37.38,44.7c-.17,0-.34-.03-.51,0-.22.35.12.74.45.81.49.11.51-.18.48-.59l-.43-.21Z"/>
          <path class="cls-6" d="m34.7,35.57c-.37.07-.73-.25-1.09-.08-.08.3,1.03,1.22,1.31,1.04.03-.27-.03-.5-.12-.74l-.11-.21Z"/>
          <path class="cls-6" d="m32.33,28.93c-.39-.13-.83-.03-.58.48.12.24.47.69.78.69.36,0,.25-.58.24-.77l-.43-.32s0-.06,0-.09Z"/>
          <path class="cls-6" d="m35.07,26.59c.14-.13.2-.51.16-.68l-.32-.64c-.16,0-.33-.05-.49.03-.33.15-.37.6-.19.87.15.23.56.71.84.43Z"/>
          <path class="cls-6" d="m40.81,24.13c.25.2.54.4.81.17.24-.21.18-.58.16-.86l-.86-.64s0-.08,0-.12c-.21.07-.43.19-.56.38-.3.43.12.82.44,1.07Z"/>
          <path class="cls-6" d="m35.05,30.42c.36-.06.84-.82.33-1-.05.05-.1.1-.14.15l-.86-.75c-.21-.03-.46-.26-.66-.03.07.56.57,1.77,1.33,1.64Z"/>
          <path class="cls-6" d="m32.63,32.36c-.44-.04-.35.42-.2.7.17.32.55.84.95.64.23-.11.29-.37.24-.6l-.64-.64c-.15.03-.22-.09-.35-.1Z"/>
          <path class="cls-6" d="m38.35,39.65l-.86-.64c-.14-.02-.35.01-.49.06-.46.17-.28.68-.08,1.02.23.4.76,1.05,1.26.75.43-.25.28-.79.16-1.19Z"/>
          <path class="cls-6" d="m35.88,33.42c.26-.07.26-.42.32-.64l-.75-.64c-.08,0-.36-.05-.44,0-.25.12-.06.58.03.74.13.23.52.64.84.55Z"/>
          <path class="cls-6" d="m36.83,26.73c.27.08.44-.04.56-.29l-.54-.54c-.2,0-.44-.06-.63.02-.11.3.38.73.61.8Z"/>
          <path class="cls-6" d="m38.68,24.85c.05.82,1.5.83,1.39.2l-.32-.64c-.18,0-.36,0-.53,0-.39-.02-.56.02-.53.45Z"/>
          <path class="cls-6" d="m36.56,30.52c-.34.42.46,1.11.76,1.29.21-.16.63-.59.28-.85l-.64-.54c-.19,0-.27-.05-.39.11Z"/>
          <path class="cls-6" d="m36.74,36.54l-.32-.54c-.14-.1-.38-.14-.54-.12-.28.03-.3.06-.25.36.05.29.46.81.76.84.35.04.35-.27.36-.54Z"/>
          <path class="cls-6" d="m38.99,42.66c-.14-.03-.26-.09-.4-.11-.35-.06-.51-.01-.46.34.05.37.69.84,1.06.72.17.02.27-.07.31-.26.04-.16.05-.31.03-.47l-.54-.21Z"/>
          <path class="cls-6" d="m41.89,38.69c-.26-.06-.89-.29-1.1-.04.08.56.35,1.14.99,1.16.37.01.69-.29.65-.69l-.54-.43Z"/>
          <path class="cls-6" d="m38.89,36c-.17,0-.49-.04-.64.08-.24.18-.11.53.06.7.23.23.49.26.79.07.14-.09.26-.32.44-.31l-.64-.54Z"/>
          <path class="cls-6" d="m39.21,31.81c-.27-.22-1.07.03-1.11.42-.03.35.67.65.91.66.25.01.4-.12.52-.33l-.32-.75Z"/>
          <path class="cls-6" d="m36.85,28.27l-.11-.32c-.31-.05-.61-.22-.94-.22-.34.64.78,1.09,1.05.54Z"/>
          <path class="cls-6" d="m41.46,26.88l-.32-.54c-.37,0-1.32-.16-1.3.41.02.65,1.46.71,1.62.12Z"/>
          <path class="cls-6" d="m43.53,24c.32.1.75-.13.96-.34.39-.38.17-.51-.24-.76l-.43-.11c-.25.02-.44-.13-.55.18-.12.34-.16.89.26,1.02Z"/>
          <path class="cls-6" d="m38.77,28.65c.25.05.57-.05.55-.38l-.54-.64c-.18.02-.53-.15-.65-.01.03.38.2.94.64,1.03Z"/>
          <path class="cls-6" d="m37.02,34.61c.07.23.54.48.78.43.27-.06.27-.32.44-.54l-.21-.64c-.37.1-1.17.27-1.01.76Z"/>
          <path class="cls-6" d="m38.58,38.1c.05.2.4.5.62.47.23-.04.23-.25.33-.41l-.32-.54c-.3-.03-.72.09-.63.48Z"/>
          <path class="cls-6" d="m40.84,41.72c-.14.25.11.6.3.72.5.3,1.27.11,1.29-.53l-.75-.32c-.2,0-.7-.1-.84.14Z"/>
          <path class="cls-6" d="m40.6,34.07c-.27,0-.89-.05-.97.34-.06.28.39.57.6.61.38.08.65-.29.7-.63l-.32-.32Z"/>
          <path class="cls-6" d="m40.28,29.88l-.54-.64c-.27.35-.67-.19-.67.5,0,.32.21.65.57.66.39.01.44-.29.64-.52Z"/>
          <path class="cls-6" d="m43.22,26.25c.2,0,.88-.1.82-.45l-.54-.43c-.4,0-.77.04-.77.57,0,.31.12.32.49.31Z"/>
          <path class="cls-6" d="m41.55,33.2c.4.28.57-.04.7-.42.02,0,.05,0,.07,0l-.11-.64c-.05-.44-.94-.35-1.13-.06-.25.39.14.89.47,1.12Z"/>
          <path class="cls-6" d="m45.11,45.02l-.32-.75c-.3-.3-.97-.44-1.31-.15-.24.2-.23.5-.04.73.41.49,1.46.51,1.9.1-.09-.06-.16-.04-.22.07Z"/>
          <path class="cls-6" d="m40.82,48.36c-.04.31-.07.57.22.74.21.12.56.16.79.12.39-.05.4-.14.49-.56l-1.07-.32c-.14-.02-.29-.02-.43.01Z"/>
          <path class="cls-6" d="m44.23,41.51c-.21.34-.1.69.35.73.42.04.76-.08.96-.44l-.21-.54c-.37,0-.87-.12-1.1.25Z"/>
          <path class="cls-6" d="m49.34,44.53c-.07.34.1.66.53.63.45-.04.75-.36,1.05-.66,0,.03,0,.06,0,.09l.11-.75c-.65,0-1.51-.15-1.68.69Z"/>
          <path class="cls-6" d="m41.98,36.01c-.33-.13-.56.11-.63.41-.09.41.11.53.49.55.39.02.64.05.8-.33l-.32-.43c-.16,0-.21-.15-.34-.2Z"/>
          <path class="cls-6" d="m43.29,29.02l-.21-.54c-.4-.01-1.15-.08-.9.59.17.47,1,.5,1.12-.05Z"/>
          <path class="cls-6" d="m45.43,34.18l-.32-.43c-.1-.13-.23-.12-.38-.13-.34-.02-.59.06-.7.41-.28.89,1.46.68,1.4.14Z"/>
          <path class="cls-6" d="m46.82,27.04c-.05.38.22.51.54.6.46.12.96-.18,1.12-.58-.09-.05-.14,0-.15.15l-.32-.64c-.49-.14-1.1-.25-1.19.48Z"/>
          <path class="cls-6" d="m43.91,30.96c.1.39,1.31.59,1.2.21l.11-.64c-.32,0-1.46-.17-1.31.43Z"/>
          <path class="cls-6" d="m44.68,38.36l-.43-.75c-.5-.02-1.21-.07-1.31.6-.13.91,1.35.38,1.74.16Z"/>
          <path class="cls-6" d="m46.4,43.94c.23-.06.52-.31.71-.44-.06,0-.12.01-.18.02v-.64c-.31,0-.69-.06-.99-.03-.34.04-.38.26-.29.56.09.33.36.62.75.52Z"/>
          <path class="cls-6" d="m46.99,39.64c.37-.03.5-.31.81-.42l-.32-.97c-.49-.07-1.5.38-1.41.96.07.39.58.45.92.42Z"/>
          <path class="cls-6" d="m42.16,34.84c.33-.05.43-.15.59-.44l-.21-.32c-.27-.43-.57.54-.37.77Z"/>
          <path class="cls-6" d="m47.51,23.9c.33-.05.45-.21.4-.53,0,.03,0,.05,0,.08l-.75-.64c-.15-.06-.15-.14-.34-.1-.26.06-.59.44-.55.72.07.46.89.54,1.24.48Z"/>
          <path class="cls-6" d="m44.17,27.94c.05.4,1.16.66,1.16.22l-.21-.54c-.28,0-1-.15-.94.32Z"/>
          <path class="cls-6" d="m46.73,32.25c.35.06.73.09.95-.22l-.21-.64c-.28.02-1.2.03-1.28.34-.08.32.26.48.54.52Z"/>
          <path class="cls-6" d="m46.39,36.33s-.02.01-.03.02l.05.08s0-.07-.01-.1Z"/>
          <path class="cls-6" d="m45.3,36.48c.38.2.73.03,1.06-.14l-.38-.67c-.25.01-.7-.05-.86.22-.14.23,0,.48.19.58Z"/>
          <path class="cls-6" d="m49.84,40.73c-.58-.35-1.16.07-1.1.74.03.31.26.37.56.36.41-.02.52-.39.86-.45l-.32-.64Z"/>
          <path class="cls-6" d="m47.37,46.95l-.86-.21c-.1-.02-.2-.07-.3-.11-.13.21-.24.73-.07.91.13.15.46.18.65.22.31.07.62.16.92.26.35-.32-.06-.87-.34-1.07Z"/>
          <path class="cls-6" d="m52.52,41.58c-.41-.05-1.34.38-1.43.79.47.59,1.17,0,1.75-.04l-.32-.75Z"/>
          <path class="cls-6" d="m52.56,47.17c-.33.05-.81.49-.68.85.21.59,1.5.26,1.82-.1l-.64-.64c-.17-.1-.31-.14-.5-.11Z"/>
          <path class="cls-6" d="m54.51,39.2c0,.14.07.21.21.2.2.08.41.05.61-.06.39-.14.76-.36,1.05-.65l-.54-1.07c-.58.01-1.72.93-1.34,1.59Z"/>
          <path class="cls-6" d="m53.18,44.6c.16.24.65.41.92.31.33-.13.42-.55.46-.85l-.54-.54c-.47-.05-1.11.68-.84,1.08Z"/>
          <path class="cls-6" d="m49.43,39.44c.17,0,1.57-.06.94-.54v-.32c-.38-.03-1.3.43-.94.87Z"/>
          <path class="cls-6" d="m47.69,35.7c.16.5,1.79.68,1.72.09l-.75-1.4c-.46-.14-1.08.94-.97,1.31Z"/>
          <path class="cls-6" d="m46.74,29.42c-.16.36.62.62.79.68.44.14.63.11,1.02,0l-.75-1.07c-.35,0-.88-.02-1.06.39Z"/>
          <path class="cls-6" d="m45.97,25.27l-.32-.64c-.99-.03-.07,1.21.32.64Z"/>
          <path class="cls-6" d="m51.37,23.62c-.1-.06-.18-.02-.24.14l-.32-1.18c-.49.19-1.3.69-.89,1.3.36.54,1.3.35,1.46-.26Z"/>
          <path class="cls-6" d="m53.34,37.85c.3-.02.61-.1.82-.34-.05-.16-.17-.27-.34-.33l-.64-.32c-.17,0-.28-.03-.43.04-.14.07-.44.44-.43.59.03.41.79.38,1.03.36Z"/>
          <path class="cls-6" d="m49.14,33.04c.15.25.47.35.77.28.3-.07.35-.26.36-.54l-.54-.21c-.33,0-.89-.03-.59.48Z"/>
          <path class="cls-6" d="m53.38,35.33c.16-.08.6-.28.53-.51l-.64-.54c-.51-.22-1.44-.04-1.19.74.17.52.91.5,1.3.3Z"/>
          <path class="cls-6" d="m49.38,37.36c-.05.46,1.07.74,1.02.07.03.02.06.05.09.07l-.32-.43c-.21,0-.75-.03-.78.29Z"/>
          <path class="cls-6" d="m52.84,39.87l-.43-.32c-.24-.07-.38.24-.3.44.13.32.81.3.72-.11Z"/>
          <path class="cls-6" d="m58.53,44.38l-.32-.11c-.29,0-1.08.12-.84.61.15.29.93.36,1.15.18.18-.16.17-.47.1-.68-.03,0-.06,0-.09,0Z"/>
          <path class="cls-6" d="m55.53,41.37c-.16.02-.31-.04-.47-.02-.2.46-.15.76.17,1.14.35-.07,1.15-.28,1.05-.79l-.75-.32Z"/>
          <path class="cls-6" d="m50.27,30.2c-.25-.03-.69.09-.5.44.21.39,1.39.39,1.26-.22l-.75-.21Z"/>
          <path class="cls-6" d="m49.62,25.37v-.21c-.22.01-.65-.31-.76.04-.13.46.9.58.76.17Z"/>
          <path class="cls-6" d="m51.61,27.66c-.27.11-.45.37-.38.63.14.47,1.06.62,1.44.41.31-.17.29-.36.28-.65l-.75-.43c-.2,0-.4-.04-.59.03Z"/>
          <path class="cls-6" d="m54.74,23.15s-.05.05-.07.08l-.54-.64c-.35,0-1.2.03-1.02.62.25.83,1.34.61,1.64-.05Z"/>
          <path class="cls-6" d="m50.99,26.35c-.21.14-.26.31-.11.52.33.49,1.22.36,1.11-.32l-.64-.54c-.16.31-.13.18-.35.33Z"/>
          <path class="cls-6" d="m53.59,32.24l-.86-.32c-.34-.03-1.28.24-.96.75.21.34,1.08-.08,1.27-.16.15-.07.38-.31.56-.27Z"/>
          <path class="cls-6" d="m59.43,41.26c.22.87,1.22.02,1.57-.32l-.86-.54c-.49-.1-.82.42-.71.86Z"/>
          <path class="cls-6" d="m56.28,32.14l-.75-.11c-.43,0-.95.03-.71.65.3.77,1.36,0,1.46-.54Z"/>
          <path class="cls-6" d="m57.41,35.04c.27-.07.43-.33.58-.54l-.54-.32c-.3-.05-.86.31-.7.64.1.21.43.28.65.22Z"/>
          <path class="cls-6" d="m62.07,37.55c-.05.02-.1.06-.15.09l.16.08c0-.06,0-.11,0-.17Z"/>
          <path class="cls-6" d="m61.92,37.64l-1.13-.57c-.28.01-.54-.04-.65.25-.11.28.11.57.33.72.28.2.64.28.96.08.19-.12.33-.34.5-.48Z"/>
          <path class="cls-6" d="m58.32,39.9l.32.18c-.17-.12-.26-.17-.32-.18Z"/>
          <path class="cls-6" d="m58.01,40.14c.18-.15.22-.25.31-.24l-.65-.36c-.32-.37-.75.11-.52.5.17.28.63.29.86.1Z"/>
          <path class="cls-6" d="m61.42,44.93c.11.43.57.38.91.21.4-.21.44-.57.71-.87l-.86-.97c-.65-.15-.85,1.28-.76,1.62Z"/>
          <path class="cls-6" d="m64.22,38.04l-.32-.11c-.2.25-.96.54-.72.96.28.49,1.08-.55,1.04-.85Z"/>
          <path class="cls-6" d="m63.36,42.28c0,.31.31.54.66.45.39-.1.42-.5.42-.83l-.32-.21c-.3-.05-.75.3-.76.59Z"/>
          <path class="cls-6" d="m61.9,40.63c.36.22.38-.09.39-.34h-.21c-.26-.05-.47.16-.17.34Z"/>
          <path class="cls-6" d="m63.78,34.82s-.05.01-.07.02l.09.09v-.11Z"/>
          <path class="cls-6" d="m63.14,35.56c.17-.14.37-.61.57-.72l-.67-.67c-.37.36-1.22.55-.91,1.28.01.22.15.34.41.34.24.01.44-.06.6-.23Z"/>
          <path class="cls-6" d="m54.57,36.12c.22.6,1.02-.05,1.28-.23l-.43-.21c-.27,0-1.04-.07-.85.44Z"/>
          <path class="cls-6" d="m54.44,30.23s-.06-.09-.09-.13l-.75-.32c-.08.29-.77-.05-.77.44,0,.29.37.41.62.43.4.02.78-.05,1-.41Z"/>
          <path class="cls-6" d="m50.05,28.16l-.43-.54c-.25.18-.73.62-.43.96.34.4.95.06.86-.42Z"/>
          <path class="cls-6" d="m57.57,29.24l-.32-.54c-.49,0-1.5-.11-1.74.47-.24.57.7.76,1.05.7.46-.08.72-.28,1.01-.64Z"/>
          <path class="cls-6" d="m59.5,32.46c-.07-.44-1.03-.24-1.2.03-.23.36-.04.88.4.95.65.1.8-.3.9-.86l-.11-.11Z"/>
          <path class="cls-6" d="m58.75,36.75c-.32,0-.65.03-.86.31-.16.21-.15.54.08.71.2.14.73.15.92.03.29-.18.17-.59.08-.84l-.21-.21Z"/>
          <path class="cls-6" d="m61.96,32.9s-.07,0-.1-.01v-.64c-.4-.01-.65.02-.95.33-.22.22-.49.7-.35,1.02.27.59,1.54-.23,1.39-.69Z"/>
          <path class="cls-6" d="m58.85,29.88c-.25.07-1.41.4-1.02.87.17.2.67.13.85.05.24-.11.44-.37.57-.58-.03,0-.05,0-.08,0l-.32-.32Z"/>
          <path class="cls-6" d="m54.35,25.69l-.54-.32c-.48-.01-1.13.34-.79.91.41.67,1.93-.04,1.33-.59Z"/>
          <path class="cls-6" d="m55.79,27.31c.15.23.62.28.85.22.34-.08.46-.36.6-.65l-.64-.32c-.3.09-1.13.27-.81.75Z"/>
          <path class="cls-6" d="m65.08,33.1l-.32-.21s0-.06-.01-.09c-.5-.2-.73.62-.61.97.1.28.37.46.63.23.23-.2.3-.61.31-.9Z"/>
          <path class="cls-6" d="m60.05,28.49h.31c-.29-.05-.9-.3-1.17-.08-.27.22.1.61.36.61.28,0,.49-.28.5-.53Z"/>
          <path class="cls-6" d="m62.4,30.42l-.11-.64c-.02-.22-.21-.11-.33-.04-.34.21-.42.77-.43,1.13.26.17.88-.1.87-.45Z"/>
          <path class="cls-6" d="m56.49,24.94l-.43-.21c.13-.41-.7-.5-.77.07-.1.87,1.32.64,1.2.14Z"/>
          <path class="cls-6" d="m57.55,22.27c.09-.06.6-.66.17-.54-.02.03-.03.06-.05.1l-.86-.21c-.32,0-.87-.09-1.1.23.15.75,1.3.78,1.83.43Z"/>
          <path class="cls-6" d="m64.88,30.35c.26-.16.31-.36.3-.67,0-.08,0-.38-.1-.33l-.32-.32c-.07-.19-.27-.27-.41-.41-.5.48.16,1.45.53,1.74Z"/>
          <path class="cls-6" d="m64.93,35.81c.04.14.07.37.24.4l.02-.1.43-.21c.42-.42-.12-1.13-.44-1.4-.3.05-.41.24-.34.58-.01.25.02.5.09.74Z"/>
          <path class="cls-6" d="m60.98,27.83c.05.58.8.56,1.2.55l-.11-.11c.17-.7-.7-.66-1.1-.44Z"/>
          <path class="cls-6" d="m57.19,24.2c-.19.5.79.78,1.13.74l.21-.43c0-.29-.06-.45-.35-.53-.24-.07-.87-.1-.99.22Z"/>
          <path class="cls-6" d="m62.38,25.15c-.27-.06-.65,0-.63.32.01.22.6.8.65.87l1.18.21c.33-.73-.54-1.27-1.2-1.41Z"/>
          <path class="cls-6" d="m59.18,26.98v-.11c.37.05.23-.34.09-.49-.2-.21-.51-.23-.68.01-.38.54.26.58.59.58Z"/>
          <path class="cls-6" d="m60.47,22.47v-.21c.34.13.62-.32.56-.61-.07-.4-.77-.75-1.13-.7-.42.06-.6.39-.53.78.11.56.58.75,1.09.75Z"/>
          <path class="cls-6" d="m62.4,30.85c-.11.43.9.43,1.18.43h.54c.57-.48-1.55-1.05-1.71-.43Z"/>
          <path class="cls-6" d="m64.98,26.21c-.35.31,0,.85.21,1.1l.32.11c.07.06.14.12.21.18.22-.08-.05-.6-.11-.72-.14-.33-.27-.6-.64-.67Z"/>
          <path class="cls-6" d="m60.55,24.11c-.12-.16-.46-.18-.64-.13.02.22.29.59.54.53,0-.03,0-.07,0-.1l-.21-.21c.12.02.22,0,.3-.08Z"/>
          <path class="cls-6" d="m63.34,23.65c-.2.45.44,1,.78,1.12.29-.24-.04-.89-.11-1.11l-.32-.11c-.16,0-.27-.06-.34.1Z"/>
          <path class="cls-6" d="m62.84,27.95c-.13.31.11.93.49.95.11-.2.03-.51.03-.74l-.21-.21c-.11,0-.2,0-.31,0Z"/>
          <path class="cls-6" d="m63.16,22.14c.31-.06.7-.19.62-.56-.06-.26-.67-.92-.95-.71l-.54.32c-.22.03-.24.36-.22.54.08.54.67.49,1.09.41Z"/>
          <path class="cls-6" d="m65.33,44.68c.37-.16.43-.98.4-1.32-.02.08-.02.17,0,.26l-.21-1.18c-.15.06-.39.08-.49.21-.07.09-.05.27-.06.38-.03.28-.1.56-.11.84,0,.24.06,1,.47.82Z"/>
          <path class="cls-6" d="m65.66,48.5c-.18-.21-.6-.46-.9-.37-.03.16-.11,1.04.1,1.07l.21-.43c.04.3.19.52.44.66.34-.23.42-.62.14-.93Z"/>
          <path class="cls-6" d="m67.98,38.15l-.54-.54c-.09,0-.24-.04-.32,0-.3.13-.21.86-.14,1.02.14.29.42.74.75.37.18-.21.25-.59.25-.85Z"/>
          <path class="cls-6" d="m67.77,52.75l-.75-.43c-.1,0-.19-.05-.27,0-.18.11-.19.69-.18.81.02.68.72.9,1.32.92.14-.22.49-1.43-.11-1.31Z"/>
          <path class="cls-6" d="m65.94,30.96c-.3-.04-.32.12-.33.39-.02.5-.11,1.31.44,1.52.2-.32.56-.87.43-1.26l-.54-.64Z"/>
          <path class="cls-6" d="m65.41,24.18c.06.23.33.88.72.59.08-.12.16-.25.24-.37.09-.28.02-.49-.21-.63l-.43-.54c-.47-.14-.37.75-.32.95Z"/>
          <path class="cls-6" d="m64.79,21.57c.52.32,1.13-.16,1.15-.7l-1.07-.43c-.51-.02-.39.95-.08,1.13Z"/>
          <path class="cls-6" d="m67.77,29.45l-.32-.54c-.11-.15-.27-.1-.42-.11-.34-.02-.6-.05-.71.34-.28,1.01,1.54.66,1.46.31Z"/>
          <path class="cls-6" d="m67.66,22.26l.11-.43c-.12-.12-.32-.33-.53-.28-.09.1-.18.2-.27.29-.22.34-.27.7-.16,1.08.52.02.81-.13.85-.66Z"/>
          <path class="cls-6" d="m61.54,23.76c.33.12.57-.06.53-.43l-.32-.43c-.23-.43-.4-.34-.5.11-.07.33-.08.61.29.75Z"/>
          <path class="cls-6" d="m69.26,23.25c.02.34.28.82.66.85.28.02.35-.22.53-.33l-.21-.64c-.3-.18-1.01-.48-.98.13Z"/>
          <path class="cls-6" d="m68.54,35.55c.17.46.65,1,1.13.46.27-.31.4-.79.46-1.18l-.32-.75c-.77-.05-1.58.65-1.27,1.48Z"/>
          <path class="cls-6" d="m74,39.19c-.54.05-.92.35-.8.97.09.47.81,1.23,1.36,1.07.42-.12.74-.74.73-1.15l-.32-.54c-.07-.34-.71-.38-.96-.36Z"/>
          <path class="cls-6" d="m74.65,33.15s0,.04-.01.06l-.54-.86c-.6-.32-1.73.3-1.22.98.43.58,1.86.91,1.77-.19Z"/>
          <path class="cls-6" d="m79.37,36.8c-.05.33.05.73.29.97.39.39.71.04.89-.27l-.43-.97c0-.11-.07-.15-.17-.19-.28-.1-.53.18-.57.45Z"/>
          <path class="cls-6" d="m73.28,24.2c-.29-.04-.45.14-.55.42-.14.4.02,1.01.42,1.21.57.28.79-.21.84-.67l-.43-.64c.06-.19-.12-.29-.29-.31Z"/>
          <path class="cls-6" d="m73.11,21.44c.31.08.99.23,1.27-.02.27-.23-.13-.76-.28-.94-.03.02-.07.04-.1.06l-1.07-.64c-.29-.12-.45.39-.5.55-.2.61.13.85.7.99Z"/>
          <path class="cls-6" d="m78.5,24.19l.21-.32c-.27-.35-.9-.55-1.01.02-.12.61.89,1.14.8.3Z"/>
          <path class="cls-6" d="m82.42,23.63c.43-.28.24-.55.06-.94l-.64-.43c-.22-.02-.54-.04-.74.09-.44.28-.44,1.09-.1,1.41.41.39,1.01.14,1.42-.13Z"/>
          <path class="cls-6" d="m80.38,32.03c-.34.07-.36.4-.35.72.02.58.2.94.66,1.29.28-.17.66-.48.48-.88-.06.05-.13.11-.19.16v-.97c-.24-.06-.23-.4-.6-.32Z"/>
          <path class="cls-6" d="m70.54,28.25c-.3.04-.4.54-.4.77,0,.34.18.76.61.75.27,0,.56-.27.56-.54l-.43-.64c-.08-.15-.14-.36-.34-.34Z"/>
          <path class="cls-6" d="m74.3,49.62c.36-.12.62-.35.78-.69.06-.2-.02-.32-.22-.36l-.54-.97c-.04-.15-.09-.2-.24-.22-.41-.05-.78.51-.82.83-.06.49.44,1.46,1.04,1.41Z"/>
          <path class="cls-6" d="m72.2,59.92c-.12.46-.03,1.25.57,1.35.37.06,1.01-.25,1.01-.68v-.86c-.44-.78-1.34-.77-1.58.19Z"/>
          <path class="cls-6" d="m78.07,62.87c.12.36.59,1.22,1.1.88.15-.1.48-.77.19-.91l-.43-1.07c-.15-.08-.38-.35-.56-.34-.59.04-.41,1.12-.3,1.44Z"/>
          <path class="cls-6" d="m79.23,55.09c.18-.5.1-1.08.03-1.59l-1.29-.21s.06,0,.09,0c-.25-.08-.73.1-.83.32-.31.66.22,1.27.72,1.65.43.33,1.03.56,1.29-.16Z"/>
          <path class="cls-6" d="m78.43,67.32c-.36.32-.43.84-.32,1.28.07.29.37.99.83.73.12-.16.25-.32.37-.48.13-.38.22-.78.26-1.18l-.21-.21c-.28-.14-.63-.4-.93-.14Z"/>
          <path class="cls-6" d="m82.79,65.8c-.53.26-.56,1-.21,1.42.32.39,1.08.89,1.57.48.41-.33.47-.83.47-1.32l-1.18-.64c-.24-.02-.4-.06-.66.06Z"/>
          <path class="cls-6" d="m77.65,74.61c.03.3.32.75.72.58.54-.24.62-.89.67-1.39l-.64-.32c-.57-.09-.79.7-.74,1.13Z"/>
          <path class="cls-6" d="m77.32,78.84c-.19-.19-.29-.37-.57-.32-.32.06-.9.53-.94.86-.06.47.67.93,1.13.77.51-.17.68-1.07.6-1.52l-.21.21Z"/>
          <path class="cls-6" d="m87.03,31.26c.25.21.54.24.86.09.12-.12.25-.25.37-.37.16-.26.13-.48-.09-.66l-.32-1.07c-.78.16-1.28.6-1.5,1.29.12.37.34.61.68.72Z"/>
          <path class="cls-6" d="m84.34,33.01s.07,1.24.07,1.17c0,.47,0,.93,0,1.4h.64c.38-.15.58-.99.54-1.34-.06-.61-.4-.99-.96-1.19-.1-.04-.21-.11-.3-.04Z"/>
          <path class="cls-6" d="m84.39,28.93c.51.06.67-.57.64-.91-.07.01-.13.03-.2.04l-.97-1.29c.02-.16-.12-.16-.24-.12-.42.13-.09,1.38-.05,1.47.17.38.36.76.81.81Z"/>
          <path class="cls-6" d="m85.67,45.93c.17-.43-.05-.92.34-1.23l-1.18-.54c-.38.03-.37-.15-.7.25-.45.55-.77,1.3-.09,1.77.49.34,1.37.42,1.63-.25Z"/>
          <path class="cls-6" d="m86.94,37.44c-.45.24-.92,1.21-.72,1.7-.02.29.16.44.53.44.58.17,1.16.21,1.75.13.31-.02.5-.17.56-.43-.02-.12-.03-.14-.04-.06l-.75-2.15c-.41.21-.92.14-1.33.36Z"/>
          <path class="cls-6" d="m86.33,47.89c-.08-.07-.18-.11-.3-.11-.25.43-.14.74.05,1.18.26.1.46.04.6-.19.24-.2.41-.45.51-.75l-.43-.11c-.15.02-.3.02-.44-.02Z"/>
          <path class="cls-6" d="m88.49,42.77c-.47,0-1.15-.19-.99.55.08.37.27.64.64.76.35.12,1.13-.37,1.2-.75-.1.06-.21.13-.31.19l-.54-.75Z"/>
          <path class="cls-6" d="m101.26,69.84c-.41-1.48-1.47-2.66-3.03-2.96-.93-.18-1.95-.23-2.85.11-.74.29-1.36.78-2,1.24-.41.29-.85.56-1.22.9-1.06,1-1.57,2.8-1.41,4.22.46.15.6-.19.81-.51.25-.39.43-.8.67-1.2.3-.49.66-.79,1.09-1.16.39-.34.63-.66,1.17-.66.28,0,.56.09.83.2-.22.14-.33.52-.48.73-.25.32-.5.63-.75.95-.43.64-.72,1.34-.86,2.11-.09.42-.39,1.69-.04,2.19.14.2.21.18.44.16.67-.08.78-.75.97-1.3.33-.93.96-1.74,1.4-2.62.28-.56.56-1.41,1.12-1.76.3.18.66.46.72.83.05.32-.19.7-.31.95-.48.99-.95,1.97-1.2,3.05-.07.32-.37,1.41.1,1.69.26.31.19.36.39.71.15.27.28.57.61.6.32.03.69-.09,1-.16.73-.16,1.34-.58,1.87-1.09.26-.3.53-.61.79-.91.42-.63.62-1.32.6-2.07.11-1.41-.04-2.89-.42-4.26Z"/>
          <path class="cls-6" d="m87.43,59.88c.87.43,1.52-.32,1.83-1.04.11-.24.24-.4.05-.62-.17-.2-.43-.34-.61-.53l-.21-.11c-.51,0-1.01-.11-1.44.23-.26.2-.52.54-.52.9,0,.43.56,1.01.9,1.18Z"/>
          <path class="cls-6" d="m88.51,53.12c.18.61.91.75,1.43.48.22-.12.92-.77.55-1.03-.06.06-.12.12-.18.18l-.43-.97c-.74-.12-1.6.57-1.37,1.33Z"/>
          <path class="cls-6" d="m88.28,64.03c.33-.48-.18-1.05-.57-1.22-.27-.12-.64-.17-.72.2-.04.16-.04.25.11.27l-.32,1.29c.55,0,1.16-.02,1.51-.53Z"/>
          <path class="cls-6" d="m86.37,52.97c.21-.06.65-.29.29-.54l-.21-.64c-.54-.23-1.4-.17-1.19.67.12.48.65.66,1.11.52Z"/>
          <path class="cls-6" d="m90.96,66.08c.78-.14,1.01-.86,1.17-1.52l-1.07-.11c-.77-.01-2.05-.08-1.39,1.12.24.44.81.59,1.29.51Z"/>
          <path class="cls-6" d="m87.96,46.33c-.13.35-.27,1.33.29,1.49.33.1.57,0,.74-.2l-.6-1.1c-.04-.17-.25-.28-.42-.2Z"/>
          <path class="cls-6" d="m89.01,47.59c.12-.15.21-.35.28-.56-.2.11-.29.3-.28.56Z"/>
          <path class="cls-6" d="m88.98,47.62l.04.08s0-.08-.01-.12c-.01.01-.02.03-.03.04Z"/>
          <path class="cls-6" d="m89.01,56.13c.28-.02.43-.17.45-.45.07-.18.03-.3-.12-.34h-.21c-.29,0-.61-.07-.89.03-.28.46.39.82.78.77Z"/>
          <path class="cls-6" d="m92.03,60.8l-2.15-.43c-.12,0-.24-.02-.36-.02-.63,0-.64.61-.44,1.07.54,1.25,2.78.59,2.95-.62Z"/>
          <path class="cls-6" d="m85.35,54.25c0,.31.05.64.44.64.26,0,.51-.22.65-.41l-.43-.54c-.38.04-.65-.33-.67.31Z"/>
          <path class="cls-6" d="m87.66,67.37c-.2.1-.41.19-.61.29-.23.19-.27.44-.07.66l.54,2.15c.07.09.15.19.22.28.64-.1.99-.75,1.21-1.33.21-.57.14-1.42-.33-1.84-.23-.3-.55-.37-.96-.21Z"/>
          <path class="cls-6" d="m85.47,41.22c-.38.25.02,1.38.49,1.28.22-.05.37-.2.39-.42.03-.34-.3-.52-.54-.71l-.21-.11s-.08-.03-.12-.04Z"/>
          <path class="cls-6" d="m86.87,35.65c.25-.15.3-.63.11-.83l-.32-.75c-.59-.16-.54.84-.43,1.12.09.25.3.66.64.46Z"/>
          <path class="cls-6" d="m67.47,42.03c0,.07-.02.14-.03.2l-.43-.64-.02-.12c-.24.03-.19.49-.2.65-.03.52-.02.97.2,1.43.34-.25.47-.55.54-.98.03-.17.09-.46-.07-.55Z"/>
          <path class="cls-6" d="m68.59,31.34c.22-.19.3-.42.25-.7l-.54-.32c-.23.19-.43.45-.31.77.11.29.31.37.6.25Z"/>
          <path class="cls-6" d="m67.54,25.82c.17,1.07,1.78.66,1.3-.34l-.54-.54c-.13,0-.31-.04-.43,0-.3.12-.38.6-.33.87Z"/>
          <path class="cls-6" d="m70.03,20.92c0,.05,0,.1,0,.15l-.75-1.07c-.18.41-.43,1.05-.08,1.45.42.49.99.05.84-.53Z"/>
          <path class="cls-6" d="m76.8,22.19c.1-.05.13-.13.09-.25l-.32-.43c-.07.24-.17.64.23.68Z"/>
          <path class="cls-6" d="m73.68,28.83c-.49.22-.49.87-.33,1.28.19.48.66.77,1.1.37.37-.34.2-.81.08-1.24l-.43-.43c-.14,0-.29-.04-.43.02Z"/>
          <path class="cls-6" d="m71.95,23.43c.12.03.3.03.21-.21v-.32c-.18-.14-.34-.14-.47,0,.03.18.05.47.26.53Z"/>
          <path class="cls-6" d="m69.85,25.91c-.36.23-.1.88.04,1.16.43-.02.6-.34.88-.63l-.32-.54c-.14,0-.48-.07-.6,0Z"/>
          <path class="cls-6" d="m70.23,32.81c.5.07.51-.6.43-.88l-.64-.11c-.05-.1-.11-.13-.2-.09-.09.29.02,1.03.41,1.09Z"/>
          <path class="cls-6" d="m66.36,34.85c-.3.38-.1,1.35.11,1.72.22-.3.39-.72.33-1.1l.11-.75c-.27.01-.37-.09-.55.14Z"/>
          <path class="cls-6" d="m65.31,40.19c-.01.23-.03.76.28.8.32-.17.21-.61.26-.91.03,0,.06,0,.09,0l-.43-.64c-.03.26-.19.47-.2.75Z"/>
          <path class="cls-6" d="m70.36,40.67c.2-.24.24-.61.2-.91l-.64-.43c-.22-.01-.43.18-.57.33-.34.36-.51.84,0,1.09.4.19.72.29,1.01-.07Z"/>
          <path class="cls-6" d="m72.02,35.13c.48.03.3-.59.25-.84h-.32c-.14-.04-.4-.18-.55-.09.02.29.22.92.61.94Z"/>
          <path class="cls-6" d="m74.94,31.07c.09.51.3.83.65,1.21.27-.05.38-.23.33-.54.02-.19.02-.38,0-.57l-.11-.21c-.31.13-.58.02-.88.11Z"/>
          <path class="cls-6" d="m75,26.92c.48,1.01,1.83.79,1.68-.37l-.21-.75c-.38.16-.65.03-1.03,0-.73-.07-.65.64-.43,1.12Z"/>
          <path class="cls-6" d="m71.95,30.96c-.26.01-.09.49.01.58.11.11.26.18.41.1.17-.09.13-.3.12-.47l-.54-.21Z"/>
          <path class="cls-6" d="m78.43,29.61c.17.38.62.96,1.09.64.2-.14.44-.53.38-.79l-.32-.97c-.26.05-.51-.15-.78-.12-.64.07-.57.77-.37,1.25Z"/>
          <path class="cls-6" d="m80.86,26.64c.22-.09.3-.5.2-.72-.03,0-.06,0-.09,0l-.32-.86c-.15.03-.21-.08-.34-.1-.52-.08-.46.43-.34.79.1.3.49,1.06.9.89Z"/>
          <path class="cls-6" d="m76.22,34.67c.24.58,1.31.6,1.24-.1l.3-.5c-.43-.09-1.91-.3-1.54.6Z"/>
          <path class="cls-6" d="m81.62,45.02l-.32-1.18c-.13-.16-.47-.15-.63-.13-.71.09-.94.95-.77,1.56.14.5.43,1.03,1.04.63.26-.17.68-.56.69-.88Z"/>
          <path class="cls-6" d="m82.85,43.25c.14.1.41.26.58.17.19-.09.16-.44.22-.63.08-.25.26-.44.32-.68.04-.18-.06-1.26-.42-1.17l-.75.21c-.37-.03-.53.87-.54,1.13-.03.4.29.76.6.96Z"/>
          <path class="cls-6" d="m82.91,36.77c.23-.17.47-.35.57-.63.11-.3.04-.37-.15-.67l-.21-.21c-.32.02-.34-.12-.43.2-.09.32-.07,1.1.23,1.32Z"/>
          <path class="cls-6" d="m82.48,30.31l-.02-.08c-.34.11-.22.88-.13,1.12.16.42.54.66.99.56.09-.27,0-.61-.08-.86-.08-.26-.42-.78-.33-1.06l-.43.32Z"/>
          <path class="cls-6" d="m77.01,32.3c.2.21.48.3.73.15.19-.11.37-.38.2-.6-.06,0-.12-.02-.19-.03l-.11-.21c-.42-.03-1.15.14-.63.7Z"/>
          <path class="cls-6" d="m76.25,28.59l-.21-.32c-.31-.05-.43.22-.32.52.14.42.8.22.64-.16-.03-.01-.07-.03-.1-.04Z"/>
          <path class="cls-6" d="m74.21,35.36c-.15,0-.56-.09-.68-.02-.46.27-.17,1.41-.05,1.78.36.07.82-.01,1.07-.35.08-.11.14-.2.1-.34l-.43-1.07Z"/>
          <path class="cls-6" d="m78.99,42.06c.15.3.78.66,1.13.49.41-.2.33-.81.32-1.17l-.32-.54c-.61-.09-1.46.57-1.12,1.22Z"/>
          <path class="cls-6" d="m76.64,38.59c.21-.29.17-.52.15-.87l-.21-.43c-.28,0-.66-.11-.86.15-.52.66.48,1.05.93,1.14Z"/>
          <path class="cls-6" d="m70.34,37.08c-.38-.07-.62,1.69.14,1.65.6-.03,1.47-1.3.5-1.33l-.64-.32Z"/>
          <path class="cls-6" d="m78.29,35.02c0,.18.04.66.26.75.34.14.52-.44.61-.63l-.32-.43c-.27-.29-.53-.06-.54.3Z"/>
          <path class="cls-6" d="m81.8,28.94c-.06,0-.12-.02-.19-.03l-.54-.54s-.06,0-.09,0c-.12.32-.01,1,.33,1.18.46.24.53-.3.49-.61Z"/>
          <path class="cls-6" d="m77.99,26.95c.17.19.6.23.72-.03l-.2-.69c-.27.11-.89.32-.52.72Z"/>
          <path class="cls-6" d="m78.72,26.98c0-.05,0-.11.01-.16,0,.04-.01.07-.03.11l.02.06Z"/>
          <path class="cls-6" d="m72.15,27.66c.2-.02.26-.2.34-.36l-.43-.43c-.31-.35-.52.14-.38.44.06.14.3.36.47.34Z"/>
          <path class="cls-6" d="m74.87,24.18c.25.18.62.2.73-.14.04-.12.04-.38-.08-.46l-.03.07-.43-.43c-.44-.53-.63.65-.2.96Z"/>
          <path class="cls-6" d="m80.77,35.35c.05.27.2.45.47.54.2.06.33,0,.37-.21l-.43-.64c-.24,0-.42-.05-.42.31Z"/>
          <path class="cls-6" d="m82.26,39.58s0,0,0,0l.11.18-.11-.18Z"/>
          <path class="cls-6" d="m82.26,39.58l-.43-.68c.05-.24-.17-.34-.36-.32-.33.03-.6.39-.67.69-.11.48.26.79.72.91.66.16.4-.28.74-.59Z"/>
          <path class="cls-6" d="m77.75,39.44c-.13,0-.25-.03-.37-.03-.4,0-.46.47-.49.79-.07.87.62.11.96-.02l-.11-.75Z"/>
          <path class="cls-6" d="m80.61,50.44c.29-.39.43-1.26-.29-1.23l-.75-.64c-.24-.14-.39-.3-.66-.16-.25.13-.37.34-.45.61-.11.36-.21,1.11.06,1.42.48.55,1.63.62,2.09,0Z"/>
          <path class="cls-6" d="m84.09,38.26l-.64-.21c-.19.27-.26.55-.21.9.04.27.31.98.73.7.2-.13.11-.48.14-.69.02-.14.24-.69-.02-.7Z"/>
          <path class="cls-6" d="m84.95,25.86c.14-.12.12-.44.1-.59l-.75-.54c-.13-.04-.27-.15-.42-.09-.31.14-.02.77.09.88.2.22.68.6.98.33Z"/>
          <path class="cls-6" d="m73.24,56.51l-1.29-.86c-.28-.05-.44-.16-.75-.1-.45.09-.76.4-.69.86.1.68.85,1.34,1.57,1.3.68-.04.99-.63,1.16-1.2Z"/>
          <path class="cls-6" d="m66.37,47.19c.49,0,.55-.68.75-.99l-.21-.64c-.54.01-1-.38-1.17.4-.07.33.14,1.22.63,1.23Z"/>
          <path class="cls-6" d="m71.63,41.69l.04.04s.01,0,.02,0c-.02-.01-.04-.03-.05-.04Z"/>
          <path class="cls-6" d="m71.68,41.73s.09.06.14.08c-.04-.03-.09-.06-.14-.08Z"/>
          <path class="cls-6" d="m72.28,42.34l-.61-.61c-.63-.27-1.41.48-1.13,1.17.22.54.95,1.11,1.47.49.24-.28.36-.68.28-1.04Z"/>
          <path class="cls-6" d="m76.7,46.14c.51-.44.7-.82.72-1.49-.07-.02-.14-.04-.2-.05l-.43-.54c-.39-.18-.54-.18-.65.34-.01.26-.03.51-.04.77-.02.49.18.82.61.97Z"/>
          <path class="cls-6" d="m68.41,49.21c-.74-.27-.97.43-.76,1.08.02.27.15.46.39.59.21.3.49.36.84.2.33-.27.51-.86.28-1.22l-.75-.64Z"/>
          <path class="cls-6" d="m69.34,46.32c.46,0,.59-.34.57-.77l-.43-.64c-.16-.03-.28-.12-.45-.13-.54-.03-.63.49-.65.92-.02.57.47.62.95.62Z"/>
          <path class="cls-6" d="m71.42,53.87c.28-.28.37-.64.32-1.01l-.43-.97c-.42.08-.76.05-.89.5-.12.43-.15.94.09,1.33.19.32.58.49.91.16Z"/>
          <path class="cls-6" d="m73.89,44.79c.15-.15.22-.33.21-.53-.04,0-.07,0-.11,0l.21-.75c-.42.04-.86,0-1.04.45-.16.42-.14.74,0,1.15.31.07.55-.04.71-.33Z"/>
          <path class="cls-6" d="m70.34,47.81c-.49-.1-1.72-.26-1.17.69.11.19.41.42.64.38.32-.06.33-.35.52-.53v-.54Z"/>
          <path class="cls-6" d="m75.07,54.52c.07-.4-.07-.7-.43-.91l-.11-.11s-.7-.51-.9-.48c-.41.07-.28.98-.23,1.13.18.51.66,1.23,1.3.76.12-.13.24-.26.36-.39Z"/>
          <path class="cls-6" d="m65.41,51.32c.08.22.24.32.47.25.44-.12.57-.59.6-.97l-.21-.54c-.6-.14-1.03.75-.85,1.25Z"/>
          <path class="cls-6" d="m75.7,50.65c-.19.21-.24.47-.15.78.03.4.22.6.58.6.36-.41.19-.71,0-1.21l.11-.21c-.19-.25-.38-.12-.55.04Z"/>
          <path class="cls-6" d="m70.55,50.07c0,.44.24.94.77.98.32.03.56-.02.66-.36.12-.4-.11-.87-.35-1.16l-.43-.21c-.43.13-.65.25-.65.76Z"/>
          <path class="cls-6" d="m71.44,46.43c.27-.02.32-.22.4-.44l-.43-.43c-.15.21-.73.93.03.87Z"/>
          <path class="cls-6" d="m77.72,48.92c.18-.25.41-.71.22-1.01-.06,0-.12,0-.18,0v-.75c-.37-.01-1.02-.1-1.35.11-.45.28-.44,1.17-.15,1.55.37.48,1.03.7,1.47.09Z"/>
          <path class="cls-6" d="m68.95,43.07c.19-.23.37-.48.53-.73l-.75.11c.06-.25-.16-.4-.38-.33-.51.15-.2.93-.08,1.24.29.1.52,0,.68-.28Z"/>
          <path class="cls-6" d="m76.14,43.19v-1.18c-.19-.11-.37-.24-.6-.22-.38.03-.66.36-.63.78.02.29.11.65.41.78.21.09.67.05.82-.16Z"/>
          <path class="cls-6" d="m76.85,60.35c.27-.2.24-.76.25-1.05l-.75-.64s0-.05,0-.08c-.21-.1-.59-.21-.8-.1-.43.21-.35,1.09-.11,1.37.27.33.99.82,1.41.51Z"/>
          <path class="cls-6" d="m81.49,57.94c-.33-.66-.67-.64-1.27-.36l-.21-.21c-.83.15-1.47.27-1.28,1.3.11.57.41,1.02.89,1.35.41.24.79.23,1.13-.04.77-.39,1.13-1.22.73-2.04Z"/>
          <path class="cls-6" d="m74.84,56.39c-.27.06-.29.38-.17.64.11.25.33.53.65.46.32-.07.58-.58.43-.88-.01.07-.03.14-.04.22l-.54-.43c-.11,0-.23-.04-.33-.02Z"/>
          <path class="cls-6" d="m76.55,65.17c.33-.61.18-1.58-.2-2.12l-.43-.43c-.49.02-1.04.16-1.32.6-.4.62-.3,1.78.33,2.22.51.35,1.3.31,1.62-.27Z"/>
          <path class="cls-6" d="m82.58,63.16l-.11-.11c-.25,0-.6-.1-.78.11-.02.13-.04.27-.06.4-.02.38.11.69.4.93.71.33,1.1-.98.56-1.34Z"/>
        </g>
      </g>
    </g>
  </g>
</svg>