<?xml version="1.0" encoding="UTF-8"?>
<svg id="Layer_2" data-name="Layer 2" xmlns="http://www.w3.org/2000/svg" viewBox="0 0 713.85 309.21">
  <defs>
    <style>
      .cls-1 {
        fill: #b79985;
      }

      .cls-1, .cls-2, .cls-3, .cls-4, .cls-5, .cls-6 {
        stroke-width: 0px;
      }

      .cls-2 {
        fill: #fff;
      }

      .cls-3 {
        fill: #a08573;
      }

      .cls-4 {
        fill: #69584d;
      }

      .cls-5 {
        fill: #231f20;
      }

      .cls-6 {
        fill: #826a5a;
      }
    </style>
  </defs>
  <g id="Aardvark">
    <g id="POSE">
      <g>
        <path class="cls-4" d="m480.72,180.36s18.59,54.8,29.36,74.38c10.76,19.57,13.7,29.36,24.47,32.29,10.76,2.94,21.43,15.66,8.76,15.66h-34.2c-11.74,0-16.64-17.62-28.38-32.29-11.74-14.68-54.8-53.82-62.63-90.03-7.83-36.21,54.24-23.74,62.63,0Z"/>
        <path class="cls-4" d="m234.11,142.19s-9.2,51.01-36.89,63.67c-27.7,12.66-33.57,49.85-37.48,57.68-3.91,7.83,8.81,22.51,13.7,25.44,4.89,2.94,10.76,13.7,2.94,13.7h-21.53c-8.81,0-17.62-22.51-17.62-22.51,0,0-1.96,14.68-5.87,14.68s0-35.53,0-44.19,11.74-24.37,11.74-34.62,4.89-62.77,32.29-78.59c27.4-15.82,64.95-17.56,58.72,4.73Z"/>
        <path class="cls-3" d="m1.44,190.51c14.78-7.54,97.51-.77,120.13-11.13,23.48-10.76,54.8-70.43,54.8-70.43,0,0,56.76-21.56,82.21-12.75,25.44,8.81,45.01,54.81,74.37,61.44,29.36,6.64,84.46,1.29,84.46,1.29l32,4.8s8.81,8.81,39.15,16.63c30.34,7.83,51.11,0,51.11,0,21.32,8.21,37.89,16.97,48.32,25.66,2.83-11.52-1.83-31.13-15.31-47.45-4.06-.23-8.25-.55-12.55-.93,0,0-43.05-3.65-76.88-48.69-33.83-45.04-72.98-96.91-162.03-93.97-89.05,2.94-168.32,26.09-174.2,71.27-5.87,45.18-30.7,76.5-54.98,85.31-13.32,4.83-54.23,5.25-79.13,8.81-10.46,4-15.62,8.83-11.46,10.15Z"/>
        <path class="cls-6" d="m1.44,190.51c.96.31,2.42.42,4.44.3,15.66-.98,104.42,17.63,130.85,2.95,26.42-14.68,106.67-17.62,119.39-5.87,12.72,11.74,91.99,35.84,143.86,25.75,51.87-10.09,51.87-15.96,79.27-11.07,27.4,4.89,70.19,5.87,94.79,12.72,7.41,2.06,12.17-1.99,13.96-9.28-10.43-8.69-27-17.45-48.32-25.66,0,0-20.77,7.83-51.11,0-30.34-7.82-39.15-16.63-39.15-16.63l-32-4.8s-55.1,5.36-84.46-1.29c-29.36-6.64-48.93-52.63-74.37-61.44-25.45-8.81-82.21,12.75-82.21,12.75,0,0-31.32,59.67-54.8,70.43-22.63,10.37-105.35,3.59-120.13,11.13Z"/>
        <path class="cls-1" d="m12.9,180.36c24.9-3.56,65.81-3.98,79.13-8.81,24.28-8.81,49.11-40.13,54.98-85.31,5.87-45.18,85.14-68.34,174.2-71.27,89.05-2.94,128.2,48.93,162.03,93.97,33.83,45.04,76.88,48.69,76.88,48.69,4.3.38,8.49.7,12.55.93-6.3-7.62-14.52-14.52-24.82-19.53,0,0-33.39-5.64-55.9-32.22C469.45,80.24,422.48,0,316.79,0,155.82,0,128.67,84.07,121.57,106.82c-14.68,47.02-58.93,65.4-86.34,68.33-8.67.93-16.36,2.94-22.33,5.21Z"/>
        <path class="cls-6" d="m354.48,298.34c0,9.06,9.79-1.81,9.79-1.81,0,0,7.83,12.67,22.13,12.67h26.8c3.91,0,.98-8.14-14.67-14.48-15.66-6.34-12.72-16.29-9.79-26.25,2.94-9.96,18.59-55.7,24.46-57.51,5.87-1.81,48.89-14.09,50.89-34.83.43-4.46-.18-8.04-1.42-10.94-2.89,8.46-10.94,23.08-32.67,28.21-31.32,7.4-45.51,8.22-56.11,0-3.03-2.35-6.45-7.27-8.57-13.49-1.32,1.87-2.03,3.65-2.03,5.27,0,13.58,0,41.64-4.89,66.09-4.89,24.44-3.91,38.02-3.91,47.07Z"/>
        <path class="cls-6" d="m175.54,169.09c21.53,41.65,30.67,41.65,30.67,66.99s6.31,50.1,7.61,58.55c1.3,8.45.87,14.58,10.44,14.58s6.52-2.1,4.78-5.72c-1.74-3.62-.48-6.04-.48-6.04,6.85,9.96,10.44,10.86,20.36,10.86h27.26c7.83,0-9.78-17.21-22.5-20.83-12.72-3.62-22.51-44.36-6.85-60.66,14.95-15.56,40.61-55.9,30.1-101.29.03,1.11,1.34,48.31-28.97,67.87-30.66,19.8-53.87-37.73-65.76-55.95-5.24-8.03-7.28-23.06-6.24-38.19-11.12,19.46-12.47,46.49-.42,69.82Z"/>
        <path class="cls-3" d="m365.32,179.91c2.11,6.22,5.54,11.14,8.57,13.49,10.6,8.22,24.79,7.4,56.11,0,21.73-5.13,29.78-19.75,32.67-28.21-4.48-10.56-17.18-11.79-17.18-11.79-28.43-5.65-70.52,12.75-80.17,26.51Z"/>
        <path class="cls-3" d="m182.2,137.46c11.89,18.22,35.1,75.74,65.76,55.95,30.31-19.56,29-66.76,28.97-67.87-.49-2.13-1.06-4.28-1.72-6.44-14.67-47.98-56.76-46.16-56.76-46.16-19.01.45-33.76,11.06-42.49,26.34-1.04,15.13,1,30.16,6.24,38.19Z"/>
        <path class="cls-1" d="m575.59,152.08s6.59-22.69,10.25-38.06c3.66-15.37-.73-48.99-10.25-62.56-9.52-13.57-14.5-15.76-15.3,6.2-.8,21.96-7.37,75.07-.92,87.1,6.45,12.03,16.22,7.32,16.22,7.32Z"/>
        <path class="cls-3" d="m527.59,179.36h0c28.44,30.11,92.26,40.36,114.44,50.8,22.18,10.44,42.41,12.4,51.54,12.4,8.03,0,17.58-9.56,19.78-11.89.46-1.97.61-3.84.35-5.42-.08-.5-.19-.93-.33-1.31-10.43,1.01-27.15-.27-44.59-13.35-28.71-21.53-82.09-64.83-129.13-66.34-8.69,8-13.6,21.88-12.07,35.11Z"/>
        <path class="cls-6" d="m527.59,179.36c1.4,12.17,8.26,23.78,22.64,29.76,0,0,27.43,12.36,41.41,17.2,13.98,4.84,61.84,13.45,76.9,19.9,15.06,6.45,26.35,5.38,20.98,0,0,0,9.68,3.22,14.52,0,3.65-2.44,7.93-9.47,9.33-15.55-2.21,2.32-11.76,11.89-19.78,11.89-9.13,0-29.36-1.96-51.54-12.4-22.18-10.44-86-20.69-114.44-50.79h0Z"/>
        <path class="cls-1" d="m539.66,144.25c47.03,1.51,100.42,44.81,129.13,66.34,17.44,13.08,34.16,14.36,44.59,13.35-1.64-4.46-7.42-.8-22.79-6.75-16.68-6.45-40.96-31.87-58.17-41.55-17.21-9.68-34.87-26.21-68.75-36.97-9.33-2.96-17.67-.25-24.02,5.58Z"/>
        <circle class="cls-5" cx="610.06" cy="182.98" r="10.42" transform="translate(-23.59 247.39) rotate(-22.5)"/>
        <circle class="cls-2" cx="606.37" cy="179.29" r="3.69"/>
        <path class="cls-3" d="m567.1,151.62s-.73-36.6,0-54.9c.73-18.3-15.37-49.04-26.35-53.43s-8.78,5.86-8.78,16.83-.36,26.35-.18,43.92c.18,17.57,14.61,40.99,17.64,47.58,3.03,6.59,17.86,12.45,17.67,0Z"/>
        <path class="cls-6" d="m543.38,55.46s12.94,15.37,15.98,40.99c3.05,25.62-2.68,34.19,0,48.31,0,0-12.32-24.89-15.98-35.13-3.66-10.25-14.64-74.66,0-54.16Z"/>
      </g>
    </g>
  </g>
</svg>