<?xml version="1.0" encoding="UTF-8"?>
<svg id="Layer_2" data-name="Layer 2" xmlns="http://www.w3.org/2000/svg" viewBox="0 0 104.81 94.99">
  <defs>
    <style>
      .cls-1 {
        fill: #9c586e;
      }

      .cls-1, .cls-2, .cls-3, .cls-4, .cls-5, .cls-6, .cls-7, .cls-8, .cls-9, .cls-10, .cls-11 {
        stroke-width: 0px;
      }

      .cls-2 {
        fill: #803e4e;
      }

      .cls-3 {
        fill: #010101;
      }

      .cls-4 {
        fill: #e93837;
      }

      .cls-5 {
        fill: #6e595d;
      }

      .cls-6 {
        fill: #924e62;
      }

      .cls-7 {
        fill: #fff;
      }

      .cls-8 {
        fill: #f5f6f6;
      }

      .cls-9 {
        fill: #be2426;
      }

      .cls-10 {
        fill: #4a4042;
      }

      .cls-11 {
        fill: #d82627;
      }
    </style>
  </defs>
  <g id="_100" data-name="100">
    <g>
      <path class="cls-2" d="m29.15,54.75s-5.7,9-5.7,10.87,5.34,23.79,5.34,23.79c0,0-1.97,2.33-3.28,3.64-1.31,1.31,4.12-1.5,4.12-1.5,0,0,1.34,2.81,4.14,3.19,2.8.37,6.63-.56,9.82,0,3.19.56-.37-1.5-3-1.5s-6.8,0-8.6-5.06c-1.8-5.06-6.42-22.3-5.05-24.36,1.37-2.06,5.05-9.93,5.05-9.93l-2.83.85Z"/>
      <path class="cls-6" d="m73.44,94.84c-2.44-.98-4.87,0-8.25,0s-3.3-.15-5.17-1.08c-1.87-.94-3.37-4.12-3.37-4.12,0,0-5.43,3.37-4.12,2.06,1.31-1.31,2.62-3.94,2.62-3.94,0,0-14.05-21.74-14.58-23.05-.53-1.31-.65-9.37-.65-9.37-.17-5.04,2.43-4.06,2.43-4.06,0,0-.14,7.99.61,11.36,0,0-.66,1.92,1.86,6.6,2.51,4.68,13.29,20.42,15.91,22.01,2.62,1.59,4.47,2.18,7.55,1.59,2.33-.45,4.82.93,5.88,1.61h0c.25.45.08.69-.73.37Z"/>
      <path class="cls-1" d="m74.17,94.47c-1.06-.69-3.55-2.06-5.88-1.61-3.07.59-4.92,0-7.55-1.59-2.62-1.59-13.4-17.33-15.91-22.01-2.52-4.68-1.86-6.6-1.86-6.6.75,3.37,12.18,20.61,15.94,25.11,3.76,4.5,7.21,4.31,10.4,4.12,2.13-.13,4.34,1.68,4.85,2.59Z"/>
      <path class="cls-9" d="m27.93,48.06s-2.25,6.59,0,8.46c2.25,1.88,11.43-6.03,12.55-8.26,1.12-2.23-8.81-13.35-12.55-.2Z"/>
      <path class="cls-9" d="m36.04,49.39s2.7,7,4.53,7.41c1.84.41,3.34-4.14,3.34-7.76s-8.99-5.97-7.87.35Z"/>
      <path class="cls-11" d="m80.05,7.83c0,.4-.02.8-.08,1.2-.03.22-.07.44-.12.65-.3.03-.61.08-.93.15,0,0-4.12,2.81-6.93,2.43-2.81-.37-.56.37,0,2.44.56,2.06,4.8,16.3,2.77,21.17-2.03,4.87-8.21,3.56-8.21,3.56,0,0-1.31,4.89-12.56,6-11.24,1.12-26.25,2.05-30.55.93-4.3-1.12-6.36-1.67-9.17-.93-2.81.74-3.59,1.92-8.06,1.44,0,0-3.1,2.69-6.11,4.15-.1-.12-.13-.31-.09-.58,5.52-8.68,19.57-21.15,33.74-26.76,17.05-6.75,25.67,4.31,28.53,6.37,2.86,2.06,4.83,3.56,6,.74,1.17-2.82-2.86-8.23-4.74-13.38-1.87-5.15-2.62-10.22,4.74-13.22,7.36-3,10.82,3.47,10.82,3.47.33.07.65.12.95.15Z"/>
      <path class="cls-9" d="m79.73,35.04c-2.09,8.92-8.64,8.57-8.64,8.57-.41.12-.8.21-1.18.27-4.05,4.1-14.99,5.1-19.82,6.06-7,1.39-15.99,2.94-21.48,1.27-5.5-1.67-13.49-2.99-17.99-1.27-4.5,1.72-5.97,0-5.97,0-2.79,1.1-4.17,1.55-4.54,1.09,3.01-1.46,6.11-4.15,6.11-4.15,4.47.49,5.25-.7,8.06-1.44,2.81-.74,4.87-.2,9.17.93,4.3,1.12,19.31.19,30.55-.93,11.24-1.12,12.56-6,12.56-6,0,0,6.18,1.31,8.21-3.56,2.03-4.87-2.21-19.11-2.77-21.17-.56-2.06-2.81-2.81,0-2.44,2.81.37,6.93-2.43,6.93-2.43.32-.07.63-.12.93-.15-.48,2.07-1.67,3.71-3.41,4.84-2.16,4.3,4.58,15,3.29,20.51Z"/>
      <path class="cls-4" d="m80.05,7.83c-.3-.03-.62-.08-.95-.15,0,0-3.46-6.47-10.82-3.47-7.36,3-6.61,8.07-4.74,13.22,1.87,5.15,5.91,10.56,4.74,13.38-1.18,2.82-3.15,1.32-6-.74-2.86-2.06-11.48-13.12-28.53-6.37C19.58,29.31,5.54,41.78.02,50.46c.15-1.01,1.29-3.11,2.94-6.57,3.66-7.66,18.61-25.39,36.14-27.14,13.75-1.37,22.23,6.14,26.75,12.23.39-.85.15-2.09-1.43-3.92-3.31-3.85-5.74-10.21-4.8-15.03-.37-1.45-.25-3.02.51-4.57C62.6.41,68.14.13,68.14.13c7.43-.94,11.83,3.21,11.92,7.7Z"/>
      <path class="cls-5" d="m104.79,27.13c-3.97-8.81-13.01-13.83-10.89-12.09,2.12,1.75,1.62,1.62-4-1-5.62-2.62-10.99-3.62-8.62-3.5,2.37.12,5.49.5.62-.87-2.24-.63-3.33-1.37-3.85-1.98.03-1.67-.2-3.04,1.52-2.24,0,0,2.15,1.24,6.84,2.7,4.68,1.46,15.36,8.95,17.61,15.89.64,1.97.86,2.89.76,3.1Z"/>
      <path class="cls-10" d="m104.79,27.13c-.25.54-2.47-3.31-4.88-5.72-3.37-3.37-11.12-7.98-20.92-9.52,0,0-1.94-.04-1.19-2.29.2-.61.25-1.29.26-1.91.52.61,1.61,1.35,3.85,1.98,4.87,1.37,1.75,1-.62.87-2.37-.13,3,.87,8.62,3.5,5.62,2.62,6.12,2.75,4,1-2.12-1.75,6.92,3.27,10.89,12.09Z"/>
      <path class="cls-8" d="m69.05,7.3c0,1.59,1.29,2.87,2.87,2.87s2.87-1.28,2.87-2.87-1.29-2.87-2.87-2.87-2.87,1.29-2.87,2.87Z"/>
      <path class="cls-3" d="m74.79,7.21c0-1.29-1.04-2.33-2.33-2.33s-2.33,1.04-2.33,2.33,1.04,2.33,2.33,2.33,2.33-1.04,2.33-2.33Z"/>
      <path class="cls-7" d="m74.17,5.83c0-.47-.38-.86-.85-.86s-.86.38-.86.86.38.85.86.85.85-.38.85-.85Z"/>
    </g>
  </g>
</svg>