<?xml version="1.0" encoding="UTF-8"?>
<svg id="Layer_2" data-name="Layer 2" xmlns="http://www.w3.org/2000/svg" viewBox="0 0 312.89 807.44">
  <defs>
    <style>
      .cls-1 {
        fill: #e8d3ba;
      }

      .cls-1, .cls-2, .cls-3, .cls-4, .cls-5, .cls-6, .cls-7, .cls-8, .cls-9 {
        stroke-width: 0px;
      }

      .cls-2 {
        fill: #d5b790;
      }

      .cls-3 {
        fill: #cf9650;
      }

      .cls-4 {
        fill: #966938;
      }

      .cls-5 {
        fill: #b27c41;
      }

      .cls-6 {
        fill: #ffb56c;
      }

      .cls-7 {
        fill: #fff;
      }

      .cls-8 {
        fill: #231f20;
      }

      .cls-9 {
        fill: #ae9175;
      }
    </style>
  </defs>
  <g id="BACTRIAN">
    <g id="POSE">
      <g>
        <path class="cls-9" d="m96.82,605.66s7,96.63,4.8,106.78c-2.2,10.14-9.6,17.25-4.8,33.48,0,0-1.39,7.1-1.59,22.32-.2,15.22,24.29,8.12,24.29,8.12,0,0,24.75,6.09,24.84-3.04s0-15.22,0-15.22c0,0,6.68-6.09-7.6-46.66,0,0-2.79-77.62-1.4-105.76,1.4-28.14-40.82-33.81-38.55,0Z"/>
        <path class="cls-4" d="m60.69,452.3s8.05,82.31,17.87,106.95c8.6,21.58,12.71,51.36,29.51,51.36s33.31,4.62,34.58-29.48c1.26-34.1,6.41-67.14,3.28-91.49-3.13-24.35-92.34-95.93-85.24-37.35Z"/>
        <path class="cls-9" d="m216.07,605.66s-7,96.63-4.8,106.78,9.6,17.25,4.8,33.48c0,0,1.39,7.1,1.59,22.32.2,15.22-24.29,8.12-24.29,8.12,0,0-24.75,6.09-24.84-3.04s0-15.22,0-15.22c0,0-6.68-6.09,7.6-46.66,0,0,2.79-77.62,1.4-105.76-1.4-28.14,40.82-33.81,38.55,0Z"/>
        <path class="cls-4" d="m252.21,452.3s-8.05,82.31-17.87,106.95c-8.6,21.58-12.71,51.36-29.51,51.36s-33.31,4.62-34.58-29.48-6.41-67.14-3.28-91.49c3.13-24.35,92.34-95.93,85.24-37.35Z"/>
        <path class="cls-1" d="m229.56,630.38c2.43-34.68-42.83-28.86-41.34,0,1.19,22.75-.42,77.07-1.15,99.01.41-.37.88-.66,1.46-.82,2.98-.83,2.81,1.66,5.28,1.84,2.15.16,1.91-1.62,3.44-2.61,2.07-1.35,4.39-1.02,6.6.08,1.51-1.45,2.39-3.93,5.14-3.82,1.56.07,1.44,1.72,3.05,1.7,2.31-.03,5.58-3.62,7.85-4.3,1.52.14,2.92.26,4.22.35.9-31.55,5.44-91.43,5.44-91.43Z"/>
        <path class="cls-1" d="m83.34,630.38c-2.43-34.68,42.83-28.86,41.34,0-1.19,22.75.42,77.07,1.15,99.01-.41-.37-.88-.66-1.46-.82-2.98-.83-2.81,1.66-5.28,1.84-2.15.16-1.91-1.62-3.44-2.61-2.07-1.35-4.39-1.02-6.6.08-1.51-1.45-2.39-3.93-5.14-3.82-1.56.07-1.44,1.72-3.05,1.7-2.31-.03-5.58-3.62-7.85-4.3-1.52.14-2.92.26-4.22.35-.9-31.55-5.44-91.43-5.44-91.43Z"/>
        <path class="cls-1" d="m134.32,786.68s.09,6.24,0,15.6c-.1,9.36-26.64,3.12-26.64,3.12,0,0-26.26,7.28-26.04-8.32.08-5.34.3-9.7.57-13.14,3.32.39,3.06,2.25,6.41,3.81,1.65.77,3.45.03,5.18.23,2.19.24,3.24,1.03,5.14,1.81,4,1.65,3.62-.78,7.03-2.64,1.7,3.35,5.57,2.2,9.03,2.25,5.1.08,5.9-.8,7.85-5.12,1.88,4.93,5.72,4.24,8.21-.24,1.73.2,2.87.69,4.18.92-.44,1.3-.9,1.71-.9,1.71Z"/>
        <path class="cls-3" d="m156.45,78.62v248.23c-7.69-.54-15.43.35-22.88,3.36-10.44,4.21-17.71,12.95-26.01,19.59-4.89,3.91-10.1,7.25-15.58,10.48-6.28,3.69-10.76,7.04-12.4,13.71-1.92,7.8-2.21,16.15-4.64,23.7-.93,2.87-2.3,5.19-2.37,8.22-.05,2.28,1.15,7.11.13,9.11-1.31,2.56-4.83.67-7.49,1.46,1.57,3.2,5.24,6.46,7.39,9.53,1.52,2.16,3.37,4.55,5.83,5.94,2.38,1.32,4.24,1.84,5.01,4.59,1.21,4.29-.44,3.45-3.01,5.53-.94-.92-4.26-3.09-5.62-3.47-2.2-.62-4.7.35-6.93-.03-2.79-.48-5.06-2.79-7.88-2.94-3.77-.2-2.91,1.49-3.24,4.07-7.44,2.65-20.35-9.21-23.8-14.96-4.59-.14-1.24,9.31-7.13,4.15-2.88-2.53-3.83-6.77-6.2-9.33-2.78,1.59-2.76,3.31-5.18.93-1.3-1.27-1.06-4.49-2.98-5.08-2.01-.62-7.15,3.64-8.75,4.56-1.03.58-1.88.92-2.67,1.14-.32-2.41,1.62-5.35,1.88-7.57.32-2.73,1.42-4.46,2.8-6.97,1.55-2.86,1.94-5.02,1.92-8.29-.02-2.29.17-4.65.04-6.94-.19-2.99-1.66-5.22-1.6-8.33.15-9.22,0-18.45,0-27.67v-7.6c1.03-1.06,1.33-1.19,2.76.55.61,2.46,1.24,4.9,1.91,7.34.68,1.95,1.44,3.86,2.31,5.75,1.08,3.46,1.26,10.6,7.24,6.78,2.92-1.87,3.82-6.12,7.34-7.35,1.06,2.33,5.36,17.37,9.89,16.85,3.32-.38,2.91-3.72,3.45-5.74.91-3.37,3.56-6.34,4.4-9.69.49-1.94.72-4.49,1.11-6.41.18-.89.46-9.02,2.31-10.24,1.02-.67,3.16.3,4.48-.25,1.46-.6,2.45-2.77,2.87-3.97,1.47-4.22,3.72-13.2,8.09-16.14,3.8-2.56,4.15-.89,4.75-5.98.36-3.07,2.18-8.79,4.64-11.08,1.69-1.57,2.92-.7,4.78-1.65,3.34-1.72,3.09-6.41,3.05-9.23-.05-5.46-1.07-10.8,1.58-15.47,3.13-5.53,2.96-12.71,3.55-18.86,1.04-10.99-.6-23.32,4.12-33.79.85-1.87,2.88-3.81,3.39-5.53.46-1.57-.24-3.82-.15-5.4.23-4.47,1.36-8.84,1.62-13.32.29-5.03.03-11.59,3.13-16.16,1.58-2.32,3.72-2.96,4.83-5.26.93-1.96.73-7.23,1.04-9.19,1.2-7.58,2.25-14.99,3.91-22.53,1.31-6.12,2.8-12.22,4.48-18.28.52-.98,1.04-1.95,1.56-2.93,2.69-1.32,2.87,1.48,4.63,2.41,2.87-.82,3.09-7.17,3.51-9.3,1.24-6.48,1.45-13.18,3.69-19.5,2.26-6.4,5.99-8.93,13.1-8,2.12.28-.2,1.9,3.27.94,2.95-.82,6.09-7.41,7.34-9.06,1.17-1.54,4.49-7.25,7.41-9.42Z"/>
        <path class="cls-5" d="m312.86,421.11c-.03.28-.1.56-.2.83-1.1,2.77-4.91,2.69-7.73,2.84-.63,1.85-.59,4.3-.1,6.17.38,1.44,1.85,2.57,1.57,4.17-.67,3.78-6.08,1.32-9.4,2.16-1.1,3.4,1.07,7.46-.42,10.74-.87.12-1.74.27-2.61.44-1.35,3.59.02,7.23-1.84,10.93-1.53,3.04-2.41,4.42-5.9,5.83-1.52.61-3.73,1.18-5.18,2.02-1.63.94-2.41,2.58-3.84,3.76-1.3,1.07-3.08,1.49-3.81,3-.75,1.55.07,3.67-.25,5.33-.44,2.24-2.5,4.65-3.06,7-.38,1.55.3,3.35.09,4.94-.19,1.44-.92,1.96-1.26,3.04-.57,1.8-.08,3.43-.31,5.28-.2,1.58-1.13,2.26-1.48,3.55-.75,2.84.71,6.15-.06,8.97-.45,1.64-1.42,2.23-1.69,4.06-.19,1.36.41,2.86.12,4.2-.45,2.1-1.56,3.42-1.7,5.65-.16,2.84-.57,5.1-1.18,7.86-.86,3.95-.44,7.63-1.57,11.45-.87,2.97.42,6.13-.29,9.06-.38,1.57-1.26,2.5-1.68,4.06-.42,1.53.48,3.35.13,4.9-.68,3.06-1.57,6.1-2.43,9.13-.99,3.47-.73,6.3-2.55,9.42-1.49,2.56-2.81,4.13-2.96,7.09-.14,2.92.9,6.57-.71,9.08-1.59,2.45-3.64,2.33-4.02,5.46-.4,3.39.64,6.03-1.71,8.89-2.02,2.46-4.72,2.21-7.51,3.98.93,2.68,4.55,3.72,1.08,6.27-1.15.85-3.24.4-4.51,1.28-1.51,1.05-.93,1.63-1.79,2.85-1.76,2.49-3.27,4.34-5.94,5.89-2.34,1.36-5.03,3.72-7.84,4.26-2.94.56-5.84-.8-8.72-1.32-1.39.03-2.75.06-4.09.04-2.1.45-3.75,1.37-5.99,1.28-2.44-.1-3.64-1.37-4.77-2.68-1.77-.58-3.43-1.4-4.94-2.53-1.25.51-2.29,1.65-4.27.71.47-1.14.91-2.34,1.3-3.56-3.61-4.45-5.97-11.75-6.42-23.64-1.05-27.1-2.49-63.17-1.52-89.66-7.04.6-14.49.89-22.45.89s-15.41-.29-22.45-.89c.97,26.49-.47,62.56-1.52,89.66-.46,11.89-2.81,19.19-6.42,23.64.39,1.22.83,2.42,1.3,3.56-1.98.94-3.02-.2-4.27-.71-1.51,1.13-3.16,1.95-4.94,2.53-1.13,1.31-2.32,2.59-4.77,2.68-2.25.09-3.89-.83-5.99-1.28-1.34.01-2.7,0-4.09-.04-2.88.51-5.79,1.88-8.72,1.32-2.82-.53-5.5-2.9-7.84-4.26-2.67-1.55-4.19-3.4-5.94-5.89-.86-1.22-.28-1.8-1.79-2.85-1.27-.89-3.36-.44-4.51-1.28-3.47-2.55.15-3.59,1.08-6.27-2.79-1.78-5.49-1.53-7.51-3.98-2.36-2.86-1.31-5.5-1.71-8.89-.38-3.13-2.43-3.01-4.02-5.46-1.62-2.5-.57-6.16-.71-9.08-.15-2.97-1.47-4.54-2.96-7.09-1.82-3.11-1.56-5.95-2.55-9.42-.86-3.03-1.75-6.08-2.43-9.13-.35-1.55.56-3.37.13-4.9-.42-1.56-1.3-2.49-1.68-4.06-.71-2.93.58-6.1-.29-9.06-1.13-3.82-.71-7.5-1.57-11.45-.6-2.76-1.02-5.03-1.18-7.86-.13-2.23-1.25-3.54-1.7-5.65-.29-1.35.31-2.84.12-4.2-.27-1.83-1.24-2.41-1.69-4.06-.77-2.82.7-6.12-.05-8.97-.35-1.29-1.28-1.97-1.48-3.55-.23-1.84.26-3.47-.31-5.28-.35-1.08-1.08-1.61-1.26-3.04-.2-1.59.48-3.39.09-4.94-.57-2.35-2.62-4.76-3.06-7-.32-1.66.49-3.77-.25-5.33-.73-1.5-2.51-1.93-3.81-3-1.43-1.18-2.21-2.82-3.84-3.76-1.45-.84-3.66-1.41-5.18-2.02-3.49-1.41-4.37-2.78-5.9-5.83-1.86-3.7-.49-7.34-1.84-10.93-.86-.17-1.74-.32-2.61-.44-1.49-3.28.68-7.34-.42-10.74-3.32-.84-8.73,1.62-9.4-2.16-.27-1.6,1.19-2.73,1.57-4.17.49-1.87.53-4.31-.1-6.17-2.82-.15-6.63-.07-7.73-2.84-.1-.26-.17-.54-.2-.83.79-.21,1.64-.55,2.67-1.14,1.6-.92,6.74-5.18,8.75-4.56,1.92.6,1.69,3.81,2.98,5.08,2.43,2.38,2.4.66,5.18-.93,2.36,2.56,3.31,6.8,6.2,9.33,5.89,5.16,2.54-4.29,7.13-4.15,3.45,5.75,16.36,17.61,23.8,14.96.33-2.58-.53-4.27,3.24-4.07,2.82.15,5.1,2.46,7.88,2.94,2.23.38,4.73-.58,6.93.03,1.36.38,4.68,2.55,5.62,3.47,2.57-2.09,4.22-1.25,3.01-5.53-.77-2.75-2.63-3.27-5.01-4.59-2.47-1.39-4.32-3.77-5.83-5.94-2.15-3.07-5.82-6.33-7.39-9.53,2.66-.8,6.18,1.1,7.49-1.46,1.03-2-.18-6.83-.13-9.11.07-3.03,1.44-5.35,2.37-8.22,2.43-7.55,2.72-15.91,4.64-23.7,1.64-6.67,6.12-10.02,12.4-13.71,5.48-3.22,10.69-6.57,15.58-10.48,8.29-6.64,15.57-15.38,26.01-19.59,7.45-3.01,15.19-3.9,22.88-3.36,7.69-.54,15.43.35,22.88,3.36,10.44,4.21,17.71,12.95,26.01,19.59,4.89,3.91,10.1,7.25,15.58,10.48,6.28,3.69,10.76,7.04,12.4,13.71,1.92,7.8,2.21,16.15,4.64,23.7.93,2.87,2.3,5.19,2.37,8.22.05,2.28-1.15,7.11-.13,9.11,1.31,2.56,4.83.67,7.49,1.46-1.57,3.2-5.24,6.46-7.39,9.53-1.52,2.16-3.37,4.55-5.83,5.94-2.38,1.32-4.24,1.84-5.01,4.59-1.21,4.29.44,3.45,3.01,5.53.94-.92,4.26-3.09,5.62-3.47,2.2-.62,4.7.35,6.93-.03,2.79-.48,5.06-2.79,7.88-2.94,3.77-.2,2.91,1.49,3.24,4.07,7.44,2.65,20.35-9.21,23.8-14.96,4.59-.14,1.24,9.31,7.13,4.15,2.88-2.53,3.83-6.77,6.2-9.33,2.78,1.59,2.76,3.31,5.18.93,1.3-1.27,1.06-4.49,2.98-5.08,2.01-.62,7.15,3.64,8.76,4.56,1.03.58,1.88.92,2.67,1.14Z"/>
        <path class="cls-6" d="m156.45.42v78.2c-2.92,2.18-6.24,7.89-7.41,9.42-1.26,1.65-4.39,8.24-7.34,9.06-3.47.96-1.15-.66-3.27-.94-7.11-.92-10.84,1.6-13.1,8-2.24,6.32-2.45,13.02-3.69,19.5-.42,2.13-.64,8.48-3.51,9.3-1.76-.93-1.94-3.74-4.63-2.41-.52.98-1.04,1.95-1.56,2.93-1.67,6.06-3.16,12.16-4.48,18.28-1.66,7.55-2.71,14.95-3.91,22.53-.31,1.96-.1,7.23-1.04,9.19-1.11,2.3-3.25,2.94-4.83,5.26-3.1,4.57-2.84,11.13-3.13,16.16-.26,4.49-1.39,8.86-1.62,13.32-.09,1.58.61,3.84.15,5.4-.51,1.72-2.54,3.66-3.39,5.53-4.73,10.47-3.08,22.8-4.12,33.79-.59,6.14-.42,13.33-3.55,18.86-2.65,4.67-1.63,10.01-1.58,15.47.03,2.82.29,7.51-3.05,9.23-1.86.95-3.09.08-4.78,1.65-2.46,2.28-4.28,8-4.64,11.08-.6,5.1-.95,3.43-4.75,5.98-4.37,2.93-6.62,11.92-8.09,16.14-.42,1.21-1.41,3.37-2.87,3.97-1.32.55-3.45-.42-4.48.25-1.85,1.22-2.13,9.35-2.31,10.24-.38,1.91-.62,4.47-1.11,6.41-.85,3.35-3.49,6.32-4.4,9.69-.54,2.02-.13,5.36-3.45,5.74-4.52.52-8.83-14.52-9.89-16.85-3.52,1.23-4.42,5.49-7.34,7.35-5.98,3.82-6.16-3.31-7.24-6.78-.86-1.89-1.63-3.8-2.31-5.75-.67-2.44-1.3-4.89-1.91-7.34-1.42-1.74-1.73-1.61-2.76-.55,0-7.27,0-14.53,0-21.8,0-3.09-.42-6.46-.08-9.54.31-2.86,1.52-5.49,1.73-8.36.36-5-1.26-10.47.27-15.31.93-2.93,1.05-4.98,1.19-8.12.15-3.38,1.34-6.46,1.61-9.82.32-4.06,1.21-8.36,1.92-12.44.86-4.94,1.57-10.01,2.8-14.95,2.21-8.89,4-17.82,6.68-26.6,1.28-4.21,3.48-8.41,4.39-12.62.81-3.72,1.59-7.31,3.07-11,2.13-5.31,3.58-10.26,5.88-15.33.83-1.83,1.11-3.93,1.92-5.56.51-1.02,1.43-1.56,1.7-2.66-.05-.98-.12-1.95-.17-2.93.11-.76.54-1.29,1.31-1.62,1.43-5.13,3.72-9.45,5.5-14.56,2.6-7.53,5.03-15.11,8.59-22.54,5.79-12.07,7.83-25.54,12.52-37.77,1.53-3.98,2.71-8.18,3.65-12.21.86-3.67-.85-4.64,2.72-7.31.66-.5,1.86-1.33,2.34-1.96,1.63-2.09,0-4.31,1.03-6.13,1.25-2.22,4.36-.5,6.08-2.92,1.88-2.64-.75-5.42,2.21-8.04,1.19-1.05,3.33-1.42,4.16-2.7,1.02-1.55-.31-3.41.15-4.97,1.23-4.11,6.87-1.64,9.22-5.08,1.88-2.73-.55-7.64.53-10.68,3.19-.6,5.47.43,7.96-1.32,3.42-2.41,2.73-7.32,6.65-9.27,1.29-.64,2.87-.59,4.23-1.19,1.63-.72,7.82-3.67,9.07-4.74,2.11-1.81,1.63.19,1.72-3.85.06-2.98-.66-6.14.05-9.06,3.98.33,4.83,4.05,7.98,5.27,3.51,1.37.82.12,3.28-.96.9-.4,3.42-1.1,4.02-1.56,1.55-1.2.42-3.92,3.53-3.92.86.74,1.48,1.6,1.87,2.59,2.14.37,5.55-2.76,8.13-3.82Z"/>
        <path class="cls-5" d="m135.22,784.97c-1.3-.24-2.45-.72-4.18-.92-2.48,4.49-6.33,5.17-8.21.24-1.95,4.32-2.76,5.21-7.85,5.12-3.45-.06-7.33,1.1-9.03-2.25-3.41,1.85-3.02,4.29-7.03,2.64-1.91-.78-2.95-1.57-5.14-1.81-1.74-.19-3.53.54-5.18-.23-3.34-1.56-3.09-3.43-6.41-3.81.49-6.6,1.14-9.75,1.14-9.75-5.15-16.64,2.8-23.92,5.15-34.32.53-2.32.56-9.03.29-18.06,1.3-.1,2.71-.22,4.22-.35,2.27.68,5.54,4.26,7.85,4.3,1.62.02,1.49-1.63,3.05-1.7,2.76-.11,3.64,2.37,5.14,3.82,2.21-1.1,4.53-1.42,6.6-.08,1.53,1,1.29,2.77,3.44,2.61,2.47-.19,2.29-2.68,5.28-1.84.58.16,1.05.45,1.46.82.2,5.88.34,9.44.34,9.44,11.4,30.98,10.34,42.35,9.05,46.14Z"/>
        <path class="cls-3" d="m94.57,745.73c.15-.74.1-1.54-.77-1.87-1.05.48-1.28,1.76-1.73,2.66-1.13,2.28-2.67,4.37-3.88,6.62-.72,1.34-.81,1.37-.12,2.5.63,1.04.94.76,1.01,2.23.15,3.23.81,6.32.79,9.57-.02,1.81-.49,4.28.15,5.99,1.08-.17,2.89-2.88,3.79-3.84-.1.63,1.02,3.43,1.34,3.81,1.11,1.36,1.31.77,2.57-.26,1.04-.85,1.51-1.25,3.16-1.05,1.87.23,1.68,1,3.12,2.13.53.41,1.98,1.63,2.69,1.35,1.06-.42.29-2.41.4-3.28.57-4.75,6.26.59,7.35,2.56,1.75-.55,1.22-2.61,3.68-2.76,2.28-.14,3.3,2.06,5.53,2.16,2.55.11,2.1-1.98,2.32-3.53.17-1.2-.04-1.47,1.57-1.42.9.03,1.89.59,2.43,1.19-.28-2.75.23-5.22-.82-7.89-1.04-2.63-1.47-5.56-2.44-8.12-.42-1.1-2.07-3.02-3.05-3.88-.64-.56-2.97-2.59-3.77-2.68-.72,2.49-1.12,5.02-1.88,7.5-2.23.17-2-2.02-3.97-.72-1.49.98-2.28,5.61-4.86,2.88-1.07-1.13-1.11-5.73-3.1-5.55-1.25.12-4.2,3.21-4.66,4.07-1.28-.31-1.85-2.07-2.05-3.12-.3-1.6-.79-2.77-.99-4.32-.22-.04-.44-.08-3.79-2.89Z"/>
        <path class="cls-1" d="m178.57,786.68s-.09,6.24,0,15.6c.1,9.36,26.64,3.12,26.64,3.12,0,0,26.26,7.28,26.04-8.32-.08-5.34-.3-9.7-.57-13.14-3.32.39-3.06,2.25-6.41,3.81-1.65.77-3.45.03-5.18.23-2.19.24-3.23,1.03-5.14,1.81-4,1.65-3.62-.78-7.03-2.64-1.7,3.35-5.57,2.2-9.03,2.25-5.1.08-5.9-.8-7.85-5.12-1.88,4.93-5.72,4.24-8.21-.24-1.73.2-2.87.69-4.18.92.44,1.3.9,1.71.9,1.71Z"/>
        <path class="cls-3" d="m156.45,78.62v248.23c7.69-.54,15.43.35,22.88,3.36,10.44,4.21,17.71,12.95,26.01,19.59,4.89,3.91,10.1,7.25,15.58,10.48,6.28,3.69,10.76,7.04,12.4,13.71,1.92,7.8,2.21,16.15,4.64,23.7.93,2.87,2.3,5.19,2.37,8.22.05,2.28-1.15,7.11-.13,9.11,1.31,2.56,4.83.67,7.49,1.46-1.57,3.2-5.24,6.46-7.39,9.53-1.52,2.16-3.37,4.55-5.83,5.94-2.38,1.32-4.24,1.84-5.01,4.59-1.21,4.29.44,3.45,3.01,5.53.94-.92,4.26-3.09,5.62-3.47,2.2-.62,4.7.35,6.93-.03,2.79-.48,5.06-2.79,7.88-2.94,3.77-.2,2.91,1.49,3.24,4.07,7.44,2.65,20.35-9.21,23.8-14.96,4.59-.14,1.24,9.31,7.13,4.15,2.88-2.53,3.83-6.77,6.2-9.33,2.78,1.59,2.76,3.31,5.18.93,1.3-1.27,1.06-4.49,2.98-5.08,2.01-.62,7.15,3.64,8.75,4.56,1.03.58,1.88.92,2.67,1.14.32-2.41-1.62-5.35-1.88-7.57-.32-2.73-1.42-4.46-2.8-6.97-1.55-2.86-1.94-5.02-1.92-8.29.02-2.29-.17-4.65-.04-6.94.19-2.99,1.66-5.22,1.6-8.33-.15-9.22,0-18.45,0-27.67v-7.6c-1.03-1.06-1.33-1.19-2.76.55-.61,2.46-1.24,4.9-1.91,7.34-.68,1.95-1.44,3.86-2.31,5.75-1.08,3.46-1.26,10.6-7.24,6.78-2.92-1.87-3.82-6.12-7.34-7.35-1.06,2.33-5.36,17.37-9.89,16.85-3.32-.38-2.91-3.72-3.45-5.74-.91-3.37-3.56-6.34-4.4-9.69-.49-1.94-.72-4.49-1.11-6.41-.18-.89-.46-9.02-2.31-10.24-1.02-.67-3.16.3-4.48-.25-1.46-.6-2.45-2.77-2.87-3.97-1.47-4.22-3.72-13.2-8.09-16.14-3.8-2.56-4.15-.89-4.75-5.98-.36-3.07-2.18-8.79-4.64-11.08-1.69-1.57-2.92-.7-4.78-1.65-3.34-1.72-3.09-6.41-3.05-9.23.05-5.46,1.07-10.8-1.58-15.47-3.12-5.53-2.96-12.71-3.55-18.86-1.04-10.99.6-23.32-4.12-33.79-.85-1.87-2.88-3.81-3.39-5.53-.46-1.57.24-3.82.15-5.4-.23-4.47-1.36-8.84-1.62-13.32-.29-5.03-.03-11.59-3.13-16.16-1.58-2.32-3.72-2.96-4.83-5.26-.93-1.96-.73-7.23-1.04-9.19-1.2-7.58-2.25-14.99-3.91-22.53-1.31-6.12-2.8-12.22-4.48-18.28-.52-.98-1.04-1.95-1.56-2.93-2.69-1.32-2.87,1.48-4.63,2.41-2.87-.82-3.09-7.17-3.51-9.3-1.24-6.48-1.45-13.18-3.69-19.5-2.26-6.4-5.99-8.93-13.1-8-2.12.28.2,1.9-3.27.94-2.95-.82-6.09-7.41-7.34-9.06-1.17-1.54-4.49-7.25-7.41-9.42Z"/>
        <path class="cls-6" d="m156.45.42v78.2c2.92,2.18,6.24,7.89,7.41,9.42,1.26,1.65,4.39,8.24,7.34,9.06,3.47.96,1.15-.66,3.27-.94,7.11-.92,10.84,1.6,13.1,8,2.24,6.32,2.45,13.02,3.69,19.5.42,2.13.64,8.48,3.51,9.3,1.76-.93,1.94-3.74,4.63-2.41.52.98,1.04,1.95,1.56,2.93,1.67,6.06,3.16,12.16,4.48,18.28,1.66,7.55,2.71,14.95,3.91,22.53.31,1.96.1,7.23,1.04,9.19,1.11,2.3,3.25,2.94,4.83,5.26,3.1,4.57,2.84,11.13,3.13,16.16.26,4.49,1.39,8.86,1.62,13.32.09,1.58-.61,3.84-.15,5.4.51,1.72,2.54,3.66,3.39,5.53,4.73,10.47,3.08,22.8,4.12,33.79.59,6.14.42,13.33,3.55,18.86,2.65,4.67,1.63,10.01,1.58,15.47-.03,2.82-.29,7.51,3.05,9.23,1.86.95,3.09.08,4.78,1.65,2.46,2.28,4.28,8,4.64,11.08.6,5.1.95,3.43,4.75,5.98,4.37,2.93,6.62,11.92,8.09,16.14.42,1.21,1.41,3.37,2.87,3.97,1.32.55,3.45-.42,4.48.25,1.85,1.22,2.13,9.35,2.31,10.24.38,1.91.62,4.47,1.11,6.41.85,3.35,3.49,6.32,4.4,9.69.54,2.02.13,5.36,3.45,5.74,4.52.52,8.83-14.52,9.89-16.85,3.52,1.23,4.42,5.49,7.34,7.35,5.98,3.82,6.16-3.31,7.24-6.78.86-1.89,1.63-3.8,2.31-5.75.67-2.44,1.3-4.89,1.91-7.34,1.42-1.74,1.73-1.61,2.76-.55,0-7.27,0-14.53,0-21.8,0-3.09.42-6.46.08-9.54-.31-2.86-1.52-5.49-1.73-8.36-.36-5,1.26-10.47-.27-15.31-.93-2.93-1.05-4.98-1.19-8.12-.15-3.38-1.34-6.46-1.61-9.82-.32-4.06-1.21-8.36-1.92-12.44-.86-4.94-1.57-10.01-2.8-14.95-2.21-8.89-4-17.82-6.68-26.6-1.28-4.21-3.48-8.41-4.39-12.62-.81-3.72-1.59-7.31-3.07-11-2.13-5.31-3.58-10.26-5.88-15.33-.83-1.83-1.11-3.93-1.92-5.56-.51-1.02-1.43-1.56-1.7-2.66.05-.98.12-1.95.17-2.93-.11-.76-.54-1.29-1.31-1.62-1.43-5.13-3.72-9.45-5.5-14.56-2.6-7.53-5.03-15.11-8.59-22.54-5.79-12.07-7.83-25.54-12.52-37.77-1.53-3.98-2.71-8.18-3.65-12.21-.86-3.67.85-4.64-2.72-7.31-.66-.5-1.86-1.33-2.34-1.96-1.63-2.09,0-4.31-1.03-6.13-1.25-2.22-4.36-.5-6.08-2.92-1.88-2.64.75-5.42-2.21-8.04-1.19-1.05-3.33-1.42-4.16-2.7-1.02-1.55.31-3.41-.15-4.97-1.23-4.11-6.87-1.64-9.22-5.08-1.88-2.73.55-7.64-.53-10.68-3.19-.6-5.47.43-7.96-1.32-3.42-2.41-2.73-7.32-6.65-9.27-1.29-.64-2.87-.59-4.23-1.19-1.63-.72-7.82-3.67-9.07-4.74-2.11-1.81-1.63.19-1.72-3.85-.06-2.98.66-6.14-.05-9.06-3.98.33-4.83,4.05-7.98,5.27-3.51,1.37-.82.12-3.28-.96-.9-.4-3.42-1.1-4.02-1.56-1.55-1.2-.42-3.92-3.53-3.92-.86.74-1.48,1.6-1.87,2.59-2.14.37-5.55-2.76-8.13-3.82Z"/>
        <path class="cls-5" d="m177.67,784.97c1.3-.24,2.45-.72,4.18-.92,2.48,4.49,6.33,5.17,8.21.24,1.95,4.32,2.76,5.21,7.85,5.12,3.45-.06,7.33,1.1,9.03-2.25,3.41,1.85,3.02,4.29,7.03,2.64,1.91-.78,2.95-1.57,5.14-1.81,1.74-.19,3.53.54,5.18-.23,3.34-1.56,3.09-3.43,6.41-3.81-.49-6.6-1.14-9.75-1.14-9.75,5.15-16.64-2.8-23.92-5.15-34.32-.53-2.32-.56-9.03-.29-18.06-1.3-.1-2.71-.22-4.22-.35-2.27.68-5.54,4.26-7.85,4.3-1.62.02-1.49-1.63-3.05-1.7-2.76-.11-3.64,2.37-5.14,3.82-2.21-1.1-4.53-1.42-6.6-.08-1.53,1-1.29,2.77-3.44,2.61-2.47-.19-2.29-2.68-5.28-1.84-.58.16-1.05.45-1.46.82-.2,5.88-.34,9.44-.34,9.44-11.4,30.98-10.34,42.35-9.05,46.14Z"/>
        <path class="cls-3" d="m218.32,745.73c-.15-.74-.1-1.54.77-1.87,1.05.48,1.28,1.76,1.73,2.66,1.13,2.28,2.67,4.37,3.88,6.62.72,1.34.81,1.37.12,2.5-.63,1.04-.94.76-1.01,2.23-.15,3.23-.81,6.32-.79,9.57.02,1.81.49,4.28-.15,5.99-1.08-.17-2.89-2.88-3.79-3.84.1.63-1.02,3.43-1.34,3.81-1.11,1.36-1.31.77-2.57-.26-1.04-.85-1.51-1.25-3.16-1.05-1.87.23-1.68,1-3.12,2.13-.53.41-1.98,1.63-2.69,1.35-1.06-.42-.29-2.41-.4-3.28-.57-4.75-6.26.59-7.35,2.56-1.75-.55-1.22-2.61-3.68-2.76-2.28-.14-3.3,2.06-5.53,2.16-2.55.11-2.1-1.98-2.32-3.53-.17-1.2.04-1.47-1.57-1.42-.9.03-1.89.59-2.43,1.19.28-2.75-.23-5.22.82-7.89,1.04-2.63,1.47-5.56,2.44-8.12.42-1.1,2.07-3.02,3.05-3.88.64-.56,2.97-2.59,3.77-2.68.72,2.49,1.12,5.02,1.88,7.5,2.23.17,2-2.02,3.97-.72,1.49.98,2.28,5.61,4.86,2.88,1.07-1.13,1.11-5.73,3.1-5.55,1.25.12,4.2,3.21,4.66,4.07,1.28-.31,1.85-2.07,2.05-3.12.3-1.6.79-2.77.99-4.32.22-.04.44-.08,3.79-2.89Z"/>
        <path class="cls-5" d="m233.59,394.56c-2.11.27-5.26.22-7.29-.21-.13-1.01-.26-1.96-.4-2.97-5.24-1.35-8.63,3.03-13.85,1.85-.15-.61-.29-1.21-.44-1.82-4.61-1.08-5.16.97-8.69,2.78-.67-1.71,1.44-4.58,2.36-6.04-2.03-.49-4.94-.55-6.97-.12-1.22.26-2.8,2.2-4.44.83-.68-.56-.4-3.73-.29-4.47.53-3.57,4.08-4.54,6.25-7.33-2.05-.15-3.37.29-3.68-1.71-.34-2.21,2.07-3.36,4.02-4.2,4.73-2.04,12.19-6.26,10.16-11.45-2.48.81-6.02,3.63-8.75,2.83-.08-1.16,1.05-3.45,1.98-4.33-2.54.19-6.03.43-8.48-.09-.34-2.94,5.65-3.9,4.98-7.42-2.45-.4-5.18.4-7.55-.33.45-1.33,2.08-2.53,2.81-3.93,1.11-2.12.99-1.9-1.63-2.97-1.6-.64-4.03-1.76-4.67-3.28-1.16-2.73,2.79-4.5,5.19-5.84-2.31-3.21,3.86-5.4,5.53-7.74-2.94-.34-5.74-2.88-4.07-5.17,1.38-1.87,3.72-1.22,3-3.79-.42-1.49-3.61-2.28-2.23-4.2.81-1.13,3.63-1,4.44-2.39.98-1.68.13-1.42-.72-2.86-3.44-5.84,1.83-2.09,5.24-4.25,4.06-2.57-1.66-5.82-3.65-7.43-.77-.63-2.66-2.12-2.79-3.1-.13-.97.81-1.36.91-2.16.33-2.79-1.06-1.41-2.89-3.23-3.32-3.32,4.54-5.7,5.79-8.77.94-2.31,3.71-10.23-1.1-10.13-.92-2.85.45-4.74,1.6-7.4.83-1.89,2.07-4.77-1.6-4.68-1.29-2.97.87-6.76-.15-9.75-1.22-3.56-7.5-.84-4.49-5.54.87-1.37,3.16-3.35,1.63-5.18-1.42-1.68-3.15-.51-3.76-2.92-1.35-5.26,7.4-4.73,10.27-7.46-.48-.89-2.64-3.16-2.3-4.11.59-1.65,4.66-1.69,5.78-3.26,1.76-2.48-1.21-2.97-3.06-4.44-1.73-1.36-2.7-3.36-3.08-5.3-2.52-.32-4.2-1.29-6.18-2.55.81-4.91,13.45-5.35,11.36-10.84-.51-1.33-2.01-1.94-2.42-3.21-.39-1.22.06-3.17.06-4.45.01-1.41-.24-3.02-.02-4.42.23-1.52,1.01-1.87,1.39-3.21.49-1.73.5-3.47,0-5.05.23-.2.49-.35.81-.48,3.6-1.42,9.05,4.32,11.72,1.78-1.01-2.69-2.31-5.68-2.2-8.4.15-3.79.45-5.23,4.99-5.65,1.04-3.02-.67-6.53.39-9.56,1.72-.27,4.22-1.36,5.87-1.24-1.71-4.28-5.06-8.87-6.1-13.17,2.25-.08,5.72.07,4.71-2.26-.54-1.24-3.37-1.76-4.23-3.02.53-.36,1.07-.7,1.61-1.04-2.5-2.63.42-3.13,1.57-4.91.67-1.03-.31-2.24.16-3.16.83-1.63,1.08-.23,2.41-1.26,2.69-2.09,1.08-2.89-1.02-4.94-2.78-2.72-3.42-3.47-.53-5.75,1.44-1.14,3.33-1.33,2.97-3.37-.18-1.03-1.88-1.63-2.2-2.41-.92-2.3,1.79-3.29,2.43-5.19,1.06-3.19-.87-4.25-3.31-6.06-1.51-1.12-6.1-5.43-.9-5.2.15-1.87,1.44-2.28,1.27-4.15-.18-1.87-1.22-1.06-.29-2.69.44-.78,1.53-.54,1.77-1.45-1.74-.92-3.35-1.46-4.76-2.75-1.66-1.52-.82-2.26-1.88-3.9-.28-.43-1.12-.59-1.41-1.02-.51-.77-.55-1.18-.94-1.95-.74-1.47-1.38-2.22-2.63-3.57-1.05-1.14-1.78-2.17-2.56-3.57-1.06-1.94-1.2-1.65.47-3.32,1.19-1.19,2.56-1,1.24-2.47-1.21-1.33-3.77-.85-5.21-2.12,1.41-1.98,7.87-4.13,2.91-5.32-2.95-.71-6.57.55-9.59-.11-.15-1.46-.31-3.12-1.46-4.25-1.65-1.63-2.23-.51-4.63-1.02-4.2-.9-2.22-4.86-3.44-7.64-1.55.69-4.29,1.84-6.32,1.08-1.9-.72-1.16-2.86-2.61-3.85-2.5-1.73-7.21,5.45-7.96-.49-2.34.31-2.26,2.28-2.49,3.87-1.72-.45-4.03-1.68-4.74-3.16-.75-1.58.58-3.63-1.2-4.85-1.39.42-3.13,3.79-3.28,4.99-1.22-.31-2.99-4.19-4.21-5.39-2.02-1.98-3.08-4.44-5.46-6.3-2.37,1.86-3.43,4.31-5.46,6.3-1.22,1.2-2.99,5.07-4.21,5.39-.15-1.2-1.89-4.58-3.28-4.99-1.78,1.22-.45,3.27-1.2,4.85-.71,1.48-3.02,2.71-4.74,3.16-.23-1.59-.15-3.57-2.49-3.87-.74,5.94-5.46-1.24-7.96.49-1.45,1-.7,3.13-2.61,3.85-2.03.76-4.76-.39-6.32-1.08-1.22,2.78.75,6.74-3.44,7.64-2.4.51-2.97-.62-4.63,1.02-1.15,1.13-1.31,2.79-1.46,4.25-3.02.66-6.64-.6-9.59.11-4.96,1.19,1.49,3.34,2.91,5.32-1.44,1.27-4,.78-5.21,2.12-1.33,1.46.04,1.28,1.24,2.47,1.67,1.68,1.53,1.38.47,3.32-.78,1.41-1.51,2.43-2.56,3.57-1.25,1.35-1.89,2.09-2.63,3.57-.39.77-.42,1.18-.94,1.95-.29.42-1.13.59-1.41,1.02-1.06,1.64-.22,2.38-1.88,3.9-1.41,1.3-3.02,1.84-4.76,2.75.24.91,1.33.67,1.77,1.45.93,1.63-.12.82-.29,2.69-.16,1.87,1.12,2.28,1.27,4.15,5.2-.23.61,4.08-.9,5.2-2.44,1.8-4.37,2.86-3.31,6.06.64,1.9,3.35,2.89,2.43,5.19-.31.78-2.01,1.38-2.2,2.41-.37,2.04,1.53,2.23,2.97,3.37,2.89,2.28,2.25,3.02-.53,5.75-2.1,2.05-3.71,2.85-1.02,4.94,1.33,1.03,1.58-.37,2.41,1.26.48.92-.51,2.14.16,3.16,1.16,1.78,4.07,2.28,1.57,4.91.54.34,1.08.68,1.61,1.04-.86,1.26-3.68,1.77-4.23,3.02-1.01,2.33,2.46,2.18,4.71,2.26-1.04,4.31-4.39,8.9-6.1,13.17,1.65-.12,4.14.97,5.87,1.24,1.05,3.02-.65,6.54.39,9.56,4.53.42,4.84,1.86,4.99,5.65.1,2.72-1.19,5.7-2.2,8.4,2.67,2.54,8.13-3.2,11.72-1.78.31.12.58.28.81.48-.51,1.57-.5,3.32,0,5.05.38,1.34,1.16,1.69,1.39,3.21.22,1.4-.04,3-.02,4.42,0,1.28.45,3.24.06,4.45-.42,1.27-1.91,1.89-2.42,3.21-2.09,5.49,10.54,5.94,11.36,10.84-1.98,1.26-3.66,2.23-6.17,2.55-.38,1.94-1.35,3.94-3.08,5.3-1.85,1.46-4.83,1.96-3.06,4.44,1.13,1.57,5.2,1.6,5.78,3.26.34.95-1.82,3.21-2.3,4.11,2.87,2.73,11.62,2.2,10.27,7.46-.62,2.41-2.34,1.24-3.76,2.92-1.53,1.82.76,3.81,1.63,5.18,3.01,4.69-3.27,1.98-4.49,5.54-1.03,2.99,1.14,6.77-.15,9.75-3.68-.1-2.44,2.79-1.6,4.68,1.16,2.67,2.52,4.55,1.6,7.4-4.81-.1-2.04,7.82-1.1,10.13,1.25,3.08,9.11,5.46,5.79,8.77-1.82,1.82-3.21.44-2.89,3.23.1.8,1.04,1.19.91,2.16-.13.99-2.02,2.48-2.79,3.1-1.99,1.61-7.72,4.86-3.65,7.43,3.41,2.17,8.68-1.58,5.24,4.25-.85,1.44-1.7,1.19-.72,2.86.81,1.39,3.64,1.26,4.44,2.39,1.38,1.93-1.81,2.71-2.23,4.2-.72,2.56,1.63,1.91,3,3.79,1.67,2.29-1.14,4.83-4.07,5.17,1.67,2.34,7.84,4.53,5.53,7.74,2.4,1.34,6.35,3.1,5.19,5.84-.64,1.52-3.07,2.64-4.67,3.28-2.62,1.07-2.75.84-1.63,2.97.73,1.39,2.36,2.59,2.81,3.93-2.36.73-5.1-.07-7.55.33-.67,3.52,5.32,4.47,4.98,7.42-2.45.52-5.94.28-8.48.09.93.88,2.06,3.16,1.98,4.33-2.73.81-6.27-2.02-8.75-2.83-2.03,5.19,5.43,9.41,10.16,11.45,1.96.83,4.36,1.98,4.02,4.2-.32,1.99-1.63,1.55-3.68,1.71,2.17,2.79,5.71,3.76,6.25,7.33.11.74.4,3.91-.29,4.47-1.64,1.36-3.21-.58-4.44-.83-2.03-.42-4.94-.37-6.97.12.92,1.46,3.03,4.33,2.36,6.04-3.54-1.81-4.09-3.86-8.69-2.78-.15.61-.29,1.21-.44,1.82-5.21,1.19-8.61-3.19-13.85-1.85-.13,1.01-.26,1.96-.4,2.97-2.04.43-5.18.48-7.29.21-.21-.03-.41-.07-.61-.11.21,1.52.67,3.09,1.66,4.31.65.81,1.73,1.26,2.43,1.98,1.15,1.19,1.08,2.43,1.37,3.9,1.59-.09,2.8-1.37,4.49-1.32.36,1.63-.31,3.43.02,5.05.36,1.7,2.23,2.88,3.49,3.75,1.4.98,1.42,1.47,2.18,2.83,1.27,2.23,2.81,4.23,3.96,6.59,2.26-1.93,4.01,3.27,6.39,3.71,1.6.29,2.59-.4,3.93.67,1.49,1.2,2.25,2.97,4.12,3.91,1.67.84,2.26-.52,4.07-.28,2.03.26,4.81,3.42,6.11,4.71,1.85,1.83,2.09.72,4.42.45.61-.07,1.79-.14,2.37,0,1.14.26.97.65,1.87,1.33,1.26.94,4.59,2.97,6.16,2.24.45-.2.62-.94,1.05-1.18,1.51-.84,3.84.12,5.26.64,4.1,1.51,7.95,5.22,12.4,6.33,4.46-1.11,8.3-4.83,12.4-6.33,1.41-.52,3.75-1.48,5.26-.64.43.23.6.97,1.05,1.18,1.57.73,4.9-1.3,6.16-2.24.9-.67.72-1.07,1.87-1.33.58-.13,1.76-.06,2.37,0,2.32.26,2.56,1.38,4.42-.45,1.3-1.29,4.09-4.44,6.11-4.71,1.82-.24,2.4,1.12,4.07.28,1.87-.94,2.62-2.71,4.12-3.91,1.34-1.06,2.33-.37,3.93-.67,2.39-.44,4.14-5.64,6.39-3.71,1.15-2.37,2.69-4.36,3.96-6.59.76-1.35.78-1.85,2.18-2.83,1.26-.87,3.13-2.05,3.49-3.75.34-1.62-.34-3.42.02-5.05,1.69-.05,2.9,1.23,4.49,1.32.29-1.46.22-2.7,1.37-3.9.7-.72,1.78-1.18,2.43-1.98.99-1.22,1.45-2.78,1.66-4.31-.2.04-.4.08-.61.11Zm-28.84-215.4c-.11.27-.23.54-.37.8.14-.26.26-.53.37-.8Zm-96.62,0c.11.27.23.54.37.8-.15-.26-.26-.53-.37-.8Z"/>
        <path class="cls-2" d="m108.99,86.44c-7.36,9.53,5.56-2.47,11.81,6.81,6.25,9.27,4.01,8.33,7.33,5.14,3.32-3.19,6.09-1.11,3.48,7.62-2.61,8.72-5.34,27.76-3.48,35.57,1.85,7.81,2.53,12.2,28.31,12.2v13.94c-2.9,1.26-4.68,3.26-7.39.83-.52-.46-1.51-2.15-2.17-2.36-.58-.18-2.44.87-3.27.99-2.57.37-4.37-.04-6.37-1.12-1.76-.95-.46-.91-2.45-.55-1.01.18-1.61,1.24-2.5-.37-2.72,1.07-3.04.55-6.1-.06.12,3.82-4.35.72-6.14-.25-3.11-1.69-2.07-3.51-3.02-6.28-.61-.12-1.22-.25-1.82-.37-.57-1.68.25-3.46-.37-5.12-.61-.12-1.22-.25-1.82-.37-.42-1.4.28-2.92-.13-4.26-.39-1.25-1.49-1.32-2.03-2.36-1.02-1.97,2.87-5.79-1.14-5.46-.43-1.44.21-2.86-.13-4.26-.21-.9-1.27-1.2-1.27-2.14,0-1.02,1.19-1.19,1.29-2.17.23-2.18-1.11-1.41-1.55-2.88-.51-1.73,1.84-3.97,2.32-5.95.51-2.1.62-5.43.08-7.49-6.1-.12-.18-8.05-6.26-8.07-.47-1.58.15-3.2-.12-4.8-.2-1.16-.75-2.03-1.27-3.12-.56-1.17-.58-2.66-1.18-3.76-.51-.94-1.56-1.02-1.82-2.11.83-.64,3.96-4.6,4.06-5.82.1-1.09-1.17-1.16-1.05-2.16.15-1.24.98-1.01,1.52-1.9,1.05-1.76.71-3.36,1.87-4.96,1.16-1.6,2.42-4.2,3.82-5.27,3.84-2.94,10.44-.15,14.88-1.29,2.77-.71,4.88-.66,5.54-3.6.44-1.99,1.04-3.78,1.22-5.88,1.59-.46,3.22.19,4.82-.12,1.54-.3,1.45-1.07,2.67-1.73,1.26-.69,2.57-.03,3.8-.59,1.34-.61,1-1.92,1.82-2.59,2.4-1.94,3.01,2.27,5.37,2.75,2.71.56,1.22-1.36,2.42-2.11,1.21-.75,2.62.48,3.88.86v6.97s-15.81,1.46-22.36,17.57c0,0-17.74-7.07-25.09,2.47Z"/>
        <path class="cls-1" d="m139.63,109.84c-1.31,6.91,7.94,5.05,7.88,5.59-.07.53,7.52,7.98,7.52,7.98v12.06c0,6.74-1.77,9.76-7.52,10.29-5.75.53-13.42-2.12-13.42-2.12,3.19,5.68,22.36,4.61,22.36,4.61v5.54c-25.78,0-26.46-4.39-28.31-12.2-1.86-7.81.87-26.85,3.48-35.57,2.61-8.72-.16-10.81-3.48-7.62-3.32,3.19-1.08,4.13-7.33-5.14-6.25-9.28-19.17,2.72-11.81-6.81,7.36-9.53,25.09-2.47,25.09-2.47,6.55-16.11,22.36-17.57,22.36-17.57v43.62c-6.98-3.57-16.01-4.42-16.82-.18Z"/>
        <path class="cls-8" d="m156.44,110.02v38.22s-19.16,1.06-22.35-4.61c0,0,7.66,2.66,13.41,2.13s7.52-3.55,7.52-10.29v-12.07s-7.59-7.45-7.52-7.98c.07-.54-9.19,1.33-7.88-5.59.8-4.23,9.84-3.38,16.82.19Z"/>
        <path class="cls-8" d="m120.8,97.52s-4.26-6.74-9.93-6.74-9.58,6.74-9.58,6.74c0,0-1.77,6.74,6.39,8.16,0,0,9.58,2.84,13.13-8.16Z"/>
        <path class="cls-7" d="m156.44,75.22s-6.15-.8-11.18,5.61c-5.03,6.41-5.63,11.52-2.59,15.22s6.05,0,13.77,0v-20.83Z"/>
        <path class="cls-7" d="m138.56,118.64s-4.76,4.88-4.47,11.23c.29,6.35,1.62,10.57,11.18,9.76,9.56-.8,5.83-4.54,6.2-11.97.37-7.43-10.28-12.75-12.9-9.02Z"/>
        <path class="cls-3" d="m247.17,156.17c.51,1.33,1.72,2.91,1.06,4.44-.6,1.43-2.15,1.55-3.59,2.36,1.77,2.26,3.62,2.12,2.59,4.42-.86,1.92-1.75,2.44-1.7,4.71.05,1.97.92,2.15,1.39,3.78.45,1.62-.1,3.87-.07,5.54.04,1.74.22,2.97-1.16,4.39-1,1.04-4.14,1.69-4.25,3.35-.04.66.95.86,1.17,1.29.71,1.35,1.79,2.76,2.31,4.15.54,1.51.2,3.41.89,5,.73,1.65,2.47,2.3,2.44,4.34-.04,2.15-1.74,2.95-3.41,4.39-3.32,2.88.79,5.42.77,9.07-.01,2.73-2.12,3.51-2.75,5.73-.3,1.07.1,2.78.1,3.87,0,2.85-.43,5.97-.04,8.79.23,1.71,1.68,3.16,1.44,4.94-.23,1.62-1.73,2.64-1.49,4.39.4,2.84,2.46,4.84.8,7.73-.81,1.4-2.43,1.22-2.09,3.28.19,1.16,1.22,1.91,1.41,3.24.3,1.9-.75,2.24-1.06,3.57-.44,1.9.67,2.28,1.43,3.9,1.38,3.01-2.43,3.08-3.07,5.71-.43,1.76.94,1.98,1.74,3.27,1,1.61.87,2.69.94,4.45.14,3.68-3.49,5.6-2.47,9.34.43,1.59,1.83,2.56,1.1,4.31-.4.97-1.8,1.46-2.52,2.27-3.16,3.56,3.04,3.41,2.44,6.91-.55,3.25-6.36,1.08-4.43,4.67.81,1.49,1.74,1.29,2.03,3.24.04.21.2,1.93.08,2.28-.36.94-1.19.69-1.46,1.28-1.5,3.31,4,4.01,3.86,7.23-1.96,1-3.74.87-3.76,2.91,0,1.64,2.12,3.71,2.46,5.45.15.81.72,4.14-.1,4.87-1.01.89-3.27-.21-4.54.94,2.3,2.56,1.46,4.87,2.89,7.48.74,1.35,6.24,5.43.7,5.18,1.11,2.16,1.11,3.77,1.14,6.34,0,.98.34,2.17-.26,3.08-.53.83-1.82,1.02-2.25,1.96-1.16,2.58,4.42,7.84,8.94,10.31.13.84.13,1.55-.11,2-.53,1-2.9,3.1-3.85,3.82-.41.32-.85.59-1.3.84.08.48.18.95.37,1.38.77,1.66,1.94,2.9,3.11,4.32-.87.19-2.89-.42-3.57.18-.91.82.26,3.66-.07,4.71-.47,1.44-1.18,1.06-2.77,1.04-1.52-.02-2.69-.33-3.53.68-.81.97-.69,2.52-.75,3.66-.02.49-.06,1-.12,1.51-.2.04-.4.08-.61.11-2.11.27-5.26.22-7.29-.21-.13-1.01-.26-1.96-.4-2.97-5.24-1.35-8.63,3.03-13.85,1.85-.15-.61-.29-1.21-.44-1.82-4.61-1.08-5.16.97-8.69,2.78-.67-1.71,1.44-4.58,2.36-6.04-2.03-.49-4.94-.55-6.97-.12-1.22.26-2.8,2.2-4.44.83-.68-.56-.4-3.73-.29-4.47.53-3.57,4.08-4.54,6.25-7.33-2.05-.15-3.37.29-3.68-1.71-.34-2.21,2.07-3.36,4.02-4.2,4.73-2.04,12.19-6.26,10.16-11.45-2.48.81-6.02,3.63-8.75,2.83-.08-1.16,1.05-3.45,1.98-4.33-2.54.19-6.03.43-8.48-.09-.34-2.94,5.65-3.9,4.98-7.42-2.45-.4-5.18.4-7.55-.33.45-1.33,2.08-2.53,2.81-3.93,1.11-2.12.99-1.9-1.63-2.97-1.6-.64-4.03-1.76-4.67-3.28-1.16-2.73,2.79-4.5,5.19-5.84-2.31-3.21,3.86-5.4,5.53-7.74-2.94-.34-5.74-2.88-4.07-5.17,1.38-1.87,3.72-1.22,3-3.79-.42-1.49-3.61-2.28-2.23-4.2.81-1.13,3.63-1,4.44-2.39.98-1.68.13-1.42-.72-2.86-3.44-5.84,1.83-2.09,5.24-4.25,4.06-2.57-1.66-5.82-3.65-7.43-.77-.63-2.66-2.12-2.79-3.1-.13-.97.81-1.36.91-2.16.33-2.79-1.06-1.41-2.89-3.23-3.32-3.32,4.54-5.7,5.79-8.77.94-2.31,3.71-10.23-1.1-10.13-.92-2.85.45-4.74,1.6-7.4.83-1.89,2.07-4.77-1.6-4.68-1.29-2.97.87-6.76-.15-9.75-1.22-3.56-7.5-.84-4.49-5.54.87-1.37,3.16-3.35,1.63-5.18-1.42-1.68-3.15-.51-3.76-2.92-1.35-5.26,7.4-4.73,10.27-7.46-.48-.89-2.64-3.16-2.3-4.11.59-1.65,4.66-1.69,5.78-3.26,1.76-2.48-1.21-2.97-3.06-4.44-1.73-1.36-2.7-3.36-3.08-5.3-2.52-.32-4.2-1.29-6.18-2.55.81-4.91,13.45-5.35,11.36-10.84-.51-1.33-2.01-1.94-2.42-3.21-.39-1.22.06-3.17.06-4.45.01-1.41-.24-3.02-.02-4.42.23-1.52,1.01-1.87,1.39-3.21.49-1.73.5-3.47,0-5.05.23-.2.49-.35.81-.48,3.6-1.42,9.05,4.32,11.72,1.78-1.01-2.69-2.31-5.68-2.2-8.4.15-3.79.45-5.23,4.99-5.65,1.04-3.02-.67-6.53.39-9.56,1.72-.27,4.22-1.36,5.87-1.24-1.71-4.28-5.06-8.87-6.1-13.17,2.25-.08,5.72.07,4.71-2.26-.54-1.24-3.37-1.76-4.23-3.02.53-.36,1.07-.7,1.61-1.04-2.5-2.63.42-3.13,1.57-4.91.67-1.03-.31-2.24.16-3.16.83-1.63,1.08-.23,2.41-1.26,2.69-2.09,1.08-2.89-1.02-4.94-2.78-2.72-3.42-3.47-.53-5.75,1.44-1.14,3.33-1.33,2.97-3.37-.18-1.03-1.88-1.63-2.2-2.41-.92-2.3,1.79-3.29,2.43-5.19,1.06-3.19-.87-4.25-3.31-6.06-1.51-1.12-6.1-5.43-.9-5.2.15-1.87,1.44-2.28,1.27-4.15-.18-1.87-1.22-1.06-.29-2.69.44-.78,1.53-.54,1.77-1.45-1.74-.92-3.35-1.46-4.76-2.75-1.66-1.52-.82-2.26-1.88-3.9-.28-.43-1.12-.59-1.41-1.02-.51-.77-.55-1.18-.94-1.95-.74-1.47-1.38-2.22-2.63-3.57-1.05-1.14-1.78-2.17-2.56-3.57-1.06-1.94-1.2-1.65.47-3.32,1.19-1.19,2.56-1,1.24-2.47-1.21-1.33-3.77-.85-5.21-2.12,1.41-1.98,7.87-4.13,2.91-5.32-2.95-.71-6.57.55-9.59-.11-.15-1.46-.31-3.12-1.46-4.25-1.65-1.63-2.23-.51-4.63-1.02-4.2-.9-2.22-4.86-3.44-7.64-1.55.69-4.29,1.84-6.32,1.08-1.9-.72-1.16-2.86-2.61-3.85-2.5-1.73-7.21,5.45-7.96-.49-2.34.31-2.26,2.28-2.49,3.87-1.72-.45-4.03-1.68-4.74-3.16-.75-1.58.58-3.63-1.2-4.85-1.39.42-3.13,3.79-3.28,4.99-1.22-.31-2.99-4.19-4.21-5.39-2.02-1.98-3.08-4.44-5.46-6.3-2.37,1.86-3.43,4.31-5.46,6.3-1.22,1.2-2.99,5.07-4.21,5.39-.15-1.2-1.89-4.58-3.28-4.99-1.78,1.22-.45,3.27-1.2,4.85-.71,1.48-3.02,2.71-4.74,3.16-.23-1.59-.15-3.57-2.49-3.87-.74,5.94-5.46-1.24-7.96.49-1.45,1-.7,3.13-2.61,3.85-2.03.76-4.76-.39-6.32-1.08-1.22,2.78.75,6.74-3.44,7.64-2.4.51-2.97-.62-4.63,1.02-1.15,1.13-1.31,2.79-1.46,4.25-3.02.66-6.64-.6-9.59.11-4.96,1.19,1.49,3.34,2.91,5.32-1.44,1.27-4,.78-5.21,2.12-1.33,1.46.04,1.28,1.24,2.47,1.67,1.68,1.53,1.38.47,3.32-.78,1.41-1.51,2.43-2.56,3.57-1.25,1.35-1.89,2.09-2.63,3.57-.39.77-.42,1.18-.94,1.95-.29.42-1.13.59-1.41,1.02-1.06,1.64-.22,2.38-1.88,3.9-1.41,1.3-3.02,1.84-4.76,2.75.24.91,1.33.67,1.77,1.45.93,1.63-.12.82-.29,2.69-.16,1.87,1.12,2.28,1.27,4.15,5.2-.23.61,4.08-.9,5.2-2.44,1.8-4.37,2.86-3.31,6.06.64,1.9,3.35,2.89,2.43,5.19-.31.78-2.01,1.38-2.2,2.41-.37,2.04,1.53,2.23,2.97,3.37,2.89,2.28,2.25,3.02-.53,5.75-2.1,2.05-3.71,2.85-1.02,4.94,1.33,1.03,1.58-.37,2.41,1.26.48.92-.51,2.14.16,3.16,1.16,1.78,4.07,2.28,1.57,4.91.54.34,1.08.68,1.61,1.04-.86,1.26-3.68,1.77-4.23,3.02-1.01,2.33,2.46,2.18,4.71,2.26-1.04,4.31-4.39,8.9-6.1,13.17,1.65-.12,4.14.97,5.87,1.24,1.05,3.02-.65,6.54.39,9.56,4.53.42,4.84,1.86,4.99,5.65.1,2.72-1.19,5.7-2.2,8.4,2.67,2.54,8.13-3.2,11.72-1.78.31.12.57.28.81.48-.51,1.57-.5,3.32,0,5.05.38,1.34,1.16,1.69,1.39,3.21.22,1.4-.04,3-.02,4.42,0,1.28.45,3.24.06,4.45-.42,1.27-1.91,1.89-2.42,3.21-2.09,5.49,10.54,5.94,11.36,10.84-1.98,1.26-3.66,2.23-6.17,2.55-.38,1.94-1.35,3.94-3.08,5.3-1.85,1.46-4.83,1.96-3.06,4.44,1.13,1.57,5.2,1.6,5.78,3.26.34.95-1.82,3.21-2.3,4.11,2.87,2.73,11.62,2.2,10.27,7.46-.62,2.41-2.34,1.24-3.76,2.92-1.53,1.82.76,3.81,1.63,5.18,3.01,4.69-3.27,1.98-4.49,5.54-1.03,2.99,1.14,6.77-.15,9.75-3.68-.1-2.44,2.79-1.6,4.68,1.16,2.67,2.52,4.55,1.6,7.4-4.81-.1-2.04,7.82-1.1,10.13,1.25,3.08,9.11,5.46,5.79,8.77-1.82,1.82-3.21.44-2.89,3.23.1.8,1.04,1.19.91,2.16-.13.99-2.02,2.48-2.79,3.1-1.99,1.61-7.72,4.86-3.65,7.43,3.41,2.17,8.68-1.58,5.24,4.25-.85,1.44-1.7,1.19-.72,2.86.81,1.39,3.64,1.26,4.44,2.39,1.38,1.93-1.81,2.71-2.23,4.2-.72,2.56,1.63,1.91,3,3.79,1.67,2.29-1.14,4.83-4.07,5.17,1.67,2.34,7.84,4.53,5.53,7.74,2.4,1.34,6.35,3.1,5.19,5.84-.64,1.52-3.07,2.64-4.67,3.28-2.62,1.07-2.75.84-1.63,2.97.73,1.39,2.36,2.59,2.81,3.93-2.36.73-5.1-.07-7.55.33-.67,3.52,5.32,4.47,4.98,7.42-2.45.52-5.94.28-8.48.09.93.88,2.06,3.16,1.98,4.33-2.73.81-6.27-2.02-8.75-2.83-2.03,5.19,5.43,9.41,10.16,11.45,1.96.83,4.36,1.98,4.02,4.2-.32,1.99-1.63,1.55-3.68,1.71,2.17,2.79,5.71,3.76,6.25,7.33.11.74.4,3.91-.29,4.47-1.64,1.36-3.21-.58-4.44-.83-2.03-.42-4.94-.37-6.97.12.92,1.46,3.03,4.33,2.36,6.04-3.54-1.81-4.09-3.86-8.69-2.78-.15.61-.29,1.21-.44,1.82-5.21,1.19-8.61-3.19-13.85-1.85-.13,1.01-.26,1.96-.4,2.97-2.04.43-5.18.48-7.29.21-.21-.03-.41-.07-.61-.11-.07-.51-.1-1.02-.12-1.51-.07-1.14.05-2.69-.75-3.66-.84-1.01-2.01-.7-3.53-.68-1.59.02-2.3.4-2.77-1.04-.34-1.05.83-3.89-.07-4.71-.68-.6-2.7,0-3.57-.18,1.17-1.42,2.34-2.66,3.11-4.32.2-.42.29-.9.37-1.38-.45-.25-.89-.52-1.3-.84-.95-.72-3.32-2.83-3.85-3.82-.24-.45-.24-1.16-.11-2,4.52-2.47,10.11-7.73,8.94-10.31-.42-.94-1.71-1.13-2.25-1.96-.61-.91-.27-2.09-.26-3.08.04-2.57.03-4.18,1.14-6.34-5.54.26-.04-3.82.7-5.18,1.43-2.61.59-4.92,2.89-7.48-1.27-1.15-3.53-.04-4.54-.94-.82-.72-.25-4.06-.1-4.87.34-1.74,2.47-3.81,2.46-5.45-.01-2.04-1.8-1.92-3.76-2.91-.14-3.22,5.36-3.93,3.86-7.23-.27-.59-1.11-.34-1.46-1.28-.12-.35.04-2.07.08-2.28.29-1.95,1.22-1.74,2.03-3.24,1.93-3.59-3.88-1.42-4.43-4.67-.6-3.49,5.59-3.35,2.44-6.91-.72-.81-2.12-1.3-2.52-2.27-.73-1.75.67-2.72,1.1-4.31,1.01-3.73-2.61-5.66-2.48-9.34.07-1.76-.07-2.84.94-4.45.79-1.29,2.17-1.51,1.74-3.27-.64-2.63-4.45-2.7-3.07-5.71.75-1.63,1.87-2,1.43-3.9-.31-1.33-1.36-1.67-1.06-3.57.2-1.33,1.22-2.08,1.41-3.24.34-2.06-1.28-1.88-2.09-3.28-1.66-2.89.4-4.89.8-7.73.24-1.75-1.26-2.78-1.49-4.39-.25-1.78,1.2-3.23,1.44-4.94.39-2.82-.05-5.94-.04-8.79,0-1.09.4-2.8.1-3.87-.63-2.23-2.73-3-2.75-5.73-.02-3.65,4.09-6.19.77-9.07-1.67-1.44-3.38-2.23-3.41-4.39-.03-2.04,1.71-2.69,2.44-4.34.7-1.59.35-3.49.89-5,.51-1.39,1.6-2.8,2.31-4.15.22-.42,1.22-.63,1.17-1.29-.1-1.66-3.25-2.31-4.25-3.35-1.38-1.43-1.19-2.65-1.16-4.39.03-1.68-.53-3.92-.07-5.54.47-1.63,1.34-1.81,1.39-3.78.05-2.27-.84-2.79-1.7-4.71-1.04-2.3.81-2.17,2.58-4.42-1.44-.81-2.99-.93-3.59-2.36-.66-1.53.55-3.11,1.06-4.44,1.13-2.99,2.87-4.69-.97-6.35-1.74-.75-3.3-.04-2.68-2.47.25-1,1.25-1.08,1.73-1.86,1.16-1.9.19-1.1-.07-2.75-.2-1.29-.72-2.14.51-3.3-4.3-4.91.59-6.97,3.1-11.38,1.92-3.37,1.24-3.73-.55-7.06-1.63-3.01-.04-2.88,1.86-4.92,2.06-2.21,2.3-9.72,1.35-12.7-.55-1.73-2.86-3.86-3.98-5.43-2.88-4.06,1.01-3.12,2.46-6.59,1.37-3.31-3.77-3.17-3.92-5.46-.18-2.91,4.7-2.8,6.73-3.3,4.57-1.11,4.96-4.4,7.69-6.65,2.68-2.2,6.06-4.42,8.78-6.83,3.75-3.32-.42-8.11-2.04-11.51,3.1-1.7-.48-5.42.49-7.34.47-.39,1.02-.69,1.64-.89.24-.63.43-1.27.56-1.93.78-1.51.96-2.64,1.2-4.23,2.15-.05,3.13-1.24,3.57-2.92.67-2.55-.92-2.92,1.94-3.87,2.11-.7,5.66-.07,7.07-2.13,1.16-1.69-.56-3.79-1.02-5.35,2.75-.66,5.65-1.12,8.49-1.33,3.28-.24,2.26-.79,4.97-2.07,3.55-1.68,7.98-.64,4.98-5.42,2.43-.75,6.41.67,8.58-.94,2.03-1.51.45-1.22,1.45-3.11,2.03-3.86,9.02-.23,12.73-1.79.12-.63.26-1.27.38-1.9,2.32-.33,3.57,2.35,6.14,1.98.13-.64.25-1.29.37-1.93,1.86-.57,4.92.77,7.18,1.61,2.26-.84,5.32-2.18,7.18-1.61.12.64.24,1.29.37,1.93,2.57.37,3.82-2.31,6.14-1.98.12.64.26,1.27.38,1.9,3.71,1.57,10.7-2.06,12.73,1.79,1,1.89-.58,1.6,1.45,3.11,2.17,1.6,6.15.18,8.58.94-3,4.78,1.43,3.74,4.98,5.42,2.71,1.28,1.69,1.83,4.97,2.07,2.85.2,5.74.67,8.49,1.33-.45,1.57-2.17,3.66-1.02,5.35,1.41,2.07,4.96,1.44,7.07,2.13,2.86.94,1.27,1.32,1.94,3.87.44,1.68,1.43,2.87,3.57,2.92.24,1.59.42,2.72,1.2,4.23.12.65.31,1.3.56,1.93.63.2,1.17.5,1.64.89.97,1.93-2.61,5.65.49,7.34-1.63,3.4-5.79,8.19-2.04,11.51,2.72,2.41,6.1,4.63,8.78,6.83,2.73,2.25,3.12,5.54,7.69,6.65,2.03.5,6.91.39,6.73,3.3-.15,2.29-5.29,2.15-3.92,5.46,1.45,3.47,5.34,2.53,2.46,6.59-1.11,1.57-3.43,3.71-3.98,5.43-.95,2.97-.71,10.49,1.35,12.7,1.9,2.04,3.49,1.91,1.86,4.92-1.79,3.32-2.47,3.69-.55,7.06,2.51,4.41,7.4,6.47,3.1,11.38,1.22,1.16.7,2.01.51,3.3-.26,1.65-1.23.84-.07,2.75.48.78,1.48.86,1.73,1.86.62,2.44-.94,1.73-2.68,2.47-3.84,1.65-2.11,3.36-.97,6.35Z"/>
        <path class="cls-6" d="m263.04,149.75c.61,1.24,1.83,3.09,1.63,4.47-1,.18-1.95-.06-2.95.04-.78,1.63.47,4.94.85,6.22.47,1.6,2.13,4.64,1.34,6.23-1.22.13-2.57-.29-3.75.04-.46,1.65-.17,3.53.03,5.19.29,2.31,2.86,7.02.72,8.95-4-2.16-1.34,9.45-1.96,10.62-.75,1.41-1.82,1.38-.97,3.11,1.06,2.23,4.39,3.65,3.7,6.46-2.51.67-4.86-.81-7.17-1.51.02,2.42,1.94,4.68,2.74,6.91.63,1.76.73,1.76-.37,3.01-1.01,1.16-1.24.19-1.52,1.87-.11.7.24,1.53.07,2.21-.42,1.71-2.99,3.1-2.99,4.91.01,2.66,4.99,3.14,5.24,5.88-1.11.65-2.93,1.49-3.11,2.78-.23,1.57,2.93,3.93,3.82,5.26-.94.85-3.4.44-3.59,2.01-.19,1.49,3.08,2.5,4.14,2.76-.69,1.57-2.8,2.05-4.08,3.1,1.34,1.89,4.36,2.4,6.11,4.05-.75,2.45-3.92,3.35-5.14,5.46-.98,1.71.35,1.12.43,2.57.12,1.89-3.17,1.99-3.95,3.27-.39.64-.09,1.55,0,2.23.29,2.52.58,4.91.72,7.46.11,1.91,1,4.28.63,6.07-.27,1.31-.81,1.55-.56,2.96.29,1.52,1.47,2.74,1.71,4.26.51,3.22-1.55,1.03-2.49,3.02-.3.62.49,2.2.61,2.85.22,1.28.02,2.73.59,3.95-1.38.12-2.38,1.71-2.71,2.86-.58,2.02.45,3.96,1.22,5.83.34.83,1.81,2.86,1.73,3.77-.14,1.79-2.15,1.47-2.96,2.72-.98,1.51.71,3.86-.54,5.24-1.33,1.46-2.28.31-1.9,2.95.36,2.44,3.27,5.91,2.37,8.35-.78,2.1-4.14,1.19-4.8,3.51-.41,1.49.94,3.8,1.41,5.23.64,2.01.94,4.51,2.37,6.2-1.44.96-3.33,1.49-3.74,3.27-.68,3.05,1.77,7.23,2.95,10-1.47.61-1.93.43-2.09,1.93-.34,3.1,1.82,6.64.61,9.75-4.39-.38-1.19,6.43-.64,10.28-4.52-2.47-10.11-7.73-8.94-10.31.42-.94,1.71-1.13,2.25-1.96.61-.91.27-2.09.26-3.08-.04-2.57-.03-4.18-1.14-6.34,5.54.26.04-3.82-.7-5.18-1.43-2.61-.59-4.92-2.89-7.48,1.27-1.15,3.53-.04,4.54-.94.82-.72.25-4.06.1-4.87-.34-1.74-2.47-3.81-2.46-5.45.01-2.04,1.8-1.92,3.76-2.91.14-3.22-5.36-3.93-3.86-7.23.27-.59,1.11-.34,1.46-1.28.12-.35-.04-2.07-.08-2.28-.29-1.95-1.22-1.74-2.03-3.24-1.93-3.59,3.88-1.42,4.43-4.67.6-3.49-5.59-3.35-2.44-6.91.72-.81,2.12-1.3,2.52-2.27.73-1.75-.67-2.72-1.1-4.31-1.01-3.73,2.61-5.66,2.47-9.34-.07-1.76.07-2.84-.94-4.45-.79-1.29-2.17-1.51-1.74-3.27.64-2.63,4.45-2.7,3.07-5.71-.75-1.63-1.87-2-1.43-3.9.31-1.33,1.36-1.67,1.06-3.57-.2-1.33-1.22-2.08-1.41-3.24-.34-2.06,1.28-1.88,2.09-3.28,1.66-2.89-.4-4.89-.8-7.73-.24-1.75,1.26-2.78,1.49-4.39.25-1.78-1.2-3.23-1.44-4.94-.39-2.82.05-5.94.04-8.79,0-1.09-.4-2.8-.1-3.87.63-2.23,2.73-3,2.75-5.73.02-3.65-4.09-6.19-.77-9.07,1.67-1.44,3.38-2.23,3.41-4.39.03-2.04-1.71-2.69-2.44-4.34-.7-1.59-.35-3.49-.89-5-.51-1.39-1.6-2.8-2.31-4.15-.22-.42-1.22-.63-1.17-1.29.1-1.66,3.25-2.31,4.25-3.35,1.38-1.43,1.19-2.65,1.16-4.39-.03-1.68.53-3.92.07-5.54-.47-1.63-1.34-1.81-1.39-3.78-.05-2.27.84-2.79,1.7-4.71,1.04-2.3-.81-2.17-2.59-4.42,1.44-.81,2.99-.93,3.59-2.36.66-1.53-.55-3.11-1.06-4.44-1.13-2.99-2.87-4.69.97-6.35,1.74-.75,3.3-.04,2.68-2.47-.25-1-1.25-1.08-1.73-1.86-1.16-1.9-.19-1.1.07-2.75.2-1.29.72-2.14-.51-3.3,4.3-4.91-.59-6.97-3.1-11.38-1.92-3.37-1.24-3.73.55-7.06,1.63-3.01.04-2.88-1.86-4.92-2.06-2.21-2.3-9.72-1.35-12.7.55-1.73,2.86-3.86,3.98-5.43,2.88-4.06-1.01-3.12-2.46-6.59-1.37-3.31,3.77-3.17,3.92-5.46.18-2.91-4.7-2.8-6.73-3.3-4.57-1.11-4.96-4.4-7.69-6.65-2.68-2.2-6.06-4.42-8.78-6.83-3.75-3.32.42-8.11,2.04-11.51-3.1-1.7.48-5.42-.49-7.34-.47-.39-1.01-.69-1.64-.89-.24-.63-.43-1.27-.56-1.93-.78-1.51-.96-2.64-1.2-4.23-2.15-.05-3.13-1.24-3.57-2.92-.67-2.55.92-2.92-1.94-3.87-2.11-.7-5.66-.07-7.07-2.13-1.15-1.69.56-3.79,1.02-5.35-2.75-.66-5.65-1.12-8.49-1.33-3.28-.24-2.26-.79-4.97-2.07-3.55-1.68-7.98-.64-4.98-5.42-2.43-.75-6.41.67-8.58-.94-2.03-1.51-.45-1.22-1.45-3.11-2.03-3.86-9.02-.23-12.73-1.79-.12-.63-.26-1.27-.38-1.9-2.32-.33-3.57,2.35-6.14,1.98-.13-.64-.25-1.29-.37-1.93-1.86-.57-4.92.77-7.18,1.61-2.26-.84-5.32-2.18-7.18-1.61-.12.64-.24,1.29-.37,1.93-2.57.37-3.82-2.31-6.14-1.98-.12.64-.26,1.27-.38,1.9-3.71,1.57-10.7-2.06-12.73,1.79-1,1.89.58,1.6-1.45,3.11-2.17,1.6-6.15.18-8.58.94,3,4.78-1.43,3.74-4.98,5.42-2.71,1.28-1.69,1.83-4.97,2.07-2.85.2-5.74.67-8.49,1.33.45,1.57,2.17,3.66,1.02,5.35-1.41,2.07-4.96,1.44-7.07,2.13-2.86.94-1.27,1.32-1.94,3.87-.44,1.68-1.43,2.87-3.57,2.92-.24,1.59-.42,2.72-1.2,4.23-.12.65-.31,1.3-.56,1.93-.62.2-1.17.5-1.64.89-.97,1.93,2.61,5.65-.49,7.34,1.63,3.4,5.79,8.19,2.04,11.51-2.72,2.41-6.1,4.63-8.78,6.83-2.73,2.25-3.12,5.54-7.69,6.65-2.03.5-6.91.39-6.73,3.3.15,2.29,5.29,2.15,3.92,5.46-1.45,3.47-5.34,2.53-2.46,6.59,1.12,1.57,3.43,3.71,3.98,5.43.95,2.97.71,10.49-1.35,12.7-1.9,2.04-3.49,1.91-1.86,4.92,1.79,3.32,2.47,3.69.55,7.06-2.51,4.41-7.4,6.47-3.1,11.38-1.22,1.16-.7,2.01-.51,3.3.26,1.65,1.23.84.07,2.75-.48.78-1.48.86-1.73,1.86-.61,2.44.94,1.73,2.68,2.47,3.84,1.65,2.11,3.36.97,6.35-.51,1.33-1.72,2.91-1.06,4.44.6,1.43,2.15,1.55,3.59,2.36-1.77,2.26-3.62,2.12-2.58,4.42.86,1.92,1.75,2.44,1.7,4.71-.05,1.97-.92,2.15-1.39,3.78-.45,1.62.1,3.87.07,5.54-.04,1.74-.22,2.97,1.16,4.39,1,1.04,4.14,1.69,4.25,3.35.04.66-.95.86-1.17,1.29-.71,1.35-1.79,2.76-2.31,4.15-.54,1.51-.2,3.41-.89,5-.72,1.65-2.47,2.3-2.44,4.34.04,2.15,1.74,2.95,3.41,4.39,3.32,2.88-.79,5.42-.77,9.07.01,2.73,2.12,3.51,2.75,5.73.3,1.07-.1,2.78-.1,3.87,0,2.85.43,5.97.04,8.79-.23,1.71-1.68,3.16-1.44,4.94.23,1.62,1.73,2.64,1.49,4.39-.4,2.84-2.46,4.84-.8,7.73.81,1.4,2.43,1.22,2.09,3.28-.19,1.16-1.22,1.91-1.41,3.24-.3,1.9.75,2.24,1.06,3.57.44,1.9-.67,2.28-1.43,3.9-1.38,3.01,2.43,3.08,3.07,5.71.43,1.76-.94,1.98-1.74,3.27-1,1.61-.87,2.69-.94,4.45-.14,3.68,3.49,5.6,2.48,9.34-.43,1.59-1.83,2.56-1.1,4.31.4.97,1.8,1.46,2.52,2.27,3.16,3.56-3.04,3.41-2.44,6.91.55,3.25,6.36,1.08,4.43,4.67-.81,1.49-1.74,1.29-2.03,3.24-.04.21-.2,1.93-.08,2.28.36.94,1.19.69,1.46,1.28,1.5,3.31-4,4.01-3.86,7.23,1.96,1,3.74.87,3.76,2.91,0,1.64-2.12,3.71-2.46,5.45-.15.81-.72,4.14.1,4.87,1.01.89,3.27-.21,4.54.94-2.3,2.56-1.46,4.87-2.89,7.48-.74,1.35-6.24,5.43-.7,5.18-1.11,2.16-1.11,3.77-1.14,6.34,0,.98-.34,2.17.26,3.08.53.83,1.82,1.02,2.25,1.96,1.16,2.58-4.42,7.84-8.94,10.31.55-3.85,3.74-10.66-.64-10.28-1.22-3.1.94-6.65.61-9.75-.16-1.49-.62-1.32-2.09-1.93,1.18-2.77,3.63-6.96,2.95-10-.41-1.78-2.3-2.31-3.74-3.27,1.43-1.69,1.73-4.19,2.37-6.2.46-1.43,1.82-3.74,1.41-5.23-.65-2.32-4.01-1.41-4.8-3.51-.91-2.44,2.01-5.91,2.37-8.35.38-2.64-.57-1.49-1.9-2.95-1.25-1.38.44-3.73-.54-5.24-.81-1.24-2.82-.93-2.96-2.72-.08-.91,1.38-2.94,1.73-3.77.77-1.87,1.8-3.81,1.22-5.83-.33-1.16-1.33-2.75-2.71-2.86.56-1.22.37-2.67.59-3.95.12-.65.91-2.23.61-2.85-.94-1.99-3,.2-2.49-3.02.24-1.52,1.43-2.74,1.71-4.26.26-1.41-.29-1.65-.56-2.96-.37-1.79.52-4.16.63-6.07.15-2.56.43-4.94.72-7.46.08-.69.38-1.6,0-2.23-.78-1.27-4.06-1.38-3.95-3.27.08-1.45,1.41-.86.43-2.57-1.22-2.11-4.39-3.02-5.14-5.46,1.74-1.65,4.77-2.16,6.11-4.05-1.28-1.05-3.39-1.52-4.08-3.1,1.07-.26,4.34-1.27,4.14-2.76-.19-1.57-2.64-1.16-3.59-2.01.89-1.33,4.05-3.68,3.82-5.26-.18-1.29-2.01-2.13-3.11-2.78.25-2.74,5.22-3.22,5.24-5.88,0-1.8-2.56-3.2-2.99-4.91-.17-.68.18-1.51.07-2.21-.27-1.68-.51-.71-1.52-1.87-1.1-1.24-1-1.25-.37-3.01.8-2.23,2.72-4.5,2.74-6.91-2.31.7-4.66,2.17-7.17,1.51-.69-2.81,2.64-4.23,3.7-6.46.84-1.74-.22-1.7-.97-3.11-.62-1.17,2.04-12.78-1.96-10.62-2.14-1.93.43-6.63.72-8.95.2-1.66.49-3.54.03-5.19-1.18-.33-2.53.1-3.75-.04-.79-1.59.87-4.63,1.34-6.23.38-1.29,1.63-4.59.85-6.22-1-.1-1.96.13-2.95-.04-.2-1.38,1.02-3.24,1.63-4.47.4-.83,2.91-4.11,2.95-5.37.07-1.98-2.16-.8-3.81-1.21-.52-1.33,1.57-3.54,2.3-4.69.82-1.31,1.31-2.23,1.87-3.6.37-.89.98-1.66,1.77-2.26.76-.57,2.15-.43,2.53-1.44.59-1.57-1.3-.87-2.31-1.11.49-1.98,3.92-3.06,3.84-4.96-5.04.01,4.15-8.32,2.33-10.29-1.05-1.13-2.62,1.03-2.14-1.65.34-1.9,3.1-3.83,2.93-5.68-.94-.4-1.42.29-2.15.62-.31-2.81,5.02-4.89.37-6.65-.72-.28-2.24-.56-2.84-.97-.97-.66-.61-1.52-.88-2.48-.73-.02-2.75-.86-3.4-1.19-1.71-.88-.48-1.39-1.08-2.65-.46-.97-.49-.2-1.13-.75-.36-.29-.72-.94-1.18-1.23-1.57-1-3.87-.82-5.55-1.7.23-1.71,2.39-2.72,2.43-4.37.01-1.08-.84-1.23-.94-2.12-.23-1.88,1.77-1.57,3.21-2.2,1.12-.49,2.48-1.22,3.52-1.86.66-.4,1.23-.88,1.9-1.27,1.3-.78,1.27-.89,2.15-2.04,1.67-2.17,6.14-1.72,7.22-3.48-1.24-.35-2.61-.29-3.7-1.08,2-1.8,4.22-2.03,6.82-2.01,1.52,0,2.16.09,3.34-.53,1.3-.68,1.13-.94,2.91-.93,1.27,0,2.3.12,3.51.37,1.14.23,2.44.08,3.55.33,1.26.28,1.13,1.19,2.23.35.59-.45.78-1.83.86-2.5.1-.87.29-2.89.01-3.71-.26-.83-1.03-1.12-1.6-1.79-.58-.67-.81-1.35-1.34-2.04-.48-.62-1.29-1.02-1.78-1.63-.63-.78-1.16-1.5-.81-2.61.29-.92,1.92-1.81,1.69-2.92-.48-2.31-4.63-1-6.16-1.54,1.27-1.33,3.32-2.14,4.75-3.38.83-.73,1.63-1.35,2.32-2.2.78-.96,2.07-2.32,2.08-3.44.01-2.74-3.28-1.76-4.72-2.71-2.28-1.51.72-3.36,1.91-4.26,2.06-1.56,4.37-2.5,6.56-3.85.47-.29,1.46-.83,1.82-1.24,1.58-1.86-.37-1.36-1.5-2.39-2.39-2.19.67-3,2.59-3.34,3.37-.6,6.46-1.66,9.78-2.46.59-1.02-1.15-2-1.74-2.7,1.57-.55,13.44-1.57,13.49-4.14.01-1.18-1.96-2.15-.12-3.19,1.22-.69,3.29.12,4.66-.22.22-.88-.39-2,.31-2.71.69-.7,4.22-.12,5.19-.11.83,0,2.25.31,3-.15.67-.42.56-1.3,1-1.63,1.6-1.22,4.81.65,6.82.89,3.02.36.77-1.69,1.96-3.27,2.73.87,4.51,1.54,7.37,1.07,1.24-.2.56-.54,1.93-.01.72.27,1.33.53,1.95.83.91-1.12.75-2.53,1.93-3.43.41-.31.98-.18,1.41-.56.53-.48.42-1.4.92-1.87,1.88-1.78,6.49,2.5,6.09,4.47.53.72,1,1.36,1.4,1.93.4-.57.86-1.21,1.4-1.93-.4-1.96,4.21-6.25,6.09-4.47.49.47.39,1.39.92,1.87.42.38,1,.26,1.41.56,1.19.89,1.03,2.31,1.93,3.43.62-.3,1.23-.56,1.95-.83,1.37-.53.7-.18,1.93.01,2.86.47,4.64-.2,7.37-1.07,1.19,1.58-1.07,3.63,1.96,3.27,2.01-.23,5.21-2.11,6.82-.89.43.33.33,1.21,1,1.63.75.45,2.16.15,2.99.15.97,0,4.5-.59,5.19.11.7.71.1,1.83.31,2.71,1.37.34,3.44-.47,4.66.22,1.84,1.04-.13,2.01-.12,3.19.04,2.57,11.92,3.6,13.49,4.14-.59.7-2.33,1.68-1.74,2.7,3.32.81,6.41,1.86,9.78,2.46,1.92.34,4.98,1.15,2.59,3.34-1.13,1.03-3.08.53-1.5,2.39.35.42,1.35.96,1.82,1.24,2.19,1.35,4.5,2.29,6.56,3.85,1.19.9,4.2,2.75,1.91,4.26-1.44.95-4.74-.03-4.72,2.71,0,1.12,1.3,2.48,2.08,3.44.7.85,1.49,1.46,2.32,2.2,1.44,1.24,3.49,2.06,4.75,3.38-1.53.53-5.68-.77-6.16,1.54-.23,1.11,1.4,2.01,1.69,2.92.35,1.11-.18,1.84-.81,2.61-.49.61-1.3,1.01-1.78,1.63-.53.68-.76,1.36-1.34,2.04-.57.67-1.33.95-1.6,1.79-.27.83-.09,2.84.01,3.71.08.67.28,2.05.86,2.5,1.11.84.97-.07,2.23-.35,1.11-.25,2.41-.1,3.55-.33,1.21-.24,2.23-.36,3.51-.37,1.77,0,1.6.25,2.91.93,1.18.62,1.82.54,3.34.53,2.6-.01,4.83.21,6.82,2.01-1.08.79-2.45.72-3.7,1.08,1.08,1.76,5.55,1.31,7.22,3.48.89,1.14.86,1.26,2.15,2.04.67.4,1.24.87,1.9,1.27,1.05.64,2.4,1.37,3.52,1.86,1.44.62,3.45.31,3.21,2.2-.1.89-.96,1.04-.94,2.12.04,1.65,2.2,2.66,2.43,4.37-1.68.88-3.98.7-5.55,1.7-.46.29-.82.94-1.18,1.23-.64.55-.67-.23-1.13.75-.6,1.26.62,1.77-1.08,2.65-.65.33-2.67,1.17-3.41,1.19-.26.96.09,1.82-.88,2.48-.6.41-2.12.69-2.84.97-4.65,1.76.67,3.84.37,6.65-.73-.32-1.21-1.01-2.15-.62-.17,1.85,2.59,3.78,2.93,5.68.48,2.68-1.09.52-2.14,1.65-1.82,1.97,7.37,10.3,2.33,10.29-.08,1.9,3.35,2.99,3.84,4.96-1,.24-2.89-.45-2.31,1.11.37,1,1.76.86,2.53,1.44.79.6,1.4,1.37,1.77,2.26.56,1.37,1.05,2.28,1.87,3.6.73,1.16,2.82,3.36,2.3,4.69-1.65.41-3.87-.77-3.81,1.21.04,1.26,2.56,4.54,2.95,5.37Z"/>
        <path class="cls-2" d="m156.44,98.39s-13.31,0-17.03,6.39c-3.73,6.39,5.85,7.45,8.52,7.98,2.66.53,4.26,8.52,8.52,8.52v-22.89Z"/>
        <path class="cls-7" d="m110.97,96.31c0-1.15-.93-2.09-2.09-2.09s-2.09.93-2.09,2.09.93,2.09,2.09,2.09,2.09-.93,2.09-2.09Z"/>
        <path class="cls-2" d="m203.9,86.44c7.36,9.53-5.56-2.47-11.81,6.81-6.25,9.27-4.01,8.33-7.33,5.14-3.32-3.19-6.09-1.11-3.48,7.62,2.61,8.72,5.34,27.76,3.48,35.57-1.85,7.81-2.53,12.2-28.31,12.2v13.94c2.9,1.26,4.68,3.26,7.39.83.52-.46,1.51-2.15,2.17-2.36.58-.18,2.44.87,3.27.99,2.57.37,4.37-.04,6.37-1.12,1.76-.95.46-.91,2.45-.55,1.01.18,1.61,1.24,2.5-.37,2.72,1.07,3.04.55,6.1-.06-.12,3.82,4.35.72,6.14-.25,3.11-1.69,2.07-3.51,3.02-6.28.61-.12,1.22-.25,1.82-.37.57-1.68-.25-3.46.37-5.12.61-.12,1.22-.25,1.82-.37.42-1.4-.28-2.92.13-4.26.39-1.25,1.49-1.32,2.03-2.36,1.02-1.97-2.87-5.79,1.13-5.46.43-1.44-.2-2.86.13-4.26.21-.9,1.27-1.2,1.27-2.14,0-1.02-1.19-1.19-1.29-2.17-.23-2.18,1.11-1.41,1.55-2.88.51-1.73-1.84-3.97-2.32-5.95-.51-2.1-.62-5.43-.08-7.49,6.1-.12.18-8.05,6.26-8.07.47-1.58-.15-3.2.12-4.8.2-1.16.75-2.03,1.27-3.12.56-1.17.58-2.66,1.18-3.76.51-.94,1.56-1.02,1.82-2.11-.83-.64-3.96-4.6-4.06-5.82-.1-1.09,1.17-1.16,1.05-2.16-.15-1.24-.98-1.01-1.52-1.9-1.05-1.76-.71-3.36-1.87-4.96-1.16-1.6-2.42-4.2-3.82-5.27-3.84-2.94-10.44-.15-14.88-1.29-2.77-.71-4.88-.66-5.54-3.6-.44-1.99-1.04-3.78-1.22-5.88-1.59-.46-3.22.19-4.82-.12-1.54-.3-1.45-1.07-2.67-1.73-1.26-.69-2.57-.03-3.8-.59-1.34-.61-1-1.92-1.82-2.59-2.4-1.94-3.01,2.27-5.37,2.75-2.71.56-1.22-1.36-2.42-2.11-1.21-.75-2.62.48-3.88.86v6.97s15.81,1.46,22.36,17.57c0,0,17.74-7.07,25.09,2.47Z"/>
        <path class="cls-1" d="m173.27,109.84c1.31,6.91-7.94,5.05-7.88,5.59.07.53-7.52,7.98-7.52,7.98v12.06c0,6.74,1.77,9.76,7.52,10.29,5.75.53,13.42-2.12,13.42-2.12-3.19,5.68-22.36,4.61-22.36,4.61v5.54c25.78,0,26.46-4.39,28.31-12.2,1.86-7.81-.87-26.85-3.48-35.57-2.61-8.72.16-10.81,3.48-7.62,3.32,3.19,1.08,4.13,7.33-5.14,6.25-9.28,19.17,2.72,11.81-6.81-7.36-9.53-25.09-2.47-25.09-2.47-6.55-16.11-22.36-17.57-22.36-17.57v43.62c6.98-3.57,16.01-4.42,16.82-.18Z"/>
        <path class="cls-8" d="m156.45,110.02v38.22s19.16,1.06,22.35-4.61c0,0-7.66,2.66-13.41,2.13s-7.52-3.55-7.52-10.29v-12.07s7.59-7.45,7.52-7.98c-.07-.54,9.19,1.33,7.88-5.59-.8-4.23-9.84-3.38-16.82.19Z"/>
        <path class="cls-8" d="m192.09,97.52s4.26-6.74,9.93-6.74,9.58,6.74,9.58,6.74c0,0,1.77,6.74-6.39,8.16,0,0-9.58,2.84-13.13-8.16Z"/>
        <path class="cls-7" d="m156.45,75.22s6.15-.8,11.18,5.61c5.03,6.41,5.63,11.52,2.59,15.22-3.04,3.7-6.05,0-13.77,0v-20.83Z"/>
        <path class="cls-7" d="m174.33,118.64s4.76,4.88,4.47,11.23c-.29,6.35-1.62,10.57-11.18,9.76-9.56-.8-5.83-4.54-6.2-11.97-.37-7.43,10.29-12.75,12.9-9.02Z"/>
        <path class="cls-2" d="m156.45,98.39s13.31,0,17.03,6.39c3.73,6.39-5.85,7.45-8.52,7.98-2.66.53-4.26,8.52-8.52,8.52v-22.89Z"/>
        <path class="cls-7" d="m201.93,96.31c0-1.15.93-2.09,2.09-2.09s2.09.93,2.09,2.09-.93,2.09-2.09,2.09-2.09-.93-2.09-2.09Z"/>
      </g>
    </g>
  </g>
</svg>