<?xml version="1.0" encoding="UTF-8"?>
<svg id="Layer_2" data-name="Layer 2" xmlns="http://www.w3.org/2000/svg" viewBox="0 0 74.82 78.53">
  <defs>
    <style>
      .cls-1 {
        fill: #cb7c29;
      }

      .cls-1, .cls-2, .cls-3, .cls-4, .cls-5, .cls-6, .cls-7 {
        stroke-width: 0px;
      }

      .cls-2 {
        fill: #fff200;
      }

      .cls-3 {
        fill: #fff;
      }

      .cls-4 {
        fill: #231f20;
      }

      .cls-5 {
        fill: #d1d3d4;
      }

      .cls-6 {
        fill: #bbbbbc;
      }

      .cls-7 {
        fill: #f99f1c;
      }
    </style>
  </defs>
  <g id="_100" data-name="100">
    <g>
      <path class="cls-7" d="m40.88,13.82v17.64c-6.03.29-11.97,2.73-13.24,5.05-3.19,5.83-10.94,6.24-17.14,14.29-6.2,8.05-10.11,2.79-10.11,2.79-1.22-6.33.54-14.13,2.88-17.48,3.93-5.6,7.44-9.39,13.64-11.5,6.2-2.11,10.51-9.06,10.51-9.06l13.46-1.72Z"/>
      <path class="cls-1" d="m40.88,31.46v35.09s-22.73-1.17-33.26-3.98c-4.24-1.13-6.4-4.73-7.22-8.98,0,0,3.91,5.26,10.11-2.79,6.2-8.05,13.95-8.45,17.14-14.29,1.27-2.32,7.2-4.76,13.24-5.05Z"/>
      <g>
        <path class="cls-4" d="m20.22,35.31c-.16-1.76-.57-4.49-.16-6.15.38-1.53,1.55-3.1,1.97-4.61-.26.02-.52.02-.57.22-1.71.77-2.26,7.24-2.48,9.4-.46,4.43,3.46,9.39,6.37,12.28-.34-3.96-4.75-6.87-5.13-11.14Z"/>
        <path class="cls-4" d="m16.3,44.15c1.43,1.63,3.07,3.21,4.14,5.15-.08-1.12-.49-2.17-1.11-3.08,2.23,2.68,4.96,5.09,7.09,7.89-.36-3.27-4.78-6.85-6.82-9.35-1.78-2.18-3.88-3.98-4.35-6.95-.33-2.13-.72-4.66-.4-6.85.23-1.58,1.68-3.56,1.45-5.17-.51.76-1.47,2.17-1.86,3.41-.51,1.63-.58,3.34-.62,5.06-.09,3.55.08,7.13,2.49,9.88Z"/>
        <path class="cls-4" d="m22.51,34.02c.14-2.16-.65-3.82-.02-5.88.46-1.5,1.1-3.43,1.25-5.23-.29.12-1.49,3.33-1.76,4.34-.66,2.54-.36,4.32.53,6.78Z"/>
        <path class="cls-4" d="m13.97,45.22c-1.57-2.62-2.93-7.5-2.09-10.71-.54,1.66-.95,3.24-.76,5.03.46,4.3,2.11,7.79,5.44,10.64,1.67,1.43,3.61,2.7,5.12,4.34,1.64,1.78,2.43,4.91,4.31,6.33-.98-2.65-2.53-5.06-4.53-7.15-2.73-2.86-5.52-5.19-7.49-8.48Z"/>
        <path class="cls-4" d="m11.88,34.51c.09-.28.19-.57.29-.86-.12.27-.21.56-.29.86Z"/>
        <path class="cls-4" d="m24.79,63.54c-3.17-6.04-8.35-9.7-12.83-15.43,2.09,6.41,8.7,10.5,12.83,15.43Z"/>
        <path class="cls-4" d="m7.82,46.26c.83,3.52,3.73,7.78,6.81,9.65-1.26-2.04-2.81-3.64-4.36-6.44,0-.01,0-.03,0-.08-1.86-4.38-1.47-8.68-1.2-13.19-.69,3.34-2.11,6.41-1.25,10.07Z"/>
        <path class="cls-4" d="m8.87,29.39c-.48.71-1.09,1.18-1.66,2.2-1.71,3.45-1.86,7.31-1.86,10.98,0-2.61.31-4.85,1.01-7.18.56-1.84,2.6-4.12,2.51-6Z"/>
        <path class="cls-4" d="m11.94,27.87v-.21c-1.26,1.8-1.31,4.66-1.87,6.76,1.38-3.07,2.29-5.78,4.12-8.37-1.12-.15-2.23.64-2.25,1.82Z"/>
        <path class="cls-4" d="m11.98,57.97c-1.09-1.83-2.38-3.15-3.18-5.11-.58-1.41-1-2.87-1.85-4.12-.86-1.26-1.91-2.05-2.43-3.52-.52-1.48-.51-3.07-.62-4.75-2.05,1.41.69,6.55,1.78,8.37,2.02,3.39,2.85,6.76,6.3,9.13Z"/>
        <path class="cls-4" d="m9.27,58.64c-1.38-2.24-2.25-5.09-4.23-6.9-.66,1.32,3.23,8.18,4.44,9.38,1.81,1.8,4.13,2.23,6.6,2.83-1.25-1.26-3.05-1.2-4.38-2.14-1.17-.83-1.69-1.96-2.43-3.16Z"/>
        <path class="cls-4" d="m20.06,61.39c-.99-.4-4.62-1.96-5-2.53,2.27,3.17,6.77,3.73,9.9,5.55-1.07-1.48-3.18-2.33-4.9-3.03Z"/>
        <path class="cls-4" d="m1.63,44.04c-.71,3.58-.62,8.85,2.48,11.51.57,2.02,1.35,3.14,2.4,4.16-1.2-2.68-2.27-5.51-3.59-8.1-1.37-2.68-1.29-4.47-1.29-7.58Z"/>
      </g>
      <path class="cls-6" d="m53.34,33.68c-.15.12-.25.28-.27.57-.46.09-.92.09-1.17.41-.77-.13-2.08.73-1.83,1.57-.42-.11-.82-.32-1.25-.43.55,1.06-.57.85-1.12,1.24-.41.29-.58.74-.98,1.02-.16.11-.63.08-.84.18-.16.08.06.43-.1.51-.31.16-.95.17-1.32.28-1.3.37-3.32.67-4.8.39-.67-.13-1.35-.39-1.99-.64-.61-.24-1.16-.33-1.84-.51-.64-.17-1.3-.68-1.88-1.02-.91-.52-1.82-.41-2.77-.74-.11-.04-.24-.09-.4-.14.2-4.37,1.02-6.65,1.02-6.65,1.56-4.5,2.07-7.79,1.86-10.19.42-.05.86-.1,1.31-.15,5.98-.58,12.3,3.47,16.78,8.08-.19.98-.33,2.15-.41,3.51,0,0,0,0,.02.02.02,0,.03.02.06.04.07.05.16.12.29.24l.09.09c.13.13.28.3.45.52.04.05.08.11.13.17.04.06.09.12.13.19.04.06.08.12.13.19.05.08.1.16.15.25.02.04.05.08.07.12l.07.13s.05.09.07.13c.05.09.1.19.15.29.05.1.1.2.15.31,0,0,0,0,0,0Z"/>
      <path class="cls-3" d="m73.39,73.75c-.38.51-.81.93-1.26,1.28-.44-1-.86-2.04-1.13-3-1.55-5.42-4.49-6.04-9.14-7.28-1.8-.48-2.85-1.75-3.71-3.48,0-.31,0-.64-.02-.96-.16-2.89,2.64-4.08,3.57-5.17.93-1.08-1.39.31-3.06,1.39-1.66,1.08-2.66-.69-2.66-.69-.64-1.59-1.41-3.25-2.49-4.88-4.02-6.04-5.68-7.2-9.89-6.27-4.21.93-3.61,3.63-4.03,10.14-.42,6.51-2.98,5.42-5.86,7.41-2.89,1.99,3.67.03,3.67.03,3.11-.31,10.84,2.01,13.31,2.32,2.48.31,7.44,2.32,12.09,2.48,4.65.16,7.01,4.65,6.86,6.97-.15,2.32-3.14,2.79-3.14,2.79-1.8,1.93-5.44,1.94-9.07,1.37,3.64-.14,5.58-.69,6.69-1.44.29-.2.53-.41.72-.63.02-.03.05-.06.07-.08.02-.02.03-.04.05-.06.05-.06.1-.12.14-.19.14-.2.25-.4.35-.6.02-.03.03-.06.04-.1.06-.13.11-.26.16-.39.05-.13.1-.26.15-.4,0-.02,0-.03.02-.04.03-.08.06-.16.09-.24.03-.08.06-.15.09-.24.03-.07.06-.15.1-.22.02-.05.05-.1.07-.15.02-.04.04-.08.06-.12.03-.07.07-.13.11-.19,1.24-2.01-2.96-3.59-2.96-3.59-1.12-.13-2.34-.13-3.7-.13-4.49,0-11.78-3.1-18.88-4.34-7.11-1.24-8.08,1.55-9.65-.62-1.57-2.17.33-6.66,1.39-11.31,1.06-4.65-1.69-7.75-1.79-13.95-.02-1.01,0-1.94.04-2.8.15.06.29.11.4.14.95.33,1.87.22,2.77.74.58.33,1.24.85,1.88,1.02.68.18,1.22.27,1.84.51.64.25,1.32.52,1.99.64,1.48.28,3.5-.02,4.8-.39.37-.11,1.01-.13,1.32-.28.16-.08-.06-.43.1-.51.21-.1.68-.07.84-.18.39-.28.57-.73.98-1.02.55-.4,1.67-.18,1.12-1.24.42.11.82.32,1.25.43-.25-.84,1.06-1.7,1.83-1.57.25-.32.7-.33,1.17-.41.02-.29.13-.45.27-.57.02.05.05.11.07.16.11.22.21.46.31.72.08.19.16.39.24.61.07.2.15.42.23.64.08.24.16.49.24.76.05.15.09.31.14.48,0,.02,0,.03.01.05.05.18.1.37.15.56.02.1.05.19.07.29.1.39.2.8.29,1.24,1.49,6.97,4.04,11.41,5.83,12.86.9.73,1.6,1.2,1.93,1.79,0,0,0,0,0,.01.03.08.07.15.1.22t0,0c.21.55.13,1.23-.34,2.3-1.08,2.48-3.41,5.89-1.24,5.27,2.17-.62,4.34.46,6.2,1.86,1.86,1.39,1.55,3.41,3.1,3.56,1.55.16,3.39.19,2.71,6.68Z"/>
      <path class="cls-5" d="m72.13,75.03c-1.31,1.03-2.81,1.47-3.94,1.66-.99.17-1.69.14-1.69.14,0,0,.88-.14,1.71-.64.7-.42,1.35-1.09,1.43-2.15.15-2.17-1.9-6.22-5.95-6.88-.03,0-.06-.01-.09-.02-3.64-.55-7.48-2.71-8.5-4.75-1.02-2.05.87-2.45,2.01-3.69,1.14-1.24-2.85.15-4.65.15s-3.01-9.45-6.1-8.99c-3.09.46-2.8,3.41-3.24,7.13-.44,3.72-3.15,5.4-3.15,5.4-1.02-.14-1.92-.2-2.6-.13,0,0-6.55,1.96-3.67-.03,2.89-1.99,5.44-.9,5.86-7.41.42-6.51-.18-9.21,4.03-10.14,4.21-.93,5.87.22,9.89,6.27,1.08,1.63,1.86,3.3,2.49,4.88,0,0,.99,1.78,2.66.69,1.66-1.08,3.99-2.48,3.06-1.39-.93,1.08-3.73,2.27-3.57,5.17.02.33.02.65.02.96.85,1.73,1.91,3,3.71,3.48,4.65,1.24,7.59,1.86,9.14,7.28.28.96.7,2,1.13,3Z"/>
      <path class="cls-1" d="m31.82,29.73s-.82,2.28-1.02,6.65c-.63-.24-1.52-.6-1.91-.98-.44-.42-.13-1.04-1.11-.86.1-1.25-1.45-.91-1.27-1.92-.24.06-.56-.07-.8-.02.02-.47-.02-.97-.13-1.42-.78-.2-.03-1-.8-1.28.15-.46-.05-1,.3-1.22l-.1-1.35c.16-.33.26-.67.31-1.03l1.19-4.93c1.49-.67,3.8-1.41,7.21-1.84.21,2.4-.3,5.69-1.86,10.19Z"/>
      <path class="cls-7" d="m66.35,73.12c-.04.06-.07.13-.11.19-.02.04-.04.08-.06.12-.02.05-.05.1-.07.15-.03.07-.07.15-.1.22-.03.08-.07.16-.09.24-.03.08-.06.16-.09.24,0,.01-.01.03-.02.04-.05.13-.1.26-.15.4-.05.13-.1.26-.16.39-.02.03-.03.07-.04.1-.1.2-.21.41-.35.6-.04.06-.09.12-.14.19-.02.02-.03.04-.05.06-.02.03-.05.06-.07.08-.19.22-.43.43-.72.63-.8.07-2.15.1-4.9.08-4.73-.04-27.12-5.74-31.82-7.13-2.63-.78-3.52-2.5-3.8-3.86,0-.32,0-.65-.02-.99,0-.3-.02-.62-.04-.93-.21-4.21-.9-9.67-1.67-18.69-.83-9.71,2.17-22.31,2.17-22.31,0,0,.63-.72,2.43-1.53l-1.19,4.93c-.05.37-.15.7-.31,1.03l.1,1.35c-.35.21-.15.76-.3,1.22.77.27.02,1.08.8,1.28.11.45.16.95.13,1.42.24-.06.56.07.8.02-.18,1.01,1.36.68,1.27,1.92.98-.19.67.43,1.11.86.38.37,1.28.74,1.91.98-.04.85-.06,1.79-.04,2.8.11,6.2,2.85,9.3,1.79,13.95-1.07,4.65-2.96,9.14-1.39,11.31,1.57,2.17,2.54-.62,9.65.62,7.1,1.24,14.39,4.34,18.88,4.34,1.36,0,2.59,0,3.7.13,0,0,4.2,1.57,2.96,3.59Z"/>
      <path class="cls-1" d="m55.29,31.74c-.34.13-.72.17-.93.41-.29.31-.1.67-.34,1.01-.19.26-.47.35-.68.52,0,0,0,0,0,0-.05-.11-.1-.21-.15-.31-.05-.1-.1-.2-.15-.29-.02-.04-.05-.09-.07-.13l-.07-.13s-.05-.08-.07-.12c-.05-.09-.11-.17-.15-.25-.04-.07-.08-.13-.13-.19-.05-.07-.09-.13-.13-.19-.04-.06-.08-.12-.13-.17-.17-.22-.32-.39-.45-.52l-.09-.09c-.13-.12-.22-.2-.29-.24-.03-.02-.05-.03-.06-.04-.02,0-.02-.02-.02-.02.08-1.36.22-2.53.41-3.51,1.37,1.41,2.57,2.87,3.52,4.26Z"/>
      <path class="cls-7" d="m62.86,53.84c-.33-.6-1.04-1.06-1.93-1.79-1.79-1.45-4.34-5.89-5.83-12.86-.09-.44-.19-.85-.29-1.24-.02-.1-.05-.2-.07-.29-.05-.19-.1-.38-.15-.56,0-.02,0-.03-.01-.05-.05-.16-.09-.32-.14-.48-.08-.27-.16-.52-.24-.76-.07-.22-.15-.44-.23-.64-.08-.21-.16-.42-.24-.61-.05-.13-.11-.25-.16-.37h0c-.05-.12-.11-.24-.15-.35-.02-.05-.05-.11-.07-.16.21-.17.49-.26.68-.52.24-.34.05-.7.34-1.01.22-.24.59-.28.93-.41.41.59.77,1.17,1.08,1.73,3.35,5.91,4.26,15.38,6.48,20.37Z"/>
      <path class="cls-7" d="m73.94,72.91c-.17.3-.35.59-.55.85.69-6.49-1.16-6.53-2.71-6.68-1.55-.15-1.24-2.17-3.1-3.56-1.86-1.39-4.03-2.48-6.2-1.86-2.17.62.15-2.79,1.24-5.27.47-1.07.55-1.75.34-2.3.07.16.15.31.23.46,2.48,4.75,7.03,9.49,8.68,10.52,1.65,1.03,4.34,3.72,2.07,7.85Z"/>
      <path class="cls-6" d="m63.6,67.15c-.26-.04-.54-.07-.82-.07-4.65-.15-9.61-2.17-12.09-2.48-1.93-.24-7.08-1.71-10.71-2.2,0,0,2.71-1.68,3.15-5.4.44-3.72.14-6.66,3.24-7.13,3.09-.46,4.3,8.99,6.1,8.99s5.79-1.39,4.65-.15c-1.15,1.24-3.04,1.65-2.01,3.69,1.02,2.04,4.86,4.2,8.5,4.75Z"/>
      <path class="cls-1" d="m64.12,76.76c-1.11.75-3.06,1.3-6.69,1.44h0c-2.21-.35-4.42-.9-6.21-1.37-4.75-1.24-19.01-3.1-23.79-4.34-4.4-1.14-3.82-2.98-3.82-6.65.28,1.36,1.17,3.08,3.8,3.86,4.7,1.39,27.09,7.09,31.82,7.13,2.75.02,4.1,0,4.9-.08Z"/>
      <g>
        <path class="cls-4" d="m35.31,34.48c.99.67,1.62,1.96,2.69,2.74.9.66,1.91.96,2.7,1.74-.4-1.52-4.12-5.25-5.82-4.9-.19.24-.26.51-.19.83l.62-.41Z"/>
        <path class="cls-4" d="m42.12,41.5c.75-.18,2.71,2.7,3.46,3.5.44-1.91,1.55-3.29,2.43-5.05.65-1.3,1.02-3.05,1.39-4.21-.89,2.47-2.55,5.75-4.17,7.66-.94-1.4-1.53-2.22-3.29-2.55-.07.42-.08.84.18.65Z"/>
        <path class="cls-4" d="m49.4,35.74c.06-.16.11-.31.16-.46-.05.14-.11.3-.16.46Z"/>
        <path class="cls-4" d="m53.31,38.75c-.22.53-.36,1.07-.34,1.63.1-.56.21-1.1.34-1.63Z"/>
        <path class="cls-4" d="m55.45,32.39c-.82,2.2-1.6,4.17-2.14,6.36.93-2.2,3.34-4.17,2.14-6.36Z"/>
        <path class="cls-4" d="m58.19,50.39c1.13-2.36.64-5.4.68-8-.82,1.79-.54,4.21-1.09,6.09-.52,1.78-1.39,3.11-2.58,4.6-2.24,2.78-5.42,5.77-5.02,9.7-.12,1.13-.18,1.36.06,1.64.84-1.5.87-3.45,1.72-5.14.85-1.69,1.78-3.38,2.97-4.87,1.07-1.33,2.5-2.44,3.25-4.02Z"/>
        <path class="cls-4" d="m63,55.21c-1.11,3.41-9.74,5.22-8.48,9.02l-.62,1.24c1.71,1.27,1.72-.41,2.27-1.55.64-1.31,1.36-1.97,2.48-2.89,2.18-1.79,4.4-2.72,4.36-5.82Z"/>
        <path class="cls-4" d="m66.12,63.38c.22-.43.63-1.24.98-1.49-1.13.57-2.14,1.25-3.28,1.82-.89.45-.99.05-1.7.87-.51.59-.52,1.68-.98,2.33,1.56-.48,1.01-1.36,1.8-2.07.69-.61,1.56-.37,2.54-.41,1.66-.07,3.61-1.24,4.88.03-.63-1.77-2.74-1.89-4.23-1.09Z"/>
        <path class="cls-4" d="m66.06,60.98c-3.84-1.86-4.92,1.74-7.2,3.46h-.62c.17.18.9.3,1.62.17.44-1.38,1.13-1.92,2.31-2.54,1.19-.63,3.01-.4,3.89-1.09Z"/>
        <path class="cls-4" d="m33.72,39.91c2.7,2.36,6.2,4.88,7.68,8.26-2.03-6.8-10-9.49-13.28-15.3-.07.16-.13.32-.18.48.57,3.02,3.52,4.58,5.78,6.56Z"/>
        <path class="cls-4" d="m27.85,32.06c0,.14,0,.29,0,.42v-.42Z"/>
        <path class="cls-4" d="m27.95,33.35c-.05-.28-.08-.57-.09-.87v1.23c.03-.12.06-.24.09-.36Z"/>
        <path class="cls-4" d="m44.82,56.66l.2,1.38c.04-2.78,2.12-6.12,3.31-8.57,0-.01,0-.02.01-.03-.37,1.65-.55,3.34-1.31,5.04-1.08,2.43-1.39,4.66-1.39,7.49,1.1-1.95,1.16-4.46,2.28-6.84,1.16-2.48,1.21-4.33,1.02-7.02,1.19-2.83,1.79-5.53,1.88-8.48-.74,2.73-1.17,5.46-2.28,8.08-1.18,2.78-3.1,5.77-3.69,8.76.16-2.83-2.89-7.18-5.4-9.17,1.35,1.11,2.7,3.42,3.47,5.01.73,1.5.77,3.58,1.86,4.68.02-.1.04-.21.05-.32Z"/>
        <path class="cls-4" d="m36.75,52.04c1.04,1.13,1.57,2.44,2.68,3.56,1.24,1.25,2.38,2.24,2.91,4.02.24-3.19-3.46-5.02-5.59-7.58Z"/>
        <path class="cls-4" d="m33.28,53.44c-1.21-.87-4.01-5.51-4.8-5.94.85,2.9,2.14,4.55,4.63,6.2,2,1.32,4.92,2.23,6.14,4.48-.88-2.6-4.05-3.35-5.97-4.74Z"/>
        <path class="cls-4" d="m33.46,50.53c-2.1-4.62-6.89-7.13-9.11-12.33-.12,4.2,6.35,9.82,9.11,12.33Z"/>
        <path class="cls-4" d="m25.72,32.85c-1.21-1.16-1.49-2.94-1.4-4.53-.58-.47-.54-.3-.79-.04v.62c-.32,1.73,1.1,2.86,2.19,3.95Z"/>
        <path class="cls-4" d="m33.96,60.93c-2.94,0-4.4-.53-6.92-2.89-.83,5.5,10.94,2.46,13.57,3.74-1.76-1.35-4.46-.85-6.65-.85Z"/>
        <path class="cls-4" d="m29.33,66.95c-.98-2.1-5.8-4.13-5.66-6.56l-.24.95c.87,3.18,4.05,3.34,5.9,5.61Z"/>
        <path class="cls-4" d="m23.66,60.39l.17-.7c-.11.24-.16.47-.17.7Z"/>
        <path class="cls-4" d="m27.76,69.29c-1.25.08-3.26.65-3.72-1.14l-.21,1.03c.97,1,2.42.48,3.63.43,1.57-.06,2.52.39,3.98.66-1.35-1.03-2-1.1-3.69-.99Z"/>
        <path class="cls-4" d="m38,64.65c-1.38.57-3.87.35-4.9,1.25,1.84-.61,3.66.29,5.66-.48,1.39-.53,3.25-1.12,3.56-2.43-1.56-.28-2.97,1.1-4.33,1.66Z"/>
        <path class="cls-4" d="m35.51,73.12l1.03.41c.02-2.13.2-2.69,2.21-3.73-2.24.8-3.03,1.17-3.24,3.32Z"/>
        <path class="cls-4" d="m47.7,64.85h-.83c-1.86.57-3.67.89-3.93,3.24.96-2.27,4.36-1.84,6.13-3.04-.57-.45-.96-.29-1.37-.21Z"/>
        <path class="cls-4" d="m30.73,56.98c-1.65-3.68-6.99-2.51-8.44-6.8.44,4.1,5.83,4.58,8.44,6.8Z"/>
      </g>
      <path class="cls-7" d="m49.84,4.33S51.43-.63,54.65.07c3.22.7,3.99,3.31,3.99,5.01,0,1.7-.86,2.76-.86,2.76,0,0-.03,3.94-4.08,3.33s-4.17-4.17-3.86-6.83Z"/>
      <path class="cls-5" d="m51.23,4.24s1.13-4.15,4.5-2.73,2.55,5.03,1.35,5.5c-1.2.46.8,2.8-1.61,3-2.41.2-6.39,1.28-4.24-5.76Z"/>
      <path class="cls-7" d="m31.93,4.33S30.34-.63,27.12.07c-3.22.7-3.99,3.31-3.99,5.01s.86,2.76.86,2.76c0,0,.03,3.94,4.08,3.33s4.17-4.17,3.86-6.83Z"/>
      <path class="cls-5" d="m30.54,4.24S29.41.09,26.03,1.51c-3.38,1.42-2.55,5.03-1.35,5.5,1.2.46-.8,2.8,1.61,3,2.41.2,6.39,1.28,4.24-5.76Z"/>
      <path class="cls-7" d="m57.43,20.55c-.28-.34-.48-.78-.56-1.24.12-.09.25-.15.39-.17-.2-.18-.33-.68-.51-.87.36-.51-.02-.99-.34-1.57.1-.05.15-.05.23-.11-.13-.41-.16-.94-.34-1.35.15-.02.3-.1.43-.12-.16-.22-.31-.72-.6-.91.15-.05.3-.21.41-.26-.29-.63-.65-1.19-.95-1.8.08-.05.21-.12.28-.19-.31-.31-.53-.74-.6-1.24.02-.01.03-.03.05-.05-.04-.05-.08-.09-.12-.14-.71-.8-1.36-2.05-1.77-3.02.08-.03.13-.09.15-.17-.28-.36-.83-.6-.46-1.08-.39-.12-.73-.31-.63-.69-.37-.26-.82-.48-.66-.94-.19-.03-.39-.21-.58-.24.46-.63-.26-.56-.57-.68-.33-.13-.71-.38-1.14-.32.02-.11-.03-.26-.01-.37-.43-.02-1.13.2-1.24-.31-.96-.07-1.79-.45-2.73-.67-1.84-.43-3.55-.76-5.48-.66-1.11.06-2.33.06-3.32.34-.39.11-.87.35-1.26.42-.27.04-.57-.05-.83.03-.12.03-.08.26-.17.28-.3.07-.59.11-.9.1-.17.42-.72.44-1.13.47-.17.57-1.07.35-1.59.54.32.11.67.16.77.45-.27.12-.57.2-.85.33.21.47-.39.62-.78.7.49.56-.41.63-.83.69.43.92-.58,1.17-1.11,1.45.26.44-.49,1.36-.91,1.47.2.38,0,.72-.45.78.04,0,.06.02.05.06-.13.22-.39.62-.57.89.1.09.22.24.32.33-.07.5-.29.93-.6,1.24.07.08.2.14.28.19-.31.61-.66,1.18-.95,1.8.1.05.26.21.41.26-.29.19-.44.69-.6.91.13.02.28.1.43.12-.17.41-.2.94-.34,1.35.08.06.13.06.23.11-.32.57-.7,1.06-.34,1.57-.18.19-.31.69-.51.87.14.02.27.08.39.17-.08.46-.28.9-.56,1.24.13.14.2.17.38.24.01.09,0,.19,0,.29.18,0,.38.06.55.21.03-.48.18-.6.39-.97.28.21.42.2.81-.16-.03.3.13.64.14.88.06-.05.26-.18.33-.24.29.43.51.94.76,1.37.08-.26.37-.58.46-.83.09.52,1.82,2.39,2.17,2.3.23.43.5.5.9.26.58.78,2.7.42,2.53,2.04.86.32,1.84,1.34,2.52,2.15,1.27,1.53,2.56,3.42,2.76,5.51.58.03,1.2.05,1.83.05h.02c.63,0,1.25-.02,1.83-.05.2-2.09,1.49-3.98,2.76-5.51.68-.82,1.66-1.83,2.52-2.15-.17-1.62,1.95-1.25,2.53-2.04.4.24.67.17.9-.26.35.09,2.08-1.78,2.17-2.3.09.25.38.57.46.83.24-.44.47-.94.76-1.37.07.06.28.19.33.24,0-.24.17-.58.14-.88.4.36.54.38.81.16.21.37.36.49.39.97.17-.14.36-.21.55-.21,0-.1-.01-.19,0-.29.17-.07.25-.09.38-.24Z"/>
      <path class="cls-3" d="m57.65,26.21c.17-.09.24-.28.49-.32-.56-.23-.83-.97-.86-1.6.1.06.19.12.29.16-.16-.53.02-1.24-.07-1.64-.1-.44-.93-.97-.14-1.03-.58-.27-1.08-.62-1.51-1.11-.14.08-.07.15-.11.28l-.04.02c-1.13-.75-3,0-4.3.97-.82.37-1.41,1.07-1.71,2.03-.44.76-.85,1.58-1.33,2.3-2.26,3.33-6.34,3.96-10.05,3.38-3.85-.59-9.19-3.86-11.06-7.55-.25-.48-.35-.97-.74-1.48.03.65.13,1.29.29,1.93l-1.17-2.01c-.37.7-.74,1.42-1.26,2.03.17,0,.34,0,.51,0,.04.59-.12,1.17-.4,1.65.17,0,.37.05.55.05.09.58.03,1.18-.21,1.69.07-.02.14-.02.22.01-.17.45-.5.91-.86,1.19.21-.03.49.06.71.04-.08.49-.18,1.04-.26,1.53.17-.14.63-.25.84-.46-.07.46.15.99.15,1.37.22-.29.65-.48.86-.75-.03.52.02,1.08.15,1.56.45-.14.91-.35,1.34-.59-.11.45-.1,1.03-.28,1.49.16-.11.47-.19.69-.37-.03.28.18.78.17,1.03.14-.15.42-.28.58-.47.04.67.32,1.31.65,1.87.11-.22.31-.43.41-.67.02.35.3.89.31,1.29.08-.17.31-.39.41-.6.09.05.33.36.44.45.12-.1.29-.31.44-.37.16.27.64.49.74.61.05-.22.21-.43.27-.62.23.24.79.41,1.02.66.05-.24.25-.5.3-.66.18.28.61.45.8.81.1-.19.33-.34.42-.6.17.02.35.06.54.09.03.37.12.81.13,1.17.09-.03.1-.11.18-.16.01.37.15.35.29.6.07-.07.19-.15.26-.21.38.73,1.42.92,2.1,1.42.49-.05,1.4.11,1.83.35.07-.1.1-.2.17-.3.05,0,.09,0,.14,0,.86.13,1.81-.59,2.52-.17.21-.23.41-.18.61-.47.07.05.09.13.16.2.11-.16.25-.34.4-.54.55-.4.98-1.02,1.18-1.78.15.09.7.12.85.22,0-.18.01-.35.02-.53.34.04.75-.13,1.12.04.04-.07.06-.14.05-.22.12.04.6.08.76.09-.04-.23.01-.52-.04-.73.49.01,1,.06,1.49.14-.03-.14-.07-.27-.13-.4.26.08.8-.05,1.14.1-.03-.24.04-.53,0-.77.33.11.77-.04,1.11.11.1-.14.12-.3.07-.48.44-.12.96-.16,1.44-.12-.03-.16-.08-.26-.13-.42.27.08.67.01.97.1-.06-.21,0-.61-.1-.87.3.19.87.24,1.18.46-.04-.51-.08-1.03-.1-1.54.12-.04.25-.04.37,0,.02-.32.02-.65.02-.97.16.12.49.16.62.27.09-.31.24-.6.33-.92.33,0,.67.12.96.31-.11-.34-.34-.67-.59-.93.28.05.61-.06.89-.01-.16-.13-.28-.48-.43-.62Z"/>
      <path class="cls-3" d="m44.82,28.92c.34.31.74.57,1.2.81.98.51.77.45,1.47-.57.1.24.37.52.45.79.05-.21.3-.5.36-.71.15.21.38.41.45.73.27-.38.3-.98.52-1.37.1.17.3.26.4.41.26-.31.39-.77.46-1.19.07.07.34.16.43.29.11-.21.32-.26.38-.57.19.12.59.18.79.29-.03-.31.05-.65.03-.96.09.01.25-.03.36-.02,0-.17.18-.51.17-.67.25.08.74.27,1.01.18.4-.12.11-.73.8-.6-.09-.45.09-.68.52-.66-.29-.45-.13-.75.38-.67-.21-.52-.08-.95.46-.95-.19-.41.06-.62.44-.68-.08-.12-.2-.43-.24-.48.09-.02.17,0,.25-.02-.16-.39-.1-.58.09-.79-.13-.19-.12-.46-.28-.66.18-.13.25-.28.26-.44-.2.11-.35.04-.67-.25.03.3-.13.64-.14.88-.06-.05-.26-.18-.33-.24-.29.43-.51.94-.76,1.37-.08-.26-.37-.58-.46-.83-.09.52-1.82,2.39-2.17,2.3-.23.43-.5.5-.9.26-.58.78-2.7.42-2.53,2.04-.86.32-1.84,1.34-2.52,2.15-.22.27-.45.55-.66.84Z"/>
      <path class="cls-3" d="m42.72,33.59c.37-.02.74-.05,1.09-.08.08.21.19.39.33.5.3.24.59.05.92.15.41.13.99.13,1.44.33.03-.06.07-.11.1-.17.28-.42,1.27-.99,1.65-.64.03-.25.21-.52.24-.78.13.19.5.37.61.54.03-.26.32-.68.35-.92.13.1.37.21.47.32.09-.09,0-.29.13-.41.47-.06.69-.28,1.09-.32.1-.23.36-.48.49-.71.48.22.61.03.74-.57.16.11.65.14.81.26-.04-.24.07-.6.04-.85.21.03.5-.09.7-.04-.35-.33-.56-.86-.46-1.42.27.19.68.22.94.43-.13-.41-.04-.87-.1-1.27.2.09.39.03.57.09.08-.52-.08-.96-.43-1.27.26.06.65-.15.83-.15-.11-.19-.15-.55-.25-.73,1.58.38.69-.84.73-1.89.15.07.43.05.61.15-.06-.24.05-.74,0-1.02.25,0,.49.05.73.08h.02c-.13-.56-.26-1.13-.28-1.7.06,0,.12,0,.18-.02.04-.12.03-.26.03-.4-.18,0-.38.06-.55.21-.03-.48-.18-.6-.39-.97-.05.04-.09.07-.14.09,0,.16-.08.31-.26.44.16.2.15.47.28.66-.19.21-.25.4-.09.79-.09.03-.17,0-.25.02.04.05.16.36.24.48-.38.06-.63.26-.44.68-.54,0-.67.43-.46.95-.51-.08-.67.23-.38.67-.43-.03-.61.21-.52.66-.69-.13-.4.48-.8.6-.27.09-.76-.1-1.01-.18,0,.16-.17.5-.17.67-.11,0-.26.03-.36.02.02.31-.06.65-.03.96-.2-.12-.6-.18-.79-.29-.07.31-.27.36-.38.57-.1-.13-.36-.22-.43-.29-.08.42-.2.89-.46,1.19-.1-.15-.3-.24-.4-.41-.22.39-.25.99-.52,1.37-.07-.31-.3-.52-.45-.73-.05.21-.31.5-.36.71-.08-.27-.35-.55-.45-.79-.7,1.03-.49,1.08-1.47.57-.46-.24-.86-.5-1.2-.81-1.03,1.36-1.93,2.95-2.1,4.67Z"/>
      <path class="cls-3" d="m39.04,33.59c-.37-.02-.74-.05-1.09-.08-.08.21-.19.39-.33.5-.3.24-.59.05-.92.15-.41.13-.99.13-1.44.33-.03-.06-.07-.11-.1-.17-.28-.42-1.27-.99-1.65-.64-.03-.25-.21-.52-.24-.78-.13.19-.5.37-.61.54-.03-.26-.32-.68-.35-.92-.13.1-.37.21-.47.32-.09-.09,0-.29-.13-.41-.47-.06-.69-.28-1.09-.32-.1-.23-.36-.48-.49-.71-.48.22-.61.03-.74-.57-.16.11-.65.14-.81.26.04-.24-.07-.6-.04-.85-.21.03-.5-.09-.7-.04.35-.33.56-.86.46-1.42-.27.19-.68.22-.94.43.13-.41.04-.87.1-1.27-.2.09-.39.03-.57.09-.08-.52.08-.96.43-1.27-.26.06-.65-.15-.83-.15.11-.19.15-.55.25-.73-1.58.38-.69-.84-.73-1.89-.14.07-.43.05-.61.15.06-.24-.05-.74,0-1.02-.25,0-.49.05-.73.08h-.02c.13-.56.26-1.13.28-1.7-.06,0-.12,0-.18-.02-.04-.12-.03-.26-.03-.4.18,0,.38.06.55.21.03-.48.18-.6.39-.97.05.04.09.07.14.09,0,.16.08.31.26.44-.16.2-.15.47-.28.66.19.21.25.4.09.79.09.03.17,0,.25.02-.04.05-.16.36-.24.48.38.06.63.26.44.68.54,0,.67.43.46.95.51-.08.67.23.38.67.43-.03.61.21.52.66.69-.13.4.48.8.6.27.09.76-.1,1.01-.18,0,.16.17.5.17.67.11,0,.26.03.36.02-.02.31.06.65.03.96.2-.12.6-.18.79-.29.07.31.27.36.38.57.1-.13.36-.22.44-.29.08.42.2.89.46,1.19.1-.15.3-.24.4-.41.22.39.25.99.52,1.37.07-.31.3-.52.45-.73.05.21.31.5.36.71.08-.27.35-.55.45-.79.7,1.03.49,1.08,1.47.57.46-.24.86-.5,1.2-.81,1.03,1.36,1.93,2.95,2.1,4.67Z"/>
      <path class="cls-5" d="m40.88,36.87s0,0,.01,0h0s-.01,0-.01,0Z"/>
      <path class="cls-3" d="m46.25,30.96c-.42-.24-.44-.31-.61-.75-.27-.09-.49-.25-.74-.36-.02-.11-.03-.17-.03-.17h-7.98s-.02.06-.03.17c-.25.11-.47.27-.74.36-.17.44-.19.51-.61.75.08.12.16.09.26.15,0,.14-.09.5-.07.6.19.26.29.53.22,1.05.06,0,.12.01.18.01-.04.31.08.73.03,1.04.02.02.14-.12.17-.12.23.53.11.43.52.38.1.23.28.4.38.63.43-.18.74.38,1.06.77.07,0,.15,0,.23.02.31.42,1.01.39,1.46.36.01-.07.06-.13.08-.17,0,0,0-.01,0-.02,0,0,.01.02.02.02.11.02.22.05.33.07,0,0,0-.02,0-.03.02.01.03.03.06.04.09.02.17.04.25.06.06.02.12.03.18.05h.02c.06-.02.12-.04.18-.05.08-.02.16-.04.25-.06.02-.02.04-.03.06-.04,0,.01,0,.02,0,.03.11-.02.22-.05.33-.07,0,0,0-.02.02-.02,0,0,0,.01,0,.02.02.05.07.1.08.17.45.03,1.15.06,1.46-.36.08,0,.16-.01.23-.02.32-.39.63-.95,1.05-.77.11-.22.29-.4.39-.63.41.04.29.15.52-.38.03,0,.15.14.17.12-.04-.31.08-.72.04-1.04.06,0,.12,0,.18-.01-.08-.52.03-.79.22-1.05.02-.1-.07-.46-.07-.6.1-.06.18-.03.26-.15Zm-7.85,4.5s0-.09,0-.13c0,0,0,0,0,.01v.12Zm4.97-.04v-.07h0s0,.07,0,.07Z"/>
      <path class="cls-4" d="m45.36,30.17s-.17,2.18-1.11,2.71c-.89.51-3.12.4-3.35.39h-.02c-.23.02-2.47.12-3.35-.39-.94-.53-1.11-2.71-1.11-2.71l4.46-.43h.02l4.46.43Z"/>
      <path class="cls-3" d="m46.05,31.64c-.96.54-2.65.93-5.16-.39-2.51,1.32-4.2.93-5.17.39.71-.25,3-1.32,2.69-4.57,0,0,1.11,1.22,2.48,1.89,1.37-.68,2.48-1.89,2.48-1.89-.31,3.25,1.98,4.32,2.69,4.57Z"/>
      <path class="cls-3" d="m36.95,28.92c-.34.31-.74.57-1.2.81-.98.51-.77.45-1.47-.57-.1.24-.37.52-.45.79-.05-.21-.3-.5-.36-.71-.15.21-.38.41-.45.73-.27-.38-.3-.98-.52-1.37-.1.17-.3.26-.4.41-.26-.31-.39-.77-.46-1.19-.07.07-.34.16-.44.29-.11-.21-.32-.26-.38-.57-.19.12-.59.18-.79.29.03-.31-.05-.65-.03-.96-.09.01-.25-.03-.36-.02,0-.17-.18-.51-.17-.67-.25.08-.74.27-1.01.18-.4-.12-.11-.73-.8-.6.09-.45-.09-.68-.52-.66.29-.45.13-.75-.38-.67.21-.52.08-.95-.46-.95.19-.41-.06-.62-.44-.68.08-.12.2-.43.24-.48-.09-.02-.17,0-.25-.02.16-.39.1-.58-.09-.79.13-.19.12-.46.28-.66-.18-.13-.25-.28-.26-.44.2.11.35.04.67-.25-.03.3.13.64.14.88.06-.05.26-.18.33-.24.29.43.51.94.76,1.37.08-.26.37-.58.46-.83.09.52,1.82,2.39,2.17,2.3.23.43.5.5.9.26.58.78,2.7.42,2.53,2.04.86.32,1.84,1.34,2.52,2.15.22.27.45.55.66.84Z"/>
      <path class="cls-7" d="m47.04,30.82h0s-.36.47-.99.82c-.71-.25-3-1.32-2.69-4.57,0,0-1.1,1.21-2.47,1.88t0,0s0,0-.01,0c-1.37-.67-2.47-1.88-2.47-1.88.31,3.25-1.98,4.32-2.69,4.57-.63-.35-.96-.78-.99-.82h0c-1.96-3.69.47-7.95,1.86-10.86,1.35-2.82,4.14-2.54,4.3-2.52h0c.26-.03,2.97-.25,4.29,2.52,1.39,2.91,3.82,7.18,1.86,10.86Z"/>
      <polygon class="cls-7" points="40.89 29.21 40.89 29.22 40.89 29.21 40.89 29.21"/>
      <path class="cls-4" d="m43.13,28.15c-1.22,1.75-2.14,1.64-2.24,1.62h0c-.11.02-1.03.12-2.24-1.62-1.3-1.86-.54-.57,2.24-.57s3.55-1.29,2.24.57Z"/>
      <path class="cls-3" d="m36.33,10.18c-.31-.26-1.6-1.33-2.01-1.28-1.18.14-1.39,2.31-1.62,3.05-.33,1.08-1.06,1.98-1.21,3.07l-.12.59c.14,1.16.12,2.12,1.06,2.86.64.5,1.53.65,2.22,1.06.78.46.69.9,1.47.24.54-.45.74-1.41.89-2.03.21-.89.03-1.79.14-2.71.1-.79.61-1.37.71-2.12.15-1.17-.71-2.03-1.53-2.71Z"/>
      <g>
        <path class="cls-4" d="m36.49,17.53c-.13-.4-.39-.8-.91-1.06-1.28-.64-1.91-.32-2.23-.27s-1.01.53-.48.69c.53.16.27,1.18,1.17,1.65.78.41,1.48,0,1.76.06.46.14.13,1.39.46,1.53.35.14.36-.79.39-.99.07-.47.14-1.18-.16-1.62Z"/>
        <path class="cls-2" d="m36.25,18.09s-.05-1.28-1.05-1.56c-1-.28-1.63,0-1.63,0,0,0-.26,1.6.94,1.84s1.74-.28,1.74-.28Z"/>
        <circle class="cls-4" cx="34.9" cy="17.43" r=".35"/>
        <path class="cls-3" d="m35.7,17.3c0-.2-.16-.35-.35-.35s-.35.16-.35.35.16.35.35.35.35-.16.35-.35Z"/>
      </g>
      <path class="cls-5" d="m40.87,36.87h0s0,0,0,0h0Z"/>
      <polygon class="cls-7" points="40.89 29.21 40.87 29.22 40.87 29.21 40.89 29.21"/>
      <path class="cls-3" d="m45.44,10.18c.31-.26,1.6-1.33,2.01-1.28,1.18.14,1.39,2.31,1.62,3.05.33,1.08,1.06,1.98,1.21,3.07l.12.59c-.14,1.16-.12,2.12-1.06,2.86-.64.5-1.53.65-2.22,1.06-.78.46-.69.9-1.47.24-.54-.45-.74-1.41-.89-2.03-.21-.89-.03-1.79-.14-2.71-.1-.79-.61-1.37-.71-2.12-.15-1.17.71-2.03,1.53-2.71Z"/>
      <g>
        <path class="cls-4" d="m45.28,17.53c.13-.4.39-.8.91-1.06,1.28-.64,1.91-.32,2.23-.27s1.01.53.48.69c-.53.16-.27,1.18-1.17,1.65-.78.41-1.48,0-1.76.06-.46.14-.13,1.39-.46,1.53-.35.14-.36-.79-.39-.99-.07-.47-.14-1.18.16-1.62Z"/>
        <path class="cls-2" d="m45.52,18.09s.05-1.28,1.05-1.56c1-.28,1.63,0,1.63,0,0,0,.26,1.6-.94,1.84s-1.74-.28-1.74-.28Z"/>
        <circle class="cls-4" cx="46.87" cy="17.43" r=".35"/>
        <path class="cls-3" d="m46.07,17.3c0-.2.16-.35.35-.35s.35.16.35.35-.16.35-.35.35-.35-.16-.35-.35Z"/>
      </g>
      <g>
        <path class="cls-4" d="m33.3,13.43l-.37-.26c-.19.41-.46.75-.76,1.04.55.88,1.36.48,2.07.76.7.27,1.19.9,1.97,1.15-.24-.33-.64-1.03-.56-1.65-.01.05-.21.42-.25.64-.61-.2-.52-1.04-.5-1.66-.96,1.27-.77,1.05-1.59-.01Z"/>
        <path class="cls-4" d="m40.16,7.88c-.21,1.58-2.28,1.09-3.36,2.01-1.15.99-1.86,1.83-1.74,3.53.73-1.58,1.39-2.63,3.15-3.36,2.02-.83,2.74-1.08,2.6-3.44-.27.29-.42.62-.65,1.26Z"/>
        <path class="cls-4" d="m39,6.14c-.87.54-2.56.38-2.15,1.98.77.05,1.1-.6,1.72-.95.65-.37,1.42-.49,2.09-.73.03-.58.07-1.55-.1-1.78-.71.11-.77,1-1.55,1.48Z"/>
        <path class="cls-4" d="m38.07,4.86c.65-.31,1.96-.07,2.48-.49.52-.41.68-1.55.37-1.78l-.12.52c-.42.72-2.26.72-2.72,1.75Z"/>
        <path class="cls-4" d="m40.91,2.59h0l.12-.52c-1.4-.17-3.46.25-4.56,1.31.82-.3,1.71-.27,2.5-.55.76-.27,1.17-.81,1.93-.25Z"/>
        <path class="cls-4" d="m32.76,7.25c-.71.72-.92,1.14-.8,2.43,1.09-.27,1.48-3.01,2.59-2.71v-.13c-.34-.89-1.34-.04-1.79.4Z"/>
        <path class="cls-4" d="m30.84,18.22c1.05-.12.7-1.29,2.09-1.05v-.13c.05-.12.21-.12.1-.37-.59-.09-1.21-.23-1.82-.15-.08-.51-.17-1.04-.48-1.42.29,1.36-.16,2.93-.17,4.35.05-.44.13-.82.27-1.23Z"/>
        <path class="cls-4" d="m30.68,14.7c.03-.17,0-.33.02-.5v-.65c-.02-.84.17-1.48-.02-2.3-1.72-.39-1.94,3.42,0,3.44Z"/>
        <path class="cls-4" d="m32.14,21.93c.5.42,1.29,1.43,1.89,1.41,0-.25-.12-.64-.25-.86-1.11-.09-1.98-2-2.46-2.6h-.25c-.05.92.2,1.33,1.07,2.05Z"/>
        <path class="cls-4" d="m28.43,20.56c.41,1.45.76,4.47,2.27,5.1.59.25.91-.27,1.49.35.4.43.46,1.11.26,1.59.56.17,1.04.35,1.58.14.08-.18.16-.64.15-.83-.37-.02-.85-.14-1.23-.07.11-1.07-.82-1.74-1.52-2.31-1.07-.86-1.9-1.2-2.26-2.83-.25-1.14-.86-2.9-.84-4.01.04-1.39,1.15-3.12.97-4.49-.22.25-.62.44-.73,1.01-.86,1.97-.75,4.24-.16,6.36Z"/>
        <path class="cls-4" d="m40.67,11c.07-.55.11-1.09.06-1.57-.57.73-.39,2.01-.97,2.84-.45.64-1.21.68-1.49,1.29l-.37-.39c-.82,1.37-.67,2.18-.35,3.85.16.02.3.01.46,0,.03-.57-.22-1.81.01-2.3.18-.38.75-.7,1.33-.95,1.44.5,1.58-1.52,1.39-2.77-.02,0-.04,0-.06,0Z"/>
        <path class="cls-4" d="m26.85,16.07c.21-1.13-.3-2.56.62-3.68-2.3,1.78-1.67,5.79-.86,8.23-.02-1.56-.03-3.08.24-4.55Z"/>
        <path class="cls-4" d="m33.16,30.09c-.19,0-.4-.04-.58-.04-.17-.44-.34-.38-.63-.75-.36-.46-.46-.82-.82-1.32-.61-.84-1.46-1.64-2.41-1.67-.05-.11.03-.23,0-.35-.25-.01-.5,0-.75-.04,0-.07,0-.14,0-.21-1.39.02-1.45-2.34-2.11-3.51,0,.68.06,1.44-.07,2.06.1.77,1.07,1.78,1.7,2.24.4.29.88.26,1.25.37.58.16.85.28,1.44.51.07.14,0,.32.04.48.14.13.2-.05.35.17-.07.21-.09.37-.2.58.47.24.38.65-.01,1.07.28-.05.62.14.84.13-.12.24-.14.62-.35.87,1.86-.12,3.37,1.07,4.96,1.94-.04-1.42-2.3-1.33-2.64-2.52Z"/>
        <path class="cls-4" d="m34.92,27.88c-.07.15-.2.24-.11.5.16-.04.29-.04.45-.09.69.73,2.08,1.24,2.9,1.08-1.27-.51-2.27-.95-3.37-1.62l.12.13Z"/>
        <path class="cls-4" d="m35.34,30.08c.09.17.18.18.34.3.35-.05,1.09.19,1.41.26.52.12.96.23,1.54.19-.07-.1-.15-.18-.24-.24-.07.04-.05.1-.12.13-.16-.13-.25-.1-.36-.15,0,0-.11-.12-.14-.13-.06.06-.08.11-.14.18-.07-.03-.1-.14-.18-.17-.04,0-.09.08-.12.07-.06-.06-.09-.14-.14-.2-.08-.02-.24-.04-.36-.06-.03.06-.04.13-.07.19-.15-.1-.24-.1-.35-.15-.06-.04-.07-.14-.14-.19-.05.02-.09.06-.11.11-.14-.27-.2-.23-.4-.17-.13-.02-.21-.06-.31-.06-.13-.21-.23-.2-.41-.33-.02.13-.03.27-.01.21-.05.09.05.16.3.2Z"/>
        <path class="cls-4" d="m38.7,31.74c-.07-.02-.04-.12-.12-.13-.05.01-.09.12-.12.15-.09-.03-.11-.12-.19-.15-.09.01-.03.12-.12.15-.07-.07-.08-.14-.14-.21-.02.07-.09.17-.12.24-.08-.07-.16-.13-.24-.19-.04.02-.06.05-.06.1-.41-.26-.85.04-1.18-.34-.07-.03-.05.08-.12.06-.07-.08-.12-.17-.19-.25-.16.01-.1,0-.26-.05-.05.06-.1.08-.11.17.17.22.39.26.67.33.26.2,1.18.56,1.51.25.12.12.27.09.41.18.04-.06.05-.11.09-.17.19.06.39.02.54-.12-.14-.1-.1-.02-.24-.02Z"/>
        <path class="cls-4" d="m37.65,17.94c-.45-.03-.45,1.11-.73,1.66.69-.04.79-1.05.86-1.27l-.12-.39Z"/>
        <path class="cls-4" d="m34.65,19.51c-.94-.11-1.4-.92-2.21-1.18h-.25c-.19.4,2.4,2.22,3.06,2.18-.26-.33-.44-.62-.6-1Z"/>
        <path class="cls-4" d="m34.79,23.49l-.25.13c-.22.16-.41.16-.36.5.21.06.5.04.71,0,.09-.28,0-.46-.11-.63Z"/>
        <path class="cls-4" d="m34.19,25.06c-.23.64-.02.94.47.5l-.12-.52c-.12.03-.23-.01-.35.02Z"/>
        <path class="cls-4" d="m34.16,4.54c-.73.26-1.56.14-2.27.37-.64.21-.83.64-1.31,1.16l-.37.39c-.07.1-.21.06-.24.23.62-.24,1.23-.88,1.94-1.17.7-.29,1.89-.21,2.25-.98Z"/>
        <path class="cls-4" d="m28.81,9.15c.03-.12-.01-.26.02-.36l-.25-.13c-.72.4-.79,1.09-.87,1.83.13-.28.67-1.06,1.09-1.33Z"/>
      </g>
      <path class="cls-3" d="m37.44,29.39s-.33.13-.82.36c-.24.11-.52.25-.81.4-.3.15-.61.31-.92.49-.15.09-.3.19-.45.28-.15.09-.28.2-.42.3-.14.09-.26.2-.38.29-.12.09-.23.19-.33.28-.2.17-.36.33-.47.44-.11.11-.17.17-.17.17h-.01s.06-.08.17-.19c.1-.12.25-.28.45-.47.38-.38.94-.84,1.54-1.23.3-.2.61-.39.91-.54.3-.15.59-.27.85-.36.51-.18.87-.23.87-.23v.02Z"/>
      <path class="cls-3" d="m36.63,28.96s-.34.1-.84.29c-.25.09-.54.2-.84.33-.31.12-.64.26-.95.42-.16.07-.31.16-.47.25-.16.08-.3.18-.44.26-.15.08-.27.18-.4.26-.13.08-.24.17-.35.25-.22.16-.39.3-.51.4-.12.1-.19.16-.19.16h-.01s.07-.08.18-.18c.11-.11.28-.26.49-.43.41-.35,1-.76,1.63-1.1.31-.18.64-.33.95-.47.31-.13.61-.22.88-.29.52-.14.88-.16.88-.16v.02Z"/>
      <path class="cls-3" d="m35.4,28.37s-.34.1-.84.29c-.25.09-.54.2-.84.33-.31.12-.64.26-.95.42-.16.07-.31.16-.47.25-.16.08-.3.18-.44.26-.14.08-.27.18-.4.26-.13.08-.24.17-.35.25-.22.16-.39.3-.51.4-.12.1-.19.16-.19.16h-.01s.07-.08.18-.18c.11-.11.28-.26.49-.43.41-.35,1-.76,1.63-1.1.31-.18.64-.33.95-.47.31-.13.61-.22.88-.29.52-.14.88-.16.88-.16v.02Z"/>
      <path class="cls-3" d="m37.38,30.38s-.33.14-.8.39c-.24.12-.51.27-.8.43-.29.16-.6.34-.89.53-.15.09-.29.2-.43.3-.14.1-.27.21-.41.31-.13.1-.25.21-.37.31-.12.1-.22.2-.32.29-.2.18-.35.34-.45.46-.11.11-.17.18-.17.18h-.01s.06-.08.16-.2c.1-.12.24-.29.43-.49.36-.39.9-.88,1.48-1.3.29-.21.59-.41.88-.58.29-.17.58-.29.83-.4.5-.2.86-.27.86-.27v.02Z"/>
      <path class="cls-3" d="m36.8,31.9s-.28.18-.69.45c-.2.13-.44.29-.7.46-.26.17-.53.34-.79.54-.13.09-.26.2-.38.3-.13.1-.24.21-.35.31-.22.21-.41.42-.56.61-.08.1-.13.19-.19.27-.06.08-.1.16-.13.22-.06.13-.1.2-.1.2h-.02s.03-.08.09-.22c.03-.07.06-.15.12-.23.05-.09.1-.19.18-.29.14-.2.32-.43.54-.65.11-.11.22-.23.34-.33.12-.11.24-.22.37-.32.25-.21.52-.41.78-.58.26-.17.51-.31.73-.42.44-.22.76-.33.76-.33v.02Z"/>
      <path class="cls-3" d="m37.77,31.8s-.18.2-.44.49c-.13.15-.28.32-.44.5-.16.18-.34.38-.5.58-.16.21-.3.43-.43.64-.06.11-.11.21-.16.31-.04.1-.08.2-.12.29-.06.19-.11.34-.12.46-.02.11-.03.18-.03.18h-.02s0-.07.01-.18c0-.12.04-.28.08-.48.03-.1.07-.2.1-.31.05-.1.1-.22.15-.33.12-.22.25-.45.4-.67.15-.22.31-.44.47-.63.17-.19.34-.35.49-.48.3-.26.53-.4.53-.4h.01Z"/>
      <g>
        <path class="cls-4" d="m48.46,13.43l.37-.26c.19.41.46.75.76,1.04-.55.88-1.36.48-2.07.76-.7.27-1.19.9-1.97,1.15.24-.33.64-1.03.56-1.65.01.05.21.42.25.64.61-.2.52-1.04.5-1.66.96,1.27.77,1.05,1.59-.01Z"/>
        <path class="cls-4" d="m41.6,7.88c.21,1.58,2.28,1.09,3.36,2.01,1.15.99,1.86,1.83,1.74,3.53-.73-1.58-1.39-2.63-3.15-3.36-2.02-.83-2.74-1.08-2.6-3.44.27.29.42.62.65,1.26Z"/>
        <path class="cls-4" d="m42.76,6.14c.87.54,2.56.38,2.15,1.98-.77.05-1.1-.6-1.72-.95-.65-.37-1.42-.49-2.09-.73-.03-.58-.07-1.55.1-1.78.71.11.77,1,1.55,1.48Z"/>
        <path class="cls-4" d="m43.7,4.86c-.65-.31-1.96-.07-2.48-.49-.52-.41-.68-1.55-.37-1.78l.12.52c.42.72,2.26.72,2.72,1.75Z"/>
        <path class="cls-4" d="m40.85,2.59h0l-.12-.52c1.4-.17,3.46.25,4.56,1.31-.82-.3-1.71-.27-2.5-.55-.76-.27-1.17-.81-1.93-.25Z"/>
        <path class="cls-4" d="m49.01,7.25c.71.72.92,1.14.8,2.43-1.09-.27-1.48-3.01-2.59-2.71v-.13c.34-.89,1.34-.04,1.79.4Z"/>
        <path class="cls-4" d="m50.93,18.22c-1.05-.12-.7-1.29-2.09-1.05v-.13c-.05-.12-.21-.12-.1-.37.59-.09,1.21-.23,1.82-.15.08-.51.17-1.04.48-1.42-.29,1.36.16,2.93.17,4.35-.05-.44-.13-.82-.27-1.23Z"/>
        <path class="cls-4" d="m51.09,14.7c-.03-.17,0-.33-.02-.5v-.65c.03-.84-.17-1.48.02-2.3,1.72-.39,1.94,3.42,0,3.44Z"/>
        <path class="cls-4" d="m49.63,21.93c-.5.42-1.29,1.43-1.89,1.41,0-.25.12-.64.25-.86,1.11-.09,1.98-2,2.46-2.6h.25c.05.92-.2,1.33-1.07,2.05Z"/>
        <path class="cls-4" d="m53.34,20.56c-.41,1.45-.76,4.47-2.27,5.1-.59.25-.91-.27-1.49.35-.4.43-.46,1.11-.26,1.59-.56.17-1.04.35-1.58.14-.08-.18-.16-.64-.15-.83.37-.02.85-.14,1.23-.07-.11-1.07.82-1.74,1.52-2.31,1.07-.86,1.9-1.2,2.26-2.83.25-1.14.86-2.9.84-4.01-.04-1.39-1.15-3.12-.97-4.49.22.25.62.44.73,1.01.86,1.97.75,4.24.16,6.36Z"/>
        <path class="cls-4" d="m41.1,11c-.07-.55-.11-1.09-.06-1.57.57.73.39,2.01.97,2.84.45.64,1.21.68,1.49,1.29l.37-.39c.82,1.37.67,2.18.35,3.85-.16.02-.3.01-.46,0-.03-.57.22-1.81-.01-2.3-.18-.38-.75-.7-1.33-.95-1.44.5-1.58-1.52-1.39-2.77.02,0,.04,0,.06,0Z"/>
        <path class="cls-4" d="m54.92,16.07c-.21-1.13.3-2.56-.62-3.68,2.3,1.78,1.67,5.79.86,8.23.02-1.56.03-3.08-.24-4.55Z"/>
        <path class="cls-4" d="m48.61,30.09c.19,0,.4-.04.58-.04.17-.44.34-.38.63-.75.36-.46.46-.82.82-1.32.61-.84,1.46-1.64,2.41-1.67.05-.11-.03-.23,0-.35.25-.01.5,0,.75-.04,0-.07,0-.14,0-.21,1.39.02,1.45-2.34,2.11-3.51,0,.68-.06,1.44.07,2.06-.1.77-1.07,1.78-1.7,2.24-.4.29-.88.26-1.25.37-.58.16-.85.28-1.44.51-.07.14,0,.32-.04.48-.14.13-.2-.05-.35.17.07.21.09.37.2.58-.47.24-.38.65.01,1.07-.28-.05-.62.14-.84.13.12.24.14.62.35.87-1.86-.12-3.37,1.07-4.96,1.94.04-1.42,2.3-1.33,2.64-2.52Z"/>
        <path class="cls-4" d="m46.85,27.88c.07.15.2.24.11.5-.16-.04-.29-.04-.45-.09-.69.73-2.08,1.24-2.9,1.08,1.27-.51,2.27-.95,3.37-1.62l-.12.13Z"/>
        <path class="cls-4" d="m46.43,30.08c-.09.17-.18.18-.34.3-.35-.05-1.09.19-1.41.26-.52.12-.96.23-1.54.19.07-.1.15-.18.24-.24.07.04.05.1.12.13.16-.13.25-.1.36-.15,0,0,.11-.12.14-.13.06.06.08.11.14.18.07-.03.1-.14.18-.17.04,0,.09.08.12.07.06-.06.09-.14.14-.2.08-.02.24-.04.36-.06.03.06.04.13.07.19.15-.1.24-.1.35-.15.06-.04.07-.14.14-.19.05.02.09.06.11.11.14-.27.2-.23.4-.17.13-.02.21-.06.31-.06.13-.21.23-.2.41-.33.02.13.03.27.01.21.05.09-.05.16-.3.2Z"/>
        <path class="cls-4" d="m43.06,31.74c.07-.02.04-.12.12-.13.05.01.09.12.12.15.09-.03.11-.12.19-.15.09.01.03.12.12.15.07-.07.08-.14.14-.21.02.07.09.17.12.24.08-.07.16-.13.24-.19.04.02.06.05.06.1.41-.26.85.04,1.18-.34.07-.03.05.08.12.06.07-.08.12-.17.19-.25.16.01.1,0,.26-.05.05.06.1.08.11.17-.17.22-.39.26-.67.33-.26.2-1.18.56-1.51.25-.12.12-.27.09-.41.18-.04-.06-.05-.11-.09-.17-.19.06-.39.02-.54-.12.14-.1.1-.02.24-.02Z"/>
        <path class="cls-4" d="m44.12,17.94c.45-.03.45,1.11.73,1.66-.69-.04-.79-1.05-.86-1.27l.12-.39Z"/>
        <path class="cls-4" d="m47.12,19.51c.93-.11,1.4-.92,2.21-1.18h.25c.19.4-2.4,2.22-3.06,2.18.26-.33.44-.62.6-1Z"/>
        <path class="cls-4" d="m46.97,23.49l.25.13c.22.16.41.16.36.5-.21.06-.5.04-.71,0-.09-.28,0-.46.11-.63Z"/>
        <path class="cls-4" d="m47.57,25.06c.23.64.02.94-.48.5l.12-.52c.12.03.23-.01.35.02Z"/>
        <path class="cls-4" d="m47.61,4.54c.73.26,1.56.14,2.27.37.64.21.83.64,1.31,1.16l.37.39c.07.1.21.06.24.23-.62-.24-1.23-.88-1.94-1.17-.7-.29-1.89-.21-2.25-.98Z"/>
        <path class="cls-4" d="m52.96,9.15c-.03-.12.01-.26-.02-.36l.25-.13c.72.4.79,1.09.87,1.83-.13-.28-.67-1.06-1.09-1.33Z"/>
      </g>
      <path class="cls-3" d="m44.32,29.39s.33.13.82.36c.24.11.52.25.81.4.3.15.61.31.92.49.15.09.3.19.45.28.15.09.28.2.42.3.14.09.26.2.38.29.12.09.23.19.33.28.2.17.36.33.47.44.11.11.17.17.17.17h.01s-.06-.08-.17-.19c-.1-.12-.25-.28-.45-.47-.38-.38-.94-.84-1.54-1.23-.3-.2-.61-.39-.91-.54-.3-.15-.59-.27-.85-.36-.51-.18-.87-.23-.87-.23v.02Z"/>
      <path class="cls-3" d="m45.13,28.96s.34.1.84.29c.25.09.54.2.84.33.31.12.64.26.95.42.16.07.31.16.47.25.16.08.3.18.44.26.15.08.27.18.4.26.13.08.24.17.35.25.22.16.39.3.51.4.12.1.19.16.19.16h.01s-.07-.08-.18-.18c-.11-.11-.28-.26-.49-.43-.41-.35-1-.76-1.63-1.1-.31-.18-.64-.33-.95-.47-.31-.13-.61-.22-.88-.29-.52-.14-.88-.16-.88-.16v.02Z"/>
      <path class="cls-3" d="m46.37,28.37s.34.1.84.29c.25.09.54.2.84.33.31.12.64.26.95.42.16.07.31.16.47.25.16.08.3.18.44.26.15.08.27.18.4.26.13.08.24.17.35.25.22.16.39.3.51.4.12.1.19.16.19.16h.01s-.07-.08-.18-.18c-.11-.11-.28-.26-.49-.43-.41-.35-1-.76-1.63-1.1-.31-.18-.64-.33-.95-.47-.31-.13-.61-.22-.88-.29-.52-.14-.88-.16-.88-.16v.02Z"/>
      <path class="cls-3" d="m44.39,30.38s.33.14.8.39c.24.12.51.27.8.43.29.16.6.34.89.53.15.09.29.2.43.3.14.1.27.21.41.31.13.1.25.21.37.31.12.1.22.2.32.29.2.18.35.34.45.46.11.11.17.18.17.18h.01s-.06-.08-.16-.2c-.1-.12-.24-.29-.43-.49-.36-.39-.9-.88-1.48-1.3-.29-.21-.59-.41-.88-.58-.29-.17-.58-.29-.83-.4-.5-.2-.86-.27-.86-.27v.02Z"/>
      <path class="cls-3" d="m44.97,31.9s.28.18.69.45c.2.13.44.29.7.46.26.17.53.34.79.54.13.09.26.2.38.3.13.1.24.21.35.31.22.21.41.42.56.61.08.1.13.19.19.27.06.08.1.16.13.22.06.13.1.2.1.2h.02s-.03-.08-.09-.22c-.03-.07-.06-.15-.12-.23-.05-.09-.1-.19-.18-.29-.14-.2-.32-.43-.54-.65-.11-.11-.22-.23-.34-.33-.12-.11-.24-.22-.37-.32-.25-.21-.52-.41-.78-.58-.26-.17-.51-.31-.73-.42-.44-.22-.76-.33-.76-.33v.02Z"/>
      <path class="cls-3" d="m43.99,31.8s.18.2.44.49c.13.15.28.32.44.5.16.18.34.38.5.58.16.21.3.43.43.64.06.11.11.21.16.31.04.1.08.2.12.29.06.19.11.34.12.46.02.11.03.18.03.18h.02s0-.07-.01-.18c0-.12-.04-.28-.08-.48-.03-.1-.07-.2-.1-.31-.05-.1-.1-.22-.15-.33-.12-.22-.25-.45-.4-.67-.15-.22-.31-.44-.47-.63-.17-.19-.34-.35-.49-.48-.3-.26-.53-.4-.53-.4h-.01Z"/>
    </g>
  </g>
</svg>