<?xml version="1.0" encoding="UTF-8"?><svg data-name="Layer 2" xmlns="http://www.w3.org/2000/svg" viewBox="0 0 105.07 54.5"><defs/><g data-name="100"><g><path d="m53.1,35.24s-9.07,11.63-8.45,13.04c.62,1.41,3.24,4.3-.03,4.3s-10.07,1.13-10.28-4.07c-.21-5.21,3.5-16.84,6.6-20.4,3.09-3.56,16.08-4.21,12.16,7.15Z" style="stroke-width:0px;fill:#010101"/><path d="m5.35,21.39s-2.2,5.22-2.37,13.26c-.17,8.03-4.71,16.69-2.24,16.69h10.93s3.35-.51,2.5-2.83c-.85-2.32-2.45-6.07,0-13.06,2.45-6.99-4-23.59-8.82-14.05Z" style="stroke-width:0px;fill:#010101"/><path d="m2.7,19.08c.22,3.45,1.29,7,3.11,9.64,1.67-4.16,6.82-6.56,10.34-5.57,4.79,1.34,5.1,8.4,17.47,7.94,12.37-.46,14.38-5.26,17.32-7.94,2.94-2.68,12.52-.72,14.22,2.66,1.7,3.38,6.96,3.89,11.29,3.5,4.33-.39,6.34-2.71,8.55-3.5,2.21-.8,6.29.33,11.29,1.38-.1-2.55,1.68-4.5,2.17-5.78.2-.54.6-.89,1.03-1.12-.88-.63-1.67-1.24-2.23-1.77-2.4-2.27-6.95-7.31-12.25-7.34-5.3-.03-8.86,2.96-13.81,0-4.95-2.96-9.74-10.23-15.61-8.99-5.87,1.24-12.99,3.4-19.02,3.09-6.03-.31-24.92.53-29.22,5.9-2.02,2.53-3.52,6.04-4.65,7.92Z" style="stroke-width:0px;fill:#171717"/><path d="m96.29,27.18c4.57.96,6.15.16,6.39.02,0,0,0,0,0,0,0,0,.01,0,.02-.01,0,0,0,0,0,0,1.33-.86,2.2-1.9,2.05-3.02-.02-.19-.06-.37-.11-.54-1.4-.85-3.46-2.13-5.17-3.34-.43.23-.82.59-1.03,1.12-.49,1.29-2.28,3.23-2.17,5.78Z" style="stroke-width:0px;fill:#d2c0a1"/><path d="m5.82,28.71c1.17,1.69,2.75,3.14,4.82,4.21.27.79.66,1.54,1.23,1.85.23.13.66.09.84.2.35.21.29.33.56.63.24.27.33.6.68.79.25.14.55-.08.78.07.57.38,1.15,2.09,1.86,1.99-.02-.64.21-1.62,1.07-1.43.68.15.5.94,1.23,1.06.48.08.66-.36,1.1-.07.31.21,0,.61.34.85.27.2.72-.11,1,.06.18.11.32.59.5.77.38-.13.48-.66.95-.57,0,.31.14.57.41.73.32-.23.57-.58.71-.94.39.25.34.81.62,1.2.31-.13.49-.47.62-.79,1.04.82,1.17,2.35,1.95.26.47.46,1.19,1.64,1.88,1.55.02-.32,0-.67.06-.99.23.11.53.26.75.38.11-.26.24-.51.4-.74.36.22.4,1.13.5,1.55.49.11.85-.36,1.05-.78.59.14.59,1.12.81,1.61.78-.2.67-1.55,1.37-1.98.41.73.45,2.04,1.02,2.6.09-.94.51-3.27,1.87-3.05.08.6-.13,1.3.29,1.81.79-.4,1.92-1.41,2.42-2.16.75.93,1.17,3.43,2.11,1.15.16-.38.59-1.44,1.14-1.2.47.21.23,1.2.29,1.59,1.17-.57,1-1.9,1.65-2.85.66.1.58,1.44.56,1.97,1.24-.83,2.04-2.89,2.54-4.23.33.19.73.39.99.73-.12-.94.38-2.23,1.15-3.17,3.02-.23,5.78-.32,8.12-.15,2.41.18,4.49-.4,6.21-1.53.17.4.33.8.42,1.19.46.17.88-.06,1.16-.36.04.56.06,2.01.61,2.23.23-.27.29-.65.3-.99.82.41.59,1.71,1.03,2.38.44-.24.82-.86,1.38-.72-.02.42-.3.87-.41,1.33.7-.27,1.34-.48,1.88-1.09.4.48.69,2.53,1.61,2.16.22-.43.3-.84.24-1.35.1.36.33,1.43.83,1.41.46-.02.67-.85.6-1.19.44.44.62,1.4,1.21,1.56.01-.71.37-1.54.66-2.19-.07.24.02.51.03.74.58.05,1.66-1.19,1.82-1.77.07.25.21.48.25.75.44-.29.67-.77.75-1.29.03.24.13.43.39.45.29-.34.7-.62.93-.99.3-.49.19-1.15.72-1.43.16.24.26.5.3.79.87-.24.52-1.49,1.15-1.82.11.3.22.61.41.79-.05-.81.77-2.12,1.68-2.65,3.85-.35,8.55.05,11.69-.22.29-.03.6-.06.91-.11-.34-.75-.5-1.46-.52-2.12-5-1.05-9.08-2.18-11.29-1.38-2.21.8-4.22,3.12-8.55,3.5-4.33.39-9.58-.13-11.29-3.5-1.7-3.38-11.29-5.33-14.22-2.66-2.94,2.68-4.95,7.47-17.32,7.94-12.37.46-12.68-6.6-17.47-7.94-3.53-.99-8.67,1.42-10.34,5.57Z" style="stroke-width:0px;fill:#010101"/><path d="m96.29,27.18c.03.67.18,1.37.52,2.12,1.99-.31,4.26-1.07,5.87-2.1-.24.14-1.82.94-6.39-.02Z" style="fill:#a99474;stroke-width:0px"/><path d="m2.7,19.08c1.13-1.88,2.63-5.38,4.65-7.92,4.3-5.37,23.19-6.21,29.22-5.9,6.03.31,13.14-1.86,19.02-3.09,5.87-1.24,10.67,6.03,15.61,8.99,4.95,2.96,8.5-.03,13.81,0,5.3.03,9.85,5.07,12.25,7.34.56.53,1.35,1.14,2.23,1.77.88-.47,1.92-.46,1.92-.46-.9-.82-1.92-1.82-2.95-3.2-3.07-4.08-7.67-5.97-7.67-5.97-5.33-1.89-9.62-3.18-11.99-2.14h0s-6.21,1.3-12.39-5.57c-1.96-2.17-5.24-2.94-8.35-2.94-6.18,0-11.55,3.3-20.41,3.09-8.87-.21-24.57-.53-31.82,5.72-2.4,2.07-3.38,6.09-3.11,10.26Z" style="stroke-width:0px;fill:#2b2c2b"/><path d="m99.49,20.27c1.71,1.22,3.77,2.5,5.17,3.34-.41-1.45-1.66-2.35-3.25-3.8,0,0-.04,0-.12,0,0,0-.02,0-.03,0-.02,0-.05,0-.08,0,0,0-.02,0-.03,0-.05,0-.1,0-.16.01-.04,0-.09,0-.14.02-.02,0-.03,0-.05,0-.03,0-.06,0-.09.01-.01,0-.02,0-.03,0-.06,0-.11.02-.17.03-.01,0-.02,0-.04,0-.04,0-.07.02-.11.02-.01,0-.03,0-.04.01-.02,0-.05.01-.07.02-.04.01-.08.02-.11.03-.01,0-.03,0-.04.01-.01,0-.03,0-.04.01,0,0,0,0,0,0-.01,0-.03,0-.04.01-.05.02-.1.04-.16.06-.01,0-.03.01-.04.02,0,0,0,0,0,0-.02,0-.05.02-.07.03-.02,0-.03.01-.05.02-.01,0-.02,0-.03.01-.04.02-.08.04-.12.06-.01,0-.02.01-.04.02-.01,0-.02.01-.03.02,0,0,0,0,0,0Z" style="stroke-width:0px;fill:#e5d3b6"/><path d="m87.59,13.52s.45,4.56-1.25,5.64c-1.7,1.09-4.12-1.25-3.88-3.44.24-2.2,3.74-5.07,5.13-2.2Z" style="stroke-width:0px;fill:#010101"/><path d="m104.78,23.14s.77,1.38-.22,2.17c-1,.8-.79-.63-1-1.7-.21-1.06.11-1.9,1.22-.48Z" style="stroke-width:0px;fill:#010101"/><path d="m104.16,22.73s.82.56.77,1.39c-.05.83-.88.07-1-.51-.13-.57-.07-1.15.23-.88Z" style="stroke-width:0px;fill:#171717"/><path d="m93,19.55c0,.91.74,1.65,1.65,1.65s1.64-.74,1.64-1.65-.74-1.64-1.64-1.64-1.65.74-1.65,1.64Z" style="stroke-width:0px;fill:#f2f2f2"/><path d="m95.93,19.55c0-.55-.45-1-1-1s-1,.45-1,1,.45,1,1,1,1-.45,1-1Z" style="stroke-width:0px;fill:#010101"/><path d="m95.96,19c0-.24-.2-.44-.44-.44s-.44.2-.44.44.2.44.44.44.44-.2.44-.44Z" style="stroke-width:0px;fill:#fff"/><path d="m82.47,14.36c.34.38,1.17.72,1.61.97.24.14.45.2.64.21,1.85.98,3.14-2.48,3.55-3.76,0,0-4.25-5.46-5.56,1.74-.13.26-.12.55-.23.81,0,0,0,0,0,0,0,0,0,.01,0,.02Z" style="stroke-width:0px;fill:#171717"/><path d="m82.71,13.52c1.31-7.2,5.56-1.74,5.56-1.74.09-.28.14-.46.14-.46,0,0,.11-1.09-.26-2.1v-.02c.31-1.35-1.46-1.33-1.68-2.44-.41-.06-.87.06-1.21-.17-.05.31-.15.61-.23.93-.46.08-.8-.3-1.17-.52,0,.14-.09.34-.08.48-.09-.13-.28-.26-.34-.33-.08.55.21,1.19.14,1.82-.27-.07-.55-.21-.75-.37-.07.31-.06.66-.07.98-.15-.03-.4.09-.56.06-.14.71.34,1.32.14,2-.22-.03-.55.1-.77.07-.03.33.86,1.81,1.13,1.81Z" style="stroke-width:0px;fill:#2b2c2b"/><path d="m50.17,49.48c.61,4.16,10.61,4.66,10.69,4.67h0c1.12-.07,2.04-.12,2.58-.12,2.71,0,.18-2.47-1.68-3.3-1.86-.82-.62-7.42,0-10.52.62-3.1,4.33-12.37,4.33-12.37.81-2.07.62-9.07-7.83-9.88-3.44-.33-5.79,1.21-7.42,3.46-3.36,11.79-1.27,23.99-.68,28.06Z" style="stroke-width:0px;fill:#171717"/><path d="m9.2,37.88c1.86,6.03.46,13.45,1.86,14.8,1.39,1.34,11.83,1.19,11.83,1.19h0c1.48-.56,1.79-1.51-.09-2.32-2.89-1.24-2.06-3.3-2.06-8.03s-1.03-17.15-1.03-17.15c-1.44-7.24-8.45-8.43-12.99-6.16-.75.38-1.31.97-1.7,1.72,0,.15-.02.31-.03.46-.51,4.91,2.37,9.46,4.22,15.49Z" style="stroke-width:0px;fill:#171717"/><path d="m48.57,52.37c0,2.48,7.79,2.04,12.29,1.77-.08,0-10.08-.51-10.69-4.67-.6-4.08-2.68-16.28.68-28.06-2.38,3.28-3.23,8.06-3.72,10.75-.82,4.53,1.44,17.11,1.44,20.21Z" style="stroke-width:0px;fill:#010101"/><path d="m6.72,36.89c1.86,4.32.41,13,1.24,15.68.82,2.68,8.04,1.78,11.75,1.78,1.29,0,2.4-.19,3.19-.49h0s-10.44.16-11.83-1.19c-1.39-1.34,0-8.77-1.86-14.8-1.85-6.03-4.73-10.58-4.22-15.49.02-.16.03-.31.03-.46-1.97,3.75.15,11.37,1.7,14.97Z" style="stroke-width:0px;fill:#010101"/><path d="m58.52,19.82s6.03,1.3,4.79,7.83c-1.24,6.53-9.82,7.81-11.09,1.66-1.27-6.16,3.42-10.97,6.3-9.48Z" style="stroke-width:0px;fill:#2b2c2b"/><path d="m10.75,21.2s4.83-.48,7.11,5.22c2.28,5.7-3.77,7.37-7.11,3.58-3.34-3.8-4.64-9.09,0-8.8Z" style="stroke-width:0px;fill:#2b2c2b"/></g></g></svg>