<?xml version="1.0" encoding="UTF-8"?>
<svg id="Layer_2" data-name="Layer 2" xmlns="http://www.w3.org/2000/svg" viewBox="0 0 127.94 112.29">
  <defs>
    <style>
      .cls-1 {
        fill: #3a3939;
      }

      .cls-1, .cls-2, .cls-3, .cls-4, .cls-5, .cls-6, .cls-7, .cls-8, .cls-9, .cls-10, .cls-11, .cls-12, .cls-13, .cls-14, .cls-15, .cls-16, .cls-17, .cls-18, .cls-19 {
        stroke-width: 0px;
      }

      .cls-2 {
        fill: #2d2e2d;
      }

      .cls-3 {
        fill: #454545;
      }

      .cls-4 {
        fill: #8a815a;
      }

      .cls-5 {
        fill: #010101;
      }

      .cls-6 {
        fill: #646464;
      }

      .cls-7 {
        fill: #161616;
      }

      .cls-8 {
        fill: #232323;
      }

      .cls-9 {
        fill: #fff;
      }

      .cls-10 {
        fill: #272625;
      }

      .cls-11 {
        fill: #4d4c4b;
      }

      .cls-12 {
        fill: #555554;
      }

      .cls-13 {
        fill: #565656;
      }

      .cls-14 {
        fill: #343534;
      }

      .cls-15 {
        fill: #404040;
      }

      .cls-16 {
        fill: #f5f6f6;
      }

      .cls-17 {
        fill: #5a5a59;
      }

      .cls-18 {
        fill: #645d41;
      }

      .cls-19 {
        fill: #a0966c;
      }
    </style>
  </defs>
  <g id="_100" data-name="100">
    <g>
      <path class="cls-14" d="m33.29,23.95c-2.49-4.2-4.29-6.87-4.31-5.26-.04,3.34-3.31-.5-2.68,2.84.63,3.34-2.54.84-3.71,0-1.17-.84.17,3.84-2.01,2-2.17-1.84-.66,3.17-3.76,1.67-3.09-1.5-.83,2.17-3.47,1-2.63-1.17,3.81,5.68.92,4.51-2.1-.85-5.13-1.58-5.17-.47-2.11-.74-3.61-1.39-3.61-1.39h0c-3.43-2.92-11.28-5.65,1.68-3.26,0,0-10.31-7.34-6.03-6.42,4.21.9,7.56,2.59,7.66,2.64-.32-.28-.64-.52-.94-.86-2.16-2.02-7.14-6.85-4.78-6.36,1.75.36,7.05,3.04,10.48,4.84-3.23-3.66-8.19-9.29-6.39-8.7,2.25.73,9.48,6.87,9.48,6.87C9.86,10.63,10.63,1.45,12.58,6.41c1.93,4.92,8.27,10.19,8.37,10.28-6.03-13.21-2.14-19.82-1.17-15.23.97,4.55,6.53,14.7,6.62,14.86-2.72-8.62-1.54-16.77,0-11.19,1.36,4.93,3.82,9.61,6.91,14.71h0c.52,2.18.41,3.44-.02,4.11Z"/>
      <path class="cls-8" d="m39.01,74.3s-13.39,2.34-15.76,2.67c-2.37.33-5.3,0-4.04,3.68,1.27,3.67,6.49,11.7,14.34,15.2,7.85,3.51,6.19,2.67,7.19,0,1-2.67,6.68-11.19,8.02-13.7,1.34-2.51-5.26-8.63-9.75-7.85Z"/>
      <path class="cls-5" d="m35.18,76.83s-13.25,1.65-14.28,3.51c-1.04,1.86,6.04,11.36,16.56,15.71,0,0,1.85,0,3.43-3.18,1.58-3.17,5.09-8.27,4.42-10.07-.67-1.8-4.91-6.76-10.13-5.97Z"/>
      <path class="cls-8" d="m45.32,78.45c-7.39,0-18.04-11-26.21-22.37-.47-.65-.91-1.31-1.33-1.97-.42-.66-.82-1.33-1.19-2,0,0-.02-.03-.05-.09-.08-.14-.15-.28-.23-.42-1.3-2.37-6.76-12.57-9.5-21.12-.17-.53-.65-1.08-1.29-1.62,0,0,7.39,3.19,12.4,3.53,4.96.33.1-2.77,0-2.84.13.03,6.33,1.47,4.34-1.67.09.04,5.49,2.31,3.17-1.5,0,0,4.68,2.67,3.51-2.84,0,0,6.23,4.15,4.37-3.69,3.22,5.31,7.12,11.07,11.19,18.06,7.98,13.69,19.07,20.95,19.07,20.95,6.05,4.89-10.85,19.6-18.25,19.6Z"/>
      <path class="cls-8" d="m104.68,83.59s0,0,0,0c-4.65-1.85-9.72-3.99-15.61-6.14-13.93-5.08-21.92-13.35-21.92-13.35-5.25-4.42-21.47,8.73-20.83,14.74.64,6.01,15.63,15.64,27.34,21.12.67.31,1.34.61,2.02.88.68.27,1.36.53,2.04.76,0,0,.03.01.09.03.14.05.28.1.43.15,2.4.81,12.75,4.2,21.25,5.56.64.1,1.37.59,2.08,1.22-.01-.03-.28-.56-.67-1.4-.98-2.14-2.72-6.27-2.9-9.13-.25-4.01.08-3.35,1.45-2.23,1.37,1.13,1.62.63.61-1.75-1-2.38,1.74-.38,2.61.13.88.5-1.25-2.01,0-2.01s-1.25-3.32,3.01-4.42c1.21-.31,1.65-.78,1.67-1.29.03-1.27-2.57-2.81-2.67-2.87Z"/>
      <path class="cls-5" d="m107.34,86.46c-.01.51-.46.98-1.67,1.29-4.26,1.09-1.75,4.42-3.01,4.42s.88,2.51,0,2.01c-.88-.5-3.62-2.51-2.61-.13,1,2.38.75,2.88-.61,1.75-1.36-1.13-1.7-1.78-1.45,2.23.18,2.86,1.92,6.99,2.9,9.13-.38-.15-.86-.34-1.46-.59-2.91-1.24-22.96-6.62-30.73-10.88-7.77-4.26-16.92-10.65-17.29-13.53-.37-2.88,11.04-16.99,20.82-11.02,0,0,9.13,6.54,15.59,8.38,4.72,1.34,14.99,4.99,19.52,6.96Z"/>
      <path class="cls-10" d="m33.29,23.95c-1.11,1.74-4.35-.42-4.35-.42,1.17,5.51-3.51,2.84-3.51,2.84,2.32,3.81-3.08,1.54-3.17,1.5,1.98,3.14-4.22,1.7-4.34,1.67.1.06,4.96,3.17,0,2.84-2.75-.18-6.23-1.23-8.8-2.14.04-1.12,3.07-.38,5.17.47,2.89,1.17-3.56-5.68-.92-4.51,2.64,1.17.37-2.51,3.47-1,3.1,1.5,1.58-3.51,3.76-1.67,2.17,1.84.84-2.84,2.01-2,1.17.84,4.34,3.34,3.71,0-.63-3.34,2.64.5,2.68-2.84.02-1.6,1.82,1.06,4.31,5.26Z"/>
      <path class="cls-5" d="m49.95,71.71c-7.22,3.4-14.35,0-14.35,0C12.52,49.71,14.4,36.23,10.56,32.41c-1.05-1.05-1.47-1.74-1.45-2.16,2.57.91,6.04,1.95,8.8,2.14,4.96.33.1-2.77,0-2.84.13.03,6.33,1.47,4.34-1.67.09.04,5.49,2.31,3.17-1.5,0,0,4.68,2.67,3.51-2.84,0,0,3.24,2.16,4.35.42,2.71,4.56,6.23,10.93,9.18,15.62,5.68,9.02,16.25,18.03,16.25,18.03,3.18,5.53-1.54,10.71-8.77,14.11Z"/>
      <path class="cls-7" d="m73.28,71.71s0,0,0,0c-.61.92-1.38,1.82-2.29,2.7,2.2-3.64,1.24-7.6,1.24-7.6-.2-1.74-3.53-6.35-11.72-4.94-8.19,1.41-20.22,7.11-23.21,12.73-1.43,2.7-2.23,5.66-2.02,8.21-1.37-1.92-1.8-4.65-.91-8.2,2.12-8.5,16.91-15.68,23.75-17.32h0c.08.05,5.39,3.12,10.07,2.23,4.72-.9,7.49,6.74,5.08,12.19Z"/>
      <path class="cls-8" d="m73.98,70.48c-.2.41-.43.82-.7,1.23,2.41-5.45-.36-13.09-5.08-12.19-4.68.89-9.99-2.19-10.07-2.23,1.5-.36,2.62-.45,3.14-.23,2.89,1.21,5.78.4,5.78.4,11.95.72,9.83,7.02,6.93,13.04Z"/>
      <path class="cls-5" d="m70.99,74.41c-4.52,4.32-12.42,7.98-20.06,10.49-6.92,2.27-13.01,1.58-15.63-2.1-.21-2.54.58-5.51,2.02-8.21,2.99-5.62,15.02-11.32,23.21-12.73,8.19-1.41,11.52,3.2,11.72,4.94,0,0,.95,3.96-1.24,7.6Z"/>
      <path class="cls-10" d="m108.18,96.43c-3.01-1.13-1.13.87.75,1.75,1.88.88-1.75.5-3.01,0-1.25-.5,1.75,3.13,2.76,4.01,1,.88-1,1.25-2.88,0-1.88-1.25-.5.75.5,2.76,1,2.01-.63,1.63-2.63,0-2.01-1.63-1.63,1.26-1.38,2.01.2.6.12.77-1.39.2-.98-2.14-2.72-6.27-2.9-9.13-.25-4.01.08-3.35,1.45-2.23,1.37,1.13,1.62.63.61-1.75-1-2.38,1.74-.38,2.61.13.88.5-1.25-2.01,0-2.01s-1.25-3.32,3.01-4.42c1.21-.31,1.65-.78,1.67-1.29,1.66.72,2.55,1.22,2.11,1.29-1.65.27-4.28.16-.89,2.92,3.38,2.76.63,2.26-1.38,1.75-2.01-.5-1.13,1,1.75,2.63,2.88,1.63,2.26,2.51-.75,1.38Z"/>
      <path class="cls-14" d="m111.62,94.42s5.7,4.67,10.67,5.75c4.96,1.07-3.85,2.65-11.18-2.17.2.16,6.57,5.28,7.46,7,.73,1.41-5.15-2.05-8.97-4.3,2.04,2.6,5.09,6.64,5.59,8.02.67,1.87-4.43-1.68-6.57-3.23-.36-.2-.62-.44-.92-.67.07.09,1.98,2.63,3.21,5.95,1.26,3.38-6.74-4.24-6.74-4.24,3.28,9.85.38,4.68-2.61,2.03h0s-.28-.56-.67-1.4c1.52.58,1.59.4,1.39-.2-.25-.75-.63-3.64,1.38-2.01,2,1.63,3.63,2.01,2.63,0-1-2-2.38-4.01-.5-2.76,1.88,1.25,3.89.88,2.88,0-1-.88-4.01-4.51-2.76-4.01,1.25.5,4.89.88,3.01,0-1.88-.88-3.76-2.88-.75-1.75,3.01,1.13,3.64.25.75-1.38-2.88-1.63-3.76-3.13-1.75-2.63,2,.5,4.76,1,1.38-1.75-3.38-2.76-.76-2.64.89-2.92.44-.07-.45-.57-2.11-1.29.03-1.27-2.57-2.81-2.67-2.87,6.34,2.52,11.9,4.5,17.66,5.21,5.53.68-2.25,2.48-10.83,1.15,0,0,10.43,3.53,14.95,3.85,4.52.32-1.53,4.16-14.84.61Z"/>
      <path class="cls-11" d="m81.62,58.34c-.88,1.5-4.14,1.25-4.01,2.97.02.21.07.4.15.56-2.68.51-5.18.09-6.55-.43-.5-.19-.81-.26-1.02-.23-.08-.63-.04-1.37.15-2.24.29-1.31.88-2.45,1.66-3.43.06-.02.12-.05.19-.07.04-.02.09-.03.13-.05.03,0,.05-.02.08-.03.05-.02.09-.03.14-.05.06-.02.12-.04.18-.06.07-.02.13-.04.2-.06.07-.02.15-.04.22-.06.05-.01.09-.03.14-.04.06-.02.12-.03.18-.05,0,0,.02,0,.03,0,.05-.01.1-.03.15-.04.07-.02.13-.03.2-.05.07-.02.14-.03.21-.04.02,0,.05,0,.07-.01.06-.01.11-.02.17-.03.03,0,.06,0,.08-.02.06-.01.12-.02.18-.03,0,0,.01,0,.02,0,.08-.01.16-.03.24-.04.08-.01.17-.02.25-.03,4.35-.56,5.16,1.73,6.8,2.51.05.25.06.56-.23,1.05Z"/>
      <path class="cls-15" d="m84.2,57.6s-.07.08-.1.13c0,.01-.02.03-.03.04-.01.02-.02.03-.03.05,0,0,0,0,0,.01-.01.02-.02.03-.03.05-.03.05-.05.09-.07.14-.03.07-.05.14-.07.21-.09.45-.83,1.08-1.37,1.54-.03.02-.05.04-.08.07-.03.02-.05.04-.08.06-.01,0-.02.02-.04.03-.02.02-.05.04-.07.06-.03.03-.07.06-.09.08-.02.02-.04.03-.06.05-.03.02-.05.04-.07.06,0,0-.01.01-.02.02,0,0-.01.01-.02.02-.04.04-.06.07-.06.09,0,0,0,0,0,0,0,0,0,0,0,0,0,0,0,0,0,0t0,0c-.27.1-.56.23-.85.38-1.09.58-2.22.95-3.31,1.16-.08-.17-.14-.35-.15-.56-.12-1.71,3.13-1.46,4.01-2.97.29-.5.28-.8.23-1.05.37.18.79.28,1.31.25.36-.02.71,0,1.04.07Z"/>
      <path class="cls-4" d="m87.1,61.43s-1.93-2.33-5.18-1.11t0,0s0,0,0,0c0,0,0,0,0,0,0,0,0,0,0,0,0-.02.02-.05.06-.09,0,0,.01-.01.02-.02,0,0,.01-.01.02-.02.02-.02.04-.04.07-.06.02-.02.04-.03.06-.05.03-.03.06-.05.09-.08.02-.02.05-.04.07-.06.01,0,.02-.02.04-.03.02-.02.05-.04.08-.06.03-.02.05-.04.08-.07.54-.46,1.29-1.09,1.37-1.54.01-.07.04-.14.07-.21.02-.05.04-.09.07-.14,0-.02.02-.04.03-.05,0,0,0,0,0-.01.01-.02.02-.03.03-.05,0-.01.02-.02.03-.04.03-.04.07-.09.1-.13,2.18.41,3.62,2.37,3.62,2.37.03.81-.23,1.45-.72,1.46Z"/>
      <path class="cls-2" d="m85.75,61.16c-.75-.16-1.73-.11-3.82,1.18-.55.34-1.04.62-1.5.86,0,0-2.08-.15-2.67-1.35,1.09-.21,2.22-.58,3.31-1.16.29-.16.57-.28.85-.38.02,0,.07,0,.15-.03.83-.28,2.73.31,3.68.88Z"/>
      <path class="cls-18" d="m87.1,61.43c-.5,0-.88-.17-1.35-.27h0c-.95-.57-2.84-1.16-3.68-.88-.08.03-.13.04-.15.03,3.25-1.21,5.18,1.11,5.18,1.11Z"/>
      <path class="cls-17" d="m81.85,57.28c-1.64-.78-2.45-3.07-6.8-2.51-.08.01-.17.02-.25.03-.08.01-.16.02-.24.04,0,0-.01,0-.02,0-.06,0-.12.02-.18.03-.03,0-.06.01-.08.02-.06.01-.11.02-.17.03-.02,0-.05,0-.07.01-.07.01-.14.03-.21.04-.07.01-.14.03-.2.05-.05.01-.1.02-.15.04,0,0-.02,0-.03,0-.06.01-.12.03-.18.05-.05.01-.09.03-.14.04-.07.02-.15.04-.22.06-.07.02-.13.04-.2.06-.06.02-.12.04-.18.06-.05.02-.09.03-.14.05-.03,0-.05.02-.08.03-.04.02-.09.03-.13.05-.06.02-.12.05-.19.07.41-.52.87-.99,1.36-1.42h0c.58-.15,1.2-.28,1.87-.39,5.05-.89,5.86,1.04,7.29,2.19-.91.7-.74.96-.67,1.36Z"/>
      <path class="cls-19" d="m87.82,59.97s-1.44-1.97-3.62-2.37c.03-.03.05-.06.08-.09.03-.03.05-.05.08-.08.03-.03.07-.06.1-.09.03-.03.06-.05.09-.07.03-.02.06-.05.09-.07.27-.2.53-.34.63-.38,0,0,.01,0,.02,0,.02,0,.02-.01.02-.01h0c1.72.38,2.45,1.97,2.51,3.18Z"/>
      <path class="cls-12" d="m85.31,56.79h0s0,0-.02.01c0,0-.01,0-.02,0-.1.05-.35.18-.63.38-.03.02-.06.04-.09.07-.03.02-.06.05-.09.07-.03.03-.07.06-.1.09-.03.03-.06.05-.08.08-.03.03-.06.06-.08.09-.33-.06-.68-.09-1.04-.07-.51.03-.93-.07-1.31-.25-.07-.41-.24-.66.67-1.36.53.43,1.15.76,2.11.79.24,0,.47.04.68.09Z"/>
      <path class="cls-1" d="m80.43,63.21c-2.39,1.26-3.55,1.26-3.55,1.26,0,0-6.13,1.06-6.68-3.26.2-.03.52.04,1.02.23,1.37.52,3.87.94,6.55.43.59,1.2,2.67,1.35,2.67,1.35Z"/>
      <path class="cls-3" d="m76.87,64.46c-1.92,2.2-3.67,3.49-5.23,4.13-.24.1-1.27.21-1.16-.1.11-.31-.42-.25-.72.04-.31.29-.64.04-.64-.4s-.39.11-.86.31c-.47.19-.5.14-.42-.53.08-.67-.33-.22-.78-.17-.44.06-.33-.14-.03-.75.31-.61.5-.64-.84-.28-1.34.36-.95-.5-.58-.89.36-.39.25-.45-.33-.36-.58.08-1.19-1.53-1.19-1.53h0c-.03-.24-.05-.48-.05-.72,1.35,2.85,4.75,1.41,5.42,0,.49-1.05.17-1.92.74-2,.56,4.32,6.68,3.26,6.68,3.26Z"/>
      <path class="cls-13" d="m70.34,58.96c-.19.88-.23,1.62-.15,2.24-.57.09-.24.95-.74,2-.67,1.42-4.07,2.86-5.42,0,0-.12,0-.23.01-.34.15-.25.3-.49.45-.73.07-.11.14-.21.21-.32.06-.09.12-.17.18-.26.07-.1.13-.2.2-.29,0-.01.01-.02.02-.03.04-.06.08-.11.12-.17.08-.12.17-.23.25-.35.04-.06.08-.11.13-.17.04-.06.09-.11.13-.17.04-.05.08-.1.12-.15.09-.12.19-.24.29-.36.03-.04.07-.08.1-.12.04-.05.09-.1.13-.15.04-.04.07-.09.11-.13.06-.07.11-.13.17-.19.08-.08.15-.16.23-.24,0,0,.01-.02.02-.02.07-.08.15-.15.22-.23.08-.08.16-.16.24-.24.37-.36.75-.7,1.15-1.02.04-.03.09-.07.13-.1.14-.11.27-.21.42-.31.05-.03.09-.06.14-.1.06-.04.12-.09.19-.13.03-.02.07-.05.1-.07.05-.03.1-.06.15-.09.05-.03.1-.06.15-.09.05-.03.1-.06.15-.09.05-.03.1-.06.15-.09.05-.03.1-.06.15-.09.05-.03.1-.06.15-.09.05-.03.1-.05.15-.08.05-.03.09-.05.14-.07.06-.03.11-.06.17-.09.11-.05.21-.1.32-.15.05-.02.11-.05.16-.07.05-.02.11-.05.16-.07.05-.02.11-.05.17-.07.11-.05.22-.09.34-.13-.78.98-1.38,2.11-1.66,3.43Z"/>
      <path class="cls-6" d="m73.36,54.12c-.49.43-.95.9-1.36,1.42-.11.04-.22.09-.34.13-.05.02-.11.05-.17.07-.05.02-.11.05-.16.07-.05.02-.11.05-.16.07-.11.05-.21.1-.32.15-.06.03-.11.06-.17.09-.05.02-.09.05-.14.07-.05.03-.1.06-.15.08-.05.03-.1.06-.15.09-.05.03-.1.06-.15.09-.05.03-.1.06-.15.09-.05.03-.1.06-.15.09-.05.03-.1.06-.15.09-.05.03-.1.06-.15.09-.03.02-.07.05-.1.07-.06.04-.13.08-.19.13-.05.03-.09.06-.14.1-.14.1-.28.2-.42.31-.04.03-.09.07-.13.1-.4.32-.79.66-1.15,1.02-.08.08-.16.16-.24.24-.07.08-.15.15-.22.23,0,0-.01.02-.02.02-.08.08-.15.16-.23.24-.06.06-.11.13-.17.19-.04.04-.07.08-.11.13-.04.05-.09.1-.13.15-.03.04-.07.08-.1.12-.1.12-.19.23-.29.36-.04.05-.08.1-.12.15-.05.06-.09.12-.13.17-.04.06-.09.11-.13.17-.09.11-.17.23-.25.35-.04.06-.08.11-.12.17,0,0-.02.02-.02.03-.07.1-.14.2-.2.29-.06.09-.12.17-.18.26-.07.11-.14.21-.21.32-.16.24-.31.49-.45.73.04-.53.15-1.02.37-1.44,1.7-3.38,3.5-5.95,8.95-7.31Z"/>
      <path class="cls-16" d="m73.96,57.28c0,1.01.81,1.82,1.82,1.82s1.82-.81,1.82-1.82-.81-1.82-1.82-1.82-1.82.82-1.82,1.82Z"/>
      <path class="cls-5" d="m74.59,57.28c0,.79.64,1.42,1.42,1.42s1.42-.64,1.42-1.42-.64-1.42-1.42-1.42-1.42.64-1.42,1.42Z"/>
      <path class="cls-9" d="m77.07,56.34c0-.23-.19-.42-.42-.42s-.42.19-.42.42.19.42.42.42.42-.19.42-.42Z"/>
    </g>
  </g>
</svg>