<?xml version="1.0" encoding="UTF-8"?><svg data-name="Layer 2" xmlns="http://www.w3.org/2000/svg" viewBox="0 0 609.98 726.49"><defs/><g data-name="CARIBOU REINDEER"><g><path d="m330.08,692.79c-.71-3.06-.87-6.68-.87-13.7,0-13.15,1.05-60.78,6.19-78.75,5.17-18,1.05-74.86,7.24-88.22,6.19-13.33,32.97-21.13,34.03-56.24.12-4.64-.49-8.63-1.67-12.09-4.49,9.68-17.66,35.82-34.8,50.73-21.28,18.56-23.6,33.47-25.92,16.73-2.32-16.73-16.12-48.44-1.89-77.83-15.31,20.23-5.66,59.39-5.01,65.86.84,8.51-.06,90.66,2.26,99.29,2.2,8.14-.43,65.36-5.91,85.93,11.75,3.43,20.26,6.16,26.35,8.29Z" style="stroke-width:0px;fill:#211c1a"/><path d="m48.25,619.35c1.86,11.48,4.89,33.19,6.09,51.5v.03s0,.03.03.03c9.62,15.9,19.09,19.77,25.71,19.95-5.26-25.15-6.56-73.19-6.56-86.67,0-16.89,6.19-24.37,32.97-47.3,26.82-22.92,63.94-66.78,48.47-121.81,0,0,2.32,53.33-21.65,69.54-23.97,16.18-35.57-18.1-47.17-40-6.9-13.08-23.76-33.72-28.8-53.67-4.21,31.83,28.71,83.15,33.44,93.79,6.96,15.65-26.29,57.04-37.89,60.94-11.6,3.9-7.73,34.77-4.64,53.67Z" style="stroke-width:0px;fill:#211c1a"/><path d="m295.71,718.37s10.83-.28,10.83,0c0,.31,3.09-10.15,7.73-3.96.84,1.08,1.7,1.92,2.66,2.54,4.42,2.91,10.76,1.42,22.86,1.42,10.7,0,4.58-4.73-1.05-10.42-2.07-2.1-4.08-4.33-5.13-6.5-1.83-3.71-2.88-6-3.53-8.66-6.09-2.13-14.6-4.86-26.35-8.29-.34,1.3-.68,2.41-1.05,3.4-6.19,16.64-6.96,30.47-6.96,30.47Z" style="stroke-width:0px;fill:#a6a8ab"/><path d="m55.98,718.77c2.94,0,3.77-3.06,3.9-6.34.28-5.41-1.42-11.41,1.11-5.26.77,1.89,1.27,3.5,1.67,4.86,1.55,5.35,1.83,6.74,14.97,6.74,15.25,0,16.39-1.55,9.12-11.57-.59-.8-1.21-1.67-1.92-2.6-1.89-2.51-3.43-7.39-4.76-13.73-6.62-.19-16.09-4.05-25.71-19.95.77,11.85.8,22.24-.71,27.56-2.07,7.27-3.37,12-3.99,15.06-1.36,6.9.96,5.23,6.31,5.23Z" style="stroke-width:0px;fill:#a6a8ab"/><path d="m338.74,707.94c-6.28,2.78-15.53,6.74-21.81,9,4.42,2.91,10.76,1.42,22.86,1.42,10.7,0,4.58-4.73-1.05-10.42Z" style="stroke-width:0px;fill:#2c2c2d"/><path d="m86.76,707.2c-5.78,1.48-14.2,3.4-24.1,4.83,1.55,5.35,1.83,6.74,14.97,6.74,15.25,0,16.39-1.55,9.12-11.57Z" style="stroke-width:0px;fill:#2c2c2d"/><path d="m55.98,718.77c2.94,0,3.77-3.06,3.9-6.34-3.25.43-6.68.8-10.21,1.11-1.36,6.9.96,5.23,6.31,5.23Z" style="stroke-width:0px;fill:#2c2c2d"/><path d="m314.27,511.24c2.32,16.73,4.64,1.83,25.92-16.73,17.14-14.91,30.31-41.05,34.8-50.73-7.73-22.83-39.59-22.24-39.59-22.24-10.86.99-18.19,5.48-23.01,11.85v.03c-14.23,29.39-.43,61.09,1.89,77.83Z" style="stroke-width:0px;fill:#382f2b"/><path d="m57.34,410.96c5.04,19.95,21.9,40.58,28.8,53.67,11.6,21.9,23.2,56.17,47.17,40,23.97-16.21,21.65-69.54,21.65-69.54-15.47-55-59.95-49.86-59.95-49.86-25.43,0-35.7,10.7-37.68,25.74Z" style="stroke-width:0px;fill:#382f2b"/><path d="m.22,417.3c2.32-10.42,17.85-29.26,17.85-29.26,0,0-5.41,13.49-3.19,12.81,2.23-.71,37.21-25.61,37.21-25.61,4.36-1.64,8.6-2.66,12.62-3.19.99-4.7-4.7-6.96-23.63-4.3,0,0-25.58,7.76-34.86,25.02-5.23,9.71-6.87,18.68-6,24.53Z" style="stroke-width:0px;fill:#fff"/><path d="m.22,417.3c.65,4.58,2.85,7.24,6,6.9,7.21-.77,9.28-10.05,9.28-10.05,0,0,6.19,8.01,18.56-8.35,7.83-10.33,29.02-25.67,30.65-33.75-4.02.53-8.26,1.55-12.62,3.19,0,0-34.98,24.9-37.21,25.61-2.23.68,3.19-12.81,3.19-12.81,0,0-15.53,18.84-17.85,29.26Z" style="stroke-width:0px;fill:#fff"/><path d="m378.22,303.53c1.21,3.37,2.17,6.77,2.26,10.33.09,2.81.99,5.48,1.11,8.29.22,4.79-.74,9.56.31,14.29.71,3.31,2.35,6.03,3.68,9.03.8,1.82,1.36,3.9,2.32,5.63,2.2,3.96,5.63,2.04,7.76,5.57,1.98,3.34,3.4,6.62,5.94,9.68,1.98,2.41,3.96,3.34,6.46,5.01,2.07,1.33,3.87,3.09,6.19,3.99,2.13.8,4.08.22,6.22.56,1.39.25,2.32,1.21,3.56,1.7,2.1.8,4.24.4,6.4.68,4.42.56,6.37,1.58,9.81-.8,2.88-30.28,7.18-64.74,7.18-64.74,2.41-20.01-43.71-34.18-52.12-33.84-4.24.15-10.55,12.4-17.07,24.62Z" style="stroke-width:0px;fill:#211c1a"/><path d="m36.04,457.45c15.71-20.91,34.15-39.13,39.96-44.33,13.86-12.37,51.1,20.11,58.83,34.46,7.73,14.35,32.48,40.55,81.2,35.14s73.47-35.14,73.47-35.14c0,0,34.8,2.66,44.85,6.93,5.82,2.47,10.42,14.79,17.26,20.79,0-4.02.22-8.04.12-12.06-.09-3.19-1.08-4.64-2.07-7.45-2.01-5.6-1.42-11.26-2.07-17.07-.31-2.54-1.67-3.68-2.23-6.06-.68-3,.22-6.22-1.42-9.06-1.05-1.79-2.26-2.78-2.6-4.95-.4-2.44.03-4.45-.49-7.02-.93-4.33-1.05-9.34-6.25-9.84-3.37-.31-4.27-.25-4.95-3.99-.62-3.31-.96-5.13-3.03-7.89-3.12-4.18-4.42-9.5-8.79-12.71-2.97-2.2-7.67-1.67-11.01-3.46-4.36-2.32-2.26-5.41-1.02-8.88.62-1.7.34-3.03.9-4.76.8-2.47,1.61-3.59,1.67-6.22.09-4.98-.19-7.92-5.04-10.61-2.47-1.36-5.32-2.01-7.86-3.22-1.98-.93-3.8-2.23-5.94-2.82-4.24-1.14-8.07.53-10.21-4.08-24.07,6.19-62.24,9.74-102.54,7.11-50.54-3.28-99.42-1.36-116.28,10.61-16.02,11.41-48.81,32.23-24.47,106.59Z" style="stroke-width:0px;fill:#382f2b"/><path d="m279.32,333.13c2.13,4.61,5.97,2.94,10.21,4.08,2.13.59,3.96,1.89,5.94,2.82,2.54,1.21,5.38,1.86,7.86,3.22,4.86,2.69,5.13,5.63,5.04,10.61-.06,2.63-.87,3.74-1.67,6.22-.56,1.73-.28,3.06-.9,4.76-1.24,3.46-3.34,6.56,1.02,8.88,3.34,1.79,8.04,1.27,11.01,3.46,4.36,3.22,5.66,8.54,8.79,12.71,2.07,2.75,2.41,4.58,3.03,7.89.68,3.74,1.58,3.68,4.95,3.99,5.2.5,5.32,5.51,6.25,9.84.53,2.57.09,4.58.49,7.02.34,2.17,1.55,3.16,2.6,4.95,1.64,2.85.74,6.06,1.42,9.06.56,2.38,1.92,3.53,2.23,6.06.65,5.82.06,11.48,2.07,17.07.99,2.82,1.98,4.27,2.07,7.45.09,4.02-.12,8.04-.12,12.06,5.01,4.39,11.17,5.44,19.86-3.12,20.57-20.32,16.24-75.29,9.28-100.13-4.33-15.44-6.87-41.11-8.14-58.34-4.49,7.7-8.78,13.77-12.4,14.26-10.36,1.42-45.25-9.19-65.48,0-4.08,1.86-9.31,3.59-15.4,5.17Z" style="stroke-width:0px;fill:#fff"/><path d="m351.58,520.99c.46,2.6,1.14,5.01,2.01,7.3,17.29-1.89,32.54-6.5,41.7-16.12,26.42-27.81,42.69-72.75,42.41-95.95-.09-8.01,1.02-22.8,2.54-38.73-3.43,2.38-5.38,1.36-9.81.8-2.17-.28-4.3.12-6.4-.68-1.24-.49-2.17-1.45-3.56-1.7-2.13-.34-4.08.25-6.22-.56-2.32-.9-4.11-2.66-6.19-3.99-2.51-1.67-4.49-2.6-6.46-5.01-2.54-3.06-3.96-6.34-5.94-9.68-2.13-3.53-5.57-1.61-7.76-5.57-.96-1.73-1.52-3.8-2.32-5.63-1.33-3-2.97-5.72-3.68-9.03-1.05-4.73-.09-9.5-.31-14.29-.12-2.81-1.02-5.48-1.11-8.29-.09-3.56-1.05-6.96-2.26-10.33-1.89,3.5-3.74,6.99-5.6,10.18,1.27,17.23,3.8,42.9,8.14,58.34,6.96,24.84,11.29,79.81-9.28,100.13-8.69,8.57-14.85,7.52-19.86,3.12v.22c0,9.13-1.02,18.03-1.02,27.16,0,6.19-.12,12.16.99,18.31Z" style="stroke-width:0px;fill:#a6a8ab"/><path d="m36.04,457.45c1.24,3.84,2.66,7.83,4.24,11.97,32.05,84.11,190.42,56.61,220.77,56.54,19.83-.06,59.85,5.94,92.55,2.32-.87-2.29-1.55-4.7-2.01-7.3-1.11-6.16-.99-12.13-.99-18.31,0-9.13,1.02-18.03,1.02-27.16v-.22c-6.84-6-11.44-18.31-17.26-20.79-10.05-4.27-44.85-6.93-44.85-6.93,0,0-24.75,29.73-73.47,35.14s-73.47-20.79-81.2-35.14c-7.73-14.35-44.98-46.83-58.83-34.46-5.82,5.2-24.25,23.42-39.96,44.33Z" style="stroke-width:0px;fill:#211c1a"/><path d="m299.89,700.33c-.71-3.06-.87-6.68-.87-13.7,0-13.15,1.05-60.78,6.19-78.75,5.17-18,1.05-74.86,7.24-88.22,6.19-13.33,32.97-21.13,34.03-56.24.12-4.64-.49-8.63-1.67-12.09-4.49,9.68-17.66,35.82-34.8,50.73-21.28,18.56-23.6,33.47-25.92,16.73-2.32-16.73-16.12-48.44-1.89-77.83-15.31,20.23-5.66,59.39-5.01,65.86.84,8.51-.06,90.66,2.26,99.29,2.2,8.14-.43,65.36-5.91,85.93,11.75,3.43,20.26,6.16,26.35,8.29Z" style="stroke-width:0px;fill:#382f2b"/><path d="m18.07,626.9c1.86,11.48,4.89,33.19,6.09,51.5v.03s0,.03.03.03c9.62,15.9,19.09,19.77,25.71,19.95-5.26-25.15-6.56-73.19-6.56-86.67,0-16.89,6.19-24.37,32.97-47.3,26.82-22.92,63.94-66.78,48.47-121.81,0,0,2.32,53.33-21.65,69.54-23.97,16.18-35.57-18.1-47.17-40-6.9-13.08-23.76-33.72-28.8-53.67-4.21,31.83,28.71,83.15,33.44,93.79,6.96,15.65-26.29,57.04-37.89,60.94-11.6,3.9-7.73,34.77-4.64,53.67Z" style="stroke-width:0px;fill:#382f2b"/><path d="m265.53,725.92s10.83-.28,10.83,0c0,.31,3.09-10.15,7.73-3.96.84,1.08,1.7,1.92,2.66,2.54,4.42,2.91,10.76,1.42,22.86,1.42,10.7,0,4.58-4.73-1.05-10.42-2.07-2.1-4.08-4.33-5.13-6.5-1.83-3.71-2.88-6-3.53-8.66-6.09-2.13-14.6-4.86-26.35-8.29-.34,1.3-.68,2.41-1.05,3.4-6.19,16.64-6.96,30.47-6.96,30.47Z" style="stroke-width:0px;fill:#fff"/><path d="m25.8,726.32c2.94,0,3.77-3.06,3.9-6.34.28-5.41-1.42-11.41,1.11-5.26.77,1.89,1.27,3.5,1.67,4.86,1.55,5.35,1.83,6.74,14.97,6.74,15.25,0,16.39-1.55,9.12-11.57-.59-.8-1.21-1.67-1.92-2.6-1.89-2.51-3.43-7.39-4.76-13.73-6.62-.19-16.09-4.05-25.71-19.95.77,11.85.8,22.24-.71,27.56-2.07,7.27-3.37,12-3.99,15.06-1.36,6.9.96,5.23,6.31,5.23Z" style="stroke-width:0px;fill:#fff"/><path d="m308.56,715.49c-6.28,2.78-15.53,6.74-21.81,9,4.42,2.91,10.76,1.42,22.86,1.42,10.7,0,4.58-4.73-1.05-10.42Z" style="stroke-width:0px;fill:#434446"/><path d="m56.58,714.75c-5.78,1.48-14.2,3.4-24.1,4.83,1.55,5.35,1.83,6.74,14.97,6.74,15.25,0,16.39-1.55,9.12-11.57Z" style="stroke-width:0px;fill:#434446"/><path d="m25.8,726.32c2.94,0,3.77-3.06,3.9-6.34-3.25.43-6.68.8-10.21,1.11-1.36,6.9.96,5.23,6.31,5.23Z" style="stroke-width:0px;fill:#434446"/><path d="m284.09,518.79c2.32,16.73,4.64,1.83,25.92-16.73,17.14-14.91,30.31-41.05,34.8-50.73-7.73-22.83-39.59-22.24-39.59-22.24-10.86.99-18.19,5.48-23.01,11.85v.03c-14.23,29.39-.43,61.09,1.89,77.83Z" style="stroke-width:0px;fill:#382f2b"/><path d="m27.16,418.51c5.04,19.95,21.9,40.58,28.8,53.67,11.6,21.9,23.2,56.17,47.17,40,23.97-16.21,21.65-69.54,21.65-69.54-15.47-55-59.95-49.86-59.95-49.86-25.43,0-35.7,10.7-37.68,25.74Z" style="stroke-width:0px;fill:#382f2b"/><path d="m370.16,264.47s-5.67-18.89-33.51-26.11c-27.84-7.22-36.6-8.76-37.89,0-1.29,8.76,25,56.19,56.97,45.37s17.53-6.03,14.44-19.26Z" style="stroke-width:0px;fill:#382f2b"/><path d="m361.4,267.23s-10.31-16.5-21.65-18.04c-11.34-1.55-29.9-11.34-32.99-8.25s4.12,25.26,27.32,35.57c23.2,10.31,30.93-.52,27.32-9.28Z" style="stroke-width:0px;fill:#382f2b"/><path d="m444.42,264.47s5.67-18.89,33.51-26.11c27.84-7.22,36.6-8.76,37.89,0,1.29,8.76-25,56.19-56.97,45.37-31.96-10.83-17.53-6.03-14.44-19.26Z" style="stroke-width:0px;fill:#382f2b"/><path d="m453.19,267.23s10.31-16.5,21.65-18.04c11.34-1.55,29.9-11.34,32.99-8.25s-4.12,25.26-27.32,35.57-30.93-.52-27.32-9.28Z" style="stroke-width:0px;fill:#382f2b"/><path d="m356.24,309.26c8.75,15.02,14.94,25.43,21.13,41.62-.19-1.25-1.81-11.92,2.57-19.02,4.64-7.55,3.62-19.13,27.35-19.13s22.71,11.58,27.35,19.13c4.38,7.09,2.79,17.77,2.6,19.02,6.19-16.19,12.38-26.6,21.09-41.62,8.79-15.05,0-33.58-7.73-42.29-7.73-8.68-5.66-26.03-43.31-26.03s-35.58,17.36-43.31,26.03c-7.73,8.72-16.49,27.24-7.73,42.29Z" style="stroke-width:0px;fill:#382f2b"/><path d="m400.57,214.64c-.53,14.45-1.55,31.47,0,41.77.19,1.21.42,2.26.68,3.24.04-1.7,1.13-49.43,1.4-54.14.26-4.79-4.98-16.64-1.74-14.07,3.28,2.6,3.06-27.58,1.74-32.22-1.28-4.64,3.09,1.81,2.83,0-.11-.94.6-2.64,1.81-4,1.21,1.36,1.96,3.06,1.85,4-.3,1.81,4.11-4.64,2.79,0-1.28,4.64-1.55,34.82,1.74,32.22,3.24-2.57-1.96,9.28-1.74,14.07.3,4.72,1.36,52.44,1.4,54.14.26-.98.49-2.04.68-3.24,1.55-10.3.53-27.32,0-41.77-.53-14.41,7.73-27.28,5.66-28.6-2.04-1.28-6,2.83-6,2.83,0,0-.38-10.83,0-19.09.34-8.22,3.24-18.56,0-18.56s-2.75,4.64-2.75,4.64c0,0-2.08-8.23-3.62-8.23s-3.62,8.23-3.62,8.23c0,0,.53-4.64-2.75-4.64s-.34,10.34,0,18.56c.38,8.26,0,19.09,0,19.09,0,0-3.96-4.11-6-2.83-2.08,1.32,6.19,14.19,5.66,28.6Z" style="fill:#3c3f3e;stroke-width:0px"/><path d="m602.79,22.2c-.65-1.24-1.36-2.44-2.13-3.59-13.52-20.01-16.73-20.01-16.21-17.42.5,2.47,5.1,15.28,5.38,16.09-.71-.37-12.09-6.5-18.34-8.35-1.61-.49-3.19-.87-4.45-.96,5.38,3.56,16.73,10.89,21.75,12.84,6.71,2.57,10.3,4.42,6.19-5.57-1.61-3.93,2.2-.62,7.83,6.96Z" style="fill:#3c3f3e;stroke-width:0px"/><path d="m513.08,192.7c-2.94,2.6-4.21,6.99-4.21,6.99,0,0,31.43-3.34,59.27-37.37,27.84-34.03,34.03-46.68,34.55-75.01.53-28.37,1.02-49-9.28-55.68-.84-.53-1.86-.93-3.06-1.21,1.82,1.08,3.31,2.26,4.36,3.65,4.33,5.78,4.33,25.15,4.33,30.93,0,0-7.02,3.25-10.27,7.76-3.25,4.49,9.19,3.87,9.19,3.87,0,0,1.08,39.32-16.21,62.55-17.32,23.2-37.31,45.13-68.67,53.51Z" style="fill:#3c3f3e;stroke-width:0px"/><path d="m519.95,133.18c-.84-5.32-6.84-15.1-8.85-18.28-.19.93.03,2.51.9,4.92,4.33,12.25,1.64,18.06-2.17,13.55-3.77-4.52-11.88-17.42-11.32-27.72.53-10.33-8.66-6.46-8.66,2.57s-8.66-9.03-12.43-9.03-2.69,8.38.53,12.25c3.25,3.87.56,3.87-7.55,3.87-3.84,0-7.08,1.92-8.2,4.24.84.31,1.3.49,1.3.49,0,0,4.95-1.55,13.67-1.55s8.51-1.3,6.19-3.87c-2.32-2.57,1.55-3.34,3.59-2.07,2.07,1.3,3.62,5.17,5.17,2.07,1.55-3.09,2.85,1.02,3.87,4.11,1.02,3.09,11.6,18.84,15.47,20.11,3.87,1.3,9.53.77,8.51-5.66Z" style="fill:#3c3f3e;stroke-width:0px"/><path d="m421.92,250.2c5.66-7.39,22.83-28.46,40.09-36.07,21.06-9.28,38.6-13.92,38.6-13.92,0,0,14.69-24.5,13.67-30.93-1.05-6.47-4.79-8.48-4.79-8.48.62,1.42.46,3.25-.71,8.01-2.72,10.98-10.83,27.1-10.83,27.1,0,0-35.14,8.38-44.85,16.12-9.74,7.73-28.67,22.58-30.81,29.66-.65,2.17-.8,5.41-.37,8.51Z" style="fill:#3c3f3e;stroke-width:0px"/><path d="m377.36,350.88v.08c6.19,16.26,29.92,16.79,29.92,16.79,0,0,23.73-.53,29.92-16.79l.04-.08c.19-1.25,1.77-11.92-2.6-19.02-4.64-7.55-3.62-19.13-27.35-19.13s-22.71,11.58-27.35,19.13c-4.38,7.09-2.75,17.77-2.57,19.02Z" style="stroke-width:0px;fill:#302824"/><path d="m413.66,334.18s7.57-4.63,11.18-12.74c3.61-8.11,2.06,5.79,0,10.42s-13.59,7.53-11.18,2.32Z" style="stroke-width:0px;fill:#171817"/><path d="m432.87,292.23s1.81-13.73,6.96-16.03,14.44,0,14.44,0h7.73l-5.62,3.09s-2.62,24.85-23.5,12.94Z" style="stroke-width:0px;fill:#171817"/><circle cx="445.13" cy="283.01" r="2.31" style="stroke-width:0px;fill:#fff"/><path d="m421.92,250.2c1.02,6.96,5.13,12.93,13.36,3.09,0,0,13.49-37.4,67-44.48,53.51-7.08,94.59-59.33,101.61-96.08,6.62-34.64,9.9-69.88-1.11-90.54-5.63-7.58-9.43-10.89-7.83-6.96,4.11,9.99.53,8.14-6.19,5.57-5.01-1.95-16.36-9.28-21.75-12.84-3.84-.37-5.17,1.42,1.73,8.69,6.99,7.36,15.84,10.24,21.59,13.77,1.21.28,2.23.68,3.06,1.21,10.3,6.68,9.81,27.31,9.28,55.68-.53,28.33-6.71,40.99-34.55,75.01-27.84,34.03-59.27,37.37-59.27,37.37,0,0,1.27-4.39,4.21-6.99,0,0,10.83-20.63,11.91-38.7,1.08-18.06,1.24-31.58-2.35-34.18-2.88-2.07-10.76-8.69-11.54-4.92,2.01,3.19,8.01,12.96,8.85,18.28,1.02,6.43-4.64,6.96-8.51,5.66-3.87-1.27-14.45-17.01-15.47-20.11-1.02-3.09-2.32-7.21-3.87-4.11-1.55,3.09-3.09-.77-5.17-2.07-2.04-1.27-5.91-.49-3.59,2.07,2.32,2.57,2.57,3.87-6.19,3.87s-13.67,1.55-13.67,1.55c0,0-.46-.19-1.3-.49-1.27,2.57.06,5.63,6.03,7.11,11.35,2.85,30.81,15.1,35.67,25.4,2.75,5.85,4.83,6.93,5.57,8.75h.03s3.74,2.01,4.79,8.48c1.02,6.43-13.67,30.93-13.67,30.93,0,0-17.54,4.64-38.6,13.92-17.26,7.61-34.43,28.67-40.09,36.07Z" style="stroke-width:0px;fill:#232524"/><path d="m402.64,205.51c-.26,4.72-1.36,52.44-1.4,54.14v.04c2.04,7.58,6.04,9.58,6.04,9.58,0,0,4.04-2,6.04-9.58v-.04c-.04-1.7-1.09-49.43-1.4-54.14-.23-4.79,4.98-16.64,1.74-14.07-3.28,2.6-3.02-27.58-1.74-32.22,1.32-4.64-3.09,1.81-2.79,0,.11-.94-.64-2.64-1.85-4-1.21,1.36-1.92,3.06-1.81,4,.26,1.81-4.11-4.64-2.83,0,1.32,4.64,1.55,34.82-1.74,32.22-3.24-2.57,2,9.28,1.74,14.07Z" style="stroke-width:0px;fill:#232524"/><path d="m211.8,22.2c.65-1.24,1.36-2.44,2.13-3.59C227.45-1.4,230.67-1.4,230.14,1.19c-.5,2.47-5.1,15.28-5.38,16.09.71-.37,12.09-6.5,18.34-8.35,1.61-.49,3.19-.87,4.45-.96-5.38,3.56-16.73,10.89-21.75,12.84-6.71,2.57-10.3,4.42-6.19-5.57,1.61-3.93-2.2-.62-7.83,6.96Z" style="fill:#3c3f3e;stroke-width:0px"/><path d="m301.5,192.7c2.94,2.6,4.21,6.99,4.21,6.99,0,0-31.43-3.34-59.27-37.37-27.84-34.03-34.03-46.68-34.55-75.01-.53-28.37-1.02-49,9.28-55.68.84-.53,1.86-.93,3.06-1.21-1.82,1.08-3.31,2.26-4.36,3.65-4.33,5.78-4.33,25.15-4.33,30.93,0,0,7.02,3.25,10.27,7.76,3.25,4.49-9.19,3.87-9.19,3.87,0,0-1.08,39.32,16.21,62.55,17.32,23.2,37.3,45.13,68.67,53.51Z" style="fill:#3c3f3e;stroke-width:0px"/><path d="m294.64,133.18c.84-5.32,6.84-15.1,8.85-18.28.19.93-.03,2.51-.9,4.92-4.33,12.25-1.64,18.06,2.17,13.55,3.77-4.52,11.88-17.42,11.32-27.72-.53-10.33,8.66-6.46,8.66,2.57s8.66-9.03,12.44-9.03,2.69,8.38-.53,12.25c-3.25,3.87-.56,3.87,7.55,3.87,3.84,0,7.08,1.92,8.2,4.24-.84.31-1.3.49-1.3.49,0,0-4.95-1.55-13.67-1.55s-8.51-1.3-6.19-3.87c2.32-2.57-1.55-3.34-3.59-2.07-2.07,1.3-3.62,5.17-5.17,2.07s-2.85,1.02-3.87,4.11c-1.02,3.09-11.6,18.84-15.47,20.11-3.87,1.3-9.53.77-8.51-5.66Z" style="fill:#3c3f3e;stroke-width:0px"/><path d="m392.66,250.2c-5.66-7.39-22.83-28.46-40.09-36.07-21.06-9.28-38.6-13.92-38.6-13.92,0,0-14.69-24.5-13.67-30.93,1.05-6.47,4.79-8.48,4.79-8.48-.62,1.42-.46,3.25.71,8.01,2.72,10.98,10.83,27.1,10.83,27.1,0,0,35.14,8.38,44.85,16.12,9.74,7.73,28.67,22.58,30.81,29.66.65,2.17.8,5.41.37,8.51Z" style="fill:#3c3f3e;stroke-width:0px"/><path d="m400.93,334.18s-7.57-4.63-11.18-12.74c-3.61-8.11-2.06,5.79,0,10.42s13.59,7.53,11.18,2.32Z" style="stroke-width:0px;fill:#171817"/><path d="m381.72,292.23s-1.81-13.73-6.96-16.03-14.44,0-14.44,0h-7.73l5.62,3.09s2.62,24.85,23.5,12.94Z" style="stroke-width:0px;fill:#171817"/><circle cx="369.46" cy="283.01" r="2.31" style="stroke-width:0px;fill:#fff"/><path d="m392.66,250.2c-1.02,6.96-5.13,12.93-13.36,3.09,0,0-13.49-37.4-67-44.48-53.51-7.08-94.59-59.33-101.61-96.08-6.62-34.64-9.9-69.88,1.11-90.54,5.63-7.58,9.43-10.89,7.83-6.96-4.11,9.99-.53,8.14,6.19,5.57,5.01-1.95,16.36-9.28,21.75-12.84,3.84-.37,5.17,1.42-1.73,8.69-6.99,7.36-15.84,10.24-21.59,13.77-1.21.28-2.23.68-3.06,1.21-10.3,6.68-9.81,27.31-9.28,55.68.53,28.33,6.71,40.99,34.55,75.01,27.84,34.03,59.27,37.37,59.27,37.37,0,0-1.27-4.39-4.21-6.99,0,0-10.83-20.63-11.91-38.7-1.08-18.06-1.24-31.58,2.35-34.18,2.88-2.07,10.76-8.69,11.54-4.92-2.01,3.19-8.01,12.96-8.85,18.28-1.02,6.43,4.64,6.96,8.51,5.66,3.87-1.27,14.45-17.01,15.47-20.11,1.02-3.09,2.32-7.21,3.87-4.11s3.09-.77,5.17-2.07c2.04-1.27,5.91-.49,3.59,2.07-2.32,2.57-2.57,3.87,6.19,3.87s13.67,1.55,13.67,1.55c0,0,.46-.19,1.3-.49,1.27,2.57-.06,5.63-6.03,7.11-11.35,2.85-30.81,15.1-35.67,25.4-2.75,5.85-4.83,6.93-5.57,8.75h-.03s-3.74,2.01-4.79,8.48c-1.02,6.43,13.67,30.93,13.67,30.93,0,0,17.54,4.64,38.6,13.92,17.26,7.61,34.43,28.67,40.09,36.07Z" style="stroke-width:0px;fill:#232524"/></g></g></svg>