<?xml version="1.0" encoding="UTF-8"?><svg data-name="Layer 2" xmlns="http://www.w3.org/2000/svg" viewBox="0 0 133.95 42.61"><defs/><g data-name="100"><g><path d="m37.33,35.97c-1.42,0-2.86-.03-4.31-.07,0,0-11.54-.52-15.63,0-4.09.52-12.96,2.65-16.69,1.58-.05-.02-.1-.03-.14-.04-.2-.07-.34-.15-.44-.25-.11-.11-.15-.24-.11-.38.62-.14,1.28-.29,1.99-.45,5.84-1.33,14.41-3.3,19.63-4.63,0,0,6.92.09,11.45,1.89.83.33,1.57.69,2.23,1.06.76.43,1.42.87,2.02,1.28Z" style="stroke-width:0px;fill:#dcdbdb"/><path d="m93.4,28.6s-21.67,6.85-51.71,7.34c-.12-.15-.26-.31-.41-.46-.05-.05-.1-.1-.15-.15-.17-.17-.36-.34-.57-.5-.03-.03-.07-.05-.1-.08-.03-.02-.06-.05-.09-.07-.27-.21-.56-.4-.87-.57-.11-.07-.23-.13-.35-.19-.04-.02-.08-.04-.12-.06-.11-.06-.23-.11-.34-.16-.05-.02-.1-.05-.15-.07-3.08-1.28-10.35-1.94-14.59-2.5.27-.07.51-.14.74-.21,6.22-1.78,22.37-5.15,26.46-5.15s13.67,1.95,21.84.71c5.59-.85,10.52.31,14.84,1.24,1.99.42,3.85.79,5.58.89Z" style="stroke-width:0px;fill:#dcdbdb"/><path d="m127.2,28.83s2.39,2.78,2.39,3.94,1.12,2.58,1.19,2.66c-.09-.03-.17-.07-.25-.1-6.25-2.46-10.89-5.99-13.14-7.91-4.56-.14-6.63-.84-8.17.02-1.77.99-6.53,2.05-15.68,1.18-.04,0-.08,0-.12-.01,0,0-21.67,6.85-51.71,7.34-1.24.02-2.49.03-3.75.03-.21,0-.41,0-.62,0-1.42,0-2.86-.03-4.31-.07,0,0-11.54-.52-15.63,0-4.09.52-12.96,2.65-16.69,1.58-.05-.02-.1-.03-.14-.04,3.64-.76,12.67-2.56,17.6-2.69,4.21-.11,11.81-.11,17.15-.07,2.26.02,4.11.04,5.14.06h0c.17,0,.32,0,.44.01,2.61.07,39.19-4.43,43.22-6.09,1.39-.57,2.55-.85,3.71-.96,2.2-.21,4.4.17,8.13.24,5.68.12,9.86-.1,11.56-.31,1.7-.21,2.53-1.82,3.71-1.88.42-.02,2.48.19,4.98.46,1.06.12,2.21.25,3.34.38,3.74.44,7.31.88,7.31.88,0,0,1.75.58,3.95,1.53,0,0-.02,0-.03,0-1.46.4-3.58-.2-3.58-.2Z" style="stroke-width:0px;fill:#515251;opacity:.32"/><path d="m120.78,25.68c0,.06-.07.09-.21.09-.07,0-.16,0-.28-.02h-.02s-.1-.01-.15-.02c-.19-.02-.42-.05-.67-.09-.11-.02-.23-.03-.35-.05-.43-.06-.89-.12-1.34-.17-.08-.01-.15-.02-.22-.02-1.1-.11-1.98-.1-1.68.38.1.16.21.32.33.46.56.72,1.18,1.2,1.18,1.2-4.56-.14-6.63-.84-8.17.02-1.77.99-6.53,2.05-15.68,1.18-.04,0-.08,0-.12-.01-1.73-.1-3.6-.47-5.58-.89-4.32-.93-9.25-2.09-14.84-1.24-8.17,1.24-17.76-.71-21.84-.71s-20.25,3.37-26.46,5.15c0,0-5.92.47-8.64-.06-.37-.07-.69-.15-.96-.22-.3-.09-.55-.17-.74-.27-.03-.02-.06-.03-.09-.05-.06-.03-.11-.06-.15-.09-.02-.02-.04-.03-.06-.05-.02-.02-.03-.03-.05-.05-.37-.38.14-.82,1.46-1.32.03-.01.07-.02.1-.04.29-.12.62-.27.98-.47.09-.04.18-.09.28-.15.09-.05.19-.1.29-.16.1-.05.2-.11.3-.17.17-.1.34-.2.52-.31.14-.09.28-.18.42-.27.11-.07.22-.14.33-.21.19-.12.38-.25.57-.37.14-.09.28-.19.42-.28.11-.08.22-.15.34-.23.33-.23.67-.46,1-.69.31-.22.62-.43.91-.65.02-.01.03-.02.05-.03.2-.14.39-.28.57-.41.9-.66,1.67-1.24,2.17-1.63.3-.23.74-.61,1.32-1.07.16-.13.33-.26.51-.4.54-.41,1.19-.88,1.93-1.36.17-.11.34-.21.52-.33.09-.05.18-.11.27-.16.19-.11.38-.22.57-.33,1.22-.69,2.65-1.38,4.3-1.99,0,0,.01,0,.02,0s0,0,0,0c.02,0,.04-.02.07-.02.2-.07.41-.15.62-.22.06-.02.12-.03.18-.06.19-.06.39-.13.6-.19.22-.07.44-.13.66-.2.04-.01.09-.02.13-.03.25-.07.5-.14.76-.2.01,0,.02,0,.03,0,.27-.07.55-.14.83-.2.02,0,.03,0,.05-.01.26-.05.53-.11.8-.17.21-.04.42-.08.63-.11.16-.03.33-.06.5-.08.01,0,.02,0,.03,0,.2-.03.4-.06.61-.09.01,0,.03,0,.04,0,.37-.05.74-.09,1.13-.13.19-.02.38-.04.57-.05h0c.58-.05,1.18-.09,1.79-.1.03,0,.06,0,.09,0,.7-.02,1.43-.02,2.18,0,13.18.36,29.4,1.18,39.46,1.07.36,0,.7-.01,1.03-.02.15,0,.29,0,.43-.02.11,0,.23,0,.34-.01.14,0,.28-.01.42-.02.19,0,.38-.02.57-.03.14,0,.28-.02.42-.03.17-.01.33-.02.49-.03.04,0,.09,0,.13-.01.08,0,.15-.01.23-.02.07,0,.15-.01.22-.02.14-.02.28-.03.41-.04.14-.01.27-.03.4-.04.08,0,.17-.02.25-.03.26-.03.51-.06.75-.1.15-.02.29-.04.43-.06.09-.01.18-.03.26-.04.11-.02.22-.03.33-.05.11-.02.22-.03.33-.05.59-.1,1.12-.21,1.63-.31.06-.02.13-.03.19-.04h0c.31-.07.6-.13.9-.19.06-.01.12-.02.17-.03.12-.02.24-.05.35-.07.13-.03.26-.05.39-.08.13-.03.26-.05.39-.07.26-.05.53-.09.79-.13h.02c.09-.01.17-.02.26-.03.07,0,.14-.02.21-.02.1-.01.21-.02.31-.03.09,0,.17-.02.26-.02.16-.01.33-.02.5-.03.12,0,.25-.01.38-.02,0,0,11.69,3.07,15.51,6.63,1.19,1.11,2.21,1.98,3.02,2.65.01,0,.02.01.03.02.07.05.13.11.2.16h0c.69.57,1.21.98,1.53,1.26.04.03.07.06.1.09,0,0,0,0,0,0,.08.07.14.13.19.19.04.05.07.09.08.12,0,.01,0,.02,0,.03Z" style="fill:#c8c8c8;stroke-width:0px"/><path d="m107.48,15.43c-1.37-.31-2.77-.58-4.12-.74-1.05-.13-1.96-.18-2.77-.18-.17,0-.34,0-.5,0-.12,0-.25,0-.38.02-.17,0-.33.02-.5.03-.09,0-.18.02-.26.02-.11,0-.21.02-.31.03-.07,0-.14.02-.21.02-.09.01-.17.02-.26.03h-.02c-.27.03-.53.08-.79.13-.13.02-.26.05-.39.07-.13.02-.26.05-.39.08-.12.02-.23.05-.35.07-.06.01-.12.02-.17.03-.29.06-.59.12-.9.19h0c-.07.01-.13.03-.19.04-.51.1-1.04.21-1.63.31-.1.02-.21.03-.33.05-.1.02-.21.03-.33.05-.09.01-.17.03-.26.04-.14.02-.28.04-.43.06-.24.03-.49.07-.75.1-.08.01-.17.02-.25.03-.13.02-.26.03-.4.04-.14.02-.27.03-.41.04-.07,0-.15.01-.22.02-.07,0-.15.01-.23.02-.04,0-.09,0-.13.01-.16.01-.33.02-.49.03-.14,0-.28.02-.42.03-.19.01-.38.02-.57.03-.14,0-.27.01-.42.02-.11,0-.23,0-.34.01-.14,0-.28.01-.43.02-.33,0-.68.02-1.03.02-10.06.12-26.28-.71-39.46-1.07-.75-.02-1.48-.02-2.18,0-.03,0-.06,0-.09,0-.61.02-1.21.05-1.79.1h0c-.19.02-.38.03-.57.05-.38.04-.76.08-1.13.13-.01,0-.03,0-.04,0-.21.03-.41.05-.61.09-.01,0-.02,0-.03,0-.17.02-.33.05-.5.08-.21.03-.43.07-.63.11-.27.05-.54.11-.8.17-.02,0-.03,0-.05.01-.28.06-.56.13-.83.2-.01,0-.02,0-.03,0-.26.07-.51.13-.76.2-.04.01-.09.02-.13.03-.22.07-.45.13-.66.2-.2.06-.4.13-.6.19-.06.02-.12.04-.18.06-.21.07-.42.15-.62.22-.02,0-.04.02-.07.02t0,0s-.01,0-.02,0c-1.65.61-3.08,1.3-4.3,1.99-.2.11-.39.22-.57.33-.09.05-.18.11-.27.16-.18.11-.35.22-.52.33-.74.48-1.39.94-1.93,1.36-.18.14-.35.27-.51.4-.58.46-1.02.84-1.32,1.07-.5.39-1.27.98-2.17,1.63-.19.14-.38.27-.57.41-.02.01-.03.02-.05.03-.29.21-.6.43-.91.65-.33.23-.66.46-1,.69-.11.08-.22.15-.34.23-.14.09-.28.19-.42.28-.19.12-.38.25-.57.37-.11.07-.22.14-.33.21-.14.09-.28.18-.42.27-.18.1-.35.21-.52.31-.1.06-.2.12-.3.17-.1.05-.19.11-.29.16-.09.05-.19.1-.28.15-.36.19-.69.35-.98.47-.03.02-.07.03-.1.04-1.32.5-1.83.94-1.46,1.32.02.02.03.03.05.05.02.02.04.03.06.05.04.03.09.06.15.09.03.02.06.03.09.05.19.09.43.18.74.27.27.08.6.15.96.22,2.72.53,8.64.06,8.64.06-.22.07-.47.13-.74.21,4.23.56,11.51,1.22,14.59,2.5.05.02.1.04.15.07.12.05.23.1.34.16.04.02.09.04.12.06.12.06.24.12.35.19.31.18.6.37.87.57.03.02.06.05.09.07h0s.07.05.1.08c.21.16.39.33.57.5.05.05.1.1.15.15.15.15.29.31.41.46-1.24.02-2.49.03-3.75.03-.21,0-.41,0-.62,0-.6-.41-1.26-.85-2.02-1.28-.66-.37-1.4-.74-2.23-1.06-4.53-1.8-11.45-1.89-11.45-1.89-5.23,1.33-13.79,3.3-19.63,4.63-.7.16-1.37.31-1.99.45.36-1.62,9.45-4.91,10.81-5.36,1.6-.53,1.25-6.75,5.68-10.65,4.44-3.91,17.22-6.1,25.75-8.73,2.48-.77,5.42-1.49,8.76-2.08,4.09-.72,8.78-1.22,13.98-1.34,5.1-.12,10.7.15,16.69.96,11.16,1.51,19.67,3.41,25.8,5.83Z" style="stroke-width:0px;fill:#797979"/><path d="m133.95,28.76s-1.7-.14-3.15.26c0,0-.02,0-.03,0-1.46.4-3.58-.2-3.58-.2,0,0,2.39,2.78,2.39,3.94s1.12,2.58,1.19,2.66c-.09-.03-.17-.07-.25-.1-6.25-2.46-10.89-5.99-13.14-7.91,0,0-.62-.47-1.18-1.2-.12-.14-.22-.3-.33-.46-.3-.47.58-.49,1.68-.38.07,0,.15.02.22.02.45.05.91.12,1.34.17.12.02.24.03.35.05.25.03.48.07.67.09.05,0,.1,0,.15.02h.02c.11.01.21.02.28.02.14,0,.21-.03.21-.09,0-.01,0-.02,0-.03-.01-.03-.04-.07-.08-.12-.05-.05-.11-.11-.19-.19,0,0,0,0,0,0-.03-.03-.06-.06-.1-.09-.32-.28-.84-.69-1.53-1.25h0c-.07-.06-.13-.12-.2-.17,0-.01-.02-.02-.03-.02-.81-.67-1.83-1.54-3.02-2.65-3.82-3.55-15.51-6.63-15.51-6.63.16,0,.33,0,.5,0,.82,0,1.72.05,2.77.18,1.34.16,2.75.43,4.12.74,3.23,1.27,5.8,2.7,7.76,4.29,1.81,1.47,3.54,2.77,4.87,3.87,5.74.83,13.84,5.16,13.84,5.16Z" style="stroke-width:0px;fill:#797979"/><path d="m133.95,28.76s-1.7-.14-3.15.26c0,0-.02,0-.03,0-1.46.4-3.58-.2-3.58-.2,0,0,2.39,2.78,2.39,3.94s1.12,2.58,1.19,2.66c-.09-.03-.17-.07-.25-.1-4.34-2.92-10.91-8.05-10.98-8.73,0-.05.02-.07.09-.07.74,0,.94-.25.67-.79-.21-.41-.7-.99-1.44-1.76h0c-.05-.06-.11-.11-.2-.17,0-.01-.02-.02-.03-.02-1.87-1.37-11.57-5.51-23.47-8.54h0c-7.6-1.93-16.11-3.4-24.06-3.4-11.73,0-22.12,1.72-30.44,3.61-.01,0-.03,0-.04,0-2.33.53-4.5,1.07-6.49,1.6t0,0s-.01,0-.02,0c-3.66.96-6.71,1.86-9.07,2.47-6.75,1.76-8.88,6.86-9.5,9.21-.13.52-.19.9-.21,1.08-.02.22-.11.49-.26.78-.57,1.1-2.08,2.54-5.07,2.99-2.06.31-5.39,1.62-8,2.74-.69.3-1.32.58-1.87.83-.11-.11-.15-.24-.11-.38.36-1.62,9.45-4.91,10.81-5.36,1.6-.53,1.25-6.75,5.68-10.65,4.44-3.91,17.22-6.1,25.75-8.73,2.48-.77,5.42-1.49,8.76-2.08,0,0,0,0,0,0,0,0,2.54-1.09,4.52-3.57C57.53,3.92,61.62.19,63.21.01c1.6-.18-.71,1.22,1.78,8.6,0,0,0,.02,0,.03,5.1-.12,10.7.15,16.69.96,11.16,1.51,19.67,3.41,25.8,5.83,3.23,1.27,5.8,2.7,7.76,4.29,1.81,1.47,3.54,2.77,4.87,3.87,5.74.83,13.84,5.16,13.84,5.16Z" style="stroke-width:0px;fill:#fff;opacity:.12"/><path d="m65,8.65c-5.2.12-9.89.62-13.98,1.34,0,0,0,0,0,0,0,0,2.54-1.09,4.52-3.57C57.53,3.92,61.62.19,63.21.01c1.6-.18-.71,1.22,1.78,8.6,0,0,0,.02,0,.03Z" style="stroke-width:0px;fill:#515251"/><path d="m36.99,34.16s2.14,5.99,9.71,7.77c7.57,1.78,10.12-.47,8.85-.59-1.28-.12-5.46-2.92-7.21-5.61-1.76-2.68-11.68-2.31-11.35-1.57Z" style="stroke-width:0px;fill:#797979"/><path d="m39.36,35.43s3.46,5.43,9.83,5.67c6.37.24,4.14,0,1.18-2.13-2.96-2.13-3.79-4.16-6.04-4.21-2.25-.05-6.65-1.3-4.97.68Z" style="stroke-width:0px;fill:#fff;opacity:.12"/><path d="m20.49,30.44c0,1.21.98,2.2,2.2,2.2s2.2-.98,2.2-2.2-.98-2.2-2.2-2.2-2.2.98-2.2,2.2Z" style="stroke-width:0px;fill:#f1f2f2"/><path d="m20.52,30.44c0,.94.76,1.7,1.7,1.7s1.7-.76,1.7-1.7-.76-1.7-1.7-1.7-1.7.76-1.7,1.7Z" style="stroke-width:0px;fill:#231f20"/><path d="m23.41,29c0-.2-.16-.36-.36-.36s-.36.16-.36.36.16.36.36.36.36-.16.36-.36Z" style="stroke-width:0px;fill:#fff"/><path d="m15.49,23.32s.76-1.99,2.58-3c1.82-1.01.49.3,0,.55-1.1.55-2.75,3.87-2.58,2.45Z" style="stroke-width:0px;fill:#f1f2f2"/><path d="m20.26,19.2s-.92.43-.41.54c.52.1,1.24-.74.41-.54Z" style="stroke-width:0px;fill:#f1f2f2"/></g></g></svg>