<?xml version="1.0" encoding="UTF-8"?><svg data-name="Layer 2" xmlns="http://www.w3.org/2000/svg" viewBox="0 0 243.92 124.46"><defs/><g data-name="100"><g><path d="m207.01,111.98s1.36,2.82,5.39,3c4.03.18,8.83,1.41,9.4,3.17.58,1.76-2.89,0-7.39,0s-4.88,2.11-12.37,1.59c-7.48-.53-8.06-4.76-7.48-7.75.58-3,8.03-4.05,12.45,0Z" style="stroke-width:0px;fill:#26282b"/><path d="m119.73,110.04s-3.84,6.52,0,8.28c3.84,1.76,17.46,1.23,23.02,1.49,5.56.27,8.44-.91,7.87-3.23s-8.71-2.45-14.39-4.96c-5.67-2.51-5.56-8.46-8.25-8.46s-7.48,1.59-8.25,6.87Z" style="stroke-width:0px;fill:#26282b"/><path d="m180.64,71.68c-.03.67.28,1.24.91,1.7.56,1.08.82,2.21.78,3.39,0,.78-.18,1.24.2,1.93.77,1.44,3.28,2.94,4.6,3.88,1.21.87,1.55.93,2.18-.33,1.75-.01,1.76,2.22,3.04,2.06,1.23-.16,1.3-2.92,3.07-2.05.02.32.05.63.07.95.66-.04,1.3-.21,1.95-.4-.01-.97.37-1.83.97-3.11-.12.43-.01.78.39.91.23-.6.38-1.33.84-1.81-.92-.87-1.29.17-2.22.64-.41-.26-.5-.71-.94-.95-.73.2-1.52,2.3-2.64,1.75-.17-.81.37-1.92-.62-2.17-1-.25-1.91.88-2.84.73-.16-.77.28-1.15-.6-1.4-1.02-.3-.81.15-1.01-1.01-.45-.02-1.15.23-1.69.49.13-.13.21-.27.2-.45-.85-.24-1.81.03-2.68-.05-.13-.78.7-2.03,1.02-2.64.51-.95,1.63-2.25,1.92-3.27.32-1.12-.4-.68-1.3-.79.43-.96.92-1.93,1.43-2.85.25-.44,1.25-1.56,1.12-2.03-1.62-.42-.56-3.01,0-3.83.32-.45,1.13-.79,1.37-1.17.2-.3.22-.68.43-1.03.35-.58,1.29-.78,1.59-1.35.39-.77-.15-.55-.51-1.21-.84-1.5,2.83-2.18,3.72-3.14-.15-.41-.82-.47-1.17-.71.13-.73,1.54-1.44,1.5-2.1-.05-.55-.46-.36-.7-.72-.58-.86,2.05-2.83-.02-3.17-.31-1.22,2.27-2.11,1.89-3.48-.89-.15-1.14.27-1.09-.58.07-1.12,2.45-1.93,1.65-2.91-.12-.15-.39-.01-.54-.21-.17-.24.15-.89.26-1.15.35-.75,1.04-1.1,1.51-1.77-.29-.2-.32-.41-.2-.61-.09.08-.2.16-.33.24-1.27.75-2.8,1.24-4.13,1.91.26.95.53,1.32-.14,2.12.7,2.15-.1,5.32-.29,7.2-.22,2.3-.46,7.28-3.81,7.6-.37.03-.79-.23-1.16-.05-.97.45-.49,3.16-.53,3.81-.09,1.95-.62,1.14-2.23,1.55-.54,2.25-1.16,4.03-1.2,6.29-.02,1-.02,1.35-.75,2.03-.69.63-.78-.15-.76.89.01.67.62.84.24,1.54-.43.8-1.83.74-2.71.87Z" style="stroke-width:0px;fill:#151618"/><path d="m104.04,33.86c.31,1.56,1.13,3.08,1.55,4.62.39,1.38.53,2.86.99,4.23.21.63.54,1.63,1.15,2.07.32.23,1.08.21,1.34.44,1,.95.76,3.84.64,5.04.13-.2.32-.29.61-.24.4.33.59.72.58,1.21.31-.24.64-.36,1.06-.35.13,1.75-.14,3.52.31,5.22,1.49-1.96,1.52,1.71,1.59,2.32h1.45c.39,1.05-.33,2.04-.36,3.09.64-.4,1.51-1.25,2.35-.88.68,1.71.58,3.48,1.15,5.13.66.22,1.36.07,2.06.03.22.37.41.71.6.99-.32,1.08-1.09,2.07-.91,3.22,1.29.6-2.42,5.59-2.97,7.18-.66,1.9-.45,3.59-.53,5.52-.06,1.38-1.32,2.9-1.13,4.19,1.77-.41.23,3.06-.07,3.82-.66,1.69-1.63,3.36-1.07,5.24.38-.15.71-.08,1,.19-.06,5.1-1.28,10.58-.45,15.71,1.1.13,1.95-.35,2.87.44.52.45.45,1.16,1.07,1.53.4.05.79.12,1.2.21.17.15.36.3.54.44,1.4.38,2.37-.59,3.88-.92.23.22.32.49.28.8.91.39,1.75-.59,2.76-.44,1.47.22,2.39,1.93,4.02,1.79.2-2.43-.22-4.7.7-7.04.37-.53.73-1.07,1.07-1.62.25-.54.48-1.1.68-1.66.73-.63,1.55-.17,2.1-1,.7-1.1-.31-2.32.61-3.29.94-.99,1.67-.94,1.82-2.47-.03-.7-.06-1.4-.08-2.09-.01-.35.15-.58.48-.7.2-.82-.07-1.68.21-2.51.44.01.81.18,1.11.5,1.22-.33.33-2.16.52-3,.15-.64.41-.81.63-1.46.48-1.42-.67-3.4.08-4.8.22-.4.55-.43.82-.76,1.35-1.6.63-3.85.92-5.74.29-.01.44-.15.43-.42.21-.59.18-1.19-.09-1.83-.14-1.04-.85-3.04-.38-4.18.35,0,.68-.01,1.01-.03.29-1.58-1.75-3-1.02-4.7.62-.07,1.16.31,1.51-.31-.17-.38-.36-.74-.54-1.09h-.01c-.94-.16-1.28-1.53-2.35-1.1-1.35.53-.06,3.46-1.2,3.9-1.02.41-1.09-1.61-2.03-1.42-.3.93,0,2.12-1.37.91-.99-.89-1.69-1.7-3.05-1.07-.44.21-.44.42-.99.53-.29.05-1.24.05-1.57-.08-1.63-.63.12-1.26-.01-2.01-1.47-.63-3.17,1.35-3.75-.72-.09-.32.15-1.8-.1-2.04-.41-.39-1.3-.01-1.84-.16-.2-.51.28-1.32-.39-1.68-.31-.17-.91-.04-1.27-.03-.69.02-1.34.21-1.75-.36-.54-.73-.32-2.02-.5-2.84-.2-.94-.38-1.25-1.42-1.41-.68-.1-.91.17-1.22-.5-.25-.53.4-1.79-.08-2.19-.36-.31-.98-.07-1.43-.08-.28-.7.07-1.86.12-2.6.03-.56.36-2.53-.23-2.94-.26.27-.66.34-1.02.22-.25-.82.43-2.47-.41-3.09-.41-.32-1.04-.14-1.29.25-.44-.04-.26-1.16-.33-1.48-.25-1.15-.54-.73-1.02-1.41-.17-.22-.32-1.15-.36-1.31-.17-.88.24-3.09-.35-3.84-.46-.59-.76-.11-1.32-.44-.62-.38-.36-1.27-.35-1.84.01-.55.3-2.38-.21-2.69-.32-.2-.84.04-1.27-.02-.25-.71.15-1.48-.08-2.21-.24-.75-1.02-1.15-1.46-1.8-.87-1.32-.24-2.94-.5-4.43-.38-2.18-1.31-3.6.09-5.67.09-.13.18-.25.3-.38-3.11.92-3.81,4.09-3.42,9.56-.03.07-.06.13-.08.2-.56,1.77-1,4.76-.62,6.61Z" style="stroke-width:0px"/><path d="m174.19,80.04c.05,1.45.39,1.79,1.16,3.26,1.05,2.02.91,4.03,1.68,6.04.17.44.44.72.74.97.41,1.07.89,2.16,1.4,3.27.03.36.08.71.17.99.69,2.18,1.39,4.41,2.38,6.49.74,1.58,1.6,2.99,2.84,4.27.55.21.93.57,1.15,1.1.38.86.77,1.71,1.15,2.58.64.72.99.34,1.73.81,1.01.66.93,2.46,1.74,3.38.47.15.82.42,1.02.85-.14.49-.03.87.33,1.15.43-.41.94-.66,1.55-.71.23.25.46.52.67.79.28-.17.58-.25.9-.25.02.42.13,1.27.64,1.47.62.24.9-.41,1.44-.38.86.04,1.47.91,2.03,1.46.85-.07,1-.87,1.75-1.08.17-.05.48-.07.82-.07.58.1,1.12.14,1.62.15,1.52.3,2.79.76,4.48.45-.09-1.1-.91-1.91-.54-3.1.74-.13,1.39.08,2.12-.04-.89-1.62-1.04-2.8-1-4.52.02-1.11.21-1.75-.3-2.84-.89-1.91-2.48-3.49-3.28-5.43,1.3-1.07-2.5-3.83-3.23-4.63.35.01.69.01,1.04,0-.13-1.64-2.14-2.54-2.22-4.19,1.23-.31-.87-2.75-1.17-3.35-.7-1.4-.64-2.83-1.19-4.27-.26-.71-.38-1.29-.38-1.83-.64.19-1.29.36-1.95.4-.02-.32-.05-.63-.07-.95-1.77-.87-1.84,1.89-3.07,2.05-1.28.16-1.29-2.07-3.04-2.06-.62,1.26-.97,1.19-2.18.33-1.32-.94-3.83-2.44-4.6-3.88-.38-.7-.2-1.15-.2-1.93.03-1.18-.22-2.32-.78-3.39-.63-.47-.94-1.04-.91-1.7.87-.13,2.28-.06,2.71-.87.38-.71-.23-.88-.24-1.54-.02-1.04.07-.25.76-.89.73-.68.73-1.03.75-2.03.03-2.26.66-4.04,1.2-6.29,1.61-.41,2.14.39,2.23-1.55.03-.64-.44-3.35.53-3.81.37-.18.79.08,1.16.05,3.35-.32,3.59-5.3,3.81-7.6.18-1.88.99-5.05.29-7.2-.03.04-.08.08-.13.14-.4.42-1.15.56-1.54.96-.92.93-1.32,2.46-.2,3.27-1.53,1.53-3.05,2.23-3.78,4.14-.26.7-2.33,2.67-.79,3.16-.12.53-.39.98-.84,1.36-.09.32-.09.63,0,.94-.87,1.63-2.82,2.73-4.35,4.07.1.22.26.41.47.57-.62.95-1.63,1.88-2,2.94-.18.56.02.93-.1,1.42-.39,1.53-2.16,1.96-2.95,3.39.52.12,1.14.03,1.67.01-.83,1.08-1.85,2.01-2.61,3.12.89.94-.24,1.58-.73,2.38-.64,1.05-1.38,2.64-1.65,3.83-.3,1.34-.16,3-.12,4.39Z" style="stroke-width:0px"/><path d="m184.57,76.4c.87.08,1.83-.19,2.68.05.01.18-.07.33-.2.45.54-.25,1.24-.51,1.69-.49.21,1.16-.01.72,1.01,1.01.87.24.44.62.6,1.4.93.15,1.84-.98,2.84-.73.99.24.45,1.35.62,2.17,1.12.55,1.91-1.55,2.64-1.75.45.24.53.69.94.95.93-.48,1.3-1.51,2.22-.64.1-.12.22-.21.36-.29.08.31.26.43.55.4.1-.31.31-.42.61-.35.13.23.16.48.1.72.2-1.26.59-2.17,1.14-3.16.97-1.77,1.44-3.76,2.49-5.51,1.24.41,1.21-3.23,1.69-4.1.43-.75.94-1.18,1.27-2.03.28-.73.18-1.62.76-2.21,1.01.34,1.42-3.68,2.01-4.37.16.15.7.32.86.5.93-1.8.43-3.44.69-5.29.13-.86.59-1.47.64-2.39.05-.78-.21-1.54.06-2.3.36.01.69-.07.99-.25.15-1.24-.49-2.73-.51-4.05.2-2.63.37-3.94-1.51-6.14-2.07-2.4-4.13-5.44-7.74-5.51-.31,0-.62.01-.92.04-.24.16-.47.34-.67.54-.41.4-.62.71-1.19,1.06-.25.16-1.9.67-2.62,1.24-.07.11-.15.21-.28.31-.13.2-.09.41.2.61-.47.67-1.16,1.01-1.51,1.77-.11.26-.44.91-.26,1.15.15.2.43.06.54.21.81.97-1.58,1.79-1.65,2.91-.05.86.21.43,1.09.58.38,1.36-2.2,2.26-1.89,3.48,2.07.34-.55,2.32.02,3.17.24.36.66.17.7.72.05.67-1.37,1.37-1.5,2.1.36.24,1.02.3,1.17.71-.89.96-4.56,1.64-3.72,3.14.36.66.9.43.51,1.21-.3.57-1.24.77-1.59,1.35-.21.35-.23.73-.43,1.03-.24.38-1.05.72-1.37,1.17-.56.81-1.62,3.4,0,3.83.14.47-.86,1.59-1.12,2.03-.51.92-1,1.89-1.43,2.85.9.12,1.62-.33,1.3.79-.29,1.01-1.42,2.32-1.92,3.27-.32.61-1.15,1.86-1.02,2.64Z" style="stroke-width:0px"/><path d="m107.77,23.54c.25,1.49-.38,3.11.5,4.43.44.64,1.22,1.05,1.46,1.8.23.73-.17,1.5.08,2.21.43.06.94-.18,1.27.02.51.31.22,2.14.21,2.69-.01.57-.28,1.46.35,1.84.56.34.86-.15,1.32.44.59.75.17,2.96.35,3.84.03.16.18,1.09.36,1.31.48.68.77.25,1.02,1.41.07.32-.1,1.44.33,1.48.25-.39.87-.57,1.29-.25.84.61.16,2.26.41,3.09.37.12.76.05,1.02-.22.59.41.26,2.38.23,2.94-.05.74-.39,1.9-.12,2.6.45.01,1.07-.22,1.43.08.48.4-.17,1.66.08,2.19.31.67.54.4,1.22.5,1.04.16,1.22.47,1.42,1.41.17.82-.05,2.11.5,2.84.41.57,1.06.38,1.75.36.36-.01.96-.14,1.27.03.67.36.2,1.17.39,1.68.54.15,1.43-.23,1.84.16.25.24.01,1.72.1,2.04.59,2.07,2.28.08,3.75.72.13.75-1.62,1.37.01,2.01.32.14,1.28.14,1.57.08.55-.11.55-.32.99-.53,1.36-.63,2.06.18,3.05,1.07,1.37,1.22,1.07.02,1.37-.91.93-.19,1,1.83,2.03,1.42,1.14-.44-.15-3.37,1.2-3.9,1.07-.43,1.4.94,2.35,1.1-.4-.76-.81-1.48-1.02-2.32-.22-.86-.45-1.83-.81-2.62-.14-.34-2.42-2.85-2.2-3.29.36-.71,1.04-.33,1.72-.57-.75-1.49-2.01-2.75-2.2-4.4-.07-.66.25-1.45.03-2.08-.38-1.13-3.1-1.55-3.02-2.95.06-1.09,1.57-.98,2.43-1.11.1-1.32-2.16-1.34-2.28-2.58.61-.6,1.63-.49,1.7-1.43-2.12-.8-3.47-2.19-.61-2.89-.39-1.11-2.89-1.32-3.38-2.56-.16-.41.14-.86-.06-1.25-.16-.32-.47-.35-.74-.61-1.16-1.19-3.83-3.85-.68-3.97-1.14-.91-2.8-2.44-3.61-3.64-.51-.74-1.46-2.29-1.27-3.18l-1.73-5.29c-.9.99-1.7,2.03-2.43,3.13-.12-.56-1.54-.93-2.14-1.22-.55-.26-1.09-.44-1.62-.56-1.44-1.1-2.44-1.53-2.44-1.53-4.51-1.34-7.6-1.7-9.65-1.1-.12.13-.21.25-.3.38-1.4,2.06-.47,3.49-.09,5.67Z" style="stroke-width:0px;fill:#151618"/><path d="m3.04,96.28c-.02-.9.01-1.9.51-2.68.14-.23.51-.45.62-.7.38-.9-.25-2.04.09-2.91.23-.61.55-.9.73-1.62.23-.96.83-1.57,1.2-2.45.37-.9-.02-2.24.4-3.03.3-.53.35-.29.79-.4.98-.25.62.33,1.32-.53.61-.75.52-1.9.86-2.77,0-.37.14-.67.41-.9.14,0,.26,0,.39.01.41-.31,0,.23.48-.44.44-.61.38-1.62.75-2.28.35-.61.76-1.11,1.01-1.74.29-.69.55-1.4.91-2.08.46-.86,1.09-1.57,1.74-2.3.76-.86,1.24-1.83,1.99-2.68.43-.5.96-1.07,1.47-1.48.58-.45.53-.23,1.05-.44.39-.16.53-.07.96-.36.3-.21.4-.58.76-.74.5-.22,1.05.13,1.52,0,1.34-.33,1.58-1.89,2.14-2.94.68-1.28,2.15-1.93,3.26-2.88,2.12-1.82,4.64-3.07,6.78-4.87,1.88-1.58,3.89-3.03,5.81-4.55,1.15-.91,2.18-2.04,3.43-2.8,1.08-.67,2.29-1.09,3.41-1.68.96-.52,1.95-.85,2.92-1.31.89-.41,1.63-.92,2.59-1.21.89-.26,1.53-.47,2.31-1.02.64-.46,1.19-1.04,1.91-1.39.76-.38,1.66-.47,2.33-1.02.46-.38,3.44-4.36,3.84-2.79,1.43.03,1.68-2.44,2.68-2.98.7-.38.78.26,1.19.26.71-.02,2.24-3.65,3.07-1.9,1-.05,1.08-2.13,1.85-2.58.66-.38.6.06,1.05.3.01.33.18.47.5.43.68-.51,1.21-1.15,1.62-1.9.59-.76.9-1.15,1.82-1.24.44-.03.89.12,1.31.02.96-.22,1.88-1.34,2.53-1.95.35-.32,1.24-1.52,1.95-1.09.62.38.23,1.23.36,1.81,1.05-.58,2.12-1.24,3.07-1.95.43-.31.9-.78,1.4-.97.09-.15.16-.3.26-.45.98-1.24,2.66-2.35,4.06-3.1.73-.39,1.61-.39,2.31-.79.93-.53,1.34-1.66,2.27-2.26.9-.58,2.34-2.22,3.44-2.2,1.61.05.56,3.04.81,4.01.83-.31,1.91-.58,2.62.07.09.36.25.69.51.98.38.48.75.97,1.12,1.47.38.59.51,1.23.83,1.83.23.41.62,1.34.96,1.65.46.43.77.06,1.28.23.49.16.39.41.69.86.63.94,1.9,1.86,3.09,1.9.58.02.89-.4,1.38-.43.86-.05.77.44,1.3,1.04.28.56.73.94,1.35,1.13.7.17,1.42.21,2.13.09.83.21.81.93,1.08,1.61.4.96.48.77,1.54.73.82-.03.99-.05,1.66.43.77.55,1.32,1.38,2.31,1.55,1.1.18.94-.45,2.24.51,2.35,1.7,3.28,4.78,5.64,6.48,1.07-.25,1.11-2.23,2.08-2.14,1.14.09,2.35,2.67,2.74,3.59.82-.22,1.34-1.83,2.18-1.51,1.13.41,1.09,2.74,2,3.22.38-.7.86-1.77,1.8-1.83,1.07.6,1.14,2.49,1.66,3.47.68-.6,1.77-2.36,2.8-2.27,1.09.09,1.21,2.43,2.2,2.99,1.01-.83,1.76-2.59,2.98-3,.03.78-.2,2.19.36,2.84,1.65.14,2.88-2.13,3.91-3.41-.7,1.01-1.32,3.21-.89,3.99.66-.22,2.11-1.14,2.71-1.07.47.76.63,2.52,1.62,2.75,1.13-.58.55-3.2,2.13-1.22.59.74.82,1.42,1.72.81.64-.44.43-1.75,1.05-2.03.09.6-.03,1.44.43,1.91.82-.55,1.08-1.62,1.92-2.2.23.74-.13,1.52.07,2.27.96-.14,1-1.36,1.83-1.6.15.73-.18,1.6.09,2.27.93-.71,1.77-2.38,2.85-2.8.76-.3.6.25.97.87.77-.39,1.42-1.05,2.03-1.66.4-.41.79-1.23,1.36-1.36.13.52-.02,1.01.1,1.52.3.08.76.15,1.07.08.5-.12.87-.71,1.35-.76,1.01-.09.4.74.64,1.47,1.31-.25,1.66-2.2,2.56-2.94.47.52,1.7.35,2.34.22,1.91-.36,3.2-2.36,5.03-2.64l2.69,3.45c-.09-.52-.07-1.04.06-1.53.75-.24,1.25.17,1.83.62,2.83,2.15,4.8,5.11,7.22,7.68.68.71,1.49,1.32,2.24,1.96.08-.13.16-.26.23-.39.26-.09.4-.22.68-.77.26-.54.28-1.11.48-1.62.7,1.22,1.44-.52,1.74-.98.48-.76,1.25-.82,1.92-1.4.22.39.31.87.77,1,.3-.52.4-.15.9-.05.78.18,1.65.17,2.38-.21,1.12-.6,1.23-1.75,1.49-2.89.63-2.82,1.29-6.07-.77-8.44-2.85-3.27-2.64-8-5.08-11.5-.56-.82-1.07-1.76-1.62-2.54-.3-.4-.41-.84-3.73-3.11-.02-.12-.05-.22-.07-.32-.29-.06-.47-.08-.64-.12-.64.56-1.39,1.06-2,1.61-.54.5-1.3.81-1.62,1.49-.35-.39-.08-1.15-.62-1.47-.74-.43-.96.3-1.27.73-1.3,1.82-.76-.85-2.21-.82-.66.01-.91.94-1.55.87-.48-.05-.39-.55-.64-.84-.94-1.06-3.09-.02-4.31,0-.15-.61-.08-1.3.23-1.85-.81-.22-1.7.1-2.53-.1-.13-.84.14-1.17-.9-1.44-1.72-.43-2.66,1.38-4.08,1.51-.16-.81.35-1.85-.63-1.95-1.21-.12-2.41,1.34-3.59,1.14.2-1.93-1.74-.71-2.68-.78-.03-.22-.06-.44-.09-.66-1.44-.32-4.48.74-5.48-.62-.36-.49-.01-.89-.3-1.38-.43-.76-2.99-.54-3.78-.81-.06-.49.08-.96,0-1.44-1.11-.29-2.34.24-3.42-.09-.1-.46.09-.87-.01-1.35-1.74-1.07-4.12,1.22-5.78,1.38.55-2.77-4.74-1.88-6.5-1.9-.29-.01-.81-.12-1.07.06-.35.22-.38.85-.84,1.04-.5.21-.75.02-1.13-.24-.43-.55-.84-1.09-1.25-1.63-.47-.64-1.05-1.14-1.75-1.48-.4.52,0,1.98-.86,2.26-.97.32-1.15-1.04-1.93-1.4-1.55-.74-1,1.25-2.47,1-.58-.1-.73-.5-1.35-.3-.54.17-.77,1.07-1.47.66-.46-.26-.02-1.12-.93-1.46-1.39-.53-2.52.83-3.72,1.12-.01-.23-.03-.46-.08-.69-1.08-.24-2.07.08-3.13.24-.61.1-1.12.3-1.46-.26-.18-.31.21-.77-.13-1.15-.98-1.13-3.45,1.55-4.28,1.47-1.08-.09-.15-1.07-.62-1.93-1.45.22-1.98,1.82-3.3,2.28-.94-.62-1.27-1.89-2.68-1.5-.56.16-.86.53-.87,1.15-.81-.15-1.17-1.04-2.07-.71-.81.29-.73,1.12-1.77,1.15-1.04.05-1.91-.53-2.98-.33-.05.18-.17.29-.36.32-.44-.01-.86-.02-1.3-.02-1.17,0-2.56.18-3.73.03-.66-.08-1.28-.37-1.82-.77-.44.36-.94.68-1.22.76-1.13.31-2.5-.3-3.42.71-.78.86-.4,1.65-1.81,1.53-.69-.05-.62-.44-1.35.03-.59.39-1.02,1.06-1.53,1.54-.4.39-.69.52-1.15.76-.64.32-.71.45-1.24,1.15-.15.2-1.06,1.46-1.46,1.52-.69.09-.46-.5-.84-.69-.98-.51-2.46,1.75-3.3,2.11-1.4-1.51-2.34,2.08-3.55,2.03-.54-.02-.46-.71-1.06-.84-.89-.18-2.07,1.97-2.79,2.38-.24.01-.48.05-.71.08-.33.21-.62.46-.86.77-.43.45-.82,1.43-1.46,1.54-.63.1-.98-.53-1.59-.45-1.04.15-1.85,1.81-2.61,2.42-1.16.92-2.48,1.85-3.83,2.18-1.89.45-2.83,2.44-4.56,3.43-.85.48-1.14.31-1.98.4-1,.09-1.09.61-1.54,1.54-.26.55-.52,1.77-1.13,1.96-.44.14-1-.1-1.48.02-.02.91-.39,1.09-1.22,1.11-.18,0-.64-.1-.79-.03-.49.21-.08.21-.36.4-.02.01-.23.4-.36.51-.32.25-.66.21-1.01.26-.55.08-.81.02-1.32.33-.6.38-.75,1.17-1.16,1.62-.9.98-2.18.75-3.28,1.34-1.39.74-.81,2.29-1.67,3.21-.1.1-.59-.05-.7.08-.3.35-.35.79-.54,1.19-.61,1.2-.74.92-1.84,1.04-1.09.12-.62.54-1.23,1.21-.33.36-.9.45-1.31.68-.35.2-.35.08-.63.41-.29.33-.13.64-.64.82-.22.07-.56-.14-.78-.08-.44.12-.51.39-.77.69-.15.17-.47.99-.76,1.15-.4.21-.58.02-.94.15-.77.25-1.5.89-2.13,1.4-.62.52-1.49.97-2.03,1.52-.48.51-.68,1.77-1.28,2.05-.26.13-.6-.07-.91.02-.38.13-.79.85-.99,1.06-.53.55-.71.29-1.31.63-.14.08-.84,1.31-.87,1.36-.33.48-.56.9-1.05,1.16-.15.08-.46-.09-.66,0-.07.05-.86,1.07-.9,1.16h-.01c-.17.22-.85.99-1.15,1.09-.33.1-.62-.08-.92.02-.54.17-.78.77-1.12,1.21-.52.66-1.14,1.24-1.73,1.82-.44.44-1.09,1.27-1.67,1.5-.78.32-.87-.13-1.29.85-.2.46-.45,1.55-.92,1.8-.28.15-.59.01-.79.1-.66.3-.81,1.16-1.31,1.73-.6.66-1.29.55-1.89.99-1.04.74-1.31,3.23-1.76,4.4-.21.53-.22,1.27-.45,1.74-.1.18-.45.35-.59.52-.41.5-.92,1.5-1.2,2.07-.77,1.66-1.21,3.47-1.67,5.23-.58,2.19-1.16,4.34-1.58,6.56.51,3.51,1.73,6.83,3.64,9.67-.24-.56-.45-1.13-.47-1.67-.07-1.47-.38-2.9-.41-4.39Z" style="stroke-width:0px;fill:#151618"/><path d="m3.04,96.28c.03,1.48.35,2.91.41,4.39.02.54.23,1.11.47,1.67.01.01.01.02.01.03,2.96,4.37,7.55,7.62,13.72,8.74,12.33,2.23,16.16-3.67,15.3-8.75.52-.76.94-1.55.86-2.22-.07-.49-.43-.39-.49-.69-.12-.54.02-1.12-.09-1.63-.48-2.14-1.82-3.36-4.05-3.43-1.78-.06-5.68-.46-6.37,1.72-.22.68-.18,2.81-.01,3.51.26,1.04,1.06.87.06,1.85-.15.15-1.3.92-1.53.97-.58.13-.54-.35-.92-.43-1-.22-1.84-.26-2.75-.83-1.52-.96-2.79-2.14-4.14-3.19-.67-.51-1.13-.73-1.62-1.29-.12-.14-.29-.58-.4-.74-.23-.31-.67-.51-.9-.83-.38-.56-.16-.74-.4-1.32-.61-1.51-1.63-2.79-1.2-4.63.15-.58.45-1.09.61-1.69.09-.35.16-.81.26-1.13.21-.62.61-.94.77-1.74.15-.71-.09-1.67.2-2.34.29-.64.93-.66,1.31-1.12.4-.48.46-.64.76-1.3.24-.51.35-1.14.84-1.49.31-.23.83.13,1.05-.03,1-.73.47-2.01,1.27-2.89.24-.26.83-.18,1.19-.56.26-.29.45-1.3.53-1.52.59-1.62.52-.97,1.62-1.43,1.09-.44,1.15-1.37,2.28-1.75,1.16-.38.83.33,1.74-1.05.6-.92.74-2.07,1.6-2.82,1.05,1.72,2.01.66,2.67-.78.21-.47.22-1.75.92-1.78.54-.02.69.87.67,1.27,1.09-.13,1.29-2,2.06-2.67,1.25,1,3.11-2.28,3.95-3.03.22-.05.44-.09.66-.16.16-.35.39-.64.68-.9.79-.58,1.24-.94,1.92-1.68.18.44.48.78.85.93.32-.53.52-1.12.86-1.63,1.08.53,1.47.73,2.48-.47.73-.87.73-1.74,1.8-.78.99-1.02,2.62-4.06,4.34-2.48.85-.52,1.28-1.42,1.95-2.08.79-.81,1.4-.96,1.47-2.2,2.16-.66,3.93-1.3,5.33-3.27.18-.25.41-.58.69-.92,16.31-8.88,40.51-24.29,40.51-24.29,0,0-1.73,25.5,18.99,31.25,1.46.4,2.94.81,4.43,1.2.32-.21.71-.33,1.16-.41,1.6-.26,3.36.01,4.98.01,2.37,0,4.57-.33,6.86-.91.53-.13,3.51-1.37,3.99-.21-.07.38-.15.77-.23,1.15-.26.81-.18,1.54.24,2.23.86.07,1.65-.18,2.35-.75.71-.45,1.5-.75,2.33-.89.71.29.26,1.31.39,1.91,1.07.31,2.54-.67,3.71-.61.18.25.15.75.1,1.05,1,.26,2.13.12,3.1-.16.96-.29,2.51-1.91,3.42-1.58.03.94-.1,1.93.02,2.88,1.12.94,2.46-1.14,3.48-1.15.99-.01.73,1.34,1.16,1.99.48-.13,2.49-1.74,2.3-.03.66.16,1.97-1.15,2.57-1.37,1.2-.41.75.03,1.54.28,1,.31,2.16-.41,3.02-.79.61-.26,2.06-1.12,2.76-.71.05.25.02.51-.06.76,1.16,1.05,3.28-1.14,4.25-1.57.25.45.41.91.51,1.42.94-.61,1.35-1.85,2.59-1.84,1.01,0,1.5.79,2.24,1.14.21-1.6,2.42-2.71,3.86-2.68-.37.12-.73.25-1.08.43l1.69,3.7c-.08.17-.15.33-.25.46-.24.33-.59.31-.71.78-.28,1.01.86,2.21,1.28,2.84.53.81,1.14,1.7,1.72,2.64.9.01,1.81,0,2.69-.09,1.04-.1,2.18-.35,3.15-.73.78-.31,1.93-.7,2.65-1.14,1.09-.67,1.83-1.68,2.61-2.62,2.53-1.59,4.62-3.68,6.12-6.32-.76-.63-1.57-1.24-2.24-1.96-2.42-2.57-4.39-5.53-7.22-7.68-.58-.45-1.08-.86-1.83-.62-.13.5-.15,1.01-.06,1.53l-2.69-3.45c-1.83.28-3.12,2.28-5.03,2.64-.63.13-1.86.3-2.34-.22-.9.74-1.24,2.68-2.56,2.94-.24-.74.37-1.57-.64-1.47-.47.05-.85.64-1.35.76-.31.07-.77,0-1.07-.08-.13-.51.02-1-.1-1.52-.56.13-.96.94-1.36,1.36-.61.61-1.25,1.27-2.03,1.66-.37-.62-.21-1.17-.97-.87-1.08.41-1.92,2.08-2.85,2.8-.28-.67.06-1.54-.09-2.27-.83.24-.87,1.46-1.83,1.6-.2-.75.16-1.53-.07-2.27-.84.58-1.11,1.65-1.92,2.2-.46-.47-.33-1.31-.43-1.91-.62.28-.4,1.59-1.05,2.03-.9.61-1.13-.07-1.72-.81-1.58-1.98-1,.64-2.13,1.22-.99-.23-1.15-1.99-1.62-2.75-.6-.07-2.05.85-2.71,1.07-.44-.78.18-2.98.89-3.99-1.04,1.28-2.27,3.55-3.91,3.41-.55-.66-.32-2.06-.36-2.84-1.22.41-1.97,2.18-2.98,3-.99-.56-1.11-2.9-2.2-2.99-1.02-.09-2.12,1.67-2.8,2.27-.52-.98-.59-2.87-1.66-3.47-.93.06-1.42,1.13-1.8,1.83-.91-.48-.87-2.81-2-3.22-.84-.32-1.36,1.29-2.18,1.51-.39-.92-1.6-3.5-2.74-3.59-.98-.09-1.01,1.89-2.08,2.14-2.36-1.7-3.29-4.78-5.64-6.48-1.3-.96-1.14-.32-2.24-.51-.99-.17-1.54-1-2.31-1.55-.67-.47-.84-.46-1.66-.43-1.06.05-1.14.23-1.54-.73-.28-.68-.25-1.4-1.08-1.61-.71.12-1.43.08-2.13-.09-.62-.18-1.07-.56-1.35-1.13-.53-.6-.44-1.08-1.3-1.04-.49.02-.81.45-1.38.43-1.19-.03-2.45-.96-3.09-1.9-.3-.45-.2-.7-.69-.86-.51-.17-.82.2-1.28-.23-.33-.31-.73-1.23-.96-1.65-.32-.6-.45-1.24-.83-1.83-.37-.51-.74-.99-1.12-1.47-.25-.29-.41-.62-.51-.98-.71-.64-1.8-.38-2.62-.07-.24-.97.81-3.96-.81-4.01-1.1-.02-2.54,1.62-3.44,2.2-.93.6-1.34,1.73-2.27,2.26-.7.4-1.59.4-2.31.79-1.4.75-3.09,1.85-4.06,3.1-.1.15-.17.3-.26.45-.51.18-.98.66-1.4.97-.96.7-2.03,1.37-3.07,1.95-.13-.58.26-1.43-.36-1.81-.7-.43-1.6.77-1.95,1.09-.66.61-1.58,1.73-2.53,1.95-.43.09-.87-.06-1.31-.02-.92.09-1.23.48-1.82,1.24-.41.75-.94,1.39-1.62,1.9-.31.05-.48-.09-.5-.43-.45-.24-.39-.68-1.05-.3-.77.45-.85,2.53-1.85,2.58-.83-1.75-2.36,1.88-3.07,1.9-.4,0-.48-.64-1.19-.26-1,.54-1.25,3.02-2.68,2.98-.4-1.58-3.38,2.41-3.84,2.79-.67.55-1.57.64-2.33,1.02-.73.36-1.27.93-1.91,1.39-.78.55-1.43.76-2.31,1.02-.96.29-1.7.79-2.59,1.21-.98.46-1.97.79-2.92,1.31-1.12.59-2.33,1.01-3.41,1.68-1.25.76-2.28,1.89-3.43,2.8-1.92,1.52-3.94,2.97-5.81,4.55-2.14,1.8-4.66,3.05-6.78,4.87-1.11.94-2.58,1.6-3.26,2.88-.56,1.05-.81,2.6-2.14,2.94-.47.13-1.02-.22-1.52,0-.36.16-.46.53-.76.74-.43.29-.56.2-.96.36-.52.21-.47-.01-1.05.44-.52.41-1.05.99-1.47,1.48-.75.85-1.23,1.82-1.99,2.68-.64.74-1.28,1.44-1.74,2.3-.36.68-.62,1.39-.91,2.08-.25.63-.67,1.13-1.01,1.74-.37.66-.31,1.67-.75,2.28-.48.67-.07.13-.48.44-.13-.01-.25-.01-.39-.01-.28.23-.41.53-.41.9-.35.87-.25,2.03-.86,2.77-.7.86-.35.28-1.32.53-.45.12-.5-.13-.79.4-.43.78-.03,2.13-.4,3.03-.37.89-.97,1.5-1.2,2.45-.17.73-.49,1.01-.73,1.62-.35.87.29,2.01-.09,2.91-.12.25-.48.47-.62.7-.49.78-.53,1.78-.51,2.68Z" style="stroke-width:0px"/><path d="m122.24,51.84c1.8.47,3.61.94,5.44,1.39.03.05.08.08.13.13.32.32.69.9,1.13,1.06.38.15.76.02,1.15.14,1.17.35.44,1.24,1.13,1.99.31.33.41.2.87.23.4.02.9.29,1.11.31,1.22.16,2.48-.35,3.68-.22.07.18.21.28.4.26.35.09.69.1,1.05.03.75,0,1.38.12,2.13.28.51.1.94.36,1.42.46,1.06.21,2.22-.32,3.17.39-.4,1.16,1.39.69,1.9.77.25-.02.4.08.45.3.48.13.99.18,1.5.18,1.11.15,1.17.47,2,.78,1.07.41,2.88-.22,3.73.44-.01.31,0,.63.02.96,1.66.32,3.37-.25,5.01-.12.7.06,2.73-.09,3.1.47.75.08,1.38-.35,2.15-.26.12.2.17.41.16.66,1.17.35,2.13-.41,3.26-.29.08.3.17.6.25.9,1.04-.09,1.9-.54,2.96-.55.61,0,1.29.1,1.88.03,1.2-.15,2.27-.91,3.45-1.14.93-.17,1.3.23,2.13.36,1.62.25,3.55-.01,5.19-.01,1.09,0,2.21.05,3.34.06-.58-.93-1.19-1.83-1.72-2.64-.41-.63-1.55-1.83-1.28-2.84.13-.47.47-.45.71-.78.1-.13.17-.29.25-.46l-1.69-3.7c.36-.17.71-.31,1.08-.43-1.44-.02-3.65,1.08-3.86,2.68-.75-.35-1.23-1.14-2.24-1.14-1.24-.01-1.65,1.23-2.59,1.84-.09-.51-.25-.97-.51-1.42-.97.43-3.09,2.61-4.25,1.57.08-.25.1-.51.06-.76-.7-.4-2.15.45-2.76.71-.85.38-2.01,1.11-3.02.79-.79-.24-.35-.69-1.54-.28-.6.22-1.91,1.53-2.57,1.37.18-1.7-1.82-.09-2.3.03-.44-.66-.17-2-1.16-1.99-1.01.01-2.36,2.1-3.48,1.15-.13-.94.01-1.93-.02-2.88-.91-.33-2.46,1.29-3.42,1.58-.97.28-2.1.43-3.1.16.05-.3.08-.79-.1-1.05-1.16-.06-2.64.92-3.71.61-.13-.6.32-1.62-.39-1.91-.83.14-1.61.44-2.33.89-.7.56-1.48.82-2.35.75-.43-.69-.51-1.43-.24-2.23.08-.38.16-.77.23-1.15-.48-1.16-3.47.08-3.99.21-2.29.58-4.49.91-6.86.91-1.62,0-3.38-.28-4.98-.01-.45.08-.84.21-1.16.41Z" style="stroke-width:0px;fill:#b7a998"/><path d="m185.73,55.63c.45-1.04.69-2.11.74-3.21-.59.43-.61,1.78-.97,2.69l.23.52Z" style="stroke-width:0px;fill:#fff"/><path d="m.28,92.67c.41-2.22,1-4.37,1.58-6.56.46-1.76.9-3.57,1.67-5.23.28-.58.78-1.58,1.2-2.07.14-.17.48-.33.59-.52.23-.47.24-1.21.45-1.74.45-1.16.73-3.66,1.76-4.4.6-.44,1.29-.33,1.89-.99.51-.56.66-1.43,1.31-1.73.21-.09.52.05.79-.1.47-.24.73-1.34.92-1.8.41-.98.51-.53,1.29-.85.58-.23,1.23-1.06,1.67-1.5.59-.58,1.21-1.16,1.73-1.82.33-.44.58-1.04,1.12-1.21.3-.1.59.08.92-.02.3-.1.98-.87,1.15-1.08h.01c.03-.1.83-1.13.9-1.17.2-.09.51.08.66,0,.48-.26.71-.68,1.05-1.16.03-.05.74-1.28.87-1.36.6-.35.78-.08,1.31-.63.2-.21.61-.93.99-1.06.31-.09.64.1.91-.02.6-.28.79-1.54,1.28-2.05.54-.55,1.4-1,2.03-1.52.63-.52,1.36-1.15,2.13-1.4.37-.13.54.06.94-.15.29-.16.61-.98.76-1.15.26-.3.33-.58.77-.69.22-.06.56.15.78.08.52-.17.36-.48.64-.82.29-.33.29-.22.63-.41.41-.23.98-.32,1.31-.68.61-.67.14-1.09,1.23-1.21,1.1-.12,1.23.16,1.84-1.04.2-.39.24-.84.54-1.19.11-.13.6.02.7-.08.86-.92.28-2.48,1.67-3.21,1.1-.59,2.38-.36,3.28-1.34.41-.45.56-1.24,1.16-1.62.52-.31.77-.25,1.32-.33.36-.06.69-.01,1.01-.26.13-.1.33-.49.36-.51.28-.2-.14-.2.36-.4.15-.07.61.03.79.03.83-.01,1.2-.2,1.22-1.11.48-.13,1.05.12,1.48-.02.61-.18.86-1.4,1.13-1.96.45-.93.54-1.45,1.54-1.54.84-.09,1.13.08,1.98-.4,1.73-.99,2.67-2.98,4.56-3.43,1.36-.32,2.67-1.25,3.83-2.18.76-.61,1.58-2.27,2.61-2.42.61-.08.96.55,1.59.45.64-.12,1.04-1.09,1.46-1.54.24-.31.53-.56.86-.77.23-.03.47-.07.71-.08.71-.41,1.9-2.57,2.79-2.38.6.13.52.82,1.06.84,1.21.06,2.14-3.53,3.55-2.03.84-.36,2.33-2.61,3.3-2.11.38.2.15.78.84.69.4-.06,1.31-1.32,1.46-1.52.53-.7.6-.83,1.24-1.15.46-.24.75-.37,1.15-.76.51-.48.94-1.15,1.53-1.54.73-.47.66-.08,1.35-.03,1.4.12,1.02-.67,1.81-1.53.92-1.01,2.29-.4,3.42-.71.28-.08.78-.4,1.22-.76.54.4,1.16.69,1.82.77,1.17.15,2.56-.03,3.73-.03.44,0,.86.01,1.3.02.18-.03.31-.14.36-.32,1.07-.2,1.95.38,2.98.33,1.05-.03.97-.86,1.77-1.15.9-.32,1.27.56,2.07.71.01-.62.31-.99.87-1.15,1.42-.39,1.74.87,2.68,1.5,1.32-.46,1.85-2.06,3.3-2.28.47.86-.46,1.84.62,1.93.83.08,3.3-2.6,4.28-1.47.33.38-.06.84.13,1.15.35.56.85.37,1.46.26,1.06-.16,2.05-.48,3.13-.24.05.23.07.46.08.69,1.2-.29,2.33-1.65,3.72-1.12.91.35.47,1.2.93,1.46.7.41.93-.48,1.47-.66.62-.2.77.2,1.35.3,1.47.25.92-1.74,2.47-1,.78.37.97,1.73,1.93,1.4.86-.28.46-1.74.86-2.26.7.35,1.28.84,1.75,1.48.41.54.83,1.08,1.25,1.63.38.26.63.45,1.13.24.46-.18.49-.82.84-1.04.26-.17.78-.07,1.07-.06,1.76.02,7.06-.87,6.5,1.9,1.66-.16,4.04-2.45,5.78-1.38.1.47-.09.89.01,1.35,1.08.33,2.31-.2,3.42.09.08.48-.06.94,0,1.44.78.26,3.35.05,3.78.81.29.49-.06.89.3,1.38,1,1.36,4.04.3,5.48.62.03.22.06.44.09.66.94.07,2.88-1.15,2.68.78,1.19.2,2.38-1.25,3.59-1.14.98.09.47,1.14.63,1.95,1.42-.13,2.36-1.93,4.08-1.51,1.04.26.77.6.9,1.44.83.21,1.73-.12,2.53.1-.31.55-.38,1.24-.23,1.85,1.22-.02,3.36-1.06,4.31,0,.25.29.16.79.64.84.64.07.9-.86,1.55-.87,1.45-.03.91,2.64,2.21.82.31-.43.53-1.15,1.27-.73.54.32.28,1.08.62,1.47.32-.68,1.08-.99,1.62-1.49.61-.55,1.36-1.05,2-1.61-.23-.06-.41-.15-.73-.43-.44-.39-.66-.5-1.14-.76-1.42-.77-2.8-1.74-3.97-2.85.05.63.17,1.53-.03,2.15-.98.2-2.28-2.23-3.38-2.58-.28-.06-.56-.1-.84-.14-.51-.26-.98-.59-1.42-.96-.44-.18-1.12-.26-.77.48-.4-.39-1.25-.68-1.69-.93-.37-.21-.84-.68-1.28-.71-.17-.01-.66.28-.87.29-.54.02-1.08-.37-1.54-.58-.94-.4-.92-.28-1.75-.21-1.28.12-2.82-.44-3.98-.9-.6-.23-1.2-.82-1.81-1.07-.44-.18-.21-.53-.7-.12-.31.26-.18.75-.59.96-.62.31-2.31-.25-2.92-.43-.73-.21-1.66-1.27-2.41-1.12-.56,2.22-6.54-2.81-7.29-3.36-.59.73-1.62-.17-2.35-.08-.02.22-.05.44-.06.66-.83.39-1.91-.23-2.65-.59-.07.28-.05.55.05.82-.69-.44-1.21-.62-2-.94-.41-.17-.99-.63-1.36-.7-.23-.05-1.24.28-1.45.26-.82-.06-1.6-.38-2.43-.36.18.06.29.17.31.36-1.09.12-2.41-.4-3.45-.69-1.51-.4-2.98-1.13-4.57-1.17-1.05-.03-1.9.33-2.92.41-.91.08-1.85-.06-2.74-.3.16.07.31.14.46.22-1.13.11-2.13-.77-3.29-.66-.59,1.12-2.94-.13-3.67-.4-1.28-.48-3.36-.91-4.75-.83-.87.05-1.65.4-2.57.43-.82.01-1.02.12-1.69.29-1.6.41-3.27-1.52-4.54-.97.22.36.44.73.66,1.09-1.17.96-4.66.33-6.23.33-1.65,0-3.33-.14-4.9.43.24.54,1.25,1.15,1.01,1.77-1.91-.22-3.88-.41-5.81-.3-1.35.07-.6.1-1.19.82-.3.36-.47.26-.92.58-.56.39-.96.91-1.43,1.39-1.45.29-2.92.62-4.47.99C72.34,12.66,19.96,55.44,7.29,69.73,1.42,76.35-.86,84.98.28,92.67Z" style="stroke-width:0px;fill:#26282b"/><path d="m220.44,49.39c6.42,2.26,8.96,1.73,9.7,1.73.84,0,4.43,0,7.39-2.75-.26-.02-.52-.07-.78-.12-3.45-.68-4.5,0-5.5.29-.99.29-2.27,0-1.12-1.06,1.15-1.06,4.13-.96,6.33-.67,2.08.28,4.24-2.49,4.49-2.81.01-.02.02-.03.02-.03,1.65-2.65,2.47-5.25,1.4-6.95-1.53-2.44-3.15-4.7-3.95-6.73-.6-1.53.03-1.68,1.39-3.3,0,0-8.14,2.28-9.68,5.34-1.54,3.06,3.57,2.87-.93,8.17-4.49,5.31-12.03,2.67-8.77,8.9Z" style="stroke-width:0px;fill:#b2918a"/><path d="m201.47,30.04c.33,2.22,1.01,4.32,1.99,6.25.79-.96,1.78-1.97,2.75-2.08.31.31.37.74.59,1.09.55-.37.87-.15,1.37-.69.43-.47.76-.61,1.22-.93.71-.51,2.83-4.16,3.37-3.3.18.29-.03.94,0,1.29.02.4.15.77.3,1.15.24.64.46,1.29.66,1.96,0,.02.17.69.23.75.13.14.38.1.49.22.47.5-.17,1.06.1,1.65.16.01.32.03.48.07.05.36,0,.82.25,1.13.37.46.24-.01.67.25.23.14.31.4.55.54.32.18.76-.01,1.12.09-.09,1.37,1.82-.68,1.82.78,1.14-.15,2.2-1.14,3.4-.77-.14.25-.4.41-.25.76.47.14,1.11.07,1.6.02-.35.29-.28.75.08.91.43.17,1.16-.16,1.57-.28,1.34-.36,2.62-.77,3.96-1.12,3.45-4.58-1.12-4.55.36-7.46,1.54-3.06,9.68-5.34,9.68-5.34.46-.54.99-1.24,1.6-2.21.83-1.34,1.47-1.95,1.62-2.62-.41.09-.77.37-1.21.32-.61-.07-1.16-.48-1.72-.61-.62-.15-1.52.07-2.04.29-.48.22-.94.35-1.43.59-.26.14-.51.24-.79.36-.16.07-.51.14-.64.21-.36.15-.51.51-.85.61-.49.15-.67-.07-1.17.25-.66.43-.96.56-1.72.81-.38.12-.77.2-1.14.35-.44.18-.94.61-1.43.6-.14-.48-.01-1.14-.02-1.62,0-.21-.08-.76.02-.98.3-.61,1-.63,1.59-.78.63-.17.64-.28.99-.77.6-.84,1.91-1.25,2.82-1.83.63-.4.9-.79,1.58-.94.58-.13,2.03.06,2.45-.55.29-.41.07-1.32-.08-1.73-.07-.16-.3-.67-.43-.82-.35-.39-.71-.35-1.12-.61,0,0-.01,0-.01-.01-.06.01-.14.01-.24.01-.33-.02-.7-.4-1.25-.32-.28.05-.68.3-.85.32-.6.07-.49-.24-1.04-.33-.54-.1-.99.26-1.48.36.17-2-2.64.5-3.09.7-.55-1.37-2.62-.38-3.51-.45-.41-.02-1-.2-1.53-.21-1.09,0-1.04.1-1.92.6-.75.43-.76-.09-1.36-.2-.97-.16-1.34.75-2.1,1.08-.59.25-1.31.13-1.92.43-.63.32-1.3.86-1.65,1.51-.43-.23-.44-.38-1-.31-.66.09-.99,1.61-1.63.79-.82.08-1.4.92-2.23,1.11-.71.15-.83.25-1.39.71-.29.24-.33.01-.64.39-.18.24-.14.58-.26.82-.24.46-.56.73-.77,1.2-.17.39-.17.85-.38,1.27-.08.17-.29.23-.38.41-.17.32-.24.99-.46,1.27-.33.41-.45.25-.87.47-1.39.71-2.22,2.1-3.26,3.15Z" style="stroke-width:0px;fill:#e5d7c3"/><path d="m201.47,30.04c1.04-1.06,1.86-2.44,3.26-3.15.43-.22.54-.06.87-.47.22-.28.29-.94.46-1.27.09-.18.3-.24.38-.41.21-.41.21-.87.38-1.27.21-.47.53-.74.77-1.2.13-.24.08-.58.26-.82.31-.38.36-.15.64-.39.56-.46.68-.56,1.39-.71.83-.18,1.42-1.02,2.23-1.11.64.82.98-.7,1.63-.79.56-.07.58.08,1,.31.35-.64,1.01-1.19,1.65-1.51.61-.3,1.34-.17,1.92-.43.76-.33,1.13-1.24,2.1-1.08.6.1.61.62,1.36.2.89-.5.83-.6,1.92-.6.53.01,1.12.18,1.53.21.89.07,2.96-.92,3.51.45.45-.21,3.26-2.71,3.09-.7.49-.09.94-.46,1.48-.36.54.09.44.4,1.04.33.17-.02.58-.28.85-.32.55-.08.92.3,1.25.32.1,0,.18,0,.24-.01-.81-.54-.32-1.39-.97-1.96-.69-.61-.94-.47-1.12-1.47-.69-.14-1.2-.03-1.85-.32-.55-.24-.97-.2-1.55-.33-.02-.25-.03-.51-.02-.77-1.14-.36-2.52.1-3.71-.07-.14-.4.36-.99.51-1.34-.84-.23-1.93.26-2.79.39-.09-.13-.12-.26-.08-.43-.94-.46-1.91.62-2.82.51-.21-1.3-1.95.07-2.59,0-.29-.93-1.55-.61-2.1-.06.56-1.73-1.8-.17-2.19-.25-.39-.68-1.66-.03-2.2.16-.89.32-1.3.75-2.03,1.42-.94.86-3.07,2.82-3.05,4.16-.23-.39-.47-.01-.84.4-.64.73-.67.71-1.47,1.13-.93.48-1.53,1.51-2.48,1.92-.1.05-.22.09-.33.13-1.68,4.06-2.1,7.98-1.57,11.57Z" style="stroke-width:0px;fill:#151618"/><path d="m240.12,40.1s1.44-1.15,0-2.88c-1.44-1.73-1.44,4.03,0,2.88Z" style="stroke-width:0px;fill:#231f20"/><path d="m231.25,48.54c1-.29,2.05-.97,5.5-.29.26.05.52.09.78.12.31-.28.61-.59.9-.93,0,0,.08-.48.06-1.16-.63.39-1.34.63-2.03.54-2.2-.29-5.18-.39-6.33.67-1.15,1.06.13,1.35,1.12,1.06Z" style="stroke-width:0px;fill:#231f20"/><path d="m236.81,29.02s-3.6.62-4.68,1.92c-1.08,1.3-.29,1.8,1.08,2.45,1.37.65,2.59,0,2.59,0,0,0,1.51-1.1,1.01-4.36Z" style="stroke-width:0px;fill:#231f20"/><path d="m228.92,25.91c.48.01.99-.41,1.43-.6.37-.15.76-.23,1.14-.35.76-.24,1.06-.38,1.72-.81.51-.32.68-.1,1.17-.25.35-.1.5-.46.85-.61.14-.07.48-.14.64-.21.29-.12.53-.22.79-.36.48-.24.94-.37,1.43-.59.52-.22,1.42-.44,2.04-.29.55.13,1.11.54,1.72.61.44.05.79-.23,1.21-.32.1-.37.05-.76-.21-1.3.44-.07.83-.18,1.07-.51-.4-.14-1.54-.74-1.72-1.24-.2-.56.96-1.62-.39-1.51-.13-.94-.47-1.6-1.12-2.35-.18-.22-.69-.48-.79-.74-.25-.59.33-.84.28-1.4-.02,0-.03-.01-.06-.01-.46.25-.93.46-1.42.64-.31.02-.45.17-.41.46.03.21-.03.33-.21.4-.17.12-.36.21-.56.28-.44.26-.45.38-.81.39,0,.01.01.01.01.01.4.26.77.22,1.12.61.13.15.36.66.43.82.15.4.37,1.31.08,1.73-.43.61-1.88.43-2.45.55-.68.15-.94.54-1.58.94-.91.58-2.22.99-2.82,1.83-.35.5-.36.6-.99.77-.59.15-1.29.17-1.59.78-.1.22-.02.77-.02.98.01.48-.12,1.14.02,1.62Z" style="stroke-width:0px;fill:#faf3e9"/><path d="m203.04,18.47c.12-.03.23-.08.33-.13.94-.41,1.54-1.44,2.48-1.92.81-.41.83-.4,1.47-1.13.37-.41.61-.79.84-.4-.02-1.34,2.11-3.29,3.05-4.16.73-.67,1.14-1.09,2.03-1.42.54-.2,1.81-.84,2.2-.16.39.08,2.75-1.47,2.19.25.54-.55,1.81-.87,2.1.06.64.07,2.38-1.3,2.59,0,.91.12,1.88-.97,2.82-.51-.03.16-.01.3.08.43.85-.13,1.95-.62,2.79-.39-.15.35-.64.93-.51,1.34,1.19.17,2.57-.29,3.71.07-.01.26,0,.52.02.77.59.14,1,.09,1.55.33.66.29,1.16.18,1.85.32.17,1,.43.86,1.12,1.47.64.56.16,1.42.97,1.96.36-.01.37-.13.81-.39.21-.07.39-.16.56-.28.17-.07.24-.2.21-.4-.03-.29.1-.44.41-.46.48-.18.96-.39,1.42-.64-.47-.1-.92.03-1.38-.1-.06-.66-.5-1.17-.51-1.8-.35-.05-.68-.08-1.04-.11-.14-1.34-.62-1.37-1.9-1.54.05-1.07-1.19-1.06-1.92-1.15,0-1.12-1.2-.58-1.95-.89-.73-.3-1.49-.81-2.2-.93-1.31-.25-2.59.08-3.91-.32-1.08-.31-1.66-.45-2.83-.47-1.22-.02-2.31-.61-3.57-.38-.63.13-.98.5-1.52.71-.55.23-1.37.39-1.95.44-1.73.14-3.79.77-5.16,1.9-1.57,1.28-2.79,2.53-3.94,4.22-.97,1.4-2.65,3.13-2.99,4.78-.02.13-.02.23-.03.33-.1.23-.21.47-.29.7Z" style="stroke-width:0px;fill:#26282b"/><path d="m203.46,36.29c2.44,4.86,6.71,8.7,11.66,10.94,2.01.91,3.78,1.61,5.32,2.16-3.26-6.23,4.28-3.59,8.77-8.9.22-.25.4-.49.58-.71-1.34.35-2.62.76-3.96,1.12-.4.12-1.14.45-1.57.28-.36-.16-.43-.62-.08-.91-.49.05-1.13.12-1.6-.02-.15-.35.12-.51.25-.76-1.2-.37-2.26.62-3.4.77,0-1.46-1.91.59-1.82-.78-.36-.1-.79.09-1.12-.09-.24-.14-.32-.4-.55-.54-.43-.26-.3.21-.67-.25-.25-.31-.21-.77-.25-1.13-.16-.03-.32-.06-.48-.07-.28-.59.37-1.15-.1-1.65-.12-.12-.37-.08-.49-.22-.06-.06-.23-.73-.23-.75-.2-.67-.41-1.31-.66-1.96-.15-.38-.28-.75-.3-1.15-.03-.35.18-1,0-1.29-.54-.85-2.66,2.8-3.37,3.3-.46.32-.79.46-1.22.93-.49.54-.82.32-1.37.69-.22-.36-.28-.78-.59-1.09-.97.12-1.96,1.13-2.75,2.08Z" style="stroke-width:0px;fill:#b7a998"/><path d="m213,34.24s-.25-.69-.02-1.91c-1.07-.07-2.14-1.16-2.79-2.29-.86-1.52.58-4.24,1.97-4.34,1.39-.09,2.72,2.73,2.72,2.73.35-.46.75-.94,1.23-1.45,0,0-1.89-5.69-6.2-1.95-4.32,3.74.74,9.21,3.1,9.21Z" style="stroke-width:0px;fill:#b2918a"/><path d="m210.19,30.04c.64,1.13,1.72,2.22,2.79,2.29.2-.98.69-2.31,1.9-3.9,0,0-1.32-2.82-2.72-2.73-1.39.1-2.83,2.82-1.97,4.34Z" style="fill:#7d6460;stroke-width:0px"/><path d="m235.29,30.92c0-.39.32-.71.71-.71s.71.32.71.71-.32.71-.71.71-.71-.32-.71-.71Z" style="stroke-width:0px;fill:#fff"/><path d="m201.25,115.88s1.36,3.07,5.39,3.26c4.03.19,8.83,1.53,9.4,3.45.58,1.92-2.89,0-7.39,0s-4.88,2.3-12.37,1.73-8.06-5.18-7.48-8.44c.58-3.26,8.03-4.41,12.45,0Z" style="stroke-width:0px;fill:#26282b"/><path d="m113.97,113.77s-3.84,7.1,0,9.02c3.84,1.92,17.46,1.34,23.02,1.63,5.56.29,8.44-.99,7.87-3.51-.58-2.53-8.71-2.67-14.39-5.4-5.67-2.74-5.56-9.21-8.25-9.21s-7.48,1.73-8.25,7.48Z" style="stroke-width:0px;fill:#26282b"/><path d="m174.88,72c-.03.73.28,1.35.91,1.85.56,1.17.82,2.41.78,3.7,0,.85-.18,1.35.2,2.11.77,1.57,3.28,3.2,4.6,4.22,1.21.94,1.55,1.01,2.18-.36,1.75-.01,1.76,2.42,3.04,2.24,1.23-.17,1.3-3.18,3.07-2.23.02.35.05.69.07,1.04.66-.05,1.3-.23,1.95-.44-.01-1.06.37-1.99.97-3.38-.12.47-.01.85.39.99.23-.66.38-1.45.84-1.97-.92-.94-1.29.18-2.22.7-.41-.29-.49-.77-.94-1.04-.73.22-1.52,2.51-2.64,1.91-.17-.89.37-2.1-.62-2.36-1-.28-1.91.96-2.84.79-.16-.84.28-1.25-.6-1.52-1.02-.32-.81.16-1.01-1.1-.45-.02-1.15.25-1.69.53.13-.14.21-.3.2-.5-.85-.26-1.81.03-2.68-.06-.13-.85.7-2.21,1.02-2.88.51-1.04,1.63-2.45,1.92-3.56.32-1.22-.4-.74-1.3-.86.43-1.05.92-2.11,1.43-3.11.25-.48,1.25-1.7,1.12-2.21-1.62-.46-.56-3.28,0-4.17.32-.49,1.13-.86,1.37-1.28.2-.32.22-.74.43-1.12.35-.63,1.29-.85,1.59-1.47.39-.84-.15-.6-.51-1.31-.84-1.63,2.83-2.37,3.72-3.42-.15-.45-.82-.51-1.17-.77.13-.79,1.54-1.57,1.5-2.29-.05-.6-.46-.39-.7-.78-.58-.93,2.05-3.09-.02-3.45-.31-1.32,2.27-2.3,1.89-3.79-.89-.16-1.14.3-1.09-.63.07-1.22,2.45-2.11,1.65-3.17-.12-.16-.39-.01-.54-.23-.17-.26.15-.97.26-1.25.35-.82,1.04-1.2,1.51-1.92-.29-.22-.32-.45-.2-.67-.09.09-.2.17-.33.26-1.27.82-2.8,1.35-4.13,2.08.26,1.04.53,1.44-.14,2.31.7,2.34-.1,5.79-.29,7.84-.22,2.51-.46,7.93-3.81,8.28-.37.03-.79-.25-1.16-.06-.97.5-.49,3.44-.53,4.14-.09,2.12-.62,1.24-2.23,1.69-.54,2.45-1.16,4.39-1.2,6.85-.02,1.09-.02,1.47-.75,2.21-.69.69-.78-.16-.76.97.01.73.62.91.24,1.68-.43.87-1.83.81-2.71.94Z" style="stroke-width:0px;fill:#151618"/><path d="m98.28,30.81c.31,1.7,1.13,3.35,1.55,5.03.39,1.51.53,3.12.99,4.6.21.69.54,1.77,1.15,2.26.32.25,1.08.23,1.34.48,1,1.04.76,4.18.64,5.49.13-.22.32-.31.61-.26.4.36.59.78.58,1.31.31-.26.64-.39,1.06-.38.13,1.91-.14,3.83.31,5.69,1.48-2.13,1.52,1.86,1.59,2.52h1.45c.39,1.14-.33,2.22-.36,3.36.64-.44,1.51-1.36,2.35-.96.68,1.86.58,3.79,1.15,5.58.66.24,1.36.08,2.06.03.22.4.41.77.6,1.08-.32,1.17-1.09,2.26-.91,3.51,1.29.66-2.42,6.09-2.97,7.82-.66,2.07-.45,3.91-.53,6.01-.06,1.51-1.32,3.15-1.13,4.56,1.77-.45.23,3.33-.07,4.16-.66,1.84-1.63,3.66-1.07,5.71.38-.16.71-.09,1,.21-.06,5.55-1.28,11.52-.45,17.11,1.11.14,1.95-.38,2.87.48.52.5.45,1.27,1.07,1.67.4.06.79.13,1.2.23.17.16.36.32.54.48,1.4.41,2.37-.64,3.88-1,.23.24.32.53.28.87.91.43,1.75-.64,2.76-.48,1.47.24,2.39,2.11,4.02,1.95.2-2.65-.22-5.12.7-7.67.37-.58.73-1.16,1.07-1.76.25-.59.48-1.2.68-1.81.73-.69,1.55-.18,2.1-1.09.7-1.2-.31-2.52.61-3.58.94-1.08,1.67-1.02,1.82-2.69-.03-.76-.06-1.52-.08-2.28-.01-.38.15-.63.48-.76.2-.9-.07-1.83.21-2.73.44.01.81.2,1.11.54,1.22-.36.33-2.35.52-3.27.15-.7.41-.89.63-1.59.48-1.54-.67-3.71.08-5.23.22-.44.55-.47.82-.83,1.35-1.74.63-4.19.92-6.25.29-.01.44-.16.43-.46.21-.64.18-1.3-.09-1.99-.14-1.13-.85-3.32-.38-4.55.35,0,.68-.01,1.01-.03.29-1.72-1.75-3.27-1.02-5.12.62-.08,1.16.33,1.51-.33-.17-.41-.36-.81-.54-1.19h-.01c-.94-.17-1.28-1.67-2.35-1.2-1.35.58-.06,3.76-1.2,4.25-1.02.45-1.09-1.75-2.03-1.54-.3,1.01,0,2.31-1.37.99-.99-.97-1.69-1.85-3.05-1.16-.44.23-.44.46-.99.58-.29.06-1.24.06-1.57-.09-1.63-.69.12-1.37-.01-2.19-1.47-.69-3.17,1.47-3.75-.78-.09-.35.15-1.96-.1-2.22-.41-.43-1.3-.01-1.84-.17-.2-.55.28-1.44-.39-1.83-.31-.18-.91-.05-1.27-.03-.69.02-1.34.23-1.75-.39-.54-.79-.32-2.2-.49-3.1-.2-1.02-.38-1.36-1.42-1.53-.68-.1-.91.18-1.22-.54-.25-.58.4-1.95-.08-2.38-.36-.33-.98-.08-1.43-.09-.28-.76.07-2.03.12-2.83.03-.61.36-2.75-.23-3.2-.26.3-.66.37-1.02.24-.25-.9.43-2.69-.41-3.36-.41-.35-1.04-.15-1.29.28-.44-.05-.26-1.27-.33-1.61-.25-1.25-.54-.79-1.02-1.53-.17-.24-.32-1.25-.36-1.43-.17-.96.24-3.36-.35-4.18-.46-.64-.76-.12-1.32-.48-.62-.41-.36-1.38-.35-2,.01-.6.3-2.59-.21-2.92-.32-.22-.84.05-1.27-.02-.25-.77.15-1.61-.08-2.41-.24-.82-1.02-1.25-1.46-1.96-.87-1.44-.24-3.2-.49-4.82-.38-2.37-1.31-3.93.09-6.17.09-.14.18-.28.3-.41-3.11,1-3.81,4.45-3.42,10.41-.03.08-.06.14-.08.22-.56,1.92-1,5.18-.62,7.19Z" style="stroke-width:0px"/><path d="m168.43,81.11c.05,1.58.39,1.95,1.16,3.55,1.05,2.2.91,4.39,1.68,6.57.17.48.44.78.74,1.06.41,1.16.89,2.35,1.4,3.56.03.39.08.77.17,1.08.69,2.37,1.39,4.8,2.38,7.07.74,1.72,1.6,3.26,2.84,4.65.55.23.93.62,1.15,1.2.38.93.77,1.86,1.15,2.81.64.78.99.37,1.73.89,1.01.71.93,2.68,1.74,3.68.47.16.82.46,1.02.92-.14.53-.03.94.33,1.25.43-.45.94-.71,1.55-.77.23.28.46.56.67.86.28-.18.58-.28.9-.28.02.46.13,1.38.64,1.6.62.26.9-.45,1.44-.41.86.05,1.47.99,2.03,1.59.85-.08,1-.94,1.75-1.17.17-.06.48-.08.82-.08.58.1,1.12.15,1.62.16,1.52.32,2.79.83,4.48.5-.09-1.2-.91-2.08-.54-3.37.74-.14,1.39.09,2.12-.05-.89-1.76-1.04-3.05-1-4.93.02-1.21.21-1.91-.3-3.1-.89-2.08-2.47-3.8-3.28-5.92,1.3-1.16-2.5-4.17-3.23-5.04.35.01.69.01,1.04,0-.13-1.78-2.14-2.76-2.22-4.56,1.23-.33-.87-2.99-1.17-3.65-.7-1.52-.64-3.09-1.19-4.65-.26-.77-.38-1.4-.38-1.99-.64.21-1.29.39-1.95.44-.02-.35-.05-.69-.07-1.04-1.77-.94-1.84,2.06-3.07,2.23-1.28.17-1.29-2.26-3.04-2.24-.62,1.37-.97,1.3-2.18.36-1.32-1.02-3.83-2.66-4.6-4.22-.38-.76-.2-1.25-.2-2.11.03-1.29-.22-2.52-.78-3.7-.63-.51-.94-1.13-.91-1.85.87-.14,2.28-.07,2.71-.94.38-.77-.23-.96-.24-1.68-.02-1.13.07-.28.76-.97.73-.74.73-1.12.75-2.21.03-2.46.66-4.4,1.2-6.85,1.61-.45,2.14.43,2.23-1.69.03-.7-.44-3.65.53-4.14.37-.2.79.09,1.16.06,3.35-.35,3.59-5.77,3.81-8.28.18-2.05.99-5.5.29-7.84-.03.05-.08.09-.13.15-.4.46-1.15.61-1.54,1.05-.92,1.01-1.32,2.68-.2,3.56-1.53,1.67-3.05,2.43-3.78,4.51-.26.76-2.33,2.91-.79,3.44-.12.58-.39,1.07-.84,1.49-.09.35-.09.69,0,1.02-.87,1.77-2.82,2.97-4.35,4.43.1.24.26.45.47.62-.62,1.04-1.63,2.05-2,3.2-.18.61.02,1.01-.1,1.54-.39,1.67-2.16,2.13-2.95,3.7.52.13,1.14.03,1.67.01-.83,1.17-1.85,2.19-2.61,3.4.89,1.02-.24,1.72-.73,2.59-.64,1.14-1.38,2.88-1.65,4.17-.3,1.46-.16,3.27-.12,4.78Z" style="stroke-width:0px"/><path d="m178.82,77.14c.87.09,1.83-.21,2.68.06.01.2-.07.36-.2.5.54-.28,1.24-.55,1.69-.53.21,1.27-.01.78,1.01,1.1.87.26.44.68.6,1.52.93.16,1.84-1.07,2.84-.79.99.26.45,1.47.62,2.36,1.12.6,1.91-1.69,2.64-1.91.45.26.53.75.94,1.04.93-.52,1.3-1.65,2.22-.7.1-.13.22-.23.36-.31.08.33.26.47.55.44.1-.33.31-.46.61-.38.13.25.16.52.1.78.2-1.37.59-2.36,1.14-3.44.97-1.92,1.44-4.1,2.49-6,1.24.45,1.21-3.52,1.69-4.47.43-.82.94-1.29,1.27-2.21.28-.79.18-1.76.76-2.41,1.01.37,1.42-4.01,2.01-4.75.16.16.7.35.86.54.93-1.96.43-3.74.69-5.76.13-.93.59-1.6.64-2.6.05-.85-.21-1.68.06-2.51.36.01.69-.08.99-.28.15-1.35-.49-2.97-.51-4.41.2-2.87.37-4.29-1.51-6.69-2.07-2.61-4.13-5.93-7.74-6-.31,0-.62.01-.92.05-.24.17-.47.37-.67.59-.41.44-.62.77-1.19,1.15-.25.17-1.9.73-2.62,1.35-.07.12-.15.23-.28.33-.13.22-.09.45.2.67-.47.73-1.16,1.11-1.51,1.92-.11.29-.44.99-.26,1.25.15.22.43.07.54.23.81,1.06-1.58,1.95-1.65,3.17-.05.93.21.47,1.09.63.38,1.48-2.2,2.46-1.89,3.79,2.07.37-.55,2.52.02,3.45.24.39.66.18.7.78.05.73-1.37,1.5-1.5,2.29.36.26,1.02.32,1.17.77-.89,1.05-4.56,1.78-3.72,3.42.36.71.9.47.51,1.31-.3.62-1.24.84-1.59,1.47-.21.38-.23.79-.43,1.12-.24.41-1.05.78-1.37,1.28-.56.89-1.62,3.71,0,4.17.14.51-.86,1.73-1.12,2.21-.51,1-1,2.06-1.43,3.11.9.13,1.62-.36,1.3.86-.29,1.11-1.42,2.52-1.92,3.56-.32.67-1.15,2.03-1.02,2.88Z" style="stroke-width:0px;fill:#e5d7c3"/><path d="m102.01,19.58c.25,1.62-.38,3.38.49,4.82.44.7,1.22,1.14,1.46,1.96.23.79-.17,1.63.08,2.41.43.07.94-.2,1.27.02.51.33.22,2.33.21,2.92-.01.62-.28,1.59.35,2,.56.37.86-.16,1.32.48.59.82.17,3.22.35,4.18.03.17.18,1.19.36,1.43.48.74.77.28,1.02,1.53.07.35-.1,1.57.33,1.61.25-.43.87-.62,1.29-.28.84.67.16,2.46.41,3.36.37.13.76.06,1.02-.24.59.45.26,2.59.23,3.2-.05.81-.39,2.07-.12,2.83.45.01,1.07-.24,1.43.09.48.44-.17,1.81.08,2.38.31.73.54.44,1.22.54,1.04.17,1.22.51,1.42,1.53.17.9-.05,2.3.49,3.1.41.62,1.06.41,1.75.39.36-.01.96-.15,1.27.03.67.39.2,1.28.39,1.83.54.16,1.43-.25,1.84.17.25.26.01,1.88.1,2.22.59,2.26,2.28.09,3.75.78.13.82-1.62,1.5.01,2.19.32.15,1.28.15,1.57.09.55-.12.55-.35.99-.58,1.36-.69,2.06.2,3.05,1.16,1.37,1.32,1.07.02,1.37-.99.93-.21,1,1.99,2.03,1.54,1.14-.48-.15-3.67,1.2-4.25,1.07-.47,1.4,1.02,2.35,1.2-.4-.83-.81-1.61-1.02-2.52-.22-.93-.45-1.99-.81-2.85-.14-.37-2.42-3.11-2.2-3.58.36-.77,1.04-.36,1.72-.62-.75-1.62-2.01-2.99-2.2-4.79-.07-.71.25-1.58.03-2.27-.38-1.23-3.1-1.69-3.02-3.21.06-1.19,1.57-1.07,2.43-1.21.1-1.44-2.16-1.46-2.28-2.81.61-.66,1.63-.53,1.7-1.55-2.12-.87-3.47-2.38-.61-3.14-.39-1.21-2.89-1.44-3.38-2.79-.16-.45.14-.93-.06-1.36-.16-.35-.47-.38-.74-.67-1.16-1.3-3.83-4.19-.68-4.33-1.14-.99-2.8-2.66-3.61-3.96-.51-.81-1.46-2.5-1.27-3.47l-1.73-5.76c-.9,1.08-1.7,2.21-2.43,3.41-.12-.61-1.54-1.01-2.14-1.32-.55-.29-1.09-.48-1.62-.61-1.44-1.2-2.44-1.67-2.44-1.67-4.51-1.46-7.6-1.85-9.65-1.2-.12.14-.21.28-.3.41-1.4,2.24-.47,3.8-.09,6.17Z" style="stroke-width:0px;fill:#151618"/></g></g></svg>