<?xml version="1.0" encoding="UTF-8"?>
<svg id="Layer_2" data-name="Layer 2" xmlns="http://www.w3.org/2000/svg" xmlns:xlink="http://www.w3.org/1999/xlink" viewBox="0 0 354.48 574.41">
  <defs>
    <style>
      .cls-1 {
        fill: #675142;
      }

      .cls-1, .cls-2, .cls-3, .cls-4, .cls-5, .cls-6, .cls-7, .cls-8, .cls-9, .cls-10, .cls-11 {
        stroke-width: 0px;
      }

      .cls-2 {
        fill: #4c2f1c;
      }

      .cls-3 {
        fill: url(#Super_Soft_Black_Vignette_3);
      }

      .cls-4 {
        fill: #c67c3f;
      }

      .cls-5 {
        fill: #fff;
      }

      .cls-6 {
        fill: #774a2a;
      }

      .cls-7 {
        fill: #7d634e;
      }

      .cls-8 {
        fill: #8d592f;
      }

      .cls-9 {
        fill: url(#Super_Soft_Black_Vignette_3-2);
      }

      .cls-10 {
        fill: #91735e;
      }

      .cls-11 {
        fill: #a86e39;
      }
    </style>
    <radialGradient id="Super_Soft_Black_Vignette_3" data-name="Super Soft Black Vignette 3" cx="115.29" cy="118.44" fx="115.29" fy="118.44" r="8.16" gradientTransform="translate(30.3 -23.32) rotate(13.28)" gradientUnits="userSpaceOnUse">
      <stop offset=".57" stop-color="#151011"/>
      <stop offset=".8" stop-color="#151011"/>
      <stop offset="1" stop-color="#151011"/>
    </radialGradient>
    <radialGradient id="Super_Soft_Black_Vignette_3-2" data-name="Super Soft Black Vignette 3" cx="-9668.72" fx="-9668.72" r="8.16" gradientTransform="translate(-1869.78 -9318.84) rotate(-103.28) scale(1 -1)" xlink:href="#Super_Soft_Black_Vignette_3"/>
  </defs>
  <g id="CAPYBARA">
    <g>
      <path class="cls-6" d="m338.3,482.97c-.86-.92-2.28-1.2-3.29-1.97-.81-.62-1.21-1.45-1.91-2.21-1.01,1.1-.32,3.01-.67,4.42-.37,1.5-.51,2.49-.54,4.09-.03,1.59-.05,2.09-1.71,1.79-1.11-.2-1.88-1.38-2.69-2-4.07-3.13-3.73,3.05-3.21,5.76.48,2.57.79,5.2,1.25,7.75.23,1.35.78,2.5.81,3.93-.79-.87-1.58-1.75-2.32-2.68.65,3.39-1.57,6.38-2.06,9.53-.16,1.05.32,1.83-.63,2.63-1.39,1.15-1.55-.41-2.57-.4-2.2.02-2.55,4.92-2.96,6.68-.28,1.24.05,3.11-1.57,3.61-1.19.36-1.62-.41-2.26-1.37-1.45.8-2.68,4.18-3.39,5.73-.67,1.49-1.19,4.03-2.3,5.21-2.98,3.2-3.14-5.67-5.84-3.83-1.86,1.27-1.45,6.79-1.81,8.78-.14.78-.51,1.46-.65,2.26-.14.74.17,1.21-.31,1.88-1.28,1.82-2.54-.15-3.56-1.16-1.16-1.13-2.5-2.09-3.7-3.18-1.23,1.96-1.75,4.53-2.47,6.74-.37,1.16-.68,3.16-1.91,3.57-1.3.44-2.5-1.03-3.24-1.92-.43-.52-.74-1.27-1.2-1.72-.36-.35-.91-.2-1.26-.7-.35,2.72-1.14,5.32-1.39,8.03-.14,1.41-1.05,2.74-.64,4.19-.41-1.49-2.63-3.63-3.77-4.79-1.94-1.96-2.29.98-3.56,2.68-.81,1.08-2.57,2.79-4.04,2.21-1.97-.76-1.83-3.97-2.51-5.5-1.62-3.64-3.28-.8-4.41,1.77-.97,2.19-2.21,4.11-4.01,5.71-1.26,1.13-3.27,1.6-4.98.93-1.89-.74-2.17-3.59-3.88-4.07-1.56.74-1.03,4.36-2.76,5.38-1.07.62-1.1-.14-2.06-.44-1.58-.5-2.37.55-3.56.82-.74.17-2.57.23-3.24-.07-.71-.32-.63-.85-1.19-1.3-.33-.27-.9-.12-1.24-.31-2.26-1.21-4.51-2.09-6.38-3.98-1.51,1.52-2.66,4.13-3.78,6-.57.95-1.23,2.8-2.59,2.68-.96-.09-1.72-1.71-2.82-1.81-1.11-.1-1.05.42-1.81,1.27-.95,1.05-1.42,1.13-2.73,1.2-2.3.12-4.91-.35-6.93-1.31-.74-.36-1.44-.88-2.23-.98-1.16-.15-2.04,1.16-3.23.85-1.63-.43-3.8-3.73-4.58-4.92-1.88-2.85-2.57,1.84-4.02,3.23-2.89,2.79-2.59-1.17-3.86-2.67-.76,1.62-1.43,3.18-2.27,4.71-.44.8-.31,1.48-1.29,1.82-.73-1.75-.39-5.75-3.41-3.82-1.01.65-1.74,2.09-2.57,2.99-.43-.27-.87-.55-1.32-.86-.44.31-.89.59-1.32.86-.83-.91-1.56-2.34-2.57-2.99-3.02-1.93-2.68,2.06-3.41,3.82-.99-.34-.86-1.02-1.29-1.82-.84-1.54-1.51-3.09-2.27-4.71-1.28,1.5-.97,5.46-3.86,2.67-1.45-1.39-2.13-6.09-4.02-3.23-.78,1.19-2.95,4.49-4.58,4.92-1.2.32-2.08-.99-3.23-.85-.79.1-1.49.62-2.23.98-2.02.96-4.63,1.43-6.93,1.31-1.31-.07-1.79-.15-2.73-1.2-.76-.85-.7-1.37-1.81-1.27-1.1.1-1.86,1.72-2.82,1.81-1.37.12-2.02-1.73-2.59-2.68-1.12-1.87-2.27-4.48-3.78-6-1.87,1.89-4.11,2.77-6.38,3.98-.35.19-.91.04-1.24.31-.56.45-.48.99-1.19,1.3-.67.3-2.5.24-3.24.07-1.2-.27-1.98-1.32-3.56-.82-.96.31-.99,1.07-2.06.44-1.74-1.01-1.2-4.64-2.76-5.38-1.71.48-1.99,3.33-3.88,4.07-1.71.67-3.72.2-4.98-.93-1.8-1.59-3.04-3.52-4.01-5.71-1.12-2.57-2.78-5.41-4.41-1.77-.68,1.53-.54,4.74-2.51,5.5-1.47.57-3.23-1.13-4.04-2.21-1.28-1.71-1.62-4.64-3.56-2.68-1.15,1.16-3.36,3.3-3.77,4.79.41-1.45-.5-2.77-.64-4.19-.25-2.72-1.04-5.32-1.39-8.03-.36.5-.9.36-1.26.7-.46.45-.77,1.2-1.2,1.72-.74.88-1.94,2.36-3.24,1.92-1.23-.41-1.54-2.42-1.91-3.57-.72-2.21-1.24-4.79-2.47-6.74-1.2,1.1-2.55,2.05-3.7,3.18-1.03,1.01-2.29,2.98-3.56,1.16-.48-.66-.17-1.13-.31-1.88-.15-.8-.52-1.48-.65-2.26-.36-1.99.05-7.51-1.81-8.78-2.7-1.83-2.86,7.03-5.84,3.83-1.11-1.18-1.62-3.73-2.3-5.21-.7-1.55-1.93-4.93-3.39-5.73-.63.96-1.07,1.74-2.26,1.37-1.62-.5-1.29-2.38-1.57-3.61-.4-1.75-.76-6.65-2.96-6.68-1.02,0-1.18,1.55-2.57.4-.95-.79-.47-1.58-.63-2.63-.49-3.15-2.71-6.14-2.06-9.53-.74.93-1.53,1.8-2.32,2.68.02-1.43.57-2.58.81-3.93.46-2.55.77-5.18,1.25-7.75.52-2.72.86-8.89-3.21-5.76-.81.61-1.58,1.79-2.69,2-1.66.3-1.67-.19-1.71-1.79,0-.29-.02-.56-.03-.81,2.58,1.33,4.05-2.85,5.52-4.59,1.52-1.81,3.97-4.28,6.39-4.54.32,2.27,1.37,4.33,1.62,6.58.13,1.3.61,2.47.78,3.77.14.96-.5,2.66.97,2.84.88.11,1.64-1.67,2.96-.92.82.46,1.01,3.14,1.16,4.04.24,1.45-.8,8.48,2.68,6.22,1.01-.65,1.61-2.18,2.55-3.04.78-.71,2.5-2.8,3.73-2.95,1.87-.23,4.25,1.24,5.19,2.66,1,1.52,2.28,4.78,4.45,3.33,1.76-1.17,2.57-6.43,5.06-6.22.1.79.54,1.43.7,2.15.19.91-.02,1.93.29,2.81.44,1.25,2.09,3.23,3.56,3.23,2.44,0,4.96-3.67,6.14-5.28,1.37-1.84,2.76-3.56,3.49-5.77.15,1.23.65,2.42,1.52,3.31,1.96-5.07,2.99-10.1,4.24-15.39,1.04-4.44,2.93-7.99,2.04-12.55-.55-2.83-.26-5.21.21-8.01.27-1.68.57-4.45,0-6.11-.85-2.57-3.73-2.55-5.59-1.51-1.41-.9-.82-3.26-.91-4.6-.09-1.47-.66-2.82-.78-4.29-.19-2.27-.22-4.29-2.94-4.41-1.38-.06-3.18.41-4.49.06-1.3-.36-3.14-1.75-4.43-2.45-3.83-2.05-3.35-5.11-4.96-8.71-.43-.96-.78-1.59-.97-2.61.02-.38.04-.76.06-1.14-.05-.41-.26-.7-.64-.85-.16-.93.42-2.05.57-3.03.53,2.06.86,4.74,2.86,5.13.3-.97.51-3.18-.17-4.14,1.34,1.57,3.12,3.35,5.12,3.7,1.79.32,3.01-.69,4.7-.91.24-1.22.3-2.16.8-3.34,1.45,1.39,5.7,4.48,7.84,3.9,1.64-.44,3.6-4.59,3.22-6.22.96,1.58,2.66,3.9,4.52,4.35,1.2.29,3.43.09,4.67-.19,1.51-.35,2-1.12,3.06-2.09.81-.74,1.99-1.1,2.68-1.91,1.77,1.45,2.42,5.25,5.18,5.33,1.79.06,3.67-1.87,5.16-2.64,2.13-1.12,3.97-2.39,5.82-3.92,1.14-.95,1.62-2.05,3.15-.6,1,.95,1.08,2.34,2.17,3.22,2.14,1.73,4.04-.09,6.31-.21,2.48-.12,4.43.18,6.61.82,1.17.35,1.29,1.03,2.67.33,1.87-.95,2.26-1.88,4.69-1.92,2.32-.04,5.35-.26,7.19-1.82.65-.55,1.17-1.58,1.95-1.73.94-.18,3.06.74,3.79,1.3.36-1.16,1.61-3.69.36-4.44,1.29.06,2.93.38,4.17.03.44-2.07-.09-3.92-.49-5.92-.45-2.21-.31-4.46-.76-6.7-.58-2.93,1.12-4.87-.1-7.67-2.03-4.7-5.63-8.41-8.5-12.61-1.71-2.51-2.35-5.15-3.6-7.87-.59-1.3-.76-1.69-2.02-2.23-.88-.37-1.83-.42-2.55-1.15-1.44-1.45-2.05-5.08-2.49-6.99-.64-2.8-.74-5.54-1.03-8.37,2.3.26,2.82,4.07,3.76,5.59.88,1.45,2.86,2.85,4.53,3.36,2.89.91,4.96-2.68,4.41-5.27,1.79,3.64,3.11,9.02,7.76,9.81,4.33.74,2.69-3.44,4.68-5.74,1.95,3.11,1.02,7.41,3.73,10.28.49.52,1.54,1.81,2.47,1.54.88-.27.75-1.49,1.46-2.15-.08,2.48-.58,5.74.48,8.03.36.78,2.1,3.12,3.18,2.84,1.54-.4,1.7-4.55,2.02-5.67.33-1.14.98-5.08,2.12-5.74,2.4-1.41,5.59,5.29,8.08,5.98,2.29.65,4.08-.86,5.21-2.7.91-1.48,3.65-4.61,3.31-6.47.37,1.92.27,3.35,2.23,3.77,1.52.32,2.57-.47,3.73-1.47,1.56-1.36,2.84-3.06,4.49-4.35,1.8-1.42,1.76-.95,3.09.26,3.13,2.85,5.46-1.03,6.88-3.44,1.77-3.02,3.44-6.23,5.25-9.16-1.29,2.35-1.71,5.21-3.08,7.65-1.94,3.48-3.98,7.21-6.41,10.36-1.79,2.33-4.07,4.56-6.08,6.66-1.43,1.5-1.84,1.9-2.47,4.04-2.32,8.04-5.44,16.33-11.93,22.07.27,1.52,1.71,1.14,2.86,1.26,1.96.2,1.36.79,1.56,2.64.32,3.03-.22,4.95-1.56,7.71-1.08,2.23-3.18,5.38-3.1,7.94.41-.66.99-.85,1.74-.57.02,2.74-1.17,4.95-1.84,7.57-.3,1.19-.87,2.35-.36,3.56,1.83-.48,4.31-3.23,5.63-4.57,1.06-1.08.84-1.69,2.39-.61.95.65,1.3,1.72,1.83,2.66,1.12,1.97,2.01,3.33,4.24,2.08,1.6-.91,3.78-2.28,4.99-3.63,4.46,4.35,5.03-7.65,9.25-2.93.97,1.08.86,4.03,2.06,4.75,1.75,1.07,2.62-1.95,3.66-2.63,2.97,2.33,4.57,3.72,7.68.89,1.39-1.26,4.37-4.05,6.34-2.21.91.86.67,2.61,1.41,3.61.6.82,2.04,1.79,3,1.97,2.86.58,4.7-.64,7.04-1.84,1.16-.6,5.51-3.06,6.71-2.65,1.38.46.68,1.69,1.59,2.45,1.03.86,1.68-.26,2.42-1.1,1.12-1.26,1.45-2.84,2.68-3.96,1.22-1.11,1.99-2.17,3.09-3.36.91-.98,2.03-1.44,3.17-2.19,1.2-.79,1.68-2.05,2.81-2.81,1.01,2.61-.74,5.29-1.71,7.59-1.71,4.07-3.2,8.24-4.83,12.34-1.41,3.56-3.13,7.28-4.84,10.69-.72,1.43-2.02,3.24-2.44,4.79-.49,1.82.44,3.43-.27,5.35-1.5,4.13-3.23,8.25-4.89,12.33-.52,1.27-6.26,12.29-1.94,12.08-.95,1.88-.62,4.57-1.16,6.63-.61,2.31-1.19,4.16-1.49,6.47-.12.93-.65,1.79-.64,2.71,0,.7.47,1.2.64,1.9.11.47-.22,1.08.08,1.54.49.76,1.11.36,1.75.69,3.02,1.58,1.08,7.27,4.07,9.27,1.43.95,4.87-1.85,5.98-3.1-.29,1.67.85,3.82,1.37,5.33.41,1.16.52,1.68,1.72,2.33,1.8-1.13,3.23-4.65,5.59-4.05,1.44.37,3.76,3.22,4.66,4.33,1.07,1.33,2.03,2.85,3.68,1.48.84-.7,1.47-3.71,1.56-5.18,2.55.15,5.38,7.07,8.08,3.27,1.07-1.52.67-3.18.72-4.94.03-1.54.3-5.38,1.37-6.56,3.9.54,4.68,7.23,8.12,2.29,2.06-2.96,3.18-7.48,4.01-10.99,1.36,1.67,2.4,6.17,5.06,3.43,1.04-1.08,1.88-2.95,2.52-4.31,1.03-2.14,1.84-3.94,3.23-5.94,2.89-4.17,5.33-8.67,8.52-12.63,1.24-1.54,2.78-3.31,4.41-4.45,2.4-1.67,5.12-1.97,7.8-2.89.43-.15.87-.31,1.33-.48-.16,2.84.75,5.97,1.2,8.62.43,2.5,1.17,5.35,1.12,7.88Z"/>
      <path class="cls-8" d="m348.12,437.84c.6,1.18,1.73,2.4,1.36,3.8-1.34.2-2.41-1.86-3.54-1.53-.97.28-.49.74-.65,1.58-.41,2.12.24,4.48.57,6.48.21,1.31.06,2.6.31,3.9.29,1.58.89,3.45.74,5.08-.16,1.73-.79,1.88-2.34.49-.75-.67-1.62-2.64-2.77-2.69-2.05-.07-1.44,3.15-1.44,4.5,0,.79.38,3.9.12,5.29-.05.27-.12.46-.23.57-.47.5-1.06.41-1.67.16-.86-.35-1.75-1.03-2.34-.78-.15.57-.23,1.16-.26,1.77-.45.17-.9.33-1.33.48-2.68.92-5.4,1.22-7.8,2.89-1.63,1.13-3.17,2.9-4.41,4.45-3.18,3.96-5.63,8.46-8.52,12.63-1.38,2-2.2,3.8-3.23,5.94-.65,1.36-1.48,3.23-2.52,4.31-2.66,2.74-3.7-1.75-5.06-3.43-.83,3.5-1.95,8.03-4.01,10.99-3.44,4.94-4.22-1.75-8.12-2.29-1.07,1.17-1.33,5.02-1.37,6.56-.05,1.75.36,3.42-.72,4.94-2.69,3.81-5.52-3.12-8.08-3.27-.09,1.47-.72,4.49-1.56,5.18-1.65,1.37-2.61-.15-3.68-1.48-.9-1.12-3.22-3.96-4.66-4.33-2.36-.6-3.79,2.92-5.59,4.05-1.2-.65-1.31-1.16-1.72-2.33-.53-1.5-1.67-3.66-1.37-5.33-1.12,1.25-4.55,4.06-5.98,3.1-2.99-2-1.05-7.7-4.07-9.27-.64-.33-1.26.07-1.75-.69-.3-.46.03-1.08-.08-1.54-.17-.7-.64-1.2-.64-1.9,0-.92.52-1.78.64-2.71.3-2.31.88-4.16,1.49-6.47.53-2.06.21-4.74,1.16-6.63-4.32.2,1.42-10.82,1.94-12.08,1.67-4.07,3.39-8.2,4.89-12.33.7-1.92-.23-3.53.27-5.35.42-1.55,1.72-3.36,2.44-4.79,1.71-3.4,3.43-7.13,4.84-10.69,1.62-4.1,3.11-8.27,4.83-12.34.97-2.3,2.72-4.98,1.71-7.59-1.13.76-1.62,2.02-2.81,2.81-1.14.75-2.26,1.21-3.17,2.19-1.1,1.19-1.87,2.26-3.09,3.36-1.24,1.12-1.56,2.7-2.68,3.96-.74.84-1.39,1.96-2.42,1.1-.91-.76-.21-1.99-1.59-2.45-1.2-.4-5.55,2.05-6.71,2.65-2.34,1.2-4.18,2.42-7.04,1.84-.96-.19-2.4-1.15-3-1.97-.74-1-.5-2.76-1.41-3.61-1.96-1.83-4.95.95-6.34,2.21-3.11,2.83-4.7,1.44-7.68-.89-1.04.68-1.91,3.69-3.66,2.63-1.2-.73-1.09-3.67-2.06-4.75-4.22-4.73-4.79,7.27-9.25,2.93-1.2,1.35-3.39,2.72-4.99,3.63-2.23,1.25-3.12-.11-4.24-2.08-.53-.94-.88-2-1.83-2.66-1.55-1.08-1.33-.47-2.39.61-1.32,1.34-3.79,4.08-5.63,4.57-.51-1.21.06-2.38.36-3.56.67-2.62,1.86-4.83,1.84-7.57-.75-.28-1.33-.1-1.74.57-.09-2.56,2.02-5.71,3.1-7.94,1.34-2.76,1.88-4.68,1.56-7.71-.2-1.85.4-2.44-1.56-2.64-1.16-.12-2.59.26-2.86-1.26,6.49-5.74,9.61-14.02,11.93-22.07.62-2.14,1.03-2.55,2.47-4.04,2.01-2.1,4.28-4.33,6.08-6.66,2.43-3.15,4.47-6.89,6.41-10.36,1.37-2.44,1.79-5.29,3.08-7.65-1.8,2.93-3.48,6.14-5.25,9.16-1.41,2.41-3.75,6.29-6.88,3.44-1.33-1.21-1.29-1.68-3.09-.26-1.65,1.29-2.93,2.99-4.49,4.35-1.16,1-2.21,1.79-3.73,1.47-1.96-.42-1.86-1.85-2.23-3.77.33,1.87-2.4,5-3.31,6.47-1.13,1.83-2.93,3.35-5.21,2.7-2.49-.7-5.67-7.39-8.08-5.98-1.14.66-1.79,4.6-2.12,5.74-.32,1.12-.48,5.26-2.02,5.67-1.08.28-2.81-2.05-3.18-2.84-1.07-2.3-.57-5.55-.48-8.03-.71.66-.58,1.88-1.46,2.15-.92.27-1.97-1.03-2.47-1.54-2.71-2.87-1.78-7.17-3.73-10.28-1.99,2.3-.35,6.48-4.68,5.74-4.65-.79-5.97-6.18-7.76-9.81.55,2.59-1.52,6.18-4.41,5.27-1.67-.52-3.65-1.91-4.53-3.36-.94-1.53-1.45-5.34-3.76-5.59.3,2.83.4,5.56,1.03,8.37.44,1.91,1.05,5.55,2.49,6.99.73.73,1.67.78,2.55,1.15,1.26.54,1.43.93,2.02,2.23,1.25,2.72,1.89,5.37,3.6,7.87,2.87,4.2,6.47,7.91,8.5,12.61,1.21,2.8-.49,4.74.1,7.67.45,2.24.31,4.49.76,6.7.4,2,.93,3.85.49,5.92-1.24.35-2.88.03-4.17-.03,1.24.74,0,3.27-.36,4.44-.74-.57-2.85-1.48-3.79-1.3-.78.15-1.29,1.18-1.95,1.73-1.84,1.56-4.87,1.78-7.19,1.82-2.42.04-2.82.98-4.69,1.92-1.37.7-1.5.02-2.67-.33-2.18-.65-4.13-.95-6.61-.82-2.27.12-4.17,1.94-6.31.21-1.08-.88-1.16-2.26-2.17-3.22-1.54-1.45-2.01-.35-3.15.6-1.85,1.53-3.69,2.8-5.82,3.92-1.5.78-3.38,2.7-5.16,2.64-2.76-.08-3.41-3.87-5.18-5.33-.7.81-1.88,1.16-2.68,1.91-1.06.97-1.55,1.75-3.06,2.09-1.24.28-3.47.49-4.67.19-1.86-.44-3.56-2.76-4.52-4.35.39,1.62-1.58,5.77-3.22,6.22-2.14.58-6.39-2.51-7.84-3.9-.5,1.18-.56,2.12-.8,3.34-1.69.22-2.91,1.22-4.7.91-2-.36-3.78-2.13-5.12-3.7.68.96.47,3.17.17,4.14-2-.4-2.34-3.07-2.86-5.13-.15.99-.73,2.1-.57,3.03.38.15.59.44.64.85-.02.38-.05.76-.06,1.14.19,1.02.54,1.65.97,2.61,1.61,3.6,1.13,6.65,4.96,8.71,1.29.7,3.13,2.09,4.43,2.45,1.31.36,3.1-.11,4.49-.06,2.72.12,2.76,2.14,2.94,4.41.12,1.47.7,2.82.78,4.29.09,1.34-.5,3.7.91,4.6,1.85-1.04,4.74-1.06,5.59,1.51.56,1.67.27,4.43,0,6.11-.47,2.8-.76,5.18-.21,8.01.89,4.56-.99,8.11-2.04,12.55-1.25,5.29-2.29,10.32-4.24,15.39-.86-.9-1.37-2.09-1.52-3.31-.74,2.21-2.13,3.93-3.49,5.77-1.19,1.61-3.7,5.27-6.14,5.28-1.47,0-3.13-1.97-3.56-3.23-.32-.88-.1-1.91-.29-2.81-.16-.72-.61-1.36-.7-2.15-2.49-.21-3.3,5.05-5.06,6.22-2.17,1.45-3.45-1.81-4.45-3.33-.94-1.42-3.32-2.89-5.19-2.66-1.24.15-2.96,2.24-3.73,2.95-.94.86-1.54,2.38-2.55,3.04-3.48,2.26-2.44-4.77-2.68-6.22-.15-.9-.34-3.58-1.16-4.04-1.32-.75-2.08,1.03-2.96.92-1.47-.18-.83-1.88-.97-2.84-.17-1.29-.65-2.47-.78-3.77-.24-2.25-1.3-4.31-1.62-6.58-2.43.27-4.87,2.73-6.39,4.54-1.47,1.75-2.94,5.92-5.52,4.59-.06-1.16-.2-2.05-.51-3.28-.36-1.41.34-3.32-.67-4.42-.7.76-1.1,1.58-1.91,2.21-1.01.77-2.42,1.05-3.29,1.97-.06-2.53.69-5.38,1.12-7.88.54-3.21,1.76-7.13.94-10.39-.99-.42-2.87,1.83-4,.61-.64-.7-.11-4.92-.11-5.86,0-1.35.61-4.58-1.44-4.5-1.15.05-2.02,2.02-2.77,2.69-1.54,1.38-2.17,1.24-2.34-.49-.15-1.62.45-3.5.74-5.08.24-1.3.1-2.59.31-3.9.32-2,.98-4.36.57-6.48-.16-.83.32-1.29-.65-1.58-1.13-.33-2.2,1.73-3.54,1.53-.37-1.4.76-2.62,1.36-3.8.92-1.83,1.21-3.83,1.84-5.77.99-3.03,3.51-8.5,2.29-11.78-2.23-.62-3.45,1.12-5.52,1.36-.57-1.23,1.12-2.96,2.38-4.37l7.23,6.63c1.41-.19,2.17-.91,2.77-2.13,1.92,3.8.74,9.47,1.29,13.59.33,2.47.07,5.83,2.42,7.29,1.21.75,2.52.74,3.72-.36.58-.54,1.07-1.35,1.67-1.93.4-.38.91-.53,1.06-.99.95,1.48,6.62,10.96,9.52,7.7.86,1.33.31,2.75.5,4.16.15,1.02.61,1.88.78,2.9.18.96.14,1.5.54,2.4.6,1.33.06.97,1.16,1.39.75.28,1.45-.24,2.23.82.73.99.61,2.22.53,3.41-.09,1.38-.54,2.64-.71,4-.1.76,0,1.58.02,2.37-.86.74-1.32,1.83-.24,2.08.24-.65.27-1.36.24-2.08.66-.57,1.57-.93,2.19-.52,1.38.92,1.69,4.24,3.84,4.69.74.16,1.96-.21,2.6-.74.92-.75,1.79-4.3,2.69-4.26.95.04,1.97,3.64,2.37,4.39.91,1.72,2.49,3.42,4.39,3.74,1.61.27,2.53-.11,3.78-.77,1.77-.93,2.18-2.4,3.78-3.53,1.09.82,1.92,2.13,2.98,2.78,1.18-2.07,2.64-3.77,3.73-5.93.79-1.57,1.78-2.93,2.61-4.41,1.88-3.33-.73-6.95-1.52-9.81-.61-2.21-.07-4.31-.91-6.54-.62-1.64-1.34-2.17-2.39-3.43-1.56-1.88-1.72-4.41-3.72-6.08-.41-.35-1.29-.55-1.8-.91-1.03-.71-2.13-1.59-3.08-2.41-2.75-2.4-2.5-5.45-3.26-8.67-.14-.57-.53-1.44-.76-2.01-.65-1.67-.69-3.59-.6-5.6.11-2.03.72-3.94.82-5.97.05-.99.46-4.04.02-5.02-.36-.8-.53-.78-1.52-.73-1.32.07-1.29.58-2.42.25-1.83-.55-2.14-2.21-2.78-3.9-.89-2.38-1.81-8.9-.11-10.91-1.2-1.29-2.18-1.69-1.98-3.45.31-2.59,1.93-4.99,2.13-7.52.36-4.61-5.31.97-7.35.34-.55-1.7.56-4.9,1.01-6.63.33-1.27-.04-3.66.84-4.67-1.15-1.19-3.44-.28-4.93-.51-1.45-.21-1.33.06-1.5-1.46-.13-1.16.44-2.25.68-3.36.53-2.44,1.96-5.02,2.26-7.45.43-3.41-1.81-.64-3.58-1.1-.23-3.18,1.92-6.62,2.91-9.53.78-2.27.97-5.31,2.25-7.32-.08,1.93-.27,3.38.69,5,1.07,1.83,1.95,3.47,2.61,5.54.7,2.21.94,4.62,1.84,6.73.47,1.09,2.13,3.33,3.11,1.07,2.7,1.36,2.08,5.35,2.07,7.79,0,2.34.06,6.39,1.16,8.61,1.82,3.65,4.14-.06,5.3-1.92,1.88.68,2.43,4.61,3.01,6.46.7,2.3.63,3.87,3.02,4.79.27-.8.21-1.54.64-2.29,1.31,2.8.99,6.05,2.05,8.81.44,1.15,1.34,2.13,2.43,2.53,1.78-2.4,1.15-6.07,1.8-8.83,1.21.31,2.82,5.5,3.57,6.71.86,1.38,2.04,2.01,3.71,1.34,1.89-.75,2.37-3.14,3.66-4.38,1.82-1.75,2.37.03,3.15,1.5.86,1.6,4.2,9.45,6.73,8.45,1.15-.46,1.45-3.05,1.65-4.03.4-1.86,1.06-3.76,1.2-5.58,1.78,2.28,2.17,5.45,3.78,7.73.43.61,2.53,2.21,3.23,2.24,1.03.06,3.16-.8,4.03-1.34.91-.57,1.82-1.94,2.74-2.23.5,1.45,1.62,5.18,3.39,3,1.06-1.3,1.04-4.45,1.31-6.01,1.38.4,2,1.7,3.15,2.42.74.48,1.2.46,1.98.75,1.06.39,2.54.97,3.71.98,1.12,0,2.31-.72,3.27-1.16.56-.24,2.55-.91,2.75-1.39,1.22.06,2.56.91,3.53,1.59.59.42.32,1.33,1.38,1.22,1.57-2.75,2.86-5.59,3.73-8.7.24-.88.81-1.49.99-2.25.26-1.09-.57-2.42-.79-3.65-.02-.25-.03-.5-.05-.76-.02.25,0,.5.05.76.03.65.02,1.27-.19,1.89-1.01-.94-.78-3.23-1.48-4.5-.79-1.42-1.29-2-2.78-1.84-.76.08-1.01.36-1.88.23-.51-.06-1.33-.25-1.85-.38-1.26-.3-2.52-1.03-3.67-1.65-1.65-.89-3.49-2.09-4.52-3.71-1.16-1.81-1.54-4-2.77-5.85-1.32-2-3.94-2.55-4.46-4.8-.6-2.61-.11-5.31-.7-7.95-.28-1.24-.18-3.13-1.63-3.56-1.59-.47-2.81,1.43-3.86,2.26-1.67,1.33-3.61,3.14-5.49,4.1-3.61,1.85-2.58-4.57-2.18-6.37.27-1.27.94-4.23.34-5.54-.95-2.1-1.69-.49-2.95-.29-1.03-1.33-1.11-4.3-1.41-6.05-.32-1.87.31-3.86-.21-5.71-.3-1.08-1.07-2.5-1.88-3.3-.79-.78-1.85-.96-2.46-1.83-1.92-2.73-.06-7.21-.77-10.22-.7-2.97-3.77-1.85-5.87-1.26-3.08.86-2.2-2.09-2.22-4.27-.02-1.72.21-3.18.74-4.83.68-2.11.75-4.01.74-6.2,0-1.07.33-2.85.04-3.86-.09-.29-.63-.7-.65-.82-.17-1.08.13-1.76.6-2.85,2.23-5.1,5.24-9.68,6.95-14.94.1,1.3-.8,2.47-1.2,3.67-.5,1.52-.88,3.05-1.14,4.63-.23,1.44-.57,3.56.26,4.83,1.77,2.69,4.28-1.51,5.9-2.28,2.3-1.1,1.87,1.85,1.86,3.35-.02,3-.64,5.79-.79,8.75-.15,2.89.08,6.57,3.74,4.98,1.74-.75,4.22-3.54,5.88-1.45.65.82,1.04,3,1.35,4.01.38,1.22.66,4.95,1.62,5.68,2.58,2,4.23-3.61,5.42.97.29,1.13.28,3.13,1.08,3.96.82.84,1.94.15,2.67,1.12.28.09.44,0,.48-.28.94.99,1.84,1.22,3,1.68.97.4,1.23.53,2.05,1.33.49.48.87,1.31,1.69,1.26,2.42-.15,1.47-4.61,4.32-3.45,1.82.74,2.6,3.7,4.91,3.31,1.49-.26,4.42-4.38,4.78-5.72,2.31,4.41,4.78,2.38,7.44,0,1.71.91,1.71,4.96,4.11,2.8,1.75-1.58,1.67-5.04,2.21-7.07.69-2.56,1.69-4.72,1.82-7.36.08-1.6,1.14-3.31.84-4.91-.27-1.5-.87-1.54-.16-2.9-.84.62-.8,1.95-1.45,2.61.4-2.55,1.33-5.18.69-7.79-1.13.57-2.43,4.09-3.76,4.29-1.11.17-2.52-2.94-2.8-3.6-.48-1.15-.85-4.66-2.17-5.11-.72-.25-1.59.52-2.26.69-.91.23-1.9.42-2.82.65-1.12-1.72-.72-3.13-.95-5.08-.28-2.41-.59-5.42-1.57-7.66-.78-1.78-1.88-3.12-3.93-2.69-1.72.36-2.09,1.21-3.52,0-.84-.72-2.25-2.84-2.64-3.87-.56-1.46-.14-2.82-.85-4.34-.72-1.57-1.38-2.85-1.74-4.59-.64-3.09-1.15-6.56-1.3-9.71-.08-1.66.24-3.39.08-5.04-.11-1.01-.76-1.89-.75-2.86,1.83-.2,3.48,1.93,5.33,2.21,2.68.42,5.42-1.07,7.97-1.7,6.94-1.71,14.45-1.97,21.48-.57,1.27.26,2.54.51,3.8.76v-14.1h22.21v14.19c1.42-.28,2.85-.57,4.28-.86,7.03-1.41,14.55-1.15,21.49.57,2.55.63,5.29,2.12,7.97,1.7,1.84-.28,3.49-2.42,5.33-2.21,0,.97-.65,1.85-.75,2.86-.16,1.65.16,3.38.08,5.04-.15,3.14-.66,6.62-1.3,9.71-.36,1.74-1.02,3.02-1.74,4.59-.71,1.52-.29,2.88-.85,4.34-.4,1.03-1.8,3.15-2.64,3.87-1.42,1.22-1.79.37-3.52,0-2.05-.43-3.15.91-3.93,2.69-.98,2.25-1.29,5.25-1.57,7.66-.23,1.96.17,3.36-.95,5.08-.92-.23-1.92-.41-2.82-.65-.66-.17-1.54-.94-2.26-.69-1.33.45-1.69,3.96-2.17,5.11-.27.65-1.69,3.77-2.8,3.6-1.33-.2-2.63-3.72-3.76-4.29-.64,2.61.28,5.24.69,7.79-.65-.66-.61-1.99-1.46-2.61.71,1.36.11,1.41-.16,2.9-.3,1.6.76,3.31.84,4.91.13,2.64,1.13,4.79,1.82,7.36.54,2.04.45,5.49,2.21,7.07,2.4,2.17,2.4-1.88,4.11-2.8,2.66,2.38,5.12,4.41,7.44,0,.36,1.34,3.29,5.46,4.78,5.72,2.3.4,3.09-2.56,4.91-3.31,2.85-1.16,1.9,3.31,4.32,3.45.82.05,1.2-.78,1.69-1.26.82-.81,1.08-.94,2.05-1.33,1.16-.46,2.06-.69,3-1.68.04.28.2.37.49.28.73-.98,1.85-.28,2.67-1.12.8-.83.79-2.83,1.08-3.96,1.2-4.58,2.85,1.03,5.42-.97.95-.74,1.24-4.46,1.62-5.68.31-1.01.7-3.19,1.35-4.01,1.66-2.09,4.14.7,5.88,1.45,3.66,1.59,3.89-2.09,3.74-4.98-.15-2.97-.78-5.76-.79-8.75,0-1.5-.44-4.45,1.86-3.35,1.62.77,4.13,4.97,5.9,2.28.83-1.26.49-3.39.26-4.83-.26-1.58-.64-3.11-1.14-4.63-.4-1.2-1.31-2.37-1.2-3.67,1.71,5.26,4.72,9.84,6.95,14.94.47,1.08.77,1.77.6,2.85-.02.11-.56.53-.65.82-.29,1.01.05,2.79.04,3.86,0,2.19.06,4.09.74,6.2.53,1.64.76,3.1.74,4.83-.02,2.18.86,5.12-2.22,4.27-2.1-.59-5.17-1.71-5.87,1.26-.71,3.01,1.15,7.49-.77,10.22-.61.86-1.67,1.05-2.46,1.83-.81.8-1.58,2.21-1.88,3.3-.52,1.85.11,3.84-.21,5.71-.3,1.75-.37,4.71-1.41,6.05-1.26-.2-2-1.81-2.95.29-.6,1.31.06,4.27.34,5.54.4,1.8,1.43,8.22-2.18,6.37-1.88-.95-3.82-2.77-5.49-4.1-1.04-.82-2.26-2.72-3.86-2.26-1.45.43-1.35,2.32-1.63,3.56-.59,2.64-.11,5.33-.7,7.95-.52,2.26-3.14,2.8-4.46,4.8-1.23,1.85-1.62,4.04-2.77,5.85-1.03,1.62-2.87,2.82-4.52,3.71-1.15.62-2.41,1.35-3.67,1.65-.53.13-1.34.32-1.85.38-.86.12-1.12-.15-1.88-.23-1.5-.15-1.99.42-2.78,1.84-.7,1.28-.47,3.56-1.48,4.5-.22-.62-.23-1.24-.19-1.89.06-.26.07-.51.05-.76-.02.26-.03.51-.05.76-.22,1.24-1.05,2.56-.79,3.65.18.76.74,1.37.99,2.25.86,3.1,2.16,5.95,3.73,8.7,1.06.11.79-.8,1.38-1.22.97-.68,2.31-1.53,3.53-1.59.19.48,2.19,1.15,2.75,1.39.96.44,2.15,1.16,3.27,1.16,1.17,0,2.65-.59,3.71-.98.78-.29,1.24-.27,1.98-.75,1.15-.73,1.77-2.02,3.15-2.42.27,1.57.25,4.71,1.31,6.01,1.78,2.18,2.89-1.55,3.39-3,.92.29,1.83,1.67,2.74,2.23.87.54,3,1.4,4.03,1.34.7-.03,2.8-1.62,3.23-2.24,1.62-2.28,2-5.45,3.78-7.73.15,1.82.81,3.72,1.2,5.58.2.98.5,3.56,1.65,4.03,2.54,1,5.87-6.85,6.73-8.45.78-1.46,1.33-3.25,3.15-1.5,1.29,1.24,1.77,3.63,3.66,4.38,1.67.67,2.85.04,3.71-1.34.75-1.21,2.36-6.4,3.57-6.71.65,2.76.02,6.43,1.8,8.83,1.09-.4,2-1.38,2.43-2.53,1.06-2.76.74-6.01,2.05-8.81.43.75.37,1.49.64,2.29,2.39-.92,2.32-2.5,3.02-4.79.57-1.85,1.13-5.78,3.01-6.46,1.16,1.86,3.48,5.58,5.3,1.92,1.1-2.21,1.17-6.27,1.16-8.61,0-2.44-.63-6.43,2.07-7.79.99,2.26,2.64.02,3.11-1.07.91-2.1,1.14-4.51,1.84-6.73.66-2.07,1.54-3.71,2.61-5.54.95-1.62.77-3.07.69-5,1.28,2,1.47,5.04,2.25,7.32.99,2.91,3.14,6.35,2.91,9.53-1.77.46-4.01-2.31-3.58,1.1.3,2.43,1.74,5.01,2.26,7.45.23,1.12.81,2.2.68,3.36-.16,1.53-.04,1.25-1.5,1.46-1.5.23-3.78-.68-4.93.51.88,1.01.51,3.4.84,4.67.45,1.73,1.56,4.93,1.01,6.63-2.04.63-7.7-4.95-7.35-.34.19,2.53,1.82,4.93,2.13,7.52.2,1.76-.78,2.17-1.98,3.45,1.7,2.01.78,8.53-.11,10.91-.64,1.7-.95,3.35-2.78,3.9-1.13.33-1.11-.18-2.42-.25-.99-.06-1.16-.07-1.52.73-.44.98-.03,4.03.02,5.02.1,2.03.71,3.94.82,5.97.1,2.01.06,3.94-.6,5.6-.23.57-.62,1.44-.76,2.01-.76,3.23-.51,6.27-3.26,8.67-.95.82-2.05,1.7-3.08,2.41-.52.36-1.39.56-1.8.91-2,1.67-2.16,4.2-3.72,6.08-1.05,1.26-1.77,1.79-2.39,3.43-.83,2.23-.29,4.32-.91,6.54-.79,2.86-3.39,6.48-1.52,9.81.83,1.47,1.82,2.84,2.61,4.41,1.08,2.16,2.55,3.86,3.73,5.93,1.06-.65,1.89-1.96,2.98-2.78,1.6,1.13,2.01,2.6,3.78,3.53,1.25.65,2.17,1.03,3.78.77,1.9-.32,3.48-2.02,4.39-3.74.4-.75,1.42-4.35,2.37-4.39.91-.04,1.77,3.51,2.69,4.26.65.53,1.87.9,2.6.74,2.15-.45,2.46-3.77,3.84-4.69.62-.41,1.53-.05,2.19.52-.02.72,0,1.42.24,2.08,1.08-.24.61-1.33-.24-2.08.02-.79.11-1.61.02-2.37-.17-1.36-.62-2.62-.71-4-.08-1.19-.2-2.42.53-3.41.78-1.07,1.48-.54,2.23-.82,1.11-.42.57-.06,1.16-1.39.4-.91.36-1.44.54-2.4.18-1.02.64-1.88.78-2.9.19-1.41-.36-2.84.5-4.16,2.9,3.26,8.57-6.22,9.52-7.7.15.47.66.61,1.06.99.6.58,1.08,1.39,1.67,1.93,1.2,1.11,2.51,1.12,3.72.36,2.35-1.46,2.09-4.83,2.42-7.29.55-4.12-.62-9.79,1.29-13.59.6,1.21,1.37,1.93,2.77,2.13l7.23-6.63c1.27,1.41,2.96,3.14,2.38,4.37-2.07-.23-3.29-1.98-5.52-1.36-1.22,3.28,1.29,8.75,2.29,11.78.63,1.94.92,3.94,1.84,5.77Z"/>
      <path class="cls-11" d="m42.1,468.53c.02.72,0,1.42-.24,2.08-1.08-.24-.61-1.33.24-2.08Z"/>
      <path class="cls-11" d="m141.34,380.31c.02.26.03.51.05.76-.06-.26-.07-.51-.05-.76Z"/>
      <path class="cls-11" d="m176.96,240.78v5.55c-.44-.07-.88-.14-1.33-.19-4.56-.57-9.02-1.49-13.54-2.4-7.03-1.41-14.55-1.15-21.48.57-2.55.63-5.29,2.12-7.97,1.7-1.84-.28-3.49-2.42-5.33-2.21,0,.97.65,1.85.75,2.86.16,1.65-.16,3.38-.08,5.04.15,3.14.66,6.62,1.3,9.71.36,1.74,1.02,3.02,1.74,4.59.71,1.52.29,2.88.85,4.34.4,1.03,1.8,3.15,2.64,3.87,1.42,1.22,1.79.37,3.52,0,2.05-.43,3.15.91,3.93,2.69.98,2.25,1.29,5.25,1.57,7.66.23,1.96-.17,3.36.95,5.08.92-.23,1.92-.41,2.82-.65.66-.17,1.54-.94,2.26-.69,1.33.45,1.69,3.96,2.17,5.11.27.65,1.69,3.77,2.8,3.6,1.33-.2,2.63-3.72,3.76-4.29.64,2.61-.28,5.24-.69,7.79.65-.66.61-1.99,1.45-2.61-.71,1.36-.11,1.41.16,2.9.3,1.6-.76,3.31-.84,4.91-.13,2.64-1.13,4.79-1.82,7.36-.54,2.04-.45,5.49-2.21,7.07-2.4,2.17-2.4-1.88-4.11-2.8-2.66,2.38-5.12,4.41-7.44,0-.36,1.34-3.29,5.46-4.78,5.72-2.3.4-3.09-2.56-4.91-3.31-2.85-1.16-1.9,3.31-4.32,3.45-.82.05-1.2-.78-1.69-1.26-.82-.81-1.08-.94-2.05-1.33-1.16-.46-2.06-.69-3-1.68-.04.28-.2.37-.48.28-.73-.98-1.85-.28-2.67-1.12-.8-.83-.79-2.83-1.08-3.96-1.2-4.58-2.85,1.03-5.42-.97-.95-.74-1.24-4.46-1.62-5.68-.31-1.01-.7-3.19-1.35-4.01-1.66-2.09-4.14.7-5.88,1.45-3.66,1.59-3.89-2.09-3.74-4.98.15-2.97.78-5.76.79-8.75,0-1.5.44-4.45-1.86-3.35-1.62.77-4.13,4.97-5.9,2.28-.83-1.26-.49-3.39-.26-4.83.26-1.58.64-3.11,1.14-4.63.4-1.2,1.31-2.37,1.2-3.67-1.71,5.26-4.72,9.84-6.95,14.94-.47,1.08-.77,1.77-.6,2.85.02.11.56.53.65.82.29,1.01-.05,2.79-.04,3.86,0,2.19-.06,4.09-.74,6.2-.53,1.64-.76,3.1-.74,4.83.02,2.18-.86,5.12,2.22,4.27,2.1-.59,5.17-1.71,5.87,1.26.71,3.01-1.15,7.49.77,10.22.61.86,1.67,1.05,2.46,1.83.81.8,1.58,2.21,1.88,3.3.52,1.85-.11,3.84.21,5.71.3,1.75.37,4.71,1.41,6.05,1.26-.2,2-1.81,2.95.29.6,1.31-.06,4.27-.34,5.54-.4,1.8-1.43,8.22,2.18,6.37,1.88-.95,3.82-2.77,5.49-4.1,1.04-.82,2.26-2.72,3.86-2.26,1.45.43,1.35,2.32,1.63,3.56.59,2.64.1,5.33.7,7.95.52,2.26,3.14,2.8,4.46,4.8,1.23,1.85,1.62,4.04,2.77,5.85,1.03,1.62,2.87,2.82,4.52,3.71,1.15.62,2.41,1.35,3.67,1.65.53.13,1.34.32,1.85.38.86.12,1.12-.15,1.88-.23,1.5-.15,1.99.42,2.78,1.84.7,1.28.47,3.56,1.48,4.5.22-.62.23-1.24.19-1.89.22,1.24,1.05,2.56.79,3.65-.18.76-.74,1.37-.99,2.25-.86,3.1-2.16,5.95-3.73,8.7-1.06.11-.79-.8-1.38-1.22-.97-.68-2.31-1.53-3.53-1.59-.19.48-2.19,1.15-2.75,1.39-.96.44-2.15,1.16-3.27,1.16-1.17,0-2.65-.59-3.71-.98-.78-.29-1.24-.27-1.98-.75-1.15-.73-1.77-2.02-3.15-2.42-.27,1.57-.25,4.71-1.31,6.01-1.78,2.18-2.89-1.55-3.39-3-.92.29-1.83,1.67-2.74,2.23-.87.54-3,1.4-4.03,1.34-.7-.03-2.8-1.62-3.23-2.24-1.62-2.28-2-5.45-3.78-7.73-.15,1.82-.81,3.72-1.2,5.58-.2.98-.5,3.56-1.65,4.03-2.54,1-5.87-6.85-6.73-8.45-.78-1.46-1.33-3.25-3.15-1.5-1.29,1.24-1.77,3.63-3.66,4.38-1.67.67-2.85.04-3.71-1.34-.75-1.21-2.36-6.4-3.57-6.71-.65,2.76-.02,6.43-1.8,8.83-1.09-.4-2-1.38-2.43-2.53-1.06-2.76-.74-6.01-2.05-8.81-.43.75-.37,1.49-.64,2.29-2.39-.92-2.32-2.5-3.02-4.79-.57-1.85-1.13-5.78-3.01-6.46-1.16,1.86-3.48,5.58-5.3,1.92-1.1-2.21-1.17-6.27-1.16-8.61,0-2.44.63-6.43-2.07-7.79-.99,2.26-2.64.02-3.11-1.07-.91-2.1-1.14-4.51-1.84-6.73-.66-2.07-1.54-3.71-2.61-5.54-.95-1.62-.77-3.07-.69-5-1.28,2-1.47,5.04-2.25,7.32-.99,2.91-3.14,6.35-2.91,9.53,1.77.46,4.01-2.31,3.58,1.1-.3,2.43-1.74,5.01-2.26,7.45-.23,1.12-.81,2.2-.68,3.36.16,1.53.04,1.25,1.5,1.46,1.5.23,3.78-.68,4.93.51-.88,1.01-.51,3.4-.84,4.67-.45,1.73-1.56,4.93-1.01,6.63,2.04.63,7.7-4.95,7.35-.34-.19,2.53-1.82,4.93-2.13,7.52-.2,1.76.78,2.17,1.98,3.45-1.7,2.01-.78,8.53.11,10.91.64,1.7.95,3.35,2.78,3.9,1.13.33,1.11-.18,2.42-.25.99-.06,1.16-.07,1.52.73.44.98.03,4.03-.02,5.02-.1,2.03-.71,3.94-.82,5.97-.1,2.01-.06,3.94.6,5.6.23.57.62,1.44.76,2.01.76,3.23.51,6.27,3.26,8.67.95.82,2.05,1.7,3.08,2.41.52.36,1.39.56,1.8.91,2,1.67,2.16,4.2,3.72,6.08,1.05,1.26,1.77,1.79,2.39,3.43.83,2.23.29,4.32.91,6.54.79,2.86,3.4,6.48,1.52,9.81-.83,1.47-1.82,2.84-2.61,4.41-1.08,2.16-2.55,3.86-3.73,5.93-1.06-.65-1.89-1.96-2.98-2.78-1.6,1.13-2.01,2.6-3.78,3.53-1.25.65-2.17,1.03-3.78.77-1.9-.32-3.48-2.02-4.39-3.74-.4-.75-1.42-4.35-2.37-4.39-.91-.04-1.77,3.51-2.69,4.26-.65.53-1.87.9-2.6.74-2.15-.45-2.46-3.77-3.84-4.69-.62-.41-1.53-.05-2.19.52-.02-.79-.11-1.61-.02-2.37.17-1.36.62-2.62.71-4,.08-1.19.2-2.42-.53-3.41-.78-1.07-1.48-.54-2.23-.82-1.11-.42-.57-.06-1.16-1.39-.4-.91-.36-1.44-.54-2.4-.18-1.02-.64-1.88-.78-2.9-.19-1.41.36-2.84-.5-4.16-2.9,3.26-8.57-6.22-9.52-7.7-.15.47-.66.61-1.06.99-.6.58-1.08,1.39-1.67,1.93-1.2,1.11-2.51,1.12-3.72.36-2.35-1.46-2.09-4.83-2.42-7.29-.55-4.12.62-9.79-1.29-13.59-.6,1.21-1.37,1.93-2.77,2.13l-7.23-6.63c.49-.56.93-1.06,1.14-1.47,1-1.95,1.17-4.07,2.08-6.02.23-.48.48-.9.7-1.31,2.47.46,3.6,4.12,6.28,4.9,1.18.35,2.38-.08,3.54.31,1.08.36,2.65,2.89,4,1.44-.12-1.11.1-2.4-.1-3.48-.16-.88-.61-1.34-.79-2.23-.7-3.34.79-6.79.74-10.06-1.15.27-1.7,1.37-2.86,1.57-.95-3.53.44-7.65.69-11.15.19-2.66,1.74-6.98.61-9.54-1.67.06-2.66,1.82-4.28,2.13-.53-1.08.58-3.9.83-4.96.48-1.95,1.33-3.75,2.09-5.6.68-1.64,1-3.38,1.62-5,.49-1.27,2.76-3.95,1.43-5.17-1.79,1.35-3.73,2.09-3.84-.7-.09-2.13.7-3.83,1.51-5.76.95-2.27,1.33-4.67,2.29-6.92.85-2,1.92-3.98,2.91-5.92.67-1.31,2.1-3.73,2.08-5.24-.02-1.33.27-1.41-1.3-1.47-1.36-.05-3.14.99-4.49,1.28,1.29-3.4,1.92-7.09,3.39-10.48,2.37-5.47,4.85-10.72,7.87-15.85-.4,2.86-2.37,5.9-1.48,8.86.45-.08,1.7-2.77,2.08-3.45.98-1.78,1.5-5.42,3.45-6.31-.5,1.56-.45,2.85-.47,4.46-.03,2.33-.74,4.51-.82,6.81-.05,1.44.34,5.27,2.58,4.33.77-.32,1.2-1.67,1.91-2.24.89-.73,2.05-1.58,2.98-2.21,1.98-1.35,3.56-1.03,4.45,1.17,1.38,3.39,1.14,7.23,1.44,10.77.02.32.53,3.36.93,3.56,1.15.55,1.37-.53,2.08-1.22,1.63-1.59,2.81-.42,4.45.75,1.44,1.03,1.62,1.77,2.37,3.29.43.89,1.51,2.01,1.96,3.14-.27-2.11-.64-4.11-.63-6.29,0-1.82-.06-3.65,0-5.48.02-.59.23-1.29.12-1.88-.3-1.61-1.41-1.69-2.51-2.54.51-2.46,1.84-5.07,2.68-7.47.81-2.3,2.09-5.7,1.86-8.16-1.37-.32-4.33,2.22-4.26-.73.02-.57.59-2.33.78-2.98.21-.74.81-1.53,1.16-2.22.43-.85,2.66-4.09,1.55-5.09-1.57-1.41-3.87,3.59-5.97,1.47-.1-2.34,4.94-13.62-.52-12.77-.13-1.37.86-3.01,1.22-4.32.39-1.41.52-2.97,1.08-4.32,1.06-2.6,3.22-5,2.5-7.98-.22-.94-1.01-1.71-1.03-2.51,0-.2.7-2.63.76-2.82.79-2.64,2.95-4.63,2.74-7.61-1.01-.05-2.09.88-2.85,1.44-1.46,1.07-2.38,1.93-4.28,2.38.86-.82,2.04-2.87,2.59-3.99,1.13-2.26,1.77-4.88,2.94-7.12.37-.7.85-1.23,1.26-1.9.67-1.07,2.11-2.6,2.55-3.64.28-.66.13-1.71.25-2.42.13-.78.61-1.51.69-2.44,3.09-.75,4.38,1.97,6.62,3.65.53.4.94.31,1.45.99.47.63.57,1.75.86,2.44.82,1.92,1.65,3.91,2.51,5.81.55,1.2,1.89,3.23,3.28,3.71,1.19.4,1.13.02,2.17-.6,1.11-.65,2.42-1.37,3.71-1.35.61,0,1.88.28,2.77.66-1.32-1.1-2.48-2.98-3.64-4.11-1.45-1.42-2.93-3.44-3.75-5.39-.79-1.87-1.86-3.64-2.4-5.59-1.2-4.4.36-9.26-.47-13.73-1.14-.2-1.67.81-2.75.74-.58-1.89-.12-4.64-.11-6.61,0-1.33.2-2.8-.12-4.11-.3-1.2-1.16-2.12-1.41-3.31-.96-4.62,1.12-9.96.1-14.57-.33-1.49-1.48-1.59-1.56-3.23-.07-1.58.89-2.68.75-4.31-.16-1.84-1.55-3.26-1.66-4.77-.09-1.45.8-2.78,1.4-4.04,1.41-3,2.36-6.69,4.71-9.17,1.08-1.14,2.47-1.7,4.03-1.77,2.63-.11,1.86,1.63,1.9,3.72.06,2.63,1.12,1.74,2.98.86,1.88-.89,2.17-.65,2.23,1.28.08,2.21-.13,4.16-.57,6.31-.32,1.54-.82,5.55,1.31,5.95l25.21-19.27c1.95-1.67,2.68-3.87,3.69-6.12.7-1.54,1.67-2.77,2.52-4.21.84-1.38,1.23-2.86,1.91-4.32,1.79-3.84,4.42-7.78,6.73-11.32,2.3-3.53,3.5-7.3,5.34-11.07,1.9-3.89,2.97-7.84,4.28-11.95,1.21-3.8,3.38-7.33,4.28-11.2,1.16-4.98,2.28-10.27,2.41-15.4.15-5.8,1.51-11.96.61-17.72-.71-4.53-2.86-8.95-3.97-13.43-.58-2.35-1.17-4.7-1.77-7.05,9.84-6.37,20.79-10.04,32.95-10.04l.33,193.5Z"/>
      <path class="cls-1" d="m129.95,561.13c-6.52,6.6-20.14,14.15-27.25,13.2-7.11-.94-10.66-8.01-10.66-8.01-27.25,0-32.58,1.41-29.02-5.66,3.56-7.07,14.22-46.66,14.22-59.4s-14.22-73.53-14.22-73.53c-.07-.31-.13-.63-.19-.94.38-.55.79-1.07,1.34-1.16,1.31-.2,2.94,1.73,3.78,2.45,1.23,1.06,2.12,1.15,3.74,1.11.43-.02,1.79-.26,2.12.1.53.59-.05.97.03,1.64.32,2.5,2.43,4.25,4.45,5.21.48-.86,1.59-3.62,1.62-4.69,1.63,1.53,2.86,5.87,5.52,4.24,1.86-1.15,2.39-4.4,2.69-6.46.87,0,3.03,4.51,3.55,5.6.66,1.39,1.2,3.15,3.11,2.83,2.09-.35,2.38-3.27,2.86-4.98.38-1.33,1.43-2.29,1.79-3.53.2-.67.09-1.33.22-2.02.9-.29,2.99,4.69,3.92,5.61,1.55,1.52,3.34.27,4.76-.72,2.02-1.39,3.24-3.18,4.94-4.78,1.04-.97,2.71-.87,3.78-1.69.87-.67,1.98-1.27,2.69-2.09.66-.74.46-1.78.96-2.48.39-.54,1.83-1.65,2.47-1.98,1.04-.55,1.86-.2,2.97-.25,1.3-.06,2.71-.48,3.97-.86.22-.06.43-.14.65-.23,1.51,44.14,4.15,138.42-.83,143.46Z"/>
      <path class="cls-7" d="m80.71,457.95s1.55,46.73,0,63.59c-1.55,16.85-5.24,35.92,6.8,14.47s7.08-1.72,6.6,15.49c-.48,17.21,21.75-2.98,21.75-17.88s.68-59.45,0-70.24c-.68-10.8-15.24,2.91-35.14-5.43Z"/>
      <path class="cls-8" d="m42.1,468.53c.02.72,0,1.42-.24,2.08-1.08-.24-.61-1.33.24-2.08Z"/>
      <path class="cls-8" d="m141.39,381.07c-.06-.26-.07-.51-.05-.76.02.26.03.51.05.76Z"/>
      <path class="cls-4" d="m148.8,95.51c-.13,5.12-1.24,10.42-2.41,15.4-.91,3.87-3.07,7.4-4.28,11.2-1.3,4.11-2.38,8.06-4.28,11.95-1.84,3.77-3.05,7.53-5.34,11.07-2.3,3.55-4.93,7.49-6.73,11.32-.68,1.45-1.07,2.93-1.91,4.32-.86,1.44-1.83,2.67-2.52,4.21-1,2.25-1.74,4.45-3.69,6.12l-25.21,19.27c-2.13-.4-1.63-4.41-1.31-5.95.44-2.15.65-4.11.57-6.31-.06-1.93-.35-2.17-2.23-1.28-1.87.88-2.93,1.77-2.98-.86-.04-2.09.73-3.82-1.9-3.72-1.56.07-2.95.63-4.03,1.77-2.35,2.48-3.31,6.18-4.71,9.17-.6,1.26-1.49,2.59-1.4,4.04.11,1.51,1.5,2.93,1.66,4.77.14,1.63-.82,2.73-.75,4.31.08,1.64,1.23,1.75,1.56,3.23,1.03,4.61-1.06,9.95-.1,14.57.25,1.19,1.12,2.1,1.41,3.31.32,1.3.13,2.78.12,4.11,0,1.97-.47,4.72.11,6.61,1.08.07,1.61-.94,2.75-.74.83,4.46-.74,9.33.47,13.73.54,1.95,1.61,3.72,2.4,5.59.82,1.96,2.3,3.97,3.75,5.39,1.16,1.13,2.32,3.02,3.64,4.11-.89-.38-2.16-.65-2.77-.66-1.29-.02-2.6.7-3.71,1.35-1.04.62-.99,1-2.17.6-1.39-.48-2.73-2.51-3.28-3.71-.86-1.9-1.69-3.89-2.51-5.81-.29-.69-.39-1.81-.86-2.44-.52-.69-.92-.59-1.45-.99-2.24-1.68-3.53-4.41-6.62-3.65-.08.93-.56,1.66-.69,2.44-.12.71.03,1.75-.25,2.42-.44,1.03-1.88,2.56-2.55,3.64-.41.67-.89,1.2-1.26,1.9-1.17,2.24-1.81,4.86-2.94,7.12-.56,1.12-1.73,3.17-2.59,3.99,1.9-.44,2.81-1.3,4.28-2.38.77-.56,1.84-1.49,2.85-1.44.21,2.98-1.95,4.98-2.74,7.61-.06.19-.76,2.62-.76,2.82.02.8.82,1.57,1.03,2.51.72,2.97-1.44,5.38-2.5,7.98-.56,1.36-.69,2.91-1.08,4.32-.36,1.32-1.35,2.95-1.22,4.32,5.46-.85.41,10.44.52,12.77,2.09,2.12,4.4-2.88,5.97-1.47,1.11,1-1.12,4.24-1.55,5.09-.35.7-.95,1.48-1.16,2.22-.19.65-.76,2.42-.78,2.98-.07,2.95,2.89.4,4.26.73.23,2.46-1.05,5.85-1.86,8.16-.84,2.4-2.17,5.01-2.68,7.47,1.1.85,2.21.93,2.51,2.54.11.58-.1,1.29-.12,1.88-.06,1.83,0,3.66,0,5.48,0,2.18.36,4.18.63,6.29-.45-1.12-1.54-2.25-1.96-3.14-.74-1.52-.93-2.26-2.37-3.29-1.63-1.17-2.81-2.34-4.45-.75-.7.69-.93,1.77-2.08,1.22-.4-.19-.91-3.23-.93-3.56-.3-3.55-.06-7.39-1.44-10.77-.9-2.2-2.47-2.52-4.45-1.17-.93.63-2.09,1.49-2.98,2.21-.7.57-1.14,1.92-1.91,2.24-2.24.94-2.63-2.89-2.58-4.33.07-2.3.78-4.49.82-6.81.02-1.61-.03-2.9.47-4.46-1.95.89-2.47,4.53-3.45,6.31-.38.68-1.62,3.37-2.08,3.45-.89-2.96,1.08-6,1.48-8.86-3.02,5.13-5.5,10.38-7.87,15.85-1.48,3.4-2.11,7.08-3.39,10.48,1.36-.28,3.14-1.33,4.49-1.28,1.58.06,1.29.15,1.3,1.47.02,1.51-1.41,3.93-2.08,5.24-.99,1.94-2.06,3.92-2.91,5.92-.95,2.25-1.33,4.65-2.29,6.92-.81,1.93-1.6,3.63-1.51,5.76.11,2.79,2.05,2.05,3.84.7,1.33,1.22-.95,3.9-1.43,5.17-.62,1.62-.95,3.36-1.62,5-.76,1.85-1.62,3.65-2.09,5.6-.25,1.05-1.37,3.88-.83,4.96,1.62-.32,2.61-2.08,4.28-2.13,1.13,2.56-.42,6.88-.61,9.54-.24,3.51-1.63,7.62-.69,11.15,1.16-.19,1.71-1.3,2.86-1.57.06,3.27-1.44,6.72-.74,10.06.19.89.63,1.35.79,2.23.2,1.07-.02,2.37.1,3.48-1.35,1.45-2.93-1.08-4-1.44-1.16-.39-2.36.04-3.54-.31-2.68-.78-3.81-4.44-6.28-4.9.37-.66.69-1.32.78-2.21.26-2.3.16-3.73-2.17-2.57-1.63.81-3.01,1.3-4.87.83.53-2.48,2.41-4.8,2.72-7.27-2.51-.43-5.25.5-7.74-.19.57-1.32,3.06-3.15,4.23-4.3,1.79-1.77,4.01-3.37,5.17-5.76.74-1.54.13-2.38-1.58-2.24-1.75.15-3.8,2.05-5.61,1.17,1.95-4.32,5.71-7.83,8.41-11.92.76-1.14,3.57-3.73,3.4-5.28-.21-1.94-2.59-1.9-3.9-2.03,2-5.46,6.51-9,8.45-14.57.58-1.67.78-4.12-1.6-4.49-1.46-.23-3.69,1.89-4.89,1.27-.11-1.16,1.56-3.31,2.05-4.53.7-1.75,1.38-3.12,2.41-4.66.53-.79,1.75-2.56.76-3.29-1.15-.85-2.84,1.16-4.05.05.23-.88,1.16-1.69,1.58-2.55.53-1.07,1.06-2.03,1.76-2.99,1.46-1.99,3.38-4.2,3.11-6.94-1.58-.86-7.84,4.88-8.05,1.68-.06-.92,2.01-3.99,2.48-4.88.83-1.61,3.26-3.02,2.74-5.08-1.4-.17-2.75-.74-4.15-.98.57-1.29,3.17-3.28,4.36-4.45.99-.97,2.23-2.15,3.43-2.86,1.01-.6,2.77-.76,3.27-2-.4-1-1.03-.75-1.83-.91-1.46-.28-2.86-.27-4.3-.93,1.2-2.38,10.98-4.15,10.66-6.35-1.09-.3-2.3-.17-3.41-.1,1.26-1.33,3.31-1.92,4.75-3.07,1.82-1.45,3.88-2.93,5.53-4.58,2.39-2.4-1.68-3.82-3.55-3.71-1.23.07-4.49.92-5.57.09-1.5-1.15.74-3.75,1.46-4.87,3.17-4.98,9-8.69,13.65-12.08,1.11-.81,4.5-2.79,3.42-4.49-.81-1.27-3.67-.7-4.85-.69-.86,0-4.62.48-5.08-.9-.57-1.72,4.76-4.93,5.58-5.5,1.53-1.07,2.88-2.13,4.58-2.89,1.8-.82,3.65-1.29,5.24-2.58.91-.74,3.65-2.82,3.67-4.07.07-3.95-7.8-3.97-9.95-5.01.36-.9,1.94-1.54,2.8-2,1.47-.8,2.51-1.57,3.71-2.8,2.24-2.29,5.21-3.65,7.32-6.07,3.28-3.79-4.11-5.9-6.77-6.94.73-1.5,2.21-2.84,3.18-4.24.77-1.11,5.46-4.88,4.74-6.06-2.03.18-3.63-.14-5.63-.61,3.78-2.85,8.37-3.74,12.37-6.18-.85-.11-1.62.37-2.66.09-1.17-.32-2.42-.66-3.55-1.14-1-.41-2.14-.7-1.24-2.26.42-.73,1.38-.91,1.96-1.32,1.17-.83,3.95-3.73,3.4-5.33-.81-2.38-5.93-1.73-7.63-2.58.47-1.1,2.02-2.04,2.97-2.76,2-1.53,3.86-2.87,5.67-4.65,2.45-2.38,7.14-5.61,2.33-7.97-1.56-.76-9.45-2.09-5.75-5.03.96-.76,2.04-.95,3.06-1.83.99-.86,1.82-1.22,3.01-1.76,1.89-.86,3.82-1.97,5.49-3.26-1.83-.47-10.01-1.72-10.39-4.48-.12-.94,2.05-2.01,2.75-2.55,1.99-1.52,4.23-2.25,6.43-3.34,1.5-.74,9.86-4.01,9.14-6.24-.81-2.52-6.26-1.07-7.03-3.99,4.14-1.14,7.61-3.38,11.05-5.89-.56-.69-1.21-.52-1.87-.85-1.06-.55-1.82-1.51-2.64-2.38.91-.82,2.24-.99,3.35-1.38,2.73-.98,5.08-2.3,7.58-3.81-1.8-1.51-6.37-1.01-7.24-3.87.97-.95,3.31-1.05,4.53-1.56,1.27-.53,4.76-2,4.94-3.39.11-.86-1.21-2.13-1.57-2.77-.66-1.17-.96-2.58-1.7-3.83,1.12-.07,1.6-.58,2.56-.86,1.62-.46,3.28-.12,5-.89-.77-1.32-2.36-2.96-3.32-4.36.83.31,3.81-1.09,4.58-1.55-.95-1.59-3.1-1.92-3.35-4.21,1.73-.7,3.13,1.19,4.87.54-2-4.36,2.08-4.56,5.39-4.01.1-.19.2-.37.31-.56-2.98-1.82-5.49-4.24-8.53-6,3.35,1.54,7.13,2.1,10.82,1.91,9.8-17.04,21.53-31.47,35.48-40.49.6,2.34,1.19,4.7,1.77,7.05,1.11,4.48,3.26,8.89,3.97,13.43.9,5.76-.47,11.91-.61,17.72Z"/>
      <path class="cls-4" d="m63.4,342.28c.19.46.27.92.15,1.37-.04-.46-.09-.92-.15-1.37Z"/>
      <path class="cls-11" d="m312.38,468.53c-.02.72,0,1.42.24,2.08,1.07-.24.61-1.33-.24-2.08Z"/>
      <path class="cls-11" d="m213.13,380.31c-.02.26-.03.51-.05.76.06-.26.07-.51.05-.76Z"/>
      <path class="cls-11" d="m177.52,240.78v5.55c.44-.07.88-.14,1.33-.19,4.56-.57,9.02-1.49,13.54-2.4,7.03-1.41,14.55-1.15,21.49.57,2.55.63,5.29,2.12,7.97,1.7,1.84-.28,3.49-2.42,5.33-2.21,0,.97-.65,1.85-.75,2.86-.16,1.65.16,3.38.08,5.04-.15,3.14-.66,6.62-1.3,9.71-.36,1.74-1.02,3.02-1.74,4.59-.71,1.52-.29,2.88-.85,4.34-.4,1.03-1.8,3.15-2.64,3.87-1.42,1.22-1.79.37-3.52,0-2.05-.43-3.15.91-3.93,2.69-.98,2.25-1.29,5.25-1.57,7.66-.23,1.96.17,3.36-.95,5.08-.92-.23-1.92-.41-2.82-.65-.66-.17-1.54-.94-2.26-.69-1.33.45-1.69,3.96-2.17,5.11-.27.65-1.69,3.77-2.8,3.6-1.33-.2-2.63-3.72-3.76-4.29-.64,2.61.28,5.24.69,7.79-.65-.66-.61-1.99-1.45-2.61.71,1.36.11,1.41-.16,2.9-.3,1.6.76,3.31.84,4.91.13,2.64,1.13,4.79,1.82,7.36.54,2.04.45,5.49,2.21,7.07,2.4,2.17,2.4-1.88,4.11-2.8,2.66,2.38,5.12,4.41,7.44,0,.36,1.34,3.29,5.46,4.78,5.72,2.3.4,3.09-2.56,4.91-3.31,2.85-1.16,1.9,3.31,4.32,3.45.82.05,1.2-.78,1.69-1.26.82-.81,1.08-.94,2.05-1.33,1.16-.46,2.06-.69,3-1.68.04.28.2.37.48.28.73-.98,1.85-.28,2.67-1.12.8-.83.79-2.83,1.08-3.96,1.2-4.58,2.85,1.03,5.42-.97.95-.74,1.24-4.46,1.62-5.68.31-1.01.7-3.19,1.35-4.01,1.66-2.09,4.14.7,5.88,1.45,3.66,1.59,3.89-2.09,3.74-4.98-.15-2.97-.78-5.76-.79-8.75,0-1.5-.44-4.45,1.86-3.35,1.62.77,4.13,4.97,5.9,2.28.83-1.26.49-3.39.26-4.83-.26-1.58-.64-3.11-1.14-4.63-.4-1.2-1.31-2.37-1.2-3.67,1.71,5.26,4.72,9.84,6.95,14.94.47,1.08.77,1.77.6,2.85-.02.11-.56.53-.65.82-.29,1.01.05,2.79.04,3.86,0,2.19.06,4.09.74,6.2.53,1.64.76,3.1.74,4.83-.02,2.18.86,5.12-2.22,4.27-2.1-.59-5.17-1.71-5.87,1.26-.71,3.01,1.15,7.49-.77,10.22-.61.86-1.67,1.05-2.46,1.83-.81.8-1.58,2.21-1.88,3.3-.52,1.85.11,3.84-.21,5.71-.3,1.75-.37,4.71-1.41,6.05-1.26-.2-2-1.81-2.95.29-.6,1.31.06,4.27.34,5.54.4,1.8,1.43,8.22-2.18,6.37-1.88-.95-3.82-2.77-5.49-4.1-1.04-.82-2.26-2.72-3.86-2.26-1.45.43-1.35,2.32-1.63,3.56-.59,2.64-.1,5.33-.7,7.95-.52,2.26-3.14,2.8-4.46,4.8-1.23,1.85-1.62,4.04-2.77,5.85-1.03,1.62-2.87,2.82-4.52,3.71-1.15.62-2.41,1.35-3.67,1.65-.53.13-1.34.32-1.85.38-.86.12-1.12-.15-1.88-.23-1.5-.15-1.99.42-2.78,1.84-.7,1.28-.47,3.56-1.48,4.5-.22-.62-.23-1.24-.19-1.89-.22,1.24-1.05,2.56-.79,3.65.18.76.74,1.37.99,2.25.86,3.1,2.16,5.95,3.73,8.7,1.06.11.79-.8,1.38-1.22.97-.68,2.31-1.53,3.53-1.59.19.48,2.19,1.15,2.75,1.39.96.44,2.15,1.16,3.27,1.16,1.17,0,2.65-.59,3.71-.98.78-.29,1.24-.27,1.98-.75,1.15-.73,1.77-2.02,3.15-2.42.27,1.57.25,4.71,1.31,6.01,1.78,2.18,2.89-1.55,3.39-3,.92.29,1.83,1.67,2.74,2.23.87.54,3,1.4,4.03,1.34.7-.03,2.8-1.62,3.23-2.24,1.62-2.28,2-5.45,3.78-7.73.15,1.82.81,3.72,1.2,5.58.2.98.5,3.56,1.65,4.03,2.54,1,5.87-6.85,6.73-8.45.78-1.46,1.33-3.25,3.15-1.5,1.29,1.24,1.77,3.63,3.66,4.38,1.67.67,2.85.04,3.71-1.34.75-1.21,2.36-6.4,3.57-6.71.65,2.76.02,6.43,1.8,8.83,1.09-.4,2-1.38,2.43-2.53,1.06-2.76.74-6.01,2.05-8.81.43.75.37,1.49.64,2.29,2.39-.92,2.32-2.5,3.02-4.79.57-1.85,1.13-5.78,3.01-6.46,1.16,1.86,3.48,5.58,5.3,1.92,1.1-2.21,1.17-6.27,1.16-8.61,0-2.44-.63-6.43,2.07-7.79.99,2.26,2.64.02,3.11-1.07.91-2.1,1.14-4.51,1.84-6.73.66-2.07,1.54-3.71,2.61-5.54.95-1.62.77-3.07.69-5,1.28,2,1.47,5.04,2.25,7.32.99,2.91,3.14,6.35,2.91,9.53-1.77.46-4.01-2.31-3.58,1.1.3,2.43,1.74,5.01,2.26,7.45.23,1.12.81,2.2.68,3.36-.16,1.53-.04,1.25-1.5,1.46-1.5.23-3.78-.68-4.93.51.88,1.01.51,3.4.84,4.67.45,1.73,1.56,4.93,1.01,6.63-2.04.63-7.7-4.95-7.35-.34.19,2.53,1.82,4.93,2.13,7.52.2,1.76-.78,2.17-1.98,3.45,1.7,2.01.78,8.53-.11,10.91-.64,1.7-.95,3.35-2.78,3.9-1.13.33-1.11-.18-2.42-.25-.99-.06-1.16-.07-1.52.73-.44.98-.03,4.03.02,5.02.1,2.03.71,3.94.82,5.97.1,2.01.06,3.94-.6,5.6-.23.57-.62,1.44-.76,2.01-.76,3.23-.51,6.27-3.26,8.67-.95.82-2.05,1.7-3.08,2.41-.52.36-1.39.56-1.8.91-2,1.67-2.16,4.2-3.72,6.08-1.05,1.26-1.77,1.79-2.39,3.43-.83,2.23-.29,4.32-.91,6.54-.79,2.86-3.4,6.48-1.52,9.81.83,1.47,1.82,2.84,2.61,4.41,1.08,2.16,2.55,3.86,3.73,5.93,1.06-.65,1.89-1.96,2.98-2.78,1.6,1.13,2.01,2.6,3.78,3.53,1.25.65,2.17,1.03,3.78.77,1.9-.32,3.48-2.02,4.39-3.74.4-.75,1.42-4.35,2.37-4.39.91-.04,1.77,3.51,2.69,4.26.65.53,1.87.9,2.6.74,2.15-.45,2.46-3.77,3.84-4.69.62-.41,1.53-.05,2.19.52.02-.79.11-1.61.02-2.37-.17-1.36-.62-2.62-.71-4-.08-1.19-.2-2.42.53-3.41.78-1.07,1.48-.54,2.23-.82,1.11-.42.57-.06,1.16-1.39.4-.91.36-1.44.54-2.4.18-1.02.64-1.88.78-2.9.19-1.41-.36-2.84.5-4.16,2.9,3.26,8.57-6.22,9.52-7.7.15.47.66.61,1.06.99.6.58,1.08,1.39,1.67,1.93,1.2,1.11,2.51,1.12,3.72.36,2.35-1.46,2.09-4.83,2.42-7.29.55-4.12-.62-9.79,1.29-13.59.6,1.21,1.37,1.93,2.77,2.13l7.23-6.63c-.49-.56-.93-1.06-1.14-1.47-1-1.95-1.17-4.07-2.08-6.02-.23-.48-.48-.9-.7-1.31-2.47.46-3.6,4.12-6.28,4.9-1.18.35-2.38-.08-3.54.31-1.08.36-2.65,2.89-4,1.44.12-1.11-.1-2.4.11-3.48.16-.88.61-1.34.79-2.23.7-3.34-.79-6.79-.74-10.06,1.15.27,1.7,1.37,2.86,1.57.95-3.53-.44-7.65-.69-11.15-.19-2.66-1.74-6.98-.61-9.54,1.67.06,2.66,1.82,4.28,2.13.53-1.08-.58-3.9-.83-4.96-.48-1.95-1.33-3.75-2.09-5.6-.68-1.64-1-3.38-1.62-5-.49-1.27-2.76-3.95-1.43-5.17,1.79,1.35,3.73,2.09,3.84-.7.09-2.13-.7-3.83-1.51-5.76-.95-2.27-1.33-4.67-2.29-6.92-.85-2-1.92-3.98-2.91-5.92-.67-1.31-2.1-3.73-2.08-5.24.02-1.33-.27-1.41,1.3-1.47,1.36-.05,3.14.99,4.49,1.28-1.29-3.4-1.92-7.09-3.39-10.48-2.37-5.47-4.85-10.72-7.87-15.85.4,2.86,2.37,5.9,1.48,8.86-.45-.08-1.7-2.77-2.08-3.45-.98-1.78-1.5-5.42-3.45-6.31.5,1.56.45,2.85.47,4.46.03,2.33.74,4.51.82,6.81.05,1.44-.34,5.27-2.58,4.33-.77-.32-1.2-1.67-1.91-2.24-.89-.73-2.05-1.58-2.98-2.21-1.98-1.35-3.56-1.03-4.45,1.17-1.38,3.39-1.14,7.23-1.44,10.77-.02.32-.53,3.36-.93,3.56-1.15.55-1.37-.53-2.08-1.22-1.63-1.59-2.81-.42-4.45.75-1.44,1.03-1.62,1.77-2.37,3.29-.43.89-1.51,2.01-1.96,3.14.27-2.11.64-4.11.63-6.29,0-1.82.06-3.65,0-5.48-.02-.59-.23-1.29-.12-1.88.3-1.61,1.41-1.69,2.51-2.54-.51-2.46-1.84-5.07-2.68-7.47-.81-2.3-2.09-5.7-1.86-8.16,1.37-.32,4.33,2.22,4.26-.73-.02-.57-.59-2.33-.78-2.98-.21-.74-.81-1.53-1.16-2.22-.43-.85-2.66-4.09-1.55-5.09,1.57-1.41,3.87,3.59,5.97,1.47.1-2.34-4.94-13.62.52-12.77.13-1.37-.86-3.01-1.22-4.32-.39-1.41-.52-2.97-1.08-4.32-1.06-2.6-3.22-5-2.5-7.98.22-.94,1.01-1.71,1.03-2.51,0-.2-.7-2.63-.76-2.82-.79-2.64-2.95-4.63-2.74-7.61,1.01-.05,2.09.88,2.85,1.44,1.46,1.07,2.38,1.93,4.28,2.38-.86-.82-2.04-2.87-2.59-3.99-1.13-2.26-1.77-4.88-2.94-7.12-.37-.7-.85-1.23-1.26-1.9-.67-1.07-2.11-2.6-2.55-3.64-.28-.66-.13-1.71-.25-2.42-.13-.78-.61-1.51-.69-2.44-3.09-.75-4.38,1.97-6.62,3.65-.53.4-.94.31-1.45.99-.47.63-.57,1.75-.86,2.44-.82,1.92-1.65,3.91-2.51,5.81-.55,1.2-1.89,3.23-3.28,3.71-1.19.4-1.13.02-2.17-.6-1.11-.65-2.42-1.37-3.71-1.35-.61,0-1.88.28-2.77.66,1.32-1.1,2.48-2.98,3.64-4.11,1.45-1.42,2.93-3.44,3.75-5.39.79-1.87,1.86-3.64,2.4-5.59,1.2-4.4-.36-9.26.47-13.73,1.14-.2,1.67.81,2.75.74.58-1.89.12-4.64.11-6.61,0-1.33-.2-2.8.12-4.11.3-1.2,1.16-2.12,1.41-3.31.96-4.62-1.12-9.96-.1-14.57.33-1.49,1.48-1.59,1.56-3.23.07-1.58-.89-2.68-.75-4.31.16-1.84,1.55-3.26,1.66-4.77.09-1.45-.8-2.78-1.4-4.04-1.41-3-2.36-6.69-4.71-9.17-1.08-1.14-2.47-1.7-4.03-1.77-2.63-.11-1.86,1.63-1.9,3.72-.06,2.63-1.12,1.74-2.98.86-1.88-.89-2.17-.65-2.23,1.28-.08,2.21.13,4.16.57,6.31.32,1.54.82,5.55-1.31,5.95l-25.21-19.27c-1.95-1.67-2.68-3.87-3.69-6.12-.69-1.54-1.67-2.77-2.52-4.21-.84-1.38-1.23-2.86-1.91-4.32-1.79-3.84-4.42-7.78-6.73-11.32-2.3-3.53-3.5-7.3-5.34-11.07-1.9-3.89-2.97-7.84-4.28-11.95-1.21-3.8-3.38-7.33-4.28-11.2-1.16-4.98-2.28-10.27-2.41-15.4-.15-5.8-1.51-11.96-.61-17.72.71-4.53,2.86-8.95,3.97-13.43.58-2.35,1.17-4.7,1.77-7.05-9.84-6.37-20.79-10.04-32.95-10.04l-.33,193.5Z"/>
      <path class="cls-8" d="m312.38,468.53c-.02.72,0,1.42.24,2.08,1.07-.24.61-1.33-.24-2.08Z"/>
      <path class="cls-8" d="m213.09,381.07c.06-.26.07-.51.05-.76-.02.26-.03.51-.05.76Z"/>
      <path class="cls-4" d="m205.68,95.51c.13,5.12,1.24,10.42,2.41,15.4.91,3.87,3.07,7.4,4.28,11.2,1.3,4.11,2.38,8.06,4.28,11.95,1.84,3.77,3.05,7.53,5.34,11.07,2.3,3.55,4.93,7.49,6.73,11.32.68,1.45,1.07,2.93,1.91,4.32.86,1.44,1.83,2.67,2.52,4.21,1,2.25,1.74,4.45,3.69,6.12l25.21,19.27c2.13-.4,1.63-4.41,1.31-5.95-.44-2.15-.65-4.11-.57-6.31.06-1.93.35-2.17,2.23-1.28,1.87.88,2.93,1.77,2.98-.86.04-2.09-.73-3.82,1.9-3.72,1.56.07,2.95.63,4.03,1.77,2.35,2.48,3.31,6.18,4.71,9.17.6,1.26,1.49,2.59,1.4,4.04-.11,1.51-1.5,2.93-1.66,4.77-.14,1.63.82,2.73.75,4.31-.08,1.64-1.23,1.75-1.56,3.23-1.03,4.61,1.06,9.95.1,14.57-.25,1.19-1.12,2.1-1.41,3.31-.32,1.3-.13,2.78-.12,4.11,0,1.97.47,4.72-.11,6.61-1.08.07-1.61-.94-2.75-.74-.83,4.46.74,9.33-.47,13.73-.54,1.95-1.61,3.72-2.4,5.59-.82,1.96-2.3,3.97-3.75,5.39-1.16,1.13-2.32,3.02-3.64,4.11.89-.38,2.16-.65,2.77-.66,1.29-.02,2.6.7,3.71,1.35,1.04.62.99,1,2.17.6,1.39-.48,2.73-2.51,3.28-3.71.86-1.9,1.69-3.89,2.51-5.81.29-.69.39-1.81.86-2.44.52-.69.92-.59,1.45-.99,2.24-1.68,3.53-4.41,6.62-3.65.08.93.56,1.66.69,2.44.12.71-.03,1.75.25,2.42.44,1.03,1.88,2.56,2.55,3.64.41.67.89,1.2,1.26,1.9,1.17,2.24,1.81,4.86,2.94,7.12.56,1.12,1.73,3.17,2.59,3.99-1.9-.44-2.81-1.3-4.28-2.38-.77-.56-1.84-1.49-2.85-1.44-.21,2.98,1.95,4.98,2.74,7.61.06.19.76,2.62.76,2.82-.02.8-.82,1.57-1.03,2.51-.72,2.97,1.44,5.38,2.5,7.98.56,1.36.69,2.91,1.08,4.32.36,1.32,1.35,2.95,1.22,4.32-5.46-.85-.41,10.44-.52,12.77-2.09,2.12-4.4-2.88-5.97-1.47-1.11,1,1.12,4.24,1.55,5.09.35.7.95,1.48,1.16,2.22.19.65.76,2.42.78,2.98.07,2.95-2.89.4-4.26.73-.23,2.46,1.05,5.85,1.86,8.16.84,2.4,2.17,5.01,2.68,7.47-1.1.85-2.21.93-2.51,2.54-.11.58.1,1.29.12,1.88.06,1.83,0,3.66,0,5.48,0,2.18-.36,4.18-.63,6.29.45-1.12,1.54-2.25,1.96-3.14.74-1.52.93-2.26,2.37-3.29,1.63-1.17,2.81-2.34,4.45-.75.7.69.93,1.77,2.08,1.22.4-.19.91-3.23.93-3.56.3-3.55.06-7.39,1.44-10.77.9-2.2,2.47-2.52,4.45-1.17.93.63,2.09,1.49,2.98,2.21.7.57,1.14,1.92,1.91,2.24,2.24.94,2.63-2.89,2.58-4.33-.07-2.3-.78-4.49-.82-6.81-.02-1.61.03-2.9-.47-4.46,1.95.89,2.47,4.53,3.45,6.31.38.68,1.62,3.37,2.08,3.45.89-2.96-1.08-6-1.48-8.86,3.02,5.13,5.5,10.38,7.87,15.85,1.48,3.4,2.11,7.08,3.39,10.48-1.36-.28-3.14-1.33-4.49-1.28-1.58.06-1.29.15-1.3,1.47-.02,1.51,1.41,3.93,2.08,5.24.99,1.94,2.06,3.92,2.91,5.92.95,2.25,1.33,4.65,2.29,6.92.81,1.93,1.6,3.63,1.51,5.76-.11,2.79-2.05,2.05-3.84.7-1.33,1.22.95,3.9,1.43,5.17.62,1.62.95,3.36,1.62,5,.76,1.85,1.62,3.65,2.09,5.6.25,1.05,1.37,3.88.83,4.96-1.62-.32-2.61-2.08-4.28-2.13-1.13,2.56.42,6.88.61,9.54.24,3.51,1.63,7.62.69,11.15-1.16-.19-1.71-1.3-2.86-1.57-.06,3.27,1.44,6.72.74,10.06-.19.89-.63,1.35-.79,2.23-.2,1.07.02,2.37-.11,3.48,1.35,1.45,2.93-1.08,4-1.44,1.16-.39,2.36.04,3.54-.31,2.68-.78,3.81-4.44,6.28-4.9-.37-.66-.69-1.32-.78-2.21-.26-2.3-.16-3.73,2.17-2.57,1.63.81,3.01,1.3,4.87.83-.53-2.48-2.41-4.8-2.72-7.27,2.51-.43,5.25.5,7.74-.19-.57-1.32-3.06-3.15-4.23-4.3-1.79-1.77-4.01-3.37-5.17-5.76-.74-1.54-.13-2.38,1.58-2.24,1.75.15,3.8,2.05,5.61,1.17-1.95-4.32-5.71-7.83-8.41-11.92-.76-1.14-3.57-3.73-3.4-5.28.21-1.94,2.59-1.9,3.9-2.03-2-5.46-6.51-9-8.45-14.57-.58-1.67-.78-4.12,1.6-4.49,1.45-.23,3.69,1.89,4.89,1.27.11-1.16-1.56-3.31-2.05-4.53-.7-1.75-1.38-3.12-2.41-4.66-.53-.79-1.75-2.56-.76-3.29,1.15-.85,2.84,1.16,4.05.05-.23-.88-1.16-1.69-1.58-2.55-.53-1.07-1.06-2.03-1.76-2.99-1.46-1.99-3.38-4.2-3.11-6.94,1.58-.86,7.84,4.88,8.05,1.68.06-.92-2.01-3.99-2.48-4.88-.83-1.61-3.26-3.02-2.74-5.08,1.4-.17,2.75-.74,4.15-.98-.57-1.29-3.17-3.28-4.36-4.45-.99-.97-2.23-2.15-3.43-2.86-1.01-.6-2.77-.76-3.27-2,.4-1,1.03-.75,1.83-.91,1.45-.28,2.86-.27,4.3-.93-1.2-2.38-10.98-4.15-10.66-6.35,1.09-.3,2.3-.17,3.41-.1-1.26-1.33-3.31-1.92-4.74-3.07-1.82-1.45-3.88-2.93-5.53-4.58-2.39-2.4,1.68-3.82,3.55-3.71,1.23.07,4.49.92,5.57.09,1.5-1.15-.74-3.75-1.46-4.87-3.17-4.98-9-8.69-13.65-12.08-1.11-.81-4.5-2.79-3.42-4.49.81-1.27,3.67-.7,4.85-.69.86,0,4.62.48,5.08-.9.57-1.72-4.76-4.93-5.58-5.5-1.53-1.07-2.88-2.13-4.58-2.89-1.8-.82-3.65-1.29-5.24-2.58-.91-.74-3.65-2.82-3.67-4.07-.07-3.95,7.8-3.97,9.95-5.01-.36-.9-1.94-1.54-2.8-2-1.47-.8-2.51-1.57-3.71-2.8-2.24-2.29-5.21-3.65-7.32-6.07-3.28-3.79,4.11-5.9,6.77-6.94-.73-1.5-2.21-2.84-3.18-4.24-.77-1.11-5.46-4.88-4.74-6.06,2.03.18,3.63-.14,5.63-.61-3.78-2.85-8.37-3.74-12.37-6.18.85-.11,1.62.37,2.66.09,1.17-.32,2.42-.66,3.55-1.14,1-.41,2.14-.7,1.24-2.26-.42-.73-1.38-.91-1.96-1.32-1.17-.83-3.95-3.73-3.4-5.33.81-2.38,5.93-1.73,7.63-2.58-.47-1.1-2.02-2.04-2.97-2.76-2-1.53-3.86-2.87-5.67-4.65-2.45-2.38-7.14-5.61-2.33-7.97,1.56-.76,9.45-2.09,5.75-5.03-.96-.76-2.04-.95-3.06-1.83-.99-.86-1.82-1.22-3.01-1.76-1.89-.86-3.82-1.97-5.49-3.26,1.83-.47,10.02-1.72,10.39-4.48.12-.94-2.05-2.01-2.75-2.55-1.99-1.52-4.23-2.25-6.43-3.34-1.5-.74-9.86-4.01-9.14-6.24.81-2.52,6.26-1.07,7.03-3.99-4.14-1.14-7.61-3.38-11.05-5.89.56-.69,1.21-.52,1.87-.85,1.06-.55,1.82-1.51,2.64-2.38-.91-.82-2.24-.99-3.35-1.38-2.73-.98-5.08-2.3-7.58-3.81,1.8-1.51,6.37-1.01,7.24-3.87-.97-.95-3.31-1.05-4.53-1.56-1.27-.53-4.76-2-4.94-3.39-.11-.86,1.21-2.13,1.57-2.77.66-1.17.96-2.58,1.7-3.83-1.12-.07-1.6-.58-2.56-.86-1.62-.46-3.28-.12-5-.89.77-1.32,2.36-2.96,3.32-4.36-.83.31-3.81-1.09-4.58-1.55.95-1.59,3.1-1.92,3.35-4.21-1.73-.7-3.13,1.19-4.87.54,2-4.36-2.08-4.56-5.39-4.01-.1-.19-.2-.37-.31-.56,2.98-1.82,5.49-4.24,8.53-6-3.35,1.54-7.13,2.1-10.82,1.91-9.8-17.04-21.53-31.47-35.48-40.49-.6,2.34-1.19,4.7-1.77,7.05-1.11,4.48-3.26,8.89-3.97,13.43-.9,5.76.47,11.91.61,17.72Z"/>
      <path class="cls-4" d="m291.07,342.28c-.19.46-.27.92-.15,1.37.04-.46.09-.92.15-1.37Z"/>
      <path class="cls-4" d="m92.36,256.82c-.31-.15-.61-.36-.9-.6.43.18.77.39.9.6Z"/>
      <path class="cls-6" d="m62.75,418.51c-.17-.65-.36-1.24-.62-1.68.61.44.71,1.03.62,1.68Z"/>
      <path class="cls-6" d="m117.64,237.82c.46-.12.89-.3,1.3-.56,1.25,1.43,1.7,7.37,4.06,7.67,1.64.21,3.33-2.81,4.28-3.83.43,2.76.13,6.64,1.27,9.19.57,1.28.99,1.24,2.01,2.07,1.55,1.27,2.94,2.99,3.72,4.84.66,1.56,1.3,4.75,3.78,4.41,1.65-.23,1.82-2.3,3.1-3.06.99,2.42,1.55,5.01,2.43,7.47.52,1.46.99,4.09,2.02,5.23,1.97,2.17,4.9-1.88,5.93-3.58.65,1.99,2.32,3.25,3.27,5.07.64,1.25.89,3.07,2.12,3.97,2.08,1.52,3.24-.93,4.48-2.33-.22,1.76.97,3.22,1.34,4.87.23,1.02-.14,2.03.84,2.73,1.84,1.3,2.93-2.7,3.12-4.09,3.2-.4,2.22,8.62,5.62,9.35,2.06-2,2.4-6.7,5.14-7.9.83,1.58,1.99,4.91,3.98,3.05,1.37-1.28,2.32-4.3,3.3-5.93,1.54-2.56,4.02-7.99,7.62-5.1,1.1.88,1.51,1.81,3.13,2.09,1.59.28,2.62-.23,3.54-1.49,1.31-1.79,1.98-4.01,2.83-6.02.53-1.26,1.2-2.38,1.64-3.69.3-.91.29-2.09,1.03-2.78.96,1.17,1.56,4.8,3.16,4.99,1.78.22,3.43-3.82,4.11-4.96,1.3-2.17,2.66-3.23,4.5-4.81,1.1-.94,1.82-2.73,3.51-2.73.49.93.55,1.98,1.03,2.91,2.67.12,4.12-7.08,5.18-8.82,1.38-.2,2.06,1.8,3.61,1.37.92-.26,2.26-2.2,2.93-2.89,1.9-1.97,3.84-4.52,5.23-6.86,1.47-2.47,2.49-5.42,3.87-8,.76-1.43,2.4-4.28,2.01-5.86-1.97-.18-5.11,1.66-7.19,2.15-3.27.78-7.12,3.34-9.86,5.37-2.43,1.8-4.82,4.65-7.97,5.07-1.16.16-2.41,0-3.43-.48-1.3-.6-2.54-1.99-4.17-1.89-2.87.18-5,4.07-6.45,6.01-1.29,1.72-2.48,3.56-3.9,5.17-1.57,1.78-3.82,2.83-5.96,3.81-2.5,1.15-5.76-.19-8.17-1.35-2.2-1.06-3.73-3.38-5.55-4.96-1.79-1.56-2.78-.78-4.96-.45-2.51.38-4.22,1.51-6.89,1.5-1.85,0-3.48.01-5.18-.8-2.03-.98-3.05-2.74-5.19-3.56-.78-.3-1.78-.79-2.59-.88-1.03-.12-1.67.55-2.59.73-.8.16-1.76.12-2.59.08-1.63-.08-1.52-.26-2.39-1.48-1.23-1.72-2.59-2.89-4.65-2.99-.86-.04-1.74.02-2.6,0-1.05-.01-1.64.42-2.4.57-2.97.58-5.12-2.21-7.61-3.56-2.34-1.27-3.38-.2-5.54.04-2.35.27-4.4-.17-6.56-.96-1.58-.58-3.5-1.32-1.61,6.88Z"/>
      <path class="cls-6" d="m182.51,414.1c1.87.72,3.93-4.13,5.15-5.52.84.84,1.71,1.99,2.27,3.15.42.87.46,2.24.91,2.99.7,1.18,2.9,2.03,4.02,2.39,3.74,1.2,6.76-.14,9.16-4.57.73,2.56.86,5.3,3.08,6.37,2.69,1.29,4.2-.95,6.68-2.58,2.39-1.57,5.4-3.81,7.9-2.3,1.67,1.01,1.97,2.86,2.91,4.8,1.47,3.01,2.19,4.07,5.31,3.53,3.45-.59,6.74-2.59,10.16-2.96,2.27-.25,5.48-1.52,7.41-.02,1.32,1.02,1.46,2.86,2.39,4.22,2.15,3.14,6.67-.4,9.52-.39,2.08,0,3.73-.68,5.85-1.28,1.19-.34,3.74-.94,4.72-.71,1.75.42,2.88,2.66,4.95,2.57,2.14-.1,4.56-1.98,6.2-3.67,3.34-3.43,7.32-6.13,11.43-7.92,1.47,2.79-4.65,10.77-6.05,13.14-2.41,4.06-5.24,7.69-7.18,12.11.97.92,5.09-2.73,6.51-3.14-1.31,2.58-1.77,5.32-3.14,7.82-1.11,2.02-3.04,4.91-3.01,7.44.02,2.6,1.17,1.57,2.16,2.73,1.13,1.32.73,4.17,1.01,6.32.33,2.55.03,2.4,2.44,2.91,2.33.5,4.47.3,5.45,3.15.7,2.01.54,4.55.72,6.67.23,2.67.35,2.65,2.79,2.81,0,1.58-2.8,3.06-3.72,3.82-2.17,1.8-4.19,3.75-6.27,5.73-6.82,6.47-14.82,10.81-22.21,15.94-7.1,4.93-14.64,7.76-22.11,11.27-5.28,2.49-10.35,4.04-15.79,4.82-8.41,1.2-15.04-6.42-19.69-13.49-2.75-4.18-6.13-7.67-9.21-11.44-3.44-4.2-6.86-8.49-10.35-12.6-3.24-3.82-7.1-6.73-9.66-11.38-1.96-3.54-4.2-6.79-6.16-10.31-2-3.58-3.36-8.95-2.75-13.65.8-6.16,3.81-11.69,5.23-17.68.96-4.05,2.58-8.25,10.97-11.11Z"/>
      <path class="cls-1" d="m224.53,561.13c6.52,6.6,20.14,14.15,27.25,13.2,7.11-.94,10.66-8.01,10.66-8.01,27.25,0,32.58,1.41,29.02-5.66-3.56-7.07-14.22-46.66-14.22-59.4s14.22-73.53,14.22-73.53c.07-.31.13-.63.19-.94-.38-.55-.79-1.07-1.34-1.16-1.31-.2-2.94,1.73-3.78,2.45-1.23,1.06-2.12,1.15-3.74,1.11-.43-.02-1.79-.26-2.12.1-.53.59.05.97-.03,1.64-.32,2.5-2.43,4.25-4.45,5.21-.48-.86-1.59-3.62-1.62-4.69-1.63,1.53-2.85,5.87-5.52,4.24-1.86-1.15-2.39-4.4-2.69-6.46-.87,0-3.03,4.51-3.55,5.6-.66,1.39-1.2,3.15-3.11,2.83-2.09-.35-2.38-3.27-2.86-4.98-.38-1.33-1.43-2.29-1.79-3.53-.2-.67-.09-1.33-.22-2.02-.9-.29-2.99,4.69-3.92,5.61-1.55,1.52-3.34.27-4.76-.72-2.02-1.39-3.24-3.18-4.94-4.78-1.04-.97-2.71-.87-3.78-1.69-.87-.67-1.98-1.27-2.69-2.09-.66-.74-.46-1.78-.96-2.48-.39-.54-1.83-1.65-2.47-1.98-1.04-.55-1.86-.2-2.97-.25-1.3-.06-2.71-.48-3.97-.86-.22-.06-.43-.14-.65-.23-1.51,44.14-4.15,138.42.83,143.46Z"/>
      <path class="cls-7" d="m273.77,457.95s-1.55,46.73,0,63.59c1.55,16.85,5.24,35.92-6.8,14.47-12.04-21.45-7.08-1.72-6.6,15.49.48,17.21-21.75-2.98-21.75-17.88s-.68-59.45,0-70.24c.68-10.8,15.24,2.91,35.14-5.43Z"/>
      <path class="cls-1" d="m228.19,48s12.13-19.28,21.77-21.5c9.64-2.22,1.48,2.97,0,21.5s-4.24,34.85-13.61,30.4c-9.37-4.45-15.06-20.92-8.16-30.4Z"/>
      <path class="cls-1" d="m123.45,48s-12.13-19.28-21.77-21.5c-9.64-2.22-1.48,2.97,0,21.5s4.24,34.85,13.61,30.4c9.37-4.45,15.06-20.92,8.16-30.4Z"/>
      <path class="cls-11" d="m267.58,178.77c-1.45.66-2.41-1.54-3.77-1.45-1.47.09-1.57,2.47-1.29,3.74.15.65.57.71.71,1.37.11.59,0,1.44.1,2.05.13.85.79.3.38,1.45-.15.43-.78.81-1.12.92-1.24.42-2.5-.74-3.39.64-.59.91-.12,1.28.05,2.17.23,1.24.06,2.38.12,3.65.07,1.65,3.08,10.54.84,10.75-.32-.6-.77-.81-1.33-.58-.8,3.43.66,5.58,1.34,8.69.25,1.15,1.41,4.71,1.24,6.28l-3.26-.99c-.93-1.88-1.94-3.11-3.1-4.77-.57-.85-1.01-1.62-1.68-2.36-.35-.38-.69-.53-.91-1.08-.11.98-.65,3.48-1.4,3.81-.82.36-2.11-.97-2.51-1.7-1.67.15-.75,3.78-1.58,4.43-1.26.99-1.61-2.72-2.62-2.39-.82,2.26-.16,4.54-.56,6.89-.21,1.24-.47,3.09-1.69,1.67-1.02-1.2-.86-3.44-1.99-4.57-.95-.95-2.08-.58-2.76.56-1.02,1.72-.67,9.97-3.9,8.45-2.26-1.06-2.15-5.36-3.8-7.06-1.25,1.3.48,7.05-.82,7.54-.26-1.16-.78-2.38-1.62-3.1-1.3.83-2.53,1.94-3.97,2.01-1.06.06-2.1.05-2.2-1.5-2.09,2.24-2.67.44-3.28-1.85-.39-1.46-.47-2.79-.45-4.44,0-2.02-.6-3.45-.5-5.59.13-2.46,1.08-5.2.43-7.72-2.98,1.77-2.98-1.57-2.32-3.96.11-.41.53-.62.55-1.04.05-.84-.89-1.35-.95-2.14-.06-.95.53-2.04.87-2.79-.78-.32-1.57.15-2.31-.14-.07-1.41.78-2.8.38-4.22-1.41.59-2.48.46-3.76-.35-.4-.26-.7-.53-1.07-.83-.5-.42-.82-.55-1.37-.91-.99-.62-1.65-1.94-2.51-2.79-.97-.95-2.05-1.83-3.07-2.7-2.89-2.46-6.47-3.55-9.4-5.95-4.88-4.01-10.58-6.59-16.49-6.15h0c-5.91-.44-11.62,2.14-16.49,6.15-2.93,2.4-6.52,3.49-9.41,5.95-1.02.86-2.1,1.75-3.07,2.7-.86.85-1.51,2.17-2.51,2.79-.56.36-.88.48-1.38.91-.36.31-.66.57-1.07.83-1.28.81-2.34.94-3.76.35-.4,1.41.45,2.8.39,4.22-.74.29-1.54-.18-2.31.14.34.75.94,1.83.87,2.79-.06.79-1,1.3-.95,2.14.02.42.44.63.55,1.04.66,2.39.67,5.73-2.31,3.96-.65,2.52.3,5.26.42,7.72.1,2.13-.5,3.56-.5,5.59.02,1.65-.06,2.98-.45,4.44-.61,2.29-1.19,4.09-3.28,1.85-.1,1.54-1.13,1.55-2.2,1.5-1.44-.07-2.67-1.18-3.96-2.01-.84.71-1.36,1.94-1.62,3.1-1.3-.49.43-6.24-.82-7.54-1.66,1.71-1.54,6.01-3.81,7.06-3.23,1.51-2.89-6.73-3.9-8.45-.68-1.14-1.8-1.5-2.76-.56-1.13,1.12-.98,3.37-2,4.57-1.21,1.42-1.48-.43-1.68-1.67-.4-2.35.26-4.63-.57-6.89-1-.32-1.36,3.38-2.61,2.39-.83-.65.09-4.28-1.58-4.43-.4.73-1.7,2.06-2.51,1.7-.74-.33-1.29-2.83-1.4-3.81-.22.55-.57.7-.91,1.08-.67.74-1.1,1.51-1.68,2.36-1.16,1.66-2.16,2.89-3.1,4.77l-3.26.99c-.16-1.57.99-5.13,1.24-6.28.68-3.11,2.14-5.26,1.35-8.69-.57-.23-1.02-.02-1.33.58-2.25-.21.76-9.1.83-10.75.06-1.28-.11-2.41.12-3.65.17-.9.64-1.26.05-2.17-.9-1.38-2.14-.22-3.39-.64-.34-.11-.97-.49-1.12-.92-.4-1.15.26-.6.38-1.45.09-.61-.02-1.46.11-2.05.13-.65.56-.71.7-1.37.27-1.28.18-3.65-1.29-3.74-1.36-.09-2.31,2.12-3.76,1.45-.18-1.58,1.92-4.15,2.52-5.51.48-1.09,1.15-2.99,1.26-4.16.36-3.9-3.31-1.18-3.73-3.81.61-.53,2.13-3.17,2.33-3.96.26-1.06-.4-1.55-.42-2.59v-.09l.31-.13c1.55-1.03,3.04-2.3,4.65-3.23.97-.55,2.05-.96,2.97-1.64.85-.61,4-2.31,4.2-3.35-.29-.1-.59-.17-.89-.23-.19-.61,3.21-2.46,3.5-3.48.42-1.47-2.46-2.34-2.95-3.61.91-1.47,5.84-4,4.79-6.18-.4-.82-1.28-1.2-1.47-2.19-.3-1.43.99-1.69,2.1-1.67-.36-1.03-.06-3.54-1.11-4.45.86-.11,2.33-.51,2.6-1.64-.91-1.67-3.98-5.59-.84-6.59,1.67-.53,3.16-.21,4.28-2.1,1-1.7-.52-5.29-1.32-6.95-.37-.78-1.27-1.84-.15-2.65.7-.52,2.04.09,2.83-.2-.52-1.77-1.96-3.45-2.29-5.44-.57-3.44,2.09-1.33,3.54-3.04,1.25-1.45.71-4,.11-5.74-.74-2.17-1.76-4.37-2.25-6.63.98.51,1.89,1.99,3.08,1.48.79-.34,1.1-1.29,1.2-2.17.16-1.39-.43-3.06-.49-4.48-.06-1.53-.74-2.89-.46-4.44,1.82.19,2.94,2.98,4.72,3.23,1.6.23,1.92-1.62,1.91-2.96-.02-2.37.09-4.68-.24-7.01-.36-2.52-.04-4.59.33-7.02.47.72.99,1.65,1.34,2.46.4.91.49,1.96,1.16,2.64,1.49,1.5,2.53-.11,2.65-1.88.22-3.1-.35-6.28.08-9.36.2-1.41.37-2.68.37-4.1,0-.9-.23-2.3.94-2.11.98.15,2.48,3.07,3.34,3.73,1.3,1.01,2.14.98,2.97-.42,1.3-2.22,1.33-4.49,1.3-7.12-.02-2.26.7-4.5.4-6.7.85,1.28,3.96,8.99,5.25,4.32.74-2.7.85-6.45.47-9.28.4.92,1.16,1.62,1.63,2.51.36.69.6,1.45.99,2.12.28.48.97,1.85,1.62,1.26.4-.35.31-4.07,0-5.52.92,2.25,3.57,7.43,5.32,3.98.96-1.9,1.24-4.41,1.42-6.6.1-1.12.26-2.26.48-3.35.16-.83.62-1.96.41-2.83.95,2.09,3.51,8.51,6.25,6.09,2.22-1.96,2.48-6.71,2.33-9.65.49.93,1.34,6.06,2.89,5.83,1.32-.19,1.08-5.42.86-6.65,1.17,2.28,5.08,4.87,6.85,2.25.84-1.23,1.27-3.08,1.31-4.62.04-1.21-.27-2.34.53-3.29,1.19.53,2.07,2.26,2.89,3.33.32.43.69.8,1.07,1.16h0c.39-.36.74-.73,1.07-1.16.82-1.08,1.7-2.8,2.89-3.33.79.95.49,2.08.53,3.29.05,1.54.48,3.4,1.31,4.62,1.78,2.63,5.68.03,6.85-2.25-.22,1.24-.45,6.46.86,6.65,1.55.23,2.4-4.9,2.9-5.83-.16,2.94.1,7.69,2.32,9.65,2.74,2.42,5.29-4,6.25-6.09-.2.86.25,2,.41,2.83.22,1.09.38,2.23.48,3.35.19,2.18.47,4.7,1.42,6.6,1.75,3.45,4.4-1.73,5.33-3.98-.32,1.45-.41,5.17-.02,5.52.65.59,1.34-.78,1.62-1.26.39-.67.63-1.43.99-2.12.47-.89,1.22-1.59,1.62-2.51-.38,2.83-.27,6.58.47,9.28,1.29,4.66,4.4-3.05,5.25-4.32-.29,2.2.42,4.44.4,6.7-.02,2.64,0,4.9,1.3,7.12.82,1.4,1.67,1.43,2.97.42.86-.65,2.36-3.57,3.34-3.73,1.16-.19.94,1.21.94,2.11,0,1.42.17,2.68.37,4.1.43,3.08-.14,6.26.08,9.36.13,1.78,1.16,3.38,2.65,1.88.67-.68.76-1.74,1.16-2.64.35-.81.87-1.74,1.34-2.46.38,2.42.7,4.49.33,7.02-.33,2.33-.22,4.64-.23,7.01-.02,1.34.3,3.18,1.9,2.96,1.79-.25,2.9-3.05,4.72-3.23.28,1.54-.4,2.91-.46,4.44-.06,1.42-.64,3.09-.49,4.48.1.87.4,1.83,1.2,2.17,1.19.51,2.11-.97,3.08-1.48-.48,2.26-1.5,4.46-2.25,6.63-.6,1.74-1.13,4.29.11,5.74,1.45,1.71,4.11-.4,3.54,3.04-.33,1.99-1.76,3.67-2.28,5.44.79.29,2.13-.32,2.83.2,1.12.81.23,1.87-.15,2.65-.79,1.66-2.32,5.25-1.31,6.95,1.12,1.89,2.61,1.57,4.28,2.1,3.14,1,.07,4.91-.84,6.59.27,1.13,1.75,1.53,2.61,1.64-1.06.91-.75,3.43-1.12,4.45,1.12-.02,2.4.23,2.11,1.67-.2.99-1.08,1.37-1.47,2.19-1.05,2.17,3.87,4.7,4.79,6.18-.48,1.27-3.36,2.13-2.95,3.61.3,1.03,3.69,2.88,3.5,3.48-.3.06-.6.14-.88.23.19,1.03,3.35,2.73,4.2,3.35.92.68,2,1.09,2.97,1.64,1.62.93,3.1,2.19,4.65,3.23l.31.13v.09c-.02,1.03-.68,1.53-.41,2.59.19.79,1.71,3.43,2.33,3.96-.43,2.63-4.11-.1-3.73,3.81.1,1.17.78,3.07,1.26,4.16.6,1.37,2.69,3.94,2.52,5.51Z"/>
      <path class="cls-4" d="m265.61,158.65l-.31-.13c-1.55-1.03-3.03-2.3-4.65-3.23-.97-.55-2.05-.96-2.97-1.64-.85-.61-4.01-2.31-4.2-3.35.28-.1.58-.17.88-.23.19-.61-3.2-2.46-3.5-3.48-.41-1.47,2.47-2.34,2.95-3.61-.91-1.47-5.84-4-4.79-6.18.39-.82,1.27-1.2,1.47-2.19.29-1.43-.99-1.69-2.11-1.67.36-1.03.06-3.54,1.12-4.45-.86-.11-2.34-.51-2.61-1.64.91-1.67,3.99-5.59.84-6.59-1.67-.53-3.15-.21-4.28-2.1-1.01-1.7.52-5.29,1.31-6.95.38-.78,1.27-1.84.15-2.65-.7-.52-2.04.09-2.83-.2.52-1.77,1.95-3.45,2.28-5.44.57-3.44-2.09-1.33-3.54-3.04-1.24-1.45-.71-4-.11-5.74.75-2.17,1.76-4.37,2.25-6.63-.97.51-1.89,1.99-3.08,1.48-.79-.34-1.1-1.29-1.2-2.17-.15-1.39.43-3.06.49-4.48.06-1.53.74-2.89.46-4.44-1.82.19-2.93,2.98-4.72,3.23-1.6.23-1.92-1.62-1.9-2.96.02-2.37-.1-4.68.23-7.01.36-2.52.05-4.59-.33-7.02-.47.72-.99,1.65-1.34,2.46-.4.91-.48,1.96-1.16,2.64-1.49,1.5-2.52-.11-2.65-1.88-.22-3.1.35-6.28-.08-9.36-.2-1.41-.37-2.68-.37-4.1,0-.9.23-2.3-.94-2.11-.98.15-2.48,3.07-3.34,3.73-1.3,1.01-2.14.98-2.97-.42-1.3-2.22-1.33-4.49-1.3-7.12.02-2.26-.7-4.5-.4-6.7-.85,1.28-3.96,8.99-5.25,4.32-.74-2.7-.85-6.45-.47-9.28-.4.92-1.16,1.62-1.62,2.51-.36.69-.61,1.45-.99,2.12-.28.48-.98,1.85-1.62,1.26-.4-.35-.31-4.07.02-5.52.09-.22.16-.4.22-.56-.08.06-.16.27-.22.56-.93,2.25-3.58,7.43-5.33,3.98-.95-1.9-1.24-4.41-1.42-6.6-.1-1.12-.26-2.26-.48-3.35-.16-.83-.61-1.96-.41-2.83-.95,2.09-3.51,8.51-6.25,6.09-2.22-1.96-2.48-6.71-2.32-9.65-.5.93-1.35,6.06-2.9,5.83-1.31-.19-1.08-5.42-.86-6.65-1.17,2.28-5.08,4.87-6.85,2.25-.83-1.23-1.26-3.08-1.31-4.62-.03-1.21.27-2.34-.53-3.29-1.19.53-2.06,2.26-2.89,3.33-.32.43-.68.8-1.07,1.15h0s0,0,0,0c-.39-.35-.75-.72-1.07-1.15-.82-1.08-1.7-2.8-2.89-3.33-.79.95-.49,2.08-.53,3.29-.04,1.54-.47,3.4-1.31,4.62-1.78,2.63-5.68.03-6.85-2.25.23,1.24.46,6.46-.86,6.65-1.55.23-2.4-4.9-2.89-5.83.15,2.94-.11,7.69-2.33,9.65-2.74,2.42-5.29-4-6.25-6.09.21.86-.25,2-.41,2.83-.22,1.09-.38,2.23-.48,3.35-.18,2.18-.46,4.7-1.42,6.6-1.75,3.45-4.4-1.73-5.32-3.98-.06-.29-.14-.49-.23-.56.06.15.13.34.23.56.32,1.45.4,5.17,0,5.52-.65.59-1.33-.78-1.62-1.26-.4-.67-.64-1.43-.99-2.12-.47-.89-1.23-1.59-1.63-2.51.38,2.83.27,6.58-.47,9.28-1.29,4.66-4.4-3.05-5.25-4.32.29,2.2-.42,4.44-.4,6.7.02,2.64,0,4.9-1.3,7.12-.82,1.4-1.66,1.43-2.97.42-.86-.65-2.36-3.57-3.34-3.73-1.16-.19-.94,1.21-.94,2.11,0,1.42-.17,2.68-.37,4.1-.43,3.08.14,6.26-.08,9.36-.12,1.78-1.16,3.38-2.65,1.88-.67-.68-.76-1.74-1.16-2.64-.35-.81-.87-1.74-1.34-2.46-.37,2.42-.7,4.49-.33,7.02.33,2.33.22,4.64.24,7.01,0,1.34-.31,3.18-1.91,2.96-1.78-.25-2.9-3.05-4.72-3.23-.28,1.54.4,2.91.46,4.44.06,1.42.65,3.09.49,4.48-.1.87-.4,1.83-1.2,2.17-1.19.51-2.1-.97-3.08-1.48.48,2.26,1.5,4.46,2.25,6.63.6,1.74,1.14,4.29-.11,5.74-1.46,1.71-4.11-.4-3.54,3.04.33,1.99,1.77,3.67,2.29,5.44-.79.29-2.13-.32-2.83.2-1.12.81-.23,1.87.15,2.65.8,1.66,2.32,5.25,1.32,6.95-1.12,1.89-2.62,1.57-4.28,2.1-3.14,1-.07,4.91.84,6.59-.27,1.13-1.75,1.53-2.6,1.64,1.05.91.74,3.43,1.11,4.45-1.12-.02-2.4.23-2.1,1.67.19.99,1.08,1.37,1.47,2.19,1.04,2.17-3.88,4.7-4.79,6.18.49,1.27,3.37,2.13,2.95,3.61-.29,1.03-3.69,2.88-3.5,3.48.3.06.6.14.89.23-.2,1.03-3.35,2.73-4.2,3.35-.93.68-2,1.09-2.97,1.64-1.61.93-3.1,2.19-4.65,3.23l-.31.13c0-.95.28-1.24.7-2.08.48-.95.87-1.85,1.24-2.89.61-1.68.91-2.82,2.1-4.4,1.44-1.92,2.76-3.71,4.7-4.83.79-.45,1.74-1.1,2.57-1.9,0-1.91.02-3.69.09-5.39-.48-.11-.95-.23-1.41-.45-.04-.58,1.14-2.76,1.43-3.31.08-.15.16-.3.26-.44.19-2.01.46-4.04.85-6.22h0c-3.84-.46-.26-3.36.79-5.01.1-.15.23-.36.37-.61.21-.91.43-1.87.68-2.85-.28-.5-.85-.64-1.2-1.1-1.22-1.56-.53-3.1.19-4.76.32-.74.53-.98.48-1.96-.09-1.95-.67-1.02-1.51-2.54-.71-1.28-.43-1.44.52-2.54.72-.84,1.47-1.57,2.09-2.53.9-1.39,1.83-3.31,2.08-5.07.22-1.53.78-3.41.45-4.91-.32-1.41-1.65-2.79-1.03-4.5.68-1.88,2.93-3.19,3.61-5.07.78-2.15-.64-2.2-1.67-3.06-1.79-1.51-1.09-2.64-.44-4.53,1.07-3.12,2.6-7.27,5.33-9.16-.4-1.15-1.47-1.56-1.87-2.71,1.16.15,1.12-.75,1.86-1.36.93-.76,1.67-1.48,2.55-2.35.67-.66,3.23-2.34,2.71-3.71-.51-1.31-2.27-.44-2.71-2.06,1.43-2.11,3.02-2.65,4.79-4.07,1.75-1.39,1.67-3.27.86-5.03,1.29-.84,3.98-2.62,4.38-4.16.18-.71-.9-5,1.14-4.11-.86-.89-1.97-1.79-2.16-3.22.82-.81,2.05.24,3,.23.19-1.23.32-6.28,2.6-4.63.11-.11.21-.22.29-.36-.2-.1-.27-.27-.2-.53.95-.79.91-3.18,1.12-4.36.36.68,1.43.66,2.04,1.03,1.26.74,2.16,2.14,3.45,2.89-.71-1.08-.63-3.58-.28-4.84.65-2.36,2.23-1.3,3.67-.87.61.18,1.62.4,2.25.19,1.12-.38.66-.17.91-1.46.15-.77.32-1.4.5-2.16.32-1.4-.06-2.83.23-4.25.83,1.14,1.62,2.25,2.53,3.31-.4-2.95.27-5.63.65-8.52,1.35-.18,3.31,3.44,4.04,4.41.86,1.17,1.8,2.32,2.85,3.29,1.09-1.01.4-2.67.72-4.05.38-.03.65.2.78.7.47.53,1.03.77,1.67.72.22.18.38.36.52.56.34-.21.67-.42.99-.62.15-.83.32-1.67.33-2.43.03-1.76.44-3.58,1.26-5.1.7-1.32,1.91-2.76,3.08-1.12.8,1.14.52,3.6,1.21,4.93,2.6-1.91,2.45-9.1,6.4-9.15.43.75,1.2.64,1.7,1.33.65.91.53,2.55,1.07,3.64,2.41-.09,2.16-4.92,2.53-6.52.98.11.38,2.83.48,3.65.08.68.24,1.77.53,2.72,1.2-.29,1.92-.41,2.02-.43h0c.09.02.81.14,2.02.43.27-.95.44-2.05.52-2.72.1-.82-.5-3.55.48-3.65.36,1.59.11,6.43,2.52,6.52.54-1.08.41-2.72,1.07-3.64.49-.7,1.26-.58,1.7-1.33,3.94.05,3.79,7.24,6.39,9.15.7-1.33.42-3.79,1.22-4.93,1.16-1.64,2.37-.19,3.07,1.12.82,1.52,1.23,3.34,1.27,5.1,0,.77.17,1.6.32,2.43.33.2.66.41,1,.62.14-.19.29-.38.51-.56.64.05,1.2-.19,1.67-.72.14-.49.4-.73.79-.7.32,1.38-.37,3.04.72,4.05,1.03-.97,1.98-2.12,2.84-3.29.73-.98,2.69-4.59,4.04-4.41.39,2.89,1.04,5.57.65,8.52.91-1.07,1.7-2.17,2.54-3.31.29,1.42-.09,2.85.23,4.25.17.76.34,1.39.49,2.16.25,1.29-.2,1.08.92,1.46.62.21,1.63-.02,2.24-.19,1.45-.43,3.02-1.49,3.68.87.34,1.26.43,3.76-.28,4.84,1.29-.74,2.18-2.14,3.45-2.89.61-.36,1.67-.35,2.03-1.03.23,1.18.19,3.57,1.13,4.36.06.25,0,.43-.21.53.08.14.18.25.3.36,2.28-1.65,2.4,3.4,2.59,4.63.95,0,2.18-1.04,3-.23-.19,1.42-1.29,2.33-2.16,3.22,2.05-.89.97,3.4,1.15,4.11.39,1.54,3.09,3.32,4.37,4.16-.81,1.75-.89,3.64.86,5.03,1.78,1.41,3.37,1.96,4.79,4.07-.43,1.62-2.2.75-2.7,2.06-.53,1.37,2.04,3.05,2.7,3.71.88.87,1.62,1.59,2.55,2.35.74.61.7,1.5,1.85,1.36-.39,1.15-1.47,1.56-1.86,2.71,2.72,1.88,4.26,6.04,5.33,9.16.65,1.89,1.34,3.02-.44,4.53-1.02.86-2.44.91-1.67,3.06.7,1.88,2.93,3.18,3.61,5.07.62,1.71-.71,3.09-1.02,4.5-.33,1.5.23,3.38.44,4.91.24,1.75,1.18,3.68,2.08,5.07.62.96,1.37,1.69,2.1,2.53.94,1.1,1.22,1.26.52,2.54-.84,1.52-1.43.59-1.52,2.54-.04.99.16,1.22.48,1.96.72,1.67,1.41,3.2.19,4.76-.36.46-.93.6-1.21,1.1.25.99.47,1.94.69,2.85.14.25.27.46.36.61,1.06,1.65,4.63,4.55.79,5.01h0c.39,2.18.66,4.21.85,6.22.1.14.19.28.27.44.29.55,1.46,2.73,1.43,3.31-.46.23-.94.35-1.41.45.08,1.71.1,3.48.09,5.39.83.8,1.79,1.45,2.57,1.9,1.94,1.12,3.27,2.91,4.71,4.83,1.18,1.58,1.48,2.72,2.09,4.4.38,1.03.77,1.94,1.24,2.89.43.83.71,1.12.7,2.08Z"/>
      <path class="cls-8" d="m261.45,218.45c-.02.24-.07.44-.17.57-.99,1.37-4.51-.59-5.67-1.08-1.85-.79-4.96-2.8-6.93-2.06-.45,2.51.78,6.61,1.81,8.78.69,1.46,1.83,2.67,2.45,4.2.48,1.16.41,1.5,1.37,2.32-.65.64-1.64.49-2.48.65-.24,1.25-.12,2.95.09,4.2.15.95,1.77,4.16,1.05,5.01-.95,1.12-5.41-2.35-6.24-3-1.46-1.14-3.56-3.56-4.79-.88-.73,1.6.12,3.09.42,4.66.38,1.96,1,4.16,1.81,5.96-1.52,2.55-3.6-4.83-5.45.21-.57,1.58-.28,4.92-1.31,6.26-.63.82-1.11.71-2.09.65-1.37-.1-1.11-.44-2.04-1.29-1.06-.96-2.73-3.31-4.33-2.23-1.54,1.03-2,5.52-2.34,7.34-.35,1.81-.61,3.31-2.21,2-1.42-1.17-2.35-3.39-3.97-4.4-.76-.48-.48-.66-1.42-.57-.36.03-1.62.93-1.92,1.24-2.06,2.23-2.67,7.97-5.97,4.6-1.52-1.57-2.04-1.99-3.49-.74-1.27,1.1-2.96,1.88-4.6,1.16-1.89-.82-1.67-3.94-4.33-2.83-1.45.61-1.71,3.37-3.27,3.9-2.55.86-4.1-4.37-6.18-5.23-1.24,2.13-2.38,6.43-4.73,2.88-.73-1.12-1.22-2.36-1.71-3.62-2.27.13-4.58.19-7,.19h0c-2.42,0-4.74-.06-7.01-.19-.49,1.26-.98,2.51-1.71,3.62-2.34,3.55-3.48-.74-4.73-2.88-2.08.86-3.61,6.09-6.17,5.23-1.58-.53-1.83-3.29-3.28-3.9-2.66-1.12-2.43,2-4.32,2.83-1.65.72-3.34-.06-4.61-1.16-1.44-1.24-1.97-.82-3.49.74-3.29,3.37-3.9-2.37-5.97-4.6-.3-.32-1.56-1.21-1.92-1.24-.94-.09-.66.1-1.43.57-1.62,1.01-2.55,3.23-3.97,4.4-1.58,1.31-1.86-.19-2.2-2-.35-1.82-.81-6.3-2.34-7.34-1.59-1.07-3.27,1.27-4.32,2.23-.94.85-.68,1.19-2.04,1.29-.99.06-1.46.18-2.09-.65-1.02-1.33-.74-4.68-1.3-6.26-1.85-5.04-3.93,2.34-5.46-.21.82-1.79,1.44-3.99,1.82-5.96.29-1.57,1.14-3.06.42-4.66-1.23-2.68-3.33-.26-4.79.88-.84.65-5.3,4.12-6.25,3-.72-.85.9-4.06,1.06-5.01.2-1.24.33-2.94.08-4.2-.83-.16-1.83-.02-2.48-.65.95-.82.89-1.16,1.37-2.32.62-1.53,1.75-2.73,2.46-4.2,1.03-2.17,2.26-6.27,1.8-8.78-1.96-.74-5.07,1.27-6.92,2.06-1.16.49-4.67,2.45-5.67,1.08-.1-.13-.15-.33-.18-.57l3.26-.99c.94-1.88,1.94-3.11,3.1-4.77.58-.85,1.01-1.62,1.68-2.36.35-.38.7-.53.91-1.08.11.98.65,3.48,1.4,3.81.82.36,2.11-.97,2.51-1.7,1.67.15.75,3.78,1.58,4.43,1.25.99,1.61-2.72,2.61-2.39.82,2.26.16,4.54.57,6.89.2,1.24.47,3.09,1.68,1.67,1.02-1.2.86-3.44,2-4.57.95-.95,2.08-.58,2.76.56,1.01,1.72.66,9.97,3.9,8.45,2.26-1.06,2.15-5.36,3.81-7.06,1.24,1.3-.49,7.05.82,7.54.27-1.16.78-2.38,1.62-3.1,1.29.83,2.52,1.94,3.96,2.01,1.07.06,2.1.05,2.2-1.5,2.09,2.24,2.67.44,3.28-1.85.39-1.46.47-2.79.45-4.44,0-2.02.61-3.45.5-5.59-.12-2.46-1.07-5.2-.42-7.72,2.98,1.77,2.97-1.57,2.31-3.96-.11-.41-.53-.62-.55-1.04-.05-.84.9-1.35.95-2.14.07-.95-.53-2.04-.87-2.79.77-.32,1.57.15,2.31-.14.06-1.41-.79-2.8-.39-4.22,1.41.59,2.48.46,3.76-.35.4-.26.7-.53,1.07-.83.5-.42.82-.55,1.38-.91.99-.62,1.65-1.94,2.51-2.79.97-.95,2.05-1.83,3.07-2.7,2.89-2.46,6.48-3.55,9.41-5.95,4.87-4.01,10.58-6.59,16.49-6.15h0c5.91-.44,11.61,2.14,16.49,6.15,2.93,2.4,6.51,3.49,9.4,5.95,1.02.86,2.1,1.75,3.07,2.7.86.85,1.52,2.17,2.51,2.79.55.36.87.48,1.37.91.36.31.66.57,1.07.83,1.28.81,2.34.94,3.76.35.4,1.41-.45,2.8-.38,4.22.74.29,1.54-.18,2.31.14-.35.75-.94,1.83-.87,2.79.06.79,1,1.3.95,2.14-.02.42-.44.63-.55,1.04-.66,2.39-.66,5.73,2.32,3.96.65,2.52-.3,5.26-.43,7.72-.1,2.13.51,3.56.5,5.59-.02,1.65.06,2.98.45,4.44.61,2.29,1.19,4.09,3.28,1.85.1,1.54,1.14,1.55,2.2,1.5,1.44-.07,2.67-1.18,3.97-2.01.84.71,1.36,1.94,1.62,3.1,1.31-.49-.43-6.24.82-7.54,1.65,1.71,1.54,6.01,3.8,7.06,3.23,1.51,2.89-6.73,3.9-8.45.68-1.14,1.8-1.5,2.76-.56,1.13,1.12.97,3.37,1.99,4.57,1.22,1.42,1.48-.43,1.69-1.67.4-2.35-.27-4.63.56-6.89,1.01-.32,1.36,3.38,2.62,2.39.82-.65-.1-4.28,1.58-4.43.4.73,1.7,2.06,2.51,1.7.74-.33,1.29-2.83,1.4-3.81.23.55.57.7.91,1.08.67.74,1.11,1.51,1.68,2.36,1.16,1.66,2.17,2.89,3.1,4.77l3.26.99Z"/>
      <path class="cls-11" d="m137.37,36.15c.1.06.19.27.26.56-.11-.22-.19-.4-.26-.56Z"/>
      <circle class="cls-5" cx="112.06" cy="116.83" r="16.31" transform="translate(-27.39 199.05) rotate(-76.72)"/>
      <circle class="cls-3" cx="115.29" cy="118.44" r="8.16" transform="translate(-24.13 29.66) rotate(-13.28)"/>
      <path class="cls-4" d="m128.37,116.83h-32.62c0-9,7.31-16.31,16.31-16.31s16.31,7.31,16.31,16.31Z"/>
      <path class="cls-4" d="m137.37,36.15c.1.06.19.27.26.56-.11-.22-.19-.4-.26-.56Z"/>
      <path class="cls-11" d="m214.27,36.15c-.1.06-.19.27-.26.56.1-.22.19-.4.26-.56Z"/>
      <path class="cls-7" d="m207.23,178.67s0,.02.01.03c-.07-.04-.15-.07-.22-.11-.03-.04-.07-.07-.1-.12.1.06.21.13.31.19Z"/>
      <path class="cls-5" d="m223.27,116.83c0,9,7.3,16.31,16.31,16.31s16.31-7.31,16.31-16.31-7.31-16.31-16.31-16.31-16.31,7.31-16.31,16.31Z"/>
      <circle class="cls-9" cx="236.35" cy="118.44" r="8.16" transform="translate(66.77 321.26) rotate(-76.72)"/>
      <path class="cls-4" d="m223.27,116.83h32.62c0-9-7.31-16.31-16.31-16.31s-16.31,7.31-16.31,16.31Z"/>
      <path class="cls-4" d="m214.27,36.15c-.1.06-.19.27-.26.56.1-.22.19-.4.26-.56Z"/>
      <path class="cls-1" d="m156.38,260.31s17.16,17.05,38.88-1.24c21.73-18.29-45.87-11.37-38.88,1.24Z"/>
      <g>
        <path class="cls-7" d="m144.4,178.67s0,.02-.01.03c.07-.04.15-.07.22-.11.03-.04.07-.07.1-.12-.1.06-.21.13-.31.19Z"/>
        <path class="cls-7" d="m211.53,225.86c0,.95,0,1.88-.02,2.77-.56,31.04-10.52,32.16-15.66,32.16h-12.61c-6.02,0-7.42-10.78-7.42-10.78,0,0-1.39,10.78-7.42,10.78h-12.6c-4.96,0-14.36-1.03-15.55-28.85-.08-1.9-.13-3.93-.13-6.09,0-33.76-.93-34.22,2.31-42.11.5-1.2,1.16-2.89,1.92-4.91.09-.06.19-.14.26-.23,1.39-.62,2.81-.88,4.24-1.29.69-.2,1.27-.57,1.99-.81.49-.17.78-.57,1.33-.7.61-.14,1.15.18,1.76-.11-.27-2.12-6.13-4.33-5.53-6.62.16-.6,2.74-1.53,3.35-2,1.48-1.17,2.95-2.44,4.44-3.64-1.35-2.16.04-5.63,1.45-7.35.73-.89,1.55-1.92,1.84-3.23.27-1.25,0-2.34.44-3.59.74-2.13.88-4.07,1.5-6.3.48-1.78.54-3.23-.04-4.99.67-.56.48-1.46.46-2.35-.02-1.12.27-1.5.44-2.31.47-2.34.71-2.25,2.32-3.62-.03-.34-.19-.54-.48-.62.35-2.42,2.47-2.46,3.48-4.03.9-1.38.24-2.72-.03-4.1-.33-1.67-.27-3.41.4-4.87.45-.98.9-1.68,1.18-2.76.26-1.01.22-1.44.81-2.47.8-1.41,1.67-3.29,2.63-4.49.32-.41.7-.84,1.08-1.28.71-.23,1.43-.34,2.17-.34s1.45.11,2.17.34c.38.44.75.86,1.07,1.28.97,1.2,1.83,3.07,2.64,4.49.59,1.03.54,1.46.81,2.47.28,1.08.72,1.78,1.18,2.76.66,1.46.74,3.2.4,4.87-.27,1.38-.93,2.72-.04,4.1,1,1.57,3.14,1.6,3.48,4.03-.29.08-.45.28-.48.62,1.61,1.37,1.84,1.28,2.31,3.62.17.82.47,1.2.44,2.31-.02.89-.2,1.79.47,2.35-.59,1.76-.53,3.21-.04,4.99.61,2.24.74,4.18,1.49,6.3.44,1.25.16,2.34.44,3.59.29,1.3,1.12,2.34,1.85,3.23,1.41,1.71,2.8,5.19,1.44,7.35,1.49,1.2,2.96,2.47,4.45,3.64.61.48,3.19,1.41,3.35,2,.59,2.29-5.27,4.5-5.54,6.62.61.28,1.16-.03,1.77.11.53.13.83.53,1.32.7.72.24,1.3.61,1.99.81,1.43.41,2.85.67,4.24,1.29.08.1.17.18.27.23.76,2.02,1.41,3.71,1.92,4.91,3.24,7.9,2.32,8.36,2.32,42.11Z"/>
      </g>
      <path class="cls-2" d="m154.83,194.16s-8.4,0-9.52,6.46c-1.12,6.46,16.23,4.31,9.52-6.46Z"/>
      <path class="cls-2" d="m196.81,194.16s8.4,0,9.52,6.46c1.12,6.46-16.23,4.31-9.52-6.46Z"/>
      <path class="cls-10" d="m175.98,121.52s-3.75.29-5.08,14.09c-1.33,13.8-7.09,37.2-4.21,43.09,2.88,5.88,14.84,5.84,19.04,0,4.21-5.84-5.56-56.78-9.76-57.18Z"/>
    </g>
  </g>
</svg>