<svg xmlns="http://www.w3.org/2000/svg" data-name="Layer 2" viewBox="0 0 95.16 67.01"><defs/><g data-name="100"><path d="M45.39 57.07c-.19-.18-.36-.37-.52-.58-.12.68-.33 1.34-.63 1.97a1.99 1.99 0 0 0-1.02-.42c-.06 1.48-1.55.44-2.17-.22-.22.13-.3.34-.22.63-1.18-.51-2.08.02-3.29-.59-.22.4-.86.8-1.06 1.24-.55-.53-1.05-1.17-1.58-1.64-.16.25-.34.37-.5.57-.43-.45-1.15-.67-1.57-1.18-.15.32-.67.64-.82.96-.11-.21-.25-.38-.39-.51-.01.02-.03.04-.04.07-.22-.14-.43-.29-.64-.44-.45-.16-.93-.24-1.35-.57-.18-.15-.38-.32-.57-.49-.25.14-.45.32-.61.56-.77-.61-2-.41-2.29-.59-.95-.57-1.7-1.63-2.42-2.51-.32.07-.43.3-.35.68-.38-1.24-1.64-1.91-2.36-3 .02.53-.19.95-.22 1.44-.83-.54-1.29-1.51-1.97-2.26-.09.33-.31.62-.41.91-.88-1.91-1.76-3.59-1.81-5.68-.05-2.45.42-4.99.54-7.41.13-.03.27-.06.4-.1l-.12-.52c1.14-.19 1.99.08 3.16-.56.42-.23.51-.92.9-1.2.23-.16.76.35.96.14.62-.61.93-1.49 1.13-2.35.11.4.47.79.57 1.11.76-1.02.4-2.34.82-3.5.11.16.33.34.45.48-.05-.7.03-1.48.31-2.16.04.05.08.12.12.2.24 1.19.26 2.31.46 3.53-.1-.09-.18-.29-.25-.38-.36 1.26-.43 2.57-.68 3.83-.24-.08-.26-.28-.46-.38-.13.23-.08.49-.22.72-1.77-.48-1.9 4.45-2.44 5.82.26-.4.7-.61 1-.96.17 1.4 0 2.92 1.04 4.03.19-1.14.41-2.37.93-3.39.25.67.56 1.33.92 1.94.3-.53.63-1.21.89-1.83.49.47.9 1.2 1.22 1.74 0-.5.36-1.08.39-1.57.3.31 1.06.78 1.34 1.21.2-1.03.15-2.12.13-3.19.33.6.77 1.24 1.19 1.74.37-1.92-.13-4.32-.52-6.25.68 1.46 1.81 2.67 2.61 4.04.21-.95.22-1.97.46-2.93.06.66.41 1.25.61 1.78.02-.35.21-.73.26-1.08.27.34.92.6 1.17.9.22-.81.04-1.75.01-2.64.81 1.2 1.56 1.68 2.26 2.64.01-.05.32-.53.32-.53.21.21.65.41.88.62.03-.49.36-1.05.4-1.54.13.2.56.52.73.92.32-.75.32-1.56.19-2.39.84 1.1 2.6 1.55 2.79 3 .05-.36.24-.75.29-1.11.15.12.3.25.43.4.22-.61.39-1.27.49-1.93.41.5.75 1.07.93 1.72.39-.06.8-.02 1.2.09 0 .62-.13 1.25-.32 1.91-.26-.07-.75 0-.92-.05-.95 3.38.76 6.76.46 10.03-.14-.14-.27-.29-.38-.45-.43 2.27-.35 5.19-.22 7.51Z" style="fill:#232116;stroke-width:0"/><path d="M63.01 27.4c.02.38-.38.47-.68.57-.67.12-1.35.21-2.03.26-.27.02-.54.05-.81.07-.84.07-1.54.31-2.34.55-1.05.32-2.19.27-3.28.42-.85.11-1.67.15-2.53.14-.89 0-1.76-.03-2.65.07-1.13.12-2.24.33-3.37.44-.64.07-1.28.09-1.92.16-.34.03-.61.21-.94.24-.36.03-.87.05-1.21-.03-1.15-.27-.94-2.27-.93-3.06.01-2.12-.09-4.24.02-6.36.07-1.37.35-2.63 1.17-3.76.15-.2.34-.31.55-.38-.47-.27-1.03-.46-1.4-.81.37-.16.72-.6 1.13-.78-.84-.85-2.29-.6-3.31-1.28.16-.21.33-.46.52-.7-.65.08-1.46.13-2.17-.04-.04.17.15.19.09.36-.99-.36-1.89-1.16-2.92-1.59.12.32.04.94.12 1.21-.7-.18-1.34-.55-1.94-.97-.09.18-.13.35-.22.53-.71-.45-1.45-1.07-2.33-1.26.03.19-.02.54 0 .77-.8-.44-1.77-.56-2.68-.71.07.2.09.37.2.63-1.04-.24-2.45-.36-3.22-.87-.77.68-1.55 1.36-2.34 2.02-.11-.07-.23-.14-.35-.2-2.66-1.44-5.11-.89-7.96-.67.13-.86.22-2.11.66-2.86.32-.54.85-.77 1.2-1.19.1-.19.21-.39.31-.58.03-.11.05-.22.07-.35l.11.03c1-1.77 2.21-3.36 4.24-4.38-.11.35-.08.91-.2 1.23.73-.96 1.83-1.25 2.91-1.52-.05.24-.03.53-.08.76.29-.26.58-.43.86-.52.63-.33 1.29-.59 1.97-.82.76-.26 1.74-.56 2.25-1.2.31-.39.64-.85 1.18-.96.02.65.59.45 1.11.45.27 0 .53 0 .79-.04.27-.05.64-.21.92-.11-.13.16-.53.4-.54.62C32.23.82 33.46.9 34.65.9h1.91c.32 0 .66-.06.96.01-.24.51-.17 1.28.02 1.78 1.3.16 2.19-1.68 3.43-1.33-.23.36-.72.5-1 .8-.32.33-.34.73-.4 1.17-.07.49-.18 1.14.05 1.6.58.06.98-.17 1.5-.35.28-.09.56-.05.85-.05.54 0 1.01-.13 1.5-.36.52-.25.87-.54 1.46-.56.46-.01 1.05-.01 1.47.22-.36.34-.66.35-.91.81.37.55.97.76 1.61.78.66.01 1.01.49 1.41.94.08.09.16.18.25.27.04.04.08.08.12.11-.13.17-.32.32-.46.48-.12.14-.18.32-.18.51.02.36.12.31.51.3.38-.01.78-.03 1.16-.03s.77 0 1.15.03c.76.05 1.7.11 2.31.63 0 .39-.78.55-1.04.73-.18.13-.81.6-.64.93.12.07.25.15.37.23.26.14.54.25.82.34.63.21 1.2.45 1.79.75.38.22.77.41 1.17.59.16.06.32.14.46.23.16.04.23.15.19.32-.06.08-.11.16-.17.24-.18.13-.47.08-.68.18-.42.23-.49.7-.13 1.04.21.2.52.25.75.41.19.14.34.32.51.48.25.25.36.34.47.66.1.3.21.61.4.87.27.37.64.7 1.06.9-.06.34-.72.22-.95.25-.19.23.21.55.36.72.35.39.61.68.79 1.17.17.44.33.87.5 1.31.07.17.14.35.2.52-.19 0-.72-.1-.81.12.18.36.77.68 1.08.91.05.04.11.09.16.14.68.57 1.17 1.43 1.64 2.16.24.38.19.39.26.73.09.44.37.78.62 1.14.1.14.41.48.41.69Z" style="fill:#6e503b;stroke-width:0"/><path d="M49.04 6.28a.6.6 0 0 1-.14.44c-.04-.04-.08-.07-.12-.11-.09-.09-.17-.18-.25-.27.16-.1.35-.18.5-.05Z" style="fill:#6e503b;stroke-width:0"/><path d="M46.55 36.59c.16.53.23 1.03.22 1.53-.41-.12-.81-.15-1.2-.09-.18-.65-.52-1.21-.93-1.72-.09.66-.26 1.32-.49 1.93-.13-.14-.27-.28-.43-.4-.05.36-.24.75-.29 1.11-.2-1.45-1.96-1.9-2.79-3 .13.83.13 1.64-.19 2.39-.17-.4-.6-.72-.73-.92-.04.49-.37 1.06-.4 1.54-.23-.21-.66-.41-.88-.62 0 0-.31.48-.32.53-.7-.96-1.45-1.44-2.26-2.64.02.88.21 1.83-.01 2.64-.26-.3-.91-.55-1.17-.9-.04.35-.23.73-.26 1.08-.19-.54-.54-1.13-.61-1.78-.24.96-.26 1.98-.46 2.93-.8-1.36-1.92-2.58-2.61-4.04.38 1.92.88 4.32.52 6.25-.42-.5-.86-1.14-1.19-1.74.02 1.06.07 2.16-.13 3.19-.27-.43-1.03-.9-1.34-1.21-.03.5-.39 1.08-.39 1.57-.32-.53-.73-1.26-1.22-1.74-.25.62-.59 1.3-.89 1.83-.37-.62-.68-1.27-.92-1.94-.52 1.02-.74 2.25-.93 3.39-1.04-1.11-.88-2.63-1.04-4.03-.3.35-.74.56-1 .96.53-1.37.67-6.3 2.44-5.82.13-.23.09-.49.22-.72.2.1.22.3.46.38.24-1.26.32-2.57.68-3.83.07.08.16.28.25.38-.2-1.22-.22-2.33-.46-3.53.04.08.08.15.13.19.09-2.2.1-3.7-.3-5.95-.15-.86-.42-1.77-.68-2.69-.04-.43-.08-.85-.15-1.28-.41-2.72-.74-5.1-3.21-6.61.8-.66 1.57-1.33 2.34-2.02.77.51 2.18.64 3.22.87-.11-.26-.13-.43-.2-.63.92.14 1.88.27 2.68.71-.02-.23.03-.58 0-.77.88.19 1.62.81 2.33 1.26.09-.18.14-.35.22-.53.6.42 1.24.79 1.94.97-.08-.27 0-.88-.12-1.21 1.03.43 1.93 1.23 2.92 1.59.05-.16-.13-.19-.1-.35.71.16 1.52.12 2.17.03-.19.24-.36.49-.52.7 1.02.67 2.47.43 3.31 1.27-.41.18-.76.62-1.13.78.65.62 1.91.75 2.2 1.68 1.09 0 1.26.92 2.16 1.31.62.27 1.49.31 2.15.45.34.07.69.16 1.06.27-.48.23-.97.53-1.46.89.28.06.64.18.92.21-.3 1.03.34 1.7.88 2.61-1.11 0-1.57.7-.51 1.54-.32.14-.85.8-1.22.95.3.37.34 1.05.53 1.32-.15.01-.29.05-.42.12.51.61.95 1.49 1.1 2.29-.18.37-.38.83-.58 1.25-1.3.67-.53 2.53-1.08 3.34.19.79.6 1.49 1.03 2.21-.15.02-.59.25-.86.25Z" style="fill:#513929;stroke-width:0"/><path d="M60.07 22.68c-.05-.05-.11-.09-.16-.14-.31-.23-.9-.55-1.08-.91.09-.23.61-.13.81-.12.1.26.19.51.28.78.05.13.09.26.15.39ZM60.37 21.28c-.25.22-.39.24-.72.24-.06-.18-.13-.35-.2-.52.27.18.61.37.93.28Z" style="fill:#6e503b;stroke-width:0"/><path d="M21.48 12.71c-.1.04-.21.07-.33.09-4.24.76-4.47 5.14-5.91 5.24-1.45.1-1.96 1.2-3.56 2.36s-6.11 7.76-6.11 7.76c-.43.12-.83.21-1.21.3-.02-.14-.05-.3-.07-.45-.35-2.65 2.97-6.65 5.29-9.07 0 0 .97-2.33 2.18-4.44.59-1.03 2.25-2.13 4.23-2.97.07.06.15.13.23.17.27.14.37.07.61.13.31.07.49.23.83.23h.74c.64 0 1.28-.07 1.88.18.34.14.82.27 1.2.48Z" style="fill:#fbbe59;stroke-width:0"/><path d="M30.87 22.95c-1.12.35-2.08 1.46-2.58 3.56-2.25 9.38-12 8.03-12 8.03.03-.35-.74-.97-3.21-1.01-1.03-.32-2.24-.69-3.5-1.06-3.6-1.05-3.44-4.29-3.44-4.29-.64.13-1.21.33-1.72.61-.02-.1-.04-.2-.05-.31.38-.09.78-.18 1.21-.3 0 0 4.5-6.6 6.11-7.76 1.6-1.16 2.1-2.26 3.56-2.36 1.45-.1 1.67-4.48 5.91-5.24.12-.02.23-.05.33-.09.17.09.32.2.43.33.16.18.1.42.24.59.53.63 1.83-.29 2.06.72.11.46-.33.5-.38.91-.05.4.36.29.65.28.35 0 .73-.04 1.08-.01.4.03.36.28.36.63v1.1c0 .24-.1.66.04.87.16.22.53.1.75.1.41 0 .86.11.87.61 0 .55-.42 1.62.27 1.84.32.1.58.17.92.16.26 0 .59-.07.84 0-.1.34-.2.93-.08 1.28.14.38.54.13.84.23.38.14.48.33.5.61Z" style="fill:#edad3a;stroke-width:0"/><path d="M12.08 22s1.53-1.25 1.93-1.85.45-1.3 1.05-1.5 1.8-.05 2.55.8c0 0-1.05.95-1.8 1.15-.75.2-1.05-.3-1.95.45-.9.75-1.97 1.6-1.78.95Z" style="fill:#231f20;stroke-width:0"/><path fill="#fff200" stroke-width="0" d="M14.96 19s-.45.88.3 1.3c0 0 1.15 0 1.78-.78 0 0-.85-1.05-2.08-.53Z"/><path d="M15 19.65c0 .24.1.43.23.43s.23-.19.23-.43-.1-.43-.23-.43-.23.19-.23.43Z" style="fill:#231f20;stroke-width:0"/><path d="M31 26.33c-.01.15-.08.28-.18.39-.05.16-.11.32-.18.47-.21.17-.4.36-.56.57-.23.36-.38.76-.48 1.17-.1.46.04.55.45.72-.05.18-.33.27-.47.37-.22.15-.38.29-.56.49-.19.21-.39.44-.52.68-.1.19-.11.34-.19.53-.17.37-.78.72-1.12.96-.48.36-1.16.39-1.58.78.15.25.67.66.59.98-.08.3-.66.4-.91.47-.3.09-.62.07-.91.17-.22.08-.83.6-.26.65-.14.14-.44.26-.6.38-.36.27-.82.41-1.25.53-.22.03-.42.1-.62.21-.19.19-.39.38-.58.57-.09.07-.19.14-.29.18h-1.15c-4.52.07-4.82 1.81-8.1.85-1.98-.59-2.95-2.35-3.41-3.72 7.03-.95 5.17.32 6.94.76 1.8.45 1.21-.54 1.25-.99 0 0 9.75 1.35 12-8.03.5-2.1 1.46-3.2 2.58-3.56.01.13 0 .28 0 .44-.01.57 0 1.14 0 1.7-.02.27 0 .54.03.81.07.14.1.28.11.43Z" style="fill:#c3872b;stroke-width:0"/><path d="M13.08 33.51c-.7-.02-1.54.01-2.53.11-.94.1-1.87.07-2.76-.04-.01-.06-.02-.11-.03-.16-1.95-1.6-2.88-2.14-3.35-4.66.51-.28 1.08-.48 1.72-.61 0 0-.16 3.24 3.44 4.29 1.26.37 2.47.74 3.5 1.06Z" style="fill:#c3872b;stroke-width:0"/><path d="M4.28 26.46s-.57 3.4 1.03 3.4 1.9-1.1 2.7-2.3-3.66 1.4-3.73-1.1ZM15.05 35.52c-1.77-.44.08-1.71-6.94-.76-.15-.45-.25-.85-.31-1.17.88.1 1.81.13 2.76.04 4.5-.45 5.78.45 5.74.9-.04.45.55 1.44-1.25.99Z" style="fill:#231f20;stroke-width:0"/><path d="M31.43 17.35c-1.35 2.25-1.05 1.22-1.05 1.22s.08-.44-.06-1.15c.82-1.42 2.14-2.5 2.27-3.39.19-1.3-.99-1.6-2.92-1.6-.88 0-1.72.34-2.37.7-.38-.29-.8-.58-1.27-.87 0 0 4.65-1.93 6.46 0 1.8 1.93.3 2.83-1.05 5.09Z" style="fill:#edad3a;stroke-width:0"/><path d="M32.59 14.03c-.13.89-1.45 1.97-2.27 3.39-.2-1.04-.89-2.65-3.02-4.29.65-.36 1.49-.7 2.37-.7 1.93 0 3.11.3 2.92 1.6Z" style="fill:#c3872b;stroke-width:0"/><path d="M49.94 7.98c-.39 0-.78.01-1.16.03-.39.01-.49.06-.51-.3 0-.19.06-.36.18-.51.13-.17.32-.31.46-.48.38.37.73.73 1 1.2.01.02.02.04.04.06Z" style="fill:#6e503b;stroke-width:0"/><path d="M89.12 47.2c-3.61 8.01-9.69 5.74-15.1 6.64-5.41.9-15.77-4.73-19.15 0s-5.86 5.41-12.62 6.05c-6.76.64-23.95 0-23.95 0s-.17-3.43 4.37-4.01c4.55-.57 15.64-.96 18.41-.96s7.68-11.96 12.8-16.19C59 34.5 68.81 35.94 65.4 34.74c-3.41-1.19-12.55 2.6-16.19 3.09-3.65.49-9.61 11.55-16.01 13.46-6.4 1.91-14.28 6.03-17.59 5.98-3.32-.06-12.92.51-15.47-2.54.64-1.91 2.35-2.48 2.35-2.48 1.4-1.43 2.93-1.69 4.75-1.63-.28.21-.64.37-1.09.51 0 0-3.77 1.24.63 1.69 4.39.45 14.53-.23 19.94-3.15 5.41-2.93 14.81-11.6 18.05-14.42s7.5-6.78 13.31-6.77c5.81 0 15.16 2.37 16.4 4.06 1.24 1.69-.68 3.34-2.14 3.08-1.46-.26-14.53-.37-17.91 5.09-3.38 5.46 19.83 2.19 23.32 2.19 3.11 0 9.6-.45 9.65-6.06 1.99 3.36 2.33 6.77 1.73 10.35Z" style="fill:#edad3a;stroke-width:0"/><path d="M53.88 38.74c-5.12 4.23-10.03 16.19-12.8 16.19s-13.86.38-18.41.95c-4.54.57-4.37 4.01-4.37 4.01H3.54c-2.35 0-2.13-2.61-2.13-2.61s-1.92-.63-1.28-2.54c2.56 3.05 12.16 2.48 15.47 2.54 3.31.05 11.19-4.06 17.59-5.97 6.4-1.91 12.37-12.98 16.01-13.46 3.65-.49 12.78-4.28 16.19-3.09 3.41 1.19-6.4-.24-11.52 3.99Z" style="fill:#c3872b;stroke-width:0"/><path d="M89.12 47.21c-.36 2.19-1.07 4.43-1.96 6.77-1.3 3.41-3.56 5.25-6.24 6.22-.55-.04-1.12-.05-1.71-.02-16.22.7-18.93-4.08-21.13-2.66-2.21 1.41-5.89 3.33-5.89 3.33-.17.08-2.99 1.33-9.81 1.33H24.36c-5.44 0-6.04-2.29-6.04-2.29s17.19.64 23.95 0c6.76-.64 9.24-1.32 12.62-6.05s13.74.9 19.15 0c5.41-.9 11.49 1.37 15.1-6.64Z" style="fill:#c3872b;stroke-width:0"/><path fill="#aa7029" stroke-width="0" d="M80.91 60.2c-3.92 1.43-8.78 1.03-12.96 1.03-7.04 0-15.78-.38-15.78-.38s3.68-1.92 5.89-3.33c2.21-1.42 4.91 3.36 21.13 2.66.59-.03 1.17-.02 1.71.02Z"/><path d="M95.05 59.42c-.15 1.07-.94 1.97-6.91 3.36-3.87.9-8.53 1.16-11.34 1.23.4-.2.77-.39.92-.48.4-.23-1.75 0-1.75 0l1.75-.82c.32.09.36.14.36.14s12.39-.53 14.08-2.92l.64-.66s-.15.1-2.63-2.64-3.24-9.27-3.24-9.27c-.09-6.05 2.19-3.77 2.19-1.58 0 0-.44 9.48 4.62 12.36.66.38 1.12.82 1.31 1.3Z" style="fill:#edad3a;stroke-width:0"/><path d="M87.39 36.86c-.05 5.61-6.54 6.06-9.65 6.06-3.49 0-26.7 3.27-23.32-2.19 3.38-5.46 16.45-5.35 17.91-5.09 1.46.26 3.38-1.39 2.14-3.08-1.24-1.69-10.59-4.06-16.4-4.06-5.81 0-10.07 3.95-13.31 6.77S32.12 46.76 26.71 49.69c-5.41 2.93-15.55 3.6-19.94 3.15-4.39-.45-.63-1.69-.63-1.69.45-.14.81-.31 1.09-.51 2.05.05 4.47.51 7.43.1 5.56-.76 17.9-4.96 21.78-12.89 3.88-7.94 12.45-12.67 12.45-12.67 4.06-2.78 23.98-1.54 33.15 5.8 2.45 1.96 4.18 3.91 5.35 5.89Z" style="fill:#fbbe59;stroke-width:0"/><path d="M78.53 64.44s-4.96 3.15-7.89 2.48c-2.93-.68-5.75-.56-5.75-.56l2.25-1.46-2.25-.11s4.17-2.93 8.56-2.59c2.65.2 3.78.4 4.26.53l-1.75.82s2.15-.23 1.75 0c-.4.23-2.2 1.13-2.2 1.13l3.01-.23Z" style="fill:#232116;stroke-width:0"/><path d="M74.77 62.78c-.19 0-4.66.08-6.08.75l-1.43.68h2.97l-1.31.79s4.58.68 5.6 0c1.01-.68 1.01-.96 1.01-.96h-1.54l2.1-1.07-1.31-.19Z" style="fill:#513929;stroke-width:0"/><path d="m92.8 59.27-.64.66s-.01 0-.04-.02c-.44-.36-4.72-3.97-5.15-11.24-.03-.47-.05-.91-.05-1.31 0 0 .76 6.53 3.24 9.27 2.48 2.74 2.63 2.64 2.63 2.64ZM78.53 64.44l-3.01.23 1.28-.64c2.81-.07 7.48-.33 11.34-1.23 5.97-1.39 6.76-2.28 6.91-3.36.88 2.11-3.28 4.83-16.52 5.01Z" style="fill:#c3872b;stroke-width:0"/></g></svg>