<?xml version="1.0" encoding="UTF-8"?>
<svg id="Layer_2" data-name="Layer 2" xmlns="http://www.w3.org/2000/svg" viewBox="0 0 117.35 66.29">
  <defs>
    <style>
      .cls-1 {
        fill: #705133;
      }

      .cls-1, .cls-2, .cls-3, .cls-4, .cls-5, .cls-6, .cls-7, .cls-8, .cls-9 {
        stroke-width: 0px;
      }

      .cls-2 {
        fill: #5b402b;
      }

      .cls-3 {
        fill: #1d191b;
      }

      .cls-4 {
        fill: #a07244;
      }

      .cls-5 {
        fill: #fff;
      }

      .cls-6 {
        fill: #231f20;
      }

      .cls-7 {
        fill: #f1f2f2;
      }

      .cls-8 {
        fill: #362d30;
      }

      .cls-9 {
        fill: #89653b;
      }
    </style>
  </defs>
  <g id="_100" data-name="100">
    <g>
      <path class="cls-2" d="m49.04,60.79c-.11.75-.23,1.39-.35,1.94-2.48-.11-4.5-.28-5.9-.41.28-.61.58-1.27.83-1.94,2.02-5.49-2.3-13.47-2.73-14.94-.43-1.48-2.39-10.35-2.39-10.35-1.96-8.66,10.32-2.59,10.54,2.27s.87,17.75,0,23.45Z"/>
      <path class="cls-2" d="m97.66,40.25c2.75,1.96,2.78,3.91,1.02,8.88-1.27,3.6-1.89,10.27-3.92,13.68-3.17.03-5.38-.35-6.83-.75,1.83-2.4,2.98-6.97,3.45-9.32.5-2.48.75-4.07-1.76-6.35-2.52-2.28-11.83-7.2-12.58-20.3-.75-13.1,14.34-12.42,14.34-12.42,4.09-.35,12.08,2.94,11.57,14-.5,11.07-8.05,10.62-5.3,12.58Z"/>
      <path class="cls-3" d="m94.76,62.81c-.77,1.3-1.75,2.13-3.05,2.13-4.7,0-6.11-.23-4.1-2.48.11-.12.22-.26.32-.4,1.45.41,3.66.78,6.83.75Z"/>
      <path class="cls-3" d="m48.69,62.72c-.79,3.56-1.83,2.92-4.75,2.92-2.54,0-2.01-1.44-1.15-3.34,1.41.13,3.43.3,5.9.41Z"/>
      <path class="cls-3" d="m104.83,11.03s2.37-1.78,4.38,0c2.01,1.78-2.17,4.05-2.17,4.05l1.41,1.45s4.91-3.16,2.02-6.3c-2.9-3.13-6.63-.61-6.63-.61l.99,1.4Z"/>
      <path class="cls-3" d="m112.5,19.37c.25.14.68.4.76.35.07-.32-.27-.76-.34-1.07.22.05.4.19.62.23-.02-.28,0-.37.27-.43.11-.03.5-.03.62,0,.24.06.41.26.61.41.22.16.43.23.59.46.1-.12.1-.24.13-.41.34-.17.78.49.91.71.24.39.47.8.67,1.22.06-1.28-.18-3.38-2.01-4.83-2.8-2.22-8.29-2.08-8.29-2.08,0,0-4.98.56,0,2.08,2.37.72,4.19,2.11,5.45,3.36Z"/>
      <path class="cls-4" d="m107.79,13.8c-.05-.04-.1-.08-.15-.11-.48-.35-1.04-.93-1.37-1.44-.42-.67-.89-1.24-1.38-1.85-.28-.34-.7-.59-1.02-.91-.24-.23-.45-.49-.71-.68-.49-.35-.99-.69-1.48-1.05-.93-.67-2-.9-3-1.41-.51-.26-1.04-.44-1.53-.7-.31-.16-.64-.33-.96-.46-.36-.14-.76-.14-1.12-.28-.43-.16-.83-.46-1.27-.6-.29-.09-.6.01-.9-.02-.58-.06-1.15-.41-1.73-.44-1.83-.1-3.56.22-5.37.47-2.11.29-4.17.88-6.26,1.27-.84.16-1.65.43-2.51.43-.84,0-1.65.15-2.48.14-.57,0-1.14,0-1.71,0-.62,0-1.26.04-1.88,0-.95-.05-1.85-.16-2.8-.15-.72,0-1.32-.14-2.02-.26-.49-.08-.95-.05-1.43-.14-.57-.11-1.14.02-1.72-.14-.51-.14-.91-.24-1.43-.11-.34.08-.65.07-1.01.07-.62,0-1.21.13-1.82.15-.78.03-1.58.03-2.35,0-.6-.02-1.17-.19-1.77-.16-.25.02-.48.11-.72.15-.25.04-.45.14-.72.15-.24,0-.48-.01-.72,0-.17,0-.29.03-.44-.05-.17-.1-.17-.43-.32-.51-.31-.17-.66.4-.8.57-.17.21-.37.44-.59.13-.24-.36.15-1.17.22-1.55-.87-.25-1.28,1.53-1.96,1.26-.14-.36.36-1.11,0-1.33-.68.2-1.27.35-1.91.68-.35.18-.62.41-.72,0-.03-.14.05-.31-.12-.38-.18-.08-.83.42-.89.45-.3.21-.88.9-1.29.72-.08-.36.06-.75-.03-1.11-.52.11-1.17,1.03-1.71.97-.09-.24.08-.48-.06-.71-.31-.04-.6.16-.87.28-.16.07-.52.39-.69.42-.51.09-.39-.63-.45-1.01-.52-.09-.91,1.53-1.03,1.84-.41-.44-.18-1.79-.65-1.99-.12.28-.24.58-.33.88-.11.35-.05.74-.15,1.08-.11.35-.29.29-.59.11-.31-.18-.59-.69-.98-.58-.34.1-.56.62-1.01.39-.02-.12.04-.32-.02-.43-.17-.31-.64,0-.85.11-.43.22-.87.43-1.3.64-.13.07-.41.31-.57.24-.08-.31.04-.64-.03-.96-.37-.18-.86.21-1.14.41-.26.18-.57.71-.88.74-.17-.14-.24-.39-.31-.59-.28-.09-.74.85-.84,1.02-.12.18-.43.97-.68,1-.79-1.36-1.42.83-1.77,1.28-.33.05-.22-.5-.52-.55-.27-.05-.4.52-.49.74-.11.27-.2,1.28-.57,1.3-.37.02-.55-.61-.73-.82-.19.03-.39.51-.51.66-.15.18-.3.37-.44.55-.09.11-.16.24-.21.38-.42.29-.42-.31-.7-.46-.59.22-1.05,1.1-1.46,1.53-.31.32-.59.51-.98.74-.43.26-.87.47-1.3.73-.39.23-.82.3-1.19.57-.69.51-1.42.84-2.13,1.31-.8.52-1.57,1.04-2.29,1.65-.75.65-1.49,1.63-1.87,2.56-.36.89-.52,1.85-.9,2.72-.21.49-.52.93-.77,1.41-.19.38-.34.76-.57,1.12-.27.43-.57.75-.8,1.23-.07.14-.14.28-.21.42,1.13-5.07,2.13-11.59,9.74-15.4.17-.09.34-.17.51-.26v-.23c1.38-1.61,2.78-3.2,4.17-4.8-.09.2.19-.07.28-.1.11.34-.02.61.17.95.17-.18.4-.27.59-.41.21-.16.35-.39.54-.58.18-.18.32-.26.54-.39.18-.11.51-.25.66-.38-.02.18-.03.34.02.51.64-.18,1.22-.91,1.74-1.3.12-.09.52-.37.66-.26.12.09.02.82.02.95.22-.49.62-.76.96-1.18.18-.23.42-.56.64-.74.14-.11.33-.15.44-.29-.03.37-.08.88,0,1.24.35.01.93-.52,1.25-.71.44-.27,1.01-.47,1.4-.8.21-.18.46-.57.67-.23.1.17,0,.76-.02.98.12-.18.29-.26.47-.38.43-.27.75-.59,1.13-.92.28-.24,1.07-.95,1.47-.59.17-.13.32-.16.51-.26.23-.12.4-.33.62-.47.4-.26.88-.39,1.3-.61-.07.26-.33.46-.42.73-.06.18-.16.42-.17.61.3-.35,1-.52,1.41-.73.37-.19.81-.54,1.18-.65.03.19-.03.36.16.43.17.06.46-.1.59-.19.33-.22.88-.71,1.02-1.08-.03.19.1.29.13.46.02.14-.04.31.02.44.19.43.5.12.75-.04.2-.13.8-.58,1-.49.35.15-.02.63,0,.87.28,0,.6-.18.87-.27.49-.16.91-.43,1.41-.56.44-.11.96-.29,1.42-.15-.23.27-.2.53-.33.83.16.07.65-.19.81-.24.3-.1.65-.28.96-.15-.05.07-.08.15-.08.24.53.18,1.31.02,1.87.02.66,0,1.26.15,1.92.15.51,0,.98,0,1.46.16.16.05.31.21.46.26.09.03.39.14.54.16-.24-.01-.54-.05-.75.03.05.33.59.31.82.44.21.11.42.24.64.36.81.13,1.27.23,1.27.23,4.02,1.31,32.79-2.56,37.51-.79,5.69,2.13,10.25,6.92,12.81,11.83Z"/>
      <path class="cls-9" d="m109.51,24.94c-2.5,5.83-4.8,17.26-11.31,20.46-.65-.89-1.26-1.83-1.69-2.81-2.47-5.69-13.88-14.17-14.5-11.9-.62,2.26-2.7,8.43-6.32,9.95-3.61,1.51-15.9,1.38-19.95-1.35-4.05-2.73-7.14-12.89-9.54-13.75-2.4-.86-8.24,2.75-11.12,8.96-2.88,6.22-9.98,6.51-15.61,8.39-1.45.49-2.69.88-3.76,1.25,0-.07,0-.15,0-.23,0-.49.12-1.12-.02-1.58-.42-.04-.56-.3-.99-.3-.41,0-.75.15-1.16.14-.26,0-1,.12-1.15-.08-.17-.23.05-.91-.02-1.2-.49-.16-1.07.1-1.57-.04-.04-.28.04-.56-.01-.83-.32-.11-.77.08-1.08.16.27-.35.02-.93-.21-1.23-.38-.49-.82-.07-1.3.12-.6.24-.59-.44-.69-.91-.03-.15-.05-.64-.33-.61-.19.03-.18.29-.41.27-.1-.15-.19-.33-.17-.51-.19.2-.56.19-.81.25-.27.06-.82.36-.8-.14-.15-.07-.37.02-.58.07,1.41-2.99,2.76-6.33,3.36-8.72.1-.4.19-.8.29-1.22.07-.13.14-.27.21-.42.23-.47.53-.8.8-1.23.23-.36.37-.74.57-1.12.24-.48.56-.92.77-1.41.38-.88.54-1.83.9-2.72.38-.93,1.11-1.91,1.87-2.56.72-.62,1.49-1.13,2.29-1.65.71-.46,1.44-.79,2.13-1.31.37-.27.8-.34,1.19-.57.43-.25.87-.47,1.3-.73.39-.23.67-.43.98-.74.42-.43.87-1.31,1.46-1.53.28.15.28.75.7.46.05-.13.12-.26.21-.38.15-.18.3-.37.44-.55.12-.16.32-.64.51-.66.18.22.36.84.73.82.38-.02.46-1.03.57-1.3.09-.22.22-.79.49-.74.3.05.19.61.52.55.35-.46.98-2.65,1.77-1.28.26-.03.56-.82.68-1,.1-.16.56-1.1.84-1.02.07.2.14.44.31.59.31-.03.63-.56.88-.74.29-.2.77-.59,1.14-.41.07.31-.06.64.03.96.16.07.44-.17.57-.24.43-.21.87-.42,1.3-.64.21-.1.67-.42.85-.11.06.11,0,.31.02.43.45.22.67-.3,1.01-.39.39-.11.67.39.98.58.3.18.48.24.59-.11.1-.34.04-.73.15-1.08.09-.29.21-.6.33-.88.46.21.24,1.56.65,1.99.12-.31.51-1.93,1.03-1.84.05.37-.06,1.09.45,1.01.17-.03.53-.35.69-.42.27-.12.56-.32.87-.28.15.23-.03.47.06.71.54.06,1.18-.86,1.71-.97.08.36-.06.75.03,1.11.41.18.99-.52,1.29-.72.05-.04.71-.53.89-.45.17.07.09.24.12.38.1.42.37.19.72,0,.64-.33,1.23-.47,1.91-.68.35.22-.14.98,0,1.33.68.26,1.09-1.51,1.96-1.26-.07.38-.46,1.19-.22,1.55.21.32.42.08.59-.13.14-.18.49-.75.8-.57.15.08.15.41.32.51.15.09.27.06.44.05.24,0,.48.01.72,0,.27-.01.47-.1.72-.15.25-.04.48-.13.72-.15.6-.04,1.17.13,1.77.16.78.03,1.58.03,2.35,0,.61-.02,1.2-.16,1.82-.15.36,0,.67.01,1.01-.07.52-.13.92-.03,1.43.11.57.16,1.14.02,1.72.14.49.1.95.06,1.43.14.7.12,1.3.27,2.02.26.96,0,1.86.1,2.8.15.62.03,1.26,0,1.88,0,.57,0,1.14,0,1.71,0,.84,0,1.65-.14,2.48-.14.86,0,1.67-.28,2.51-.43,2.09-.39,4.15-.98,6.26-1.27,1.81-.25,3.55-.57,5.37-.47.58.03,1.15.38,1.73.44.3.03.61-.07.9.02.43.13.84.43,1.27.6.36.14.76.14,1.12.28.32.13.65.29.96.46.49.26,1.02.45,1.53.7,1,.51,2.07.73,3,1.41.49.36.99.69,1.48,1.05.27.2.48.45.71.68.32.32.74.57,1.02.91.49.6.95,1.18,1.38,1.85.33.52.89,1.1,1.37,1.44.05.03.1.07.15.11,2.17,4.14,2.91,8.37,1.72,11.15Z"/>
      <path class="cls-1" d="m98.19,45.41c-.27.13-.54.25-.83.35-7.16,2.6-19.73,1.08-35.99,1.08-4.09,0-7.57-.14-10.58-.37-.05,0-.09.01-.13.02-.18.05-.21.13-.42.16-.33.04-.68-.02-1.01,0-.42.02-.77.25-1.2.3-.79.09-1.63-.11-2.42-.01-.2.03-.24.11-.42.15-.16.04-.42,0-.58,0-.45,0-.79,0-1.23-.14-.49-.14-.99-.36-1.49-.43-.16.19,0,.74-.04.99-.7.15-1.4-.02-2.03-.31-.37-.17-.92-.57-1.26-.26-.28.26-.22.36-.61.15-.22-.12-.62-.33-.6.13-.39-.13-.7-.38-1.13-.41-.6-.05-.98-.51-1.55-.69-.24.3.23.92-.25.99-.39.05-1-.64-1.25-.85-.26-.22-.54-.54-.88-.64-.26.18-.07.29-.4.3-.2,0-.52-.22-.65-.32-.24-.19-1.16-1.16-1.38-.59-.13.34.15.82-.44.62-.21-.07-.33-.23-.46-.39-.17-.2-.41-.88-.69-.9-.41.39-.57,1.09-1.14,1.32-.05-.28.11-.75-.06-.98-.6.04-.85.97-1.37.97-.14-.22-.12-.71-.43-.7-.04.18-.1.63-.28.7-.3-.61-.71-.7-1.24-.72-.69.4-1.5.83-2.5,1.28-.68.31-1.35.56-2,.76.08-.2.15-.4.18-.6.1-.52-.19-.44-.62-.43-.38,0-.61-.01-.95-.18-.29-.15-.8-.34-.88-.68-.05-.23.11-.31-.11-.45-.13-.07-.45.03-.6.02-.48-.05-.56-.17-.58-.49,1.07-.36,2.31-.76,3.76-1.25,5.63-1.88,12.73-2.17,15.61-8.39,2.88-6.22,8.73-9.82,11.12-8.96,2.4.85,5.49,11.02,9.54,13.75,4.05,2.73,16.33,2.87,19.95,1.35,3.61-1.51,5.69-7.68,6.32-9.95.62-2.26,12.03,6.22,14.5,11.9.43.98,1.03,1.92,1.69,2.81Z"/>
      <path class="cls-8" d="m15.7,43.9c0,.09,0,.16,0,.23-3.08,1.04-4.83,1.78-6.65,3.42-2.41,2.17-6.37.69-6.52.64,0,0,0,0,0,0h0c-1.66-1.43-3.17-3.35-2.25-3.81.7-.35,2.46-3.37,4.12-6.89.21-.06.43-.15.58-.07-.02.5.53.2.8.14.25-.05.62-.05.81-.25-.02.19.06.36.17.51.22.01.22-.25.41-.27.27-.04.3.46.33.61.09.47.09,1.14.69.91.48-.19.93-.61,1.3-.12.23.3.48.88.21,1.23.32-.07.76-.27,1.08-.16.05.28-.03.56.01.83.5.14,1.08-.11,1.57.04.07.29-.15.98.02,1.2.15.2.89.08,1.15.08.41,0,.74-.14,1.16-.14.43,0,.57.26.99.3.14.46.02,1.09.02,1.58Z"/>
      <path class="cls-3" d="m19.44,46.36c-.04.2-.1.4-.18.6-3.56,1.13-6.55.92-8.37,1.33-.53.12-.95.29-1.27.56-.23.19-.4.43-.5.74h0c-.87,2.53-2.66.98-4.61,0-.57-.29-1.29-.8-1.97-1.39.15.05,4.1,1.53,6.52-.64,1.82-1.64,3.57-2.38,6.65-3.42.01.32.1.44.58.49.14.02.47-.09.6-.02.22.13.06.21.11.45.08.34.59.54.88.68.34.17.58.18.95.18.44,0,.72-.09.62.43Z"/>
      <path class="cls-8" d="m17.32,18.85s-.41.08-1,.27c-1-1.46-2.77-3.42-5.33-4.12-4.26-1.16-6.97-1.66-3.83,1.54,2.49,2.54,3.94,3.88,5.58,4.66-.12.16-.21.33-.29.51,0,0-3.58.05-6.21-3.97-2.63-4.01-3.11-5.82,3.71-4.79,5.95.89,7.36,5.9,7.36,5.9Z"/>
      <path class="cls-6" d="m14.54,44.44c-1.73,1.63-2.68,1.72-3.65,3.84-.53.12-.95.29-1.27.56.78-1.12,2.37-3.23,3.91-4.36,2.17-1.59,3.24-5.32,3.79-5.19.55.13-1.04,3.51-2.78,5.15Z"/>
      <path class="cls-3" d="m16.32,19.12c-1.09.34-2.78,1.01-3.57,2.08-1.65-.78-3.09-2.12-5.58-4.66-3.14-3.2-.43-2.71,3.83-1.54,2.56.7,4.32,2.66,5.33,4.12Z"/>
      <circle class="cls-7" cx="12.17" cy="29.36" r="2.55"/>
      <circle class="cls-6" cx="11.93" cy="29.36" r="1.6"/>
      <circle class="cls-5" cx="12.85" cy="28.2" r=".68"/>
      <path class="cls-1" d="m102.24,41.6c2.75,1.96,2.78,3.91,1.02,8.88-1.21,3.43-1.83,9.64-3.64,13.17-2.94-.15-5.3-.59-6.65-.91,1.56-2.51,2.56-6.5,2.99-8.65.5-2.48.75-4.07-1.76-6.35-2.52-2.28-11.83-7.2-12.58-20.3-.08-1.34.01-2.54.24-3.61.04.23,2.25,13.26,8.14,15.46,5.95,2.22,12.29-1.61,14.83-7.73,1.27-3.06,1.56-7.13,1.16-10.59,1.07,2.04,1.7,4.69,1.55,8.05-.5,11.07-8.05,10.62-5.3,12.58Z"/>
      <path class="cls-8" d="m30.45,58.02c-.28,1.46-.66,2.68-1.44,2.68-1.57,0-6.86,1.45-5.49-1.04.44-.8.74-1.47,1.02-2.16.99.21,2.75.43,5.91.52Z"/>
      <path class="cls-8" d="m99.62,63.66c-.82,1.59-1.87,2.64-3.33,2.64-4.71,0-6.12-.23-4.1-2.48.28-.31.54-.67.78-1.06,1.36.32,3.71.77,6.65.91Z"/>
      <path class="cls-1" d="m47.24,42.43c-1.36,1.08-3.6,2.55-5.99,4.09-.2.27-.39.55-.55.85-.29.54-.34.81-.99.87-.14.52-.02,1.2.11,1.7-.72.2-1.36-.2-2.05-.27-.88-.1-.54.56-.71,1.16-.39.07-.61-.72-.9-.7-.12,0-.36.32-.45.42-.21.22-.44.42-.55.7-.17.45-.18,1.14-.01,1.6-.67.23-.6-1.13-.96-1.15-.22.19-.27.54-.37.8-.16.41-.34.82-.54,1.22-.34-.09-.35-.98-.42-1.26-.13.14-.14.33-.26.47-.11.14-.25.18-.37.31-.32.34-.22.87-.2,1.3-.29-.29-.46-.73-.48-1.17-.15.18-.26.33-.31.47-.35.94-.52,2.68-.8,4.17-3.15-.09-4.92-.3-5.91-.52.59-1.47,1.11-3.04,2.71-6.15,2.35-4.57,2.35-3.53,5.1-6.02,2.75-2.49,4.68-3.62,3.33-6.44-.67-1.41-.67-4.18-.5-6.58,0,0,.13,6.19,4.28,7,4.15.82,7.62.59,8.34-2.84.38-1.8.83-4.99,1.16-7.61.64,4.7,1.22,11.22-1.71,13.55Z"/>
      <path class="cls-9" d="m48.95,28.88c-.34,2.62-.78,5.81-1.16,7.61-.72,3.43-4.19,3.66-8.34,2.84-4.15-.82-4.28-7-4.28-7h0c.17-2.39.5-4.43.5-4.43.57-5.64,12.35-6.65,12.74-2.91.1.94.32,2.31.54,3.89Z"/>
      <path class="cls-9" d="m104.83,31.56c-2.55,6.12-8.89,9.95-14.83,7.73-5.89-2.2-8.1-15.22-8.14-15.46h0c1.95-9.35,14.11-8.81,14.11-8.81,2.85-.24,7.58,1.27,10.03,5.95.41,3.45.11,7.53-1.16,10.59Z"/>
    </g>
  </g>
</svg>