<?xml version="1.0" encoding="UTF-8"?>
<svg id="Layer_2" data-name="Layer 2" xmlns="http://www.w3.org/2000/svg" viewBox="0 0 51.52 81.71">
  <defs>
    <style>
      .cls-1 {
        fill: #7d6563;
      }

      .cls-1, .cls-2, .cls-3, .cls-4, .cls-5, .cls-6, .cls-7, .cls-8, .cls-9, .cls-10 {
        stroke-width: 0px;
      }

      .cls-2 {
        fill: #1b1310;
      }

      .cls-3 {
        fill: #281c15;
      }

      .cls-4 {
        fill: #473023;
      }

      .cls-5 {
        fill: #fdded9;
      }

      .cls-6 {
        fill: #fff;
      }

      .cls-7 {
        fill: #e8cbc5;
      }

      .cls-8 {
        fill: #231f20;
      }

      .cls-9 {
        fill: #f1f2f2;
      }

      .cls-10 {
        fill: #b29794;
      }
    </style>
  </defs>
  <g id="_100" data-name="100">
    <g>
      <path class="cls-3" d="m25.72,28.73c-.46-.14-.91-.29-1.36-.45-.84-.31-1.7-.64-2.52-1-.57-.25-1.11-.62-1.68-.84-1.1-.43-2.3.44-3.21.95-.64.36-1.18.49-1.84.74-.33.13-.53.4-.43.79.14.52.41,1.09.59,1.61.13.37.23.92.55,1.18.28.23.52.15.85.23.7.17.58,1.07.86,1.67.35.06.62-.28.9,0,.19.19.18.76.27,1.01.18.51.74.92.85,1.44-.05.18-.06.36-.03.54.05.59.04,1.19-.04,1.78-.32-.02-.58-.16-.79-.41-.36.3-.22.69-.39,1.12-.28-.09-.82-.45-1.12-.32-.29.12-.36.84-.56,1.07-.56-.4-1.08-.87-1.67-1.22-.1-.06-.58-.32-.42.05-.18.05-.33-.02-.46-.22-.54-.26-.96-.65-1.26-1.19-.79-1.2-1.53-2.42-2.22-3.68-.28-.5-.52-1.01-.72-1.54-.19.27-.07.98-.07,1.27v1.23c0,.82-.04,1.64.01,2.45.06.94.21,1.92.6,2.78.14.31.36.56.49.87-.24.28-.55.15-.66.59-.13.55.2,1.22-.08,1.73-.05.09-.15.11-.22.19-.09.13-.12.28-.23.4-.14.16-.3.19-.38.39-.06.15,0,.36-.08.53-.05.12-.15.23-.22.34-.15.27-.41.42-.46.71-.1.56.04.84-.39,1.32-.34.38-.39.35-.29.86.07.36.19.86.1,1.23-.05.21-.08.18-.2.33-.07.05-.14.11-.21.17-.07.2-.09.4-.06.61-.01.28.07.63-.08.88-.19.34-.49.31-.54.78-.01.13.07.35.02.47-.05.14-.14.12-.24.22-.53.56-1.67,1.22-1.44,2.11.15.56.62.64.59,1.23-.08,1.63-.38,3.36-.13,4.98.29-.86.46-1.79.82-2.62.14-.32.32-.59.46-.9.11-.35.2-.7.27-1.06.12-.46.26-.92.43-1.37.14-.15.19-.26.43-.22.02-.19.06-.37.1-.55.09,0,.19,0,.27.03.05.31-.31,1.06-.36,1.26-.08.29-.15.57-.15.87,0,.13-.05.51.08.61.1.08.19,0,.31-.02-.12.27-.07.59-.07.87,0,.34-.08.8.02,1.13.11-.11.22-.24.39-.19-.29.62-.52,1.3-.74,1.95-.18.5-.07.8-.18,1.24-.02.09-.05.16-.1.24-.2.32-.57.5-.77.84-.25.43-.36,1.01-.32,1.5,0,.11.05.26-.01.37-.14.23-.61.29-.84.38-.34.14-.45.22-.46.56-.01.28.07.59,0,.86-.07.24-.23.4-.39.56-.14-.13-.26-.27-.37-.41-.12-.15-.18-.42-.41-.41-.08.17-.09.62-.33.63-.37.02-.33-.59-.62-.63-.49-.06-.59.92-.94,1.31-.03-.02-.07-.05-.1-.08-.21-.21-.31-.69-.44-1,.16-.57.32-1.15.44-1.74.16-.65.26-1.31.32-1.98,0-.13-.05-.23-.15-.32-.12-.4.04-.84.12-1.25.12-.67.27-1.4.12-2.07-.09-.39-.17-.87-.15-1.33.05-.78.61-1.44.82-2.17.08-.28.38-1.23-.02-1.5-.17-.12-.38.06-.5-.16-.04-.08.17-.67.21-.79.32-.94,1.58-1.8,1.34-2.93-.05-.26-.29-.45-.33-.7-.04-.3.22-.56.35-.8.18-.33.5-.89.45-1.3-.05-.36-.37-.48-.46-.78-.18-.6.62-.7.88-1.06.39-.52-.25-.73-.31-1.23-.1-.93.47-1.87.46-2.78,0-.44.02-.35-.42-.4-.19-.31.21-.99.26-1.31.04-.21.04-.42.03-.63-.02-.66.08-1.14.29-1.79.22-.65.43-1.31.61-1.97.09-.24.14-.49.17-.73-.09-.36-.52-.57-.44-1,.12-.59.62-1.13-.28-1.21.07-.5,1.56-1.86,1.36-2.15-.18-.26-.56,0-.79-.21.16-.19.23-.43.4-.63.17-.2.43-.33.56-.56.19-.32.08-.55-.12-.84-.13-.19-.94-.78-.86-.98.13-.3.74-.38,1-.54.37-.24.2-.39.03-.73-.14-.29-.11-.27.2-.45.24-.14.32-.18.62-.22.28-.04.52-.12.81-.12.18,0,.36.04.53-.02,0-.32-.47-.24-.44-.56.18-.09.42.05.6.08.35.08.71.11,1.06.19.43.1,1.33.26,1.67.62.33.8.87.28,1.45-.19.35.01.66-.09.96-.29.53-.29.97-.67,1.34-1.14.15-.46.02-.85-.4-1.16-.08-.1-.19-.23-.33-.39,1.22-.01,2.03.07,2.03.07,0,0,7.69,1.44,8.35,1.44.13,0,.21,1.91.25,4.97Z"/>
      <path class="cls-4" d="m15.82,23.81c-.37.47-.82.85-1.34,1.14-.3.21-.62.3-.96.29-.58.47-1.11.99-1.45.19-.34-.35-1.24-.52-1.67-.62-.35-.08-.71-.11-1.06-.19-.17-.04-.42-.17-.6-.08-.03.32.44.24.44.56-.17.06-.35.02-.53.02-.29,0-.53.08-.81.12-.3.05-.38.08-.62.22-.31.18-.34.16-.2.45.16.33.33.48-.03.73-.25.17-.87.24-1,.54-.08.2.73.79.86.98.2.29.3.52.12.84-.13.22-.39.36-.56.56-.16.19-.24.44-.4.63.22.21.61-.05.79.21.21.29-1.28,1.65-1.36,2.15.9.08.39.62.28,1.21-.08.43.35.63.44,1-.03.25-.08.49-.17.73-.19.66-.39,1.32-.61,1.97-.21.66-.31,1.13-.29,1.79,0,.22,0,.42-.03.63-.05.32-.45,1-.26,1.31.44.05.42-.04.42.4.01.92-.56,1.86-.46,2.78.05.51.7.71.31,1.23-.26.36-1.06.46-.88,1.06.09.29.42.42.46.78.05.42-.26.97-.45,1.3-.13.24-.39.5-.35.8.03.25.28.44.33.7.24,1.13-1.02,1.99-1.34,2.93-.04.12-.25.71-.21.79.12.22.33.04.5.16.4.28.1,1.22.02,1.5-.21.73-.77,1.39-.82,2.17-.02.46.06.94.15,1.33.15.67,0,1.39-.12,2.07-.08.41-.24.85-.12,1.25.09.08.15.19.15.32-.05.67-.16,1.33-.32,1.98-.12.59-.28,1.16-.44,1.74-.01-.04-.03-.07-.04-.1-.11-.22-.21-.42-.3-.64-.18-.45-.43-.8-.51-1.29-.11-.68-.02-1.49-.27-2.13-.08.02-.17,0-.25-.03-.07-.83.02-1.64-.14-2.46-.1-.13-.14-.27-.11-.43.18-.67.34-1.34.51-2.01.12-.49.18-.98.19-1.48-.05-.12-.09-.25-.12-.38.05-.35.14-.68.27-1.01.14-.5.29-1,.43-1.5.13-.45.29-.87.31-1.33.02-.96.35-1.88.44-2.85.08-.4.07-.8,0-1.19-.19-.16-.27-.38-.25-.65-.19-1.08-.05-2.32.29-3.35.17-.52.67-1.25.58-1.8-.08-.01-.12-.06-.15-.13-.02-.18,0-.36.06-.53.24-1,.69-1.93.91-2.95.04-.27.12-.52.26-.75.06-.12.16-.19.28-.22.2-.36-.03-1.03.06-1.45.05-.23.26-.52.09-.77-.1-.15-.43-.25-.58-.37.07-.46.29-.87.3-1.34,0-.17-.02-.34,0-.51.08-.48.34-.9.31-1.41-.02-.26-.12-.24-.15-.43-.09-.5.11-.94.15-1.44,0-.12.06-.49-.02-.58-.16-.16-.51.09-.71-.05.14-.34.91-1.36.71-1.77-.62-.1-.83-.48-.42-1.09.19-.28.81-.56.71-.92-.08-.3-.81-.21-1-.44.14-.4.62-.6.97-.77.34-.17,1.37-.37,1.44-.77-.09-.08-.19-.14-.3-.19.02-.28.67-.29.88-.33.65-.13,1.29-.29,1.96-.22-.24-.07-.73-.48-.73-.75.35-.09.74-.02,1.1-.02.38,0,.81-.07,1.19.01.32.07.63.14.91.29.39.33.7.3,1.1.55,1.15-.17,2.25-.22,3.13-.23.14.16.25.29.33.39.42.31.55.7.4,1.16Z"/>
      <path class="cls-2" d="m16.78,65.4l-2.9-2.5s-.05.09-.13.24c-.09.27-.17.55-.24.83-.13.47-.23.95-.46,1.38-.18.34-.45.56-.63.89-.24.42-.59.91-.96,1.22-.09.08-.27.15-.35.25-.11.15-.05.29-.12.45-.24.57-.97.6-1.36.94-.21.19-.2.42-.46.6-.39.27-.68.09-1.07.17-.33.06-.22-.1-.47.36-.07.13-.34.94-.57,1.02-.5.18-.78-1-1.23-1.12-.21.18-.07.46-.3.64-.49-.31-.98-.88-1.38-1.31-.23-.25-.44-.42-.61-.73-.24-.44-.25-1.03-.57-1.44-.27.17-.53.41-.8.25.36-.39.46-1.37.94-1.31.28.04.24.65.62.63.24-.01.25-.47.33-.63.23-.01.29.25.41.41.23.29.54.6.86.79.16.1.32.12.48.2.11.06.18.18.31.23.15-.34-.24-1.64.16-1.79.42.32.77.9,1.06,1.33.23-1.03.17-2.12.29-3.16.02-.13-.03-.5.12-.58.15-.08.39.07.54,0,.27-.12.14-.75.14-1.04,0-.46.25-.77.35-1.25.14-.71.06-1.43.3-2.12.13-.36.06-.69.15-1.06.1-.4.37-.65.54-1.02.37-.77.42-1.65.79-2.42.16-.32.3-.67.64-.77.19-.06.3,0,.5-.14.56-.37.86-1.03,1.57-1.12.65-.08,1.36.02,2.02,0,.45,0,.9.05,1.34.14-.02,1.62-.19,3.25-.18,4.88,0,2.03.05,4.05.19,6.08.05.52.1,1.05.15,1.57Z"/>
      <path class="cls-4" d="m35.7,23.81c.37.47.82.85,1.34,1.14.3.21.62.3.96.29.58.47,1.11.99,1.45.19.34-.35,1.24-.52,1.67-.62.35-.08.71-.11,1.06-.19.17-.04.42-.17.6-.08.03.32-.44.24-.44.56.17.06.35.02.53.02.29,0,.53.08.81.12.3.05.38.08.62.22.31.18.34.16.2.45-.16.33-.33.48.03.73.25.17.87.24,1,.54.08.2-.73.79-.86.98-.2.29-.3.52-.12.84.13.22.39.36.56.56.16.19.24.44.4.63-.22.21-.61-.05-.79.21-.21.29,1.28,1.65,1.36,2.15-.9.08-.39.62-.28,1.21.08.43-.35.63-.44,1,.03.25.08.49.17.73.19.66.39,1.32.61,1.97.21.66.31,1.13.29,1.79,0,.22,0,.42.03.63.05.32.45,1,.26,1.31-.44.05-.42-.04-.42.4-.01.92.56,1.86.46,2.78-.05.51-.7.71-.31,1.23.26.36,1.06.46.88,1.06-.09.29-.42.42-.46.78-.05.42.26.97.45,1.3.13.24.39.5.35.8-.03.25-.28.44-.33.7-.24,1.13,1.02,1.99,1.34,2.93.04.12.25.71.21.79-.12.22-.33.04-.5.16-.4.28-.1,1.22-.02,1.5.21.73.77,1.39.82,2.17.02.46-.06.94-.15,1.33-.15.67,0,1.39.12,2.07.08.41.24.85.12,1.25-.09.08-.15.19-.15.32.05.67.16,1.33.32,1.98.12.59.28,1.16.44,1.74.01-.04.03-.07.04-.1.11-.22.21-.42.3-.64.18-.45.43-.8.51-1.29.11-.68.02-1.49.27-2.13.08.02.17,0,.25-.03.07-.83-.02-1.64.14-2.46.1-.13.14-.27.11-.43-.18-.67-.34-1.34-.51-2.01-.12-.49-.18-.98-.19-1.48.05-.12.09-.25.12-.38-.05-.35-.14-.68-.27-1.01-.14-.5-.29-1-.43-1.5-.13-.45-.29-.87-.31-1.33-.02-.96-.35-1.88-.44-2.85-.08-.4-.07-.8,0-1.19.19-.16.27-.38.25-.65.19-1.08.05-2.32-.29-3.35-.17-.52-.67-1.25-.58-1.8.08-.01.12-.06.15-.13.02-.18,0-.36-.06-.53-.24-1-.69-1.93-.91-2.95-.04-.27-.12-.52-.26-.75-.06-.12-.16-.19-.28-.22-.2-.36.03-1.03-.06-1.45-.05-.23-.26-.52-.09-.77.1-.15.43-.25.58-.37-.07-.46-.29-.87-.3-1.34,0-.17.02-.34,0-.51-.08-.48-.34-.9-.31-1.41.02-.26.12-.24.15-.43.09-.5-.11-.94-.15-1.44,0-.12-.06-.49.02-.58.16-.16.51.09.71-.05-.14-.34-.91-1.36-.71-1.77.62-.1.83-.48.42-1.09-.19-.28-.81-.56-.71-.92.08-.3.81-.21,1-.44-.14-.4-.62-.6-.97-.77-.34-.17-1.37-.37-1.44-.77.09-.08.19-.14.3-.19-.02-.28-.67-.29-.88-.33-.65-.13-1.29-.29-1.96-.22.24-.07.73-.48.73-.75-.35-.09-.74-.02-1.1-.02-.38,0-.81-.07-1.19.01-.32.07-.63.14-.91.29-.39.33-.7.3-1.1.55-1.15-.17-2.25-.22-3.13-.23-.14.16-.25.29-.33.39-.42.31-.55.7-.4,1.16Z"/>
      <path class="cls-2" d="m34.73,65.4l2.9-2.5s.05.09.13.24c.09.27.17.55.24.83.13.47.23.95.46,1.38.18.34.45.56.63.89.24.42.59.91.96,1.22.09.08.27.15.35.25.11.15.05.29.12.45.24.57.97.6,1.36.94.21.19.2.42.46.6.39.27.68.09,1.07.17.33.06.22-.1.47.36.07.13.34.94.57,1.02.5.18.78-1,1.23-1.12.21.18.07.46.3.64.49-.31.98-.88,1.38-1.31.23-.25.44-.42.61-.73.24-.44.25-1.03.57-1.44.27.17.53.41.8.25-.36-.39-.46-1.37-.94-1.31-.28.04-.24.65-.62.63-.24-.01-.25-.47-.33-.63-.23-.01-.29.25-.41.41-.23.29-.54.6-.86.79-.16.1-.32.12-.48.2-.11.06-.18.18-.31.23-.15-.34.24-1.64-.16-1.79-.42.32-.77.9-1.06,1.33-.23-1.03-.17-2.12-.29-3.16-.02-.13.03-.5-.12-.58-.15-.08-.39.07-.54,0-.27-.12-.14-.75-.14-1.04,0-.46-.25-.77-.35-1.25-.14-.71-.06-1.43-.3-2.12-.13-.36-.06-.69-.15-1.06-.1-.4-.37-.65-.54-1.02-.37-.77-.42-1.65-.8-2.42-.16-.32-.3-.67-.64-.77-.19-.06-.3,0-.5-.14-.56-.37-.86-1.03-1.57-1.12-.65-.08-1.36.02-2.02,0-.45,0-.9.05-1.34.14.02,1.62.18,3.25.18,4.88,0,2.03-.05,4.05-.19,6.08-.05.52-.1,1.05-.15,1.57Z"/>
      <path class="cls-2" d="m44.84,52.37c-.1-.1-.19-.09-.24-.22-.05-.12.04-.34.02-.47-.05-.47-.34-.44-.54-.78-.15-.25-.06-.6-.08-.88.03-.21,0-.41-.06-.61-.07-.05-.14-.11-.21-.17-.12-.15-.15-.12-.2-.33-.09-.37.03-.87.1-1.23.1-.51.05-.48-.29-.86-.43-.48-.29-.76-.39-1.32-.06-.3-.31-.44-.46-.71-.06-.11-.16-.22-.22-.34-.08-.17-.02-.38-.09-.53-.08-.2-.24-.23-.38-.39-.11-.12-.14-.27-.23-.4-.06-.08-.17-.1-.22-.19-.28-.51.05-1.18-.08-1.73-.1-.44-.42-.31-.66-.59.12-.31.35-.56.49-.87.39-.86.54-1.84.6-2.78.05-.81.01-1.63.01-2.45v-1.23c0-.29.13-1-.07-1.27-.2.53-.44,1.05-.72,1.54-.69,1.26-1.43,2.49-2.22,3.68-.3.54-.72.93-1.26,1.19-.13.19-.28.27-.46.22.17-.36-.32-.1-.42-.05-.59.35-1.11.83-1.67,1.22-.2-.24-.28-.95-.56-1.07-.3-.13-.85.23-1.12.32-.18-.42-.04-.82-.39-1.12-.21.25-.47.39-.79.41-.08-.59-.09-1.18-.04-1.78.04-.19.03-.37-.03-.54.11-.52.67-.93.85-1.44.09-.25.07-.83.27-1.01.28-.27.55.07.9,0,.27-.6.15-1.5.86-1.67.34-.09.58,0,.85-.23.31-.26.42-.81.55-1.18.18-.52.45-1.08.59-1.61.1-.39-.09-.66-.43-.79-.66-.25-1.2-.39-1.84-.74-.91-.51-2.11-1.38-3.21-.95-.57.22-1.11.59-1.68.84-.83.36-1.68.69-2.52,1-.45.16-.9.31-1.36.45-.02,1.55-.03,3.4-.04,5.45,0-2.05-.02-3.9-.04-5.45-.46-.14-.91-.29-1.36-.45-.84-.31-1.7-.64-2.52-1-.57-.25-1.11-.62-1.68-.84-1.1-.43-2.3.44-3.21.95-.64.36-1.18.49-1.84.74-.33.13-.53.4-.43.79.14.52.41,1.09.59,1.61.13.37.23.92.55,1.18.28.23.52.15.85.23.7.17.58,1.07.86,1.67.35.06.62-.28.9,0,.19.19.18.76.27,1.01.18.51.74.92.85,1.44-.05.18-.06.36-.03.54.05.59.04,1.19-.04,1.78-.32-.02-.58-.16-.79-.41-.36.3-.22.69-.39,1.12-.28-.09-.82-.45-1.12-.32-.29.12-.36.84-.56,1.07-.56-.4-1.08-.87-1.67-1.22-.1-.06-.58-.32-.42.05-.18.05-.33-.02-.46-.22-.54-.26-.96-.65-1.26-1.19-.79-1.2-1.53-2.42-2.22-3.68-.28-.5-.52-1.01-.72-1.54-.19.27-.07.98-.07,1.27v1.23c0,.82-.04,1.64.01,2.45.06.94.21,1.92.6,2.78.14.31.36.56.49.87-.24.28-.55.15-.66.59-.13.55.2,1.22-.08,1.73-.05.09-.15.11-.22.19-.09.13-.12.28-.23.4-.14.16-.3.19-.38.39-.06.15,0,.36-.08.53-.05.12-.15.23-.22.34-.15.27-.41.42-.46.71-.1.56.04.84-.39,1.32-.34.38-.39.35-.29.86.07.36.19.86.1,1.23-.05.21-.08.18-.2.33-.07.05-.14.11-.21.17-.07.2-.09.4-.06.61-.01.28.07.63-.08.88-.19.34-.49.31-.54.78-.01.13.07.35.02.47-.05.14-.14.12-.24.22-.53.56-1.67,1.22-1.44,2.11.15.56.62.64.59,1.23-.08,1.63-.38,3.36-.13,4.98.29-.86.46-1.79.82-2.62.14-.32.32-.59.46-.9.11-.35.2-.7.27-1.06.12-.46.26-.92.43-1.37.14-.15.19-.26.43-.22.11-.87.46-1.61.82-2.41.23-.52.08-1.34.41-1.78.19-.25.32-.17.59-.2.15-.58.29-1.22.56-1.76.23-.46.4-.26.81-.37.02-.29.21-.5.32-.76.22-.49.43-.9.77-1.32.14-.18.22-.3.45-.34.29-.05.27.07.46-.14.24-.26,0-.64.45-.62.32.02.78.32,1.06.46-.74.53-.13.68.46.89-.02.28.08.34.13.56.04.16-.02.35.03.52.08.26.31.48.45.71.69,1.08.68,2.41.73,3.65.1,2.04-.17,4.08-.16,6.13,0,2.03.05,4.05.19,6.08.05.52.1,1.05.15,1.57l.86.74c-.03.2-.06.4-.08.61-.09.69-.18,1.39-.37,2.06-.08.28-.21.58-.35.84-.22.43-.24.61-.23,1.44.39.11.45,1.12.69,1.45.25.34.65.6.99.85.23.17.54.5.85.45.12-.24.03-.53.07-.79.2.07.56.93.72,1.14.32.42.72,1.06,1.21,1.34.38.23.41.04.5-.34.2-.82.93-.03,1.33.29.37.29.72.6,1.07.93.1.09.23.29.38.31.37.05.36-.31.59-.48.44-.33.9.06,1.22.39.2.21.78,1.37,1.15,1.29.21-.05.45-.43.67-.52.2-.08.35-.03.55-.07.6-.14,1.09-1.06,1.5-1.5.29-.32.66-.61.93-.96.31-.41.28-.87.32-1.37.02-.29-.03-1.01.28-1.18.06-.03.17.04.23,0,.27-.18.26-.49.3-.81.17-1.3.18-2.65.12-3.99l2.45-2.12c.05-.52.1-1.05.15-1.57.14-2.02.2-4.05.19-6.08,0-2.05-.26-4.09-.16-6.13.06-1.24.05-2.57.73-3.65.14-.23.37-.45.45-.71.05-.17,0-.35.03-.52.05-.22.15-.28.13-.56.59-.21,1.2-.36.46-.89.28-.14.74-.45,1.06-.46.46-.02.21.36.45.62.19.2.17.09.46.14.23.04.3.16.45.34.34.42.56.83.77,1.32.12.26.3.47.32.76.41.11.58-.08.81.37.26.53.41,1.18.56,1.76.27.03.4-.05.59.2.32.44.18,1.27.41,1.78.36.8.71,1.54.82,2.41.24-.04.29.06.43.22.17.45.31.9.43,1.37.07.36.16.71.27,1.06.14.32.32.58.46.9.35.83.53,1.76.82,2.62.24-1.62-.06-3.35-.13-4.98-.03-.59.45-.66.59-1.23.24-.89-.91-1.55-1.44-2.11Z"/>
      <path class="cls-3" d="m41.04,48.38s0,.02.01.02c-.59-.2-.57-.23-.55-.26-.17-.04-.32.06-.48.12-.12.04-.26.05-.38.09-.18.07-.35.19-.54.25-.23.09-.2.07-.43.3-.85.84-1.46,1.82-2.18,2.77-.27.36-.56.72-.84,1.08-.26.02-.52.06-.77.12,0-.42,0-.83.02-1.25.06-1.24.05-2.57.73-3.65.14-.23.37-.45.45-.71.05-.17,0-.35.03-.52.05-.22.15-.28.13-.56.59-.21,1.2-.36.46-.89.28-.14.74-.45,1.07-.46.46-.02.21.36.45.62.19.2.17.09.46.14.23.04.3.16.45.34.34.42.56.83.77,1.32.12.26.3.47.32.76.41.11.58-.08.81.37Z"/>
      <path class="cls-3" d="m49.89,66.47c-.12.31-.23.79-.44,1-.03.03-.07.06-.1.08-.36-.39-.46-1.37-.94-1.31-.28.04-.24.63-.6.63-.05-.44-.16-1.34-.36-1.42-.13.13-.35.11-.46.26-.14-.03-.18-.19-.25-.31-.12-.21-.52-1.08-.75-.94-.05.25,0,1.13-.44.8-.09-.07-.17-.17-.25-.24-.09-.08-.12-.05-.21-.15-.12-.14-.14-.39-.3-.51-.26-.21-.13.18-.32-.44-.12-.39-.18-.8-.28-1.19-.04-.16-.13-.58-.33-.7-.09.05-.17.12-.28.12-.17-.64-.09-1.34-.12-2.01-.02-.5-.05-1-.11-1.5-.02-.07-.03-.13-.05-.2-.12-.16-.08.03-.23-.06-.18-.11-.2-.26-.26-.48-.11-.45-.17-.91-.16-1.37,0-.67.3-1.38.44-2.04.04-.19.15-.57.08-.79-.12-.02-.29.08-.39-.03-.02-.26-.03-.52-.01-.78,0-.15,0-.31,0-.46,0-.22.05-.5-.05-.7-.12-.24-.68-.59-.47-.96.13-.22.79-.17,1.03-.08-.55-.39-1.05-1.06-1.5-1.56-.05-.06-.11-.12-.17-.19.08-.22.25-.44.36-.62.12-.19.18-.35.19-.52-.29-.44-.6-.86-.88-1.31-.21-.34-.4-.57-.69-.83-.27-.23-.5-.5-.69-.8-.14-.22-.28-.38-.5-.53-.24-.16-.49-.29-.76-.39-.29-.12-.42-.36-.64-.58-.15-.15-.31-.27-.45-.43-.13-.17-.27-.34-.4-.51-.07-.09-.13-.18-.2-.26-.08-.05-.32-.03-.42-.05-.39-.09-.76-.29-1.12-.43-.18-.07-.34-.13-.52-.18-.35-.1-.69-.4-1-.61-.39-.27-.79-.38-1.25-.46-.14.31-1.49-.5-1.68-.59-.06.03-.09.08-.11.15-.29.01-.56-.05-.83-.12-.22-.07-.45-.14-.68-.22l-.35-.13c-.22,0-.34.27-.55.31-.18.03-.31-.08-.46-.18-.13-.09-.31-.17-.65-.66-.09-.03-.16-.11-.26-.14-.13-.05-.29-.06-.42-.1.07-.31.42-.15.6-.23,0-.07.01-.13.02-.2.22-.08.68.03.89.12.05-.13-.02-.29,0-.42.33-.07.61.06.91.17.19.07.39.12.59.19.03.01.12.07.16.06.09-.02.12-.16.22-.2.24-.09.64.04.86.11.17.06.35.08.53.14.15.05.26.18.41.24.13.06.24.02.37.07.28.09.67.4.83.64-.05-.15,0-.34-.03-.5.07.14.19.27.29.38.11.12.32.43.47.5.18.08.29-.08.47-.05.28.04.66.78.92.7.12-.04.11-.16.18-.25.11-.15.37-.21.55-.2.45.03.61.56.86.84.07.08.09.08.18.12.04,0,.08,0,.13,0,.08.05.16.11.22.19.12.11.28.36.45.4.12.03.14-.04.23-.08.29-.14.49.29.67.47.14.14.32.21.46.35.13.12.18.34.3.44.05.04.09.03.14.07.11.08.19.19.3.27.12.09.24.17.32.31.12.21.08.47.27.61.11.08.22.03.33.08.19.09.28.49.37.63.11.17.13.09.25.23.38.45.59,1.09.76,1.64.34-.04.51.34.69.57.25.34.44.69.64,1.06.03.05.05.09.07.14.02-.24.08-.49.12-.68.1-.51.05-.48-.29-.86-.43-.48-.29-.76-.39-1.32-.06-.3-.31-.44-.46-.71-.06-.11-.16-.22-.22-.34-.08-.17-.02-.38-.08-.53-.08-.2-.24-.23-.38-.39-.11-.12-.14-.27-.23-.4-.06-.08-.17-.1-.22-.19-.28-.51.05-1.18-.08-1.73-.1-.44-.42-.31-.66-.59.12-.31.35-.56.49-.87.39-.86.54-1.84.6-2.78.05-.81.01-1.63.01-2.45v-1.23c0-.29.13-1-.07-1.27-.2.53-.44,1.05-.72,1.54-.69,1.26-1.43,2.49-2.22,3.68-.3.54-.72.93-1.26,1.19-.13.19-.28.27-.46.22.17-.36-.32-.1-.42-.05-.59.35-1.11.83-1.67,1.22-.2-.24-.28-.95-.56-1.07-.3-.13-.85.23-1.12.32-.18-.42-.04-.82-.39-1.12-.21.25-.47.39-.79.41-.08-.59-.09-1.18-.04-1.78.04-.19.03-.37-.03-.54.11-.52.67-.93.85-1.44.09-.25.07-.83.27-1.01.28-.27.55.07.9,0,.27-.6.15-1.5.86-1.67.34-.09.58,0,.85-.23.31-.26.42-.81.55-1.18.18-.52.45-1.08.59-1.61.1-.39-.09-.66-.43-.79-.66-.25-1.2-.39-1.84-.74-.91-.51-2.11-1.38-3.21-.95-.57.22-1.11.59-1.68.84-.83.36-1.68.69-2.52,1-.45.16-.9.31-1.36.45.05-3.06.12-4.97.25-4.97.66,0,8.35-1.44,8.35-1.44,0,0,.81-.08,2.03-.07-.14.16-.25.29-.33.39-.42.31-.55.7-.4,1.16.37.47.82.85,1.34,1.14.3.21.62.3.96.29.58.47,1.11.99,1.45.19.34-.35,1.24-.52,1.67-.62.35-.08.71-.11,1.06-.19.17-.04.42-.17.6-.08.03.32-.44.24-.44.56.17.06.35.02.53.02.29,0,.53.08.81.12.3.05.38.08.62.22.31.18.34.16.2.45-.16.33-.33.48.03.73.25.17.87.24,1,.54.08.2-.73.79-.86.98-.2.29-.3.52-.12.84.13.22.39.36.56.56.16.19.24.44.4.63-.22.21-.61-.05-.79.21-.21.29,1.28,1.65,1.36,2.15-.9.08-.39.62-.28,1.21.08.43-.35.63-.44,1,.03.25.08.49.17.73.19.66.39,1.32.61,1.97.21.66.31,1.13.29,1.79,0,.22,0,.42.03.63.05.32.45,1,.26,1.31-.44.05-.42-.04-.42.4-.01.92.56,1.86.46,2.78-.05.51-.7.71-.31,1.23.26.36,1.06.46.88,1.06-.09.29-.42.42-.46.78-.05.42.26.97.45,1.3.13.24.39.5.35.8-.03.25-.28.44-.33.7-.24,1.13,1.02,1.99,1.34,2.93.04.12.25.71.21.79-.12.22-.33.04-.5.16-.4.28-.1,1.22-.02,1.5.21.73.77,1.39.82,2.17.02.46-.06.94-.15,1.33-.15.67,0,1.39.12,2.07.08.41.24.85.12,1.25-.09.08-.15.19-.15.32.05.67.16,1.33.32,1.98.12.59.28,1.16.44,1.74Z"/>
      <path class="cls-2" d="m47.81,66.87h-.02c-.24-.01-.25-.47-.33-.63-.23-.01-.29.25-.41.41-.23.29-.54.6-.86.79-.16.1-.32.12-.48.2-.11.06-.18.18-.31.23-.15-.34.24-1.64-.16-1.79-.42.32-.77.9-1.06,1.33-.23-1.03-.17-2.12-.29-3.16-.02-.13.03-.5-.12-.58-.15-.08-.39.07-.54,0-.27-.12-.14-.75-.14-1.04,0-.46-.25-.77-.35-1.25-.14-.71-.06-1.43-.3-2.12-.13-.36-.06-.69-.15-1.06-.1-.4-.37-.65-.54-1.02-.37-.77-.42-1.65-.8-2.42-.16-.32-.3-.67-.64-.77-.19-.06-.3,0-.5-.14-.56-.37-.86-1.03-1.57-1.12-.65-.08-1.36.02-2.02,0-.19,0-.38,0-.57.03.29-.35.57-.71.84-1.08.71-.95,1.33-1.93,2.18-2.77.23-.23.2-.22.43-.3.19-.07.35-.19.54-.25.12-.05.25-.05.38-.09.16-.05.31-.16.48-.12-.02.03-.04.05.55.26.25.53.4,1.17.55,1.73.09,0,.16,0,.23,0,.02-.27.07-.54.01-.77-.23-.1-.32.03-.28-.26,0-.05.02-.11.04-.16.06.06.12.12.17.19.45.5.95,1.16,1.5,1.56-.24-.1-.89-.15-1.03.08-.21.36.35.72.47.96.1.2.05.48.05.7,0,.15,0,.31,0,.46-.02.26-.01.52.01.78.1.11.26.01.39.03.08.22-.04.59-.08.79-.14.65-.43,1.36-.44,2.04,0,.46.05.92.16,1.37.05.22.08.37.26.48.14.09.1-.11.23.06.02.07.03.14.05.2.05.5.09,1,.11,1.5.02.66-.05,1.36.12,2.01.12,0,.19-.06.28-.12.2.12.29.54.33.7.1.4.16.8.28,1.19.19.62.06.23.32.44.15.12.18.37.3.51.09.1.12.08.21.15.09.07.16.17.25.24.44.33.39-.55.44-.8.23-.13.63.73.75.94.06.12.1.28.25.31.11-.15.33-.13.46-.26.21.08.32.97.36,1.42Z"/>
      <path class="cls-2" d="m41.05,48.41s.06.02.09.03c0-.02,0-.05,0-.07.11.2.29.4.46.58-.02.05-.03.11-.04.16-.03.3.05.16.28.26.06.23.01.5-.01.77-.07,0-.14,0-.23,0-.15-.57-.29-1.2-.55-1.73Z"/>
      <path class="cls-2" d="m16.62,52.88c-.45-.09-.9-.15-1.34-.14-.66,0-1.37-.09-2.02,0-.72.09-1.02.75-1.57,1.12-.2.13-.31.08-.5.14-.34.11-.48.45-.64.77-.37.77-.43,1.65-.79,2.42-.17.37-.44.61-.54,1.02-.09.37-.02.7-.15,1.06-.24.69-.16,1.41-.3,2.12-.09.47-.35.79-.35,1.25,0,.29.13.92-.14,1.04-.15.07-.39-.09-.54,0-.14.08-.1.45-.12.58-.12,1.04-.06,2.13-.29,3.16-.29-.43-.64-1.02-1.06-1.33-.4.15,0,1.45-.16,1.79-.14-.05-.2-.17-.31-.23-.16-.08-.32-.1-.48-.2-.17-.1-.34-.24-.49-.39.16-.15.32-.32.39-.56.08-.27,0-.58,0-.86.02-.34.12-.42.46-.56.23-.09.7-.15.84-.38.06-.11.02-.26.01-.37-.04-.49.07-1.07.32-1.5.2-.34.57-.52.77-.84.05-.08.08-.15.1-.24.11-.45,0-.74.18-1.24.22-.65.46-1.33.74-1.95-.17-.05-.28.08-.39.19-.1-.33-.01-.79-.02-1.13,0-.28-.05-.6.07-.87-.12.03-.21.11-.31.02-.12-.1-.08-.48-.08-.61,0-.3.08-.58.15-.87.05-.21.42-.95.36-1.26-.08-.03-.18-.02-.27-.03.15-.65.43-1.24.71-1.86.23-.52.08-1.34.41-1.78.19-.25.32-.17.59-.2.15-.58.29-1.22.56-1.76.23-.46.4-.26.81-.37.02-.29.21-.5.32-.76.22-.49.43-.9.77-1.32.14-.18.22-.3.45-.34.29-.05.27.07.46-.14.24-.26,0-.64.45-.62.32.02.78.32,1.06.46-.74.53-.13.68.46.89-.02.28.08.34.13.56.04.16-.02.35.03.52.08.26.31.48.45.71.69,1.08.68,2.41.73,3.65.02.42.02.83.02,1.25Z"/>
      <path class="cls-2" d="m4.14,68.16c-.01.09-.02.18-.03.27l-.19.34c.08-.2.15-.4.22-.61Z"/>
      <path class="cls-2" d="m25.56,71.91c-.03.19-.06.38-.1.57,0,.16,0,.3,0,.42,0,1.55-.23,3.02-.89,4.17,0,.03-.02.06-.03.09-.11.41-.16.83-.34,1.22-.1.22-.32,1-.61,1.04-.37.05-.19-.33-.64.04-.22.19-.42.58-.68.3-.35.35-.77.53-1.26.4-.64-.17-1.49-.56-1.96.13-.14.21-.1.31-.36.38-.2.06-.51-.02-.73-.02-.4,0-.33.12-.62.25-.33.14-.86-.04-1.21-.11-.63-.13-.99-.52-1.5-.86-.2.11-.55.82-.77.76-.21-.06-.14-.34-.17-.52-.06-.33-.23-.51-.39-.76-.05-.07-.08-.15-.11-.22-.99-.51-1.86-1.37-2.51-2.76.21-.06.41-.12.62-.16,1.07-.2,2.03-.41,3-.88.42-.2.51-.49.63-.94.03-.13.05-.51.17-.6.12-.09.72-.02.8-.02.52,0,1.16.22,1.42-.29.16-.31.06-.95.33-1.09.23-.12.78.03,1.05.02.16-.58-.08-1.24.02-1.82.57-.05,1.09-.04,1.65-.16.16-.04.32.01.44-.13.15-.18.08-1.03.12-1.27.03-.24.06-.68.29-.83.22-.15.57,0,.82-.03.15-.81-.03-1.7.01-2.52.03-.66.17-1.3.16-1.98,0-1.03.04-2.08,0-3.11-.01-.37.02-.9-.43-.94-.18-.71-.03-1.63-.03-2.35,0-.67.17-1.65-.03-2.3-.15-.49-.26-.89-.29-1.45-.02-.45,0-.9.05-1.35.05-.2.09-.39.14-.59-.13-.19-.25-.09-.47-.15-.44-.12-.52-.54-.58-.95-.07-.49.08-1.78-.71-1.07-.58.52-.39-.06-.82-.24-.41-.16-1.04.22-1.41.35-.26.1-.61.18-.89.11-.09.02-.19.02-.27-.03-.02-.08-.04-.17-.05-.25-.44-.3-1.29.18-1.77-.05.04-.66-.76.12-1.06.02-.09-.32.08-.45-.19-.64-.28-.2-.65.02-.91-.09,0,0,0,0-.01,0,0-.02.02-.04.03-.05.22-.36.44-1.39.91-1.47.5-.71.58-.75.73-.84.23-.35.46-.66.7-.94.2-.27.42-.52.6-.8.25-.37.39-.64.76-.94.65-.52,1.24-1.16,2.06-1.33.59-.12,1.26,0,1.87,0,.26,0,.53-.05.79.01.71.15,1.39.76,1.98,1.17.84.57,2.09,1.98,1.71,3.07-.53.02-.15.72-.06.98.15.47.49,1.17.38,1.67-.03.14-.13.24-.16.39-.04.23.11.56.13.79.05.49.04,1,.04,1.49,0,.26.06.52-.07.76-.13-.03-.27-.03-.4,0,.07.54.51,1.13.44,1.65-.09,0-.18,0-.26,0-.26.67.22,1.64.27,2.31.02.34,0,.69,0,1.04,0,1.6-.12,3.25.01,4.84.07.81.14,1.58.14,2.4,0,.68-.03,1.34.15,2.01.23.85.14,1.73.23,2.61.08.79.18,1.65.06,2.44Z"/>
      <path class="cls-3" d="m22.07,65.7c-.04.83.13,1.71-.01,2.52-.25.02-.6-.12-.82.03-.23.15-.25.59-.29.83-.04.24.04,1.08-.12,1.27-.13.15-.28.1-.44.13-.56.12-1.08.11-1.65.16-.1.59.14,1.24-.02,1.82-.28.02-.82-.13-1.05-.02-.26.13-.17.78-.33,1.09-.26.5-.9.29-1.42.29-.08,0-.68-.07-.8.02-.12.09-.14.47-.17.6-.12.45-.21.73-.63.94-.98.47-1.94.68-3,.88-.21.04-.41.09-.62.16-.19-.41-.36-.86-.52-1.37-.42-1.43-.63-3.13-.69-4.98-.16-.47-.29-.97-.31-1.46-.09-1.72.02-3.46,0-5.18,0-.64.14-1.24.16-1.88.02-.5-.07-1.04-.01-1.54.03-.26.13-.47.19-.73.24-.98.29-2,.58-2.97.41-1.37.63-2.81,1.06-4.18.12-.38.12-.78.29-1.19.31-.76.62-1.58,1.05-2.28,0,0,0,0,.01,0,.26.11.62-.11.91.09.28.2.1.33.19.64.3.1,1.1-.67,1.06-.02.49.24,1.33-.25,1.77.05.02.08.03.17.05.25.08.05.17.05.27.03.28.07.63-.02.89-.11.37-.14,1-.52,1.41-.35.44.17.24.76.82.24.79-.71.64.58.71,1.07.05.41.14.83.58.95.22.06.35-.04.47.15-.05.2-.09.39-.14.59-.05.45-.06.9-.05,1.35.02.56.13.96.29,1.45.2.65.03,1.62.03,2.3,0,.72-.15,1.64.03,2.35.45.04.42.56.43.94.04,1.03,0,2.07,0,3.11,0,.68-.13,1.31-.16,1.98Z"/>
      <path class="cls-1" d="m25.58,41.11c.02-.08.11-.11.14-.19-.23-.08-.48-.04-.71-.12.12-.12.13-.38.06-.53-.17-.37-.86-.13-1.2-.16.04-.07.1-.1.18-.15-.12-.09-.31-.03-.36-.21-.03-.13.17-.24.06-.36-.03-.03-.25-.02-.31-.04-.14-.03-.14-.03-.18-.16-.09-.25.04-.45-.3-.51-.06-.01-.13-.02-.19-.02-.18.02-.36.06-.55.13,0,0-5.27,1.73-6.5,3.1s-2.23,5.03-.81,4.77c0,0,.11,1.58,1.84.44,0,0,.69.92,1.61-.02,0,0-.15,1.16,1.11.56s2.73-2.92,2.91-3.41c.18-.49,3.55-1.21,4-1.9.08-.12.08-.34.02-.6-.3-.17-.55-.42-.83-.61Z"/>
      <path class="cls-10" d="m22.28,39.71s-5.04,1.08-5.79,2.13c-.75,1.05,2.05.86,3.69,1.17,1.63.31,3.28-.13,4.05-1.17.78-1.04-1.37-2.27-1.95-2.13Z"/>
      <path class="cls-1" d="m21.06,75.1s-3.85.88-4.29,2.69c-.44,1.81-.88,4.67,2.14,3.74s4.29-.71,5.61-.99c1.32-.27,2.31-5.55-3.46-5.44Z"/>
      <path class="cls-10" d="m21.27,75.7s-3.08.71-3.69,1.62c-.61.91-.22,2.43.57,2.43s1.12-.81,1.12-.81c0,0,.48.51,1.13.51s.86-1.42.86-1.42c0,0,.61,1.01,1.37.96.76-.05.71-.86.71-.86,0,0,.54.66,1.37.51.83-.15.1-3.29-3.44-2.93Z"/>
      <path class="cls-2" d="m25.96,71.91c.03.19.06.38.1.57,0,.16,0,.3,0,.42,0,1.55.23,3.02.89,4.17,0,.03.02.06.03.09.11.41.16.83.34,1.22.1.22.32,1,.61,1.04.37.05.19-.33.64.04.22.19.42.58.68.3.35.35.77.53,1.26.4.64-.17,1.49-.56,1.96.13.14.21.1.31.36.38.2.06.51-.02.73-.02.4,0,.33.12.62.25.33.14.86-.04,1.21-.11.63-.13.99-.52,1.5-.86.2.11.55.82.77.76.21-.06.14-.34.17-.52.06-.33.23-.51.39-.76.05-.07.08-.15.11-.22.99-.51,1.86-1.37,2.51-2.76-.21-.06-.41-.12-.62-.16-1.07-.2-2.03-.41-3-.88-.42-.2-.51-.49-.63-.94-.03-.13-.05-.51-.17-.6-.12-.09-.72-.02-.8-.02-.52,0-1.16.22-1.42-.29-.16-.31-.06-.95-.33-1.09-.23-.12-.78.03-1.05.02-.16-.58.08-1.24-.02-1.82-.57-.05-1.09-.04-1.65-.16-.16-.04-.32.01-.44-.13-.15-.18-.08-1.03-.12-1.27-.03-.24-.06-.68-.29-.83-.22-.15-.57,0-.82-.03-.15-.81.03-1.7-.01-2.52-.03-.66-.17-1.3-.16-1.98,0-1.03-.04-2.08,0-3.11.01-.37-.02-.9.43-.94.18-.71.03-1.63.03-2.35,0-.67-.17-1.65.03-2.3.15-.49.26-.89.29-1.45.02-.45,0-.9-.05-1.35-.05-.2-.09-.39-.14-.59.13-.19.25-.09.47-.15.44-.12.52-.54.58-.95.07-.49-.08-1.78.71-1.07.58.52.39-.06.82-.24.41-.16,1.04.22,1.41.35.26.1.61.18.89.11.09.02.19.02.27-.03.02-.08.04-.17.05-.25.44-.3,1.29.18,1.78-.05-.04-.66.76.12,1.06.02.09-.32-.08-.45.19-.64.28-.2.65.02.91-.09,0,0,0,0,.01,0,0-.02-.02-.04-.03-.05-.22-.36-.44-1.39-.91-1.47-.5-.71-.58-.75-.73-.84-.23-.35-.46-.66-.7-.94-.2-.27-.42-.52-.6-.8-.25-.37-.39-.64-.76-.94-.65-.52-1.24-1.16-2.06-1.33-.59-.12-1.26,0-1.87,0-.26,0-.53-.05-.79.01-.71.15-1.39.76-1.98,1.17-.84.57-2.09,1.98-1.71,3.07.53.02.15.72.06.98-.15.47-.49,1.17-.38,1.67.03.14.13.24.16.39.04.23-.11.56-.13.79-.05.49-.04,1-.04,1.49,0,.26-.06.52.07.76.13-.03.27-.03.4,0-.07.54-.51,1.13-.44,1.65.09,0,.18,0,.26,0,.26.67-.22,1.64-.27,2.31-.02.34,0,.69,0,1.04,0,1.6.12,3.25-.01,4.84-.07.81-.14,1.58-.14,2.4,0,.68.03,1.34-.15,2.01-.23.85-.14,1.73-.23,2.61-.08.79-.18,1.65-.06,2.44Z"/>
      <path class="cls-3" d="m29.44,65.7c.04.83-.13,1.71.01,2.52.25.02.6-.12.82.03.23.15.25.59.29.83.04.24-.04,1.08.12,1.27.13.15.28.1.44.13.56.12,1.08.11,1.65.16.1.59-.14,1.24.02,1.82.28.02.82-.13,1.05-.02.26.13.17.78.33,1.09.26.5.9.29,1.42.29.08,0,.68-.07.8.02.12.09.14.47.17.6.12.45.21.73.63.94.98.47,1.94.68,3,.88.21.04.41.09.62.16.19-.41.36-.86.52-1.37.42-1.43.63-3.13.69-4.98.16-.47.29-.97.31-1.46.09-1.72-.02-3.46,0-5.18,0-.64-.14-1.24-.16-1.88-.02-.5.07-1.04.01-1.54-.03-.26-.13-.47-.19-.73-.24-.98-.29-2-.58-2.97-.41-1.37-.63-2.81-1.06-4.18-.12-.38-.12-.78-.29-1.19-.31-.76-.62-1.58-1.05-2.28,0,0,0,0-.01,0-.26.11-.62-.11-.91.09-.28.2-.1.33-.19.64-.3.1-1.1-.67-1.06-.02-.49.24-1.34-.25-1.78.05-.02.08-.03.17-.05.25-.08.05-.17.05-.27.03-.28.07-.63-.02-.89-.11-.37-.14-1-.52-1.41-.35-.44.17-.24.76-.82.24-.79-.71-.64.58-.71,1.07-.05.41-.14.83-.58.95-.22.06-.35-.04-.47.15.05.2.09.39.14.59.05.45.06.9.05,1.35-.02.56-.13.96-.29,1.45-.2.65-.03,1.62-.03,2.3,0,.72.15,1.64-.03,2.35-.45.04-.42.56-.43.94-.04,1.03,0,2.07,0,3.11,0,.68.13,1.31.16,1.98Z"/>
      <path class="cls-1" d="m26.19,45.18c-.05-.07-.14-.07-.19-.13.19-.15.44-.19.63-.34-.15-.07-.25-.32-.23-.48.03-.4.77-.41,1.08-.54-.06-.06-.13-.06-.22-.08.08-.12.28-.13.27-.31,0-.13-.24-.18-.18-.32.02-.04.23-.11.28-.14.12-.08.12-.07.12-.21,0-.26-.18-.41.12-.58.06-.03.12-.06.18-.08.18-.04.36-.06.56-.06,0,0,5.55-.09,7.16.79,1.61.88,3.75,4.02,2.33,4.24,0,0,.41,1.53-1.6,1.02,0,0-.35,1.09-1.53.51,0,0,.52,1.05-.87.9-1.39-.15-3.54-1.87-3.87-2.27-.33-.41-3.75.02-4.41-.49-.11-.09-.19-.29-.21-.56.23-.26.38-.57.59-.85Z"/>
      <path class="cls-10" d="m28.85,42.78s5.11-.63,6.17.11c1.06.75-1.66,1.49-3.1,2.32-1.44.83-3.14.95-4.21.22-1.07-.73.55-2.59,1.14-2.65Z"/>
      <path class="cls-1" d="m30.45,75.1s3.85.88,4.29,2.69c.44,1.81.88,4.67-2.14,3.74-3.02-.93-4.29-.71-5.61-.99-1.32-.27-2.31-5.55,3.46-5.44Z"/>
      <path class="cls-10" d="m30.25,75.7s3.08.71,3.69,1.62c.61.91.22,2.43-.57,2.43s-1.12-.81-1.12-.81c0,0-.48.51-1.13.51s-.86-1.42-.86-1.42c0,0-.61,1.01-1.37.96-.76-.05-.71-.86-.71-.86,0,0-.54.66-1.37.51-.83-.15-.1-3.29,3.44-2.93Z"/>
      <path class="cls-2" d="m39.1,19.75l-1.13-1.69c.03.15.71,3.25.27,4.44l-.55-1.62s.18,3.12,0,4.09l-.59-1.62s.14,1.76-.14,2.58c-.27.82-.32,1.93-.32,1.93l-.31-1.93s-.64,2.4-1.27,3l.32-1.98s-.41.84-1.45,1.71c-.79.67-1.03,1.01-1.1,1.13l.61-1.51s-.59.63-1.19,1.96l-.04-.67-1.11,1.94v-1.86s-.61,1.7-1.37,2.43c-.71.68-.97.8-1,.81.04-.08.9-1.66.33-3.32-.58-1.7-3.31-6.31-3.31-6.31,0,0-2.73,4.61-3.31,6.31-.57,1.66.29,3.24.33,3.32-.03,0-.29-.12-1-.81-.75-.73-1.37-2.43-1.37-2.43v1.86l-1.11-1.94-.04.67c-.59-1.33-1.18-1.96-1.18-1.96l.61,1.51c-.07-.12-.3-.47-1.1-1.13-1.04-.88-1.45-1.71-1.45-1.71l.32,1.98c-.64-.61-1.27-3-1.27-3l-.31,1.93s-.05-1.11-.32-1.93c-.27-.82-.14-2.58-.14-2.58l-.59,1.62c-.18-.97,0-4.09,0-4.09l-.54,1.62c-.44-1.19.24-4.29.27-4.44l-1.13,1.69c-.13-1.32,1.14-3.85,1.18-3.92l-1.18.65s3.27-5.38,5.18-7.32c1.91-1.94,5.4-1.25,6.54-1.01,1.13.24,1.63.24,1.63.24,0,0,.5,0,1.63-.24,1.13-.24,4.63-.93,6.54,1.01,1.91,1.94,5.17,7.32,5.17,7.32l-1.18-.65c.04.08,1.31,2.61,1.18,3.92Z"/>
      <path class="cls-10" d="m34.01,24.38c-1.05,1.38-4.21,4.12-4.21,4.12h-8.09s-3.16-2.74-4.21-4.12c-1.05-1.38-2.02-8.05-1.05-10.19.06-.13.12-.26.18-.39.16.05.34.06.54-.02.65-.27,1.27-1.6,3.34-2.28,2.08-.68,2.88-.32,3.45,0,.57.32,1.13.47,1.78.47s1.21-.15,1.78-.47c.56-.32,1.38-.68,3.45,0,2.07.68,2.7,2,3.34,2.28.2.09.38.08.54.02.06.13.12.26.18.39.97,2.14,0,8.81-1.05,10.19Z"/>
      <path class="cls-7" d="m32.09,25.72s0,.01,0,.02c-.02.59-.09,1.14-.12,1.7-.09,1.49-2.09,3.55-6.22,3.55s-6.12-2.06-6.22-3.55c-.03-.56-.09-1.11-.12-1.7,0,0,0-.01,0-.02-.04-.97.02-2.02.45-3.29.69-2.04,1.57-2.67,2.35-4.16.78-1.49,3.53-1.88,3.53-1.88,0,0,2.75.39,3.53,1.88.79,1.49,1.66,2.12,2.35,4.16.43,1.27.49,2.32.45,3.29Z"/>
      <path class="cls-1" d="m33.76,15.83c0,.77-.4-.61-1.86-1.15-1.46-.54-1.02-.11-2.26.19-1.85.46-3.89.42-3.89.42,0,0-2.04.04-3.89-.42-1.24-.31-.81-.73-2.26-.19-1.46.54-1.86,1.92-1.86,1.15s.24-2.99,2.43-3.83c2.18-.84,2.83-.46,3.64,0,.81.46,1.94.46,1.94.46,0,0,1.13,0,1.94-.46.81-.46,1.46-.84,3.64,0,2.18.84,2.42,3.06,2.42,3.83Z"/>
      <path class="cls-7" d="m34.87,13.8c-.16.05-.34.06-.54-.02-.65-.27-1.27-1.6-3.34-2.28-2.07-.68-2.88-.32-3.45,0-.57.32-1.13.47-1.78.47s-1.21-.15-1.78-.47c-.57-.32-1.38-.68-3.45,0-2.07.68-2.69,2-3.34,2.28-.2.09-.38.08-.54.02,1.01-2.02,2.71-3.97,4.99-3.97,2.43,0,4.13.76,4.13.76,0,0,1.7-.76,4.12-.76,2.28,0,3.99,1.96,4.99,3.97Z"/>
      <path class="cls-8" d="m25.14,19.55s.2-.23-.35-.52-1.49-.74-1.34-.09c.15.65,1.5,1.1,1.68.61Z"/>
      <path class="cls-8" d="m32.1,26.23s0,0-.01.01c-.06.05-.36.26-1.17-.01-.92-.31-2.55-.24-5.17-.24s-4.25-.06-5.17.24c-.81.27-1.11.06-1.17.01,0,0-.01-.01-.01-.01,0,0,0,0,0,0,.07-.05.47-.34.67-.36.22-.02,1.82-.1,2.75-.1h5.84c.93,0,2.52.08,2.75.1.2.02.6.31.67.36,0,0,0,0,0,0Z"/>
      <path class="cls-10" d="m30.48,26.54s-.24.3-.7.96c-.46.66-2.13,1.15-4.02,1.15s-3.57-.48-4.02-1.15c-.46-.66-.7-.96-.7-.96,0,0,.21-.18,1.55-.18h6.34c1.34,0,1.55.18,1.55.18Z"/>
      <path class="cls-3" d="m40.99,18.06s.16,3.84-.09,5.94l-.25,2.1-.66-2.75s-.11,1.59-.56,3.35l-.71,3.37v-1.28c-.07.16-.15.32-.23.47-1.12,2.13-1.3,2.72-1.32,2.82l.33-2.98-1.32,2.43-.27-.98-.46.57.27-1.26-.05-.19s-.99,1.62-1.73,2.43l-.74.81.72-2.83-1.55,2.11-.12-1.92c.59-1.33,1.19-1.96,1.19-1.96l-.61,1.51c.07-.12.3-.47,1.1-1.13,1.04-.88,1.45-1.71,1.45-1.71l-.32,1.98c.64-.61,1.27-3,1.27-3l.31,1.93s.05-1.11.32-1.93c.27-.82.14-2.58.14-2.58l.59,1.62c.18-.97,0-4.09,0-4.09l.55,1.62c.44-1.19-.24-4.29-.27-4.44l1.13,1.69c.14-1.32-1.14-3.85-1.18-3.92l1.18.65s-3.27-5.38-5.17-7.32c-1.91-1.94-5.4-1.25-6.54-1.01-1.13.24-1.63.24-1.63.24,0,0-.5,0-1.63-.24-1.13-.24-4.63-.93-6.54,1.01-1.91,1.94-5.17,7.32-5.17,7.32l1.18-.65c-.04.08-1.31,2.61-1.18,3.92l1.13-1.69c-.03.15-.71,3.25-.27,4.44l.55-1.62s-.18,3.12,0,4.09l.59-1.62s-.14,1.76.14,2.58c.27.82.32,1.93.32,1.93l.31-1.93s.64,2.4,1.27,3l-.32-1.98s.41.84,1.45,1.71c.8.67,1.03,1.01,1.1,1.13l-.61-1.51s.59.63,1.19,1.96l-.12,1.92-1.55-2.11.72,2.83-.74-.81c-.75-.81-1.73-2.43-1.73-2.43l-.05.19.27,1.26-.46-.57-.27.98-1.32-2.43.33,2.98c-.02-.09-.2-.69-1.32-2.82-.08-.15-.16-.31-.23-.47v1.28l-.71-3.37c-.44-1.76-.56-3.35-.56-3.35l-.66,2.75-.25-2.1c-.25-2.1-.09-5.94-.09-5.94l-1.1,2.06.55-2.91c.55-2.91,2.1-6.15,2.1-6.15h-2.1l1.44-.79c.38-.21.74-.82,1.12-1.63.09.02.2.03.32.05.37-.4.56-1.02.9-1.46.56-.7,1.13-1.32,1.83-1.9.18-.15.31-.33.46-.51.15-.18.25-.4.43-.55.18-.15.35-.28.52-.45.14-.14.31-.43.47-.49.05.36-.39.62-.34.98.17.01.3-.15.43-.24.21-.14.42-.25.65-.35.11-.05.38-.18.48-.13.11.27-.12.55-.11.82.52-.31,1.1-.47,1.67-.64.27-.08.86-.41,1.13-.29-.03.11-.1.19-.21.24-.14.15-.23.33-.27.53.32.18,1.11-.08,1.45-.19.24-.08.45-.18.7-.11-.11.21-.23.49-.43.62.59-.05,1.22-.26,1.81-.14.25.05.27-.02.18.28-.09.3-.42.6-.33.94.52-.23.96-.52,1.48-.72.52.2.96.49,1.48.72.1-.35-.24-.64-.33-.94-.09-.31-.07-.24.18-.28.6-.11,1.23.09,1.81.14-.2-.13-.32-.41-.43-.62.25-.07.47.03.7.11.34.11,1.12.37,1.45.19-.04-.2-.13-.38-.27-.53-.11-.05-.18-.13-.21-.24.28-.12.87.21,1.13.29.58.18,1.15.33,1.67.64,0-.27-.22-.54-.11-.82.1-.04.37.08.48.13.23.1.44.21.65.35.13.09.26.26.43.24.05-.36-.4-.62-.34-.98.16.06.33.34.47.49.17.17.34.3.52.45.18.15.28.38.43.55.15.18.28.36.46.51.7.57,1.27,1.19,1.83,1.9.35.44.53,1.05.9,1.46.12-.01.22-.03.32-.05.38.81.73,1.42,1.12,1.63l1.44.79h-2.1s1.55,3.24,2.1,6.15l.55,2.91-1.1-2.06Z"/>
      <circle class="cls-9" cx="21.03" cy="14.64" r="1.9"/>
      <path class="cls-4" d="m38.99,8.63c-.09.02-.2.03-.32.05-.37-.4-.56-1.02-.9-1.46-.56-.7-1.13-1.32-1.83-1.9-.18-.15-.31-.33-.46-.51-.15-.18-.25-.4-.43-.55-.18-.15-.35-.28-.52-.45-.14-.14-.31-.43-.47-.49-.05.36.39.62.34.98-.17.01-.3-.15-.43-.24-.21-.14-.42-.25-.65-.35-.11-.05-.38-.18-.48-.13-.11.27.12.55.11.82-.52-.31-1.1-.47-1.67-.64-.27-.08-.86-.41-1.13-.29.03.11.1.19.21.24.14.15.23.33.27.53-.32.18-1.11-.08-1.45-.19-.24-.08-.45-.18-.7-.11.11.21.23.49.43.62-.59-.05-1.22-.26-1.81-.14-.25.05-.27-.02-.18.28.09.3.42.6.33.94-.52-.23-.96-.52-1.48-.72-.52.2-.96.49-1.48.72-.1-.35.24-.64.33-.94.09-.31.07-.24-.18-.28-.6-.11-1.23.09-1.81.14.2-.13.32-.41.43-.62-.25-.07-.46.03-.7.11-.34.11-1.12.37-1.45.19.04-.2.13-.38.27-.53.11-.05.18-.13.21-.24-.28-.12-.87.21-1.13.29-.58.18-1.15.33-1.67.64,0-.27.22-.54.11-.82-.1-.04-.37.08-.48.13-.23.1-.44.21-.65.35-.13.09-.26.26-.43.24-.05-.36.4-.62.34-.98-.16.06-.33.34-.47.49-.17.17-.34.3-.52.45-.18.15-.28.38-.43.55-.15.18-.28.36-.46.51-.7.57-1.27,1.19-1.83,1.9-.35.44-.53,1.05-.9,1.46-.12-.01-.22-.03-.32-.05,1.05-2.23,2.32-5.98,5.06-7.32C21.34-.53,25.76.11,25.76.11c0,0,4.41-.64,8.17,1.19,2.75,1.34,4.02,5.1,5.06,7.32Z"/>
      <path class="cls-10" d="m13.76,8.45c-.1.09-.23.29-.35.53-.68-.37-2.52-1.15-3.62.54-1.37,2.11-.11,5.53.22,6.38.22.58,1.27.53,1.92.44-.07.33-.11.54-.11.54,0,0-1.7.82-2.43-.63-.73-1.45-1.94-6.03.4-7.8,2.35-1.76,3.96,0,3.96,0Z"/>
      <path class="cls-1" d="m12.78,11.27c-.82,1.21-1.05,3.4-1.05,3.4l1.05-1.38c-.39,1-.7,2.32-.86,3.05-.64.09-1.69.14-1.92-.44-.32-.85-1.58-4.27-.22-6.38,1.1-1.69,2.94-.91,3.62-.54-.23.44-.44.97-.44.97l1.35-.86s-.73.97-1.54,2.18Z"/>
      <path class="cls-10" d="m12.16,9.41s-1.46,0-2,1.16-.16,4.07.32,4.55c.49.49.86.54.59,0-.27-.54-.7-2.86-.38-3.88.32-1.02.7-.94,1.46-1.38s0-.45,0-.45Z"/>
      <path class="cls-5" d="m25.76,24.99c-6.32,0-4.83-2.43-3.72-3.73,1.11-1.3,1.33-1.07,2.21-1.23.87-.16.75.09.9-.49.15-.58-1.68-.61-.5-1.19,1.07-.53,1.12-.45,1.12-.43,0-.02.05-.1,1.12.43,1.18.58-.66.61-.51,1.19.15.58.03.33.9.49.88.15,1.1-.07,2.21,1.23,1.11,1.3,2.6,3.73-3.72,3.73Z"/>
      <path class="cls-8" d="m22.48,14.64c0-.71-.57-1.28-1.28-1.28s-1.28.57-1.28,1.28.57,1.28,1.28,1.28,1.28-.57,1.28-1.28Z"/>
      <path class="cls-6" d="m21.75,13.49c0-.27-.22-.49-.49-.49s-.49.22-.49.49.22.49.49.49.49-.22.49-.49Z"/>
      <path class="cls-8" d="m26.37,19.55s-.2-.23.35-.52c.54-.28,1.49-.74,1.34-.09-.15.65-1.5,1.1-1.68.61Z"/>
      <path class="cls-9" d="m28.58,14.64c0,1.05.85,1.9,1.9,1.9s1.9-.85,1.9-1.9-.85-1.9-1.9-1.9-1.9.85-1.9,1.9Z"/>
      <path class="cls-10" d="m37.76,8.45c.1.09.23.29.35.53.68-.37,2.52-1.15,3.62.54,1.37,2.11.11,5.53-.22,6.38-.22.58-1.27.53-1.92.44.07.33.11.54.11.54,0,0,1.7.82,2.43-.63.73-1.45,1.94-6.03-.4-7.8-2.35-1.76-3.96,0-3.96,0Z"/>
      <path class="cls-1" d="m38.73,11.27c.82,1.21,1.05,3.4,1.05,3.4l-1.05-1.38c.39,1,.7,2.32.86,3.05.64.09,1.69.14,1.92-.44.32-.85,1.58-4.27.22-6.38-1.1-1.69-2.94-.91-3.62-.54.23.44.44.97.44.97l-1.35-.86s.73.97,1.54,2.18Z"/>
      <path class="cls-10" d="m39.35,9.41s1.46,0,2,1.16.16,4.07-.32,4.55-.86.54-.59,0,.7-2.86.38-3.88c-.32-1.02-.7-.94-1.46-1.38-.75-.45,0-.45,0-.45Z"/>
      <circle class="cls-8" cx="30.31" cy="14.64" r="1.28"/>
      <path class="cls-6" d="m29.76,13.49c0-.27.22-.49.49-.49s.49.22.49.49-.22.49-.49.49-.49-.22-.49-.49Z"/>
    </g>
  </g>
</svg>