<?xml version="1.0" encoding="UTF-8"?><svg data-name="Layer 2" xmlns="http://www.w3.org/2000/svg" viewBox="0 0 684.84 478.04"><defs/><g><g><path d="m537.52,462.44c3.29,0,8.22-3.28,8.22-3.28.98,4.22,4.08,7.1,7.36,8.74h.01c2.23,1.12,4.55,1.67,6.33,1.67,1.05,0,1.76-.47,2.21-1.18,1.49-2.28.53-7.04.53-7.04,0,0,3.72,1.32,10.06,2.13,2.76.36,6,.6,9.66.6,12.05,0,25.2,4.94,21.37,0-3.84-4.92-4.77-8.19-22.85-10.83-18.08-2.63-18.9-6.96-18.9-6.96l-3.95-28.87c-.12.16-.24.3-.37.46-1.17-1.28-3.6-1.98-4.67-3.1-.82,1.45-2.8,2.62-3.65,4.17-1.43-.78-3.46-.81-5.65-.48,2.06,16.1,2.49,28.63,2.49,28.63,0,0-2.66,3.55-5.06,7.23-2.58,3.98-4.87,8.12-3.16,8.12Z" style="stroke-width:0px;fill:#cd8f2a"/><path d="m485.27,467.53c3.46.33,8.97-2.57,8.97-2.57,1.02,7.52,8.77,11.69,13.37,12.13,4.62.44,3.7-8.2,3.7-8.2,0,0,7.2,3.32,19,4.65.48.07.97.12,1.47.16,2.5.24,5.03.68,7.46,1.2,9.83,2.09,17.86,5.35,15.01.95-1.18-1.84-2.05-3.45-3.38-4.95-2.64-2.97-7.1-5.52-19.57-8.54-5.82-1.4-9.89-2.82-12.71-4.1-6.27-2.82-6.47-4.99-6.47-4.99l-1.26-29.66c-5.09.39-8.87-.29-14.08-.66-.33-.02-.7-.04-1.1-.05.54,16.73-.23,29.59-.23,29.59,0,0-13.62,14.68-10.16,15.01Z" style="stroke-width:0px;fill:#dcc537"/><path d="m513.18,456.24s14.25,7.5,21.03,8.46c6.78.96,12.66,4.89,13.84,7.15,1.18,2.26-8.79-3.57-17.67-5.37-8.88-1.8-21.94-6.7-21.94-6.7,0,0,1.75,7.83,1.18,10.54-.57,2.7-5.66.38-8.17-6-2.51-6.37-2.58-12.21,1.14-11.85,3.71.36,10.59,3.78,10.59,3.78Z" style="stroke-width:0px;fill:#f4df45"/><path d="m492.3,387.72c2.07,11.71,3.01,24.28,3.36,35.21.4,0,.78.03,1.1.05,5.22.36,9,1.05,14.08.66l4.58-31.3c1.4-30.95-28.39-34.23-23.13-4.62Z" style="stroke-width:0px;fill:#231f20"/><path d="m536.94,385.2c2.99,10.97,4.99,22.87,6.31,33.27,2.19-.33,4.21-.3,5.65.48.84-1.55,2.82-2.72,3.65-4.17,1.07,1.12,3.5,1.82,4.67,3.1.12-.16.24-.3.37-.46l1.97-30.92c-1.48-29.84-30.24-29.26-22.62-1.31Z" style="stroke-width:0px;fill:#231f20"/><path d="m534.89,150.22c.11,6.46.3,12.93.89,19.57,1.14-3.41,2.68-3.99,4.28-6.25.39,9.38-1.03,22.16,3.28,29.88,2.5-9.57,3.35-21.7,7.82-29.96.56,4.52.69,9.37,3.34,12.12,3.89-8.49,4.44-20.39,4.91-29.65,2.45,5.08,2.23,10.87,3.95,16.31,3.36-14.22,6.19-28.7,9.17-43.12.82,3.62,1.96,7.75,3.03,10.95,7.45-15.49,3.72-54.23,25.62-57.54,29.43-4.47,19.58,39.04,29.12,52.15.75-1.36,3.68-3.52,4.29-4.51,1.48,6.31,3.07,16.68,6.65,20.94.47-2.67,2.05-4.67,2.4-7.33,6.8,11.92,8.53,22.16,12.51,35.17,1.48-3.48,2.32-7.99,3.31-11.96,5.38,9.13,3.61,20.14,6.51,29.97,1.05-5.46,2.6-19.44,5.49-25.91,1.32,2.9,3.05,5.91,4.93,9.03-2.17-5.95-4.6-11.83-7.14-17.47-.98,2.09-2.06,3.92-3.21,5.21-.11-4.2-.11-8.6-1.81-12.53-.22,1.46-1.37,3.87-1.39,5.91-2.88-2.78-2.26-7.82-4.96-10.36-.16,1.19-.66,2.31-.87,3.46-1.33-4.77-3-10.29-5.75-14.32-.12,0-1.28.37-1.5.37-2.27-4.44-4.02-10.57-6.69-13.91-.37.48-.73,1.37-1.09,1.88-1.91-6.45,1.69-14.74-3.35-20.26-.69,1.29-2.33,2.38-2.97,3.42-.47-7.58,1.6-17.07-1.08-24.31-5.33-4.91-6.23-19.14-13.15-26.06-5.76-5.74-13.42-6.73-21.51-5.93-20.59,2.02-19.64,21.59-24.6,37.78-.67.1-1.29.07-1.95.16-.5,8.28-1.42,16.79-1.75,25.05-2.48-2.5-1.6-7.42-3.37-10.35-2.6,7.85-3.68,16.89-5.56,25.04-.77-2.46-1.25-5.23-1.32-7.86-.68,7.6-2.9,18.63-7.98,24.35-.23-1.6-.88-2.83-.89-4.58-1.3,4.98-2.48,17.78-7.25,21.59.38-5.16-2.05-8.99-4.14-13.29-1.88,4.44-3.07,7.02-3.07,7.02-1.01,0-2.07.04-3.17.13Z" style="stroke-width:0px;fill:#f05a28"/><path d="m545.26,156.35c4.77-3.81,5.95-16.61,7.25-21.59.01,1.75.66,2.98.89,4.58,5.08-5.71,7.3-16.74,7.98-24.35.08,2.64.56,5.4,1.32,7.86,1.88-8.15,2.96-17.19,5.56-25.04,1.77,2.93.89,7.85,3.37,10.35.32-8.26,1.24-16.76,1.75-25.05.66-.09,1.28-.06,1.95-.16,4.96-16.19,4.01-35.75,24.6-37.78,8.09-.8,15.75.19,21.51,5.93,6.93,6.91,7.83,21.14,13.15,26.06,2.68,7.25.61,16.73,1.08,24.31.63-1.05,2.28-2.13,2.97-3.42,5.04,5.51,1.43,13.81,3.35,20.26.36-.51.72-1.4,1.09-1.88,2.67,3.34,4.42,9.47,6.69,13.91.22,0,1.38-.37,1.5-.37,2.75,4.02,4.41,9.55,5.75,14.32.21-1.15.71-2.27.87-3.46,2.7,2.55,2.08,7.58,4.96,10.36.02-2.05,1.17-4.46,1.39-5.91,1.7,3.92,1.7,8.33,1.81,12.53,1.16-1.29,2.23-3.12,3.21-5.21-10.84-24.12-23.36-43.66-23.36-43.66-7.06-18.7-2.62-52.72-18.03-65.35-3.87-3.17-9.57-6.34-14.67-6.31-1.25-1.47-2.01-2.26-2.01-2.26-37.66-9.46-45.87,32.47-53.65,61.1-5.3,19.5-12.41,37.45-16.4,46.94,2.09,4.29,4.51,8.13,4.14,13.29Z" style="stroke-width:0px;fill:#f58a1f"/><path d="m496.82,168.34c.39,8.96-.72,17.94,1.77,26.7,3.36-3.64,4.7-10.64,7.03-14.94,5.3,9.72,1.52,22.8,7.06,32.51,4.3-2.6,3.89-9.75,6.71-13.96,2.88,7.35,6.4,18.09,11.64,24.48,3.5-3.46-.07-11.17,4.27-14.83,1.79,5.48,4.97,12.74,8.95,16.85.04-5.18.88-13.19,4.56-17.01,4.35,4.87.49,13.91,4.32,19.2.62-9.21,4.44-19.13,7.38-27.82.04,2.02.68,3.64.89,5.56,2.55-12.37,10.47-24.74,12.54-36.72-2.9-.5-5.31.8-6.68,3.42.84-6.48,4.54-13.19,3.65-19.76-1.61.87-3.84,1.87-5.83,2.61-.56,2.53-1.13,5.07-1.73,7.59-1.71-5.44-1.5-11.23-3.95-16.31-.48,9.26-1.02,21.16-4.91,29.65-2.65-2.75-2.78-7.59-3.34-12.12-4.47,8.26-5.31,20.39-7.82,29.96-4.31-7.73-2.89-20.5-3.28-29.88-1.6,2.26-3.13,2.83-4.28,6.25-.06-.64-.11-1.28-.16-1.91-.29.76-.58,1.5-.87,2.25-.73-1.28-4.7-4.06-5.59-5.48-3.42,4.79-3.92,11.37-3.28,17.19-2.09-3.67-4.56-7.76-6.69-10.77-1.12,1.93-4.36,4.14-5.42,5.63-.31-6.71-2.43-16.09-10.98-7.99-.11-1.08-.52-2.69-.47-3.98-1.36.49-4.04.53-5.45.79-.48-1.5-.72-3.19-.91-4.96-2.98,1.07-5.99,2.19-9,3.35.02,2.1-.1,4.38-.29,6.71-.51,6.35-1.53,13.14-1.63,18.2,2.68-7.48,7.33-13.96,11.8-20.46Z" style="stroke-width:0px;fill:#f05a28"/><path d="m360.37,228.53c9.73-7.26,21.33-16.75,32.91-20.38-10.06,15.48-24.54,33.45-22.88,53.07,8.43-8.66,11.71-23.09,19.63-33.05,4.24-5.33,11.04-10.34,13.99-16.02-6.35,16.54-16.72,34.19-16.98,52.22,12.33-15.63,18.38-34.55,32.24-49.57-7.12,17.64-17.77,37.29-20.3,56.28,8.59-22.71,25.87-41.42,41.11-59.58-7.76,16.63-29.82,47.9-22.42,66.55,9.25-43.22,42.1-75.84,68.99-107.45.19-2.33.31-4.61.29-6.71-3.26,1.25-6.51,2.52-9.75,3.81-.52,2.19-1.02,4.42-1.59,6.66-11.71,2.15-20.92,20.74-28.79,28.69-.34-5.66,2.82-9.82,3.2-15.15-5.15,4.81-10.87,10.84-17.27,14.43,1.2-2.02,1.76-4.58,2.9-6.45-7.48,1.96-14.42,7.3-22.89,7.65,1.95-1.78,1.82-2.9,2.86-4.36-5.49.24-10.56,2.57-16.19,3.27,4.76-4.8,11.47-7.08,16.12-12.26-3.01.84-6.59.76-9.68,1.75,1.08-1.85,2.15-3.74,3.2-5.67-.54-.18-1.09-.37-1.65-.56-1.58.78-3.24,1.43-5,1.95-13.96,4.01-38.91,8.45-44.35,24.61,6.4-3.75,15.24-9.28,22.97-9.79-6.63,5.54-18.49,17.83-20.68,26.07Z" style="stroke-width:0px;fill:#f05a28"/><path d="m412.77,203.52c8.47-.34,15.41-5.69,22.89-7.65-1.15,1.87-1.7,4.42-2.9,6.45,6.39-3.59,12.12-9.62,17.27-14.43-.38,5.34-3.55,9.49-3.2,15.15,7.87-7.95,17.09-26.55,28.79-28.69.57-2.23,1.07-4.47,1.59-6.66-25.83,10.31-49.97,21.3-55.87,21.3-2.87,0-7.28-1.1-12.25-2.75-1.06,1.93-2.12,3.82-3.2,5.67,3.09-.99,6.67-.9,9.68-1.75-4.65,5.18-11.36,7.46-16.12,12.26,5.63-.7,10.69-3.02,16.19-3.27-1.03,1.46-.91,2.58-2.86,4.36Z" style="stroke-width:0px;fill:#f58a1f"/><path d="m495.96,160.53c.19,1.77.43,3.46.91,4.96,1.41-.26,4.09-.3,5.45-.79-.06,1.29.36,2.9.47,3.98,8.55-8.09,10.67,1.28,10.98,7.99,1.07-1.49,4.3-3.69,5.42-5.63,2.14,3.01,4.6,7.1,6.69,10.77-.64-5.81-.14-12.4,3.28-17.19.89,1.42,4.86,4.2,5.59,5.48.29-.74.58-1.49.87-2.25-.47-5.97-.63-11.82-.73-17.65-10.09.78-24.12,4.96-38.93,10.32Z" style="stroke-width:0px;fill:#f58a1f"/><path d="m65.07,342.65c7.94-2.95,15.16-7.65,21.79-17.04,2.37,6.4-.19,15.16,2.19,22.38,18.99-4.84,16.65-37.61,31.94-46.88,1.13,13.77-.56,27.44-6.23,40.09-2.7,6.03-8.77,12.45-9.05,18.9,16.08,2.61,32.26-27.08,37.92-38.85-.22,17.95-8.25,31.14-16.91,45.57,21.33-7.84,38.39-29.55,52.56-46.5-15.12,27.93-38.4,52.67-49.24,83.39,20.03-13.31,36.62-33.63,53.01-51.12,12.42-13.25,26.56-38.61,42.52-47.97-.2,13.4-10.15,30.62-5.81,43.28,10.72-11.27,21.55-25.95,33.65-35.34-.23,9.72-6.03,20.04-4.04,29.72,13.25-3.07,15.13-23.52,26.14-27.54.82,7.98-2.7,16.03-1.85,24.27,9.46-8.63,15.13-23.99,27.21-29.94-2.13,10.26-7.89,19.35-3.87,29.92,12.24-.83,17.34-19.01,27.25-24.31-1.29,9.07-6.44,17.14-5.07,26.51,10.81-2.59,14.85-21.02,24.39-20.56,1.71-2.1,3.28-4.27,3.18-7.89,4.79,12.28,13.45-.83,18.8-4.76,1.4,3.39,1.87,7.2,1.43,10.93,6.76-5.45,18.2-15.91,25.28-18.61-.5,12.71,6.19,13.44,13.58,6.56-.03,1.82,2.01,5.94,1.99,7.74,6.47-1.63,10.19-7.09,15.53-10.75,6.53,5.88,20.28,2.63,26.9,7.37,10.14,7.25,6.11,27.62,9.01,38.9,5.16-3.15,9.56-8.68,14.17-13.02.2,5.79-.06,11.81.31,17.59,4.99-5.49,9.91-12.44,15.14-17.8,1.33,15.44.59,18.84,9.21,29.44,5.5,6.78,4.15,7.46,10.57,8.72,4.18.81,4.98-7.88,10.46-.22,7.27-7.09,4.5-19.11,11.12-26.83,1.09,1.08,3.96,1.96,5.24,3.28,3.2-5.1,10.39-15.9,5.1-20.13,3.16-2.92,5.75-6.65,6.27-10.75-3.96-.93-8.08-1.32-12.1-1.48.41-1.89-.58-4.46-.23-6.31-4.53-1.01-9.19-2.67-13.14-4.34,8.14-4.16,17.53-15.36,26.48-14.92-.5-2.98.8-6.75.33-9.73,4.64,1.86,9.88,3.75,15.01,3.28-10.64-14.26-25.61-35.85-17.18-54.39,1.78,2.09,4.19,2.86,5.3,6.44.71-.86,3.41-2.16,4.43-3.38,10.54,10.06,19.5,1.41,32.11-.81,5.78,11.58,17.53-16.6,18.13-.28,8.3-3.18,9.26-13.54,16.6-17.87.96.93.47,1.29,1.28,2.3,3-2.71,4.6-6.85,7.32-9.77.18,2.31,1.46,3.86,1.5,6.46,7.55-7.6,10.97-.33,10.01,7.59,1.31-3.14,4.72-5.46,6.53-7.69.66,1.51,3.66,4.07,4.29,6.05,3.74-4.08,6.79-9.96,12.23-11.41-.03,1.93,1.03,5.24.95,6.65,4.04-5.7,6.5-23.17,14.53-22.33.45-1.36.85-2.73,1.22-4.14-1.5-6.64-3.61-13.47-6.08-20.23-1.88-3.11-3.6-6.13-4.93-9.03-2.89,6.47-4.45,20.46-5.49,25.91-2.9-9.83-1.13-20.84-6.51-29.97-.99,3.97-1.83,8.48-3.31,11.96-3.98-13.02-5.7-23.26-12.51-35.17-.36,2.66-1.93,4.66-2.4,7.33-3.58-4.27-5.17-14.63-6.65-20.94-.61.99-3.55,3.16-4.29,4.51-9.54-13.11.31-56.62-29.12-52.15-21.9,3.31-18.18,42.06-25.62,57.54-1.08-3.2-2.21-7.33-3.03-10.95-2.45,11.86-4.8,23.77-7.44,35.53,1.99-.74,4.21-1.75,5.83-2.61.89,6.57-2.8,13.27-3.65,19.76,1.37-2.62,3.78-3.92,6.68-3.42-2.07,11.98-9.99,24.35-12.54,36.72-.21-1.92-.84-3.54-.89-5.56-2.95,8.68-6.76,18.61-7.38,27.82-3.84-5.29.02-14.33-4.32-19.2-3.68,3.82-4.51,11.83-4.56,17.01-3.98-4.11-7.16-11.37-8.95-16.85-4.34,3.66-.77,11.37-4.27,14.83-5.24-6.39-8.76-17.13-11.64-24.48-2.82,4.21-2.41,11.36-6.71,13.96-5.54-9.71-1.76-22.79-7.06-32.51-2.32,4.3-3.67,11.31-7.03,14.94-2.49-8.76-1.38-17.74-1.77-26.7-4.47,6.49-9.12,12.97-11.8,20.46.1-5.06,1.12-11.85,1.63-18.2-26.89,31.61-59.74,64.22-68.99,107.45-7.39-18.64,14.66-49.92,22.42-66.55-15.24,18.15-32.52,36.86-41.11,59.58,2.54-18.99,13.18-38.63,20.3-56.28-13.86,15.02-19.91,33.94-32.24,49.57.26-18.03,10.63-35.68,16.98-52.22-2.95,5.68-9.75,10.69-13.99,16.02-7.93,9.96-11.21,24.39-19.63,33.05-.39-4.62.11-9.15,1.25-13.57-9.68,11.7-13.9,27.68-22.9,39.91-14.24,19.33-7.37-5.14-7.63-15.86-7.92,9.22-14.59,25.07-25.5,30.67-7.68-19.46,13.15-54.16,20.9-70.99-16.36,22.05-29.69,46.15-45.41,68.13.16-21.8,8.95-40.78,17.77-60.46-24.28,5.02-27.13,47.92-44.39,61.39-11.21-15.84,11.02-39.19,12.4-55.51-13.37,14.95-19.23,36.3-33.26,50.51-1.91-18.57,5.58-48.32,19.77-61.6-9.66,7.83-19.83,17.78-29.84,25.18-.36-5.08-.36-10.36,1.13-15.32-5.87,6.58-14.15,10.08-20.67,15.92-5.97,5.35-10.49,12.91-15.91,18.22-1.36-9.87,3.69-20.81,6.38-29.71-19.42-1.65-32.05,41.2-45.7,51.25-5.01-6.51-5.19-15.7-3.97-23.71,1.8-11.77,13.27-19.6,14.26-29.66-4.36,5.43-13.62,13.22-21.07,12.94.48-3.38.9-6.96,3.15-9.76-12.61,3.82-18.5,9.74-27.63,17.28-.76-5.61,1.49-10.91,1.95-16.31-9.06,4.29-31.27,54.24-40.87,40.13-8.14,17.64-14.12,35.98-19.53,52.37Z" style="stroke-width:0px;fill:#1d1c1c"/><path d="m84.6,290.28c9.59,14.11,31.81-35.84,40.87-40.13-.46,5.4-2.7,10.69-1.95,16.31,9.13-7.54,15.02-13.45,27.63-17.28-2.25,2.8-2.67,6.38-3.15,9.76,7.45.28,16.71-7.52,21.07-12.94-.99,10.06-12.46,17.89-14.26,29.66-1.22,8.02-1.04,17.2,3.97,23.71,13.65-10.05,26.28-52.9,45.7-51.25-2.69,8.89-7.74,19.83-6.38,29.71,5.41-5.31,9.94-12.87,15.91-18.22,6.51-5.84,14.8-9.34,20.67-15.92-1.49,4.96-1.49,10.24-1.13,15.32,10.01-7.4,20.18-17.35,29.84-25.18-14.19,13.29-21.68,43.03-19.77,61.6,14.03-14.21,19.89-35.55,33.26-50.51-1.38,16.32-23.6,39.67-12.4,55.51,17.26-13.47,20.11-56.36,44.39-61.39-8.82,19.68-17.61,38.65-17.77,60.46,15.72-21.98,29.05-46.08,45.41-68.13-7.75,16.83-28.58,51.54-20.9,70.99,10.92-5.6,17.59-21.46,25.5-30.67.26,10.73-6.61,35.2,7.63,15.86,9.01-12.23,13.22-28.22,22.9-39.91,0,0,.01,0,.01-.01,3.66-14.36,13.93-27.66,21.62-39.49-11.57,3.62-23.18,13.12-32.91,20.38,2.19-8.24,14.05-20.53,20.68-26.07-7.73.51-16.56,6.05-22.97,9.79,5.44-16.16,30.38-20.6,44.35-24.61,1.77-.51,3.42-1.17,5-1.95-14.1-4.87-31.68-13.37-31.68-13.37-73.37-40.02-210.11,22.27-259.03,70.07-13.85,13.53-24.05,30.36-32.12,47.89Z" style="stroke-width:0px;fill:#2d2d2d"/><path d="m359.07,188.99c-15.02,6.51-24.4,32.89-38.73,35.43.18-6.9,2.17-14.33,5.01-20.78-5.94,6.36-16.01,15.08-25.13,13.93,1.18-6.37,6.47-11.35,8.78-17.46-9.73,2.13-18.25,9.89-27.64,13.24-.08-4.47,2.63-8.26,3.99-12.04-16.39,3.51-31.94,15.82-47.34,23.27.06-7.43,5.73-14.47,9.35-20.9-6.42,2.55-12.19,7.41-19.25,7.64,3.61-2.09,3.52-5.25,5.26-7.94-12.11-3.49-32.37,17.26-44.23,21.04-1.56-8.66,2.56-22.73,11.88-24.45-6.89,3.4-15.38,10.52-23.1,11.1,5.75-18.65,44.3-35.02,61.24-35.56-1.81,4.22-5.72,7.43-6.7,12.27,12.41-4.51,22.69-11.84,36.57-13.21-.11,2.35,1.43,3.95.36,6.74,15.68-3.1,31.39-13.73,47.33-14.4-1.63,4.73-5.68,8.58-6.55,13.28,6.6,2.84,38.7-21.43,34.53-2.48,4.37.61,8.71,1.11,13.09,1.44.78,2.46-.09,3.93,1.28,9.84Z" style="stroke-width:0px;fill:#fff"/><path d="m343.4,335.91c-1.79,3.29-2.48,7.04-1.95,10.81,4.52-.93,8.8-4.86,12.99-6.41.37,6.47.01,13.3.36,19.8,12.65-1.71,19.84-20.18,34.13-21.04.28,4.38.03,8.9.33,13.24,6.68.39,11.12-6.05,15.21-9.93-.39,10.11,2.98,20.4,12.35,15.64,1.18-.59,2.79-2.91,4.51-5.68,5.91,9.32,11.41,16.7,11.41,16.7,1.11,17.72,21.12,5.63,21.12,5.63,0,0,6.67,13.34,16.68,13.34s6.67-10.01,6.67-10.01c0,0,5.3-13.34,9.75,5.56,4.45,18.9,26.65,25.57,39.99,26.68,13.34,1.11,48.85-17.88,65.48-32.33,16.64-14.45,34.02-56.61,34.02-56.61,0,0,23.26-7.07,35.92-36.21,3.3-5.96,6.24-12.16,9.41-16.9,11.56-17.3,12.28-36.3,13.04-56.82.24-6.5-.66-13.65-2.33-21.06-.38,1.4-.78,2.78-1.22,4.14-8.03-.83-10.49,16.63-14.53,22.33.09-1.41-.98-4.71-.95-6.65-5.44,1.45-8.49,7.33-12.23,11.41-.63-1.98-3.64-4.54-4.29-6.05-1.8,2.23-5.21,4.56-6.53,7.69.97-7.93-2.46-15.2-10.01-7.59-.04-2.6-1.32-4.15-1.5-6.46-2.71,2.92-4.31,7.06-7.32,9.77-.81-1.01-.32-1.37-1.28-2.3-7.34,4.32-8.29,14.69-16.6,17.87-.6-16.32-12.35,11.86-18.13.28-12.61,2.22-21.57,10.87-32.11.81-1.01,1.22-3.71,2.52-4.43,3.38-1.11-3.58-3.52-4.35-5.3-6.44-8.44,18.53,6.54,40.12,17.18,54.39-5.12.47-10.37-1.42-15.01-3.28.47,2.98-.83,6.75-.33,9.73-8.95-.44-18.34,10.76-26.48,14.92,3.95,1.67,8.62,3.32,13.14,4.34-.34,1.86.64,4.42.23,6.31,4.01.16,8.14.54,12.1,1.48-.52,4.1-3.11,7.83-6.27,10.75,5.29,4.24-1.9,15.03-5.1,20.13-1.28-1.32-4.15-2.2-5.24-3.28-6.61,7.72-3.85,19.73-11.12,26.83-5.48-7.66-6.28,1.03-10.46.22-6.43-1.26-5.07-1.93-10.57-8.72-8.62-10.59-7.87-14-9.21-29.44-5.24,5.36-10.15,12.31-15.14,17.8-.37-5.78-.11-11.8-.31-17.59-4.61,4.34-9.02,9.87-14.17,13.02-2.89-11.28,1.13-31.65-9.01-38.9-6.63-4.74-20.38-1.49-26.9-7.37-5.34,3.66-9.06,9.12-15.53,10.75.02-1.8-2.02-5.91-1.99-7.74-7.39,6.88-14.09,6.15-13.58-6.56-7.08,2.7-18.52,13.16-25.28,18.61.43-3.72-.03-7.54-1.43-10.93-5.35,3.92-14.01,17.04-18.8,4.76.18,6.48-4.99,8.32-6.73,13.43-1.02,3.02-1.49,7.05-1.75,11.04,1.56-.78,3.25-1.23,5.1-1.29Z" style="stroke-width:0px;fill:#231f20"/><path d="m482.47,284.6c-11.24,9.38-16.2,25.98-21.98,38.91-2.3,5.15-5,15.12-11.2,15.45-.3-4.73-.02-9.58-.39-14.3-10.07,10.68-14.15,9.67-17.76-5.43-2.29.71-6.24-.12-8.53.88.31-3.49-.63-7.43-.36-10.91-3.53-1.95-4.17-5.59-3.34-10.04-1.4.95-4.07,1.3-5.17,1.97-.49-8.22,3.22-17.1,4.25-25.43,1.52-12.33,2.84-28.1,10.95-37.79.38,6.54.02,13.31.33,19.85,4.59-.33,7.39-3.84,10.76-7.27,1.51.55,2.94.4,4.48.91,1.95,3.54,4.96,6.96,4.78,11.89,3.04-.9,4.76.31,7.4-1.94-.61,9.17,11.64,23.96,25.79,23.23Z" style="stroke-width:0px;fill:#c43f27"/><path d="m513.6,230.13c.6,2.73-.59,20.25-2.47,26.84-1.04-1.66-4.25-3.31-5.36-4.77-5,6.08-4.29,16.99-8,24.55-4.81-1.7-8.81-8.64-12.76-12.07-8.68,17.59-11.03-6.58-13.05-7.86-6.97-4.41-13.48,9.6-11.88-10.02-3.38,1.91-6.91,2.6-10.78,2.05.9-2.77-.23-5.93,1.64-8.8-1.21.02-2.8-.21-3.91-.08,4.75-12.25,13.57-27.93,24.42-36.17-.13,6.62-2.75,12.95-2.12,19.51,3.76.31,6.92-1.8,8.82-5.38,3.77,3.67,1.3,10.47,4.54,15.36,5.87-.96,9.51-7.41,15.14-9.72,1.17,8.91,7.18,5.04,15.79,6.56Z" style="stroke-width:0px;fill:#2d2d2d"/><path d="m640.34,157.86c6.89,1.05,13.65,32.72,5.58,38.01-3.14-1.71-5.2-5.09-5.88-9.12-3.63,5.92-11,24.1-13.28,3.39-5.03,2.34-7.85,8.35-13.36,11.09-3.29,1.64-7.87,1.64-11.36,2.85-2.06.72-4.67,5.02-7.04,4.77-3.99-.41-2.77-4.48-5.54-5.19-.61-.16-3.62-2.69-5.19-3.17-.2-.06-6.38,4.58-7.12,5.05-.33-13.94,6.88-29.44,7.78-44.17,4.47.62,7.56,4.16,11.78,6.44.48-2.16,2.43-4.43,2.78-6.52,2.89,4.11,1.46,11.54,7.26,12.07,1.88-5.17,3.87-10.4,6.05-15.43,4.28,3.32,6.88,10.15,11.75,12.07.02-2.74,1.92-5.64,1.51-8.65,3.64-.12,6.46-.89,14.28-3.48Z" style="stroke-width:0px;fill:#2d2d2d"/><path d="m13.92,419.15c32.83,0,50.55-18.9,50.55-18.9,0,27.79-76.71,40.02-41.13,38.91,35.57-1.11,54.47-21.12,54.47-21.12-4.45,23.35-54.47,27.79-34.46,31.71,19.73,3.86,67.58-10.18,68.9-10.57-.74.53-18.19,13.26,14.47,10.05,33.07-3.24,67.07-40.21,97.08-80.27,4.81.63,9.72-1.67,13.99-3.08-1.55,3.89-3.09,7.87-3.1,12.01,9.62-2,15.93-12.66,19.93-20.72-.3,10.16-11.97,55.79,3.29,58.72,9.28-16.09,2.23-44.41,18.98-55.8,3,8.33,1.16,20.4.96,29.56,9.97-9.95,18.6-32.37,31.91-37.22.73,5.29.26,11.11.58,16.54,12.05-3.77,16.55-26.13,27.97-31.77.26-3.99.72-8.02,1.75-11.04.77-2.26,2.2-3.88,3.55-5.54-9.54-.47-13.58,17.97-24.39,20.56-1.37-9.37,3.78-17.44,5.07-26.51-9.91,5.3-15.01,23.48-27.25,24.31-4.02-10.56,1.73-19.66,3.87-29.92-12.08,5.95-17.75,21.31-27.21,29.94-.86-8.24,2.67-16.29,1.85-24.27-11.01,4.01-12.88,24.47-26.14,27.54-1.99-9.67,3.8-20,4.04-29.72-12.11,9.39-22.93,24.07-33.65,35.34-4.34-12.66,5.61-29.88,5.81-43.28-15.96,9.36-30.11,34.72-42.52,47.97-16.39,17.49-32.97,37.81-53.01,51.12,10.84-30.72,34.12-55.46,49.24-83.39-14.17,16.95-31.23,38.67-52.56,46.5,8.66-14.43,16.69-27.62,16.91-45.57-5.66,11.77-21.85,41.47-37.92,38.85.28-6.45,6.35-12.87,9.05-18.9,5.67-12.65,7.36-26.31,6.23-40.09-15.29,9.27-12.95,42.05-31.94,46.88-2.38-7.22.18-15.98-2.19-22.38-6.63,9.39-13.85,14.1-21.79,17.04-8.23,24.89-15.12,45.31-26.17,52.04-25.57,15.56-57.81,24.46-24.98,24.46Z" style="stroke-width:0px;fill:#231f20"/><path d="m627,85.05c2.33,6.75-1.02,20.01-1.68,27.73,0-.85,0-1.71.04-2.57-1.76,6.22-1.63,15.46-6.66,17.88.65-.31-1.61-1.56-2.35-1.3-3.09,1.11-4.51,5.21-7.19,6.65,1.21-10.63-8.3,1.71-11.52.45-1.65-.64.08-4.25-2.3-5.02-.75-.24-4.38,2.08-5.5,2.24-.47-7.5-6.49-9.79-4.58-18.73-.75,1.05-2.05,1.55-2.63,2.05-.32-11.13-6.05-26.15,4.38-34.57,5.67-4.57,43.1-14.98,39.99,5.19Z" style="stroke-width:0px;fill:#231f20"/><path d="m581.38,50.58c3.49-5.56,3.49-21.12,3.47-24.46-.02-3.34,2.37-4.75,2.37-4.75,0,0,4.04-4.14,4.63-9.15.58-5,2.72-2.22,2.72-2.22l6.22-10.01,6.79,8.89s8.11-1.67,9.14,12.48c1.03,14.15,6.53,33.65,13.85,42.35,3.94,4.69,2.27,9.79-.11,13.51h0s-5.68,11.7-7.34,26.71c-1.67,15.01-8.34,17.79-8.34,17.79l-3.59-7.23-7.47,7.23-3.95-5.56-3.51,5.56v-5l-7.03,5s-.1-5.56-2.29-15.56c-1.68-7.67-6.35-19.8-8.43-25.04-.98-.82-1.22-1.44-.83-2.07-.13-.31-.2-.49-.2-.49-3.54-4.29.42-22.43,3.91-27.99Z" style="stroke-width:0px;fill:#cc203d"/><path d="m617.42,79.78s-10.72,5.64-13.54,16.36c0,0-2.26-14.1-16.92-16.36,0,0,10.06-1.92,11.28-9.59.69-4.35,7.09-11.39,8.46-3.95,1.81,9.79,3.38,10.15,10.72,13.54Z" style="stroke-width:0px;fill:#dcc537"/><path d="m604.59,68.41s1.38,2.54,2.02,5.08c.63,2.54,6.35,4.95,4.02,6.07-2.33,1.12-5.24,10.22-8.43,5.57-3.2-4.65-8.37-7.54-4.65-8.78,5.54-1.86,3.29-10.15,7.05-7.93Z" style="stroke-width:0px;fill:#f4df45"/><path d="m601.59,15.44s4.9,4.19,6.43,15.48c1.53,11.29-.29,23.22-3.22,23.87s-8.45.97-8.45-10.32,2.47-32.75,5.23-29.03Z" style="fill:#ee3d5c;stroke-width:0px"/><circle cx="579.9" cy="69.26" r="9.32" transform="translate(120.88 430.34) rotate(-45)" style="stroke-width:0px;fill:#f1f1f2"/><path d="m573.51,69.26c0,3.71,3,6.71,6.71,6.71s6.71-3.01,6.71-6.71-3-6.71-6.71-6.71-6.71,3-6.71,6.71Z" style="stroke-width:0px;fill:#231f20"/><circle cx="576.01" cy="63.73" r="2.5" style="stroke-width:0px;fill:#fff"/><circle cx="626.76" cy="69.26" r="9.32" transform="translate(134.6 463.47) rotate(-45)" style="stroke-width:0px;fill:#f1f1f2"/><path d="m633.15,69.26c0,3.71-3,6.71-6.71,6.71s-6.71-3.01-6.71-6.71,3-6.71,6.71-6.71,6.71,3,6.71,6.71Z" style="stroke-width:0px;fill:#231f20"/><path d="m633.15,63.73c0-1.38-1.12-2.5-2.5-2.5s-2.5,1.12-2.5,2.5,1.12,2.5,2.5,2.5,2.5-1.12,2.5-2.5Z" style="stroke-width:0px;fill:#fff"/></g></g></svg>