<?xml version="1.0" encoding="UTF-8"?><svg data-name="Layer 2" xmlns="http://www.w3.org/2000/svg" viewBox="0 0 90.56 104.29"><defs/><g data-name="100"><g><path d="m86.78,96.41c.51-.03.99-.05,1.42-.08-1.99-1.82-4.09-4.97-5.49-6.02,0,0,3.81,5.11,2.78,6.1h0c.4.03.83.03,1.29,0Z" style="stroke-width:0px;fill:#9b936f"/><path d="m55.51,83.62c0,1.18,1.42,2.36,3.27,1.84,1.85-.52,18.38.79,19.95.79,1.42,0,9.32,6.65,11.38,9.76.86-.41.57-1.38-1.64-3.83-3.81-4.23-6.13-4.98-7.61-6.46-1.48-1.48-5.08-.83-12.49-1.26-7.41-.43-8.47.42-11.75-4.03-2.51-3.41-2.48-8.05-4.14-10.23-1.1.42-1.71.7-1.71.7,0,0,4.72,11.55,4.72,12.73Z" style="stroke-width:0px;fill:#e8dd9e"/><path d="m78.73,86.24c-1.57,0-18.11-1.31-19.95-.79-1.85.52-3.27-.66-3.27-1.84s-4.72-12.73-4.72-12.73c0,0,.61-.29,1.71-.7-.5-.66-1.17-1.1-2.11-1.2-2.14-.22-3.63-.22-4.34.22,1.28,2.16,4.9,8.4,6.05,11.48,1.4,3.76,1.31,7.43,5.25,6.82,3.94-.61,17.06,1.22,18.63.79s2.62-1.05,3.15,1.05c.42,1.7,3.7,5.28,5.87,7,.16.02.32.04.49.05,1.03-.99-2.78-6.1-2.78-6.1,1.4,1.05,3.5,4.2,5.49,6.02.84-.05,1.5-.13,1.91-.32-2.07-3.12-9.96-9.76-11.38-9.76Z" style="fill:#ccc48d;stroke-width:0px"/><path d="m79.12,89.35c-.52-2.1-1.57-1.49-3.15-1.05s-14.69-1.4-18.63-.79c-3.94.61-3.85-3.06-5.25-6.82-1.15-3.08-4.77-9.32-6.05-11.48-.62.39-.62,1.11.1,2.32,0,0,6.82,11.01,7.01,14.61.19,3.6,3.36,1.69,8.66,2.12,5.29.42,14.38-.31,17.14,3.29,2.25,2.94,3.65,4.47,6.04,4.81-2.17-1.73-5.45-5.31-5.87-7Z" style="stroke-width:0px;fill:#9b936f"/><path d="m58.56,41.59c-8.87-2.4-26.25-2.18-36.07,5.16-.47.35-.89.72-1.28,1.11-.11-.08-.22-.14-.32-.2,0,0-5.17-3.38-9.42-4,0,0-3.01-.11-4.45,2.27,1.45.02,2.95.22,4.41.7,6.82,2.23,9.58,5.31,9.58,5.31,0,0,5.64-6.89,13.12-7.81,7.48-.92,18.56-1.71,25.22,2.49,3.05,1.92,6.43,2.58,9.28,2.6-2.05-3.37-5.38-6.36-10.06-7.63Z" style="stroke-width:0px;fill:#424143"/><path d="m7.02,45.92c1.45-2.38,4.45-2.27,4.45-2.27-.25-.04-.49-.06-.74-.08-3.44-.23-7.67.62-9.59,3.12,1.68-.44,3.72-.81,5.87-.78Z" style="stroke-width:0px;fill:#fff"/><path d="m10.35,53.19c4.85.72,9.47.64,9.47.64-.13,4.59,5.38,7.22,11.28,9.01,5.9,1.8,22.83-4.55,27.67-7.88,3.23-2.21,3.67-5.15,3.61-6.87-1.03-.38-2.05-.87-3.04-1.49-6.66-4.2-17.74-3.41-25.22-2.49-7.48.92-13.12,7.81-13.12,7.81,0,0-2.75-3.08-9.58-5.31-1.46-.48-2.95-.68-4.41-.7-.25.4-.45.88-.58,1.44-.53,2.2,1.82,4.38,3.92,5.84Z" style="stroke-width:0px;fill:#231f20"/><path d="m10.35,53.19c-2.1-1.46-4.44-3.63-3.92-5.84.13-.56.34-1.03.58-1.44-2.15-.03-4.19.33-5.87.78-.52.68-.88,1.48-1,2.41,1.76,2.29,6.06,3.48,10.2,4.09Z" style="stroke-width:0px;fill:#f2f2f2"/><path d="m58.77,54.97c-4.84,3.32-21.77,9.67-27.67,7.88-5.9-1.8-11.41-4.42-11.28-9.01,0,0-4.62.07-9.47-.64,1.57,1.09,3.01,1.78,3.01,1.78,1.69.18,3.34.26,4.78.22-.14,7.36,6.35,15.68,14.6,17.45,11.83,2.54,23.74,2.55,31.96-3.8,0,0,5.97-4.96,6.37-10.6.19-2.67-.61-6-2.45-9.02-1.93-.01-4.1-.32-6.24-1.11.06,1.72-.38,4.65-3.61,6.87Z" style="stroke-width:0px;fill:#010101"/><path d="m13.37,54.97s-1.44-.69-3.01-1.78c-4.14-.61-8.44-1.79-10.2-4.09-.39,3.01,6.78,5.18,13.21,5.87Z" style="stroke-width:0px;fill:#bdbec0"/><path d="m72.21,35.99c.79-8.4-3.5-11.81-6.3-16.05-2.8-4.24-3.32-8.53-3.67-9.93-.35-1.4,1.22-1.22,1.98-2.01.76-.79.62-2.48.62-2.48.93-.03,2.3.38,3.92,1.11.41-.43.62-.89.64-1.4h0s-2.41-3.89-6.82-3.52c-4.41.37-4.81,4.11-4.72,8.66.09,4.55,2.01,9.18,5.07,12.86,3.06,3.67,4.37,8.83,3.41,13.03-.68,2.97-4.18,8.69-7.01,10.36.37,1.17,1.46,2.55,2.85,3.54h0c6.27.37,9.23-5.77,10.02-14.17Z" style="fill:#ccc48d;stroke-width:0px"/><path d="m66.35,36.25c.96-4.2-.35-9.36-3.41-13.03-3.06-3.67-4.98-8.31-5.07-12.86-.09-4.55.31-8.29,4.72-8.66,4.41-.36,6.82,3.52,6.82,3.52h0c.05-1.03-.66-2.22-2.01-3.57-2.54-2.54-9.17-2.68-10.72,3.39-.37,1.44-.34,2.74-.04,3.82h0s-.31,9.75,5.55,16.29c5.62,6.28,1.98,16.58-2.41,19.54-.59.4-.69,1.11-.43,1.93,2.83-1.68,6.33-7.4,7.01-10.36Z" style="stroke-width:0px;fill:#e8dd9e"/><path d="m68.53,50.48c4.86-4.23,8.33-19.76,2.96-25.96-4.39-5.09-9.3-11.49-6.48-15.48.62-.45,1.41-.96,2.39-1.45.59-.29,1.04-.61,1.37-.95-1.63-.73-2.99-1.13-3.92-1.11,0,0,.14,1.7-.62,2.48-.76.79-2.33.61-1.98,2.01.35,1.4.88,5.68,3.67,9.93,2.8,4.24,7.09,7.65,6.3,16.05-.79,8.4-3.75,14.54-10.02,14.17h0c1.92,1.37,4.4,2,6.34.32Z" style="stroke-width:0px;fill:#9b936f"/><path d="m64.84,5.52c1.69.23,1.45,2.67,2.79,1.94,1.34-.72,3.71-1.1,4.6-1.38.29-.09.51-.23.62-.37-1.15.04-3.7.11-4.96-.02-1.16-.12-2.63-.6-3.66-.41-.02.09.15.18.62.25Z" style="stroke-width:0px;fill:#524e3b"/><path d="m72.15,5.23c-.66.02-2.6-.39-3.21-.91-.31-.26-.75-.62-1.04-1.03-.18.48-.35,1.21-1.17,1.31-1.02.12-2.44.42-2.5.67,1.03-.19,2.5.29,3.66.41,1.26.13,3.81.06,4.96.02.09-.12.11-.25.04-.36-.16-.06-.4-.13-.74-.12Z" style="stroke-width:0px;fill:#77715e"/><path d="m71.8,4.95c-1.55-.14-3.25-1.96-3.25-1.96-.39-.25-.53-.04-.66.3.28.41.72.77,1.04,1.03.61.52,2.56.93,3.21.91.34-.01.58.05.74.12-.11-.18-.44-.34-1.09-.4Z" style="stroke-width:0px;fill:#938c74"/><path d="m12.7,99.68c1.56-3.11,10.9-20.79,12.33-21.61,1.42-.82,3.47-1.15,9.53-2.05,6.06-.9,9.67-.27,11.63-3.94,1.09-2.04,1.99-5.82,3.05-7.79-2.57-.8-7.55.35-11.29,2-1.13,1.15-2.35,3.45-3.81,5.82-1.72,2.8-2.05,2.93-6.55,3.34-4.5.41-4.83,1.72-5.98,3.68-1.15,1.96-8.02,14.33-9.01,16.29-.98,1.96-1.39,2.78-2.19,2.78s-5.34,1.64-6.89,2.87c-1.56,1.23,6.3-1.88,6.79-2.05s-.9,1.23-3.11,2.29c-1.39.67-4.83,1.67-7.21,2.32.04.26.24.44.56.54,3.19-.53,10.9-2.04,12.13-4.5Z" style="fill:#ccc48d;stroke-width:0px"/><path d="m10.32,99.02c-.49.16-8.35,3.27-6.79,2.05,1.55-1.23,6.09-2.87,6.89-2.87s1.21-.82,2.19-2.78c.98-1.96,7.86-14.33,9.01-16.29,1.15-1.96,1.47-3.27,5.98-3.68,4.5-.41,4.83-.54,6.55-3.34,1.45-2.37,2.68-4.67,3.81-5.82-1.87.83-3.43,1.79-4.21,2.69-3.3,3.83-2.77,5.42-7.4,5.15-4.62-.26-6.47,2.38-6.08,4.49.4,2.11-3.83,7.92-6.23,12.28-2.4,4.36-4.41,5.94-4.41,5.94C2.12,100.51-.13,102.65,0,103.63c2.38-.65,5.82-1.65,7.21-2.32,2.21-1.06,3.6-2.46,3.11-2.29Z" style="stroke-width:0px;fill:#e8dd9e"/><path d="m2.83,104.12c3.55-.79,9.39-1.06,11.22-4.89,1.83-3.83,10.19-19.15,11.22-20.47,1.02-1.32,6.5-1.19,14.69-2.11,8.19-.92,10.43-8.32,10.43-8.32,1.12-2.31.45-3.54-1.14-4.04-1.07,1.97-1.97,5.74-3.05,7.79-1.96,3.67-5.57,3.04-11.63,3.94-6.06.9-8.11,1.23-9.53,2.05-1.42.82-10.77,18.5-12.33,21.61-1.23,2.46-8.94,3.97-12.13,4.5.52.17,1.35.14,2.26-.06Z" style="stroke-width:0px;fill:#9b936f"/><path d="m60.63,3.29c0,1.12.91,2.03,2.03,2.03s2.03-.91,2.03-2.03-.91-2.03-2.03-2.03-2.03.91-2.03,2.03Z" style="stroke-width:0px;fill:#f2f2f2"/><path d="m61.84,3.23c0,.72.58,1.3,1.3,1.3s1.3-.58,1.3-1.3-.58-1.3-1.3-1.3-1.3.58-1.3,1.3Z" style="stroke-width:0px;fill:#010101"/><path d="m64.17,2.22c0-.2-.16-.35-.35-.35s-.35.16-.35.35.16.35.35.35.35-.16.35-.35Z" style="stroke-width:0px;fill:#fff"/><path d="m58.77,51.49s-11.16-3.16-23.16,0c-3.73.98-7.17,3.02-10.15,5.37-.54,1.03-.98,2.15-1.28,3.36-.88,3.59,5.07.96,8.48,4.72,3.39,3.74,9.9,3.83,9.97,3.83.17,0,.33-.02.5-.03,11.66-.81,16.93-9.31,16.93-9.31,1.94-3.13,1.29-5.86-1.3-7.94Z" style="stroke-width:0px;fill:#231f20"/><path d="m29.19,51.93c-1.27,1.23-2.67,2.9-3.72,4.93,2.97-2.34,6.42-4.38,10.15-5.37,12-3.16,23.13,0,23.16,0-2.25-1.81-5.97-3.13-10.73-3.79-8.18-1.13-13.3.59-18.86,4.23Z" style="stroke-width:0px;fill:#424143"/><path d="m32.68,64.94c-3.41-3.76-9.36-1.14-8.48-4.72.29-1.21.74-2.33,1.28-3.36-4.17,3.29-7.43,7.18-9.25,9.6.42.29,1.18.33,2.34.06,6.04-1.39,12.74,2.9,24.09,2.25-.07,0-6.58-.09-9.97-3.83Z" style="stroke-width:0px;fill:#f2f2f2"/><path d="m25.47,56.86c1.05-2.03,2.45-3.7,3.72-4.93-1.38.9-2.79,1.93-4.28,3.05-6.07,4.59-10.5,10.25-8.69,11.47,1.83-2.42,5.08-6.31,9.25-9.6Z" style="stroke-width:0px;fill:#fff"/></g></g></svg>