<?xml version="1.0" encoding="UTF-8"?>
<svg id="Layer_2" data-name="Layer 2" xmlns="http://www.w3.org/2000/svg" viewBox="0 0 367.56 1634.48">
  <defs>
    <style>
      .cls-1 {
        fill: #c45128;
      }

      .cls-1, .cls-2, .cls-3, .cls-4, .cls-5 {
        stroke-width: 0px;
      }

      .cls-2 {
        fill: none;
      }

      .cls-3 {
        fill: #d9612c;
      }

      .cls-4 {
        fill: #f18d5b;
      }

      .cls-5 {
        fill: #fff;
        opacity: .48;
      }
    </style>
  </defs>
  <g id="SNAKE">
    <g>
      <path class="cls-2" d="m155.13,1581.24l52.86,53.24c30.02-30,58.72-62.03,83.61-98.24,6.17-9.1,12.35-18.18,17.89-27.9,5.9-9.38,10.9-19.56,16.12-29.52,9.76-20.49,18.12-42.16,23.53-65.32,5.42-23.1,7.73-47.77,5.42-72.64-2.11-24.87-9.45-49.65-20.95-72.07-5.77-11.22-12.7-21.77-20.47-31.66-7.87-9.92-16.35-18.95-26.8-27.64-1.43-1.14-2.67-2.18-4.41-3.46l-3.92-2.86-5.95-4.34-11.91-8.67c-8.02-5.66-15.66-11.88-23.47-17.84-30.93-24.19-60.29-49.95-86.25-77.77-12.69-14.04-25.02-28.34-35.33-43.43-5.54-7.4-9.94-15.18-14.74-22.8-4.08-7.81-8.5-15.55-11.66-23.51-13.81-31.68-17.75-64.02-9.08-94.53,8.35-30.64,28.72-59.79,54.93-85.22,13.09-12.74,27.31-24.88,42.64-36.1,3.7-2.91,7.75-5.53,11.61-8.31,3.88-2.76,7.79-5.51,11.86-8.09l25.89-17.08c18.13-12.51,35.85-26.04,52.37-41.55,16.47-15.54,31.91-32.77,45.27-52.11,13.35-19.3,24.58-40.8,32.18-63.95,7.64-23.11,11.51-47.81,11.18-72.27-.27-24.48-4.65-48.56-11.94-71.09-7.29-22.57-17.4-43.62-29.12-63.18-11.67-19.64-25.19-37.6-39.6-54.39-7.07-8.58-14.75-16.39-22.24-24.43-7.8-7.62-15.45-15.48-23.57-22.63-15.81-14.75-33.03-28.3-49.47-41.17-7.35-6-15.02-11.8-22.14-17.92l-10.39-9.34c-3.52-3.08-6.96-6.2-9.98-9.5l-9.47-9.71c-3.16-3.23-5.63-6.7-8.51-10.02-2.8-3.34-5.71-6.66-7.84-10.15-2.28-3.45-4.81-6.84-6.98-10.28-8.33-13.9-13.3-27.76-14.82-41.82-1.54-14.06.52-28.95,5.61-44.87,5.06-15.88,12.9-32.44,21.94-49.17L63.14,0c-10.29,19.12-20.23,39.44-27.58,62.39-7.33,22.78-11.63,49.01-8.7,75.53,2.76,26.49,12.49,51.64,25.19,72.61,6.67,10.04,13.26,20.46,20.91,29.08,3.76,4.41,7.36,9.17,11.3,13.24l11.84,12.19c3.9,4.18,8,7.92,12.14,11.57l12.35,11.09c8.33,7.15,16.91,13.69,25.37,20.54,15.63,12.26,30.48,23.93,44.48,37,7.19,6.3,13.73,13.1,20.53,19.69,6.37,6.88,13.02,13.59,18.9,20.77,12.12,14.11,23.19,28.86,32.32,44.29,18.49,30.71,30.06,63.92,30.34,96.5.52,32.56-10.35,64.37-30.1,92.73-9.81,14.19-21.64,27.52-34.79,39.95-13.2,12.42-27.96,23.69-43.34,34.32l-25.14,16.58c-4.53,2.89-8.96,6-13.39,9.14-4.41,3.17-8.92,6.12-13.24,9.49-17.55,12.87-34.47,27.19-50.56,42.87-16.02,15.76-31.24,33.06-44.23,52.86-12.97,19.72-23.81,41.88-30.43,65.9-6.68,23.96-8.82,49.62-6.24,74.29,2.51,24.72,9.43,48.23,18.71,69.81,4.46,10.98,10.07,21.02,15.51,31.21,5.97,9.67,11.75,19.58,18.39,28.54,12.75,18.54,27.09,35.2,41.73,51.35,29.68,31.79,61.85,59.87,95.08,85.88,8.38,6.4,16.57,13.04,25.19,19.15l12.8,9.32,6.4,4.66,2.25,1.65,1.6,1.26c5.23,4.33,10.84,10.17,15.6,16.23,4.8,6.13,9.14,12.67,12.67,19.59,14.42,27.61,16.9,60.19,9.07,93.29-3.86,16.55-10.17,33.12-17.9,49.42-4.3,8.05-8.2,16.22-13.2,24.09-4.53,8.02-9.85,15.76-15.1,23.54-21.27,31.03-47.13,60.06-74.73,87.63Z"/>
      <path class="cls-4" d="m100.57,105.3l-.65,1.16c-.96,1.6-2.11,3.15-3.5,4.83-.88,1.1-1.8,2.26-2.78,3.49-.8,1.27-1.66,2.63-2.58,4.09-1.17,1.89-2.13,3.78-2.89,5.7-1.27,2.57-1.42,5.07-1.71,7.74-.15,2.66-.34,5.49.09,8.54,2,10.22,6.26,23.41,19.65,44.1,12.88,19.51,29.78,37.63,48.8,53.96l7,6.24,7.41,5.92,14.84,11.87c10.69,8.34,21.36,16.7,31.65,25.62,41.1,35.45,79.23,76.44,105.94,126.48,13.36,24.89,23.18,52.36,27.59,81.21,4.76,28.79,2.57,58.95-4.98,87.26-8.12,28.2-21.66,54.44-38.73,77.27-17.14,22.83-37.29,42.67-58.88,60.1l-8.11,6.53-8.36,6.12-8.37,6.11-8.58,5.71-16.65,10.99c-5.32,3.49-10.68,6.91-15.8,10.63-20.78,14.47-40.5,30.19-58.07,47.55-17.5,17.36-33.07,36.32-44.3,57.04-10.96,20.74-18.3,42.95-19.07,65.75-.94,22.75,3.38,45.87,12.24,67.99,8.88,22.13,21.58,43.29,36.38,63.24,30.06,39.8,67.64,74.95,107.54,107.26,6.69,5.52,13.44,10.58,19.84,15.71,2.94,2.3,5.89,4.61,8.76,6.86,5.51,4.14,10.88,8.17,16.14,12.12,2.62,1.99,5.21,3.95,7.78,5.89l4.52,3.44c1.64,1.32,3.15,2.56,4.55,3.83,19.61,17.63,32.74,37.43,41.93,58.05,9.15,20.59,13.59,41.9,14.41,62.73.23,4.03.39,8.06.15,12.08-.21,4.01-.1,8.05-.61,12.03-.5,4.39-1,8.8-1.5,13.22-.8,4.34-1.6,8.69-2.41,13.06-.71,3.97-1.91,7.76-2.88,11.69-.63,2.41-1.27,4.82-1.91,7.25-.79,2.37-1.59,4.75-2.39,7.15-1.64,4.76-3.06,9.66-5.13,14.33-7.73,20.17-18.16,40.06-30.9,60.52-11.1,18.13-22.36,32.66-32.33,44.92-7.8,9.78-15.53,17.57-21.95,24.68-6.66,6.9-12.72,12.5-17.85,17.36-10.26,9.72-18.05,15.28-23,19.11-6.93,5.02-9.33,6.05-9.33,6.05,0,0,.93-2.4,5.56-9.17,3.44-5.26,9.48-12.66,18.01-24.23,8.67-11.44,20.47-26.53,34.9-47.28,4.1-6.09,8.86-12.39,13.21-19.61,4.51-7.11,9.48-14.62,14.06-23,5.6-9.2,9.9-18.56,14.32-27.5,3.79-9.18,7.7-17.99,10.35-26.92,2.93-8.07,4.67-16.22,6.59-24.1,0,0,.05-.03.02-.08l.98-5.49c.57-3.53,1.39-6.99,1.66-10.46,1.14-10.09,1.71-20.05,1.1-29.8-.93-19.11-5.28-37.6-13.51-55.09-8.21-17.35-20.36-34.26-36.46-48.09-2.18-1.82-4.54-3.68-6.35-4.86-2.95-2.06-5.94-4.15-8.97-6.26-6.03-4.26-12.21-8.63-18.56-13.11-3.03-2.29-6.13-4.64-9.23-7-8.62-6.57-17.64-13.2-26.59-20.79l-15.47-12.78-15.09-13.34c-5.07-4.39-10.03-8.93-14.85-13.66-4.85-4.69-9.79-9.27-14.57-14.04-19.05-19.21-37.11-39.73-53.32-62.09-16.14-22.37-30.41-46.81-40.29-73.81-9.82-26.88-15.18-56.55-12.73-86.19,2.62-29.54,12.08-58.35,26.67-83.12,14.45-24.93,32.77-46.63,52.66-65.84,19.94-19.22,41.53-36.05,63.84-51.36l32.8-21.72c10.31-6.99,20.32-14.36,29.81-22.22,18.99-15.67,36.37-33.04,50.36-52.41,13.85-19.4,24.76-40.54,30.55-62.93,12.08-44.78,2.81-93.27-20.51-135.6-23.01-42.7-57.44-80.09-95.64-112.85-9.52-8.28-19.53-16.03-29.51-23.87l-15.9-12.71-7.94-6.36-7.67-6.86c-20.64-17.86-40.12-38.27-56.12-62.52-8.7-13.35-14.17-25.17-17.66-35.34-.93-2.51-1.81-4.89-2.64-7.14-.6-2.37-1.17-4.61-1.72-6.74-1.09-4.27-2.15-8.1-3.18-11.65-.74-4.02-1.56-7.7-2.56-11.25-.98-3.55-2.32-6.97-3.22-10.5-.8-2.61-1.72-5.3-2.8-8.17-.89-2.3-1.72-4.44-2.5-6.45-.68-2.01-1.16-3.9-1.68-5.76-.88-3.14-1.57-6.16-2.03-9.24-.11-.97-.23-1.96-.34-2.9-.42-3.84.18-7.54,1.03-12.04.96-4.43,2.29-9.63,5.11-15.15,1.68-3.53,3.71-7.42,6.12-11.7,2.63-4.05,5.68-8.45,9.17-13.28,8.43-10.91,15.19-17.63,20.75-21.53,14.68-10.6,19.33-4.45,24.45-1.74,5.24,2.76,12.74,3.85,12.7,21.88-.04,3.11-.15,6.72-.38,10.88-.18,4.16-.98,8.89-1.33,14.19-.06.76-.12,1.49-.18,2.21-.38,4.2-.73,7.95-1.03,11.32-.11,3.28-.31,6.14-.59,8.66-.73,4.53-.83,7.88-1.63,10.74-.65,2.83-2.05,5.2-2.98,7.27Z"/>
      <path class="cls-5" d="m63.97,834.81c-1.34,1.73-2.68,3.45-4,5.16-1.25,1.77-2.48,3.53-3.72,5.29-2.42,3.54-5.11,6.89-7.31,10.56-2.25,3.76-4.15,7.75-6.08,11.68-1.82,4-3.34,8.11-5.49,11.9-2.98,4.89-5,10.64-7.39,16.4-2.31,5.79-3.55,12.1-4.95,18.19-.81,5.26-1.6,10.34-2.39,15.42-.74,5.08-.87,10.23-1.12,15.52-.27,4,.31,7.97.53,11.96.39,3.97.4,8.01,1.19,11.89,2.59,20.67,8.95,40.45,17.12,58.98,3.81,9.46,8.9,18.14,13.54,27.07,5.33,8.45,10.22,17.26,16.15,25.21,4.46,6.42,8.97,12.93,13.94,18.89,4.56,5.57,8.66,9.81,13.45,14.86,17.12,19.82,35.87,38.57,54.88,56.23,7.54,6.59,14.92,13.62,22.71,19.89,4.68,3.81,8.69,5.99,13.3,9.63,10.41,8.52,21.34,16.79,31.87,25.11,6.36,4.82,12.89,9.44,19.32,14.16l9.69,7.05c2.78,1.96,5.18,3.96,7.88,6.37,10.51,9.48,19.64,20.95,26.98,33.27,19.23,32.28,24.95,71.14,17.55,109.05-.9,4.28-1.93,7.96-3.04,11.41l.98-5.49c.57-3.53,1.39-6.99,1.66-10.46,1.14-10.09,1.71-20.05,1.1-29.8-.93-19.11-5.28-37.6-13.51-55.09-8.21-17.35-20.36-34.26-36.46-48.09-2.18-1.82-4.54-3.68-6.35-4.86-2.95-2.06-5.94-4.15-8.97-6.26-6.03-4.26-12.21-8.63-18.56-13.11-3.03-2.29-6.13-4.64-9.23-7-8.62-6.57-17.64-13.2-26.59-20.79l-15.17-12.53-14.8-13.07c-9.99-8.54-19.3-18.03-28.92-27.09-18.64-18.89-36.49-38.82-52.56-60.59-16.04-21.74-30.24-45.52-40.48-71.7-10.19-26.12-15.95-54.96-14.74-84.05.83-29.16,9.94-57.57,23-82.63,13.11-25.24,30.73-47,49.81-66.38,19.16-19.38,40.04-36.37,61.69-51.84,10.68-7.76,22.19-15.06,32.76-22.05,5.07-3.42,10.25-6.7,15.23-10.21l14.71-10.81c38.32-29.48,70.7-66.57,85.91-109.69,15.37-42.99,10.86-90.78-9.12-133.42-19.62-42.92-51.58-81.01-87.76-114.3-9-8.42-18.53-16.34-28.06-24.26l-30.11-23.85c-10.55-8.03-20.4-17.33-30.43-26.28-9.58-9.68-19.4-19.06-28.03-30.11,3.35,2.41,5.41,2.15,8.61,4.71,2.81,2.41,6.54,6.56,9.84,8.57,4.57,2.7,3.64,1.25,8.97,6.65,5.11,5.47,9.99,8.3,15.41,12.94,4.17,3.35,8.2,7.15,12.57,10.56,4.32,3.48,8.71,7.01,13.1,10.55,8.89,7.31,17.04,13.94,25.17,20.34,15.9,13.17,31.48,27.17,46.01,41.53,3.83,3.52,7.05,6.04,10.77,9.68,5.42,5.29,10.79,10.56,15.79,16.28,3.99,4.31,7.51,9.08,11.13,13.78,3.71,4.64,6.99,9.57,10.33,14.37,4.79,6.49,8.69,13.48,13.01,20.23,3.74,7.04,7.89,13.91,11.05,21.2,3.59,7.12,6.28,14.56,9.21,21.92,2.38,7.52,4.97,14.99,6.57,22.67,3.52,15.28,5.48,30.89,5.03,46.47-.48,15.56-3.03,31-7.53,45.92-4.4,14.96-10.99,29.31-19.16,42.79-8.1,13.51-17.54,26.35-28.38,38.1-5.13,6.1-11.12,11.5-16.69,17.24-6.09,5.26-11.75,10.95-18.18,15.87l-9.41,7.6-9.78,7.18c-6.43,4.91-13.32,9.22-20.05,13.74-6.36,4.23-15.09,9.33-21.15,14.1-5.68,4.74-8.94,8.47-15.19,12.92-21.57,15.9-42.46,33.14-61.04,52.96-4.72,5.36-9.82,10.61-14.25,16.49-2.3,2.86-4.6,5.72-6.88,8.56-2.17,2.94-4.32,5.86-6.45,8.74Z"/>
      <path class="cls-5" d="m122.88,206.93c3.53,4.64,8.04,8.76,12.14,13.1,4.14,4.33,8.3,8.64,12.98,12.61l13.61,12.21,14.46,11.56,14.98,11.89c5.16,4.15,10.49,8.05,15.51,12.4l15.19,12.87,14.77,13.44c38.58,36.56,73.88,78.97,95.98,130.32,10.77,25.65,17.94,53.5,19.25,82.12.93,28.56-3.46,57.72-14.13,84.16-10.42,26.51-25.51,50.73-43.5,71.68-17.97,21.04-38.4,39.31-59.99,55.46-10.67,8.11-22.21,15.6-33.01,22.71l-15.54,10.23-15.15,10.67c-19.87,14.56-38.67,30.32-55.13,47.76-16.45,17.41-30.55,36.49-40.56,57.02-10.26,20.45-15.22,42.55-15.39,64.77-.33,22.28,5.43,44.71,14.49,66.15,9.15,21.48,21.89,41.95,36.51,61.32,29.56,38.71,66.43,72.84,105.31,104.41,6.69,5.52,13.44,10.58,19.84,15.71,2.94,2.3,5.89,4.61,8.76,6.86,5.51,4.14,10.88,8.17,16.14,12.12,2.62,1.99,5.21,3.95,7.78,5.89l4.52,3.44c1.64,1.32,3.15,2.56,4.55,3.83,19.61,17.63,32.74,37.43,41.93,58.05,9.15,20.59,13.59,41.9,14.41,62.73-1.64-25.97-9.65-51.78-22.93-74.56-8.95-14.99-19.79-28.67-32.95-40.56-1.65-1.5-3.36-2.95-5.15-4.41l-2.83-2.21-2.8-2.05-9.4-6.85c-6.25-4.59-12.58-9.06-18.76-13.75-10.21-8.08-21.27-15.67-30.99-24.31-4.3-3.72-7.09-7.15-11.54-10.89-7.35-6.24-14.56-12.78-21.82-19.11-18.14-16.86-36.76-34.09-52.05-53.18-4.33-4.91-6.76-9.87-10.91-15.06-4.56-5.57-8.7-11.45-12.76-17.29-5.45-7.28-9.73-15.12-14.56-22.69-4.05-7.89-8.64-15.6-11.87-23.75-7.1-16.06-12.42-32.74-14.5-49.62-.7-3.2-.59-6.46-.89-9.69-.13-3.24-.66-6.48-.43-9.69.13-4.26-.31-8.43-.13-12.59.3-4.14.43-8.35,1.08-12.64,1.19-4.99,1.59-10.23,2.72-15.28,1.22-5.02,1.69-10.2,3.1-14.88.96-3.61,2.24-7.18,3.89-10.62,1.78-3.4,3.6-6.79,5.05-10.36,1.42-3.5,3.28-6.82,4.93-10.29l2.64-5.18c1.05-1.66,2.1-3.33,3.16-5.01,1.78-2.73,3.59-5.5,5.52-8.22,2.1-2.61,4.22-5.25,6.34-7.89,4.11-5.36,9.07-10.13,13.43-15.11,17.31-18.48,37-35.1,57.85-50.16,6.06-4.21,10.53-5.91,16.62-9.46,6.68-3.61,14.06-8.97,20.83-13.47,7.13-4.78,14.39-9.34,21.25-14.56l10.41-7.65,10.08-8.14c6.84-5.26,13.04-11.41,19.57-17.1,6.09-6.24,12.53-12.08,18.19-18.78,11.83-12.85,22.37-27.1,31.47-42.3,9.17-15.15,16.71-31.51,21.79-48.74,5.19-17.17,8.15-35.08,8.68-53.06.52-18-1.72-35.93-5.73-53.25-1.85-8.74-4.71-17.12-7.42-25.56-3.22-8.21-6.28-16.51-10.21-24.36-3.53-8.07-8.02-15.57-12.14-23.28-4.66-7.34-8.97-14.96-14.1-21.94-3.59-5.18-7.26-10.41-11.28-15.32-3.94-4.98-7.74-10.07-11.79-14.8-5.12-6.26-9.83-12.77-15.24-18.69-3.67-4.1-5.9-7.98-9.82-11.84-14.95-15.78-31.89-29.93-48.56-43.72-8.35-6.45-17.15-13.25-25.93-20.04-4.19-3.33-8.37-6.65-12.5-9.92-4.11-3.29-7.67-6.98-11.28-10.43-4.65-4.71-8.36-8.42-12.86-13.41-4.76-4.96-3.46-4.12-5.65-8.37-1.56-3.09-5.51-6.32-6.76-9.33-.41-.77-.64-1.46-.78-2.11Z"/>
      <path class="cls-5" d="m100.57,105.3l-.65,1.16c-.96,1.6-2.11,3.15-3.5,4.83-.24-2.38-.54-4.91-.91-7.55-.34-2.64-.17-5.47-.35-8.33-.47-5.72-.04-11.83.02-17.82.43-11.98,1.24-23.57.47-31.02-1.45-11.75-5.9-16.46-13.21-15.22-3.57.66-7.67,2.89-12.2,6.52-4.63,3.55-9.32,8.77-14.08,15.4-10.19,14.31-20.59,34.72-24.44,52.45-.88-3.14-1.57-6.16-2.03-9.24-.11-.97-.23-1.96-.34-2.9-.42-3.84.18-7.54,1.03-12.04.96-4.43,2.29-9.63,5.11-15.15,1.68-3.53,3.71-7.42,6.12-11.7,2.63-4.05,5.68-8.45,9.17-13.28,8.43-10.91,15.19-17.63,20.75-21.53,14.68-10.6,19.33-4.45,24.45-1.74,5.24,2.76,12.74,3.85,12.7,21.88-.04,3.11-.15,6.72-.38,10.88-.18,4.16-.98,8.89-1.33,14.19-.06.76-.12,1.49-.18,2.21-.38,4.2-.73,7.95-1.03,11.32-.11,3.28-.31,6.14-.59,8.66-.73,4.53-.83,7.88-1.63,10.74-.65,2.83-2.05,5.2-2.98,7.27Z"/>
      <path class="cls-3" d="m53.61,67.32c-2.08,2-2.5,8.45-3.38,11.17-.53,1.56.57,4.19-.61,6.89-.84,1.95-4.91.39-5.87,3.72-1.5,4.7.78,8.51,2.99,12.16,2.35,3.7,4.55,7.31,4.81,12.62,1.14,13.18-3.45,10.43-11.25,11.84-.57.13-1.09.2-1.61.38-.8-2.61-1.72-5.3-2.8-8.17-3.53-8.53-5.05-14.66-6.2-21.45-.11-.97-.23-1.96-.34-2.9,4.14-1.13,7.63-2.83,10.02-9.12,1.45-3.67-2.52-6.7,1.5-13.27,1.58-2.4,4.99-1.64,6.21-3.32,1.37-1.89,2.21-7.09,3.49-8.22,5.3-4.45,4.55-4.91,11.89-3.59,2.06.37,9.52,2.82,9.97,4.87,2.38,10.84-15.55,3.48-18.82,6.38Z"/>
      <path class="cls-3" d="m100.57,105.3l-.65,1.16c-2.03,3.64-5.94,7.11-8.87,12.41-1.17,1.89-2.13,3.78-2.89,5.7-1.13-.14-2.26-.29-3.44-.36-7.8-.62-12.39,1.91-11.23-9.28.63-4.49,4.11-7.1,6.99-9.38,3.02-2.31,5.48-4.28,6.15-8.02.37-2.62-3.96-3.01-3.97-4.76-.03-2.45,1.98-3.88,2.09-5.21.2-2.35,3.69-6.88,2.89-9.32-.97-3.53-20.39-9.08-11.16-15.77,1.75-1.2,8.9,2.02,10.73,3.09,6.44,3.74,5.24,3.6,6.94,9.43.43,1.4-1.52,5.11-1.35,7.01.15,1.67,3.43,2.87,3.51,5.03.41,5.75-3.68,5.94-3.86,8.91-.22,5.61,3.32,7.49,8.14,9.36Z"/>
      <path class="cls-3" d="m106.81,67.31c-3.39-4.15-5.64-9.89-6.83-13.63-2.51-7.17-9.43-11.1-12.83-18.64-4.14,2.88-6.96,4.69-11.69,4.52-5.19-.22-8.14,2.18-12.57,2.94-3.95.75-8.05-1.49-12.11-1.1,8.43-10.91,15.19-17.63,20.75-21.53,2.2.21,4.33.56,6.39,1.03,4.18,1.04,11.04,4.74,8.75,9.88,9.16-3.88,14.52,2.88,21.26,8.6.24.2.48.4.75.63-.04,3.11-.15,6.72-.38,10.88-.18,4.16-.98,8.89-1.33,14.19-.06.76-.12,1.49-.18,2.21Z"/>
      <path class="cls-3" d="m68.01,107.88c-2.38,1.26-4.9.64-7.51.44l-.2-2.77c-.47-.1-.91-.05-1.38-.2-.62-4.18-.81-8.33.54-11.66.95-2.67,4.18-7.72,7.23-6.01,2.15,1.18,2.53,5.08,2.22,9.21-.09,4.17-.47,8.67-.9,10.99Z"/>
      <g>
        <path class="cls-3" d="m55.21,149.26c-2.74.9-2.29,7.8-3.07,10.85-1.56,5.93-1.97,5.71,2.85,11,2.59,2.87,4.87,7.14,7.53,10.83,3.04,3.44,6.44,6.28,10.59,6.51,4.68.25,8.73-1.99,13.12-4.94,6.36-4.31,6.6-6.73,4.31-11.66-1.78-3.37-1.75-7.18-2.46-10.66-.49-3.55-1.47-6.89-2.38-10.34-1.59-4.73-3.01-5.22-10.49-4.04-5.11.88-11.21-.79-20.01,2.46Z"/>
        <path class="cls-1" d="m86.53,183.97c6.58-4.49,6.92-7.13,4.52-12.34-1.5-2.79-1.64-6-2.17-8.9-.46-4.1-1.61-8.05-2.65-12.07-1.66-4.94-3.34-5.57-11.1-4.38-1.62.25-3.38.27-5.24.28-4.13.02-8.85-.13-14.89,2.12-2.18.73-2.58,4.36-2.9,7.66-.13,1.36-.25,2.66-.48,3.55l-.36,1.38c-1.31,4.84-1.1,5.34,3.37,10.27,1.61,1.79,3.1,4.13,4.68,6.59.84,1.31,1.71,2.66,2.63,3.95,1.02,1.23,2.15,2.35,3.31,3.36,2.34,2.01,4.93,3.44,7.88,3.6,3.52.19,6.69-1.04,9.67-2.71,1.28-.72,2.52-1.53,3.74-2.35Zm-16.6-36.31c1.9-.02,3.7-.06,5.39-.33,7.25-1.19,8.37-.79,9.88,3.7,1.03,3.93,2.11,7.67,2.61,11.9.56,2.96.68,6.24,2.23,9.12,2.22,4.8,1.92,6.93-4.12,10.98-3.89,2.61-8.09,5.08-12.83,4.82-5.28-.39-9.82-5.03-12.92-10.41-1.6-2.49-3.12-4.87-4.81-6.74-4.13-4.57-4.23-4.64-3.06-8.97l.36-1.38c.26-1,.38-2.34.52-3.76.29-2.94.65-6.19,2.23-6.73h.02c1.6-.62,3.11-1.05,4.53-1.36,3.8-.82,7.04-.8,9.97-.83Z"/>
      </g>
      <g>
        <path class="cls-3" d="m95.5,202.58c-.89.64-1.66,1.1-2.28,1.98-.55.76-1.08,1.5-1.6,2.23-.77,1.02-1.45,1.85-1.74,3.1-.31,1.32-.89,2.48-.71,3.74.12.78.52.63-.11,1.44-.33.42-.73.69-1.03,1.16-.35.56-.43,1.01-.59,1.6-.2.73-.56,1.35-.8,2.05-.29.85-.17,1.52-.24,2.39-.04.55-.31.72-.27,1.28.07.84.82,1.44,1.17,2.13.48.94,1.1,1.71,1.62,2.64.59,1.04.88,2.32,1.5,3.34.2.34.6.54.8.89.32.54.37,1.19.72,1.73.61.93,1.53,1.57,2.04,2.58.95,2,2.49,3.43,4,4.96,1.69,1.74,3.3,3.45,5.28,4.88,2.17,1.56,3.9,4.93,7.38,2.55.96-.66,1.89-1.05,3-1.2,1.92-.27,3.55.61,5.4.22,2.57-.54,4.16-3.37,5.4-5.6.83-1.49,1.31-2.29.37-3.4-.67-.78-2.26-1.34-1.34-2.75.51-.79,1.67-1.63,2.35-2.31.96-.96,1.91-2.1,2.94-2.97.69-.59,2.86-2.04,3.62-1.94,1.02.14,1.03,2.04,2.33,1.7,1.17-.31,2.61-3.6,2.53-4.46-.09-.96-1.48-1.76-2.09-2.38-1.02-1.05-1.9-2.07-3.2-2.75-.48-.25-.84-.49-1.42-.62-.72-.17-1.45.15-2.13.08-2.71-.29-.91-3.33-1.44-5.03-.17-.53-.75-1.28-1.06-1.72-.42-.65-1.01-1.15-1.49-1.74l-2.58-3.13c-.78-.94-1.44-2.36-2.54-2.97-.72-.41-1.54.02-2.35-.16l-1.76-.8c-.77-.14-1.51-.33-2.23-.58-.51-.3-.58-.82-.98-1.19-.72-.67-1.94-.71-2.64-1.47-1.01-1.12-1.31-2.37-3.4-2.04-1.14.19-2.26.78-3.41.97-.84.13-1.47-.04-7.02,1.56Z"/>
        <path class="cls-1" d="m125.43,243.2c.84-1.52,1.64-2.94.18-4.66-.21-.25-.49-.49-.78-.72-.19-.15-.5-.4-.44-.66.26-.42.85-.92,1.36-1.38.75-.67,1.3-1.24,1.9-1.88.59-.63,1.19-1.27,1.81-1.82.73-.62,2.39-1.64,2.66-1.74.07.05.2.26.29.4.35.55,1.08,1.71,2.56,1.32,1.87-.48,3.43-4.46,3.33-5.64-.11-1.15-1.07-1.94-1.84-2.57-.2-.18-.39-.34-.54-.47l-.4-.41c-.88-.92-1.78-1.86-3.07-2.54l-.24-.13c-.4-.22-.82-.44-1.43-.58-.61-.14-1.17-.06-1.62,0-.25.04-.48.07-.65.05-.28-.03-.42-.09-.46-.14-.18-.22-.07-1.06,0-1.62.1-.84.21-1.71-.04-2.51-.18-.57-.62-1.19-.96-1.68l-.22-.32c-.44-.68-1.02-1.18-1.61-1.88l-1.66-2-.91-1.11c-.2-.28-.42-.58-.64-.89-.57-.83-1.21-1.77-2.17-2.31-.7-.39-1.43-.33-1.95-.28-.27.03-.52.03-.47.08l-1.76-.8-.26-.08c-.71-.13-1.4-.31-1.86-.44-.05-.03-.11-.13-.21-.29-.13-.22-.3-.49-.58-.75-.49-.46-1.08-.68-1.6-.88-.42-.16-.78-.31-.98-.52-.2-.21-.36-.44-.52-.65-.71-.88-1.53-2.13-3.84-1.77-.64.11-1.28.32-1.92.54-.5.17-1,.35-1.52.43-.13.01-.25.03-.4.04-.8.06-2.13.21-6.77,1.52l-.71.42c-.78.56-1.51,1.05-2.27,2.1-.5.69-.99,1.36-1.47,2.02l-.18.24c-.73.96-1.43,1.87-1.75,3.25l-.3,1.06c-.29.96-.59,1.96-.43,3.12.03.21.07.38.11.53,0,0-.03.04-.05.07l-.37.39c-.24.23-.5.49-.74.86-.37.58-.5,1.07-.63,1.54l-.09.31c-.11.38-.26.72-.41,1.06l-.38.92c-.25.73-.26,1.37-.27,1.93,0,.23-.01.46-.02.71,0,.09-.03.15-.08.29-.09.25-.23.62-.19,1.17.07.9.58,1.59.95,2.09.13.17.26.34.35.51.29.58.63,1.1.98,1.62.22.36.45.71.68,1.08.26.45.44.95.63,1.44.26.67.53,1.34.89,1.94.21.34.47.58.8.88.07.12.14.33.21.55.12.36.26.8.55,1.24.31.47.68.88,1.05,1.29.38.41.71.77.91,1.17.89,1.86,2.2,3.29,3.53,4.58l1,1.02c1.57,1.62,3.19,3.29,5.12,4.69.45.33.88.75,1.32,1.16,1.58,1.51,3.98,3.8,7.37,1.46.86-.59,1.65-.91,2.55-1.04.76-.11,1.51.01,2.3.14.94.15,2.01.31,3.15.07,1.28-.27,2.34-1,3.22-1.92,1.24-1.3,2.15-2.96,2.88-4.26Zm-29.69-39.41l.25-.17c4.27-1.25,5.44-1.37,6.15-1.44.2-.03.37-.05.54-.07.62-.11,1.23-.31,1.84-.52.52-.18,1.03-.37,1.55-.46,1.02-.19,1.17.02,1.75.81.21.28.42.57.68.85.54.58,1.24.86,1.8,1.08.37.14.71.28.91.46.06.05.12.17.2.29.19.31.44.73,1.17,1.13.74.25,1.49.45,2.25.6l1.84.82c.5.11.97.07,1.35.03.36-.04.59-.05.71.02.55.31,1.03,1.01,1.49,1.69.26.37.51.74.77,1.05l.91,1.11c.56.68,1.13,1.36,1.81,2.2.44.49.9.92,1.24,1.43l.25.36c.23.32.6.84.68,1.1.12.37.03,1-.04,1.62-.13,1.08-.28,2.3.47,3.22.44.54,1.1.86,1.95.95.44.05.84,0,1.19-.06.32-.05.6-.09.81-.04.33.08.55.2.88.38l.28.15c.98.51,1.7,1.26,2.53,2.13l.41.43c.19.2.45.41.73.64.3.25,1.01.83,1.06,1.05-.02.71-1.2,3.04-1.64,3.35-.06-.05-.2-.26-.29-.4-.31-.49-.78-1.24-1.73-1.37-1.52-.2-4.47,2.18-4.47,2.18-.68.58-1.34,1.28-2,1.97-.55.58-1.04,1.11-1.76,1.72-.62.54-1.32,1.15-1.75,1.8-1.25,1.89.38,3.21.99,3.7.17.14.34.27.46.41.33.39.39.46-.52,2.07-1.09,1.94-2.56,4.63-4.74,5.08-.77.16-1.52.05-2.38-.09-.88-.14-1.87-.3-2.96-.14-1.24.17-2.3.59-3.45,1.36-1.87,1.26-2.77.54-4.48-1.09-.53-.5-1.05-1-1.6-1.39-1.73-1.25-3.19-2.75-4.73-4.34l-1.01-1.04c-1.26-1.24-2.41-2.46-3.15-4.01-.37-.74-.89-1.3-1.34-1.79-.27-.29-.54-.58-.77-.92-.08-.12-.15-.34-.22-.56-.1-.32-.24-.72-.47-1.11-.21-.35-.47-.59-.8-.89-.28-.47-.48-.99-.68-1.51-.24-.62-.48-1.23-.8-1.79-.27-.43-.52-.83-.77-1.23-.29-.43-.57-.86-.82-1.34-.15-.31-.37-.6-.59-.9-.22-.3-.43-.57-.38-.99.07-.2.17-.47.2-.87.01-.31.02-.59.03-.86,0-.5,0-.86.15-1.27l.32-.77c.19-.43.38-.87.51-1.34l.09-.35c.1-.41.18-.67.38-.99.11-.17.26-.33.44-.5.18-.18.37-.36.54-.58.53-.69.75-1.22.29-2.29-.13-.58.1-1.29.33-2.07l.34-1.22c.22-.92.72-1.6,1.36-2.45l.19-.25c.49-.69.99-1.39,1.62-2.27.35-.5.77-.84,1.29-1.21l.34-.25Z"/>
      </g>
      <g>
        <path class="cls-3" d="m147.49,254.65c-1.9.35-3.1,3.82-3.49,5.25-.26.95-.19,1.87-.46,2.81-.27.97-.88,1.57-1.54,2.33l-3.97,4.66c-.54.66-.8,1.19-.84,2.02-.03.65-.12,1.87.14,2.42.28.62,1.11.81,1.48,1.38.38.58.66.94,1.23,1.39l1.54,1.23c.65.51.95,1.1,1.46,1.71.51.61,1.08.87,1.45,1.65.48,1.01,1.22,1.48,2.07,2.17.76.62,1.25.92,2.27,1.06,1.24.17,2.34.48,3.41,1.02,1.3.64,2.43,1.81,3.56,2.73,1.37,1.11,3.19,1.81,5.03,1.84,2,.03,3.04-1.41,4.27-3.04.7-.93,1.28-1.51,2.1-2.28.37-.34.53-.77.93-1.11.63-.53,1.39-.62,2.06-1,1.81-1.01,3.53-3.33,4.28-5.28.6-1.54.91-3.07.96-4.61.03-1.12.65-3.01.1-3.89-.46-.72-1.41-.83-1.75-1.69-.32-.85.06-1.46.26-2.37.24-1.12-.15-1.23-.6-2.01-.2-.36-.29-.78-.44-1.16-.26-.67-.47-.9-1.03-1.33l-4.59-3.67-2.44-1.96c-1.03-.77-2.37-.94-3.41-1.67-.82-.58-1.54-1.3-2.35-1.9-.86-.63-1.41-.44-2.57.01-.95.38-1.94.5-2.84.77-.9.27-1.73.13-6.26,2.52Z"/>
        <path class="cls-1" d="m175.51,278.07c.66-1.7,1-3.33,1.02-4.98,0-.31.06-.69.12-1.09.18-1.17.4-2.49-.22-3.46-.34-.53-.79-.83-1.15-1.07-.3-.2-.44-.3-.48-.41-.1-.25-.05-.45.11-.99.06-.23.12-.48.19-.74.27-1.24-.05-1.81-.48-2.43-.07-.11-.15-.23-.25-.38-.07-.12-.13-.32-.2-.52l-.17-.48c-.36-.91-.72-1.3-1.39-1.82l-3.08-2.45-2.34-1.89-1.62-1.29c-.66-.49-1.39-.77-2.03-1.02-.52-.2-1.02-.39-1.4-.66-.4-.29-.78-.61-1.15-.93l-1.18-.96c-1.39-1.03-2.52-.58-3.66-.15-.49.18-1,.3-1.5.41l-1.24.31c-.14.04-.28.07-.44.11-.87.19-2.17.47-5.9,2.42-2.31.57-3.6,3.95-4.15,5.95-.15.53-.21,1.05-.26,1.57-.04.41-.08.82-.19,1.23-.17.61-.56,1.03-1.07,1.63l-1.3,1.5-2.96,3.46c-.6.73-1.01,1.45-1.09,2.76-.06,1.07-.09,2.1.22,2.83.29.66.83,1.01,1.22,1.28.13.09.32.21.36.27.45.67.82,1.14,1.5,1.68l1.55,1.24c.3.23.51.52.78.89.16.21.32.41.49.64.23.27.47.49.7.7.31.28.46.42.59.69.53,1.12,1.3,1.72,2.04,2.31l.37.3c.92.75,1.62,1.16,2.9,1.34,1.15.16,2.11.44,3.03.9.8.4,1.59,1.09,2.36,1.76l.97.82c1.62,1.31,3.73,2.09,5.78,2.12,2.48.03,3.7-1.73,5.09-3.48.66-.77,1.17-1.39,1.99-2.14.22-.21.39-.44.56-.68.12-.17.22-.3.32-.39.25-.21.57-.32.93-.46.33-.12.66-.25.98-.42,1.12-.62,2.14-1.62,2.97-2.7.79-1.03,1.41-2.15,1.78-3.1Zm-8.83,5.72c-.08.12-.16.25-.28.35-.88.82-1.51,1.38-2.31,2.52-1.22,1.59-1.99,2.55-3.34,2.53-1.54-.03-3.1-.6-4.29-1.56l-.9-.76c-.89-.77-1.8-1.57-2.89-2.11-1.16-.58-2.36-.93-3.78-1.13-.72-.1-1-.26-1.65-.79l-.41-.33c-.62-.49-1.04-.82-1.32-1.41-.34-.72-.8-1.13-1.17-1.47-.15-.13-.3-.27-.44-.44l-.39-.51c-.32-.44-.68-.93-1.26-1.38l-1.53-1.23c-.42-.33-.61-.57-.95-1.09-.31-.47-.74-.76-1.05-.97-.12-.08-.29-.21-.33-.24-.13-.31-.09-1.39-.07-1.87.03-.55.17-.88.61-1.42l2.91-3.44,1.28-1.5c.59-.69,1.21-1.38,1.5-2.46.15-.54.21-1.07.26-1.6.04-.4.08-.81.19-1.22.69-2.49,1.79-4.35,2.67-4.51l.29-.1c3.55-1.88,4.69-2.13,5.46-2.3.21-.05.4-.1.6-.15l1.11-.3c.61-.15,1.24-.31,1.83-.54,1.09-.43,1.13-.4,1.46-.16l1.05.85c.43.37.86.74,1.32,1.06.62.44,1.31.71,1.91.94.55.21,1.07.41,1.48.72l1.55,1.23,2.36,1.91,3.13,2.5c.43.33.49.4.66.84l.12.35c.1.3.21.63.4.96.14.22.25.39.36.55.06.09.14.22.17.25,0,0,.02.1-.04.41-.06.2-.11.4-.16.58-.19.64-.43,1.44-.05,2.42.32.83.93,1.23,1.38,1.53.21.14.4.26.46.36.14.28-.02,1.32-.11,1.87-.08.5-.15.97-.16,1.36-.04,1.38-.35,2.76-.91,4.23-.73,1.91-2.38,3.95-3.81,4.75-.22.13-.45.21-.68.29-.48.18-1.02.37-1.54.81-.21.18-.37.36-.5.54l-.18.25Z"/>
      </g>
      <g>
        <path class="cls-3" d="m316.6,428.88c2.49-1.55.86-7.93.91-10.81.3-5.69.75-5.48-4.42-9.73-5.63-4.53-11.35-14.49-19.53-14.18-4.7.25-8.58,2.77-12.69,6.08-5.95,4.8-5.82,7.27-3.18,12.32,1.87,3.49,3.1,7.15,4.36,10.75,1.1,3.68,2.29,7.26,4.4,10.57,2.99,4.59,4.34,4.89,11.35,2.03,4.77-1.98,10.94-1.76,18.79-7.04Z"/>
        <path class="cls-1" d="m317.22,429.9c2.2-1.39,2.01-5.15,1.68-8.43-.15-1.24-.3-2.42-.26-3.22l.08-1.32c.28-4.84-.03-5.43-4.99-9.52-1.65-1.43-3.45-3.31-5.34-5.31-4.18-4.39-8.76-9.43-14.97-9.08-5.21.28-9.43,3.24-13.27,6.35-6.53,5.31-6.17,8.42-3.41,13.72,1.54,2.87,2.64,5.94,3.7,8.9,1.43,4.17,2.55,8.56,5.1,12.47,3.46,5.27,5.54,5.36,12.68,2.49,1.48-.59,3.16-1,4.94-1.42,2.79-.67,6.1-1.42,9.82-3.2,1.37-.65,2.78-1.45,4.25-2.43Zm-23.51-34.6c5.07-.18,9.17,4.14,13.14,8.35,1.99,2.06,3.8,4.06,5.63,5.63,4.2,3.45,4.22,3.49,3.99,7.28l-.08,1.33c-.05,1.02.11,2.29.27,3.64.35,2.3.45,5.61-.66,6.32l-.03.02c-5.13,3.5-9.52,4.5-13.35,5.45-1.85.45-3.59.89-5.21,1.56-6.73,2.78-7.47,2.38-10.02-1.56-2.39-3.7-3.47-7.76-4.87-12.02-1.09-3.05-2.23-6.23-3.86-9.26-2.37-4.45-2.72-6.38,2.94-10.93,1.2-.96,2.35-1.83,3.49-2.59,2.8-1.87,5.53-3.08,8.62-3.22Z"/>
      </g>
      <g>
        <path class="cls-3" d="m270.43,381.53c.88-.66,1.62-1.15,2.22-2.03.52-.77,1.02-1.51,1.52-2.25.74-1.03,1.38-1.87,1.63-3.1.27-1.3.81-2.44.59-3.66-.14-.77-.5-.63.12-1.45.33-.43.73-.7,1.03-1.18.36-.57.44-1.03.61-1.62.22-.74.58-1.36.83-2.07.3-.86.2-1.53.29-2.41.06-.55.32-.73.29-1.29-.04-.84-.76-1.45-1.08-2.14-.46-.92-1.08-1.66-1.6-2.55-.58-1.01-.86-2.25-1.47-3.24-.2-.33-.59-.52-.79-.85-.32-.52-.36-1.16-.7-1.67-.6-.89-1.51-1.51-2.01-2.48-.97-1.88-2.38-3.38-3.76-5-1.52-1.85-3.13-3.5-5.04-4.95-2.11-1.57-3.72-4.92-7.27-2.64-.98.63-1.92,1-3.03,1.13-1.93.23-3.53-.67-5.4-.33-2.6.47-4.28,3.23-5.6,5.4-.88,1.45-1.38,2.24-.47,3.36.65.8,2.23,1.39,1.28,2.77-.54.77-1.72,1.58-2.42,2.24-.99.93-1.97,2.04-3.02,2.88-.71.57-2.93,1.95-3.7,1.83-1.03-.17-1-2.07-2.33-1.78-1.19.27-2.72,3.5-2.65,4.37.08.96,1.48,1.81,2.08,2.46,1.01,1.09,1.89,2.14,3.2,2.87.48.27.84.51,1.42.67.73.19,1.47-.11,2.15-.01,2.71.38.91,3.35,1.34,5.15.14.56.69,1.35.97,1.83.4.69.91,1.25,1.43,1.84l2.72,3.18c.82.95,1.53,2.39,2.67,3.02.75.42,1.58,0,2.4.19l1.81.82c.78.15,1.56.33,2.26.6.5.32.57.86.96,1.25.71.7,1.91.77,2.59,1.56,1,1.16,1.22,2.51,3.41,2.11,1.17-.21,2.28-.82,3.45-1.05.85-.15,1.52.02,7.09-1.76Z"/>
        <path class="cls-1" d="m273.67,380.02c.49-.71.96-1.4,1.57-2.29.71-.99,1.39-1.92,1.67-3.28l.26-1.03c.26-.95.53-1.94.33-3.05-.03-.2-.08-.37-.13-.51,0,0,.03-.04.05-.07l.36-.4c.23-.23.49-.49.72-.85.38-.59.52-1.1.65-1.59l.09-.3c.11-.37.26-.71.42-1.05l.39-.96c.26-.74.29-1.38.3-1.94.01-.23.03-.46.04-.72,0-.09.03-.15.08-.29.1-.25.24-.62.21-1.18-.05-.91-.53-1.6-.88-2.11-.12-.17-.24-.34-.32-.51-.26-.59-.62-1.08-.96-1.59-.22-.34-.44-.68-.66-1.03-.25-.43-.43-.91-.62-1.39-.26-.65-.52-1.3-.87-1.88-.21-.33-.46-.56-.79-.84-.07-.12-.14-.32-.2-.53-.11-.34-.25-.77-.53-1.19-.3-.45-.67-.85-1.04-1.24-.38-.4-.7-.74-.9-1.12-.89-1.75-2.14-3.18-3.34-4.56l-.95-1.1c-1.41-1.7-3.02-3.3-4.88-4.72-.44-.33-.85-.74-1.27-1.17-1.52-1.51-3.83-3.81-7.29-1.56-.88.57-1.68.87-2.58.98-.77.09-1.51-.05-2.3-.18-.94-.17-2-.35-3.16-.14-3.11.57-5,3.79-6.32,5.97-.89,1.48-1.73,2.87-.31,4.61.21.25.48.5.77.74.18.15.49.41.43.66-.28.39-.88.89-1.41,1.34-.78.64-1.33,1.19-1.94,1.81-.62.62-1.24,1.24-1.88,1.77-.75.6-2.45,1.57-2.73,1.65-.06-.05-.19-.27-.28-.41-.34-.56-1.06-1.74-2.56-1.4-1.91.41-3.57,4.34-3.48,5.53.09,1.16,1.05,1.98,1.82,2.63.21.19.39.36.55.5l.39.42c.88.95,1.78,1.94,3.08,2.66l.25.14c.4.23.82.47,1.44.63.61.16,1.18.09,1.64.05.25-.03.49-.05.65-.03.28.04.42.11.46.16.17.22.06,1.07-.02,1.63-.12.84-.23,1.71-.02,2.56.16.6.57,1.26.9,1.79l.19.32c.41.71.91,1.28,1.54,2l1.8,2.11.9,1.06c.21.28.44.59.68.91.6.85,1.28,1.8,2.28,2.36.73.4,1.46.34,2,.3.27-.03.51-.02.48-.08l2.07.9c.74.13,1.43.32,1.88.47.05.03.11.14.21.31.13.23.29.52.57.79.48.48,1.06.73,1.57.94.41.18.77.33.96.55.2.23.36.46.51.69.64.94,1.52,2.21,3.93,1.79.66-.12,1.3-.35,1.94-.58.51-.18,1.01-.37,1.53-.47.13-.02.26-.03.41-.05.82-.09,2.17-.26,6.82-1.73l.66-.41.38-.28c.63-.48,1.24-1,1.82-1.87Zm-10,2.1c-.2.03-.38.05-.56.08-.63.12-1.25.34-1.86.56-.52.19-1.04.39-1.57.49-1,.18-1.14-.02-1.72-.86-.2-.29-.41-.59-.67-.89-.53-.61-1.21-.91-1.76-1.14-.36-.15-.7-.3-.89-.49-.05-.06-.12-.17-.19-.3-.19-.32-.42-.77-1.15-1.19-.77-.26-1.58-.48-2.18-.55l-2.02-.9c-.52-.12-.99-.08-1.38-.05-.37.03-.6.05-.73-.03-.56-.32-1.07-1.03-1.56-1.72-.27-.38-.53-.75-.81-1.07l-.9-1.06c-.61-.71-1.22-1.43-1.98-2.31-.44-.5-.85-.98-1.16-1.51l-.22-.37c-.21-.34-.56-.91-.63-1.18-.1-.39,0-1.03.11-1.67.19-1.11.33-2.32-.41-3.28-.44-.56-1.09-.9-1.95-1.01-.44-.06-.84-.01-1.2.03-.33.04-.61.07-.82.01-.33-.09-.55-.21-.89-.41l-.28-.16c-.98-.55-1.7-1.32-2.53-2.23l-.4-.43c-.19-.21-.46-.44-.74-.68-.33-.28-1.01-.86-1.05-1.08.03-.72,1.28-3.06,1.73-3.3.06.05.2.27.28.41.3.5.76,1.26,1.73,1.42,1.53.25,4.56-2.04,4.56-2.04.71-.56,1.39-1.25,2.07-1.92.57-.56,1.07-1.07,1.8-1.66.64-.53,1.36-1.11,1.8-1.74,1.29-1.86-.3-3.2-.9-3.71-.17-.14-.34-.27-.46-.42-.32-.39-.38-.46.58-2.04,1.16-1.9,2.72-4.52,4.91-4.91.78-.14,1.53,0,2.39.14.87.15,1.86.33,2.96.2,1.23-.15,2.33-.55,3.47-1.29,1.9-1.21,2.78-.48,4.42,1.15.51.5,1.01,1,1.55,1.4,1.66,1.28,3.12,2.71,4.51,4.39l.95,1.11c1.14,1.32,2.22,2.56,2.97,4.03.37.71.88,1.25,1.32,1.72.27.28.54.56.76.89.08.12.15.32.22.55.1.31.22.69.46,1.08.21.33.46.56.79.84.27.45.47.96.66,1.47.23.6.47,1.2.79,1.74.26.4.51.79.76,1.18.29.42.57.84.82,1.32.15.29.34.6.55.89.2.29.4.57.35,1-.08.2-.18.48-.22.87-.02.32-.04.61-.06.88-.02.5-.03.85-.18,1.28l-.33.81c-.19.43-.38.86-.52,1.33l-.1.35c-.11.41-.18.68-.39,1.01-.11.18-.26.33-.44.51-.18.19-.36.37-.54.59-.53.7-.75,1.24-.32,2.33.11.6-.08,1.27-.29,2.05l-.3,1.18c-.19.92-.68,1.61-1.46,2.7-.48.71-.96,1.42-1.54,2.29-.41.61-.95,1.02-1.62,1.52l-.21.16c-4.28,1.37-5.48,1.52-6.21,1.61Z"/>
      </g>
      <g>
        <path class="cls-3" d="m219.34,328.13c1.91-.26,3.28-3.68,3.71-5.07.29-.93.25-1.82.55-2.74.3-.94.95-1.51,1.64-2.25l4.19-4.46c.57-.63.85-1.14.92-1.96.06-.63.18-1.81-.04-2.39-.24-.64-1.05-.88-1.39-1.47-.35-.6-.61-.98-1.14-1.46l-1.46-1.33c-.61-.55-.88-1.16-1.35-1.8-.47-.64-1.02-.93-1.35-1.74-.42-1.04-1.13-1.56-1.93-2.3-.72-.67-1.19-1-2.19-1.2-1.22-.24-2.28-.63-3.35-1.18-1.29-.68-2.38-1.87-3.47-2.81-1.33-1.14-3.14-1.89-5-1.99-2.02-.1-3.12,1.29-4.44,2.85-.75.9-1.35,1.45-2.22,2.17-.38.32-.56.74-.98,1.06-.66.5-1.43.55-2.13.9-1.87.93-3.68,3.18-4.52,5.08-.67,1.51-1.07,3-1.18,4.51-.08,1.11-.78,2.95-.26,3.84.43.73,1.4.87,1.7,1.74.29.85-.12,1.44-.35,2.33-.29,1.1.11,1.22.53,2.01.19.36.27.78.4,1.17.24.67.44.9.99,1.35,1.52,1.24,2.92,2.62,4.38,3.93l2.31,2.11c.98.84,2.3,1.08,3.29,1.88.78.63,1.45,1.4,2.22,2.04.82.68,1.37.53,2.55.14.95-.32,1.97-.41,2.9-.65.93-.24,1.78-.08,6.46-2.31Z"/>
        <path class="cls-1" d="m224.13,323.45c.18-.53.25-1.03.32-1.54.06-.4.1-.8.23-1.2.19-.59.58-.99,1.14-1.57l1.41-1.47,3.08-3.29c.63-.71,1.08-1.41,1.19-2.61.1-1.02.17-2.08-.11-2.83-.26-.67-.77-1.07-1.14-1.35-.12-.09-.3-.23-.34-.29-.41-.7-.75-1.2-1.39-1.78l-1.46-1.33c-.29-.26-.48-.55-.72-.93l-.45-.67c-.21-.29-.44-.53-.66-.75-.29-.29-.43-.45-.54-.72-.46-1.16-1.19-1.81-1.89-2.44l-.36-.32c-.86-.8-1.53-1.26-2.8-1.51-1.13-.23-2.08-.56-2.99-1.03-.79-.42-1.56-1.13-2.31-1.82l-.93-.84c-1.57-1.35-3.67-2.19-5.74-2.29-2.33-.12-3.68,1.3-4.99,2.86-.12.14-.25.3-.36.43-.67.79-1.19,1.28-2.05,1.99-.24.2-.42.42-.59.65-.12.16-.22.29-.34.38-.26.19-.59.3-.96.42-.33.11-.67.22-1,.38-2.25,1.12-4.16,3.69-5,5.6-.74,1.68-1.15,3.27-1.26,4.88-.02.3-.1.67-.18,1.06-.24,1.15-.51,2.45.08,3.44.32.54.77.85,1.12,1.1.3.21.43.31.47.43.08.25.03.44-.15.98-.07.23-.15.47-.23.72-.32,1.21-.02,1.8.39,2.42.07.11.14.23.23.38.07.13.13.33.18.53l.15.48c.33.91.67,1.3,1.33,1.84,1.05.83,1.99,1.77,2.98,2.65l2.18,2.01,1.52,1.38c.63.53,1.33.86,1.96,1.14.51.23.98.45,1.35.75.38.31.73.65,1.08.99l1.12,1.03c1.33,1.12,2.45.74,3.63.35.5-.17,1.03-.26,1.55-.36l1.29-.27c.15-.03.29-.06.45-.09.88-.15,2.26-.44,6.06-2.2.74-.15,1.39-.6,1.96-1.19,1.29-1.35,2.1-3.47,2.46-4.57Zm-25.66-23.48c.23-.12.46-.19.7-.26.49-.16,1.05-.33,1.59-.74.33-.25.54-.53.73-.75.09-.12.18-.24.3-.34.92-.77,1.45-1.29,2.44-2.4,1.29-1.56,2.11-2.44,3.48-2.38,1.55.08,3.1.7,4.26,1.69l.86.77c.87.8,1.76,1.62,2.84,2.19,1.16.59,2.31,1.06,3.71,1.32.71.14.98.32,1.59.88l.39.35c.59.53.98.88,1.23,1.49.3.74.73,1.18,1.07,1.54.14.14.28.29.42.48l.36.54c.29.45.62.97,1.17,1.46l1.45,1.32c.39.35.57.61.89,1.15.28.48.67.79.99,1.03.11.09.29.23.32.26.08.22.07.83-.03,1.89-.05.54-.2.84-.67,1.37l-3.03,3.26-1.4,1.47c-.61.66-1.27,1.32-1.61,2.37-.17.52-.24,1.04-.31,1.56-.06.39-.11.79-.23,1.2-.75,2.39-1.95,4.22-2.85,4.35l-.3.09c-3.68,1.75-4.86,1.97-5.64,2.11-.22.05-.41.09-.62.13l-1.13.24c-.61.12-1.23.24-1.83.43-1.11.37-1.14.34-1.46.07l-1-.92c-.4-.39-.81-.78-1.24-1.13-.59-.48-1.26-.79-1.84-1.06-.54-.25-1.04-.48-1.43-.81l-1.45-1.32-2.21-2.03c-1-.9-1.96-1.85-3.03-2.69-.43-.35-.48-.42-.64-.86l-.11-.35c-.09-.3-.18-.63-.36-.97-.13-.22-.25-.4-.34-.56-.06-.09-.13-.22-.15-.25,0,0-.02-.1.06-.4.06-.2.12-.39.18-.57.22-.62.48-1.4.14-2.38-.29-.83-.9-1.26-1.34-1.57-.2-.14-.39-.27-.45-.38-.13-.28.09-1.34.19-1.85.1-.48.19-.95.22-1.33.1-1.35.45-2.71,1.09-4.15.38-.85.94-1.71,1.58-2.48.77-.92,1.66-1.68,2.46-2.08Z"/>
      </g>
      <g>
        <path class="cls-3" d="m192.02,729.36c.59.93,1.01,1.71,1.85,2.37.72.58,1.42,1.14,2.12,1.7.97.82,1.75,1.53,2.94,1.87,1.27.37,2.36,1,3.58.87.77-.08.66-.45,1.43.24.4.36.64.78,1.08,1.12.53.4.98.52,1.56.74.71.27,1.3.69,1.98.99.83.37,1.5.32,2.36.49.54.1.7.38,1.25.4.83.03,1.49-.64,2.19-.9.96-.36,1.77-.88,2.73-1.29,1.07-.47,2.36-.58,3.39-1.11.34-.18.56-.55.91-.73.54-.28,1.18-.27,1.72-.57.93-.53,1.62-1.39,2.63-1.81,1.95-.82,3.55-2.11,5.27-3.37,1.93-1.41,3.82-2.75,5.47-4.49,1.8-1.92,5.23-3.36,3.27-7.08-.55-1.04-.83-2.01-.87-3.13-.07-1.96.96-3.5.77-5.4-.26-2.64-2.87-4.53-4.93-6.02-1.37-.99-2.11-1.56-3.3-.72-.84.59-1.56,2.13-2.84,1.07-.72-.6-1.43-1.85-2.03-2.6-.84-1.06-1.86-2.14-2.61-3.26-.51-.75-1.71-3.09-1.52-3.84.25-1.02,2.12-.84,1.93-2.19-.18-1.21-3.26-3-4.12-3-.96,0-1.9,1.33-2.58,1.88-1.15.93-2.25,1.71-3.06,2.97-.3.47-.58.79-.79,1.34-.27.69-.04,1.45-.2,2.1-.65,2.62-3.49.48-5.3.79-.56.1-1.39.58-1.89.83-.71.35-1.31.81-1.94,1.28l-3.38,2.47c-1.02.74-2.49,1.35-3.22,2.42-.5.69-.16,1.54-.43,2.33l-1.02,1.68c-.22.76-.5,1.48-.83,2.16-.36.48-.9.51-1.32.87-.76.66-.93,1.86-1.78,2.49-1.24.92-2.6,1.04-2.39,3.27.11,1.19.63,2.35.76,3.54.09.86-.15,1.52,1.18,7.23Z"/>
        <path class="cls-1" d="m235.34,703.31c-1.4-1-2.72-1.96-4.56-.67-.27.19-.53.45-.79.72-.17.17-.45.46-.69.37-.38-.31-.82-.95-1.21-1.51-.58-.83-1.08-1.44-1.65-2.1-.56-.66-1.13-1.32-1.6-2.01-.54-.8-1.36-2.57-1.43-2.86.06-.06.28-.17.43-.25.58-.3,1.8-.92,1.58-2.45-.27-1.94-4.02-3.92-5.2-3.92-1.15,0-2.03.89-2.73,1.61-.19.19-.38.36-.52.5l-.45.36c-1,.79-2.03,1.62-2.84,2.85l-.15.23c-.27.37-.55.75-.78,1.33-.22.58-.22,1.14-.21,1.59,0,.25,0,.48-.03.64-.07.27-.15.4-.2.43-.24.14-1.09-.06-1.64-.2-.84-.21-1.71-.42-2.55-.27-.6.1-1.29.46-1.84.74l-.35.18c-.74.36-1.35.82-2.11,1.38l-2.17,1.59-1.2.87c-.3.19-.62.4-.95.61-.9.52-1.87,1.16-2.54,2.08-.49.67-.5,1.4-.51,1.93,0,.27-.03.52.03.48l-1.02,1.68-.11.26c-.21.7-.47,1.37-.65,1.82-.04.05-.15.1-.32.18-.24.11-.54.25-.83.51-.52.45-.82,1.01-1.08,1.51-.21.4-.39.75-.63.92-.24.18-.49.32-.73.46-.99.58-2.34,1.37-2.11,3.81.06.67.24,1.33.41,1.99.14.52.29,1.04.34,1.57,0,.13.01.26.02.41.02.83.08,2.2,1.17,6.97l.38.73c.52.8.97,1.56,1.98,2.36.66.53,1.29,1.04,1.93,1.55l.23.19c.91.77,1.77,1.51,3.09,1.89l1.02.34c.92.33,1.87.68,2.99.57.2-.02.37-.06.51-.09,0,0,.04.04.07.06l.36.39c.21.25.45.53.79.79.55.42,1.03.59,1.5.77l.31.11c.37.14.7.33,1.03.51l.89.46c.71.32,1.35.39,1.9.46.22.03.45.06.7.1.09.02.15.05.28.11.24.11.59.29,1.15.31.89.03,1.61-.39,2.13-.7.18-.11.35-.22.53-.28.59-.22,1.13-.49,1.67-.77.37-.18.73-.36,1.12-.54.46-.2.97-.32,1.47-.46.68-.19,1.37-.35,1.97-.66.35-.18.59-.42.91-.73.12-.06.33-.11.54-.16.35-.09.79-.19,1.23-.44.47-.27.89-.6,1.31-.94.42-.35.79-.64,1.18-.81,1.81-.76,3.34-1.89,4.81-2.98l1.14-.84c1.79-1.31,3.65-2.66,5.26-4.36.38-.39.84-.76,1.29-1.16,1.64-1.42,4.12-3.57,2.17-7.22-.49-.93-.72-1.75-.75-2.67-.03-.78.17-1.52.37-2.3.24-.93.51-1.98.39-3.15-.13-1.32-.74-2.45-1.55-3.44-1.14-1.39-2.68-2.48-3.88-3.34Zm-42.11,25.84l-.16-.26c-1.03-4.4-1.07-5.61-1.09-6.34-.01-.21-.02-.38-.04-.56-.07-.64-.23-1.27-.4-1.91-.15-.54-.3-1.07-.35-1.62-.1-1.02.13-1.15,1-1.66.31-.18.63-.37.94-.6.65-.49,1-1.15,1.29-1.68.18-.35.36-.68.56-.86.06-.05.18-.11.32-.17.33-.16.79-.37,1.28-1.06.34-.71.62-1.45.85-2.19l1.04-1.76c.17-.49.18-.96.19-1.34,0-.36.02-.59.1-.71.36-.54,1.11-.99,1.83-1.43.4-.24.78-.48,1.12-.72l1.19-.87c.73-.54,1.47-1.08,2.37-1.73.54-.4,1.05-.78,1.61-1.06l.4-.2c.35-.18.93-.48,1.2-.53.39-.07,1.02.09,1.64.24,1.08.26,2.3.56,3.33-.06.6-.36,1.02-.97,1.22-1.79.11-.42.1-.82.1-1.18,0-.32,0-.6.07-.8.12-.31.25-.53.47-.85l.18-.26c.61-.94,1.43-1.59,2.37-2.34l.46-.37c.22-.17.46-.42.71-.68.28-.28.93-.94,1.15-.96.7.09,2.87,1.51,3.12,1.99-.06.06-.28.17-.43.25-.52.26-1.3.66-1.54,1.61-.36,1.51,1.67,4.72,1.67,4.72.5.75,1.12,1.48,1.73,2.21.52.61.98,1.16,1.51,1.94.47.68,1,1.45,1.58,1.94,1.73,1.45,3.19-.05,3.74-.61.15-.16.3-.32.45-.43.42-.29.49-.35,1.98.74,1.79,1.3,4.27,3.06,4.49,5.3.08.79-.11,1.53-.33,2.38-.23.87-.48,1.85-.44,2.96.04,1.26.34,2.37.99,3.6,1.05,2.01.25,2.83-1.52,4.37-.54.48-1.1.92-1.56,1.4-1.45,1.52-3.12,2.74-4.88,4.03l-1.15.85c-1.4,1.04-2.73,2.02-4.24,2.65-.74.31-1.31.78-1.82,1.19-.3.25-.6.49-.94.69-.12.07-.33.12-.56.17-.32.08-.71.17-1.1.37-.35.18-.6.42-.91.73-.47.25-.99.39-1.53.52-.63.16-1.25.33-1.83.58-.44.21-.86.42-1.28.62-.45.23-.9.46-1.39.65-.31.12-.63.29-.94.47-.31.18-.6.35-1.01.26-.19-.09-.45-.22-.84-.29-.31-.05-.58-.09-.85-.13-.5-.06-.85-.1-1.25-.28l-.75-.39c-.42-.23-.84-.46-1.3-.63l-.34-.13c-.4-.14-.66-.24-.97-.47-.17-.13-.31-.29-.47-.48-.17-.2-.34-.39-.54-.58-.65-.59-1.17-.85-2.28-.51-.6.06-1.25-.17-2-.44l-1.17-.39c-.88-.25-1.52-.79-2.33-1.47l-.24-.2c-.66-.52-1.31-1.05-2.15-1.71-.47-.37-.79-.81-1.13-1.34l-.23-.36Z"/>
      </g>
      <g>
        <path class="cls-3" d="m249.29,682.85c.15,1.92,3.46,3.5,4.85,4.04.92.36,1.84.4,2.74.75.92.35,1.45,1.03,2.14,1.77l4.21,4.44c.6.6,1.09.91,1.9,1.02.63.09,1.81.26,2.4.06.66-.22.95-1.03,1.56-1.35.63-.33,1.03-.57,1.54-1.1l1.43-1.42c.59-.6,1.22-.85,1.9-1.3.68-.45,1-1,1.84-1.3,1.08-.39,1.64-1.09,2.44-1.87.72-.71,1.08-1.16,1.33-2.17.27-1.27.67-2.37,1.28-3.44.74-1.3,1.99-2.39,2.99-3.49,1.21-1.34,2.04-3.16,2.2-5.03.17-2.03-1.22-3.15-2.77-4.47-.89-.76-1.43-1.37-2.15-2.24-.32-.39-.74-.57-1.05-.99-.49-.67-.53-1.43-.87-2.12-.9-1.86-3.15-3.68-5.05-4.55-1.51-.69-3-1.11-4.52-1.26-1.11-.1-2.95-.84-3.83-.36-.73.4-.88,1.35-1.75,1.61-.85.26-1.43-.17-2.31-.43-1.08-.32-1.21.06-1.99.45-.36.18-.77.23-1.16.35-.66.21-.9.39-1.34.91-1.21,1.47-2.54,2.84-3.93,4.16l-2.17,2.15c-.86.92-1.14,2.2-1.97,3.13-.65.74-1.43,1.35-2.1,2.08-.71.77-.57,1.33-.23,2.52.27.96.32,1.98.52,2.92.2.95.02,1.78,1.89,6.52Z"/>
        <path class="cls-1" d="m274.69,657.09c-1.67-.75-3.27-1.19-4.89-1.35-.31-.03-.68-.11-1.07-.2-1.15-.26-2.44-.56-3.43-.02-.54.3-.85.72-1.1,1.07-.21.29-.31.42-.43.45-.25.08-.44.02-.97-.18-.23-.08-.46-.16-.72-.25-1.2-.35-1.78-.09-2.4.3-.11.06-.23.13-.38.22-.12.06-.32.11-.52.16l-.48.13c-.91.28-1.3.61-1.83,1.23-.85.95-1.63,1.95-2.57,2.82l-2.08,2.06-1.43,1.43c-.55.58-.89,1.26-1.2,1.86-.25.49-.48.94-.78,1.29-.32.36-.68.69-1.03,1.02l-1.06,1.04c-1.14,1.25-.82,2.38-.48,3.58.14.51.22,1.04.29,1.56l.21,1.29c.02.15.04.29.07.45.09.88.24,2.2,1.78,6.11.32,2.35,3.54,4.01,5.47,4.77.51.2,1.02.32,1.53.43.4.09.81.17,1.21.32.59.23.96.67,1.5,1.24l1.35,1.46,3.13,3.32c.66.67,1.35,1.17,2.62,1.36,1.04.14,2.04.25,2.79,0,.69-.23,1.12-.73,1.43-1.1.1-.12.25-.3.32-.33.73-.38,1.24-.71,1.87-1.34l1.44-1.43c.27-.28.59-.46.99-.69.23-.14.46-.28.7-.43.3-.2.55-.42.79-.64.32-.28.48-.42.77-.52,1.19-.43,1.9-1.15,2.58-1.84l.35-.35c.85-.86,1.39-1.49,1.67-2.8.25-1.17.61-2.14,1.14-3.06.46-.8,1.21-1.57,1.94-2.32l.89-.95c1.43-1.59,2.37-3.7,2.54-5.79.22-2.53-1.45-3.86-3.13-5.34-.73-.7-1.32-1.25-2.03-2.1-.2-.23-.41-.41-.65-.6-.16-.13-.29-.23-.38-.34-.19-.26-.29-.58-.4-.96-.1-.34-.21-.68-.37-1-.56-1.15-1.51-2.2-2.56-3.08-1-.84-2.08-1.51-3.01-1.93Zm5.22,9.11c.12.09.24.18.34.3.76.93,1.29,1.6,2.37,2.47,1.51,1.31,2.42,2.14,2.31,3.51-.13,1.56-.81,3.12-1.86,4.28l-.83.87c-.84.86-1.7,1.76-2.32,2.84-.67,1.15-1.09,2.39-1.44,3.78-.18.71-.37.97-.98,1.57l-.38.38c-.57.58-.95.96-1.58,1.19-.77.27-1.24.69-1.62,1.03-.15.14-.3.28-.5.4l-.56.34c-.48.28-1.02.59-1.54,1.13l-1.42,1.41c-.38.39-.65.56-1.21.85-.51.27-.85.66-1.1.96-.1.11-.25.27-.28.31-.32.1-1.41-.05-1.89-.11-.54-.07-.85-.24-1.33-.73l-3.11-3.25-1.35-1.44c-.62-.66-1.25-1.34-2.27-1.74-.51-.2-1.03-.3-1.54-.4-.39-.08-.78-.15-1.18-.3-2.41-.95-4.13-2.25-4.2-3.14l-.07-.3c-1.47-3.7-1.69-4.95-1.78-5.72-.04-.22-.07-.42-.1-.62l-.19-1.13c-.09-.62-.18-1.25-.35-1.85-.32-1.12-.29-1.15-.01-1.45l.94-.93c.41-.38.81-.76,1.18-1.17.5-.56.82-1.2,1.11-1.76.26-.52.51-1,.85-1.36l1.37-1.37,2.11-2.08c.96-.89,1.76-1.91,2.63-2.88.35-.4.42-.45.85-.59l.35-.09c.29-.07.62-.16.96-.32.22-.12.39-.22.56-.31.09-.05.22-.13.25-.14,0,0,.1-.02.39.07.2.07.38.14.56.2.62.23,1.39.53,2.38.22.83-.26,1.26-.84,1.57-1.27.14-.2.28-.38.38-.43.28-.12,1.3.11,1.84.24.49.11.95.21,1.34.25,1.36.13,2.72.52,4.15,1.17,1.86.85,3.82,2.59,4.53,4.08.11.23.18.47.25.7.15.49.31,1.05.71,1.59.16.22.34.4.5.54l.24.2Z"/>
      </g>
      <g>
        <path class="cls-3" d="m310.26,472.76c-2.67,1.13-2.07,6.93-3.19,9.47-1.89,4.89-2.3,4.46,1.41,9.17,2.08,2.56,3.03,6.42,4.78,9.95.84,1.77,1.82,3.47,3.04,4.93,1.11,1.47,2.52,2.7,4.36,3.51,4.16,1.83,8.79,1.58,14,.61,7.47-1.37,8.88-3.95,8.27-10.34-.47-4.42-.25-8.77-.18-13.16-.15-4.33-.56-8.67-1.87-13.01-1.77-6.06-3.57-6.58-10.89-5.04-5.09,1.04-11.19-.05-19.74,3.91Z"/>
        <path class="cls-1" d="m309.81,471.76c-2.4,1.05-2.77,4.38-3.09,7.26-.18,1.12-.39,2.18-.65,2.86l-.45,1.13c-1.65,4.11-1.56,4.52,2,9.02,1.3,1.53,2,3.63,2.96,5.84,2.08,4.89,4.32,10.49,9.65,12.93,4.63,2.05,9.77,1.65,14.63.76,8.21-1.45,9.79-4.82,9.17-11.58-.39-3.66-.3-7.37-.22-10.99.14-5.08-.38-10.24-1.88-15.46-2.1-7.02-4.86-7.43-12.21-5.84-1.56.34-3.3.45-5.14.58-2.88.2-6.27.49-10.21,1.72-1.45.45-2.96,1.03-4.56,1.77Zm11.3,37.01c-4.43-2.01-6.6-6.97-8.52-11.73-.96-2.34-1.81-4.55-3.24-6.27-3.03-3.86-3.01-3.8-1.72-7.04l.45-1.15c.34-.88.54-2.03.76-3.27.34-2.12.57-5.02,1.85-5.55h.03c5.62-2.57,10.12-2.93,14.11-3.18,1.92-.12,3.74-.23,5.45-.58,7.13-1.48,8.06-.91,9.57,4.23,1.41,4.84,1.85,9.57,1.77,14.64-.08,3.68-.18,7.45.22,11.26.59,5.59-.28,7.75-7.38,9.1-1.51.29-2.94.51-4.31.64-3.35.33-6.31.09-9.05-1.1Z"/>
      </g>
      <g>
        <path class="cls-3" d="m333.08,532.51c-1.1-.03-1.99-.11-2.99.21-.88.27-1.73.53-2.57.79-1.2.33-2.23.56-3.24,1.31-1.07.79-2.23,1.28-2.88,2.27-.41.62-.04.75-1.06.94-.53.1-1.01.04-1.55.18-.64.17-1.01.43-1.53.72-.65.36-1.34.56-1.99.87-.8.38-1.16.87-1.81,1.38-.41.32-.72.27-1.07.64-.52.55-.39,1.36-.6,1.98-.29.85-.36,1.68-.61,2.55-.29.97-1.08,1.86-1.4,2.81-.11.32,0,.68-.1.99-.18.5-.62.88-.77,1.39-.26.88-.11,1.83-.5,2.68-.75,1.66-.91,3.41-1.17,5.2-.48,1.99-.97,3.9-1.02,5.96-.06,2.28-1.81,4.95,2.04,6.69,1.07.48,1.89,1.05,2.62,1.88,1.2,1.42,1.23,3.11,2.46,4.5,1.71,1.94,4.92,2.13,7.46,2.2,1.7.05,2.64.09,3.17-1.27.42-.96.08-2.63,1.72-2.55.93.05,2.25.64,3.18.89,1.31.35,2.77.6,4.04,1.06.86.31,3.21,1.52,3.51,2.32.34,1.05-1.38,2.11-.5,3.18.8.97,4.42.54,5.18-.06.88-.64.93-2.52,1.13-3.51.4-1.66.84-3.17.77-4.87-.03-.62,0-1.12-.19-1.75-.23-.79-.88-1.27-1.17-1.94-1.16-2.67,2.43-3.04,3.65-4.73.41-.52.64-1.6.84-2.21.28-.87.39-1.74.52-2.65l.74-4.8c.22-1.44.88-3.18.64-4.63-.16-.95-1.02-1.3-1.41-2.11-.18-.7-.44-1.42-.66-2.12-.45-.74-.84-1.5-1.18-2.27-.15-.65.16-1.15.13-1.77-.05-1.13-.88-2.1-.86-3.27.04-1.71.79-3.03-1.1-4.27-1.01-.66-2.25-.92-3.27-1.55-.75-.44-1.06-1.11-6.6-3.27Z"/>
        <path class="cls-1" d="m329.6,531.67c-.82.25-1.61.49-2.63.81-1.17.32-2.27.61-3.31,1.45l-.88.6c-.83.53-1.69,1.07-2.28,1.98-.11.16-.18.31-.24.44,0,0-.05.01-.08.02l-.54.05c-.32.02-.69.04-1.1.15-.67.18-1.12.44-1.54.69l-.26.15c-.33.18-.67.32-1.01.45l-.93.39c-.69.33-1.13.73-1.52,1.08-.16.14-.32.27-.51.43-.07.05-.12.08-.25.13-.24.1-.59.25-.93.61-.57.6-.66,1.31-.73,1.83-.02.18-.04.35-.09.51-.18.52-.29,1.03-.39,1.55-.08.34-.15.67-.23,1.03-.1.41-.33.81-.57,1.2-.32.54-.62,1.07-.82,1.62-.11.32-.11.61-.1.98-.04.12-.14.27-.26.43-.18.26-.41.59-.53,1-.13.44-.18.9-.22,1.35-.04.46-.08.86-.23,1.19-.69,1.53-.92,3.11-1.13,4.64-.06.4-.1.81-.21,1.21-.44,1.82-.89,3.69-.93,5.69-.01.47-.11.96-.2,1.46-.34,1.8-.85,4.51,2.92,6.24.97.44,1.62.93,2.18,1.6.47.57.73,1.22,1.02,1.91.33.83.71,1.77,1.47,2.64,2.04,2.34,5.74,2.53,8.29,2.61,1.72.06,3.35.11,4.19-2.02.12-.31.2-.67.27-1.05.04-.24.13-.64.37-.72.48.03,1.22.29,1.87.51.95.33,1.71.53,2.55.73.85.21,1.7.41,2.49.69.92.34,2.58,1.32,2.8,1.54-.02.09-.15.33-.23.49-.34.64-1.05,1.95-.05,3.17,1.25,1.58,5.56.91,6.6.09.99-.8,1.36-2.2,1.48-3.38.05-.32.1-.61.14-.85l.16-.64c.36-1.45.72-2.97.66-4.65v-.32c-.03-.53-.04-1.07-.24-1.75-.19-.67-.55-1.14-.84-1.52-.16-.21-.31-.41-.38-.57-.12-.28-.14-.45-.11-.52.1-.3.89-.78,1.41-1.09.79-.47,1.61-.98,2.18-1.77.43-.57.73-1.42.91-2.12l.12-.41c.28-.9.41-1.78.58-2.89l.49-3.2.25-1.61c.08-.41.17-.85.27-1.3.27-1.18.58-2.53.37-3.81-.16-.93-.68-1.49-1.06-1.89-.2-.2-.37-.4-.38-.33l-.81-2.41c-.42-.69-.78-1.39-1.02-1.88-.01-.06.01-.2.06-.42.06-.29.14-.66.12-1.1-.03-.77-.29-1.43-.52-2-.18-.46-.34-.86-.34-1.19.03-.34.06-.66.09-.97.16-1.27.37-3.04-1.71-4.39-.57-.37-1.2-.62-1.83-.88-.5-.2-1-.39-1.45-.66-.11-.08-.22-.15-.34-.24-.7-.47-1.88-1.3-6.47-3.06l-.77-.08h-.47c-.8-.03-1.59.01-2.59.34Zm9.05,4.84c.17.12.32.22.47.32.55.34,1.15.59,1.76.84.52.21,1.03.42,1.5.72.86.57.83.84.69,1.97-.05.39-.09.79-.1,1.23-.02.9.28,1.65.53,2.26.16.4.31.78.33,1.08,0,.09-.03.24-.06.39-.08.4-.2.95.04,1.86.35.81.78,1.62,1.14,2.16.28.78.51,1.56.7,2.33.24.51.58.87.86,1.16.26.28.42.45.45.62.12.72-.11,1.7-.33,2.65-.11.53-.21,1.03-.31,1.51l-.24,1.58c-.16,1.06-.32,2.13-.53,3.46-.11.76-.22,1.47-.43,2.14l-.14.47c-.13.44-.34,1.17-.51,1.42-.26.36-.86.73-1.44,1.08-1.01.61-2.15,1.3-2.56,2.58-.24.75-.18,1.56.19,2.41.18.43.44.77.67,1.07.21.27.39.51.45.73.1.36.11.64.12,1.08v.36c.07,1.26-.22,2.44-.55,3.8l-.16.65c-.08.32-.13.71-.19,1.13-.05.49-.24,1.49-.43,1.66-.67.41-3.36.61-3.79.32.02-.09.15-.34.24-.5.3-.58.81-1.44.41-2.45-.6-1.59-4.15-2.95-4.15-2.95-.86-.31-1.8-.52-2.72-.73-.78-.18-1.48-.33-2.36-.64-.79-.26-1.67-.56-2.44-.59-2.27-.1-2.44,1.98-2.64,2.74-.04.21-.07.43-.15.61-.18.47-.22.56-2.07.51-2.23-.05-5.27-.17-6.71-1.8-.51-.58-.78-1.25-1.08-2.01-.29-.77-.68-1.64-1.42-2.47-.81-.91-1.77-1.59-3.01-2.14-2.06-.92-1.98-1.91-1.6-3.89.11-.61.23-1.21.24-1.8.05-1.82.46-3.54.9-5.36.11-.41.16-.82.22-1.24.21-1.48.41-2.88.99-4.18.28-.64.34-1.27.39-1.83.03-.33.06-.67.15-.99.03-.12.14-.28.26-.45.16-.24.37-.54.5-.91.11-.32.11-.62.1-1,.15-.43.4-.85.65-1.28.29-.5.6-1,.76-1.53.09-.41.18-.8.27-1.19.09-.44.17-.88.33-1.32.09-.27.14-.58.18-.9.04-.31.08-.6.4-.84.19-.08.45-.19.74-.41.23-.19.43-.36.62-.53.34-.31.59-.53.98-.71l.78-.33c.43-.16.85-.33,1.27-.56l.3-.17c.36-.21.59-.35.97-.44.2-.05.42-.06.67-.08.26-.01.52-.03.8-.07.86-.16,1.38-.39,1.79-1.43.32-.49.9-.86,1.58-1.29l1.01-.68c.75-.56,1.58-.77,2.89-1.1.82-.24,1.65-.49,2.65-.79.7-.22,1.37-.19,2.21-.16h.26c4.2,1.7,5.13,2.43,5.74,2.85Z"/>
      </g>
      <g>
        <path class="cls-3" d="m62.39,879.67c2.6.83,6.37-3.68,8.72-4.94,4.62-2.43,4.5-1.89,4.92-7.83.69-6.42,6.34-14.8,3.04-22-1.98-4.13-5.67-6.93-10.25-9.57-6.64-3.85-9.12-2.69-13.04,2.32-4.92,7.3-12.17,12.5-15.61,21.07-2.52,5.83-1.86,7.28,4.73,10.95,4.49,2.55,8.47,7.41,17.49,10Z"/>
        <path class="cls-1" d="m62.11,880.72c2.48.77,4.84-1.5,7.21-3.33.88-.71,1.7-1.39,2.34-1.73l1.06-.56c3.94-2,3.94-2.44,4.41-8.08.21-1.92.91-4.08,1.67-6.39,1.53-5.17,3.82-10.8,1.27-16.23-2.19-4.6-6.38-7.61-10.64-10.09-7.26-4.25-10.36-2.61-14.51,2.67-2.07,3.02-4.53,5.76-6.93,8.44-3.46,3.67-6.69,7.82-8.82,12.88-2.93,6.78-1.55,8.74,5.2,12.43,1.4.77,2.8,1.83,4.28,2.94,2.33,1.74,5.08,3.75,8.87,5.39,1.39.6,2.91,1.16,4.6,1.65Zm15.97-35.32c1.09,2.27,1.13,4.65.65,7.06-.34,2.48-1.17,5.01-1.99,7.48-.8,2.43-1.56,4.71-1.79,6.85-.32,4.86-.2,4.85-3.29,6.44l-1.08.57c-.82.44-1.72,1.18-2.68,1.97-1.64,1.37-3.99,3.26-5.2,2.86h-.03c-5.89-1.76-9.59-4.45-12.71-6.87-1.5-1.16-2.92-2.27-4.44-3.13-6.36-3.58-6.47-4.54-4.33-9.49,1.99-4.67,4.9-8.51,8.37-12.18,2.44-2.72,4.95-5.5,7.1-8.65,3.43-4.39,5.23-5.6,11.57-1.97,1.33.76,2.57,1.52,3.69,2.31,2.76,1.93,4.86,4.03,6.16,6.75Z"/>
      </g>
      <g>
        <path class="cls-3" d="m84.11,819.41c.84.71,1.48,1.33,2.48,1.7.86.34,1.69.67,2.52.99,1.16.5,2.11.95,3.33.95,1.28-.01,2.54.35,3.66-.06.71-.25.51-.58,1.43-.1.48.25.82.59,1.34.8.62.26,1.07.27,1.67.35.75.1,1.42.36,2.14.51.87.18,1.49,0,2.33-.02.53-.01.75.22,1.27.13.77-.14,1.19-.88,1.76-1.26.78-.52,1.38-1.16,2.14-1.72.85-.63,1.97-.99,2.79-1.63.27-.21.39-.6.66-.81.43-.34,1.06-.39,1.5-.74.78-.59,1.25-1.47,2.11-1.97,1.67-.97,2.92-2.35,4.28-3.7,1.53-1.52,3.04-2.97,4.27-4.79,1.37-1.99,4.58-3.29,2.28-6.84-.63-.98-1-1.9-1.14-2.99-.24-1.89.63-3.42.31-5.28-.44-2.59-3.09-4.4-5.21-5.78-1.42-.92-2.19-1.45-3.33-.54-.81.64-1.44,2.22-2.81,1.24-.77-.54-1.56-1.74-2.21-2.45-.92-1-2.02-1.99-2.85-3.05-.56-.72-1.89-2.97-1.72-3.76.23-1.07,2.19-1.06,1.96-2.43-.2-1.24-3.45-2.79-4.37-2.69-1.01.1-2,1.59-2.72,2.23-1.21,1.09-2.37,2.03-3.21,3.41-.31.5-.58.89-.75,1.52-.21.78.08,1.53-.02,2.25-.41,2.85-3.54,1.16-5.4,1.86-.58.22-1.4.89-1.89,1.25-.71.51-1.29,1.12-1.9,1.74l-3.29,3.27c-1,.96-2.47,1.96-3.04,3.29-.38.87.12,1.65,0,2.54l-.7,2.03c-.08.84-.21,1.65-.4,2.45-.26.59-.81.78-1.16,1.27-.63.89-.55,2.14-1.27,3.02-1.05,1.29-2.43,1.83-1.68,3.95.4,1.13,1.2,2.09,1.64,3.22.33.81.25,1.58,3.2,6.67Z"/>
        <path class="cls-1" d="m86.31,822.24c.8.32,1.57.62,2.57,1.01,1.11.48,2.17.93,3.52.93l1.04.05c.95.06,1.95.15,3-.21.19-.06.34-.13.47-.2,0,0,.05.02.08.04l.46.28c.27.19.57.39.97.56.65.27,1.16.33,1.66.38l.31.04c.38.05.73.15,1.08.25l.99.25c.76.15,1.36.09,1.9.04.21-.01.43-.03.69-.05.09,0,.15.01.29.04.25.06.63.15,1.14.06.84-.15,1.38-.67,1.77-1.06.13-.13.26-.27.4-.36.48-.32.9-.68,1.32-1.04l.86-.7c.36-.27.78-.48,1.2-.69.57-.29,1.13-.58,1.61-.95.28-.22.44-.48.65-.81.1-.08.27-.15.46-.23.31-.12.71-.26,1.07-.54.39-.3.72-.66,1.04-1.02.33-.36.61-.68.95-.88,1.55-.89,2.74-2.1,3.9-3.27l.92-.92c1.41-1.4,2.86-2.84,4.05-4.61.27-.42.65-.8,1.04-1.17,1.4-1.36,3.51-3.42,1.29-6.89-.56-.88-.87-1.67-.98-2.55-.09-.75.03-1.47.16-2.24.16-.91.34-1.95.14-3.1-.52-3.11-3.6-5.16-5.72-6.55-1.43-.94-2.79-1.83-4.58-.42-.26.2-.51.48-.76.77-.16.18-.43.49-.68.42-.39-.28-.88-.9-1.31-1.43-.63-.79-1.17-1.35-1.78-1.97-.61-.63-1.23-1.25-1.74-1.91-.59-.76-1.5-2.49-1.58-2.78.06-.07.29-.2.44-.29.6-.36,1.84-1.1,1.58-2.66-.29-1.99-4.24-3.68-5.5-3.55-1.22.13-2.15,1.15-2.89,1.98-.21.22-.4.42-.56.59l-.47.42c-1.06.94-2.16,1.92-2.99,3.29l-.16.26c-.26.44-.51.9-.7,1.56-.18.65-.12,1.24-.08,1.72.03.26.05.51.02.68-.04.29-.12.45-.17.49-.23.2-1.12.14-1.71.11-.89-.05-1.81-.1-2.68.23-.63.24-1.31.76-1.87,1.17l-.33.25c-.73.53-1.33,1.13-2.08,1.88l-2.19,2.18-1.1,1.09c-.3.26-.61.55-.94.84-.89.73-1.82,1.68-2.35,2.82-.37.84-.25,1.6-.16,2.16.05.28.07.53.12.48l-.77,2.32c-.08.78-.2,1.54-.3,2.05-.03.06-.13.15-.29.28-.22.19-.5.42-.74.77-.43.61-.61,1.27-.77,1.84-.13.47-.24.87-.44,1.12-.23.24-.44.47-.64.69-.88.88-2.09,2.09-1.27,4.41.23.64.59,1.24.94,1.83.28.47.56.93.76,1.44.04.13.09.26.13.41.26.8.67,2.16,3.14,6.38l.55.55.36.3c.61.51,1.26.98,2.24,1.34Zm-4.15-9.44c-.06-.2-.12-.36-.18-.54-.23-.6-.55-1.17-.88-1.73-.28-.48-.56-.96-.74-1.48-.34-.97-.15-1.15.63-1.94.27-.27.55-.55.82-.88.55-.67.76-1.44.93-2.06.11-.41.22-.79.39-1.03.05-.07.16-.16.28-.26.3-.26.72-.61,1.08-1.44.2-.83.34-1.71.37-2.34l.76-2.25c.08-.56,0-1.05-.06-1.44-.06-.38-.09-.62-.03-.77.3-.64.98-1.34,1.69-1.93.38-.34.75-.67,1.1-.98l1.09-1.08c.73-.73,1.46-1.46,2.37-2.37.52-.52,1-1.01,1.55-1.4l.38-.28c.35-.26.93-.7,1.21-.81.4-.15,1.07-.11,1.73-.08,1.14.06,2.42.14,3.42-.7.58-.49.94-1.19,1.07-2.1.07-.46.03-.88,0-1.25-.03-.34-.06-.63,0-.85.09-.35.25-.57.47-.93l.18-.29c.62-1.03,1.48-1.79,2.48-2.68l.47-.42c.23-.21.49-.48.75-.78.31-.35.96-1.07,1.2-1.12.75.01,3.11,1.27,3.32,1.74-.06.07-.29.21-.44.3-.54.32-1.35.81-1.57,1.81-.34,1.59,1.92,4.63,1.92,4.63.56.72,1.24,1.4,1.91,2.08.56.57,1.07,1.08,1.65,1.81.52.64,1.1,1.36,1.74,1.81,1.86,1.3,3.22-.26,3.74-.85.14-.16.28-.33.43-.45.39-.31.47-.37,2.01.63,1.86,1.2,4.39,2.87,4.76,5.05.13.78,0,1.51-.14,2.35-.15.85-.31,1.81-.18,2.88.16,1.2.58,2.28,1.31,3.42,1.22,1.89.54,2.69-.98,4.17-.48.45-.91.94-1.25,1.45-1.08,1.6-2.4,2.91-3.81,4.31l-.94.94c-1.11,1.12-2.17,2.18-3.47,2.94-.64.37-1.08.87-1.48,1.31-.24.26-.47.53-.75.75-.1.08-.29.15-.5.22-.28.11-.65.23-.97.48-.28.22-.45.48-.66.82-.38.29-.82.51-1.27.74-.53.27-1.05.54-1.51.88-.34.28-.66.54-.99.81-.35.31-.7.61-1.11.88-.25.17-.49.39-.73.62-.23.23-.45.45-.86.44-.2-.05-.48-.12-.86-.11-.3.02-.58.04-.84.05-.47.04-.81.08-1.24-.01l-.83-.21c-.44-.13-.89-.25-1.37-.31l-.35-.04c-.41-.05-.69-.08-1.05-.23-.19-.08-.37-.2-.58-.35-.21-.15-.43-.29-.68-.43-.78-.4-1.34-.53-2.31.05-.56.2-1.25.13-2.05.06l-1.22-.08c-.94-.02-1.69-.35-2.91-.88-.79-.31-1.58-.63-2.55-1.01-.69-.27-1.2-.7-1.83-1.25l-.2-.17c-2.26-3.93-2.62-5.14-2.83-5.82Z"/>
      </g>
      <g>
        <path class="cls-3" d="m137.04,765.67c0,1.98,3.18,3.74,4.5,4.38.88.43,1.76.51,2.63.95.89.45,1.36,1.17,1.98,1.97l3.79,4.81c.54.66,1,1.02,1.78,1.24.61.17,1.74.52,2.33.42.65-.11.99-.83,1.61-1.03.63-.21,1.03-.38,1.57-.79l1.48-1.12c.61-.47,1.23-.6,1.91-.92.68-.32,1.04-.78,1.85-.93,1.05-.18,1.64-.75,2.46-1.36.74-.55,1.12-.93,1.47-1.86.42-1.13.95-2.09,1.72-2.92.92-1.03,2.29-1.73,3.42-2.52,1.37-.95,2.47-2.44,2.98-4.18.55-1.88-.5-3.32-1.68-4.99-.67-.96-1.05-1.68-1.53-2.7-.21-.45-.57-.74-.77-1.22-.31-.77-.18-1.52-.33-2.29-.42-2.05-2.1-4.39-3.71-5.7-1.28-1.03-2.63-1.8-4.08-2.28-1.07-.35-2.69-1.48-3.71-1.17-.84.25-1.25,1.17-2.19,1.26-.93.09-1.41-.45-2.23-.88-1.02-.53-1.25-.17-2.17.07-.42.11-.86.09-1.29.14-.75.09-1.04.23-1.64.67l-4.99,3.73-2.65,2c-1.07.86-1.6,2.15-2.62,3.02-.81.69-1.73,1.25-2.56,1.92-.87.72-.82,1.3-.66,2.52.13.99.03,2.02.1,2.98.07.94-.28,1.77,1.24,6.77Z"/>
        <path class="cls-1" d="m141.01,771.07c.49.24.98.38,1.47.53.39.11.77.22,1.15.41.55.28.89.72,1.38,1.36l1.25,1.61,2.81,3.53c.61.74,1.22,1.27,2.38,1.59.98.29,2,.56,2.76.44.68-.11,1.13-.52,1.46-.81.1-.09.26-.24.33-.26.73-.25,1.25-.47,1.9-.97l1.48-1.12c.28-.22.59-.34.99-.5l.7-.29c.31-.14.56-.31.81-.47.32-.21.49-.32.76-.37,1.16-.2,1.88-.75,2.58-1.29l.36-.27c.88-.66,1.41-1.2,1.85-2.37.38-1.06.88-1.87,1.53-2.59.56-.63,1.4-1.16,2.22-1.68l.99-.65c1.61-1.12,2.86-2.86,3.42-4.79.64-2.18-.37-3.85-1.54-5.52-.11-.15-.22-.32-.32-.46-.59-.85-.93-1.49-1.4-2.5-.13-.28-.29-.51-.47-.74-.13-.16-.22-.29-.28-.43-.12-.3-.14-.64-.16-1.04-.02-.35-.04-.71-.11-1.06-.5-2.47-2.45-5-4.07-6.31-1.43-1.15-2.86-1.95-4.4-2.45-.29-.1-.63-.26-.99-.43-1.07-.51-2.28-1.09-3.42-.74-.63.19-1.06.55-1.4.85-.29.25-.43.35-.56.37-.27.03-.45-.07-.93-.37l-.66-.39c-1.13-.59-1.8-.43-2.55-.16-.13.04-.28.09-.45.15-.15.04-.37.05-.59.06l-.53.04c-1.01.12-1.51.37-2.24.9l-3.4,2.54-2.53,1.9-1.74,1.33c-.68.55-1.17,1.22-1.6,1.8-.35.48-.68.92-1.06,1.25-.4.34-.82.64-1.25.94l-1.29.97c-1.43,1.17-1.27,2.34-1.1,3.58.07.53.07,1.06.07,1.59,0,.45,0,.89.03,1.32,0,.15,0,.3,0,.46.02.92.03,2.32,1.26,6.4.05.77.41,1.48.92,2.12,1.17,1.45,3.14,2.52,4.18,3.02Zm28.09-20.18c.05.25.06.49.07.74.03.51.06,1.1.32,1.72.16.38.38.66.54.9.09.12.19.24.25.38.52,1.08.88,1.73,1.71,2.97,1.18,1.65,1.83,2.67,1.46,3.94-.43,1.45-1.35,2.74-2.55,3.57l-.92.61c-.95.6-1.93,1.23-2.7,2.09-.84.9-1.42,1.97-1.91,3.26-.25.66-.45.88-1.08,1.34l-.39.3c-.59.46-.98.76-1.6.87-.75.13-1.23.45-1.62.71-.16.1-.31.21-.52.31l-.57.24c-.48.19-1.02.4-1.56.82l-1.47,1.12c-.39.3-.67.43-1.24.62-.51.17-.85.49-1.13.74-.11.09-.26.23-.29.25-.22.03-.82-.1-1.83-.39-.51-.15-.79-.35-1.24-.89l-2.75-3.49-1.24-1.6c-.56-.71-1.11-1.46-2.1-1.97-.5-.25-1-.42-1.51-.57-.38-.12-.78-.24-1.16-.42-2.25-1.09-3.91-2.53-3.9-3.44l-.05-.31c-1.19-3.92-1.15-5.09-1.16-5.9,0-.22-.01-.42-.02-.63l-.02-1.15c0-.63,0-1.26-.08-1.89-.16-1.16-.12-1.19.22-1.47l1.15-.86c.48-.34.97-.69,1.41-1.07.61-.52,1.06-1.14,1.46-1.69.37-.5.71-.97,1.13-1.31l1.65-1.26,2.54-1.91,3.43-2.55c.47-.34.56-.38,1.04-.43l.38-.03c.32-.02.69-.04,1.08-.14.26-.08.47-.15.66-.21.11-.04.25-.08.29-.1,0,0,.1,0,.39.15.18.11.36.21.53.31.56.35,1.27.79,2.34.69.9-.09,1.49-.58,1.92-.95.19-.16.38-.32.5-.36.32-.06,1.3.41,1.78.63.45.22.88.42,1.25.54,1.3.42,2.53,1.11,3.76,2.09.72.58,1.41,1.35,1.98,2.17.68.98,1.19,2.04,1.37,2.92Z"/>
      </g>
      <g>
        <path class="cls-3" d="m29.77,909.76c-2.86-.26-5.63,5.99-7.27,8.44-3.55,4.66-3.81,4.27-2.07,10.98.89,3.62,1.56,8.41,2.47,12.84.49,2.21,1.13,4.33,2.08,6.14,1.09,1.81,2.51,3.31,4.35,4.31,4.16,2.25,8.79,2,14.01,1.24,7.7-1.12,8.53-3.2,8.99-8.63.34-3.77,1.34-7.34,2.19-10.84,1.12-3.49,2.27-6.9,2.4-10.62.11-5.2-.51-6.19-7.93-8.12-5.01-1.26-9.79-5.18-19.23-5.72Z"/>
        <path class="cls-1" d="m29.9,908.54c-2.62-.23-4.69,3-6.52,5.93-.64,1.13-1.18,2.23-1.69,2.88l-.83,1.08c-3.05,3.96-3.15,4.72-1.48,11.18.48,2.2,1.12,4.91,1.54,7.74.53,3.13,1.09,6.44,2.18,9.34,1.06,2.91,3.1,5.37,5.77,6.85,4.62,2.48,9.76,1.99,14.64,1.25,8.43-1.3,9.46-4.01,9.91-9.67.28-3.09,1.04-6.11,1.76-8.99.94-4.05,2.76-8.03,2.83-12.45.19-5.95-1.22-7.25-8.72-9.25-1.54-.42-3.12-1.1-4.8-1.84-2.63-1.15-5.72-2.57-9.75-3.42-1.48-.31-3.09-.54-4.86-.64Zm-.11,42.85c-4.8-2.49-5.67-8.57-6.73-14.51-.49-2.93-1.03-5.73-1.57-8.15-1.42-5.44-1.41-5.52.99-8.62l.84-1.09c.64-.83,1.25-2.01,1.9-3.24,1.2-2.13,3.09-4.92,4.41-4.82h.03c6.21.28,10.31,2.16,13.94,3.69,1.75.75,3.41,1.43,5.1,1.86,7.13,1.81,7.26,2.51,7.15,6.99-.09,4.19-1.73,7.93-2.78,12.06-.74,2.99-1.52,6.14-1.82,9.43-.48,4.82-.73,6.57-8.08,7.59-1.52.21-2.96.37-4.33.45-3.36.18-6.32-.16-9.06-1.66Z"/>
      </g>
      <g>
        <path class="cls-3" d="m43.47,974.87c-1.08.2-1.96.29-2.9.82-.82.46-1.61.9-2.4,1.34-1.13.6-2.09,1.07-2.89,2.07-.82,1.06-1.91,1.89-2.16,3.09-.18.76.21.8-.7,1.27-.48.25-.96.32-1.42.62-.56.36-.82.75-1.21,1.22-.49.58-1.08,1-1.59,1.54-.62.66-.79,1.33-1.23,2.11-.27.49-.59.54-.78,1.07-.29.8.13,1.69.16,2.48.04,1.08.27,2.06.36,3.15.1,1.22-.17,2.53-.04,3.75.04.41.31.76.36,1.17.05.65-.16,1.27,0,1.89.24,1.09.88,2.05,1,3.17.23,2.18,1.04,4.19,1.77,6.28.82,2.36,1.59,4.66,2.8,6.84,1.38,2.36,1.92,6.11,6.03,5.24,1.15-.24,2.16-.25,3.27.02,1.92.48,3.14,1.9,5.04,2.23,2.63.46,5.13-1.59,7.1-3.18,1.32-1.07,2.06-1.64,1.56-2.99-.35-.96-1.65-2.06-.28-3.02.77-.53,2.17-.88,3.05-1.25,1.25-.52,2.56-1.22,3.84-1.64.86-.29,3.43-.83,4.11-.46.91.49.23,2.23,1.58,2.38,1.21.14,3.75-2.35,3.99-3.15.26-.9-.75-2.12-1.09-2.89-.57-1.31-1.03-2.54-2.01-3.62-.37-.4-.61-.74-1.05-1.08-.57-.43-1.35-.41-1.92-.73-2.28-1.3.6-3.39.85-5.13.08-.54-.13-1.44-.21-1.96-.11-.75-.37-1.42-.62-2.13l-1.32-3.77c-.45-1.12-.39-2.67-1.11-3.65-.47-.65-1.39-.6-2.03-1.08l-1.23-1.42c-.63-.43-1.21-.9-1.75-1.41-.33-.47-.17-.97-.37-1.46-.36-.89-1.43-1.43-1.74-2.39-.45-1.41-.1-2.66-2.28-3.22-1.11-.31-2.37-.24-3.5-.55-.81-.24-1.31-.65-7.02-1.55Z"/>
        <path class="cls-1" d="m39.92,974.75c-.76.42-1.5.82-2.45,1.34-1.09.57-2.12,1.1-3.01,2.22l-.71.83c-.67.75-1.39,1.54-1.7,2.66-.05.2-.07.37-.08.52,0,0-.05.03-.07.04l-.5.2c-.31.1-.65.23-1.01.45-.58.37-.92.77-1.24,1.17l-.2.24c-.25.29-.53.53-.8.78l-.75.71c-.54.57-.81,1.15-1.06,1.67-.1.2-.21.41-.33.65-.04.08-.09.13-.19.23-.19.19-.47.47-.66,1-.32.87-.14,1.73-.01,2.37.04.21.09.42.1.62.02.66.11,1.3.21,1.94.05.42.11.84.16,1.28.04.52,0,1.07-.03,1.61-.05.74-.08,1.48,0,2.2.05.41.18.75.36,1.16.01.15,0,.37-.04.6-.06.39-.09.85.03,1.36.12.55.33,1.08.54,1.6.21.53.4.99.45,1.43.22,2.03.88,3.9,1.52,5.71l.5,1.43c.76,2.18,1.54,4.44,2.73,6.58.25.52.52,1.06.79,1.62.96,2.01,2.43,5.07,6.47,4.19,1.03-.22,1.89-.22,2.79,0,.76.19,1.43.58,2.13,1,.84.49,1.79,1.04,2.96,1.24,3.14.54,5.99-1.88,7.96-3.49,1.33-1.09,2.6-2.11,1.84-4.22-.11-.31-.29-.63-.48-.95-.12-.2-.33-.55-.18-.76.4-.27,1.14-.53,1.79-.76.95-.33,1.67-.66,2.45-1.02.79-.37,1.59-.74,2.38-1.01.91-.31,2.84-.64,3.14-.62.04.07.09.31.12.47.13.63.4,1.94,1.93,2.12,1.93.23,4.83-2.85,5.17-3.95.32-1.08-.29-2.13-.79-2.96-.13-.23-.24-.45-.34-.63l-.22-.5c-.49-1.14-1-2.32-1.97-3.39l-.18-.2c-.29-.34-.54-.7-1.03-1.06-.48-.35-1.01-.49-1.44-.61-.24-.06-.46-.12-.6-.2-.23-.13-.33-.25-.35-.3-.06-.26.39-1,.68-1.48.45-.72.91-1.47,1.04-2.29.08-.59-.05-1.32-.15-1.9l-.06-.35c-.12-.77-.36-1.44-.67-2.31l-.87-2.49-.44-1.25c-.09-.32-.19-.68-.29-1.04-.2-.96-.33-2.06-.97-2.92-.46-.63-1.13-.86-1.63-1.02-.25-.08-.46-.18-.46-.11l-1.42-1.59c-.59-.4-1.13-.84-1.49-1.15-.03-.05-.05-.16-.06-.35-.03-.25-.06-.57-.2-.91-.25-.6-.68-1.05-1.05-1.43-.31-.32-.57-.59-.66-.86-.09-.28-.14-.55-.19-.8-.18-1.07-.57-2.51-2.8-3.15-.63-.17-1.29-.25-1.96-.32-.53-.06-1.06-.11-1.56-.25-.12-.04-.25-.08-.39-.13-.76-.28-2.01-.7-6.78-1.48l-.77.07-.47.08c-.78.14-1.56.33-2.48.85Zm9.72,2.56c.19.06.35.11.52.17.6.17,1.26.23,1.92.29.56.05,1.12.09,1.65.23,1,.25,1.04.48,1.23,1.45.07.33.14.68.25,1.04.24.74.74,1.28,1.15,1.7.27.28.52.54.62.78.03.07.04.2.05.34.03.35.08.83.56,1.49.56.54,1.19,1.05,1.68,1.35l1.38,1.57c.4.3.84.45,1.19.57.34.11.55.19.63.3.36.49.47,1.32.61,2.11.11.43.21.85.35,1.23l.44,1.26c.3.84.6,1.69.97,2.75.21.6.41,1.16.5,1.75l.07.4c.07.38.18,1,.14,1.27-.06.38-.4.92-.73,1.45-.57.92-1.22,1.99-.94,3.12.16.66.61,1.21,1.33,1.61.37.21.75.3,1.08.39.31.08.57.15.73.27.27.19.44.37.69.66l.2.23c.73.81,1.14,1.75,1.61,2.84l.22.52c.11.25.28.54.46.85.21.36.65,1.1.61,1.32-.28.64-2.25,2.39-2.76,2.46-.04-.07-.09-.31-.12-.47-.11-.56-.28-1.4-1.13-1.86-1.36-.73-4.99.37-4.99.37-.87.28-1.74.68-2.61,1.07-.73.33-1.38.63-2.27.92-.79.27-1.66.57-2.3,1-1.85,1.28-.79,3.09-.4,3.77.11.19.23.37.29.55.17.47.2.56-1.23,1.71-1.73,1.39-4.08,3.33-6.29,2.94-.79-.14-1.46-.53-2.23-.98-.78-.45-1.67-.97-2.76-1.25-1.22-.3-2.41-.32-3.74-.04-2.22.46-2.82-.56-3.86-2.73-.32-.67-.64-1.32-.94-1.95-1.06-1.9-1.76-3.93-2.51-6.07l-.5-1.44c-.61-1.71-1.18-3.33-1.36-5.02-.09-.83-.38-1.54-.63-2.17-.15-.38-.31-.75-.4-1.15-.03-.14-.02-.37,0-.6,0-.33.05-.75,0-1.23-.04-.41-.18-.74-.36-1.16-.06-.55-.01-1.12.02-1.7.04-.68.08-1.35.03-2.01-.06-.5-.12-.98-.18-1.46-.08-.53-.16-1.06-.17-1.62-.01-.34-.08-.71-.15-1.08-.07-.36-.14-.71.07-1.09.15-.15.36-.36.55-.71.15-.29.28-.55.4-.79.21-.45.37-.78.68-1.1l.62-.6c.35-.31.69-.62,1.01-1l.23-.28c.27-.33.44-.54.77-.75.17-.11.38-.19.61-.27.24-.09.48-.18.74-.31.77-.41,1.19-.8,1.23-1.98.14-.59.57-1.12,1.1-1.73l.81-.95c.59-.76,1.35-1.16,2.55-1.8.75-.42,1.51-.85,2.43-1.37.65-.37,1.31-.49,2.13-.64l.26-.05c4.39.68,5.5,1.05,6.17,1.29Z"/>
      </g>
      <g>
        <path class="cls-3" d="m99.11,1097.68c.85-.69,1.59-1.2,2.15-2.11.51-.79.99-1.55,1.47-2.3.72-1.05,1.35-1.9,1.6-3.12.26-1.29.8-2.43.6-3.61-.13-.74-.49-.6.14-1.41.33-.43.73-.7,1.03-1.17.36-.56.45-1,.63-1.58.23-.72.6-1.32.87-2,.32-.83.25-1.46.37-2.29.08-.52.34-.7.34-1.22,0-.79-.69-1.34-.97-1.97-.39-.87-.93-1.58-1.37-2.42-.51-.95-.65-2.13-1.09-3.1-.15-.32-.5-.51-.65-.83-.24-.51-.2-1.11-.46-1.61-.46-.87-1.25-1.48-1.6-2.42-.67-1.81-1.83-3.28-2.94-4.85-1.25-1.77-2.43-3.51-4.02-5.02-1.78-1.66-2.4-5.03-6.3-3.39-1.07.45-2.04.66-3.13.61-1.89-.09-3.23-1.21-5.12-1.22-2.62-.03-4.88,2.25-6.61,4.1-1.16,1.23-1.82,1.89-1.13,3.18.49.92,1.92,1.82.72,2.99-.67.66-1.99,1.23-2.8,1.75-1.14.73-2.32,1.64-3.51,2.27-.8.42-3.26,1.34-4.01,1.02-1.01-.43-.66-2.36-2.05-2.39-1.26-.03-3.35,2.91-3.42,3.83-.08,1.03,1.22,2.28,1.73,3.11.86,1.4,1.59,2.73,2.8,3.81.45.39.81.71,1.39.99.73.34,1.52.18,2.21.4,2.74.89.54,3.67.91,5.61.12.6.64,1.52.91,2.07.38.79.88,1.46,1.39,2.16l2.66,3.78c.8,1.13,1.48,2.77,2.61,3.6.74.55,1.61.18,2.46.45l1.87,1.02c.81.21,1.59.48,2.34.79.53.35.63.92,1.05,1.34.77.76,2.02.89,2.76,1.73,1.08,1.24,1.37,2.66,3.6,2.3,1.19-.19,2.3-.81,3.48-1.03.85-.16,1.56.06,7.07-1.83Z"/>
        <path class="cls-1" d="m73.2,1053.96c-1.18,1.25-2.3,2.42-1.23,4.44.16.29.38.59.62.89.15.19.4.51.29.74-.35.35-1.04.71-1.63,1.04-.88.48-1.55.92-2.27,1.41-.72.48-1.44.98-2.17,1.37-.85.45-2.72,1.04-3.02,1.06-.06-.07-.15-.32-.21-.49-.25-.66-.76-2.03-2.34-2.06-2.01-.07-4.38,3.51-4.47,4.79-.09,1.24.77,2.35,1.45,3.25.18.24.34.47.48.66l.34.55c.75,1.22,1.51,2.5,2.72,3.56l.24.19c.39.32.8.66,1.42.95.62.29,1.21.33,1.68.37.26.02.51.03.67.09.28.09.42.19.46.25.15.26-.05,1.13-.18,1.7-.2.86-.4,1.76-.23,2.67.12.65.51,1.41.82,2.01l.2.39c.4.82.89,1.51,1.5,2.36l1.72,2.44.94,1.34c.21.33.43.7.67,1.07.59.99,1.25,2.12,2.26,2.85.73.53,1.52.51,2.07.52.29,0,.55.02.5-.03l1.87,1.02.28.11c.75.2,1.47.44,1.96.62.05.04.12.15.23.33.15.25.32.55.62.85.53.53,1.14.81,1.68,1.06.44.2.81.38,1.02.61.19.26.38.5.56.73.71,1,1.69,2.38,4.13,1.99.67-.11,1.31-.34,1.95-.57.51-.18,1.01-.37,1.54-.47.13-.02.26-.03.41-.05.82-.09,2.2-.24,6.78-1.82l.68-.46c.74-.61,1.44-1.15,2.12-2.25.46-.72.9-1.41,1.35-2.1l.17-.25c.68-1,1.32-1.94,1.59-3.28l.26-1.04c.26-.94.53-1.91.35-2.99-.03-.19-.08-.35-.12-.49,0,0,.03-.04.05-.07l.36-.39c.23-.23.49-.49.72-.85.37-.58.52-1.06.66-1.53l.09-.31c.12-.37.28-.71.44-1.04l.41-.9c.28-.71.32-1.32.36-1.85.02-.21.04-.43.06-.67.01-.09.04-.15.1-.28.1-.24.26-.59.25-1.12,0-.84-.45-1.47-.77-1.93-.11-.16-.23-.31-.3-.47-.24-.53-.52-1.01-.81-1.48-.19-.32-.37-.65-.57-.99-.21-.41-.35-.87-.49-1.32-.21-.61-.35-1.25-.62-1.81-.15-.32-.37-.54-.65-.83-.05-.11-.09-.31-.13-.51-.06-.33-.14-.74-.35-1.15-.23-.44-.53-.82-.83-1.2-.31-.39-.57-.72-.71-1.09-.62-1.68-1.61-3.07-2.58-4.41l-.74-1.04c-1.15-1.64-2.34-3.32-3.89-4.8-.35-.35-.7-.76-.99-1.21-1.07-1.6-2.69-4.01-6.49-2.43-.96.4-1.79.56-2.68.52-.75-.04-1.44-.29-2.16-.55-.87-.31-1.84-.67-3.01-.68-1.31-.01-2.52.43-3.61,1.1-1.54.93-2.83,2.29-3.85,3.36Zm25.58,42.51l-.24.19c-4.25,1.45-5.47,1.57-6.2,1.65-.2.03-.38.05-.56.08-.64.12-1.26.33-1.87.55-.53.19-1.05.38-1.6.47-1.02.16-1.19-.07-1.8-.94-.22-.31-.45-.63-.72-.94-.57-.65-1.29-.98-1.87-1.25-.38-.17-.74-.34-.95-.55-.06-.06-.13-.18-.21-.32-.2-.34-.47-.8-1.24-1.28-.77-.32-1.57-.6-2.36-.81l-1.95-1.04c-.53-.17-1.01-.19-1.4-.2-.37,0-.61-.02-.74-.12-.56-.41-1.05-1.24-1.52-2.04-.27-.43-.54-.85-.78-1.25l-.93-1.33c-.58-.82-1.15-1.63-1.86-2.63-.43-.6-.84-1.17-1.13-1.78l-.22-.44c-.2-.39-.52-1.02-.58-1.31-.08-.42.07-1.07.22-1.71.25-1.11.55-2.36-.11-3.48-.38-.65-1.02-1.13-1.88-1.41-.44-.15-.87-.18-1.24-.21-.34-.03-.63-.05-.84-.15-.32-.16-.55-.32-.86-.61l-.25-.23c-.9-.81-1.51-1.8-2.2-2.94l-.34-.56c-.16-.26-.39-.56-.64-.88-.27-.35-.89-1.16-.9-1.4.14-.74,1.78-2.79,2.29-2.97.06.07.15.32.21.49.22.59.56,1.49,1.5,1.89,1.5.63,4.89-1.06,4.89-1.06.79-.43,1.58-.97,2.37-1.51.66-.46,1.25-.87,2.08-1.32.72-.4,1.53-.85,2.09-1.39,1.62-1.6.32-3.23-.17-3.84-.13-.17-.28-.34-.36-.5-.24-.45-.28-.53.98-1.88,1.51-1.62,3.6-3.81,5.82-3.79.78,0,1.47.26,2.27.54.81.3,1.72.62,2.79.67,1.22.06,2.32-.16,3.58-.69,2.07-.88,2.72-.08,3.9,1.67.37.53.79,1.04,1.23,1.47,1.4,1.34,2.48,2.88,3.63,4.51l.75,1.06c.93,1.29,1.8,2.51,2.33,3.93.26.69.68,1.22,1.05,1.69.22.28.44.55.61.87.06.11.1.31.14.53.06.3.13.68.3,1.04.15.33.37.56.65.84.21.44.33.94.46,1.43.15.59.36,1.14.61,1.66.23.39.44.77.66,1.14.25.4.49.8.69,1.24.13.28.31.56.5.83.19.27.37.53.3.93-.08.19-.2.45-.25.83-.03.3-.06.56-.09.82-.03.48-.06.82-.21,1.22l-.34.75c-.2.42-.4.85-.55,1.31l-.11.34c-.12.4-.2.66-.41.98-.11.17-.27.33-.44.5-.18.18-.37.37-.54.58-.54.69-.77,1.22-.35,2.27.1.58-.08,1.24-.29,2.01l-.3,1.19c-.18.9-.66,1.59-1.26,2.46l-.18.26c-.46.71-.91,1.42-1.5,2.33-.32.51-.73.88-1.22,1.27l-.33.27Z"/>
      </g>
      <g>
        <path class="cls-3" d="m259.36,1222.52c1.41-2.52-2.72-7.12-3.71-9.74-1.94-5.09-1.39-5.06-7.55-6.45-6.76-1.43-14.91-8.48-22.48-5.39-4.27,1.75-7.19,5.34-10.04,9.8-4.14,6.47-3.17,8.92,1.41,12.91,6.28,5.6,10.74,12.48,17.89,17.11,5,3.18,6.5,2.74,11.33-3.07,3.32-3.97,8.8-6.77,13.15-15.17Z"/>
        <path class="cls-1" d="m260.35,1223.09c1.27-2.3-.57-5.32-2.19-7.97-.62-1.02-1.2-1.98-1.47-2.69l-.44-1.18c-1.6-4.33-2.03-4.65-7.93-5.99-2.02-.46-4.24-1.44-6.6-2.48-5.16-2.36-10.92-5.18-16.56-2.87-4.74,1.94-7.88,6.03-10.54,10.2-4.54,7.09-3.16,10.16,1.66,14.36,2.61,2.29,4.91,4.93,7.22,7.4,3.2,3.48,6.52,7.1,10.81,9.83,5.79,3.68,7.93,2.61,12.79-3.25,1.02-1.23,2.31-2.38,3.67-3.6,2.14-1.92,4.66-4.19,7.03-7.55.87-1.24,1.73-2.62,2.54-4.19Zm-34.26-21.12c4.73-1.95,9.77.55,14.75,2.8,2.47,1.1,4.8,2.13,7.04,2.63q5.02,1.14,6.27,4.54l.45,1.2c.35.91.99,1.96,1.67,3.07,1.17,1.92,2.78,4.55,2.12,5.74v.03c-2.88,5.5-6.22,8.51-9.17,11.15-1.43,1.27-2.77,2.48-3.89,3.82-4.68,5.61-5.6,5.59-9.87,2.88-4.01-2.55-7.07-5.88-10.29-9.39-2.36-2.52-4.73-5.21-7.46-7.62-4.02-3.51-5.08-5.28-1.15-11.45.83-1.29,1.64-2.49,2.48-3.58,2.05-2.67,4.24-4.67,7.06-5.82Z"/>
      </g>
      <g>
        <path class="cls-3" d="m200.03,1195.47c.69-.85,1.3-1.5,1.66-2.51.33-.88.64-1.72.96-2.56.48-1.18.92-2.15.89-3.4-.02-1.32.26-2.55-.2-3.68-.29-.71-.61-.49-.17-1.42.23-.49.56-.84.75-1.37.23-.63.22-1.08.27-1.69.07-.76.29-1.43.4-2.16.13-.89-.09-1.5-.16-2.35-.04-.53.18-.76.05-1.28-.19-.78-.98-1.18-1.4-1.76-.58-.78-1.28-1.37-1.9-2.13-.7-.85-1.14-1.98-1.86-2.81-.24-.27-.64-.38-.87-.65-.38-.44-.5-1.03-.9-1.46-.69-.73-1.65-1.14-2.25-1.97-1.19-1.58-2.69-2.78-4.17-4.1-1.67-1.48-3.26-2.94-5.2-4.09-2.13-1.26-3.87-4.29-7.18-1.67-.92.72-1.81,1.18-2.88,1.43-1.87.43-3.51-.28-5.35.23-2.55.71-4.05,3.54-5.2,5.79-.77,1.51-1.21,2.32-.18,3.36.73.74,2.37,1.19,1.54,2.64-.46.81-1.58,1.73-2.22,2.44-.9,1.01-1.78,2.2-2.76,3.13-.66.63-2.77,2.19-3.57,2.11-1.08-.11-1.26-2.03-2.6-1.65-1.21.34-2.42,3.71-2.24,4.59.2.98,1.76,1.77,2.46,2.4,1.19,1.05,2.23,2.08,3.67,2.74.53.24.93.47,1.54.59.77.14,1.48-.22,2.18-.18,2.8.17,1.35,3.43,2.14,5.21.24.55.95,1.31,1.32,1.77.54.66,1.15,1.2,1.81,1.73l3.45,2.86c1.04.86,2.07,2.22,3.37,2.7.85.32,1.6-.23,2.47-.17l2,.56c.82.02,1.62.1,2.41.24.58.22.79.75,1.28,1.06.89.57,2.12.41,3.01,1.07,1.3.96,1.86,2.28,3.95,1.44,1.11-.45,2.06-1.29,3.16-1.76.79-.34,1.52-.29,6.5-3.3Z"/>
        <path class="cls-1" d="m202.8,1193.24c.31-.81.6-1.6.98-2.61.46-1.13.9-2.2.88-3.59l.03-1.06c.05-.98.1-2-.31-3.02-.07-.18-.15-.33-.23-.46,0,0,.02-.05.03-.08l.27-.46c.18-.27.37-.59.52-.98.24-.66.28-1.17.31-1.67l.02-.31c.04-.38.12-.74.2-1.1l.2-1c.11-.77.02-1.38-.07-1.91-.03-.22-.06-.44-.09-.69,0-.09,0-.15.03-.29.05-.26.12-.65,0-1.16-.2-.85-.78-1.38-1.2-1.77-.14-.13-.29-.26-.39-.4-.36-.48-.75-.9-1.15-1.32l-.78-.85c-.3-.36-.54-.79-.78-1.21-.33-.57-.67-1.14-1.09-1.62-.24-.28-.52-.44-.87-.65-.09-.1-.17-.28-.27-.46-.15-.31-.34-.69-.67-1.03-.35-.37-.75-.67-1.16-.97-.41-.3-.77-.56-1-.89-1.1-1.47-2.44-2.6-3.71-3.74l-1.01-.89c-1.53-1.36-3.12-2.77-5-3.89-.44-.26-.86-.61-1.29-.96-1.55-1.27-3.9-3.19-7.14-.63-.82.65-1.58,1.03-2.46,1.23-.75.17-1.49.12-2.27.06-.94-.06-2-.14-3.13.18-3.06.84-4.75,4.13-5.9,6.39-.78,1.52-1.52,2.97.08,4.58.23.23.53.45.85.67.2.14.53.37.49.62-.24.41-.8.97-1.29,1.45-.72.7-1.23,1.3-1.78,1.96-.56.67-1.12,1.35-1.73,1.92-.7.66-2.32,1.76-2.61,1.86-.07-.05-.23-.26-.33-.39-.41-.54-1.27-1.68-2.79-1.25-1.93.52-3.22,4.59-2.98,5.8.24,1.18,1.34,1.97,2.22,2.6.24.18.45.34.63.48l.46.41c1.03.93,2.1,1.89,3.53,2.54l.27.13c.45.21.9.43,1.56.55.65.12,1.21.01,1.67-.07.25-.05.49-.09.66-.08.29.02.44.08.49.13.21.22.21,1.11.21,1.7,0,.88.01,1.81.38,2.65.27.6.81,1.24,1.25,1.75l.26.31c.56.68,1.16,1.23,1.96,1.89l2.3,1.9,1.15.95c.28.26.58.54.89.83.8.78,1.7,1.66,2.84,2.09.83.31,1.56.14,2.1.01.27-.07.51-.1.47-.15l2.29.61c.77.02,1.51.1,2.01.16.06.02.15.12.29.27.19.21.43.47.77.69.61.39,1.26.53,1.83.65.46.1.86.19,1.11.37.26.19.48.4.69.59.88.82,2.1,1.93,4.38,1.02.62-.25,1.2-.61,1.78-.98.46-.29.9-.58,1.39-.79.13-.05.25-.09.39-.14.78-.27,2.09-.71,6.23-3.22l.54-.56.3-.37c.5-.62.96-1.27,1.32-2.27Zm-9.23,4.29c-.19.07-.36.13-.53.2-.59.25-1.15.6-1.7.95-.47.3-.94.6-1.45.81-.95.38-1.14.21-1.93-.52-.27-.25-.56-.51-.89-.76-.68-.51-1.44-.67-2.06-.8-.4-.08-.78-.17-1.02-.32-.07-.05-.17-.15-.27-.26-.26-.29-.62-.68-1.45-.97-.82-.15-1.69-.23-2.3-.22l-2.22-.6c-.55-.04-1.02.07-1.4.16-.37.09-.6.14-.74.08-.64-.24-1.31-.89-1.95-1.52-.37-.34-.72-.66-1.05-.97l-1.14-.95c-.77-.64-1.54-1.27-2.51-2.07-.54-.46-1.04-.91-1.46-1.41l-.29-.35c-.28-.33-.74-.87-.86-1.14-.17-.38-.17-1.06-.18-1.71,0-1.13-.02-2.42-.89-3.34-.51-.54-1.22-.84-2.11-.89-.45-.03-.86.05-1.21.12-.33.06-.61.12-.83.08-.35-.06-.59-.18-.96-.36l-.3-.14c-1.08-.49-1.91-1.25-2.89-2.12l-.46-.41c-.23-.2-.52-.42-.84-.65-.37-.27-1.15-.82-1.22-1.04-.06-.74.96-3.19,1.4-3.45.07.05.23.26.34.4.37.49.93,1.23,1.94,1.33,1.6.15,4.41-2.4,4.41-2.4.66-.62,1.27-1.37,1.88-2.1.51-.61.97-1.17,1.64-1.82.59-.58,1.25-1.23,1.63-1.9,1.11-1.97-.6-3.16-1.25-3.61-.18-.12-.36-.24-.5-.38-.36-.36-.42-.43.41-2.06,1-1.97,2.38-4.67,4.53-5.26.77-.21,1.51-.16,2.37-.1.87.06,1.86.13,2.93-.11,1.19-.28,2.24-.8,3.3-1.64,1.77-1.4,2.66-.8,4.35.59.52.42,1.04.84,1.58,1.17,1.7,1.01,3.13,2.28,4.66,3.64l1.03.9c1.22,1.08,2.39,2.08,3.32,3.32.45.61,1.01,1.02,1.5,1.38.29.22.59.43.85.7.09.1.18.28.28.48.14.27.31.62.59.94.24.28.52.44.88.65.32.37.58.82.84,1.27.31.53.62,1.06,1,1.52.31.34.6.66.89.98.33.35.67.7.97,1.11.19.25.43.48.68.72.25.23.48.45.51.86-.04.21-.09.49-.06.87.04.31.07.58.1.85.07.47.13.82.06,1.25l-.16.84c-.1.45-.2.9-.25,1.38l-.02.35c-.03.42-.05.69-.18,1.06-.07.19-.19.38-.32.59-.14.22-.28.44-.4.69-.37.8-.48,1.36.16,2.31.23.55.19,1.24.15,2.05l-.03,1.22c.02.94-.31,1.72-.82,2.97-.3.8-.6,1.61-.97,2.59-.26.7-.68,1.22-1.21,1.86l-.17.2c-3.84,2.31-5,2.7-5.69,2.94Z"/>
      </g>
      <g>
        <path class="cls-3" d="m142.32,1147.45c1.95-.25,3.31-3.63,3.78-5.02.31-.93.29-1.82.61-2.74.33-.93.98-1.49,1.69-2.21l4.28-4.38c.58-.62.88-1.12.99-1.92.08-.62.26-1.77.08-2.34-.2-.62-.98-.86-1.28-1.43-.31-.59-.54-.95-1.03-1.42-.46-.42-.89-.87-1.32-1.32-.54-.55-.75-1.16-1.15-1.81-.4-.64-.9-.94-1.14-1.74-.31-1.03-.95-1.55-1.65-2.3-.63-.67-1.05-1.01-2.01-1.24-1.17-.29-2.17-.7-3.12-1.32-1.16-.76-2.06-2-3.01-3-1.15-1.21-2.8-2.08-4.61-2.33-1.96-.27-3.24.96-4.73,2.35-.86.8-1.53,1.27-2.47,1.89-.42.27-.65.67-1.11.93-.72.42-1.49.39-2.23.65-1.95.67-4.06,2.66-5.14,4.44-.86,1.42-1.42,2.84-1.69,4.33-.19,1.09-1.09,2.85-.63,3.81.38.79,1.35,1.06,1.57,1.97.22.9-.25,1.45-.56,2.32-.38,1.08,0,1.25.38,2.12.17.39.21.83.32,1.25.19.72.38.98.9,1.52l4.31,4.48,2.29,2.39c.97.96,2.31,1.32,3.29,2.23l2.27,2.22c.84.74,1.41.61,2.62.27.97-.27,2.02-.32,2.96-.53.94-.21,1.82,0,6.55-2.12Z"/>
        <path class="cls-1" d="m147.17,1142.83c.18-.52.26-1.03.34-1.53.06-.4.12-.8.26-1.2.21-.58.6-.98,1.17-1.55l1.43-1.45,3.14-3.24c.65-.7,1.11-1.39,1.27-2.57.14-1,.26-2.04.03-2.77-.22-.65-.69-1.04-1.04-1.32-.11-.09-.28-.23-.32-.28-.36-.68-.67-1.16-1.26-1.72-.46-.42-.89-.87-1.32-1.32-.25-.26-.41-.55-.61-.93l-.37-.67c-.18-.29-.37-.53-.57-.76-.25-.3-.37-.45-.45-.71-.34-1.14-.98-1.8-1.6-2.43l-.31-.33c-.76-.81-1.36-1.27-2.56-1.56-1.08-.26-1.96-.64-2.78-1.17-.71-.46-1.37-1.21-2-1.94l-.79-.88c-1.35-1.42-3.27-2.4-5.28-2.68-2.27-.32-3.79.91-5.29,2.29-.14.13-.29.26-.41.38-.76.7-1.35,1.12-2.29,1.72-.26.16-.47.36-.67.57-.14.15-.26.26-.39.33-.28.16-.61.22-1,.29-.34.07-.69.13-1.03.24-2.36.81-4.61,3.09-5.7,4.88-.95,1.57-1.59,3.14-1.85,4.71-.06.3-.17.65-.29,1.03-.36,1.12-.76,2.39-.25,3.46.28.59.71.96,1.05,1.26.29.25.42.37.45.49.06.26,0,.45-.23.97-.09.23-.19.46-.29.7-.43,1.19-.17,1.82.21,2.52.06.12.13.26.21.42.06.14.1.35.15.57l.12.52c.27.98.59,1.43,1.23,2.07l2.94,3.04,2.17,2.28,1.51,1.57c.62.61,1.34,1.01,1.96,1.36.51.29.99.56,1.36.9l1.1,1.09,1.15,1.12c1.37,1.22,2.52.89,3.74.55.51-.15,1.05-.22,1.58-.3l1.31-.22c.15-.02.3-.05.46-.07.9-.13,2.28-.32,6.16-2.06.76-.15,1.42-.59,1.98-1.18,1.29-1.34,2.11-3.44,2.47-4.53Zm-23.88-25.04c.24-.09.48-.13.73-.18.51-.1,1.09-.21,1.67-.56.36-.21.6-.46.82-.66.11-.11.21-.22.34-.3,1-.66,1.6-1.11,2.71-2.1,1.47-1.39,2.4-2.17,3.72-1.99,1.51.21,2.94.94,3.94,1.99l.74.82c.74.84,1.51,1.72,2.48,2.35,1.04.68,2.15,1.15,3.48,1.48.68.17.92.35,1.46.92l.34.36c.52.54.87.89,1.05,1.5.22.73.6,1.18.9,1.54.12.14.25.29.37.48l.3.54c.24.46.52.97,1,1.47.42.45.86.89,1.32,1.32.36.34.53.59.81,1.12.25.47.62.77.91,1.01.11.09.27.23.3.25.07.22.02.81-.12,1.85-.07.52-.23.83-.71,1.34l-3.11,3.18-1.43,1.43c-.63.65-1.3,1.29-1.67,2.33-.18.52-.27,1.03-.35,1.55-.07.39-.12.79-.26,1.19-.8,2.38-2.02,4.21-2.92,4.31l-.3.09c-3.71,1.66-4.92,1.83-5.72,1.94-.22.04-.42.07-.63.11l-1.15.19c-.63.09-1.26.18-1.88.35-1.14.32-1.17.29-1.5,0l-1.02-.99-1.25-1.24c-.58-.55-1.25-.92-1.84-1.25-.54-.3-1.04-.59-1.42-.96l-1.44-1.49-2.18-2.29-2.96-3.07c-.41-.41-.46-.49-.58-.96l-.08-.37c-.07-.31-.14-.67-.3-1.04-.12-.24-.22-.44-.31-.62-.05-.1-.12-.24-.14-.27,0,0,0-.1.1-.4.08-.2.16-.38.23-.56.27-.6.61-1.36.35-2.4-.22-.88-.8-1.38-1.22-1.75-.19-.17-.37-.32-.43-.44-.11-.3.22-1.34.37-1.83.15-.47.29-.92.36-1.3.23-1.33.74-2.64,1.54-3.98.47-.79,1.14-1.58,1.87-2.25.88-.81,1.86-1.46,2.72-1.76Z"/>
      </g>
      <g>
        <path class="cls-3" d="m272.75,1264.63c-1.94,2.01.4,7.25.5,9.81-.06,5.18-.5,4.84,4.45,7.84,5.44,3.34,9.68,12.14,17.58,12.74,4.56.31,8.85-1.44,13.44-4.06,6.62-3.76,6.97-6.63,4.26-12.6-3.73-8.2-5.55-16.98-11.45-24.25-4.23-4.92-5.88-4.95-12.1-.69-4.27,2.86-10.34,4.25-16.69,11.2Z"/>
        <path class="cls-1" d="m271.96,1263.91c-1.78,1.87-.92,5.04-.3,7.85.25,1.07.49,2.07.51,2.77v1.17c-.12,4.37.22,4.59,4.91,7.48,1.58,1.01,3.17,2.55,4.84,4.22,1.72,1.91,3.57,3.97,5.77,5.58,2.13,1.65,4.49,2.92,7.51,3.13,5.07.36,9.81-1.68,14.1-4.11,7.29-4.07,7.53-7.75,4.68-14.06-1.67-3.36-2.69-7.06-4.11-10.43-1.8-4.83-3.99-9.76-7.51-14.1-4.94-5.71-7.36-5.33-13.62-.96-1.31.91-2.88,1.69-4.53,2.52-2.59,1.3-5.6,2.88-8.74,5.55-1.16.98-2.33,2.1-3.52,3.4Zm23.39,30.03c-4.92-.37-8.45-4.28-11.83-8-1.78-1.77-3.44-3.42-5.22-4.55-4.06-2.46-4.09-2.34-4.01-5.79v-1.21c.03-.94-.27-2.01-.54-3.19-.49-2.03-1.19-4.86-.23-5.82l.02-.02c4.22-4.51,8.22-6.6,11.78-8.32,1.72-.83,3.35-1.61,4.8-2.59,6.04-4.09,7.01-3.78,10.59.4,3.24,4.02,5.27,8.5,7.06,13.33,1.43,3.42,2.51,7.15,4.21,10.65,2.4,5.19,2.42,7.49-3.85,11.12-1.33.77-2.61,1.45-3.85,2.03-3.06,1.41-5.93,2.17-8.93,1.97Z"/>
      </g>
      <g>
        <path class="cls-3" d="m315.4,1321.51c-.69.16-1.26.25-1.85.63-.51.32-1.01.62-1.5.92-.71.41-1.32.73-1.8,1.36-.51.67-1.14,1.17-1.35,1.9-.13.46.12.48-.47.77-.31.15-.62.2-.93.38-.37.22-.54.44-.81.72-.33.34-.72.58-1.07.89-.41.37-.58.76-.91,1.2-.21.27-.41.3-.58.6-.24.45-.04.95-.08,1.39-.06.6.02,1.16,0,1.76-.03.68-.3,1.38-.31,2.05,0,.22.14.43.14.65,0,.35-.2.68-.19,1.03.02.61.3,1.19.24,1.81-.09,1.2.07,2.36.16,3.58.11,1.36.2,2.69.59,4.01.43,1.47-.11,3.53,2.61,3.83.75.08,1.38.27,2,.64,1.1.64,1.46,1.69,2.5,2.29,1.45.84,3.46.28,5.04-.21,1.06-.32,1.64-.49,1.7-1.44.01-.67-.57-1.63.47-1.92.58-.16,1.52-.07,2.14-.1.88-.05,1.83-.2,2.7-.17.59.01,2.28.27,2.63.69.48.56-.34,1.55.41,2.01.69.42,2.83-.58,3.18-1.09.36-.56-.03-1.69-.08-2.33-.09-1.07-.12-2.07-.5-3.07-.14-.37-.23-.67-.47-1.02-.3-.43-.8-.59-1.11-.94-1.25-1.39.89-2.3,1.31-3.55.13-.39.13-1.09.16-1.49.03-.58,0-1.13-.1-1.7l-.48-3.03c-.15-.91-.08-2.08-.51-2.91-.28-.55-.89-.6-1.29-1.03l-.74-1.18c-.39-.38-.75-.77-1.08-1.19-.19-.37-.07-.74-.18-1.11-.21-.69-.84-1.15-1.05-1.86-.3-1.05-.09-1.98-1.51-2.42-.76-.23-1.58-.19-2.34-.4-.54-.15-.91-.49-4.68-.94Z"/>
        <path class="cls-1" d="m313.08,1321.55c-.48.29-.94.58-1.54.94-.69.39-1.33.76-1.87,1.47l-.44.52c-.41.47-.84.95-1.03,1.62-.04.12-.05.22-.06.31l-.05.02-.32.12c-.2.07-.43.14-.66.28-.39.23-.61.46-.82.7l-.13.14c-.17.17-.36.31-.54.46l-.5.41c-.36.33-.56.65-.73.94-.08.11-.16.23-.25.37-.03.05-.07.07-.14.13-.13.1-.34.27-.5.56-.27.49-.22.96-.18,1.32.01.12.03.24.02.34-.04.37-.03.72-.01,1.08v.71c0,.29-.07.58-.14.88-.09.4-.17.8-.17,1.19,0,.23.06.41.14.64,0,.08-.04.2-.07.32-.06.2-.13.45-.12.74,0,.31.07.61.14.91.07.3.13.56.1.81-.09,1.1.05,2.17.12,3.21l.07.82c.1,1.25.21,2.54.59,3.83.09.3.13.63.17.97.16,1.22.39,3.06,3.06,3.36.68.08,1.2.24,1.71.54.44.25.73.61,1.04.99.37.45.8.96,1.44,1.34,1.73,1.02,4.05.35,5.64-.14,1.07-.32,2.09-.64,2.17-2.11.02-.22-.03-.45-.08-.7-.03-.15-.09-.42.05-.51.3-.08.81-.07,1.26-.07.65,0,1.16-.03,1.72-.08.56-.05,1.13-.1,1.67-.09.62.02,1.88.28,2.06.36.01.06,0,.23-.02.34-.05.45-.25,1.39.63,1.92,1.09.69,3.61-.6,4.08-1.3.49-.68.28-1.59.16-2.31-.03-.2-.06-.38-.09-.54l-.03-.42c-.07-.94-.15-1.92-.53-2.92l-.07-.19c-.11-.31-.23-.64-.49-1.01-.25-.36-.57-.58-.82-.75-.14-.09-.27-.18-.35-.27-.13-.14-.17-.25-.17-.29,0-.2.39-.64.65-.93.39-.44.8-.89,1-1.48.14-.42.17-.99.19-1.45v-.27c.04-.6.03-1.15-.09-1.85l-.32-2.02-.16-1.01c-.03-.26-.06-.54-.09-.83-.06-.76-.13-1.63-.51-2.36-.28-.54-.71-.78-1.03-.95-.16-.08-.3-.18-.29-.13l-.86-1.34c-.36-.35-.7-.72-.92-.98-.02-.04-.02-.12-.03-.27,0-.19-.01-.43-.09-.7-.14-.47-.39-.83-.62-1.14-.18-.26-.36-.47-.42-.67-.05-.21-.09-.41-.13-.6-.14-.8-.35-1.91-1.9-2.38-.42-.13-.87-.18-1.31-.23-.35-.04-.7-.07-1.04-.17l-.26-.09c-.51-.18-1.37-.5-4.5-.85l-.5.08-.3.07c-.5.12-1,.28-1.57.64Zm6.48,1.52c.13.04.24.08.36.12.41.12.83.17,1.26.22.36.04.73.08,1.07.19.65.2.68.37.81,1.08.05.24.11.5.17.77.17.55.44.97.69,1.3.16.22.31.43.37.61.01.05.02.15.02.25,0,.26.02.62.3,1.14.34.44.73.86,1.03,1.13l.83,1.3c.25.26.53.42.76.55.22.12.35.2.4.29.21.41.27,1.05.31,1.66.04.34.07.66.1.97l.16,1c.11.67.22,1.35.35,2.19.07.48.09.93.07,1.38l-.02.31c-.01.29-.04.77-.1.96-.09.27-.39.6-.68.92-.5.56-1.07,1.19-1.07,2.05,0,.5.2.98.6,1.42.2.22.43.38.63.51.18.12.34.23.42.35.13.19.2.36.29.63l.08.21c.29.75.35,1.51.41,2.39l.03.42c.03.2.07.45.11.71.06.31.18.94.11,1.08-.29.38-1.92,1.05-2.24.96,0-.06.02-.23.04-.35.06-.41.12-1.03-.31-1.56-.69-.84-3.15-.95-3.15-.95-.59-.01-1.21.05-1.83.11-.52.05-.98.1-1.58.09-.54,0-1.14,0-1.62.13-1.41.4-1.13,1.72-1.03,2.22.03.14.07.28.06.4-.02.33-.02.39-1.17.75-1.38.43-3.28,1-4.5.29-.44-.25-.72-.61-1.09-1.03-.38-.41-.82-.88-1.43-1.25-.68-.4-1.41-.63-2.29-.72-1.46-.15-1.6-.8-1.77-2.14-.05-.41-.11-.82-.22-1.19-.34-1.17-.44-2.35-.54-3.6l-.07-.84c-.07-1-.18-1.94-.11-2.88.05-.46-.05-.87-.13-1.24-.05-.22-.1-.44-.11-.66,0-.08.03-.2.07-.34.05-.18.12-.41.12-.67,0-.23-.06-.41-.14-.65,0-.3.08-.62.14-.93.08-.37.16-.74.17-1.11v-.82c-.02-.3-.03-.6,0-.91.02-.19,0-.4-.02-.61-.02-.21-.04-.4.13-.61.11-.08.26-.2.4-.4.11-.16.22-.31.31-.45.17-.26.29-.44.51-.63l.44-.35c.24-.18.47-.36.68-.57l.15-.16c.18-.19.3-.32.52-.44.11-.07.25-.11.4-.16.16-.06.31-.12.48-.18.51-.25.79-.48.83-1.2.1-.36.4-.69.73-1.07l.5-.59c.36-.47.84-.74,1.59-1.17.47-.29.95-.58,1.52-.93.41-.25.83-.35,1.36-.47l.17-.04c2.9.36,3.66.64,4.12.8Z"/>
      </g>
      <g>
        <path class="cls-3" d="m301.72,1434.19c.58.22,1.04.43,1.65.42.54,0,1.06-.01,1.57-.02.73,0,1.34.04,2.03-.27.73-.33,1.46-.46,2.01-1.02.35-.35.18-.49.77-.46.31.02.56.13.88.11.39-.02.64-.14.99-.27.43-.15.85-.19,1.28-.31.52-.15.83-.45,1.29-.71.29-.17.46-.1.73-.31.41-.32.51-.91.77-1.33.35-.57.51-1.18.81-1.77.32-.68.85-1.28,1.16-1.96.1-.23.08-.5.19-.73.16-.36.46-.61.62-.98.26-.64.3-1.35.63-1.97.64-1.2.97-2.5,1.36-3.82.44-1.49.88-2.92,1.08-4.45.28-1.66,1.28-3.81-.86-4.84-.6-.29-1.06-.65-1.47-1.2-.7-.94-.76-2.13-1.49-3-1.02-1.21-2.86-1.07-4.3-.96-.96.07-1.49.1-1.75,1-.18.64.02,1.7-.93,1.7-.53,0-1.28-.33-1.81-.46-.74-.18-1.58-.29-2.3-.54-.49-.17-1.83-.83-2.01-1.28-.24-.61.68-1.29.13-1.88-.49-.53-2.51-.14-2.9.21-.43.39-.41,1.44-.53,2-.21.93-.42,1.78-.4,2.74,0,.35-.03.62.05.98.1.45.46.73.6,1.12.56,1.56-1.48,1.67-2.22,2.56-.23.28-.46.86-.61,1.18-.22.46-.35.94-.49,1.43l-.77,2.6c-.23.78-.73,1.69-.7,2.52.01.55.46.83.61,1.34l.12,1.26c.16.47.29.94.34,1.41-.02.38-.28.61-.36.96-.16.63.14,1.29-.06,1.94-.3.95-.93,1.56-.11,2.57.44.54,1.06.9,1.5,1.43.32.39.42.81,2.89,3.07Z"/>
        <path class="cls-1" d="m303.4,1435.33c.5,0,.98,0,1.6-.01.7.01,1.36.03,2.13-.32l.6-.24c.55-.21,1.13-.42,1.63-.93.09-.1.16-.18.22-.25h.05s.3.05.3.05c.18.04.39.08.63.07.4-.02.7-.13.98-.23l.18-.06c.22-.08.43-.12.65-.16l.59-.14c.45-.13.78-.35,1.07-.54.12-.07.24-.15.38-.24.05-.03.09-.04.17-.06.15-.04.38-.1.65-.31.45-.35.66-.85.81-1.21.05-.12.1-.25.16-.35.22-.34.38-.71.52-1.08l.31-.73c.14-.29.32-.56.5-.84.25-.37.49-.75.67-1.15.1-.23.14-.45.18-.73.04-.08.12-.19.2-.3.14-.18.31-.41.43-.72.13-.33.22-.67.3-1,.09-.34.16-.64.29-.88.6-1.11.94-2.29,1.27-3.43l.26-.9c.41-1.37.83-2.79,1.02-4.29.05-.35.14-.72.24-1.09.28-1.37.66-3.47-1.47-4.48-.54-.26-.93-.57-1.26-1.01-.28-.37-.44-.82-.62-1.29-.21-.56-.44-1.2-.9-1.73-1.22-1.44-3.34-1.24-4.79-1.13-.98.08-1.9.15-2.3,1.55-.06.2-.09.44-.12.68-.02.15-.05.41-.19.47-.27,0-.7-.14-1.07-.25-.54-.17-.98-.27-1.46-.36-.48-.1-.97-.19-1.42-.34-.52-.17-1.5-.72-1.63-.84,0-.05.07-.2.11-.3.16-.39.5-1.2-.12-1.87-.78-.86-3.17-.28-3.7.2-.52.47-.62,1.28-.69,1.92-.03.18-.05.34-.07.47l-.08.36c-.2.81-.34,1.66-.35,2.59v.18c0,.29-.02.6.07.98.09.38.28.65.43.87.08.12.16.24.2.33.06.16.06.26.05.3-.07.17-.53.41-.84.58-.46.24-.94.49-1.29.91-.25.3-.46.76-.62,1.13l-.1.22c-.23.48-.36.95-.53,1.55l-.51,1.72-.26.87c-.08.22-.16.45-.25.69-.24.63-.51,1.34-.49,2.07.01.53.26.9.44,1.17.09.13.16.26.18.22l.16,1.43c.16.44.23.86.29,1.16,0,.04-.04.11-.1.22-.08.15-.18.34-.24.59-.11.43-.07.83-.04,1.17.03.28.05.53,0,.71-.07.18-.14.36-.2.52-.29.68-.69,1.61.2,2.72.25.3.54.56.84.81.24.2.47.39.67.63l.14.2c.28.39.74,1.05,2.8,2.94l.4.19.25.1c.42.16.86.28,1.46.27Zm-3.89-4.47l-.2-.27c-.24-.29-.52-.53-.81-.77-.24-.2-.49-.41-.69-.65-.37-.46-.31-.6-.05-1.22.08-.21.17-.44.26-.68.16-.5.12-.97.08-1.35-.02-.25-.04-.48,0-.65.02-.05.06-.13.1-.21.11-.21.26-.5.28-1.04-.08-.5-.23-1.01-.36-1.35l-.15-1.4c-.09-.31-.25-.55-.38-.75-.12-.18-.2-.3-.2-.39,0-.41.19-.94.39-1.45.1-.28.2-.56.29-.82l.26-.87c.17-.58.34-1.17.56-1.89.12-.41.23-.81.4-1.17l.11-.25c.1-.24.28-.63.39-.77.16-.19.51-.37.85-.55.59-.31,1.26-.66,1.54-1.39.16-.43.16-.89-.02-1.39-.09-.25-.23-.44-.35-.62-.11-.16-.2-.29-.23-.42-.05-.2-.04-.36-.04-.61v-.2c-.03-.72.11-1.38.29-2.15l.08-.37c.03-.18.06-.4.1-.64.03-.27.1-.85.19-.95.35-.25,1.85-.45,2.1-.3,0,.05-.07.2-.11.3-.15.35-.37.87-.15,1.44.35.9,2.37,1.66,2.37,1.66.49.17,1.02.28,1.55.39.44.09.84.17,1.34.34.45.15.95.31,1.38.31,1.28,0,1.43-1.35,1.49-1.85.02-.14.03-.28.06-.4.09-.31.1-.37,1.15-.45,1.26-.09,2.99-.24,3.85.78.31.36.47.81.66,1.33.19.52.41,1.11.81,1.65.44.6.98,1.04,1.68,1.38,1.16.56,1.09,1.31.78,2.79-.12.45-.23.9-.29,1.32-.17,1.34-.55,2.62-.95,3.97l-.27.91c-.31,1.08-.61,2.11-1.11,3.04-.24.46-.36.92-.46,1.33-.06.24-.12.49-.21.72-.03.08-.12.2-.21.31-.12.17-.28.37-.4.64-.1.23-.14.45-.18.73-.14.31-.33.6-.53.89-.23.34-.45.69-.63,1.05l-.36.83c-.13.3-.24.62-.42.91-.11.18-.2.39-.3.61-.09.21-.17.41-.4.54-.12.03-.29.08-.5.19-.17.1-.32.2-.46.29-.26.17-.44.29-.69.36l-.5.12c-.27.05-.54.11-.82.21l-.2.08c-.24.09-.4.15-.62.16-.12,0-.24-.02-.38-.05l-.45-.07c-.5-.02-.84.06-1.26.67-.27.27-.66.42-1.12.59l-.68.27c-.52.24-1.01.23-1.78.22-.49,0-.99.02-1.59.03-.43,0-.78-.13-1.23-.29l-.14-.05c-1.91-1.74-2.32-2.32-2.57-2.67Z"/>
      </g>
      <g>
        <path class="cls-3" d="m285.85,1476.67c-.43-.23-.76-.46-1.25-.49-.43-.03-.84-.07-1.25-.1-.58-.07-1.05-.15-1.64.07-.63.23-1.22.28-1.73.71-.32.27-.21.41-.67.33-.24-.05-.42-.17-.67-.19-.3-.02-.52.06-.81.13-.36.09-.68.08-1.05.13-.44.07-.74.28-1.15.44-.26.1-.38.02-.63.17-.38.22-.57.7-.84,1.01-.38.43-.66.89-1.02,1.33-.41.5-.96.91-1.35,1.41-.13.17-.18.4-.31.56-.21.27-.5.42-.7.7-.35.48-.54,1.05-.94,1.49-.77.86-1.31,1.86-1.91,2.87-.68,1.13-1.34,2.22-1.85,3.44-.56,1.34-1.98,2.76-.63,4.12.37.38.62.78.77,1.32.26.94-.11,1.89.16,2.78.37,1.23,1.8,1.59,2.94,1.86.76.18,1.17.29,1.69-.4.38-.48.54-1.44,1.26-1.22.41.12.88.57,1.24.8.51.32,1.11.61,1.59.98.32.25,1.13,1.13,1.11,1.57-.01.6-1,.96-.79,1.61.18.58,1.87.72,2.31.49.5-.23.83-1.2,1.12-1.68.48-.8.95-1.52,1.23-2.39.1-.32.2-.57.24-.92.05-.43-.14-.76-.14-1.14,0-1.52,1.62-1.26,2.46-1.96.26-.22.61-.71.82-.99.31-.39.54-.81.79-1.23l1.36-2.27c.41-.68,1.06-1.44,1.28-2.2.14-.5-.14-.81-.12-1.29l.25-1.15c0-.44.03-.88.09-1.31.1-.34.36-.53.5-.84.27-.56.17-1.19.48-1.76.42-.86,1.01-1.38.54-2.38-.25-.53-.69-.91-.95-1.43-.19-.37-.19-.78-1.81-2.99Z"/>
        <path class="cls-1" d="m284.69,1475.53c-.4-.03-.78-.07-1.27-.11-.55-.07-1.08-.13-1.73.11l-.5.16c-.47.13-.95.27-1.42.66-.08.08-.15.14-.21.2h-.04s-.23-.08-.23-.08c-.14-.05-.29-.11-.49-.12-.32-.02-.56.04-.8.1l-.15.04c-.18.04-.35.06-.53.07l-.48.06c-.36.06-.65.21-.92.34-.11.05-.22.1-.34.15-.04.02-.07.02-.14.03-.13.01-.32.03-.57.18-.41.24-.67.62-.86.91l-.19.27c-.23.26-.43.54-.63.81l-.41.54c-.17.21-.38.41-.58.6-.28.26-.55.53-.78.82-.13.17-.21.34-.31.56-.05.06-.13.13-.22.21-.15.13-.33.28-.5.51-.18.24-.32.5-.46.76-.14.26-.27.49-.42.67-.71.8-1.24,1.69-1.75,2.56l-.41.68c-.62,1.04-1.27,2.12-1.76,3.31-.12.28-.28.56-.44.85-.58,1.04-1.45,2.6-.13,3.93.33.34.54.69.65,1.12.09.37.07.76.04,1.18-.03.5-.06,1.07.1,1.61.44,1.48,2.1,1.87,3.24,2.14.77.18,1.5.35,2.3-.72.12-.16.22-.34.33-.54.06-.13.17-.34.29-.36.21.06.49.28.73.46.36.27.66.45,1,.64.34.19.68.39.97.62.34.27.91.97.97,1.1-.02.05-.13.16-.19.23-.27.3-.83.91-.61,1.64.27.93,2.32,1.01,2.93.7.6-.29.97-.99,1.24-1.57.08-.15.15-.3.22-.41l.19-.31c.42-.7.86-1.42,1.14-2.28l.05-.16c.09-.27.19-.55.23-.92.04-.36-.03-.65-.08-.88-.03-.13-.06-.25-.06-.34,0-.16.03-.25.05-.28.1-.14.53-.29.81-.38.43-.14.87-.29,1.27-.62.28-.24.58-.63.81-.94l.14-.19c.31-.4.56-.82.87-1.34l.9-1.51.45-.76c.12-.19.26-.39.4-.6.37-.54.79-1.15.98-1.82.14-.49.05-.85-.02-1.12-.04-.13-.06-.26-.08-.22l.27-1.31c.02-.41.04-.82.05-1.09.01-.03.05-.1.13-.19.1-.13.22-.3.33-.52.18-.38.24-.75.29-1.07.04-.26.08-.48.17-.64l.26-.47c.35-.61.84-1.46.32-2.55-.14-.3-.34-.55-.53-.81-.15-.2-.31-.4-.43-.63l-.08-.19c-.16-.38-.41-1.02-1.76-2.85l-.29-.2-.19-.1c-.31-.17-.64-.31-1.13-.34Zm2.38,4.31l.11.26c.14.28.32.53.51.77.16.21.32.41.44.65.22.45.14.59-.18,1.14-.1.19-.21.39-.33.6-.24.44-.31.87-.36,1.21-.04.23-.07.44-.14.59-.03.04-.07.11-.12.18-.14.18-.32.43-.46.92-.06.46-.09.93-.07,1.25l-.26,1.27c-.01.3.05.53.1.72.05.18.08.3.05.38-.11.38-.42.83-.72,1.27-.16.24-.32.48-.46.7l-.45.75c-.3.51-.6,1.01-.98,1.64-.21.36-.41.7-.65,1l-.16.21c-.15.2-.4.53-.53.64-.18.15-.51.26-.82.36-.55.18-1.17.39-1.59,1-.25.36-.37.79-.38,1.27,0,.25.05.45.09.63.04.17.07.31.06.43-.02.2-.07.34-.15.57l-.06.18c-.21.65-.55,1.22-.95,1.88l-.19.31c-.08.16-.18.35-.29.55-.12.24-.36.75-.48.81-.37.14-1.6-.03-1.74-.22.03-.04.13-.16.2-.23.25-.26.6-.67.62-1.23.03-.88-1.27-1.98-1.27-1.98-.32-.25-.69-.46-1.06-.67-.31-.18-.59-.33-.92-.59-.3-.22-.63-.47-.96-.57-.99-.29-1.5.83-1.72,1.23l-.19.32c-.18.24-.21.28-1.04.09-1-.23-2.36-.55-2.67-1.59-.11-.37-.09-.77-.06-1.23.03-.46.02-1.01-.12-1.54-.16-.59-.44-1.07-.88-1.51-.72-.73-.45-1.3.18-2.43.19-.35.38-.69.53-1.03.45-1.07,1.03-2.05,1.65-3.08l.41-.7c.49-.83.95-1.61,1.55-2.29.29-.33.49-.69.66-1.01.1-.19.2-.38.33-.55.05-.06.14-.14.23-.22.13-.11.3-.26.46-.45.13-.17.21-.34.31-.56.18-.23.4-.43.61-.64.26-.24.51-.49.73-.76l.47-.62.53-.68c.12-.14.23-.3.34-.47.11-.17.21-.32.42-.4.1-.01.24-.03.43-.1.15-.07.28-.13.41-.18.23-.11.4-.19.61-.22l.42-.04c.22-.01.45-.03.68-.08l.17-.04c.2-.05.33-.09.51-.07.09,0,.19.04.29.08l.34.1c.39.07.66.04,1.09-.46.25-.21.58-.3.96-.41l.58-.18c.44-.16.83-.11,1.44-.04.39.03.79.06,1.26.1.34.03.6.17.93.35l.1.06c1.24,1.71,1.47,2.27,1.61,2.61Z"/>
      </g>
      <g>
        <path class="cls-3" d="m318.26,606.82c-.93-1.77-4.55-1.85-6-1.82-.96.03-1.84.32-2.82.32-1,0-1.74-.43-2.66-.86l-5.56-2.56c-.78-.34-1.35-.46-2.15-.32-.62.1-1.77.28-2.25.6-.53.36-.5,1.12-.94,1.56-.45.44-.73.75-1.01,1.33l-.78,1.58c-.32.66-.8,1.03-1.25,1.58-.45.55-.55,1.11-1.19,1.55-.83.58-1.07,1.32-1.6,2.14-.46.75-.65,1.22-.6,2.16.07,1.15-.03,2.18-.35,3.22-.39,1.26-1.3,2.41-1.98,3.54-.83,1.36-1.15,3.14-.92,4.9.19,1.88,1.7,2.82,3.42,3.92.98.63,1.6,1.16,2.43,1.92.37.34.81.47,1.17.84.58.59.72,1.33,1.15,1.97,1.14,1.73,3.57,3.29,5.57,3.9,1.59.48,3.14.69,4.7.59,1.14-.08,3.13.37,3.92-.37.67-.59.69-1.63,1.52-2.11.81-.48,1.47-.17,2.4-.11,1.15.07,1.22-.37,1.97-.99.34-.28.76-.45,1.14-.69.65-.4.87-.67,1.25-1.34l3.28-5.59c.58-.99,1.09-2.04,1.59-3.08.6-1.3.53-2.75,1.09-4.03.44-1.02,1.04-1.96,1.49-2.97.48-1.07.19-1.58-.5-2.62-.56-.84-.91-1.83-1.4-2.66-.52-.83-.47-1.72-4.12-5.49Z"/>
        <path class="cls-1" d="m312.24,603.86c-.54.01-1.04.11-1.53.2-.39.08-.77.16-1.21.16-.63,0-1.13-.24-1.86-.58l-1.85-.86-4.11-1.86c-.88-.37-1.69-.58-2.86-.38-1,.16-2.03.35-2.64.77-.55.38-.76.91-.91,1.3-.05.12-.12.32-.17.36-.53.51-.88.92-1.22,1.61l-.78,1.57c-.15.31-.36.54-.64.83l-.48.53c-.2.25-.35.49-.49.74-.18.32-.28.47-.49.62-.94.62-1.25,1.42-1.7,2.13l-.22.37c-.54.89-.8,1.56-.74,2.74.06,1.06-.03,1.97-.3,2.86-.24.77-.76,1.56-1.26,2.33l-.61.95c-.99,1.59-1.27,3.67-1.09,5.58.22,2.17,1.78,3.34,3.49,4.46.15.1.33.21.46.3.87.57,1.41,1.03,2.22,1.78.22.21.46.37.72.51.18.1.31.19.42.29.22.23.36.54.53.89.15.31.3.63.49.93,1.36,2.09,4.11,3.73,6.11,4.35,1.76.54,3.42.75,5.07.64.31-.02.69,0,1.1.03,1.19.06,2.6.17,3.51-.64.5-.44.75-.97.96-1.39.17-.36.26-.52.37-.58.24-.14.44-.12,1-.04.24.03.5.06.76.09,1.27.08,1.82-.36,2.41-.94.1-.1.22-.2.36-.33.13-.1.32-.21.52-.32l.48-.27c.89-.55,1.25-1.01,1.72-1.83l2.23-3.82c.55-.95,1.16-1.87,1.65-2.85l1.02-2.05c.39-.83.55-1.68.68-2.43.11-.61.22-1.18.43-1.66.22-.5.47-.97.73-1.46l.76-1.51c.79-1.76.14-2.76-.56-3.8-.29-.44-.53-.94-.76-1.42-.19-.41-.39-.81-.61-1.18-.07-.14-.13-.26-.21-.41-.38-.8-1.02-2.07-4.02-5.16-.41-.67-1.05-1.14-1.8-1.46-1.71-.74-3.95-.77-5.08-.73Zm-16.94,29.89c-.14-.21-.24-.43-.34-.65-.21-.46-.46-.98-.93-1.46-.29-.29-.6-.46-.84-.62-.13-.08-.26-.15-.38-.25-.89-.8-1.47-1.26-2.7-2.09-1.73-1.08-2.67-1.76-2.86-3.06-.22-1.48.06-3,.78-4.2l.57-.89c.59-.9,1.2-1.83,1.53-2.9.35-1.14.48-2.28.4-3.59-.04-.67.06-.94.45-1.58l.24-.4c.38-.61.55-1.05,1.05-1.38.59-.41.87-.89,1.09-1.28.09-.15.18-.31.31-.48l.39-.44c.33-.36.71-.76,1-1.36l.79-1.58c.21-.43.39-.65.8-1.05.37-.36.53-.77.66-1.11.05-.12.13-.31.14-.34.18-.12.76-.25,1.8-.42.52-.09.86-.03,1.5.25l4.03,1.87,1.83.87c.82.38,1.65.8,2.76.81.56,0,1.08-.08,1.61-.17.4-.07.8-.14,1.23-.14,2.57-.02,4.65.46,5.08,1.29l.19.26c2.76,2.92,3.28,4.03,3.63,4.75.1.2.19.38.29.56l.53,1.04c.27.57.55,1.15.9,1.69.65.99.63,1.03.44,1.45l-.67,1.33c-.29.54-.58,1.09-.82,1.65-.33.77-.48,1.55-.6,2.24-.12.64-.23,1.23-.46,1.74l-.96,1.93c-.48.99-1.1,1.9-1.64,2.85l-2.24,3.83c-.3.52-.37.6-.79.86l-.34.19c-.29.16-.62.33-.94.6-.2.19-.37.34-.52.48-.09.08-.2.19-.23.22,0,0-.09.04-.42.02-.21-.02-.41-.05-.61-.07-.66-.09-1.48-.21-2.42.34-.8.46-1.14,1.17-1.39,1.7-.11.23-.22.46-.32.54-.27.19-1.35.16-1.87.14-.49-.02-.98-.04-1.37-.02-1.39.1-2.81-.07-4.33-.53-.89-.27-1.83-.72-2.66-1.27-1-.65-1.87-1.44-2.36-2.18Z"/>
      </g>
    </g>
  </g>
</svg>