<?xml version="1.0" encoding="UTF-8"?>
<svg id="Layer_2" data-name="Layer 2" xmlns="http://www.w3.org/2000/svg" viewBox="0 0 800.33 516.48">
  <defs>
    <style>
      .cls-1 {
        fill: #282435;
      }

      .cls-1, .cls-2, .cls-3, .cls-4, .cls-5, .cls-6, .cls-7, .cls-8, .cls-9, .cls-10 {
        stroke-width: 0px;
      }

      .cls-2 {
        fill: #3d384f;
      }

      .cls-3 {
        fill: #0c0d0d;
      }

      .cls-4 {
        fill: #161616;
      }

      .cls-5 {
        fill: #fff;
      }

      .cls-6 {
        fill: #282728;
      }

      .cls-7 {
        fill: #231f20;
      }

      .cls-8 {
        fill: #272727;
      }

      .cls-9 {
        fill: #f1f1f2;
      }

      .cls-10 {
        fill: #383838;
      }
    </style>
  </defs>
  <g id="BUFFALO">
    <g id="POSE">
      <g>
        <path class="cls-3" d="m284.21,258.01s.71,2,1.99,5.49c4.99,13.53,18.71,49.52,33.81,78.87,19.01,36.92,20.94,105.09,25.07,125.25,4.14,20.16,17.42,34.28,24.79,0,7.38-34.28-5.81-100.2-13.72-122.61-7.91-22.41,19.61-92.47-11.07-121.08-30.68-28.61-74.83-30.48-60.88,34.09Z"/>
        <path class="cls-3" d="m684.45,339.72c-6.59,26.37-35.6,102.84-39.55,116.02-1.25,4.17-2.11,8.91-3.32,13.43-15.58,2.02-27.71.98-36.43-.83,8.52-22.69,46.63-101.2,27.88-129.94-19.78-30.32-29.01-95.39-29.01-95.39,3.96-82.19,87.02-76.01,67.24,0-19.78,76.02,19.78,70.34,13.18,96.71Z"/>
        <path class="cls-1" d="m641.58,469.18c-2.62,9.78-6.92,18.59-20.49,18.59-19.86,0-22.33.94-17.06-16.2.28-.9.66-1.96,1.12-3.22,8.71,1.81,20.84,2.85,36.43.83Z"/>
        <path class="cls-8" d="m768.48,156.05c-39.05-19.96-72.58-27.87-75.26-13.98-9.69,50.21-64.14,126.45-136.66,131.25-72.51,4.81-107.66-25.05-107.66-25.05,0,0-26.82-70.72-69.52-16.84-42.72,53.87-73.33-38.74-73.33-38.74-53.86-51.1-87.15-58.18-106.13-36.11-8.11-47.77-2.2-94.82,22.95-116.91,12.16,2.36,31.48,2,58.68-1.89,0,0,106.96-16.81,155.03-21.89,48.07-5.08,96.25,32.43,123.93,31.12,27.69-1.32,115.23-27.3,166.39,15.35,3.52,2.94,7.17,5.63,10.89,8.06,17.83,27.66,28.45,59.34,32.24,70.92.98,2.99.42,8.08-1.56,14.7Z"/>
        <path class="cls-4" d="m768.48,156.05c-10.64,35.69-62.73,115.77-139.04,150.82-90.44,41.52-205.2,23.73-259.55,13.84-54.36-9.89-115.09-24.55-149.84-98.97-9.44-20.21-16.32-42.76-20.13-65.14,18.99-22.07,52.28-14.99,106.13,36.11,0,0,30.61,92.61,73.33,38.74,42.7-53.88,69.52,16.84,69.52,16.84,0,0,35.15,29.86,107.66,25.05,72.51-4.8,126.97-81.04,136.66-131.25,2.68-13.9,36.2-5.99,75.26,13.98Z"/>
        <path class="cls-10" d="m737.8,70.43c-3.72-2.43-7.37-5.12-10.89-8.06-51.16-42.65-138.7-16.66-166.39-15.35-27.69,1.32-75.86-36.19-123.93-31.12-48.07,5.08-155.03,21.89-155.03,21.89-27.2,3.89-46.53,4.25-58.68,1.89,6.47-5.71,14.24-9.74,23.36-11.71,0,0,96.98-23.68,164.21-27.63,67.24-3.96,94.93,27.59,152.28,27.63,57.35.05,85-19.82,130.5,0,18.02,7.86,32.86,24.29,44.58,42.45Z"/>
        <path class="cls-4" d="m448.02,258c-9.89,79.69-43.51,84.45-41.53,163.55,1.98,79.11-13.83,51.42-13.83,51.42-2.02,8.77-1.74,16.61-1.73,23.14-16.53-5.88-30.96-7.88-41.7-8.35.08-.3.16-.63.24-.95,6.26-25.71,23.42-142.39,20.42-213.49-.95-22.56-.34-41.56.94-56.97.37,1,.79,1.98,1.23,2.95,0,0,8.82,92.65,18.88,113.78,10.06,21.13,33.84-10.27,45.66-59.76,3.72-15.61,8.36-31.44,12.02-47.42.87,10.32.76,21.13-.59,32.1Z"/>
        <path class="cls-2" d="m369.89,516.48c-30.3,0-26.76-3.86-20.66-28.72,10.75.46,25.17,2.47,41.7,8.35.05,12.63-.82,20.37-21.04,20.37Z"/>
        <path class="cls-4" d="m800.33,340.96c0,19.78-11.87,102.84-11.87,120.64,0,8-1.6,18.41-4.42,27.42-20.91,4.39-34.61,2.98-43.4-.01,8.75-27.69,24.88-95.82,6.05-126.29-22-35.6-78.87-59.32-92.7-156.12-2.45-17.1-2.48-32.06-.86-45.12,0,0,27.42,117.59,67.61,141.32,40.17,23.73,32.41,49.53,55.99,43.85,7.87-1.9,14.31-6.55,19.63-15.76,2.41,2.45,3.96,5.52,3.96,10.06Z"/>
        <path class="cls-2" d="m784.05,489.02c-3.47,11.05-8.77,20.04-15.21,20.04-11.72,0-37.72,3.96-31.79-9.89.86-1.99,2.12-5.51,3.6-10.17,8.79,2.99,22.49,4.4,43.4.01Z"/>
        <path class="cls-8" d="m448.61,225.9c-3.67,15.98-8.31,31.81-12.02,47.42-11.81,49.49-35.6,80.9-45.66,59.76-10.06-21.13-18.88-113.78-18.88-113.78-.44-.98-.86-1.95-1.23-2.95,2.74-33.18,8.56-49.81,8.56-49.81,19.24-51.08,63.69-5.31,69.23,59.36Z"/>
        <path class="cls-8" d="m796.37,330.9c-5.33,9.2-11.76,13.86-19.63,15.76-23.59,5.68-15.82-20.12-55.99-43.85-40.19-23.73-67.61-141.32-67.61-141.32,7.49-60.82,50.58-80.07,50.58-80.07,105.08-34.11,62.99,180.45,65.12,214.09,1.63,25.92,19.46,27.15,27.54,35.4Z"/>
        <path class="cls-4" d="m170.65,100.27s-24.28-5.98-41.22,5.64-24.06,23.45-2.47,29c21.59,5.55,49.05-10.52,56.65-21.6,7.6-11.08-12.97-13.04-12.97-13.04Z"/>
        <path class="cls-4" d="m158.6,110.03s-10.98-5.97-24.9,2.72-18.83,11.49-7.3,17.37c11.52,5.88,34.47-5.79,41.43-10.14,6.96-4.34-.54-5.72-9.23-9.95Z"/>
        <path class="cls-4" d="m327.88,113.34s-11.41,19.7-20.65,25.02c-9.22,5.31-11.61,8.35-8.36,29.59,3.24,21.23-12.29,46.86-14.68,55.97-7.1-3.81-17.67-6.67-33.37-6.67s-26.26,2.86-33.37,6.67c-2.39-9.11-17.92-34.73-14.66-55.97,3.24-21.25.85-24.28-8.37-29.59-9.24-5.31-20.63-25.02-20.63-25.02-1.89-9.82-2.43-20.4,4.21-31.87,12.32-21.25,72.83-21.25,72.83-21.25,0,0,60.53,0,72.83,21.25,6.65,11.47,6.1,22.05,4.22,31.87Z"/>
        <path class="cls-4" d="m217.46,223.91h-.02c-13.82,7.41-14.6,18.41-14.65,19.1-.03-1.34-.06-2.62-.17-3.78-1.03-10.62-3.08-9.85-12.31-34.89-9.23-25.03-12.31-51.59-12.31-67.52,0-7.33-2.6-15.13-4.22-23.5,0,0,11.4,19.71,20.64,25.02,9.23,5.3,11.62,8.34,8.37,29.58-3.25,21.23,12.28,46.87,14.66,55.97Z"/>
        <circle class="cls-9" cx="194.25" cy="153.94" r="12.6" transform="translate(-.2 307.62) rotate(-76.72)"/>
        <circle class="cls-7" cx="195.62" cy="152.58" r="9.2" transform="translate(-29.82 49.03) rotate(-13.28)"/>
        <path class="cls-5" d="m185.3,147.31c0-1.23,1-2.23,2.23-2.23s2.23,1,2.23,2.23-1,2.23-2.23,2.23-2.23-1-2.23-2.23Z"/>
        <path class="cls-4" d="m330.12,101.65s25,.45,38.39,16.02c13.39,15.57,17.24,28.84-5.05,28.66-22.29-.18-44.71-22.75-49.22-35.41-4.5-12.66,15.88-9.27,15.88-9.27Z"/>
        <path class="cls-4" d="m339.26,114.18s12.14-2.95,23.37,9.01c11.23,11.97,15.25,15.93,2.6,18.66-12.65,2.73-31.83-14.44-37.45-20.43-5.62-5.98,1.99-5.39,11.47-7.25Z"/>
        <path class="cls-4" d="m284.21,223.91h.02c13.82,7.41,14.6,18.41,14.65,19.1.03-1.34.06-2.62.17-3.78,1.03-10.62,3.08-9.85,12.31-34.89,9.23-25.03,12.31-51.59,12.31-67.52,0-7.33,2.6-15.13,4.22-23.5,0,0-11.4,19.71-20.64,25.02-9.23,5.3-11.62,8.34-8.37,29.58,3.25,21.23-12.28,46.87-14.66,55.97Z"/>
        <circle class="cls-9" cx="307.42" cy="153.94" r="12.6" transform="translate(-18.81 262.47) rotate(-45)"/>
        <circle class="cls-7" cx="306.04" cy="152.58" r="9.2" transform="translate(87.23 415.38) rotate(-76.72)"/>
        <path class="cls-5" d="m316.36,147.31c0-1.23-1-2.23-2.23-2.23s-2.23,1-2.23,2.23,1,2.23,2.23,2.23,2.23-1,2.23-2.23Z"/>
        <path class="cls-1" d="m434.75,149.37c-56.26,0-90.54-39.74-105.78-39.74s-45.41,7.12-60.34,6.25c-14.94-.88-17.8-11.56-17.8-11.56,0,0-2.85,10.68-17.79,11.56-14.95.87-45.1-6.25-60.36-6.25s-49.52,39.74-105.76,39.74S-12.18,109.73,6.28,75.45c18.46-34.28,69.43-33.4,58.01-25.49-11.43,7.91-49.23,23.47-37.8,54.36,11.43,30.89,65.92,15.69,88.77,0,22.86-15.69,44.83-35.03,52.74-53.49,7.91-18.46,47.02-47.46,82.84-29.01,35.82-18.46,74.93,10.55,82.84,29.01s29.89,37.8,52.74,53.49c22.86,15.69,77.35,30.89,88.78,0,11.42-30.89-26.37-46.45-37.8-54.36-11.43-7.91,39.55-8.79,58.01,25.49,18.46,34.28-4.39,73.92-60.65,73.92Z"/>
        <path class="cls-6" d="m250.83,121.32s-7.48,3.2-23.62,4.08c-16.14.88-19.13,5.98-14.56,11.51,4.57,5.52,9.44,23.53,4.81,29.11-4.63,5.59.55,27.31,9.75,33.53,9.2,6.22,16.38-3.73,33.08,0,16.7,3.73,17.95-4.97,23.92-13.66,5.97-8.69,5.46-19.95,0-23.02-5.46-3.06-8.61-21.17,0-23.29,8.61-2.12,14.03-8.07,4.29-10.68-9.75-2.61-32.18-1.99-37.66-7.58Z"/>
        <path class="cls-2" d="m246.23,27.98s7.67,58.01-19.02,59.77c-26.69,1.76-51.05-3.52-68.75,7.03-17.7,10.55-48.09,41.01-96.81,38.3-48.72-2.71-49.7-32.25-41.31-43.58,8.39-11.33-11.3,30.15,42.19,31.22s101.37-46.72,110.01-60.5c8.65-13.78,31.5-52.46,73.69-32.24Z"/>
        <path class="cls-2" d="m255.45,27.98s-7.67,58.01,19.02,59.77c26.69,1.76,51.05-3.52,68.75,7.03,17.7,10.55,48.09,41.01,96.81,38.3,48.72-2.71,49.7-32.25,41.31-43.58-8.39-11.33,11.3,30.15-42.19,31.22s-101.37-46.72-110.01-60.5c-8.65-13.78-31.5-52.46-73.69-32.24Z"/>
        <path class="cls-2" d="m289.18,238.31c-12.43,18.66-26.55,19.7-38.35,19.7s-25.92-1.04-38.35-19.7c-12.16-18.26-.52-35.74-.02-36.47l.02-.02c8.17-5.2,20.32-9.11,38.35-9.11s30.19,3.91,38.35,9.11l.02.02c.5.74,12.16,18.21-.02,36.47Z"/>
        <path class="cls-1" d="m233.67,221.73s-8.24-15.46-17.42-14.51c-9.19.95.96,7.26,3.8,14.51,2.84,7.26,19.43,17.62,13.62,0Z"/>
        <path class="cls-1" d="m306.04,227.92v.05c-.27,14.92-.68,36.26-55.21,36.26s-54.93-21.34-55.2-36.26v-.05c.05-.95.95-15.99,16.83-26.09-.5.74-12.15,18.21.02,36.47,12.43,18.66,26.55,19.7,38.35,19.7s25.92-1.04,38.35-19.7c12.18-18.26.52-35.74.02-36.47,15.88,10.1,16.78,25.14,16.85,26.09Z"/>
        <path class="cls-1" d="m267.99,221.73s8.24-15.46,17.42-14.51c9.19.95-.96,7.26-3.8,14.51-2.84,7.26-19.43,17.62-13.62,0Z"/>
      </g>
    </g>
  </g>
</svg>