<?xml version="1.0" encoding="UTF-8"?>
<svg id="Layer_2" data-name="Layer 2" xmlns="http://www.w3.org/2000/svg" viewBox="0 0 364.49 185.65">
  <defs>
    <style>
      .cls-1 {
        fill: #3f3e3b;
      }

      .cls-1, .cls-2, .cls-3, .cls-4, .cls-5, .cls-6, .cls-7, .cls-8 {
        stroke-width: 0px;
      }

      .cls-2 {
        fill: #42271f;
      }

      .cls-3 {
        fill: #fff;
      }

      .cls-4 {
        fill: #6b4033;
      }

      .cls-5 {
        fill: #563428;
      }

      .cls-6 {
        fill: #231f20;
      }

      .cls-7 {
        fill: #51504b;
      }

      .cls-8 {
        fill: #63635d;
      }
    </style>
  </defs>
  <g id="PLATYPUS">
    <g>
      <path class="cls-2" d="m121.06,93.18c-17.89,10.31-68.1,1.65-95.27,7.62-19.19,4.22-26.88.44-25.67-9.69,3.9,2.9,10.79,4.4,22.95,1.21,29.83-7.83,74.61-13.32,58.41-35.34,7.7-.05,12.75.16,12.75.16,32.24-.48,44.71,25.72,26.83,36.04Z"/>
      <path class="cls-5" d="m23.07,92.32c-12.16,3.19-19.05,1.69-22.95-1.21.5-4.21,2.54-9.52,5.94-15.8,8.61-15.92,53.13-18.2,75.42-18.33,16.2,22.02-28.58,27.51-58.41,35.34Z"/>
      <path class="cls-1" d="m74.23,88.61s-28.2-.39-39.9,11.16c-11.69,11.54-4.78,7.42,11.37,8.79,16.15,1.38,18.96,6.96,35.79,3.14,16.82-3.82,18.11-26.51-7.25-23.09Z"/>
      <path class="cls-2" d="m242.08,118.88c-65.35-.69-140.34,2.75-167.85-13.07-12.83-7.37-11.45-17.89-3.8-29.8,1.59,8.86,6.14,17.98,18.18,18.02,23.45.09,31.02-46,43.4-54.26,12.38-8.25,44.64,18.58,82.17,11.01,20.15-4.06,64.24-3.56,99.03,5.39,6.75,41.55-12.86,63.33-71.13,62.71Z"/>
      <path class="cls-5" d="m313.21,56.17c-34.79-8.95-78.88-9.45-99.03-5.39-37.53,7.57-69.79-19.26-82.17-11.01-12.38,8.26-19.95,54.35-43.4,54.26-12.04-.04-16.59-9.16-18.18-18.02,8.76-13.64,25.76-29.12,39.09-43.81C134.49,4.69,167.1-2.19,227,.56c59.91,2.75,82.6,39.58,82.6,39.58,1.58,5.63,2.79,10.98,3.61,16.03Z"/>
      <path class="cls-1" d="m347.29,177.26s1.21-5.56,6.09-7.05c0,0,1.06-7.49,7.71-10.3,0,0-1.47-7.3,0-10.11s-15.36-4.57-20.87-3.98c-5.5.59-24.15,15.75-21.4,19.94s28.47,11.51,28.47,11.51Z"/>
      <path class="cls-7" d="m325.54,140.21s-19.49,5.51-15.36,20.98c4.13,15.47,29.58,16.16,37.15,18.23,7.57,2.06-14.45-13.07-14.45-13.07,0,0,15.82,1.92,22.01,4.4,6.19,2.48-10.32-14.03-10.32-14.03,0,0,7.57,1.57,16.51,3.19,8.94,1.62-11.01-10.11-11.01-10.11,0,0,8.74-.73,13.31,0,4.57.73-4.6-10.96-37.85-9.59Z"/>
      <path class="cls-2" d="m325.54,96.24s7.95,29.71,7.03,39.01c-.92,9.3-7.95,16.54-12.84,19.8-4.89,3.26-27.52-4.66-33.94-5.9-6.42-1.24,14.67-74.33,39.74-52.92Z"/>
      <path class="cls-5" d="m324.37,80.43c-2.37,57.8-111.2,80.41-144.89,66.36-33.71-14.05-13.84-.7-58.47,0-28.03.43-36.44-21.15-38.83-37.27,1.16-3.5,2.57-7.11,4.22-10.82,11.15-25.04,28.37-40.51,44.85-49.69-6.56,4.69-11.5,9.64-14.37,14.84,0,0-26.14,27.5,19.95,24.41,46.09-3.09,121.53-20.28,151.22-34.73,8.52-4.15,14.83-10.81,18.05-17.91,6.74,7.83,11.94,18.35,15.51,31.9,1.19,4.52,2.11,8.82,2.76,12.91Z"/>
      <path class="cls-1" d="m26.47,155.88s1.76,5.26.11,10.28c0,0,6.57,5.48,6.33,10.73,0,0,11.6,5.81,10.97,7.87,0,0,26.63-12.06,19.99-20.73-6.64-8.67-27.64-14.87-37.4-8.14Z"/>
      <path class="cls-2" d="m270.75,158.32c-45.62,20.18-112.14,16.51-149.74,16.51-34.57,0-52.09-25.57-38.83-65.31,2.39,16.12,10.8,37.7,38.83,37.27,44.63-.7,24.76-14.05,58.47,0,33.69,14.05,142.52-8.56,144.89-66.36,6.19,39.1-12.32,59.62-53.62,77.89Z"/>
      <path class="cls-4" d="m306.1,35.62c-3.22,7.1-9.53,13.76-18.05,17.91-29.69,14.45-105.13,31.64-151.22,34.73-46.09,3.09-19.95-24.41-19.95-24.41,2.87-5.2,7.81-10.15,14.37-14.84,13.69-7.64,26.87-10.92,35.62-11.76,19.26-1.83,60.13-14.68,60.13-14.68,35.28-9.31,62.09-6.7,79.1,13.05Z"/>
      <path class="cls-7" d="m62.37,146.35s19.73,5.34,15.66,20.74c-4.07,15.4-29.79,16.26-37.42,18.36-7.63,2.1,14.51-13.08,14.51-13.08,0,0-15.98,2.02-22.22,4.52-6.24,2.5,10.34-14.01,10.34-14.01,0,0-7.64,1.61-16.67,3.28-9.03,1.67,11.06-10.12,11.06-10.12,0,0-8.84-.67-13.45.09-4.62.76,4.58-10.92,38.19-9.78Z"/>
      <circle class="cls-6" cx="177.55" cy="99.68" r="11.18"/>
      <circle class="cls-3" cx="180.21" cy="97.02" r="2.66"/>
      <circle class="cls-6" cx="104.19" cy="92.32" r="11.18"/>
      <circle class="cls-3" cx="106.85" cy="89.66" r="2.66"/>
      <path class="cls-8" d="m162.98,143.32c-3.53.65-6.91,1.62-9.55,3.06-9.96,5.44-22.92,24.07-46.57,21.32-23.65-2.75-28.41-10.32-40.79-6.88-4.89,1.36-10.39.25-15.25-1.59-1.98-6.73,1.92-14.72,9.54-19.04,13.34-7.55,24.46-24.41,24.46-24.41,28.49-27.87,36.6-19.16,52.04-9.14,15.45,10.01,20.64,19.48,25.59,29.85,1.11,2.32,1.21,4.59.53,6.83Z"/>
      <path class="cls-7" d="m162.98,143.32c-2.3,7.75-13.78,15.12-24.18,23.12-13.42,10.31-51.83,7.32-72.77,3.71-8.96-1.55-13.73-5.88-15.21-10.92,4.86,1.84,10.36,2.95,15.25,1.59,12.38-3.44,17.14,4.13,40.79,6.88,23.65,2.75,36.61-15.88,46.57-21.32,2.64-1.44,6.02-2.41,9.55-3.06Z"/>
      <path class="cls-6" d="m94.27,149.5s.69-4.61,4.13-6.27,4.13,8.14-4.13,6.27Z"/>
      <path class="cls-6" d="m81.54,146.49s4.63-2.85,4.4-4.65c-.23-1.8-7.06-.5-7.12,2.33-.06,2.83,1.08,3.46,2.72,2.33Z"/>
    </g>
  </g>
</svg>