<?xml version="1.0" encoding="UTF-8"?>
<svg id="Layer_2" data-name="Layer 2" xmlns="http://www.w3.org/2000/svg" viewBox="0 0 453.59 231.08">
  <defs>
    <style>
      .cls-1 {
        fill: #847947;
      }

      .cls-1, .cls-2, .cls-3, .cls-4, .cls-5, .cls-6, .cls-7, .cls-8 {
        stroke-width: 0px;
      }

      .cls-2 {
        fill: #b3b3b3;
      }

      .cls-3 {
        fill: #fff;
      }

      .cls-4 {
        fill: #231f20;
      }

      .cls-5 {
        fill: #f1f2f2;
      }

      .cls-6 {
        fill: #bcbec0;
      }

      .cls-7 {
        fill: #685f3a;
      }

      .cls-8 {
        fill: #a39767;
      }
    </style>
  </defs>
  <g id="_1" data-name="1">
    <g>
      <g>
        <path class="cls-2" d="m142.77,131.34c-.69.79.96,3.85,2.52,5.68,2.26,2.64,8.86,4.83,8.86,4.83,2.55,1.05,4.91-.23,5.68-1.6-2.78-.32-6.16-1.18-9.52-2.58-4.03-1.68-6.3-4.3-7.54-6.32Z"/>
        <path class="cls-3" d="m158.84,138.02c-3.3-.87-8.86-3.3-13.56-6.08-1.44-.85-2.21-.95-2.52-.6,1.24,2.02,3.51,4.65,7.54,6.32,3.36,1.4,6.74,2.26,9.52,2.58.51-.91.33-1.88-.99-2.22Z"/>
      </g>
      <g>
        <path class="cls-2" d="m123.88,142.42c-.69.79.96,3.85,2.52,5.68,2.26,2.64,8.86,4.83,8.86,4.83,2.55,1.05,4.91-.23,5.68-1.6-2.78-.32-6.16-1.18-9.52-2.58-4.02-1.68-6.3-4.3-7.54-6.32Z"/>
        <path class="cls-3" d="m139.96,149.1c-3.3-.87-8.86-3.3-13.56-6.08-1.45-.85-2.21-.95-2.52-.6,1.24,2.02,3.51,4.65,7.54,6.32,3.36,1.4,6.74,2.26,9.52,2.58.52-.91.33-1.88-.99-2.22Z"/>
      </g>
      <g>
        <path class="cls-2" d="m102.31,152.51c-.69.79.96,3.85,2.52,5.68,2.26,2.65,8.86,4.83,8.86,4.83,2.55,1.05,4.9-.22,5.68-1.6-2.78-.32-6.16-1.18-9.52-2.58-4.03-1.68-6.3-4.3-7.54-6.32Z"/>
        <path class="cls-3" d="m118.38,159.19c-3.3-.87-8.86-3.3-13.55-6.08-1.45-.86-2.21-.95-2.52-.6,1.24,2.02,3.51,4.65,7.54,6.32,3.36,1.4,6.74,2.26,9.52,2.58.52-.92.33-1.88-.99-2.22Z"/>
      </g>
      <g>
        <path class="cls-2" d="m78.29,165.1c-.69.79.96,3.85,2.52,5.68,2.26,2.65,8.86,4.83,8.86,4.83,2.55,1.05,4.91-.22,5.68-1.6-2.78-.33-6.16-1.18-9.52-2.58-4.02-1.68-6.3-4.3-7.54-6.32Z"/>
        <path class="cls-3" d="m94.36,171.79c-3.3-.87-8.86-3.3-13.56-6.08-1.44-.86-2.21-.95-2.52-.6,1.24,2.02,3.51,4.65,7.54,6.32,3.36,1.4,6.75,2.26,9.52,2.58.52-.92.33-1.88-.99-2.23Z"/>
      </g>
      <g>
        <path class="cls-2" d="m52.55,177.28c-.69.79.96,3.85,2.52,5.68,2.26,2.65,8.86,4.83,8.86,4.83,2.55,1.05,4.9-.22,5.68-1.6-2.78-.33-6.16-1.18-9.52-2.58-4.03-1.68-6.3-4.3-7.54-6.33Z"/>
        <path class="cls-3" d="m68.62,183.96c-3.3-.87-8.86-3.3-13.55-6.08-1.45-.86-2.21-.95-2.52-.6,1.24,2.02,3.51,4.65,7.54,6.33,3.36,1.4,6.74,2.26,9.52,2.58.52-.92.33-1.88-.99-2.23Z"/>
      </g>
      <g>
        <path class="cls-2" d="m26.66,191.33c-.69.79.96,3.85,2.52,5.68,2.26,2.65,8.86,4.83,8.86,4.83,2.55,1.05,4.91-.22,5.68-1.6-2.78-.33-6.16-1.18-9.52-2.58-4.02-1.68-6.3-4.3-7.54-6.33Z"/>
        <path class="cls-3" d="m42.74,198.01c-3.3-.87-8.86-3.3-13.56-6.08-1.45-.86-2.21-.95-2.52-.6,1.24,2.02,3.51,4.65,7.54,6.33,3.36,1.4,6.75,2.26,9.52,2.58.52-.92.33-1.88-.99-2.23Z"/>
      </g>
      <g>
        <path class="cls-2" d="m.16,204.85c-.69.79.96,3.85,2.52,5.68,2.26,2.65,8.86,4.83,8.86,4.83,2.55,1.05,4.91-.22,5.68-1.6-2.78-.32-6.16-1.18-9.52-2.58-4.03-1.68-6.3-4.3-7.54-6.32Z"/>
        <path class="cls-3" d="m16.23,211.53c-3.3-.87-8.86-3.3-13.56-6.08-1.44-.86-2.21-.95-2.52-.6,1.24,2.02,3.51,4.65,7.54,6.32,3.36,1.4,6.74,2.26,9.52,2.58.52-.91.33-1.88-.99-2.22Z"/>
      </g>
      <path class="cls-7" d="m284.81,142.23c-29.89.13-50.74-2.91-61.17-5.54-10.43-2.63-188.3,85.31-200.6,88.51-5.95,1.55-13.21-.03-19.11-2.07-3.27,13.44,21.92,6.67,34.12,2.68,23.89-7.81,157.09-73.98,182.12-73.98,22.26,0,57.73,2.19,96.61-1.23,0,0,56.32,3.4,81.34,0,4.92-.67,6.97-1.9,7.12-3.61h0c-28.33,4.19-90.54-4.88-120.43-4.75Z"/>
      <path class="cls-7" d="m375.52,108.06c7.92-13.37,18.25-27.21,39.28-36.87,8.34-3.83,14.88-7.04,19.75-9.76,0,0,21.95-7.62,18.71-15.96-3.24-8.34-1.63-25.72-.24-38.23.22-1.96.28-3.5.21-4.64-4.99,10.37-4.88,28.87-5.77,35.92-1.04,8.34-2.78,10.43-13.21,17.38-10.43,6.95-32.67,11.12-44.49,15.99-11.82,4.87-17.38,3.48-19.46,17.38-2.08,13.9,7.64,28.12,7.64,28.12h0c-1.67-3.01-2.63-6.13-2.44-9.32Z"/>
      <path class="cls-1" d="m427.31,55.43c-18,9.11-43.1,11.12-57.29,18.54-14.2,7.41-9.9,19.93,0,38.93,9.9,19,28.09,25.1,21.15,27.34-6.94,2.24-55.61-.93-100.79-3.61-45.18-2.68-45.88-10.52-66.73-5.48-20.85,5.04-171.69,72.12-191.85,83.12-10.34,5.65-18.57,4.24-24.14,1.55-.67.74-1.2,1.45-1.57,2.13-1.1,1.99-1.79,3.7-2.15,5.18,5.91,2.04,13.16,3.62,19.11,2.07,12.3-3.19,190.18-91.13,200.6-88.51,10.43,2.63,31.28,5.68,61.17,5.54,29.89-.14,92.1,8.94,120.43,4.75.49-5.68-20.07-16.61-27.28-29.59h0s-9.73-14.22-7.64-28.12c2.08-13.9,7.65-12.51,19.46-17.38,11.82-4.86,34.06-9.04,44.49-15.99,10.43-6.95,12.16-9.04,13.21-17.38.88-7.06.77-25.55,5.77-35.92-.1-1.49-.45-2.3-1-2.53-3.96,9.07-5.92,18.75-6.85,29.88-1.39,16.68-.07,16.37-18.07,25.49Z"/>
      <path class="cls-8" d="m441.9,12.8c-7.65,13.21-12.15,32.67-12.15,32.67-4.9-.81-10.89-1.58-17.87-2.42-9.39-11-4.51-23.76-10.53-19.12-6.02,4.63-10.19,16.68-10.19,16.68-7.75-.92-16.17-1.42-25-1.53-8.78-9.19-6.18-43.71-14.39-32.77-6.82,9.09-16.27,27.59-19.5,34.05-50.52,4.21-104.63,18.24-126.02,37.02,0,0-11.82,4.27-29.89,43.17-11.47,24.67-149.47,73.81-168.73,95.27,5.57,2.7,13.8,4.1,24.14-1.55,20.16-11.01,171-78.09,191.85-83.12,20.85-5.04,21.55,2.8,66.73,5.48,45.18,2.69,93.85,5.85,100.79,3.61,6.94-2.23-11.25-8.33-21.15-27.34-9.9-19-14.2-31.52,0-38.93,14.2-7.41,39.3-9.42,57.29-18.54,18-9.11,16.68-8.8,18.07-25.49.93-11.13,2.9-20.82,6.85-29.88-1.71-.7-5.46,4.32-10.33,12.74Z"/>
      <path class="cls-1" d="m338.1,47.79s11.28-29.09,13.8-32.35c2.53-3.26,4.64-8.55,6.32,5.29,1.69,13.85,4.57,21.96,4.57,21.96,0,0-13.35-.23-24.7,5.1Z"/>
      <path class="cls-1" d="m392.97,44.08s5.98-13.59,8.92-17.03c2.93-3.44,1.74-.17,3.65,5.73s4.69,9.91,4.69,9.91c0,0-10.27-.7-17.26,1.39Z"/>
      <g>
        <path class="cls-3" d="m215.72,155.76c.47-.59-.69-1.5-5.57-2.73-10.26-2.58-10.38-3.99-14.37-3.66,0,0-1.38.73-2.13,1.7,1.26.92,3.92,2.27,9.22,3.02,6.29.89,9.84,1.68,12.85,1.67Z"/>
        <path class="cls-6" d="m195.24,154.18c4.94,1.92,12.7,2.3,15.85,2.44,1.65.07,4.12-.21,4.63-.86-3.01,0-6.56-.78-12.85-1.67-5.31-.75-7.96-2.1-9.22-3.02-.74.96-.86,2.16,1.59,3.11Z"/>
      </g>
      <g>
        <path class="cls-3" d="m191.15,166.07c.47-.59-.69-1.5-5.57-2.73-10.26-2.59-10.38-3.99-14.37-3.67,0,0-1.38.73-2.13,1.7,1.26.92,3.91,2.27,9.22,3.02,6.29.89,9.84,1.68,12.85,1.67Z"/>
        <path class="cls-6" d="m170.67,164.49c4.94,1.92,12.7,2.3,15.85,2.44,1.65.07,4.12-.21,4.63-.86-3.01,0-6.56-.78-12.85-1.67-5.31-.75-7.96-2.1-9.22-3.02-.74.96-.86,2.16,1.59,3.11Z"/>
      </g>
      <g>
        <path class="cls-3" d="m165.15,177.9c.47-.59-.69-1.5-5.57-2.73-10.26-2.59-10.38-3.99-14.37-3.66,0,0-1.38.73-2.13,1.7,1.26.92,3.91,2.26,9.22,3.01,6.29.89,9.84,1.68,12.85,1.67Z"/>
        <path class="cls-6" d="m144.66,176.32c4.94,1.92,12.7,2.3,15.85,2.44,1.65.07,4.12-.21,4.63-.86-3.01,0-6.56-.78-12.85-1.67-5.31-.75-7.96-2.1-9.22-3.01-.74.96-.86,2.15,1.59,3.11Z"/>
      </g>
      <g>
        <path class="cls-3" d="m139.14,189.74c.47-.59-.69-1.49-5.57-2.73-10.26-2.58-10.38-3.99-14.37-3.66,0,0-1.38.73-2.13,1.7,1.26.92,3.92,2.26,9.22,3.02,6.29.89,9.84,1.68,12.85,1.67Z"/>
        <path class="cls-6" d="m118.66,188.16c4.94,1.92,12.7,2.31,15.85,2.44,1.65.07,4.12-.21,4.63-.86-3.01.01-6.56-.78-12.85-1.67-5.31-.75-7.96-2.1-9.22-3.02-.74.96-.86,2.15,1.59,3.11Z"/>
      </g>
      <g>
        <path class="cls-3" d="m113.14,201.58c.47-.59-.69-1.49-5.57-2.73-10.26-2.58-10.38-3.99-14.37-3.66,0,0-1.38.73-2.13,1.7,1.26.92,3.91,2.27,9.22,3.02,6.29.89,9.84,1.68,12.85,1.67Z"/>
        <path class="cls-6" d="m92.66,200c4.94,1.92,12.7,2.3,15.85,2.44,1.65.07,4.12-.21,4.63-.86-3.01.01-6.56-.78-12.85-1.67-5.31-.75-7.96-2.1-9.22-3.02-.74.96-.86,2.16,1.59,3.11Z"/>
      </g>
      <g>
        <path class="cls-3" d="m87.14,213.42c.47-.59-.69-1.5-5.57-2.73-10.26-2.58-10.38-3.99-14.37-3.66,0,0-1.38.73-2.13,1.7,1.26.92,3.92,2.27,9.22,3.02,6.29.89,9.84,1.68,12.85,1.67Z"/>
        <path class="cls-6" d="m66.66,211.84c4.94,1.92,12.7,2.3,15.85,2.44,1.65.07,4.12-.21,4.63-.86-3.01,0-6.56-.78-12.85-1.67-5.31-.75-7.96-2.1-9.22-3.02-.74.96-.86,2.16,1.59,3.11Z"/>
      </g>
      <g>
        <path class="cls-3" d="m61.14,225.25c.47-.59-.69-1.5-5.57-2.73-10.26-2.59-10.38-3.99-14.37-3.66,0,0-1.38.73-2.13,1.7,1.26.92,3.92,2.27,9.22,3.02,6.29.89,9.84,1.68,12.85,1.67Z"/>
        <path class="cls-6" d="m40.65,223.67c4.94,1.92,12.7,2.3,15.85,2.44,1.65.07,4.12-.21,4.63-.86-3.01,0-6.56-.78-12.85-1.67-5.31-.75-7.96-2.1-9.22-3.02-.74.96-.86,2.16,1.59,3.11Z"/>
      </g>
      <path class="cls-5" d="m243.64,119.74c0,6.41,5.19,11.6,11.6,11.6s11.6-5.19,11.6-11.6-5.19-11.6-11.6-11.6-11.6,5.19-11.6,11.6Z"/>
      <circle class="cls-4" cx="253.63" cy="120.63" r="8.58" transform="translate(-8.1 18.76) rotate(-4.17)"/>
      <path class="cls-3" d="m260.79,114.07c0-1.53-1.24-2.78-2.78-2.78s-2.78,1.24-2.78,2.78,1.24,2.78,2.78,2.78,2.78-1.24,2.78-2.78Z"/>
    </g>
  </g>
</svg>