<svg xmlns="http://www.w3.org/2000/svg" data-name="Layer 2" viewBox="0 0 742.41 475.31"><defs/><g><g><path d="M275.87 180.81s-14.94 22.58 0 64.03c14.94 41.44 29.87 107.42 31.22 118.72 1.36 11.31-6.78 64.14-14.93 74.72-8.15 10.57-14.48 24.71 2.72 24.71s28.65 3.77 28.65-12.25 14.02-61.26 18.55-86.7-3.75-94.24-1.94-114.03 2.72-52.61-11.77-69.19c-14.48-16.57-48.11-11.05-52.5 0ZM570.53 150.56s-24.44 14.52-24.44 56.77 25.29 95.06 47.02 118.82c21.73 23.76 32.59 36.97 31.23 54.13-1.36 17.16-5.43 40.93-14.94 54.13-9.5 13.2-21.73 28.97 0 28.97s27.76 4.04 36.28-30.29c8.53-34.33 8.53-39.61 16.67-68.65 8.15-29.05-18.22-51.21-21.08-61.21-2.68-9.37-18.35-19.26 0-41.77 18.34-22.51 36.85-93.74-3.37-110.9-40.22-17.16-67.38 0-67.38 0Z" style="fill:#a6a8ab;stroke-width:0"/><path d="M713.64 331.66c-6.91-.83-26.9-14.65-26.9-14.65l4.8 14.65s-35.85-29.55-35.85-68.88c0-30.26-13.62-59.48-19.87-71.32-.08-11.84-1.86-20.74-8.49-25.66-17.1-12.75-44.5-33.4-25-38.33 2.15 2.48 5.42 4.88 9.89 7 0 0 37.25 11.01 53.81 35.18 16.56 24.13 13.95 95.95 28.27 107.83 3.77 3.1 9.06 7.99 14.9 12.87 0 .04.04.08.08.04 5.8 8.78 13.33 16.1 13.95 16.68l-10.8-4.88s5.84 9.23 11.38 18.13c1.45 8.2 7.04 18.17 7.04 18.17s-10.35-6.04-17.22-6.83Z" style="fill:#e49e50;stroke-width:0"/><path d="m742.41 363.49-20.7-5.17 7.78 5.17h-12.42c-12.05 0-31.83-16.02-33.07-17.01l4.06 7.12c-.25-.17-1.53-1.12-8.24-6.17-4.14-3.1-9.27-10.72-13.33-17.55-4.1-6.83-7.16-12.87-7.16-12.87-9.44-11.18-17.3-24.75-20.94-40.65-7.62-33.61-2.44-63.87-2.57-84.9 6.25 11.84 19.87 41.06 19.87 71.32 0 39.32 35.85 68.88 35.85 68.88l-4.8-14.65s19.99 13.83 26.9 14.65c6.87.79 17.22 6.83 17.22 6.83s-5.59-9.98-7.04-18.17c3.23 5.13 6.37 10.14 8.24 13.16 5.22 8.28 10.35 22.23 10.35 22.23l-6.71-4.14 6.71 11.92Z" style="fill:#b67b3d;stroke-width:0"/><path d="M709.21 290.35c-5.84-4.88-11.13-9.77-14.9-12.87-14.32-11.88-11.71-83.7-28.27-107.83-16.56-24.17-53.81-35.18-53.81-35.18-4.47-2.11-7.74-4.51-9.89-7 1.61-.41 3.52-.7 5.75-.87 0 0 48.35 6.66 68.17 39.2 7.62 12.5 12.13 34.65 16.06 58.61 1.08 6.58 7.41 44.62 11.84 56.29 1.2 3.23 3.02 6.54 5.05 9.64Z" style="fill:#fab06d;stroke-width:0"/><path d="M144.52 39.8s-21.22-24.12-39.07-27.01C87.6 9.9 87.6 12.31 93.87 26.29c6.27 13.99 19.77 36 50.64 37.05 30.87 1.05 0-23.55 0-23.55Z" style="fill:#b67b3d;stroke-width:0"/><path d="M635.9 208.61c-6.33 13.12-20.37 20.3-37.54 24.58-6.41-12.93-13.23-21.14-16.09-19.76-9.84 4.82-64.44 0-97.23 11.58s-48.23 37.62-114.79 35.69c-66.56-1.93-73.31-23.15-98.39-34.73-25.08-11.58-44.37-28.94-58.84-35.69-14.47-6.75-47.27-32.8-47.27-32.8l8.03-12.31c7.99-12.35 10.3-34.96 4.51-33.84-5.79 1.08-17.36 13.35-36.5 14.39-19.1 1.08-61.89.89-74.43 4.75-9.26 2.86-37.54 8.3-51.66 10.92 21.41-10.76 49.16-24.89 52.63-27.63 5.79-4.51-4.94-13.2 12.5-30.56 17.4-17.36 23.23-27.9 60.96-27.4 37.77.46 22.03 8.14 45.18 12.46s79.1 28.13 90.67 38.43c11.58 10.26 8.45 16.05 23.5 11.23 15.09-4.82 78.75-1.93 91.75 1.43 13.04 3.4 21.22 14.01 32.8 9.18 11.58-4.82 115.75-3.2 136.05-2.82 19.99.42 58.96 7.99 74.24 31.02 6.48 16.55 7.64 35.77-.08 51.86Z" style="fill:#e49e50;stroke-width:0"/><path d="M598.35 233.19c-9.07 2.24-18.98 3.67-29.13 4.71-17.67-9.45-39.36-16.28-39.36-16.28s-9.14 6.29-18.29 10.88c-9.18 4.63-38.12.69-61.27 18.56s-60.27 25.58-92.6 22.65c-32.33-2.86-42.44-16.86-42.44-16.86s-19.29-11.58-28.48-17.86c-9.14-6.25-27.47-16.36-36.15-14.43-8.68 1.93-39.09-19.29-56.45-35.23-17.36-15.94-35.19-21.72-31.79-25.54 3.36-3.82 9.14-24.12 6.25-20.84-2.89 3.28-14.47 15.01-32.33 15.78-17.83.77-30.37-3.16-36.15-4.59-5.79-1.47-31.56 10.42-57.88 9.61-26.31-.77-30.37-13.97-30.37-13.97-2.78-.96-5.4-1.81-7.95-2.47-.04-1.85.27-3.47.93-4.94 1.7.31 2.62.58 2.62.58s47.3-8.6 59.84-12.46c12.54-3.86 55.33-3.67 74.43-4.75 19.14-1.04 30.71-13.31 36.5-14.39 5.79-1.12 3.47 21.49-4.51 33.84l-8.03 12.31s32.8 26.04 47.27 32.8c14.47 6.75 33.76 24.12 58.84 35.69 25.08 11.58 31.83 32.8 98.39 34.73 66.56 1.93 81.99-24.12 114.79-35.69s87.39-6.75 97.23-11.58c2.86-1.39 9.68 6.83 16.09 19.76Z" style="fill:#fff;stroke-width:0"/><path fill="#d0d2d3" stroke-width="0" d="M569.22 237.89c-19.41 2.08-39.55 2.78-55.72 5.21-40.71 6.17-71.11 48.66-156.15 46.19-85.08-2.47-107.3-49.85-122.08-62.2-14.82-12.31-44.37-20.95-54.25-34.49-9.88-13.58-30.83-23.38-30.83-23.38-28.9 2.01-35.88-.23-58.8 5.86-22.96 6.1-25.93 6.1-40.9 6.1-9.26 0-19.64-1.54-27.9-7.41 25.23 8.99 53.67-7.37 66.94-8.6 14.16-1.35 17.36-5.75 8.37-6.41-9.03-.62-33.45 7.1-50.16 11.61-16.75 4.48-33.03-4.82-33.03-4.82l-.08-.08c-1.54-2.39-3.55.04-7.06-6.75-2.35-4.63-3.51-8.33-3.63-11.42 2.55.66 5.17 1.5 7.95 2.47 0 0 4.05 13.2 30.37 13.97 26.31.81 52.09-11.07 57.88-9.61 5.79 1.43 18.33 5.36 36.15 4.59 17.86-.77 29.44-12.5 32.33-15.78 2.89-3.28-2.89 17.02-6.25 20.84-3.4 3.82 14.43 9.61 31.79 25.54 17.36 15.94 47.77 37.16 56.45 35.23 8.68-1.93 27.01 8.18 36.15 14.43 9.18 6.29 28.48 17.86 28.48 17.86s10.11 14.01 42.44 16.86c32.33 2.93 69.45-4.78 92.6-22.65s52.09-13.93 61.27-18.56c9.14-4.59 18.29-10.88 18.29-10.88s21.68 6.83 39.36 16.28Z"/><path d="M635.97 156.75c-15.28-23.04-54.25-30.6-74.24-31.02-20.3-.39-124.47-2.01-136.05 2.82-11.58 4.82-19.76-5.79-32.8-9.18-13-3.36-76.67-6.25-91.75-1.43-15.05 4.82-11.92-.96-23.5-11.23-11.58-10.3-67.52-34.11-90.67-38.43-23.15-4.32-7.41-12-45.18-12.46-37.74-.5-43.56 10.03-60.96 27.4-17.44 17.36-6.71 26.04-12.5 30.56-3.47 2.74-31.21 16.86-52.63 27.63-4.98.96-8.18 1.54-8.18 1.54s-.93-.27-2.62-.58c2.58-6.1 10.77-9.57 21.68-15.01 17.94-8.99 30.25-12.39 32.26-25.35s6.98-21.95 18.94-30.91c11.96-8.99 28.55-25.5 50.51-23.5 5.79.54 11.27.15 16.24.66 4.98.5 9.45 1.89 13.35 5.94 68.64 1.62 121.77 50.85 137.79 47.15 16.01-3.67 91.21 0 115.87 7.41s161.52 2.47 189.84 11.11c14.66 4.44 27.67 19.14 34.61 36.89Z" style="fill:#fab06d;stroke-width:0"/><path d="M320.35 372.17c-4.51 26.39-18.56 73.27-18.56 89.9s-11.42 12.69-28.63 12.69-10.88-14.66-2.74-25.62c8.18-10.96 16.32-65.75 14.93-77.48-.69-6.06-5.02-27.2-11.07-52.17 0 0 14.7 34.76 26.85 34.76s12.19-31.99 9.61-51.05c-2.55-19.06-1.58-64.59 1.39-84.65 1.35-9.14.27-20.53-1.31-30.21 10.11 18.25 9.22 47.3 7.6 65.59-1.81 20.53 6.48 91.83 1.93 118.22ZM618.07 372.59c-8.18 30.1-8.18 35.57-16.71 71.15-8.53 35.61-14.55 31.41-36.27 31.41s-9.49-16.32 0-30.02 13.58-38.31 14.93-56.14c1.35-17.79-9.49-31.45-31.21-56.1-9.03-10.26-14.78-25.74-18.4-43.41.5 1.74 9.88 31.02 28.59 27.4 19.29-3.78 36-14.04 36-34.65s27.67-36.04 32.8-66.25c5.13-30.21 8.76-35.85 3.05-53.21 19.83 27.55 4.21 83.34-11.31 103.06-18.33 23.31-15.05 36.96-18.17 47.27-3.09 10.26 24.85 29.36 16.71 59.5Z" style="fill:#b67b3d;stroke-width:0"/><path d="M312.13 218.56c-2.97 20.06-3.94 65.59-1.39 84.65 2.59 19.06 2.59 51.05-9.61 51.05s-26.85-34.76-26.85-34.76l-.04-.04c-5.67-23.38-12.85-50.08-20.1-70.88-14.93-42.94 0-66.37 0-66.37 4.4-11.46 38.04-17.21 52.51 0 1.58 1.85 2.93 3.9 4.17 6.14 1.58 9.68 2.66 21.07 1.31 30.21Z" style="fill:#e49e50;stroke-width:0"/><path d="M282.46 176.45s-27.01-7.65-25.08 25.6c1.93 33.25 9.65 47.4 21.22 49.97s21.31-3.86 22.55-29.58c1.24-25.72-.52-43.63-18.69-45.98Z" style="fill:#fab06d;stroke-width:0"/><path d="M627.79 215.98c-5.13 30.21-32.8 45.68-32.8 66.25s-16.71 30.87-36 34.65c-18.71 3.63-28.09-25.66-28.59-27.4-.04-.04-.04-.08-.04-.08-5.09-24.89-6.02-54.17-6.02-79.72 0-43.79 24.46-58.84 24.46-58.84s27.16-17.79 67.37 0c6.25 2.74 11.07 6.87 14.66 11.92 5.71 17.36 2.08 23-3.05 53.21Z" style="fill:#e49e50;stroke-width:0"/><path d="M569.92 151.05s-23.79 2.11-33.44 35.14c-9.65 33.03-3.22 63.02 12.22 66.35 15.43 3.33 17.62-21.33 30.35-27.65s24.86-44.63 22.34-57.3c-2.53-12.68-23.56-18.89-31.47-16.53Z" style="fill:#fab06d;stroke-width:0"/><path d="M147.89 64.87s-16.33-4.55-20.68-29.59C122.86 10.24 113.06 0 127.21 0s53.09 50.91 45.6 62.44c-7.49 11.53-24.91 2.43-24.91 2.43Z" style="fill:#e49e50;stroke-width:0"/><path d="M89.54 165.16c-13.27 1.23-41.71 17.59-66.94 8.6a31.433 31.433 0 0 1-7.87-8.22s16.28 9.3 33.03 4.82c16.71-4.51 41.13-12.23 50.16-11.61 8.99.66 5.79 5.05-8.37 6.41ZM9.81 136.51s-7.09 2-9.01 5.86c-1.93 3.86-.31 7.79 4.51 11.13 4.82 3.34 8.24-7.27 9.42-10.81 1.18-3.54-1-7.74-4.91-6.18Z" style="stroke-width:0"/><path fill="#907e85" stroke-width="0" d="M142.65 54.08S133 52.5 130.43 37.71c-2.57-14.79-10-28.68 0-25.54 10 3.14 26.37 29.56 27.65 37.62 1.29 8.06-5.5 6.41-15.43 4.3Z"/><path d="M102.95 101.59s-5.36 6.75-9.11 8.68c-1.81.93-4.36 1.12-6.68 1.04-5.05-3.32-6.13-8.87-6.37-11.69.04-.08.12-.19.15-.27 1.89-2.89 16.09-.96 17.98 0 1.89.96 4.01 2.24 4.01 2.24Z" style="stroke-width:0"/><path d="M87.17 111.31c-2.39-.04-4.55-.39-5.4-.39-1.58 0-8.8 4.44-7.76 2.24 0 0 4.82-10.3 6.79-13.54.23 2.82 1.31 8.37 6.37 11.69Z" style="stroke-width:0"/><path d="M91.87 102.22c0-1.3-1.05-2.35-2.35-2.35s-2.35 1.05-2.35 2.35 1.05 2.35 2.35 2.35 2.35-1.05 2.35-2.35Z" style="fill:#fff;stroke-width:0"/></g></g></svg>