<?xml version="1.0" encoding="UTF-8"?><svg data-name="Layer 2" xmlns="http://www.w3.org/2000/svg" viewBox="0 0 583.73 484.65"><defs/><g data-name="EASTERN GREY KANGAROO"><g><path d="m113.2,339.33c.54-5.99-1.86-11.94-1.86-11.94,6.68-1.89,21.79-20.98,36.1-35.26,14.3-14.26,17.16-23.85,17.17-23.87,2.4-12.71,3.21-25.96,3.21-25.96,3.41-15.71-12.67-29.03-29.47-29.2-4.64.95-12.37,4.76-11.72,19.78.93,21.33,5.49,44.28-2.62,58.34-8.12,14.07-30.38,29.3-26.5,57.34.05.4.02.76.04,1.15,1.08,1.34,2.25,2.53,3.47,3.58.45-.4.72-.63.72-.63,13.46.85,10.91-7.34,11.45-13.33Z" style="stroke-width:0px;fill:#a97c50"/><path d="m124.02,291.22c8.11-14.06,3.55-37.01,2.62-58.34-.66-15.01,7.08-18.83,11.72-19.78-1.46-.01-2.92.04-4.38.22-18.24,2.4-7.8,37.56-10.97,62.98-3.17,25.42-15.61,25.97-27.35,46.6-6.21,10.92-3.29,20.42,1.9,26.8-.02-.38,0-.75-.04-1.15-3.88-28.05,18.38-43.28,26.5-57.34Z" style="stroke-width:0px;fill:#a97c50"/><path d="m111.97,357.99c11.39-2.01,6.03-21.1,7.88-27.59,1.86-6.49,31.22-31.46,38.55-42.82,2.75-4.26,4.77-11.69,6.21-19.32,0,.02-2.87,9.61-17.17,23.87-14.31,14.28-29.41,33.37-36.1,35.26,0,0,2.4,5.95,1.86,11.94-.54,5.99,2.01,14.18-11.45,13.33,0,0-.27.23-.72.63,3.98,3.39,8.34,5.16,10.94,4.7Z" style="fill:#7f5e3d;stroke-width:0px"/><path d="m181.75,475.41c14.34-7.66,42.61-6.82,57.8-6.82s48.94,3.79,52.74-9.92c3.8-13.71-9.7-80.37-13.92-85.02-4.22-4.64-20.15-7.09-6.06-12.2,14.08-5.1,51.21-11.76,66.1-38.39.76-1.99,1.42-4.11,1.98-6.38,9.28-37.55-27-80.17-67.93-79.32,0,0-9.68-.68-21.04,2.74-.05.03-30.01,21.57-30.01,46.11s5.48,60.01,20.67,91.65c15.19,31.65,27.85,61.6,26.16,68.35-1.69,6.75-7.59,9.11-26.58,7.3-18.96-1.81-68.43-14.26-85.27,14-.79,3.12-.77,5.74-.16,7.91.37.24,11.4,7.51,25.51-.02Z" style="stroke-width:0px;fill:#a97c50"/><path d="m169.93,484.63c5.91-.42,21.1-8.86,38.82-8.86s63.29-5.91,78.48-2.95c15.19,2.95,23.21-3.97,18.99-19.28-4.22-15.31-23.21-76.49-18.14-88.31,4.76-11.1,38.57-11.03,50.34-42.14-14.89,26.62-52.02,33.28-66.1,38.39-14.08,5.1,1.84,7.56,6.06,12.2,4.22,4.64,17.72,71.31,13.92,85.02-3.8,13.71-37.55,9.92-52.74,9.92s-43.46-.84-57.8,6.82c-14.11,7.53-25.15.27-25.51.02,1.99,7.11,9.91,9.46,13.7,9.19Z" style="fill:#7f5e3d;stroke-width:0px"/><path d="m241.66,453.53c18.99,1.81,24.89-.55,26.58-7.3,1.69-6.75-10.97-36.71-26.16-68.35-15.19-31.64-20.67-67.09-20.67-91.65s29.97-46.08,30.01-46.11c-15.27,4.59-33.56,16.59-35.5,47.68-3.38,54.22,45.42,131.86,45.92,148.73.49,16.88-14.69,11.81-37.48,10.97-22.79-.84-51.9-9.29-64.13,11.18-1.99,3.34-3.18,6.25-3.84,8.85,16.84-28.25,66.3-15.81,85.27-14Z" style="stroke-width:0px;fill:#a97c50"/><path d="m107.14,39.35c10.41-8.7,28.91-26.05,32.76-37.19-3.21-4.15-24.48-2.76-39.5,7.95-10.82,7.71-17.67,24.2-21.14,34.78,8.32.44,21.17.07,27.88-5.54Z" style="stroke-width:0px;fill:#a97c50"/><path d="m114.18,46.67c14.35-12.09,25.21-37.21,26.16-43.04.09-.55-.11-1.03-.45-1.47-3.85,11.14-22.35,28.49-32.76,37.19-6.71,5.62-19.56,5.99-27.88,5.54-1.86,5.65-2.76,9.65-2.76,9.65-1.41,21.38,23.35,4.22,37.69-7.88Z" style="stroke-width:0px;fill:#a97c50"/><path d="m53.14,122.34c34.88-1.13,61.88-7.72,57.38.08-4.5,7.8-9.14,15.67.49,48.3,9.64,32.63,17.79,60.75,36.78,70.88,18.99,10.13,19.83,14.35,27.42,10.13,0,0,16.45,31.65,35.44,33.33,18.99,1.69,29.11-7.17,39.24-22.36,0,0,28.69,37.55,52.32,46.84,23.63,9.28,68.35,7.17,68.35,7.17,0,0-13.5,34.18,7.59,58.65,21.1,24.47,74.43,90.33,203.46,82.72h0c3.08-1.38,2.62-3-.35-4.65-97.42,2.53-117.46-36.29-153.47-73.42-36-37.13-55.13-131.64-82.13-164.27-27-32.63-82.14-48.38-129.39-50.63-47.26-2.25-49.51-6.75-76.51-54.01-27-47.26-45-49.51-69.76-49.51S5.72,96.34,5.72,96.34h0c-3.62,4.81-5.65,10.09-3.31,15.91h0s15.84,11.21,50.72,10.09Z" style="stroke-width:0px;fill:#a97c50"/><path d="m70.02,61.58c24.75,0,42.75,2.25,69.76,49.51,27.01,47.26,29.26,51.76,76.51,54.01,47.25,2.25,102.39,18,129.39,50.63,27,32.63,46.13,127.14,82.13,164.27,36,37.13,56.05,75.95,153.47,73.42-6.56-3.65-25.33-7.46-45.45-9.29-37.13-3.38-70.88-36.01-101.26-74.26-30.38-38.25-40.51-123.77-73.13-167.65-32.63-43.88-118.14-52.88-147.39-52.88s-42.76-5.62-55.13-17.41c-12.37-11.78-11.25-51.22-51.76-74.85-40.5-23.63-77.64,11.25-84.38,21.38-3.38,5.07-11.84,10.99-17.04,17.89h0s39.54-34.77,64.29-34.77Z" style="stroke-width:0px;fill:#a97c50"/><path d="m86.89,130.21c10.12,12.38,14.63,49.51,21.38,77.64,6.75,28.13,31.5,60.76,69.76,101.26,38.25,40.5,87.76,47.26,114.55,50.63,26.79,3.37,36.23,12.37,108.23,61.88,72.01,49.51,123.77,42.76,164.27,39.38,8.6-.72,13.88-1.74,16.54-2.94h0c-129.02,7.62-182.36-58.25-203.46-82.72-21.1-24.47-7.59-58.65-7.59-58.65,0,0-44.73,2.11-68.35-7.17-23.63-9.28-52.32-46.84-52.32-46.84-10.13,15.19-20.25,24.05-39.24,22.36-18.99-1.69-35.44-33.33-35.44-33.33-7.6,4.22-8.44,0-27.42-10.13-18.99-10.12-27.15-38.25-36.78-70.88-9.63-32.63-4.99-40.51-.49-48.3,4.5-7.8-22.5-1.21-57.38-.08-34.88,1.13-50.72-10.09-50.72-10.09h0c1.02,2.51,2.84,5.12,5.72,7.84,19.13,18,78.76,10.13,78.76,10.13Z" style="fill:#7f5e3d;stroke-width:0px"/><path d="m120.09,20.23c-8.72,4.5-17.72,15.19-22.5,23.93-4.56,8.34-10.97,21.18-11.56,22.36-.43,5.06,2.22,10.68,17.18,10.24,19.13-.56,56.82-36.01,65.82-56.82,1.49-3.46,1.57-6.07.61-8.03h0c-17.4-5.78-40.83,3.81-49.55,8.31Z" style="stroke-width:0px;fill:#a97c50"/><path d="m117.27,16.57c-19.13,8.44-30.37,45.99-30.37,45.99-.4,1.18-.75,2.55-.87,3.97.59-1.19,7-14.03,11.56-22.36,4.78-8.75,13.79-19.43,22.5-23.93,8.72-4.5,32.15-14.09,49.55-8.31h0c-4.83-9.8-36.42-2.39-52.37,4.65Z" style="stroke-width:0px;fill:#a97c50"/><path d="m13.76,99.55s-4.5,8.3-8.86,8.16c-4.36-.14-5.49-6.19-4.64-9.14.84-2.95,4.36-4.92,9.14-3.66,4.78,1.27,5.48,2.8,4.36,4.64Z" style="stroke-width:0px;fill:#231f20"/><path d="m1.41,101.11s-.11-4.6,3.49-5.5c3.6-.9,7.87,1.57,7.87,2.75s-4.73-3.28-11.37,2.75Z" style="stroke-width:0px;fill:#414042"/><path d="m111.73,49.02c-10.32,14.71-.03,21.13,0,21.14,6.62-3.47,14.52-9.06,22.21-15.13,17.84-14.08,30.23-31.64,32.84-37.92-34.32,3.63-44.72,17.18-55.05,31.91Z" style="stroke-width:0px;fill:#fac2b8"/><path d="m120.44,29.01c-25.16,22.76-24.61,39.9-24.61,39.9.69,6.7,7.17,5.83,15.9,1.25-.03-.02-10.31-6.43,0-21.14,10.33-14.73,20.73-28.27,55.05-31.91,2.61-6.28-32.62-.5-46.34,11.9Z" style="stroke-width:0px;fill:#f7a29e"/><path d="m81.55,86.21c0-8.23-6.68-14.9-14.91-14.9s-14.91,6.67-14.91,14.9,6.68,14.91,14.91,14.91,14.91-6.68,14.91-14.91Z" style="stroke-width:0px;fill:#231f20"/><path d="m73.11,85.52c0-4.97-4.03-9-9-9s-9,4.03-9,9,4.03,9,9,9,9-4.03,9-9Z" style="stroke-width:0px;fill:#231f20"/><path d="m73.11,78.03c0-1.79-1.45-3.23-3.23-3.23s-3.24,1.45-3.24,3.23,1.45,3.23,3.24,3.23,3.23-1.45,3.23-3.23Z" style="stroke-width:0px;fill:#fff"/><path d="m148.21,342.58c-1.12-5.91-5.06-10.97-5.06-10.97,5.91-3.66,15.19-26.16,25.03-43.81,9.83-17.63,9.95-27.65,9.95-27.67-1.18-12.88-4.04-25.85-4.04-25.85-1.03-16.05-20.16-24.43-36.35-19.98-4.2,2.19-10.59,7.98-5.84,22.24,6.75,20.25,17.44,41.07,13.5,56.82-3.94,15.75-21.16,36.51-9.74,62.41.16.37.23.73.35,1.09,1.41.99,2.86,1.82,4.32,2.49.32-.51.52-.8.52-.8,13.18-2.88,8.48-10.06,7.35-15.96Z" style="stroke-width:0px;fill:#a97c50"/><path d="m145.4,293.35c3.94-15.75-6.75-36.57-13.5-56.82-4.75-14.26,1.64-20.05,5.84-22.24-1.41.39-2.8.84-4.15,1.42-16.88,7.31,2.81,38.26,6.75,63.57,3.94,25.32-7.88,29.25-13.5,52.32-2.98,12.2,2.45,20.54,9.18,25.25-.12-.36-.19-.72-.35-1.09-11.43-25.91,5.8-46.66,9.74-62.41Z" style="stroke-width:0px;fill:#a97c50"/><path d="m152.15,360.86c10.4-5.06,0-21.94,0-28.69s21.38-38.82,25.32-51.76c1.48-4.85,1.37-12.56.66-20.28,0,.02-.12,10.03-9.95,27.67-9.84,17.65-19.12,40.16-25.03,43.81,0,0,3.94,5.06,5.06,10.97,1.12,5.91,5.83,13.08-7.35,15.96,0,0-.2.29-.52.8,4.75,2.16,9.44,2.67,11.81,1.52Z" style="fill:#7f5e3d;stroke-width:0px"/><path d="m211.92,475.41c14.34-7.66,42.62-6.82,57.8-6.82s48.95,3.79,52.74-9.92c3.8-13.71-9.7-80.37-13.92-85.02-4.22-4.64-20.15-7.09-6.06-12.2,14.08-5.1,51.22-11.76,66.1-38.39.75-1.99,1.42-4.11,1.98-6.38,9.28-37.55-27.01-80.17-67.93-79.32,0,0-9.68-.68-21.04,2.74-.05.03-30.01,21.57-30.01,46.11s5.49,60.01,20.68,91.65c15.19,31.65,27.85,61.6,26.16,68.35-1.69,6.75-7.59,9.11-26.58,7.3-18.96-1.81-68.44-14.26-85.27,14-.79,3.12-.77,5.74-.16,7.91.37.24,11.4,7.51,25.51-.02Z" style="stroke-width:0px;fill:#a97c50"/><path d="m200.11,484.63c5.91-.42,21.09-8.86,38.82-8.86s63.29-5.91,78.48-2.95c15.19,2.95,23.21-3.97,18.99-19.28-4.22-15.31-23.21-76.49-18.14-88.31,4.76-11.1,38.57-11.03,50.33-42.14-14.89,26.62-52.02,33.28-66.1,38.39-14.08,5.1,1.85,7.56,6.06,12.2,4.22,4.64,17.72,71.31,13.92,85.02-3.8,13.71-37.55,9.92-52.74,9.92s-43.46-.84-57.8,6.82c-14.11,7.53-25.15.27-25.51.02,1.99,7.11,9.91,9.46,13.7,9.19Z" style="fill:#7f5e3d;stroke-width:0px"/><path d="m271.84,453.53c18.99,1.81,24.89-.55,26.58-7.3,1.69-6.75-10.97-36.71-26.16-68.35-15.19-31.64-20.68-67.09-20.68-91.65s29.97-46.08,30.01-46.11c-15.27,4.59-33.56,16.59-35.5,47.68-3.38,54.22,45.42,131.86,45.92,148.73.49,16.88-14.7,11.81-37.48,10.97-22.78-.84-51.9-9.29-64.13,11.18-2,3.34-3.18,6.25-3.84,8.85,16.83-28.25,66.31-15.81,85.27-14Z" style="stroke-width:0px;fill:#a97c50"/></g></g></svg>