<?xml version="1.0" encoding="UTF-8"?>
<svg id="Layer_2" data-name="Layer 2" xmlns="http://www.w3.org/2000/svg" viewBox="0 0 53.35 122.05">
  <defs>
    <style>
      .cls-1 {
        fill: #87868d;
      }

      .cls-1, .cls-2, .cls-3, .cls-4, .cls-5, .cls-6, .cls-7, .cls-8, .cls-9, .cls-10, .cls-11, .cls-12, .cls-13, .cls-14, .cls-15, .cls-16 {
        stroke-width: 0px;
      }

      .cls-2 {
        fill: #676c6e;
      }

      .cls-3 {
        fill: #414145;
      }

      .cls-4 {
        fill: #010101;
      }

      .cls-5 {
        fill: #7a8284;
      }

      .cls-6 {
        fill: #939393;
      }

      .cls-7 {
        fill: #66656c;
      }

      .cls-8 {
        fill: #fff;
      }

      .cls-9 {
        fill: #25242b;
      }

      .cls-10 {
        fill: #d3d3d3;
      }

      .cls-11 {
        fill: #373a3b;
      }

      .cls-12 {
        fill: #4e4d50;
      }

      .cls-13 {
        fill: #19171c;
      }

      .cls-14 {
        fill: #62696c;
      }

      .cls-15 {
        fill: #91a5ae;
      }

      .cls-16 {
        fill: #f2f2f2;
      }
    </style>
  </defs>
  <g id="_100" data-name="100">
    <g>
      <path class="cls-7" d="m.92,57.34c.21,1.61.37,3.3.82,4.87.25.87.89,3.86,2.16,3.92.13-.66-.17-1.77-.17-2.5,0-1.6.06-3.13.4-4.69-.04,1.26-.17,2.66.17,3.87.32,1.14.91,2.21,1.4,3.29-.02-.64,0-1.29,0-1.93,0-.72-.35-2.85.15-3.33.21,1.3.45,2.57,1.17,3.7.38.6,1.55,2.7,2.35,2.58-.7-1.42-.87-2.99-.91-4.55-.03-.19-.04-.35,0-.5,0,.17,0,.33,0,.5.25,1.47,2.23,3.96,3.31,4.3.17-.52-.29-1.31-.41-1.83-.06-.28-.13-1.11-.25-1.72-.15-.27-.25-.52-.26-.69.11.06.19.34.26.69.35.65.96,1.46,1.27,1.81.36.42,1.19,1.45,1.76,1.5.08-.5-.3-.88-.14-1.4.77.59,1.13,1.72,2.11,2.03.13-.8-.05-1.67.07-2.47.58.31.47,1.52,1.09,1.95.9-1.56-.12-4.41,1.19-5.84.06.57.06,1.16.28,1.73.79-.41,1.04-2.15,1.29-2.97.26-.85.39-1.69.48-2.55.03.05.28.32.31.37.2-1.21-.13-2.52.09-3.72.18.18.25.82.35,1.17.16.59.41,1.19.59,1.77.38,1.22.88,2.44,1.59,3.5-.04-.67-.09-1.42-.01-2.09.04-.36.27-.74.19-1.15.07.25.24.46.36.67.27-1.59.31-3.37.22-5.01.43,1.43,1.66,2.67,2.53,3.83.08-.55-.01-1.13.07-1.69,1.16-.2,1.89,1.9,2.28,2.74.48,1.02.5,3.27,1.38,3.95.12-.75.02-1.77.37-2.44.78,1.4.94,3.05,1.31,4.58.34-.37.4-1.22.58-1.74.11-.07.21-.07.32,0,.17,1.36-.03,2.92.27,4.26.56-.37.7-1.56.94-2.17.33-.81.63-1.75,1.15-2.44.4,1.49-.58,3.31-.09,4.82.64-.27.68-.99.9-1.59.33-.88.69-1.79,1.38-2.44-.39,1.57-.8,3.58-.55,5.2.76-.75.8-2.16,1.16-3.12.26-.67.72-1.41.79-2.12-.05,1.08.02,2.17-.02,3.25.49-1.22,1.07-2.67,1.99-3.63.03,1.14-.68,2.59-.37,3.68,1.22-.97,1.31-3.31,2.48-4.32.32,1.14-1.04,2.33-.72,3.51,1.03.01,1.46-2.21,2.14-2.86-.01.43-.03.86.02,1.28.89.27,1.65-3.04,2.16-3.66-.13.58-.42,1.33-.39,1.89,1.04.33,1.29-2.36,1.36-2.93.1-.84.27-1.61.52-2.37-.12-3.08-1.26-6.31-3.64-9.66-.56-.33-1.13-.64-1.66-1-1.44-.97-2.49-2.25-3.88-3.25-.23.66.46,1.05.42,1.65-1.05-.52-2.1-.85-3.05-1.52-.45-.32-1.3-1.34-1.75-1.35-.13,1.11,1.12,2.05.88,3.11-1.64.33-2.85-1.63-4.31-1.93-.27.66.57,1.35.39,2.12-.96.14-2.09-1.1-2.91-1.48.03.18-.11.5-.07.69-.91.16-1.75-.23-2.69-.14-.11.76.04,1.55-.07,2.31-.62.12-.98-.46-1.55-.54.14.29.46,1.26.17,1.57-.44.47-1.03-.04-1.53.02-.72,1.28-.28,2.71-.55,4.09-.84-.95-1.16-2.06-1.36-3.3-.24.03-.54-.09-.8-.02.14-.16.05-.24.12-.37-.59-.16-1.01.19-1.54.14-.27-.69.69-1.01.39-1.72-.73-.07-1.6.34-2.23.13-.07-.53.73-.89,1.1-1.11-1.04-.15-2.29.66-3.35.72.29-.57.64-1.16,1.22-1.56-1.05-.13-1.89.58-2.68,1.04-.53.31-1.86,1.2-2.45,1.11.36-.69.84-1.9,1.69-2.28-.83.3-1.72.71-2.46,1.12-.6.34-1.7,1.51-2.28,1.56.45-.79,1.38-1.84,1.55-2.72-2.11.97-3.63,2.57-4.93,4.3.4-.6.24-2.13.22-2.76-.69.88-1.31,1.83-2,2.7C.39,51.7-.26,56.27.09,60.75c.13,1.7.42,3.4.82,5.05.13.12.27.22.42.3.59-2.75-1.79-6.1-.4-8.76Z"/>
      <path class="cls-3" d="m4.34,75.06c1.16.59,2.21,1.68,3.53,1.9.02-.31.05-.63.07-.94.96-.15,1.74,1.21,2.69,1.34.06-.5-.01-1.03.06-1.53,1.01-.27,1.81.84,2.68,1.13.19-1.14.08-2.23.31-3.32.66.33.99,1.07,1.59,1.5-.04-.62.12-1.28-.22-1.84.73.37.95,1.01,1.77,1.3-.03-.21.11-.52.08-.74.57-.07,1.06.06,1.53-.21.12-.07.06-.44.25-.58.12-.09.75-.07.9-.06.11-.69-.04-1.42.07-2.11.4.05.82.3,1.3.14.08-.58.07-1.21-.02-1.79-.08-.51-.58-1.2-.37-1.7.14.06.42.03.6.15.11-.61-.05-.98-.2-1.56-.09-.36-.34-1.17-.18-1.51.58.31.67.86,1.13,1.25-.04-.86-.91-4.05.04-4.58,1.41.74.99,4.68,2.44,4.84.05-.62.31-1.52.92-1.9.15,1.98.52,4.15,1.42,5.98.1-.55.22-1.15.45-1.64.84.89.24,2.62,1.1,3.6.29-.22.4-.54.52-.87.23.47.75,3.43,1.9,2.57.2.4.48,1.71.91,1.94.91.49.68-.31,1.26-.74,1.25-.92,1.69,1.71,3.28,1.32.12-.03.22-.07.33-.13.15-.16.31-.33.46-.49,2.55-1.91,2.22-2.07,4.44-4.51,0-.12.04-.22.13-.31.08-.08,1.43-2.49,1.56-2.54,3.34-3.81,5.24-7.92,5.07-12.32-.25.76-.42,1.53-.52,2.37-.07.57-.32,3.26-1.36,2.93-.03-.56.26-1.3.39-1.89-.51.61-1.27,3.93-2.16,3.66-.05-.42-.03-.85-.02-1.28-.68.65-1.11,2.87-2.14,2.86-.32-1.18,1.04-2.37.72-3.51-1.17,1.01-1.26,3.35-2.48,4.32-.31-1.09.4-2.54.37-3.68-.92.95-1.51,2.4-1.99,3.63.04-1.08-.03-2.17.02-3.25-.06.71-.53,1.45-.79,2.12-.37.95-.41,2.36-1.16,3.12-.25-1.62.16-3.63.55-5.2-.68.65-1.05,1.56-1.38,2.44-.22.6-.26,1.31-.9,1.59-.49-1.52.49-3.33.09-4.82-.52.69-.83,1.63-1.15,2.44-.24.6-.39,1.8-.94,2.17-.29-1.34-.09-2.9-.27-4.26-.11-.07-.21-.07-.32,0-.17.52-.24,1.38-.58,1.74-.37-1.53-.52-3.18-1.31-4.58-.35.67-.24,1.68-.37,2.44-.88-.69-.9-2.93-1.38-3.95-.4-.84-1.12-2.93-2.28-2.74-.08.55.01,1.14-.07,1.69-.87-1.15-2.1-2.4-2.53-3.83.09,1.64.05,3.42-.22,5.01-.12-.22-.3-.42-.36-.67.08.41-.14.79-.19,1.15-.08.67-.02,1.42.01,2.09-.71-1.06-1.21-2.28-1.59-3.5-.18-.59-.44-1.18-.59-1.77-.1-.35-.17-.99-.35-1.17-.22,1.21.11,2.51-.09,3.72-.03-.05-.28-.32-.31-.37-.09.86-.22,1.7-.48,2.55-.26.82-.5,2.56-1.29,2.97-.21-.57-.21-1.16-.28-1.73-1.31,1.43-.29,4.28-1.19,5.84-.62-.43-.51-1.63-1.09-1.95-.12.81.06,1.67-.07,2.47-.97-.31-1.33-1.45-2.11-2.03-.16.52.22.9.14,1.4-.57-.05-1.39-1.08-1.76-1.5-.31-.35-.92-1.16-1.27-1.81.12.61.18,1.44.25,1.72.12.53.58,1.31.41,1.83-1.07-.35-3.06-2.83-3.31-4.3.04,1.56.21,3.13.91,4.55-.8.12-1.97-1.98-2.35-2.58-.72-1.12-.96-2.4-1.17-3.7-.5.47-.15,2.6-.15,3.33,0,.64,0,1.29,0,1.93-.49-1.07-1.08-2.15-1.4-3.29-.34-1.21-.22-2.61-.17-3.87-.34,1.57-.4,3.1-.4,4.69,0,.74.31,1.85.17,2.5-1.26-.06-1.91-3.05-2.16-3.92-.44-1.58-.6-3.27-.82-4.87-1.39,2.67,1,6.01.4,8.76-.15-.08-.29-.19-.42-.3.52,2.14,1.24,4.2,2.1,6.11.18,1.04.9,2.16,1.33,3.15Z"/>
      <path class="cls-15" d="m44.71,1.89c-.48.46-2.27-.6-5.16-.71-3.45-.13-6.06,2.22-6.07,2.23-1.17,1.98-1.36,5.18-.55,10.02,1,6.01,2.29,13.76.76,20.46.13.02.26.07.36-.02.43-.39.63-1.09.86-1.54.01-.02.02-.04.03-.06.72-6.93.07-15-.27-20.23-.43-6.86,2.55-10.74,10.48-7.45.75.31,1.46.53,2.13.68-.42-1.34-1.34-2.55-2.57-3.39Z"/>
      <path class="cls-4" d="m5.44,79.32c.1-.31.34-.66.54-.82.51,1.78,1.69,4.05,2.84,5.54.15-.42.36-.92.36-1.37,1.06.63,1.21,3.43,2.64,3.64.08-.34.33-.55.44-.88.48.76,1.87,4.53,3.24,4.31-.05-.26.15-.67.11-.93.98.15,1.83,2.29,2.41,2.94.6.68,1.38,1.71,2.38,1.93.11-.55.01-1.12.12-1.66,1.03-.06,1.49,1.62,2.66,1.91.21-1.35.29-2.45.88-3.73.5-1.07,1.51-1.77,2.15-2.62.15.4.31.78.44,1.19,1.52-.13.53-4.84,2.65-4.82.04.55-.08,1.37.59,1.63.31-1,.87-3.72,1.98-4.31.1.21.45.41.54.58,1.33-1.04,2.17-3.04,3.06-4.35.31-.46.67-.85,1.03-1.23-.1.05-.21.1-.33.13-1.59.39-2.03-2.24-3.28-1.32-.58.43-.35,1.23-1.26.74-.43-.23-.71-1.53-.91-1.94-1.15.87-1.67-2.1-1.9-2.57-.12.33-.22.65-.52.87-.86-.98-.26-2.71-1.1-3.6-.23.48-.34,1.09-.45,1.64-.91-1.83-1.28-4-1.42-5.98-.6.39-.87,1.28-.92,1.9-1.44-.17-1.02-4.1-2.44-4.84-.95.53-.08,3.72-.04,4.58-.45-.39-.55-.94-1.13-1.25-.15.34.09,1.15.18,1.51.14.57.3.95.2,1.56-.18-.12-.46-.09-.6-.15-.21.5.29,1.19.37,1.7.09.58.1,1.21.02,1.79-.48.15-.9-.09-1.3-.14-.12.69.04,1.42-.07,2.11-.15-.02-.78-.03-.9.06-.19.14-.13.5-.25.58-.48.27-.97.14-1.53.21.03.22-.11.53-.08.74-.82-.29-1.04-.93-1.77-1.3.34.55.18,1.22.22,1.84-.6-.43-.93-1.16-1.59-1.5-.23,1.09-.12,2.18-.31,3.32-.87-.29-1.67-1.4-2.68-1.13-.08.5,0,1.02-.06,1.53-.95-.13-1.74-1.49-2.69-1.34-.02.31-.05.63-.07.94-1.31-.22-2.37-1.31-3.53-1.9.07.17.14.33.19.49.38,1.15.26,2.79.91,3.78Z"/>
      <path class="cls-1" d="m4.32,47.84c1.29-1.74,2.81-3.34,4.93-4.3-.18.88-1.11,1.93-1.55,2.72.58-.05,1.68-1.22,2.28-1.56.74-.41,1.63-.83,2.46-1.12.07-.03.15-.06.23-.08-.08.02-.15.05-.23.08-.85.37-1.33,1.59-1.69,2.28.58.09,1.92-.79,2.45-1.11.79-.46,1.62-1.17,2.68-1.04-.58.4-.92.99-1.22,1.56,1.06-.06,2.31-.87,3.35-.72-.37.22-1.17.58-1.1,1.11.63.21,1.5-.21,2.23-.13.3.71-.66,1.03-.39,1.72.53.05.96-.29,1.54-.14-.06.14.02.22-.12.37.26-.07.56.04.8.02.2,1.24.52,2.35,1.36,3.3.27-1.38-.17-2.8.55-4.09.51-.06,1.09.46,1.53-.02.29-.31-.03-1.27-.17-1.57.58.08.94.67,1.55.54.11-.76-.04-1.55.07-2.31.94-.09,1.78.3,2.69.14-.03-.19.11-.51.07-.69.83.38,1.95,1.62,2.91,1.48.18-.77-.66-1.45-.39-2.12,1.46.3,2.67,2.27,4.31,1.93.23-1.06-1.01-2.01-.88-3.11.45,0,1.3,1.03,1.75,1.35.95.67,2,1,3.05,1.52.05-.6-.65-.99-.42-1.65,1.38.99,2.43,2.28,3.88,3.25.54.36,1.11.67,1.66,1-.85-1.2-1.86-2.42-3.04-3.65,0,0-3.07-9.05-24.04-4.88-7.64,1.52-12.31,5.23-14.87,9.87.69-.87,1.31-1.82,2-2.7.02.63.18,2.16-.22,2.76Z"/>
      <path class="cls-9" d="m33.81,38.3c.54-1.82.89-3.87,1.12-6.03,0,.02-.02.04-.03.06-.23.45-.43,1.15-.86,1.54-.1.09-.23.04-.36.02-1.13,4.9-3.77,9.25-9.14,11.94,0,0-1.37,1.5-1.28,4.69,3.43-2.42,9.01-7.01,10.56-12.21Z"/>
      <path class="cls-5" d="m37.5,29.36c.33.39.16.85.49,1.19.24-.33.47-.74.61-1.15.46-5.27,1.12-9.94,1.59-12.12.61-2.8.54-8.19.54-8.19,2.61-1.36,4.75-1.46,6.52-.56.37-1.09.35-2.21.02-3.25-.67-.15-1.38-.37-2.13-.68-7.93-3.29-10.92.59-10.48,7.45.33,5.23.98,13.3.27,20.23.38-.71.8-.85,1.15-1.63.39-.86.66-.97,1.42-1.28Z"/>
      <path class="cls-13" d="m38.26,33.92c.09-1.52.21-3.04.34-4.51-.14.41-.37.82-.61,1.15-.33-.34-.16-.81-.49-1.19-.75.31-1.03.42-1.42,1.28-.35.78-.77.92-1.15,1.63-.22,2.16-.58,4.21-1.12,6.03-1.54,5.2-7.12,9.79-10.56,12.21.04,1.45.38,3.26,1.28,5.43,7.21,3.63,13.3-15.04,13.72-22.03Z"/>
      <path class="cls-14" d="m40.74,9.09s.07,5.4-.54,8.19c-.48,2.19-1.13,6.85-1.59,12.12.03-.08.05-.17.08-.25.59,0,1.15-.46,1.64-.53,0,0,.02,0,.03,0,.39-7.97,1.38-14.15,5.13-17.51.9-.8,1.47-1.69,1.78-2.58-1.77-.9-3.9-.8-6.52.56Z"/>
      <path class="cls-4" d="m32.64,55.94c2.89-3.76,7.23-11.86,7.52-22.27.05-1.75.1-3.43.18-5.05,0,0-.02,0-.03,0-.49.07-1.05.54-1.64.53-.02.08-.05.16-.08.25-.13,1.47-.24,2.99-.34,4.51-.42,6.99-6.52,25.66-13.72,22.03,2.89,6.94,5.21,3.76,8.1,0Z"/>
      <path class="cls-13" d="m45.01,4.77s-2.14-1.98-4.85-1.72c-1.96.19-3.55.93-4.48,2.06-.03.03-.06.07-.09.12,0,0-1.19,1.23-1.12,4.9.07,3.67.3-.92.56-1.8s.95-1.59,1.42-2.11c.07-.05.14-.09.21-.12.94-.44,3.77-1.24,5.46-.44,1.69.8,4.8.89,2.88-.89Z"/>
      <path class="cls-16" d="m37.59,5.67c0,1.25,1.01,2.26,2.26,2.26s2.26-1.01,2.26-2.26-1.01-2.26-2.26-2.26-2.26,1.01-2.26,2.26Z"/>
      <path class="cls-4" d="m38.66,5.79c0,.83.67,1.5,1.5,1.5s1.5-.67,1.5-1.5-.67-1.5-1.5-1.5-1.5.67-1.5,1.5Z"/>
      <path class="cls-8" d="m41.66,4.77c0-.25-.2-.45-.45-.45s-.45.2-.45.45.2.45.45.45.45-.2.45-.45Z"/>
      <path class="cls-13" d="m44.17,1.55c-.05-.05-.1-.1-.13-.13-.11-.1-.23-.16-.35-.24-.15-.11-.27-.24-.39-.36-.07-.07-.23-.29-.33-.28-.03.28-.54-.22-.64-.23-.05,0-.1.05-.16.06-.09.01-.18-.02-.26-.06-.08-.04-.15-.12-.23-.15-.12-.04-.08,0-.17.04-.18.08-.32-.05-.49-.09-.16-.04-.28-.03-.43,0-.15.02-.28-.03-.43-.03-.14,0-.27-.01-.39-.03,0,.03-.01.09,0,.12-.16,0-.26-.15-.42-.16-.11,0-.25-.01-.36,0,0,.02,0,.04-.01.05-.16.02-.32,0-.48.01,0,.02-.01.06,0,.09-.16.02-.33,0-.49,0-.1,0-.2,0-.29,0-.09,0-.18-.04-.26-.03.04.26-.37.15-.52.16,0,.48-.85-.44-.89.09-.01.14.05.28-.1.36-.1.06-.12-.02-.13.13-.01.1,0,.19-.04.29-.11.01-.22-.08-.32.04-.05.07.04.13-.07.15-.04,0-.11-.09-.19-.06-.05.13-.05.12-.17.16-.08.03-.15.08-.23.1-.08.03-.15.04-.22.1-.07.06-.13.14-.2.19-.09.07-.11.07-.18.19-.04.07-.09.16-.13.23-.1.14-.18.29-.16.49,0,0,.01,0,.02-.01-.16.2-.3.41-.44.63,0,0,2.61-2.36,6.07-2.23,2.9.11,4.69,1.17,5.16.71-.17-.12-.36-.23-.54-.33Z"/>
      <path class="cls-2" d="m53.14,8.66c.27-.33.3-.63-.06-.78-.01,0-2.52.34-5.55-.91-.84-.35-1.91-.65-2.97-.96-.02.11-.04.21-.06.33-.21,1.38-3.39,2.21-4.14,2.56,1.15.1,2.61.67,5.3.67s5.59-.51,7.49-.91Z"/>
      <path class="cls-11" d="m40.74,9.09c2.31,0,3.22,3.74,3.96,2.8s3.41-1.79,5.58-1.94c1.2-.08,2.39-.73,2.86-1.3-1.9.41-4.81.91-7.49.91s-4.15-.57-5.3-.67c-.28.13-.23.19.38.19Z"/>
      <path class="cls-5" d="m53.08,7.88c-.14-.06-.35-.09-.63-.09-2.17,0-5.97-3.2-5.97-3.2-.87-.68-1.6-.2-1.92,1.42,1.06.3,2.13.61,2.97.96,3.02,1.25,5.54.91,5.55.91Z"/>
      <path class="cls-4" d="m11.14,61.42c.01-.1-.02-.14-.1-.12-.12.6-.02,1.28-.03,1.89-.01.67-.11,1.32-.14,1.99.26-.28.44-.81.91-.73.15,1.09.09,2.19.84,3.12.37-.07.17-.71.5-.99.15,1.3.94,2.83,2.07,3.48.01-.33.11-.67.15-1,.3.8.8,1.9,1.42,2.45.06-.3.18-.71.18-1,.27.24.36.66.62.89.42.37.99.61,1.43,1,.02-.07.04-.13.04-.2.51.04,1.04.91,1.53,1.15.04-.24.03-.49.02-.74.5,1.02,2.03,1.79,2.24,2.94-.08-.62.18-1.38.52-1.89.34,1.14,1-.69,1.29-.82-.01.11.06.26.04.37.52-.02.47-.62.8-.89.43.4.49.21.89-.15.32-.29.85-.69,1.07,0,.26-.19.36-.61.52-.9.46.02.41.57.86.63.13-.21.56-1.05.81-1.05.29-.01.49.62.76.76.36-.58.38-1.38.58-2.04.43.23.39,1.19.86,1.29.21-.44.48-.87.69-1.3.22-.46.2-.8.28-1.27.22.18.4.39.61.58.24-.37.32-1.1.39-1.56.08-.56-.2-1.55.15-1.97.56.11.62,1.3,1.17,1.19.16-.88-.47-1.94-.21-2.73.11.09.25.06.34.11.1-.56-.14-1.08-.12-1.65.21.19.35.43.65.47.06-.53-.03-1.09-.28-1.56-.19-.36-.7-.59-.65-1.04-.47.2-.79,1.68-.91,2.2.1-.36-.27-.5-.25-.85-.12.54-.3,1.87-.75,2.19-.28-.5-.65-1.09-.7-1.67.04,1.22.09,2.9-.48,3.99-.28-.32-.23-.82-.6-1.09-.25.37-.11,1.04-.32,1.49-.16-.27-.45-.93-.8-.86,0,.56-.31,1.12-.44,1.67-.28.1-.46-.07-.54-.33-.19.22-.19.51-.36.71-.57-.49-.38-1.55-.89-2.06-.05.52-.4,2.64-.98,1.98-.3-.34-.12-.92-.65-.68-.36.16-.69,1.24-.92,1.58-.24-.19-.47-.79-.75-.89-.57-.21-.55.44-.82.74-.92,1.02-1.86-1.77-2.7-1.92-.22.46-.27,1.79-.95,1.15-.62-.58-.95-1.71-1.4-2.35-.07.23-.36,1.17-.59,1.29-.42.22-.47-.13-.66-.36-.75-.92-.69-2.26-1.32-3.14-.55.28-.42,1.2-.85,1.47-.63.4-1.16-.98-1.24-1.47-.47-.12-.51.71-.99.23-.2-.2-.05-.61-.29-.78-.32-.23-.35.09-.53.02-.49-.19-.36-.58-.53-1.06-.14-.39-.25-.72-.29-1.17-.08-.02-.12.02-.1.12l-.13,1.18Z"/>
      <path class="cls-12" d="m14.52,118.74c.6.63,2.48,2.28,3.07,2.3.59.02-.6-4.04-.6-4.04,0,0,1.09.81,3.81,2.12h0c0,.13-.1.23-.32.3-1,.33-2.92-1.09-2.92-1.09,0,0,1.82,4.11-.14,3.67-1.95-.44-4.54-3.85-4.54-3.85,0,0-1.64.92-2.53.7-.09-.02-.14-.07-.15-.14.93-.04,3.34-1.89,3.34-1.89,0,0,.38,1.27.98,1.9Z"/>
      <path class="cls-14" d="m15.05,105.42c-.15-1.36-.91-11.93-.82-15.35.09-3.43.96-9.65.96-9.65.05-.37.42-.82-1.15-.88-1.57-.06-1.83,4.06-1.89,5.4-.06,1.34-.27,3.4-.71,4.47-.43,1.08-.11,2.89.39,3.94.5,1.05,1.44,16.42,1.33,19.34-.03.9-.29,1.64-.66,2.27.14-.37.23-.75.25-1.12.09-2.39-1.1-15.69-1.41-18.28s-2.33-5.79-.79-7.38c1.54-1.6,1.08-6.6,1.08-6.6.92-10.21,4.93-3.56,4.54-2.47-.39,1.09-1.42,8.86-1.6,10.5-.18,1.64.66,12.11,1.24,19.61.38,4.82,1.1,5.7,1.85,6.19h0c-2.37-1.02-2.46-8.61-2.6-9.97Z"/>
      <path class="cls-15" d="m12.51,114.95c.37-.63.62-1.38.66-2.27.11-2.92-.83-18.29-1.33-19.34-.5-1.05-.83-2.86-.39-3.94.43-1.08.65-3.14.71-4.47.06-1.34.32-5.45,1.89-5.4,1.57.06,1.21.5,1.15.88,0,0-.87,6.23-.96,9.65-.1,3.43.67,14,.82,15.35.15,1.36.23,8.95,2.6,9.97h0c.41.27.84.41,1.21,1.04.81,1.37,1.95,2.23,1.93,2.7h0c-2.72-1.31-3.81-2.12-3.81-2.12,0,0,1.19,4.06.6,4.04-.59-.02-2.46-1.67-3.07-2.3-.6-.63-.98-1.9-.98-1.9,0,0-2.41,1.85-3.34,1.89-.09-.48,1.65-2.05,2.31-3.78Z"/>
      <path class="cls-12" d="m35.12,117.59c.39.27,2.09,1.35,3.03,1.06.19-.06.29-.14.32-.23-1.74-.88-4.7-3.02-4.7-3.02l1.36,2.19Z"/>
      <path class="cls-12" d="m30.81,115.9c-.42.5-2.12,1.16-3.45,1.57-.21.32-.25.53,0,.59.96.22,2.7-.71,2.7-.71,0,0,2.76,3.48,4.84,3.94.48.1.74-.04.87-.32-1.76-1.29-4.95-5.06-4.95-5.06Z"/>
      <path class="cls-14" d="m30.53,111.69s-.88-16.49-1.88-20.03-.17-4.73.2-5.42c.38-.69.7-4.63.7-4.63,1.34-3.33,2.28-4.27,3.34-4.53-1.19-1.69-3.46-2.75-4.12,4.48,0,0,.39,3.52-1.25,5.14-1.64,1.63.52,4.9.86,7.54.34,2.64,1.63,16.23,1.54,18.66,0,.25-.05.5-.12.74h0s.74-1.97.74-1.97Z"/>
      <path class="cls-15" d="m36.42,115.58c-1.11-1.79-2.64.28-3.27-7.38-.63-7.66-1.55-18.35-1.36-20.02.19-1.67,1.39-8.01,1.8-9.12.13-.34-.19-1.21-.71-1.96-1.06.26-2,1.2-3.34,4.53,0,0-.32,3.94-.7,4.63-.38.69-1.21,1.88-.2,5.42s1.88,20.03,1.88,20.03l-.74,1.97h0c-.44,1.55-1.92,3.02-2.43,3.81,1.33-.4,3.04-1.07,3.45-1.57,0,0,3.19,3.77,4.95,5.06.42-.94-.73-3.43-.73-3.43,0,0,.03.02.08.06l-1.36-2.19s2.96,2.13,4.7,3.02c.17-.46-1.13-1.35-2.05-2.83Z"/>
      <path class="cls-6" d="m38.58,73.87c-.27.1-.54.4-.83.37-.02-.47-.26-.85-.36-1.31-.37.27-.37.9-.52,1.28-.65-.26-1.17-1.04-1.49-1.53-.26.07-.44.37-.49.57-.51.11-.89-.34-1.05-.63-.49.04-.28,1.01-.93.91-.52-.08-.68-.96-1.15-1.07,0,.22-.17.48-.31.68-.24.35-.48.48-.94.42-.83-.1-1.52-.77-1.63-1.39-.35.18-.43.55-.8.65-.04.36-.04.71-.08,1.07-.53-.26-1.28-.77-1.78-.34-.45.39-.17,1.08-.29,1.56-.42-.15-.36-.7-.99-.81-.32.46-.56.96-.67,1.47,1.39.79,2.42,2.26,3.16,5.15,1.13,4.43,5.88,4.57,7.15-.34.56-2.18,2.27-4.64,4-6.7,0,0,0,0-.02-.02Z"/>
      <path class="cls-6" d="m21.07,74.1c-.33.15-.4.51-.52.74-.27-.16-.37-.57-.5-.81-.18-.35-.42-.63-.74-.92-.18-.16-.34-.36-.52-.54-.26.14-.56.28-.8.43-.28.17-.49.53-.85.55-.13-.39.02-.89-.47-1.15-.37.13-.61.59-1.07.58-.3-.01-.28-.27-.64-.17-.23.06-.26.34-.49.41-.45.14-.38-.17-.67-.17-.31,0-.5.31-.73.42-.71.32-.9-.08-1.25-.42-.53.13-1.04.56-1.57.76-.09.03-.21.07-.34.11-.07.34-.16.68-.32,1.01-.48-.02-.69-.77-1.15-.97-.29.27-.1,1.08-.07,1.4.03.26.09.7-.23.9-.21-.23-.61-.5-.97-.69,1.06,3.15,3.06,4.77,4.06,8.11,1.3,4.34,3.63,1.2,7.56-3.92,1.51-1.97,2.56-3.08,3.64-3.75-.6-.48-.76-1.47-1.37-1.93Z"/>
      <path class="cls-10" d="m16.8,80.67s2.92-4.37.63-5.02c-2.29-.65-4.63-.48-4.58,2.42.05,2.9-.51,10.15,3.94,2.6Z"/>
      <path class="cls-10" d="m29.72,81.09s-.92-3.51.16-4.22c1.08-.72,4.5-1.31,4.58.17s-1.49,6.21-2.76,6.36-1.69-.82-1.97-2.31Z"/>
    </g>
  </g>
</svg>