<?xml version="1.0" encoding="UTF-8"?>
<svg id="Layer_2" data-name="Layer 2" xmlns="http://www.w3.org/2000/svg" viewBox="0 0 123.02 306.21">
  <defs>
    <style>
      .cls-1 {
        fill: #663f3c;
      }

      .cls-1, .cls-2, .cls-3, .cls-4, .cls-5, .cls-6, .cls-7, .cls-8, .cls-9, .cls-10 {
        stroke-width: 0px;
      }

      .cls-2 {
        fill: #55433c;
      }

      .cls-3 {
        fill: #8c7541;
      }

      .cls-4 {
        fill: #5c473e;
      }

      .cls-5 {
        fill: #fff;
      }

      .cls-6 {
        fill: #231f20;
      }

      .cls-7 {
        fill: #755d50;
      }

      .cls-8 {
        fill: #bcbec0;
      }

      .cls-9 {
        fill: #896e5c;
      }

      .cls-10 {
        fill: #44352f;
      }
    </style>
  </defs>
  <g id="IBERIAN_LYNX" data-name="IBERIAN LYNX">
    <g>
      <path class="cls-2" d="m55.69,179.86s3.03,71.17,3.68,74.07c.66,2.9,3.52,4.17,2.24,8.94s-2.91,4.04-12.43,4.88c-9.51.84-37.6-13.57-22.96-58.56,14.64-44.99,26.39-52.87,29.45-29.33Z"/>
      <path class="cls-2" d="m67.33,179.86s-3.03,71.17-3.68,74.07c-.66,2.9-3.52,4.17-2.24,8.94s2.91,4.04,12.43,4.88c9.51.84,37.6-13.57,22.96-58.56-14.64-44.99-26.39-52.87-29.45-29.33Z"/>
      <path class="cls-2" d="m50.11,196.36s15.32,6.68,30.9-4.29c15.58-10.97,23.74-35.57-8.6-37.92-32.34-2.35-46.83,30.53-22.29,42.21Z"/>
      <path class="cls-8" d="m77,173.09l-.06.34c-.78.25-3.28,1.14-3.41,1.85.69.72,1.2,1.01.44,1.98-.55.71-2.16,1.7-2.8,2.17-.67.48-2.67,1.35-3,2.27-.4,1.18.84,1.41.97,2.48.06.38-.11.82-.04,1.2.1.5.55.93.53,1.43,0,1.51-1.68,2.67-1.51,4.35.1.8.69,1.13.31,1.85-.46.92-1.85,1.07-2.58,1.55-.15.11-.42.4-.67.63-1.87-5.07-3.68-9.35-3.68-9.35,0,0-1.81,4.27-3.68,9.35-.25-.23-.52-.52-.67-.63-.73-.48-2.12-.63-2.58-1.55-.38-.73.21-1.05.31-1.85.17-1.68-1.51-2.84-1.51-4.35-.02-.5.44-.93.53-1.43.08-.38-.1-.82-.04-1.2.13-1.07,1.37-1.3.97-2.48-.32-.92-2.33-1.79-3-2.27-.65-.48-2.25-1.47-2.8-2.17-.76-.97-.25-1.26.44-1.98-.13-.71-2.63-1.6-3.41-1.85l-.06-.34c-.27-1.58.04-3.21-.06-4.79-.04-.65-.88-3-.31-3.55.86-.84,2.67,1.74,3.19,2.25,1.03,1.03,2.4,1.32,3.7,1.85,1.28.53,2.56.69,3.87,1.05,1.16.32,2.23.21,3.43.21.5,0,1.07-.02,1.66-.02s1.16.02,1.66.02c1.2,0,2.27.11,3.43-.21,1.32-.36,2.59-.52,3.87-1.05,1.3-.53,2.67-.82,3.7-1.85.52-.52,2.33-3.09,3.19-2.25.57.55-.27,2.9-.31,3.55-.1,1.58.21,3.2-.06,4.79Z"/>
      <path class="cls-5" d="m88.68,150.5c0,2.23-.52,3.93-1.68,5.86-.9,1.49-1.89,2.77-2.96,4.14-.31.38-.61.48-.65.97.97.34,1.93.4,2.92.59-.55,1.6-2.18,3-3.34,4.18-1.09,1.14-2.27,2.17-3.55,3.11-.82.17-1.26.57-1.32,1.2.67.27,3.53.34,3.74.71-1.11,1.14-3.21,1.53-4.65,2.1,0,0-.1.02-.25.08l.06-.34c.27-1.58-.04-3.21.06-4.79.04-.65.88-3,.31-3.55-.86-.84-2.67,1.74-3.19,2.25-1.03,1.03-2.4,1.32-3.7,1.85-1.28.53-2.56.69-3.87,1.05-1.16.32-2.23.21-3.43.21-.5,0-1.07-.02-1.66-.02s-1.16.02-1.66.02c-1.2,0-2.27.11-3.43-.21-1.32-.36-2.59-.52-3.87-1.05-1.3-.53-2.67-.82-3.7-1.85-.51-.52-2.33-3.09-3.19-2.25-.57.55.27,2.9.31,3.55.1,1.58-.21,3.2.06,4.79l.06.34c-.15-.06-.25-.08-.25-.08-1.45-.57-3.55-.95-4.66-2.1.21-.36,3.07-.44,3.74-.71-.06-.63-.5-1.03-1.32-1.2-1.28-.93-2.46-1.96-3.55-3.11-1.16-1.18-2.79-2.58-3.34-4.18.99-.19,1.95-.25,2.92-.59-.04-.5-.34-.59-.65-.97-1.07-1.37-2.06-2.65-2.96-4.14-1.16-1.93-1.68-3.62-1.68-5.86,0-.72.02-1.32-.04-1.85,1.22,1.01,3.24,1.93,3.74,2.16,1.79.93,3.66,1.74,5.46,2.69,1.14.61,2.29,1.28,3.64,1.16.19-.88-.67-1.74-.34-2.48,2.38,1.97,4.96,4.54,8.05,5.19.42-1.47-.36-3.49-.52-5.02.23,1.43,2.56,2.86,3.51,3.68,1.14.95,2.37,1.98,3.66,2.88,1.3-.9,2.52-1.93,3.66-2.88.95-.82,3.28-2.25,3.51-3.68-.15,1.53-.93,3.55-.52,5.02,3.09-.65,5.67-3.22,8.05-5.19.32.74-.53,1.6-.34,2.48,1.35.11,2.5-.55,3.64-1.16,1.79-.95,3.66-1.76,5.46-2.69.5-.23,2.52-1.14,3.74-2.16-.06.53-.04,1.13-.04,1.85Z"/>
      <path class="cls-7" d="m52.87,242.36c-.32,19.86-.67,41.5-.67,41.5,0,0,10.53,15.57-2.1,17.61h-4.46s.63,4.41-8.41,4.73c-9.02.34-9.02-4.39-9.02-4.39,0,0-5.93,1.03-8.51-5.07-1.66-3.93-.38-6.05,1.7-8.03-.08.46-.02,1.05.06,1.32.21.82,1.18,1.2,1.95,1.28.71.08,1.87.15,2.54,0,.5-.11.74-.52,1.18-.74.29-.15.38-.13.71-.23.63-.17,1.2-.42,1.93-.32,1.05.13.99.78,1.3,1.66.21.63.78.86,1.18,1.3.34.4.55.9,1.01,1.2.69.5,1.66.52,2.46.69.08.15.19.25.36.25.23-.02.44-.02.67.04.53.1.93.25,1.51.29.63.04,1.14.08,1.68-.29.38-.29.92-.92,1.2-1.24.5-.57.8-1.55,1.51-1.68.59-.13,1.24.29,1.83.36.48.04.99-.02,1.47-.02,1.32,0,1.68-.04,2.58-1.05.9-1.01.93-1.81.95-3.17,0-.78.08-.82-.36-1.39-.46-.57-.8-1.13-1.16-1.74-.31-.52-.69-.74-1.05-1.18-.17-.19-.32-.59-.55-.63-.06-3.07.55-6.18.29-9.27-.11-1.11-.36-2.08-.34-3.22.02-.95-.1-1.85-.23-2.82-.32-2.21-.44-4.41-.65-6.64-.25-2.61.1-5.27-.15-7.9-.11-1.34-.23-2.59-.25-3.91,0-1.37.65-2.54.65-3.89-.02-1.24.04-2.5,0-3.74-.04-1.93-.65-3.78-.65-5.72.02-4.12-.32-8.24-.31-12.36v-5.06c0-.78-.06-1.56.06-2.33.19-1.16.57-2.23.57-3.42.02-1.51,0-3.01,0-4.5,0-1.62.32-3.17.32-4.79s.21-3.17.29-4.79c.08-1.16.36-2.46.57-3.61.15-.86.5-1.64.67-2.48.15-.82.17-1.7.31-2.54.23-1.45-.17-2.69-.27-4.1-.06-.82,0-1.68.02-2.5,0-.69-.25-1.13-.32-1.77-.06-.44.06-.93.02-1.39-.04-.74-.27-1.45-.32-2.21-.13-1.66-.27-3.36-.52-5,.78.25,3.28,1.14,3.41,1.85-.69.72-1.2,1.01-.44,1.98.55.71,2.16,1.7,2.8,2.17.67.48,2.67,1.35,3,2.27.4,1.18-.84,1.41-.97,2.48-.06.38.11.82.04,1.2-.1.5-.55.93-.53,1.43,0,1.51,1.68,2.67,1.51,4.35-.1.8-.69,1.13-.31,1.85.46.92,1.85,1.07,2.58,1.55.15.11.42.4.67.63-.44,1.13-.86,2.27-1.26,3.43-1.39,3.87-2.61,7.76-3.01,10.28-.06.48-.1.9-.11,1.26-.06,2.14-.25,13.37-.48,26.44-.02,1.87-.06,3.8-.1,5.74Z"/>
      <path class="cls-8" d="m61.51,80.32v32.05c-.95-.13-1.91-.5-2.8-.65-.63-.11-1.16-.27-1.74-.52-.53-.25-1.07-.63-1.66-.69-.34-.04-.5.06-.74.19-.46.23-.42.21-.86.13-.59-.08-1.32-.82-1.95-.52-.13.08-.27.4-.42.5-.29.21-.42.13-.76.17-.59.06-1.07.27-1.7.25-2.06-.02-4.08.53-6.12,1.01-.67.15-1.32.08-1.98.21-.53.1-.9.17-1.43.21-.72.02-1.37.48-2.08.65-.94.23-1.91.53-2.69,1.03-.67.42-1.56,1.07-2.38,1.18l-.46-2.38c.06-.02.13-.04.21-.06-.11-.34-.5-.59-.71-.9-.42-.61-.69-1.35-1.09-2-.67-1.14-.32-2.82-.32-4.14,0-1.18-.08-2.4.02-3.59.08-1.26.21-2.46.21-3.74-.02-4.58-.15-9.2.23-13.76.04-.44.08-.88.11-1.32,6.52-2,16.39-3.34,31.12-3.34Z"/>
      <path class="cls-9" d="m110.5,148.19c-.02,2.35-.06,4.81-.13,7.38-.13,5.61-.4,11.77-.8,18.56-.42,6.98-2.23,21.14-4.35,37.07-.32,2.38-.65,4.81-.97,7.27-4.06,30.51-8.59,64.45-6.37,66.75,1.01,1.07,2.12,1.97,3.09,2.86,0,.02.02.02.02.02.23.19.44.38.65.59.08.46.02,1.05-.06,1.32-.21.82-1.18,1.2-1.95,1.28-.71.08-1.87.15-2.54,0-.5-.11-.74-.52-1.18-.74-.29-.15-.38-.13-.71-.23-.63-.17-1.2-.42-1.93-.32-1.05.13-.99.78-1.3,1.66-.21.63-.78.86-1.18,1.3-.34.4-.55.9-1.01,1.2-.69.5-1.66.52-2.46.69-.08.15-.19.25-.36.25-.23-.02-.44-.02-.67.04-.53.1-.93.25-1.51.29-.63.04-1.14.08-1.68-.29-.38-.29-.92-.92-1.2-1.24-.5-.57-.8-1.55-1.51-1.68-.59-.13-1.24.29-1.83.36-.48.04-.99-.02-1.47-.02-1.32,0-1.68-.04-2.58-1.05-.9-1.01-.93-1.81-.95-3.17,0-.78-.08-.82.36-1.39.46-.57.8-1.13,1.16-1.74.31-.52.69-.74,1.05-1.18.17-.19.32-.59.55-.63.06-3.07-.55-6.18-.29-9.27.11-1.11.36-2.08.34-3.22-.02-.95.1-1.85.23-2.82.32-2.21.44-4.41.65-6.64.25-2.61-.1-5.27.15-7.9.11-1.34.23-2.59.25-3.91,0-1.37-.65-2.54-.65-3.89.02-1.24-.04-2.5,0-3.74.04-1.93.65-3.78.65-5.72-.02-4.12.32-8.24.31-12.36v-5.06c0-.78.06-1.56-.06-2.33-.19-1.16-.57-2.23-.57-3.42-.02-1.51,0-3.01,0-4.5,0-1.62-.32-3.17-.32-4.79s-.21-3.17-.29-4.79c-.08-1.16-.36-2.46-.57-3.61-.15-.86-.5-1.64-.67-2.48-.15-.82-.17-1.7-.31-2.54-.23-1.45.17-2.69.27-4.1.06-.82,0-1.68-.02-2.5,0-.69.25-1.13.32-1.77.06-.44-.06-.93-.02-1.39.04-.74.27-1.45.32-2.21.13-1.66.27-3.36.52-5,.15-.06.25-.08.25-.08,1.45-.57,3.55-.95,4.65-2.1-.21-.36-3.07-.44-3.74-.71.06-.63.5-1.03,1.32-1.2,1.28-.93,2.46-1.96,3.55-3.11,1.16-1.18,2.79-2.58,3.34-4.18-.99-.19-1.95-.25-2.92-.59.04-.5.34-.59.65-.97,1.07-1.37,2.06-2.65,2.96-4.14,1.16-1.93,1.68-3.62,1.68-5.86,0-.72-.02-1.32.04-1.85-1.22,1.01-3.24,1.93-3.74,2.16-1.79.93-3.66,1.74-5.46,2.69-1.14.61-2.29,1.28-3.64,1.16-.19-.88.67-1.74.34-2.48-2.38,1.97-4.96,4.54-8.05,5.19-.42-1.47.36-3.49.52-5.02-.23,1.43-2.56,2.86-3.51,3.68-1.14.95-2.37,1.98-3.66,2.88-1.3-.9-2.52-1.93-3.66-2.88-.95-.82-3.28-2.25-3.51-3.68.15,1.53.93,3.55.52,5.02-3.09-.65-5.67-3.22-8.05-5.19-.32.74.53,1.6.34,2.48-1.35.11-2.5-.55-3.64-1.16-1.79-.95-3.66-1.76-5.46-2.69-.5-.23-2.52-1.14-3.74-2.16.06.53.04,1.13.04,1.85,0,2.23.52,3.93,1.68,5.86.9,1.49,1.89,2.77,2.96,4.14.31.38.61.48.65.97-.97.34-1.93.4-2.92.59.55,1.6,2.18,3,3.34,4.18,1.09,1.14,2.27,2.17,3.55,3.11.82.17,1.26.57,1.32,1.2-.67.27-3.53.34-3.74.71,1.11,1.14,3.21,1.53,4.66,2.1,0,0,.1.02.25.08.25,1.64.38,3.34.52,5,.06.76.29,1.47.32,2.21.04.46-.08.95-.02,1.39.08.65.32,1.09.32,1.77-.02.82-.08,1.68-.02,2.5.1,1.41.5,2.65.27,4.1-.13.84-.15,1.72-.31,2.54-.17.84-.51,1.62-.67,2.48-.21,1.14-.5,2.44-.57,3.61-.08,1.62-.29,3.17-.29,4.79s-.32,3.17-.32,4.79c0,1.49.02,3,0,4.5,0,1.18-.38,2.25-.57,3.42-.11.76-.06,1.55-.06,2.33v5.06c-.02,4.12.32,8.24.31,12.36,0,1.95.61,3.8.65,5.72.04,1.24-.02,2.5,0,3.74,0,1.35-.65,2.52-.65,3.89.02,1.32.13,2.58.25,3.91.25,2.63-.1,5.28.15,7.9.21,2.23.32,4.43.65,6.64.13.97.25,1.87.23,2.82-.02,1.14.23,2.12.34,3.22.27,3.09-.34,6.2-.29,9.27.23.04.38.44.55.63.36.44.74.67,1.05,1.18.36.61.71,1.16,1.16,1.74.44.57.36.61.36,1.39-.02,1.35-.06,2.16-.95,3.17-.9,1.01-1.26,1.05-2.58,1.05-.48,0-.99.06-1.47.02-.59-.08-1.24-.5-1.83-.36-.71.13-1.01,1.11-1.51,1.68-.29.32-.82.95-1.2,1.24-.53.36-1.05.32-1.68.29-.57-.04-.97-.19-1.51-.29-.23-.06-.44-.06-.67-.04-.17,0-.29-.1-.36-.25-.8-.17-1.77-.19-2.46-.69-.46-.31-.67-.8-1.01-1.2-.4-.44-.97-.67-1.18-1.3-.31-.88-.25-1.53-1.3-1.66-.72-.1-1.3.15-1.93.32-.32.1-.42.08-.71.23-.44.23-.69.63-1.18.74-.67.15-1.83.08-2.54,0-.76-.08-1.74-.46-1.95-1.28-.08-.27-.13-.86-.06-1.32.21-.21.42-.4.65-.59,0,0,.02,0,.02-.02.97-.9,2.08-1.79,3.09-2.86,2.21-2.31-2.31-36.25-6.37-66.75-.32-2.46-.65-4.88-.97-7.27-2.12-15.93-3.93-30.09-4.35-37.07-.4-6.79-.67-12.95-.8-18.56-.08-2.58-.11-5.04-.13-7.38-.36-44.83,7.54-49.26,6.54-52.18-1.3-3.74-2.31-10.3,8.8-14.59-.55,3.78-.82,7.61-.9,11.45-.08,3.64.06,7.97,1.03,11.43.4,1.45.67,2.96,1.14,4.39.17.57,1.39,3.32.69,3.76-.02,1.32-.25,2.67-.23,3.95.25.06.97-.19,1.14.06.13.21.02.65.02.9.02.69.08,1.26.23,1.95.11.48.61,2.5,1.09,2.4.82-.17.53-2.88,1.55-3,.46,1.22.93,2.37,1.53,3.47.52.95,1.53,2.82,2.42,3.32,1.05.61.34-.99.88-1.72.52-.72,1.35,1.95,1.83,2.25.23.15.02.27.36.11.48-.19.5-1.24,1.11-1.11.4.93.9,1.93,1.22,2.94.95-.42,1.01-2.38,1.89-2.77.38.74.29,1.83.36,2.71.1.88.17,1.79.38,2.65.34.19,1.22-1.32,1.55-1.6.42,1.11.29,3.11.32,4.37.8-.19,1.51-2.16,1.97-2.98.31-.53.59-1.32,1.07-1.53.71,1.3,1.34,3.21,2.35,4.12.34.31,1.35,1.24,1.76,1.01.04-1.35-.1-2.75.04-4.08.55.94.9,2.48,1.35,3.49.52,1.11,1.34,3.4,2.19,3.91.23-1.3.19-2.63.48-3.91.27.19.17.46.27.86.29,1.26.92,2.19,1.6,3.07.31.38.63.74.97,1.09.34-.34.67-.71.97-1.09.69-.88,1.32-1.81,1.6-3.07.1-.4,0-.67.27-.86.29,1.28.25,2.61.48,3.91.86-.52,1.68-2.8,2.19-3.91.46-1.01.8-2.56,1.35-3.49.13,1.34,0,2.73.04,4.08.4.23,1.41-.71,1.76-1.01,1.01-.92,1.64-2.82,2.35-4.12.48.21.76.99,1.07,1.53.46.82,1.16,2.79,1.97,2.98.04-1.26-.1-3.26.32-4.37.32.29,1.2,1.79,1.55,1.6.21-.86.29-1.77.38-2.65.08-.88-.02-1.97.36-2.71.88.38.93,2.35,1.89,2.77.32-1.01.82-2,1.22-2.94.61-.13.63.92,1.11,1.11.34.15.13.04.36-.11.48-.31,1.32-2.98,1.83-2.25.53.72-.17,2.33.88,1.72.9-.5,1.91-2.37,2.42-3.32.59-1.11,1.07-2.25,1.53-3.47,1.01.11.73,2.82,1.55,3,.48.1.97-1.93,1.09-2.4.15-.69.21-1.26.23-1.95,0-.25-.11-.69.02-.9.17-.25.9,0,1.14-.06.02-1.28-.21-2.63-.23-3.95-.71-.44.52-3.19.69-3.76.48-1.43.74-2.94,1.14-4.39.97-3.45,1.11-7.78,1.03-11.43-.08-3.83-.34-7.67-.9-11.45,11.1,4.29,10.09,10.86,8.8,14.59-.99,2.92,6.91,7.35,6.54,52.18Z"/>
      <path class="cls-8" d="m95.03,107.41c-.4,1.45-.67,2.96-1.14,4.39-.17.57-1.39,3.32-.69,3.76.02,1.32.25,2.67.23,3.95-.25.06-.97-.19-1.14.06-.13.21-.02.65-.02.9-.02.69-.08,1.26-.23,1.95-.11.48-.61,2.5-1.09,2.4-.82-.17-.53-2.88-1.55-3-.46,1.22-.93,2.37-1.53,3.47-.52.95-1.53,2.82-2.42,3.32-1.05.61-.34-.99-.88-1.72-.52-.72-1.35,1.95-1.83,2.25-.23.15-.02.27-.36.11-.48-.19-.5-1.24-1.11-1.11-.4.93-.9,1.93-1.22,2.94-.95-.42-1.01-2.38-1.89-2.77-.38.74-.29,1.83-.36,2.71-.1.88-.17,1.79-.38,2.65-.34.19-1.22-1.32-1.55-1.6-.42,1.11-.29,3.11-.32,4.37-.8-.19-1.51-2.16-1.97-2.98-.31-.53-.59-1.32-1.07-1.53-.71,1.3-1.34,3.21-2.35,4.12-.34.31-1.35,1.24-1.76,1.01-.04-1.35.1-2.75-.04-4.08-.55.94-.9,2.48-1.35,3.49-.52,1.11-1.34,3.4-2.19,3.91-.23-1.3-.19-2.63-.48-3.91-.27.19-.17.46-.27.86-.29,1.26-.92,2.19-1.6,3.07-.31.38-.63.74-.97,1.09-.34-.34-.67-.71-.97-1.09-.69-.88-1.32-1.81-1.6-3.07-.1-.4,0-.67-.27-.86-.29,1.28-.25,2.61-.48,3.91-.86-.52-1.68-2.8-2.19-3.91-.46-1.01-.8-2.56-1.35-3.49-.13,1.34,0,2.73-.04,4.08-.4.23-1.41-.71-1.76-1.01-1.01-.92-1.64-2.82-2.35-4.12-.48.21-.76.99-1.07,1.53-.46.82-1.16,2.79-1.97,2.98-.04-1.26.1-3.26-.32-4.37-.32.29-1.2,1.79-1.55,1.6-.21-.86-.29-1.77-.38-2.65-.08-.88.02-1.97-.36-2.71-.88.38-.93,2.35-1.89,2.77-.32-1.01-.82-2-1.22-2.94-.61-.13-.63.92-1.11,1.11-.34.15-.13.04-.36-.11-.48-.31-1.32-2.98-1.83-2.25-.53.73.17,2.33-.88,1.72-.9-.5-1.91-2.37-2.42-3.32-.59-1.11-1.07-2.25-1.53-3.47-1.01.11-.72,2.82-1.55,3-.48.1-.97-1.93-1.09-2.4-.15-.69-.21-1.26-.23-1.95,0-.25.11-.69-.02-.9-.17-.25-.9,0-1.14-.06-.02-1.28.21-2.63.23-3.95.71-.44-.52-3.19-.69-3.76-.48-1.43-.74-2.94-1.14-4.39-.97-3.45-1.11-7.78-1.03-11.43.08-3.83.34-7.67.9-11.45.78-.31,1.62-.59,2.54-.88-.04.44-.08.88-.11,1.32-.38,4.56-.25,9.18-.23,13.76,0,1.28-.13,2.48-.21,3.74-.1,1.18-.02,2.4-.02,3.59,0,1.32-.34,3,.32,4.14.4.65.67,1.39,1.09,2,.21.31.59.55.71.9-.08.02-.15.04-.21.06l.46,2.38c.82-.11,1.72-.76,2.38-1.18.78-.5,1.76-.8,2.69-1.03.71-.17,1.35-.63,2.08-.65.53-.04.9-.11,1.43-.21.67-.13,1.32-.06,1.98-.21,2.04-.48,4.06-1.03,6.12-1.01.63.02,1.11-.19,1.7-.25.34-.04.48.04.76-.17.15-.1.29-.42.42-.5.63-.31,1.35.44,1.95.52.44.08.4.1.86-.13.25-.13.4-.23.74-.19.59.06,1.13.44,1.66.69.57.25,1.11.4,1.74.52.9.15,1.85.52,2.8.65.95-.13,1.91-.5,2.8-.65.63-.11,1.16-.27,1.74-.52.53-.25,1.07-.63,1.66-.69.34-.04.5.06.74.19.46.23.42.21.86.13.59-.08,1.32-.82,1.95-.52.13.08.27.4.42.5.29.21.42.13.76.17.59.06,1.07.27,1.7.25,2.06-.02,4.08.53,6.12,1.01.67.15,1.32.08,1.98.21.53.1.9.17,1.43.21.73.02,1.37.48,2.08.65.93.23,1.91.53,2.69,1.03.67.42,1.56,1.07,2.38,1.18l.46-2.38c-.06-.02-.13-.04-.21-.06.11-.34.5-.59.71-.9.42-.61.69-1.35,1.09-2,.67-1.14.32-2.82.32-4.14,0-1.18.08-2.4-.02-3.59-.08-1.26-.21-2.46-.21-3.74.02-4.58.15-9.2-.23-13.76-.04-.44-.08-.88-.11-1.32.92.29,1.76.57,2.54.88.55,3.78.82,7.61.9,11.45.08,3.64-.06,7.97-1.03,11.43Z"/>
      <path class="cls-10" d="m18.28,126.88c-.1,0-.2,0-.29.01-.12.7.74,2.15,1.26,2.6.33.29.87.43,1.27.56,2.34.77,4.8,1.13,7.15,1.86,2.16.68,4.33,1.41,6.53,1.97,1.04.26,2.08.68,3.11.91.43-1.72-1.99-2.73-3.35-3.08-1.91-.49-3.91-.85-5.64-1.83-.99-.56-2.26-.66-3.35-1.03-1.95-.65-3.84-1.84-5.43-3.18-.41-.35-.69-.56-1.17-.78-.79-.35-.64-.03-.08,1.98Z"/>
      <path class="cls-10" d="m34.36,213.21c-.8.53-1.3,1.03-1.95,1.74-1.11,1.24-2.44,1.93-3.89,2.73-1.22.69-2.16,1.28-3.62,1.41-1.14.11-2.37.11-3.49-.04-.9-.11-1.77-.31-2.63-.57-.32-2.46-.65-4.88-.97-7.27.57.27,1.13.53,1.68.74,1.96.78,4.25.46,6.33.73,2.08.27,3.8-.27,5.82-.52.74-.1,1.45-.08,2.17-.06.23,0,.95-.13,1.16.02.57.38-.23.84-.61,1.09Z"/>
      <path class="cls-10" d="m52.96,236.62c-.02,1.87-.06,3.8-.1,5.74-.38-.27-.74-.5-1.11-.72-1.39-.88-4.03-.1-5.61.08-1.95.21-3.78.57-5.67-.06-1.93-.63-3.87-1.05-5.7-1.91-.67-.31-1.18-.59-1.79-1.03-.61-.42-1.24-.59-1.93-.88,4.1,0,8.09,1.56,12.19.73.63-.11,1.07-.08,1.68-.36.5-.25.86-.71,1.34-.99.55-.34,1.49-.82,2.08-.97.74-.17,1.74.25,2.5.32.69.06,1.41.1,2.12.06Z"/>
      <path class="cls-10" d="m56.57,198.63c-1.39,3.87-2.61,7.76-3.01,10.28-1.64-.13-3.34.76-4.94.32-1.11-.31-2.25-1.55-3.07-2.37-.48-.48-3.09-2.9-2.21-4.03.95.32,2.37-.59,3.26-.84,1.81-.53,3.17-1.26,4.73-2.29.84-.55,1.56-1.18,2.59-1.28.78-.08,1.76.04,2.65.19Z"/>
      <g>
        <path class="cls-10" d="m42.09,188.52c-.71-.32-1.4-.75-2.14-.9-1.12-.23-2.12-.57-3.27-.72-1.56-.2-3.03-.68-4.55-1.02-2.32-.53-4.25-1.29-6.33-2.42-1.24-.68-2.46-1.4-3.71-2.07-1.11-.59-2.37-.91-3.19-1.93,0,.06.01.13.02,2.1,1.18,2.59,3.26,4.18,5.71,5.54,1.39.77,2.55,1.36,4.13,1.55,1.2.15,2.4.19,3.6.29,2.47.21,4.9.83,7.39.9,1.32.03,3.03.21,4.31-.07-.21-.61-1.42-1.01-1.97-1.26Z"/>
        <path class="cls-10" d="m32.59,259.15c1.29-.62-.53-3.42-.32-4.44h-2.23c-1.11-.06-2.01,2.44-1.56,3.29.48.89,3.12,1.62,4.1,1.15Z"/>
        <path class="cls-10" d="m37.68,270.61c-.38,0-.89-.11-1.26.02-1.27.46-1.18,2.23-.17,2.94.79.55,2.6.41,3.4-.07.75-.44.58-.85.57-1.62l-2.54-1.27Z"/>
        <path class="cls-10" d="m45.95,255.98c-.3,0-.66-.09-.95.02-.94.37-.96,2.04-.94,2.83.03,1.64.96,2.15,2.5,1.72,1.07-.3,1.55-.91,1.3-2.03l-1.91-2.54Z"/>
        <path class="cls-10" d="m32.27,292.23l-2.23-.95c-1.63.35-1.05,2.81.22,3.18.68.2,1.55.01,2.13-.35,1.21-.75.96-1.37-.12-1.88Z"/>
        <path class="cls-10" d="m51.03,293.82l-.64-1.27c-1.31-.44-.41,2.03.33,2.33.43-.12.63-.61.59-1.01-.1-.01-.19-.03-.29-.04Z"/>
        <path class="cls-10" d="m31.37,226.94c.33-.5.72-2.1.58-2.76l-2.54-.32c.02-1.1-1.14-.58-1.59-.13-.48.47-1.04,1.33-1.17,2-.21,1.13.26,1.08,1.53,1.35.84.17,2.57.78,3.19-.14Z"/>
        <path class="cls-10" d="m23.63,171.02c.78.1,2.96.5,3.56-.19.35-.4,0-2.3,0-2.92l-3.18-.95c-1.06-.34-1.51,1.65-1.71,2.34-.43,1.47-.2,1.52,1.33,1.72Z"/>
      </g>
      <path class="cls-10" d="m24,152.19c-1.72,1.26-3.89,2.5-5.97,3-1.77.44-3.59.29-5.38.38-.08-2.58-.11-5.04-.13-7.38,1.58.42,3.22.65,4.9.69,2.48.04,5.25-.38,7.61.65,1.62.72-.32,2.16-1.03,2.67Z"/>
      <g>
        <path class="cls-10" d="m55.21,144.36c-.18-.43-.89-.43-1.27-.62-.36-.19-.63-.52-1.01-.64l-1.59.32c-1.14.9-.89,3.3.29,4.13.57.41,2.57.65,3.15.06.38-.4.65-2.72.43-3.25Z"/>
        <path class="cls-10" d="m48.59,182.18c-.56-.08-1.11-.37-1.69-.29h-1.27c-.14.99.33,2.22,1.26,2.56.77.28,2.38.72,3.01.02.46-.51.12-1.86-.44-2.21-.22-.14-.61-.04-.86-.08Z"/>
      </g>
      <path class="cls-10" d="m37.36,163.45c-.21-.03-.4-.1-.56-.22,1.26,1.23,2.19,1.81,3.91,2.29,2.54.7,5.05,1.6,7.41,2.78,2.48,1.24,4.73,3.36,7.34,4.3-.06-.54-.48-.92-.77-1.35-.65-.98-1.2-1.95-1.75-3-.79-1.53-1.56-3.46-3-4.47-1.83-1.29-4.07-1.78-6.15-2.47-1.96-.65-4.04-1.24-5.82-2.37-1.15-.73-2.33-1.91-3.16-3,.08.61-.32,1.31-.32,1.97,0,.76.12,1.06.41,1.73.18.41.34.75.55,1.11.23.4.62.86.63,1.38-.31.1-.62.11,1.28,1.32Z"/>
      <path class="cls-5" d="m33.48,146.91c.53.61.73,1.14.82,1.74-.71-.59-1.13-1.2-.82-1.74Z"/>
      <path class="cls-10" d="m22.04,288.11c-.15.02-.31.06-.44.08.11-.11.25-.15.46-.1,0,.02-.02.02-.02.02Z"/>
      <path class="cls-7" d="m70.15,242.36c.32,19.86.67,41.5.67,41.5,0,0-10.53,15.57,2.1,17.61h4.46s-.63,4.41,8.41,4.73c9.02.34,9.02-4.39,9.02-4.39,0,0,5.93,1.03,8.51-5.07,1.66-3.93.38-6.05-1.7-8.03.08.46.02,1.05-.06,1.32-.21.82-1.18,1.2-1.95,1.28-.71.08-1.87.15-2.54,0-.5-.11-.74-.52-1.18-.74-.29-.15-.38-.13-.71-.23-.63-.17-1.2-.42-1.93-.32-1.05.13-.99.78-1.3,1.66-.21.63-.78.86-1.18,1.3-.34.4-.55.9-1.01,1.2-.69.5-1.66.52-2.46.69-.08.15-.19.25-.36.25-.23-.02-.44-.02-.67.04-.53.1-.93.25-1.51.29-.63.04-1.14.08-1.68-.29-.38-.29-.92-.92-1.2-1.24-.5-.57-.8-1.55-1.51-1.68-.59-.13-1.24.29-1.83.36-.48.04-.99-.02-1.47-.02-1.32,0-1.68-.04-2.58-1.05-.9-1.01-.93-1.81-.95-3.17,0-.78-.08-.82.36-1.39.46-.57.8-1.13,1.16-1.74.31-.52.69-.74,1.05-1.18.17-.19.32-.59.55-.63.06-3.07-.55-6.18-.29-9.27.11-1.11.36-2.08.34-3.22-.02-.95.1-1.85.23-2.82.32-2.21.44-4.41.65-6.64.25-2.61-.1-5.27.15-7.9.11-1.34.23-2.59.25-3.91,0-1.37-.65-2.54-.65-3.89.02-1.24-.04-2.5,0-3.74.04-1.93.65-3.78.65-5.72-.02-4.12.32-8.24.31-12.36v-5.06c0-.78.06-1.56-.06-2.33-.19-1.16-.57-2.23-.57-3.42-.02-1.51,0-3.01,0-4.5,0-1.62-.32-3.17-.32-4.79s-.21-3.17-.29-4.79c-.08-1.16-.36-2.46-.57-3.61-.15-.86-.5-1.64-.67-2.48-.15-.82-.17-1.7-.31-2.54-.23-1.45.17-2.69.27-4.1.06-.82,0-1.68-.02-2.5,0-.69.25-1.13.32-1.77.06-.44-.06-.93-.02-1.39.04-.74.27-1.45.32-2.21.13-1.66.27-3.36.52-5-.78.25-3.28,1.14-3.41,1.85.69.72,1.2,1.01.44,1.98-.55.71-2.16,1.7-2.8,2.17-.67.48-2.67,1.35-3,2.27-.4,1.18.84,1.41.97,2.48.06.38-.11.82-.04,1.2.1.5.55.93.53,1.43,0,1.51-1.68,2.67-1.51,4.35.1.8.69,1.13.31,1.85-.46.92-1.85,1.07-2.58,1.55-.15.11-.42.4-.67.63.44,1.13.86,2.27,1.26,3.43,1.39,3.87,2.61,7.76,3.01,10.28.06.48.1.9.11,1.26.06,2.14.25,13.37.48,26.44.02,1.87.06,3.8.1,5.74Z"/>
      <path class="cls-8" d="m61.51,80.32v32.05c.95-.13,1.91-.5,2.8-.65.63-.11,1.16-.27,1.74-.52.53-.25,1.07-.63,1.66-.69.34-.04.5.06.74.19.46.23.42.21.86.13.59-.08,1.32-.82,1.95-.52.13.08.27.4.42.5.29.21.42.13.76.17.59.06,1.07.27,1.7.25,2.06-.02,4.08.53,6.12,1.01.67.15,1.32.08,1.98.21.53.1.9.17,1.43.21.73.02,1.37.48,2.08.65.93.23,1.91.53,2.69,1.03.67.42,1.56,1.07,2.38,1.18l.46-2.38c-.06-.02-.13-.04-.21-.06.11-.34.5-.59.71-.9.42-.61.69-1.35,1.09-2,.67-1.14.32-2.82.32-4.14,0-1.18.08-2.4-.02-3.59-.08-1.26-.21-2.46-.21-3.74.02-4.58.15-9.2-.23-13.76-.04-.44-.08-.88-.11-1.32-6.52-2-16.39-3.34-31.12-3.34Z"/>
      <path class="cls-10" d="m104.73,126.88c.1,0,.2,0,.29.01.12.7-.74,2.15-1.26,2.6-.33.29-.87.43-1.27.56-2.34.77-4.8,1.13-7.15,1.86-2.16.68-4.33,1.41-6.53,1.97-1.04.26-2.08.68-3.11.91-.43-1.72,1.99-2.73,3.35-3.08,1.91-.49,3.91-.85,5.64-1.83.99-.56,2.26-.66,3.35-1.03,1.95-.65,3.84-1.84,5.43-3.18.41-.35.69-.56,1.17-.78.79-.35.64-.03.08,1.98Z"/>
      <path class="cls-10" d="m88.66,213.21c.8.53,1.3,1.03,1.95,1.74,1.11,1.24,2.44,1.93,3.89,2.73,1.22.69,2.16,1.28,3.62,1.41,1.14.11,2.37.11,3.49-.04.9-.11,1.77-.31,2.63-.57.32-2.46.65-4.88.97-7.27-.57.27-1.13.53-1.68.74-1.97.78-4.25.46-6.33.73-2.08.27-3.8-.27-5.82-.52-.74-.1-1.45-.08-2.17-.06-.23,0-.95-.13-1.16.02-.57.38.23.84.61,1.09Z"/>
      <path class="cls-10" d="m70.06,236.62c.02,1.87.06,3.8.1,5.74.38-.27.74-.5,1.11-.72,1.39-.88,4.03-.1,5.61.08,1.95.21,3.78.57,5.67-.06,1.93-.63,3.87-1.05,5.7-1.91.67-.31,1.18-.59,1.79-1.03.61-.42,1.24-.59,1.93-.88-4.1,0-8.09,1.56-12.19.73-.63-.11-1.07-.08-1.68-.36-.5-.25-.86-.71-1.34-.99-.55-.34-1.49-.82-2.08-.97-.74-.17-1.74.25-2.5.32-.69.06-1.41.1-2.12.06Z"/>
      <path class="cls-10" d="m66.45,198.63c1.39,3.87,2.61,7.76,3.01,10.28,1.64-.13,3.34.76,4.94.32,1.11-.31,2.25-1.55,3.07-2.37.48-.48,3.09-2.9,2.21-4.03-.95.32-2.37-.59-3.26-.84-1.81-.53-3.17-1.26-4.73-2.29-.84-.55-1.56-1.18-2.59-1.28-.78-.08-1.76.04-2.65.19Z"/>
      <g>
        <path class="cls-10" d="m80.93,188.52c.71-.32,1.4-.75,2.14-.9,1.12-.23,2.12-.57,3.27-.72,1.56-.2,3.03-.68,4.55-1.02,2.32-.53,4.25-1.29,6.33-2.42,1.24-.68,2.46-1.4,3.71-2.07,1.11-.59,2.37-.91,3.19-1.93,0,.06-.01.13-.02,2.1-1.18,2.59-3.26,4.18-5.71,5.54-1.39.77-2.55,1.36-4.13,1.55-1.2.15-2.4.19-3.6.29-2.47.21-4.9.83-7.39.9-1.32.03-3.03.21-4.31-.07.21-.61,1.42-1.01,1.97-1.26Z"/>
        <path class="cls-10" d="m90.42,259.15c-1.29-.62.53-3.42.32-4.44h2.23c1.11-.06,2.01,2.44,1.56,3.29-.48.89-3.12,1.62-4.1,1.15Z"/>
        <path class="cls-10" d="m85.34,270.61c.38,0,.89-.11,1.26.02,1.27.46,1.18,2.23.17,2.94-.79.55-2.6.41-3.4-.07-.75-.44-.58-.85-.57-1.62l2.54-1.27Z"/>
        <path class="cls-10" d="m77.07,255.98c.3,0,.66-.09.95.02.94.37.96,2.04.94,2.83-.03,1.64-.96,2.15-2.5,1.72-1.07-.3-1.55-.91-1.3-2.03l1.91-2.54Z"/>
        <path class="cls-10" d="m90.74,292.23l2.23-.95c1.63.35,1.05,2.81-.22,3.18-.68.2-1.55.01-2.13-.35-1.21-.75-.96-1.37.12-1.88Z"/>
        <path class="cls-10" d="m71.98,293.82l.64-1.27c1.31-.44.41,2.03-.33,2.33-.43-.12-.63-.61-.59-1.01.1-.01.19-.03.29-.04Z"/>
        <path class="cls-10" d="m91.64,226.94c-.33-.5-.72-2.1-.58-2.76l2.54-.32c-.02-1.1,1.14-.58,1.59-.13.48.47,1.04,1.33,1.17,2,.21,1.13-.26,1.08-1.53,1.35-.84.17-2.57.78-3.19-.14Z"/>
        <path class="cls-10" d="m99.39,171.02c-.78.1-2.96.5-3.56-.19-.35-.4,0-2.3,0-2.92l3.18-.95c1.06-.34,1.51,1.65,1.71,2.34.43,1.47.2,1.52-1.33,1.72Z"/>
      </g>
      <path class="cls-10" d="m99.02,152.19c1.72,1.26,3.89,2.5,5.97,3,1.77.44,3.59.29,5.38.38.08-2.58.11-5.04.13-7.38-1.58.42-3.22.65-4.9.69-2.48.04-5.25-.38-7.61.65-1.62.72.32,2.16,1.03,2.67Z"/>
      <g>
        <path class="cls-10" d="m67.8,144.36c.18-.43.89-.43,1.27-.62.36-.19.63-.52,1.01-.64l1.59.32c1.15.9.89,3.3-.29,4.13-.57.41-2.57.65-3.15.06-.38-.4-.65-2.72-.43-3.25Z"/>
        <path class="cls-10" d="m74.42,182.18c.56-.08,1.11-.37,1.69-.29h1.27c.14.99-.33,2.22-1.26,2.56-.77.28-2.38.72-3.01.02-.46-.51-.12-1.86.44-2.21.22-.14.61-.04.86-.08Z"/>
      </g>
      <path class="cls-10" d="m85.65,163.45c.21-.03.4-.1.56-.22-1.26,1.23-2.19,1.81-3.91,2.29-2.54.7-5.05,1.6-7.41,2.78-2.48,1.24-4.73,3.36-7.34,4.3.06-.54.48-.92.77-1.35.65-.98,1.2-1.95,1.75-3,.79-1.53,1.56-3.46,3-4.47,1.83-1.29,4.07-1.78,6.15-2.47,1.96-.65,4.04-1.24,5.82-2.37,1.15-.73,2.33-1.91,3.16-3-.08.61.32,1.31.32,1.97,0,.76-.12,1.06-.41,1.73-.18.41-.34.75-.55,1.11-.23.4-.62.86-.63,1.38.31.1.62.11-1.28,1.32Z"/>
      <path class="cls-5" d="m89.53,146.91c-.53.61-.72,1.14-.82,1.74.71-.59,1.13-1.2.82-1.74Z"/>
      <path class="cls-10" d="m100.98,288.11c.15.02.31.06.44.08-.11-.11-.25-.15-.46-.1,0,.02.02.02.02.02Z"/>
      <path class="cls-5" d="m48.51,108.74c-.11-.29-.17-.62-.34-.87-.19-.28-.57-.38-.93-.47-.67-.17-1.24-.32-1.85-.62-.48-.24-.82-.58-1.26-.87-.69-.43-1.15-1.04-1.68-1.62-.93-.98-1.75-2.07-2.46-3.24-.38-.64-.42-1.3-.71-1.96-.19-.43-.55-1.11-.49-1.58l-1.58-.62c.78.04,1.58.04,2.37-.04.15-.45.84-.56,1.22-.79,1.13-.72,1.78-1.94,3.05-2.47.37-.15.75-.3,1.11-.44-.04-.01-.06-.03-.1-.03-1.98-.48-4.03-.64-6.07-.64-.99.02-1.94-.13-2.92-.15-1.53-.06-3.11-.28-4.62-.15.06.15.17.29.3.4-.36-.17-.87-.27-1.1-.3-.9-.19-1.85-.15-2.75-.11.23.36.99.79.94,1.25-.59.11-.99.6-1.45.98,0,.03.02.06.03.09.05.14.1.28.14.43.01.05.03.1.04.14.04.14.08.3.12.47.17.6.34,1.19.55,1.75.02.17.06.3.11.45.17.26.52.49.75.73.51.62,1.26,1.04,1.62,1.79-.36.43-.48.57-.3,1.11.11.24.25.47.42.71-.15.36-.4.68-.71.95.23.92.75,1.67,1.53,2.28.5.38.84.83,1.05,1.36-.76-.13-1.34.6-1.72,1.13.21.58.63,1,1.22,1.26.4.13.68.38.87.7-.29.06-.97.3-.86.75.06.29.29.19.49.34-.19.3-.42.5-.57.79-.04.07-.07.14-.1.22-.15.47-.21,1.17.1,1.6.19.1.27.24.27.45-.04.2-.08.39-.1.6-.1.66-.1,1.36-.04,2.02.08.96.34,1.96.65,2.92,3.64-3.02,8.24-5.49,12.68-7.42,1.37-.6,2.74-1.15,4.05-1.64-.46-.48-.75-.98-.99-1.64Zm-16.94-16.15c.19.07.33.17.37.3-.11-.1-.25-.19-.37-.3Z"/>
      <path class="cls-9" d="m61.51,51.96v43.6c-.42-.26-.86-.51-1.34-.7-2.67-1.13-5.86-.77-8.7-1.15-.71-.11-1.39-.25-2.12-.17-.86.08-1.87-.21-2.71-.26-.46-.02-1.01.06-1.45-.04-.08-.02-.23-.11-.34-.13-1.98-.47-4.03-.64-6.07-.64-.99.02-1.95-.13-2.92-.15-1.53-.06-3.11-.28-4.62-.15.06.15.17.28.31.4-.36-.17-.88-.26-1.11-.3-.9-.19-1.85-.15-2.75-.11.23.36.99.79.93,1.24-.59.11-.99.6-1.45.98-.11-.28-.27-.55-.48-.87-.93-1.39-1.01-2.85-1.28-4.45-.13-.89-.15-1.72-.15-2.62,0-.81-.1-1.68.02-2.49.1-.64.36-1.23.61-1.81.17-.38.32-.87.67-1.15.52-.43,1.53-.62,2.19-.62.48.02,1.77.26,2.04-.28.1-.19.08-.62,0-.81-.1-.25-.46-.3-1.24-.62-.38.06-.93-.21-1.28-.36-.32-.15-.82-.21-1.18-.26-.93-.19-2.12-.28-2.96.34-.9.7-1.09,1.92-1.34,2.96-.29,1.11-.25,2.26-.25,3.41v1.3c0,.41.06.64.17,1.02.1.3.13.6.15.94.02.38.17.62.15,1.02,0,.4.17.7.17,1.09-.02.45.08.75.15,1.19.06.3.17.57.23.87.1.34,0,.75.08,1.09.06.19.15.26.17.47.02.09-.04.23,0,.32.02.08.11.13.11.19.1.38.04.83.04,1.23v1.66c0,.68.17,1.56-.32,2.13.13.32.97.15,1.3.32-.21.34-.5.66-.71,1-.93.55-1.95,1.02-3.01,1.32-.25.09-.84.13-.93.47-.04.21.1.3-.06.49-.13.17-.44.11-.63.19-.15.04-.36.17-.52.23-.32.13-1.43.32-1.55.6-.06.17.19.36.06.51-.1.11-.34,0-.46.02-.17.04-.31.15-.48.17-.15.04-.32,0-.5.02-.4.09-.78.28-1.18.38-.29.06-.59.13-.88.23-.59.21-1.22.41-1.74.81-.46.34-.9.79-1.3,1.19-.25.25-.44.49-.57.81.32.09.67-.02.99.04.23.04.48.11.71.17.06.23-.55.77-.67.96-.1.13-.53.64-.46.89.1.3.65.19.92.15-.65.68-1.09,1.58-1.77,2.22-.25.25-.27.23-.46.53-.23.38-.44.49-.72.79-.17.17-.4.47-.55.75v-.32c.02-.64.06-1.28.1-1.92.15-.26.13-.47-.04-.6-.9.68-1.89,1.56-2.96,1.87-.08-.75.15-1.49.1-2.26,0-.26.04-.6-.25-.7-.23-.08-.97.13-1.26.13-.32.02-.67.04-.99,0-.15-.36.36-1.3.48-1.66.31-1,.69-2.15.78-3.2-.32-.17-.92.21-1.3.17-.06-.68.38-1.56.57-2.21.1-.26.76-2.28.59-2.43-.38-.36-1.14.04-1.62-.11.04-.3.5-.62.65-.9.38-.75.4-1.83.29-2.68-.36-.19-1.22.25-1.56.41-.06-.25.11-.72.17-.96.06-.28.1-.55.15-.83.11-.81.19-1.66.38-2.47.29-1.32.52-2.71,1.22-3.9.36-.6.74-1.07,1.28-1.53.04-.02.08-.08.1-.11-1.2-1.19-2.48-2.51-3.28-3.51l2.92-1.92-2.92-2.17,2.04-1.77-4.14-2.94,3.93-2.56-1.83-2.94h2.04l-4.14-3.75,3.53-2.94H0l2.1-3.75-2.1-1.77,3.28-3.36-3.28-2.15h3.93l-1.34-3.49h3.64v-3.62h2.08l1.56-4.71s5.34-13.72,16.2-17.93c10.86-4.22,35.43,28.95,35.43,28.95Z"/>
      <path class="cls-5" d="m31.19,120.82c-.67.66-1.32,1.34-1.89,2.04l-.1-.74c-.17.15-.34.29-.49.45-.69.72-1.01,1.81-1.84,2.42-.34-.62-.61-1.26-.86-1.91-.13.17-.38.23-.59.32-.69.3-1.37.58-2.04.92-.44.22-.87.43-1.3.7-.51.34-.89.69-1.33,1.17-.23.27-.44.6-.78.76-.36-.39-.63-.85-.9-1.34-.19-.38-.3-.87-.63-1.18-.32.57-.55,1.17-.78,1.77,0,.03-.02.06-.02.09-.09.3-.18.79-.44.93-.63-1.41-1.05-2.9-1.68-4.33-.08.09-.15.17-.23.24-.11-.49.02-.98-.04-1.47-.59.23-.76,1.45-1.39,1.49-.38-1.39-.48-2.73-.53-4.17-.23.02-.4.6-.48.77-.15.36-.3.75-.61,1.04-.29-.21-.48-.47-.57-.83-.39-.6-.67-1.24-.9-1.92-.27-.55-.42-1.13-.44-1.75.08-.26.08-.49-.04-.71-.3.34-.56.71-.73,1.13-.04.42-.21.68-.57.78-.46-.96-.53-1.92-.49-2.96.15-.29.38-.58.55-.76.29-.3.49-.41.73-.79.19-.3.21-.29.46-.53.68-.64,1.13-1.55,1.77-2.23-.27.04-.82.15-.92-.15-.08-.24.37-.75.46-.88.11-.19.72-.74.67-.96-.23-.06-.48-.13-.7-.17-.33-.06-.67.06-.99-.04.13-.32.32-.57.57-.81.4-.4.84-.85,1.3-1.19.52-.39,1.15-.6,1.74-.81.29-.09.59-.17.88-.22.4-.1.78-.29,1.18-.38.17-.02.34.02.49-.02.17-.02.3-.13.48-.17.11-.02.36.1.46-.02.13-.15-.12-.34-.06-.51.11-.28,1.22-.47,1.54-.6.16-.06.37-.19.52-.22.19-.08.49-.02.63-.19.15-.19.02-.29.06-.49.1-.34.69-.38.94-.47,1.06-.3,2.06-.77,2.99-1.31,0,0,.01,0,.02-.01-.1.14-.19.29-.26.43-.02.05-.04.09-.06.14.3.29.78.08,1.08.25.11-.02.19.02.25.11,0,.34-.06.68-.17.98-.13.51-.29,1-.46,1.49-.13.26-.19.53-.15.81.1.11.34.17.48.23.27.13.13-.02.3.19.06.06.16.23.18.32.17.81-.94,1.51-.67,2.35.4.08.9-.08,1.28-.17-.06.47-.25.9-.61,1.28-.31.43-.52.91-.61,1.4-.15.69-.21,1.43-.3,2.13.42.29,1.34-.26,1.79-.36.14.12.09.4.08.64,0,.11,0,.22.03.3.21.57.56.42.97.6.55.25.32,1.81.44,2.3.08.3.21.55.3.83.21.66.63.78,1.09,1.25.7.72,1.05,1.75,1.72,2.51.08.08.15.15.23.25Z"/>
      <path class="cls-9" d="m90.76,21.24c-14.94-6.6-20.66-5.35-29.25-5.35s-14.31-1.24-29.25,5.35c-14.94,6.6-13.68,24.8-13.98,37.06-.32,12.25,6.03,21.58,9.84,26.71,4.46,5.98,9.86,10.05,9.86,10.05.06.19.11.4.19.57.06-.11.11-.23.15-.34.27-.58.36-1.21.61-1.79.19-.47.17-1,.53-1.45.29-.36.53-.72.95-.94.57-.3,1.07-.66,1.6-1.04.5-.34.74-.53,1.37-.57.78-.04,1.51-.36,2.27-.47.21-.04.38.02.59-.04.11-.02.19-.11.32-.13.23-.04.53.02.78.02h1.76c.31-.02.36.09.63.15.21.06.5,0,.73,0,.25,0,.63-.08.88,0,.25.06.32.17.63.15.46,0,.92-.04,1.32.13.53.23.72.66,1.14,1.04.34.32.67.6.99.92.36.34.53.81.99,1.02.27.11.29.15.52.32.11.08.48.23.61.19.34.94.52.55.8.21.29-.02.57-.04.86-.09.25-.04.5-.13.73-.13.32.02.63.15.95.17.21.02.42.04.61.08.19-.04.4-.06.61-.08.32-.02.63-.15.95-.17.23,0,.48.09.72.13.29.06.57.08.86.09.29.34.46.74.8-.21.13.04.5-.11.61-.19.23-.17.25-.21.52-.32.46-.21.63-.68.99-1.02.32-.32.65-.6.99-.92.42-.38.61-.81,1.14-1.04.4-.17.86-.13,1.32-.13.31.02.38-.09.63-.15.25-.08.63,0,.88,0,.23,0,.52.06.72,0,.27-.06.32-.17.63-.15h1.76c.25,0,.55-.06.78-.02.13.02.21.11.32.13.21.06.38,0,.59.04.76.11,1.49.43,2.27.47.63.04.88.23,1.37.57.53.38,1.03.73,1.6,1.04.42.23.67.58.95.94.36.45.34.98.53,1.45.25.58.34,1.21.61,1.79.04.11.1.23.15.34.08-.17.13-.38.19-.57,0,0,5.4-4.07,9.86-10.05,3.82-5.13,10.17-14.46,9.84-26.71-.31-12.25.95-30.46-13.98-37.06Zm-27.68,4.62c.02,1.26,0,2.54,0,3.81.02.53-.06.96-.15,1.49-.19.98-.19,2-.32,3-.17,1.49-.46,3.03-.48,4.54,0,.49-.04.85-.13,1.32-.06.28.02.6-.02.89-.08.51-.27,1-.46,1.49-.19-.49-.38-.98-.46-1.49-.04-.28.04-.6-.02-.89-.1-.47-.13-.83-.13-1.32-.02-1.51-.31-3.05-.48-4.54-.13-1-.13-2.02-.32-3-.1-.53-.17-.96-.15-1.49,0-1.26-.02-2.54,0-3.81,0-.92-.19-1.79-.17-2.71,0-.96.21-1.96.48-2.88.08-.28.21-.45.34-.7.06-.11.13-.13.13-.28.38-.06.63-.09.78-.13.15.04.4.08.78.13,0,.15.08.17.13.28.13.25.27.41.34.7.27.92.48,1.92.48,2.88.02.92-.17,1.79-.17,2.71Z"/>
      <path class="cls-5" d="m50.56,71.38c.48,0,1.03.07,1.51,0,.42-.06.91-.47,1.12-.81.21-.34.27-.75.39-1.12.04-.14.14-.26.2-.4.1-.21.09-.39.16-.63.13-.48.15-.99.25-1.48.05-.22.04-.44.03-.67,0-.34.12-.55.17-.87.09-.59-.15-1.13-.16-1.7-.01-.47-.13-.87-.16-1.33-.02-.39-.23-.8-.36-1.18-.15-.44-.33-.93-.55-1.33-.03-.05-.15-.12-.17-.17-.05-.12,0-.22-.04-.33-.09-.24-.36-.41-.55-.59-.37-.35-.85-.49-1.2-.86-.33-.35-.61-.59-1.07-.8-.64-.28-1.24-.63-1.91-.88-.81-.31-1.65-.59-2.52-.74-.26-.05-.5-.01-.77-.02-.36-.01-.67-.14-1.03-.16-.54-.02-1.08.15-1.59.27-.22.05-.43-.02-.64.03-.19.04-.39.13-.59.19-.28.08-.58.3-.87.38-.19.05-.37.02-.56.07-.16.04-.39.19-.55.23-.35.1-.64.2-.98.35-.14.06-.31.2-.45.24-.26.08-.5.07-.76.17-.66.26-1.19.73-1.79,1.08-.65.37-1.41.55-2.03.95-.46.3-.98.71-1.4,1.07-.3.26-.74.73-.83,1.09-.06.22,0,.55.08.75.1.25.48.43.54.66.1.33-.45.66-.62.91-.24.36-.49.88-.6,1.3-.03.13-.15.38-.16.48-.04.24.19.46.33.7.57.98.29,2.04.65,3.08.28.82.7,1.68,1.14,2.45.43.76,1.14,1.37,1.63,2.1.48.71,1.2.94,1.95,1.37.66.38,1.25.58,2.03.59,1.5,0,3.01.25,4.5.15.4-.02.87-.09,1.26-.15.27-.04.46-.24.72-.29,1.02-.22,2.28.07,3.23.4.39.14.9.37,1.13-.1.2-.41.15-.86.16-1.29.01-.29.07-.57-.01-.87-.24-.83-1.38-1.48-1.85-2.18-.13-.19-.35-.48-.25-.71.19-.44.96-.42,1.36-.41.42,0,.85.01,1.18.29.13.11.11.25.33.28.06.3.07.59.98.45Z"/>
      <path class="cls-8" d="m85.81,98.77l-1.58.58c.06.44-.31,1.08-.5,1.48-.29.62-.32,1.24-.71,1.84-.71,1.1-1.53,2.12-2.46,3.04-.53.55-.99,1.11-1.68,1.52-.44.27-.78.58-1.26.81-.61.28-1.18.42-1.85.58-.36.09-.74.18-.93.44-.17.23-.23.55-.34.81-.25.62-.53,1.1-.99,1.54-6.6-2.31-12-3.45-12-3.45,0,0-5.4,1.13-12,3.45-.46-.44-.74-.92-.99-1.54-.11-.26-.17-.58-.34-.81-.19-.27-.57-.35-.93-.44-.67-.16-1.24-.3-1.85-.58-.48-.23-.82-.55-1.26-.81-.69-.41-1.14-.97-1.68-1.52-.93-.92-1.76-1.94-2.46-3.04-.38-.6-.42-1.22-.71-1.84-.19-.41-.55-1.04-.5-1.48l-1.58-.58c.78.04,1.58.04,2.37-.04.15-.42.84-.53,1.22-.74,1.13-.67,1.77-1.82,3.05-2.32.36-.14.74-.28,1.11-.41.1.02.19.07.25.09.44.09.99.02,1.45.04.84.05,1.85.32,2.71.25.72-.07,1.41.05,2.12.16,2.84.35,6.03.02,8.7,1.08.48.18.92.41,1.34.65.42-.25.86-.48,1.34-.65,2.67-1.06,5.86-.72,8.7-1.08.71-.11,1.39-.23,2.12-.16.86.07,1.87-.19,2.71-.25.46-.02,1.01.05,1.45-.04.06-.02.15-.07.25-.09.36.12.74.27,1.11.41,1.28.49,1.93,1.64,3.05,2.32.38.21,1.07.32,1.22.74.78.07,1.58.07,2.37.04Z"/>
      <path class="cls-8" d="m70.72,106.5c-1.91,4.42-9.21,4.42-9.21,4.42,0,0-7.31,0-9.21-4.42,0,0,8.91-1.48,8.91-9.72,0-.34.11-.62.31-.85.19.23.31.51.31.85,0,8.23,8.91,9.72,8.91,9.72Z"/>
      <path class="cls-5" d="m61.51,93.02v.83c-.19.24-.31.55-.31.9,0,8.78-8.91,10.37-8.91,10.37,0,0-10.45,1.51-14.12-9.5.06-.11.11-.23.15-.34.27-.58.36-1.21.61-1.79.19-.47.17-1,.53-1.45.29-.36.53-.72.95-.94.57-.3,1.07-.66,1.6-1.04.5-.34.74-.53,1.37-.57.78-.04,1.51-.36,2.27-.47.21-.04.38.02.59-.04.11-.02.19-.11.32-.13.23-.04.53.02.78.02h1.76c.31-.02.36.09.63.15.21.06.5,0,.73,0,.25,0,.63-.08.88,0,.25.06.32.17.63.15.46,0,.92-.04,1.32.13.53.23.72.66,1.14,1.04.34.32.67.6.99.92.36.34.53.81.99,1.02.27.11.29.15.52.32.11.08.48.23.61.19.34.94.52.55.8.21.29-.02.57-.04.86-.09.25-.04.5-.13.73-.13.32.02.63.15.95.17.21.02.42.04.61.08Z"/>
      <path class="cls-10" d="m40.22,75.65c-.31.1-.57.38-.87.5-.35.15-.79.08-1.19.08-.69,0-1.31-.19-1.99-.31-.39-.07-.79-.22-1.16-.36-.43-.16-.9-.28-1.32-.46-.34-.15-.7-.25-1.02-.44-.3-.18-.57-.4-.87-.57-.5-.28-.91-.63-1.37-.94-.23-.15-.52-.24-.74-.42-.25-.2-.42-.36-.71-.52-.9-.5-1.89-1.08-2.89-1.4-.81-.26-1.65-.69-2.43-.89-.62-.15-1.46-.03-2.11-.03-.75,0-1.3.1-1.99.37-.57.23-1.04.88-1.43,1.32-.14.16-.25.35-.35.54-.18.33-.42.58-.63.88-.3.44-.67.95-.82,1.45-.27.91-.69,1.93-.76,2.87-.08,1.07-.04,2.16-.27,3.21-.13.59-.04,1.26-.04,1.86v3.77c0,.97.15,1.86.3,2.81.06.35-.01.7.05,1.05.07.37.11.69.12,1.07,0,.63.25,1.37.4,1.98.23.92.49,1.93.55,2.87.03.49.22,1.08.34,1.56.18.65.33,1.34.51,2.01.08.31.1.56.13.88.03.34.19.69.11,1.01-.09.37-.19,1.28-.59,1.48-.43-.45-.79-1.16-1.01-1.72-.41-1.06-.44-2.27-.81-3.37-.38-1.12-.67-2.22-.94-3.36-.17-.71-.33-1.45-.59-2.13-.3-.77-.53-1.52-.7-2.33-.11-.52-.08-1.01-.09-1.54,0-.48-.11-.93-.15-1.41-.17-1.89-.18-3.81-.17-5.71,0-2.13-.07-4.3.37-6.4.19-.9.39-1.75.87-2.54.49-.81.89-1.7,1.41-2.49.23-.35.67-.62.97-.92.27-.27.52-.56.8-.82.15-.14.24-.34.38-.48.17-.16.35-.25.52-.43,1-1.1,2.13-2.22,3.4-3.05,1.08-.71,2.12-1.44,3.35-1.9,1.08-.41,2.2-.32,3.35-.35,1.33-.04,2.64-.29,3.99-.12.58.07,1.15.09,1.73.13.44.03,1.05.02,1.46.13.23.06.27.15.56.16.33,0,.6-.03.92.09.38.14.69.33.73.71.04.41,0,.61.29.96-.42.05-1.1-.3-1.44-.4-.57-.16-1.14-.3-1.72-.39-1.21-.21-2.49-.28-3.71-.35-.72-.04-1.45.11-2.17.12-.72,0-1.4.17-2.1.3-.59.11-1.07.28-1.56.63-.73.51-1.53.86-2.19,1.46-.7.64-1.21,1.43-1.9,2.07-.18.17-.74.59-.67.83.22.1.24-.07.4-.12.29-.09.74-.01,1.04-.01.83,0,1.56.05,2.37.18,1.1.18,2.08.59,3.14.86.84.21,1.56.57,2.25,1.06.84.59,1.72,1.1,2.64,1.56.86.44,1.78.96,2.54,1.53.53.4.9.87,1.52,1.15.52.24,1.03.53,1.62.58.5.04,1.04-.01,2.33.58Z"/>
      <path class="cls-10" d="m44.04,77.42c-.3.05-.46.42-.67.59-.38.33-.79.41-1.26.59-.79.3-1.67.47-2.53.66-1.05.24-2.06.36-3.17.37-.45,0-.82-.12-1.25-.16-.26-.02-.54.05-.8.02-.45-.06-.92-.28-1.4-.13.09.44.86.63,1.22.82.44.24,1.03.34,1.57.33.48,0,.96.03,1.44,0,.46-.03.88-.16,1.34-.16.58,0,1.09,0,1.64-.11.49-.1.98-.08,1.47-.21.46-.12.91-.46,1.31-.67.34-.19.74-.3,1-.62.21-.26.39-.59.08-1.33Z"/>
      <path class="cls-10" d="m44.83,81.83c-.23.29-.41.67-.73.88-.35.24-.86.46-1.26.61-.94.34-1.82.76-2.79,1.05-.24.07-.41.06-.64.1-.26.05-.37.16-.69.16-.53-.01-.98.15-1.52.15-.35,0-.69,0-1.04,0-.39,0-.4-.04-.7-.19-.27-.13-.88-.2-.95-.52.52-.17,1.25,0,1.81-.1.54-.09,1.07-.16,1.61-.22.23-.02.33-.12.55-.16.16-.03.28.01.44-.03.29-.07.6-.32.91-.4.78-.2,1.56-.34,2.31-.64.56-.23,1.31-.51,1.88-.57,0-.04.02-.08.82-.12Z"/>
      <path class="cls-10" d="m25.6,75.65c-.27.07-.64-.23-.88-.3-.49-.14-.91-.14-1.42-.14-.85,0-1.74-.1-2.55.17-.61.21-1.07.92-1.44,1.37-.45.55-.6,1.22-.93,1.84-.19.36-.23.75-.26,1.14-.03.38-.15.73-.16,1.11-.03.75-.09,1.58.02,2.33.04.32.2.59.31.89.14.4.2.81.35,1.21.12.3.26.58.44.85.14.22.34.41.32.69-.03-.84,0-1.68,0-2.52,0-.62,0-1.18.12-1.79.08-.4-.02-.78.18-1.17.34-.66.8-1.27,1.2-1.91.36-.57.94-.92,1.51-1.28.51-.32.99-.66,1.56-.89.46-.19,1.23-.17,1.74-.11.59.06,1.26.34,1.8.56.21.09.41.24.63.3.19.05.37.02.55.08-.52-.32-.92-.77-1.43-1.09-.32-.2-.66-.33-1.66-1.32Z"/>
      <path class="cls-10" d="m42.29,86.1c-.08.47-.56.71-.99.85-.95.29-1.84.49-2.85.48-.98,0-1.96,0-2.94,0-.24,0-.53.04-.76-.01-.22-.05-.26-.23-.55-.11.07.61.83.95,1.33,1.25.48.29.75.35,1.32.35,1.52-.01,3,.12,4.45-.33.68-.21,1.29-.54,1.67-1.11.37-.55.44-1-.68-1.36Z"/>
      <path class="cls-4" d="m42.93,47.67c-.08,0-.13-.04-.17-.09.03.43.34.79.58,1.13.25.35.4.77.67,1.11.51.64,1.01,1.28,1.54,1.9.7.81,1.44,1.67,2.29,2.34.25.2.48.35.78.5.54.27.99.84,1.64.92.04-.35-.6-.77-.79-1.04-.16-.24-.29-.53-.4-.79-.1-.22-.13-.44-.24-.66-.24-.5-.53-.88-.62-1.44-.04-.22-.01-.39-.02-.61-.01-.29-.15-.49-.17-.78-.03-.4.05-.8-.03-1.2-.09-.52-.13-.98-.12-1.51,0-1.18.01-2.36,0-3.54-.02-1.09.53-1.74.89-2.72.24-.65.49-1.25.82-1.87.19-.35.56-.83.66-1.18-.51-.21-1.2.33-1.6.56-.39.22-.85.22-1.22.43-.26.15-.41.4-.66.56-.33.22-.75.58-.92.95-.11.24-.12.76-.15.98-.12.84-.16,1.69-.21,2.54-.82-.24-1.1-1.65-1.43-2.28-.43.09-.58,1.07-.74,1.42-.07.04-.13.09-.17.16-.02.13-.04.26-.05.4-.05.35-.14.69-.14,1.04,0,.38.06.79,0,1.17-.02.14-.09.21-.13.32-.07.23-.03.47.12,1.29Z"/>
      <path class="cls-4" d="m37.72,46.35c.05.21-.1.38-.15.58-.08.31-.04.62-.04.93,0,.48,0,.96,0,1.44,0,.57.04,1.04.39,1.54.32.44.73.91,1.12,1.34.29.32.66.6.97.92.26.26.33.48.55.74.19.23.49.4.73.59.19.15.3.33.46.48.17.16.44.31.65.44-1.11-.05-2.23,0-3.34,0-.84,0-1.68,0-2.51,0-.37,0-.74,0-1.12,0-.51,0-.7.09-1.14.27-.37.15-.67.31-1.06.47-.4.16-.8.3-1.21.45-.15.05-.44.11-.56.17-.1.07-.17.15-.23.24-.09.02-.19.04-.29.06-.15.08-.32.19-.46.29-.36.25-.73.46-1.1.7-.34.22-.58.52-.92.73-.52-1.04-.59-2.27.08-3.28.62-.93,1.17-2.01,2.56-2.31-.22-.38-.91-.76-.82-1.23.09-.45.57-.45,1.08-.5.52-.05,1.25-.02,1.73-.2.4-.15.66-.69.79-1.01.13-.32.17-.68.46-.95.13-.08.25-.16.37-.25.24-.32.45-.65.62-1,.39-.58.9-1.07,1.49-1.52.19-.15.6-.34.69-.51-.06-.01-.11-.02.21.41Z"/>
      <path class="cls-4" d="m55.64,34.71c0,1.71-.42,3.36-.65,5.03-.05.38.06.79.12,1.16.19,1.32.49,2.63.7,3.95.18,1.17.1,2.6.79,3.62-.08-.92.14-1.88.16-2.8.03-1.73-.21-3.54.11-5.25.06-.34.2-.66.21-1,0-.23-.04-.38.06-.6.19-.44.48-.76.55-1.26.08-.59-.15-1.31-.29-1.88-.27-1.06-.34-2.18-.45-3.26-.04-.37.06-.85-.06-1.21-.65-.15-.77,2.18-.77,2.69,0-.07,0-.15-.48.81Z"/>
      <path class="cls-4" d="m63.24,24.3c.02,1.12-.17,2.18-.17,3.3.02,1.53,0,3.09,0,4.63.02.64-.06,1.17-.15,1.81-.19,1.19-.19,2.43-.32,3.64-.17,1.81-.46,3.69-.48,5.52,0,.6-.04,1.03-.13,1.6-.06.34.02.73-.02,1.08-.08.62-.27,1.21-.46,1.81-.19-.6-.38-1.19-.46-1.81-.04-.34.04-.73-.02-1.08-.1-.57-.13-1.01-.13-1.6-.02-1.83-.31-3.71-.48-5.52-.13-1.21-.13-2.45-.32-3.64-.1-.64-.17-1.17-.15-1.81,0-1.54-.02-3.09,0-4.63,0-1.12-.19-2.18-.17-3.3,0-1.17.21-2.38.48-3.51.08-.34.21-.55.34-.85.06-.14.13-.16.13-.34.38-.07.63-.11.78-.16.15.05.4.09.78.16,0,.18.08.21.13.34.13.3.27.5.34.85.27,1.12.48,2.34.48,3.51Z"/>
      <path class="cls-9" d="m41.7,21.5c-.74-.17-1.58-.19-2.31-.19h-1.41c-.13-.02-.29-.02-.42.02-1.56-4.18-4.75-11.14-9.83-14.93-7.55-5.65-9.5-2.53-9.48,4.39.02,6.92,2.1,10.69,1.3,15.87-.72,4.73-2.38,3.56-.23,9.09-.29.19-.69.36-.86.47-.17.09-.32.19-.5.28-.97-1.19-1.85-2.86-2.04-5.22-.31-4.15,1.3-2.34,2.02-5.3-.97-5.15-1.85-11.1-2-16.42-.36-12.74,5.95-11.01,13.26-4.92,6.18,5.13,11.1,14.16,12.5,16.85Z"/>
      <path class="cls-8" d="m37.56,21.33c-.08-.02-.13,0-.19.02-.15.11-.17.26-.17.43-.04.45.15.45-.48.49-.57,0-1.14-.02-1.72-.02-.32-.13-.59-.09-.82.09.1.25.31.57.34.85-.32.04-1.91-.19-2.02.06.13.15.27.3.42.43-.08.34-1.51.11-1.77.15.06.38.31.58-.08.77-.48.24-1.35-.25-1.79.23.06.19.25.64.17.85-.17.43-1.03.43-1.43.51-.02,0-1.35.08-1.49.3-.04.09.02.34,0,.45-.44.06-2.08-.34-2.23.04.11.25.42.45.44.72-.65.32-1.53-.23-2.23-.06-.11.34.25.72.38,1,.13.3.36.85.31,1.23-.15.81-1.22.49-1.74.87-.02.34.42.58.32.96-.06.28-.27.23-.48.32-.29.17-1.07.49-1.13.85-.08.47.65.58.65,1.04-.38.45-1.55.32-2.06.28.23.21,1.03.98.86,1.32-.04.08-.15.17-.31.25-2.16-5.52-.5-4.35.23-9.09.8-5.18-1.28-8.95-1.3-15.87-.02-6.92,1.93-10.05,9.48-4.39,5.07,3.79,8.26,10.74,9.83,14.93Z"/>
      <path class="cls-5" d="m65.3,106.57c-.72,1.82-3.79,1.41-3.79,1.41,0,0-3.07.41-3.79-1.41-.72-1.84,2.1-3.66,3.79-3.66s4.51,1.82,3.79,3.66Z"/>
      <path class="cls-10" d="m50.8,73.51s1.55-10.82-5.37-13.14c-6.92-2.32-13.59,2.43-13.59,2.43,0,0,1.52,2.1,1.48,4.2-.05,2.1,2.96,4.31,8.08,5.3,5.11.99,6.72-.99,7.41-.99.69,0,2,2.21,2,2.21Z"/>
      <path class="cls-3" d="m48.8,68.6s.29-6.29-4.99-7.47c-5.28-1.18-7.63,2.06-7.63,2.06,0,0-2.36,5.89,4.4,7.66,6.76,1.77,8.23-2.25,8.23-2.25Z"/>
      <path class="cls-6" d="m42.29,63.8s-1.99,2.5,0,5.37c0,0,2.62-2.68,0-5.37Z"/>
      <path class="cls-5" d="m73.51,110.38c5.55,2.09,11.96,5.11,16.73,9.07.31-.96.57-1.96.65-2.92.06-.66.06-1.36-.04-2.02-.02-.21-.06-.4-.1-.6,0-.21.08-.36.27-.45.31-.43.25-1.13.1-1.6-.13-.43-.44-.64-.67-1.02.21-.15.44-.06.5-.34.11-.45-.57-.7-.86-.75.19-.32.48-.57.88-.7.59-.26,1.01-.68,1.22-1.26-.38-.53-.95-1.26-1.72-1.13.21-.53.55-.98,1.05-1.36.78-.6,1.3-1.36,1.53-2.28-.31-.26-.55-.58-.71-.94.17-.24.31-.47.42-.72.17-.55.06-.68-.31-1.11.36-.75,1.11-1.17,1.62-1.79.23-.25.57-.47.74-.74.06-.15.1-.28.11-.45.21-.57.38-1.15.55-1.75.11-.45.21-.79.34-1.13-.46-.38-.86-.87-1.45-.98-.06-.45.71-.89.93-1.24-.9-.04-1.85-.08-2.75.11-.23.04-.74.13-1.11.3.13-.11.25-.24.31-.4-1.51-.13-3.09.09-4.62.15-.97.02-1.93.17-2.92.15-2.04,0-4.08.17-6.07.64-.04,0-.06.02-.1.04.36.13.74.28,1.11.43,1.28.53,1.93,1.75,3.05,2.47.38.23,1.07.34,1.22.79.78.08,1.58.08,2.37.04l-1.58.62c.06.47-.31,1.15-.5,1.58-.29.66-.32,1.32-.71,1.96-.71,1.17-1.53,2.26-2.46,3.24-.53.58-.99,1.19-1.68,1.62-.44.28-.78.62-1.26.87-.61.3-1.18.45-1.85.62-.36.09-.74.19-.93.47-.17.24-.23.58-.34.87-.25.66-.53,1.17-.99,1.64Zm17.57-17.49c.04-.13.17-.23.36-.3-.11.11-.25.21-.36.3Z"/>
      <path class="cls-9" d="m61.51,51.96v43.6c.42-.26.86-.51,1.34-.7,2.67-1.13,5.86-.77,8.7-1.15.71-.11,1.39-.25,2.12-.17.86.08,1.87-.21,2.71-.26.46-.02,1.01.06,1.45-.04.08-.02.23-.11.34-.13,1.98-.47,4.03-.64,6.07-.64.99.02,1.95-.13,2.92-.15,1.53-.06,3.11-.28,4.62-.15-.06.15-.17.28-.31.4.36-.17.88-.26,1.11-.3.9-.19,1.85-.15,2.75-.11-.23.36-.99.79-.93,1.24.59.11.99.6,1.45.98.11-.28.27-.55.48-.87.93-1.39,1.01-2.85,1.28-4.45.13-.89.15-1.72.15-2.62,0-.81.1-1.68-.02-2.49-.1-.64-.36-1.23-.61-1.81-.17-.38-.32-.87-.67-1.15-.52-.43-1.53-.62-2.19-.62-.48.02-1.77.26-2.04-.28-.1-.19-.08-.62,0-.81.1-.25.46-.3,1.24-.62.38.06.93-.21,1.28-.36.32-.15.82-.21,1.18-.26.93-.19,2.12-.28,2.96.34.9.7,1.09,1.92,1.34,2.96.29,1.11.25,2.26.25,3.41v1.3c0,.41-.06.64-.17,1.02-.1.3-.13.6-.15.94-.02.38-.17.62-.15,1.02,0,.4-.17.7-.17,1.09.02.45-.08.75-.15,1.19-.06.3-.17.57-.23.87-.1.34,0,.75-.08,1.09-.06.19-.15.26-.17.47-.02.09.04.23,0,.32-.02.08-.11.13-.11.19-.1.38-.04.83-.04,1.23v1.66c0,.68-.17,1.56.32,2.13-.13.32-.97.15-1.3.32.21.34.5.66.71,1,.93.55,1.95,1.02,3.01,1.32.25.09.84.13.93.47.04.21-.1.3.06.49.13.17.44.11.63.19.15.04.36.17.52.23.32.13,1.43.32,1.55.6.06.17-.19.36-.06.51.1.11.34,0,.46.02.17.04.31.15.48.17.15.04.32,0,.5.02.4.09.78.28,1.18.38.29.06.59.13.88.23.59.21,1.22.41,1.74.81.46.34.9.79,1.3,1.19.25.25.44.49.57.81-.32.09-.67-.02-.99.04-.23.04-.48.11-.71.17-.06.23.55.77.67.96.1.13.53.64.46.89-.1.3-.65.19-.92.15.65.68,1.09,1.58,1.77,2.22.25.25.27.23.46.53.23.38.44.49.73.79.17.17.4.47.55.75v-.32c-.02-.64-.06-1.28-.1-1.92-.15-.26-.13-.47.04-.6.9.68,1.89,1.56,2.96,1.87.08-.75-.15-1.49-.1-2.26,0-.26-.04-.6.25-.7.23-.08.97.13,1.26.13.32.02.67.04.99,0,.15-.36-.36-1.3-.48-1.66-.31-1-.69-2.15-.78-3.2.32-.17.92.21,1.3.17.06-.68-.38-1.56-.57-2.21-.1-.26-.76-2.28-.59-2.43.38-.36,1.14.04,1.62-.11-.04-.3-.5-.62-.65-.9-.38-.75-.4-1.83-.29-2.68.36-.19,1.22.25,1.56.41.06-.25-.11-.72-.17-.96-.06-.28-.1-.55-.15-.83-.11-.81-.19-1.66-.38-2.47-.29-1.32-.51-2.71-1.22-3.9-.36-.6-.74-1.07-1.28-1.53-.04-.02-.08-.08-.1-.11,1.2-1.19,2.48-2.51,3.28-3.51l-2.92-1.92,2.92-2.17-2.04-1.77,4.14-2.94-3.93-2.56,1.83-2.94h-2.04l4.14-3.75-3.53-2.94h3.53l-2.1-3.75,2.1-1.77-3.28-3.36,3.28-2.15h-3.93l1.34-3.49h-3.64v-3.62h-2.08l-1.56-4.71s-5.34-13.72-16.2-17.93c-10.86-4.22-35.43,28.95-35.43,28.95Z"/>
      <path class="cls-5" d="m91.82,120.82c.67.66,1.32,1.34,1.89,2.04l.1-.73c.17.15.34.28.5.45.69.72,1.01,1.81,1.83,2.41.34-.62.61-1.26.86-1.9.13.17.38.23.59.32.69.3,1.37.58,2.04.92.44.23.88.43,1.3.7.52.34.9.7,1.34,1.17.23.26.44.6.78.75.36-.4.63-.85.9-1.34.19-.38.31-.87.63-1.19.32.57.55,1.17.78,1.77.1.28.17.87.46,1.02.63-1.41,1.05-2.9,1.68-4.34.08.09.15.17.23.24.11-.49-.02-.98.04-1.47.59.23.76,1.45,1.39,1.49.38-1.39.48-2.73.53-4.17.23.02.4.6.48.77.15.36.31.75.61,1.04.29-.21.48-.47.57-.83.38-.6.67-1.24.9-1.92.27-.55.42-1.13.44-1.75-.08-.26-.08-.49.04-.72.31.34.55.72.72,1.13.04.41.21.68.57.77.46-.96.53-1.92.5-2.96-.15-.28-.38-.58-.55-.75-.29-.3-.5-.41-.73-.79-.19-.3-.21-.28-.46-.53-.69-.64-1.13-1.55-1.77-2.22.27.04.82.15.92-.15.08-.24-.36-.75-.46-.89-.11-.19-.72-.73-.67-.96.23-.06.48-.13.71-.17.32-.06.67.06.99-.04-.13-.32-.32-.57-.57-.81-.4-.4-.84-.85-1.3-1.19-.52-.4-1.14-.6-1.74-.81-.29-.09-.59-.17-.88-.23-.4-.09-.78-.28-1.18-.38-.17-.02-.34.02-.5-.02-.17-.02-.31-.13-.48-.17-.11-.02-.36.09-.46-.02-.13-.15.11-.34.06-.51-.11-.28-1.22-.47-1.55-.6-.15-.06-.36-.19-.52-.23-.19-.08-.5-.02-.63-.19-.15-.19-.02-.28-.06-.49-.1-.34-.69-.38-.93-.47-1.07-.3-2.08-.77-3.01-1.32.13.19.25.38.32.57-.31.28-.78.08-1.09.25-.11-.02-.19.02-.25.11,0,.34.06.68.17.98.13.51.29,1,.46,1.49.13.26.19.53.15.81-.1.11-.34.17-.48.23-.27.13-.13-.02-.31.19-.06.06-.15.23-.17.32-.17.81.93,1.51.67,2.36-.4.08-.9-.08-1.28-.17.06.47.25.9.61,1.28.31.43.52.9.61,1.39.15.7.21,1.43.31,2.13-.42.28-1.34-.26-1.79-.36-.21.17,0,.7-.11.94-.21.57-.55.41-.97.6-.55.25-.32,1.81-.44,2.3-.08.3-.21.55-.31.83-.21.66-.63.77-1.09,1.24-.71.72-1.05,1.75-1.72,2.51-.08.08-.15.15-.23.25Z"/>
      <path class="cls-5" d="m72.46,71.38c-.48,0-1.03.07-1.51,0-.42-.06-.91-.47-1.12-.81-.21-.34-.27-.75-.39-1.12-.04-.14-.14-.26-.2-.4-.1-.21-.09-.39-.16-.63-.13-.48-.15-.99-.25-1.48-.05-.22-.04-.44-.03-.67,0-.34-.12-.55-.17-.87-.09-.59.15-1.13.16-1.7.01-.47.13-.87.16-1.33.02-.39.23-.8.36-1.18.15-.44.33-.93.55-1.33.03-.05.15-.12.17-.17.05-.12,0-.22.04-.33.09-.24.36-.41.55-.59.37-.35.85-.49,1.2-.86.33-.35.61-.59,1.07-.8.64-.28,1.24-.63,1.91-.88.81-.31,1.65-.59,2.52-.74.26-.05.5-.01.77-.02.36-.01.67-.14,1.03-.16.54-.02,1.08.15,1.59.27.22.05.43-.02.64.03.19.04.39.13.59.19.28.08.58.3.87.38.19.05.37.02.56.07.16.04.39.19.55.23.35.1.64.2.98.35.14.06.31.2.45.24.26.08.5.07.76.17.65.26,1.19.73,1.79,1.08.65.37,1.41.55,2.03.95.46.3.98.71,1.4,1.07.3.26.74.73.83,1.09.06.22,0,.55-.08.75-.1.25-.48.43-.54.66-.1.33.45.66.62.91.24.36.49.88.6,1.3.03.13.15.38.16.48.04.24-.19.46-.33.7-.57.98-.29,2.04-.65,3.08-.28.82-.7,1.68-1.14,2.45-.43.76-1.14,1.37-1.63,2.1-.48.71-1.2.94-1.95,1.37-.66.38-1.25.58-2.03.59-1.5,0-3.01.25-4.5.15-.4-.02-.87-.09-1.26-.15-.27-.04-.46-.24-.72-.29-1.02-.22-2.28.07-3.23.4-.39.14-.9.37-1.13-.1-.2-.41-.15-.86-.16-1.29-.01-.29-.07-.57.01-.87.24-.83,1.38-1.48,1.85-2.18.13-.19.35-.48.25-.71-.19-.44-.96-.42-1.36-.41-.42,0-.85.01-1.18.29-.13.11-.11.25-.33.28-.06.3-.07.59-.98.45Z"/>
      <path class="cls-5" d="m61.51,93.02v.83c.19.24.31.55.31.9,0,8.78,8.91,10.37,8.91,10.37,0,0,10.45,1.51,14.12-9.5-.06-.11-.11-.23-.15-.34-.27-.58-.36-1.21-.61-1.79-.19-.47-.17-1-.53-1.45-.29-.36-.53-.72-.95-.94-.57-.3-1.07-.66-1.6-1.04-.5-.34-.74-.53-1.37-.57-.78-.04-1.51-.36-2.27-.47-.21-.04-.38.02-.59-.04-.11-.02-.19-.11-.32-.13-.23-.04-.53.02-.78.02h-1.76c-.31-.02-.36.09-.63.15-.21.06-.5,0-.72,0-.25,0-.63-.08-.88,0-.25.06-.32.17-.63.15-.46,0-.92-.04-1.32.13-.53.23-.73.66-1.14,1.04-.34.32-.67.6-.99.92-.36.34-.53.81-.99,1.02-.27.11-.29.15-.52.32-.11.08-.48.23-.61.19-.34.94-.52.55-.8.21-.29-.02-.57-.04-.86-.09-.25-.04-.5-.13-.72-.13-.32.02-.63.15-.95.17-.21.02-.42.04-.61.08Z"/>
      <path class="cls-10" d="m82.79,75.65c.31.1.57.38.87.5.35.15.79.08,1.19.08.69,0,1.31-.19,1.99-.31.39-.07.79-.22,1.16-.36.43-.16.9-.28,1.32-.46.34-.15.7-.25,1.02-.44.3-.18.57-.4.87-.57.5-.28.91-.63,1.37-.94.23-.15.52-.24.74-.42.25-.2.42-.36.71-.52.9-.5,1.89-1.08,2.89-1.4.81-.26,1.65-.69,2.43-.89.62-.15,1.46-.03,2.11-.03.75,0,1.3.1,1.99.37.57.23,1.04.88,1.43,1.32.14.16.25.35.35.54.18.33.42.58.63.88.3.44.67.95.82,1.45.27.91.69,1.93.76,2.87.08,1.07.04,2.16.27,3.21.13.59.04,1.26.04,1.86v3.77c0,.97-.15,1.86-.3,2.81-.06.35.01.7-.05,1.05-.07.37-.11.69-.12,1.07,0,.63-.25,1.37-.4,1.98-.23.92-.49,1.93-.55,2.87-.03.49-.22,1.08-.34,1.56-.18.65-.33,1.34-.51,2.01-.08.31-.1.56-.13.88-.03.34-.19.69-.11,1.01.09.37.19,1.28.59,1.48.43-.45.79-1.16,1.01-1.72.41-1.06.44-2.27.81-3.37.38-1.12.67-2.22.94-3.36.17-.71.33-1.45.59-2.13.3-.77.53-1.52.7-2.33.11-.52.08-1.01.09-1.54,0-.48.11-.93.15-1.41.17-1.89.18-3.81.17-5.71,0-2.13.07-4.3-.37-6.4-.19-.9-.39-1.75-.87-2.54-.49-.81-.89-1.7-1.41-2.49-.23-.35-.67-.62-.97-.92-.27-.27-.52-.56-.8-.82-.15-.14-.24-.34-.38-.48-.17-.16-.35-.25-.52-.43-1-1.1-2.13-2.22-3.4-3.05-1.08-.71-2.12-1.44-3.35-1.9-1.08-.41-2.2-.32-3.35-.35-1.33-.04-2.64-.29-3.99-.12-.58.07-1.15.09-1.73.13-.44.03-1.05.02-1.46.13-.23.06-.27.15-.56.16-.33,0-.6-.03-.92.09-.38.14-.69.33-.73.71-.04.41,0,.61-.29.96.42.05,1.1-.3,1.44-.4.57-.16,1.14-.3,1.72-.39,1.21-.21,2.49-.28,3.71-.35.72-.04,1.45.11,2.17.12.72,0,1.4.17,2.1.3.59.11,1.07.28,1.56.63.73.51,1.53.86,2.19,1.46.7.64,1.21,1.43,1.9,2.07.18.17.74.59.67.83-.22.1-.24-.07-.4-.12-.29-.09-.74-.01-1.04-.01-.83,0-1.56.05-2.37.18-1.1.18-2.08.59-3.14.86-.84.21-1.56.57-2.25,1.06-.84.59-1.72,1.1-2.64,1.56-.86.44-1.78.96-2.54,1.53-.53.4-.9.87-1.52,1.15-.52.24-1.02.53-1.62.58-.5.04-1.04-.01-2.33.58Z"/>
      <path class="cls-10" d="m78.98,77.42c.3.05.46.42.67.59.38.33.79.41,1.26.59.79.3,1.67.47,2.53.66,1.05.24,2.06.36,3.17.37.45,0,.82-.12,1.25-.16.26-.02.54.05.8.02.45-.06.92-.28,1.4-.13-.09.44-.86.63-1.22.82-.44.24-1.03.34-1.57.33-.48,0-.96.03-1.44,0-.46-.03-.88-.16-1.34-.16-.58,0-1.09,0-1.64-.11-.49-.1-.98-.08-1.47-.21-.46-.12-.91-.46-1.31-.67-.34-.19-.74-.3-1-.62-.21-.26-.39-.59-.08-1.33Z"/>
      <path class="cls-10" d="m78.18,81.83c.23.29.41.67.73.88.35.24.86.46,1.26.61.94.34,1.82.76,2.79,1.05.24.07.41.06.64.1.26.05.37.16.69.16.53-.01.98.15,1.52.15.35,0,.69,0,1.04,0,.39,0,.4-.04.7-.19.27-.13.88-.2.95-.52-.52-.17-1.25,0-1.81-.1-.54-.09-1.07-.16-1.61-.22-.23-.02-.33-.12-.55-.16-.16-.03-.28.01-.44-.03-.29-.07-.6-.32-.91-.4-.78-.2-1.56-.34-2.31-.64-.56-.23-1.31-.51-1.88-.57,0-.04-.02-.08-.82-.12Z"/>
      <path class="cls-10" d="m97.42,75.65c.27.07.64-.23.88-.3.49-.14.91-.14,1.42-.14.85,0,1.74-.1,2.55.17.61.21,1.07.92,1.44,1.37.45.55.6,1.22.93,1.84.19.36.23.75.26,1.14.03.38.15.73.16,1.11.03.75.09,1.58-.02,2.33-.04.32-.2.59-.31.89-.14.4-.2.81-.35,1.21-.12.3-.26.58-.44.85-.14.22-.34.41-.32.69.03-.84,0-1.68,0-2.52,0-.62,0-1.18-.12-1.79-.08-.4.02-.78-.18-1.17-.34-.66-.8-1.27-1.2-1.91-.36-.57-.94-.92-1.51-1.28-.51-.32-.99-.66-1.56-.89-.46-.19-1.23-.17-1.74-.11-.59.06-1.26.34-1.8.56-.21.09-.41.24-.63.3-.19.05-.37.02-.55.08.52-.32.92-.77,1.43-1.09.32-.2.66-.33,1.66-1.32Z"/>
      <path class="cls-10" d="m90.89,116.52c-.08.96-.34,1.96-.65,2.92.55.43,1.09.9,1.58,1.38.08-.09.15-.17.23-.25.67-.75,1.01-1.79,1.72-2.51.46-.47.88-.58,1.09-1.24.1-.28.23-.53.31-.83.11-.49-.11-2.05.44-2.3.42-.19.76-.04.97-.6.11-.25-.1-.77.11-.94.46.09,1.37.64,1.79.36-.1-.7-.15-1.43-.31-2.13-.1-.49-.31-.96-.61-1.39-.36-.38-.55-.81-.61-1.28.38.09.88.25,1.28.17.27-.85-.84-1.55-.67-2.36.02-.09.11-.26.17-.32.17-.21.04-.06.31-.19.13-.06.38-.11.48-.23.04-.28-.02-.55-.15-.81-.17-.49-.32-.98-.46-1.49-.11-.3-.17-.64-.17-.98.06-.09.13-.13.25-.11.31-.17.78.04,1.09-.25-.21-.57-.71-1.04-1.03-1.56.32-.17,1.16,0,1.3-.32-.5-.57-.32-1.45-.32-2.13v-1.66c0-.4-.06-.85.04-1.23,0-.06.1-.11.11-.19.04-.09-.02-.23,0-.32.02-.21.11-.28.17-.47.08-.34-.02-.75.08-1.09.06-.3.17-.57.23-.87.08-.43.17-.73.15-1.19,0-.4.17-.7.17-1.09-.02-.4.13-.64.15-1.02.02-.34.06-.64.15-.94.11-.38.17-.6.17-1.02v-1.3c0-1.15.04-2.3-.25-3.41-.25-1.04-.44-2.26-1.34-2.96-.84-.62-2.02-.53-2.96-.34-.36.06-.86.11-1.18.26-.34.15-.9.41-1.28.36-.78.32-1.14.38-1.24.62-.08.19-.1.62,0,.81.27.55,1.56.3,2.04.28.67,0,1.68.19,2.19.62.34.28.5.77.67,1.15.25.58.52,1.17.61,1.81.11.81.02,1.68.02,2.49,0,.9-.02,1.73-.15,2.62-.27,1.6-.34,3.05-1.28,4.45-.48.7-.61,1.19-.82,2-.17.6-.34,1.19-.55,1.75-.02.17-.06.3-.11.45-.17.26-.51.49-.74.74-.52.62-1.26,1.04-1.62,1.79.36.43.48.57.31,1.11-.11.24-.25.47-.42.72.15.36.4.68.71.94-.23.92-.74,1.68-1.53,2.28-.5.38-.84.83-1.05,1.36.76-.13,1.34.6,1.72,1.13-.21.58-.63,1-1.22,1.26-.4.13-.69.38-.88.7.29.06.97.3.86.75-.06.28-.29.19-.5.34.23.38.53.58.67,1.02.15.47.21,1.17-.1,1.6-.19.09-.27.25-.27.45.04.21.08.4.1.6.1.66.1,1.36.04,2.02Z"/>
      <path class="cls-10" d="m80.73,86.1c.08.47.56.71.99.85.95.29,1.84.49,2.85.48.98,0,1.96,0,2.94,0,.24,0,.53.04.76-.01.22-.05.26-.23.55-.11-.07.61-.83.95-1.33,1.25-.48.29-.75.35-1.32.35-1.52-.01-3,.12-4.45-.33-.68-.21-1.29-.54-1.67-1.11-.37-.55-.44-1,.68-1.36Z"/>
      <path class="cls-4" d="m80.09,47.67c.08,0,.13-.04.17-.09-.03.43-.34.79-.58,1.13-.25.35-.4.77-.67,1.11-.51.64-1.01,1.28-1.54,1.9-.7.81-1.44,1.67-2.29,2.34-.25.2-.48.35-.78.5-.54.27-.99.84-1.64.92-.04-.35.6-.77.79-1.04.16-.24.29-.53.4-.79.1-.22.13-.44.24-.66.24-.5.53-.88.62-1.44.04-.22.01-.39.02-.61.01-.29.15-.49.17-.78.03-.4-.05-.8.03-1.2.09-.52.13-.98.12-1.51,0-1.18-.01-2.36,0-3.54.02-1.09-.53-1.74-.89-2.72-.24-.65-.49-1.25-.82-1.87-.19-.35-.56-.83-.66-1.18.51-.21,1.2.33,1.6.56.39.22.85.22,1.22.43.26.15.41.4.66.56.33.22.75.58.92.95.11.24.12.76.15.98.12.84.16,1.69.21,2.54.82-.24,1.1-1.65,1.43-2.28.43.09.58,1.07.74,1.42.07.04.13.09.17.16.02.13.04.26.05.4.05.35.14.69.14,1.04,0,.38-.06.79,0,1.17.02.14.09.21.13.32.07.23.03.47-.12,1.29Z"/>
      <path class="cls-4" d="m85.3,46.35c-.05.21.1.38.15.58.08.31.04.62.04.93,0,.48,0,.96,0,1.44,0,.57-.04,1.04-.39,1.54-.32.44-.73.91-1.12,1.34-.29.32-.66.6-.97.92-.26.26-.33.48-.55.74-.19.23-.49.4-.73.59-.19.15-.3.33-.46.48-.17.16-.44.31-.65.44,1.11-.05,2.23,0,3.34,0,.84,0,1.68,0,2.51,0,.37,0,.74,0,1.12,0,.51,0,.7.09,1.14.27.37.15.67.31,1.06.47.4.16.8.3,1.21.45.15.05.44.11.57.17.1.07.17.15.23.24.09.02.19.04.29.06.15.08.32.19.46.29.36.25.73.46,1.1.7.34.22.58.52.92.73.52-1.04.59-2.27-.08-3.28-.62-.93-1.17-2.01-2.56-2.31.22-.38.91-.76.82-1.23-.09-.45-.57-.45-1.08-.5-.52-.05-1.25-.02-1.73-.2-.4-.15-.66-.69-.79-1.01-.13-.32-.17-.68-.46-.95-.13-.08-.25-.16-.37-.25-.24-.32-.45-.65-.62-1-.39-.58-.9-1.07-1.49-1.52-.19-.15-.6-.34-.69-.51.06-.01.11-.02-.21.41Z"/>
      <path class="cls-4" d="m67.37,34.71c0,1.71.42,3.36.65,5.03.05.38-.06.79-.12,1.16-.19,1.32-.49,2.63-.7,3.95-.18,1.17-.1,2.6-.79,3.62.08-.92-.14-1.88-.16-2.8-.03-1.73.21-3.54-.11-5.25-.06-.34-.2-.66-.21-1,0-.23.04-.38-.06-.6-.19-.44-.48-.76-.55-1.26-.08-.59.15-1.31.29-1.88.27-1.06.34-2.18.45-3.26.04-.37-.06-.85.06-1.21.65-.15.77,2.18.77,2.69,0-.07,0-.15.48.81Z"/>
      <path class="cls-9" d="m81.31,21.5c.74-.17,1.58-.19,2.31-.19h1.41c.13-.02.29-.02.42.02,1.56-4.18,4.75-11.14,9.83-14.93,7.55-5.65,9.5-2.53,9.48,4.39-.02,6.92-2.1,10.69-1.3,15.87.73,4.73,2.38,3.56.23,9.09.29.19.69.36.86.47.17.09.32.19.5.28.97-1.19,1.85-2.86,2.04-5.22.31-4.15-1.3-2.34-2.02-5.3.97-5.15,1.85-11.1,2-16.42.36-12.74-5.95-11.01-13.26-4.92-6.18,5.13-11.1,14.16-12.5,16.85Z"/>
      <path class="cls-8" d="m85.45,21.33c.08-.02.13,0,.19.02.15.11.17.26.17.43.04.45-.15.45.48.49.57,0,1.14-.02,1.72-.02.32-.13.59-.09.82.09-.1.25-.31.57-.34.85.32.04,1.91-.19,2.02.06-.13.15-.27.3-.42.43.08.34,1.51.11,1.77.15-.06.38-.31.58.08.77.48.24,1.35-.25,1.79.23-.06.19-.25.64-.17.85.17.43,1.03.43,1.43.51.02,0,1.35.08,1.49.3.04.09-.02.34,0,.45.44.06,2.08-.34,2.23.04-.11.25-.42.45-.44.72.65.32,1.53-.23,2.23-.06.11.34-.25.72-.38,1-.13.3-.36.85-.31,1.23.15.81,1.22.49,1.74.87.02.34-.42.58-.32.96.06.28.27.23.48.32.29.17,1.07.49,1.13.85.08.47-.65.58-.65,1.04.38.45,1.55.32,2.06.28-.23.21-1.03.98-.86,1.32.04.08.15.17.31.25,2.16-5.52.5-4.35-.23-9.09-.8-5.18,1.28-8.95,1.3-15.87.02-6.92-1.93-10.05-9.48-4.39-5.07,3.79-8.26,10.74-9.83,14.93Z"/>
      <path class="cls-10" d="m72.22,73.51s-1.55-10.82,5.37-13.14c6.92-2.32,13.59,2.43,13.59,2.43,0,0-1.52,2.1-1.48,4.2.05,2.1-2.96,4.31-8.08,5.3-5.11.99-6.72-.99-7.41-.99-.69,0-2,2.21-2,2.21Z"/>
      <path class="cls-3" d="m74.22,68.6s-.29-6.29,4.99-7.47c5.28-1.18,7.63,2.06,7.63,2.06,0,0,2.36,5.89-4.4,7.66-6.76,1.77-8.23-2.25-8.23-2.25Z"/>
      <path class="cls-6" d="m80.73,63.8s1.99,2.5,0,5.37c0,0-2.62-2.68,0-5.37Z"/>
      <path class="cls-1" d="m68.78,91.18c0,3.83-2.84,6.77-7.29,6.77s-7.29-2.93-7.29-6.77,6.68-3.27,7.27-3.23h.04c.57-.04,7.27-.44,7.27,3.23Z"/>
      <path class="cls-10" d="m40.58,92.54c-.42,0-.82-.4-1.18.01-.31.35-.16,1.05.11,1.37.21.26.37.22.64.21.45,0,.51-.15.85-.45.16-.14.26-.24.47-.2.24.04.35.28.59.34.1.03.41.02.52,0,.12-.03.24-.17.35-.18.14,0,.38.15.51.2.17.06.51.06.64.17.17.14.15.36.4.44.46.16.95-.2,1.32-.07.32.11.4.47.8.38.3-.06.51-.33.61-.62.24.11.33.44.54.62.19.16.42.2.66.21.71.02,1.33-.26,1.41-1.06.04-.36.06-.64-.23-.81-.55-.31-.46.19-.75.42-.26-.45-.5-.92-.99-.97-.32-.04-.68-.05-.92.2-.09.09-.12.37-.23.44-.22.12-.62-.15-.87-.16-.19,0-.54.15-.7.13-.24-.04-.42-.55-.57-.73-.41-.51-.93-.4-1.48-.11-.35.19-.43.5-.81.32-.34-.17-.47-.39-.87-.39-.42,0-.62.17-.81.32Z"/>
      <path class="cls-10" d="m73.27,95.09c-.48,0-.94.08-1.17-.56-.45-1.21,1.68-.28,1.99-.53.05-1.07,1.02-.51,1.53-.18.33.22.35.37.66.17.4-.25.66-.53,1.13-.15.13.15.26.3.4.45.1.02.19-.02.26-.12.35-.09.52.17.84.26.33.09.96.13,1.28.01.21-.08.19-.15.49-.15.23,0,.38.16.53.15.13-.09.26-.2.37-.31.18-.15.38-.2.61-.13.22.02.4.12.53.31,0,.1.05.16.14.17.26.04.43-.31.74-.16.21.1.34.38.41.61.19.64-.65.59-.97.33-.07.69-.73.78-1.25.8-.36.01-.65-.06-.96-.3-.08-.06-.25-.33-.33-.35-.15-.04-.31.27-.39.35-.15.15-.32.27-.51.34-.71.28-1.18-.36-1.83-.39-.65-.04-1.32.23-1.96.16-.12-.01-.04-.12-.22-.13-.22,0-.5.25-.73.29-.37.06-1.06.06-1.6-.95Z"/>
      <path class="cls-10" d="m50.84,97.79c-.13.04-.12.14-.24.22-.19.12-.43.18-.65.27-.35.14-.72.22-.89-.28.22.58-.63.9-1.03.93-.45.04-.48-.26-.83-.35-.33-.09-.8.2-1.17.16-.29-.02-.56-.13-.79-.31-.04-.04-.09-.09-.13-.13-.23,0-.27.2-.44.31-.35.23-.81.23-1.17.05-.29-.14-.46-.47-.73-.62-.25-.14-.4-.04-.67,0-.41.08-.57.09-.86-.24-.21-.24-.2-.3-.51-.32-.44-.03-.96-.22-.66-.8.35-.69,1.04-.15,1.51,0,.09-.58.91-.25,1.2-.09.21.11.63.66.86.67.14,0,.28-.17.4-.22.45-.15.84,0,1.24.13.1.03.1.14.22.14.15,0,.42-.34.6-.39.49-.15.61.4,1,.4.22,0,.45-.4.71-.46.1-.02.2,0,.29-.02.09-.03.08-.12.18-.14.36-.07.49.21.75.42.55-.5.94-.15,1.79.69Z"/>
      <path class="cls-10" d="m71.76,99.06c-.31.04-1.28-.22-1.25-.75.02-.45.78-.55,1.02-.56.62-.02.67.48,1.17.67.11-.25.34-.32.57-.33.41-.01.39.33.66.61.11-.28.37-.34.6-.44.54-.23.71-.21,1.05.29.12.17.16.4.41.34.2-.05.31-.45.59-.48.22-.02.31.11.51.03.08-.03.19-.25.32-.3.23-.09.84-.13,1.06,0,.19.11.24.38.4.44.02-.09.03-.19.04-.28.25-.12.51.06.75.14.26.09.28.02.47-.06.24-.1.44-.29.76-.28.26,0,.51.21.76.19.37-.03,1.05-.49,1.35.02.34.58-.66.64-.9.6.22.12.1.46-.02.61-.46.59-1.14.08-1.66.17-.24.04-.22.26-.43.35-.34.16-.64-.23-.92-.34-.23.56-.69.78-1.2.78-.34,0-.64-.17-.97-.13-.47.05-.71.47-1.16.16-.09-.06-.21-.28-.29-.31-.2-.07-.44.11-.64.14-.4.04-.56-.19-.91-.3-.27-.09-.58.05-.86,0-.41-.08-.71-.34-1.26-.96Z"/>
      <path class="cls-10" d="m45.71,102.56c-.35,0-.76.09-1.08-.08-.31-.17-.57-.65-.23-.94.38-.32.71.14,1.03.2.34.07.27-.13.28-.44.54-.23.94.42,1.33.39.22-.02.25-.15.55-.06.16.05.3.16.44.24.04-.89,1.09-.38,1.49-.15-.05-.45.26-.8.64-.9.48-.13.74.38,1.13.34.11-.01.2-.2.31-.25.19-.1.4-.13.61-.1.31.04.42.2.69.09.24-.11.35-.39.68-.38.11,0,.2.1.24.1.29.03.54-.12.83-.1.27.02.57.28.44.62-.11.27-.63.47-.87.6-.34.19-.64.42-1.03.49-.36.06-.58-.05-.83.22-.08.08-.11.22-.2.29-.23.2-.59.16-.86.16-.43,0-.86.02-1.28,0-.42-.02-.79-.16-1.21-.17-.34,0-.47.12-.81.23-.44.15-.81-.05-1.25-.08-.24-.01-.49,0-1.02-.31Z"/>
      <path class="cls-10" d="m69.43,101.29c-.2,0-.97.04-.85-.49.07-.3.44-.13.59-.08.28.11.56.2.84.28.05-.02.09-.05.11-.1.25-.03.46-.15.75-.06.26.08.32.31.51.46.4.33.92-.12,1.09.61.35-.03.72-.29,1.08-.3.49,0,.2.41.53.58.16.08.26-.06.41-.08.49-.09.57.44.96.47.17.01.32-.16.52-.15.2,0,.31.11.53.06.32-.08.64-.23.96-.33.16-.05.29-.1.47-.09.17.01.29.14.46.06.11-.05.09-.17.21-.22.14-.07.41.01.57.01.19,0,.9-.12.99.15-.05.27-.29.25-.45.36-.14.1-.22.24-.33.37-.39.42-.85.09-1.31.26-.35.13-.38.29-.83.3-.2,0-.42-.05-.62,0-.51.14-1.01.15-1.56.15-.35,0-.75.24-1.08.15-.4-.11-.28-.4-.54-.61-.28-.23-1.06.02-1.38,0-.11-.01-.21-.03-.31-.04-.07-.05-.11-.11-.13-.2-.14-.07-.21-.07-.39-.08-.44-.03-.82-.26-1.23-.35-.01-.15-.03-.28-.04-.43-.14-.04-.25-.02-.53-.66Z"/>
      <path class="cls-7" d="m69.49,26.22c-.04,1.79.74,3.25.93,5,.39.23.63-.34.97-.42.55-.13.54.09,1.02.44.69.49,1.32.23,2.05.45.51.16.65.53,1.02.86.4.36.49.33,1.02.33.94,0,1.23.98,2.03,1.37.89.44,1.82.1,2.7.67,1.32.85,2.45,2.03,3.93,2.45.86.25,1.64.68,2.46.91.88.25,1.81,1.07,2.54,1.63,1.05.81,1.96,1.38,2.75,2.54.31.45.55.96.84,1.43.23.39.4.97.76,1.22.17.12.4.09.54.2.44.33.87,1.35,1.2,1.87.15.24.14.53.34.74.2.21.47.23.67.39.54.44.96,1.35,1.47,1.9.43.46.81.91,1.25,1.35.37.37.64.77.94,1.19.23.33.48.47.74.77.44.5.64,1.31,1.02,1.88.25.38.54.62.8.97.49.67.7,1.68.95,2.46.25.76.67.99,1.1,1.66.55.87.77,1.86,1.06,2.85.43,1.45,1.07,2.8,1.62,4.19.27.68.19,2.24.99,2.55.3-1.01.06-2.42.06-3.5s.09-2.1-.34-3.16c-.41-1.01-.7-1.96-1.04-2.99-.16-.49-.33-.75-.64-1.15-.52-.66-.99-1.26-1.26-2.07-.24-.69-.79-1.63-.82-2.37.63.54,1.15,1.29,1.89,1.69.22.12.51.14.71.26.71.41,1.14,1.32,1.65,1.96.43.54,1.09.9,1.47,1.45.27.38.4.86.71,1.27-.18-1.45-.9-3.02-1.43-4.35-.28-.72-.7-1.14-1.22-1.7-1.08-1.15-2.07-2.39-3.17-3.53-.23-.24-.72-1.01-1.06-1.19-.2-.11-.35.02-.56-.08-.49-.23-1.16-1.03-1.53-1.49-.89-1.13-1.65-2.42-2.54-3.56-.59-.75-1.18-1.44-1.69-2.26-.65-1.04-1.38-2.22-2.29-3-1.18-1.02-2.39-2.06-3.65-2.96-.62-.45-1.64-.71-2.13-1.31-.2-.25-.2-.67-.34-.95-.44-.89-1.31-1.62-1.91-2.38-.5-.63-.74-.96-1.5-1.27-.91-.37-1.96-.61-2.32-1.64-.39-1.11-.56-1.09-1.74-1.26-.9-.13-2.03.09-2.81-.44-.51-.35-1.25-1.93-1.81-1.88-.21.26-.69,1.21-1.07,1.25-1.13-1.2-2.05-2.02-3.71-1.64-.84.2-1.87.79-3.63.33Z"/>
      <path class="cls-7" d="m94.64,32.77c.36.63.88,1.84,1.45,2.27.54.41.84.11,1.43.26,1.22.29,1.18,1.26,1.72,2.27.31.57.43.38.89.6.33-.07.58.08.74.43.28.48.56.96.82,1.45.55.83,1.14.89,1.88,1.32.89.52,1.39,1.89,2.2,2.63.7.65,1.52,1.09,2.2,1.8.81.86,1.14,1.87,1.69,2.9.3.57.88,1.1.79,1.81.59-1.8-.32-3.89-.87-5.62-.17-.52-.43-.87-.73-1.31-.32-.46-.53-.96-.84-1.46-1.09-1.76-1.87-3.62-2.84-5.42-.69-1.27-1.41-2.28-2.59-3.05-.6-.39-1.19-.86-1.78-1.23-.49-.3-1-.31-1.5-.58-1.09-.59-2.03-1.56-3.15-2.07-.43-.2-.89-.24-1.34-.35-.58-.14-1.13-.2-1.69-.47-.46-.22-.88-.49-1.37-.64-.64-.21-2.24-1.16-2.87-.92.32.69,1.38,1.38,1.94,1.83.37.31.75.49,1.14.75.53.36.93,1.39,2.7,2.78Z"/>
      <path class="cls-7" d="m113.36,75.69c.01,1.58.34,3.12.32,4.7,0,.67.03,1.34,0,2.01-.03,1.09-.44,2.18-.57,3.29-.16,1.38-.42,2.69-.4,4.09.01.86-.25,1.51-.33,2.31-.06.62-.17,1.11-.28,1.72-.05.26.04.57-.02.82-.04.17-.23.41-.26.52-.38,1.69-.36,3.4-.39,5.18-.01.64-.08.83.37,1.26.46.45,1.12.67,1.56,1.1.63.62.75,1.92,1.11,2.68.3.62.36,1.45.71,2.02.53-1.26-.04-3.32-.17-4.63-.05-.54-.13-.96-.3-1.38-.19-.47-.53-.85-.74-1.29-.45-.94-.28-1.27,0-2.29.42-1.61.93-3.28.98-4.94.09-3.05.12-6.1.56-9.12.06-.43-.02-.98.05-1.4.07-.38.32-.58.35-1.05.11-1.6-.37-3.11-.73-4.64-.22-.93-.4-1.81-.72-2.72-.32-.91-.35-1.73-.55-2.66-.12-.55-.36-2.1-.8-2.29-.59,1.84.43,3.94.25,6.7Z"/>
      <path class="cls-7" d="m53.3,26.22c.04,1.79-.74,3.25-.93,5-.39.23-.63-.34-.97-.42-.55-.13-.54.09-1.02.44-.69.49-1.32.23-2.05.45-.51.16-.65.53-1.02.86-.4.36-.49.33-1.02.33-.94,0-1.23.98-2.03,1.37-.89.44-1.82.1-2.7.67-1.32.85-2.45,2.03-3.93,2.45-.86.25-1.64.68-2.46.91-.88.25-1.81,1.07-2.54,1.63-1.05.81-1.96,1.38-2.75,2.54-.31.45-.55.96-.84,1.43-.23.39-.4.97-.76,1.22-.17.12-.4.09-.54.2-.44.33-.87,1.35-1.2,1.87-.15.24-.14.53-.34.74-.2.21-.47.23-.67.39-.54.44-.96,1.35-1.47,1.9-.43.46-.81.91-1.25,1.35-.37.37-.64.77-.94,1.19-.23.33-.48.47-.74.77-.44.5-.64,1.31-1.02,1.88-.25.38-.54.62-.8.97-.49.67-.7,1.68-.95,2.46-.25.76-.67.99-1.1,1.66-.55.87-.77,1.86-1.06,2.85-.43,1.45-1.07,2.8-1.62,4.19-.27.68-.19,2.24-.99,2.55-.3-1.01-.06-2.42-.06-3.5s-.09-2.1.34-3.16c.41-1.01.7-1.96,1.04-2.99.16-.49.33-.75.64-1.15.52-.66.99-1.26,1.26-2.07.24-.69.79-1.63.82-2.37-.63.54-1.15,1.29-1.89,1.69-.22.12-.51.14-.71.26-.71.41-1.14,1.32-1.65,1.96-.43.54-1.09.9-1.47,1.45-.27.38-.4.86-.71,1.27.18-1.45.9-3.02,1.43-4.35.28-.72.7-1.14,1.22-1.7,1.08-1.15,2.07-2.39,3.16-3.53.23-.24.72-1.01,1.06-1.19.2-.11.35.02.56-.08.49-.23,1.16-1.03,1.53-1.49.89-1.13,1.65-2.42,2.54-3.56.59-.75,1.18-1.44,1.69-2.26.65-1.04,1.38-2.22,2.29-3,1.18-1.02,2.39-2.06,3.65-2.96.62-.45,1.64-.71,2.13-1.31.2-.25.2-.67.34-.95.43-.89,1.31-1.62,1.91-2.38.5-.63.74-.96,1.5-1.27.91-.37,1.96-.61,2.32-1.64.39-1.11.56-1.09,1.74-1.26.9-.13,2.03.09,2.81-.44.51-.35,1.25-1.93,1.81-1.88.21.26.69,1.21,1.07,1.25,1.13-1.2,2.05-2.02,3.71-1.64.84.2,1.87.79,3.63.33Z"/>
      <path class="cls-7" d="m28.14,32.77c-.36.63-.88,1.84-1.45,2.27-.54.41-.84.11-1.43.26-1.22.29-1.18,1.26-1.72,2.27-.31.57-.43.38-.89.6-.33-.07-.58.08-.74.43-.28.48-.56.96-.82,1.45-.55.83-1.14.89-1.88,1.32-.89.52-1.39,1.89-2.2,2.63-.7.65-1.52,1.09-2.2,1.8-.81.86-1.14,1.87-1.69,2.9-.3.57-.88,1.1-.79,1.81-.59-1.8.32-3.89.87-5.62.17-.52.43-.87.73-1.31.32-.46.53-.96.84-1.46,1.09-1.76,1.87-3.62,2.84-5.42.69-1.27,1.41-2.28,2.59-3.05.6-.39,1.19-.86,1.78-1.23.49-.3,1-.31,1.5-.58,1.09-.59,2.03-1.56,3.15-2.07.43-.2.89-.24,1.34-.35.58-.14,1.13-.2,1.69-.47.46-.22.88-.49,1.37-.64.64-.21,2.24-1.16,2.87-.92-.32.69-1.38,1.38-1.94,1.83-.37.31-.75.49-1.14.75-.53.36-.93,1.39-2.7,2.78Z"/>
      <path class="cls-7" d="m9.43,75.69c-.01,1.58-.34,3.12-.32,4.7,0,.67-.03,1.34,0,2.01.03,1.09.44,2.18.57,3.29.16,1.38.42,2.69.4,4.09-.02.86.25,1.51.33,2.31.06.62.17,1.11.28,1.72.05.26-.04.57.02.82.04.17.23.41.26.52.38,1.69.36,3.4.39,5.18.01.64.08.83-.37,1.26-.46.45-1.12.67-1.56,1.1-.63.62-.75,1.92-1.11,2.68-.3.62-.36,1.45-.71,2.02-.53-1.26.04-3.32.17-4.63.05-.54.13-.96.3-1.38.19-.47.53-.85.74-1.29.45-.94.28-1.27,0-2.29-.42-1.61-.93-3.28-.98-4.94-.09-3.05-.12-6.1-.56-9.12-.06-.43.02-.98-.05-1.4-.07-.38-.32-.58-.35-1.05-.11-1.6.37-3.11.73-4.64.22-.93.4-1.81.72-2.72.32-.91.35-1.73.55-2.66.12-.55.36-2.1.8-2.29.59,1.84-.43,3.94-.25,6.7Z"/>
      <circle class="cls-5" cx="45.71" cy="64.2" r="1.5"/>
      <circle class="cls-5" cx="77.4" cy="64.2" r="1.5"/>
      <path class="cls-5" d="m48.29,112.52c.57,1.56.66,3.8.28,5.41-.2.49-.34,1-.43,1.52.07.46.04.92-.1,1.37-.24.43-.38.9-.42,1.39.05.53-.06,1.03-.33,1.49-.46.86-.57,1.14-.42,2.13.17,1.09.26,2.13.2,3.23-.1,1.58-.33,2.9-.95,4.37-.56,1.31-.06,2.56-.5,3.86-.25.75-.43,1.03-.42,1.8.02.93,0,1.86,0,2.79,0,1.05.14,2.17-.02,3.21-.2,1.31-1.14,2.18-1.06,3.5.06.95-.4,1.6-.62,2.51-.14.62.06,1.7-.26,2.22-.76-.24-1.49-.49-2.18-.86-.8-.42-1.21-1-1.88-1.56-.81-.67-1.31-.8-1.91-1.75-.6-.96-1.05-2-1.65-2.96-1.17.57-.41,3.12-2.01,3.35-.58-.83-.83-1.77-1.38-2.62-.51-.78-1.01-1.74-1.71-2.35-.43.4-.56.76-.72,1.32-.11.39-.08.96-.62,1.09-.46-.47-.29-1.17-.38-1.77-.17-1.09-.84-1.93-1.15-2.98-.12-.41-.07-.99-.62-1.18-.81-.27-1.52.81-1.87,1.28-1.22.09-1.06-1.59-1.1-2.23-.04-.98-.25-1.94-.61-2.86-.12-.58-.34-1.11-.67-1.6-.61-.47-.64.09-1.24-.06-.32-.03-.46-.2-.44-.49.04-.75-.08-1.47-.35-2.19-.32-.74-.73-1.43-1.23-2.07-.18-.48-.32-.97-.41-1.47-.37-.58-.81-.34-1.19-1.06-.27-1.06-.38-2.13-.31-3.22l.03-.55s.02-.07.03-.1c.26-.64.51-1.28.88-1.88.36.34.49.86.71,1.26.31.52.61,1,1.01,1.42.39-.16.62-.52.88-.8.49-.5.92-.88,1.5-1.24.48-.28.97-.5,1.46-.74.76-.36,1.53-.66,2.3-.98.24-.1.51-.16.66-.34.28.68.58,1.36.96,2.02.93-.64,1.29-1.8,2.07-2.57.17-.18.36-.32.56-.48l.11.78c.64-.74,1.38-1.46,2.13-2.16.56-.51,1.16-1,1.78-1.46,4.1-3.21,9.28-5.83,14.28-7.88-.16.15-.33.3-.51.46-1.04.88-.58,1.47-.17,2.6Z"/>
      <g>
        <path class="cls-10" d="m32.44,119.72c.11-.09.22-.19.34-.28-.3-.96-.57-1.96-.65-2.92-.06-.66-.06-1.36.04-2.02.02-.21.06-.4.1-.6,0-.21-.08-.36-.27-.45-.3-.43-.25-1.13-.1-1.6.02-.08.06-.16.1-.22.15-.29.39-.49.57-.79-.21-.15-.44-.06-.49-.34-.11-.45.57-.69.86-.75-.19-.32-.48-.57-.87-.7-.59-.26-1.01-.68-1.22-1.26.38-.53.96-1.26,1.72-1.13-.21-.53-.55-.98-1.05-1.36-.78-.6-1.29-1.36-1.53-2.28.31-.27.56-.58.71-.95-.17-.24-.3-.47-.42-.71-.17-.55-.06-.68.3-1.11-.36-.76-1.11-1.17-1.62-1.79-.23-.24-.58-.47-.75-.73-.06-.15-.1-.29-.11-.45-.21-.57-.38-1.15-.55-1.75-.04-.17-.09-.32-.12-.47-.01-.05-.03-.1-.04-.14-.04-.15-.09-.29-.14-.43-.12-.31-.28-.61-.51-.96-.93-1.4-1.01-2.85-1.27-4.45-.14-.88-.16-1.71-.16-2.62,0-.81-.1-1.67.02-2.49.1-.64.37-1.23.61-1.81.17-.38.32-.87.67-1.15.52-.43,1.53-.62,2.2-.62.48.02,1.77.26,2.04-.29.1-.19.08-.62,0-.81-.1-.25-.46-.3-1.24-.62-.38.06-.93-.2-1.28-.36-.32-.15-.82-.21-1.18-.27-.94-.19-2.12-.28-2.96.34-.9.69-1.09,1.92-1.34,2.96-.29,1.11-.25,2.26-.25,3.41v1.3c0,.41.06.64.17,1.02.1.3.13.6.15.94.02.38.17.62.15,1.02,0,.4.17.7.17,1.09-.02.45.08.76.15,1.19.06.3.17.57.23.87.1.34,0,.76.08,1.09.06.19.16.27.18.47.02.1-.04.23,0,.32.02.08.11.13.11.19.1.38.04.83.04,1.23v1.66c0,.68.17,1.56-.33,2.13.13.32.97.15,1.3.32-.21.35-.5.67-.73,1.01-.1.13-.18.27-.24.41-.02.05-.04.09-.06.14.3.29.78.08,1.08.25.11-.02.19.02.25.11,0,.34-.06.68-.17.98-.13.51-.29,1-.46,1.49-.13.26-.19.53-.15.81.1.11.34.17.48.23.27.13.13-.02.3.19.06.06.16.23.18.32.17.81-.94,1.51-.67,2.35.4.08.9-.08,1.28-.17-.06.47-.25.9-.61,1.28-.31.43-.52.91-.61,1.4-.15.69-.21,1.43-.3,2.13.42.29,1.34-.26,1.79-.36.14.12.09.4.08.64,0,.11,0,.22.03.3.21.57.56.42.97.6.55.25.32,1.81.44,2.3.08.3.21.55.3.83.21.66.63.78,1.09,1.25.19.2.36.42.51.65,0,.45,0,.9-.01,1.35-.02.56-.25,1.21.42,1.45.54.19,1.12-.1,1.67.22.24.14.4.31.52.51,0-.17,0-.35,0-.58,0-.6.08-1.3.08-1.96Z"/>
        <path class="cls-10" d="m32.61,123.39c-.02-.41-.06-.81-.26-1.14,0,.52.04.81.26,1.14Z"/>
        <path class="cls-10" d="m34.59,125.69c-.58-.46-.77-1.07-1.32-1.59-.31-.29-.52-.51-.65-.71.03.62,0,1.27.34,1.81.32.5.8.84,1.29,1.16.61.39,1.32.99,2.02,1.16.14-.84-1.17-1.42-1.67-1.82Z"/>
      </g>
      <path class="cls-10" d="m17.77,101.43l.49,11.16,1.58-4.56s.2,5.88,2.24,10.19l3.58,9.29,1.22-2.52,1.44,4.91,1.41-2.68s3.82,7.41,5.49,9.55v-1.96s4.54,7.14,5,10.73v-2.43l1.79,7.13-3.63-4.7-2.11-3.38v.95l-6.19-11.1-.35,1.58-2.79-3.8h-1.28s-5.19-7.22-6.57-10.35l-1.38-3.13-1.59,2.06s-1.74-9.72-1.74-14.69-.55-11.36-.55-11.36l3.95,9.1Z"/>
      <path class="cls-5" d="m74.55,111.93c-.57,1.56-.66,3.8-.28,5.41.2.49.34,1,.43,1.52-.07.46-.04.92.1,1.37.24.43.38.9.42,1.39-.05.53.06,1.03.33,1.49.46.86.57,1.14.42,2.13-.17,1.09-.26,2.13-.2,3.23.1,1.58.33,2.9.95,4.37.56,1.31.06,2.56.5,3.86.25.75.43,1.03.42,1.8-.02.93,0,1.86,0,2.79,0,1.05-.14,2.17.02,3.21.2,1.31,1.14,2.18,1.06,3.5-.06.95.4,1.6.62,2.51.14.62-.06,1.7.26,2.22.76-.24,1.49-.49,2.18-.86.8-.42,1.21-1,1.88-1.56.81-.67,1.31-.8,1.91-1.75.6-.96,1.05-2,1.65-2.96,1.17.57.41,3.12,2.01,3.35.58-.83.83-1.77,1.38-2.62.51-.78,1.01-1.74,1.71-2.35.43.4.56.76.72,1.32.11.39.08.96.62,1.09.46-.47.29-1.17.38-1.77.17-1.09.84-1.93,1.15-2.98.12-.41.08-.99.62-1.18.81-.27,1.52.81,1.87,1.28,1.22.09,1.06-1.59,1.1-2.23.04-.98.25-1.94.61-2.86.12-.58.34-1.11.67-1.6.61-.47.64.09,1.24-.06.32-.03.46-.2.44-.49-.04-.75.08-1.47.35-2.19.32-.74.73-1.43,1.23-2.07.18-.48.32-.97.41-1.47.37-.58.81-.34,1.19-1.06.27-1.06.38-2.13.31-3.22-.01-.18-.02-.36-.03-.55,0-.04-.02-.07-.03-.1-.26-.64-.51-1.28-.88-1.88-.36.34-.49.86-.71,1.26-.31.52-.61,1-1.01,1.42-.39-.16-.62-.52-.88-.8-.49-.5-.92-.88-1.5-1.24-.48-.28-.97-.5-1.46-.74-.76-.36-1.53-.66-2.3-.98-.24-.1-.51-.16-.66-.34-.28.68-.58,1.36-.96,2.02-.93-.64-1.29-1.8-2.07-2.57-.17-.18-.36-.32-.56-.48l-.11.78c-.64-.74-1.38-1.46-2.13-2.16-.56-.5-1.16-1-1.78-1.46-4.1-3.21-9.28-5.83-14.28-7.88.16.15.33.3.51.46,1.04.88.58,1.47.17,2.6Z"/>
      <path class="cls-10" d="m105.07,100.84l-.49,11.16-1.58-4.56s-.2,5.88-2.24,10.19l-3.58,9.29-1.22-2.52-1.44,4.91-1.41-2.68s-3.82,7.41-5.49,9.55v-1.96s-4.54,7.14-5,10.73v-2.43l-1.79,7.13,3.63-4.7,2.11-3.38v.95l6.19-11.1.35,1.58,2.79-3.8h1.28s5.19-7.22,6.57-10.35l1.38-3.13,1.59,2.06s1.74-9.72,1.74-14.69.55-11.36.55-11.36l-3.95,9.1Z"/>
      <path class="cls-10" d="m93.77,118.07s-1.82,5.11-2.33,5.32c-.51.21-2.93,3.82-2.93,3.82l.89-5.39,1.68-3.75h2.69Z"/>
    </g>
  </g>
</svg>