<?xml version="1.0" encoding="UTF-8"?>
<svg id="Layer_2" data-name="Layer 2" xmlns="http://www.w3.org/2000/svg" viewBox="0 0 556.81 695.54">
  <defs>
    <style>
      .cls-1 {
        opacity: .5;
      }

      .cls-2 {
        fill: #ba5d35;
      }

      .cls-2, .cls-3, .cls-4, .cls-5, .cls-6, .cls-7, .cls-8, .cls-9, .cls-10, .cls-11 {
        stroke-width: 0px;
      }

      .cls-3 {
        fill: #382f2b;
      }

      .cls-4 {
        fill: #f58a5d;
      }

      .cls-5 {
        fill: #e57e4a;
      }

      .cls-6 {
        fill: #fff;
      }

      .cls-7 {
        fill: #99938e;
      }

      .cls-8 {
        fill: #231f20;
      }

      .cls-9 {
        fill: #a75235;
      }

      .cls-10 {
        fill: #865326;
      }

      .cls-11 {
        fill: #ddd0c5;
      }
    </style>
  </defs>
  <g id="FALLOW_DEER" data-name="FALLOW DEER">
    <g>
      <path class="cls-2" d="m450.34,232.65s20.16-32.89,28.97-39.46,13.22-7.34,6.64,12.38c-6.57,19.72-8.92,40.97-24.65,44.7-15.73,3.72-10.96-17.61-10.96-17.61Z"/>
      <path class="cls-7" d="m349.72,148.5c11.32,10.66-3.94,19.22-3.94,19.22,0,0,13.15,12.5,17.93,18.08,4.74,5.58,22.33,19.16,13.32,21.53-8.8,2.33-17.14-.53-17.61-.67.74.78,12.63,13.48,21.25,14.87,8.9,1.49,24.3,7.91,24.3,7.91l-11.9,8.26s.78-.19,2.17-.49l16.35-8.46s-4.26-1.72-8.95-3.7c-4.72-1.98-27.5-11.07-27.5-11.07,0,0,13.27-.31,12.51-9.11-.76-8.84-29.21-36.35-29.21-36.35,13.51-11.87-10.98-36.3-10.98-36.3,15.92-10.72-6.54-34.27-6.54-34.27,27.36-4.26,9.08-30.22,9.08-30.22,19.16,6.28,22.66-17.42,22.66-17.42,15.1,4.45,15.7-8.56,15.7-8.56,7.55,7.08,16.2-1.06,16.2-1.06,0,0-1.07,15.56-.17,41.31.91,25.74,22.44,127.22,34.45,134.71,12,7.46,50.02,25.77,70.14,14.52,11.83-6.64,19.84-20.11,24.44-30.05.77-9.36-1.72-6.5-6.33,3.97-5.63,12.86-34.74,22.57-34.74,22.57,0,0-41.21-9.95-47.95-24.09-6.78-14.14-26.48-92-30.72-113.65-4.11-20.95-6.64-59.47-6.83-61.82-.66,1.62-7.62,18.39-18.52,1.73,0,0-3.82,25.26-24.2,11.65,0,0,9.36,21.82-27.26,16.99,0,0,10.11,20.88,3.08,29.55-6.76,8.32-17.41,3.71-18.3,3.3.7.75,11.93,13.08,16.59,22.17,4.83,9.37-8.39,13.58-8.39,13.58,0,0,8.6,10.64,19.89,21.35Z"/>
      <path class="cls-7" d="m347.46,132.23s24.48,24.43,10.98,36.3c0,0,28.45,27.51,29.21,36.35.75,8.8-12.51,9.11-12.51,9.11,0,0,22.78,9.09,27.5,11.07,4.69,1.98,8.95,3.7,8.95,3.7l-16.35,8.46c7.23-1.61,30.69-6.63,40.26-6.27,11.37.48,25.75.73,33.61,6.9,7.82,6.15,18.82,10.92,27.42,6.17,0,0,33.06-15.8,35.85-34.45.52-3.48.85-6.23,1.04-8.38-4.6,9.94-12.6,23.41-24.44,30.05-20.12,11.25-58.14-7.06-70.14-14.52-12.01-7.5-33.54-108.97-34.45-134.71-.91-25.74.17-41.31.17-41.31,0,0-8.65,8.14-16.2,1.06,0,0-.6,13.01-15.7,8.56,0,0-3.49,23.7-22.66,17.42,0,0,18.28,25.96-9.08,30.22,0,0,22.46,23.55,6.54,34.27Z"/>
      <path class="cls-9" d="m126.09,649.71c4.66,12.09,8.3,20.17,11.53,25.56,11.53-1.66,22.69-3.54,30.46-4.89-9.77-16.48-22.94-49-30.42-78.07-7.89-30.8,28.37-57.74,38.19-98.82,9.77-41.07-9.85-70.45-9.85-70.45-62.72-74.3-58.75,53.89-52.33,79.42,6.38,25.52-7.6,59.05-14.43,65.44-6.87,6.43,13.66,47.5,26.86,81.8Z"/>
      <path class="cls-9" d="m306.08,642.03c9.49,16.63,9.72,17.61,15.36,22.04,9.16-11.55,22.04-29.06,36.51-48.66,25.64-34.65,19.34-56.47,8.38-75.76-10.92-19.25-16.8-74.99-16.8-74.99-5.27-35.72-67.46-39.34-44.48,20.71,23.02,60.01,55.26,74.82,41.57,99.23-9.12,16.32-30.47,44.69-40.53,57.43Z"/>
      <path class="cls-6" d="m1.54,488.57c1.78,5.82,5.1,5.68,10.09-5.97,13.57-31.65,34.52-87.15,45.62-102.34,6.13-8.39,4.65-13.86.56-15.22-1.01,2.31-2.2,4.7-3.53,7.2,0,0-35.82,54.46-38.05,79.66-1.62,17.95-8.58,30.72-14.68,36.67Z"/>
      <path class="cls-5" d="m1.54,488.57c6.11-5.95,13.07-18.72,14.68-36.67,2.23-25.2,38.05-79.66,38.05-79.66,1.33-2.5,2.52-4.89,3.53-7.2-3.29-1.12-8.29.48-12.29,5.42,0,0-31.41,36.43-40.04,63.55C.02,451.13-1.49,478.59,1.54,488.57Z"/>
      <path class="cls-5" d="m34.27,411.74c.53,1.88,1.35,4.01,2.53,6.42,9.53,1.02,19.26-6.01,19.26-6.01l71.1-31.07s33.32,37.16,43.95,51.35c10.63,14.15,47.79,13.25,84.96,13.25s69.05-13.08,69.05-13.08c0,0,30.99-17.01,50.29-4.05,3.23,2.17,6.21,3.31,9.08,3.8,4.5-1.76,8.55-3.48,11.57-5.03,13.04-6.66,39.29-58.75,44.2-82.55,4.87-23.75-4.7-44.73-4.7-44.73.65-25.39,17.05-24.61,35.12-3.23,2.58.57,5.11,1.23,7.4,1.88.94-1.14,1.88-2.25,2.86-3.31.53-.61,1.06-1.23,1.64-1.84,11.77-12.67-7.73-49.47-37.16-50.86-4.33,3.43-9.16,6.58-14.07,9.16,0,0-17.7,17.83-23.02,43.01-5.32,25.14-16.39,46.94-36.96,49.31-20.57,2.41-24.12-22.12-72.78-15.62-48.69,6.54-174.38,2.09-194.29,5.6-12.63,2.29-31.24,8.05-48.41,18.97-16.19,21.06-24.74,47.96-21.63,58.63Z"/>
      <path class="cls-6" d="m385.39,432.47c4.78,7.52,1.72,21.67,10.67,9.94,10.83-14.11,35.69-31.48,41.91-35.77,0,0,.04,0,.04-.04,6.66-9.4,12.63-22.28,15.37-41.25.16-1.06.33-2.09.49-3.11,5.19-33.32,13.49-50.41,24.2-63.54-13.86-3.97-34.75-7.73-38.72,4.21,0,0,7.65,4.58,6.95,28.62-.12,5.68-1.8,12.72-4.29,20.16-8.1,23.96-24.98,52.74-29.15,59.49-4.41,7.24-13.7,22.81-27.47,21.3Z"/>
      <path class="cls-2" d="m36.8,418.19c4.53,9.66,13.65,23.09,24.74,35.16,3.88-4.09,6.57-7.79,7.43-10.95,8.12-29.88,71.47-19.82,71.47-19.82,0,0,43.71,47.3,91.58,47.3s94.42-13.54,94.42-13.54c0,0,30.1-24.74,48.95-27.8-19.25-12.93-50.24,4.02-50.24,4.02,0,0-31.89,13.14-69.06,13.14s-74.34.9-84.97-13.29c-10.63-14.15-43.96-51.32-43.96-51.32l-71.11,31.07s-9.7,7-19.25,6.03Z"/>
      <path class="cls-4" d="m55.89,353.12c17.18-10.91,35.77-16.7,48.41-18.96,19.92-3.53,145.6.9,194.28-5.63,48.68-6.51,52.23,18.03,72.79,15.64,20.55-2.39,31.65-24.16,36.96-49.34,5.31-25.15,23.02-42.99,23.02-42.99,4.91-2.58,9.72-5.71,14.07-9.16-3.72-.19-7.62.21-11.66,1.3,0,0-23.66,17.9-31.63,41.64-7.97,23.77-18.19,47.69-29,50.99-10.83,3.32-18.8-19.23-71.91-16.57-53.11,2.63-155.96,3.51-199.53,5.05-18.3.66-34.07,12.8-45.81,28.04Z"/>
      <path class="cls-6" d="m61.54,453.35c13.75,14.87,30.56,27.58,45.72,28.37,30.56,1.58,223.6,19.68,265.9,0,42.27-19.64,32.97-42.23,43.6-52.83,5.57-5.6,13.79-11.82,21.19-22.27-6.21,4.27-31.06,21.66-41.87,35.77-8.98,11.74-5.89-2.41-10.7-9.95-3.12-.36-6.43-1.54-9.98-3.91-18.85,3.05-48.95,27.8-48.95,27.8,0,0-46.51,13.54-94.42,13.54s-91.58-47.3-91.58-47.3c0,0-63.35-10.06-71.47,19.82-.86,3.16-3.56,6.86-7.43,10.95Z"/>
      <path class="cls-10" d="m375.39,428.54c3.56,2.37,6.86,3.56,9.98,3.91-1.83-2.87-4.78-4.74-9.98-3.91Z"/>
      <path class="cls-2" d="m384.49,432.34c14.27,2.33,23.88-13.78,28.42-21.18,4.13-6.75,21.02-35.53,29.11-59.49,2.49-7.44,4.17-14.47,4.29-20.16.7-24.04-6.95-28.62-6.95-28.62,3.31-9.94,18.36-8.99,31.32-6.09-18.07-21.38-34.47-22.16-35.12,3.23,0,0,9.57,20.97,4.7,44.73-4.91,23.8-31.15,75.88-44.2,82.55-3.03,1.55-7.07,3.27-11.57,5.03Z"/>
      <path class="cls-5" d="m426.16,271.88s-2.93,30.14,27.95,34.55,73.54,19.13,86.05,13.24c8.27-3.88,13.37-9.16,13.46-14.69-1.5-.99-3.13-2.07-4.92-3.27,0,0-51.65-41.21-66.5-55.75-13.86-13.57-40.73-4.7-53.66,3.09-2.03,5.89-2.96,13.39-2.38,22.84Z"/>
      <path class="cls-8" d="m500.42,276.49s3.7-4.61-13.87-13.91c-6.3-3.33-14.55,2.06-14.55,2.06,0,0-1.8,9.49,6.14,13.56,7.94,4.07,12.53-1.17,15.81-.67,3.28.5,6.46-1.04,6.46-1.04Z"/>
      <circle class="cls-6" cx="482.2" cy="268.51" r="2.36"/>
      <path class="cls-4" d="m428.54,249.05c12.93-7.79,39.8-16.66,53.66-3.09,14.85,14.54,66.5,55.75,66.5,55.75,1.79,1.19,3.42,2.27,4.92,3.27.04-2.8-1.19-5.69-3.91-8.52-8.1-8.41-44.86-36.36-56.64-51.06-9.95-12.44-53.53-28.55-64.54,3.64Z"/>
      <path class="cls-3" d="m544.98,292.05s8.59.97,11.35,7.03c2.76,6.07-7.26,16.55-11.35,11.03-4.09-5.52-7.37-20.7,0-18.07Z"/>
      <path class="cls-2" d="m319.32,449.45c1.55,20.81,9.69,42.64,11.73,51.76,4.38,18.97,48.94,102.87,65.91,137.17,10.47,21.14,11.41,37.98,15.33,47.75,12.8-.9,23.06-2.41,31.32-4.25-5.68-16.23-22.73-56.67-30.75-74-9.36-20.32-21.96-74.94-31.28-95.26-9.32-20.28,2.45-32.99,5.6-67.13-5.07,13.66-15.58,34.26-33.89,35.45-22,1.39-31.93-9.61-33.98-31.48Z"/>
      <path class="cls-2" d="m28.91,651.06c1.96,13.21,3.39,23.3,6.01,30.54,12.67-.37,23.51-2.45,31.4-4.58-1.02-4.01-2.29-8.79-3.64-14.51-6.58-27.97-15.21-82.55,21.63-100.33,35.98-17.38,83.53-60.18,83.2-112.39-3.31,14.23-12.59,27.97-35.98,28.99-49.31,2.13-77.23-19.5-75.47-66.6.04-.78,0-1.59-.08-2.41-6.05,9.89-8.75,20.28-6.95,28.21,5.52,24.53,37.7,55.6,30.83,74.66-6.87,19.05-43.3,49.55-48.41,58.43-5.11,8.91-7.15,49.55-2.54,80.01Z"/>
      <path class="cls-8" d="m137.62,675.27c5.89,9.85,10.34,10.7,17.17,10.7,10.59,0,24.86,2.58,15-12.82-.57-.85-1.1-1.77-1.72-2.77-7.77,1.35-18.93,3.23-30.46,4.89Z"/>
      <path class="cls-8" d="m298.07,657.35c.65,11.16,5.63,20.92,9.68,20.92,1.76,0,6.66-5.31,13.7-14.2-5.64-4.43-5.87-5.41-15.36-22.04-4.99,6.31-8.26,11.63-8.01,15.32Z"/>
      <path class="cls-3" d="m412.29,686.14c2.41,6.05,6.01,9.4,13.7,9.4,20.12,0,20.81,0,19.46-7.65-.2-1.1-.86-3.19-1.84-6.01-8.26,1.84-18.52,3.35-31.32,4.25Z"/>
      <path class="cls-3" d="m34.92,681.6c3.39,9.44,8.71,13.94,19.75,13.94,15.45,0,15.58-3.23,11.65-18.52-7.89,2.13-18.72,4.21-31.4,4.58Z"/>
      <path class="cls-5" d="m55.97,409.75c.08.82.12,1.64.08,2.41-1.76,47.1,26.17,68.73,75.47,66.6,23.39-1.02,32.67-14.76,35.98-28.99,0-1.23-.04-2.49-.12-3.76-2.74-53.89-40.23-65.13-40.23-65.13-31.52-10.3-58.67,8.22-71.18,28.86Z"/>
      <path class="cls-5" d="m319.15,446.96c.04.86.08,1.72.16,2.49,2.04,21.87,11.98,32.87,33.98,31.48,18.32-1.19,28.82-21.79,33.89-35.45v-.16c3.11-34.3-33.89-41.95-33.89-41.95-28.62,2.21-35.24,22-34.14,43.58Z"/>
      <g class="cls-1">
        <path class="cls-6" d="m403.22,298.1l4.49-3.59c.77.2,1.45,0,1.88-.6-.12,2.1-2.46,11.88-5.53,12.26-3.77.47-1.43-6.68-.78-8.8-.02.24-.03.49-.05.73Z"/>
        <path class="cls-6" d="m360.11,350.22c-4.17-.87-2.15-2.92.01-4.54l.9-2.69c2.33-1.13,7.21-1.97,7.35,2.2.09,2.84-5.91,5.52-8.26,5.03Z"/>
        <path class="cls-6" d="m400.48,313.65c1.56,2.47,1.42,5.69-.81,7.69-3.06,2.74-2.69-.27-2.73-2.59l3.59-4.49c-.02-.2-.03-.41-.05-.61Z"/>
        <path class="cls-6" d="m371.8,409.43c1.95-.66,6.15-4,7.37-.56.95,2.67-3.78,9.56-6.63,8.71-2.42-.73-2.42-4.88-.74-6.36v-1.8Z"/>
        <path class="cls-6" d="m363.72,373.52l.9-2.69c3.3.03,5.6-.64,3.85,3.64-1.38,3.38-5.54,3.45-4.75-.94Z"/>
        <path class="cls-6" d="m382.66,342.87c-.36-1.42-.33-3.76.05-5.18.54-.22,1.09-.25,1.66-.09l2.69-3.59c3.07-.98,1.69,3.89,1.16,5.23-.81,2.05-3.02,4.75-5.56,3.62Z"/>
        <path class="cls-6" d="m391.55,381.6l2.69-3.59c2.61,1.99,2.24,6.57-.15,8.83-4.32,4.09-3.55-2.78-2.54-5.24Z"/>
        <path class="cls-6" d="m364.62,392.37l1.8,1.8c1.25.11,1.76-1.3,2.65-1.82.74-.43,2.81-1.23,3.7-.96,4.59,1.44-3.93,10.37-7.39,10.07-1.51-2.56-.78-6.25-.75-9.1Z"/>
        <path class="cls-6" d="m376.09,348.21c-2.26.94-1.57-2.08-1.6-3.43h.9c1.1.82,3.05,2.45.7,3.43Z"/>
        <path class="cls-6" d="m377.19,373.52l1.8-3.59c.5,1.05,1.36,1.84.87,3.17-.4,1.09-2.55,2.37-2.67.42Z"/>
        <path class="cls-6" d="m382.57,390.57c.99.02,2.78-.4,3.66.14,1.63,1.01.89,2.92-.1,3.95-.7.72-2.89,2.04-3.96,1.28-.92-.65-.47-2.45-.49-3.56l.9-1.8Z"/>
        <path class="cls-6" d="m386.16,356.46l1.8-6.28c3.55-.54,4.82,6.6,3.5,9.06-.61,1.14-3.28,2.36-4.48,1.59-1.33-.85-.79-3.04-.81-4.37Z"/>
        <path class="cls-6" d="m345.79,338.45c-2.9.1-3.2-3.99-5.42-4.44l3.59-4.49c1.53,2.03,1.44,1.28,3.61,1.73,1.89.39,2.23,2.38,1.81,4.14-.34,1.42-1.95,3-3.6,3.06Z"/>
        <path class="cls-6" d="m350.12,370.3c-1.64-1.08-2.23-4.97-4.35-4.86l4.49-2.69c3.32.02,7.8-.5,7.2,4.2-.44,3.46-4.25,5.4-7.34,3.36Z"/>
        <path class="cls-6" d="m330.5,332.2c-1.77-.3-2.52-2.18-4.49-1.78l3.59-4.49c.05.25.1.5.15.74,1.14.4,2.33-.17,3.46.29,1.6.66,2.33,2.51,1.3,3.84-.78,1-2.85,1.6-4.01,1.4Z"/>
        <path class="cls-6" d="m342.15,364.05c-.82,1.2-5.74.48-7.16.48l4.49-4.49c1.29.49,3.88,2.26,2.67,4.01Z"/>
        <path class="cls-6" d="m357.68,420.37c.03.12.11.22.15.34l-.09.09c-.02-.14-.04-.29-.06-.43Z"/>
        <path class="cls-6" d="m364.79,418.5c-.46,1.33-2.15,3.58-3.51,4.07-1.51.54-2.97-.45-3.46-1.86l3.5-3.5c1.43.22,4.62-2.07,3.47,1.29Z"/>
        <path class="cls-6" d="m352.36,440.5c1.48-.9,2-.28,3.71-.03,1.86.26,2.51-1.02,4.06-1.11l2.39-2.39c.18-1.16,1.47-.67,1.97-.04,1.39,1.73-.06,4.84-1.12,6.15-1.95,2.41-5.55,1.59-8.34,2.52-1.68.56-5.54,3.55-7.43,2.69-.86-2.89,2.46-6.38,4.75-7.78Z"/>
        <path class="cls-6" d="m352.54,424.35c-1.2-.59-1.07-2.8-1.96-3.58l1.76-1.76c1.82,0,4.17-.75,3.54,1.88-.29,1.21-1.85,4.2-3.35,3.47Z"/>
        <path class="cls-6" d="m350.07,420.5c.21.04.37.14.52.26l-.64.64c.04-.3.08-.6.12-.9Z"/>
        <path class="cls-6" d="m354.07,396.81c-1.7-.43-1.95-2.56-3.52-2.94l4.19-2.99c1.42,1.77,7.33-2.49,5.98,2.37-.68,2.42-4.22,4.18-6.65,3.57Z"/>
        <path class="cls-6" d="m321.82,359.15l4.19-.6c1.59,0,3.81-.56,4.7,1.19,1.15,2.29-.61,5.09-2.95,5.43-1.21.18-3.39-.04-4.24-1.09-.49-.61-.29-.51-.5-1.34-.19-.74.25-.97-.56-1.26-.89-.32-1.52.71-2.36.58-.43-.92,1.09-2.41,1.72-2.92Z"/>
        <path class="cls-6" d="m318.96,333.83c-1.46-.22-4.1-2.19-3.69-3.96.38-.13.77-.14,1.16-.05l1.8-2.39c1.18-.14,2.43-.73,3.61-.62,1.24.11,1.02.03,1.24,1.21.47,2.56-1.01,6.29-4.12,5.82Z"/>
        <path class="cls-6" d="m311.44,367.35c-2.53,1.42-5.12,1.04-6.38-1.61l2.99-5.39c2.12.03,3.82.14,5.02,2.05,1.33,2.13.6,3.71-1.63,4.95Z"/>
        <path class="cls-6" d="m343.06,393.83c1.47.21,2.75,1.53,3.2,3.03.62,2.09-2.11,3.38-3.95,3.6-2.07.24-2.92-.83-3.67-2.47-.31-.68-.09-1.55-1.26-1.13l2.39-3.59c.88,1.08,2.14.4,3.29.57Z"/>
        <path class="cls-6" d="m342.17,420.8c.03-.17.07-.33.1-.5,3.48-1.25,5.6,1.92,5.36,5.19-.15,2.06-1.9,2.13-3.81,1.97-2.63-.22-3.05-2.02-4.64-3.67l2.99-2.99Z"/>
        <path class="cls-6" d="m333.79,439.96l1.8-.6c2.11-.35,3.78,2.37,3.65,4.17-.1,1.51-1.19,2.91-2.83,2.36-2.56-.86-2.72-3.74-2.62-5.93Z"/>
        <path class="cls-6" d="m327.94,416.09c1.09-.58,1.54.98,1.69,1.75.42,2.14.42,5.67-1.24,7.17-2.28,2.05-4.41-1.53-4.77-3.61l2.39-3.59c1.6.51,1.01-1.22,1.93-1.72Z"/>
        <path class="cls-6" d="m331.4,396.57c-.75,2.04-3.64,1.47-5.39,1.49l2.99-4.19c.94,1.26,3.38.04,2.4,2.7Z"/>
        <path class="cls-6" d="m300.66,361.92c.7,2.24-1.2,3.73-3.33,3.88-1.98.14-2.38-.88-3.44-2.16l2.19-3.28c1.81,0,3.9-.59,4.58,1.57Z"/>
        <path class="cls-6" d="m293.69,363.94c.04-.14.08-.27.12-.41.03.04.05.07.08.1l-.2.31Z"/>
        <path class="cls-6" d="m305.06,328.03c1.6-1.11,4.37.53,3.65,2.75-1.07.46-5.61,1.48-6.04-.36l2.39-2.39Z"/>
        <path class="cls-6" d="m286.5,335.19c-2.19.31-4.06-1.08-5.19-2.88.14-.03.27-.06.41-.09l4.19-4.19c2.53,0,4.48.16,4.8,3.27.24,2.35-2.03,3.59-4.2,3.89Z"/>
        <path class="cls-6" d="m286.71,363.4c-.84,2.21-2.5,3.77-4.93,3.69-1.54-.05-5.54-.71-5.95-2.61.46-.65,1.6-.66,2.3-.54l6.58-5.39c2.76.34,2.85,2.62,2,4.84Z"/>
        <path class="cls-6" d="m311.73,396.23l5.9-2.36c1.15-.17,1.61-1,2.72-.28,1.18.76,1.06,2.58.86,3.79-.38,2.35-3.02,4.12-5.42,3.73-2.64-.44-3.53-2.65-4.06-4.88Z"/>
        <path class="cls-6" d="m311.62,395.81c.03.14.08.28.11.42l-.09.03c0-.15-.02-.3-.03-.46Z"/>
        <path class="cls-6" d="m307.45,423.2l3.59-2.99c.73,0,2.42-.32,3.04-.04.86.39.6,1.63.58,2.55-.03,1.78-.84,3.3-2.96,2.94-1.86-.31-2.02-3.13-4.25-2.46Z"/>
        <path class="cls-6" d="m282.06,426.88c-2.07-.32-2.05-5-1.5-6.61,2.69-1.08,4.91,3.64,4.74-1.27l4.19.6c.83.22,1.77-.55,2.69-.6,1.44-.08,2.49-.05,3.35,1.3,1.13,1.75.19,4.07-1.81,4.63-2.95.82-4.35-.95-6.65-2.18-2.03.81-2.12,4.59-5.02,4.14Z"/>
        <path class="cls-6" d="m302.37,396.52c.69.99.62,3.25-.33,4.04-1.71,1.43-4.07-.14-5.36-1.31l.6-2.39c1.35-.69,3.9-2.04,5.09-.34Z"/>
        <path class="cls-6" d="m276.03,397.14c-3.33.63-6.17.94-8.68-1.48l3.59-2.99c2,0,6.51-.93,7.83.66,1.94,2.32-.84,3.45-2.74,3.81Z"/>
        <path class="cls-6" d="m412.85,398.66c-.18,1.26-1.2,1.9-2.45,1.88-1.32-.02-1.84-1.3-2.99-1.28l1.8-2.39c1.5,0,3.97-.53,3.64,1.8Z"/>
        <path class="cls-6" d="m390.65,411.23l2.99-4.79c.1-.75,1.05-.94,1.68-.51.56.39.78,1.59.8,2.21.07,2.32-4.54,7.33-6.68,4.32.04-.7.44-1.11,1.21-1.24Z"/>
        <path class="cls-6" d="m308.69,445.44c1.46-.36,2.3-.42,2.38,1.09.16,3.12-3.36,4.21-5.91,3.5-.03-.17-.07-.33-.1-.5l-.6-.6c-.45-2,2.72-3.13,4.23-3.5Z"/>
        <path class="cls-6" d="m242.51,457.59c1.38-.53,2.77-.06,4.19-.24,1.46-.19,2.19-1.6,3.57-1.85,1.89-.34,2.42,1.66,4.21.88.83-.36,1.03-1.2,2.11-.78.7.27.79,1.4,1.33,1.64,1.17.52,2.38-2.07,3.72-2.33,1.49-.3,2.67,1.02,3.79.04.5-.44.67-1.37,1.29-1.72.57-.32,1.52-.1,2.12-.1.73,0,1.16.05,1.8-.33.72-.43,1.15-1.57,2.13-1.54.39,0,1.23.64,1.62.82.67.3.47.46,1.33.33,1.56-.22,1.98-.76,3.44.06.88-1.64,2.54-2.38,4.33-2.83,1.04-.26,4.85-.66,5.41.22.53.82-.41,2.45-1.16,2.71-.92.33-2.62-.04-3.62-.04-3.31,3.16-5.24,2.83-6.91,3.89-1.37.88-2.19.9-3.87.9-1.44,0-2.87-.15-4.06.73-.45.33-.71.91-1.17,1.23-.68.47-1.05.36-1.92.49-2.74.39-4.06,1.68-6.78.55-.73-.3-1.4-.83-2.25-.65-.91.18-1.47.99-2.4,1.23-1.68.44-3.35-.36-4.99-.53-.58-.06-1.53.15-2.04-.15-.61-.36-.32-1.2-1.33-1.05-.74.11-1.01,1.36-1.55,1.78-.95.74-4.62,1.2-5.38.25-.93-1.18,2.05-3.21,3.04-3.59Z"/>
        <path class="cls-6" d="m214.98,453.75c1.62-.28,4.58-.39,6.22.07,1.17,2.93-3.02,2.9-4.72,2.9h-2.99c-.8-.15-.83-1.22-.55-1.83.42-.9,1.18-.99,2.04-1.14Z"/>
        <path class="cls-6" d="m178.82,448.91c1.33-.77,3.33-.87,4.79-.43,2.42.72,3.92,0,6.39-.18,2.05-.15,1.82.6,3.13,1.73,1.33,1.16,2.81.81,4.64.57.97-.13,4.17-1.32,4.91.06.41.75-.48,2.31-1.15,2.52-1.91.62-3.44-.84-4.82-1.85l-1.8,4.19c-1.93.3-2.59-1.61-4.17-1.84-1.34-.2-.86.69-1.8,1.15-.73.36-1.75-.39-2.43-.64-2.62-.97-5.05-.73-7.73-1.17-1.05-.17-3.3-.73-2.35-2.32.28-.47,1.9-1.52,2.37-1.79Z"/>
        <path class="cls-6" d="m227.23,456.64c.46.54,1.01.95,1.67,1.23.56.14,1.03-.03,1.39-.5,1.54-.74,7.81-3.43,6.56.57-.58,1.85-1.99,1.73-3.62,1.76l-5.39,2.39c-2.44-.12-4.06-2.41-2.77-4.68.67-1.17,1.24-1.06,2.16-.78Z"/>
        <path class="cls-6" d="m204.97,453.71c.98-.02,3.49-.4,4.37-.03,1.08.46.66,2.24-.51,2.37-.04-.18-.09-.35-.13-.53l-.6,1.2c.48,2.48-4.43.75-5.28-.14-1.86-1.95.53-2.84,2.15-2.87Z"/>
        <path class="cls-6" d="m169.2,444.27c.93.33,1,1.23,1.74,1.57,1.78.82,6.59-.76,4.27,2.96-.51.82-1.42,1.85-2.43,1.99-.92.12-1.53-.54-2.39-.66l-1.8-1.8c0,1.12-.41,2-1.21,2.66-2.02-.82-1.58-5.11-.13-6.29.7-.57.9-.81,1.96-.43Z"/>
        <path class="cls-6" d="m144.65,440.55l-4.19-.6c-.18,0-.37.02-.55.02-.32-2,.79-4.46,2.74-4.97,1.26-.33,3.31.24,4.15,1.35,1.43,1.91-.69,3.41-2.15,4.2Z"/>
        <path class="cls-6" d="m120.43,445.29c.59.65.38,2.11-.3,2.72-.63.57-1.57.31-2.42.32l-1.2.6c-1.61-.04-3.84-.5-2.41-2.39,1.08-1.42,4.82-2.91,6.33-1.25Z"/>
        <path class="cls-6" d="m144.15,454.37c.47-1.9,4.88-4.46,6.72-2.71.98.94-.21,2.41-1.43,2.06l-3.59,1.8c-.72-.18-1.28-.57-1.7-1.15Z"/>
        <path class="cls-6" d="m160.92,459.06c1.15.71-.24,4.08-1.91,3.64l1.2-.6c-1.26.26-4.89,1.75-4.43-.38.35-1.66,3.5-3.69,5.15-2.66Z"/>
        <path class="cls-6" d="m142.26,472.15c.81-.53,2.95-2.21,4.09-1.71,1.21.53.83,2.96.57,3.98-.32,1.22-1,1.87-2.27,2.05v.6c-1.46.92-3.36,2.16-5.21,1.82-1.43-.26-2.04-1.09-1.64-2.41.46-1.54,3.41-3.63,4.46-4.33Z"/>
        <path class="cls-6" d="m119.71,478.81c.8.12,1.69.13,1.68,1.25-.01,1.24-1.61,1.42-2.48,1.79l-.6,1.2c-2.81.33-2.36-4.79,1.4-4.24Z"/>
        <path class="cls-6" d="m97.37,463.34c1.51.4,2.59,1.92,1.21,3.22-.5.47-1.72.81-2.42.93v.6c-1.02.13-1.62.88-2.73.47-.72-.27-1.73-1.8-1.68-2.58.14-2.18,3.93-3.08,5.61-2.63Z"/>
        <path class="cls-6" d="m59.1,427.82c.75.38,2.43.98,2.99,1.58,1.47,1.6-.02,3.33.02,4.97,2.58-1.22,3.52.72,3.55,3.04,0,.67-.39,2.82,0,3.42.43.65,1.52.21,2.27.41.04,1.05.5,1.78,1.39,2.35,1.08.68,3.24.04,3.91,1.24,1.53,2.74-3.19,3.54-4.61,3.5.12,1.18-2.68,1.76-4.57.28-1.87-1.46-1.35-2.92-2.07-4.72-.52-1.32-1.49-1.08-2.37-1.82-.49-.41-.37-.68-.56-1.17-.32-.83-.48-1.83-.86-2.73-.99-2.32-2.25-4.75-2.97-7.15-.24-.78-.96-2.86-.26-3.58.63-.65,3.49.06,4.14.38Z"/>
        <path class="cls-6" d="m100.35,444.15c1.59-.31,3.68,1.3,3.72,2.94.03,1.09-1.31,3.24-2.51,3.29-1.62.07-3.05-2.46-3.01-3.85l1.8-2.39Z"/>
        <path class="cls-6" d="m116.52,420.8l1.8-1.8c.85-.84,1.61-1.87,2.68-2.42.81-.41,2.59-.79,3.55-.65,1.2.17,1.29.11,1.57,1.36.77,3.43-1.02,5.99-4.23,7.27-2.48.99-5.82-.73-5.36-3.77Z"/>
        <path class="cls-6" d="m85.45,408.68l.54,1.34c-.33-.41-.48-.86-.54-1.34Z"/>
        <path class="cls-6" d="m89.64,405.95c.77-.37,2.12-.97,2.89-.72,2.38.79,1.31,4.4-.4,5.31-2.78,1.48-4.49-1.13-6.73-2.2,0,.11.04.22.05.33l-.66-1.65c2.05.06,3.07-.24,4.85-1.08Z"/>
        <path class="cls-6" d="m63.27,416.64c-1.14.05-2.96-1.92-3.02-3.02l1.2-.6c1.5.41,1.77-1.68,3.52-1.19.45,1.37.04,4.74-1.69,4.82Z"/>
        <path class="cls-6" d="m82.4,387.28c.88-.71,1.14-1.83,2.07-2.35.93-.52,2.97-1.03,3.92-.63,1.21,3.43-.55,7.51-4.37,8.34-.86.19-4.99.44-4.01-1.77l2.39-3.59Z"/>
        <path class="cls-6" d="m87.21,359.42c1,.87-2.51,4.58-2.69,4.72-2.62,2.04-2.11.17-3.92-.8l1.8-2.99c1.51.24,3.71-1.87,4.81-.93Z"/>
        <path class="cls-6" d="m58.46,375.91l1.2-2.39c-.07-.69.52-1.32,1.21-1.28.88.05,1.01,1.26,1.14,1.92.16.84.38,2.07-.31,2.66-1.27,1.09-2.5.13-3.24-.91Z"/>
        <path class="cls-6" d="m70.62,352.28c-1.11.63-3-.8-2.59-2.11l1.2-2.39c.82.03,1.58.07,2.3-.4.59,1.01.19,4.28-.91,4.9Z"/>
        <path class="cls-6" d="m84.74,341.12c-.13-.69.12-1.24.65-1.72l3.59-6.58c1.79,1.42,1.74,3.16,1.8,5.28.03,1.05.18,1.48-.42,2.23-.91,1.14-4.34,1.12-5.63.79Z"/>
        <path class="cls-6" d="m46.48,390.87l.6-1.8c.76.21,1.15-.28,1.67-.6.2.76.57,3.75-.2,4.15-.93.49-2.04-.9-2.07-1.76Z"/>
        <path class="cls-6" d="m69.16,398.74c.02.36.2.67.46.93l-.39,1.38c.05-.77.03-1.54-.07-2.3Z"/>
        <path class="cls-6" d="m72.76,400.27c-.8.4-2.36.14-3.14-.6l.8-2.81c1.44-1.04,3.72-2.49,3.65.51-.02,1-.28,2.38-1.31,2.9Z"/>
        <path class="cls-6" d="m45.89,412.42c.98.25,1.24-.85,2.05-.31.84.56.41,3.79.38,4.54-.14,4.12-5.49,3.04-4.83-.64l2.39-3.59Z"/>
        <path class="cls-6" d="m95.71,433.55c-1.78.15-2.68-.83-3.74-1.97l3.59-1.8c.29-1.41,2.31-1.7,3.07-.73,1.23,1.55-1.49,4.38-2.93,4.5Z"/>
        <path class="cls-6" d="m271.65,375.71c-.85-.36-2.07-2.39-3.1-2.09l2.38-1.91c2.32,0,3.64-.33,3.61,2.38-.02,1.8-.99,2.44-2.9,1.62Z"/>
        <path class="cls-6" d="m268.56,373.63l-.61.49c.19-.3.4-.43.61-.49Z"/>
        <path class="cls-6" d="m257.22,395.6c-1.05-.15-3.31-.62-3.64-1.73l1.2-4.79c2.98-.08,3.98.78,4.69,3.76.51,2.12.12,3.11-2.25,2.76Z"/>
        <path class="cls-6" d="m274.87,422.27c.86,1.61,1.29,2.85-.71,3.65-2.65,1.06-5.86-.65-8.01-2.12l2.99-2.39c1.83-2.3,4.51-1.39,5.72.87Z"/>
        <path class="cls-6" d="m266.75,367.55c.08,1.98-1.74,4.25-3.9,3.99-2.67-.32-2.73-2.93-3.88-4.61l3.59-1.8c2.06,0,4.07-.38,4.19,2.42Z"/>
        <path class="cls-6" d="m239.82,395.06l1.2-2.39c1.55,0,3.73-.63,4.22,1.18.44,1.64-.81,3.94-2.54,4.28-1.53.31-3.88-1.29-3.42-3.01.18-.02.37-.04.55-.05Z"/>
        <path class="cls-6" d="m257.77,427.12c-.3,2.46-2.24,2.73-4.38,2.74-1.92,0-5.43,0-6.99-1.27l7.18-2.99c1.43-1.67,4.47-.78,4.19,1.53Z"/>
        <path class="cls-6" d="m248.48,371.12c-1.2-.59-1.34-3.33-.28-4.19,1.72,0,4.01-.46,3.67,2.08-.16,1.21-2.14,2.73-3.39,2.11Z"/>
        <path class="cls-6" d="m265.56,331.02l2.39-1.8c.62-.46,1.31-1.32,2.09-1.19.59.1,1.35,1.23,1.66,1.75.51.88.67,1.33-.05,1.87-.79.59-5.31.12-6.1-.64Z"/>
        <path class="cls-6" d="m252.97,348.63c-.8,1.6-4.47.94-5.97.94l2.39-3.59c.08,1.41,5.04-.29,3.58,2.65Z"/>
        <path class="cls-6" d="m234.43,367.53l1.8-1.2c.03-.17.06-.33.09-.5.99-.35,2.27-.42,3.33-.65,1.01-.22,3.13-.48,3.72.58,1.05,1.88-2.09,4.39-3.54,4.76-1.95.5-5.19-.63-5.4-3Z"/>
        <path class="cls-6" d="m234.99,389.71c1.7,4.01-6.26,7.73-8.34,4.15l.6-2.99c2.65.26,4.97-1.7,7.74-1.16Z"/>
        <path class="cls-6" d="m231.44,425.59l2.99-2.39c.63-.55,1.84-1.4,2.72-1.25.91.16,1.12.87,1.34,1.83.94,4.01-5.02,4.45-7.06,1.81Z"/>
        <path class="cls-6" d="m218.31,395.89c-2.03-.07-3.17-2.45-4.23-3.82l2.99-3.59c1.56-.44,3.4,1.84,3.62,3.06.31,1.68-.14,4.43-2.38,4.36Z"/>
        <path class="cls-6" d="m221.26,365.73l1.8-1.8c2.46.03,4.23.53,4.25,3.52.03,5.07-7.35,1.42-6.05-1.73Z"/>
        <path class="cls-6" d="m234.08,342.96c-1.5.14-3.9-.64-5.04-1.76l3.59-1.8c1.34.16,5.79-2.06,6.09.56.23,2.05-3.18,2.87-4.65,3Z"/>
        <path class="cls-6" d="m248.8,330.42l1.2-2.39c1.44,0,4.05-.52,3.66,1.8-.37,2.18-4.5,3.61-4.85.6Z"/>
        <path class="cls-6" d="m212.83,364.51c-1.65,1.65-4.56-.06-5.93-1.17l-.6-1.8c.93-.13,1.36-.9,2.12-1.15.78-.26,3.21-.29,3.91,0,1.57.66,1.66,2.94.49,4.11Z"/>
        <path class="cls-6" d="m226.65,331.62l2.39-2.39c1.81,2.11,5.13-1.21,7.2.16.38,5.1-10.22,4.67-9.6,2.23Z"/>
        <path class="cls-6" d="m210.56,392.58c-.35.23-2.12.24-2.51.13-.9-.25-.95-.96-1.75-1.24l3.59-1.8c1.72-.57,1.58,2.31.67,2.9Z"/>
        <path class="cls-6" d="m218.27,429.18l4.19-3.59c1.44,0,4.44,1,4.82,2.73.6,2.7-8.7,3.04-9.01.86Z"/>
        <path class="cls-6" d="m188.8,410.58c-.87-.42-1.69-1.59-.46-2.34l2.39-2.99c.9,0,1.8.01,2.69,0,1.4-.02,1.91-.32,2.47,1.14.84,2.19-1.9,3.75-3.81,4.21-.79.19-2.52.36-3.28-.01Z"/>
        <path class="cls-6" d="m205.7,427.39v-2.39c.03.17.07.33.1.5,1.84.61,5.24-1.45,6.23.14,1.34,2.15-1.98,3.97-3.68,4.08-2.11.14-2.69-.49-2.65-2.32Z"/>
        <path class="cls-6" d="m173.38,411.82l4.79-2.39c2.04.02,4.31,0,4.19,2.78-.22,5.37-9.79,4.96-8.98-.39Z"/>
        <path class="cls-6" d="m200.96,416.9c-.4,2.66-6.65,4.16-6.04.31l2.39-2.39c2.08,0,4.05-.68,3.64,2.08Z"/>
        <path class="cls-6" d="m194.7,391.17c-1.33.66-4.66.67-4.57-1.49l4.19-1.8c.88,0,1.43-.27,1.86.52.56,1.04-.69,2.37-1.49,2.77Z"/>
        <path class="cls-6" d="m173.75,397.43c-1.51-.35-1.74-2.5-2.77-3.56l2.39-2.39c.93-.44,1.4-.62,2.5-.61,2.2.03,3.35.21,2.9,2.76-.33,1.85-2.89,4.31-5.02,3.81Z"/>
        <path class="cls-6" d="m196.12,366.33l-3.59.6c-1.96.63-1.12-1.88-.56-2.71,1.02-1.52,4.46-3.22,6.17-1.77,1.63,1.39-.39,3.67-2.02,3.88Z"/>
        <path class="cls-6" d="m216.5,334.62c-1.35-.02-3.87.61-4.82-.61l2.99-3.59c.93.14,1.76.44,2.69.58,1.18.17,2.17.73,2.16,2.12-.02,1.75-1.61,1.53-3.02,1.5Z"/>
        <path class="cls-6" d="m183.55,363.34c.84.18,1.54-.36,2.3-.55.57,1.37.15,3.7-.79,4.77-.94,1.07-2.3,1.76-3.56.84-1.3-.94-1.06-3.62-.95-5.06h2.99Z"/>
        <path class="cls-6" d="m197.32,338.2l2.99-2.99c.93-.87,3.2-2.07,4.08-.48,1.72,3.14-5.57,3.48-7.07,3.47Z"/>
        <path class="cls-6" d="m190.1,351.75c1.51,4.27-7.53,3.22-9.54,3.22l4.79-3.59c1.31.33,3.88-2.1,4.75.38Z"/>
        <path class="cls-6" d="m174.02,366.06c-.22,1.5-3.76,2.22-4.24.27v-1.2c1.32-1.17,4.67-2.11,4.24.93Z"/>
        <path class="cls-6" d="m156.63,391.06c.2-.06.39-.12.59-.18l3.59-2.39c2.03-.54,2.66,2.6,2.39,3.98-.75,3.79-6.75,2.25-6.56-1.4Z"/>
        <path class="cls-6" d="m143.66,398.63c-2.58.74-3.76-.56-3.8-2.97l2.39-2.39c1.92.03,3.56-.06,3.66,2.37.07,1.64-.6,2.51-2.25,2.99Z"/>
        <path class="cls-6" d="m148.84,416.61l1.8-5.39c-.17,1.67,2.09,1.01,3,1.58,1.06.66,1.03,1.32,1.2,2.51.17,1.23.96,4.19.64,5.36-.5,1.83-2.66,1.6-4.13.8-2.06-1.12-2.51-2.76-2.51-4.86Z"/>
        <path class="cls-6" d="m131.53,393.81c.42.94-.39,2.35-1.31,2.57-1.86.43-3.44-1.04-4.13-2.51,1.35.03,4.67-1.76,5.44-.06Z"/>
        <path class="cls-6" d="m158.69,368.18c-1.21-.13-1.16-1.6-2.67-1.25l1.2-2.99c1.04,1.27,5.84-.48,4.72,2.09-.38.86-2.24,2.27-3.24,2.16Z"/>
        <path class="cls-6" d="m185.35,332.81l3.59-1.8c.81.62,3.55,1.79,3.09,3.02-.84,2.24-5.21-1.05-6.68-1.22Z"/>
        <path class="cls-6" d="m135.03,363.3c1.24-.03,2.52,1.52,3.63.64l2.99-1.8c1.15.01,2.36-.35,3.17.51.94,1.01.52,3.96-.3,4.94-2.36,2.83-2.8-2.49-5.27-1.01-1.07.64-1.53,2.12-3.01,2.18-1.39.06-2.09-1.47-2.35-2.73-.28-1.4-.42-2.7,1.12-2.73Z"/>
        <path class="cls-6" d="m169.19,332.81l2.99-1.2c1.18,1.34,3.75.33,5.33.64,1.92,3.2-9.13,5.14-8.33.55Z"/>
        <path class="cls-6" d="m135.07,345.38c.83.01,2.04-.31,2.67.32.95.96.15,2.32-.7,3.01-.88.71-1.76,1.15-2.7.54-.56-.36-1.28-2.39-2.12-3.06l2.85-.82Z"/>
        <path class="cls-6" d="m132.22,346.2l-1.34.38c.47-.74.92-.72,1.34-.38Z"/>
        <path class="cls-6" d="m114.12,337l1.8-2.99c2.17.04,4.07.26,3.66,3.15-.44,3.05-6.44,3.29-5.45-.16Z"/>
        <path class="cls-6" d="m159.01,330.42c1.42,0,4.75-.35,3.3,2.09-1.51,2.55-7.77,3.06-7.49-.9l4.19-1.2Z"/>
        <path class="cls-6" d="m139.32,335.14c-1.7.56-3.25.27-4.25-1.13v-2.39c1.35,0,4.79-.56,5.77.71.85,1.11-.39,2.45-1.53,2.82Z"/>
        <path class="cls-6" d="m124.85,365.08c-2.08-.08-3.25-1.9-4.14-3.54l1.8-1.2c1.69,0,3.87-.51,4.72,1.45.72,1.66-.78,3.35-2.37,3.29Z"/>
        <path class="cls-6" d="m103.95,356.76l3.59-2.99c1.74.9,2.67,1,2.43,3.36-.16,1.48-.75,2.01-2.42,1.96-1.67-.05-2.49-1.25-3.6-2.33Z"/>
        <path class="cls-6" d="m117.85,390.93c-1.87.3-2.45-2.39-2.53-3.64l1.8-2.99c1.45.87,3.31.05,3.67,2.16.26,1.51-1.37,4.23-2.94,4.48Z"/>
        <path class="cls-6" d="m100.95,386.68l2.99-2.39c.33,1.53,2.31,1.62,1.86,3.59-.32,1.41-2.21,1.92-3.6,1.86-1.76-.08-1.27-1.59-1.25-3.06Z"/>
        <path class="cls-6" d="m110.53,419.6l2.99-2.99c.66,1.42.98,3.72.68,5.4-.33,1.87-2.16,2.35-3.76,1.3-1.13-.74-2.04-3.88.09-3.71Z"/>
        <path class="cls-6" d="m140.46,416.01l2.99-4.19c.03.16.07.32.1.48,1.95.34,2.97,1.43,2.36,3.57-.63,2.18-5.97,3.32-5.45.14Z"/>
        <path class="cls-6" d="m184.16,430.94c-2.4-.69-1.75-2.79-1.8-4.75l5.99-1.2c1.44,1.11,3.57,3.28,1.58,4.8-1.49,1.14-3.98,1.66-5.77,1.14Z"/>
        <path class="cls-6" d="m281.82,405.74c1.06.14,2.71.3,2.26,1.87-.73,2.52-5.75,2.9-7.71,2.33-.11-.76-.02-1.53-.03-2.3l5.39-2.39c.03.17.07.33.1.5Z"/>
        <path class="cls-6" d="m335.37,459.83c1.23,2.12-1.67,3.3-3.32,3.75-3.78,1.02-2.92-1.34-2.45-3.87l-1.2-1.2c2,0,5.75-.77,6.97,1.32Z"/>
        <path class="cls-6" d="m379.89,430.51c-.02,1.88-1.82,5.05-4.14,4.61-.15-.51-.09-1.13-.14-1.66-.7-.25-1.6-.08-2.32-.09l4.79-5.99c1.82-.57,1.82,2.05,1.8,3.13Z"/>
        <path class="cls-6" d="m285.31,380.7l1.2-1.8c1.22,0,6.31-.25,6.07,1.81-.33,2.75-6.15.5-7.27-.02Z"/>
        <path class="cls-6" d="m116.8,377.7c-1.2-.38-1.65-1.91-2.08-2.99l.6-1.2c.56-.16,1.92.41,2.41.58.78.27,1.82.71,1.9,1.62.11,1.34-1.69,2.35-2.82,1.99Z"/>
        <path class="cls-6" d="m293.88,344.29c.13-.03.27-.07.41-.1l4.19-2.39c1.4-1.59,3.95-.51,2.89,1.66-1.25,2.56-6.01,3.5-7.48.83Z"/>
      </g>
      <path class="cls-11" d="m354.52,118.44c10.22,13.66-8.38,19.67-8.38,19.67,0,0,11.86,15.99,15.94,22.9,4.05,6.91,20.57,24.94,10.14,25.63-10.18.7-18.77-4.05-19.26-4.29.65.98,11.08,16.93,20.28,20.16,9.49,3.39,25.1,13.37,25.1,13.37l-14.84,6.38s.9-.04,2.49-.08l19.79-5.68s-4.33-2.7-9.08-5.76c-4.78-3.07-27.96-17.38-27.96-17.38,0,0,14.68,2.37,15.7-7.15,1.02-9.57-24.53-44.65-24.53-44.65,17.38-9.89-4.46-40.89-4.46-40.89,19.79-8.18,0-37.82,0-37.82,31.03,1.02,16.35-30.34,16.35-30.34,19.79,10.59,28.62-13.94,28.62-13.94,15.7,7.81,19.09-5.93,19.09-5.93,6.83,9.08,18.07,2.17,18.07,2.17,0,0-4.46,16.35-8.87,43.95-4.42,27.6-2.04,140.03,9.61,150.46,11.65,10.38,49.68,37.61,74.21,29.72,14.43-4.66,26.08-17.38,33.24-27.03,2.82-9.81-.53-7.28-7.81,2.94-8.91,12.55-43.01,16.97-43.01,16.97,0,0-43.3-18.97-47.75-35.41-4.5-16.44-9.81-103.36-9.94-127.28-.12-23.14,5.19-64.68,5.48-67.22-1.06,1.59-12.27,18.03-20.77-1.92,0,0-9.53,26.13-29.11,7.48,0,0,5.72,25.14-33.61,12.55,0,0,6.75,24.29-2.82,32.1-9.2,7.48-19.95.41-20.85-.2.61.94,10.39,16.35,13.62,26.98,3.35,10.96-12.1,12.76-12.1,12.76,0,0,7.24,13.08,17.42,26.78Z"/>
      <path class="cls-7" d="m355.46,100.66s21.83,30.99,4.46,40.89c0,0,25.55,35.08,24.53,44.65-1.02,9.53-15.7,7.15-15.7,7.15,0,0,23.18,14.31,27.96,17.38,4.74,3.07,9.08,5.76,9.08,5.76l-19.79,5.68c8.3-.25,35.2-.82,45.67,1.51,12.43,2.82,28.21,6.01,35.57,14.19,7.32,8.14,18.44,15.45,28.91,12.14,0,0,39.74-10.1,46.73-29.4,1.31-3.6,2.25-6.46,2.9-8.71-7.15,9.65-18.81,22.36-33.24,27.03-24.53,7.89-62.55-19.34-74.21-29.72-11.65-10.43-14.02-122.86-9.61-150.46,4.42-27.6,8.87-43.95,8.87-43.95,0,0-11.24,6.91-18.07-2.17,0,0-3.39,13.74-19.09,5.93,0,0-8.83,24.53-28.62,13.94,0,0,14.68,31.36-16.35,30.34,0,0,19.79,29.64,0,37.82Z"/>
      <path class="cls-5" d="m460,246.82s4.56-24.95,2.59-50.74c-1.97-25.79-10.2-11.41-24.25,13.11-10.46,18.25-15.85,50.68,2.75,50.44,18.6-.24,18.9-12.81,18.9-12.81Z"/>
      <path class="cls-9" d="m454.81,245.51s7.03-13.54,5.38-33.41c-1.66-19.86-.12-22.15-5.26-15.11s-13.9,43.97-12.45,48.13c1.45,4.17,5.87,7.79,12.33.38Z"/>
    </g>
  </g>
</svg>