<?xml version="1.0" encoding="UTF-8"?>
<svg id="Layer_2" data-name="Layer 2" xmlns="http://www.w3.org/2000/svg" viewBox="0 0 493.56 122.89">
  <defs>
    <style>
      .cls-1 {
        fill: #6484b2;
      }

      .cls-1, .cls-2, .cls-3, .cls-4, .cls-5, .cls-6, .cls-7, .cls-8, .cls-9 {
        stroke-width: 0px;
      }

      .cls-2 {
        fill: #fff;
      }

      .cls-3 {
        fill: #939598;
      }

      .cls-4 {
        fill: #a7a9ac;
      }

      .cls-5 {
        fill: #231f20;
      }

      .cls-6 {
        fill: #f1f2f2;
      }

      .cls-7 {
        fill: #d1d3d4;
      }

      .cls-8 {
        fill: #3c5a7f;
      }

      .cls-9 {
        fill: #769ecc;
      }
    </style>
  </defs>
  <g id="BLUE_WHALE" data-name="BLUE WHALE">
    <g>
      <path class="cls-3" d="m493.53,77.29c-.1.11-.43.15-1.04.1-6.91-.58-24.19-1.11-35.71.02-11.52,1.13-32.26-2.33-32.26-2.33,0,0-11.52,3.19-22.28,2.55-10.75-.63-32.26-4.47-41.47-1.79-8.78,2.56,16.94-13.68,56.89-14.4,2.08,1.22,4.36,2.51,6.86,3.84,0,0,20.02,4.14,34.85,4.28,8.96.08,23.81,4.35,34.16,7.72Z"/>
      <path class="cls-1" d="m493.53,77.29c-10.35-3.37-25.2-7.64-34.16-7.72-14.83-.14-34.85-4.28-34.85-4.28-2.5-1.34-4.78-2.62-6.86-3.84,2-.04,4.03-.04,6.1,0,0,0,15.16,3.26,31.29,4.41,14.72,1.05,39.52,10.26,38.48,11.42Z"/>
      <path class="cls-1" d="m426.3,66.17s-1.28.23-3.51.67c-.41-.18-.82-.33-1.22-.44-20.8-8.04-75.16,3.79-105.4,7.09-22.21,2.43-36.26-1.25-48.5-3.28-4.5-2.16-8.71-3.39-11.06-2.86-.67.15-1.26.75-1.84,1.69-16.01.26-29.36-2.16-46.38-.27-17.02,1.89-26.94-6.62-38.29-12.64-11.34-6.02-39.71,1.3-60.98,2.72-13.83.92-29.64,2.44-45.77,2.23,2.02-1.82,4.38-2.92,6.54-3.18,8.04-.94,70.9-7.09,89.81-9.93,18.91-2.84,25.05,15.6,39.23,13.48,14.18-2.13,19.38-8.75,16.55-9.22-2.84-.47-4.25,5.67-15.6,4.25-11.34-1.42-16.07-12.76-28.84-15.6s-72.32,10.4-114.86,6.97c-42.54-3.43-52.47,0-52.47,0,0,0-.35-5.23,6.78-10.1,3.64,1.99,19.16,7.98,67.67,2.73,57.43-6.21,81.54-11.34,107.77-11.61,26.23-.27,12.76,5.23,46.8,0s64.66,5.78,112.98,6.86c48.31,1.08,67.36,16.04,79.64,25.73h0c.55,1.54.86,3.11.94,4.72Z"/>
      <path class="cls-8" d="m198.94,61.45c-14.18,2.12-20.32-16.31-39.23-13.48-18.91,2.84-81.77,8.98-89.81,9.93-2.16.26-4.52,1.36-6.54,3.18-8.69-.11-17.48-.74-26.08-2.23-19.26-3.33-32.42-2.81-37.22-2.44-.36-4.86.79-8.12,3.66-8.56,0,0,9.93-3.43,52.47,0,42.54,3.43,102.1-9.81,114.86-6.97s17.49,14.18,28.84,15.6c11.34,1.42,12.76-4.72,15.6-4.25,2.84.48-2.37,7.1-16.55,9.22Z"/>
      <path class="cls-3" d="m422.79,66.84s-.1.02-.15.03c-.34-.17-.7-.33-1.07-.47.4.11.81.26,1.22.44Z"/>
      <path class="cls-7" d="m254.78,69.04c-3.07,5.03-5.39,19.82-13.76,26.2-9.93,7.57-44.43,17.49-71.38,17.96-26.94.47-90.28-7.56-104.46-24.57-10.37-12.45-7.34-22.63-1.82-27.55,16.13.21,31.95-1.3,45.77-2.23,21.27-1.42,49.63-8.74,60.98-2.72,11.34,6.02,21.27,14.53,38.29,12.64,17.02-1.89,30.37.53,46.38.27Z"/>
      <path class="cls-4" d="m422.64,66.87c-11.27,2.2-45.69,9.25-61.57,16.31-19.14,8.51-65.94,39.71-207.04,39.71,0,0-104.23,0-126.92-19.14C10.98,90.13.94,68.38.06,56.4c4.8-.38,17.96-.89,37.22,2.44,8.6,1.49,17.39,2.11,26.08,2.23-5.52,4.93-8.56,15.1,1.82,27.55,14.18,17.02,77.52,25.05,104.46,24.57,26.94-.47,61.45-10.39,71.38-17.96,8.37-6.38,10.69-21.16,13.76-26.2,4.26-.07,8.46.45,12.9,1.18,3.65,1.75,7.49,4.11,10.68,6.63,7.09,5.63,19.38,11.17,40.66,4.62,21.27-6.56,85.55-19.79,102.57-15.07.37.14.73.3,1.07.47Z"/>
      <path class="cls-7" d="m421.57,66.4c-17.02-4.72-81.3,8.51-102.57,15.07-21.27,6.55-33.57,1.01-40.66-4.62-3.18-2.52-7.03-4.88-10.68-6.63,12.24,2.03,26.29,5.71,48.5,3.28,30.25-3.3,84.6-15.13,105.4-7.09Z"/>
      <path class="cls-9" d="m425.36,61.45c-12.28-9.69-31.32-24.65-79.64-25.73-48.32-1.08-78.95-12.09-112.98-6.86s-20.56-.27-46.8,0c-26.23.27-50.34,5.4-107.77,11.61-48.51,5.25-64.03-.74-67.67-2.73,2.92-1.99,7.1-3.93,13.07-5.42,20.56-5.15,70.9-21.46,82.96-25,0,0,14.18-4.25,25.52-3.55,11.34.71,26.94-4.96,56.01-3.55,29.07,1.42,56.01,7.09,94.66,10.64,36.73,3.37,132.11,20.84,142.63,50.58Z"/>
      <circle class="cls-6" cx="203.97" cy="45.67" r="7.39"/>
      <circle class="cls-5" cx="202.5" cy="44.97" r="5.2"/>
      <circle class="cls-2" cx="207.1" cy="42.18" r="2.48"/>
      <path class="cls-4" d="m156.54,59.79s.91-.19,2.62-.06c1.71.13,4.21.59,7.21,1.72,3,1.13,6.5,2.9,10.23,5.33,3.75,2.35,8.56,3.9,13.87,5.07,5.33,1.15,11.22,1.87,17.46,2.27,6.25.39,12.85.44,19.67.2,3.41-.12,6.87-.35,10.37-.68.88-.09,1.76-.18,2.65-.26.88-.07,1.77-.14,2.66-.21.88-.1,1.8-.07,2.7-.1.91-.02,1.82-.06,2.72-.02,7.25.11,14.53,1.12,21.77,2.04,7.24.97,14.47,1.83,21.63,2.19,7.15.38,14.21.26,21.01-.28,6.83-.54,13.36-1.35,19.58-2.25,6.2-.9,12.05-1.89,17.44-2.84,5.39-.96,10.34-1.83,14.73-2.55,4.4-.7,8.24-1.29,11.42-1.6,1.59-.2,3.02-.25,4.26-.35,1.24-.02,2.3-.04,3.16-.06,1.71.1,2.62.16,2.62.16,0,0-.91-.03-2.62-.08-.85.04-1.91.09-3.15.15-1.23.14-2.65.23-4.24.46-3.17.38-6.99,1.05-11.36,1.85-4.37.84-9.3,1.79-14.68,2.82-5.38,1.03-11.23,2.09-17.43,3.08-6.2.98-12.8,1.91-19.62,2.45-6.86.58-13.97.73-21.18.38-7.21-.33-14.5-1.16-21.74-2.11-7.24-.96-14.47-1.99-21.6-2.12-.89-.05-1.77,0-2.66,0-.88.03-1.75,0-2.65.09-.89.07-1.77.13-2.66.2-.88.08-1.75.17-2.63.25-3.52.32-7.01.53-10.44.64-6.86.23-13.51.07-19.79-.4-6.28-.48-12.19-1.28-17.56-2.52-5.35-1.24-10.21-2.93-13.97-5.4-3.68-2.51-7.1-4.33-10.05-5.52-2.96-1.18-5.42-1.73-7.12-1.9-1.7-.18-2.61-.01-2.61-.01Z"/>
      <path class="cls-4" d="m136.31,59.7s.88.06,2.51.24c1.63.19,4.03.48,7.06,1.06,3.01.59,6.68,1.4,10.72,2.9,2.01.77,4.13,1.69,6.17,3.06,1.03.67,2.01,1.47,2.89,2.44.23.24.44.49.63.76.2.27.41.53.57.83.16.28.33.56.5.84.08.15.17.28.25.37.09.11.16.22.27.33.82.89,1.96,1.56,3.15,2.14,1.21.57,2.5,1.03,3.84,1.44,2.68.82,5.53,1.41,8.49,1.92,5.91.99,12.23,1.56,18.78,1.98,6.55.4,13.33.57,20.21.48,3.44-.05,6.91-.16,10.36-.44.86-.07,1.72-.15,2.57-.26.43-.05.85-.11,1.27-.18l1.29-.22c.86-.15,1.72-.3,2.62-.39.89-.11,1.78-.22,2.66-.29,3.53-.31,7.05-.44,10.56-.48,3.51-.05,7-.02,10.46.07,6.92.18,13.73.56,20.3,1.12,3.28.29,6.51.57,9.66.96.78.09,1.56.18,2.33.27.78.07,1.55.14,2.33.21.77.05,1.54.17,2.29.17.75.02,1.5.04,2.25.06,5.97.12,11.66-.3,16.88-.83,5.22-.56,9.99-1.27,14.2-1.94,4.22-.69,7.88-1.39,10.89-1.98,3.01-.62,5.37-1.1,6.97-1.47,1.6-.37,2.46-.56,2.46-.56,0,0-.85.23-2.44.66-1.59.42-3.93,1.02-6.92,1.71-2.99.68-6.64,1.49-10.84,2.3-4.21.79-8.97,1.65-14.21,2.28-5.24.63-10.94,1.16-17.03,1.13-.76,0-1.53-.02-2.31-.03-.78,0-1.53-.09-2.31-.13-.77-.06-1.55-.11-2.33-.17-.79-.08-1.58-.16-2.37-.23-3.14-.32-6.36-.62-9.63-.87-6.54-.52-13.32-.85-20.21-1-3.44-.07-6.91-.08-10.39-.01-3.48.06-6.97.22-10.43.53-.87.06-1.72.16-2.57.27-.85.08-1.72.23-2.58.37l-1.3.22c-.45.07-.89.13-1.33.18-.89.11-1.77.18-2.65.25-3.52.26-7.01.35-10.48.39-6.93.05-13.75-.16-20.33-.6-6.58-.43-12.94-1.15-18.9-2.24-2.98-.56-5.87-1.22-8.6-2.1-1.37-.45-2.7-.95-3.96-1.57-1.25-.64-2.47-1.36-3.43-2.43-.51-.56-.81-1.21-1.11-1.71-.14-.27-.33-.51-.5-.76-.17-.25-.36-.49-.57-.71-.8-.91-1.72-1.69-2.68-2.36-1.91-1.37-3.97-2.33-5.93-3.14-3.94-1.6-7.56-2.5-10.55-3.18-2.99-.65-5.37-1.06-7-1.3-1.63-.24-2.5-.33-2.5-.33Z"/>
      <path class="cls-4" d="m124.61,61.62s.53.06,1.52.16c.99.12,2.45.28,4.29.58,1.84.29,4.08.68,6.62,1.23,2.54.56,5.4,1.26,8.43,2.39,1.51.56,3.07,1.22,4.61,2.1.76.45,1.53.94,2.25,1.55.73.64,1.32,1.29,1.96,1.94,2.54,2.58,5.46,5.03,8.87,6.93,3.41,1.9,7.25,3.29,11.26,4.29,4.01,1,8.2,1.61,12.4,2.02,2.09.24,4.2.35,6.33.51,2.11.08,4.19.22,6.28.25,4.17.12,8.29.13,12.27.1,3.98-.05,7.83-.11,11.49-.21,3.65-.1,7.11-.22,10.3-.35,6.38-.27,11.7-.44,15.42-.58,1.86-.07,3.33-.08,4.33-.09,1,0,1.53,0,1.53,0,0,0-.53.03-1.53.1-.99.08-2.45.19-4.31.34-3.71.28-9.01.8-15.39,1.23-3.19.22-6.64.44-10.3.65-3.66.2-7.52.39-11.52.48-2,.03-4.03.1-6.09.09-1.03,0-2.07,0-3.11.01-1.04-.02-2.09-.04-3.14-.06-2.1-.02-4.23-.14-6.36-.22-2.11-.15-4.25-.24-6.39-.48-4.26-.43-8.53-1.07-12.64-2.13-4.12-1.04-8.07-2.57-11.61-4.6-3.56-2.02-6.52-4.7-9.03-7.39-.62-.66-1.24-1.37-1.83-1.92-.63-.56-1.32-1.04-2.03-1.48-1.43-.87-2.93-1.55-4.39-2.15-2.94-1.16-5.73-2-8.23-2.67-2.5-.67-4.7-1.16-6.53-1.53-3.64-.75-5.75-1.08-5.75-1.08Z"/>
      <path class="cls-4" d="m114.69,61.62s.55.11,1.58.32c1.03.22,2.53.54,4.43,1.05,1.9.5,4.19,1.15,6.79,2.02,2.59.88,5.51,1.95,8.54,3.49,1.52.77,3.07,1.65,4.58,2.73.38.26.76.55,1.12.86.38.29.73.63,1.08.96.36.32.68.72,1.03,1.08.3.41.65.78.91,1.24l.41.67.33.73c.18.36.39.92.62,1.25l.34.52.43.52c.28.36.65.66.98.98,1.44,1.22,3.18,2.21,5.04,3.03,3.74,1.65,7.92,2.68,12.19,3.51,4.28.81,8.69,1.35,13.12,1.65,2.21.16,4.43.27,6.63.3,1.1.02,2.2.01,3.3,0,1.11-.03,2.21-.07,3.31-.1,4.45-.1,8.8.1,13,.29,4.2.19,8.25.5,12.09.8,3.84.29,7.46.63,10.81.96,3.34.32,6.4.66,9.12.97,2.71.32,5.07.6,7.02.83,1.94.24,3.47.45,4.51.6,1.04.15,1.59.22,1.59.22,0,0-2.23-.15-6.14-.41-1.95-.13-4.33-.28-7.05-.46-2.72-.16-5.79-.34-9.14-.54-6.7-.38-14.51-.83-22.88-1.1-4.18-.14-8.5-.22-12.86-.11-1.1.04-2.21.08-3.32.12-1.12.03-2.25.04-3.37.03-2.25-.02-4.51-.11-6.76-.27-4.5-.34-8.99-.9-13.36-1.76-4.37-.86-8.64-2.03-12.57-3.82-1.95-.91-3.83-1.99-5.44-3.44-.38-.39-.78-.75-1.11-1.18l-.5-.64-.45-.74c-.3-.51-.4-.88-.64-1.4l-.25-.6-.33-.57c-.89-1.53-2.27-2.75-3.64-3.83-1.39-1.08-2.86-1.99-4.3-2.79-2.9-1.6-5.72-2.82-8.24-3.83-2.53-1-4.77-1.77-6.63-2.37-1.86-.59-3.33-1.05-4.34-1.33-1.01-.28-1.55-.43-1.55-.43Z"/>
      <path class="cls-4" d="m108.12,63.65s.58.11,1.67.31c1.08.22,2.68.55,4.67,1.09,2,.53,4.41,1.25,7.11,2.29,2.68,1.06,5.73,2.38,8.54,4.77l.53.45.48.52c.31.35.67.71.94,1.07.57.73,1.15,1.46,1.74,2.19,1.2,1.45,2.47,2.93,3.88,4.34,2.82,2.81,6.17,5.38,10.03,7.3,3.83,1.98,8.18,3.2,12.67,3.89l1.67.25,1.74.17,1.75.17,1.74.11c2.31.17,4.66.26,7.01.36,4.7.19,9.4.33,14.04.43,4.64.12,9.2.23,13.62.34,4.42.11,8.69.25,12.74.4,4.05.14,7.88.32,11.42.53,3.53.18,6.77.44,9.64.68,2.87.27,5.36.5,7.41.77,2.05.21,3.65.51,4.74.69,1.09.18,1.67.27,1.67.27,0,0-.59-.06-1.69-.16-1.1-.11-2.71-.27-4.77-.39-2.05-.16-4.55-.27-7.42-.39-2.87-.08-6.1-.18-9.64-.25-1.77-.04-3.6-.07-5.51-.09-1.9-.02-3.87-.05-5.9-.08-4.05-.04-8.32-.07-12.74-.11-4.42-.05-8.99-.06-13.63-.16-4.64-.08-9.36-.19-14.08-.36-2.36-.12-4.72-.22-7.09-.4l-1.77-.12-1.75-.18-1.74-.18c-.63-.08-1.18-.18-1.78-.27-4.67-.73-9.21-2.12-13.21-4.25-2.02-1.02-3.88-2.27-5.61-3.58-1.72-1.33-3.27-2.79-4.7-4.27-1.42-1.5-2.69-3.04-3.86-4.56-.59-.77-1.14-1.53-1.68-2.27-.27-.39-.56-.67-.83-1.01l-.41-.49-.48-.43c-2.52-2.3-5.45-3.77-8.03-4.94-2.61-1.16-4.97-1.99-6.92-2.62-1.96-.62-3.51-1.08-4.58-1.37-1.07-.27-1.64-.42-1.64-.42Z"/>
      <path class="cls-4" d="m102.57,64.39s-.01.15.02.44c.04.29.14.71.38,1.21.48,1,1.69,2.2,3.59,3.01.24.1.48.2.73.3.25.1.52.17.8.26.54.19,1.13.3,1.74.44.61.14,1.26.21,1.92.32.68.12,1.38.24,2.1.37,2.94.68,6.02,2.02,9.12,3.95,3.09,1.93,6.19,4.43,9.06,7.49,1.44,1.52,2.8,3.21,4.01,5.09.32.46.58.97.86,1.46l.39.69c.07.12.14.25.21.35l.2.28c.56.77,1.33,1.51,2.16,2.14,1.68,1.29,3.68,2.27,5.77,3.1,2.1.82,4.3,1.46,6.55,1.99,4.51,1.04,9.23,1.59,13.93,1.56,2.33,0,4.72-.24,7.12-.3,2.42-.08,4.8-.09,7.16-.11,4.72-.02,9.37.06,13.86.15,4.49.08,8.84.23,12.95.38,4.12.14,8.01.32,11.6.52,3.59.18,6.88.39,9.79.61,2.91.2,5.45.42,7.54.61,1.04.11,1.98.21,2.79.29.81.11,1.49.21,2.05.29.56.07.98.21,1.26.26.28.06.43.1.43.1,0,0-.15-.02-.44-.07-.29-.03-.71-.14-1.27-.17-.56-.04-1.25-.09-2.06-.15-.81-.04-1.75-.08-2.79-.13-2.09-.09-4.63-.18-7.55-.23-2.92-.05-6.21-.11-9.8-.18-3.59-.05-7.48-.1-11.59-.15-4.11-.03-8.45-.06-12.94-.09-4.49-.04-9.12,0-13.83.03-2.35.03-4.72.06-7.07.15-1.17.02-2.38.12-3.57.18-1.18.09-2.43.15-3.64.15-4.88,0-9.74-.6-14.41-1.69-2.34-.55-4.62-1.26-6.82-2.16-2.19-.91-4.31-1.98-6.18-3.46-.94-.74-1.79-1.56-2.51-2.6l-.27-.4c-.08-.13-.14-.24-.21-.36l-.4-.75c-.25-.46-.47-.93-.76-1.37-1.08-1.79-2.35-3.44-3.7-4.94-1.35-1.5-2.74-2.9-4.19-4.15-.7-.65-1.45-1.21-2.16-1.8-.74-.55-1.46-1.1-2.2-1.58-2.93-1.96-5.89-3.42-8.62-4.2-.71-.16-1.39-.32-2.05-.46-.68-.15-1.33-.25-1.95-.43-.62-.17-1.21-.32-1.76-.54-.27-.1-.55-.19-.8-.3-.25-.12-.5-.23-.74-.35-1.94-.92-3.1-2.28-3.52-3.33-.21-.53-.28-.96-.3-1.25-.01-.29.01-.44.01-.44Z"/>
      <path class="cls-4" d="m95.9,64.4s.15.6.61,1.64c.47,1.04,1.26,2.53,2.57,4.19,1.32,1.65,3.19,3.43,5.66,5,.62.38,1.28.74,1.96,1.1.71.33,1.45.67,2.2,1.02.76.36,1.53.69,2.32,1.17.4.22.79.45,1.2.68.39.24.78.49,1.17.74,3.14,2.01,6.3,4.51,9.48,7.3,3.2,2.76,6.46,5.79,9.89,8.76,1.72,1.48,3.49,2.95,5.37,4.2l.35.24.09.06s.13.08-.05-.03l.05.03.2.1c.25.12.55.3.77.37l.67.22c.21.08.52.14.78.21.53.14,1.09.26,1.66.36.56.12,1.14.19,1.72.28,4.66.63,9.54.81,14.4.94,4.87.15,9.75.18,14.56.19,4.81.02,9.55.04,14.14.06,4.59.02,9.03.1,13.24.23,4.22.13,8.2.33,11.89.76,1.84.2,3.65.53,5.26.91.82.19,1.61.35,2.38.5.77.16,1.52.3,2.25.43,2.92.52,5.49.88,7.61,1.09,2.12.2,3.8.29,4.95.29,1.15,0,1.76-.05,1.76-.05,0,0-.6.11-1.75.21-1.15.09-2.84.18-4.99.12-2.15-.05-4.76-.22-7.74-.58-.74-.08-1.51-.18-2.3-.3-.79-.11-1.6-.23-2.43-.36-.82-.13-1.68-.28-2.52-.39-.85-.1-1.73-.2-2.64-.25-3.62-.25-7.58-.26-11.77-.27-4.19,0-8.62.1-13.2.15-4.58.05-9.32.17-14.14.18-4.82.02-9.72.02-14.64-.1-4.91-.16-9.83-.37-14.72-1.06-.61-.09-1.22-.18-1.84-.31-.61-.12-1.22-.24-1.84-.42-.32-.09-.59-.14-.94-.27l-1.01-.38c-.34-.13-.54-.28-.82-.41l-.2-.1-.05-.03c-.21-.12-.09-.05-.15-.09l-.09-.07-.38-.27c-2.02-1.41-3.82-2.96-5.54-4.5-3.46-3.09-6.57-6.23-9.65-9.06-3.07-2.84-6.04-5.43-8.98-7.52-.37-.26-.73-.52-1.09-.77-.37-.23-.73-.46-1.09-.68-.7-.47-1.48-.85-2.21-1.26-.74-.4-1.46-.79-2.17-1.17-.69-.42-1.36-.85-1.98-1.28-2.49-1.77-4.28-3.78-5.51-5.56-1.23-1.79-1.88-3.38-2.26-4.46-.38-1.09-.47-1.7-.47-1.7Z"/>
      <path class="cls-4" d="m89.87,64.4s-.02.56.13,1.59c.15,1.03.5,2.52,1.22,4.29.73,1.77,1.89,3.81,3.6,5.84,1.71,2.03,3.99,4,6.74,5.75.35.22.7.43,1.05.65.37.22.74.45,1.11.68.74.46,1.5.87,2.27,1.4,1.55,1.01,3.07,2.13,4.58,3.33,3.04,2.39,6.02,5.11,9.3,7.54,3.27,2.46,6.91,4.56,10.82,6.34,3.9,1.77,8.09,3.19,12.25,4.43,2.18.62,4.2,1.1,6.36,1.5,2.14.39,4.29.7,6.44.92,2.14.24,4.29.38,6.41.53,2.12.11,4.22.2,6.29.23,4.14.06,8.15.05,11.97-.02,3.81-.08,7.43-.15,10.77-.19,6.68-.1,12.29.08,16.16.71,1.94.3,3.43.69,4.42,1.04.5.15.86.34,1.11.43.25.1.38.16.38.16,0,0-.13-.04-.39-.12-.26-.07-.63-.22-1.14-.32-1.01-.26-2.52-.47-4.44-.63-1.93-.15-4.28-.16-6.98-.1-2.7.07-5.74.25-9.06.46-3.32.21-6.93.48-10.75.68-3.82.21-7.87.4-12.06.4-4.19,0-8.55-.07-12.96-.53-2.21-.21-4.43-.52-6.65-.9-2.2-.39-4.51-.91-6.61-1.51-4.35-1.32-8.59-2.8-12.65-4.68-4.06-1.85-7.84-4.22-11.19-6.84-3.37-2.6-6.24-5.46-9.12-7.89-1.43-1.23-2.88-2.35-4.29-3.39-.69-.54-1.46-1.01-2.17-1.5-.36-.24-.71-.48-1.06-.72-.36-.25-.71-.49-1.06-.74-2.79-1.96-5.04-4.2-6.68-6.43-1.66-2.22-2.68-4.44-3.28-6.32-.61-1.88-.79-3.43-.85-4.47-.05-1.05.02-1.6.02-1.6Z"/>
      <path class="cls-4" d="m84.2,64.4s-.05.37-.08,1.06c-.03.69-.02,1.7.1,2.98.03.64.18,1.34.28,2.09.16.75.31,1.56.54,2.41.27.84.48,1.75.89,2.65.18.46.37.92.56,1.4.23.46.47.93.72,1.41.44.98,1.12,1.89,1.72,2.87.29.5.7.93,1.05,1.41.37.47.74.94,1.12,1.43.43.44.86.89,1.3,1.34.45.44.84.94,1.36,1.34.49.42.99.84,1.49,1.27l.75.65c.25.22.54.39.81.59.55.39,1.1.78,1.66,1.17l.84.59c.29.19.6.35.89.52.6.34,1.21.69,1.81,1.04.6.34,1.21.72,1.86,1.06,2.55,1.37,5.15,2.81,7.74,4.28,2.54,1.51,5.08,3.02,7.58,4.51,2.5,1.49,4.91,2.99,7.29,4.36,2.39,1.34,4.69,2.66,6.95,3.73,2.24,1.11,4.43,2.02,6.47,2.8,2.05.74,3.96,1.38,5.69,1.85.43.12.85.24,1.25.36.41.1.8.19,1.17.29.75.19,1.45.36,2.07.52,2.53.54,3.97.84,3.97.84,0,0-.37-.02-1.06-.06-.69-.05-1.71-.1-3-.22-.64-.08-1.36-.17-2.13-.27-.39-.05-.79-.1-1.21-.16-.42-.08-.85-.15-1.29-.24-1.79-.3-3.79-.75-5.95-1.37-2.15-.63-4.47-1.39-6.83-2.42-2.39-.97-4.81-2.17-7.29-3.47-2.45-1.33-4.98-2.7-7.47-4.19-2.51-1.46-5.06-2.94-7.61-4.41-2.53-1.48-5.08-2.93-7.63-4.33-1.25-.69-2.54-1.52-3.77-2.28-.31-.2-.63-.38-.92-.58l-.87-.66c-.58-.44-1.15-.87-1.72-1.3-.28-.22-.58-.41-.84-.66-.26-.24-.52-.48-.78-.72-.51-.48-1.02-.95-1.52-1.42-.52-.45-.92-1.01-1.37-1.51-.44-.51-.87-1.01-1.3-1.51-.38-.54-.75-1.07-1.11-1.59-.35-.53-.75-1.01-1.02-1.58-.57-1.1-1.2-2.11-1.59-3.18-.22-.53-.43-1.04-.64-1.54-.16-.52-.31-1.03-.46-1.53-.33-.98-.46-1.96-.66-2.86-.15-.91-.24-1.76-.3-2.55,0-.79-.08-1.52-.03-2.17.02-.65.05-1.24.12-1.74.05-.5.13-.93.19-1.27.12-.69.23-1.04.23-1.04Z"/>
      <path class="cls-4" d="m76.4,66.17s-.07,1.25.16,3.41c.03.27.06.55.09.85.05.29.1.6.15.92.09.64.24,1.33.39,2.06.13.73.39,1.49.59,2.3.26.79.52,1.63.84,2.48.18.42.35.85.54,1.28.09.22.18.44.27.66.11.21.22.43.33.65.22.43.44.88.67,1.33.21.46.52.87.78,1.32.27.44.53.89.83,1.33.32.42.64.85.96,1.29.61.89,1.38,1.69,2.12,2.53.19.21.37.43.56.63l.62.58c.42.39.84.78,1.26,1.17.4.41.89.74,1.35,1.1.46.36.92.72,1.39,1.09l.35.27.36.25.76.52c.51.35,1.02.7,1.53,1.05,1.02.7,2.05,1.34,3.08,2.01,2.06,1.34,4.16,2.66,6.25,3.9,2.09,1.24,4.13,2.5,6.15,3.65,2.01,1.16,3.96,2.28,5.81,3.35,1.86,1.05,3.61,2.05,5.23,2.97,6.5,3.67,10.84,6.12,10.84,6.12,0,0-.29-.1-.85-.3-.55-.2-1.36-.49-2.38-.89-1.02-.39-2.25-.87-3.66-1.46-1.41-.58-2.99-1.25-4.69-2.02-1.71-.76-3.56-1.6-5.48-2.55-1.93-.94-3.97-1.92-6.03-3.03-1.04-.54-2.09-1.1-3.15-1.69-1.06-.58-2.13-1.16-3.19-1.79-2.13-1.24-4.27-2.53-6.4-3.88-1.04-.7-2.12-1.39-3.13-2.1-.51-.36-1.01-.71-1.51-1.07l-.75-.53-.39-.28-.37-.3c-.98-.81-2-1.55-2.88-2.44-.44-.44-.87-.88-1.31-1.32l-.64-.65c-.2-.23-.39-.47-.58-.7-.75-.95-1.56-1.83-2.15-2.84-.32-.49-.63-.97-.94-1.45-.28-.49-.53-1-.79-1.48-1.07-1.94-1.74-3.93-2.29-5.76-.24-.93-.45-1.82-.62-2.67-.12-.86-.28-1.67-.33-2.44-.06-.77-.14-1.49-.13-2.15,0-.33-.01-.65-.01-.96.01-.3.02-.59.03-.87.03-1.1.16-1.96.24-2.54.09-.58.16-.88.16-.88Z"/>
      <path class="cls-4" d="m67.96,66.17s.01.85.09,2.32c.09,1.47.25,3.55.57,6.02.15,1.24.39,2.56.63,3.96.27,1.39.59,2.85.97,4.34.36,1.5.85,3,1.36,4.53.28.75.53,1.52.85,2.27l.45,1.13.5,1.11c.65,1.49,1.44,2.91,2.22,4.3.42.68.84,1.35,1.26,2.01.45.64.87,1.29,1.34,1.89.93,1.21,1.87,2.35,2.81,3.38.49.51.97,1,1.43,1.47.48.45.95.89,1.4,1.32.44.44.93.78,1.35,1.15.44.36.83.74,1.24,1.03.82.59,1.5,1.17,2.11,1.57,1.21.82,1.9,1.33,1.9,1.33,0,0-.79-.28-2.18-.83-.69-.27-1.49-.69-2.43-1.16-.92-.49-1.94-1.08-3-1.81-.53-.37-1.08-.76-1.64-1.17-.54-.44-1.09-.91-1.66-1.39-.56-.48-1.1-1.03-1.67-1.57-.58-.53-1.07-1.17-1.62-1.77-.54-.61-1.02-1.28-1.55-1.94-.5-.67-.97-1.38-1.45-2.09-.9-1.46-1.74-2.98-2.45-4.56-.73-1.57-1.32-3.21-1.83-4.83-.5-1.63-.88-3.26-1.18-4.84-.33-1.58-.48-3.13-.62-4.6-.12-1.47-.17-2.86-.15-4.14,0-1.28.07-2.45.16-3.48.08-1.03.21-1.93.32-2.66.23-1.47.47-2.29.47-2.29Z"/>
      <path class="cls-4" d="m61.65,66.17s-.06.78-.16,2.15c-.09,1.37-.19,3.31-.28,5.64-.03,1.16-.05,2.42-.06,3.74-.02,1.33.04,2.72.07,4.16.06,1.44.13,2.92.26,4.42.11,1.5.29,3.02.5,4.52.11.75.23,1.5.36,2.25.16.74.27,1.49.44,2.21.33,1.46.67,2.88,1.1,4.24.1.34.21.68.31,1.01.12.33.23.65.34.98.11.32.22.64.33.96.13.31.25.61.37.92.12.3.25.6.37.89.13.29.27.57.4.85.25.56.49,1.11.77,1.61.52,1.02,1.06,1.92,1.54,2.73.5.79.98,1.47,1.35,2.04.83,1.08,1.29,1.73,1.29,1.73,0,0-.63-.47-1.7-1.35-.5-.48-1.14-1.04-1.79-1.76-.32-.37-.66-.75-1.03-1.17-.36-.41-.68-.89-1.04-1.37-.37-.48-.7-1.01-1.06-1.55-.18-.27-.35-.56-.52-.84-.16-.3-.32-.59-.48-.9-.16-.3-.33-.61-.5-.93-.15-.32-.3-.65-.46-.97-.33-.65-.6-1.34-.87-2.05-.29-.7-.52-1.43-.76-2.17-.26-.73-.44-1.5-.65-2.26-.2-.76-.36-1.55-.53-2.33-.14-.79-.28-1.58-.4-2.37-.2-1.59-.38-3.18-.44-4.75-.09-1.57-.07-3.11-.02-4.6.13-2.98.46-5.74.89-8.07.42-2.34.93-4.25,1.34-5.57.41-1.32.71-2.05.71-2.05Z"/>
      <path class="cls-1" d="m251.41,71.43s10.87,10.1,22.22,21.91c11.34,11.82,47.74,16.54,39.23,12.76-8.51-3.78-24.46-18.91-28.77-28.36-4.31-9.45-25.58-14.18-30.31-13.24-4.73.95-5.4,4.05-2.36,6.92Z"/>
      <path class="cls-9" d="m254.78,66.87s16.43,15.35,20.33,19.02c3.9,3.68,18.22,12.81,23.75,13.78,5.53.97-6.91-6.64-11.52-13.78s-7.48-11.99-13.29-15.47c-5.81-3.48-23.28-9.41-19.26-3.55Z"/>
    </g>
  </g>
</svg>