<?xml version="1.0" encoding="UTF-8"?><svg data-name="Layer 2" xmlns="http://www.w3.org/2000/svg" xmlns:xlink="http://www.w3.org/1999/xlink" viewBox="0 0 126.75 53.63"><defs><clipPath id="a"><path d="m126.66,29.96c-1,8.2-11.01,14.67-20.61,14.67,0,0-8.2,3.94-21.21,5.14-13.01,1.2-39.22.22-49.03-9.6-9.81-9.81-17.01-23.26-21.81-27.55,0,0-9.81-.48-12.81-4.68-.31-.44-.56-.84-.75-1.22-.1-.21-.19-.41-.26-.6-.05-.13-.08-.25-.11-.37-.05-.19-.07-.37-.07-.54,0-.07,0-.15,0-.22.14-1.84,2.76-2.52,6.58-2.99C11.99,1.35,11.59.06,16.8,0s9.38.64,12.99,4.98c3.6,4.33,4.22,8.27,12.23,15.68,8,7.4,20.81,11.16,29.42,10.53,8.6-.62,25.21,1.98,35.62,2.58,3.88.22,7.17-.76,9.14-2.19h0c3.31-2.4,2.85-6.03-4.94-7.18-12.41-1.84-24.01-2.94-24.01-8.09,0-2.06.67-3.65,2.07-4.81h0c2.1-1.75,5.82-2.54,11.33-2.54,7.69,0,10.06-1.96,11.57-2.72.3-.15.56-.25.83-.29,1.61-.2-3.19,6.56-12.4,6.68-8.99.12-7.29,2.6-7.21,2.72h0s8.81,2.32,18.01,2.36c7.15.03,12.97,2.45,14.74,7.37.51,1.42.69,3.04.46,4.88Z" style="stroke-width:0px;fill:none"/></clipPath></defs><g data-name="100"><g><path d="m126.66,29.96c-1,8.2-11.01,14.67-20.61,14.67,0,0-8.2,3.94-21.21,5.14-13.01,1.2-39.22.22-49.03-9.6-9.81-9.81-17.01-23.26-21.81-27.55,0,0-9.81-.48-12.81-4.68-.31-.44-.56-.84-.75-1.22-.1-.21-.19-.41-.26-.6-.05-.13-.08-.25-.11-.37-.05-.19-.07-.37-.07-.54,0-.07,0-.15,0-.22.03-.38.16-.7.39-.99.87-1.12,3.15-1.62,6.2-2C11.99,1.35,11.59.06,16.8,0s9.38.64,12.99,4.98c3.6,4.33,4.22,8.27,12.23,15.68,8,7.4,20.81,11.16,29.42,10.53,8.6-.62,25.21,1.98,35.62,2.58,2.93.17,5.53-.35,7.48-1.24.63-.28,1.18-.6,1.66-.95h0c3.31-2.4,2.85-6.03-4.94-7.18-12.41-1.84-24.01-2.94-24.01-8.09,0-2.06.67-3.65,2.07-4.81h0c2.1-1.75,5.82-2.54,11.33-2.54,3.36,0,5.7-.37,7.4-.85h0c1.08-.31,1.9-.66,2.55-.99.68-.34,1.18-.66,1.61-.87.3-.15.56-.25.83-.29,1.61-.2-3.19,6.56-12.4,6.68-8.99.12-7.29,2.6-7.21,2.72h0s8.81,2.32,18.01,2.36c7.15.03,12.97,2.45,14.74,7.37.51,1.42.69,3.04.46,4.88Z" style="fill:#e9c71d;stroke-width:0px"/><g style="clip-path:url(#a)"><g><path d="m22.66,10.04c.05.31.23.53.37.79.18.34.29.58.4.94.1.33.24.62.4.93s.31.63.47.94c.1.19.19.52.39.64.13.07.25,0,.38.02.11.02.16.1.26.14.08.03.22.06.3.1.04.02.24.14.27.14.22.03.32-.1.47-.27.25-.28.09-.29.03-.63-.02-.13.04-.28.01-.41-.03-.12-.12-.13-.15-.25-.03-.12.01-.28,0-.4,0-.19-.07-.32-.11-.5-.04-.24,0-.47-.06-.71-.05-.18-.1-.23-.11-.43-.02-.33-.1-.59-.14-.91-.07-.58-.13-1.13-.13-1.73,0-.53,0-1.07,0-1.6,0-.58.05-1.08-.67-1.07-.28,0-.58.08-.77-.16-.07-.08-.04-.19-.12-.28-.09-.09-.19-.06-.28-.12-.32-.23-.58-.51-.93-.67-.55-.24-1.16-.64-1.77-.63-.5,0-.86-.09-1.3-.3-.53-.26-1.07-.22-1.63-.4-.49-.16-.97-.07-1.47.03-.44.08-.41.29-.4.67,0,.36-.05.41-.3.63-.2.18-.27.27-.2.54.04.15.19.4.37.43-.48,0-.84-.02-1.09-.02.01-.04.02-.08.03-.12.06-.32,0-.74,0-1.07,0-.16.04-.38,0-.53-.03-.14-.12-.26-.15-.4-.07-.38.02-.54.34-.68.57-.26,1.27-.06,1.87-.25.65-.2,1.39-.15,2.09-.14,1.08.02,2.04.56,3.12.54.37,0,.59.11.93.13.35.02.65.11.95.25.23.11.4.18.58.35.16.15.3.34.48.47.3.21.34.26.53.55.11.18.25.28.35.47.17.32.49.64.62.98.2.53.12,1.18.28,1.74.13.43.35.84.49,1.28.1.31.23.63.37.92.21.44.61.77.82,1.21.35.73.56,1.78,1.34,2.16.1.05.32.16.43.17.17,0,.07-.06.18-.08.88-.2,1.95-.98,2.49-1.68.7-.9,1.98-1.91,1.67-3.16-.13-.51-.4-.93-.66-1.38-.39-.68-.84-1.52-1.32-2.18-.95-1.3-2.23-2.37-3.25-3.61-.53-.65-.96-1.31-1.62-1.82-.35-.27-.78-.59-1.2-.77-.54-.24-1.3-.3-1.87-.38-1.32-.2-2.6-.29-3.93-.28-.62,0-1.22.02-1.83.09-1.1.14-2.17.43-3.29.54-2.86.27-5.74.39-8.59.78-1.13.15-2.23.49-3.32.83C2.66.85,1.17,1.3-.27,1.86c-1.26.49-2.15,1.28-2.13,2.7.01.79.43,1.35.78,2.01.11.2.2.48.34.65.12.15.3.26.43.42.16.19.24.4.39.58.09-.03.13-.09.13-.2.1,1.56.16,3.12.17,4.69l.67-4.14c.01-.38.65.04.79.1.36.15.95.45,1.35.31.15-.05.51-.33.63-.43.24-.22.45-.51.7-.74.37-.35.59-.84.9-1.27.15-.21.2-.39.3-.63.03-.07.1-.28.12-.35.03-.11.09-.26.12-.35.07-.29-.03-.52.33-.61.33-.08.45.12.51.43.05.27,0,.6,0,.87,0,.31.05.68-.01.99-.03.13-.11.17-.13.34-.01.14.02.26-.02.4-.1.32-.33.61-.51.88-.14.22-.26.43-.4.62-.19.27-.38.55-.52.84-.25.52-.28.99-.28,1.6,0,.52-.13,1.39.62,1.02.48-.24.64-.82.93-1.23.18-.25.41-.48.59-.73.19-.26.39-.5.54-.79.18-.35.34-.67.58-.95.16-.18.27-.38.42-.58.38-.52.75-1.08.73-1.74,0-.3.12-.45.13-.73.02-.34-.03-.61.1-.9.04-.1.07-.18.13-.27,0-.02.18-.28.18-.29.23-.18.45,0,.62.22.16.2.25.48.37.7.12.23.24.55.3.77.18.66.03,1.59.03,2.28,0,.61.12,1.37,0,1.96-.03.17-.14.25-.21.4-.06.13-.09.27-.16.41-.13.27-.21.51-.3.8-.12.39-.5,1,.12,1.2.62.19,1.02-.45,1.31-.85.76-1.05,1.55-2.2,2.27-3.32.15-.23.27-.41.47-.6.2-.2.27-.41.43-.63.07-.09.13-.19.18-.3-.08.18-.14.36-.1.61.06.33.55,2.14.89,2.02.09-.3-.02-.63.02-.93.02-.12.07-.44.13-.53.24-.35.84.11,1.13.27.23.12.49.33.73.41.23.07.57.1.81.13.42.06.81.14,1.16.41.32.25.61.72,1.04.79.12.02.51-.05.59-.15.09-.14.03-.49,0-.64-.1-.41-.17-.83-.24-1.25-.04-.27-.14-.47-.13-.75,0-.21-.03-.44.03-.64.04-.14.18-.29.24-.43.12-.28.09-.98.5-1.05.01.22.21.59.3.79.12.27.18.52.26.8.06.21.13.23.14.49,0,.14-.02.29,0,.43.04.4.26.7.38,1.07.08.26-.02.54.02.8Zm-7.8-2.83s.03-.09.04-.13c.02-.11.02-.22.03-.34,0,.02,0,.05,0,.07,0,.15-.03.28-.08.4Zm-.02.06s0,0,0,0c0,0,0,0,0,0Z" style="stroke-width:0px;fill:#19231a"/><path d="m34.17,11.91c-.1.14-.22.23-.33.36-.15.17-.22.38-.33.58-.15.27-.31.47-.53.69-.33.34-.66.29-1.07.4-.28.07-.66.27-.93.4-.46.23-.44.39-.43.9,0,.21-.03.46,0,.67.02.17.08.24.14.39.13.34.07.74.26,1.07.18.3.42.58.57.9.13.29.19.63.46.87.39.33.93.41,1.37.63.49.26.95.58,1.44.84.18.09.37.16.57.23.12.04.27.11.39.14.52.12,1.04-.29,1.45-.54.61-.37,1.32-.52,1.93-.92.93-.61,1.07-1.55,1.27-2.54.11-.56,0-1.13-.26-1.64-.35-.67-.63-1.42-1.07-2.04-.15-.21-.31-.42-.51-.57-.29-.22-.28-.28-.5-.53-.16-.19-.39-.29-.57-.46-.14-.13-.24-.31-.39-.43-.17-.14-.39-.2-.57-.3-.17-.09-.32-.26-.5-.31-.3-.09-.42.21-1.34.27.08.25-.36.73-.5.94Z" style="stroke-width:0px;fill:#19231a"/><path d="m44.07,26.11c.1-.08.19-.28.26-.39.18-.29.36-.51.63-.73.34-.27.75-.47,1.06-.79.21-.22.33-.47.47-.74.28-.52.34-.97.33-1.56-.01-1.14-.57-1.66-1.39-2.37-.66-.57-1.42-1.18-2.25-1.48-.48-.18-1.76-.67-2.5.81-.29.06-.58.54-.82.73-.27.21-.57.36-.82.6-.15.15-.16.26-.28.41-.11.14-.31.23-.47.3-.25.11-.42.2-.66.33-.33.19-.76.26-1.11.43-.27.13-.58.23-.88.29-.05.26-.14.45-.15.71-.02.31.07.55.17.84.07.2.12.55.25.75.11.18.24.33.35.51.12.21.24.31.44.43.25.15.4.14.67.19.12.02.25.12.37.17.39.16.83.19,1.23.3.37.1.65.26.96.44.28.16.55.1.84.16.27.05.42.14.73.14.29,0,.58,0,.87,0,.37,0,.52-.15.87-.24.27-.07.63-.06.85-.23Z" style="stroke-width:0px;fill:#19231a"/><path d="m48.81,34.46c.33-.05.65-.3.93-.48.24-.15.4-.35.62-.53.14-.12.29-.24.44-.33.2-.11.41-.11.61-.21.21-.11.36-.37.54-.52.39-.32.84-.45,1.17-.86.69-.86,1.34-1.81,1.63-2.88.27-.98.64-1.98.61-3.02-.04-1.34-1.47-2.24-2.58-2.7-.65-.27-1.33-.36-2.03-.46-.6-.08-1.21-.3-1.78-.04-.31.14-.95.53-.98.91-.04,0-.07.02-.37.56-.04,0-.07.02-.11.03-.05.64-.93,1.16-1.31,1.57-.13.14-.3.25-.42.4-.16.19-.23.23-.44.37-.24.16-.49.33-.69.53-.2.2-.34.4-.5.6-.21.27-.48.49-.71.74-.65.7-.36,1.98-.36,2.89,0,.41-.13,1.03,0,1.42.12.37.81.55,1.12.71,1.25.65,2.54,1.28,3.96,1.27.2,0,.46.04.66,0Z" style="stroke-width:0px;fill:#19231a"/><path d="m56.02,27.91s0,0,0,0c0-.03,0-.06,0-.09,0,.03,0,.06,0,.09Z" style="stroke-width:0px;fill:#19231a"/><path d="m106.97,39.28c.05-.34.12-.64.14-.99.02-.47.14-.91.14-1.39,0-.51,0-1.01,0-1.52.01-1.31-.4-2.59-.81-3.81-.15-.45-.59-.56-1.01-.75-.62-.28-1.2-.68-1.84-.92-.85-.33-1.86-.42-2.75-.59-.46-.08-.94-.17-1.37.05-.31.16-.6.33-.91.48-.28.13-.23.21-.39.47-.14.23-.41.74-1.34,1.33-.21,0-.33.02-.41.1-.18-.51-.46-1.01-.63-1.48-.4-1.09-1-1.45-2.11-1.83-1.2-.41-2.56-.79-3.83-.81-.64,0-1.22,0-1.83.19-.46.15-.67.4-1.06.69-.2.15-.51.34-.67.53-.17.2-.08.33-.15.58-.04,0-.07.02-.38.82-.08-.05-.15-.08-.23-.11,0,0-.01.01-.02.02-.25-.33-.62-.62-1.09-.83-.51-.23-1.27-.32-1.82-.39-.6-.07-1.25-.02-1.85-.02-.85,0-1.57-.11-2.32.3-.23.13-.43.21-.69.28-.2.05-.48.03-.67.09-.17.05-.2.12-.39.14-.17.02-.36,0-1.47.26,0,.04-.02.07-.02.11-.17.04-.38.08-.56.17-.08-.18-.18-.35-.3-.49-.57-.71-1.33-1.07-2.22-1.12-.34-.02-.66-.03-1-.08-.37-.06-.69-.22-1.05-.31-.27-.06-.59-.04-.86,0-.6.06-1.4.17-1.93.46-.35.19-.66.46-1.06.47-.32,0-.5-.12-1.62.07.12-.6.17-1.22-.05-1.8-.17-.45-.54-1.1-.9-1.4-.4-.35-.84-.38-1.36-.36-.62.03-1.25.18-1.86.31-.38.09-.88.15-1.23.31-.33.15-.55.41-.92.46-.47.06-.91-.11-1.34.16-.02.1.02.18-.94.77,0,.28-.2.46-.26.74-.07.31-.08.56-.21.87-.09.22-.21.32-.37.5-.17.19-.29.47-.37.7-.08.21-.12.34-.26.54-.13.18-.27.49-.43.64-.07.07-.21.06-.31.15-.09.09-.14.22-.2.33-.12.21-.26.36-.4.56-.16.23-.33.4-.5.63-.18.23-.2.38-.3.63-.07.18-.18.36-.27.53-.11.23-.18.45-.26.67-.05.13-.11.19-.14.32-.03.13.02.28.01.41-.04.33-.14.59-.14.93,0,.25-.08.64,0,.87.07.22.33.32.44.51.25.43.31,1.01.53,1.46.12.25.33.41.43.69.11.31.2.58.35.87.15.3.22.67.41.93.26.37.49.34.93.33.52,0,1.08.07,1.59,0,.48-.06.96-.47,1.36-.74.25-.17.47-.34.75-.45.18-.07.46-.07.62-.17.12-.07.19-.23.34-.31.18-.1.4-.12.54-.28.14-.14.19-.31.33-.47.18-.19.3-.41.47-.6.18-.2.46-.41.66-.64.27.37.5.75.69,1.17.11.24.13.47.23.69.12.25.11.43.18.69.05.16.2.36.27.53.11.25.1.47.1.77,0,.26-.02.5.07.74.1.26.21.36.2.67-.01.46.12.36.46.55.21.11.38.43.45.65.08.26-.04.55.02.81.05.2.21.38.35.52.29.3.66.57,1.05.74.2.09.21.08.42,0,.39-.15.78-.31,1.17-.47.47-.19.97-.32,1.37-.64.34-.27.64-.62.95-.93.28-.3.59-.45.95-.64.51-.28.91-.51,1.31-.93.41-.43.72-.94,1.04-1.44.12-.19.24-.39.34-.6.01.31.06.57.26.85.13.18.41.31.51.5.04.07.11.34.13.4.04.15.03.28.03.44,0,.37.05.67-.13.97-.05.08-.1.07-.14.16-.01.03-.01.21-.02.24-.01.04-.08.05-.09.11-.02.08,0,.17,0,.25-.06.32-.22.65-.15,1,.09.42.53.8.68,1.21.25.66.62,1.25,1.19,1.69.6.46,1.03,1.14,1.67,1.57.22.15.51.18.77.21.46.05.82.14,1.27.27.86.24,1.67.29,2.56.27.33,0,.55-.05.81-.26.3-.24.68-.67.92-.99.12-.17.13-.33.21-.5.08-.15.22-.27.31-.43.12-.23.32-.54.41-.77.19-.49.4-1.04.53-1.56.08-.31-.04-.64.05-.95.07-.25.23-.37.25-.65,0-.1,0-.19.01-.28.03.13.08.33.11.37.1.15.29.16.39.29.09.12.04.51.02.64-.03.22-.08.26-.2.46-.14.22-.13.39-.2.61-.05.17-.12.2-.14.39-.03.21,0,.46,0,.67,0,.73.34,1.24.99,1.53.43.19.8.4,1.14.73.42.41.82.9,1.44.95.65.05,1.22-.3,1.83-.47.42-.11.76-.07,1.1-.37.3-.27.62-.39.93-.63.35-.27.59-.52,1.03-.54.2,0,.4.02.6,0,.23-.01.44-.1.67-.14.22-.04.52-.19.64-.43.08-.17,0-.39.04-.56.05-.21.12-.29.12-.55,0-.39-.05-.78.1-1.14.07-.16.1-.29.18-.45.17-.31.12-.63.12-1.01,0-.18,0-.35,0-.52.04.04.07.08.11.12.12.13.3.23.4.38.14.21.18.54.29.78.12.25.27.49.4.73.36.68.62,1.34,1.4,1.64.59.22,1.22-.05,1.81-.08.57-.03,1.12-.09,1.69-.12.54-.03,1.14-.14,1.66-.3.26-.08.53-.14.79-.23.48-.15.44-.29.64-.7.28-.57.54-1.23,1-1.66.25-.24.48-.45.63-.76.12-.24.2-.48.25-.75.08-.44.25-.88.27-1.34.02-.35-.11-.54-.14-.86-.01-.2-.05-.29-.1-.47-.07-.22-.24-.39-.29-.6-.11-.39.03-.79.14-1.13.1-.32.06-.59.11-.91Zm-44.15-3.5c-.05.22-.09.41-.16.64-.02.07-.1.19-.14.26-.05.12-.05.26-.11.37-.14.3-.5.2-.82.21,0-.12.01-.23.04-.34.02-.1.1-.16.13-.27.03-.16-.05-.31.02-.47.05-.13.18-.28.25-.41.06-.12.09-.2.13-.32.1-.33.22-.7.4-1.01.12-.21.22-.43.31-.66.08.18.2.31.23.52.06.52-.15,1-.27,1.47Zm1.45-3.62c-.32.02-.32.24-.54.39-.11.08-.22.11-.33.16.13-.26.23-.53.36-.79.13-.26.26-.53.37-.8.02.03.04.06.06.09.14.23.15.67.07.94Zm10.16,7.23c-.08.12-.17.23-.27.33-.19.2-.37.4-.5.63-.12.22-.29.43-.43.65.05-.54,0-1.08.1-1.62.06-.37,0-.73.03-1.1.35.29.92.53,1.07.7.08.1.11-.02.15.12.02.09-.12.24-.15.28Zm-.11-2.77c-.19.05-.43.24-.61.39.02-.05.03-.1.05-.16.14-.44.31-.87.48-1.3,0,0,.01.01.02.02.26.16.49.22.57.56.13.54-.16.4-.51.5Zm1.44-2.23c-.08.4-.33.27-.64.36-.17.05-.2.11-.43.1-.04,0-.11,0-.18-.01.19-.51.35-1.03.43-1.57.03-.18.05-.38.05-.58.34.07.61.22.63.7.01.34.2.66.13,1.01Zm9.67,6.6c-.15.16-.28.29-.37.46-.17-.18-.34-.26-.44-.53-.06-.15-.12-.37-.05-.52.1-.2.22-.12.36-.24.22-.18.26-.63.3-.9.03-.22.1-.42.16-.64.05.13.14.17.25.31.48.61.31,1.54-.2,2.07Zm.57-3.73c-.07.2-.23.37-.38.54.05-.07.1-.13.13-.22.11-.36.24-.68-.02-1.03-.15-.19-.34-.37-.22-.64.03-.06.07-.12.13-.18,0,0,0,0,.01.01.04.03.18.01.21.05.08.1,0,.21.02.31.09.34.24.74.11,1.13Zm.97-4c-.06.13-.25.18-.38.29-.24.21-.37.45-.56.69-.15.18-.27.22-.37.4-.35-.26-.44-.38-.44-.83,0-.18-.03-.38,0-.56.05-.24.25-.42.37-.64.11-.2.18-.4.23-.6.12.09.24.16.32.21.26.14.72.17.81.49.02.08.04.47,0,.55Zm10.24,9.57c-.24.45-.87.56-1.21.92-.07.08-.18.17-.28.26-.11-.59-.18-1.23-.06-1.81.07-.36.29-.68.45-1.01.07-.15.12-.29.15-.43.14.22.27.46.41.66.26.38.83.85.54,1.4Zm.14-7.98c-.08.32-.22.18-.43.28-.3.13-.33.37-.34.66,0,.18-.04.31-.12.47-.06.12-.22.25-.26.36-.11.3.44.42.52.7.09.32,0,.48-.16.63.03-.13,0-.18-.1-.37-.15-.28-.32-.49-.42-.79-.09-.26-.19-.49-.06-.74.11-.2.29-.24.35-.46.06-.24-.01-.57,0-.81,0-.3.1-.57.15-.87.02-.11.04-.22.06-.32.25.24.51.45.7.73.11.17.19.34.14.54Z" style="stroke-width:0px;fill:#19231a"/><path d="m125.75,32.45c-.27-.53,0-1.23-.09-1.79-.05-.3-.23-.4-.41-.63-.28-.38-.35-.9-.5-1.35-.38-1.13-1.79-1.87-2.82-2.34-.7-.32-1.82-.25-2.55-.03-.47.14-.89.39-1.34.57-.26.1-.67.25-.9.4-.15.09-.26.28-.3.43-.02.1.01.23,0,.34,0,.19-.06.22-.11.4-.1.37-.01.75,0,1.44,0,0-.02,0-.03,0-1.12-.18-2.29-.49-3.43-.51-.44,0-.6.26-.97.45-.57.3-1.21.42-1.77.76-.47.28-.96.55-1.7,1.74-.28-.09-.37.26-.5.44-.15.21-.24.34-.14.63.04.12.17.19.21.29.03.08,0,.17.02.24.12.28.14.46.14.8,0,.24.06.57,0,.81-.05.2-.14.28-.14.53,0,.12.03.3,0,.41-.03.12-.12.13-.15.25-.07.27,0,.66,0,.94,0,.96-.13,1.99.43,2.77.22.3.59.5.81.79.24.33.35.75.5,1.1.09.21.1.46.23.68.09.16.23.34.34.5.14.2.32.38.46.57.12.16.14.14.33.23.27.12.48.27.74.41.67.35,1.34.88,2.13.83.72-.04,1.21-.41,1.77-.84.22-.17.42-.33.67-.42.25-.1.5-.1.67-.34.17-.23.19-.54.28-.8.13-.39.29-.77.41-1.17.28-.98-.05-1.99-.04-2.98,0-1,.08-1.99.13-2.98.03-.58.22-.92,0-1.47-.19-.51-.38-1.02-.54-1.53-.09-.32-.2-.62-.3-.94-.04-.14-.11-.26-.14-.4-.04-.21-.05-.19,0-.25.06,0,.11,0,.15.01.21.06.61.16.81.26.29.15.53.47.76.69.32.31.34.55.33,1.01,0,.26.09.32.14.53.05.23,0,.58,0,.81,0,.63-.03,1.26.07,1.88.15.9.03,1.68.75,2.35.26.24.69.72,1.05.82.32.1.74.02,1.07.02.24,0,.5.04.73,0,.35-.06.83-.36,1.13-.55.68-.43.88-1.12,1.16-1.8.05-.13.12-.24.17-.36.12-.28.08-.44.12-.71.03-.19.07-.24.14-.4.08-.2.1-.28.15-.48.04-.18.12-.28.12-.5,0-.29-.05-.62.03-.91.08-.29.14-.46.07-.77-.08-.34-.26-.53-.41-.83Z" style="stroke-width:0px;fill:#19231a"/><path d="m128.05,27.91c-.04-.73-.25-1.44-.27-2.17-.01-.52.03-1.04.02-1.55-.02-.78-.42-1.26-1.01-1.71-.58-.44-1-1-1.5-1.53-.2-.22-.35-.47-.59-.65-.3-.22-.69-.41-1.01-.6-.21-.12-.36-.15-.59-.19-.28-.05-.51-.17-.77-.24-.3-.08-.63.03-.93-.02-.31-.05-.63-.17-.93-.24-.16-.04-.31-.04-.47-.03-.24.01-.2,0-.34.13-.14.13-.27.36-.43.5-.11.11-.21.22-.36.27-.12.04-.26,0-.38.05-.15.08-.35.39-.4.54-.1.32-.2.63-.32.96-.24.65-.53,1.27-.77,1.92-.38,1.01-.59,2.08-.94,3.09-.09.25-.3.7.54,1.33,0-.48.07-.27.41-.49.18-.12.27-.37.43-.54.13-.14.25-.32.36-.44.12-.12.28-.22.44-.36.17-.16.36-.3.53-.43.24-.19.46-.39.77-.4.11,0,.29-.03.41,0,.11.03.14.13.25.15.24.04.56-.16.76-.26.23-.12.33-.27.53-.42.32-.24.44-.09.72.07.5.29,1.06.59,1.53.94.53.4,1.05.76,1.6,1.14.17.11.33.24.49.37.1.06.2.11.3.16.07.08.08.16.14.26.16.27.35.53.53.8.25.38.71,1.4,1.26,1.47.16-.51.04-1.36.01-1.87Z" style="stroke-width:0px;fill:#19231a"/><path d="m111.42,17c-.3.18-.6.28-.9.43-.5.26-.67.52-.93,1-.15.28-.2.41-.2.75,0,.19-.03.4,0,.59.03.23.13.43.15.67.02.44-.01.85.06,1.27.07.41.07.83.07,1.26,0,.79.04,1.52.3,2.28.18.55.89.88,1.34,1.19.48.33.9.75,1.51.81.21.02.34-.03.52-.07.23-.06.46-.01.68-.06.27-.06.52-.25.81-.3-.03-.04-.06-.07.18-.64-.06-.25.24-.54.27-.79.04-.3,0-.63,0-.94,0-.34.06-.61.12-.94.06-.31.09-.54.2-.85.08-.23.04-.47.14-.68.07-.15.14-.26.21-.39.07-.15.08-.3.13-.46.11-.37.4-.6.54-.93.07-.17.05-.21.16-.37.11-.15.21-.32.37-.41.29-.18.66-.14,1-.22.4-.1.84-.15,1.25-.22.05-.28.25-.53.3-.77.07-.35-.32-.6-.57-.77-.49-.34-1.16-.12-1.72-.29-.63-.18-1.21-.41-1.87-.49-.48-.06-.96-.1-1.43-.16-.28-.03-.91-.12-1.19,0-.25.11-.51.31-.77.36-.25.05-.46.03-.69.17Z" style="stroke-width:0px;fill:#19231a"/><path d="m108.92,22.24c-.15-.56-.32-1.08-.34-1.67,0-.26-.01-.48-.06-.73-.05-.23-.08-.42-.07-.67.01-.3.12-.59.39-.77.23-.15.33-.2.51-.4.13-.14.28-.25.43-.36.43-.3.55-.64.07-.99-.11-.08-.37-.27-.5-.32-.22-.07-.43-.05-.66-.12-.67-.23-1.28-.12-1.98-.16-.31-.02-.59-.13-.9-.14-.33-.01-.42.06-.69.24-.72.46-1.56.61-2.27,1.04-.48.28-1.3.4-1.33,1.06-.02.38,0,.76,0,1.14,0,.51.14,1,.24,1.5.14.7.29,1.37.73,1.98.39.54.97,1.04,1.56,1.32.4.19.77.41,1.21.51.26.06.56.08.8.16.24.07.3.14.59.14.23,0,.49.04.71-.02,0-.04.02-.07.56-.38.39.03.47-.69.56-.93.21-.57.62-.76.44-1.4Z" style="stroke-width:0px;fill:#19231a"/><path d="m101.34,17.48c.32-.13.73-.2,1.02-.45.67-.57-.15-1.33-.73-1.5-.63-.19-1.33-.19-1.98-.27-.29-.04-.59,0-.88-.01-.13,0-.26-.03-.38,0-.15.04-.23.18-.37.24-.15.06-.29,0-.44.03-.09.03-.17.09-.26.11-.17.04-.36,0-.54.01-.22,0-.24.08-.41.12-.21.05-.38.02-.56.18-.22.2-.24.55-.39.8-.1.16-.15.15-.17.36-.02.22.05.46,0,.67-.1.55-.27,1.18-.44,1.72-.18.57.02,1.15.17,1.73.13.51.44.72.81,1.05.19.17.34.39.53.57.21.2.42.31.66.46.3.19.57.44.87.61.24.14.37.09.63.12.45.04.95.29,1.41.12,0-.04.02-.07.42-.91l-.11-.02c-.1-.37.06-.92.14-1.28.09-.42.11-.84.21-1.26.05-.22.02-.44.06-.66.05-.26.16-.52.21-.78.07-.38.04-.8.03-1.19,0-.42.14-.41.5-.57Z" style="stroke-width:0px;fill:#19231a"/><path d="m94.1,17.31c.08-.29.27-.47.4-.73.19-.36.51-.53.87-.74.26-.15.42-.27.61-.53.23-.32.23-.83-.21-.87-.18-.02-.33.01-.51-.03-.14-.03-.23-.12-.43-.11-.46.03-.48.34-.83.51-.3.15-.73-.06-1.05.02-.17.04-.2.12-.39.14-.2.03-.36.02-.54.06-.36.09-.42.15-.6.47-.2.35-.41.66-.7.94-.36.34-.72.76-1,1.17-.2.29-.51.67-.6.99-.34,1.16-.59,2.46.61,3.25.33.22.72.3,1.1.32.36.02.71.14,1.08.13.23,0,.35,0,.52-.17.14-.13.2-.33.8-.37.23-.2.27-.66.37-.93.07-.22.14-.44.17-.67.03-.28.12-.53.13-.8.02-.35,0-.71,0-1.07,0-.2.07-.29.1-.43.04-.2.04-.37.1-.57Z" style="stroke-width:0px;fill:#19231a"/><path d="m84.7,18.15c.2.09.35.14.54.26.23.14.24.17.54.17.34,0,.74.19,1.19.13.04-.22.43-.51.6-.67.13-.12.32-.17.44-.29.12-.12.22-.33.33-.47.41-.52.85-1.01,1.27-1.54.2-.26.41-.52.63-.76.27-.3.46-.65.77-.9.17-.13.12-.19.36-.14.17.03.37.18.54.24.33.12.61.33.93.41.17.04.44,0,.61,0,.29-.01.22.03.35-.18.12-.21.24-.88.1-1.12-.07-.12-.4-.32-.51-.43-.14-.14-.29-.24-.44-.36-.24-.21-.47-.45-.76-.57-.14-.06-.31-.08-.47-.15-.24-.1-.38-.06-.61-.11-.16-.04-.21-.12-.39-.14-.23-.04-.34.06-.53.14-.65.28-1.32.34-2.01.43-.39.05-.84.14-1.2.31-.39.19-.72.53-1.07.79-.71.52-1.28,1.18-1.43,2.05-.14.77-.02,1.64-.03,2.42,0,.3-.02.39.27.51Z" style="stroke-width:0px;fill:#19231a"/><path d="m90.6,10.3c.49,0,1.02-.1,1.43.13.25.14.54.26.67.53.05.1.07.25.12.36.15.32.2.66.41.95.31.45.67.85,1.07,1.22.21.2.48.49.76.54.18.03.39-.02.57,0,.18.01.3.1.47.13.35.06.63-.19.74-.52.33-.99-.12-1.72-.44-2.65-.1-.3-.2-.59-.33-.86-.19-.4-.27-.34-.7-.36-.58-.04-1.26-.23-1.8-.43-.58-.22-.96-.38-1.58-.37-.3,0-.59,0-.89,0-.51,0-1.74.11-2.01,1.47.46-.22.98-.13,1.5-.13Z" style="stroke-width:0px;fill:#19231a"/><path d="m95.77,9.2c.34.09.87.13,1.11.4.28.32.28.79.42,1.17.04.11.14.21.18.33.06.18.02.38.05.57.09.51.41.88.61,1.34.18.41.4.61.82.8.27.12.91.38,1.18.35.23-.35.29-.94.29-1.35.01-.62.13-1.2.13-1.82,0-.31.04-.65,0-.96-.03-.22-.2-.5-.35-.65-.13-.13-.56-.3-.73-.37-.79-.34-1.67-.76-2.51-.95-.67-.15-1.57-.04-2.01.91-.03,0-.05,0-.08,0,.16.24.63.17.88.24Z" style="stroke-width:0px;fill:#19231a"/><path d="m101.11,9.4c.11.07.32.13.38.26.09.19-.09.41-.12.61-.04.34,0,.74,0,1.09.02.47.22.92.41,1.34.11.25-.02.2.27.37.13.08.22.13.36.2.25.12.64.37.94.21.26-.14.34-.47.44-.71.06-.15.13-.24.22-.36.11-.16.32-.26.42-.4.06-.08.08-.3.12-.4.05-.12.15-.25.17-.36.07-.31,0-.75,0-1.07,0-.29.1-.8,0-1.07-.07-.21-.59-.43-.8-.56-.25-.15-.53-.18-.81-.26-.37-.11-.7-.28-1.08-.34-.52-.09-1.07-.02-1.6-.03-.27,0-.6.08-.79.67,0,.06-.03.11-.08.14.7-.06,1,.33,1.55.69Z" style="stroke-width:0px;fill:#19231a"/><path d="m105.55,9.07c.25.35.1,1.19.09,1.63,0,.74.3,2.08,1.1,2.39.93.36,1.15-1.1,1.4-1.71.14-.35.3-.72.4-1.08.04-.15.12-.31.15-.46.03-.15-.03-.32,0-.47.03-.12.12-.13.15-.25.03-.12,0-.28,0-.41,0-.38-.03-.47-.4-.54-.36-.07-.7-.11-1.06-.23-.26-.08-.53-.11-.78-.2-.24-.08-.45-.28-.69-.34-.37-.1-1.36-.15-1.46.64-.03.38.92.77,1.11,1.03Z" style="stroke-width:0px;fill:#19231a"/><path d="m108.85,7.87c.13.12.36.23.46.37.09.12.04.21.07.33.03.11.12.14.14.25.07.28-.03.52.09.8.12.3.3.7.63.8.28.09.72.02,1.01,0,.76-.03.8-1.24,1-1.78.2-.55.22-1.04.2-1.62-.02-.54-.47-.6-.94-.6-1.04,0-3.8-1.5-4,.4l.67.53c.29.02.48.32.67.5Z" style="stroke-width:0px;fill:#19231a"/><path d="m16.57,11.37c-.05-.25-.49-1.42-.95-.97-.14.14-.02.6.01.76.08.36.07.76.15,1.12.04.17.27.42.21.57-.06.15-.53.24-.7.32-.47.21-1.4.59-1.3,1.2l-.8.2c-.28.23-.21.59-.2.9.02.39-.05.49.39.51.71.04,1.22-.92,1.8-1.26.37-.22.71-.33,1.11-.45.21-.06.64-.12.79-.29.26-.29-.03-.5-.17-.81-.25-.57-.23-1.2-.35-1.8Z" style="stroke-width:0px;fill:#19231a"/><path d="m70.79,49.45c-.37-.31-.72-.54-.96-.97-.21-.38-.62-.82-.64-1.26-.22.03-.22.24-.4.34-.24.13-.52-.03-.77.03-.35.08-.62.4-.91.59-.09.02-.19.05-.28.06-.14.1-.28.21-.4.33-.29.09-.53-.07-.8-.17-.3-.11-1.1-.77-1.04-.03-.57.21-1.3,0-1.94,0,0-.12-.01-.24-.02-.37-.02-.42-.2-.54-.41-.9-.37-.64-.73-1.3-1.14-1.91-.13-.19-.3-.34-.43-.51-.13-.18-.1-.43-.38-.46-.16.5,0,1.12-.68.59-.49-.38-.92-1.03-1.36-1.47-.32-.33-.9-.51-1.41-.35-.32.1-.61.53-.89.73-.48.36-.67.73-1.31.68-.49-.04-.89-.2-1.4-.2-.31,0-.47-.09-.61.19-.14.28.09.33-.18.62-.12.13-.26.22-.41.28.3-.22.48-.38.29-.9-.35-.92-.99-1.73-1.58-2.49-.33-.43-.37-.77-.51-1.26-.18-.63-.47-.98-1.01-1.41-.31-.25-.65-.58-1.06-.66-.12-.02-.84-.07-.96-.02-.7.28.01,2.18.17,2.65.16.49.24.88.24,1.39l-1.4,1.2c-.32.06-.88.63-.98.92-.25.72.13,1.89.18,2.68.04.59.09,1.22.24,1.79.85.22,1.94-.48,2.65-.88.24-.14.47-.29.69-.45-.32.77-.32,1.7.21,2.4.44.59,1.27,1.12,1.93,1.45.79.4,1.68.32,2.53.45,2.64.38,5.49.57,8.04-.34.24-.08.45-.16.64-.24l.69,1.03.03.17c.2.08.37,0,.57.02.24.04.39.17.6.27.71.31,1.56.15,2.33.11,1.47-.08,2.74-.45,4.07-1.04.41-.18.93-.36,1.01-.82.11-.61-.4-1.48-.85-1.85Z" style="stroke-width:0px;fill:#19231a"/><path d="m23.41,20.99c.08-.18-.03-.61-.02-.81.01-.31.07-.71.49-.59.19.05.25.3.43.38.16.07.33-.03.49,0,.19.04.24.13.39.22.38.19.64.25,1.11.21.39-.04.75-.21,1.13-.31.58-.15,1.17-.21,1.75-.34.09-.54-.19-1.43-.94-.94-.06.13-.13.26-.21.38-.17.16-.37.23-.61.21-.57.06-1.19-.1-1.74-.23-.73-.17-2.95-1.34-3.09.01-.06.58.22,1.03.21,1.6v.6c.21-.12.52-.17.62-.39Z" style="stroke-width:0px;fill:#19231a"/><path d="m30.2,24.77c-.38.07-.71.24-.81.6-.1.37-.05.62-.4.91-.4.34-1.18.42-1.68.28-.36-.1-.67-.56-1.12-.43-.62.19-.66,1.71-.75,2.23-.06.34-.11.8-.01,1.13l-.43.29c.45,0,.69.14.81-.29.04-.15-.05-.35-.02-.51.03-.15.13-.26.17-.4.06-.26-.01-.62.28-.77.24-.12.72.15,1,.17.93.05,1.53-.33,2.29-.78.55-.33,1.38-.2,1.89-.66.78-.71-.34-1.92-1.21-1.77Z" style="stroke-width:0px;fill:#19231a"/><path d="m72.63,48.19c0-.27.08-.72-.04-.96-.09-.18-.79-.93-.96-1.01-.48-.23-.89.92-.8,1.27.07.28.47.64.64.9.18.26.37.71.75.6h.8c-.38-.29-.41-.33-.4-.8Z" style="stroke-width:0px;fill:#19231a"/><path d="m37.44,30.59c.03-.35-.47-.37-.46-.77-.73-.24-1.73-.73-2.43-.25-.31.21-.42.51-.84.4-.38-.1-.54-.39-.99-.4-.48-.01-1.45.44-1.53.92-.06.34.19.68.22,1.01.04.35,0,.73,0,1.08l-.4.4c.4,0,.76.06,1.11-.19.36-.26.28-.49.29-.91.02-.62.43-.82.99-.9,1.05-.16,2.17.12,3.23,0,.25-.03.78-.06.81-.4Z" style="stroke-width:0px;fill:#19231a"/><path d="m24.4,23.32c-.03.06-.07.12-.12.17-.14.04-.28.05-.42.03-.17,0-.37-.03-.54,0-.27.03-.44.27-.12.48,0-.03,0-.05,0-.08l1.2.67c.44.09.84-.28.82-.7-.03-.5-.41-.77-.82-.56Z" style="stroke-width:0px;fill:#19231a"/><path d="m18.94,16.86c-.07.19.11.43.15.62.04,0,.07.02.11.02l.27.93c.23.29.69.11.85-.15.12-.2.12-.61.09-.85-.07-.57-.98-.72-1.46-.58Z" style="stroke-width:0px;fill:#19231a"/><path d="m23.87,16.57c.52,0,.63-.51.54-.93-.08-.37-.48-.8-.81-.98-.31-.16-.69-.13-.97,0-.19.09-.26.03-.25.3.01.21.2.41.41.4l1.07,1.2Z" style="stroke-width:0px;fill:#19231a"/><path d="m30.8,20.04c0,.23-.08.68.13.86.16.14.31.03.51.07.17.03.28.1.43.18.32.16.54.1.54-.3,0-.41-.36-.7-.67-.93l-.93.13Z" style="stroke-width:0px;fill:#19231a"/><path d="m33.82,24.23c.27.23.98.41,1.26.22l-1.33-1.33c-.06.41-.32.78.08,1.12Z" style="stroke-width:0px;fill:#19231a"/><path d="m36.32,38.78c-.13-.35-.39-.64-.51-1-.21-.63.05-1.17-.29-1.79-.2-.37-.52-1.05-1.01-1.01-.22.02-.44.12-.61.27-.2.17-.27.46-.49.61-.47.33-1.53-.11-2.05-.06-.17.24.11.82.21,1.07.08.19.24.34.3.52-1.16.35-.89,1.15-.7,1.72.31.93.73,1.79,1.43,2.5.43.43.88.9,1.54.89.5-.01.98-.31,1.37-.59.88-.62,1.1-1.1,1.03-2.13-.02-.33-.11-.69-.23-1Z" style="stroke-width:0px;fill:#19231a"/><path d="m40.72,34.99c-.32-.42-.66-.83-.96-1.26-.24-.35-.9-1.65-1.49-1.42-.16.06-.13.16-.22.28-.12.16-.3.22-.41.39-.09.13-.08.27-.22.38-.13.11-.37.07-.49.16-.46.35.54,1.39.79,1.69.14.16.63.87.82.85l.67.53c.24.3.65.49,1.03.38.49-.14,1.14-.73.96-1.28-.08-.25-.32-.49-.47-.7Z" style="stroke-width:0px;fill:#19231a"/></g></g><path d="m126.66,29.96c-1,8.2-11.01,14.67-20.61,14.67,0,0-8.2,3.94-21.21,5.14-13.01,1.2-39.22.22-49.03-9.6-9.81-9.81-17.01-23.26-21.81-27.55,0,0-9.81-.48-12.81-4.68-.31-.44-.56-.84-.75-1.22,1.51.6,4.25,1.38,8.22,1.3,6.39-.13,10.36,3.2,12.31,3.2s-.37-3.29.8-5.18c1.16-1.89.9.38,2.77,3.98,1.87,3.6,0,5.74,1.07,9.87,1.07,4.13,4.67,5.87,6,8.94,1.33,3.07,2.94,4.27,1.33,0-1.6-4.27-4.27-4.8-5.34-8.27-1.07-3.47.62.8,2.18,2.4,1.56,1.6,3.96,4.27,4.49,6.8.53,2.54,1.85,5.43,5.13,5.85,3.28.42,5.81,1.22,5.81,1.22,0,0,3.47,3.94,21.21,6.31,17.74,2.37,30.02.5,33.22-1.37,3.2-1.87,6.54-1.48,6.54-1.48,0,0,8.94.04,14.41-4.98,5.47-5.02,5.74-6.66,5.61-10.24h0c.51,1.41.69,3.04.46,4.87Z" style="stroke-width:0px;opacity:.4"/><path d="m120.05,25.09c-.38,5.7-3.87,6.48-3.87,6.48,3.31-2.4,2.85-6.03-4.94-7.18-12.41-1.84-24.01-2.94-24.01-8.09,0-2.06.67-3.65,2.07-4.81-3.39,7.72,13.67,8.42,17.94,8.42s13.19-.52,12.81,5.18Z" style="stroke-width:0px;opacity:.4"/><path d="m100.64,12.63c-8.99.12-7.29,2.6-7.21,2.72-.13-.1-3.23-2.56,0-4.38,3.17-1.78,12.43,1.33,18.78-4.74.3-.15.56-.25.83-.29,1.61-.2-3.19,6.56-12.4,6.68Z" style="stroke-width:0px;opacity:.4"/><path d="m18.35,9.31c-1.77-.18-1.5-1.49-6.54-2-3.5-.35-8.24-.67-11.73-1.54-.05-.19-.07-.37-.07-.54,0-.07,0-.15,0-.22.6.16,1.28.31,2.06.42,6.74.98,13.12,1.56,15.03,2.55,1.91,1,3.01,1.51,1.25,1.33Z" style="stroke-width:0px;fill:#231f20"/><circle cx="15.66" cy="3.03" r="1.08" style="stroke-width:0px;fill:#231f20"/><path d="m21.47,5s-.93.64,0,2.17c.93,1.53,1.73-3.87,0-2.17Z" style="stroke-width:0px;fill:#231f20"/><path d="m16.18,2.78c0-.14-.11-.26-.26-.26s-.26.11-.26.26.11.26.26.26.26-.11.26-.26Z" style="stroke-width:0px;fill:#fff"/><path d="m121.59,27.18c-1.4,3.54-5.14,6.94-10.65,7.87-5.51.93-21.31-1.73-26.17-1.73s-9.77-.63-15.14-.63c-5.38,0-9.07-1.17-15.36-2.85-6.29-1.68-13.26-7.26-16.86-11.66-3.6-4.4-7.14-10.21-9.27-13.17-2.14-2.97-7.4-4.04-10.61-4.1-3.2-.07-5.87,1.2-9.47,1.62-2.96.35-6.5,1.2-7.66,1.49.87-1.12,3.15-1.62,6.2-2C11.99,1.35,11.59.06,16.8,0s9.38.64,12.99,4.98c3.6,4.33,4.22,8.27,12.23,15.68,8,7.4,20.81,11.16,29.42,10.53,8.6-.62,25.21,1.98,35.62,2.58,2.93.17,5.53-.35,7.48-1.24,4.48-1.56,6.23-4.94,6.58-6.85s-.67-4.82-3.15-5.6c-2.48-.78-5.55-1.3-8.49-1.37-2.94-.08-10.02-1.03-13.67-1.68-3.65-.65-6.74-2.52-5.05-5.15,1.69-2.63,6.99-2.84,11.41-2.7,4.31.13,5.84-1.02,5.9-1.07h0c1.08-.31,1.9-.66,2.55-.99-1.44,1.26-4.08,2.72-8.56,2.53-7.72-.33-9.63,1.02-10.33,2.12-.7,1.1-1.74,2.48,2.93,4.22,4.67,1.73,20.72,2.02,23.48,3.2,2.75,1.18,4.87,4.47,3.47,8Z" style="stroke-width:0px;fill:#fff;opacity:.2"/><path d="m48.98,44.08c-.12,1.63-.66,3.53-2.78,6.09-3.2,3.86-4.66,3.45-8.13,3.45s-5.46-.97-6.93-.68c-1.46.28-2.13,0,0-1.39,2.13-1.38,6.3-.83,6.3-.83,0,0,1.96-2.48,3.56-5.24,1.6-2.76,0,0-2.65-6.33-1.42-3.39-.94-4.99-.19-5.74h0c.65-.66,1.51-.68,1.51-.68,2.8-.62,9.33,6.83,9.33,9.03,0,.74.05,1.5-.02,2.32Z" style="stroke-width:0px;fill:#19231a"/><path d="m113,50.95c-1.7,3.05-5.79,2.08-8.44,2.19-2.65.1-4.85.71-4.41-1.22s4.41-2.3,4.41-2.3c0,0-7.34-.63-7.05-5.36.12-2.02,1.13-3.22,2.25-3.94h0c1.5-.97,3.19-1.06,3.19-1.06,3.19-.28,4.74,1.11,5.49,2.52.46.87.62,1.74.68,2.23.03.26.03.41.03.41.63.39,1.51.94,2.3,1.62.44.37.85.78,1.18,1.23.16.21.3.42.41.65.47.9.58,1.93-.04,3.04Z" style="stroke-width:0px;fill:#19231a"/><path d="m38.88,35.45v.05c-.23.04-.59.12-.65.35-.07.25-.05.71.12.92.13.16.41.2.6.21.14,0,.29.02.34-.13.03-.1-.03-.1.07-.19.05-.04.17-.07.23-.11.2-.12.24-.12.23-.37,0-.2.05-.51-.27-.47" style="fill:#e9c71d;stroke-width:0px"/><path d="m42.34,35.52c-.19,0-.4-.04-.57.06-.15.09-.2.25-.14.41.08.23.36.29.56.4.2.11.37.07.56-.02.14-.06.39-.06.44-.22.06-.16-.11-.29-.13-.43" style="fill:#e9c71d;stroke-width:0px"/><path d="m42.08,41.12c-.05-.12-.2-.48-.31-.53-.18-.09-.63.25-.69.41-.16.43.58.6.86.6.23,0,.42-.07.6-.2" style="fill:#e9c71d;stroke-width:0px"/><path d="m45.15,40.45c-.24,0-.4-.02-.5.24-.36.91,1,.45,1.34.73.12.1.18.22.36.24.28.04.47-.18.55-.43.1-.32.16-.86-.34-.77" style="fill:#e9c71d;stroke-width:0px"/><path d="m42.34,45.19c.08-.24-.39-.23-.5-.1-.09.1-.03.31.06.39.11.09.31.03.37.17.04.09-.04.23,0,.32.08.19.46.24.64.27.6.11.49-.49.43-.86" style="fill:#e9c71d;stroke-width:0px"/><path d="m46.15,45.86c-.23,0-.46.05-.61.26-.26.38.27.5.53.55.06.14-.03.3.01.45.05.16.29.29.45.29.15,0,.35-.11.42-.23.05-.11.07-.22.08-.33-.03-.15-.12-.23-.29-.24" style="fill:#e9c71d;stroke-width:0px"/><path d="m39.94,48.66s0-.03-.01-.04c-.14.02-.34.31-.39.42-.18.41-.03.57.32.74.3.15.86.16,1.09-.13.19-.24-.07-.71-.07-.99" style="fill:#e9c71d;stroke-width:0px"/><path d="m43.41,49.93c-.23.21-.57.34-.75.6.19.27.54.57.89.44.29-.11.74-.5.66-.85" style="fill:#e9c71d;stroke-width:0px"/><path d="m39.88,39.05c.03-.14.19-.11.3-.14.14-.04.17-.15.29-.22.13-.06.31-.03.41.08.21.24-.15.3-.21.47" style="fill:#e9c71d;stroke-width:0px"/><path d="m45.48,38.92c-.05-.03-.07-.07-.06-.12.17-.05.39,0,.56-.01.08,0,.19-.03.23.04.07.1-.03.2-.13.16" style="fill:#e9c71d;stroke-width:0px"/><path d="m99.74,45.59c-.16-.14-.44-.24-.41-.5.03-.25.34-.28.54-.32.53-.11,1.12-.1,1.67-.08.24.01.37.06.4.3.04.26-.02.51-.23.69-.18.15-.53.19-.76.24-.09.02-.34.03-.42.09-.12.08-.1.24-.29.18" style="fill:#e9c71d;stroke-width:0px"/><path d="m104.85,43.99c-.23.03-.63-.08-.59-.39.17-.04.39.05.55-.03.17-.08.2-.26.39-.34.3-.12.37.09.51.35.05.11.33.63-.05.5" style="fill:#e9c71d;stroke-width:0px"/><path d="m105.25,47.86c-.19.02-.22-.02-.31-.17-.07-.12-.15-.21-.15-.36.22-.06.43.05.64.05.24,0,.17-.32.42-.34.48-.03.41.99.07.94" style="fill:#e9c71d;stroke-width:0px"/><path d="m108.31,47.33c-.21,0-.53-.05-.64-.25.04-.08.1-.08.17-.08.15-.01.16.01.27-.1.08-.08.1-.12.23-.1.17.02.22.12.3.27" style="fill:#e9c71d;stroke-width:0px"/><path d="m112.63,47.26c-.22.01-.71.07-.85-.07l-.6-.4c-.01.16-.14.01-.2,0-.16-.04-.32.06-.48.07-.19.02-.34-.1-.45-.25-.04-.06-.05-.16-.09-.21,0,0-.18-.1-.18-.09-.08-.22.53-.32.66-.32.2,0,.4-.01.59.04.12.03.25.06.37.03.01,0,.03-.01.04-.02.44.37.85.78,1.18,1.23Z" style="fill:#e9c71d;stroke-width:0px"/><path d="m109.12,44c-.2.01-.46.02-.53-.08l-.47-.4c-.2.01-.3-.3-.27-.47.02-.09.09-.16.08-.27-.02-.16-.14-.15-.26-.21-.26-.14-.41-.29-.42-.59,0-.23.04-.32.26-.33.31-.01.63.02.93.11.46.87.62,1.74.68,2.23Z" style="fill:#e9c71d;stroke-width:0px"/><path d="m100.98,42.79c0-.1-.03-.21.03-.3.11-.17.52-.23.69-.29.25-.09.57-.15.7-.41.04-.08.09-.2.01-.26-.06-.05-.29,0-.36,0-.19,0-.42,0-.6.08-.32.16-.58.33-.94.4-.03.15,0,.26.05.39.06.22-.1.23-.18.4-.1.21.12.24.27.29.1.03.46.15.39-.08" style="fill:#e9c71d;stroke-width:0px"/><path d="m110.45,49.86c-.14.03-.15-.04-.2-.14-.03-.06-.09-.11-.07-.19.26-.06.54.02.81-.03.1-.02.2-.05.29-.09.07-.04.11-.12.2-.1.21.05.32.54.15.68-.29.23-.7.19-1.05.19" style="fill:#e9c71d;stroke-width:0px"/><path d="m48.98,44.08c-.12,1.63-.66,3.53-2.78,6.09-3.2,3.86-4.66,3.45-8.13,3.45s-5.46-.97-6.93-.68c-1.46.28-2.13,0,0-1.39,2.13-1.38,6.3-.83,6.3-.83,0,0,1.96-2.48,3.56-5.24,1.6-2.76,0,0-2.65-6.33-1.42-3.39-.94-4.99-.19-5.74,0,0-.15,3.85,3.32,7.85,3.47,4,6.61,4.84,7.51,2.82Z" style="stroke-width:0px;opacity:.4"/><path d="m113,50.95c-1.7,3.05-5.79,2.08-8.44,2.19-2.65.1-4.85.71-4.41-1.22s4.41-2.3,4.41-2.3c0,0-7.34-.63-7.05-5.36.12-2.02,1.13-3.22,2.25-3.94-.06.11-2.2,4.16,1.75,5.34,4,1.2,11.42,6.67,11.53,2.26h0c.47.9.58,1.92-.04,3.03Z" style="stroke-width:0px;opacity:.4"/></g></g></svg>