<?xml version="1.0" encoding="UTF-8"?>
<svg id="Layer_2" data-name="Layer 2" xmlns="http://www.w3.org/2000/svg" viewBox="0 0 228.6 136.93">
  <defs>
    <style>
      .cls-1 {
        fill: #7c8033;
      }

      .cls-1, .cls-2, .cls-3, .cls-4, .cls-5, .cls-6, .cls-7, .cls-8, .cls-9 {
        stroke-width: 0px;
      }

      .cls-2 {
        fill: #473b23;
      }

      .cls-3 {
        fill: #b5ae43;
      }

      .cls-4 {
        fill: #c6dba6;
        opacity: .2;
      }

      .cls-5 {
        fill: #fff;
      }

      .cls-6 {
        fill: #55462f;
      }

      .cls-7 {
        fill: #a7a9ac;
      }

      .cls-8 {
        fill: #231f20;
      }

      .cls-9 {
        fill: #6e6d2e;
      }
    </style>
  </defs>
  <g id="RAMSEY_CANYON_LEOPARD_FROG" data-name="RAMSEY CANYON LEOPARD FROG">
    <g>
      <path class="cls-9" d="m22.38,43.15c14.83.55,42.29-12.63,47.23-27.46,0,0,9.89-11.44-6.59-11.2-5.56.07-13.47,1.8-21.81,4.61-2.09.7-4.2,1.47-6.3,2.31-9.58,3.76-19.07,8.74-25.59,14.08-1.76,1.43-3.3,2.9-4.57,4.37-1.14,1.32-2.04,2.64-2.7,3.95-7.12,14.28,5.51,8.79,20.34,9.34Z"/>
      <path class="cls-6" d="m34.9,11.41c.88,1.21,1.58,2.15,2.22,3.49.29.59.7,1.16,1.01,1.78,1.1,2.15.92,4.81,2,6.96.53,1.01,1.76,1.34,2.79.77.29-.18.57-.66.7-.92.11-.2.37-1.05.37-1.32.02,0,.11-.26.72-2-.11-.79.42-1.74.55-2.53.15-.81.09-1.67.26-2.48.07-.26.29-.57.31-.86.04-.77-.42-1.12-.94-1.63-1.21-1.19-2.37-2.5-3.69-3.58-2.09.7-4.2,1.47-6.3,2.31Z"/>
      <path class="cls-6" d="m22.64,21.69c1.53-.56,3.44.78,4.58,1.58,1.35.96,4.49,2.17,4.71,3.93.25,2.11-.51,4.1-.75,6.15l-.37,1.46c-.27.87-1.32,2.77-2.12,3.19-1.26.66-2.51-.21-3.06-1.35-.73-1.52-.22-3.46-.3-5.1-.1-2.14-.57-4.55-1.92-6.28-.76-.97-3.24-2.69-.77-3.59Z"/>
      <path class="cls-6" d="m6.32,38.65c.35.64,1.14,1.08,1.76,1.41.48.24.94.33,1.49.26.83-.09,1.12-.57,2.55-3.67.24.11.46.11.68-.02.22-1.6.24-3.25.26-4.85.02-1.41.24-3.32-.81-4.37-.72-.48-1.45-.94-2.17-1.43-.26-.18-.51-.35-.77-.48-1.76,1.43-3.3,2.9-4.57,4.37.59,1.43,1.03,3.01,1.16,4.46.13,1.43-.33,3.01.42,4.33Z"/>
      <path class="cls-1" d="m56.43,74.65c26.36,20.06,66.69,10.61,66.69,10.61l10.92-2.83s14.28,2.2,6.59-4.22c-7.69-6.41-2.92-8.96,3.54-7.1,6.48,1.87,73.57-7.07,73.57-7.07,1.38-.9,2.7-1.85,3.89-2.86.07-.02.09-.04.09-.04,1.25-1.05,2.37-2.13,3.32-3.25,1.82-2.13,3.05-4.39,3.45-6.63.2-1.23.18-2.48-.15-3.71-2.2-8.24-22.67-21.15-22.67-21.15,0,0-2.04-13.53-11.38-15.18-9.34-1.65-15.38,8.24-15.38,8.24-1.47-.46-4.28-.9-7.97-1.41-3.47-.44-7.73-.94-12.37-1.52-14.3-1.74-32.16-4.11-41.72-8.06-15.93-6.59-35.15-12.08-49.97-5.49-8.65,3.84-21.62,13.71-31.87,23.13-3.03,2.77-5.82,5.49-8.22,8.02-2.22,2.35-4.06,4.5-5.43,6.37v.02c-1.38,6.41,8.74,14.1,35.08,34.14Z"/>
      <path class="cls-3" d="m60.82,44.03s35.5,1.98,73.22,3.51c37.7,1.56,38.84-3.98,94.44,3.71.2-1.23.18-2.48-.15-3.71,0,0-15.93-2.55-30.75-3.8-14.83-1.23-49.97.15-57.11,0-7.14-.13-46.13-4.53-62.61-2.88-16.48,1.65-17.02,3.16-17.02,3.16Z"/>
      <path class="cls-6" d="m130.02,47.37s35.52,2.79,44.31,3.91c8.79,1.12,38.07,3.32,44.66,3.32,2.77,0,4.57,1.56,6.04,3.3,1.82-2.13,3.05-4.39,3.45-6.63,0,0-22.3-4.94-42.44-5.38-20.14-.44-47.98,1.85-56.02,1.49Z"/>
      <path class="cls-2" d="m153.09,51.86s7.32.18,9.15,6.04c1.83,5.86-2.2,10.15-11.72,9.1-9.52-1.05-8.05-16.78,2.56-15.14Z"/>
      <path class="cls-7" d="m35.01,76.1c16.48,19.22,51.07,27.46,79.63,26.36,28.56-1.1,41.74-20.32,41.74-20.32,0,0,40.09-8.79,51.62-13.18,1.12-.44,2.26-.9,3.36-1.43,2.22-1.01,4.37-2.2,6.37-3.49,0,0-67.09,8.94-73.57,7.07-6.46-1.87-11.23.68-3.54,7.1,7.69,6.41-6.59,4.22-6.59,4.22l-10.92,2.83s-40.33,9.45-66.69-10.61c-26.34-20.03-36.47-27.72-35.08-34.14-.72.97-1.3,1.85-1.71,2.64-4.94,9.34-1.1,13.73,15.38,32.95Z"/>
      <g>
        <path class="cls-8" d="m171.42,51.54c-.5-1.23-.76-2.59-.76-3.93,0-1.04.15-2.06.45-3.03,1.33-4.36,5.44-7.41,10-7.41s8.69,3.05,10.02,7.41c.3.97.45,1.99.45,3.04,0,1.11-.17,2.2-.51,3.23-1.4,4.33-5.4,7.23-9.96,7.23-4.27,0-8.07-2.56-9.68-6.53Zm.58-6.69h0c-.27.88-.41,1.81-.41,2.76,0,1.22.24,2.46.69,3.58,1.47,3.62,4.93,5.95,8.82,5.95,4.15,0,7.8-2.65,9.07-6.59.31-.94.46-1.92.46-2.94,0-.95-.14-1.88-.41-2.76-1.21-3.97-4.96-6.75-9.13-6.75s-7.9,2.78-9.11,6.75Z"/>
        <path class="cls-8" d="m170.92,51.75c-.52-1.29-.8-2.72-.8-4.13,0-1.1.16-2.17.47-3.19,1.4-4.59,5.72-7.8,10.52-7.8s9.14,3.21,10.54,7.8c.31,1.02.47,2.1.47,3.2,0,1.17-.18,2.31-.53,3.4-1.48,4.55-5.69,7.61-10.48,7.61-4.5,0-8.5-2.7-10.2-6.88Zm1.61-6.73c-.26.83-.38,1.71-.38,2.6,0,1.15.23,2.32.65,3.37,1.39,3.41,4.65,5.61,8.32,5.61,3.91,0,7.35-2.5,8.55-6.21.29-.88.43-1.81.43-2.77,0-.9-.13-1.77-.38-2.6-1.14-3.75-4.68-6.36-8.6-6.36s-7.44,2.62-8.58,6.36Z"/>
      </g>
      <path class="cls-2" d="m144.72,72.54c4.7,1.1,13.14-1.47,50.83-3.67,5.89-.35,11.18-.81,15.82-1.34,3.78-1.74,7.36-3.91,10.26-6.35-.81.42-7.03,3.34-21.68,4.02-15.73.75-39.54,2.57-45.76,3.67-6.22,1.1-14.19,2.57-9.47,3.67Z"/>
      <path class="cls-3" d="m185.71,43.02c2.32,1.78,5.24,1.9,5.24,1.9-1.25-4.09-5.07-7.08-9.57-7.08s-8.31,2.99-9.55,7.08c2.43-.06,2.99-.95,4.74-1.9,1.86-1,6.82-1.78,9.14,0Z"/>
      <path class="cls-1" d="m172.13,51.57c1.49,3.66,5.07,6.24,9.25,6.24,4.44,0,8.21-2.9,9.51-6.91-1.43.28-2.69.69-3.79.87-1.86.32-4.18,2.01-8.14.78-3.96-1.25-6.84-.98-6.84-.98Z"/>
      <path class="cls-6" d="m171.4,47.81c0,1.32.26,2.6.72,3.75,0,0,2.88-.26,6.84.98,3.96,1.23,6.28-.46,8.14-.78,1.1-.19,2.36-.59,3.79-.87.32-.97.48-2.01.48-3.08,0-1-.15-1.99-.43-2.9,0,0-2.92-.11-5.24-1.9-2.32-1.78-7.28-1-9.14,0-1.75.95-2.3,1.84-4.74,1.9-.28.91-.43,1.9-.43,2.9Z"/>
      <path class="cls-8" d="m175.75,47.63c0,2.96,2.4,5.37,5.37,5.37s5.37-2.4,5.37-5.37-2.4-5.37-5.37-5.37-5.37,2.4-5.37,5.37Z"/>
      <circle class="cls-5" cx="177.48" cy="43.54" r="2.04"/>
      <path class="cls-4" d="m44.9,13.13s-20.04,16.69-29.11,19.6c-9.06,2.92-13.76,2.77-4.12-6.15C21.32,17.67,57.71,3.22,44.9,13.13Z"/>
      <path class="cls-6" d="m185.71,19.95c1.41-.56,2.83-.64,4.36-.51,1.85.16,2.21,1.9,3.67,2.7,1.02.56,2.04,1.47,1.83,2.8-.28,1.78-1.41.62-2.52,1.16-.02.1-.04.2-.05.3l-3.3.37c.38-1.14-1.56-.74-2.2-.73-1.33.01-2.41-.35-3.66-.81-1.22-.45-1.86-1.09-1.5-2.47.38-1.47,2.09-2.29,3.37-2.8Z"/>
      <path class="cls-6" d="m114.98,53.89c.1-1.48,1.03-1.52,2.17-2.27.59.26.73.77.42,1.51l2.93-3.3c2.69,0,5.14-.46,7.64.89,1.29.7,3.05,1.79,2.29,3.47-.92,2.05-4.1,3.23-6.07,3.84-2.87.89-6.94,2.14-8.98-.89-.58-.86-.47-2.24-.4-3.27Z"/>
      <path class="cls-6" d="m106.16,63.03c.02.12.04.23.06.35l3.66-1.83c2.32,0,4.94-.21,5.48,2.73.29,1.61-.2,3.74-.71,5.27-.36,1.06-.65,1.81-1.85,1.91-1.58.13-3.37.07-4.96-.01-1.43-.08-2.22-.48-2.89-1.82-.6-1.22-.83-2.74-.5-4.09.19-.77.93-2.29,1.71-2.51Z"/>
      <path class="cls-6" d="m91.59,54.44c-.57,1.09.83,2.82,1.19,3.74.46,1.17.13,1.44-1.01,2.28-1.5,1.09-3.47,1.79-5.27,2.16-3.68.74-4.2-3.09-4.1-5.76.07-1.87.53-2.13,2.21-2.36.53-.07,1.05-.24,1.59-.29.49-.04,1.06.15,1.53.04.79-.2.56-.53.55-1.4,0-.64,0-1.27,1.83-4.11.31-1.35,3.4-.83,4.33-.68,1.15.18,2.71,1.58,2.99,2.8.29,1.28-1.51,2.1-2.36,2.5-.76.36-1.23.44-2.03.51-.51.04-1.19.09-1.45.59Z"/>
      <path class="cls-6" d="m80.35,72.38c.74-.44,1.17-.65,2.02-.43,1.45.37,2.16.78,3.69.38.93-.24,1.6-.51,2.57-.53.76-.02,1.53.01,2.29,0,1.46,0,3.8-.34,2.88,1.81-.91,2.13-2.21,4.79-4.07,6.24-1.45,1.13-2.7,1.11-4.38,1.1l-2.2-.73c-.02-.1-.04-.2-.06-.3-.72-.21-1.41-.22-2.1-.41-1.69-.47-2.7-.99-3.16-2.78-.51-1.95.9-3.38,2.52-4.35Z"/>
      <path class="cls-6" d="m151.71,29.12c.86-.2,1.79.06,2.6-.13.43-.1.72-.31,1.14-.4.62-.13,2.37-.29,2.02.75h1.83c.77-.08.98-.54,1.88-.34.99.22,2.18,1,2.78,1.85,1.05,1.48.46,3.35-.16,4.86-.29.71-.61,1.76-1.17,2.36-1.23,1.33-3.04,1.21-4.67,1.18-1.77-.03-3.19-.95-4.88-1.33-1.47-.33-2.74-.34-4.08-1.07-1.69-.92-2.06-2.22-1.77-4.12.32-2.09,2.62-3.15,4.47-3.6Z"/>
      <path class="cls-6" d="m135.88,21.24c-.18-.53-.1-1.56.23-1.94.76-.89,2.39-.56,3.06-1.68h2.2c1.68.16,3.31.52,4.89,1.07-.06.79-.01,1.57.07,2.35-2.48,1.13-5.41,1.51-8.14,1.37-.92-.05-1.97-.16-2.31-1.17Z"/>
      <path class="cls-6" d="m125.85,32.83c-.43-.2-2.12-1-2.37-1.47-.68-1.27.57-2.58,1.78-2.76l3.66-.73c1.35.13,2.78-.39,4.17-.38,1.19,0,3.37-.5,4.11.64.44.68.87,3.4.36,4.08-.81,1.1-4.28.77-5.55.88-1.98.16-4.28.61-6.17-.26Z"/>
      <path class="cls-6" d="m114.34,16.2c-1.85-.36-3.55-1.31-5.25-2.12-.95-.45-1.84-.96-2.3-1.96-.37-.79-.25-.91.4-1.34,1-.65,2.87-1.7,4.11-1.58.21.4.47.77.79,1.1l1.83-.37c.58.02,1.04-.08,1.59.12,1.28.47,2.94,1.85,3.69,2.96.39.58,1.1,2.47.56,3.19-.75,1.01-4.58.16-5.42,0Z"/>
      <path class="cls-6" d="m96.39,35.19c-.56-.21-.98-1.09-1.13-1.69-.26-1.06-.15-3.96,1.44-3.8l3.3-.37c.55,0,1.11,0,1.66,0,.8,0,3.31-.49,3.92.07,1.04.95-.11,3.24-.88,3.93-1.19,1.07-3.4,1.35-4.87,1.65-.86.18-2.55.54-3.44.2Z"/>
      <path class="cls-6" d="m106.95,20.18l1.46.73c1.04-.18,3.01-1.05,3.53.55.4,1.22-1.5,1.49-2.37,1.68-1.08.23-2.17.28-3.26.35-.79.05-1.55.32-2.32.35-.89.04-1.66-.4-2.39-.92-.65-.47-.64-.49-.11-.99.61-.58,1.94-1.06,2.71-1.41.91-.4,1.8-.19,2.68-.55.02.07.04.14.05.21Z"/>
      <path class="cls-6" d="m74.37,32.85c.69-.66,1.15-1.03,1.11-2.05-.02-.54-.16-1-.46-1.46-.63-.96-.9-1,.11-1.83,1.51-1.23,3.42-2.52,5.35-2.86,1.37-.24,3.74-1.09,4.43.62,1.14,2.83-1.54,3.74-3.58,4.45-1.03.36-1.46.5-2.2,1.46l1.1,1.1c.7-.12,1.48.35,1.82.94.47.81.75,3.09.36,3.95-.38.85-2.58,1.22-3.48,1.53-.91.31-1.93.71-2.9.53-.58-.11-2.42-.73-2.73-1.24-.28-.46-.03-1.69-.04-2.22-.02-1.23.19-2.04,1.11-2.91Z"/>
      <path class="cls-6" d="m74.73,8.25c.18-.26.01-1.12,0-1.46-.02-.92-.05-1.38.73-1.91,1.25-.85,3.07-.97,4.5-1.16.67-.09,1.27-.38,1.91-.56.39-.11,1.03-.1,1.31-.39,0,.07-.02.14,2.17-.52.49,0,1.06-.1,1.54.04,1.27.37,2.1,2.02,2.17,3.25.1,1.72-1.5,1.53-2.86,1.45-2.23-.14-4.12-.5-6.32.19-.78.24-2.56.63-3.08,1.27-.54.66-.08,1.54.06,2.24.22,1.09.01,1.33-1.07,1.55-1.06.22-2.46.68-3.28-.18-.51-.53-1.1-1.94-.66-2.65.57-.93,2.34-.38,2.88-1.15Z"/>
      <path class="cls-6" d="m67.32,23.14c-2.17,1.11-6.1,2.47-8.64,1.76-.75-1.85,2.33-3.46,3.61-3.99l2.93-.73c.72-.23.97-.83,1.86-.75.73.06,1.23.51,1.53,1.17.58,1.3-.15,1.97-1.29,2.55Z"/>
      <path class="cls-6" d="m54.07,17.81c-1.52.97-2.68,2.73-4.54,3.06-.92.16-2.06.19-2.98.03-.34-.77.6-2.47.84-3.25.14-.47.24-1.15.6-1.53.66-.67,1.68-1.13,2.4-1.79.94-.87,2.14-1.86,3.47-1.83l1.46.37c.89-.28,1.32.9,1.46,1.53.48,2.17-1.16,2.42-2.72,3.41Z"/>
      <path class="cls-6" d="m46.38,45.81c-1.54-.27-1.67-1.52-1.68-2.88,0-1.66.02-3.32.02-4.98,0-.77-.05-1.48.18-2.23.5-1.6,1.36-1.74,2.38-2.73l4.39.73c.71-.58,1.37-.1,2.16.3,2.19,1.11,3.17,2.88,2.21,5.22-.85,2.07-3.05,3.65-4.85,4.87-1.31.89-3.14,1.99-4.82,1.7Z"/>
      <path class="cls-6" d="m26.78,34.12c.09,1.14.59,1.19,1.8,1.36,1.89.26,3.32-.09,5.07-.75,1.41-.53,3.43-.77,3.69-2.53.13-.97-.18-2.66-1.05-3.25l1.47-1.1c-.62-.9-1.63-1.49-2.77-1.76-3.03,2.77-5.82,5.49-8.22,8.02Z"/>
      <path class="cls-6" d="m158.53,17.43c.07,1.05.29,1.78,1.25,2.15,1.41.53,3.21.15,4.66.31,1.47.18,2.42.55,3.8-.09.4-.18,2.11-.97,2.68-1.76-3.47-.44-7.73-.94-12.37-1.52-.04.31-.04.62-.02.9Z"/>
      <path class="cls-6" d="m59.95,61.17c.8-.73,1-1.57,1.43-2.53.58-1.29.94-1.85,2.35-1.85,1.11,0,2.21,0,4.79.37.13-.07.26-.13.39-.2-.07,1.31.26,2.81-.04,4.08-.47,2.01-3.42,3.22-4.94,4.15-1.44.87-2.97,2.06-4.69,2.21-.98.08-1.55.12-2.47.47-.41-.28-.64-1.47-.68-1.88-.13-1.22.73-2.55,1.6-3.31.69-.6,1.59-.89,2.26-1.51Z"/>
      <path class="cls-6" d="m47.42,51.33c1.54-.27,1.94.35,2.79,1.44l.73,2.2c0,2.24-.23,5.87-2.73,6.71-.43.15-1.12.35-1.57.38-1.52.1-1.62-1.95-1.82-3.02-.35-1.86-.26-3.66-.11-5.53.1-1.31,1.46-1.95,2.71-2.18Z"/>
      <path class="cls-4" d="m202.88,29.7s13.24,6.95,14.86,10.8c1.62,3.85-12.66.91-23.28,0,0,0-1.31-9.7-12-10.8s-12.16,9.15-12.16,9.15c0,0-13.91,3.49-43.2-2.83-29.29-6.32-64.07,5.22-79.45,6.41-15.38,1.18-23.07.65-16.11-6.41S58.76,8.02,75.59,4.48c16.82-3.54,33.02,11.18,58.45,11.67,25.43.49,42.27,5.03,48.42,7.27,6.14,2.25-2.38-1.74,1.2-6.54,3.59-4.8,18.31-8.97,19.22,12.81Z"/>
      <path class="cls-9" d="m109.15,102.57c1.87,5.65,6.59,12.94,11.38,19.7.88,1.23,1.74,2.44,2.59,3.62,5.54,7.69,13.49,9.16,21.18,9.16s12.08,2.92,14.28,1.45c2.2-1.45-2.57-4.02-6.22-4.57-3.67-.55-8.06-.92-5.87-4.94,2.2-4.02,8.79-1.1,9.89-5.87,1.1-4.74-2.57-2.55-5.12-1.1-2.57,1.47-9.71,3.3-9.71,3.3-1.25-3.1-3.27-6.83-5.32-10.26-1.52-2.57-3.08-4.96-4.28-6.83-1.47-2.24-2.48-3.67-2.48-3.67l4.57-8.59s-13.31,8.68-16.37,8.57c-.75-.02-1.6-.61-2.39-1.67-.57-.75-1.1-1.71-1.56-2.83-.59-1.45-1.1-3.16-1.36-5.03-1.03,1.47-1.87,2.9-2.44,4.26-.9,2.04-1.23,3.89-.77,5.29Z"/>
      <path class="cls-9" d="m5.58,77.24c.11.33.22.64.33.97.22.64.46,1.25.7,1.89,2.44,6.06,5.91,11.44,9.53,16.1.75.94,1.49,1.87,2.24,2.77,3.14,3.71,6.26,6.9,8.81,9.47,2.04,2.06,3.71,3.76,4.74,5.05.24.29.44.55.59.79,3.3,4.94.83,13.18,1.67,16.19.81,3.03,4.66,1.93,4.11-2.2-.55-4.11,0-10.98,0-10.98,0,0,9.07,9.34,10.17,13.18,1.1,3.84,7.4,3.84,5.76,1.47-1.65-2.37-8.79-14.1-8.79-14.1,0,0,24.71,9.89,29.66-10.28.88-3.6.51-7.49-.72-11.47-3.19.57-8.13-3.01-13.09-7.78-1.49-1.43-2.97-2.97-4.42-4.53-2.46-2.66-4.79-5.4-6.77-7.82-2-2.46-3.62-4.59-4.66-6-.15-.2-.29-.42-.42-.62-4.5-6.81.42-11.38.42-11.38-2.04-.64-3.71-.81-5.05-.68-4.42.42-5.38,3.98-5.38,3.98,0,0-3.01-2.53-7.12-5.32-2.39-1.65-5.16-3.38-7.93-4.77-3.12-1.56-6.24-2.68-8.76-2.68-.51,0-.99.04-1.45.13-8.08,1.63-10.35,10.65-4.17,28.6Z"/>
      <path class="cls-1" d="m112.36,93.02c.77,5.43,3.34,9.47,5.32,9.53,3.05.11,16.37-8.57,16.37-8.57l3.67-6.9c1.01-1.89,1.1-9.89-6.96-8.79-5.23.73-13.71,7.93-18.39,14.72Z"/>
      <path class="cls-1" d="m45.03,69.36c.13.2.26.42.42.62,1.03,1.41,2.66,3.54,4.66,6,1.98,2.42,4.31,5.16,6.77,7.82,1.45,1.56,2.92,3.1,4.42,4.53,4.96,4.77,9.91,8.35,13.09,7.78-1.45-4.7-4.06-9.51-7.16-14.06-1.01-1.49-2.09-2.97-3.19-4.39-1.95-2.57-4.02-5.01-6.02-7.23-1.98-2.22-3.91-4.22-5.62-5.93-4.02-4.02-6.94-6.5-6.94-6.5,0,0-4.92,4.57-.42,11.38Z"/>
      <path class="cls-6" d="m117.25,91.35c-.97.29-2.29.7-3.15-.12-.75-.72-.92-1.98-.85-2.99.08-1.2.93-1.5,1.88-2.06.76-.45,1.38-.79,2.27-.82,1.34-.05,1.28-.02,2.18,1.38l.82-1.65c1.46-.43,2.25,1.95,1.79,3.02-.49,1.14-2.38,1.92-3.37,2.46-.51.28-1.02.62-1.58.79Z"/>
      <path class="cls-6" d="m128.97,112.37c.83,1.43,3.21,1.3,4.59,1.32,1.14,0,2.17.02,2.68-.61-1.52-2.57-3.08-4.96-4.28-6.83-1.41.2-2.86.51-3.62,1.85-.66,1.19,0,3.23.64,4.28Z"/>
      <path class="cls-6" d="m109.15,102.57c1.87,5.65,6.59,12.94,11.38,19.7.75-.88.46-2.61.44-3.6-.02-2-.48-3.87-1.43-5.65-.79-1.49-2.13-3.03-3.47-4.06-.53-.42-1.38-.59-1.78-1.16-.2-.29-.15-.68-.2-1.01-.09-.79-.57-1.58-.59-2.35,0-.88.97-1.52,1.38-2.22.26-.46.4-.92.4-1.34.02-1.08-.68-2.04-1.56-2.83-.4-.35-.83-.68-1.27-.94-.22-.13-1.54-1.05-1.65-.22-.37.2-.66.33-.88.4-.9,2.04-1.23,3.89-.77,5.29Z"/>
      <path class="cls-6" d="m133.32,125.99l1.92-1.65c1.09-.12,2.46.3,2.72,1.47.15.68.31,2.44-.27,2.97-.52.47-1.44.68-2.1.77-.99.13-2.54.27-2.98-.79-.29-.71-.23-1.97-.1-2.72.26-.08.53-.1.8-.04Z"/>
      <path class="cls-6" d="m27.19,108.44c2.04,2.06,3.71,3.76,4.74,5.05,1.65-.26,2.5-1.56,3.4-3.05.81-1.36.9-.68,2.04-.55.94.11,1.98,0,2.92,0,1.54,0,2.99.07,4.46-.29,1.41-.35,2.92.09,4.35-.18,2.83-.53,6.13-1.05,8.04-3.47.86-1.1,2.13-1.91,2.94-3.01.7-.92,1.16-2.79,1.38-3.89.4-1.82.07-4.04.09-5.91,0-1.19-.11-2.31-.31-3.49-.07-.46-.18-.88-.04-1.32.02,0,.04-.02.07-.02,1.52-.42,2.99.46,4.22-.9.77-.86,1.6-3.32,1.71-5.38-1.01-1.49-2.09-2.97-3.19-4.39-.02.18-.07.35-.13.57-.24.9-.31,1.98-.9,2.72-.57.75-1.69,1.08-2.53,1.49-1.21.59-2.37,1.03-3.6,1.36-.72.2-1.45.37-2.22.53-.07.48-.26.94-.42,1.41-.15.44-.51.79-.66,1.16-.18.44-.04.94-.11,1.41-.11.86-.24,1.56-.29,2.42-.07,1.47-1.21,2.55-2.04,3.65-1.25,1.63-2.31,2.97-3.93,4.28-2,1.63-3.95,3.08-6.46,3.87-2.42.77-5.07,1.25-7.58,1.69-.97.18-2.66-.24-3.03.92-.11.37-.02.75-.22,1.1-.24.42-.9.77-1.27,1.1-.46.42-.97.79-1.45,1.12Z"/>
      <path class="cls-6" d="m16.14,96.2c.75.94,1.49,1.87,2.24,2.77.09-.04.2-.07.29-.09,1.16-.29,2.66-.51,3.69-1.16,1.14-.7,2.99-2.24,2.97-3.6,0-1.43.57-1.32,1.89-1.54.72-.11,1.38-.2,2.11-.24.88-.07,1.38-.46,2.22-.68.7-.2,1.52-.2,2.24-.33,1.21-.24,2.35-.57,3.54-.86,2-.48,2.83-.83,4.46-2.11,1.34-1.03,2.35-2.09,3.27-3.51,1.45-2.17,3.01-4.57,3.91-7.01.4-1.1.44-1.49,1.14-1.87.13-.09.26-.15.44-.22,1.16-.48,2.17-.48,3.38-.7,1.14-.22,3.21-1.08,3.73-2.24.11-.26.29-1.25.35-2.39-1.98-2.22-3.91-4.22-5.62-5.93-.46.35-.75.86-1.08,1.45-.86,1.49-1.36,2.68-3.19,3.05-1.03.2-2.06.24-3.1.37-.22.02-.42.04-.64.07-.44.07-1.36,0-1.71.2-.68.4-.68,1.76-.88,2.55-.42,1.54-1.49,2.99-2.35,4.35-.88,1.41-1.95,2.61-2.99,3.89-1.36,1.71-2.13,3.14-4.06,4.22-1.87,1.05-3.82,1.85-5.87,2.55-1.34.46-2.86.64-4.17,1.19-.04.9.2,1.93.07,2.83-.13.83-.72,1.23-1.3,1.85-.75.79-1.34,1.63-2.31,2.15-.81.44-1.8.7-2.68,1.01Z"/>
      <path class="cls-6" d="m5.58,77.24c.11.33.22.64.33.97.22.64.46,1.25.7,1.89,1.32,0,2.81,0,3.76-.33,1.05-.35,2.17-1.71,2.2-2.81.77.09,1.36.35,2.2.33.86,0,1.71.02,2.57.02,1.41-.02,2.88-.26,4.26-.42,1.6-.18,3.32-.48,4.9-.9,1.87-.46,3.69-1.49,5.43-2.35,1.05-.51,1.96-1.23,2.66-2.17.86-1.16,1.54-3.01,1.89-4.37.37-1.43-.15-3.03.26-4.42.48.02.66-.33,1.1-.42.75-.15,1.41.26,2.06-.31.57-.51.42-.81.44-1.47.02-1.01.11-2.11.07-3.19-4.42.42-5.38,3.98-5.38,3.98,0,0-3.01-2.53-7.12-5.32v.26c-.07.83-.37,1.58-.4,2.44-.04,1.16-.22,2.24-.68,3.36-.81,2-2.88,3.12-3.91,5.03-.51.9-1.03,2.17-1.8,2.88-1.12,1.01-2.75,1.21-4.15,1.49-1.82.35-3.95.53-5.84.37-.77-.07-1.52-.33-2.28-.33-.09,1.71.09,3.73-1.34,5.03-.57.51-1.23.66-1.91.75Z"/>
      <path class="cls-6" d="m10.89,57.61c2.33.13,4.55-2.88,6.11-4.24.79-.68,1.85-1.58,2.97-2.17-3.12-1.56-6.24-2.68-8.76-2.68-1.52,1.6-1.91,3.62-2,5.84-.07,1.43-.18,3.16,1.69,3.25Z"/>
      <path class="cls-6" d="m22.38,50.57v-.02c.09,0,.19,0,.29,0-.1,0-.19,0-.29.01Z"/>
      <path class="cls-4" d="m19.64,54.32s36.79,29.29,45.03,41.83c8.24,12.54,4.94,16.66-2.2,15.56-7.14-1.1-46.13-39.27-50.25-46.95s-3.48-13.92,7.41-10.43Z"/>
    </g>
  </g>
</svg>