<?xml version="1.0" encoding="UTF-8"?>
<svg id="Layer_2" data-name="Layer 2" xmlns="http://www.w3.org/2000/svg" viewBox="0 0 163.89 268.13">
  <defs>
    <style>
      .cls-1 {
        fill: #666;
      }

      .cls-1, .cls-2, .cls-3, .cls-4, .cls-5, .cls-6, .cls-7, .cls-8, .cls-9, .cls-10, .cls-11, .cls-12, .cls-13, .cls-14 {
        stroke-width: 0px;
      }

      .cls-2 {
        fill: #633d2d;
      }

      .cls-3 {
        fill: #808285;
      }

      .cls-4 {
        fill: #58595b;
      }

      .cls-5 {
        fill: #1b110d;
      }

      .cls-6 {
        fill: #fff;
      }

      .cls-7 {
        fill: #3d271f;
      }

      .cls-8 {
        fill: #231f20;
      }

      .cls-9 {
        fill: #3c2415;
      }

      .cls-10 {
        fill: #bcbec0;
      }

      .cls-11 {
        fill: #d1d3d4;
      }

      .cls-12 {
        fill: #414042;
      }

      .cls-13 {
        fill: #f2f2f2;
      }

      .cls-14 {
        fill: #281712;
      }
    </style>
  </defs>
  <g id="GALAPAGOS_PENGUIN" data-name="GALAPAGOS PENGUIN">
    <g>
      <path class="cls-5" d="m151.21,218.74c-3.14-5.38-4.4-16.37-4.88-22.65-7.13-1.73-22.57,20.27-16.91,25.47,7.06,6.49,12.78,9.54,16.79,13.91,4.01,4.36,4.77,4.41,5,0,.23-4.41-1.56-9.61-1.56-9.61,0,0,2.29,1.05,8.97,6.38,3.58,2.85,5.27,3.02,5.28,1.64-4.58-3.55-9.39-9.49-12.68-15.13Z"/>
      <path class="cls-9" d="m160.14,227.48c-5.34-6.11-10.49-25.19-10.49-25.19-.3-3.93-1.56-5.77-3.32-6.2.48,6.28,1.74,17.27,4.88,22.65,3.29,5.64,8.1,11.59,12.68,15.13,0-1.2-1.27-3.56-3.75-6.4Z"/>
      <path class="cls-4" d="m40.13,249.61c4.01-1.72,25.19-3.62,27.67-6.11,2.48-2.48,4.39-5.53,3.05-8.59-1.33-3.05-16.04-3.82-20.61-9.06,0,0,0,0,0,0,.19.87.29,1.64.2,2.2-.57,3.63-16.03,3.24-21.72,4.58-5.69,1.34-8.62,4.58-9.95,8.53s-1.14,7.69.79,6.74c1.55-4.72,4.31-7.01,7.75-8.97,3.43-1.96,13.45-2.19,16.31-3.11,2.86-.92,4.01.21.86,1.35-3.15,1.14-11.88,1.57-14.88,3.72-3.01,2.15-4.13,6.63-4.13,6.63-.73,2.21-.22,5.08,1.02,5.75,2.22-3.3,4.83-4.6,7.96-8.05,3.98-4.39,13.62-5.2,17.05-6.05,3.43-.86,4.72.72,2.15,2-2.58,1.29-9.3,0-14.45,2.58s-5.71,7.78-5.71,7.78c0,0-.52,6.32.78,6.54,1.07-2.77,3.16-7.28,5.89-8.45Z"/>
      <path class="cls-12" d="m35.36,257.24c2.67-3.62,22.71-8.59,30.15-8.2,7.44.38,13.36-3.43,13.74-9.92.38-6.49-3.42-14.88-3.42-14.88-2.61-7.75-13.18-5.73-22.53-8.78-7.91-2.58-4.09,5.61-3.07,10.39,0,0,0,0,0,0,4.57,5.25,19.28,6.01,20.61,9.06,1.33,3.05-.57,6.11-3.05,8.59-2.48,2.48-23.66,4.39-27.67,6.11-2.72,1.17-4.82,5.67-5.89,8.45.28.05.64-.17,1.11-.81Z"/>
      <path class="cls-12" d="m39.17,243.74c5.15-2.58,11.88-1.29,14.45-2.58,2.58-1.29,1.29-2.86-2.15-2-3.43.86-13.07,1.66-17.05,6.05-3.13,3.45-5.73,4.75-7.96,8.05.36.2.78.23,1.26-.03,2.1-1.14,5.74-1.72,5.74-1.72,0,0,.56-5.2,5.71-7.78Z"/>
      <path class="cls-12" d="m29.58,240.88c3.01-2.15,11.73-2.58,14.88-3.72,3.15-1.14,2-2.28-.86-1.35-2.86.92-12.88,1.15-16.31,3.11-3.43,1.96-6.19,4.25-7.75,8.97,1.93-.95,5.9-.38,5.9-.38,0,0,1.13-4.48,4.13-6.63Z"/>
      <path class="cls-3" d="m35.74,247.89s3.43-3.51,6.73-4.15c3.29-.64,13.31-1.5,11.81-.36-1.5,1.14-9.16,3.01-11.16,3.43-2,.43-9.42,4.39-7.37,1.07Z"/>
      <path class="cls-3" d="m28.08,244.03s.93-2.15,4.58-3.22c3.65-1.07,8.37-2.28,9.66-1.89,1.29.39-1.93,1.18-2.65,1.53-.72.36-7.51,3.08-8.8,4.72-1.29,1.65-4.15,2.79-2.79-1.14Z"/>
      <path class="cls-3" d="m20.57,239.52c.12-.28,2.29-4.58,7.51-5.65,5.22-1.07,12.24-2.36,11.38-1.14-.86,1.22-6.51.43-10.02,2.43-3.51,2-11.02,9.37-8.87,4.36Z"/>
      <path class="cls-4" d="m96,259.02c3.95-2.08,25.43-5.78,27.76-8.52,2.33-2.74,4.02-6.01,2.41-9.02-1.61-3.01-16.7-2.58-21.8-7.56,0,0,0,0,0,0,.26.87.43,1.65.39,2.23-.29,3.75-16.1,4.63-21.81,6.47-5.7,1.83-8.43,5.39-9.46,9.53-1.04,4.14-.53,7.95,1.36,6.82,1.2-4.95,3.83-7.52,7.17-9.8,3.35-2.29,13.56-3.34,16.41-4.52,2.85-1.18,4.11-.12.99,1.31-3.12,1.43-12,2.59-14.89,5.03-2.89,2.44-3.68,7.11-3.68,7.11-.56,2.32.2,5.21,1.51,5.79,2-3.55,4.55-5.09,7.46-8.87,3.71-4.81,13.48-6.43,16.92-7.59,3.44-1.16,4.88.34,2.36,1.87-2.53,1.53-9.5.77-14.55,3.82-5.05,3.06-5.19,8.41-5.19,8.41,0,0-.02,6.5,1.33,6.61.86-2.92,2.63-7.7,5.31-9.11Z"/>
      <path class="cls-12" d="m91.76,267.2c2.43-3.92,22.48-10.64,30.12-10.87,7.63-.22,13.36-4.61,13.21-11.27-.14-6.66-4.72-14.92-4.72-14.92-3.3-7.7-13.93-4.76-23.73-7.11-8.29-1.98-3.71,6.07-2.28,10.87,0,0,0,0,0,0,5.1,4.98,20.19,4.55,21.8,7.56,1.61,3.01-.08,6.28-2.41,9.02-2.33,2.74-23.8,6.43-27.76,8.52-2.68,1.41-4.45,6.19-5.31,9.11.29.02.64-.23,1.07-.92Z"/>
      <path class="cls-12" d="m94.54,253.1c5.05-3.06,12.02-2.3,14.55-3.82,2.52-1.53,1.08-3.03-2.36-1.87-3.44,1.16-13.21,2.78-16.92,7.59-2.91,3.78-5.46,5.33-7.46,8.87.38.17.82.17,1.28-.13,2.05-1.34,5.72-2.23,5.72-2.23,0,0,.14-5.36,5.19-8.41Z"/>
      <path class="cls-12" d="m84.51,250.97c2.89-2.44,11.77-3.6,14.89-5.03,3.12-1.43,1.86-2.49-.99-1.31-2.85,1.18-13.06,2.24-16.41,4.52-3.34,2.29-5.97,4.85-7.17,9.8,1.9-1.13,6-.88,6-.88,0,0,.78-4.67,3.68-7.11Z"/>
      <path class="cls-3" d="m91.38,257.62s3.22-3.86,6.53-4.79c3.31-.93,13.47-2.63,12.03-1.34-1.44,1.29-9.11,3.82-11.12,4.43-2.01.6-9.25,5.26-7.44,1.7Z"/>
      <path class="cls-3" d="m83.24,254.31s.78-2.27,4.41-3.67c3.64-1.4,8.36-3.02,9.71-2.73,1.35.29-1.88,1.36-2.58,1.78-.7.42-7.42,3.76-8.6,5.55-1.18,1.79-4.01,3.19-2.94-.94Z"/>
      <path class="cls-3" d="m75.19,250.32c.1-.3,1.96-4.87,7.21-6.39,5.25-1.53,12.3-3.42,11.53-2.11-.78,1.31-6.62.97-10.03,3.31-3.42,2.33-10.48,10.48-8.7,5.19Z"/>
      <path class="cls-5" d="m33.83,92.24c-1.54-6.98-5.64-9.2-8.96-8,2,7.9-1.53,22.14-6.11,31.8-7.24,15.25-14.51,35.12-14.51,53.74,0,13.75,10.39,33.86,15.84,43.46.1.03.21.1.32.12,6.74,1.53,6.8-17.92,8.3-34.53,1.49-16.61,7.62-75.28,5.13-86.59Z"/>
      <path class="cls-9" d="m18.76,116.04c4.58-9.66,8.11-23.9,6.11-31.8-2.06.74-3.82,2.79-4.46,5.86,0,0-3.78,20.23-8.06,28.62-4.28,8.39-14.59,32.44-11.91,53.04,2.63,20.3,12.91,39.44,19.66,41.48-5.45-9.6-15.84-29.72-15.84-43.46,0-18.62,7.27-38.48,14.51-53.74Z"/>
      <path class="cls-5" d="m99.66,95.82c-6.87-8.78,4.96-27.09,4.58-39.69-.38-12.59-4.58-29.77-9.92-37.78-5.34-8.01-20.99-14.12-43.5-11.83-18.53,1.88-25.73,20.04-27.7,26.41-.89,6.1-.54,10.6-.54,10.6,0,0,.82,5.56.79,14.27.11,2.08,1.68,9.72,18.96,11.2,20.03,1.72,40.36-2,43.79-13.17,3.43-11.16,1.14-35.2-17.74-36.92-18.89-1.72-23.18,12.88-21.75,4.58,1.43-8.3,13.45-13.74,26.62-10.88,13.17,2.86,24.61,11.16,26.9,34.63,2.29,23.47-8.87,34.92-12.31,38.92-3.43,4.01,4.87,10.59,6.58,21.18,1.72,10.59,47.64,69.63,50.86,111.37,1-1.74,1.51-2.9,1.51-2.9,2.24-3.36,3.67-8.43,4.42-14.64.04-30.09-11.1-64.55-19.12-77.36-8.01-12.82-25.57-19.24-32.44-28.01Z"/>
      <path class="cls-5" d="m125.99,170.62s-12.21,3.43-30.91-34.34c-18.7-37.78-32.06-42.36-53.81-43.88-9.74-.68-16.23.62-20.45,2.27.44-.17.9-.34,1.39-.5-.38,2.4-.89,4.61-1.56,6.44-.43,1.19-.81,2.73-1.1,4.55,0,0,0,0-.01,0,4.54-1.03,10.68-1.64,19.06-1.31,29.38,1.14,38.16,23.66,53.81,49.23,15.65,25.57,39.69,33.2,39.69,33.2l-6.1-15.65Z"/>
      <path class="cls-1" d="m19.54,105.15c-1.75.4-3.28.85-4.59,1.34,1.3-.49,2.84-.95,4.59-1.34Z"/>
      <path class="cls-9" d="m20.66,100.6c.67-1.83,1.17-4.04,1.56-6.44-.49.16-.95.33-1.39.5-.02,0-.03.01-.05.02-.39.15-.75.31-1.1.46-.09.04-.18.08-.26.12-.28.13-.54.26-.79.38-.08.04-.17.09-.26.13-.31.17-.61.33-.89.49-.09.28-.16.56-.25.84-1,3.01-1.73,6.16-2.27,9.38,1.3-.49,2.84-.95,4.59-1.34,0,0,0,0,.01,0,.3-1.82.67-3.36,1.1-4.55Z"/>
      <path class="cls-6" d="m22.22,94.16c1.82-11.35.89-26.96.89-26.96,0,0-.08.02-.13.03-.62,8.55-2.15,18.64-5.5,29.04,1.21-.72,2.77-1.46,4.74-2.12Z"/>
      <path class="cls-6" d="m19.56,105.15c-1.76.4-3.29.85-4.6,1.35-4.88,29.19,7.95,65.83,18.5,87.84-14.02-42.22-16.24-74.98-13.9-89.19Z"/>
      <path class="cls-9" d="m23.11,32.94c.04-.15.11-.33.16-.49-.02,0-.05,0-.08,0-.02.16-.06.33-.08.48Z"/>
      <path class="cls-9" d="m139.91,115.66c-10.3-33.2-29.19-62.39-33.77-76.7C101.56,24.65,99.27-1.11,59.2.04c-15.98.46-25.01,7.47-30.12,15.74-.23.57-.87,2.58.34,4.09,4.35-6.26,11.13-12.29,21.39-13.34,22.52-2.29,38.16,3.82,43.5,11.83,5.34,8.01,9.54,25.19,9.92,37.78.38,12.59-11.45,30.91-4.58,39.69,6.87,8.78,24.43,15.19,32.44,28.01,8.01,12.82,19.15,47.27,19.12,77.36,2.73-22.36-3.23-59.55-11.29-85.53Z"/>
      <path class="cls-13" d="m34.78,33.24c5.9.29,11.64-4.2,13.55-6.68,1.91-2.48,8.47-6.47,8.47-6.47l-5.21-3.98c-4.62,2.49-9.56,5.42-16.62,5.49-3.13.03-4.74-.74-5.55-1.74-3.32,4.78-5.22,9.66-6.16,12.59,5.45-.53,6.85.56,11.52.79Z"/>
      <path class="cls-13" d="m29.08,15.77c-3.43,5.54-5.11,11.61-5.89,16.68.03,0,.05,0,.08,0,.94-2.92,2.84-7.8,6.16-12.59-1.21-1.5-.57-3.51-.34-4.09Z"/>
      <path class="cls-13" d="m87.83,86.18c3.43-4.01,14.6-15.46,12.31-38.92-2.29-23.47-13.74-31.77-26.9-34.63-13.17-2.86-25.19,2.58-26.62,10.88-1.43,8.3,2.86-6.3,21.75-4.58,18.89,1.72,21.18,25.76,17.74,36.92-3.43,11.16-23.75,14.88-43.79,13.17-17.28-1.48-18.85-9.12-18.96-11.2-.01,2.83-.13,6.01-.38,9.42.05-.01.13-.03.13-.03,0,0,.93,15.61-.89,26.96,4.21-1.4,10.33-2.38,19.05-1.77,21.75,1.53,35.11,6.11,53.81,43.88,2.58,5.21,5.03,9.61,7.35,13.37-3.52-15.5-8.02-42.28-8.02-42.28-1.72-10.59-10.02-17.17-6.58-21.18Z"/>
      <path class="cls-5" d="m125.99,170.62s-9.08,2.53-23.56-20.97c.8,3.53,1.55,6.47,2.19,8.38,1.16,3.48,3.39,9.55,6.72,16.38,11.07,8.78,20.75,11.86,20.75,11.86l-6.1-15.65Z"/>
      <path class="cls-10" d="m102.43,149.65c14.48,23.5,23.56,20.97,23.56,20.97l6.1,15.65s-9.68-3.08-20.75-11.86c6.52,13.37,17.29,29.67,32.64,35.34-8.16-40.78-47.98-92.53-49.57-102.38,0,0,4.49,26.78,8.02,42.28Z"/>
      <path class="cls-13" d="m59.49,209.75c-4.58-4.21-10.59-11.6,5.72-.9,16.31,10.71,25.08,8.42,25.08,8.42,0,0-3.33-9.6,1.82-4.8,5.15,4.8,14.66,13.38,31,13.38,12.41,0,18.74-10.06,21.07-14.9-.08-.4-.13-.8-.21-1.2-15.35-5.67-26.12-21.98-32.64-35.34-6.38-5.06-13.21-11.99-18.93-21.34-15.65-25.57-24.42-48.08-53.81-49.23-8.36-.33-14.5.28-19.04,1.31-2.33,14.21-.12,46.97,13.9,89.19,2.95,6.15,5.71,11.14,7.86,14.52.08.06,13.9,11.85,22.75,12.7,8.87.86,0-7.6-4.58-11.81Z"/>
      <path class="cls-11" d="m66.08,229c8.78.76,12.59-5.34,12.59-5.34,5.34,4.58,22.13,3.43,22.13,3.43,24.77,20.38,39.87-.32,44.47-8.36-.2-2.53-.59-5.14-1.08-7.79-2.33,4.84-8.66,14.9-21.07,14.9-16.34,0-25.85-8.59-31-13.38-5.15-4.8-1.82,4.8-1.82,4.8,0,0-8.76,2.29-25.08-8.42-16.31-10.71-10.3-3.32-5.72.9,4.58,4.21,13.45,12.67,4.58,11.81-8.85-.86-22.67-12.64-22.75-12.7.53.83,1.03,1.59,1.47,2.21,9.54,13.36,14.5,17.17,23.28,17.93Z"/>
      <path class="cls-7" d="m68.65,43.16c7.2,0,10.81-5.92,11.28-6.75.08-.54.17-1.08.17-1.64,0-6.32-5.12-11.45-11.45-11.45s-11.45,5.13-11.45,11.45c0,.8.08,1.58.24,2.33.05.09,3.52,6.06,11.21,6.06Z"/>
      <path class="cls-5" d="m39.93,36.86s0-6.3-6.47-6.87c-3.44-.3-13.56-.19-19.57,5.92-6.01,6.11-5.06,7.63-2.01,7.82,3.05.19,12.79,2.48,18.13,2.48s9.73-1.34,9.92-9.35Z"/>
      <path class="cls-10" d="m37.88,39.68s-1.29,6.01-7.16,5.72c-5.87-.29-5.99-1.27-6.02-3.86-.02-1.79,1.86-2.22,4.72-2.5,2.86-.29,9.53-.8,8.46.64Z"/>
      <path class="cls-2" d="m27.34,30.95s-8.4,1.62-11.54,4.87c-3.15,3.24-5.06,6.01-1.62,4.58s9.99-3.72,17.17-3.63c5.46.07,5.82-1.91,5.63-3.05-.19-1.14-1.37-3.26-9.63-2.77Z"/>
      <path class="cls-8" d="m58.35,33.81s6.01-1.33,10.3-1.33,10.21,1.53,9.35,1.81-3.63.57-7.44.48c-3.81-.1-14.98,1.62-12.21-.95Z"/>
      <path class="cls-14" d="m68.65,46.21c5.76,0,10.48-4.27,11.28-9.81-.47.83-4.08,6.75-11.28,6.75-7.69,0-11.16-5.97-11.21-6.06,1.08,5.21,5.68,9.12,11.21,9.12Z"/>
      <path class="cls-2" d="m68.65,24.51s4.29-.64,7.08,2.72c2.79,3.36,2.79,4.79-.64,4.01-3.43-.79-7.94-1.58-12.24-.36-4.29,1.22-4.22.14-2.22-2.22,2-2.36,5.11-4.34,8.01-4.15Z"/>
      <path class="cls-5" d="m97.75,107.09s6.26,34.26,13.43,54.61c7.17,20.36,20.53,38.78,31.6,42.73,11.07,3.96,2.7-15.4,2.5-31.15-.2-15.75-14.33-43.12-20.43-51.14-6.1-8.01-27.09-25.54-27.09-15.06Z"/>
      <path class="cls-9" d="m107.67,119.22s12.21,50.74,18.32,61.87c6.11,11.14,21.4,26.81,19.29,14.03-2.12-12.79-3.09-30.27-7.84-42.37-7.25-18.48-33.2-57.04-29.77-33.53Z"/>
    </g>
  </g>
</svg>