<?xml version="1.0" encoding="UTF-8"?><svg data-name="Layer 2" xmlns="http://www.w3.org/2000/svg" viewBox="0 0 101.07 38.64"><defs/><g data-name="100"><g><path d="m57.1,27.54c0-2.18,4.51-3.08,1.5-8.71-3-5.63-8.48-4.6-9.24.86,0,0-1.05,5.23,2.1,8.68,3.15,3.45,4.96,4.28,4.13,5.41-.83,1.13-.9,1.13-1.95,1.13-.2,0-.37.03-.49.09h-.03s0-.06-.01-.08c-.26-.07-.46.07-.64.23-.1.09-.2.14-.27.27-.06.12-.04.22-.06.36.14-.13.39-.17.58-.11-.04.11-.11.25-.13.36-.02.1.05.23-.04.31.09-.07.31-.14.43-.09.16.07-.01.15-.01.27,0,.17.18.11.31.11.15,0,.3,0,.45,0,.15,0,.2.05.34.08.07.02.15,0,.23,0,1.2.36,2.8.08,3.5-.69.81-.9,2.09-2.18,1.49-3.75s-2.18-2.55-2.18-4.73Z" style="stroke-width:0px;fill:#47403a"/><path d="m31.87,35.97c-.12-.01-.24-.04-.32-.16-.18-.26.04-.35-.36-.34-.21,0-.34.03-.5-.12-.18-.18-.23-.18-.5-.18-.15,0-.45.05-.58-.02-.21-.12-.16-.23-.46-.17-.1.02-.11.16-.24.08-.05-.03-.02-.23-.03-.28-.3-.02-.6.25-.82-.02.15-.31.46-.63.95-.9.39-.22.63-.72.72-1.39.31-.01.64-.04.89.08.28.13.3.27.63.12.29-.14.45-.13.7.06.1.08.2.17.3.24.14.09.2.05.35.09.21.06.27.35.42.49.11-.03.21-.13.28-.22.06-.08.09-.23.17-.26.04.2.1.42.28.48,0,.11.02.21.05.3.28,1.2-.7,1.82-1.92,2.11Z" style="stroke-width:0px;fill:#a8a7a7"/><path d="m34.05,30.61s-.01,0-.02.01c-.21.15-.62.38-.88.44-.39.09-.67-.04-.97-.27-.13-.1-.28-.25-.45-.22-.14.02-.2.18-.35.21-.32.06-.56-.22-.8-.36-.08-.05-.21-.11-.31-.04-.11.07-.08.25-.17.32-.13.11-.28,0-.43-.11-.27-2.14-1.23-4.82-2.52-6.63-2.26-3.15-2.84-5.41-2.84-5.41-.06-.35-.07-.67-.04-.95.01.03.03.06.04.09.09.18.26.42.48.45.14.02.26-.11.38-.08.21.06.33.67.39.83.1.29.17.53.35.78.21.29.34.55.48.88.06-.05.1-.13.17-.17.28.18.38,1.18.88.95.24-.11.15-.31.37-.04.33.41.6.8,1.09,1.05.13.07.2.11.33.08.08-.02.09-.13.22-.07.16.08.23.43.31.58.29.52.76.93.99,1.48-.03-.11.06-.15.08-.23.06-.19.03-.35.22-.49.18.04.21.39.32.53.17.2.2.11.32-.03.19-.21.21-.19.38.05.12.17.22.57.48.51.22-.05.2-.3.29-.45.16-.27.28-.05.51-.15.18-.07.18-.41.19-.58,0-.16.05-.28.08-.44.04-.19-.02-.39.04-.58.06,0,.11-.01.17-.02.17-.46-.33-.85-.27-1.28.13,0,.3.02.37-.12.09-.17-.12-.33-.16-.48-.05-.16-.02-.28-.09-.42-.08-.18-.21-.33-.3-.5-.16-.3-.28-.64-.42-.95-.09-.2-.23-.4-.36-.6,1.02.84,1.8,1.81,2.05,2.78.71,2.72-.14,6.73-.64,9.66Z" style="stroke-width:0px;fill:#a8a7a7"/><path d="m33.75,33.55c-.18-.06-.24-.28-.28-.48-.08.02-.11.17-.17.26-.07.09-.17.19-.28.22-.15-.14-.21-.43-.42-.49-.15-.04-.21,0-.35-.09-.1-.07-.21-.17-.3-.24-.25-.2-.4-.2-.7-.06-.32.15-.34,0-.63-.12-.26-.12-.59-.09-.89-.08.07-.53.06-1.18-.03-1.88.15.12.3.22.43.11.09-.07.06-.25.17-.32.11-.07.23,0,.31.04.23.14.48.41.8.36.14-.03.21-.19.35-.21.17-.03.32.12.45.22.3.23.58.36.97.27.25-.06.67-.29.88-.44,0,0,.01,0,.02-.01-.21,1.23-.36,2.27-.3,2.95Z" style="stroke-width:0px;fill:#47403a"/><path d="m31.87,35.97c-.75.18-1.6.24-2.29.24-1.29,0-1.86-.71-1.52-1.45.22.27.52,0,.82.02,0,.05-.03.24.03.28.13.08.14-.06.24-.08.3-.05.25.05.46.17.14.08.43.02.58.02.27,0,.32,0,.5.18.16.15.29.13.5.12.4,0,.18.08.36.34.08.12.2.15.32.16Z" style="stroke-width:0px;fill:#47403a"/><path d="m33.98,21.13c-.07.14-.24.12-.37.12-.05.44.44.82.27,1.28-.05.01-.11.02-.17.02-.06.18,0,.39-.04.58-.03.16-.07.28-.08.44-.01.18-.02.51-.19.58-.23.1-.35-.12-.51.15-.09.15-.07.41-.29.45-.26.06-.36-.34-.48-.51-.17-.23-.19-.25-.38-.05-.13.14-.15.23-.32.03-.12-.14-.15-.49-.32-.53-.18.14-.16.3-.22.49-.03.09-.11.12-.08.23-.23-.55-.7-.97-.99-1.48-.09-.15-.15-.5-.31-.58-.13-.06-.14.05-.22.07-.13.03-.2-.01-.33-.08-.49-.25-.76-.64-1.09-1.05-.22-.27-.13-.07-.37.04-.5.22-.61-.78-.88-.95-.07.04-.12.12-.17.17-.15-.33-.27-.59-.48-.88-.18-.25-.24-.49-.35-.78-.06-.17-.18-.77-.39-.83-.12-.04-.24.09-.38.08-.23-.02-.39-.27-.48-.45-.02-.03-.03-.06-.04-.09.28-3.17,5.37-1.87,8.36.58.12.2.27.4.36.6.14.32.26.65.42.95.09.17.22.32.3.5.07.14.05.26.09.42.05.15.25.31.16.48Z" style="stroke-width:0px;fill:#a8a7a7"/><path d="m20.42,18.53c-.57-.08-1.12-.09-1.64,0-.52.08-1.07.21-1.65.4-5.01,1.59-12.07,6.88-13.82,11.32-.78,1.97-1.27,3.35-1.64,4.26-.21.02-.4.03-.6.03.56-1.5,2.1-5.29,4.3-8.28,2.8-3.81,10.23-9.55,11.62-10.62.8-.62,1.47-.39,2.05.1-.4,0-.65,0-.65,0,0,0,.11.11.16.4h.04c.12,0,.29-.03.41,0,.15.03.16.1.34.11.07,0,.13,0,.2,0,.23.26.45.55.65.8.13.16.21.7.23,1.51Z" style="stroke-width:0px;fill:#60564d"/><g><path d="m99.36,23.78c-.13.03-.4-.09-.51.02-.09.09,0,.32-.02.43-.03.37-.23.37-.46.59-.23.23-.06.5-.22.84-.13.28-.45.3-.54.51-.08.18.11.32-.07.46-.09.07-.36,0-.46,0-.53-.06-1.06-.25-1.54-.49-.31-.16-.54-.45-.84-.61-.57-.3-.46.25-.55.65-.59.05-.52-.78-.88-1-.71-.43-.52,1.27-.89,1.32-.24-.23-.44-.58-.59-.88-.1-.2-.13-.6-.33-.73-.18.22-.04,1.29-.43,1.33-.25.02-.72-.56-.8-.66-.25-.27-.53-.74-.89-.91-.57.54-1.79-.27-2.22-.72-.22-.23-.45-.86-.82-.51-.24.23-.04.78-.39.92-.38-.18-.29-1.01-.59-1.11-.5.13-.45,1.02-.88,1.15-.09-.52-.85-2.5-1.39-2.39-.18.25-.09.69-.33.87-.21-.19-.18-.55-.41-.7-.12-.08-.4-.1-.55-.17-.28-.12-.52-.27-.76-.45-.24-.17-.71-.66-1.03-.62-.44.06-.07.78-.66.78-.37,0-1.27-1.24-1.62-.85.04.22.18.6.08.82-.53-.04-.8-.77-1.19-1.05-.57-.41-.35.1-.47.44-.4.05-.67-.7-1-.84-.36-.16-.29.08-.54.23-.3.17-.67-.06-.92-.19-.25-.13-.48-.23-.68-.43-.1-.1-.12-.2-.26-.26-.19.37.27.92.11,1.34-.45.02-1.05-.2-1.47-.35-.38-.14-.74-.03-1.13-.1-.14-.03-.21-.12-.39-.14-.16-.02-.3.05-.46-.02-.32-.14-.46-.97-.88-.87-.06.23.12.62-.23.6-.51-.03-.75-.95-1.15-1.17-.4.4-.14.66-.3,1.15-.35.1-.92-.11-1.26-.21-.61-.19-.85-.59-1.19-1.1-.24-.36-.56-.65-.84-.97-.16-.18-.3-.4-.58-.39-.09.29-.06.58-.17.88-.13.34-.18.62-.42.91-.14.17-.28.33-.41.51-.23.35-.27.44-.71.35-.62-.13-1.33,0-1.88-.3-.43-.24-.83-.3-1.33-.42-.66-.17-1.09-.55-1.69-.79-.42-.17-.86-.35-1.31-.55-.33-.15-.64-.34-.96-.5-.15-.07-.3-.09-.46-.14-.12-.05-.33-.24-.46-.24-.14,0-.24.11-.36.21-.46.34-.92.68-1.27,1.14-.21.27-.32.77-.68.87-.25.07-.56-.09-.8.04-.18.09-.24.38-.45.4,0-.62-.55-.16-.67.13-.15.36-.2.87-.44,1.22-.24-.06-.44-.12-.61-.27-.17-.16-.26-.63-.54-.6-.17.49.08,1.12-.05,1.62-.27-.03-.46-.28-.73-.3-.44-.03-.15.17-.3.38-.16.21-.49.02-.71-.03-.18-.04-.26-.05-.41-.13-.12-.06-.17-.17-.3-.2-.73-.2-.11.74-.51.91-.44.18-.87-.71-1.33-.76-.12.23-.08.75-.32.88-.11.06-.34.01-.46.01-.32,0-.73-.06-1.04.03.06.24.37.51.51.73-.88-.05-1.75.05-2.62-.08-.22-.03-.42-.1-.62-.18,0-.21-.02-.43-.06-.65-.17-.99-.26-1.96-.28-2.89-.09-.27-.17-.56-.2-.83-.04-.29-.11-.6-.23-.88-.04-.1-.21-.32-.19-.43.03-.15.24-.13.32-.03-.03-.38-.1-.99.01-1.35.03.03.13.05.16.08.09-.26.02-.67.02-.94,0-.1-.05-.37.02-.44.1-.11.28.04.36.08.08-.25-.06-.55.02-.8.07-.22.28-.24.31-.49,0-.07,0-.14,0-.21,0-.05.03-.09.08-.12.02-.11-.02-.29.02-.39.12-.29.43.06.59.1.05-.15-.05-.36.01-.5.08-.18.21-.05.36-.09.25-.07.09-.14.14-.36.04-.18.12-.15.3-.14.27,0,.69.06.91-.12.34-.28-.24-.55-.11-.83.05-.11.29-.06.4-.06.18,0,.35-.01.5-.1.25-.13.3-.38.3-.65,0-.15-.03-.33.07-.46.15-.19.22-.02.43.01.36.06.66-.07.99-.13-.03-.18-.2-.12-.12-.3.05-.12.24-.22.32-.33.11-.17.05-.4.16-.55.07-.09.16-.05.23-.11.11-.09.16-.19.28-.27.11-.07.14.01.14-.15,0-.11-.14-.07-.04-.2.05-.07.22-.08.3-.1.23-.06.57-.13.75-.31.15-.16.01-.4.2-.53.07-.05.23-.05.31-.09.07-.04.15-.09.22-.14,0,0,0,0,0,0,.05-.06.07-.09.07-.09,0,0-3.51,0-7.11,1.3-3.6,1.3-9.31,2.8-10.37,4.81-1.06,2-5.25,4.41-6.45,3.81-.85-.43-2.6-.5-3.55-.51-.58-.49-1.25-.71-2.05-.1-1.4,1.08-8.82,6.81-11.62,10.62-2.2,2.99-3.73,6.78-4.3,8.28-.38,0-.73-.04-1.04-.1.31-2.83,2.56-9.27,5.53-12.6,3.5-3.92,4.48-7.01,8.17-10.86.08-.03.13-.03.25-.04.17-.02.14-.05.27-.13.1-.06.16-.09.23-.17.05-.05.06-.12.12-.18.09-.08.21-.15.3-.23.09-.07.17-.15.25-.23.15-.14.27-.26.45-.35.26-.12.2-.15.3-.4.1-.26.34-.3.45-.52.1-.2.28-.61.45-.21.14,0,.15-.19.22-.28.09-.11.2-.2.3-.31.23-.25.46-.14.68-.39.27.11.28.07.53-.16.16-.15.44-.61.65-.65.23-.05.25.16.5,0,.19-.13.38-.43.58-.5.02.1,0,.21.11.26.1-.03.11-.09.17-.16.12-.13.22-.28.37-.4.18-.15.35-.35.55-.48.04.12,0,.24.03.36.16.01.23-.24.34-.34.12-.12.26-.2.37-.33.36.17.42-.02.67-.31.2-.23.43-.49.71-.61.13-.05.27-.16.39-.2.19-.05.29.06.43.09.15.03.26-.03.4-.1.08-.04.24-.17.33-.18.1,0,.09.06.17.08.18.04.23,0,.37-.1.17-.12.33-.25.5-.36.08-.05.25-.19.32-.2.18-.04.3.12.48.09.14-.03.2-.19.37-.09.17.1.15.28.42.17.15-.06.24-.22.4-.29.16-.07.33-.13.5-.2.3-.11.38-.31.62-.51.19-.15.57-.43.79-.43.12,0,.27.07.4.04.08-.02.08-.08.16-.1.11-.03.23,0,.34,0,.2,0,.23-.04.39-.13.27-.14.61-.05.91-.07.47-.04,1.01-.27,1.41-.51.15-.09.27-.09.42-.17.15-.08.26-.21.38-.33.12-.12.22-.23.31-.35.11-.02.23-.04.34-.08.16-.04.43-.03.56-.14-.06.34,0,.37.33.36.47,0,.81-.05,1.23-.23.23-.1.5-.07.77-.06-.14.12-.28.24-.33.4.43.32,1.31.26,1.76.05.07.24-.02.48.05.72.24-.01.41-.19.63-.29.34-.14.78-.2,1.14-.27.37-.07.54.12.91.12.94-.01,1.84-.15,2.78-.15.55,0,1.04.05,1.59.12.46.06.89,0,1.35.02.36.01.39.1.64.28.34.25.78.15,1.19.21.31.05.56.11.87.12.22,0,.52-.08.72.02.01.08.03.17.05.25.36.12,1.16-.17,1.33.17.06.12-.05.25.07.38.11.11.23.08.37.08.29.01.58,0,.87,0,.08,0,.28-.04.35-.01.27.14-.02.1.13.32.15.21.27.23.53.3.28.07.52.16.82.15.48-.01.6-.05.63.43.55.14,1.22-.02,1.79.06.27.03.82.03,1.05.22.18.14.14.25.16.47.33.05,1,.16,1.22.44.14.17.1.29.32.42.23.13.58.17.83.26.61.22,1.26.31,1.88.41.52.09,1.02.38,1.55.48.03,1.05,2.25.74,2.84.72-.23.08-1.2.77-1.16,1.04.44.11.81-.06,1.24-.11.42-.06.81,0,1.21.1.67.18,1.41.45,2.05.78.39.2.85.5,1.28.59.28.06.57,0,.85.05.38.07.76.24,1.14.27.28.03.52,0,.78.07.62.17,1.31.08,1.94.36.57.25,1.1.54,1.68.76.7.26,1.44.4,2.16.6.67.19,1.32.42,1.98.64.58.19,1.16.34,1.73.56.52.2,1.3.33,1.71.71-.16.13-.35.17-.51.3.62.5,1.51.62,2.21.9.22.09.42.21.63.3.35.14.68.24,1.02.33.5.14.89.5,1.3.8.24.17.44.3.67.52.17.16.46.61.69.63.08-.24-.11-.66.17-.75.18-.06.23.1.34.13.17.05.32.04.49.03.32,0,.47.1.74.16.17.04.35,0,.53.03.15.03.24.1.35.07.4.31.78.62,1.14.93h0c-.35.05-.91-.67-1.26-.43-.27.18.02.49.16.66.35.44.55.97.82,1.44.11.19.33.61-.07.62.27.18.53.38.79.58.25.19.49.27.75.44.51.33.91.82,1.4,1.18.08.05.15.1.23.15.14.37.48,1.12-.01,1.24Z" style="stroke-width:0px;fill:#7e7266"/><path d="m14.82,9.51s.04,0,.06,0c0,0,0,0,0,0-.02,0-.04,0-.06,0Z" style="stroke-width:0px;fill:#7e7266"/></g><path d="m1.67,34.49c-.56,1.37-.85,1.66-1.45,1.3-.21-.12-.26-.62-.18-1.36.46.08,1.02.13,1.63.07Z" style="stroke-width:0px"/><path d="m46.52,6.31s-.02.03-.07.09c0,0,0,0,0,0-.07.04-.15.1-.22.14-.09.04-.24.04-.31.09-.18.13-.04.37-.2.53-.18.18-.51.25-.75.31-.08.02-.25.03-.3.1-.1.14.04.09.04.2,0,.16-.04.07-.14.15-.12.08-.17.18-.28.27-.07.06-.17.02-.23.11-.11.14-.05.38-.16.55-.07.11-.26.21-.32.33-.08.18.09.12.12.3-.33.06-.64.19-.99.13-.21-.04-.27-.2-.43-.01-.1.12-.07.31-.07.46,0,.27-.05.52-.3.65-.16.08-.33.1-.5.1-.11,0-.35-.05-.4.06-.13.27.45.55.11.83-.22.18-.63.12-.91.12-.18,0-.26-.04-.3.14-.05.22.11.29-.14.36-.15.04-.29-.09-.36.09-.06.14.04.35-.01.5-.16-.04-.46-.39-.59-.1-.04.09,0,.28-.02.39-.05.02-.08.06-.08.12,0,.07,0,.14,0,.21-.03.25-.24.28-.31.49-.07.24.06.55-.02.8-.08-.04-.26-.18-.36-.08-.07.07-.02.34-.02.44,0,.27.07.68-.02.94-.03-.03-.13-.05-.16-.08-.11.36-.05.97-.01,1.35-.08-.1-.29-.12-.32.03-.03.11.15.33.19.43.11.28.19.59.23.88.04.26.11.55.2.83.01.93.1,1.9.28,2.89.15.88,0,1.73-.41,2.49-4.64-1.07-8.34-2.76-11.38-4.14.1-.17.2-.34.3-.51.33-.52.71-.98,1.05-1.5.1-.15.12-.31.26-.43.07-.06.19-.15.26-.21.14-.11.34-.16.52-.23.19-.08.38-.19.57-.27.22-.1.41-.15.63-.22.08-.02.17-.13.24-.16.1-.03.19-.03.28-.07.25-.11.4-.4.6-.56.21-.17.45-.38.68-.53.07-.05.16-.08.22-.12.04-.03.06-.11.09-.14.08-.09.19-.13.28-.2.3-.23.5-.54.81-.76.31-.23.64-.42.95-.65.32-.24.56-.54.88-.78.18-.14.36-.26.55-.38.11-.07.21-.17.32-.23.11-.06.22-.06.33-.13.25-.17.51-.36.75-.54.42-.31.75-.71,1.21-.93.59-.28,1.17-.6,1.73-.97.16-.11.33-.23.48-.35.15-.12.16-.22.28-.35.15-.17.46-.27.65-.42.16-.13.2-.28.34-.42.17-.16.39-.14.56-.27.1-.08.08-.18.16-.26.1-.1.16-.04.28-.07.18-.05.22-.17.37-.28.04-.03.12,0,.15-.04.05-.04.07-.13.11-.18.13-.14.29-.14.44-.22.14-.07.2-.2.32-.28.12-.08.29-.15.42-.21-.32.03-.58.12-.87.21-.12.03-.23.07-.35.1-.07.02-.15,0-.23.02-.04.01-.05.07-.12.08-.14.03-.31-.04-.46,0-.12.03-.23.07-.35.1-.27.08-.56.11-.84.21-.14.05-.18.09-.36.09-.16,0-.26,0-.4.05-.1.04-.19.14-.29.16-.11.02-.18-.03-.28.01-.03.01-.08.09-.12.11-.14.07-.28.06-.41.12-.16.07-.21.15-.4.16-.32.01-.6.14-.9.2-.27.06-.51.17-.8.2-.24.02-.44.17-.7.2-.16.02-.29.06-.44.11-.12.04-.18.05-.31.09-.24.06-.42.28-.65.41-.23.13-.46.26-.7.38-.21.1-.39.21-.6.32-.27.13-.49.16-.78.22-.2.04-.41.18-.6.3-.39.24-.84.56-1.28.67-.15.04-.23.02-.37.08-.1.05-.19.07-.28.12-.17.11-.32.22-.5.33-.41.24-.54.62-.7,1.03-.08.2-.2.43-.33.63-.05.09-.12.24-.19.3-.04.04-.14,0-.18.04-.08.06-.07.1-.12.16-.14.15-.2.34-.37.47-.11.08-.24.13-.35.21-.11.08-.13.14-.26.19-.11.04-.22.07-.32.12-.13.06-.25.15-.38.21-.2.09-.32.2-.5.32-.21.14-.46.36-.7.45-.24.1-.5.09-.75.14-.45.09-.89.4-1.34.51-.25.06-.6,0-.86,0s-.56.05-.79,0c-.09-.02-.19-.14-.28-.17-.13-.04-.25,0-.38-.02-.13-.01-.18-.08-.29-.11-.11-.03-.29,0-.4,0-.28,0-.4-.17-.65-.2-.26-.04-.55.02-.81,0-.18,0-.2-.07-.34-.11-.12-.03-.29,0-.41,0h-.04c-.05-.29-.16-.4-.16-.4,0,0,3-.1,4.2.5s5.39-1.8,6.45-3.81c1.06-2,6.77-3.5,10.37-4.81,3.6-1.3,7.11-1.3,7.11-1.3Z" style="stroke-width:0px;fill:#eae4df"/><path d="m44.69,6.9c-.13.06-.3.13-.42.21-.12.08-.19.2-.32.28-.15.09-.31.08-.44.22-.05.05-.06.14-.11.18-.04.03-.12.01-.15.04-.15.12-.19.23-.37.28-.12.03-.18-.03-.28.07-.09.08-.07.18-.16.26-.17.13-.39.11-.56.27-.15.14-.18.29-.34.42-.19.15-.5.25-.65.42-.12.13-.12.23-.28.35-.15.12-.32.24-.48.35-.56.37-1.15.68-1.73.97-.47.22-.79.62-1.21.93-.24.18-.5.37-.75.54-.11.08-.22.08-.33.13-.11.06-.21.15-.32.23-.18.13-.37.25-.55.38-.32.24-.56.54-.88.78-.31.23-.64.42-.95.65-.3.22-.5.53-.81.76-.09.07-.2.11-.28.2-.03.04-.05.12-.09.14-.07.05-.15.08-.22.12-.22.15-.46.36-.68.53-.2.16-.35.45-.6.56-.09.04-.18.03-.28.07-.08.03-.17.13-.24.16-.22.07-.41.12-.63.22-.19.09-.39.2-.57.27-.17.07-.37.12-.52.23-.07.06-.19.15-.26.21-.14.13-.16.28-.26.43-.33.52-.72.98-1.05,1.5-.1.17-.2.34-.3.51-3.22-1.46-5.7-2.58-7.81-2.26-.52.08-1.07.21-1.65.4.55-.48,1.08-1.06,1.26-1.59.19-.57.2-.96.16-1.21h.04c.12,0,.29-.03.41,0,.15.03.16.1.34.11.26.01.55-.04.81,0,.25.04.37.21.65.2.12,0,.29-.03.4,0,.12.03.16.09.29.11.13.02.25-.02.38.02.09.03.19.15.28.17.24.06.55,0,.79,0s.61.06.86,0c.45-.11.89-.42,1.34-.51.26-.05.51-.04.75-.14.24-.1.49-.31.7-.45.18-.12.3-.23.5-.32.13-.06.25-.14.38-.21.11-.05.21-.08.32-.12.13-.05.15-.11.26-.19.11-.08.24-.13.35-.21.17-.13.23-.32.37-.47.05-.06.05-.1.12-.16.04-.03.14,0,.18-.04.07-.07.14-.22.19-.3.12-.2.24-.43.33-.63.17-.4.3-.79.7-1.03.18-.11.33-.22.5-.33.09-.05.18-.08.28-.12.14-.06.21-.05.37-.08.44-.11.89-.43,1.28-.67.19-.12.4-.26.6-.3.29-.06.51-.09.78-.22.21-.11.39-.22.6-.32.24-.11.47-.25.7-.38.22-.12.41-.34.65-.41.13-.03.2-.04.31-.09.15-.06.28-.09.44-.11.25-.03.46-.18.7-.2.29-.03.53-.14.8-.2.3-.06.59-.19.9-.2.19,0,.24-.09.4-.16.13-.05.27-.05.41-.12.03-.02.08-.09.12-.11.1-.04.18,0,.28-.01.1-.02.2-.12.29-.16.14-.05.24-.05.4-.05.18,0,.22-.04.36-.09.29-.11.57-.14.84-.21.12-.03.23-.08.35-.1.14-.03.32.04.46,0,.07-.02.07-.07.12-.08.08-.02.16,0,.23-.02.12-.03.23-.07.35-.1.29-.08.55-.17.87-.21Z" style="stroke-width:0px"/><path d="m16.68,14.84s-.23-2.48.9-2.63,1.2.7,1.28,1.63c.08.92-1.1,2.5-1.1,2.5,0,0-.63,0-1.08-1.5Z" style="stroke-width:0px;fill:#eae4df"/><path d="m16.99,15.62s-.46-1.79.29-2.8c.75-1.01,1.56.83,1.1,1.73-.46.9-.82,2.64-1.39,1.08Z" style="stroke-width:0px;fill:#a8a7a7"/><path d="m18.54,16.12c-.05-.29-.16-.4-.16-.4,0,0,.26,0,.65,0,.18.15.34.32.5.5-.07,0-.14,0-.2,0-.18,0-.2-.07-.34-.11-.12-.03-.29,0-.41,0h-.04Z" style="stroke-width:0px;fill:#eae4df"/><path d="m34.82.35c-.09.12-.2.24-.31.35-.12.12-.23.25-.38.33-.14.07-.27.08-.42.17-.4.24-.94.47-1.41.51-.3.02-.63-.08-.91.07-.16.09-.19.12-.39.13-.11,0-.23-.02-.34,0-.08.02-.08.08-.16.1-.14.03-.28-.03-.4-.04-.22,0-.6.28-.79.43-.24.2-.32.39-.62.51-.17.06-.33.13-.5.2-.16.07-.25.22-.4.29-.27.11-.26-.07-.42-.17-.17-.1-.24.06-.37.09-.19.03-.3-.13-.48-.09-.07.02-.24.16-.32.2-.17.11-.34.24-.5.36-.15.1-.19.14-.37.1-.07-.02-.07-.08-.17-.08-.09,0-.25.14-.33.18-.14.07-.26.13-.4.1-.14-.03-.24-.14-.43-.09-.12.04-.26.14-.39.2-.28.12-.51.38-.71.61-.26.29-.31.48-.67.31-.11.13-.24.22-.37.33-.11.1-.18.35-.34.34-.04-.12,0-.24-.03-.36-.19.13-.37.33-.55.48-.15.12-.25.27-.37.4-.06.07-.07.13-.17.16-.11-.05-.09-.16-.11-.26-.2.07-.39.37-.58.5-.24.17-.26-.04-.5,0-.21.04-.49.5-.65.65-.25.23-.26.26-.53.16-.22.24-.45.13-.68.39-.1.11-.21.2-.3.31-.08.09-.09.27-.22.28-.18-.39-.35.02-.45.21-.11.22-.36.27-.45.52-.1.26-.04.28-.3.4-.18.09-.3.21-.45.35-.08.08-.16.15-.25.23-.09.08-.21.14-.3.23-.06.05-.07.13-.12.18-.07.07-.13.11-.23.17-.13.08-.1.11-.27.13-.12.01-.17.02-.25.04.27-.28.55-.56.84-.85.02-.01.03-.03.05-.05,0-.17.06-.36.25-.55.33-.04.68-.83.8-1.03.1-.16.26-.32.4-.44.23-.21.43-.45.68-.64.13-.1.23-.17.32-.29.06-.08.11-.18.18-.27.05.12-.02.23-.09.33.08-.09.17-.18.27-.26.15-.13.37-.45.53-.5.03.1,0,.19.04.29.16-.07.23-.26.34-.38.11-.13.53-.64.73-.61.01.13-.07.24-.08.37.12-.11.17-.3.28-.43.16-.2.46-.52.7-.61.03.12,0,.24.03.36.12-.02.22-.27.3-.36.12-.15.27-.45.46-.5.03.12,0,.24.04.36.17-.05.23-.21.34-.33.25-.27.61-.44.85-.73-.03.08-.03.17,0,.24.2-.13.32-.3.54-.42.19-.1.38-.2.46-.42-.02.14,0,.29-.02.44.13-.12.29-.21.41-.33.13-.12.48-.57.68-.52.05.16-.02.32.04.48.2-.07.44-.27.63-.39.25-.15.76-.53,1.05-.49,0,.18-.14.38-.19.56.29-.21.59-.35.91-.49.25-.11.89-.76,1.18-.56-.03.06-.06.11-.09.17.15,0,.34-.18.45-.25.32-.21.65-.4.98-.61.26-.17.52-.34.76-.53.08-.07.17-.21.29-.18.05.18-.1.55.19.48.07-.02.29-.26.35-.29.14-.08.31-.16.46-.18.09.26-.09.38-.18.57.2.1.48-.15.65-.23.39-.19.84-.41,1.26-.51.16-.04.43-.13.5.05.05.13-.08.34-.17.41.44.03.88-.33,1.32-.4.12-.02.24-.04.36-.06Z" style="stroke-width:0px;fill:#524b43"/><path d="m100.04,25.31c.34.7.96,1.47.72,2.33-.23-.1-.46-.23-.67-.36.36.65.21,1.45.25,2.15-.2-.34-.7-.33-1.04-.23,0,.36.54.76.07.89-.49.12-.98-.29-1.41-.15-.23.56.46.75.42,1.17-.31.08-.71.04-1.04.03-.42-.02-.92-.38-1.3-.28.13.21.31,1.12.23,1.32-.15.01-.43-.11-.58-.14-.24-.05-.24-.09-.46-.19-.36-.17-.82-.24-1.2-.38-.21-.08-.5-.23-.72-.16.09.37.88.93.73,1.31-.38.03-2.51-.86-2.69-.35-.08.24.37.34.01.52-.28.15-.89-.09-1.15-.16-.27-.07-.82-.33-.97-.01-.13.28.18.64.17.91-.02.32-.13.36-.45.27-.38-.11-.79-.29-1.15-.44.13.14.29.44.4.61.37.56-.14.45-.6.45-.5,0-1.03,0-1.51-.18-.36-.13-.7-.43-1.02-.56-.12.41,0,.76-.21,1.18-.31.05-.76-.65-.84-.89-.1-.31-.21-1.01-.64-.84-.09.04-.42.53-.46.67-.09.32.06.71-.02,1.05-.58-.17-.98-1.36-1.61-1.33-.02.15.27.44.12.57-.15.12-.51-.07-.66-.12-.4-.15-.97-.9-1.41-.74.02.42.46,1.05.84,1.19-1.07-.08-2.06-.13-3.05-.61-.64-.3-.95-.66-1.38-1.15-.12.37.23,1.33-.39,1.31-.36-.01-1.17-.73-1.37-.99-.13-.17-.31-.44-.38-.63.03.39.02.81.01,1.2-.01.52-.18.5-.42.11-.25-.42-.67-.61-1.06-.9-.32-.24-.72-.64-1.08-.83-.52-.28-.19.32-.15.53.08.4-.1.5-.46.43-.76-.15-1.76-.61-2.15-1.32-.18-.32-.29-.57-.52-.86-.12.35.03.77-.05,1.14-.71.07-1.14-1.03-1.32-1.57-.06-.18-.07-.51-.32-.54-.11-.02-.29.18-.42.19-.04.32-.09.73-.19,1.03-.46-.11-.92-1.29-1.17-1.74-.08-.14-.01-.16-.16-.23-.06-.03-.34-.01-.38.02-.15.1-.09.37-.06.55-.21-.26-.53-.41-.75-.67-.15-.18-.24-.38-.39-.56-.18-.21-.83-1.02-1.11-.96-.06.2.09.54-.16.61-.11.03-.67-.22-.77-.25-.4-.15-.82-.41-1.16-.67-.2-.15-.37-.38-.6-.49-.48-.24-.53.36-.93.5-.27.1-.57-.02-.86-.14-.76-.64-1.42-1.27-1.96-1.9-2.89.78-6.41,1.1-10.56.83-2.35-.15-4.51-.5-6.49-.95.31-.58.47-1.2.47-1.84.2.08.4.14.62.18.87.13,1.75.03,2.62.08-.14-.22-.45-.49-.51-.73.3-.09.72-.04,1.04-.03.12,0,.35.05.46-.01.24-.13.2-.66.32-.88.46.05.9.94,1.33.76.41-.17-.21-1.11.51-.91.13.04.18.15.3.2.15.08.23.08.41.13.22.06.55.24.71.03.15-.2-.14-.4.3-.38.27.02.47.27.73.3.13-.51-.12-1.13.05-1.62.27-.03.36.44.54.6.17.15.37.21.61.27.24-.36.3-.86.44-1.22.12-.29.67-.75.67-.13.21-.03.27-.31.45-.4.24-.13.55.04.8-.04.35-.1.47-.6.68-.87.35-.47.81-.8,1.27-1.14.12-.09.22-.21.36-.21.13,0,.34.2.46.24.15.06.3.07.46.14.32.15.63.35.96.5.45.2.89.39,1.31.55.61.24,1.03.62,1.69.79.49.12.9.18,1.33.42.55.31,1.26.17,1.88.3.44.09.48,0,.71-.35.12-.19.26-.34.41-.51.24-.29.29-.57.42-.91.12-.3.08-.6.17-.88.27-.01.42.21.58.39.28.32.6.61.84.97.34.51.58.91,1.19,1.1.34.11.91.31,1.26.21.16-.49-.1-.75.3-1.15.4.22.64,1.15,1.15,1.17.35.02.17-.37.23-.6.42-.1.56.73.88.87.16.07.3,0,.46.02.18.02.24.11.39.14.38.07.74-.04,1.13.1.42.15,1.02.37,1.47.35.15-.42-.3-.97-.11-1.34.14.05.16.15.26.26.2.2.43.3.68.43.25.13.62.36.92.19.26-.15.18-.39.54-.23.33.14.61.9,1,.84.11-.35-.11-.85.47-.44.39.28.66,1.01,1.19,1.05.09-.22-.05-.61-.08-.82.35-.39,1.24.85,1.62.85.58,0,.21-.72.66-.78.32-.04.79.45,1.03.62.25.18.49.33.76.45.15.06.42.09.55.17.23.15.2.51.41.7.23-.19.15-.62.33-.87.54-.11,1.3,1.88,1.39,2.39.43-.12.38-1.01.88-1.15.3.11.21.94.59,1.11.34-.14.15-.7.39-.92.37-.35.6.28.82.51.43.45,1.65,1.25,2.22.72.36.17.63.64.89.91.09.09.55.68.8.66.39-.04.25-1.11.43-1.33.2.13.23.53.33.73.15.3.35.65.59.88.37-.05.18-1.75.89-1.32.36.22.29,1.05.88,1,.09-.4-.02-.95.55-.65.3.16.53.45.84.61.48.24,1,.43,1.54.49.1.01.37.07.46,0,.18-.13-.01-.27.07-.46.09-.21.41-.23.54-.51.15-.33-.02-.61.22-.84.23-.22.42-.22.46-.59,0-.11-.07-.34.02-.43.11-.11.38.02.51-.02.49-.11.15-.87.01-1.24.3.19.62.35.81.68.26.44.4.99.57,1.47.06.16.35.56.32.71-.36.15-.7-.25-1.03-.1Z" style="stroke-width:0px;fill:#60564d"/><path d="m95.43,16.98c-.11.03-.2-.04-.35-.07-.18-.04-.36,0-.53-.03-.28-.06-.42-.16-.74-.16-.17,0-.33.01-.49-.03-.12-.03-.16-.19-.34-.13-.28.09-.09.51-.17.75-.23-.03-.51-.47-.69-.63-.23-.22-.44-.34-.67-.52-.41-.3-.81-.65-1.3-.8-.34-.1-.68-.19-1.02-.33-.21-.09-.41-.21-.63-.3-.7-.28-1.59-.4-2.21-.9.16-.13.35-.17.51-.3-.41-.39-1.2-.51-1.71-.71-.57-.22-1.15-.38-1.73-.56-.67-.21-1.31-.44-1.98-.64-.72-.21-1.46-.34-2.16-.6-.58-.22-1.12-.51-1.68-.76-.64-.28-1.32-.2-1.94-.36-.26-.07-.5-.04-.78-.07-.38-.04-.76-.21-1.14-.27-.28-.05-.58.02-.85-.05-.43-.09-.89-.39-1.28-.59-.64-.33-1.38-.6-2.05-.78-.4-.1-.78-.16-1.21-.1-.43.06-.8.22-1.24.11-.05-.26.92-.96,1.16-1.04-.59.02-2.81.33-2.84-.72-.54-.09-1.03-.39-1.55-.48-.62-.1-1.27-.19-1.88-.41-.25-.09-.6-.13-.83-.26-.22-.13-.18-.25-.32-.42-.23-.28-.89-.39-1.22-.44-.03-.22.02-.33-.16-.47-.24-.19-.79-.19-1.05-.22-.57-.08-1.23.08-1.79-.06-.03-.48-.14-.44-.63-.43-.3,0-.54-.08-.82-.15-.26-.07-.38-.09-.53-.3-.15-.21.14-.18-.13-.32-.07-.03-.27.01-.35.01-.29,0-.58.02-.87,0-.14,0-.26.03-.37-.08-.12-.13-.01-.26-.07-.38-.18-.34-.98-.05-1.33-.17-.02-.08-.03-.17-.05-.25-.2-.1-.5-.02-.72-.02-.31,0-.56-.07-.87-.12-.41-.07-.85.04-1.19-.21-.24-.18-.28-.27-.64-.28-.46-.02-.89.04-1.35-.02-.55-.07-1.04-.12-1.59-.12-.94,0-1.84.14-2.78.15-.37,0-.55-.19-.91-.12-.36.07-.8.13-1.14.27-.22.09-.39.27-.63.29-.07-.24.02-.48-.05-.72-.46.21-1.33.27-1.76-.05.05-.17.2-.29.33-.4.18,0,.35,0,.51-.07.29-.12.43-.14.74-.14.23,0,.43,0,.65.05.22.06.42.05.65.05.21,0,.39.04.59.07,4.45-.16,8.62.15,11.55.7,1.1.2,2.21.52,3.28.94,1.8.67,10.75,3.95,22.4,6.97,6.45,1.67,12.57,4.76,17,8.2Z" style="stroke-width:0px;fill:#988d84"/><circle cx="13.28" cy="18.61" r="1.3" style="stroke-width:0px;fill:#f1f2f2"/><circle cx="13.09" cy="18.78" r=".69" style="stroke-width:0px;fill:#231f20"/><path d="m13.88,18.22c0-.17-.13-.3-.3-.3s-.3.13-.3.3.13.3.3.3.3-.13.3-.3Z" style="stroke-width:0px;fill:#fff"/><path d="m35.78,38.05c-.12-.01-.24-.04-.32-.16-.18-.26.04-.35-.36-.34-.21,0-.34.03-.5-.12-.18-.18-.23-.18-.5-.18-.15,0-.45.05-.58-.02-.21-.12-.16-.23-.46-.17-.1.02-.11.16-.24.08-.05-.03-.02-.23-.03-.28-.3-.02-.6.25-.82-.02.15-.31.46-.63.95-.9.39-.22.63-.72.72-1.39.31-.01.64-.04.89.08.28.13.3.27.63.12.29-.14.45-.13.7.06.1.08.2.17.3.24.14.09.2.05.35.09.21.06.27.35.42.49.11-.03.21-.13.28-.22.06-.08.09-.23.17-.26.04.2.1.42.28.48,0,.11.02.21.05.3.28,1.2-.7,1.82-1.92,2.11Z" style="stroke-width:0px;fill:#c4c2c0"/><path d="m37.96,32.68s-.01,0-.01.01c-.21.15-.62.38-.88.44-.39.09-.67-.04-.97-.27-.13-.1-.28-.25-.45-.22-.14.02-.2.18-.35.21-.32.06-.56-.22-.8-.36-.08-.05-.21-.11-.31-.04-.11.07-.08.25-.17.32-.13.11-.28,0-.43-.11-.27-2.14-1.23-4.83-2.52-6.63-2.26-3.15-2.84-5.41-2.84-5.41-.06-.35-.07-.67-.04-.95.01.03.03.06.04.09.09.18.26.42.49.45.14.02.26-.11.38-.08.21.06.33.67.39.83.1.29.17.53.35.78.21.29.34.55.48.88.06-.05.1-.13.17-.17.28.18.38,1.18.88.95.24-.11.15-.31.37-.04.33.41.6.8,1.09,1.05.13.07.2.11.33.08.08-.02.09-.13.22-.07.16.08.23.43.31.58.29.52.76.93.99,1.48-.03-.11.06-.15.08-.23.06-.19.03-.35.22-.49.18.04.21.4.32.53.17.2.2.11.32-.03.19-.21.21-.19.38.05.12.17.22.57.48.51.22-.05.2-.3.29-.45.16-.27.28-.05.51-.15.18-.07.18-.41.19-.58,0-.16.05-.28.08-.44.04-.19-.02-.39.04-.58.06,0,.11-.01.17-.02.17-.46-.33-.85-.27-1.28.13,0,.3.02.37-.12.09-.17-.12-.33-.16-.48-.05-.16-.02-.28-.09-.42-.08-.18-.21-.33-.3-.5-.16-.3-.28-.64-.42-.95-.09-.2-.23-.4-.36-.6,1.02.84,1.8,1.81,2.05,2.78.71,2.72-.14,6.73-.64,9.66Z" style="stroke-width:0px;fill:#c4c2c0"/><path d="m63.34,23.03c-.58,1.8-.17,8.56-.02,11.4.15,2.85-.45,2.56-2.4,3.16-1.28.39-2.5.79-3.55.67-.51.11-1.01.3-1.52.37-.1-.21.14-.28.08-.43-.05-.14-.46-.04-.59-.07-.08-.2.11-.4.18-.57-.35-.13-.59.07-.88.17.06-.17.09-.28.09-.48,0-.08,0-.16,0-.24.01-.06.12-.09.1-.16-.05-.3-.62.03-.72.16-.01-.12.12-.25.16-.36.05-.13.03-.28.09-.4.13-.26.44-.36.69-.47.24-.24.72-.43,1.5-.58,2.25-.45,2.85,0,2.7-2.25-.15-2.25-5.86-6.46-6.71-13.07-.09-.66-.12-1.28-.11-1.86,0,.24.03.48.06.72.04.29.04.74.25.98.06,0,.11-.02.16-.05.14.5.2,1.11.45,1.58.06.12.1.23.25.17.13-.06.09-.24.2-.27.03.11.02.22.03.33.06.54.35,1.04.52,1.55.08.24.11.57.37.67.17.07.26.02.32-.15.19-.01.51.72.6.86.08.14.35.63.59.55.16-.05.03-.2.23-.23.3-.04.68.56.91.71.31.19.76.38,1.13.4.2.01.41-.06.61-.12-.04-.15-.08-.33-.18-.45.1.06.15.14.24.22.08.07.19.11.26.17.12.11.17.39.4.27.4-.21-.04-.94.43-1.05.11.15.11.64.38.66.23.02.23-.55.24-.68.02-.14.22-1.37.53-1.02.1-.25,0-.63.03-.9.04-.42.1-.89.21-1.29.16-.06.16.13.28.11.17-.02.1-.26.1-.39,0-.16-.04-.38,0-.53.05-.25,0-.11.2-.19.21-.09.12.04.23-.19.08-.17.08-.32.08-.5,0-.24,0-.47,0-.71,0-.14-.06-.45.02-.58.1-.15.18-.09.18-.32,0-.17-.03-.26-.08-.41-.07-.22-.34-.78-.21-.99.1-.17.15-.08.18-.29.02-.13-.01-.27,0-.4.02-.38.2-.72.27-1.09.82,3.25.71,7.02.43,7.89Z" style="stroke-width:0px;fill:#60564d"/><path d="m37.66,35.63c-.18-.06-.24-.28-.28-.48-.08.02-.11.17-.17.26-.07.09-.17.19-.28.22-.15-.14-.21-.43-.42-.49-.15-.04-.21,0-.35-.09-.1-.07-.21-.17-.3-.24-.25-.2-.4-.2-.7-.06-.32.15-.34,0-.63-.12-.26-.12-.59-.09-.89-.08.07-.53.06-1.18-.03-1.88.15.12.3.22.43.11.09-.07.06-.25.17-.32.11-.07.23,0,.31.04.23.14.48.41.8.36.14-.03.21-.19.35-.21.17-.03.32.12.45.22.3.23.58.36.97.27.25-.06.67-.29.88-.44,0,0,.01,0,.01-.01-.21,1.23-.36,2.27-.3,2.95Z" style="stroke-width:0px;fill:#60564d"/><path d="m35.78,38.05c-.75.18-1.6.24-2.29.24-1.29,0-1.86-.71-1.52-1.45.22.27.52,0,.82.02,0,.05-.03.24.03.28.13.08.14-.06.24-.08.3-.05.25.05.46.17.14.08.43.02.58.02.27,0,.32,0,.5.18.16.15.29.13.5.12.4,0,.18.08.36.34.08.12.2.15.32.16Z" style="stroke-width:0px;fill:#60564d"/><path d="m37.89,23.21c-.07.14-.24.12-.37.12-.05.44.44.82.27,1.28-.05.01-.11.02-.17.02-.06.18,0,.39-.04.58-.03.16-.07.28-.08.44-.01.18-.02.51-.19.58-.23.1-.35-.12-.51.15-.09.15-.07.41-.29.45-.26.06-.36-.34-.48-.51-.17-.23-.19-.25-.38-.05-.13.14-.15.23-.32.03-.12-.14-.15-.49-.32-.53-.18.14-.16.3-.22.49-.03.09-.11.12-.08.23-.23-.55-.7-.97-.99-1.48-.09-.15-.15-.5-.31-.58-.13-.06-.14.05-.22.07-.13.03-.2-.01-.33-.08-.49-.25-.76-.64-1.09-1.05-.22-.27-.13-.07-.37.04-.5.22-.61-.78-.88-.95-.07.04-.12.12-.17.17-.15-.33-.27-.59-.48-.88-.18-.25-.24-.49-.35-.78-.06-.17-.18-.77-.39-.83-.12-.04-.24.09-.38.08-.23-.02-.39-.27-.49-.45-.01-.03-.03-.06-.04-.09.28-3.17,5.37-1.87,8.36.58.12.2.27.4.36.6.14.32.26.65.42.95.09.17.22.32.3.5.07.14.05.26.09.42.05.15.25.31.16.48Z" style="stroke-width:0px;fill:#eae4df"/><path d="m62.66,17.91c.05.16.08.25.08.41,0,.23-.09.17-.18.32-.08.13-.02.44-.02.58,0,.24,0,.47,0,.71,0,.18,0,.33-.08.5-.1.23-.02.1-.23.19-.2.09-.15-.05-.2.19-.03.16,0,.37,0,.53,0,.12.07.36-.1.39-.12.02-.12-.17-.28-.11-.11.41-.18.88-.21,1.29-.02.27.07.64-.03.9-.31-.35-.51.88-.53,1.02-.02.13-.01.7-.24.68-.27-.02-.26-.51-.38-.66-.46.12-.03.84-.43,1.05-.23.12-.28-.15-.4-.27-.07-.06-.18-.1-.26-.17-.08-.08-.14-.16-.24-.22.1.12.14.3.18.45-.2.05-.41.13-.61.12-.37-.02-.82-.21-1.13-.4-.24-.15-.61-.75-.91-.71-.2.03-.08.17-.23.23-.24.08-.51-.4-.59-.55-.09-.15-.41-.88-.6-.86-.07.17-.15.22-.32.15-.26-.11-.29-.44-.37-.67-.17-.51-.46-1.01-.52-1.55-.01-.11,0-.22-.03-.33-.11.03-.07.22-.2.27-.15.07-.19-.05-.25-.17-.25-.47-.31-1.08-.45-1.58-.05.03-.1.05-.16.05-.22-.24-.22-.69-.25-.98-.03-.24-.05-.48-.06-.72.09-5.23,3.67-7.3,3.67-7.3,3.96-1.94,5.92.94,6.8,4.42-.07.37-.25.71-.27,1.09,0,.13.02.27,0,.4-.03.21-.08.12-.18.29-.13.21.14.77.21.99Z" style="stroke-width:0px;fill:#7e7266"/></g></g></svg>