<svg xmlns="http://www.w3.org/2000/svg" data-name="Layer 2" viewBox="0 0 103.4 73.86"><defs/><g data-name="100"><path d="M21.44 24.71s-6.13-.71-9.14 4.24c-3 4.94-1.66 14.68-3 15.28-1.34.6-2.99 2.7-3.59 4.04-.6 1.35 2.4 0 2.4 0s-.97 1.05-.9 1.87c.07.82 2.56-.48 3.97-1.42 1.41-.94 7.26.28 10.26-8.29 3-8.56 2.89-15.72 0-15.72ZM87.35 24.71s6.13-.71 9.14 4.24c3 4.94 1.66 14.68 3 15.28 1.34.6 2.99 2.7 3.59 4.04.6 1.35-2.4 0-2.4 0s.97 1.05.9 1.87c-.07.82-2.56-.48-3.97-1.42-1.41-.94-7.26.28-10.26-8.29-3-8.56-2.89-15.72 0-15.72Z" style="stroke-width:0;fill:#2d2924"/><path fill="#7b6d56" stroke-width="0" d="M88.18 39.94c0 .88-.02 1.73-.11 2.6-.14 1.45-.04 2.96-.27 4.39-.32 1.94-1.17 4.04-.79 6.03.04.18.1.38.17.58-2.9 4.51-7.5 5.87-11.29 5.87H30.02C24.39 59.41 17 56.42 16 44.63l-.03-.43c.15.15.3.22.59.27.15.48-.1 1.01.13 1.48.12.24.31.42.46.63.11.17.21.43.34.57.19.2.27.17.59.07.28-.08.25-.13.35-.37.23-.55.11-1.25.11-1.84v-3.74c0-1.32-.14-2.75.11-4.04.1-.5.34-1 .34-1.49 0-.35-.04-.72.03-1.07.06-.29.06-.58.11-.87.04-.21.1-.36.19-.57.16-.39.16-.81.31-1.2.16-.43.62-.55.72-1.06.03-.14 0-.29.02-.44.03-.16.1-.29.13-.46.03-.29-.07-.62-.01-.91.07-.32.13-.24.36-.5.16-.19.39-.53.48-.76.09-.23.13-.58.18-.83.05-.22.13-.45.17-.67.04-.22-.05-.46.08-.67.15-.24.44-.33.58-.6.21-.39.1-.95.34-1.29.16-.25.27-.31.39-.58.13-.31.27-.68.43-.99s.27-.63.3-.97c0-.06.02-.13.03-.19.38-.15.68-.52 1.12-.31.01 0 .03.01.04.02-.22.52-.49 1.03-.63 1.57-.1.39-.08.85-.28 1.22-.17.31-.38.57-.51.92-.27.71-.34 1.46-.64 2.16-.29.66-.22 1.42-.36 2.12-.23 1.16-.2 2.33-.49 3.47-.11.43-.13.75-.15 1.2-.01.31-.12.49-.19.79-.08.37.02.75-.06 1.13-.11.53-.12 1.1-.35 1.6-.31.69-.55 1.38-.88 2.07-.26.52-.42 1-.57 1.53-.26.96-.07 1.79.2 2.71.18.62.26 1.29.54 1.9.1.24.26.41.31.67.07.36.06.69.19 1.06.19.51.47 1.03.69 1.52.27.6.67.82 1.35.81.69 0 1.12.09 1.16-.63.02-.41.09-.95 0-1.36-.06-.31-.2-.49-.21-.81 0-.21.02-.42 0-.63-.03-.52-.42-.95-.56-1.45-.14-.52.05-1.07-.09-1.59-.15-.56-.15-1.07-.16-1.67 0-.51.2-.92.2-1.44v-1.82c0-.52.2-.93.2-1.44 0-.46-.06-.96.05-1.41.04-.18.19-.46.25-.67.07-.23.06-.4.1-.64.03-.26.16-.31.22-.53.06-.24-.04-.48.03-.73.28-.99.53-2.02.8-3.02.13-.48.27-.99.4-1.49s.55-.81.72-1.26c.21-.56-.06-1.24.03-1.82.06-.39.29-.74.49-1.11.25.07.49.15.7.26.33.19.46.34.84.35.67.03 1.22-.38 1.83-.03.59.34.89.97 1.45 1.34.48.32 1.11.55 1.64.8.87.41 1.97.64 2.94.46 2.02-.37 4.07-.91 6.15-.97 1.81-.05 3.48.34 5.28.43 1.69.09 3.17.28 4.87-.02 2.28-.4 4.54-.93 6.82-1.36 1.57-.29 3.19-.63 4.79-.66.6 0 1.31-.08 1.84.16 1.69.77 3.7.71 5.54.66.89-.03.63-1.04 1.38-1.37.64-.28 1.15.17 1.61.54.47.37.95.67 1.51.88.43.17.38.16.79-.15.52-.39 1.17-.59 1.67-1.02.5-.43.31-1.06.8-1.49 0 0 .02-.02.03-.02.09.35.19.7.27 1.05.43-.01.64.51.76.84.21.61.44 1.22.66 1.83.17.46.27.96.46 1.4.16.35.3.67.34 1.05.07.66.25 1.31.42 1.95.1.4.06.78.22 1.18.05.13.14.33.21.47.1.19.22.19.35.33.28.29.14.79.07 1.16-.18.94-.07 1.91.04 2.86.05.49.07.97.14 1.45.11.76.41 1.49.47 2.26.13 1.48.07 3.01-.1 4.49-.12 1.03-.04 2.12-.03 3.15 0 .81-.16 1.6-.15 2.4v3.05c0 .27-.08.73.02 1 .6.16.97-1.32 1.06-1.67.12-.51.43-.97.61-1.46.23-.6.35-1.25.53-1.87.35-1.23.33-2.49.33-3.75 0-.98-.02-1.94-.12-2.91-.07-.69 0-1.37-.02-2.06-.02-.58-.18-1.07-.28-1.63-.23-1.31-.37-2.83 0-4.13.12-.42.12-.57 0-1.02-.28-1.11-.65-2.17-1.06-3.23-.41-1.07-.63-2.27-1.24-3.26-.2-.32-.54-.38-.75-.69-.13-.19-.26-.51-.31-.78-.02-.12.02-.24 0-.36-.02-.1-.11-.19-.14-.31-.07-.28.06-.61 0-.89-.07-.29-.21-.44-.11-.81.08-.02.16-.04.25-.05.16-.43.03-1.13.03-1.59 0-.22-.07-.4.14-.49.12-.05.63-.01.75.03.58.2 1.1 1.26 1.4 1.69.26.37.6.68.89 1.02.31.36.53.77.83 1.14.48.58.46 1.42.64 2.14.28 1.14.14 2.41.14 3.58v1.35c0 .32 0 .37.22.61.4.45.48.79.59 1.41.19.97 0 1.95.08 2.93.03.34.15.72.23 1.05.12.48.07.98.07 1.48Z"/><path d="M28.11 59.73c.67.12 1.34.28 2.01.45.36.1.82.25 1.2.16.34-.08.36-.22.79-.21.46 0 .77-.02 1.19-.2.88-.36 1.7-.88 2.6-1.2.39-.14.76-.46 1.15-.57.22-.06.42 0 .64-.05.42-.08.82-.25 1.23-.38 2.36-.76 4.75-1.01 7.18-1.46 1.65-.3 3.44-.15 5.12-.15 1.07 0 2.11-.17 3.17-.21.89-.03 1.79.01 2.68.01.79 0 1.61-.07 2.4-.01.8.06 1.59.34 2.37.52.7.16 1.35.29 2.03.55.52.2 1.03.39 1.55.55.81.24 1.63.5 2.43.79.7.26 1.45.68 2.19.81.51.09.9.04 1.42.24.35.13.82.29 1.19.36.67.12 1.51-.01 2.2-.01.37 0 .74.03 1.11-.04.09-.02.17-.15.28-.17.38-.05.39.04.7-.18 1.03-.72 1.04-2.17 1.11-3.35.12-1.93.04-4.42-1.54-5.8-.34-.3-.78-.49-1.19-.65-1.6-.62-3.37-.82-5.04-1.2-3.39-.77-6.75-1.36-10.24-1.56-5.45-.32-10.99-.75-16.43-.18-2.56.27-5.1.73-7.62 1.25-1.82.37-3.51 1.08-5.3 1.53-.49.12-1.3.17-1.77.42-.31.16-.56.41-.86.6-1.78 1.1-1.59 3.33-1.35 5.12.06.46.18.82.39 1.23.19.36.48.81 1 3Z" style="stroke-width:0;fill:#2d2924"/><path d="M26.25 26.7c-.17.45-.59.76-.72 1.26s-.27 1.01-.4 1.49c-.27 1-.52 2.03-.8 3.02-.07.25.03.49-.03.73-.06.22-.18.27-.22.53-.03.23-.03.4-.1.64-.06.21-.21.49-.25.67-.1.44-.05.95-.05 1.41 0 .51-.2.92-.2 1.44v1.82c0 .52-.21.93-.2 1.44 0 .59 0 1.1.16 1.67.14.52-.05 1.07.09 1.59.14.5.53.93.56 1.45.01.21-.01.42 0 .63 0 .32.15.51.21.81.08.4.01.95 0 1.36-.04.72-.46.62-1.16.63-.68 0-1.08-.21-1.35-.81-.22-.5-.51-1.02-.69-1.52-.13-.36-.13-.7-.19-1.06-.05-.26-.21-.43-.31-.67-.27-.61-.35-1.28-.54-1.9-.28-.92-.46-1.75-.2-2.71.15-.54.31-1.01.57-1.53.34-.69.57-1.37.88-2.07.23-.5.24-1.07.35-1.6.08-.38-.02-.76.06-1.13.07-.3.17-.49.19-.79.02-.45.04-.77.15-1.2.29-1.14.25-2.31.49-3.47.14-.7.07-1.46.36-2.12.3-.7.37-1.45.64-2.16.13-.35.34-.6.51-.92.2-.37.18-.83.28-1.22.14-.54.41-1.05.63-1.57.85.47.29 2.2 1.05 2.65.22.13.49.21.75.28-.19.37-.42.73-.49 1.11-.1.58.17 1.26-.03 1.82ZM23.8 21.11c-.01.07-.02.13-.03.19-.03.35-.14.66-.3.97s-.3.67-.43.99c-.11.27-.22.34-.39.58-.23.34-.13.9-.34 1.29-.14.27-.43.36-.58.6-.13.2-.04.45-.08.67-.04.22-.12.45-.17.67-.05.25-.09.59-.18.83-.09.23-.32.58-.48.76-.23.26-.29.18-.36.5-.06.29.04.62.01.91-.02.17-.09.3-.13.46-.03.15 0 .3-.02.44-.1.51-.56.63-.72 1.06-.14.39-.15.81-.31 1.2-.08.21-.15.36-.19.57-.05.29-.05.58-.11.87-.07.34-.04.72-.03 1.07 0 .49-.24.99-.34 1.49-.25 1.29-.11 2.71-.11 4.04v3.74c0 .59.11 1.29-.11 1.84-.1.24-.07.29-.35.37-.32.1-.4.13-.59-.07-.13-.14-.22-.4-.34-.57-.14-.22-.34-.4-.46-.63-.23-.47.02-1-.13-1.48-.29-.05-.44-.12-.59-.27-.49-7.2 1.77-16.31 5.95-23.78.47.34 1.03.61 1.4.72.18.05.33.03.47-.03Z" style="fill:#3f3931;stroke-width:0"/><path d="M27.7 60.23c-9.58-3.1-10.96-8.88-10.96-8.88s-.22 2.9-.66 6.53c-.44 3.62-.72 6.34.66 7.51 1.38 1.16 4.53 5.39 3.28 5.49-1.25.1-4.48-1.53-4.48-1.53s.34 4.22-1.2 3.95-2.62-3.21-2.62-3.21-7.18 4.01-6.58 2.04c.6-1.98 2.11-3.11 2.11-3.11-3.44.11-9.82.41-6.15-1.04.75-.3 1.42-.61 2.01-.94 3.05-.71 4.88-.13 6.42-.73s3.32-.86 2.78-2.67.88-7 .91-10.04c.04-3.04-.62-9.35-1.37-12.33-.75-2.99 3.05.71 6.64 1.13 3.58.42 1.76-5.09 1.76-5.09 3.63 1.4 6.84 3.21 6.84 3.21 7.29 3.38 10.17 22.83.59 19.73Z" style="stroke-width:0;fill:#2d2924"/><path d="M83.37 19.37c-.4.31-.72.72-.99 1.16-.21.35-.43.7-.63 1.06-.1.19-.18.54-.31.67-.5.46-1.61-.21-2.21.31-.49.43-.3 1.07-.8 1.49-.5.43-1.15.63-1.67 1.02-.41.31-.36.32-.79.15-.56-.22-1.04-.51-1.51-.88-.46-.37-.97-.82-1.61-.54-.75.33-.49 1.34-1.38 1.37-1.84.05-3.85.11-5.54-.66-.53-.24-1.24-.17-1.84-.16-1.6.02-3.22.36-4.79.66-2.28.42-4.54.96-6.82 1.36-1.7.3-3.18.11-4.87.02-1.79-.1-3.47-.49-5.28-.43-2.07.07-4.13.6-6.15.97-.97.18-2.07-.04-2.94-.46-.52-.25-1.15-.47-1.64-.8-.56-.37-.86-1-1.45-1.34-.61-.35-1.16.07-1.83.03-.38-.02-.51-.17-.84-.35-.44-.25-1.03-.3-1.46-.55-.77-.46-.18-2.24-1.09-2.68-.61-.29-.95.52-1.6.34-.37-.1-.93-.38-1.4-.72 2.65-4.74 6.08-8.82 10.05-11.35 10.39-6.59 17.58-6.79 20.97-6.79s10.59.2 20.97 6.79c3.68 2.34 6.89 6.01 9.45 10.29Z" style="fill:#3f3931;stroke-width:0"/><path d="M34.49 15.95c-.3.5-.6 1.01-.86 1.53-.38.77-.99 1.4-1.49 2.11-.38.55-.59 1.18-.94 1.75-.37.58-.89 1.19-1.1 1.83-.1.32-.15.6-.32.89-.18.31-.28.64-.45.96-.2.4-.5.71-.73 1.09-.3.5-.34 1.25-.49 1.81-.18.7-.18 1.43-.37 2.14-.21.82-.18 1.62-.34 2.44-.11.56-.03 1.17-.03 1.74 0 .44 0 .83.11 1.26.19.77.49 1.6.35 2.4-.04.23-.23.4-.29.62-.04.16-.03.38-.02.54.02.36.2.77.3 1.12.14.51.64.95.9 1.42.2.36 1.22 1.19 1.03 1.62-.21-.09-.43-.11-.65-.2-.38-.16-.75-.49-1.08-.72-.41-.29-.85-.5-1.24-.8-.16-.13-.36-.22-.53-.34-.19-.14-.33-.45-.53-.55-.39-.19-.25.16-.28.36-.05.24-.16.5-.23.74-.25.8-.26 1.61-.37 2.43-.08.6.07 1.16.14 1.75.05.43.25.81.31 1.23.07.51-.1.96-.31 1.43-.05.12-.08.23-.1.34-1.08-3.75-1.29-9.05.26-16.88 2.67-13.51 5.55-16.37 9.35-16.05ZM71.41 15.95c.3.5.6 1.01.86 1.53.38.77.99 1.4 1.49 2.11.38.55.59 1.18.94 1.75.37.58.89 1.19 1.1 1.83.1.32.15.6.32.89.18.31.28.64.45.96.2.4.5.71.73 1.09.3.5.34 1.25.49 1.81.18.7.18 1.43.37 2.14.21.82.18 1.62.34 2.44.11.56.03 1.17.03 1.74 0 .44 0 .83-.11 1.26-.19.77-.49 1.6-.35 2.4.04.23.23.4.29.62.04.16.03.38.02.54-.02.36-.2.77-.3 1.12-.14.51-.64.95-.9 1.42-.2.36-1.22 1.19-1.03 1.62.21-.09.43-.11.65-.2.38-.16.75-.49 1.08-.72.41-.29.85-.5 1.24-.8.16-.13.36-.22.53-.34.19-.14.33-.45.53-.55.39-.19.25.16.28.36.05.24.16.5.23.74.25.8.26 1.61.37 2.43.08.6-.07 1.16-.14 1.75-.05.43-.25.81-.31 1.23-.07.51.1.96.31 1.43.05.12.08.23.1.34 1.08-3.75 1.29-9.05-.26-16.88-2.67-13.51-5.55-16.37-9.35-16.05ZM21.72 18.39c-.09-.05-.17-.09-.25-.13.09-.14.2-.18.25.13Z" style="fill:#3f3931;stroke-width:0"/><path d="M89.9 44.63c-.33 3.83-1.33 6.74-2.72 8.91-.07-.19-.13-.39-.17-.58-.38-1.99.47-4.1.79-6.03.24-1.43.13-2.94.27-4.39.09-.87.11-1.73.11-2.6 0-.5.05-.99-.07-1.48-.08-.33-.2-.71-.23-1.05-.08-.98.11-1.96-.08-2.93-.12-.62-.19-.96-.59-1.41-.21-.24-.22-.29-.22-.61v-1.35c0-1.17.13-2.44-.14-3.58-.17-.72-.16-1.56-.64-2.14-.3-.37-.52-.78-.83-1.14-.29-.34-.62-.65-.89-1.02-.31-.43-.83-1.49-1.4-1.69-.13-.04-.64-.08-.75-.03-.21.09-.14.28-.14.49 0 .46.13 1.16-.03 1.59-.08.02-.16.04-.25.05-.1.37.04.52.11.81.07.28-.06.61 0 .89.03.12.12.2.14.31.03.12-.01.24 0 .36.04.27.18.6.31.78.21.31.55.37.75.69.61.98.83 2.19 1.24 3.26.41 1.06.78 2.13 1.06 3.23.11.44.11.6 0 1.02-.37 1.3-.23 2.82 0 4.13.1.56.26 1.06.28 1.63.02.69-.05 1.37.02 2.06.1.98.12 1.93.12 2.91 0 1.27.02 2.53-.33 3.75-.18.62-.29 1.26-.53 1.87-.19.49-.49.95-.61 1.46-.09.35-.46 1.83-1.06 1.67-.1-.27-.02-.73-.02-1v-3.05c0-.81.16-1.59.15-2.4 0-1.04-.09-2.13.03-3.15.17-1.48.22-3.01.1-4.49-.07-.77-.36-1.5-.47-2.26-.07-.48-.09-.97-.14-1.45-.11-.95-.22-1.92-.04-2.86.07-.37.21-.87-.07-1.16-.13-.13-.25-.14-.35-.33-.07-.14-.16-.34-.21-.47-.16-.4-.12-.78-.22-1.18-.16-.64-.34-1.29-.42-1.95-.04-.38-.19-.7-.34-1.05-.19-.44-.3-.95-.46-1.4l-.66-1.83c-.11-.33-.33-.85-.76-.84-.07-.35-.18-.7-.27-1.05.61-.48 1.69.17 2.19-.28.14-.13.22-.49.31-.67.19-.36.42-.71.63-1.06.27-.44.59-.85.99-1.16 4.66 7.8 7.18 17.65 6.53 25.26ZM18.51 42.38c-3.58-.42-7.38-4.11-6.64-1.13.74 2.98 1.4 9.29 1.37 12.33-.04 3.04-1.45 8.23-.91 10.04.54 1.81-1.24 2.08-2.78 2.67-1.54.6-3.38.02-6.42.73 2.28-1.27 3.41-2.73 3.88-4.3.6-1.98-1.91-10.49-.77-15.61 1.14-5.12 1.42-9.92 5.86-11.24 1.99-.6 5.23.28 8.18 1.42 0 0 1.82 5.5-1.76 5.09Z" style="fill:#3f3931;stroke-width:0"/><path d="M78.46 59.82c8.63-2.78 9.87-8.46 9.87-8.46s.21 2.79.6 6.54.64 6.57-.6 7.7c-1.25 1.13-4.08 5.36-2.96 5.51 1.12.15 4.04-1.38 4.04-1.38s-.31 4.33 1.07 4.13c1.38-.2 2.36-3.2 2.36-3.2s6.46 4.45 5.93 2.38c-.54-2.06-1.9-3.29-1.9-3.29 3.1.26 8.84.85 5.54-.81-.68-.34-1.28-.69-1.81-1.05-2.74-.87-4.4-.35-5.79-1.03-1.39-.68-2.99-1.04-2.5-2.87.49-1.84-.78-7.25-.81-10.38-.03-3.14.57-9.6 1.25-12.65.68-3.04-2.75.6-5.98.87-3.23.28-1.58-5.32-1.58-5.32-3.27 1.29-6.16 3.01-6.16 3.01-6.58 3.17-9.2 23.08-.56 20.3Z" style="stroke-width:0;fill:#2d2924"/><path d="M86.77 41.82c3.23-.28 6.66-3.92 5.98-.87-.67 3.04-1.28 9.51-1.25 12.65.03 3.14 1.3 8.55.81 10.38-.48 1.84 1.12 2.19 2.5 2.87 1.39.68 3.04.16 5.79 1.03-2.06-1.4-3.06-2.96-3.49-4.6-.54-2.06 1.73-10.72.72-16.05-1.02-5.32-1.27-10.28-5.27-11.84-1.79-.7-4.71.06-7.37 1.11 0 0-1.65 5.59 1.58 5.32Z" style="fill:#3f3931;stroke-width:0"/><path fill="#8c8356" stroke-width="0" d="M80.93 48.54c.05.12.08.23.1.34-.9 3.11-2.4 5.15-3.99 6.68-3.51 3.36-6.57 3.85-11.52 3.85H40.38c-4.95 0-8.01-.49-11.52-3.85-1.59-1.53-3.09-3.57-3.99-6.68.01-.11.04-.23.1-.34.2-.46.37-.92.31-1.43-.05-.41-.25-.8-.31-1.23-.07-.59-.22-1.15-.14-1.75.11-.82.12-1.63.37-2.43.07-.23.18-.5.23-.74.04-.2-.1-.55.28-.36.21.1.35.41.53.55.17.12.36.21.53.34.39.3.83.51 1.24.8.32.23.7.56 1.08.72.22.09.44.1.65.2.19-.43-.83-1.26-1.03-1.62-.26-.47-.76-.91-.9-1.42-.09-.34-.28-.76-.3-1.12 0-.16-.02-.39.02-.54.06-.23.25-.39.29-.62.15-.8-.16-1.63-.35-2.4-.1-.43-.11-.82-.11-1.26 0-.57-.08-1.18.03-1.74.16-.82.13-1.62.34-2.44.18-.71.18-1.43.37-2.14.15-.56.18-1.31.49-1.81.22-.37.53-.69.73-1.09.16-.32.26-.65.45-.96.17-.29.22-.57.32-.89.21-.64.74-1.25 1.1-1.83.36-.56.56-1.2.94-1.75.5-.71 1.11-1.34 1.49-2.11.26-.52.56-1.03.86-1.53.24.02.48.05.72.09 4.16.72 17.74 12.95 17.74 12.95s13.58-12.22 17.74-12.95c.25-.04.49-.07.72-.09.3.5.6 1.01.86 1.53.38.77.99 1.4 1.49 2.11.38.55.59 1.18.94 1.75.37.58.89 1.19 1.1 1.83.1.32.15.6.32.89.18.31.28.64.45.96.2.4.5.71.73 1.09.3.5.34 1.25.49 1.81.18.7.18 1.43.37 2.14.21.82.18 1.62.34 2.44.11.56.03 1.17.03 1.74 0 .44 0 .83-.11 1.26-.19.77-.49 1.6-.35 2.4.04.23.23.4.29.62.04.16.03.38.02.54-.02.36-.2.77-.3 1.12-.14.51-.64.95-.9 1.42-.2.36-1.22 1.19-1.03 1.62.21-.09.43-.11.65-.2.38-.16.75-.49 1.08-.72.41-.29.85-.5 1.24-.8.16-.13.36-.22.53-.34.19-.14.33-.45.53-.55.39-.19.25.16.28.36.04.24.16.5.23.74.25.8.26 1.61.37 2.43.08.6-.07 1.16-.14 1.75-.05.43-.25.81-.31 1.23-.07.51.1.96.31 1.43Z"/><path d="M52.95 57.08c-16.31 0-16.05-8.06-14.24-10.57 1.81-2.51 7.77-4.88 9.5-4.88h9.47c1.73 0 7.69 2.37 9.5 4.88 1.81 2.51 2.07 10.57-14.24 10.57Z" style="fill:#aea468;stroke-width:0"/><path d="M39.71 27.45c-1.18-.19-2.58-1.26-3.89-3.44-1.8-3-2.4-5.54-4.34-4.19-.4.28-.68.3-.87.15-.19-.24-.1-.57-.1-.57-.07-.01-.15-.02-.22-.04-.02 0-.05 0-.07-.01 0-.31-.01-.5-.02-.54s.16-.22.46-.56c.34.19.86.27 1.64.07 2.1-.52 3 2.32 4.49 4.12 1.41 1.69 1.69 2.92 4.21 2.75-.35.05-1.47.37-1.3 2.27Z" style="fill:#282723;stroke-width:0"/><path d="M52.95 22.26h-2.74c-1.35 0-2.55-1.1-3.45 1.15-.9 2.25-4.49 3.3-5.84 3.89-.36.16-.77.21-1.2.15-.16-1.9.95-2.22 1.3-2.27-2.52.17-2.8-1.06-4.21-2.75-1.5-1.8-2.4-4.64-4.49-4.12-.78.19-1.3.11-1.64-.07.61-.71 1.77-2 3.18-3.22 2.35-2.02 5.37-3.82 7.67-2.4 1.6.99 3.58 2.57 5.44 4.16 1.28 1.09 2.5 2.2 3.5 3.12 1.48 1.37 2.49 2.35 2.49 2.35Z" style="fill:#282723;stroke-width:0"/><path d="M31.77 24.41v8.57c-.78-.51-1.33-1.19-1.72-1.81-.04-.67-.03-1.37.05-2.07.29-2.74.18-8.04.14-9.76.09.02.19.04.28.05 0 0-.3 1.05 1.25.74h.01c0 .01-.01.03-.01.04-.02.1.04.22.01.32-.01.08-.1.12-.11.17-.05.27-.03.55-.03.83v.71c.01.3.1.54.14.83.05.43 0 .93 0 1.37ZM36.03 33.62c-.39.05-.78.09-1.18.12-.37.03-.72.02-1.05-.02-.04-.16-.07-.32-.1-.47-.04-.18-.16-.36-.2-.51-.07-.27-.09-.56-.16-.83-.12-.44-.27-.92-.26-1.38v-2.09c0-.6.09-1.15.14-1.74.02-.24.09-.31.13-.51.13-.6-.11-1.22.09-1.82.09-.26.16-.3.31-.52.18-.28.26-.64.32-1.01.33.58.7 1.2 1.11 1.8v.04c-.02.15.01.27-.02.41-.04.18-.1.25-.1.48 0 .84.03 1.7 0 2.54-.03.82-.16 1.61-.14 2.44 0 .37.1.82.25 1.11.33.63.72 1.22.87 1.96ZM67.95 30.59c-.07.41-.26.96-.52 1.27-.21.26-.38.19-.63.34-.04.28-.04.57-.04.86-2.28-.6-4.19-1.57-5.76-2.99-2.47-2.24-3.67-3.16-4.12-4.87s-1.29 0-3.94 0-3.49-1.71-3.94 0c-.45 1.71-1.65 2.63-4.12 4.87-1.57 1.43-3.48 2.4-5.76 2.99 0-.29 0-.58-.04-.86-.24-.15-.41-.08-.63-.34-.25-.31-.44-.86-.52-1.27-.13-.68-.02-1.48-.02-2.17 0-.32.02-.63.06-.95.21.12.43.22.66.3 3.84 1.4 7.64-2.09 8.44-4.19.73-1.93 3.95-.53 5.86-.36 1.91-.16 5.13-1.56 5.86.36.8 2.1 4.59 5.59 8.44 4.19.23-.08.45-.18.66-.3.04.31.07.63.06.95 0 .69.1 1.49-.02 2.17Z" style="fill:#aea468;stroke-width:0"/><path d="M75.81 14.26c-.72.33-2.12.81-4.01.76-2.85-.07-4.77 2.77-6.32 3.89-1.55 1.12-4.99-.21-5.74-1.15s-1.66-2.74-6.79-2.74-6.04 1.8-6.79 2.74c-.75.94-4.19 2.28-5.74 1.15-1.55-1.12-3.47-3.97-6.32-3.89-1.9.05-3.3-.43-4.01-.76.06-1.41 1.27-2.72 3.64-4.03 1.57-.87 4.73-2.64 6.93-4.5.47.72.75 1.44.19 1.58-.9.22-1.87 2.17-1.09 2.25.78.07 3.71-.37 4.91-1.05 1.2-.67 2.25-.97 1.8-1.65-.45-.67-.6-1.72-.67-2.7-.07-.97-1.12-2.4-1.12-2.4l-1.01-.55c1.17-1.83.07-1.19 2.16-.67 2.4.6 3.49 1.14 4.39 2.34.9 1.2 1.29 2.25 2.74 2.25s1.84-1.05 2.74-2.25c.9-1.2 1.99-1.74 4.39-2.34 2.09-.52.99-1.16 2.16.67l-1.01.55s-1.05 1.42-1.12 2.4c-.07.97-.22 2.02-.67 2.7-.45.67.6.97 1.8 1.65 1.2.67 4.12 1.12 4.91 1.05s-.19-2.02-1.09-2.25c-.56-.14-.28-.86.19-1.58 2.2 1.86 5.36 3.63 6.93 4.5 2.36 1.31 3.57 2.62 3.64 4.03Z" style="fill:#51483c;stroke-width:0"/><path d="M44.67 8.5c-1.2.67-4.12 1.12-4.91 1.05-.78-.07.19-2.02 1.09-2.25.56-.14.28-.86-.19-1.58.61-.52 1.15-1.05 1.56-1.57-.71-.53-1.4-.81-1.4-.81l.67-.45c.07-.05.15-.1.23-.16.66.46 1.61 1.14 1.89 1.42.45.45 1.05 1.65 1.05 1.65s-.37-3.29-.52-3.52c-.07-.11-.37-.46-.66-.8.07-.1.13-.19.18-.27l1.01.55s1.05 1.42 1.12 2.4c.07.97.22 2.02.67 2.7.45.67-.6.97-1.8 1.65Z" style="fill:#3f3931;stroke-width:0"/><path d="M43.62 4.16c-.28-.28-1.24-.96-1.89-1.42.31-.21.68-.47.99-.69.4-.28.72-.51.72-.51.01-.02.03-.04.04-.06.29.34.59.69.66.8.15.23.52 3.52.52 3.52s-.6-1.2-1.05-1.65Z" style="fill:#51483c;stroke-width:0"/><path d="M42.22 4.16s1.4.9 1.7 1.42c.3.52.75 1.57.75 1.57S42.42 8.5 41 8.5c0 0-1.9-2.77 1.22-4.34Z" style="fill:#1e1e1e;stroke-width:0"/><path d="M66.18 27.45c-.43.07-.84.02-1.2-.15-1.35-.6-4.94-1.65-5.84-3.89-.9-2.25-2.1-1.15-3.45-1.15H50.2c-1.35 0-2.55-1.1-3.45 1.15-.9 2.25-4.49 3.3-5.84 3.89-.36.16-.77.21-1.2.15-.16-1.9.95-2.22 1.3-2.27h.1c.13-.01.26-.02.4-.04 3-.37 4.95-2.41 4.72-3.86-.22-1.46 1.42-2.06 1.87-1.83.34.17.55.37 2.35.47.62.03 1.43.05 2.49.05s1.87-.02 2.49-.05c1.8-.1 2.01-.3 2.35-.47.45-.22 2.1.37 1.87 1.83-.22 1.46 1.72 3.49 4.72 3.86.14.02.27.03.4.04h.1c.35.05 1.46.37 1.3 2.27Z" style="fill:#d6cc7f;stroke-width:0"/><path d="M75.76 14.86c-.12.67-.04 1.84-.04 2.9-.1.16-.25.35-.49.48-.34.19-.86.27-1.64.07-2.1-.52-3 2.32-4.49 4.12-1.41 1.69-1.69 2.92-4.21 2.75h-.1c-.13-.01-.26-.02-.4-.04-3-.37-4.95-2.41-4.72-3.86.22-1.46-1.42-2.06-1.87-1.83-.34.17-.55.37-2.35.47-.62.03-1.43.05-2.49.05s-1.87-.02-2.49-.05c-1.8-.1-2.01-.3-2.35-.47-.45-.22-2.1.37-1.87 1.83.22 1.46-1.72 3.49-4.72 3.86-.14.02-.27.03-.4.04h-.1c-2.52.17-2.8-1.06-4.21-2.75-1.5-1.8-2.4-4.64-4.49-4.12-.78.19-1.3.11-1.64-.07-.24-.13-.4-.31-.49-.48 0-1.06.08-2.24-.04-2.9-.04-.2-.05-.4-.04-.6.69.31 1.99.77 3.76.76h.26c2.85-.07 4.77 2.77 6.32 3.89 1.55 1.12 4.99-.21 5.74-1.15.22-.28.45-.62.79-.97.84-.86 2.35-1.77 5.99-1.77s5.15.9 5.99 1.77c.34.35.58.7.79.97.75.94 4.19 2.28 5.74 1.15 1.55-1.12 3.47-3.97 6.32-3.89h.26c1.77 0 3.07-.45 3.76-.76 0 .2 0 .4-.04.6Z" style="fill:#3f3931;stroke-width:0"/><path d="M39.71 27.45c-1.18-.19-2.58-1.26-3.89-3.44-1.8-3-2.4-5.54-4.34-4.19-.4.28-.68.3-.87.15-.15-.11-.25-.33-.31-.61-.04-.16-.07-.35-.08-.55-.03-.32-.04-.67-.04-1.04.02.04.05.08.08.13.01.02.03.04.05.06a.902.902 0 0 0 .19.18c.02.02.04.03.06.04.03.02.07.04.11.07.34.19.86.27 1.64.07 2.1-.52 3 2.32 4.49 4.12 1.41 1.69 1.69 2.92 4.21 2.75-.35.05-1.47.37-1.3 2.27ZM39.18 36.67c-.71.17-1.43.31-2.11.41-.07-.22-.15-.43-.26-.65-.17-.33-.33-.65-.46-1-.2-.55-.2-1.07-.28-1.64-.12-.82-.55-1.45-.9-2.12-.15-.29-.24-.74-.25-1.11-.02-.82.11-1.62.14-2.44.03-.84 0-1.7 0-2.54 0-.23.06-.3.1-.48.04-.15 0-.27.02-.41v-.04c.76 1.14 1.68 2.21 2.81 2.83-.04.31-.07.63-.06.95 0 .69-.1 1.49.02 2.17.07.41.26.96.52 1.27.21.26.38.19.63.34.08.52.02 1.1.02 1.62 0 .75 0 1.46.07 2.21v.63Z" style="fill:#3f3931;stroke-width:0"/><path d="M34.89 37.3c-.54.02-1.02.02-1.45-.03-.03-.07-.06-.14-.1-.22-.3-.67-.78-1.23-1.05-1.91-.1-.25-.22-.44-.33-.66-.07-.14-.04-.22-.07-.37-.06-.29-.14-.44-.13-.75V24.4c0-.44.06-.94 0-1.37-.04-.29-.13-.53-.14-.83v-.71c0-.28-.02-.56.03-.83 0-.05.09-.09.11-.17.02-.1-.04-.22-.01-.32 0-.01 0-.03.01-.04.7-.12 1.39 1.14 2.29 2.7-.06.37-.14.73-.32 1.01-.15.23-.22.26-.31.52-.2.6.03 1.22-.09 1.82-.04.2-.11.27-.13.51-.05.59-.14 1.14-.14 1.74 0 .69.01 1.39 0 2.09 0 .46.14.94.26 1.38.07.27.09.57.16.83.04.15.16.33.2.51.14.67.34 1.4.43 2.07.3.91.34.92.37.92.04.31.21.68.39 1.06Z" style="fill:#3f3931;stroke-width:0"/><path d="M66.73 36.04v.63c-1.82-.42-3.88-.67-5.03-1.72-4.81-4.39-8.73-4.29-8.73-4.29s-4.91-.1-8.74 4.29c-1.02 1.18-3.22 1.3-5.03 1.72v-.63c-.06-.75-.07-1.46-.07-2.21 0-.25.02-.51.02-.76 2.28-.6 4.19-1.57 5.76-2.99 2.47-2.24 3.67-3.16 4.12-4.87.45-1.71 1.29 0 3.94 0s3.49-1.71 3.94 0 1.65 2.63 4.12 4.87c1.57 1.43 3.48 2.4 5.76 2.99 0 .26.02.52.02.76 0 .75 0 1.46-.07 2.21ZM37.07 37.08c-.77.12-1.51.2-2.18.22-.19-.38-.36-.75-.39-1.06-.04 0-.07-.01-.37-.92-.06-.52-.2-1.06-.32-1.59.33.04.68.05 1.05.02.4-.03.8-.07 1.18-.12l.03.16c.08.57.08 1.09.28 1.64.13.35.29.67.46 1 .11.22.19.43.26.65ZM33.44 37.27c-.72-.07-1.25-.24-1.51-.53-.94-1.06-1.75-3.13-1.89-5.56.39.62.94 1.3 1.72 1.81v.38c0 .31.08.46.13.75.03.15 0 .22.07.37.11.23.23.42.33.66.27.68.75 1.24 1.05 1.91.03.07.07.15.1.22Z" style="fill:#aea468;stroke-width:0"/><path d="M66.18 27.45c1.18-.19 2.58-1.26 3.89-3.44 1.8-3 2.4-5.54 4.34-4.19.4.28.68.3.87.15.19-.24.1-.57.1-.57.07-.01.15-.02.22-.04.02 0 .05 0 .07-.01 0-.31.01-.5.01-.54s-.16-.22-.46-.56c-.34.19-.86.27-1.64.07-2.1-.52-3 2.32-4.49 4.12-1.41 1.69-1.69 2.92-4.21 2.75.35.05 1.47.37 1.3 2.27Z" style="fill:#282723;stroke-width:0"/><path d="M74.13 24.41v8.57c.78-.51 1.33-1.19 1.72-1.81.04-.67.03-1.37-.05-2.07-.29-2.74-.18-8.04-.14-9.76-.09.02-.19.04-.28.05 0 0 .3 1.05-1.25.74h-.01c0 .01.01.03.01.04.02.1-.04.22-.01.32.01.08.1.12.11.17.05.27.03.55.03.83v.71c-.01.3-.1.54-.14.83-.05.43 0 .93 0 1.37ZM69.86 33.62c.39.05.78.09 1.18.12.37.03.72.02 1.05-.02.04-.16.07-.32.1-.47.04-.18.16-.36.2-.51.07-.27.09-.56.16-.83.12-.44.27-.92.26-1.38v-2.09c0-.6-.09-1.15-.14-1.74-.02-.24-.09-.31-.13-.51-.13-.6.11-1.22-.09-1.82-.09-.26-.16-.3-.31-.52-.18-.28-.26-.64-.32-1.01-.33.58-.7 1.2-1.11 1.8v.04c.02.15-.01.27.02.41.04.18.1.25.1.48 0 .84-.03 1.7 0 2.54.03.82.16 1.61.14 2.44 0 .37-.1.82-.25 1.11-.33.63-.73 1.22-.87 1.96Z" style="fill:#aea468;stroke-width:0"/><path d="M61.23 8.5c1.2.67 4.12 1.12 4.91 1.05s-.19-2.02-1.09-2.25c-.56-.14-.28-.86.19-1.58-.61-.52-1.15-1.05-1.56-1.57.71-.53 1.4-.81 1.4-.81l-.67-.45c-.07-.05-.15-.1-.23-.16-.66.46-1.61 1.14-1.89 1.42-.45.45-1.05 1.65-1.05 1.65s.37-3.29.52-3.52c.07-.11.37-.46.66-.8-.07-.1-.13-.19-.18-.27l-1.01.55s-1.05 1.42-1.12 2.4c-.07.97-.22 2.02-.67 2.7-.45.67.6.97 1.8 1.65Z" style="fill:#3f3931;stroke-width:0"/><path d="M62.28 4.16c.28-.28 1.24-.96 1.89-1.42-.31-.21-.68-.47-.99-.69-.4-.28-.72-.51-.72-.51-.02-.02-.03-.04-.04-.06-.29.34-.59.69-.66.8-.15.23-.52 3.52-.52 3.52s.6-1.2 1.05-1.65Z" style="fill:#51483c;stroke-width:0"/><path d="M63.68 4.16s-1.4.9-1.7 1.42c-.3.52-.75 1.57-.75 1.57S63.48 8.5 64.9 8.5c0 0 1.9-2.77-1.22-4.34Z" style="fill:#1e1e1e;stroke-width:0"/><path d="M66.18 27.45c1.18-.19 2.58-1.26 3.89-3.44 1.8-3 2.4-5.54 4.34-4.19.4.28.68.3.87.15.15-.11.25-.33.31-.61.04-.16.07-.35.08-.55.03-.32.04-.67.04-1.04-.02.04-.05.08-.08.13-.01.02-.03.04-.05.06-.03.04-.06.07-.09.1s-.06.06-.1.08c-.02.02-.04.03-.06.04-.03.02-.07.04-.11.07-.34.19-.86.27-1.64.07-2.1-.52-3 2.32-4.49 4.12-1.41 1.69-1.69 2.92-4.21 2.75.35.05 1.47.37 1.3 2.27ZM66.72 36.67c.71.17 1.43.31 2.11.41.07-.22.15-.43.26-.65.17-.33.33-.65.46-1 .2-.55.2-1.07.28-1.64.12-.82.55-1.45.9-2.12.15-.29.24-.74.25-1.11.02-.82-.11-1.62-.14-2.44-.03-.84 0-1.7 0-2.54 0-.23-.06-.3-.1-.48-.04-.15 0-.27-.02-.41v-.04c-.76 1.14-1.68 2.21-2.81 2.83.04.31.07.63.06.95 0 .69.1 1.49-.02 2.17-.07.41-.26.96-.52 1.27-.21.26-.38.19-.63.34-.08.52-.02 1.1-.01 1.62 0 .75 0 1.46-.07 2.21v.63Z" style="fill:#3f3931;stroke-width:0"/><path d="M71.01 37.3c.54.02 1.02.02 1.45-.03.03-.07.06-.14.1-.22.3-.67.78-1.23 1.05-1.91.1-.25.22-.44.33-.66.07-.14.04-.22.07-.37.06-.29.14-.44.13-.75V24.4c0-.44-.06-.94 0-1.37.04-.29.13-.53.14-.83v-.71c0-.28.02-.56-.03-.83 0-.05-.09-.09-.11-.17-.02-.1.04-.22.01-.32 0-.01 0-.03-.01-.04-.7-.12-1.39 1.14-2.29 2.7.06.37.14.73.32 1.01.15.23.22.26.31.52.2.6-.03 1.22.09 1.82.05.2.11.27.13.51.05.59.14 1.14.14 1.74 0 .69-.01 1.39 0 2.09 0 .46-.14.94-.26 1.38-.07.27-.09.57-.16.83-.04.15-.16.33-.2.51-.14.67-.34 1.4-.43 2.07-.3.91-.34.92-.37.92-.04.31-.21.68-.39 1.06Z" style="fill:#3f3931;stroke-width:0"/><path d="M68.83 37.08c.77.12 1.51.2 2.18.22.19-.38.36-.75.39-1.06.04 0 .07-.01.37-.92.06-.52.2-1.06.32-1.59-.33.04-.68.05-1.05.02-.4-.03-.8-.07-1.18-.12l-.03.16c-.08.57-.08 1.09-.28 1.64-.13.35-.29.67-.46 1-.11.22-.19.43-.26.65ZM72.46 37.27c.72-.07 1.25-.24 1.51-.53.94-1.06 1.75-3.13 1.89-5.56-.39.62-.94 1.3-1.72 1.81v.38c0 .31-.08.46-.13.75-.03.15 0 .22-.07.37-.11.23-.23.42-.33.66-.27.68-.75 1.24-1.05 1.91-.03.07-.07.15-.1.22Z" style="fill:#aea468;stroke-width:0"/><path d="M58.05 25.23c.04.94-1.1 1.14-5.1 1.14s-5.14-.19-5.1-1.14c.04-.94 1.31-1.75 1.67-1.38.36.37 3.43.58 3.43.58s3.07-.2 3.43-.58c.36-.38 1.63.43 1.67 1.38Z" style="fill:#d6cc7f;stroke-width:0"/><path d="M42.08 4.68s-1.31.9-.71 3.03c0 0 1.27-.82.71-3.03ZM63.5 4.68s1.31.9.71 3.03c0 0-1.27-.82-.71-3.03Z" style="fill:#231f20;stroke-width:0"/><path d="M42.79 5.8c0-.3-.24-.53-.53-.53s-.53.24-.53.53.24.53.53.53.53-.24.53-.53ZM63.1 5.8c0-.3.24-.53.53-.53s.53.24.53.53-.24.53-.53.53-.53-.24-.53-.53Z" style="fill:#fff;stroke-width:0"/><path d="M75.29 19.96c-.15.18-.47.31-1.15.17-.77-.15-1.52 1.37-2.55 3.12-.37.62-.76 1.27-1.21 1.88-.41.56-.86 1.09-1.36 1.54-.5.45-1.05.82-1.67 1.06-.03.02-.07.03-.1.04-.8.29-1.59.37-2.36.29-.57-.05-1.13-.19-1.66-.4-.67-.26-1.31-.62-1.87-1.04-.62-.46-1.16-.97-1.59-1.49-.45-.54-.78-1.08-.96-1.56-.73-1.93-3.95-.53-5.86-.36-1.91-.16-5.13-1.56-5.86.36-.18.47-.51 1.02-.96 1.56a8.77 8.77 0 0 1-1.59 1.49c-.56.41-1.2.78-1.87 1.04-.53.2-1.08.34-1.66.4-.77.08-1.56 0-2.36-.29-.03-.01-.07-.02-.1-.04-.61-.24-1.17-.61-1.67-1.06-.5-.45-.95-.98-1.36-1.54-.45-.61-.85-1.26-1.21-1.88-1.03-1.75-1.78-3.27-2.55-3.12-.68.13-1 .01-1.15-.17.19.15.47.13.87-.15 1.32-.91 2.02-.04 2.89 1.55.4.73.83 1.61 1.38 2.54.02.04.05.07.07.11.28.46.55.87.83 1.23.69.9 1.4 1.51 2.06 1.87.34.19.68.3 1 .35.32.05.63.03.91-.04.1-.02.2-.06.29-.1.42-.19 1.06-.42 1.76-.71.48-.2.99-.43 1.49-.7.72-.39 1.4-.86 1.91-1.42.29-.32.53-.67.68-1.05.9-2.25 2.1-1.15 3.45-1.15h5.49c1.35 0 2.55-1.1 3.45 1.15.15.39.39.74.68 1.05.51.57 1.2 1.04 1.91 1.42.49.27 1.01.5 1.49.7.71.3 1.35.53 1.76.71.09.04.19.08.29.1.28.08.59.09.91.04.32-.05.66-.16 1-.35.66-.35 1.36-.96 2.06-1.87.28-.36.55-.77.83-1.23.02-.04.04-.07.07-.11.55-.93.99-1.81 1.38-2.54.87-1.59 1.58-2.46 2.89-1.55.4.28.68.3.87.15Z" style="fill:#282723;stroke-width:0"/><path d="M46.14 25.44c0 .34-.04.67-.05 1.02 0 .33-.09.61-.16.92-.02.08-.03.18-.07.26-.04.08-.1.12-.14.19-.08.11-.07.18-.22.09-.07-.04-.13-.1-.19-.16-.16-.12-.32-.32-.4-.5-.06-.13-.12-.21-.2-.33-.06-.09-.11-.19-.16-.3-.03-.06-.07-.13-.11-.19-.1-.15-.15-.28-.21-.45a.974.974 0 0 0-.05-.11c.72-.39 1.4-.86 1.91-1.42.02.16 0 .32.02.48 0 .07.02.13.02.2.01.1.02.19.02.3ZM42.69 27.4c0 .09-.01.18-.02.27-.06.52-.19 1-.37 1.49-.09.24-.24.34-.45.16-.27-.24-.42-.55-.6-.85-.08-.13-.16-.27-.23-.4-.1-.18-.2-.36-.31-.54-.02-.04-.05-.08-.07-.12.1-.02.2-.06.29-.1.42-.19 1.06-.42 1.76-.71.02.27.03.54 0 .81ZM38.71 27.1c-.02.11-.04.22-.06.32-.02.11-.06.21-.1.31-.05.12-.1.23-.15.35-.09.24-.11.82-.39.93 0-.08-.06-.16-.14-.19-.04-.02-.08 0-.11-.01-.03-.02-.06-.11-.07-.14-.13-.27-.29-.51-.39-.8-.14-.4-.29-.79-.42-1.2-.04-.11-.07-.22-.1-.33-.1-.34-.09-.7-.16-1.05.01 0 .02-.01.03-.02v-.04c.69.9 1.4 1.51 2.06 1.87ZM35.76 23.9v.08c0 .15-.07.3-.09.45-.03.25-.07.47-.14.71-.02.07-.04.13-.07.2-.09.23-.16.48-.24.72-.03.1-.06.31-.2.31-.06-.09-.1-.16-.16-.24-.04-.05-.06-.1-.1-.16-.19-.34-.22-.71-.28-1.1a9.88 9.88 0 0 1-.16-1.62v-1.24c0-.22-.03-.46.05-.67v.04s.02-.01.02-.02c.4.73.83 1.61 1.38 2.54ZM48.34 18.79c-.22-.05-.07-.57-.06-.7.02-.17 0-.37.07-.54.03-.08.1-.24.15-.3.32-.39.81.74.89.94.05.13.21.36.09.49-.09.1-.26.17-.39.2s-.27-.02-.4 0c-.06.01-.07.05-.15.05-.07 0-.19-.04-.15.1M59.76 25.44c0 .34.04.67.05 1.02 0 .33.09.61.16.92.02.08.03.18.07.26.04.08.1.12.14.19.08.11.07.18.22.09.07-.04.13-.1.19-.16.16-.12.32-.32.4-.5.06-.13.12-.21.2-.33.06-.09.11-.19.16-.3.03-.06.07-.13.11-.19.1-.15.15-.28.21-.45.01-.03.03-.07.05-.11-.72-.39-1.4-.86-1.91-1.42-.02.16 0 .32-.02.48 0 .07-.01.13-.02.2-.01.1-.02.19-.02.3ZM63.21 27.4c0 .09.01.18.02.27.06.52.19 1 .37 1.49.09.24.24.34.45.16.27-.24.42-.55.6-.85.08-.13.16-.27.23-.4.1-.18.2-.36.31-.54.02-.04.05-.08.07-.12-.1-.02-.2-.06-.29-.1-.42-.19-1.06-.42-1.76-.71-.02.27-.03.54 0 .81ZM67.18 27.1c.01.11.04.22.06.32.02.11.06.21.1.31.05.12.1.23.15.35.09.24.11.82.39.93 0-.08.06-.16.14-.19.04-.02.08 0 .11-.01.03-.02.06-.11.07-.14.13-.27.29-.51.39-.8.14-.4.29-.79.42-1.2.04-.11.07-.22.1-.33.1-.34.09-.7.16-1.05-.01 0-.02-.01-.03-.02v-.04c-.7.9-1.4 1.51-2.06 1.87ZM70.14 23.9v.08c0 .15.07.3.09.45.03.25.07.47.14.71.02.07.04.13.07.2.09.23.16.48.24.72.03.1.06.31.2.31.06-.09.1-.16.16-.24.04-.05.06-.1.1-.16.19-.34.22-.71.28-1.1.09-.54.16-1.08.16-1.62v-1.24c0-.22.03-.46-.05-.67v.04l-.02-.02c-.4.73-.83 1.61-1.38 2.54ZM57.56 18.79c.22-.05.07-.57.06-.7-.02-.17 0-.37-.07-.54-.03-.08-.1-.24-.15-.3-.32-.39-.81.74-.89.94-.05.13-.21.36-.09.49.09.1.26.17.39.2s.27-.02.4 0c.06.01.07.05.15.05.07 0 .19-.04.15.1" style="fill:#fff;stroke-width:0"/></g></svg>