<?xml version="1.0" encoding="UTF-8"?>
<svg id="Layer_2" data-name="Layer 2" xmlns="http://www.w3.org/2000/svg" viewBox="0 0 83.85 71.92">
  <defs>
    <style>
      .cls-1 {
        fill: #171717;
      }

      .cls-1, .cls-2, .cls-3, .cls-4, .cls-5, .cls-6 {
        stroke-width: 0px;
      }

      .cls-2 {
        fill: #010101;
      }

      .cls-3 {
        fill: #232323;
      }

      .cls-4 {
        fill: #fff;
      }

      .cls-5 {
        fill: #a8aaad;
      }

      .cls-6 {
        fill: #f2f2f2;
      }
    </style>
  </defs>
  <g id="_100" data-name="100">
    <g>
      <path class="cls-2" d="m63.19,53.96s-6.07,3.81-8.44,6.49-1.61,8.48,2.8,8.48,17.47,1.78,18.97-5.13c1.51-6.92-.96-16.32-13.34-9.83Z"/>
      <path class="cls-1" d="m81.77,70.78h0c-1.22.74-3.2,1.13-6.92,1.13-6.41,0-6.19-2.6-6.08-5.2.11-2.6-10.82-19.37-9.93-30.23.89-10.87,13.15-14.8,16.01-4.79,0,0,.71,2.32,1.65,5.65-.53,1.82-.87,4.71-.93,8.95,0,0,4.02,9.48,4.13,14.15.11,4.68,4.69,7.06,2.07,10.33Z"/>
      <path class="cls-3" d="m83.61,68.69c-.47.86-.95,1.56-1.84,2.09,2.62-3.27-1.95-5.65-2.07-10.33-.11-4.67-4.13-14.15-4.13-14.15.06-4.24.4-7.13.93-8.95,1.73,6.12,4.25,15.65,4.59,20.39.51,7.32,3.64,8.9,2.52,10.95Z"/>
      <path class="cls-6" d="m19.68,40.54c-.86,1.11-1.51,2.4-1.85,3.9-1.82,7.97-9.71,9.62-9.71,9.62,0,0-3.01,3.38-3.35,7.46-1.4-2.63-1.75-6.34-1.42-10.52t0,0c1.89-8.25,4.7-17.64,9.53-25.92.22,1.39.54,2.8.96,4.22,1.77,5.98,3.93,8.99,5.83,11.24Z"/>
      <path class="cls-6" d="m74.79,21.39c-9.17-.19-20.35,9.15-23.12,11.59-.99.05-2.01.11-3.06.18,0,0-5.19,1.64-9.97,1.92-2.16-7.89-11.81-17.24-13.19-22.47-.14-.54-.23-1.07-.26-1.56,11.51-7.61,25.84-.37,25.84-.37,11.64,4.99,18.36,5.64,21.51,3.99,1.11,2.14,1.83,4.39,2.25,6.72Z"/>
      <path class="cls-1" d="m25.45,12.61c1.38,5.23,11.03,14.58,13.19,22.47-1.14.07-2.26.06-3.28-.07-4.3-.54-11.96.76-15.68,5.53-1.91-2.25-4.06-5.25-5.83-11.24-.42-1.42-.74-2.83-.96-4.22,2.75-4.71,6.15-9.07,10.42-12.63.62-.52,1.24-.98,1.88-1.4.04.5.12,1.02.26,1.56Z"/>
      <path class="cls-3" d="m25.19,11.05c-.64.42-1.27.89-1.88,1.4-4.27,3.57-7.67,7.92-10.42,12.63-.17-1.07-.29-2.12-.36-3.15.14-.26.28-.51.42-.75,4.84-8.49,9.01-13.94,15.81-17.3-.22.14-3.91,2.64-3.57,7.17Z"/>
      <path class="cls-4" d="m72.54,14.67c-3.15,1.65-9.87,1-21.51-3.99,0,0-14.34-7.25-25.84.37-.34-4.53,3.35-7.03,3.57-7.17,0,0,.01,0,.01,0,3.3-1.63,7.21-2.77,12.12-3.54,15.05-2.34,27.34,8.55,27.34,8.55,1.83,1.79,3.24,3.73,4.3,5.79Z"/>
      <path class="cls-4" d="m12.89,25.09c-4.83,8.28-7.63,17.67-9.53,25.92.78-9.72,5.29-21.97,9.17-29.07.07,1.04.19,2.09.36,3.15Z"/>
      <path class="cls-2" d="m74.17,35.09c-3.19,13.94-12.79,26.95-16.25,29.16-3.97,2.53-16.55,2.21-29.29,1.77-3.1-6.31-3.72-13.32-4.23-17.09-.56-4.15-2.47-5.73-4.72-8.38,3.71-4.77,11.38-6.07,15.68-5.53,1.02.13,2.14.14,3.28.07.18.66.31,1.31.38,1.94.87,8.25,12.01-3.46,12.01-3.46,0,0,.23-.21.64-.58,11.04-.54,18.14.29,22.5,2.1Z"/>
      <path class="cls-5" d="m51.67,32.98c-.42.37-.64.58-.64.58,0,0-11.14,11.71-12.01,3.46-.07-.64-.19-1.28-.38-1.94,4.78-.28,9.97-1.92,9.97-1.92,1.05-.07,2.07-.13,3.06-.18Z"/>
      <path class="cls-5" d="m28.63,66.02c-5.78-.2-11.6-.43-16.66-.43-3.56,0-5.86-1.53-7.2-4.06.34-4.07,3.35-7.46,3.35-7.46,0,0,7.88-1.66,9.71-9.62.34-1.5.99-2.8,1.85-3.9,2.25,2.65,4.16,4.23,4.72,8.38.51,3.77,1.13,10.79,4.23,17.09Z"/>
      <path class="cls-1" d="m18.57,50.62c-.89,3.26-.48,8.35-.48,11.76,0,4.91-2.97,3.12-9.97,3.12S.05,60.45.05,60.45c.13-1.3.5-2.78,1.19-4.47,0,0,3.82-8.7,14.07-6.25,1.1.26,2.19.56,3.26.89Z"/>
      <path class="cls-1" d="m42.67,65.82c-.41-.03-.84-.03-1.29,0-3.81.25-3.6-3.6-3.12-7.57.57.18,1.09.33,1.55.42,2.78.55,3.95,4.34,2.86,7.16Z"/>
      <path class="cls-2" d="m42.67,65.82c-.68,1.74-2.22,3.11-4.79,3.11H9.56c-4.17,0-10.18-1.73-9.51-8.47,0,0,1.08,5.05,8.07,5.05s9.97,1.78,9.97-3.12c0-3.4-.4-8.5.48-11.76,7.97,2.39,15.32,6.22,19.68,7.62-.49,3.97-.69,7.82,3.12,7.57.45-.03.89-.03,1.29,0Z"/>
      <path class="cls-3" d="m11.46,50.59s-7.01.78-8.99,4.89c-1.98,4.11,4.02,4.83,8.03,4.07,4.02-.77,8.48-10.4.96-8.96Z"/>
      <path class="cls-1" d="m39.96,45.06c-2.59,5.28-2.23,14.64-2.97,20-.74,5.35-2.68,4.91-9.67,4.91-2.48,0-4.31-.26-5.63-.6-3.49-5.27-.47-19.58-.15-26.78.39-8.94,6.97-11.2,6.97-11.2,4.84-3.27,9.02-.55,11.68,3.45,1.01,2.86,2.17,5.33-.23,10.23Z"/>
      <path class="cls-2" d="m39.7,63.57c.49,10.04-5.4,7.81-14.25,7.81-1.72,0-2.93-.75-3.76-2.01,1.32.34,3.15.6,5.63.6,6.99,0,8.92.45,9.67-4.91.74-5.35.39-14.72,2.97-20,2.4-4.89,1.24-7.37.23-10.23,1.39,2.09,2.36,4.52,2.8,6.65,1.28,6.2-3.78,12.05-3.29,22.09Z"/>
      <path class="cls-3" d="m32.44,31.63s-8.55,2.25-9.15,8.91c-.59,6.67,6.84,10.74,10.56,7.14,3.72-3.6,5.26-17.5-1.41-16.05Z"/>
      <path class="cls-6" d="m82.02,43.62c-1.26.53-2.77,1.59-4.21,2.68-3.57,2.7-9.26.87-10.71-.58s.78,1.12-9.04,1.45-15.87-10.14-15.87-10.14c-1.02-3.24-1.35-6.25-1.26-8.94,0,0,2.63-9.71,8.21-13.71,5.58-4,13.96-4.75,22.65-1.04,8.69,3.71,9.68,12.59,9.68,12.59,0,0,.1.76.29,1.58.19,4.89-1.51,8.4-1.51,8.4,0,0,2.05,3.98,1.76,7.72Z"/>
      <path class="cls-2" d="m80.26,35.9s-1.53-3.35-1.77-7.14,2.08-1.23,2.6-.33c.52.89.74,4.5-.82,7.47Z"/>
      <path class="cls-2" d="m68.12,30.14s1.47,2.46,0,5.41c-1.47,2.95-6.63,6.14-6.63,0s4.91-10.07,6.63-5.41Z"/>
      <path class="cls-5" d="m82.02,43.62c-.12,1.5-.61,2.96-1.76,4.11-4.02,4.02-9.82,3.57-12.72,2.68s-18.74,3.35-24.56-11.16c-.3-.75-.57-1.49-.79-2.22,0,0,6.05,10.48,15.87,10.14s7.59-2.9,9.04-1.45,7.15,3.28,10.71.58c1.43-1.09,2.95-2.14,4.21-2.68Z"/>
      <path class="cls-4" d="m81.77,27.51c-.19-.82-.29-1.58-.29-1.58,0,0-.99-8.88-9.68-12.59-8.7-3.71-17.07-2.97-22.65,1.04-5.58,4-8.21,13.71-8.21,13.71.26-8.42,4.54-13.82,4.54-13.82,4.25-6.02,12.08-5.35,12.08-5.35,12.32,0,18.7,3.12,22.49,11.38,1.18,2.56,1.64,5.03,1.73,7.22Z"/>
      <path class="cls-2" d="m54.7,12.39h0c-.1,1.21-.31,2.1-.31,2.1-3.35,6.69-8.49,6.69-8.49,6.69,0,0-1.42-.52-2.69-1.77h0c-2.37-5.34,1.9-12.22,6.28-12.18,4.38.04,5.22,5.16,5.22,5.16Z"/>
      <path class="cls-1" d="m54.7,12.39h0s-.84-5.12-5.22-5.16c-4.38-.04-8.65,6.84-6.28,12.18-1.08-1.06-2.06-2.66-1.93-4.92.26-4.91,4.42-9.59,9.77-8.92,3.6.45,3.87,4.34,3.67,6.83Z"/>
      <path class="cls-4" d="m68.09,32.41c0,.97-.78,1.75-1.75,1.75s-1.75-.78-1.75-1.75.78-1.75,1.75-1.75,1.75.78,1.75,1.75Z"/>
      <path class="cls-2" d="m67.76,32.1c0-.59-.48-1.06-1.06-1.06s-1.06.48-1.06,1.06.48,1.06,1.06,1.06,1.06-.48,1.06-1.06Z"/>
      <path class="cls-4" d="m67.87,31.63c0-.26-.21-.47-.47-.47s-.47.21-.47.47.21.47.47.47.47-.21.47-.47Z"/>
      <path class="cls-4" d="m78.69,32.41c0,.97.57,1.75,1.28,1.75s1.28-.78,1.28-1.75-.57-1.75-1.28-1.75-1.28.78-1.28,1.75Z"/>
      <path class="cls-2" d="m78.93,32.1c0-.59.35-1.06.78-1.06s.78.48.78,1.06-.35,1.06-.78,1.06-.78-.48-.78-1.06Z"/>
      <path class="cls-4" d="m78.85,31.63c0-.26.15-.47.34-.47s.34.21.34.47-.15.47-.34.47-.34-.21-.34-.47Z"/>
      <path class="cls-2" d="m82.04,42.58s-1.78,1.13-7.13.9c0,0,0,2.57,2.12,2.79,2.12.22,5.4-.9,5.02-3.69Z"/>
      <path class="cls-1" d="m76.11,44.44s1.57.89,3.53.54c1.96-.35,2.22-1.58,2.16-1.91-.06-.34-.64.45-2.43.53-1.78.08-5.1.13-3.26.84Z"/>
      <path class="cls-2" d="m78.19,8.75c-1.34,5.13-2.68,7.74-6.02,6.66-2.55-.83-2.05-2.2-1.67-2.8.2-.14.41-.31.62-.51,0,0,4-5.56,6.91-6.39.48.38.62,1.3.16,3.03Z"/>
      <path class="cls-1" d="m78.03,5.71c-2.9.83-6.91,6.39-6.91,6.39-.22.2-.43.37-.62.51.12-.19.23-.3.23-.3,0,0-.34-2.8,2.34-4.74,1.77-1.29,4.03-2.6,4.97-1.85Z"/>
    </g>
  </g>
</svg>