<?xml version="1.0" encoding="UTF-8"?><svg data-name="Layer 2" xmlns="http://www.w3.org/2000/svg" xmlns:xlink="http://www.w3.org/1999/xlink" viewBox="0 0 104.01 84.89"><defs><clipPath id="a"><path d="m104.01,48.53c-.3-15.95-12.94-27.38-24.37-30.99-11.43-3.61-33.1-4.81-47.24,2.41-14.14,7.22-18.35,24.67-17.49,30.39.86,5.72.87,13.87.87,13.87,0,0-1.59,3.71-.47,7.26,1.11,3.55,7.08,10.31,8.21,12.19s4.22,1.63,5.95-.79c1.73-2.42,3.32-10.2,3.72-14.56.2-2.22-.37-4.28-1.41-5.87.06-2.04.49-5.9,2.59-9.39,3.03-5.03,9.15-17.15,13.97-20.76s21.06-11.13,33.1-5.11,15.65,19.26,14.14,30.99c-1.5,11.73-12.03,21.96-9.63,21.06,2.41-.9,18.35-14.74,18.05-30.69Z" style="stroke-width:0px;fill:#7bc143"/></clipPath></defs><g data-name="100"><g><path d="m41.5,54.99s.6,2.49-.9,2.8c-1.5.31-1.3,2.11,0,2.01,1.3-.1.8-1.52,1.6-2.01s1.91-.09,1.81,2.02,0,3.51,1.2,3.51.4-3.01,0-4.16c-.4-1.15,0-2.46,1.3,0,1.3,2.46.3,3.26,1.3,4.16,1,.9,2.21-1.4.9-2.81s-2.21-4.03-2.21-4.03c0,0,1.72-.29,2.53.44,1.37,1.24,2.03-1.81.14-1.57-1.72.23-2.16.34-3.17-.36-1-.7-2.31-1.6-3.11-1.6s-1.3.94-1.4,1.6Z" style="stroke-width:0px;fill:#5d9440"/><path d="m8.85,54.99s-.6,2.49.9,2.8c1.5.31,1.3,2.11,0,2.01s-.8-1.52-1.6-2.01-1.91-.09-1.81,2.02,0,3.51-1.2,3.51-.4-3.01,0-4.16c.4-1.15,0-2.46-1.3,0-1.3,2.46-.3,3.26-1.3,4.16-1,.9-2.21-1.4-.9-2.81s2.21-4.03,2.21-4.03c0,0-1.72-.29-2.53.44-1.37,1.24-2.03-1.81-.14-1.57,1.72.23,2.16.34,3.17-.36,1-.7,2.31-1.6,3.11-1.6s1.3.94,1.4,1.6Z" style="stroke-width:0px;fill:#5d9440"/><path d="m54,36.79s.4,2.6-.96,3.6c-1.35,1,.76,2.41,1.66,1.31s-.31-3.64,1.1-4.91c1.41-1.27,1.7,3.21.8,4.91-.9,1.7,1.2,2.71,2.01,1.6s-.54-3.21-.47-4.91c.07-1.7,1.58-1.7,4.28-1,2.71.7,3.51-.9,2.21-1.81-1.3-.9-2.11-.6-4.11,0-2.01.6-2.79.3-1.6-1.81,1.2-2.11,2.2-2.31,3.2-2.41s.2-3.11-1.6-1.5c-1.81,1.6-2.61,3.56-3.96,3.79-1.35.23-2.76-.18-2.56,3.13Z" style="stroke-width:0px;fill:#5d9440"/><path d="m25.28,9.61s-.5-1-2.01-1-2.16-.27-2.11-1.21c.05-.94,1.8-1.35,2.05-.49.25.85,1.56,1.19,2.06,1.12.5-.07.6-3.73-.2-4.28s-1-2.06-.1-2.36c.9-.3,1.96,1.1,1.55,2.01-.4.9-.15,3.29.4,4,.55.71,2.86-4,2.96-5.51s1.1-2.21,1.86-1.76.05,1.81-.75,2.26c-.8.45-2.42,4.19-2.64,5.81-.22,1.62,2.64.46,3.09-.29s1.76-.9,2.06-.15-.7,1.25-2.11,1.45-3.91,1.05-4.76,1.15c-.85.1-1.35-.75-1.35-.75Z" style="stroke-width:0px;fill:#5d9440"/><path d="m32.88,56.31s3.44-2.07,5.85-4.27c0,0,1,2.73,3.61,4.27,2.61,1.54,4.05.5,2.64-2.51-1.4-3.01-3.68-5.92-6.66-6.27-2.97-.35-5.22,3.31-6.42,6.12-1.2,2.81.97,2.67.97,2.67Z" style="stroke-width:0px;fill:#72b24b"/><path d="m47.95,29.57s-4.81,8.02-1.6,11.83c3.21,3.81,8.83-1.2,11.43-4.61,2.61-3.41-2.01-3.81-2.01-3.81,0,0,5.41-5.62,2.8-8.02-2.6-2.41-7.62.4-10.63,4.61Z" style="stroke-width:0px;fill:#72b24b"/><path d="m17.86,52.26s-.37-3.74-2.79-5.29c-2.42-1.55-9.44,4.47-9.64,7.48-.2,3.01,1,3.61,3.61,1.2s3.61-3.72,3.61-3.72c0,0,0,5.26,4.51,5.09,4.51-.17,1.5-1.93.7-4.76Z" style="stroke-width:0px;fill:#72b24b"/><path d="m33.24,20.75s-5.96,3.01-9.16,0c-3.21-3.01-.8-9.63,1.01-12.04,1.81-2.41,3.61-1.2,3.81,1.2s-.65,4.75-.65,4.75c0,0,10.69-2.31,13.49,1.89,2.8,4.19-8.5,4.19-8.5,4.19Z" style="stroke-width:0px;fill:#72b24b"/><path d="m39.54,48.87s-1.02.2-.72.9c.3.71,2.01,2.76,3.31,2.91,1.3.15-.42-3.82-2.59-3.82Z" style="stroke-width:0px;fill:#bfd96b;opacity:.5"/><path d="m51.51,32.78s-3.61,2.26-3.76,5.06c-.15,2.81,1.91,4.61,4.51,0s2.76-6.62-.75-5.06Z" style="stroke-width:0px;fill:#bfd96b;opacity:.5"/><path d="m10.81,49.43s-3.25,1.74-3.36,3.95c-.12,2.21,2.12.44,3.36-1.46s.99-3.13,0-2.5Z" style="stroke-width:0px;fill:#bfd96b;opacity:.5"/><path d="m27.36,17.08s4.49,1.05,8.05,0c3.56-1.05,2.56-2.63-.4-2.34-2.96.29-10.23,1.19-7.65,2.34Z" style="stroke-width:0px;fill:#bfd96b;opacity:.5"/><g><path d="m104.01,48.53c-.3-15.95-12.94-27.38-24.37-30.99-11.43-3.61-33.1-4.81-47.24,2.41-14.14,7.22-18.35,24.67-17.49,30.39.86,5.72.87,13.87.87,13.87,0,0-1.59,3.71-.47,7.26,1.11,3.55,7.08,10.31,8.21,12.19s4.22,1.63,5.95-.79c1.73-2.42,3.32-10.2,3.72-14.56.2-2.22-.37-4.28-1.41-5.87.06-2.04.49-5.9,2.59-9.39,3.03-5.03,9.15-17.15,13.97-20.76s21.06-11.13,33.1-5.11,15.65,19.26,14.14,30.99c-1.5,11.73-12.03,21.96-9.63,21.06,2.41-.9,18.35-14.74,18.05-30.69Z" style="fill:#7bc143"/><g style="clip-path:url(#a)"><g><path d="m33.51,70.13c-.64-.16-1.71-.29-1.85.6-.06.37-.05.64-.14,1-.08.3-.08.6-.15.9-.07.29-.23.57-.28.82-.07.3-.02.68-.02.99,0,.31-.1.51-.16.75-.07.31.02.66-.08.96-.09.26-.3.48-.41.73-.29.67-.23,1.48-.53,2.18-.22.51-.34.96-.47,1.5-.28,1.14-.16,2.42-.16,3.61.66.81.71.83.76.84.05.61.66.96,1.03,1.4.39.48.67.9,1.22,1.19.32.17.64.28.92.5.91-1.59,1.41-3.59,1.82-5.37.59-2.56.9-5.23.89-7.85,0-1.01.12-3.29-.77-4.04-.46-.38-1.06-.57-1.63-.71Z" style="fill:#e02c26;stroke-width:0px"/><path d="m23.75,82.76c-.05-.1-.24-.3-.31-.39-.08-.12-.16-.26-.25-.39-.35-.51-.58-1.1-.96-1.57-.34-.42-.57-.74-1-1.09-.38-.31-.57-.75-.81-1.16-.41-.72-.96-1.4-1.36-2.16-.24-.47-.66-.83-1.01-1.26-.75-.92-1.5-1.86-2.25-2.8-.66-1.42-.71-1.43-.76-1.44,0-.68-.55-.57-1.04-.57-.2,0-.64-.09-.82-.02-.21.09-.14.16-.23.37-.45,1.02-.07,2.57.07,3.66.24,1.81.37,3.66.8,5.44.82,3.38,2.68,7.17,6.47,7.95,1.7.35,4.38-.68,3.79-2.75-.16-.56-.12-1.32-.35-1.82Z" style="fill:#e02c26;stroke-width:0px"/><path d="m28.87,71.16c-.09-.3-.23-.35-.22-.71,0-.33.16-.74.25-1.13.05.02.1.03.16.03.37.01.45-.21.6-.51.16-.31.19-.47.25-.85.02-.12.12-.44.15-.6.03-.21.08-.45.25-.61.16-.16.39-.14.57-.24.17-.09.24-.2.38-.34.62.19.75,1.29,1.14,1.69.37.38.73.53,1.2.28.62-.33.53-.93.48-1.54-.08-.98-.32-1.79-1-2.52-.44-.47-.81-.39-1.41-.39-.14,0-.47.05-.6,0-.21-.07-.16-.17-.34-.27-.35-.19-.53-.15-.88-.01-.33.13-.6.4-.95.49-.57.13-1.35-.02-1.95-.02-.63,0-1.27,0-1.9,0-.42,0-.89.12-1.29-.05.32-1.01,1.16-1.2,2.13-1.1.81.09,1.58-.07,2.35-.29.37-.87-.73-.81-1.25-.8-.9.02-1.81.03-2.71.02-1.16,0-2.33-.02-3.49,0-.1,0-.19.01-.28.02.04-.07.09-.13.14-.18.24-.22.53-.51.79-.65.34-.19.76-.29,1.13-.41.51-.17.96-.47,1.45-.69.59-.27,1.04-.79,1.65-1,.32-.11.67-.2,1.01-.27.44-.09.64.05,1.03.12.74.13,1.81.21,2.54.02-.61-.75-.92-1.08-1.89-1.29-.63-.14-.92-.07-1.49.06-.27.06-.52,0-.8.04-.45.06-.92.23-1.37.36-.69.2-2.28.19-1.43-.87.29-.36.55-.25.99-.32.5-.08.99-.35,1.43-.57.42-.21.73-.1,1.19-.19.25-.05,1.1-.32,1.2-.52.21-.42-.64-.79-.92-.87-.8-.23-1.89-.52-2.71-.38-.7.12-1.41.59-2.13.72-.44.08-.87-.02-1.28.19-.2.1-.23.24-.47.27-.38.05-.62-.25-.93-.38-.21-.09-.47-.13-.69-.21-.48-.17-.72-.67-1.31-.64-.61.04-.64.52-.45,1.02.16.4.41,1.18.85,1.37.43.18.99-.14,1.41.06.59.27.76,1.28.3,1.68-.43.38-1.47.34-1.52.99-.02.2.14.63.24.79.08.14.26.21.34.34.17.29,0,.77.03,1.07.03.26.17.46.21.71.06.07.11.12.16.18-.04.02-.07.05-.11.07-.1.14-.23.25-.4.31-.09.01-.18.03-.27.04-.2.13-.38.26-.41.56.72.22,1.96-.06,2.45.64-.51,1.04-3.29.61-4.25.61-.6,0-1.38-.13-1.95.03-.24.82-.24,1.65-.39,2.47-.08.45-.09.89,0,1.34.03.18.09.78.2.94.36.53,1.19.23,1.52-.2.23-.3.17-.75.48-.99.58-.45.67.08.89.53.14.28.46,1.37.73,1.5.66.32.52-.85.47-1.09-.09-.45-.49-.95-.16-1.34.28-.33,1.18-.37,1.56-.57.66-.36,1.46-.8,1.49.25,0,.35,0,.7,0,1.05,0,.23,0,.43.04.59-.2-.01-.44-.08-.6-.09-.67-.03-.79.39-1.4.56-.53.15-1.16.25-.71.9.24.35.52.51.71.9.17.35.43.67.61,1,.28.52.15,1.25.15,1.86.51,1.32.53,1.05.66.81.41.23.61.64.92.97.32.34.4.38.83.39.22,0,.36-.15.57-.02.24.16.11.89.1,1.12-.06.78.21,1.09.63,1.76.34.53.71,1.11,1.11,1.59.35.41,1.75,1.61,2.41,1.11.31-.24.19-.69.19-1.05,0-.82.24-1.94-.13-2.68-.21-.43-1.19-1.83-.36-2.11.24.15.75.58,1.08.52.1-.58-.27-1.36.4-1.6.4-.15.71-.04.83-.49.1-.39-.05-.93-.11-1.31-.1-.6.07-1.42-.09-1.99Zm-4.62-.14c-.73-.53-.87-1.72-1.56-2.3-.14-.12-.27-.22-.38-.28.41-.57,1.21-.97,1.75-.62.38.24.49.97.75,1.33-.1.62.19,1.58-.55,1.86Zm1.88-2.69c-.19,0-.4.02-.61.08-.02-.09-.04-.17-.06-.22-.17-.46-.85-1.3-.52-1.75.29-.4,1.21-.7,1.66-.73.51-.04,1.15-.06,1.66,0,.26.03.55.13.69.4.07.14.33.85.32,1.02-.01.18-.28.38-.38.54-.09.14-.18.38-.23.57-.05-.03-.1-.06-.16-.09-.34.83-1.74.18-2.38.18Z" style="fill:#e02c26;stroke-width:0px"/><path d="m19.23,51.77c.57.29,1.14.72,1.77.88.28.07,1.18.33,1.41.22.14-.54.07-1.1-.36-1.44-.2-.16-.58-.43-.8-.56-.44-.26-.88-.16-1.34-.32-.85-.28-.84-1.21-1.44-1.74-.33-.3-.81-.48-1.25-.53l-.2,1.2c-.03-.14-.1-.25-.21-.34,0,.67.55,1.66,1.03,2.13.33.33.94.28,1.39.51Z" style="fill:#e02c26;stroke-width:0px"/><path d="m20.43,45.07c.31.31.6.58,1.06.61.44.04.8-.22,1.23-.23.38,0,.41.15.71.22.27.07.63-.01.91-.01.39,0,.67-.08,1.04-.16.48-.1.98.05,1.46-.06,1.09-.25.38-.87-.33-1.19-.82-.36-1.46-.61-2.37-.61-.51,0-.87.08-1.29-.18-.73-.45-1.03-.93-1.3-1.79-.17-.53-.3-1.49-.81-1.81-.79-.49-1.99-.25-1.91,2.18.02-.15-.04-.21-.17-.19-.04.47.46,1.08.66,1.52.3.64.6,1.19,1.11,1.7Z" style="fill:#e02c26;stroke-width:0px"/><path d="m24.47,36.23c.57-.03,1.17-.05,1.72.09.5.13.86.29,1.36.32.35.02,1.02.11,1.31-.1.37-.27.27-1.32.17-1.7-.78-.16-1.76-.03-2.55-.01-.78.01-1.23-.16-1.85-.61-.35-.25-.76-.48-1.15-.65-.35-.15-.62-.14-1.05-.15v1c0-.06.01-.11.02-.17.62.74.92,2.04,2.02,1.97Z" style="fill:#e02c26;stroke-width:0px"/><path d="m28.04,30.64c.18.01.39-.14.56-.18.26-.06.48-.05.74-.04.6,0,.8.04.71-.62-.11-.82,0-2.53-.78-3-.4-.24-1.65-.43-2.01,0v1c0,.73-.41,2.74.79,2.83Z" style="fill:#e02c26;stroke-width:0px"/><path d="m32.76,24.73c.33.29.89.39,1.28.58.32.16.64.43,1.02.27.19-.96-.61-1.46-.91-2.3-.17-.47-.21-1.42.06-1.84-.23-.31-.79-.25-1.13-.24l-.6,1.2c0,.4,0,.81,0,1.21,0,.58-.1.78.3,1.13Z" style="fill:#e02c26;stroke-width:0px"/><path d="m26.68,48.83c-.14-.06-.25-.25-.42-.32-.55-.21-1.44-.04-2.01-.04-.39,0-1.29-.15-1.41.4l-.2.6c-.02.36.89,1.4,1.19,1.39.16,0,.84-.4,1.03-.44.3-.07.49-.1.77-.14.92-.13,1.76-.2,2.7-.21.51,0,1.13.23,1.14-.4.02-.79-1.06-.58-1.62-.65-.35-.05-.84-.06-1.17-.2Z" style="fill:#e02c26;stroke-width:0px"/><path d="m29.76,41.04c-.84,0-1.67,0-2.51,0h-.6c-.6-.12-1.4.43-1.35,1.05.08,1.08,1.63,1.06,2.34,1.49.02-.1.04-.19.05-.29.21-.11.52-.04.75-.04.4,0,1.17.29,1.5.16.32-.12.39-.45.76-.56.33-.1.85-.05,1.15.13.34-1.19-1.1-1.93-2.08-1.94Z" style="fill:#e02c26;stroke-width:0px"/><path d="m34.07,35.59c.27-.07.32-.19.6-.12.25.06.45.29.7.35.63.16,1.15-.32,1.75-.45.6-.12,1.57.04,1.19-.77-.22-.47-.6-1.04-1.12-1.19-.33-.09-.88,0-1.21,0-.33,0-1.08.16-1.34.03-.29-.14-.21-.47-.42-.6-.53-.33-1.36.47-1.96.38l-.4.6c-.67-.12-.74.69-.57,1.18.99.05,1.7.87,2.78.58Z" style="fill:#e02c26;stroke-width:0px"/><path d="m37.76,25.19c.3.33.49.23.9.12.32-.08.5-.14.82-.06.22.05.34.21.6.16l1.6-.8c.2.03.38.14.57.2.36-1.11-.61-2.4-1.79-2.22-.52.08-.58.56-1.02.83-.61.38-1.37.17-1.97.46-.1.4,0,1.01.28,1.33Z" style="fill:#e02c26;stroke-width:0px"/><path d="m43.2,29.49c-.32-.42-.61-.81-1.09-1.07-.54-.29-1.28-.26-1.88-.23-.51.02-.72.26-1.14.48-.53.28-1.08.15-1.55-.06-.5-.23-1.14-.31-1.67-.49-.34-.12-.97-.32-1.18.08-.33.63.53,1.46.99,1.81.41.06.42.11.42.17.36.11.82.04,1.2.03.48,0,.73.13,1.17.22.43.08.81-.18,1.19-.27.35-.09.33,0,.71.3.58.46,1.01.59,1.73.57.41-.01,1.66.02,1.81-.51.1-.36-.5-.75-.71-1.03Z" style="fill:#e02c26;stroke-width:0px"/><path d="m49.7,24.01c-.35-.38-.32-.97-.6-1.41-.36-.56-.86-.69-1.5-.62-.52.06-.97.36-1.49.42-.46.05-.97.04-1.01.68-.04.85,1.54,1.18,2.21,1.12l.6.8c0-.11,0-.22-.01-.33.22.26.54.02.81.15.18.08.3.4.44.53.21.2.49.29.73.45.63.42.95,2.05,1.82,1.8.05-.67-.26-1.76-.56-2.37-.33-.67-.98-.73-1.44-1.21Z" style="fill:#e02c26;stroke-width:0px"/><path d="m40.49,19.7c.21.12.76.49,1.01.49l1-.6c.07-.65-.2-1.11-.55-1.61-.49-.7-.55-.17-1.05.29-.3.27-1,.23-1.04.71-.03.34.38.58.63.72Z" style="fill:#e02c26;stroke-width:0px"/><path d="m57,20.77c-.26-.38-.88-.45-1.31-.54-.73-.17-1.5-.14-1.38.81.07.53.62,1.35,1.22,1.35l-.2.6c0,.53.03.93.15,1.42.16.65-.11,2,.85,1.4,1.15-.73.42-2.02.39-3.12-.02-.68.72-1.28.28-1.93Z" style="fill:#e02c26;stroke-width:0px"/><path d="m46.91,18.56c.4.25.76.11,1.17.22.33.09.5.35.84.43.11.02.7.05.77-.04.2-.22.03-1.07.03-1.35,0-.36.1-.66-.17-.9-.32-.28-1.06-.14-1.43-.14l-1,.2c-.34,0-.56-.1-.78.22-.32.47.22,1.13.58,1.36Z" style="fill:#e02c26;stroke-width:0px"/><path d="m58.37,15.39c-.01.09.02.47-.04.54-.15.17-.83.25-1,.29-.58.15-1.54.14-1.99.55l-.6-.2c-.43-.04-.78,0-.97.44-.22.5.01.97.52,1.13.29.09.89.13,1.16.02.52-.2.55-.59,1.2-.6.8-.02,1.27-.15,1.8-.79.15-.17.71-.58.73-.8.04-.37-.54-.56-.8-.59Z" style="fill:#e02c26;stroke-width:0px"/><path d="m63.47,19.98c-.24-.02-.48.13-.52-.19l-1.4.2c-1.15,0-.6.85-.6,1.6,0,.54,0,1.07,0,1.61,0,.28-.1.68.19.83.05.03.53,0,.59-.06.09-.09.05-.49.07-.6.07-.45.26-.85.56-1.19.53-.6,1.18-.6,1.78-1.03.4-.28.54-.49.15-.86-.26-.25-.46-.28-.81-.3Z" style="fill:#e02c26;stroke-width:0px"/><path d="m69.58,20.39c-.69-.22-.78,1.01-.8,1.4-.02.5-.3.82-.55,1.25-.14.24-.85.91-.65,1.24.21.36.88.03,1.11-.17.43-.4.52-1.1,1.01-1.42.33-.21.91-.2,1.18-.5.24-.27.16-.96-.09-1.21l-1.2-.6Z" style="fill:#e02c26;stroke-width:0px"/><path d="m62.56,16.45c-.12.54.19,1.21-.15,1.69.3.2,1.03.4,1.38.22.36-.18.44-.79.67-1.09.22-.28.34-.35.59-.51.29-.18.65-.35.91-.58l-1.81-.2c-.57,0-1.44-.24-1.6.48Z" style="fill:#e02c26;stroke-width:0px"/><path d="m74.96,17.95c.13-.13.04-.78,0-.94-.41-.12-.97-.15-1.39-.21-.45-.07-.94-.02-1.39-.02l-1,.2c-.74-.11-1.76.72-1.4,1.52.13.3.61.51.94.51.56,0,.75-.47,1.17-.72.37-.22.79-.04,1.18-.12.12-.03.14-.15.28-.19.2-.06.54,0,.74.01.16,0,.73.1.86-.03Z" style="fill:#e02c26;stroke-width:0px"/><path d="m74.62,21.61c-.1.33.05.67-.02.99-.08.4-.41.49-.63.8-.41.57-.16.9.5.82.49-.06.75-.46,1.22-.59.41-.12.93.07,1.27-.27.3-.3.45-.97.44-1.36l-2.01-.4c-.26,0-.52-.03-.77.02Z" style="fill:#e02c26;stroke-width:0px"/><path d="m84.42,22.19l-2.01.2c-.26,0-.8-.13-1.02,0-.49.3-.2,1.43-.42,1.89-.09.2-.64.49-.59.71.07.36.57.23.8.13.35-.23.68-.48,1-.75.44-.3.93-.51,1.45-.62.17-.04,1.42-.06,1.56-.25.57-.78-.69-.89-.77-1.33Z" style="fill:#e02c26;stroke-width:0px"/><path d="m89.78,26.01c.33-.55-.13-.61-.54-.61l-2.01.6c-.32,0-.67-.06-.98.03-.08.24-.16,1.29,0,1.48.29.36.93-.5,1.17-.67.41-.28.84-.33,1.31-.44.3-.07.87-.08,1.06-.39Z" style="fill:#e02c26;stroke-width:0px"/><path d="m93.45,28.91c0-.39.04-.62-.41-.71-.55-.11-.87.3-.79.81l-1.81.6c-.22-.15-.36-.26-.56-.02-.08.09-.3.96-.26,1.05.32.94,1.94-.89,2.15-1.03.73-.48,1.69.5,1.69-.7Z" style="fill:#e02c26;stroke-width:0px"/><path d="m94.05,36.21c.62-.26.48-1,1.29-.95.63.04.93.38,1.44-.13.37-.37.46-.6.47-1.09,0-.3.11-.68-.17-.82-.45-.23-2.94.3-3.24.62v.2c-.85-.09-1.11,1.52-.69,2.01.18.21.65.27.9.17Z" style="fill:#e02c26;stroke-width:0px"/><path d="m95.48,39.86c-.08.27-.13.77.12.96.18.14.67,0,.87-.02.58-.08,1.13-.14,1.71-.16.69-.02.94-.09,1.47-.49.29-.23.42-.23.8-.14.03-.3-.68-1.22-.99-1.18l-3.01,1c-.31,0-.67-.06-.97.02Z" style="fill:#e02c26;stroke-width:0px"/><path d="m81.24,19.59c.05-.62-1.29-.64-1.63-.61l-1.81.6c-.19.4-.33.73.23.98.72.32,1.61-.45,2.28-.57.27-.05.9,0,.93-.41Z" style="fill:#e02c26;stroke-width:0px"/><path d="m100.06,44.26h-2.01c-.24,0-.8-.1-1.02-.01-.33.14-.23.67-.16,1,.29.11.64-.09.91-.19.45-.16.87-.22,1.35-.22.75,0,1.48.4,2.09.02,1.44-.91-1.3-1.3-1.16-.6Z" style="fill:#e02c26;stroke-width:0px"/><path d="m100.26,48.67h-1.81c-.41,0-1.03.04-1.2.5-.3.8,1.01.54,1.4.46.45-.09.74-.17,1.2-.16.19,0,.85.13,1.03.02.18-.11.21-.18.19-.42-.05-.45-.44-.46-.82-.4Z" style="fill:#e02c26;stroke-width:0px"/><path d="m99.66,53.68l-1.4-.2c-.32.08-.41-.22-.69-.21-.38.02-.9.78-.81,1.14.46.29,1.2-.07,1.7-.13.21-.03.79-.26,1.01-.19.22.07.35.52.49.68.35.41.56.31.69-.21.23-.93-.45-.52-.99-.89Z" style="fill:#e02c26;stroke-width:0px"/><path d="m97.26,58.1c-.19,0-.79-.11-.96,0-.16.11-.33.96-.23,1.1.19.27.92.05,1.21.08.48.04.63.19.84.6.44.05.36-.51.35-.79l-1.2-1Z" style="fill:#e02c26;stroke-width:0px"/><path d="m95.65,63.71c-.21-.04-.37-.14-.57-.18-.06.29-.08.61-.03.91.38.25.79-.06,1.19.06.23.07.17.15.33.32.21.21.91.58.68-.1l-1.6-1Z" style="fill:#e02c26;stroke-width:0px"/><path d="m93.26,68.7c.31.1.66-.07.95.06-.02.67.52.58,1.03.57l-1.81-1.4c-.13.26-.31.45-.18.77Z" style="fill:#e02c26;stroke-width:0px"/><path d="m91.84,71.74c-.19-.06-.41-.02-.43.2-.03.29.39.25.52.4.27.31.17,1.08.89.8.08-.31.03-.67.02-.99l-1-.4Z" style="fill:#e02c26;stroke-width:0px"/><path d="m31.21,50.2c-.35.1-.59.22-.58.63,0,.29.37.7.59.87.17.13.5.2.65.39l1.81-.2c.51.6,1.63-1.3.6-1.64-.16-.05-.44.04-.6.08-.41.11-.74.23-1.21.18-.56-.07-.71-.46-1.26-.29Z" style="fill:#e02c26;stroke-width:0px"/><path d="m38.39,38.23c-.45-.05-.94-.02-1.32.24-.54.38-.53.59-1.23.57-.28,0-1.17-.15-1.36.11-.16.21.02.74.17.9.43.47,1.62.53,2.19.36.01-.06.02-.11.03-.17h1.6c.48-.12.81-1.16.62-1.58-.14-.32-.35-.39-.72-.43Z" style="fill:#e02c26;stroke-width:0px"/><path d="m42.7,33.22c-.4-.17-1.07-.34-1.2-.79l-.4.8c.03.3.9.91,1,1.01.28.26.76.91,1.2.79.18-.69.07-1.54-.59-1.81Z" style="fill:#e02c26;stroke-width:0px"/><path d="m49.54,28.81c-.84-.84-1.3-.8-2.43-.8l-1.6.4c0,.9.67.97,1.5,1.11.7.12,1.39.08,2.09.09.11,0,.72.08.8-.03.2-.26-.2-.61-.37-.78Z" style="fill:#e02c26;stroke-width:0px"/><path d="m53.73,26.2c0,.54-.06,1.24.4,1.64.55.48.89-.06.81-.64l-1.2-1Z" style="fill:#e02c26;stroke-width:0px"/><path d="m34.47,44.46c-.38.07-.74.26-1.1.41-.29.11-.84.07-1.09.23-.35.22-.3.63-.03.94.28.32.43.27.81.14.41-.14.71-.32,1.15-.28.39.04.8.31,1.16.24.1-.02.77-.38.82-.46.17-.24.07-.54.07-.81l-1.81-.4Z" style="fill:#e02c26;stroke-width:0px"/><path d="m20.85,37.53c.41-.53.12-1.28-.02-1.9l-.8.4c-.29.7-.6,1.36-.37,2.21.38.1.96-.42,1.19-.71Z" style="fill:#e02c26;stroke-width:0px"/><path d="m25.05,31.83c1.43-.02.26-1.18,1-1.81l-1.4-.6c-.42.4-.19,1.26-.2,1.78-.01.55.01.64.61.63Z" style="fill:#e02c26;stroke-width:0px"/><path d="m30.86,25.2l-.4-.8c-.26.35-.52.06-.82.22-.35.19-.24.78-.08,1.06.39.69,1.12.06,1.3-.48Z" style="fill:#e02c26;stroke-width:0px"/><path d="m37.57,22.2c.63.04.5-.64.51-1.01l-.8-.6c0,.46-.23,1.58.29,1.61Z" style="fill:#e02c26;stroke-width:0px"/><path d="m25.62,38.44c-.08-.25-1.17-1.01-1.38-1l-.8.8c-.3,0-.45-.07-.62.16-.18.24.13,1.1.37,1.2.43.19,1.06-.7,1.56-.77.36-.05,1.08.24.87-.39Z" style="fill:#e02c26;stroke-width:0px"/><path d="m32.05,29.61c.28-.18.16-.47.36-.67.18-.17.39-.13.63-.16.12-.48-.11-.73-.17-1.17l-1.81.6c-.66.07.28,1.84.98,1.4Z" style="fill:#e02c26;stroke-width:0px"/><path d="m45.1,20.39l-1.2-.4c.07.45-.38.95-.17,1.39.52.17,1.48-.4,1.38-.99Z" style="fill:#e02c26;stroke-width:0px"/><path d="m17.77,47.06c.14-.29.46-.51.56-.81.14-.47-.09-.35-.3-.8l-.8-.2c-.05.37.21,1.7.55,1.8Z" style="fill:#e02c26;stroke-width:0px"/></g></g></g><path d="m31.54,72.09s-1.33-2.26.63-5.42c0,0,1.35.08,1.5,2.33.15,2.26-1.85,3.83-2.13,3.08Z" style="stroke-width:0px;fill:#231f20"/><path d="m17.59,73.73s-.26-3.92-1.84-5.26c0,0-1.31,1.1-.94,3.03.38,2.01,1.17,2.29,2.78,2.23Z" style="stroke-width:0px;fill:#231f20"/><path d="m33.22,68.45c0-.29-.24-.53-.53-.53s-.53.24-.53.53.24.53.53.53.53-.24.53-.53Z" style="stroke-width:0px;fill:#fff"/><path d="m16.45,70.11c0-.29-.24-.53-.53-.53s-.53.24-.53.53.24.53.53.53.53-.24.53-.53Z" style="stroke-width:0px;fill:#fff"/><path d="m19.59,62.54s-2.53,2.53-1.93,7.34c.6,4.81,4.41,6.42,6.62,9.43,2.21,3.01,3.41,1.81,4.61-4.21s2.21-10.83-.8-14.44c-3.01-3.61.28-2.42,4.25-13.94,3.97-11.53,16.41-19.92,24.23-22.65,7.82-2.72,18.65-2.72,25.88,1.29,7.22,4.01,17.25,14.08,15.24,26.9-2.01,12.82-7.22,21.04-3.01,15.62,4.21-5.42,7.31-14.75,6.42-24.11-.89-9.36-12.44-24.43-30.89-26.04s-33.3-2.21-41.32,8.63c-8.02,10.83-13.36,22.75-10.59,27.02,2.77,4.27,3.61,6.63,1.29,9.16Z" style="stroke-width:0px;fill:#fff;opacity:.2"/></g></g></svg>