<?xml version="1.0" encoding="UTF-8"?>
<svg id="Layer_2" data-name="Layer 2" xmlns="http://www.w3.org/2000/svg" viewBox="0 0 584.97 507.48">
  <defs>
    <style>
      .cls-1 {
        fill: #cf8729;
      }

      .cls-1, .cls-2, .cls-3, .cls-4, .cls-5, .cls-6, .cls-7, .cls-8, .cls-9, .cls-10, .cls-11, .cls-12, .cls-13, .cls-14, .cls-15, .cls-16 {
        stroke-width: 0px;
      }

      .cls-2 {
        fill: #fee927;
      }

      .cls-3 {
        fill: #010101;
      }

      .cls-4 {
        fill: #1d1614;
      }

      .cls-5 {
        fill: #eda244;
      }

      .cls-6 {
        fill: #945035;
      }

      .cls-7 {
        fill: #9b8f33;
      }

      .cls-8 {
        fill: #f8ed33;
      }

      .cls-9 {
        fill: #f4e981;
      }

      .cls-10 {
        fill: #fff;
      }

      .cls-11 {
        fill: #574542;
      }

      .cls-12 {
        fill: #231f20;
      }

      .cls-13 {
        fill: #fcee23;
      }

      .cls-14 {
        fill: #784024;
      }

      .cls-15 {
        fill: #595a5c;
      }

      .cls-16 {
        fill: #49271a;
      }
    </style>
  </defs>
  <g id="_1" data-name="1">
    <g>
      <path class="cls-2" d="m167.2,481.08c12.94.92,30.16,9.3,65.21,7.77,22.21-.97,37.29-6.31,46.71-5.25-.87-5.07,2.94-7.87,2.95-7.88-1.53-.72-3.3-1.32-5.36-1.78-19.94-4.41-29.97,8.83-55.02,6.74,0,0-36.07-2.26-51.4-6-2.91-.71-5.91-.88-8.85-.6,0,0,6.42,2.27,5.76,7Z"/>
      <path class="cls-12" d="m165.5,481c.55,0,1.12.04,1.7.08.66-4.74-5.76-7-5.76-7-12.54,1.21-23.96,10.78-22.29,22.63,0,0,13.19-15.94,26.35-15.71Z"/>
      <path class="cls-7" d="m279.12,483.61c-9.42-1.07-24.5,4.28-46.71,5.25-35.05,1.53-52.26-6.85-65.21-7.77-.28,2.03-1.84,4.5-5.76,7.44h0c2.85.07,5.82.6,8.86,1.79,16.32,6.4,33.89,6.4,60.18,6.4s33.85-3.05,45.55-6.4c2.36-.68,4.35-.8,6.05-.6,0,0,0-.01,0-.01-1.79-2.29-2.65-4.33-2.96-6.09Z"/>
      <path class="cls-3" d="m161.43,488.53h0c3.92-2.94,5.48-5.41,5.76-7.44-.57-.04-1.14-.07-1.7-.08-13.16-.23-26.35,15.71-26.35,15.71,0,0,9.82-8.48,22.28-8.19Z"/>
      <path class="cls-16" d="m294.95,390.41c.16-2.38-1.94-6.73-2.81-8.89-1.75-4.31-3.8-6.19-8.31-8.03-2.89-1.18-5.73-1.92-8.54-2.69-2.04-7.77-5.26-14.77-9.95-20.53-7.77-9.53-21.57-17.31-36.2-21.71-30.17-9.06-63.82-3.68-55.15,30.58h0s.52,10.11,1.7,23.92c1.83,21.59,5.27,52.23,10.78,67.49,4.75,13.15,8.07,25.17,11.08,31.74,2.71,5.93,5.18,7.44,8.22,1.37h0c.98,3.12,2.16,5.85,3.52,8.16,2.42.16,2.61-4.15,3-6.71,2.12.02,3.87,3.8,5.44,5.33,2.05,2,3.87,3.18,6.84,2.61-.47-3.88,2.52-1.61,4.29-1.88,2.12-.32,2.89-2.74,2.88-4.7,3.7-.21,6.39,7.79,10.16,5.34,1.43-.92,2.07-3.92,2.26-5.4.29-2.29.88-5.13.79-7.38,1.88,1.48,4.99,4.22,7.7,2.16,1.44-1.1,1.21-2.81,1.2-4.38,1.1.33,2.2.42,3.04-.51,1.13-1.24,1.25-4.46,1.23-6.04,3.26-.68,4.53,2.19,5.52-1.59.47-1.77-.14-4.05.1-5.88,1.54.48,3.47,3.02,5.47,2.7,2.49-.4,2.03-2.67,2.21-4.73,2.57,1.89,3.06,2.89,6.71,2.57,1.2-6.02-6.92-10.93-5.33-16.73,1.65,0,3.57,2.16,5.47,1.31,2.92-1.29.38-5.36.76-7.41,1.43-.15,3.62.47,4.66-.68,1.33-1.47-.35-7.46-.77-8.91-.82-2.85-2.01-5.68-2.46-8.62-.31-2,.38-4.43-.76-6.07,2.86-.72,4.89,3.69,5.48-1.48.15-1.23-.39-2.9,0-4.07.64-1.94.94-1.27,2.78-2.03,1.91-.78,1.67.64,2.64-1.85.49-1.24.14-3.06.15-4.37,0-3.19-1-6.03-.63-9.21,2.76-.12,4.63.21,4.83-2.77Z"/>
      <path class="cls-12" d="m279.12,483.61c6.1.7,9.83,4.07,11.55,13.1,0,0,4.82-14.76-8.6-20.99-.01.01-3.82,2.81-2.95,7.88Z"/>
      <path class="cls-3" d="m279.12,483.61c.3,1.76,1.17,3.8,2.95,6.09,0,0,.01.01.01.02,6.69.81,8.59,7,8.59,7-1.72-9.03-5.45-12.41-11.55-13.1Z"/>
      <path class="cls-2" d="m185.1,490.72c12.95.92,30.16,9.3,65.21,7.77,22.21-.97,37.29-6.32,46.71-5.25-.87-5.08,2.93-7.88,2.95-7.89-1.54-.71-3.31-1.32-5.36-1.77-19.95-4.41-29.98,8.83-55.02,6.74,0,0-36.08-2.25-51.4-6-2.91-.71-5.91-.89-8.86-.6,0,0,6.42,2.26,5.76,7Z"/>
      <path class="cls-12" d="m183.41,490.64c.55.01,1.13.04,1.7.08.66-4.74-5.76-7-5.76-7-12.54,1.21-23.96,10.78-22.28,22.63,0,0,13.19-15.94,26.34-15.71Z"/>
      <path class="cls-12" d="m297.02,493.25c6.1.69,9.82,4.07,11.54,13.1,0,0,4.82-14.76-8.59-20.99-.02.01-3.82,2.81-2.95,7.89Z"/>
      <path class="cls-7" d="m297.02,493.25c-9.42-1.07-24.5,4.27-46.71,5.25-35.05,1.53-52.26-6.85-65.21-7.77-.27,2.02-1.84,4.5-5.76,7.44h0c2.85.07,5.83.59,8.86,1.78,16.32,6.4,33.89,6.4,60.18,6.4s33.86-3.05,45.55-6.4c2.37-.68,4.36-.8,6.06-.6,0,0-.01,0-.01,0-1.79-2.3-2.65-4.33-2.95-6.09Z"/>
      <path class="cls-3" d="m179.34,498.16h0c3.92-2.95,5.49-5.42,5.76-7.44-.57-.04-1.14-.07-1.7-.08-13.15-.23-26.34,15.71-26.34,15.71,0,0,9.82-8.49,22.27-8.18Z"/>
      <path class="cls-3" d="m297.02,493.25c.3,1.76,1.17,3.8,2.95,6.09,0,0,0,0,.01.01,6.69.81,8.58,7,8.58,7-1.72-9.03-5.44-12.41-11.54-13.1Z"/>
      <path class="cls-14" d="m269.52,425.35c-1.23-.61-2.71.08-4.06-.61-1.29-.66-1.65-2.06-2.56-2.97-1.02-1.02-1.76-1.27-2.96-2.09-2.01-1.38-3.64-3.51-3.58-6.15-2.98-.64-4.64,2-7.55,1.3-2.58-.61-3.12-3.21-4.3-5.52-2.64.42-2.22,3.75-5.42,3.28-4.85-.71-6.62-8.99-9.8-11.68-2.15,1.79-6.09.5-8.27-.84-1.47-.9-4.8-5.29-6.24-5.3-3.19-.01-3.26,5.58-7.66,4.81-3.25-.57-5.32-3.74-8.2-4.83-1.33,2.55-3.45,1.64-5.31-.45,1.83,22.19,5.27,53.67,10.77,69.35,4.75,13.52,8.07,25.87,11.09,32.63.49-.22.95-.48,1.26-.81,1.77-1.84.62-5.31,2.23-7.29,1.52,1.94,3.16,4.87,6.15,3.84.08-.38.16-.77.24-1.15,3.8-1.43,4.25,6.91,8.24,2.67,1.45-1.55,4.76-7.33,4.1-9.57.96,2.7,3.69,9.92,7.9,7.94,3.21-1.51,3-8.65,3.37-11.49,3.65-.79,7.21,6.03,8.27-1.62.73-5.29.22-11.64-.08-17,1.55,3.29,6.26,3.38,7.03-.39.7-3.45-.4-7.38.08-10.87,3.13.49,6.62,1.55,7.54-2.85.45-2.11.2-5.42-.15-7.48-.27-1.59-2.42-5.32-1.14-6.98.97-1.27,3.19-.68,4.26-2.03.06-.08.12-.2.17-.31-.92-.78-1.78-1.57-2.51-2.18-.73-.63-2.27-3.04-2.9-3.36Z"/>
      <path class="cls-16" d="m312.86,401.86c.15-2.44-1.94-6.91-2.81-9.14-1.74-4.43-3.8-6.36-8.31-8.25-2.89-1.21-5.73-1.97-8.54-2.76-2.05-7.99-5.27-15.18-9.96-21.1-7.77-9.8-21.57-17.79-36.19-22.31-30.17-9.32-63.83-3.79-55.15,31.42h0s.52,10.39,1.71,24.58c1.86,2.08,3.98,3,5.31.45,2.88,1.09,4.95,4.26,8.2,4.83,4.41.77,4.47-4.82,7.66-4.81,1.44,0,4.77,4.4,6.24,5.3,2.18,1.34,6.12,2.63,8.27.84,3.18,2.69,4.95,10.98,9.8,11.68,3.2.47,2.78-2.85,5.42-3.28,1.18,2.31,1.72,4.9,4.3,5.52,2.91.7,4.57-1.94,7.55-1.3-.06,2.64,1.58,4.77,3.58,6.15,1.2.82,1.94,1.07,2.96,2.09.91.91,1.27,2.31,2.56,2.97,1.35.69,2.83,0,4.06.61.62.32,2.16,2.73,2.9,3.36.73.62,1.59,1.4,2.51,2.18-.05.1-.11.23-.17.31-1.08,1.35-3.3.77-4.26,2.03-1.28,1.66.87,5.4,1.14,6.98.35,2.07.59,5.37.15,7.48-.92,4.4-4.41,3.34-7.54,2.85-.48,3.49.61,7.42-.08,10.87-.77,3.76-5.48,3.67-7.03.39.3,5.36.81,11.71.08,17-1.06,7.65-4.62.83-8.27,1.62-.37,2.84-.16,9.98-3.37,11.49-4.21,1.98-6.94-5.24-7.9-7.94.66,2.24-2.65,8.02-4.1,9.57-3.99,4.24-4.44-4.1-8.24-2.67-.08.38-.16.77-.24,1.15-2.99,1.03-4.63-1.89-6.15-3.84-1.61,1.97-.45,5.44-2.23,7.29-.32.33-.77.59-1.26.81,2.71,6.09,5.18,7.65,8.22,1.4h0c.97,3.22,2.15,6.01,3.52,8.39,2.41.16,2.61-4.27,3-6.89,2.12.02,3.87,3.9,5.45,5.48,2.04,2.06,3.86,3.27,6.84,2.68-.47-3.99,2.52-1.65,4.29-1.93,2.13-.33,2.89-2.81,2.88-4.83,3.7-.22,6.4,8.01,10.17,5.48,1.42-.95,2.06-4.02,2.26-5.55.29-2.35.88-5.27.8-7.59,1.89,1.52,4.98,4.33,7.69,2.22,1.44-1.13,1.21-2.89,1.2-4.5,1.09.34,2.19.43,3.04-.52,1.13-1.27,1.25-4.58,1.24-6.21,3.26-.7,4.52,2.25,5.52-1.64.46-1.82-.15-4.17.09-6.04,1.55.49,3.48,3.1,5.47,2.77,2.49-.4,2.03-2.74,2.21-4.86,2.57,1.94,3.06,2.97,6.71,2.63,1.2-6.18-6.92-11.23-5.33-17.19,1.65,0,3.57,2.22,5.47,1.35,2.93-1.33.38-5.51.76-7.62,1.43-.15,3.62.48,4.66-.7,1.34-1.5-.34-7.66-.76-9.15-.82-2.93-2.01-5.84-2.47-8.86-.31-2.06.39-4.56-.76-6.25,2.86-.74,4.89,3.79,5.49-1.52.14-1.27-.39-2.98-.01-4.18.64-2,.94-1.31,2.79-2.09,1.91-.8,1.66.66,2.64-1.9.49-1.27.14-3.15.14-4.49,0-3.27-.99-6.2-.62-9.47,2.76-.13,4.63.22,4.83-2.85Z"/>
      <path class="cls-16" d="m339.14,369.19c-56.52,3.71-115.81-12.04-162.89-36.49-47.08-24.45-78.91-99.69-78.91-130.27s-5.56-75.04-5.56-89.87,23.16-31.5,11.12-28.73c-12.05,2.77-38.91,1.87-53.73-1.84-6.46-1.62-14.52-.94-21.55.34,4.79,9.12,12.84,15.25,23.03,19.12,0,0,30.18,42.67,21.1,103.93-6.51,12.96-10.69,29.07-10.08,48.93,2.32,76.43,70.68,111.17,143.51,129.24,69.19,17.16,151.65,4.21,194.27-11.42-14.1-3.46-36.8-4.48-60.3-2.94Z"/>
      <path class="cls-6" d="m68.56,17.71c-1.15,0-2.29-.02-3.4-.18-.24-2.11,2.12-4.36,4.21-4.55-1.84.04-3.82-.35-5.35.61.36-2.06,1.48-4.74,2.59-6.42.72-1.09,1.97-2,3.03-2.92-1.73.55-3.47,1.12-5.21,1.77-5.07,1.89-9.52,4.15-13.43,6.66-21.63,13.87-26.74,35.34-27.91,43.16.47-.21.95-.44,1.45-.7,0,0,15.05-26.8,44.01-37.44Z"/>
      <path class="cls-14" d="m250.6,219.11c-40.54-20.41-53.14-29.67-61.26-51.48-.3-.04-.61-.08-.92-.09-.02,1.08-.08,2.22-.17,3.29-2.25.83-3.88-1.42-6.03-1.18-.07.39-.16.77-.24,1.17-2.81.97-8.27-3.2-10.34-4.73-3.36-2.48-7.88-8.02-12.37-7.56-.16,1.27-.02,2.6-.2,3.85-3.77-3.16-7.79-6.24-11.67-9.31-1.71-1.35-7.28-7.78-9.07-4.64-3.47-3.44-6.68-7.42-7.76-12.18-1.21.6-2.38,1.81-3.95,1.28-.26-4.21-.45-8.44-.66-12.69-1.23-2.13-2.31-4.41-3.39-6.05-1.06-1.58-2.09-3.18-3.14-4.78-.51-4.57-.09-10.11.47-13.7.47.26,1.08.46,1.51.76.35-2.33-1.19-4.48-.62-7.08,1.41.78,2.77,1.71,4.35,1.42,1.44-3.97-3.81-7.1-2.5-10.99.71.12,1.83-.42,2.53-.3-.15-2.13-2.03-2.73-2.34-5.09.76-.02,1.93-.68,3.06-.33-2.17-1.98-5.35-3.68-7.97-4.73-3.21-1.29-8.53-.92-11.07-3.05,1.31-3.18,7.18-2.38,5.3-7.1-1.3-.26-2.09-1.01-3.38-1.27-.9-2.56,1.8-3.97,1.57-5.51-.21-1.44-2.21-1.93-2.5-2.98-.86-3,1.58-4.54,1.57-7.12-1.33-.27-2.8-.28-4.18-.12,2.29-1.39,1.8-5.08,2.66-7.34,1.28-3.38,2.77-3.65,5.28-5.62-1.83.1-3.77-.06-4.47-1.91,2.5.27,4.52-2.27,7.04-3.05-2.52.49-6.38-1.29-8.98-1.87-3.36-.76-6.78-1.29-10.21-1.8-3.81-.57-7.63-2.52-11.81-2.86-4.32-.34-8.8.46-13.06-.14-.1-2,1.78-2.96,3.28-4.33-2.06-.32-4.23-.19-6.37-.18-28.96,10.64-44.01,37.44-44.01,37.44-.5.26-.98.48-1.45.7-.29,1.89-.34,2.99-.34,2.99-.23,9.45,1.54,17.18,4.86,23.5,7.03-1.28,15.08-1.95,21.55-.34,14.82,3.71,41.69,4.61,53.73,1.84,12.05-2.77-11.12,13.91-11.12,28.73s5.56,59.29,5.56,89.87,31.83,105.82,78.91,130.27c47.09,24.45,106.38,40.2,162.89,36.49,23.5-1.54,46.2-.51,60.3,2.94,2.23-.82,4.4-1.65,6.4-2.48,24.61-10.19,42.99-18.31,47.24-30.05-41.55-14.99-152.1-95.15-202.48-120.5Z"/>
      <path class="cls-7" d="m18.8,84.56c-12.79,1.57-15.57,10.9-16.14,15.81.97-3.68,5.5-9.34,24.42-8.85,42.73,1.12,46.58-6.59,46.92-8.02-12.42,1.66-39.91-.81-55.2,1.07Z"/>
      <path class="cls-8" d="m50.41,68.39c-4.09-8.19-10.34-22.2-23.74-19.04,0,0-9.93,5.59-17.68,15.71h.01c3.14.26,7.85,2.31,9.49,8.24,1.63,5.93,5.81,9.65,11.81,10.56h0c15.1-.3,34,.92,43.69-.37.04-.14.04-.23.04-.23,0,0-19.52-6.69-23.62-14.88Z"/>
      <path class="cls-12" d="m7.64,75.56c-4.88,4.87-.47-3.82,4.08-9.87-.96-.36-1.9-.55-2.72-.62h-.01c-7.08,9.26-12.33,22.3-6.46,38.33,0,0-.33-1.29.13-3.02.57-4.91,3.35-14.24,16.14-15.81,3.35-.41,7.28-.61,11.5-.7h0c-6-.9-10.18-4.62-11.81-10.56-.68-2.44-1.87-4.22-3.26-5.49-2.83,2.72-5.43,5.58-7.59,7.74Z"/>
      <path class="cls-9" d="m27.5,52.02s-9.62,6.14-14.54,12.07c-.4.49-.83,1.03-1.24,1.59,1.18.43,2.4,1.12,3.51,2.13,4.14-4,8.78-7.7,13.29-8.43,7.58-1.23,7.78-10.4-1.02-7.37Z"/>
      <path class="cls-15" d="m7.64,75.56c2.16-2.16,4.76-5.02,7.59-7.74-1.1-1.01-2.33-1.7-3.51-2.13-4.55,6.05-8.96,14.75-4.08,9.87Z"/>
      <path class="cls-4" d="m54.74,63.42s1.82-13.92,14.82-18.4c13-4.48,25.3-.54,28.99.07,3.69.61-1.38,4.51-3.22,8-1.84,3.49-16.34,14.67-24.91,12.94-8.56-1.74-1.39-3.06-.31-5.74,1.08-2.67-4.98-4.3-7.54-1.25-2.55,3.04-8.55,7.41-7.83,4.38Z"/>
      <path class="cls-13" d="m63.36,52.41s.1,7.95,5.74,9.17c5.64,1.22,9.86,1.51,14.66-1.67,4.8-3.18,7.89-10.42,4.95-11.7-2.95-1.28-17.03-5.32-25.35,4.21Z"/>
      <path class="cls-3" d="m66.57,53.59c-.54,3.24,1.65,6.31,4.89,6.84,3.23.54,6.3-1.65,6.84-4.89.54-3.24-1.65-6.3-4.89-6.84-3.24-.54-6.3,1.65-6.84,4.89Z"/>
      <path class="cls-10" d="m76.79,50.52c.19-1.19-.61-2.32-1.81-2.52-1.2-.19-2.32.61-2.52,1.81-.2,1.19.61,2.32,1.8,2.52,1.19.2,2.32-.61,2.53-1.8Z"/>
      <path class="cls-11" d="m185.79,156.43c-.68-2.45-1.35-5.04-2.03-7.79.68,2.75,1.36,5.34,2.03,7.79Z"/>
      <path class="cls-11" d="m183.75,148.61c-1.41-5.66-2.86-12-4.53-19.18,1.67,7.18,3.12,13.52,4.53,19.18Z"/>
      <path class="cls-11" d="m178.68,127.13c-.07-.33-.15-.65-.23-.98.08.33.16.65.23.98Z"/>
      <path class="cls-11" d="m187.86,163.36c-.71-2.17-1.39-4.47-2.07-6.91.68,2.44,1.36,4.73,2.07,6.91Z"/>
      <path class="cls-11" d="m189.34,167.62c-.5-1.34-.99-2.75-1.46-4.19.47,1.44.96,2.85,1.46,4.19Z"/>
      <path class="cls-1" d="m187.88,163.43s-.02-.05-.02-.07c0,.03.01.05.02.07Z"/>
      <path class="cls-1" d="m185.79,156.45s0-.02,0-.02c0,0,0,.02,0,.02Z"/>
      <path class="cls-1" d="m178.45,126.15c-.26-1.11-.52-2.24-.79-3.39.27,1.15.54,2.28.79,3.39Z"/>
      <path class="cls-1" d="m183.76,148.63s0-.01,0-.02c0,.01,0,.02,0,.02Z"/>
      <path class="cls-1" d="m179.22,129.43c-.17-.76-.36-1.53-.54-2.3.18.77.36,1.54.54,2.3Z"/>
      <path class="cls-5" d="m216.29,167.23s-16.12-26.87-27.24-65.78c-2.74-9.58-5.59-17.95-8.33-25.12-2.19-5.74-4.32-10.72-6.27-14.94-5.49-11.95-9.54-17.85-9.54-17.85-.65-1.38-1.39-2.77-2.27-4.16C141.38,5.72,107.42-7.6,69.65,4.25c-1.06.92-2.31,1.83-3.03,2.92-1.12,1.69-2.23,4.37-2.59,6.42,1.53-.96,3.5-.57,5.35-.61-2.09.19-4.45,2.44-4.21,4.55,1.11.16,2.25.18,3.4.18,7.63-2.8,16.21-4.5,25.75-4.27,41.14.99,64.21,39.89,78.76,91.49,1.63,5.8,3.16,11.75,4.59,17.84.27,1.15.54,2.28.79,3.39.08.33.16.65.23.98.18.77.36,1.54.54,2.3,1.67,7.18,3.12,13.53,4.53,19.18,0,.01,0,.02,0,.02.68,2.75,1.36,5.34,2.03,7.79,0,0,0,.02,0,.02.68,2.44,1.36,4.73,2.07,6.91,0,.03.01.05.02.07.47,1.44.96,2.85,1.46,4.19h0c5.67.77,11.73,5.93,16.87,8.06,4.45,1.84,13.21,5.51,18.18,4.16.49-6.23,19.36,2.4,22.93,2.14.09-.72.12-1.3.15-1.8-10.53-4.86-20.97-9.23-31.2-12.96Z"/>
      <path class="cls-1" d="m177.66,122.76c-1.43-6.09-2.96-12.03-4.59-17.84-14.54-51.6-37.62-90.5-78.76-91.49-9.54-.23-18.12,1.47-25.75,4.27,2.14,0,4.31-.14,6.37.18-1.5,1.37-3.38,2.33-3.28,4.33,4.26.6,8.74-.2,13.06.14,4.18.34,8,2.29,11.81,2.86,3.43.51,6.86,1.04,10.21,1.8,2.6.59,6.46,2.36,8.98,1.87-2.52.78-4.54,3.32-7.04,3.05.7,1.85,2.64,2.01,4.47,1.91-2.52,1.97-4.01,2.24-5.28,5.62-.86,2.26-.36,5.95-2.66,7.34,1.38-.16,2.85-.15,4.18.12.01,2.58-2.43,4.12-1.57,7.12.3,1.05,2.3,1.54,2.5,2.98.22,1.54-2.47,2.95-1.57,5.51,1.29.26,2.08,1.01,3.38,1.27,1.87,4.73-3.99,3.93-5.3,7.1,2.54,2.13,7.86,1.76,11.07,3.05,2.62,1.06,5.79,2.75,7.97,4.73-1.13-.35-2.29.31-3.06.33.31,2.36,2.19,2.96,2.34,5.09-.69-.12-1.82.42-2.53.3-1.31,3.89,3.94,7.02,2.5,10.99-1.59.29-2.94-.64-4.35-1.42-.56,2.6.97,4.75.62,7.08-.43-.29-1.03-.5-1.51-.76-.56,3.59-.98,9.13-.47,13.7,1.05,1.59,2.08,3.2,3.14,4.78,1.09,1.63,2.16,3.92,3.39,6.05.21,4.24.4,8.48.66,12.68,1.57.53,2.74-.68,3.95-1.28,1.08,4.75,4.3,8.74,7.76,12.18,1.79-3.14,7.36,3.28,9.07,4.64,3.88,3.07,7.9,6.15,11.67,9.31.18-1.25.04-2.58.2-3.85,4.49-.46,9.01,5.09,12.37,7.56,2.08,1.53,7.54,5.7,10.34,4.73.08-.39.17-.78.24-1.17,2.15-.24,3.78,2.01,6.03,1.18.08-1.08.15-2.21.17-3.29.31.01.62.05.92.09-4.04-10.87-6.97-24.85-11.68-44.87Zm-50.72,3.67s.03.05.05.07c-.02-.02-.03-.05-.05-.07Zm1.58,2.03c.06.07.13.14.19.2-.07-.07-.13-.14-.19-.2Zm-1.08-1.32s.07.09.1.14c-.04-.04-.07-.09-.1-.14Zm.52.68c.05.06.1.12.15.18-.05-.06-.1-.12-.15-.18Zm2.02,1.93c-.07-.04-.14-.1-.2-.15.06.05.13.11.2.15Zm-.65-.5c-.07-.06-.14-.13-.22-.2.07.07.15.14.22.2Z"/>
      <path class="cls-16" d="m423.36,312.86s92.83,1.39,104.09,18.06c11.25,16.68-20.7,22.24-20.7,22.24,0,0,52.81,3.78,52.81,22.04s-25.94,8.07-25.94,8.07c0,0,56.51,20.38,34.28,31.5,0,0,25.93,14.82,13.89,20.38-12.04,5.56-81.53-14.82-81.53-14.82,0,0,.92,15.75-15.75,12.04-16.68-3.7-61.14-21.31-61.14-21.31,0,0-17.55,14.37-26.84-11.81-9.29-26.18-40.8-71.58,26.84-86.4Z"/>
      <path class="cls-14" d="m553.04,373.83c13.06-13.9-58.77-30.57-58.77-30.57,0,0,12.7-5.8,8.46-13.44-21.48,4.06-72-16.73-96.42-46.78-27.86-34.28-135.83-124.14-196.34-134.43-60.49-10.27-120.62,40.01-120.65,40.04-3.62,7.18-6.29,15.16-7.5,23.97-7.68,55.59,25,153.48,165.36,178.52,144.64,25.8,153.07,7.7,184.41,4.92,0,0,31.35,19.46,54.86,19.46s-11.76-23.62-11.76-23.62c0,0,43.1,20.85,62.69,23.62,19.6,2.78-3.92-19.46-32.65-40.3,0,0,35.27,12.51,48.32-1.39Z"/>
      <path class="cls-6" d="m209.97,148.61c60.51,10.28,168.47,100.15,196.34,134.43,24.43,30.05,74.94,50.84,96.42,46.78-2-3.59-7.71-7.58-20.22-11.57-39.18-12.51-19.88-17.77-90.41-80.3-70.53-62.54-155.67-132.01-237.47-103.14,0,0-46.11,15.74-65.32,53.85.04-.03,60.17-50.31,120.65-40.04Z"/>
      <path class="cls-16" d="m406.31,384.95c-.06-.34-5.06.3-14.14.91-9.07.62-22.22,1.22-38.46.9-16.24-.31-35.56-1.55-56.85-4.38-21.26-2.82-44.53-7.23-68.44-13.54-11.85-3.23-23.09-7.53-33.43-12.72-10.34-5.18-19.78-11.24-28.15-17.8-16.78-13.11-29.21-28.08-38.06-41.55-8.88-13.51-14.35-25.51-17.76-33.9-3.4-8.42-4.76-13.27-5.1-13.19-.33.06.41,5.13,3.29,13.85,2.89,8.7,7.94,21.11,16.61,35.12,8.64,13.97,21.08,29.57,38.19,43.25,8.52,6.83,18.18,13.16,28.79,18.55,10.61,5.4,22.16,9.85,34.32,13.17,24.22,6.39,47.66,10.68,69.18,13.29,21.51,2.6,41.03,3.49,57.41,3.35,16.38-.13,29.61-1.27,38.68-2.49,9.08-1.22,14-2.5,13.94-2.83Z"/>
      <path class="cls-16" d="m478.36,409.26c.37-1.06-20.09-7.06-42.86-19.48-1.41-.79-2.81-1.56-4.19-2.33-1.34-.83-2.66-1.64-3.95-2.45-2.64-1.54-4.99-3.29-7.32-4.85-4.51-3.3-8.46-6.43-11.48-9.38-6.21-5.77-8.88-10.32-9.23-10.15-.43.16,1.7,5.33,7.69,11.66,2.91,3.24,6.83,6.62,11.35,10.13,2.33,1.66,4.71,3.5,7.38,5.11,1.31.83,2.65,1.68,4.01,2.54,1.4.78,2.82,1.58,4.26,2.38,11.55,6.37,22.71,10.62,30.85,13.37,8.2,2.58,13.36,3.83,13.49,3.44Z"/>
      <path class="cls-16" d="m539.09,411c0-.21-1.12-.54-3.1-.93-1-.14-2.19-.58-3.59-.94-.69-.2-1.44-.38-2.23-.61-.78-.26-1.6-.53-2.47-.82-6.95-2.24-16.37-5.98-26.66-10.42-20.56-8.97-36.97-16.93-37.37-16.16-.38.72,15.44,9.92,36.15,18.96,10.37,4.48,20.04,7.94,27.3,9.7.9.22,1.76.43,2.58.62.83.17,1.62.27,2.35.4,1.48.2,2.71.48,3.79.44,2.12.05,3.26-.03,3.27-.24Z"/>
      <path class="cls-16" d="m505.79,396.06c.09-.27-2.83-1.62-7.6-3.58-2.36-1.05-5.16-2.3-8.28-3.69-3.1-1.43-6.51-3.01-10.09-4.66-7.11-3.41-13.55-6.48-18.22-8.71-4.68-2.21-7.6-3.53-7.74-3.28-.14.24,2.55,2.01,7.07,4.56,4.51,2.57,10.87,5.87,18.02,9.28,3.6,1.65,7.04,3.21,10.2,4.53,3.2,1.28,6.06,2.44,8.51,3.31,4.95,1.64,8.03,2.51,8.12,2.24Z"/>
      <path class="cls-16" d="m549.86,372.13c-.08-.19-.85-.14-2.14.11-.66.1-1.41.36-2.34.46-.93.12-1.97.26-3.12.44-4.62.51-11.09.56-18.2-.37-14.24-1.76-25.5-5.34-25.78-4.51-.15.39,2.52,1.78,7.07,3.35,4.54,1.57,11.01,3.28,18.35,4.18,7.33.96,14.16.58,18.92-.53,1.19-.33,2.25-.63,3.18-.91.92-.27,1.67-.71,2.29-.99,1.23-.61,1.85-1.03,1.76-1.23Z"/>
      <path class="cls-16" d="m539.09,368.27c-.04-.14-.72-.15-1.92-.08-.6.05-1.32.11-2.17.19-.85.02-1.81.05-2.88.07-4.25.07-10.13-.38-16.52-1.63-12.8-2.57-22.66-6.72-22.88-6.19-.26.49,9.39,5.55,22.49,8.19,6.53,1.29,12.64,1.52,17,1.08,1.09-.14,2.07-.27,2.93-.38.86-.17,1.59-.38,2.17-.54,1.18-.32,1.81-.56,1.78-.71Z"/>
      <path class="cls-16" d="m398.5,377.04c0-.2-3.46-.35-9.69-.44-3.11-.02-6.92-.05-11.34-.09-4.42-.05-9.46.12-15.01-.26-5.55-.26-11.64-.53-18.16-.83-1.63-.08-3.29-.15-4.98-.23-1.67-.16-3.38-.32-5.11-.49-3.47-.33-7.04-.66-10.69-1.01-3.65-.38-7.41-.61-11.22-1.12-3.8-.55-7.68-1.12-11.64-1.7-1.98-.29-3.97-.58-5.98-.86-2.01-.33-4.05-.5-6.06-.96-4.04-.81-8.15-1.62-12.3-2.45-2.08-.41-4.14-.82-6.2-1.23-2.06-.39-4.04-1-6.04-1.48-4-1.02-7.93-2.02-11.8-3.01-1.95-.45-3.83-1.05-5.7-1.65-1.87-.58-3.71-1.16-5.55-1.74-1.83-.57-3.64-1.13-5.44-1.7-.89-.28-1.79-.55-2.67-.83-.87-.33-1.73-.65-2.59-.97-3.43-1.28-6.78-2.53-10.04-3.74-.81-.31-1.62-.61-2.42-.91-.78-.34-1.56-.68-2.33-1.02-1.54-.67-3.07-1.33-4.56-1.98-6.04-2.46-11.4-5.34-16.38-7.77-9.76-5.26-17.35-10.07-22.39-13.69-5.02-3.65-7.61-5.9-7.75-5.77-.15.15,2.2,2.73,7.05,6.69,4.87,3.95,12.36,9.08,22.09,14.62,4.97,2.58,10.32,5.59,16.38,8.17,1.5.68,3.02,1.37,4.57,2.07.77.35,1.55.7,2.34,1.06.8.31,1.61.62,2.43.95,3.28,1.26,6.64,2.56,10.09,3.89.86.33,1.73.66,2.6,1,.89.28,1.79.57,2.69.86,1.8.58,3.63,1.16,5.47,1.76,1.84.59,3.71,1.19,5.59,1.8,1.88.61,3.78,1.22,5.73,1.69,3.9,1.01,7.86,2.04,11.89,3.08,2.02.49,4.02,1.11,6.09,1.5,2.07.41,4.15.82,6.24,1.24,4.18.83,8.32,1.65,12.4,2.45,2.03.46,4.09.64,6.11.95,2.03.28,4.03.56,6.02.85,3.98.55,7.89,1.1,11.72,1.64,3.84.48,7.62.69,11.3,1.02,3.69.3,7.27.6,10.76.89,1.74.14,3.46.28,5.15.42,1.7.05,3.37.1,5.01.16,6.56.17,12.67.33,18.25.47,5.58.25,10.62-.06,15.05-.17,4.43-.17,8.24-.3,11.36-.42,6.23-.27,9.67-.52,9.66-.72Z"/>
      <path class="cls-16" d="m250.88,348.33c-.04.05.36.38,1.14.95.8.55,1.94,1.44,3.58,2.3,3.17,1.91,8.07,4.14,14.3,6.31,12.48,4.38,30.41,8.11,50.37,10.45,19.96,2.39,38.14,3.22,51.29,3.54,6.57.14,11.9.14,15.58.07,3.68-.08,5.71-.22,5.71-.35,0-.14-2.03-.26-5.7-.43-3.67-.16-8.97-.4-15.54-.7-13.11-.67-31.23-1.72-51.11-4.1-19.87-2.33-37.7-5.82-50.16-9.81-6.23-1.98-11.14-3.99-14.38-5.67-1.67-.75-2.86-1.53-3.73-1.96-.85-.45-1.32-.67-1.36-.61Z"/>
      <path class="cls-16" d="m213.26,244.86c-.18.19,1.66,1.81,4.28,5,.65.8,1.31,1.72,1.89,2.76.55,1.02,1.07,2.3.75,3.32-.26,1-1.52,1.68-2.97,1.98-.73.16-1.51.25-2.32.29-.41.02-.81.03-1.23.02h-.5c-.21-.02-.42-.02-.62-.04l-1.29-.1c.12.74.26,1.5.3,2.23.03.36.02.72.02,1.09-.04.73-.08,1.48-.25,2.21-.29,1.46-.86,2.89-1.81,4.08-.93,1.19-2.24,2.1-3.75,2.69-1.5.58-3.15.89-4.85.78-2.47-.13-4.88-.92-7.1-1.92-1.11-.52-2.18-1.08-3.19-1.71-1.12-.72-1.58-.94-3.72-2.68-.48.73-.96,1.46-1.43,2.18-.3.38-.59.77-.9,1.13-.64.69-1.3,1.35-2.04,1.84-1.45,1.04-3.11,1.51-4.73,1.56-3.27.06-6.11-1.31-8.27-2.52-4.33-2.58-6.44-4.82-6.63-4.62-.14.11,1.66,2.67,5.99,5.65,1.1.73,2.36,1.46,3.84,2.06,1.48.59,3.18,1.09,5.09,1.09,1.9.03,3.97-.5,5.73-1.69.9-.56,1.69-1.31,2.44-2.09.36-.4.69-.84,1.04-1.26l.27-.4.04-.04c-.28-.18,1.23.93,2.19,1.52,1.06.68,2.2,1.3,3.38,1.86,2.38,1.09,5.01,2,7.87,2.15,1.96.13,3.95-.23,5.74-.95,1.78-.7,3.42-1.85,4.58-3.36,1.16-1.51,1.82-3.26,2.13-4.98.18-.85.21-1.7.24-2.54,0-.42-.01-.84-.05-1.24l-.03-.13h.07s.03,0,.03,0h.16c.45-.01.9-.04,1.34-.07.89-.07,1.76-.2,2.6-.41.85-.22,1.68-.52,2.44-1.03.75-.49,1.41-1.3,1.62-2.21.22-.91.08-1.78-.16-2.48-.23-.73-.57-1.34-.92-1.91-.71-1.12-1.47-2.04-2.21-2.81-2.95-3.08-5.03-4.39-5.12-4.28Z"/>
      <path class="cls-16" d="m217.94,288.42c-.29.14,1.05,2.9,2.22,7.56.27,1.16.5,2.44.55,3.78.04,1.32-.14,2.79-.94,3.72-.39.46-.93.78-1.59.99-.67.17-1.43.25-2.23.2-1.61-.06-3.32-.55-5.04-1.07-3.43-1.1-6.45-2.83-8.88-4.78-2.44-1.96-4.33-4.11-5.75-6.03-2.84-3.88-3.92-6.73-4.21-6.63-.26.06.34,3.18,2.98,7.46,1.32,2.12,3.19,4.51,5.74,6.69,2.54,2.18,5.78,4.11,9.47,5.29,1.85.56,3.68,1.08,5.61,1.13.96.05,1.94-.06,2.9-.34.96-.31,1.87-.89,2.5-1.7.64-.79.94-1.73,1.08-2.58.16-.86.15-1.68.08-2.44-.13-1.53-.48-2.89-.86-4.09-1.61-4.77-3.43-7.28-3.65-7.16Z"/>
      <path class="cls-16" d="m235.02,274.75c-.28.13.71,2.42,1.56,6.22.38,1.88.77,4.25.16,6.48-.33,1.09-.97,2.03-2,2.6-1,.6-2.35.8-3.77.82-5.89.13-11.01-1.9-14.38-3.79-3.41-1.91-5.24-3.57-5.45-3.36-.21.18,1.29,2.29,4.66,4.62,1.69,1.15,3.85,2.35,6.44,3.24,2.57.89,5.59,1.45,8.76,1.39,1.6-.02,3.31-.24,4.78-1.15,1.51-.85,2.47-2.42,2.82-3.86.66-2.95-.02-5.42-.59-7.37-1.28-3.9-2.77-5.97-3-5.84Z"/>
      <path class="cls-16" d="m258.32,298.38c-.12.1.19.65.74,1.65.52.99,1.33,2.42,1.92,4.26.58,1.8.81,4.24-1.02,5.57-1.77,1.4-4.82,1.69-7.76,1.75-6,0-11.31-1.95-14.95-3.56-3.66-1.65-5.79-3-5.96-2.76-.17.22,1.68,2.04,5.3,4.08,3.59,2,9.1,4.33,15.63,4.33.41,0,.81,0,1.2,0,.4-.04.8-.08,1.19-.12.78-.07,1.55-.15,2.32-.33,1.52-.33,3.04-.86,4.26-1.9,1.26-1,1.92-2.64,1.92-4.01.03-1.39-.34-2.57-.74-3.57-.85-1.98-1.9-3.33-2.65-4.22-.76-.88-1.29-1.27-1.4-1.18Z"/>
      <path class="cls-16" d="m260.02,282.56c-.13.28,2.02,1.46,5.21,3.7,1.55,1.13,3.49,2.53,4.89,4.44.7.94,1.12,2.04.82,2.93-.22.94-1.39,1.74-2.53,2.43-2.45,1.27-5.25,1.71-7.77,1.9-2.54.18-4.86.09-6.81-.02-3.91-.23-6.33-.59-6.4-.3-.07.27,2.27,1.15,6.24,1.77,1.99.31,4.37.55,7.07.48,2.67-.1,5.72-.46,8.67-1.99.37-.17.7-.45,1.04-.67.34-.24.68-.44.99-.76.64-.57,1.21-1.33,1.47-2.25.28-.92.17-1.89-.1-2.67-.27-.8-.7-1.44-1.14-2.01-1.82-2.24-3.91-3.49-5.64-4.53-3.51-1.99-5.9-2.7-6.01-2.45Z"/>
      <path class="cls-16" d="m254.85,315.13c-.29.13.53,1.9.5,4.79-.04,1.42-.38,3.08-1.34,4.62-.98,1.5-2.59,2.95-4.47,3.78-1.91.83-4.01.91-5.89.67-1.88-.24-3.58-.77-4.98-1.27-2.8-1.04-4.45-1.96-4.62-1.71-.16.22,1.23,1.62,4.03,3.07,1.4.71,3.16,1.44,5.28,1.82,2.08.39,4.62.39,7.01-.65,2.38-1.07,4.16-2.79,5.3-4.72,1.1-1.97,1.33-4.05,1.17-5.67-.17-1.63-.66-2.86-1.08-3.64-.43-.79-.79-1.15-.91-1.08Z"/>
      <path class="cls-16" d="m269.55,309.69c-.17.26,1.62,1.54,4.11,3.94,1.2,1.2,2.66,2.73,3.5,4.62.4.94.55,1.94.22,2.82-.35.88-1.1,1.71-2.17,2.34-2.03,1.36-4.45,1.89-6.66,2.02-2.23.14-4.27-.05-5.99-.29-3.43-.49-5.52-1.11-5.64-.83-.1.25,1.85,1.39,5.36,2.28,1.75.43,3.9.8,6.35.76,2.42-.03,5.25-.54,7.73-2.2,1.23-.73,2.43-1.9,2.96-3.41.53-1.55.17-3.14-.4-4.3-1.2-2.35-2.88-3.79-4.28-4.94-2.87-2.22-4.96-3.06-5.09-2.82Z"/>
      <path class="cls-16" d="m289.73,297.47c-.11.28,1.84,1.28,4.91,2.97,1.53.85,3.35,1.87,5.19,3.17.92.65,1.84,1.39,2.57,2.22.35.41.62.87.69,1.22.06.34.01.54-.3.88-.76.73-1.87,1.27-2.96,1.68-1.14.36-2.27.66-3.39.85-2.23.4-4.31.58-6.05.71-3.49.25-5.68.3-5.7.59-.02.28,2.15.76,5.73.89,1.8.06,3.93.03,6.32-.29,2.35-.38,5.11-.78,7.57-2.98.31-.33.6-.75.77-1.25.15-.5.17-1.06.06-1.52-.23-.94-.71-1.58-1.18-2.13-.98-1.06-2.02-1.81-3.04-2.48-2.04-1.3-3.99-2.19-5.63-2.89-3.3-1.38-5.46-1.9-5.56-1.64Z"/>
      <path class="cls-16" d="m292.44,312.91c-.07.3,1.7.92,4.38,2.17,1.32.64,2.91,1.44,4.27,2.62.66.6,1.25,1.31,1.43,2.05.19.72,0,1.51-.57,2.32-1.18,1.68-2.85,2.94-4.54,3.67-1.7.76-3.39,1.12-4.84,1.31-2.9.36-4.78.17-4.83.48-.07.26,1.77,1,4.92,1.01,1.57-.01,3.48-.23,5.49-1.01,2.01-.76,4.05-2.16,5.53-4.28.38-.54.68-1.19.86-1.89.18-.7.15-1.47-.04-2.15-.41-1.39-1.32-2.29-2.16-2.98-1.75-1.36-3.5-2.02-4.97-2.53-2.96-.95-4.88-1.06-4.94-.79Z"/>
      <path class="cls-16" d="m231.04,231.81c-.12.28,1.71,1.22,4.35,3.09,1.3.94,2.84,2.13,4.04,3.72.6.79,1.04,1.7,1.16,2.62.1.92-.14,1.88-.79,2.77-.54.94-1.43,1.62-2.28,2.26-.93.56-1.89,1.04-2.87,1.37-1.95.7-3.85,1.05-5.45,1.29-3.22.46-5.27.5-5.29.8-.03.27,2.03.77,5.41.67,1.69-.06,3.72-.27,5.93-.93,1.11-.32,2.24-.82,3.37-1.47,1.06-.74,2.19-1.59,2.95-2.85.84-1.14,1.29-2.73,1.07-4.17-.21-1.44-.91-2.63-1.66-3.55-1.55-1.84-3.3-2.95-4.78-3.79-2.99-1.63-5.05-2.09-5.15-1.83Z"/>
      <path class="cls-16" d="m243.23,252.4c-.03.14.61.43,1.76.96,1.14.53,2.83,1.27,4.64,2.48.89.61,1.83,1.37,2.53,2.31.7.95,1.09,2.08.81,3.27-.26,1.2-1.09,2.41-2.15,3.51-1.03,1.09-2.33,1.99-3.81,2.63-2.97,1.3-6.22,1.55-9.13,1.46-2.93-.1-5.58-.51-7.77-.96-4.42-.9-7.09-1.8-7.2-1.52-.11.25,2.4,1.66,6.85,2.96,2.22.64,4.94,1.24,8.03,1.45,3.08.19,6.63.02,10.07-1.48,1.71-.74,3.26-1.83,4.45-3.14,1.17-1.28,2.22-2.77,2.55-4.55.37-1.8-.37-3.6-1.34-4.72-.97-1.15-2.09-1.9-3.12-2.49-2.08-1.15-3.9-1.69-5.16-2-1.26-.3-2-.32-2.03-.18Z"/>
      <path class="cls-16" d="m266.37,251.73c-.15.27,1.82,1.56,4.64,3.98,1.38,1.22,3.03,2.74,4.24,4.7.58.97,1.01,2.07.92,3.11,0,1.05-.75,2-1.66,2.83-1.96,1.59-4.61,2.36-6.97,2.84-2.38.49-4.6.71-6.46.87-3.74.31-6.08.35-6.1.65-.03.28,2.31.77,6.15.84,1.92.03,4.22-.04,6.77-.45,2.52-.43,5.42-1.09,7.99-3.15.33-.23.6-.55.87-.87.26-.33.56-.6.75-1,.44-.72.7-1.58.73-2.43.08-1.71-.61-3.14-1.35-4.27-1.53-2.26-3.39-3.69-4.96-4.83-3.18-2.21-5.42-3.05-5.56-2.81Z"/>
      <path class="cls-16" d="m217.28,205.82c-.15.27,1.79,1.48,4.51,3.83,1.31,1.18,2.92,2.68,3.9,4.62.48.96.71,2.01.47,3-.26.99-.93,1.94-1.93,2.75-4.07,3.42-9.13,4.33-12.65,4.56-3.58.23-5.83-.1-5.89.2-.07.27,2.14,1.13,5.91,1.29,1.89.07,4.16-.07,6.63-.7,2.45-.63,5.08-1.82,7.36-3.74,1.18-.94,2.22-2.29,2.58-3.9.35-1.62-.1-3.18-.76-4.35-1.35-2.36-3.18-3.78-4.69-4.89-3.1-2.16-5.31-2.9-5.43-2.67Z"/>
      <path class="cls-16" d="m196.94,222.31c-.27.18,1.61,2.82,3.64,7.48.93,2.31,2.05,5.26,1.75,8.35-.15,1.52-.79,2.99-2.02,4.03-1.21,1.05-2.89,1.73-4.71,2.11-3.73.77-7.41.78-10.64.15-3.23-.61-6-1.86-8.16-3.12-4.35-2.58-6.4-5.12-6.63-4.91-.23.13,1.44,3.1,5.83,6.16,2.19,1.5,5.08,2.98,8.57,3.76,3.47.8,7.46.84,11.47,0,2.03-.43,4.06-1.21,5.65-2.63,1.62-1.4,2.46-3.52,2.57-5.38.14-1.89-.2-3.61-.67-5.12-.47-1.52-1.06-2.85-1.66-4.04-2.47-4.69-4.79-7.01-4.98-6.86Z"/>
      <path class="cls-16" d="m306.97,324.84c-.09.3,1.74.98,4.39,2.51,1.29.77,2.85,1.78,3.9,3.25.31.35.44.76.64,1.15.07.42.25.82.17,1.26.05.43-.15.87-.26,1.33-.07.22-.23.42-.33.63-.12.21-.22.43-.4.61-1.28,1.55-3.33,2.42-5.21,2.95-1.91.54-3.73.79-5.26.98-3.08.35-5.02.42-5.05.71-.03.28,1.91.75,5.12.77,1.6,0,3.53-.1,5.66-.58,2.07-.5,4.55-1.34,6.37-3.52.25-.24.41-.56.58-.87.16-.31.36-.6.47-.93.18-.68.42-1.33.37-2.04.07-.71-.17-1.37-.35-2-.3-.57-.56-1.17-.97-1.6-1.5-1.85-3.3-2.75-4.77-3.42-2.99-1.28-5-1.44-5.07-1.19Z"/>
      <path class="cls-16" d="m336.21,322.27c-.07.3,1.79.85,4.48,2.2,1.3.68,2.93,1.59,3.91,3.01,1.11,1.36.73,3.23-.51,4.94-1.28,1.64-3.17,2.66-4.98,3.33-1.83.67-3.6,1.02-5.09,1.26-3.01.47-4.93.52-4.96.82-.02.28,1.91.76,5.09.66,1.59-.07,3.5-.27,5.58-.91,2.04-.64,4.36-1.75,6.03-3.89.73-1.1,1.43-2.27,1.51-3.68.14-.67-.06-1.38-.2-2.02-.25-.61-.51-1.21-.91-1.65-1.52-1.9-3.4-2.64-4.88-3.23-3.04-1.08-5.04-1.1-5.08-.83Z"/>
      <path class="cls-16" d="m329.73,301.51c-.13.27,1.55,1.28,4.13,3.01,1.28.87,2.79,1.93,4.26,3.27.72.66,1.44,1.41,1.99,2.23.53.83.83,1.7.58,2.43-.04.19-.15.37-.25.55l-.44.56c-.12.2-.35.33-.52.49-.18.15-.35.33-.57.43-.8.55-1.77.85-2.69,1.13-1.88.5-3.72.61-5.25.68-3.08.1-5.03-.05-5.08.25-.05.27,1.83.95,5.05,1.24,1.61.12,3.55.17,5.73-.28,1.09-.27,2.25-.57,3.35-1.27.28-.14.54-.36.8-.57.25-.23.55-.4.75-.7l.66-.83c.19-.33.39-.67.49-1.07.24-.77.22-1.62.01-2.33-.2-.71-.53-1.32-.89-1.85-.74-1.05-1.59-1.85-2.43-2.55-1.69-1.38-3.36-2.34-4.77-3.08-2.86-1.45-4.77-1.99-4.89-1.73Z"/>
      <path class="cls-16" d="m367.01,337.47c-.09.29,1.93,1.12,5.03,2.68,1.53.79,3.39,1.76,5.04,3.13.8.67,1.54,1.57,1.58,2.3.02.35-.1.7-.38,1.08-.27.38-.8.74-1.22,1.12-2,1.32-4.44,1.96-6.64,2.38-2.23.4-4.28.59-6.01.71-3.48.24-5.66.26-5.68.55-.03.28,2.13.79,5.7.93,1.79.06,3.92.03,6.3-.29,2.35-.35,5.03-.92,7.53-2.57.58-.51,1.19-.9,1.69-1.59.5-.66.85-1.6.75-2.52-.09-.91-.52-1.63-.96-2.19-.44-.58-.95-1.01-1.44-1.4-2.01-1.52-3.99-2.34-5.66-3-3.36-1.26-5.55-1.59-5.63-1.33Z"/>
      <path class="cls-16" d="m312.32,281.05c-.02.3,2.13.6,5.43,1.49,1.63.46,3.59,1.07,5.47,2.12,1.86,1.04,3.66,2.68,3.74,4.92.03,2.26-.91,4.49-2.53,5.8-1.57,1.38-3.42,2.17-5.02,2.71-3.22,1.04-5.39,1.21-5.38,1.53,0,.27,2.22.63,5.78-.09,1.75-.39,3.89-1.08,5.88-2.67,2.05-1.53,3.46-4.36,3.37-7.41-.07-1.57-.79-3.05-1.74-4.12-.96-1.08-2.09-1.8-3.18-2.36-2.2-1.11-4.31-1.57-6.07-1.87-3.53-.55-5.73-.32-5.74-.04Z"/>
      <path class="cls-16" d="m312.4,257.39c-.07.13.32.51.98,1.18.65.67,1.64,1.66,2.3,3.08.71,1.4.63,3.18-.73,4.7-1.35,1.52-3.4,2.85-5.75,3.61-2.36.78-4.79,1.02-7.01,1.05-2.22.03-4.24-.17-5.93-.39-3.39-.44-5.47-.94-5.57-.67-.1.27,1.86,1.29,5.29,2.13,1.72.42,3.81.78,6.18.87,2.36.08,5.02-.1,7.7-.98,2.68-.89,5-2.42,6.61-4.4.39-.5.71-1.08.97-1.65.22-.61.4-1.21.39-1.83.06-1.22-.33-2.33-.84-3.13-1.01-1.65-2.26-2.5-3.1-3.03-.87-.51-1.42-.66-1.49-.54Z"/>
    </g>
  </g>
</svg>