<?xml version="1.0" encoding="UTF-8"?>
<svg id="Layer_2" data-name="Layer 2" xmlns="http://www.w3.org/2000/svg" viewBox="0 0 72.04 106.18">
  <defs>
    <style>
      .cls-1 {
        fill: #3d3d3f;
      }

      .cls-1, .cls-2, .cls-3, .cls-4, .cls-5, .cls-6, .cls-7, .cls-8, .cls-9, .cls-10, .cls-11, .cls-12, .cls-13, .cls-14 {
        stroke-width: 0px;
      }

      .cls-2 {
        fill: #201f21;
      }

      .cls-3 {
        fill: #5e5e60;
      }

      .cls-4 {
        fill: #4d4b4f;
      }

      .cls-5 {
        fill: #43484c;
      }

      .cls-6 {
        fill: #1b1310;
      }

      .cls-7 {
        fill: #212426;
      }

      .cls-8 {
        fill: #fff;
      }

      .cls-9 {
        fill: #3f3d42;
      }

      .cls-10 {
        fill: #231f20;
      }

      .cls-11 {
        fill: #31363a;
      }

      .cls-12 {
        fill: #2b2a2d;
      }

      .cls-13 {
        fill: #bcbec0;
      }

      .cls-14 {
        fill: #727373;
      }
    </style>
  </defs>
  <g id="_100" data-name="100">
    <g>
      <path class="cls-7" d="m50.08,83.53c-.03-2.34-.12-4.84-.12-7.37,0-10.49-2.81-20.73-2.81-20.73,0,0,1.28-4.88-1.79-9.02-3.07-4.15-10.23-7.8-10.23-7.8-1.62-.59-3.02-.84-4.25-.81-9.13.26-7.94,16.42-6.68,24.38.3,1.93.61,3.37.77,3.99.38,1.44,2.27,3.17,4.44,5.02.07.85.13,1.7.2,2.55.1.56.2,1.11.3,1.67.42.51.67,0,1.18.06.68.09.57.66.61,1.14.07.86.51,2.1.95,2.8.15.37.39.64.73.82.19.1.34.23.44.41.52.78.33,2.06.52,2.91.18.8.43,1.53.92,2.22.44-.31.48-.66.76-1.09.19-.29.39-.68.8-.7,0,.51.26.97.59,1.4.03.5.06,1,.1,1.51-.26.44-.48.91-.67,1.36-.37.91-.18,2.01-.2,2.97-.01.55.17.77.32,1.25.13.42.03.94.03,1.38,0,.61-.09,1.2.08,1.71-.15.55-.28,1.07-.37,1.51-.46,2.12,1.36,3.36,3.28,3.36s7.41.49,8.86-.73c.59-.49.7-1.59.62-2.71,0-.06,0-.12-.01-.18-.04-.52-.12-1.04-.21-1.51,0-.41.03-.82.03-1.21v-1.57c.29-.92.49-1.97.61-3.12.02-.02.05-.04.07-.07-.02-.02-.04-.03-.06-.05.18-1.73.2-3.68.18-5.75Z"/>
      <path class="cls-7" d="m1.23,93.61s-1.45,4.87,0,6.09,6.94.73,8.86.73,3.74-1.24,3.28-3.36-1.62-6.15-3.28-5.78c-1.66.37-8.25-2.28-8.86,2.32Z"/>
      <path class="cls-12" d="m30.27,24.97c-.26.65-.18,1.56-.16,2.26.03,1.03.34,1.86.84,2.75.3.54.64,1.08.73,1.7.07.47.02.87.35,1.22.66.72,1.49,1.46,2.38,1.89.55.27,1.83-.34,2.01.41.15.6,0,1.37,0,1.99,0,.6.08,1.21-.06,1.79-.49-.13-.69-1.07-1.28-.9-.13.45-.1,1.32-.47,1.64-.46-.67-.74-1.35-1.03-2.1-.38-.97-.74-1.32-1.55-1.9-.6-.43-.67-1.07-1.02-1.67-.47-.82-1.14-1.43-1.68-2.19-.37-.53-.69-.81-1.24-1.15-.09-.06-1.61-1.01-1.9-.8-1.63,1.22-2.65,2.62-2.91,3.05-.37.62-.69,1.26-1.05,1.87.3-1.64.65-3.15,1.03-4.46.08-.43.17-.86.28-1.29.19-.75.37-1.42.84-2.05.18-.25.42-.5.61-.76.02-.03.04-.06.06-.08.2-.3.33-.63.23-1.01-.53-.06-1.03.01-1.51-.2.4-.55,1.03-.92,1.4-1.48.19-.29.23-.39.52-.57.63-.38.84-.92,1.31-1.5.39-.48.68-.73.54-1.4,1.11-1.07,1.43-1.59,1.82-2.02.29-.32.67-.39,1.04-.58.4-.2.59-.51,1.05-.67.42-.15.82-.15,1.26-.15.89,0,1.78-.01,2.67,0,.58,0,1.35-.08,1.7.51.04.15.09.29.13.44.1.68.28,1.34.55,1.98.17.52.32,1.02.43,1.53-.51-.01-1.02-.02-1.53-.03-.81-.02-1.27.08-1.99.4-.43.2-.97.15-1.44.19-.57.05-1.14-.03-1.56.4-.44.46-.79,1.05-.89,1.67-.04.27-.05.43-.18.68-.1.19-.27.37-.35.58Z"/>
      <path class="cls-2" d="m41.04,35.36v42.8c-.17.21-.33.43-.48.66-.54.43-1.16-.06-1.67.51-.43.49-.41,1.17-1.19,1.18-.3-.14-.6-.14-.89,0-.1.27-.15.55-.16.85-.07.37-.37,1.65-.84,1.54-.19-.58-.22-.76-.68-1.18-.48-.49-1-.94-1.56-1.35-.48-.27-.98-.51-1.49-.73-.28-.21-.59-.31-.93-.3-.16.11-.31.21-.48.31-.48.17-.62.02-.9-.33-.34-.43-.64-.95-.93-1.42-.2-.36-.43-.69-.71-.98-.11-.34-.19-.69-.25-1.05-.18-.54-.43-1.03-.78-1.48-.02-.05-.04-.1-.06-.15-.82-.77-1.62-1.69-2.39-2.78-1.66-2.38-2.72-6.34-3.28-10.99-.42-.58-.95-1.09-1.3-1.71-.35-.62-.6-1.37-.76-2.05-.32-1.41-.36-2.9-.42-4.34-.05-1.25-.26-2.59-.14-3.83.15-1.56.6-3.08.82-4.64.12-.73.2-1.45.27-2.18-.03-.44-.01-.88.05-1.32.35-.81,1.13-1.24,1.4-2.15.05-.47.17-.91.37-1.33.12-.31.24-.62.35-.94.06-.39.13-.76.2-1.14.36-.62.68-1.26,1.05-1.87.26-.43,1.28-1.83,2.91-3.05.3-.21,1.82.74,1.9.8.55.34.87.62,1.24,1.15.54.76,1.21,1.38,1.68,2.19.35.6.42,1.25,1.02,1.67.81.58,1.17.92,1.55,1.9.29.75.57,1.43,1.03,2.1.37-.32.34-1.19.47-1.64.58-.17.78.77,1.28.9.14-.58.06-1.2.06-1.79,0-.62.15-1.38,0-1.99-.18-.75-1.46-.15-2.01-.41-.89-.43-1.71-1.17-2.38-1.89-.33-.36-.28-.75-.35-1.22-.09-.62-.43-1.16-.73-1.7-.5-.89-.81-1.72-.84-2.75-.02-.69-.1-1.61.16-2.26.08-.21.25-.38.35-.58.13-.25.14-.41.18-.68.1-.63.45-1.22.89-1.67.42-.43.99-.35,1.56-.4.47-.04,1,0,1.44-.19.72-.33,1.18-.42,1.99-.4.51.01,1.02.02,1.53.03.03.14.06.28.09.43,1.65,1.52,2.74,5.47,2.74,13.86Z"/>
      <path class="cls-12" d="m51.82,24.97c.26.65.18,1.56.16,2.26-.03,1.03-.34,1.86-.84,2.75-.3.54-.64,1.08-.73,1.7-.07.47-.02.87-.35,1.22-.66.72-1.49,1.46-2.38,1.89-.55.27-1.83-.34-2.01.41-.15.6,0,1.37,0,1.99,0,.6-.08,1.21.06,1.79.49-.13.69-1.07,1.28-.9.13.45.1,1.32.47,1.64.46-.67.74-1.35,1.03-2.1.38-.97.74-1.32,1.55-1.9.6-.43.67-1.07,1.02-1.67.47-.82,1.14-1.43,1.68-2.19.37-.53.69-.81,1.24-1.15.09-.06,1.61-1.01,1.9-.8,1.63,1.22,2.65,2.62,2.91,3.05.37.62.69,1.26,1.05,1.87-.3-1.64-.65-3.15-1.03-4.46-.08-.43-.17-.86-.28-1.29-.19-.75-.37-1.42-.84-2.05-.18-.25-.42-.5-.61-.76-.02-.03-.04-.06-.06-.08-.2-.3-.33-.63-.23-1.01.53-.06,1.03.01,1.51-.2-.4-.55-1.03-.92-1.4-1.48-.19-.29-.23-.39-.52-.57-.63-.38-.84-.92-1.31-1.5-.39-.48-.68-.73-.54-1.4-1.11-1.07-1.43-1.59-1.82-2.02-.29-.32-.67-.39-1.04-.58-.4-.2-.59-.51-1.05-.67-.42-.15-.82-.15-1.26-.15-.89,0-1.78-.01-2.67,0-.58,0-1.35-.08-1.7.51-.04.15-.09.29-.13.44-.1.68-.28,1.34-.55,1.98-.17.52-.32,1.02-.43,1.53.51-.01,1.02-.02,1.53-.03.81-.02,1.27.08,1.99.4.43.2.97.15,1.44.19.57.05,1.14-.03,1.56.4.44.46.79,1.05.89,1.67.04.27.05.43.18.68.1.19.27.37.35.58Z"/>
      <path class="cls-2" d="m41.04,35.36v42.8c.17.21.33.43.48.66.54.43,1.16-.06,1.67.51.43.49.41,1.17,1.19,1.18.3-.14.6-.14.89,0,.1.27.15.55.16.85.07.37.37,1.65.84,1.54.19-.58.22-.76.68-1.18.48-.49,1-.94,1.56-1.35.48-.27.98-.51,1.49-.73.28-.21.59-.31.93-.3.16.11.31.21.48.31.48.17.62.02.9-.33.34-.43.64-.95.93-1.42.2-.36.43-.69.71-.98.11-.34.19-.69.25-1.05.18-.54.43-1.03.78-1.48.02-.05.04-.1.06-.15.82-.77,1.62-1.69,2.39-2.78,1.66-2.38,2.72-6.34,3.28-10.99.42-.58.95-1.09,1.3-1.71.35-.62.6-1.37.76-2.05.32-1.41.36-2.9.42-4.34.05-1.25.26-2.59.14-3.83-.15-1.56-.6-3.08-.82-4.64-.12-.73-.2-1.45-.27-2.18.03-.44.01-.88-.05-1.32-.35-.81-1.13-1.24-1.4-2.15-.05-.47-.17-.91-.37-1.33-.12-.31-.24-.62-.35-.94-.06-.39-.13-.76-.2-1.14-.36-.62-.68-1.26-1.05-1.87-.26-.43-1.28-1.83-2.91-3.05-.3-.21-1.82.74-1.9.8-.55.34-.87.62-1.24,1.15-.54.76-1.21,1.38-1.68,2.19-.35.6-.42,1.25-1.02,1.67-.81.58-1.17.92-1.55,1.9-.29.75-.57,1.43-1.03,2.1-.37-.32-.34-1.19-.47-1.64-.58-.17-.78.77-1.28.9-.14-.58-.06-1.2-.06-1.79,0-.62-.15-1.38,0-1.99.18-.75,1.46-.15,2.01-.41.89-.43,1.71-1.17,2.38-1.89.33-.36.28-.75.35-1.22.09-.62.43-1.16.73-1.7.5-.89.81-1.72.84-2.75.02-.69.1-1.61-.16-2.26-.08-.21-.25-.38-.35-.58-.13-.25-.14-.41-.18-.68-.1-.63-.45-1.22-.89-1.67-.42-.43-.99-.35-1.56-.4-.47-.04-1,0-1.44-.19-.72-.33-1.18-.42-1.99-.4-.51.01-1.02.02-1.53.03-.03.14-.06.28-.09.43-1.65,1.52-2.74,5.47-2.74,13.86Z"/>
      <path class="cls-3" d="m25.89,62.17c-.3-1.04-.6-2.07-.92-3.1-.45-1.93-1.01-3.83-1.67-5.7-.75-2.05-1.59-4.01-3.08-5.67-.51-.67-1.15-1.19-1.93-1.57-.85-.35-1.73-.49-2.65-.41-1.01,0-2.33-.18-3.27.19-.25,3-.25,6.07-.16,9.08.02.75.5,1.32.55,2.05.03.45-.02.91-.02,1.36,0,.72-.2,1.6.24,2.2.5.69.67,1.32.63,2.16-.03.59-.48.99-.55,1.57-.07.51.03,1.09.03,1.61,0,.53,0,1.05.01,1.58.09.4.06.77-.09,1.13-.28.3-.89.07-1.11.45-.19.34,0,1.41,0,1.75.01.78.18,1.64-.53,2.19-.67.5-1.29.35-1.5,1.25-.21.95-.32,1.9-.41,2.87-.1,1.16-.03,2.34-.21,3.49-.59-.06-.84-.52-1.2-.95-.84.43-.57,1.63-1.45,2.1-.17.2-.39.26-.65.18-.11-.19-.26-.32-.47-.39-.3.27-.83.59-1.03.95-.19.34-.01.78-.13,1.14-.66-.65-.95-1.49-1.42-2.25-.89-.2-1.1,2.57-1.77,3.02-.35-.33-.72-.63-1.11-.91.03-2.34.12-4.84.12-7.37,0,0,.51,3.51,4.09-4.42,3.58-7.94,4.24-16.39,2.8-17.04-1.44-.65-3.34-1.72,0-1.83,3.33-.12,1.16-7.11,6.42-9.55,1.82-.84,4.13-3.1,5.76-5.52,9.13.26,7.94,16.42,6.68,24.38Z"/>
      <path class="cls-1" d="m25.89,62.17c-.3,1.93-.61,3.37-.77,3.99-.38,1.44-2.27,3.17-4.44,5.02-.07.85-.13,1.7-.2,2.55-.1.56-.2,1.11-.3,1.67-.42.51-.67,0-1.18.06-.68.09-.57.66-.61,1.14-.07.86-.51,2.1-.95,2.8-.15.37-.39.64-.73.82-.19.1-.33.23-.44.41-.52.78-.33,2.06-.52,2.91-.18.8-.43,1.53-.92,2.22-.44-.31-.48-.66-.76-1.09-.19-.29-.39-.68-.8-.7,0,.51-.26.97-.59,1.4-.03.5-.06,1-.1,1.51.26.44.48.91.67,1.36.37.91.18,2.01.2,2.97.01.55-.17.77-.32,1.25-.13.42-.03.94-.03,1.38,0,.97.22,1.86-.72,2.54-.52.37-.91.14-1.5.37-.16.09-.32.18-.48.27-.26.13-.53.16-.82.1-.37.05-.48.36-.81.48-.44.16-1.04-.06-1.47-.12-.61-.08-.94,0-1.5.1-.47.09-.77-.07-1.24-.11-.6-.05-.4.22-.9.3-.56.09-.85-.54-1.34-.65-.45-.1-1.05.35-1.46.16-.43-.19-.13-.7-.07-1.02.13-.7.04-1.49.04-2.2v-1.57c-.29-.92-.49-1.97-.61-3.12-.02-.02-.05-.04-.07-.07.02-.02.04-.03.06-.05-.18-1.73-.2-3.68-.18-5.75.39.28.76.58,1.11.91.66-.45.88-3.21,1.77-3.02.47.76.76,1.6,1.42,2.25.12-.36-.05-.8.13-1.14.2-.35.73-.68,1.03-.95.21.07.36.2.47.39.27.09.48.02.65-.18.88-.47.62-1.67,1.45-2.1.36.43.62.89,1.2.95.18-1.15.11-2.33.21-3.49.08-.97.19-1.91.41-2.87.2-.9.83-.75,1.5-1.25.71-.54.54-1.4.53-2.19,0-.33-.2-1.4,0-1.75.21-.38.83-.15,1.11-.45.16-.36.19-.74.09-1.13-.01-.52-.02-1.05-.01-1.58,0-.52-.09-1.1-.03-1.61.08-.58.52-.98.55-1.57.04-.84-.13-1.47-.63-2.16-.44-.6-.24-1.49-.24-2.2,0-.45.05-.91.02-1.36-.05-.73-.53-1.3-.55-2.05-.09-3.01-.1-6.08.16-9.08.94-.37,2.26-.19,3.27-.19.92-.08,1.8.05,2.65.41.78.38,1.43.9,1.93,1.57,1.49,1.66,2.32,3.62,3.08,5.67.66,1.87,1.22,3.77,1.67,5.7.31,1.03.62,2.07.92,3.1Z"/>
      <path class="cls-14" d="m19.2,37.79c-1.63,2.42-3.94,4.68-5.76,5.52-5.26,2.44-3.09,9.43-6.42,9.55-3.34.12-1.44,1.18,0,1.83,1.44.65.78,9.1-2.8,17.04C.64,79.67.12,76.16.12,76.16c0-10.49,2.81-20.73,2.81-20.73,0,0-1.28-4.88,1.79-9.02,3.07-4.15,10.23-7.8,10.23-7.8,1.62-.59,3.02-.84,4.25-.81Z"/>
      <path class="cls-7" d="m34.44,96.89s1.36,4.43,1.24,6.99c-.12,2.56-3,2.13-3.51,1.02,0,0,0,1.28-1.85,1.28s-2.57-1.62-2.57-1.62c0,0-.21,1.62-1.74,1.62s-2.46-1.36-2.46-1.36c0,0,.1,1.36-1.95,1.36s-2.98-2.13-2.98-5.2-.58-6.82,2.17-7.33c2.75-.51,11.6-3.58,13.64,3.24Z"/>
      <path class="cls-9" d="m30.02,69.06c-.23,1.32-2.04-.16-2.2,1.09-.21,1.68.46,3.65-.25,5.26-.84-.83-1.72-2.05-3.14-1.79-.2.48-.02,1.3-.02,1.79,0,.69.24,2.03-.23,2.67-.26.36-.44.62-.62,1.01-.28.6-.76.98-1.36,1.31-.42-.28-.52-.62-.77-1.03-.26-.43-.56-.82-.79-1.27-.39-.79-.86-1.59-1.18-2.4-.14-.36-.16-.77-.44-1.07-.26.44-.79,1.27-1.5.86-.31-.17-.45-.54-.53-.86-.1-.37.24-2.58-.16-2.69-.86.58-1.64,1.16-2.67,1.47-.11-.18-.14-.38-.1-.59-.07-.08-.13-.17-.19-.25-.22-.15-.35-.35-.39-.59-.05-.11-.1-.21-.15-.32.21-.4.2-.76.2-1.25,0-.65.03-1.31.01-1.96-.02-.75-.54-1.32-.62-2.04-.04-.4-.04-.74-.13-1.14-.1-.53.12-1.15-.02-1.65-.12-.41-.52-.65-.6-1.1-.07-.44.02-.92,0-1.37-.02-.6-.36-1.09-.41-1.67-.05-.6.01-1.16-.09-1.76-.17-.97-.94-1.64-1.11-2.63-.21-1.2-.11-2.45-.11-3.65v-1.21c-.74-6.27-.7-13.05,1.64-17.89,5.15-10.63,12.61-7.23,12.61-7.23.41.21.79.53,1.14.95-.02,0-.03.02-.05.03.02.42.45.87.56,1.29.08.31.11.63.22.94.28.81.29,1.32.29,2.17,0,1.34-.06,2.67.09,4.01.11.91-.12,1.94.22,2.8.54,1.33.84,2.63.82,4.05,0,.66.17,1.27.2,1.93.05,1.17-.15,2.36.07,3.52.19.09.35.06.48-.1.13.26.02.78.03,1.07.01.51-.13.86-.31,1.34-.16.43-.09.88-.08,1.33,0,.81,0,1.62,0,2.42,0,.69.07,1.18-.27,1.81-.27.5-.61,1.02-.86,1.53-.37.74-.09,1.2.2,1.87.14.55.34,1.08.6,1.59.29.3.51.63.65,1-.39.36-.87.72-.93,1.25-.03.24.15.57.07.8-.23.64-1.56.74-2.08,1.22.12.6,1.17.76,1.69.97.67.27,1.14.63,1.64,1.1.36.34.6.55.73,1,.19.66.27,1.4.16,2.08Z"/>
      <path class="cls-12" d="m37.96,100.53c.01.49-.12.73-.28,1.2-.13.38-.03,1.26-.56,1.46-.27.1-.47.04-.62-.19-.18-.25-.44-.36-.78-.34-.6-.04-1.15-.22-1.63-.54-.04-.06-.09-.11-.13-.16-.18.07-.36.14-.56.2.03.15.04.29-.03.43-.55-.01-1.12-.01-1.69-.03-1.66.26-3.57.25-5.44.01-.02.04-.04.08-.06.13-.15.25-.4.57-.66.76-.31-.38-.8-.56-1.2-.86-.2-.15-.37-.32-.54-.5-.31-.08-.62-.17-.92-.26-.52.33-1.06.96-1.32,1.32,0-.37-.48-.73-.71-1-.32-.37-.4-.65-.87-.67-.56-.03-.89.49-1.25.78-.35.28-.63.4-1.07.55-.3-.26-.09-1.15-.09-1.5,0-.77-.35-1.08-.84-1.67-.45-.54-.32-1.05-.31-1.72,0-.64,0-1.29,0-1.93,0-1.24-.19-2.44-.19-3.67,0-.53.11-1.12-.09-1.63-.09-.22-.26-.34-.31-.61-.06-.35-.09-.71-.14-1.06-.09-.67.04-1.33-.02-1.99-.03-.31-.17-.56-.3-.85-.2-.44-.23-.87-.34-1.33-.09-.39-.31-.77-.34-1.17-.02-.22.01-.43-.03-.65-.11-.64-.18-1.27-.41-1.88-.25-.65-.51-1.45-1.37-1.51-.54-.03-.72-.09-.64-.62.06-.37.26-.72.33-1.09.06-.36.08-.73.12-1.1.05-.44.11-.76-.44-.93-.42-.13-.75-.06-1.14-.28,1.09-1.09,1.27-2.57,2.11-3.78.05-.08.1-.15.14-.23.05.11.1.21.15.32.04.25.17.44.39.59.06.08.13.17.19.25-.05.21-.01.4.1.59,1.03-.31,1.82-.89,2.67-1.47.4.11.06,2.32.16,2.69.08.32.22.69.53.86.71.4,1.24-.42,1.5-.86.28.3.3.72.44,1.07.32.82.79,1.61,1.18,2.4.22.45.53.84.79,1.27.25.41.34.75.77,1.03.6-.33,1.08-.72,1.36-1.31.18-.39.37-.65.62-1.01.47-.64.23-1.98.23-2.67,0-.49-.18-1.31.02-1.79,1.42-.26,2.3.96,3.14,1.79.7-1.61.04-3.58.25-5.26.15-1.26,1.97.22,2.2-1.09.11-.67.04-1.41-.16-2.08-.13-.45-.37-.66-.73-1-.5-.47-.97-.83-1.64-1.1-.53-.21-1.57-.37-1.69-.97.52-.49,1.85-.59,2.08-1.22.08-.23-.1-.56-.07-.8.06-.53.55-.88.93-1.25-.14-.37-.36-.7-.65-1-.26-.51-.46-1.04-.6-1.59-.29-.67-.57-1.13-.2-1.87.25-.51.59-1.02.86-1.53.34-.63.27-1.12.27-1.81,0-.81,0-1.62,0-2.42,0-.46-.07-.9.08-1.33.17-.48.32-.83.31-1.34,0-.28.1-.81-.03-1.07-.13.16-.28.19-.48.1-.22-1.16-.01-2.35-.07-3.52-.03-.66-.21-1.26-.2-1.93.01-1.43-.29-2.72-.82-4.05-.34-.86-.12-1.89-.22-2.8-.15-1.33-.09-2.67-.09-4.01,0-.85,0-1.36-.29-2.17-.11-.31-.14-.63-.22-.94-.11-.42-.54-.87-.56-1.29.02-.01.03-.02.05-.03,5.15,6.03,5.46,32.65,6.33,38.23.21,1.33.6,3.63,1.07,6.43.24.53.4.99.52,1.55.15.68.38,1.39.6,2.05.18.53.47.93.58,1.48.12.57.08,1.07.12,1.64.04.4.15.78.32,1.16.1.4.13.81.08,1.22.04.48.16.84.1,1.32-.05.43.07.75.09,1.19.09,1.33,1.09,2.44,1.16,3.81.05,1.06-.24,2.24.07,3.27.59,1.92.23,4.04.29,6.03.01.35.04.52.23.82.42.64.25,1.04.33,1.74.05.47.21.85.21,1.34,0,.4-.01.81,0,1.21Z"/>
      <path class="cls-4" d="m18.11,26.33c-.38.15-.62.52-.89.78-.36.35-.79.63-1.17.96-.59.52-1.35,1.28-1.67,1.97-.27.58-.73.92-.94,1.54-.28.81-.4,1.6-.9,2.3-.76,1.06-.56,2.59-.73,3.79-.09.63-.55,1.03-.83,1.57-.24.46-.12,1.04-.11,1.52.01.84.05,1.7.02,2.54,0,.19-.23.91-.13,1.01.38-.31.21-.8.6-1.1.18.33.22.69.1,1.07,0,.6-.01,1.2-.01,1.8,0,.56.09,1.08.15,1.64.04.35-.03.67,0,1,.04.39.64,1.82,1.17,1.7.18-.99-.21-1.77.63-2.62.4.07.58.33.54.78.32,1.01.68,2,1.08,2.99.34,1.07.71,2.13,1.09,3.19-.03.48.15.75.54.82.31-2.41.47-4.81.67-7.22.08-.95.08-1.81.64-2.64.51.06.77.4.77,1,.34.67.63,1.36.86,2.07.32.88.41,1.76.48,2.68.19-.03.83-2.58.69-2.03.23-.86.42-1.69.43-2.57,0-.25-.14-.62.24-.73.5-.14.91.42,1.38-.04.37-.36.09-1.84.09-2.26,0-.35-.01-.7,0-1.05,0-.31-.08-.56.23-.75.18.06.34.03.46-.08.27-.13.41-.35.4-.68.3-1.08.05-2.38-.08-3.46-.08-.63.04-1.25-.02-1.87-.04-.4-.58-1.1-.4-1.44.13-.24.47-.12.69-.17.6-.13.7-.56.75-1.05-.09-.42-.17-.85-.24-1.27-.09-.55-.2-1.1-.33-1.65-.17-.63-.7-1.54-.48-2.18.48.05,1.04,0,.79-.52-.24-.5-1.46-1.16-2-1.33-.58-.19-1.14-.18-1.7-.43-.62-.28-.99-.23-2.81.43Z"/>
      <path class="cls-7" d="m47.64,96.89s-1.36,4.43-1.24,6.99c.12,2.56,3,2.13,3.51,1.02,0,0,0,1.28,1.85,1.28s2.57-1.62,2.57-1.62c0,0,.21,1.62,1.74,1.62s2.46-1.36,2.46-1.36c0,0-.1,1.36,1.95,1.36s2.98-2.13,2.98-5.2.58-6.82-2.17-7.33c-2.75-.51-11.6-3.58-13.64,3.24Z"/>
      <path class="cls-9" d="m52.07,69.06c.23,1.32,2.04-.16,2.2,1.09.21,1.68-.46,3.65.25,5.26.84-.83,1.72-2.05,3.14-1.79.2.48.02,1.3.02,1.79,0,.69-.24,2.03.23,2.67.26.36.44.62.62,1.01.28.6.76.98,1.36,1.31.42-.28.52-.62.77-1.03.26-.43.56-.82.79-1.27.39-.79.86-1.59,1.18-2.4.14-.36.16-.77.44-1.07.26.44.79,1.27,1.5.86.31-.17.45-.54.53-.86.1-.37-.24-2.58.16-2.69.86.58,1.64,1.16,2.67,1.47.11-.18.14-.38.1-.59.07-.08.13-.17.19-.25.22-.15.35-.35.39-.59.05-.11.1-.21.15-.32-.21-.4-.2-.76-.2-1.25,0-.65-.03-1.31-.01-1.96.02-.75.54-1.32.62-2.04.04-.4.04-.74.13-1.14.1-.53-.12-1.15.02-1.65.12-.41.52-.65.6-1.1.07-.44-.02-.92,0-1.37.02-.6.36-1.09.41-1.67.05-.6-.01-1.16.09-1.76.17-.97.94-1.64,1.11-2.63.21-1.2.11-2.45.11-3.65v-1.21c.74-6.27.7-13.05-1.64-17.89-5.15-10.63-12.61-7.23-12.61-7.23-.41.21-.79.53-1.14.95.02,0,.03.02.05.03-.02.42-.45.87-.56,1.29-.08.31-.11.63-.22.94-.28.81-.29,1.32-.29,2.17,0,1.34.06,2.67-.09,4.01-.11.91.12,1.94-.22,2.8-.54,1.33-.84,2.63-.82,4.05,0,.66-.17,1.27-.2,1.93-.05,1.17.15,2.36-.07,3.52-.19.09-.35.06-.48-.1-.13.26-.02.78-.03,1.07-.01.51.13.86.31,1.34.16.43.09.88.08,1.33,0,.81,0,1.62,0,2.42,0,.69-.07,1.18.27,1.81.27.5.61,1.02.86,1.53.37.74.09,1.2-.2,1.87-.14.55-.34,1.08-.6,1.59-.29.3-.51.63-.65,1,.39.36.87.72.93,1.25.03.24-.15.57-.07.8.23.64,1.56.74,2.08,1.22-.12.6-1.17.76-1.69.97-.67.27-1.14.63-1.64,1.1-.36.34-.6.55-.73,1-.19.66-.27,1.4-.16,2.08Z"/>
      <path class="cls-12" d="m44.13,100.53c-.01.49.12.73.28,1.2.13.38.03,1.26.56,1.46.27.1.47.04.62-.19.18-.25.44-.36.78-.34.6-.04,1.15-.22,1.63-.54.04-.06.09-.11.13-.16.18.07.36.14.56.2-.03.15-.04.29.03.43.55-.01,1.12-.01,1.69-.03,1.66.26,3.57.25,5.44.01.02.04.04.08.06.13.15.25.4.57.66.76.31-.38.8-.56,1.2-.86.2-.15.37-.32.54-.5.31-.08.62-.17.92-.26.52.33,1.06.96,1.32,1.32,0-.37.48-.73.71-1,.32-.37.4-.65.87-.67.56-.03.89.49,1.25.78.35.28.63.4,1.07.55.3-.26.09-1.15.09-1.5,0-.77.35-1.08.84-1.67.45-.54.32-1.05.31-1.72,0-.64,0-1.29,0-1.93,0-1.24.19-2.44.19-3.67,0-.53-.11-1.12.09-1.63.09-.22.26-.34.31-.61.06-.35.09-.71.14-1.06.09-.67-.04-1.33.02-1.99.03-.31.17-.56.3-.85.2-.44.23-.87.34-1.33.09-.39.31-.77.34-1.17.02-.22-.01-.43.03-.65.11-.64.18-1.27.41-1.88.25-.65.51-1.45,1.37-1.51.54-.03.72-.09.64-.62-.06-.37-.26-.72-.33-1.09-.06-.36-.08-.73-.12-1.1-.05-.44-.11-.76.44-.93.42-.13.75-.06,1.14-.28-1.09-1.09-1.27-2.57-2.11-3.78-.05-.08-.1-.15-.14-.23-.05.11-.1.21-.15.32-.04.25-.17.44-.39.59-.06.08-.13.17-.19.25.05.21.01.4-.1.59-1.03-.31-1.82-.89-2.67-1.47-.4.11-.06,2.32-.16,2.69-.08.32-.22.69-.53.86-.71.4-1.24-.42-1.5-.86-.28.3-.3.72-.44,1.07-.32.82-.79,1.61-1.18,2.4-.22.45-.53.84-.79,1.27-.25.41-.34.75-.77,1.03-.6-.33-1.08-.72-1.36-1.31-.18-.39-.37-.65-.62-1.01-.47-.64-.23-1.98-.23-2.67,0-.49.18-1.31-.02-1.79-1.42-.26-2.3.96-3.14,1.79-.7-1.61-.04-3.58-.25-5.26-.15-1.26-1.97.22-2.2-1.09-.11-.67-.04-1.41.16-2.08.13-.45.37-.66.73-1,.5-.47.97-.83,1.64-1.1.53-.21,1.57-.37,1.69-.97-.52-.49-1.85-.59-2.08-1.22-.08-.23.1-.56.07-.8-.06-.53-.55-.88-.93-1.25.14-.37.36-.7.65-1,.26-.51.46-1.04.6-1.59.29-.67.57-1.13.2-1.87-.25-.51-.59-1.02-.86-1.53-.34-.63-.27-1.12-.27-1.81,0-.81,0-1.62,0-2.42,0-.46.07-.9-.08-1.33-.17-.48-.32-.83-.31-1.34,0-.28-.1-.81.03-1.07.13.16.28.19.48.1.22-1.16.01-2.35.07-3.52.03-.66.21-1.26.2-1.93-.01-1.43.29-2.72.82-4.05.34-.86.12-1.89.22-2.8.15-1.33.09-2.67.09-4.01,0-.85,0-1.36.29-2.17.11-.31.14-.63.22-.94.11-.42.54-.87.56-1.29-.02-.01-.03-.02-.05-.03-5.15,6.03-5.46,32.65-6.33,38.23-.21,1.33-.6,3.63-1.07,6.43-.24.53-.4.99-.52,1.55-.15.68-.38,1.39-.6,2.05-.18.53-.47.93-.58,1.48-.12.57-.08,1.07-.12,1.64-.04.4-.15.78-.32,1.16-.1.4-.13.81-.08,1.22-.04.48-.16.84-.1,1.32.05.43-.07.75-.09,1.19-.09,1.33-1.09,2.44-1.16,3.81-.05,1.06.24,2.24-.07,3.27-.59,1.92-.23,4.04-.29,6.03-.01.35-.04.52-.23.82-.42.64-.25,1.04-.33,1.74-.05.47-.21.85-.21,1.34,0,.4.01.81,0,1.21Z"/>
      <path class="cls-4" d="m63.98,26.33c.38.15.62.52.89.78.36.35.79.63,1.17.96.59.52,1.35,1.28,1.67,1.97.27.58.73.92.94,1.54.28.81.4,1.6.9,2.3.76,1.06.56,2.59.73,3.79.09.63.55,1.03.83,1.57.24.46.12,1.04.11,1.52-.01.84-.05,1.7-.02,2.54,0,.19.23.91.13,1.01-.38-.31-.21-.8-.6-1.1-.18.33-.22.69-.1,1.07,0,.6.01,1.2.01,1.8,0,.56-.09,1.08-.15,1.64-.04.35.03.67,0,1-.04.39-.64,1.82-1.17,1.7-.18-.99.21-1.77-.63-2.62-.4.07-.58.33-.54.78-.32,1.01-.68,2-1.08,2.99-.34,1.07-.71,2.13-1.09,3.19.03.48-.15.75-.54.82-.31-2.41-.47-4.81-.67-7.22-.08-.95-.08-1.81-.64-2.64-.51.06-.77.4-.77,1-.34.67-.63,1.36-.86,2.07-.32.88-.41,1.76-.48,2.68-.19-.03-.83-2.58-.69-2.03-.23-.86-.42-1.69-.43-2.57,0-.25.14-.62-.24-.73-.5-.14-.91.42-1.38-.04-.37-.36-.09-1.84-.09-2.26,0-.35.01-.7,0-1.05,0-.31.08-.56-.23-.75-.18.06-.34.03-.46-.08-.27-.13-.41-.35-.4-.68-.3-1.08-.05-2.38.08-3.46.08-.63-.04-1.25.02-1.87.04-.4.58-1.1.4-1.44-.13-.24-.47-.12-.69-.17-.6-.13-.7-.56-.75-1.05.09-.42.17-.85.24-1.27.09-.55.2-1.1.33-1.65.17-.63.7-1.54.48-2.18-.48.05-1.04,0-.79-.52.24-.5,1.46-1.16,2-1.33.58-.19,1.14-.18,1.7-.43.62-.28.99-.23,2.81.43Z"/>
      <path class="cls-9" d="m55.79,18.35v1.84c-.17-.08-.1-.3-.36-.21-.12.04-.19.18-.25.26-.12.16-.25.32-.38.47-.17.21-.23.39-.53.26-.3-.13-.27-.15-.58.02-.2.11-.38.06-.61.12-.37.1-.55.26-.62.57-.05.2-.04.37-.15.56-.1.17-.22.34-.3.52-.07.15-.28.75-.57.7-.07-.45.03-.9-.04-1.34-.05-.3-.19-.59-.28-.88-.08-.24-.25-.45-.3-.7-.04-.21.06-.45-.03-.66-.37-.03-.56.23-.78.44-.19.19-.43.32-.58.55-.11.15-.16.32-.15.49,0,.12-.06.19-.21.2-.22.03-.42-.15-.48-.3-.02-.13-.03-.26-.05-.39-.03-.03-.06-.06-.1-.09-.12-.31.09-.72.18-1.03.06-.2.15-.24.31-.38.22-.19.15-.43.14-.67,0-.37.09-.73.09-1.11,0-.17.01-.33,0-.5,0-.19-.1-.3-.19-.47-.43-.75-.46-1.61-1.45-2.01-.62-.25-1.42-.42-2.11-.48-1-.09-2.11-.07-3.08.14-.44.1-.87.24-1.28.41-.42-.17-.84-.31-1.28-.41-.97-.21-2.08-.24-3.08-.14-.68.06-1.49.23-2.11.48-.99.4-1.03,1.26-1.45,2.01-.09.17-.19.28-.19.47,0,.17,0,.33,0,.5,0,.37.1.74.09,1.11,0,.24-.07.48.14.67.16.14.25.18.31.38.09.31.3.72.18,1.03-.03.03-.06.06-.1.09-.02.13-.03.26-.05.39-.06.15-.26.33-.48.3-.14,0-.21-.08-.21-.2,0-.17-.05-.34-.15-.49-.15-.23-.38-.36-.58-.55-.22-.21-.41-.47-.78-.44-.09.2.02.44-.03.66-.05.24-.23.46-.3.7-.09.29-.23.59-.28.88-.07.45.03.89-.04,1.34-.29.05-.5-.55-.57-.7-.09-.18-.2-.35-.3-.52-.11-.19-.1-.36-.15-.56-.07-.3-.25-.47-.62-.57-.22-.06-.41-.02-.61-.12-.31-.17-.28-.15-.58-.02-.3.12-.36-.06-.53-.26-.13-.15-.26-.31-.38-.47-.06-.08-.13-.22-.25-.26-.27-.09-.2.12-.36.21v-1.84c0-.5-.08-1.01.13-1.47.09-.18.04-.39.04-.59,0-.24,0-.48,0-.72,0-.53.22-.99.46-1.48.09-.18.1-.36.13-.55.04-.27.18-.52.19-.79.02-.49-.05-.99-.01-1.49.04-.48.32-.85.55-1.28.12-.22.32-.4.43-.62.1-.18.12-.38.14-.57.02-.2.23-.45.18-.65-.01-.04-.02-.07-.04-.1.02-.01.03-.02.04-.03.17-.1.49-.2.64-.33.3-.26-.23-.55-.05-.8.26-.01,1.05,0,.99-.36-.22-.04-.53-.39-.53-.57,0-.19.48-.45.6-.59.3-.33.55-.58.98-.8.18-.09.28-.19.43-.31.22-.18.49-.29.77-.4.14-.06.27-.14.42-.18.26-.07.46-.04.71-.17.3-.15.52-.27.88-.29.27-.02.47-.06.73-.13.22-.06.42,0,.64-.12.22-.12.21-.14.5-.13.21,0,.42,0,.62,0,.37,0,.76-.03,1.13.01.25.03.44.11.68.17.27.08.6.04.88.08.02.13-.41.23-.54.25-.21.02-.44-.05-.64-.01-.12.03-.24.06-.35.12-.1.03-.2.04-.3.04-.22.08-.33.29-.51.41-.21.14-.5.21-.73.33-.16.11-.33.21-.5.31-.18.05-.33.13-.45.25-.06.12-.16.22-.29.29-.14.07-.23.17-.27.3-.09.22-.07.44.02.65.24,0,.51-.14.74-.21.22-.07.36-.14.55-.25.36-.21.64-.12,1.06-.18.4-.05.82,0,1.21-.09.24-.05.4-.12.65-.11.17,0,.34,0,.51,0,.21,0,.4.04.6-.05.23-.1.36-.17.64-.17h.25c.27,0,.41.08.64.17.2.09.38.05.6.05.17,0,.34,0,.51,0,.25,0,.41.06.65.11.38.08.81.03,1.21.09.42.06.7-.04,1.06.18.19.11.33.18.55.25.22.06.5.21.74.21.09-.21.11-.44.02-.65-.04-.13-.13-.23-.27-.3-.13-.07-.23-.17-.29-.29-.12-.12-.27-.2-.45-.25-.17-.1-.34-.2-.5-.31-.23-.12-.52-.19-.73-.33-.18-.12-.3-.32-.51-.41-.1,0-.2-.02-.3-.04-.11-.05-.22-.09-.35-.12-.21-.03-.44.04-.64.01-.13-.01-.56-.11-.54-.25.28-.04.61,0,.88-.08.24-.06.43-.15.68-.17.37-.04.75-.01,1.13-.01.21,0,.41,0,.62,0,.28,0,.28.02.5.13.22.11.41.06.64.12.25.07.45.11.73.13.36.03.58.14.88.29.25.12.45.1.71.17.15.04.27.13.42.18.28.11.55.22.77.4.15.12.25.22.43.31.44.22.68.47.98.8.12.14.59.4.6.59,0,.18-.3.53-.53.57-.06.36.72.35.99.36.18.25-.35.54-.05.8.14.13.47.23.64.33.02,0,.03.02.04.03-.02.03-.03.06-.04.1-.05.2.16.45.18.65s.04.39.14.57c.12.22.32.4.43.62.23.43.51.8.55,1.28.04.49-.03.99-.01,1.49,0,.27.15.52.19.79.03.19.04.38.13.55.24.49.46.95.46,1.48,0,.24,0,.48,0,.72,0,.2-.05.4.04.59.22.46.13.97.13,1.47Z"/>
      <path class="cls-12" d="m55.79,21.25c0,.38,0,.76,0,1.14,0,.5-.24.89-.55,1.31-.13.18-.18.33-.26.53-.08.2-.21.39-.29.6-.05.13-.11.24-.15.35-.02.08-.04.16-.06.24-.02.1-.04.2-.08.29-.35,1.26-.93,2.43-1.84,3.66-2.61,3.52-7.5,4.52-8.59,4.52s-2.93.9-2.93.9c0,0-1.85-.9-2.93-.9s-5.98-.99-8.59-4.52c-.9-1.22-1.48-2.4-1.84-3.66-.04-.09-.06-.19-.08-.29-.02-.08-.04-.16-.06-.24-.04-.12-.1-.23-.15-.35-.09-.21-.21-.39-.29-.6-.08-.2-.13-.34-.26-.53-.3-.42-.55-.81-.55-1.31,0-.38,0-.76,0-1.14v-1.05c.17-.08.1-.3.36-.21.12.04.19.18.25.26.12.16.25.32.38.47.17.21.23.39.53.26.3-.13.27-.15.58.02.2.11.38.06.61.12.37.1.55.26.62.57.05.2.04.37.15.56.1.17.22.34.3.52.07.15.28.75.57.7.07-.45-.03-.9.04-1.34.05-.3.19-.59.28-.88.07-.24.25-.45.3-.7.04-.21-.06-.45.03-.66.37-.03.56.23.78.44.19.19.43.32.58.55.11.15.16.32.15.49,0,.12.06.19.21.2.22.03.42-.15.48-.3.02-.13.03-.26.05-.39.03-.03.06-.06.1-.09.12-.31-.09-.72-.18-1.03-.06-.2-.15-.24-.31-.38-.22-.19-.15-.43-.14-.67,0-.37-.09-.73-.09-1.11,0-.17-.01-.33,0-.5,0-.19.1-.3.19-.47.43-.75.46-1.61,1.45-2.01.62-.25,1.42-.42,2.11-.48,1-.09,2.11-.07,3.08.14.44.1.87.24,1.28.41.42-.17.84-.31,1.28-.41.97-.21,2.08-.24,3.08-.14.68.06,1.49.23,2.11.48.99.4,1.03,1.26,1.45,2.01.09.17.19.28.19.47,0,.17,0,.33,0,.5,0,.37-.1.74-.09,1.11,0,.24.07.48-.14.67-.16.14-.25.18-.31.38-.09.31-.3.72-.18,1.03.03.03.06.06.1.09.02.13.03.26.05.39.06.15.26.33.48.3.14,0,.21-.08.21-.2,0-.17.05-.34.15-.49.15-.23.38-.36.58-.55.22-.21.41-.47.78-.44.09.2-.02.44.03.66.05.24.23.46.3.7.09.29.23.59.28.88.07.45-.03.89.04,1.34.29.05.5-.55.57-.7.09-.18.2-.35.3-.52.11-.19.1-.36.15-.56.07-.3.25-.47.62-.57.22-.06.41-.02.61-.12.31-.17.28-.15.58-.02.3.12.36-.06.53-.26.13-.15.26-.31.38-.47.06-.08.13-.22.25-.26.27-.09.2.12.36.21v1.05Z"/>
      <path class="cls-4" d="m54.05,7.97c-.18,0-.37-.11-.47.06-.02-.01-.03-.02-.04-.03-.17-.1-.49-.2-.64-.33-.3-.26.23-.55.05-.8-.26-.01-1.05,0-.99-.36.22-.04.53-.39.53-.57,0-.19-.48-.45-.6-.59-.3-.33-.55-.58-.98-.8-.18-.09-.28-.19-.43-.31-.22-.18-.49-.29-.77-.4-.14-.06-.27-.14-.42-.18-.26-.07-.46-.04-.71-.17-.3-.15-.52-.27-.88-.29-.27-.02-.47-.06-.73-.13-.22-.06-.42,0-.64-.12-.22-.12-.21-.14-.5-.13-.21,0-.42,0-.62,0-.37,0-.76-.03-1.13.01-.25.03-.44.11-.68.17-.27.08-.6.04-.88.08-.02.13.41.23.54.25.21.02.44-.05.64-.01.12.03.24.06.35.12.1.03.2.04.3.04.22.08.33.29.51.41.21.14.5.21.73.33.16.11.33.21.5.31.18.05.33.13.45.25.06.12.16.22.29.29.14.07.23.17.27.3.09.22.07.44-.02.65-.24,0-.51-.14-.74-.21-.22-.07-.36-.14-.55-.25-.36-.21-.64-.12-1.06-.18-.4-.05-.82,0-1.21-.09-.24-.05-.4-.12-.65-.11-.17,0-.34,0-.51,0-.21,0-.4.04-.6-.05-.23-.1-.36-.17-.64-.17h-.25c-.27,0-.41.08-.64.17-.2.09-.38.05-.6.05-.17,0-.34,0-.51,0-.25,0-.41.06-.65.11-.38.08-.81.03-1.21.09-.42.06-.7-.04-1.06.18-.19.11-.33.18-.55.25-.22.06-.5.21-.74.21-.09-.21-.11-.44-.02-.65.04-.13.13-.23.27-.3.13-.07.23-.17.29-.29.12-.12.27-.2.45-.25.17-.1.34-.2.5-.31.23-.12.52-.19.73-.33.18-.12.3-.32.51-.41.1,0,.2-.02.3-.04.11-.05.22-.09.35-.12.21-.03.44.04.64.01.13-.01.56-.11.54-.25-.28-.04-.61,0-.88-.08-.24-.06-.43-.15-.68-.17-.37-.04-.75-.01-1.13-.01-.21,0-.41,0-.62,0-.28,0-.28.02-.5.13-.22.11-.41.06-.64.12-.25.07-.45.11-.73.13-.36.03-.58.14-.88.29-.25.12-.45.1-.71.17-.15.04-.27.13-.42.18-.28.11-.55.22-.77.4-.15.12-.25.22-.43.31-.44.22-.68.47-.98.8-.12.14-.59.4-.6.59,0,.18.3.53.53.57.06.36-.72.35-.99.36-.18.25.35.54.05.8-.14.13-.47.23-.64.33-.02,0-.03.02-.04.03-.1-.17-.29-.06-.47-.06.14-.23.25-.36.24-.62,0-.17-.04-.37-.01-.55.03-.19.2-.33.28-.51.09-.19.25-.31.38-.48.16-.23.17-.44.39-.64.24-.2.33-.47.52-.7.36-.42.85-.88,1.35-1.19.27-.17.57-.3.84-.47.23-.15.46-.28.7-.42.18-.11.35-.22.51-.35.14-.13.28-.27.42-.4.07-.08.16-.11.27-.09.16-.05.34-.13.52-.15.22-.03.42.02.63-.09.33-.16.53-.31.9-.43.02,0,.05-.01.08-.02.21-.1.42-.2.63-.28.02-.03.03-.07.02-.11.04.02.07.04.11.06,1.08-.39,2.28-.54,4.22-.54s3.13.14,4.22.54c.04-.02.07-.04.11-.06-.01.04,0,.08.02.11.21.08.42.17.63.28.03,0,.06.01.08.02.37.12.58.27.9.43.21.11.41.06.63.09.18.02.36.09.52.15.11-.01.2.01.27.09.14.14.28.27.42.4.16.13.33.24.51.35.24.14.47.27.7.42.27.18.57.3.84.47.5.32.99.77,1.35,1.19.19.23.29.5.52.7.22.19.23.41.39.64.12.17.29.29.38.48.08.18.26.32.28.51.03.17,0,.37-.01.55-.01.27.1.39.24.62Z"/>
      <path class="cls-7" d="m41.04,33.34c-5.03,0-5.57-3.53-5.28-6.15.04.11.48,1.36,2.46.95,1.63-.34,1.93-.42,2.82-.43.89.02,1.19.1,2.82.43,1.98.41,2.43-.84,2.46-.95.29,2.62-.25,6.15-5.28,6.15Z"/>
      <path class="cls-11" d="m29.63,13.16s-1.57.66-2.15,2.04c-.57,1.38,1.28,3.01,1.6,3.86,0,0,.22-2.31.54-5.9Z"/>
      <path class="cls-11" d="m48.33,19.66c-1.41.51-3.62.94-3.23,2.65.13.57.28,1.12.41,1.67.06.14.12.28.18.43,0,0,.46,1.23.64,2.79-.04.11-.48,1.36-2.46.95-1.63-.34-1.93-.42-2.82-.43-.89.02-1.19.1-2.82.43-1.98.41-2.43-.84-2.46-.95.17-1.55.64-2.79.64-2.79.06-.15.12-.29.18-.43.13-.55.27-1.1.41-1.67.4-1.71-1.81-2.14-3.23-2.65-1.42-.51-.76-4.36,0-5.81.76-1.45,7.28-1.37,7.28-1.37,0,0,6.52-.09,7.28,1.37.76,1.45,1.42,5.3,0,5.81Z"/>
      <path class="cls-7" d="m47.35,17.62c-2.2-1.52-.87-.48-6.31-.48h0c-5.44,0-4.11-1.04-6.3.48-2.2,1.52-.9,0,0-1.42.89-1.4,6.14-1.42,6.3-1.42h0c.14,0,5.42.02,6.31,1.42.9,1.42,2.2,2.94,0,1.42Z"/>
      <path class="cls-6" d="m40.29,23.5s-.77-1.02-1.42-1.12c-.65-.1-2.2,1.31-.52,1.72,1.68.41,2.59.09,1.94-.6Z"/>
      <path class="cls-5" d="m42.51,22.03c-.86.77-1.41.87-1.46.88h0c-.05,0-.6-.11-1.46-.88-.9-.81-2.35.1-1.98-.81.37-.91,2.2-1.27,3.45-.61h0c1.25-.66,3.08-.3,3.45.61.37.91-1.08,0-1.98.81Z"/>
      <path class="cls-11" d="m45.69,28.68c-.2.81-1.78.48-2.89.26-1.11-.22-1.75-.15-1.75-.15,0,0-.64-.06-1.75.15-1.11.22-2.69.54-2.89-.26,0,0,1.52.2,2.25,0,.74-.2,1.6-.26,2.39-.26s1.66.06,2.39.26,2.25,0,2.25,0Z"/>
      <path class="cls-5" d="m45.41,26.5c0,1.17-1.23,1.27-2.05.96-.8-.3-2.24-.27-2.32-.27h0c-.08,0-1.52-.03-2.32.27-.82.3-2.05.2-2.05-.96s.45-1.78,1.42-1.37,1.29,1.04,1.74,1.18c.45.14.45-.67-.06-.97-.52-.3-2.16-.91-1.4-.81.75.1,2.2.34,2.67-.41h0s0,0,0,0c.48.75,1.92.51,2.67.41.76-.1-.89.51-1.4.81-.52.3-.52,1.12-.06.97.45-.14.77-.77,1.74-1.18s1.42.2,1.42,1.37Z"/>
      <path class="cls-5" d="m45.11,14.36h-8.13c-1.66,0-3.49,0-1.28-.76,2.21-.76,4.42-.76,5.35-.76s3.14,0,5.35.76c2.2.76.38.76-1.28.76Z"/>
      <path class="cls-6" d="m45.69,28.68c-.15.03-.43.1-.89.23-.74.2-2.58-.48-3.76-.48s-3.01.68-3.76.48c-.45-.12-.73-.19-.89-.23.32.05,1.11.14,1.89-.14,1-.36,2.76-.4,2.76-.4,0,0,1.75.04,2.76.4.78.28,1.57.19,1.89.14Z"/>
      <g>
        <path class="cls-13" d="m38,16.87c0,.73-.59,1.33-1.33,1.33s-1.33-.59-1.33-1.33.59-1.33,1.33-1.33,1.33.59,1.33,1.33Z"/>
        <path class="cls-10" d="m37.59,16.87c0,.29-.23.52-.52.52s-.52-.23-.52-.52.23-.52.52-.52.52.23.52.52Z"/>
        <path class="cls-8" d="m37.19,16.28c0-.14-.11-.26-.26-.26s-.26.11-.26.26.12.26.26.26.26-.11.26-.26Z"/>
      </g>
      <path class="cls-11" d="m52.46,13.16s1.57.66,2.15,2.04c.57,1.38-1.28,3.01-1.6,3.86,0,0-.22-2.31-.54-5.9Z"/>
      <path class="cls-6" d="m41.8,23.5s.77-1.02,1.42-1.12c.65-.1,2.2,1.31.52,1.72-1.68.41-2.59.09-1.94-.6Z"/>
      <polygon class="cls-5" points="41.04 24.1 41.04 24.11 41.04 24.1 41.04 24.1"/>
      <g>
        <path class="cls-13" d="m44.29,16.87c0,.73.59,1.33,1.33,1.33s1.33-.59,1.33-1.33-.59-1.33-1.33-1.33-1.33.59-1.33,1.33Z"/>
        <path class="cls-10" d="m44.84,16.87c0,.29.23.52.52.52s.52-.23.52-.52-.23-.52-.52-.52-.52.23-.52.52Z"/>
        <path class="cls-8" d="m45.11,16.28c0-.14.11-.26.26-.26s.26.11.26.26-.11.26-.26.26-.26-.11-.26-.26Z"/>
      </g>
    </g>
  </g>
</svg>