<?xml version="1.0" encoding="UTF-8"?>
<svg id="Layer_2" data-name="Layer 2" xmlns="http://www.w3.org/2000/svg" viewBox="0 0 65.27 97.3">
  <defs>
    <style>
      .cls-1 {
        fill: #cf5245;
      }

      .cls-1, .cls-2, .cls-3, .cls-4, .cls-5, .cls-6, .cls-7, .cls-8, .cls-9, .cls-10, .cls-11, .cls-12 {
        stroke-width: 0px;
      }

      .cls-2 {
        fill: #010101;
      }

      .cls-3 {
        fill: #801c18;
      }

      .cls-4 {
        fill: #424143;
      }

      .cls-5 {
        fill: #fff;
      }

      .cls-6 {
        fill: #d96556;
      }

      .cls-7 {
        fill: #c2513b;
      }

      .cls-8 {
        fill: #231f20;
      }

      .cls-9 {
        fill: #fdf5a6;
      }

      .cls-10 {
        fill: #595a5c;
      }

      .cls-11 {
        fill: #a92523;
      }

      .cls-12 {
        fill: #f2f2f2;
      }
    </style>
  </defs>
  <g id="_100" data-name="100">
    <g>
      <path class="cls-1" d="m21.77,28.16c-2.01,2.48-2.3,6.66-2.15,9.99-.01,0-.02,0-.03,0-4.41-1.27-2.15-11.94,1.82-16.35,4.63-5.14,5.34-15.2,2.01-17.96-2.52-2.09-4.47-2.86-7.57-2.6-1.14-.98-3.25-1.88-6.77-.6,0,0-3.55,1.12-5.3,6.4-.31.92-.3,1.69-.06,2.32.7-1.6,3.42-7.23,7.14-7.86,4.34-.73,4.46,1.11,4.98,1.88.51.77,1.62-.85,3.58,0,1.96.85,4.94,2.53,4.01,9.02-.77,5.38-1.62,6.35-4.44,9.68-2.82,3.33-4.18,9.3-3.33,12.12.85,2.82,1.2,4.27,4.7,6.32,0,0,1.96,1.79,1.45-3.67-.51-5.46,2.22-10.16,9.3-10.93,7.08-.77,22.21.54,34.15,10.43-3.91-3.73-10.65-9.41-21.31-11.72-10.65-2.31-19.18-.18-22.2,3.55Z"/>
      <path class="cls-11" d="m11.05,9.74c3.07-1.54,4.72-3.81,5.18-4.44.46-.63-.06.74.8.85.85.11,3.3,1.02,3.64,2.62.34,1.59-.14,5.95-3.3,10.64-3.16,4.69-6.32,8.71-5.63,16.99.68,8.28,10.5,9.51,10.5,9.51,0,0-.77-1.91,0-1.83.77.09,4.01,3.07,9.22,2.82,5.21-.26-3.79-.5-5.61-8.61s15.08-1.97,16.7-1.37c1.62.6,7.43,1.37,9.56.68,2.13-.68,6.46-4.21,12.7-1.21h0c.29-.04.45-.06.45-.06-11.94-9.89-27.07-11.19-34.15-10.43-7.08.77-9.82,5.46-9.3,10.93.51,5.46-1.45,3.67-1.45,3.67-3.5-2.05-3.84-3.5-4.7-6.32-.85-2.82.51-8.79,3.33-12.12,2.82-3.33,3.67-4.3,4.44-9.68.93-6.48-2.05-8.16-4.01-9.02-1.96-.85-3.07.77-3.58,0-.51-.77-.64-2.61-4.98-1.88-3.72.63-6.44,6.27-7.14,7.86.2.52.56.94,1.03,1.26.14.03,3.3.63,6.31-.87Z"/>
      <path class="cls-3" d="m14.19,9.61c.7-.57,1.25-1.18,1.67-1.79,1.19-.19,3.36-.22,3.69,1.9.6,3.88-2.9,10.03-6.16,14.33-4.95,6.53-3.89,23.06,9.06,23.03.05,0,.1,0,.15,0,7.28,5.59,27.57-2.27,30.78-5.79,3.2-3.51,9.68-4.66,11.45-4.91h0c-6.25-3-10.57.53-12.7,1.21-2.13.68-7.94-.09-9.56-.68-1.62-.6-18.52-6.74-16.7,1.37s10.81,8.36,5.61,8.61c-5.21.26-8.45-2.73-9.22-2.82-.77-.09,0,1.83,0,1.83,0,0-9.82-1.23-10.5-9.51-.68-8.28,2.47-12.29,5.63-16.99,3.16-4.7,3.64-9.05,3.3-10.64-.34-1.59-2.79-2.5-3.64-2.62-.85-.11-.34-1.48-.8-.85-.46.63-2.11,2.9-5.18,4.44-3,1.5-6.17.9-6.31.87,2.21,1.54,6.94,1.03,9.44-1.01Z"/>
      <path class="cls-7" d="m2.85,13.99c.46,1.05,1.17,1.38,1.89,1.46.27-.92.57-1.96.93-2.99h0s.33-1.43-1.31-2.84c0,0-2.6,1.9-1.51,4.37Z"/>
      <path class="cls-12" d="m5.38,6.42c-.71.45-1.45,1.23-2.19,2.07.37.42.78.8,1.16,1.13,1.64,1.41,1.31,2.84,1.31,2.84h0c.56-1.62,1.24-3.21,2.08-4.28,1.21-1.53,2.05-3.23-2.36-1.76Z"/>
      <path class="cls-7" d="m3.19,8.49c-.6.68-1.19,1.38-1.77,1.98-.49.5-.69,1.4-.75,2.33.31.18.68.44,1.02.78,0,0-.37-1.98,2.66-3.96-.38-.33-.79-.71-1.16-1.13Z"/>
      <path class="cls-2" d="m1.69,13.58c-.34-.34-.72-.6-1.02-.78-.1,1.49.16,3.04.18,3.13.39.93.91,1.94,1.59,3.05,0,0,.91.62,1.64-1.38.19-.53.41-1.29.67-2.15-.73-.08-1.43-.41-1.89-1.46-1.1-2.48,1.51-4.37,1.51-4.37-3.03,1.97-2.66,3.96-2.66,3.96Z"/>
      <path class="cls-5" d="m2.85,8.09c.11.14.22.27.34.41.74-.84,1.48-1.62,2.19-2.07-.32.1-.66.23-1.03.37,0,0-.68.55-1.5,1.3Z"/>
      <path class="cls-6" d="m.33,10.9c-.22.42-.33.94-.33,1.56h0s.28.11.67.34c.06-.93.26-1.83.75-2.33.58-.59,1.18-1.3,1.77-1.98-.12-.13-.23-.27-.34-.41-.96.87-2.09,2.01-2.52,2.81Z"/>
      <path class="cls-8" d="m.67,12.8c-.38-.23-.67-.34-.67-.34h0c0,.94.27,2.11.84,3.47-.02-.09-.28-1.64-.18-3.13Z"/>
      <g>
        <path class="cls-9" d="m6.8,6.24c0,.77.63,1.4,1.4,1.4s1.4-.63,1.4-1.4-.63-1.4-1.4-1.4-1.4.63-1.4,1.4Z"/>
        <path class="cls-12" d="m8.2,7.81c-.86,0-1.57-.7-1.57-1.57s.7-1.57,1.57-1.57,1.57.7,1.57,1.57-.7,1.57-1.57,1.57Zm0-2.8c-.68,0-1.23.55-1.23,1.23s.55,1.23,1.23,1.23,1.23-.55,1.23-1.23-.55-1.23-1.23-1.23Z"/>
      </g>
      <path class="cls-2" d="m7.45,6.27c0,.36.3.66.66.66s.66-.3.66-.66-.3-.66-.66-.66-.66.3-.66.66Z"/>
      <path class="cls-5" d="m7.29,6.28c0-.11.09-.21.21-.21s.21.09.21.21-.09.21-.21.21-.21-.09-.21-.21Z"/>
      <path class="cls-10" d="m35.11,46.23s1.6,19.34.45,20.18c-1.15.84.63,3.37.68,5.63.05,2.26.03,18.13,0,19.1-.03.97.84,3.18-1.91,3.76-2.74.57-7.38,2.49-3.88,2.4,3.5-.09,7.99.29,8.15-.61.16-.9-.63-1.27-.04-1.36.59-.09-.62-.77-.65-1.85-.03-1.08-.34-20.03.21-22.05.56-2.02.33-3.6-.15-5.38-.48-1.78-.44-19.88-.44-19.88,0,0-1.01-.72-2.42.06Z"/>
      <path class="cls-4" d="m35.25,96.93c-.48,0-.99,0-1.51-.01-.54,0-1.09-.01-1.63-.01-.51,0-.96,0-1.36.02-.07,0-.13,0-.2,0,.89-.46,2.64-1.11,4.2-1.44,2.7-.57,2.47-2.6,2.35-3.69-.02-.22-.05-.42-.04-.57.03-1.11.04-17.08,0-19.29-.02-1-.34-2.02-.63-2.93-.32-1.01-.65-2.05-.25-2.34.35-.26.94-.69.41-10.91-.21-4.19-.54-8.35-.63-9.54.26-.11.53-.16.78-.16s.45.05.59.11c0,2.89,0,18.14.46,19.88.48,1.79.67,3.28.15,5.17-.61,2.23-.24,22.18-.23,22.38.02.67.37,1.19.63,1.55-.05.04-.09.1-.13.16-.16.28-.03.55.06.74.08.18.17.37.15.62-.21.13-.94.27-3.16.27h0Z"/>
      <path class="cls-10" d="m39.1,44.98s3.96,20.59,2.81,21.42c-1.15.84.64,3.37.68,5.63.04,2.26.03,18.13,0,19.1-.03.97.84,3.18-1.91,3.76-2.74.57-7.38,2.49-3.88,2.4,3.5-.09,7.99.29,8.15-.61.16-.9-.63-1.27-.04-1.36.59-.09-.62-.77-.65-1.85-.03-1.08-.34-20.03.21-22.05.56-2.02.33-3.6-.15-5.38-.48-1.78-2.8-21.13-2.8-21.13,0,0-1.01-.72-2.42.06Z"/>
      <path class="cls-4" d="m41.64,96.93c-.48,0-.99,0-1.51-.01-.54,0-1.09-.01-1.63-.01-.51,0-.96,0-1.36.02-.07,0-.13,0-.2,0,.89-.46,2.64-1.11,4.2-1.44,2.7-.57,2.47-2.6,2.35-3.69-.02-.22-.05-.42-.04-.57.03-1.1.04-17.08,0-19.29-.02-1-.34-2.03-.63-2.93-.32-1.01-.65-2.05-.25-2.34.38-.28.96-.71-.78-11.6-.71-4.44-1.53-8.85-1.77-10.13.25-.1.5-.15.74-.15.27,0,.49.06.63.12.29,2.4,2.33,19.41,2.79,21.13.48,1.79.67,3.28.15,5.17-.61,2.23-.24,22.19-.23,22.39.02.67.37,1.19.63,1.55-.05.04-.09.1-.13.16-.16.28-.03.55.06.74.08.18.17.37.15.62-.21.13-.94.27-3.16.27h0Z"/>
      <path class="cls-11" d="m46.85,40.78c2.05.14,5.35,1.28,5.35,1.28,0,0,1.2-1.31.63-2.28s.29-1.59-.46-2.5c-.74-.91-11.15-3.07-11.15-3.07,3.73.17,7.84.81,9.74,1.14-.45-.97-3.04-1.6-3.04-1.6-5.26-.36-12.99-2.29-16.12-2.29s-5.17,2.06-6.32,3.5c-.44,1.87.28,3.94,2.09,5.88,0,0,5.47,6.53,13.27,6.83,5.67.22,9.99-1.37,11.76-3.06.8-1.89-5.75-3.83-5.75-3.83Z"/>
      <path class="cls-1" d="m53.47,42.76s2.8-1.33,1.81-3.07c-1-1.74.91-2.4-3.23-4.15,0,0,1.24-1.99-1.57-2.9-2.82-.91-9.62-5.22-17.57-3.23-4.45,1.11-6.86,3.17-7.41,5.54,1.15-1.44,3.32-3.5,6.32-3.5s10.87,1.94,16.12,2.29c0,0,2.59.63,3.04,1.6-1.91-.33-6.01-.97-9.74-1.14,0,0,10.41,2.16,11.15,3.07.74.91-.11,1.54.46,2.5s-.63,2.28-.63,2.28c0,0-3.3-1.14-5.35-1.28,0,0,6.55,1.95,5.75,3.83.67-.64.98-1.28.86-1.85Z"/>
    </g>
  </g>
</svg>