<?xml version="1.0" encoding="UTF-8"?>
<svg id="Layer_2" data-name="Layer 2" xmlns="http://www.w3.org/2000/svg" viewBox="0 0 108.05 82.67">
  <defs>
    <style>
      .cls-1 {
        fill: #a2ce4d;
      }

      .cls-1, .cls-2, .cls-3, .cls-4, .cls-5, .cls-6, .cls-7 {
        stroke-width: 0px;
      }

      .cls-2 {
        fill: #83c441;
      }

      .cls-3 {
        fill: #427136;
      }

      .cls-4 {
        fill: #406631;
      }

      .cls-5 {
        fill: #75aa42;
      }

      .cls-6 {
        fill: #231f20;
      }

      .cls-7 {
        fill: #66913e;
      }
    </style>
  </defs>
  <g id="_100" data-name="100">
    <g>
      <path class="cls-2" d="m75.52,72.32s.13-5.98-17.69-5.98-42.62-1.67-33.23-2.13c9.39-.46,42.45-2.11,47.08-.81,4.64,1.3,9.15,11.77,3.84,8.91Z"/>
      <path class="cls-2" d="m97.86,71.06c-2.16.46-4.73.27-6.39-2.33-3.31-5.2-7.44-15.83-7.44-15.83,0,0-.45,5.12-2.98,11.81-2.53,6.7-6.57-.6-6.57-.6-7.21-7.86-8.05-.93-3.06,9.78-6.65.28-5.04-9.42-2.64-13.58,1.08,1,2.94-.01,4.62-2.18,0,0,5.71-5.03,9.65-6.82,3.94-1.79,4.09-1.15,7.21,4.26,3.12,5.41,6.46,10.77,6.46,10.77.46,1.5,1.08,3.27,1.12,4.71Z"/>
      <path class="cls-7" d="m94.78,73.92c-4.65,0-9.79-12.71-9.79-12.71,0,0-1.22,7.34-2.95,10.28-1.73,2.93-10.43,2.4-10.43,2.4-.06,0-.12,0-.18,0-4.99-10.71-4.15-17.64,3.06-9.78,0,0,4.04,7.29,6.57.6,2.53-6.7,2.98-11.81,2.98-11.81,0,0,4.13,10.64,7.44,15.83,1.66,2.61,4.23,2.79,6.39,2.33.05,1.63-.62,2.86-3.08,2.86Z"/>
      <path class="cls-1" d="m96.73,66.34s-3.33-5.36-6.46-10.77c-3.12-5.41-3.27-6.05-7.21-4.26-3.95,1.79-9.65,6.82-9.65,6.82-1.68,2.17-3.54,3.18-4.62,2.18.02-.03.03-.06.05-.08,2.45-4.16,13.95-11.74,17.62-11.52,3.67.22,9.3,14.46,10.28,17.64Z"/>
      <path class="cls-2" d="m37.23,5.68s.82-3.57,5.38-3.87c4.56-.3,5.75,1.21,5.75,1.21,0,0-4.91-1.15-7.32.71-2.4,1.85-1.91,3.44-2.6,3.64-.69.2-2.21.16-1.21-1.69Z"/>
      <path class="cls-2" d="m39.11,8.75s.99-3.53,5.56-3.6c4.57-.07,5.69,1.49,5.69,1.49,0,0-4.85-1.39-7.34.35s-2.08,3.34-2.78,3.51c-.7.16-2.21.05-1.13-1.74Z"/>
      <path class="cls-2" d="m41.72,11.52s.6-1.15,3.77-2.11c3.17-.96,6.05,0,6.05,0,0,0-5.35.31-6.99,2.11-1.64,1.8-3.42,1.14-2.83,0Z"/>
      <path class="cls-2" d="m42.64,14.33s.6-1.15,3.77-2.11c3.17-.96,6.05,0,6.05,0,0,0-5.35.31-6.99,2.11-1.64,1.8-3.42,1.14-2.83,0Z"/>
      <path class="cls-2" d="m44.66,17.58s.6-1.15,3.77-2.11,6.05,0,6.05,0c0,0-5.35.31-6.99,2.11-1.64,1.8-3.42,1.14-2.83,0Z"/>
      <path class="cls-2" d="m44.66,20.25s.6-1.15,3.77-2.11,6.05,0,6.05,0c0,0-5.35.31-6.99,2.11-1.64,1.8-3.42,1.14-2.83,0Z"/>
      <path class="cls-4" d="m37.45,36.43c-1.79,3.27-8.63,15.48-8.63,15.48.89,4.76-3.87,12.68-5.95,18.45-2.68,7.44-4.17,7.44-7.74,7.44-1.1,0-1.12-2.37-.58-5.78l6.18-19.13,5.33-10.06c1.55-3.46,1.86-5.57,1.32-6.62.85-1.81,1.43-3.05,1.43-3.05,7.14-11.9,10.42,0,8.63,3.27Z"/>
      <path class="cls-2" d="m26.07,42.83l-5.33,10.06-6.18,19.13c1.24-7.64,5.39-20.48,6.83-23.33,1.4-2.76,4.26-8.8,6-12.48.54,1.05.23,3.16-1.32,6.62Z"/>
      <path class="cls-4" d="m55.11,71.65s-1.98,3.28-4.36,3.28-8.04-1.29-11.9-1.64c-3.87-.35-7.34,1.85-7.34,1.85,0,0,1.69-3.09,7.14-3.49,5.46-.4,10.32,1.39,12.2,0,1.88-1.39,4.27,0,4.27,0Z"/>
      <path class="cls-4" d="m42.94,71.71s-4.23-1.05-5,.74c-.78,1.79,0,2.93,0,2.93,0,0,.42-2.17,1.83-1.99,1.41.18,6.77-.24,3.17-1.68Z"/>
      <path class="cls-4" d="m46.68,71.4s-1.79-.25-1.59,1.69c.2,1.94,1.59,2.83,1.59,2.83,0,0-.1-1.85.6-2.26s2.38-1.91-.6-2.25Z"/>
      <path class="cls-2" d="m66.7,61.31c-3.1-6.57-12.73-17.73-12.73-17.73,0,0-3.42-9.08-4.32-9.97s-.15-3.12,1.19-4.46-2.98.45-5.77,3.87c-2.8,3.42-3.16,4.76-3.16,2.83s-.45-2.23.89-5.42c1.34-3.18,1.93-4.55,0-2.44-1.93,2.11-3.27,4.73-4.02,6.22s-.74-2.83-.86-4.76c-.12-1.93,1.75-3.27,2.93-4.91,1.19-1.64,1.35-2.98.08-1.93-1.26,1.04-2.01,2.68-2.87,1.34s-.93-2.98-.15-4.17c.77-1.2-1.67-.44-1.82,1.94s2.93,5.9-2.43,6.28c-5.36.38-5.95-5.14-7.62-5.93-1.66-.79-6.07-2.18-11.04-4.36-4.83-2.12-8.15-5.96-8.33-6.16h0c-.08-.45-.14-.89-.17-1.31,1.14.32,2.46.53,3.84.62,4.27.3,12.8,3.47,16.31,4.66,3.52,1.19,1.24-.6-1.54-1.88-2.77-1.29-11.9-3.48-14.93-3.67-3.04-.2-3.52-2.01-3.52-2.01.14-.62.36-1.19.66-1.7h0c.18-.08,4-1.75,7.92-1.63,4.02.13,3.89-2.11,9.46-1.96,5.57.15,9.59,1.15,12.49,5.2,2.9,4.04-.34,7.31,1.5,6.79,1.85-.52.8-2.76,2.87-2,2.08.76,8.69,6.31,9.93,10.44,1.24,4.13,1.54,5.47,1.98,6.36s9.23,12.05,12.2,15.77c2.98,3.73,7.68,12.92,7.68,12.92.42,1.4.76,2.75,1.02,4.02h0c.66,13.31-4.64,5.73-7.73-.85Z"/>
      <path class="cls-7" d="m74.43,62.16c.66,13.3-4.64,5.71-7.73-.86-3.1-6.57-12.73-17.73-12.73-17.73,0,0-3.42-9.08-4.32-9.97s-.15-3.12,1.19-4.46-2.98.45-5.77,3.87c-2.8,3.42-3.16,4.76-3.16,2.83s-.45-2.23.89-5.42c1.34-3.18,1.93-4.55,0-2.44-1.93,2.11-3.27,4.73-4.02,6.22s-.74-2.83-.86-4.76c-.12-1.93,1.75-3.27,2.93-4.91,1.19-1.64,1.35-2.98.08-1.93-1.26,1.04-2.01,2.68-2.87,1.34s-.93-2.98-.15-4.17c.77-1.2-1.67-.44-1.82,1.94s2.93,5.9-2.43,6.28c-5.36.38-5.95-5.14-7.62-5.93-1.66-.79-6.07-2.18-11.04-4.36-4.83-2.12-8.15-5.96-8.33-6.16.08.47.2.95.36,1.43.93,2.96,2.36,5.23,4.36,7.37,0,0,0,0,0,0,0,0,1.96,6.44,2.79,7.65.83,1.21,2.39,12.91,3,14.3.61,1.39,2.78,2.77,4.18,3.17,1.4.4,7.72,3.75,9.61,2.57,1.18-.73,1.85-1.85,2.63-2.6,1.94,3.67,4.48,8.35,6.98,13.26,4.79,9.42,10.55,16.68,19.17,16.68s15.62-1.07,15.62-4.3c0-1.57-.12-4.84-.96-8.9Z"/>
      <path class="cls-2" d="m14.2,21.65s2,6.23,3,8.77c1,2.54-.8,11.01,5.56,13.03,6.36,2.01,8.54,3,9.53-.96.99-3.97,3.47-10.91,0-10.12s-5.26-6.78-5.61-4.38c-.35,2.4,2.43,6.37,2.63,10.34s-.5,6.29-2.63-.62c-2.13-6.92-3.72-9.89-4.91-11.08-1.19-1.19-1.01,1.19.98,4.96,1.99,3.77.39,11.52,0,8.94-.39-2.59-1.05-7.55-2.5-11.32-1.46-3.77-7.09-10.71-6.06-7.54Z"/>
      <path class="cls-7" d="m8.14,14.63s-.3,2.1,0,3.28l.3,1.18.74-2.23s-.22-2.23-1.04-2.23Z"/>
      <path class="cls-7" d="m10.15,17.31s-.3,2.1,0,3.28l.3,1.18.74-2.23s-.22-2.23-1.04-2.23Z"/>
      <path class="cls-7" d="m11.86,20.84s-.3,2.1,0,3.28l.3,1.18.74-2.23s-.22-2.23-1.04-2.23Z"/>
      <path class="cls-2" d="m34.08,3.02s.1-2.3,2.68-2.9c2.58-.6,3.75,1.12,3.75,1.12,0,0-2.02-.71-3.21.77-1.19,1.47-.34,3.31-1.23,3.29-.89-.02-2.58-.7-1.98-2.28Z"/>
      <path class="cls-1" d="m73.41,58.13s-4.71-9.2-7.68-12.92c-2.98-3.72-11.76-14.87-12.2-15.77s-.74-2.23-1.98-6.36c-1.24-4.13-7.86-9.68-9.93-10.44-2.08-.76-1.03,1.48-2.87,2-1.84.52,1.4-2.76-1.5-6.79-2.9-4.04-6.92-5.04-12.49-5.2-5.57-.15-5.44,2.09-9.46,1.96-3.92-.12-7.73,1.55-7.92,1.63.94-1.63,2.7-2.65,5.23-2.65,5.17,0,6.94-1.63,8.64-2.04,1.7-.4,6.18-.4,9.83,0,2.98.33,8.16,2.84,10.25,8.08,2.64,1.97,7.95,6.17,10.14,9.54,2.96,4.58,3.57,9.23,3.57,9.23,0,0,7.46,9.57,13.65,19.26,2.25,3.51,3.75,7.13,4.75,10.47Z"/>
      <path class="cls-2" d="m70.76,73.38c-.31,7.35-1.24,7.35-5.89,7.35s-2.48-22.06-2.48-22.06c-5.27-3.98-4.96-9.8-9.61-13.81-4.65-4.02-4.01-10.09-4.01-10.09.38-4.32,1.59-4.94,3.15-3.9-.14.15-.27.33-.4.51,0,0-1.99.69,0,5.4,1.98,4.71,13.75,15.92,15.16,18.8.72,1.48,2.19,2.14,3.13,1.3,1.05,4.56,1.15,11.11.93,16.5Z"/>
      <path class="cls-4" d="m16.32,76.01s-4.66.99-7.14.5c-2.48-.5-6.45-2.98-8.23-.5-1.79,2.48-.5,3.37-.5,3.37,0,0,.6-2.37,2.08-2.23,1.49.15,7.54,1.83,13.29,1.83s1.71-3.2.5-2.98Z"/>
      <path class="cls-2" d="m11.62,78.6s-.02.02-.03.04c-.02.02-.05.05-.07.08,0,0-.01.01-.01.01-.39.53-.35,1.26-.35,1.26,0,0-1.22-1.47-.89-2.83.33-1.36.89-2.53,1.77-1.79.09.07.19.14.3.2.17,1.71-.47,2.7-.73,3.03Z"/>
      <path class="cls-4" d="m20.38,76.11s-1.4-.09-1.53,1.04.47,1.67,2.8,1.24c3.22-.6,3.57.1,3.19,1.59,0,0,2.55-1.49,1.66-3.27-.89-1.79-.99-1.83-2.14-.99-1.15.84-3.98.4-3.98.4Z"/>
      <path class="cls-1" d="m69.83,56.87c-.94.84-2.41.18-3.13-1.3-1.41-2.88-13.18-14.08-15.16-18.8-1.99-4.71,0-5.4,0-5.4.13-.18.26-.36.4-.51,1.1.73,2.36,2.26,3.64,3.9,3.1,3.99,10.22,14.4,12.7,18.08.66.98,1.17,2.37,1.55,4.03Z"/>
      <path class="cls-2" d="m21.88,79.98c.09-.43.07-.8-.07-1.09h0c.04-.61.02-1.21-.18-1.43-.45-.48-.26-2.33-.26-2.33.72-.5,1.18-.01,1.8,1.57.7,1.79-1.29,3.27-1.29,3.27Z"/>
      <path class="cls-7" d="m12.8,78.2c-.57-.04-.93.14-1.18.4.26-.33.89-1.32.73-3.03,1.04.57,3.04.62,3.04.62,2.52,2.66-.85,2.1-2.58,2.01Z"/>
      <path class="cls-7" d="m21.81,78.89c-.29-.69-1.15-.91-2.41-.49-1.79.6-2.29-.1-2.18-1.24.1-1.14,1.19-1.04,1.19-1.04,0,0,1.79.1,2.68-.74.1-.1.2-.17.29-.23,0,0-.18,1.85.26,2.33.2.22.22.82.18,1.42Z"/>
      <path class="cls-4" d="m67.17,77.95s5.54,1.18,8.49.59,7.66-3.54,9.79-.59c2.12,2.95.59,4.01.59,4.01,0,0-.71-2.82-2.48-2.65-1.77.17-8.96,2.18-15.8,2.18s-2.04-3.8-.59-3.54Z"/>
      <path class="cls-2" d="m72.75,81.02s.02.03.04.04c.03.02.06.06.08.09h.01c.47.64.42,1.51.42,1.51,0,0,1.45-1.75,1.06-3.36-.4-1.61-1.06-3.01-2.11-2.12-.11.08-.23.17-.36.23-.2,2.03.56,3.21.86,3.6Z"/>
      <path class="cls-4" d="m62.34,78.07s1.67-.11,1.82,1.24-.56,1.98-3.33,1.47c-3.83-.71-4.24.12-3.79,1.89,0,0-3.03-1.77-1.97-3.89,1.06-2.12,1.18-2.18,2.54-1.18,1.36,1,4.72.47,4.72.47Z"/>
      <path class="cls-2" d="m60.57,82.67c-.11-.52-.08-.95.08-1.29h0c-.05-.72-.03-1.44.21-1.7.53-.57.31-2.77.31-2.77-.86-.59-1.4-.01-2.14,1.87-.83,2.12,1.53,3.89,1.53,3.89Z"/>
      <path class="cls-7" d="m71.35,80.54c.67-.04,1.11.17,1.4.47-.3-.39-1.06-1.57-.86-3.6-1.24.67-3.61.74-3.61.74-3,3.16,1,2.5,3.07,2.38Z"/>
      <path class="cls-7" d="m60.64,81.36c.35-.82,1.37-1.08,2.86-.59,2.12.71,2.72-.12,2.6-1.47-.12-1.35-1.41-1.24-1.41-1.24,0,0-2.12.11-3.18-.88-.12-.11-.23-.21-.34-.28,0,0,.22,2.19-.31,2.77-.24.26-.26.98-.21,1.69Z"/>
      <path class="cls-4" d="m94.21,72.7s3.95.84,6.05.42c2.1-.42,5.47-2.52,6.98-.42,1.51,2.1.42,2.86.42,2.86,0,0-.5-2.01-1.77-1.89-1.26.12-6.39,1.55-11.27,1.55s-1.45-2.71-.42-2.52Z"/>
      <path class="cls-2" d="m98.2,74.89s.02.02.03.03c.02.02.04.04.06.07,0,0,.01.01.01.01.33.45.3,1.07.3,1.07,0,0,1.03-1.25.76-2.4-.28-1.15-.76-2.14-1.5-1.51-.08.06-.16.12-.26.17-.14,1.45.4,2.29.62,2.57Z"/>
      <path class="cls-4" d="m90.77,72.78s1.19-.08,1.3.89c.11.96-.4,1.41-2.38,1.05-2.73-.5-3.02.08-2.7,1.35,0,0-2.16-1.26-1.4-2.77s.84-1.55,1.81-.84,3.37.34,3.37.34Z"/>
      <path class="cls-2" d="m89.5,76.06c-.08-.37-.06-.68.06-.92h0c-.04-.51-.02-1.02.15-1.21.38-.41.22-1.97.22-1.97-.61-.42-1-.01-1.52,1.33-.59,1.51,1.09,2.77,1.09,2.77Z"/>
      <path class="cls-7" d="m97.2,74.55c.48-.03.79.12,1,.34-.22-.28-.76-1.12-.62-2.57-.88.48-2.57.53-2.57.53-2.14,2.26.72,1.78,2.19,1.7Z"/>
      <path class="cls-7" d="m89.56,75.14c.25-.59.98-.77,2.04-.42,1.51.5,1.94-.09,1.85-1.05-.09-.96-1.01-.88-1.01-.88,0,0-1.51.08-2.27-.63-.09-.08-.17-.15-.24-.2,0,0,.16,1.56-.22,1.97-.17.19-.19.7-.15,1.21Z"/>
      <path class="cls-7" d="m26.68,15.5c-3.52-1.19-12.05-4.36-16.31-4.66-1.38-.1-2.7-.31-3.84-.62-.05-.81,0-1.57.17-2.27,0,0,.48,1.81,3.52,2.01,3.03.2,12.16,2.38,14.93,3.67,2.78,1.29,5.06,3.07,1.54,1.88Z"/>
      <path class="cls-5" d="m17.89,6s1.05-2.98,4.48-2.98,7.19.4,6.4,2.98c-.79,2.58-3.63,2.98-5.38,3.37-1.76.4-6.5-1.83-5.49-3.37Z"/>
      <path class="cls-3" d="m20.73,6.22s2.48-1.71,3.67-1.71,2.78.85,2.78.85c0,0-.1,2.47-2.78,2.6-2.68.12-3.67-1.74-3.67-1.74Z"/>
      <path class="cls-6" d="m25.52,6.08c0,.43-.35.78-.78.78s-.78-.35-.78-.78.35-.78.78-.78.78.35.78.78Z"/>
      <path class="cls-7" d="m36.35,23.37s-.88-2.81-2.99-3.45c-2.12-.63-3.53.28-4.09.49-.56.21.8-1.72,3.54-1.32,2.74.4,3.08,1.07,3.54,2.11s1.28,4.43,0,2.16Z"/>
    </g>
  </g>
</svg>