<?xml version="1.0" encoding="UTF-8"?>
<svg id="Layer_2" data-name="Layer 2" xmlns="http://www.w3.org/2000/svg" viewBox="0 0 102.87 63.47">
  <defs>
    <style>
      .cls-1 {
        fill: #3a383b;
      }

      .cls-1, .cls-2, .cls-3, .cls-4, .cls-5, .cls-6, .cls-7, .cls-8 {
        stroke-width: 0px;
      }

      .cls-2 {
        fill: #919191;
      }

      .cls-3 {
        fill: #212021;
      }

      .cls-4 {
        fill: #e6e7e8;
      }

      .cls-5 {
        fill: #59585a;
      }

      .cls-6 {
        fill: #fff;
      }

      .cls-7 {
        fill: #231f20;
      }

      .cls-8 {
        fill: #bcbec0;
      }
    </style>
  </defs>
  <g id="_100" data-name="100">
    <g>
      <path class="cls-2" d="m36.79,31.49s2.67,12.2,2.25,14.06c-.41,1.86,2.28,4.35,6,5.59s6.42,3.93,6.21,0c-.21-3.93-6.79-3.73-7.23-4.76-.43-1.03-2.5-5.38-.64-12.21,1.86-6.83-9.06-10.53-6.6-2.68Z"/>
      <path class="cls-2" d="m63.09,30.44s-1.66,6.75-1.66,10.73,1.86,7.35.83,9.53c-1.03,2.18-3.1,7.35-5.79,7.55-2.69.2-2.9,3.67,1.03,3.67s3.51-1.29,7.45-7.25,2.49-6.86,1.87-8.49c-.62-1.64,7.04-7.99,7.66-13.55.62-5.56-7.66-12.71-11.38-2.18Z"/>
      <path class="cls-3" d="m102.61,42.32c-.08.25-.29.37-.31.64-.19-.02-.25-.37-.36-.53-.19-.27-.49-.44-.77-.62-.37-.25-.95-.88-1.46-.68-.04.25.2.41.29.58-.46.02-1.2-.49-1.6-.68-.39-.18-1.47-.93-1.96-.67.07.18.3.25.38.45-.74.01-1.23-.51-1.77-.94-.41-.32-1.08-1.08-1.65-1.12.16.19.15.57.07.79-.71.1-1.29-.41-1.82-.85-.33-.28-.75-.82-1.23-.83-.04.15.06.47-.04.58-.2.22-.72-.21-.86-.31-.75-.48-1.44-1.05-2.19-1.53-.12-.08-.41-.31-.58-.31-.55.03-.05.99-.88.44-.81-.54-1.45-1.34-2.14-1.99-.24.05-.3.54-.33.76-.73.1-1.26-1.33-1.52-1.84-.23-.45-.4-.91-.52-1.4-.15.05-.65.69-.56.89-.59-.7-.91-1.76-1.14-2.62-.18-.68-.4-1.63-.29-2.37.04-.28.17-.53.18-.81.01-.25-.09-.5.15-.69.52-.75.71-1.03.78-1.39,0-.05.02-.09.02-.14-.06-.44-.11-.89-.15-1.33-.43-5.1-6.93-11.33,0-7.7,0,0,1.33,1.31,2.78,3.26.09.2.19.4.22.52.16.57.51,1.41.46,1.97-.01.14-.17.32-.2.52-.03.2,0,.43,0,.63,0,.5-.07.99.19,1.41-.53.08-.7.1-.56.71.1.45.55.92.56,1.36-.31.19-.54.22-.71.55-.2.4-.1.88.1,1.26.43.79,1.44,1.25,2.26,1.38-.05.38-.93.76-.59,1.3.09.15.52.17.71.22.39.09,1.05,0,1.35.3.05.54-.61.95.2,1.05.66.08,1.15.12,1.82.35.73.25,1.3.76,1.95,1.14.28.16.5.37.77.53.37.22.79.23,1.08.6,0-.4-.46-.72-.43-1.15.29-.03.83.34,1.09.47.76.39,1.44.94,2.2,1.31-.08-.16-.19-.36-.19-.53.58-.13.86.02,1.27.43.49.5,1.2.78,1.63,1.33.48-.46-.03-1.02,0-1.53.7.14,1.16,1.39,1.42,1.92.29.58.78,1.22,1.25,1.68-.08-.39.04-.71.51-.54.31.11.56.64.72.92.14.25.29.49.44.71,0,.32,0,.65,0,.97,0,.37.08.82-.03,1.18Z"/>
      <path class="cls-1" d="m102.64,39.17c.01.33.01.66,0,1-.16-.22-.3-.45-.44-.71-.16-.28-.41-.8-.72-.92-.47-.17-.59.15-.51.54-.47-.45-.96-1.09-1.25-1.68-.26-.53-.72-1.77-1.42-1.92-.04.51.47,1.07,0,1.53-.43-.55-1.14-.84-1.63-1.33-.41-.41-.68-.56-1.27-.43,0,.18.11.38.19.53-.77-.37-1.45-.92-2.2-1.31-.26-.13-.8-.51-1.09-.47-.04.44.43.76.43,1.15-.29-.37-.71-.38-1.08-.6-.27-.16-.5-.37-.77-.53-.65-.38-1.23-.88-1.95-1.14-.67-.23-1.16-.27-1.82-.35-.81-.1-.15-.51-.2-1.05-.31-.29-.96-.2-1.35-.3-.19-.05-.62-.07-.71-.22-.34-.54.54-.91.59-1.3-.83-.13-1.83-.58-2.26-1.38-.21-.38-.31-.86-.1-1.26.17-.33.41-.36.71-.55,0-.44-.45-.91-.56-1.36-.14-.61.02-.63.56-.71-.25-.41-.19-.9-.19-1.41,0-.2-.03-.43,0-.63.03-.2.19-.38.2-.52.05-.55-.29-1.4-.46-1.97-.03-.11-.13-.31-.22-.52,1.18,1.59,2.44,3.6,3.13,5.67.05.16.11.31.18.46.58.4,1.22.73,1.77,1.17.38.3.59.57,1.02.8.4.22.7.52,1.07.76.69.45,1.45.84,2.21,1.15,1.53.62,3.01,1.29,4.57,1.82.93.32,1.89.76,2.68,1.36.62.47,1.26.89,1.68,1.55.21.33.1.61.34.93.3.4.71.8,1.13,1.07-.47.18-.81-.29-1.26-.3.14.16.24.52.26.73.03.34.07.59.15.91.08.33.15.64.31.96.16.32.3.4.32.75Z"/>
      <path class="cls-4" d="m25.92,34.27c-.14-.01-.29-.04-.42,0-.27.06-.19.19-.34.33-.26.24-.25.07-.51-.08-.54-.3-.42.18-.65.47-.18-.13-.35-.13-.54-.27-.29-.21-.6-.56-.82-.85-.09-.11-.15-.46-.36-.37-.17.07-.1.38-.3.44-.28-.46-.49-.86-.59-1.39-.08-.41-.08-.68-.32-1.01-.42-.62-.67-1.18-.7-1.96-.01-.39.08-.81-.02-1.17-.17.18-.22.55-.57.44-.16-.99-.02-2.11-.02-3.12l-1.71-.62c.19-.13.39-.24.6-.33-.3-.04-.53-.29-.83-.37-.3-.08-.62-.16-.93-.22-.62-.13-1.38-.01-2.02-.01-.14,0-.27,0-.41,0-.09-.21-.18-.39-.28-.53-.24-.32-.3-.2-.32-.68,0-.26-.04-.44.13-.65-.34-.84-.56-1.63-.67-2.38.53-.39,1.12-.68,1.75-.74.87-.08,1.51.05,2.3.38.45.19,1.01.31,1.42.57.3.19.54.49.8.72.42.37.85.71,1.24,1.12.17.19.37.4.5.61.13.21.16.57,1.05,1.56,0-.03,0-.06,0-.09.31.23.42,1,.46,1.35.14,1.12.09,2.43-.08,3.54.27.2.48-.65.85-.59.14.41.02,1.07.02,1.5,0,.56,0,1.11.08,1.66.01.09.02.47.11.54.32.24.54-.56.75-.59.31-.04.32.5.37.68.22.69.52,1.48.96,2.09Z"/>
      <path class="cls-8" d="m29.54,39.49c-.5-.19-1-.38-1.44-.67-.72-.47-1.54-.71-2.27-1.16-.24-.15-.54-.25-.76-.42-.26-.19-.36-.52-.62-.73-.2-.16-.39-.26-.58-.45-.13-.13-.3-.42-.51-.38-.08.14-.11.29-.22.41-.67-.44-1.01-1.25-1.64-1.7-.36-.25-.66-.6-.94-.94-.15-.19-.36-.74-.62-.71-.09.26.08.65-.08.84-.71-.41-1.94-1.71-1.98-2.6,0-.17.15-1.08-.3-.67-.19.17-.36,1.07-.29,1.37-.72-.2-.51-2.34-.99-2.99-.18.08-.54.52-.58.79.02-.88.06-1.77-.12-2.63-.05-.23-.08-.43-.18-.64-.14-.31-.42-.48-.58-.76.07.05.18.09.26.14-.28-.43-.46-.96-.64-1.39.13,0,.27,0,.41,0,.64,0,1.4-.11,2.02.01.31.06.63.14.93.22.3.08.52.34.83.37-.21.09-.41.2-.6.33l1.71.62c0,1.01-.14,2.13.02,3.12.35.11.4-.25.57-.44.1.37,0,.79.02,1.17.02.77.27,1.34.7,1.96.23.34.24.6.32,1.01.1.53.32.93.59,1.39.2-.06.13-.37.3-.44.21-.09.27.26.36.37.22.28.53.63.82.85.19.14.36.14.54.27.23-.29.11-.78.65-.47.26.15.25.32.51.08.16-.14.07-.27.34-.33.13-.03.28-.01.42,0,.17.24.37.46.59.63.21.17.42.38.66.51.38.19.31-.02.54-.34.25.05.22.25.3.44.31.72.71,1.37.98,2.11.24.65.42,1.26.54,1.87Z"/>
      <path class="cls-3" d="m82.17,23.09c-.36,2.37-1.3,4.83-2.79,6.53-.01.08-.02.16-.03.24-.02.36-.16.68-.23,1.01-.09.39-.2.57-.55.78-.51.31-.7.74-.79,1.34-.35-.24-.91-.18-1.15.12-.3.38-.34.87-.4,1.33-.29.1-.51-.11-.76-.21-.32-.13-.72-.23-1.06-.25-.43-.02-.8.29-.82.75-.36.1-.84.02-1.22.02-.35,0-.6.04-.93.12-.34.09-.74.03-1.09.04-.45,0-.96.08-1.39.19-1.1.27-2,.92-2.98,1.45-1.11.61-2.3.86-3.47,1.32-.67.26-1.19.37-1.87.53-.41.1-.88.24-1.18.56-.37.39-.87.75-1.37,1-.47.24-.85.54-1.28.82-.21.13-.5.3-.74.35-.51.11-.78.17-.9.78-.02.13.02.36-.02.47-.08.19-.11.09-.29.18-.36.18-.76.12-1.19.12-.72,0-1.43,0-2.15,0-.39,0-.67.02-1.04.16-.43.16-.88.05-1.35.17-.12.26.19.56.38.71-.22-.16-.46-.08-.71-.09-.45-.03-.88-.2-1.32-.29-.26-.05-.59-.14-.72.12-.16.32.18.92.42,1.12-.98-.12-1.75-.84-2.72-.95-.36-.04-.84-.16-.81.3.01.23.18.54.26.76-.28.13-.82-.06-1.09-.14-.67-.18-1.3-.56-1.9-.91-.18-.1-1.34-.91-1.6-.62-.1.11,0,.39.09.47-.27-.14-.38-.37-.59-.57-.41-.4-1.09-.77-1.66-.85-.29-.04-.94-.13-1.1.18-.14.27.13.49.12.74-.74-.38-1.34-1.08-2.1-1.48-.24-.13-.9-.47-.87.08-.6-.27-1.1-.67-1.65-1.09-.6-.46-1.33-.71-2.04-.97-.12-.61-.3-1.22-.54-1.87-.27-.74-.68-1.39-.98-2.11-.08-.19-.05-.39-.3-.44-.23.33-.16.53-.54.34-.25-.13-.45-.35-.66-.51-.22-.17-.42-.39-.59-.63.18.02.37.03.53-.1.39-.32.06-1.15.17-1.61.46-.02.68,1.05,1.19.49.28-.31.16-1.63.44-1.71.2.19.56.22.81.3.15.05.41.23.57.15.26-.12.44-.9.63-1.11.59-.67,1.16-1.25,2.11-1.03.34.08.69.21,1.04.1,0-.14.07-.54.3-.43.14.07.22.48.28.61.24.55.56,1.59,1.12,1.85.12-.36.09-.7.35-1.02.33.04.68,1.93,1.05,1.79.05-.27.04-.48.19-.72-.05.27.07.43.11.69.04.24,0,.46.07.7.15.55.92,1.48,1.34,1.81.4.32.85.32,1.25.6.12-.39.02-1.03,0-1.44.48.31.82.8,1.26,1.16.84.7,1.68,1.19,2.79,1.12-.03-.5-.12-1-.17-1.5.36.42.61.87,1.08,1.21.37.26,1.42,1.24,1.88,1,.04-.25-.13-.75.23-.74.28,0,.74.47.99.6.15.08.48.27.66.2.29-.11.1-.64.16-.91.28-.12.57.23.81.37.24.14.5.22.73.39.19.14.62.74.93.77-.02-.37-.3-.85-.13-1.22.22.15.35.44.6.55.17.08.42.12.6.17.11-.37-.12-1.05.47-.9.26.06.66.32.88.45.15.08.32.33.5.29.15-.58-.31-2.2.77-1.47.25.17.75.53,1.06.55.37.02.16-.33.23-.57.53.22.86.42,1.46.42.81,0,2.04.23,2.73-.29.25-.19.4-.51.61-.73.26-.27.59-.51.87-.76.36-.32.69-.66,1.02-1.01.18-.19.3-.34.58-.35,0-.46.14-1.06.5-1.38.39-.34.47.19.73-.01.09-.07.02-.31.02-.39,0-.3-.04-.83.15-1.1.17-.25.75-.35.79.08.68-1.72,1.29-3.76,3.1-4.62,0,0,.34-.09.37-.1.39-.12.67-.28,1.02-.51.78-.49,1.57-.93,2.52-.75.18.03.27.1.48.11.53.04,1.01.13,1.51.33.35.14,1.35.36,1.67.12.07-.06.15-.33.2-.41.01-.02.17-.25.17-.26.38-.3,1.06.06,1.52.05.19-.33.06-.74.44-.73.32,0,.84.57,1.11.71.09-.22.03-.62,0-.85.29.28,1.13.15,1.56.3-.29-.23-.46-1.06-.31-1.41.1-.22.08-.24.32-.14.26.25.54.49.82.72.15.11.29.21.44.32Z"/>
      <g>
        <path class="cls-1" d="m47.18,13.65c-.07.03-.15.05-.23.07.03-.06.05-.13.05-.2.12-.04.17,0,.17.13Z"/>
        <path class="cls-1" d="m82.17,23.09c-.15-.11-.29-.21-.44-.32-.28-.23-.56-.47-.82-.72-.24-.09-.22-.08-.32.14-.16.35.02,1.18.31,1.41-.43-.15-1.27-.02-1.56-.3.03.24.1.63,0,.85-.27-.15-.79-.71-1.11-.71-.38,0-.26.4-.44.73-.46,0-1.14-.35-1.52-.05,0,0-.16.23-.17.26-.04.08-.12.35-.2.41-.31.24-1.32.01-1.67-.12-.5-.19-.98-.29-1.51-.33-.21-.02-.3-.08-.48-.11-.95-.18-1.73.26-2.52.75-.36.22-.63.38-1.02.51-.03,0-.36.1-.37.1-1.81.86-2.42,2.9-3.1,4.62-.04-.43-.62-.33-.79-.08-.19.27-.14.81-.15,1.1,0,.08.07.33-.02.39-.26.2-.34-.32-.73.01-.37.32-.5.92-.5,1.38-.28,0-.4.15-.58.35-.33.35-.66.69-1.02,1.01-.28.25-.61.49-.87.76-.21.22-.37.54-.61.73-.69.52-1.92.28-2.73.29-.6,0-.92-.2-1.46-.42-.07.25.14.59-.23.57-.3-.01-.8-.37-1.06-.55-1.08-.73-.62.89-.77,1.47-.18.04-.35-.21-.5-.29-.22-.13-.63-.38-.88-.45-.6-.15-.37.53-.47.9-.18-.05-.43-.09-.6-.17-.25-.12-.37-.4-.6-.55-.17.37.11.84.13,1.22-.31-.03-.75-.63-.93-.77-.23-.17-.49-.25-.73-.39-.24-.14-.52-.49-.81-.37-.06.27.13.8-.16.91-.18.07-.51-.12-.66-.2-.25-.13-.71-.59-.99-.6-.35-.01-.19.48-.23.74-.46.24-1.51-.73-1.88-1-.47-.34-.72-.79-1.08-1.21.06.5.14,1,.17,1.5-1.1.07-1.95-.42-2.79-1.12-.44-.36-.78-.85-1.26-1.16.02.41.12,1.05,0,1.44-.4-.28-.85-.29-1.25-.6-.42-.33-1.19-1.26-1.34-1.81-.07-.24-.03-.46-.07-.7-.04-.25-.17-.42-.11-.69-.15.25-.14.45-.19.72-.37.14-.72-1.75-1.05-1.79-.26.31-.23.66-.35,1.02-.56-.26-.88-1.3-1.12-1.85-.06-.13-.14-.55-.28-.61-.23-.11-.3.29-.3.43-.35.11-.7-.02-1.04-.1-.95-.22-1.51.36-2.11,1.03-.19.22-.38.99-.63,1.11-.16.07-.42-.1-.57-.15-.25-.09-.6-.12-.81-.3-.27.08-.16,1.4-.44,1.71-.51.56-.72-.5-1.19-.49-.11.46.22,1.29-.17,1.61-.16.13-.34.12-.53.1-.44-.62-.74-1.4-.96-2.09-.06-.18-.07-.73-.37-.68-.22.03-.43.83-.75.59-.09-.07-.1-.44-.11-.54-.08-.55-.08-1.1-.08-1.66,0-.43.12-1.09-.02-1.5-.36-.06-.57.79-.85.59.17-1.11.22-2.42.08-3.54-.04-.35-.15-1.11-.46-1.35,0,.03,0,.06,0,.09-.89-.99-.92-1.35-1.05-1.56-.13-.22-.33-.43-.5-.61-.38-.41-.82-.75-1.24-1.12-.26-.23-.5-.53-.8-.72-.42-.26-.97-.38-1.42-.57-.8-.33-1.43-.46-2.3-.38-.64.06-1.22.35-1.75.74-.98-6.69,6.62-9.87,10.21-9.98.23,0,.48,0,.75,0,.24.05.54.12.94.21.04.28.57.49.81.58.27.09.56.06.83.17.21.08.37.27.59.26.13,0,.42-.32.58-.37.3-.08.71-.02,1.02-.02.52,0,1.47-.19,1.82.2.31.35.21.54.77.38.36-.1.6-.23,1-.13.05.5.08.7.65.54.29-.08.67-.32.99-.13.23.14.13.34.45.35.08,0,.65-.16.77-.17.55-.06,1.78-.6,1.95.09.11.45-.05.66.6.48.2-.06.4-.27.63-.18.24.09.09.16.19.33.1.18-.03.21.19.32.08.04.72,0,.79,0,.4-.04,2.19-.62,1.97.16.28.11.61-.07.87.05.31.14.23.45.44.6.2.14.87.01,1.09.01.83,0,1.9.22,2.73.02-.05.13-.13.24-.19.35,1.21.36,2.69-.1,3.96.03.57.06,1.03.41,1.62.43.75.02,1.32-.46,2.06-.59.65-.12,1.26.06,1.86.02.45-.03.79-.17,1.23-.27.22-.05.77-.06.97.05.15.08.19.26.32.33.54.27,1.16-.22,1.66-.33.22-.05.8-.15,1.02-.06.24.11.18.25.38.44.35.33,1.01.22,1.46.2.48-.02.79-.22,1.28-.21.54,0,1.07,0,1.61,0,.48,0,.99.05,1.47-.03.74-.13,1.49-.73,2.27-.6.41.07.62.36,1.02.43.21.04.45-.03.66-.02.41.03.8.18,1.21.22.87.09,1.77.4,2.54.78.67.33,1.4.47,2.06.82.36.19.64.47.98.68.38.24.81.26,1.24.46.7.32,1.48.48,2.14.84.58,1.37.7,3.35.39,5.39Z"/>
        <path class="cls-1" d="m15.72,29.57s0-.05,0-.08c0,.03,0,.06,0,.08Z"/>
        <path class="cls-1" d="m25.86,8.51c.08.03.14.08.19.13.02-.04.04-.08.07-.12-.09,0-.17,0-.26-.01Z"/>
      </g>
      <path class="cls-5" d="m81.78,17.7c-.66-.36-1.44-.52-2.14-.84-.43-.2-.85-.22-1.24-.46-.34-.22-.62-.49-.98-.68-.66-.36-1.4-.49-2.06-.82-.76-.38-1.67-.69-2.54-.78-.41-.04-.79-.19-1.21-.22-.21-.02-.45.05-.66.02-.4-.07-.61-.37-1.02-.43-.78-.13-1.53.48-2.27.6-.48.08-.99.03-1.47.03-.54,0-1.07,0-1.61,0-.49,0-.8.19-1.28.21-.45.02-1.11.13-1.46-.2-.2-.19-.14-.33-.38-.44-.22-.1-.79,0-1.02.06-.5.11-1.12.6-1.66.33-.13-.07-.18-.25-.32-.33-.2-.11-.75-.1-.97-.05-.43.1-.77.24-1.23.27-.61.04-1.21-.14-1.86-.02-.74.13-1.31.61-2.06.59-.59-.02-1.04-.37-1.62-.43-1.26-.13-2.74.33-3.96-.03.05-.11.13-.23.19-.35.08-.02.15-.04.23-.07,0-.12-.06-.17-.17-.13,0,.07-.03.14-.05.2-.82.2-1.9-.02-2.73-.02-.22,0-.89.13-1.09-.01-.21-.15-.13-.45-.44-.6-.26-.12-.6.06-.87-.05.22-.78-1.56-.2-1.97-.16-.07,0-.71.05-.79,0-.21-.11-.08-.15-.19-.32-.1-.17.04-.24-.19-.33-.24-.09-.43.12-.63.18-.65.18-.49-.03-.6-.48-.17-.69-1.41-.15-1.95-.09-.11.01-.68.17-.77.17-.32-.01-.22-.21-.45-.35-.32-.2-.7.04-.99.13-.57.16-.6-.04-.65-.54-.4-.1-.64.03-1,.13-.56.16-.46-.03-.77-.38-.34-.38-1.29-.2-1.82-.2-.31,0-.72-.06-1.02.02-.16.04-.44.36-.58.37-.23.01-.39-.17-.59-.26-.27-.11-.56-.08-.83-.17-.25-.08-.77-.29-.81-.58-.39-.09-.7-.16-.94-.21.14,0,.29,0,.44.01.08-.1.15-.2.25-.31.21-.22.37-.21.66-.25,0-.04.02-.08.42-.79.07.07.14.15.24.19.47.22,1.23.16,1.71.15,1.43,0,2.87-.03,4.29-.17-.31.1-.89.9-.45,1.11.29.14.9-.25,1.18-.3.34-.06.69.03,1.02-.04.15-.03.29-.12.44-.12.06.25-.09.51.16.62.24.11.64-.07.86-.15.28-.1.81-.41,1.11-.35.46.1.05.3.08.61.28.12.64-.08.89-.17.51-.17,1.19-.46,1.72-.25.1.31-.42.72,0,.92.14.07.56-.01.7-.01.48,0,.96,0,1.44,0,.63-.01.26.02.6.22.2.12.52.17.77.21.41.08,1.17-.13,1.47.12.15.12.08.31.3.39.13.05.42-.01.55-.01.44,0,.97-.1,1.39.01.32.09.56.29.94.3.5.02.71.16,1.16.35.04.02.08.04.13.05,3.78.07,8.64.03,14.65-.28,10.49-.54,16.61,1.55,18.36,5.59,0,.02.01.03.02.05Z"/>
      <path class="cls-3" d="m97.45,56.74c-2.28.21-4.97-.83-6.62-6-1.66-5.17-6.42-5.17-13.67-7.86-7.26-2.69-11.99-9.31-12.2-16.97-.02-.87.06-1.64.22-2.33.13.35.22.76.28.93.31.89.48,1.78.73,2.68.21.74.58,1.36.9,2.04.3-.15.17-.93.51-1.03.14.32.01.71.04,1.06.05.81.23,1.82.52,2.57.17.45.33.93.82.59.19-.14.34-.46.37-.69.47-.04.31.44.41.75.16.52.56,1.07.82,1.55.25.45.77,1.57,1.44,1.45.31-.06.45-.5.77-.44.18.26.14.57.28.81.12.14.27.25.45.33.39.3.77.62,1.14.94.54.41.85.4,1.48.38.36-.01.78-.08,1.08.12-.3-.19-.71-.77-.8-1.08.48-.37,1.65,1.15,2.02.36.17-.37-.2-.56-.24-.84-.05-.43.28-.58.55-.23-.15-.29-.11-.55-.11-.86,0-.36-.13-.38-.17-.6-.06-.36-.16-.95-.05-1.3.1-.33-.01-.33.37-.29.14.02.22.3.43.14.19-.14-.13-.65-.18-.8-.25-.78-.59-1.78-.59-2.64.61.39,1.14.06,1.03-.65-.07-.5-.59-.89-.46-1.44.08-.32.26-.42.48-.64.31-.31.68-.68.86-1.09.28-.65.13-1.47.14-2.14,0-.22,0-.44-.03-.65,1.83,4.98-.32,12.44,1.72,15.66,3.14,4.97,8.86,1.66,10.1,5.73,1.24,4.08,2.28,7.1,5.17,8.55,2.9,1.45,2.28,3.73,0,3.93Z"/>
      <path class="cls-3" d="m39.29,29.22c0,1.07,0,2.14,0,3.21,0,.82-.27,1.57-.21,2.38.04.51.56,1.29-.38,1.28-.25.52.64,1.25-.02,1.73-.25.19-.55.05-.84.09-.47.07-.42.15-.41.63,0,.3.11.73-.19.85-.26.1-.77-.21-1.05-.23-.53-.04-.5-.01-.67.41-.15.36-.08.66-.19,1.02-.48.03-.3-.34-.71.05-.4.38-.66,1.39-.7,1.92-.05.55.13,1.21-.03,1.73-1.04.04-.75,1.75-1.2,2.43-.19.28-.49.42-.68.7-.2.29-.35.68-.41,1.02-.32-.12-.47-.49-.79-.11-.33.4-.33,1.27-.44,1.76-.57-.01-.94,1.08-1.22,1.49-.21.32-.45.67-.61,1.01-.19.38-.3.81-.47,1.21-.11.26-.46.55-.36.87-.49,1.83-.66,2.19-.98,2.54-.17.18-.29.41-.46.58-.12.1-.24.18-.38.25-.08.11-.15.24-.19.38-.09.1-.39.35-.52.36-.14.01-.22.02-.26,0-1.6,2.03-2.03,4.59-3.2,4.59-1.24,0-6,.62-6-1.24s3.1-2.28,4.44-3.1c1.34-.83,8.81-19.66,8.66-25.45-.03-1.04.08-1.97.28-2.78.27.17.2-.08.48-.13.71-.13.67.52.59,1-.11.59-.61,1.59-.22,2.23.1-.07.18-.09.26-.19-.1.16-.13.31-.19.49-.1.3-.27.54-.38.84-.38.98-.24,2.26-.26,3.29.01-.02.02-.03.03-.05-.23.56-.23,1.68-.23,1.9,0,1.05.26,1.94.46,2.91.23-.03.41-.28.37-.52.21.16.16.46.37.53.09-.43.27-.85.4-1.27.16-.48.54-.84.67-1.3.07-.25,0-.95.43-.96.24,0,.52.54.78.63.27-.78-.25-1.72.3-2.44.28.1.5.4.79.54.28-.09.2-.56.24-.79.06-.43.08-.99.19-1.41.38-.02.71.65.99.3.22-.27-.03-1.44.04-1.75.58-.19,1.06.77,1.23,1.18-.08-.37.09-.62.15-.98.06-.39-.04-.87.24-1.21.67-.8.61.33.84.72.72-.62.42-1.98.65-2.79.06-.2.13-.43.22-.62.28-.61.35-1.08.42-1.74.05-.53.1-1.07.16-1.6.25.52.21,1.09.21,1.65Z"/>
      <path class="cls-1" d="m39.08,27.57c-.05.53-.1,1.06-.16,1.6-.06.66-.14,1.13-.42,1.74-.09.19-.17.43-.22.62-.23.81.07,2.17-.65,2.79-.24-.39-.17-1.52-.84-.72-.28.33-.17.82-.24,1.21-.06.35-.23.61-.15.98-.16-.41-.65-1.37-1.23-1.18-.07.31.18,1.48-.04,1.75-.29.35-.61-.32-.99-.3-.11.42-.13.98-.19,1.41-.03.23.05.7-.24.79-.29-.13-.51-.44-.79-.54-.55.72-.03,1.66-.3,2.44-.27-.09-.55-.64-.78-.63-.43.01-.36.71-.43.96-.13.47-.51.82-.67,1.3-.14.42-.32.83-.4,1.27-.21-.07-.16-.37-.37-.53.04.24-.13.49-.37.52-.2-.97-.46-1.86-.46-2.91,0-.21,0-1.34.23-1.9.13-.16.33-.1.38-.31-.17-.04-.29.09-.38.31-.01.01-.02.03-.03.05.03-1.03-.12-2.31.26-3.29.11-.29.28-.53.38-.84.06-.18.09-.33.19-.49-.07.1-.16.12-.26.19-.38-.64.11-1.64.22-2.23.09-.48.12-1.13-.59-1-.28.05-.2.3-.48.13.89-3.7,3.59-5.12,3.59-5.12,2.1-.94,3.6-.71,4.58.22,0,0,.02,0,.02,0,.67.28,1.41.95,1.77,1.61.01.02.02.05.04.07Z"/>
      <path class="cls-1" d="m80.34,25.66c-.17.41-.55.78-.86,1.09-.22.22-.4.32-.48.64-.13.55.39.93.46,1.44.1.72-.42,1.04-1.03.65,0,.85.34,1.85.59,2.64.05.15.37.66.18.8-.22.16-.29-.12-.43-.14-.38-.05-.27-.04-.37.29-.11.35,0,.94.05,1.3.04.22.16.24.17.6,0,.31-.03.57.11.86-.26-.34-.6-.2-.55.23.03.28.41.47.24.84-.37.79-1.54-.73-2.02-.36.09.31.5.89.8,1.08-.29-.2-.72-.13-1.08-.12-.63.02-.94.02-1.48-.38-.37-.33-.75-.64-1.14-.94-.18-.07-.33-.18-.45-.33-.14-.24-.1-.55-.28-.81-.31-.05-.46.38-.77.44-.67.12-1.19-.99-1.44-1.45-.26-.48-.66-1.03-.82-1.55-.1-.31.06-.78-.41-.75-.03.23-.17.55-.37.69-.49.34-.65-.14-.82-.59-.29-.75-.47-1.76-.52-2.57-.02-.34.1-.73-.04-1.06-.34.09-.2.87-.51,1.03-.33-.68-.69-1.3-.9-2.04-.25-.9-.42-1.79-.73-2.68-.06-.17-.15-.58-.28-.93,1.26-5.37,7.44-5.53,7.44-5.53,4.67.15,6.84,2.12,7.84,4.83,0,0,0,0,0,0,.02.21.03.43.03.65,0,.68.14,1.5-.14,2.14Z"/>
      <path class="cls-3" d="m18.53,8.91s-1.32-5.25-.75-7.64c.57-2.39,3.48,1.49,4.62,4.65,1.14,3.16-1.98,10.34-3.87,2.99Z"/>
      <path class="cls-1" d="m29.47,14.9c.03,1.04-.16,2.07-.42,3.07-.09.35-.09.73-.2,1.08-.09.29-.17.52-.22.82-.05.28-.08.41-.29.55-.11-.02-.19.03-.22.16-.08.22-.14.43-.18.66-.05.21-.08.43-.12.64-.04.16-.1.33-.11.5,0,.14.03.28-.01.41-.49,0-.76.65-.71,1.06,0,.03,0,.07.02.1-.13,0-.26,0-.41,0-.43,0-.84.04-1.26.1-.23.03-.38.11-.64.11-.1,0-.2,0-.3,0-.06,0-.1.04-.12.09-.13,0-.16-.02-.29-.08-.35-.17-.95-.56-1.34-.4-.02.16.08.63-.06.71-.29.17-.8-.52-.94-.68-.19-.21-.37-.79-.59-.35-.15.3-.02.63-.08.93-.41-.06-.54-.64-1.03-.36-.1.06-.15.2-.26.25-.2.09-.35-.04-.51-.13-.22-.13-.33-.14-.57-.16-.17-.02-.26-.09-.43-.13-.05-.01-.1-.03-.15-.05-.08-.14-.17-.27-.25-.41-.11-.17-.27-.31-.19-.52.34.13.67.38,1.02.47.23.05.48.02.72.02s.46.01.68,0c.18,0,.28-.11.45-.12.02-.12,0-.24.06-.35.05-.09.12-.1.16-.15.09-.1.08-.05.1-.2.02-.1-.02-.21,0-.31.02-.19.15-.31.11-.52-.04-.2-.31-.51-.2-.71.06,0,.12-.02.18-.02.12-.45-.58-.91-.84-1.15-.32-.3-.56-.65-.85-.96-.2-.21-.38-.54-.67-.57-.19-.02-.3.03-.47-.06-.16-.09-.32-.26-.48-.37-.18-.13-.35-.26-.53-.4-.2-.15-.5-.44-.75-.51-.13-.04-.3,0-.25.17-.1-.13-.23-.28-.36-.38-.21-.16-.49-.2-.72-.35-.33-.22-.39-.17-.55.25-.1.28-.07.55-.15.82-.11-.03-.22-.23-.3-.32-.12-.13-.35-.41-.53-.48-.43-.16-.33.12-.41.38-.09-.01-.31-.21-.4-.27-.08-.06-.11-.12-.19-.18-.16-.12-.38-.08-.55-.18-.12-.07-.37-.33-.55-.18-.16.14.07.22.1.38-.43-.19-1.1-.42-1.59-.26-.01.09-.02.19-.03.28-.29.07-.62-.06-.91.03-.07.14.08.23.17.31-.33-.07-.6-.22-.95-.23-.28,0-.52.08-.79.11-.27.03-.55-.02-.82,0-.72.04-1.47.4-2.15.64-.65.22-1.4.31-2.02.59-.12.05-.26.12-.35.2.02,0,.05.02.07.02-.68.32-.72.15-.82,0-.12-.02-.24-.03-.36-.03.11-.26.28-.5.54-.71.02,0,.03.01.05.02.28-.04.57-.23.84-.33.1-.03.13-.12.24-.14.15-.03.29.01.44-.03.2-.05.42-.25.66-.28.13-.02.26.02.39,0,.14-.03.24-.13.39-.15.27-.05.59.07.86.01.22-.05.43-.13.66-.19.16-.05.38-.16.54-.24.25-.11.42-.12.67-.19.83-.23,1.92-.33,2.63-.93.35-.29.77-.74.97-1.13.1-.19.31-.38.36-.58.04-.14-.01-.29.03-.44.03-.1.14-.17.15-.32.33-.04.54-.17.88-.2.05-.19-.07-.52.03-.67.08-.11.46-.21.61-.25.27-.06.4.03.48-.3.07-.28-.11-.5-.15-.76.58-.13,1.12.08,1.69-.22-.09-.15-.28-.18-.3-.39.33-.24.73-.15,1.11-.2.29-.04.59-.12.88-.16,0-.95,1.66-.6,2.2-.6.37,0,.59-.03.93-.12.52-.14,1.09.06,1.61.15.54.09.98.29,1.5.41.42.09.88.08,1.3.15.43.07.7.11.93-.3.12-.21.2-.41.21-.6.95.53,1.78,1.23,2.43,2.12.58.79.92,1.6,1.08,2.4.46.54.78,1.2.8,1.86Z"/>
      <path class="cls-4" d="m20.77,22.5c-.02.15-.02.11-.1.2-.05.05-.11.06-.16.15-.06.11-.05.23-.06.35-.17,0-.26.11-.45.12-.22.01-.45,0-.68,0s-.49.04-.72-.02c-.35-.08-.68-.34-1.02-.47-.09.21.08.35.19.52.08.13.17.27.25.41-.14-.05-.26-.07-.36.07-.07.11.02.26-.17.3-.11-.13-.27-.18-.4-.29-.1-.09-.12-.17-.25-.24-.24-.13-.35-.09-.51.09-.1.12,0,.18-.21.14-.14-.02-.42-.41-.5-.49-.13-.14-.33-.23-.45-.36-.1-.11-.13-.28-.27-.35-.11.06-.21.15-.26.26-.24-.07-.38-.35-.54-.54-.14-.16-.3-.33-.47-.46-.29-.23-.64-.38-.95-.51-.18-.08-.29-.13-.49-.13-.24,0-.4-.07-.62-.11-.18-.03-.38.03-.53.03-.21,0-.44-.03-.66-.03s-.41,0-.62.05c-.32.07-.55-.04-.88-.06-.42-.02-1.01-.08-1.42.03-.18.05-.33.17-.54.19-.2.01-.42-.04-.62,0-.16.02-.08.1-.29.1-.23,0-.49-.18-.73-.2-.19-.02-.43-.17-.62-.08.02.04.03.07.05.1-.15-.08-.42,0-.58-.04-.36-.09-.62-.24-.96-.42-.19-.1-.41-.17-.59-.28-.25-.16-.37-.5-.52-.76-.14-.23-.37-.53-.41-.81v.02c-.52.12-.76.19-.88.23-.04-.35-.01-.69.11-.99.12,0,.24.01.36.03.1.16.14.33.82,0-.02,0-.05-.02-.07-.02.09-.09.23-.15.35-.2.62-.28,1.37-.37,2.02-.59.68-.23,1.43-.6,2.15-.64.27-.02.55.04.82,0,.27-.03.51-.12.79-.11.35,0,.62.15.95.23-.1-.08-.24-.16-.17-.31.28-.1.62.04.91-.03.01-.09.02-.19.03-.28.49-.16,1.16.07,1.59.26-.04-.15-.27-.24-.1-.38.18-.15.43.11.55.18.17.1.39.06.55.18.08.06.11.13.19.18.08.06.31.26.4.27.08-.27-.02-.55.41-.38.17.07.41.35.53.48.08.09.2.29.3.32.08-.27.04-.54.15-.82.16-.42.22-.46.55-.25.23.15.51.19.72.35.13.1.26.25.36.38-.05-.17.12-.2.25-.17.24.07.55.36.75.51.18.13.34.27.53.4.16.11.32.28.48.37.17.09.28.04.47.06.29.03.47.35.67.57.3.31.53.66.85.96.26.24.96.7.84,1.15-.06,0-.12.01-.18.02-.12.2.16.51.2.71.04.2-.08.33-.11.52-.01.1.02.21,0,.31Z"/>
      <path class="cls-3" d="m26.28,25.29c.08.13.32.22.38.34.08.15,0,.12-.09.19-.15,0-.3,0-.45,0-.21,0-.41-.03-.61-.08-.24-.05-.45-.17-.68-.22-.3-.07-.52-.03-.61.29-.04.13.06.64-.04.71-.16.12-.6-.24-.82-.1-.13.08-.17.43-.02.53-.25,0-.48-.11-.72-.12-.03,0-.49-.02-.5,0-.07.06-.07.14-.02.23-.09-.07-.19-.14-.27-.22-.3-.28-.48-.65-.77-.94-.17-.17-.41-.26-.56-.44-.08-.09-.12-.21-.19-.31-.14-.19-.27-.25-.44-.05-.17.19-.08.51-.41.3-.17-.11-.4-.79-.61-.73.01.26-.15.23-.28.1-.08-.08-.11-.26-.16-.36-.11-.22-.23-.44-.37-.65.05.01.1.03.15.05.17.05.27.11.43.13.24.03.35.03.57.16.16.09.31.22.51.13.11-.05.16-.19.26-.25.49-.28.62.31,1.03.36.06-.31-.06-.64.08-.93.22-.44.4.14.59.35.14.17.65.85.94.68.14-.08.04-.55.06-.71.39-.16.99.23,1.34.4.13.06.16.08.29.08.02-.05.06-.08.12-.09.1,0,.2,0,.3,0,.26,0,.41-.07.64-.11.42-.06.83-.1,1.26-.1.16,0,.29,0,.41,0,.05.21.17.41.27.6-.28.12-.75-.13-1.01.03-.22.14-.08.54.03.71Z"/>
      <path class="cls-8" d="m20.91,27.17c.12.2.53.3.59.48-.54.16-1.21-.1-1.71-.26-.34-.11-.65-.27-.97-.45-.46-.26-.3.2-.33.52-.32.07-.99-.39-1.25-.57-.24-.16-.41-.47-.66-.61-.42-.24-.2.3-.28.53-.23-.16-.42-.41-.61-.62-.43-.49-.92-.9-1.44-1.3-1.31-.39-2.43-.77-4.12-.7-3.46.14-5.46,1.23-7.14-.79,1.45-.06,3.05-.28,4.59-.65,2.09-.51,3.59-.19,4.53.09-.05-.16-.1-.3-.16-.44-.09-.21-.15-.41-.2-.61-1.33-.26-3.36-.05-5.36.6-3.21,1.03-4.46-.51-4.46-.51-.6-.92-1.08-1.85-1.18-2.67.13-.04.36-.11.88-.23v-.02c.04.28.27.58.41.81.15.26.27.6.52.76.18.11.4.18.59.28.34.18.6.33.96.42.16.04.43-.04.58.04-.03-.03-.04-.06-.05-.1.19-.09.43.06.62.08.24.02.51.19.73.2.21,0,.13-.07.29-.1.2-.03.42.02.62,0,.21-.01.36-.14.54-.19.41-.11,1-.04,1.42-.03.34.01.56.13.88.06.21-.05.4-.05.62-.05s.44.04.66.03c.16,0,.36-.07.53-.03.22.04.38.11.62.11.2,0,.31.05.49.13.31.13.66.28.95.51.17.13.33.3.47.46.16.18.3.47.54.54.06-.11.15-.2.26-.26.14.07.17.24.27.35.12.13.32.22.45.36.08.08.37.47.5.49.21.04.11-.02.21-.14.16-.19.27-.23.51-.09.13.07.15.14.25.24.12.12.29.17.4.29.2-.04.1-.19.17-.3.09-.14.21-.11.36-.07.13.21.26.43.37.65.05.1.08.28.16.36.13.13.29.16.28-.1.2-.06.43.62.61.73.33.21.24-.12.41-.3.17-.19.31-.14.44.05.07.1.11.22.19.31.15.18.4.27.56.44.28.29.47.65.77.94.09.08.18.15.27.22.09.19.37.4.42.5-.32-.11-.66-.14-.97-.25-.18-.06-.42-.22-.62-.14Z"/>
      <path class="cls-5" d="m25.15,8.52c-.01.19-.09.38-.21.6-.23.41-.49.37-.93.3-.43-.07-.88-.05-1.3-.15-.52-.12-.96-.32-1.5-.41-.52-.09-1.09-.29-1.61-.15-.34.09-.56.12-.93.12-.54,0-2.2-.35-2.2.6-.29.05-.59.12-.88.16-.38.05-.78-.04-1.11.2.02.21.22.24.3.39-.56.3-1.11.08-1.69.22.04.25.22.47.15.76-.08.33-.21.24-.48.3-.15.03-.54.13-.61.25-.1.15.02.48-.03.67-.34.03-.55.16-.88.2,0,.15-.12.22-.15.32-.04.15,0,.3-.03.44-.05.19-.26.39-.36.58-.2.38-.61.83-.97,1.13-.72.6-1.8.7-2.63.93-.25.07-.42.07-.67.19-.16.07-.38.19-.54.24-.23.07-.44.15-.66.19-.27.06-.59-.06-.86-.01-.14.02-.25.12-.39.15-.13.03-.26-.02-.39,0-.23.04-.46.23-.66.28-.15.04-.29,0-.44.03-.11.02-.14.11-.24.14-.27.1-.56.29-.84.33-.02,0-.03-.01-.05-.02.32-.27.78-.49,1.39-.66,3.6-1.01,5.35-2.14,6.35-3.15s1.44-5.62,5.62-6.34c3.18-.55,7.36-.53,10.39,1.17Z"/>
      <path class="cls-1" d="m21.32,13.21s-2.02-3.34-.77-6.29c1.25-2.94,2.42-7.99,3.81-6.72s4.73,8.32,2.11,11.15c-2.62,2.83-4.44,3.42-5.15,1.85Z"/>
      <path class="cls-5" d="m21.7,11.42s-1.35-.98-.41-4.39c.93-3.42,1.24-5.9,2.02-4.97.78.93,2.81,4.31,2.75,6.58-.06,2.27-2.18,3.66-3.11,3.64s-1.24-.85-1.24-.85Z"/>
      <path class="cls-7" d="m2.79,16.84s-1.88-.24-2.61,1.21c-.72,1.45.95,2.9,1.3,1.86.35-1.03,2.87-2.62,1.3-3.07Z"/>
      <path class="cls-7" d="m7.58,22.75c-1.54.37-3.14.58-4.59.65-.07-.08-.14-.17-.21-.27-.29-.4-.59-.82-.86-1.24,0,0,1.26,1.54,4.46.51,3.21-1.03,6.46-.94,6.85.36.39,1.3-1.42-1.02-5.66,0Z"/>
      <g>
        <path class="cls-7" d="m11.92,12.78s1.4-.2,2.43,0c1.03.2,1.35.67,1.35.67,0,0-.98.36-1.19.78-.21.41-1.62.88-2.08.8,0,0-.92-.53-.51-2.24Z"/>
        <path class="cls-8" d="m12.1,13.05s-.26,1.17.34,1.69c0,0,1.36-.08,1.62-.88l.18-.56s-1.03-.38-2.14-.24Z"/>
        <path class="cls-7" d="m12.63,13.75c0,.27-.09.49-.19.49s-.19-.22-.19-.49.09-.49.19-.49.19.22.19.49Z"/>
        <path class="cls-6" d="m12.82,13.44c0-.11-.09-.19-.19-.19s-.19.09-.19.19.09.19.19.19.19-.09.19-.19Z"/>
      </g>
    </g>
  </g>
</svg>