<?xml version="1.0" encoding="UTF-8"?><svg data-name="Layer 2" xmlns="http://www.w3.org/2000/svg" viewBox="0 0 64.29 61.22"><defs/><g data-name="100"><g><path d="m23.18,34.37c-.39.09-.72-.12-1.1-.14.06.26.47.69.31.94-.09.14-.27.09-.43.08.01.76-.04,1.49-.15,2.18-1.08,6.64-4.1,16.83-3.38,18.95.17.51.21.96.13,1.36-.12-.05-.26-.1-.42-.12-.39-.05-.83.02-1.16-.24-.18-.14-.24-.49-.5-.48-.09.16-.14.33-.36.35-.15-.15-.15-.59-.47-.49-.21.06-.12.39-.39.42-.14.02-.32-.12-.48-.31.34-1.11-.24-2.84-.16-3.47.11-.95-.56-12.42-.52-15.66-.11-.14-.17-.36-.25-.56-.13-.32-.21-.85-.45-1.13-.05-.05-.2-.06-.23-.11-.04-.07-.01-.17-.05-.23-.12-.2-.28-.38-.4-.58-.26-.43-.5-.87-.72-1.32-.2.11-.43.25-.63.38-.14-.11-.15-.52-.19-.68-.08-.32-.13-.67-.22-1-.13-.53-.25-.97-.57-1.44-.13-.19-.31-.36-.43-.54-.14-.19-.22-.43-.34-.66-.16-.3-.28-.6-.41-.91-.13-.3-.36-.62-.44-.95-.13-.53-.02-1.06.13-1.57.13-.07.23-.15.32-.23.33-1.36,1.15-2.5,1.98-3.35-.05.39-.1.78-.11,1.18-.01.69-.14,1.57.04,2.25.11-.04.2-.13.25-.25.27.8-.18,1.72.18,2.53.13.29.41.65.76.36.36.39.39,1.27.53,1.73.2.65.51,1.23.79,1.85.42,0,.27-.41.58-.14.17.15.24.5.43.69.19.18.38.37.58.53.25.2.31.23.44.5.18.38.2.76.31,1.16.24.04.49-.02.73,0,.18.48-.16,1.09.02,1.56.07.2.21.21.31.38.06.1.01.39.01.48,0,.45,0,.9,0,1.35,0,.21-.02.44.01.65.04.26.15.13.16.56.03.83-.31,1.7-.14,2.51.01.07.12.22.13.35.02.44-.07.9.02,1.34.1.52.31.3.68.26.17-.02.14-.06.32.01.15.06.18.2.35.22.26-.55.32-1.19.51-1.77.12-.35.09-.77.25-1.11.09-.19.25-.29.34-.46.42-.79.19-2.07.18-2.91,0-.32-.09-.78.09-1.05.1-.16.27-.15.36-.36.17-.37.02-.94-.07-1.3-.06-.3-.47-1.13-.34-1.39.19-.42.78-.03,1.05-.39.1-.14-.15-.89-.15-1.14,0-.47-.11-.66.4-.94.23-.13.48-.21.74-.28.22.28.65.64.75.97-.16.03-.31-.03-.47.01-.13.61,1.09,1.02.93,1.57Z" style="stroke-width:0px;fill:#261d13"/><path d="m18.56,57.74c-.26,1.26-1.7,1.96-3.62,1.96-2.53,0-4.41-.43-4.89-.43s-3.98.96-2.53,0c1.45-.96,2.05-1.88,5.31-1.44,1.23.16,1.77-.28,1.97-.95.16.18.34.32.48.31.27-.03.17-.36.39-.42.32-.1.32.34.47.49.21-.02.27-.19.36-.35.26,0,.32.34.5.48.33.25.76.19,1.16.24.16.02.3.06.42.12Z" style="stroke-width:0px;fill:#3a2d21"/><path d="m20.83,33.05c0,.25.25,1,.15,1.14-.27.37-.86-.03-1.05.39-.12.26.28,1.1.34,1.39.08.37.24.93.07,1.3-.1.21-.26.2-.36.36-.18.27-.09.73-.09,1.05,0,.84.24,2.12-.18,2.91-.09.18-.26.27-.34.46-.16.34-.13.75-.25,1.11-.19.58-.25,1.21-.51,1.77-.18-.02-.21-.16-.35-.22-.17-.07-.14-.03-.32-.01-.38.04-.58.25-.68-.26-.09-.44,0-.9-.02-1.34,0-.14-.12-.29-.13-.35-.16-.81.17-1.69.14-2.51-.01-.43-.12-.3-.16-.56-.03-.2-.02-.43-.01-.65,0-.45,0-.9,0-1.35,0-.08.05-.38-.01-.48-.1-.17-.24-.18-.31-.38-.17-.47.16-1.08-.02-1.56-.24-.03-.49.04-.73,0-.11-.4-.13-.77-.31-1.16-.12-.27-.19-.3-.44-.5-.2-.16-.4-.35-.58-.53-.19-.19-.26-.54-.43-.69-.31-.27-.16.14-.58.14-.29-.61-.59-1.2-.79-1.85-.14-.45-.17-1.34-.53-1.73-.35.29-.63-.07-.76-.36-.36-.81.09-1.74-.18-2.53-.05.12-.14.21-.25.25-.18-.67-.05-1.56-.04-2.25,0-.4.07-.79.11-1.18,1.11-1.13,2.23-1.76,2.23-1.76,1.67-.26,3.39.99,4.84,2.99.02.02.05.04.07.07.66.58.87,1.34,1.4,1.99.31.38.55.63.75,1.07.18.39.39.77.54,1.16.15.41.8,2.02.26,2.25.03.37.4.8.61,1.11.02.02.03.05.05.07-.26.07-.51.15-.74.28-.51.28-.4.48-.4.94Z" style="stroke-width:0px;fill:#45351c"/><path d="m58.98,20.8c-.11.02-.2.07-.27.16-.15.2-.02.61-.04.84-.04.62-.28,1.29-.44,1.89-.11.4-.4.63-.47,1.03-.07.42.04,1.05-.63.99-.4.63-.13,1.58-.24,2.26-.34.21-.69-.05-1.03-.12-.28.61-.29,1.35-.41,1.99-.07.35-.04.8-.49.77-.23-.01-.47-.27-.71-.14-.18.1-.14.4-.17.55-.32.11-.59-.11-.9-.14-.04.34.05,1.29-.32,1.47-.31.14-.92-.08-1.25-.02-.69.12-.29,1.75-.32,2.26-.01.23-.03.39-.18.58-.1.13-.25.19-.32.35-.12.31.01.98.02,1.29,0,.36.02.72.01,1.07-.01.4.04.62-.36.69-.45.08-.54-.16-.67.34-.07.28-.09.57-.15.86-.03.14-.16.93-.4,1.06-.23-.08-.51-.34-.76-.24-.1.39-.25.77-.37,1.16-.26-.06-.55-.62-.72-.83-.12-.14-.39-.57-.63-.63-.05.09-.13.17-.21.23-.38-.21-.67-.88-1.06-.98-.31-.07-.49.11-.75-.12-.24-.2-.27-.34-.59-.46-.02,0-.05-.02-.07-.02v-.03c0-.5.15-.95.29-1.43.12-.42.13-.84.29-1.23.28-.67.46-1.42.66-2.12.18-.62.41-1.29.48-1.92.05-.43-.04-.87.03-1.29.06-.34.23-.64.35-.96.12-.32,0-.23-.05-.53-.05-.32.3-.75.38-1.08.07-.28.04-.53.06-.8.04-.62.45-1.03.73-1.55.13-.25.33-.46.49-.69.48-1.79.83-3.05.83-3.05,1.93-5.23,5.47-3.07,8.83-2.18.63.17,1.14.41,1.51.72Z" style="stroke-width:0px;fill:#261d13"/><path d="m48.64,59.54c-2.35.02-5.28-.11-6.85-.01-1.57.1-3.34-.29-1.98-.92,1.36-.63,3.5-2.01,5.38-1.58,1.34.31,2.45.47,2.79-.46.1.09.19.2.24.31.22-.11.15-.54.53-.56.31.55.63.24,1.04.5.19.12.1.35.4.37.18.01.38-.16.51-.25.12.08.34.32.47.35.33.08.35-.11.59-.27.25-.16.55-.16.85-.15.36,2.22-1.74,2.66-3.99,2.67Z" style="stroke-width:0px;fill:#3a2d21"/><path d="m59.77,24.71c0,.48,0,.9-.15,1.37-.21.64-.61,1.19-.63,1.86-.01.36-.03.54-.22.85-.28.33-.46.69-.56,1.1,0,.14,0,.27-.01.41-.11.36-.16.17-.44.51-.23.28-.16.64-.2.96-.18.02-.48-.1-.63.04-.23.2.08.68-.26.8-.29.1-.59-.31-.81-.04-.16.19.18.81.33.96-.16.3-.83.31-.93.57-.08.22.18.21.09.43-.19.06-.62.09-.71.24-.11.19.16.4.19.6.07.57-.62.16-1,.37,0,.12-.02.24-.03.36-.24.1-.5-.1-.71.06.1.37.29.7.16,1.09-.11.32-.19,0-.19.44,0,.34.72,1.48-.15,1.45-.14.36-.03.87-.03,1.25v2c0,.68,0,1.37,0,2.05,0-.08-.05-.12-.13-.1-.08.62-.2,1.24-.2,1.86,0,.41-.05.83.03,1.24.08.46.31.91.27,1.38-.19-.08-.26-.25-.31-.43.12,1.49.01,3.05.01,4.55,0,.78,0,1.55,0,2.33,0,.24.15.89-.04,1.1.01.06.02.12.04.17.03.11.05.22.07.32-.3-.01-.6-.01-.85.15-.25.16-.26.35-.59.27-.13-.03-.35-.27-.47-.35-.13.09-.33.27-.51.25-.31-.02-.21-.25-.4-.37-.42-.26-.73.05-1.04-.5-.38.02-.31.45-.53.56-.05-.11-.14-.22-.24-.31.12-.31.15-.74.08-1.32-.09-.12-.19-.25-.25-.38-.27-.55-.41-1.25-.54-1.85-.09-.42-.31-.79-.4-1.21-.1-.45-.11-.9-.18-1.36-.08-.54-.31-1.07-.39-1.59-.07-.47-.06-.96-.13-1.44-.23-1.7-.73-3.33-1.1-5-.17-.79-.44-1.57-.82-2.29-.2-.38-.15-.74-.15-1.18.02,0,.05.01.07.02.32.11.36.25.59.46.27.23.44.05.75.12.4.09.68.76,1.06.98.09-.06.16-.14.21-.23.24.06.52.49.63.63.17.21.46.76.72.83.12-.39.26-.77.37-1.16.26-.1.53.16.76.24.24-.13.37-.92.4-1.06.06-.29.08-.58.15-.86.13-.49.22-.26.67-.34.39-.07.34-.29.36-.69,0-.36-.01-.72-.01-1.07,0-.31-.13-.98-.02-1.29.06-.16.21-.22.32-.35.15-.19.16-.35.18-.58.03-.51-.37-2.13.32-2.26.33-.06.94.16,1.25.02.37-.17.28-1.13.32-1.47.31.03.58.25.9.14.03-.15-.01-.46.17-.55.24-.13.48.13.71.14.45.03.42-.43.49-.77.13-.65.14-1.38.41-1.99.34.07.69.33,1.03.12.11-.69-.16-1.63.24-2.26.67.06.56-.57.63-.99.07-.4.36-.63.47-1.03.16-.61.4-1.27.44-1.89.01-.23-.12-.63.04-.84.07-.09.16-.14.27-.16.76.62,1.01,1.55.83,2.8.03.37-.04.8-.04,1.11Z" style="stroke-width:0px;fill:#261d13"/><path d="m63.68,30.61c-.2.4.75,1.9.32,2.04-.03.42.23.82.12,1.25-.28.1-.49-.21-.78-.14.03.6.57.99.68,1.57-.44-.09-.85-.26-1.3-.35.14.36.86.85.81,1.21-.07.51-1.08-.06-1.32-.16-.29.34-.06.93-.12,1.34-.3-.05-.58-.33-.81-.5-.29.14-.04.52-.15.76-.15-.12-.23-.31-.43-.33-.03.34.03.69-.03,1.02-.4-.1-.52-.64-.95-.65-.15.12-.17.46-.21.63-.04.17-.04.39-.1.57-.59-.21-1.17-.76-1.83-.55,0,.95-1.87-1.1-1.77-.05-.35.06-.76-.29-1.08-.38-.27-.08-.51-.05-.78-.06-.22,0-.4-.08-.61-.12-.22,0-.44-.05-.65-.12-.12-.09-.24-.16-.38-.21-.54-.14-.32.39-.7.46-.58.11-1.21-.88-1.71-.8-.07.25,0,.5-.04.74-.26-.15-.41-.48-.6-.7-.08-.1-.61-.84-.81-.82-.28.03-.28.42-.57.46-.28-.59-.47-1.3-.82-1.85-3.73-1.95-3.69-5.33-3.69-5.33-1.49-8.09,8.08-9.47,12.15-9.47,2.81,0,4.65.67,5.73,2.37.12.04.25.09.39.14.14.06.25.04.38.13.16.11.28.37.4.52.16.19.47.43.21.67.36.44.37.84.21,1.35-.05.18-.15.06-.01.34.16.31.52.47.71.76.23.36-.01.42.05.73.05.26.38.46.53.66.27.35.22.6.03.96-.41-.02-.61-.16-.99-.27.77.54,1.24,1.19.96,2.17-.14,0-.28,0-.43,0Z" style="stroke-width:0px;fill:#a89688"/><path d="m61.76,21.06c-.01.19-.09.24-.13.37-.04.15-.03.26-.03.42-.02.53-.12,1.04-.15,1.57-.02.4.08.79-.16,1.08-.06.07-.16.04-.23.14-.1.13-.08.32-.09.48-.05.78-.2,1.5-.4,2.26-.1.38-.09,1.01-.32,1.33-.25.35-.72.41-.92.85-.2.44-.12.58-.63.77-.36.13-.7.19-1.01.41-.57.39-1.14.57-1.81.71-.43.09-.89.11-1.31.24-.21.06-.42.13-.63.19-.1-.86-.32-1.69-.74-2.45-.43-.78-1-1.68-1.82-2.11-.62-.32-1.34-.32-2.01-.28-.73.04-1.35.33-2,.64-.36.18-.82.3-1.16.53-.37.25-.68.84-1.17.71-.18-.05-.35-.34-.54-.32-.14.01-.09.15-.18.19-.24.12-.11.2-.36.06-.18-.1-.24-.39-.39-.55-.63.05-.39,1.02-.49,1.39-.06.25-.77,1.25-1.06,1.3-.07-.42-.14-.84-.15-1.27-.3.48-1.22,1.36-1.76,1.45-.08-.59.23-1.43-.13-1.94-.44.04-.69.63-.85.98-.3.02-.34-.55-.7-.53-.46.03-.33.79-.82.8-.35-.54-.76-.66-1.22-.31-.16-.22-.46-.33-.66-.52-.17-.22-.38-.4-.62-.55-.11-.06-.21-.05-.29.04-.37-.03-.55-.17-.91-.39-.2-.12-1.45-.85-1.62-.58.24.41.94,1.19.78,1.71-.41-.08-1.24-.84-1.63-.68-.24.1-.08.64-.12.84-.43-.07-.85-.6-1.16-.89-.43-.4-.84-.83-1.34-1.15-.1.46.21,1.14-.03,1.55-.42-.24-.78-.56-1.16-.85-.24-.18-.72-.59-1.05-.57-.46.04-.12.33-.32.63-.32-.03-.59-.35-.88-.48-.19-.08-.69-.32-.94-.3-.06.29.08.62-.03.9-.22-.19-.31-.27-.6-.28-.45-.02-.62-.01-1.04-.25-.69-.39-1.38-.8-2.07-1.18-.15-.09-.34-.24-.5-.29-1.44.77-1.47,1.18-1.56,1.41-.16.4-.37.58-.81.67-.63.13-1.04.13-1.42.7-.87,1.3-.8,3-.77,4.54-.65-.34-1.18-.76-1.59-1.26-4.82-5.85-4.85-16.46-4.61-20.93.16-3.12,2-7.38,3.09-9.66.1.03.2.05.31.08,0-.04.02-.09.03-.13.81-.29,1.58.65,2.17,1.04.02-.17-.1-.52.08-.6.28-.13.41.51.7.51.32,0,.34-.5.63-.54.31-.04.54.6.67.81.59-.24.84-.59,1.25.16.09.17.28.66.51.64.12,0,.08-.17.18-.23.41-.24.51.17.7.51.31.55.98.45,1.25,1.15.16.42.08,1.06.62,1.2.39.11.36-.03.56.41.2.45.42,1.01.7,1.41.18.27.49.4.71.63.32.33.27.81.42,1.23.2.56.34,1.1.51,1.68.52,1.84,1.85,3.12,3.67,3.63.06.34,0,.5.33.73.27.19.62.26.92.09.37.44.41.48.95.25.46-.19.72-.21,1.09.16.27.27.39.38.78.45.7.12,1.31.09,2.02.35.22.08.34.17.58.14.09-.01.16-.06.23-.13.15-.02.3,0,.44.06.44.08.91.32,1.38.24.21-.03.39-.12.6-.16.75-.15,1.45.24,2.17.31.51.05,1.04-.04,1.55-.02.9.04,1.78.3,2.68.33.82.03,1.71.06,2.52-.05.81-.1,1.52.05,2.32.04.56,0,1.13,0,1.69,0,.66,0,1.26.14,1.91.16.84.04,1.69-.01,2.53,0,.41,0,.74-.13,1.14-.17.34-.03.66.05,1-.02.26-.05.52-.18.79-.25.32-.08.61-.18.94-.21,0-.23.09-.49.34-.56.31.16.18.53.5.61.16-.02.31-.07.45-.16.14-.03.25.02.34.14.16.15.32.15.49,0,.24-.2.48-.41.72-.62.06.41.09,1.03,0,1.86.08.15.13.31.16.5.06.3.02.73,0,1.04Z" style="stroke-width:0px;fill:#45351c"/><path d="m53.94,31.86c-.31.1-.62.19-.94.28-.71.19-1.46.45-2.12.79-.36.18-.67.43-1.06.54-.97.27-2.03.29-3.02.49-.23.05-.82.03-.97.16-.16.14-.16.41-.22.6-.55.19-1.16-.54-1.68-.27-.38.19-.33.76-.56,1.06-.43,0-2-.53-1.84.46-.52.05-1.01-.47-1.55-.3-.04.26.03.52-.01.78-.45.21-.93-.5-1.4-.3-.03.13,0,.28.01.41-.55-.32-1.27-.61-1.89-.34-.35.15-.61.3-.45.72-.38.38-1.55-.54-1.21.45.36,1.03-1.06.04-1.47.2.1.18.47.37.43.6-.4.26-1.18.2-1.63.16-.46-.04-.9-.53-1.32-.48-.07.26.03.53-.01.79-.45-.14-.98-1.06-1.5-.97-.38.06-.12.54-.36.81-.46-.06-.83-.86-1.28-.57-.41.26-.28,1.05-.57,1.36-.13-.4-.55-1.39-1-1.47-.28-.05-.48.3-.63.47-.26-.17-1.05-.94-1.38-.74-.05.29-.04.6,0,.89-.52-.53-1.2-.84-1.78-1.29-.47-.36-.86-.6-1.43-.79-.5-.16-.93-.47-1.42-.7-.42-.2-.87-.32-1.29-.51-1.05-.23-1.97-.54-2.74-.95-.03-1.54-.1-3.24.77-4.54.38-.57.79-.57,1.42-.7.45-.09.65-.27.81-.67.09-.23.13-.64,1.56-1.41.16.05.35.2.5.29.7.39,1.38.79,2.07,1.18.42.24.59.23,1.04.25.29.01.38.09.6.28.11-.28-.03-.61.03-.9.25-.02.75.22.94.3.3.13.57.45.88.48.2-.31-.14-.6.32-.63.33-.03.82.39,1.05.57.39.29.74.61,1.16.85.24-.41-.07-1.08.03-1.55.5.32.91.75,1.34,1.15.31.29.73.82,1.16.89.03-.2-.12-.74.12-.84.39-.16,1.22.6,1.63.68.17-.52-.54-1.3-.78-1.71.17-.27,1.42.45,1.62.58.36.22.54.35.91.39.08-.09.17-.1.29-.04.24.15.44.33.62.55.2.19.49.3.66.52.46-.35.87-.23,1.22.31.49-.01.36-.78.82-.8.36-.02.4.55.7.53.16-.35.42-.94.85-.98.36.51.06,1.35.13,1.94.54-.09,1.46-.97,1.76-1.45,0,.43.08.85.15,1.27.29-.05,1-1.04,1.06-1.3.1-.37-.14-1.34.49-1.39.15.16.21.45.39.55.25.14.11.06.36-.06.08-.04.04-.17.18-.19.2-.02.37.27.54.32.49.14.8-.46,1.17-.71.34-.23.8-.35,1.16-.53.65-.31,1.27-.59,2-.64.67-.04,1.4-.04,2.01.28.83.43,1.39,1.32,1.82,2.11.42.75.64,1.59.74,2.45Z" style="stroke-width:0px;fill:#352818"/><path d="m61.59,17.65c-.24.21-.48.41-.72.62-.17.15-.33.15-.49,0-.08-.13-.2-.18-.34-.14-.14.09-.29.14-.45.16-.32-.09-.19-.45-.5-.61-.25.07-.33.33-.34.56-.33.03-.62.13-.94.21-.26.07-.53.2-.79.25-.34.07-.66,0-1,.02-.4.04-.73.17-1.14.17-.84,0-1.69.04-2.53,0-.65-.03-1.26-.17-1.91-.16-.56,0-1.13,0-1.69,0-.8,0-1.51-.14-2.32-.04-.81.1-1.7.07-2.52.05-.9-.03-1.79-.29-2.68-.33-.51-.02-1.04.06-1.55.02-.72-.07-1.42-.46-2.17-.31-.21.04-.39.13-.6.16-.47.08-.93-.16-1.38-.24-.14-.07-.29-.09-.44-.06-.06.07-.14.11-.23.13-.24.03-.36-.06-.58-.14-.71-.26-1.32-.23-2.02-.35-.4-.07-.51-.17-.78-.45-.37-.37-.63-.35-1.09-.16-.54.23-.58.19-.95-.25-.3.17-.64.1-.92-.09-.33-.22-.27-.38-.33-.73-1.82-.51-3.15-1.79-3.67-3.63-.16-.58-.31-1.12-.51-1.68-.14-.42-.1-.9-.42-1.23-.22-.24-.53-.36-.71-.63-.27-.4-.49-.96-.7-1.41-.2-.43-.18-.3-.56-.41-.54-.15-.45-.78-.62-1.2-.27-.7-.94-.59-1.25-1.15-.19-.34-.29-.75-.7-.51-.09.06-.06.22-.18.23-.22.02-.42-.47-.51-.64-.41-.75-.66-.4-1.25-.16-.13-.21-.36-.85-.67-.81-.29.04-.31.54-.63.54-.29,0-.42-.63-.7-.51-.18.08-.06.43-.08.6-.58-.39-1.35-1.33-2.17-1.04,0,.04-.02.09-.03.13-.11-.03-.22-.05-.31-.08.47-.98.8-1.59.8-1.59l.73.73.35-.73.56.73.46-.73.48.73.38-.37s7.37,2.65,8.93,8.72c1.57,6.07,1.25,5.35,14.89,7.2,13.64,1.85,18.18,0,18.18,0,0,0,.47-2.23,2.19-3.79l-.78,3.06,1.72-.94-.94,1.96.94-.31s.09.21.15.65Z" style="stroke-width:0px;fill:#594224"/><path d="m25.39,35.9c-.39.09-.72-.12-1.1-.14.06.26.47.69.31.94-.09.14-.27.09-.43.08.01.76-.04,1.49-.15,2.18-1.08,6.64-4.1,16.83-3.38,18.95.17.51.21.96.13,1.36-.12-.05-.26-.1-.42-.12-.39-.05-.83.02-1.16-.24-.18-.14-.24-.49-.5-.48-.09.16-.14.33-.36.35-.15-.15-.15-.59-.47-.49-.21.06-.12.39-.39.42-.14.02-.32-.12-.47-.31.34-1.11-.24-2.84-.16-3.47.11-.95-.56-12.42-.52-15.66-.11-.14-.17-.36-.25-.56-.13-.32-.21-.85-.45-1.13-.05-.05-.2-.06-.23-.11-.04-.07-.01-.17-.05-.23-.12-.2-.28-.38-.4-.58-.26-.43-.5-.87-.72-1.32-.2.11-.43.25-.63.38-.14-.11-.15-.52-.19-.68-.08-.32-.13-.67-.22-1-.13-.53-.25-.97-.57-1.44-.13-.19-.31-.36-.43-.54-.14-.19-.22-.43-.34-.66-.16-.3-.28-.6-.41-.91-.13-.3-.36-.62-.44-.95-.13-.53-.02-1.06.13-1.57.13-.07.23-.15.32-.23.33-1.36,1.15-2.5,1.98-3.35-.05.39-.1.78-.11,1.18-.01.69-.14,1.57.04,2.25.11-.04.2-.13.25-.25.27.8-.18,1.72.18,2.53.13.29.41.65.76.36.36.39.39,1.27.53,1.73.2.65.51,1.23.79,1.85.42,0,.27-.41.58-.14.17.15.24.5.43.69.19.18.38.37.58.53.25.2.31.23.44.5.18.38.2.76.31,1.16.24.04.49-.02.73,0,.18.48-.16,1.09.02,1.56.07.2.21.21.31.38.06.1.01.39.01.48,0,.45,0,.9,0,1.35,0,.21-.02.44.01.65.04.26.15.13.16.56.03.83-.31,1.7-.14,2.51.01.07.12.22.13.35.02.44-.07.9.02,1.34.1.52.31.3.68.26.17-.02.14-.06.32.01.15.06.18.2.35.22.26-.55.31-1.19.51-1.77.12-.35.09-.77.25-1.11.09-.19.25-.29.34-.46.42-.79.19-2.07.18-2.91,0-.32-.09-.78.09-1.05.1-.16.27-.15.36-.36.17-.37.02-.94-.07-1.3-.06-.3-.47-1.13-.34-1.39.19-.42.78-.03,1.05-.39.1-.14-.15-.89-.15-1.14,0-.47-.11-.66.4-.94.23-.13.48-.21.74-.28.22.28.65.64.75.97-.16.03-.31-.03-.47.01-.13.61,1.09,1.02.93,1.57Z" style="stroke-width:0px;fill:#352818"/><path d="m20.77,59.26c-.26,1.26-1.7,1.96-3.62,1.96-2.53,0-4.41-.43-4.89-.43s-3.98.96-2.53,0,2.05-1.88,5.31-1.44c1.23.16,1.77-.28,1.97-.95.16.18.34.32.47.31.27-.03.17-.36.39-.42.32-.1.32.34.47.49.21-.02.27-.19.36-.35.26,0,.32.34.5.48.33.25.76.19,1.16.24.16.02.3.06.42.12Z" style="stroke-width:0px;fill:#534230"/><path d="m23.04,34.57c0,.25.25,1,.15,1.14-.27.37-.86-.03-1.05.39-.12.26.28,1.1.34,1.39.08.37.24.93.07,1.3-.1.21-.26.2-.36.36-.18.27-.09.73-.09,1.05,0,.84.24,2.12-.18,2.91-.09.18-.26.27-.34.46-.16.34-.13.75-.25,1.11-.19.58-.25,1.21-.51,1.77-.18-.02-.21-.16-.35-.22-.17-.07-.14-.03-.32-.01-.38.04-.58.25-.68-.26-.09-.44,0-.9-.02-1.34,0-.14-.12-.29-.13-.35-.16-.81.17-1.69.14-2.51-.01-.43-.12-.3-.16-.56-.03-.2-.02-.43-.01-.65,0-.45,0-.9,0-1.35,0-.08.05-.38-.01-.48-.1-.17-.24-.18-.31-.38-.17-.47.16-1.08-.02-1.56-.24-.03-.49.04-.73,0-.11-.4-.13-.77-.31-1.16-.12-.27-.19-.3-.44-.5-.2-.16-.4-.35-.58-.53-.19-.19-.26-.54-.43-.69-.31-.27-.16.14-.58.14-.29-.61-.59-1.2-.79-1.85-.14-.45-.17-1.34-.53-1.73-.35.29-.63-.07-.76-.36-.36-.81.09-1.74-.18-2.53-.05.12-.14.21-.25.25-.18-.67-.05-1.56-.04-2.25,0-.4.07-.79.11-1.18,1.11-1.13,2.23-1.76,2.23-1.76,1.67-.26,3.39.99,4.84,2.99.03.02.05.04.07.07.66.58.87,1.34,1.4,1.99.31.38.55.63.75,1.07.18.39.39.77.54,1.16.15.41.8,2.02.26,2.25.03.37.4.8.61,1.11.02.02.03.05.05.07-.26.07-.51.15-.74.28-.51.28-.4.48-.4.94Z" style="stroke-width:0px;fill:#45351c"/><path d="m61.19,22.32c-.11.02-.2.07-.27.16-.15.2-.02.61-.04.84-.04.62-.28,1.29-.44,1.89-.11.4-.4.63-.47,1.03-.07.42.04,1.05-.63.99-.4.63-.13,1.58-.24,2.26-.34.21-.69-.05-1.03-.12-.28.61-.29,1.35-.41,1.99-.07.35-.04.8-.49.77-.23-.01-.47-.27-.71-.14-.18.1-.14.4-.17.55-.32.11-.59-.11-.9-.14-.04.34.05,1.29-.32,1.47-.31.14-.92-.08-1.25-.02-.69.12-.29,1.75-.32,2.26-.01.23-.03.39-.18.58-.1.13-.25.19-.32.35-.12.31.01.98.02,1.29,0,.36.02.72.01,1.07-.01.4.04.62-.36.69-.45.08-.54-.16-.67.34-.07.28-.09.57-.15.86-.03.14-.16.93-.4,1.06-.23-.08-.51-.34-.76-.24-.1.39-.25.77-.37,1.16-.26-.06-.55-.62-.72-.83-.12-.14-.39-.57-.63-.63-.05.09-.13.17-.21.23-.38-.21-.67-.88-1.06-.98-.31-.07-.49.11-.75-.12-.24-.2-.27-.34-.59-.46-.02,0-.05-.02-.07-.02v-.03c0-.5.15-.95.29-1.43.12-.42.13-.84.29-1.23.28-.67.46-1.42.66-2.12.18-.62.41-1.29.48-1.92.05-.43-.04-.87.03-1.29.06-.34.23-.64.35-.96.12-.32,0-.23-.05-.53-.05-.32.3-.75.38-1.08.07-.28.04-.53.06-.8.04-.62.45-1.03.73-1.55.13-.25.33-.46.49-.69.48-1.79.83-3.05.83-3.05,1.93-5.23,5.47-3.07,8.83-2.18.63.17,1.14.41,1.51.72Z" style="stroke-width:0px;fill:#45351c"/><path d="m50.85,61.06c-2.35.02-5.28-.11-6.85-.01-1.57.1-3.34-.29-1.98-.92,1.36-.63,3.5-2.01,5.38-1.58,1.34.31,2.45.47,2.79-.46.1.09.19.2.24.31.22-.11.15-.54.53-.56.31.55.63.24,1.04.5.19.12.1.35.4.37.18.01.38-.16.51-.25.12.08.34.32.47.35.33.08.35-.11.59-.27.25-.16.55-.16.85-.15.36,2.22-1.74,2.66-3.99,2.67Z" style="stroke-width:0px;fill:#534230"/><path d="m61.98,26.23c0,.48,0,.9-.15,1.37-.21.64-.61,1.19-.63,1.86-.01.36-.03.54-.22.85-.28.33-.46.69-.56,1.1,0,.14,0,.27-.01.41-.11.36-.16.17-.44.51-.23.28-.16.64-.2.96-.18.02-.48-.1-.63.04-.23.2.08.68-.26.8-.29.1-.59-.31-.81-.04-.16.19.18.81.33.96-.16.3-.83.31-.93.57-.08.22.18.21.09.43-.19.06-.62.09-.71.24-.11.19.16.4.18.6.07.57-.62.16-1,.37,0,.12-.02.24-.03.36-.24.1-.5-.1-.71.06.1.37.29.7.16,1.09-.11.32-.19,0-.19.44,0,.34.72,1.48-.15,1.45-.14.36-.03.87-.03,1.25v2c0,.68,0,1.37,0,2.05,0-.08-.05-.12-.13-.1-.08.62-.2,1.24-.2,1.86,0,.41-.05.83.03,1.24.08.46.31.91.27,1.38-.19-.08-.26-.25-.31-.43.12,1.49.01,3.05.01,4.55,0,.78,0,1.55,0,2.33,0,.24.15.89-.04,1.1.01.06.02.12.04.17.03.11.05.22.07.32-.3-.01-.6-.01-.85.15-.25.16-.26.35-.59.27-.13-.03-.35-.27-.47-.35-.13.09-.33.27-.51.25-.31-.02-.21-.25-.4-.37-.42-.26-.73.05-1.04-.5-.38.02-.31.45-.53.56-.05-.11-.14-.22-.24-.31.12-.31.15-.74.08-1.32-.09-.12-.19-.25-.25-.38-.27-.55-.41-1.25-.54-1.85-.09-.42-.31-.79-.4-1.21-.1-.45-.11-.9-.18-1.36-.08-.54-.31-1.07-.39-1.59-.07-.47-.06-.96-.13-1.44-.23-1.7-.73-3.33-1.1-5-.17-.79-.44-1.57-.82-2.29-.2-.38-.15-.74-.15-1.18.02,0,.05.01.07.02.32.11.36.25.59.46.27.23.44.05.75.12.4.09.68.76,1.06.98.09-.06.16-.14.21-.23.24.06.52.49.63.63.17.21.46.76.72.83.12-.39.26-.77.37-1.16.26-.1.53.16.76.24.24-.13.37-.92.4-1.06.06-.29.08-.58.15-.86.13-.49.22-.26.67-.34.39-.07.34-.29.36-.69,0-.36-.01-.72-.01-1.07,0-.31-.13-.98-.02-1.29.06-.16.21-.22.32-.35.15-.19.16-.35.18-.58.03-.51-.37-2.13.32-2.26.33-.06.94.16,1.25.02.37-.17.28-1.13.32-1.47.31.03.58.25.9.14.03-.15-.01-.46.17-.55.24-.13.48.13.71.14.45.03.42-.43.49-.77.13-.65.14-1.38.41-1.99.34.07.69.33,1.03.12.11-.69-.16-1.63.24-2.26.67.06.56-.57.63-.99.07-.4.36-.63.47-1.03.16-.61.4-1.27.44-1.89.01-.23-.12-.63.04-.84.07-.09.16-.14.27-.16.76.62,1.01,1.55.83,2.8.03.37-.04.8-.04,1.11Z" style="stroke-width:0px;fill:#352818"/><g><path d="m6.04,29.23s-.03.03-.04.06c.02-.01.03-.03.04-.06Z" style="stroke-width:0px;fill:#6d612b"/><path d="m11.85,19.65c.04.09-.09.48-.15.54-.18.19-.48-.03-.64.14-.21.24.25.42.09.67-.12.19-.44.16-.63.18.07.12.15.47.08.59-.09.16-.17.04-.33.08-.28.08-.42.49-.71.59-.01-.22-.18-.35-.38-.23-.16.1-.21.5-.45.25-.14.2-.31.36-.43.57-.06-.11-.14-.21-.21-.31,0-.15-.01-.31-.03-.46-.06-.69-.52-1.3-.53-1.98-.74-.32-1.04-.67-1.24-.87-.26-.25-.52-.42-.87-.56-.48-.2-.94-.43-1.41-.64-.69-.31-1.58-.48-2.39-.52.48-.51,1.04-1.05,1.57-1.62.4.5.86.96,1.34,1.34.66.53,1.37.96,1.95,1.58.27.29.73.64,1.11.76.35.11.76.17,1.14.11.15-.03.28-.13.39-.16.13-.03.25-.01.39-.02.36,0,.62-.21.9-.41.21-.14.4-.29.59-.44,0,.08-.04.16.01.23.07.11.2.08.3.14.2.11.14.16.27.28.08.08.21.05.25.15Z" style="stroke-width:0px;fill:#6d612b"/><path d="m16.11,8.33c-.28.02-.56.07-.79.21-.41.27-.36.76-.46,1.17-.37-.03-.25.91-.27,1.09-.11-.12-.23-.23-.36-.33-.11-.02-.18.02-.21.11-.02.09-.08.11-.17.08-.01-.01-.03-.03-.04-.04.04-.11.07-.22.06-.33-.14-.01-.29.05-.42-.01-.05-.54.42-1.01.4-1.55.04-.2-.03-.33-.2-.41-.1.03-.2.02-.29-.03-.28-.17-.09-1.12-.12-1.38-.28.08-.43.38-.73.43.02-.28.1-.54.11-.83.01-.28-.03-.57,0-.85-.11.16-.39.33-.6.37-.28.05-.15.02-.26-.12-.14-.16-.16-.59-.38-.66-.06.13-.17.46-.32.5-.08-.29,0-.6-.08-.9-.06-.24-.15-.44-.27-.66.08.33-.17.81-.28,1.12-.13.36-.34.64-.63.9-.41.38-.82.78-1.27,1.1-.21.15-.51.23-.76.34-.2.08-.4.09-.58.17-.12.05-.33.17-.47.2-.19.04-.44,0-.64,0-.33,0-.52-.19-.82-.22,0-.14-.13-.28-.18-.42-.01-.05-.03-.09-.03-.14.18-.36.38-.73.62-1.07.68-.96.5-1.99.27-2.62.27.13.5.4.75.51.11-.17.11-.35.34-.39.16-.04.35.03.51,0,.01-.09.02-.18.03-.27.14-.04.27,0,.41-.01.27-.03.15-.03.21-.25.05-.18.1-.15.31-.15.19,0,.45.05.62-.01.01-.48.79-.29,1.06-.11.17-.17.01-.53.24-.65.31-.15.45.31.7.28.1-.18.17-.43.4-.34.24.1.34.45.55.55.06-.18-.09-.64.28-.49.27.11.3.57.56.69.05-.29.04-.59.15-.87.09.12.13.28.19.42.16.33.4.62.58.93.17.28.24.66.45.9.11.13.28.22.45.27,0,.12-.01.23-.02.35-.15,1.62.56,1.21,1.42,3.44Z" style="stroke-width:0px;fill:#6d612b"/></g><path d="m7.68,20.97s-.1,0-.16,0c-.19,0-.57-.06-.7.12-.13.17.07.46.09.62.02.12-.04.23.01.35.06.13.23.11.29.21.11.18-.18.45-.2.62-.02.14,0,.28-.02.42-.06.27-.09.08.02.34.15.35.05.35,0,.67-.01.1.04.21.01.3-.04.15-.1.12-.19.23-.13.16-.13.44-.21.62-.12.28-.1.15-.35.23-.32.1-.41.61-.73.76-.1.05-.32.08-.43.01-.19-.12-.06-.27-.3-.07-.28.24-.34.59-.64.14-.41-.63-.24.07-.33.34-.19.09-.31-.27-.45-.34-.2-.1-.2.06-.36.04-.09-.01-.26-.23-.33-.29-.14-.12-.3-.2-.45-.32-.05-.04-.1-.09-.14-.15-.52-2.18-1.16-4.17-1.16-4.17v.73s-.56-.95-.67-2.54c-.04-.57.56-1.31,1.37-2.17.81.04,1.69.21,2.39.52.48.21.93.44,1.41.64.35.14.61.31.87.56.2.2.5.54,1.24.87,0,.24.06.47.14.7Z" style="stroke-width:0px;fill:#fef6ab"/><path d="m12.22,12.17c-.24.26-.37.53-.57.81-.11.15-.24.26-.35.41-.18.25-.32.57-.44.86-.11.26.04.23.01.45-.03.23-.3.28-.16.55.06.11.19.14.21.26.02.17-.34.33-.47.41-.02.25.35.22.47.41-.15.1-.57.29-.48.51.12.02.21.08.27.18-.15.13-.38.31-.27.52-.18.1-.36.21-.53.33-.03.22.42.27.58.36-.21.21-.45.23-.55.48-.09.21-.17.43-.29.63-.09.16-.18.25-.29.34-.07,0-.14,0-.22.02-.11.03-.24.13-.39.16-.38.06-.78,0-1.14-.11-.39-.12-.84-.47-1.11-.76-.58-.62-1.29-1.05-1.95-1.58-.48-.39-.94-.84-1.34-1.34,1.05-1.13,2.03-2.35,2.21-3.59.42-2.91-1.4-2.32-1.4-2.32,0,0,.4-1.64,1.01-2.92,0,.05.02.09.03.14.04.14.17.28.18.42.31.03.49.21.82.22.19,0,.45.05.64,0,.14-.03.34-.15.47-.2.18-.08.38-.09.58-.17.24-.1.55-.19.76-.34.45-.32.87-.73,1.27-1.1.29-.27.5-.55.63-.9.11-.31.36-.78.28-1.12.12.21.21.42.27.66.07.3,0,.61.08.9.15-.04.26-.36.32-.5.22.07.24.49.38.66.12.14-.02.17.26.12.05,0,.11-.03.17-.05-.03.11-.06.2-.09.29-.16.48-.24,1-.43,1.47-.16.4-.39.67.07.96.23.14.26.14.32.37,0,.18.02.35.07.52.08.06.14.14.18.23.05.17-.08.41-.12.57-.04.14,0,.24,0,.35-.01.15-.12.32-.11.49.02.2.11.26.09.46-.02.21-.15.32.07.47Z" style="stroke-width:0px;fill:#d3be66"/><path d="m8.06,24.58c0,.59.01,1.19,0,1.78,0,.17-.05.28-.11.44-.07.2-.03.36-.26.39-.08.01-.12-.06-.21-.03-.1.03-.21.17-.27.26-.12.2-.14.4-.34.56-.12-.05-.19-.14-.34-.07-.24.11-.33.69-.5.9-.1.12-.17.25-.22.38h0c-.58.47-1.19.73-1.19.73l.18-.73-.96.95s-1.08-1.23-1.61-3.64c-.05-.21-.1-.43-.15-.64.04.05.09.1.14.15.14.12.3.2.45.32.07.06.24.27.33.29.16.02.16-.14.36-.04.14.07.26.43.45.34.1-.27-.08-.97.33-.34.29.45.36.1.64-.14.24-.2.11-.05.3.07.11.07.33.03.43-.01.32-.15.42-.66.73-.76.24-.08.23.05.35-.23.08-.19.08-.46.21-.62.09-.11.15-.08.19-.23.03-.09-.02-.2-.01-.3.05-.32.15-.31,0-.67-.11-.27-.08-.07-.02-.34.03-.15,0-.28.02-.42.02-.17.31-.44.2-.62-.06-.1-.22-.08-.29-.21-.05-.11,0-.23-.01-.35-.02-.16-.22-.45-.09-.62.13-.18.51-.12.7-.12.06,0,.12,0,.16,0,.14.42.35.84.39,1.28.07.76,0,1.56,0,2.32Z" style="stroke-width:0px;fill:#efe058"/><path d="m13.66,11.76c-.4.4-.88.93-.86,1.52.22.15.44.22.63.4-.06.22-.29.25-.29.53,0,.27.33.47.3.72-.21.08-.36.18-.42.37-.07.23.09.52-.04.74-.13.21-.4.12-.34.42.04.2.33.38.3.6-.03.18-.14.19-.33.27-.34.15-1.02.37-.98.8.11.06.14.13.1.21-.02.16-.14.24-.35.27-.33.21-.61.46-.93.67-.28.19-.55.4-.9.41-.06,0-.11,0-.17,0,.11-.09.21-.18.29-.34.11-.21.19-.42.29-.63.11-.25.34-.28.55-.48-.16-.1-.61-.15-.58-.36.17-.12.34-.23.53-.33-.11-.22.12-.39.27-.52-.06-.1-.15-.16-.27-.18-.09-.22.33-.41.48-.51-.12-.19-.49-.16-.47-.41.14-.09.5-.24.47-.41-.02-.12-.15-.15-.21-.26-.14-.27.13-.33.16-.55.03-.22-.12-.18-.01-.45.12-.28.26-.6.44-.86.1-.15.24-.26.35-.41.21-.28.34-.55.57-.81-.22-.15-.09-.26-.07-.47.02-.2-.08-.26-.09-.46-.01-.17.1-.33.11-.49,0-.12-.03-.21,0-.35.04-.17.17-.4.12-.57-.04-.09-.09-.17-.18-.23-.05-.17-.08-.34-.07-.52-.06-.23-.09-.23-.32-.37-.46-.28-.23-.56-.07-.96.19-.47.27-.99.43-1.47.03-.08.06-.18.09-.29.17-.07.35-.2.44-.32-.03.28,0,.57,0,.85-.01.28-.09.55-.11.83.31-.05.45-.35.73-.43.03.26-.16,1.21.12,1.38.09.05.18.06.29.03.18.07.24.21.2.41.02.54-.45,1.01-.4,1.55.13.06.28,0,.42.01.05.45-.57.94-.38,1.38.09-.01.15.01.18.08Z" style="stroke-width:0px;fill:#ad9a48"/><path d="m14.72,4.55c-.17-.05-.33-.14-.45-.27-.22-.25-.29-.63-.45-.9-.19-.31-.42-.6-.58-.93-.06-.13-.11-.3-.19-.42-.11.28-.1.58-.15.87-.26-.12-.29-.59-.56-.69-.36-.15-.22.31-.28.49-.21-.1-.31-.45-.55-.55-.23-.09-.3.16-.4.34-.24.04-.39-.43-.7-.28-.23.11-.07.48-.24.65-.26-.18-1.04-.37-1.06.11-.18.06-.43.02-.62.01-.21,0-.27-.04-.31.15-.06.22.06.23-.21.25-.14.01-.27-.03-.41.01,0,.09-.02.18-.03.27-.17.04-.35-.03-.51,0-.22.05-.23.23-.34.39-.25-.11-.48-.38-.75-.51-.12-.33-.25-.55-.27-.57l.8.55-.31-1.01.81.5v-.88h.54v-.42h.67v-.51l1.21.55v-.8l.58.46.22-.84.72.55v-.55l.76.55V.38l.4.42V.21l1.3.63.27-.84.67.71s.51,1.97.43,3.83Z" style="stroke-width:0px;fill:#827331"/><path d="m14.6,21.18c.23,1.27-.57,2.37-1.04,3.48-.06.15-.1.32-.21.45l-.37.24c-.27.21-.47.47-.61.76-.09.18-.26,1.21-.51,1.27-.22.05-.23-.15-.4-.22-.17.17-.33.34-.49.51-.19.19-.39.36-.61.51-.21,0-.17-.26-.19-.4-.21.18-.33.42-.48.65-.06.1-.06.2-.2.22-.26.04-.42-.38-.65-.37-.31,0-.44.52-.75.59-.18.04-.37,0-.37-.19-.13.05-.34.19-.48.26-.17.09-.35.29-.53.31-.01-.06-.03-.12-.04-.18-.14.03-.27.06-.41.09-.1.02-.17,0-.23.06.03-.07.05-.18.06-.3-.07.07-.14.13-.21.19-.02.02-.05.04-.07.05.05-.13.12-.25.22-.38.17-.2.26-.79.5-.9.15-.07.21.02.34.07.2-.16.21-.36.34-.56.06-.09.17-.23.27-.26.09-.03.13.04.21.03.23-.03.19-.19.26-.39.05-.16.1-.27.11-.44.01-.59,0-1.19,0-1.78s.05-1.24.03-1.86c.08.1.15.2.21.31.12-.21.29-.37.43-.57.24.25.29-.15.45-.25.2-.12.37.02.38.23.29-.1.43-.51.71-.59.16-.04.24.07.33-.08.07-.12,0-.47-.08-.59.19-.03.5,0,.63-.18.16-.24-.3-.43-.09-.67.15-.17.46.04.64-.14.06-.06.19-.45.15-.54-.05-.11-.18-.08-.25-.15-.12-.12-.06-.17-.27-.28-.1-.06-.22-.03-.3-.14-.05-.07-.01-.15-.01-.23.11-.08.22-.16.33-.23.22-.02.33-.11.35-.27.04-.09.01-.16-.1-.21-.04-.42.64-.65.98-.8.19-.08.3-.09.33-.27.03-.21-.26-.4-.3-.6-.06-.3.21-.22.34-.42.14-.22-.03-.5.04-.74.06-.19.21-.28.42-.37.04-.25-.3-.45-.3-.72,0-.28.23-.31.29-.53-.18-.18-.41-.25-.63-.4-.03-.59.46-1.12.86-1.52-.04-.06-.1-.09-.18-.08-.14-.33.18-.7.32-1.05.01.01.03.02.04.04.09.03.15,0,.17-.08.03-.09.1-.13.21-.11.14.09.26.2.36.33.02-.18-.09-1.12.27-1.09.1-.4.05-.9.46-1.17.23-.15.51-.19.79-.21.18.47.37,1.05.55,1.8.95,3.8-1.33,7.2-2.61,9.68.03.07.05.14.08.21.19.38.34.77.47,1.16Z" style="stroke-width:0px;fill:#352818"/><path d="m14.1,7.94s.53-1.07,1.25-1.1.87,2.6,0,3.48c0,0-.22-1.58-1.25-2.37Z" style="stroke-width:0px;fill:#534230"/><path d="m6.59,22.16c.01.05.01.11,0,.16-.15.12-.32.23-.5.33-1.34.76-3.49-.25-4.57-1.09-.23-.18-.47-.43-.68-.71.02-.01.03-.02.05-.03.13-.08.15-.11.29-.04.1.07.2.14.29.21.05.07.1.08.16.04.04-.04.08-.05.12,0,.08.03.15.07.22.11.05,0,.1,0,.15,0,.09.07.18.14.27.21.08.03.16.03.24,0,.09,0,.19.01.28.02,0-.04,0-.09,0-.13.15.02.31.1.45.15.17.07.42.25.6.16-.09-.1-.16-.21-.2-.34.29-.04.55.03.83-.01-.07-.09-.14-.19-.21-.29.07-.07.52-.03.62-.02.26.03.44.15.64.29.29.2.56.37.78.66.08.1.16.21.19.34Z" style="stroke-width:0px;fill:#534230"/><path d="m7.71,13.82c-.45.39-.59,1.17-.56,2.05-.15-.05-.28-.1-.42-.23-.06-.06-.14-.12-.2-.18-.11-.1-.13-.25-.21-.37-.12.33-.21.64-.2.99-.15.13-.47-.13-.65-.14.02.2.15.34.18.52-.29.17-.58.12-.9.16.01.09-.01.2-.09.27-.08.06-.25.02-.31.1.07.07.17.11.25.18.01.12-.46.23-.55.26.07.1.3.06.4.18-.13.2-.49.15-.6.33.1.15.26.36.27.55-.18-.06-.39-.09-.58-.1.12.13.32.37.33.55-.16.02-.32-.02-.48,0,.12.15.47.33.41.55-.06.03-.12.04-.19.05l-.54-.52-.19-.75s-.08-.71.86-2.57c.66-1.31.75-1.72.59-1.86.64-.35,1.39-.85,1.98-.99,0,0,1.45-.31,1.97-1.27.11.59.17,1.61-.56,2.24Z" style="stroke-width:0px;fill:#534230"/><path d="m6.59,22.32c0-.05,0-.11,0-.16-.03-.12-.11-.24-.19-.34-.15-.2-.32-.33-.5-.47-.02-.13-.06-.26-.12-.39-.05-.11-.14-.21-.24-.28-.16-.12-.3-.29-.47-.39-.02.05,0,.11,0,.17-.13-.07-.28-.11-.42-.18-.08-.04-.11-.07-.18-.01-.06.05-.01.11-.11.11-.03,0-.06-.01-.1-.03.03,0,.07-.01.09-.02.37-.17-.8-.66-.76-.78.07,0,.13-.02.19-.05.06-.22-.28-.4-.41-.55.16-.03.32.01.48,0,0-.18-.21-.41-.33-.55.19.01.4.04.58.1,0-.19-.17-.4-.27-.55.12-.19.47-.14.6-.33-.09-.13-.32-.08-.4-.18.08-.03.56-.14.55-.26-.08-.07-.18-.1-.25-.18.06-.08.22-.04.31-.1.08-.06.11-.17.09-.27.32-.03.61.02.9-.16-.03-.19-.16-.33-.18-.52.18.01.5.27.65.14-.01-.35.08-.66.2-.99.08.12.11.26.21.37.06.06.14.12.2.18.14.13.26.18.42.23.03,1.22.36,2.63.56,3.41.31,1.16-.12,2.27-1.12,3.03Z" style="stroke-width:0px;fill:#d3be66"/><path d="m5.89,21.36c-.02-.13-.06-.26-.12-.39-.05-.11-.14-.21-.24-.28-.16-.12-.3-.29-.47-.39-.02.05,0,.11,0,.17-.13-.07-.28-.11-.42-.18-.08-.04-.11-.07-.18-.01-.06.05-.01.11-.11.11-.03,0-.06-.01-.1-.03-.02,0-.03,0-.04,0-.03,0-.06.02-.1.03-.05,0-.11-.01-.16,0-.05.01-.06.04-.1.05-.05.01-.11,0-.16,0-.05,0-.08.03-.12.04-.1.02-.2,0-.29.02-.07.02-.17.06-.23.08-.05,0-.1,0-.15,0-.04.01-.06.05-.1.05-.18.04-.44,0-.63,0-.1,0-.21,0-.31,0-.14,0-.24-.03-.37-.05-.21-.03-.41-.07-.59-.18-.08-.05-.18-.07-.27-.1-.07-.03-.13-.08-.2-.1.06.12.13.24.21.35-.02.06-.03.12-.05.18-.03.11-.03.22-.1.32-.06.09-.25.17-.27.27.08-.03.37-.14.37-.23-.01.09-.03.48.1.49.09-.08.06-.22.15-.3.04.1,0,.23.02.34.02.13.06.29.14.4.09-.16,0-.72.21-.79.04.13.04.57.21.61.01-.13-.03-.37.1-.46.04.07.05.16.06.24.02-.12.11-.25.21-.34.07.1.05.24.07.35.09-.02.12-.13.16-.2.08.04.17.21.29.19.03-.06.04-.13.07-.2.08,0,.16.11.21.15.1.08.23.14.37.15.25.01.09-.07.11-.2.11-.02.14.15.25.14.02-.09.02-.17.07-.24.03,0,.05,0,.08.01.02,0,.03.02.05.03.1.06.19.17.29.15.02,0,.04-.02.05-.04.03,0,.06,0,.09-.02-.03-.03-.05-.06-.07-.09,0-.05,0-.09.03-.13.13-.02.21.14.33.18.09-.05.09-.21.19-.27.08.13.15.26.24.39.11-.05-.03-.23.14-.26.15-.03.27.16.41.2.03-.09-.04-.19-.04-.28.11-.04.2.09.31.09.05-.08-.08-.27-.2-.4.12.05.23.13.34.21.09.07.19.13.27.19Z" style="stroke-width:0px;fill:#fef6ab"/><path d="m4.35,20.33s-.1.02-.13.03c-.03,0-.06.02-.1.03-.05,0-.11-.01-.16,0-.05.01-.06.04-.1.05-.05.01-.11,0-.16,0-.05,0-.08.03-.12.04-.1.02-.2,0-.29.02-.07.02-.17.06-.23.08-.05,0-.1,0-.15,0-.04.01-.06.05-.1.05-.18.04-.44,0-.63,0-.1,0-.21,0-.31,0-.14,0-.24-.03-.37-.05-.21-.03-.41-.07-.59-.18-.08-.05-.18-.07-.27-.1-.07-.03-.13-.08-.2-.1-.5-.92-.67-1.93.12-2.25,0,0,0-2.6,1.88-3.7.55-.32.97-.64,1.28-.96,0,.23.06.5.31.5.43,0,.65.06-.29,1.92-.94,1.86-.86,2.57-.86,2.57l.19.75.54.52c-.04.12,1.12.61.76.78Z" style="stroke-width:0px;fill:#f37a7c"/><path d="m.53,19.31s-.36-.45,0-.74,1.18-.03,1.22.37-.91.94-1.22.37Z" style="stroke-width:0px;fill:#231f20"/><path d="m8.27,11.59c-.52.96-1.97,1.27-1.97,1.27-.6.14-1.34.64-1.98.99-.06-.06-.17-.06-.3-.06-.25,0-.31-.27-.31-.5.74-.76.81-1.5.47-2.15-.49-.92-.24-1.25,1.1-1.5,1.34-.25,2.73-.05,2.88,1.5,0,0,.06.18.12.45Z" style="fill:#0d0f11;stroke-width:0px"/><path d="m7.17,10.89c0,.35-.29.64-.64.64s-.64-.29-.64-.64.29-.64.64-.64.64.29.64.64Z" style="stroke-width:0px;fill:#fff200"/><path d="m6.69,10.89c0,.09-.07.16-.16.16s-.16-.07-.16-.16.07-.16.16-.16.16.07.16.16Z" style="stroke-width:0px;fill:#231f20"/><path d="m6.93,13.6c-.15.85-.74.99-1.44,1.53-.7.54-1.83,1.69-2.14,2.36-.31.67-.3,1.54-.3,1.54,0,0-.82-1.27-1.99-1.15,0,0,.03-.17.1-.45.06.16.18.21.3.21.12,0,.18-.08.2-.11,0,0,0,.02-.01.04-.05.16.42.33.56,0,.14-.33.49-.7,1.24-1.29.74-.59,2.93-2.19,1.54-1.53-1.34.65-3.12,2.37-3.23,2.48.76-1.22,3.19-2.88,3.84-3.14.64-.26.78-.59-.84.19-1.62.78-2.55,2.04-2.55,2.04.33-1.33,2.94-2.78,3.68-3.02.71-.23.87-.56.88-.59.17.22.23.53.16.9Z" style="stroke-width:0px;fill:#94a7b9"/><path d="m6.77,12.69h0s-.17.36-.88.59c-.74.24-3.35,1.68-3.68,3.02,0,0,.93-1.26,2.55-2.04,1.62-.78,1.48-.44.84-.19-.64.26-3.07,1.92-3.84,3.14.11-.11,1.89-1.83,3.23-2.48,1.38-.67-.8.94-1.54,1.53-.75.59-1.1.96-1.24,1.29-.14.33-.61.16-.56,0,0-.02.01-.03.01-.04-.02.03-.08.11-.2.11-.12,0-.24-.04-.3-.21.15-.56.48-1.52,1.1-2.24.93-1.07,2.37-2.48,3.34-2.74.55-.15.94-.03,1.16.24Z" style="stroke-width:0px;fill:#dfebf8"/></g></g></svg>