<?xml version="1.0" encoding="UTF-8"?>
<svg id="Layer_2" data-name="Layer 2" xmlns="http://www.w3.org/2000/svg" viewBox="0 0 150.41 67.77">
  <defs>
    <style>
      .cls-1 {
        fill: #dedddd;
      }

      .cls-1, .cls-2, .cls-3, .cls-4, .cls-5, .cls-6, .cls-7, .cls-8, .cls-9, .cls-10, .cls-11 {
        stroke-width: 0px;
      }

      .cls-2 {
        fill: #6b6666;
      }

      .cls-3 {
        fill: #b2b3b3;
      }

      .cls-4 {
        fill: none;
      }

      .cls-5 {
        fill: #3f3b3b;
      }

      .cls-6 {
        fill: #fff;
      }

      .cls-7 {
        fill: #4f4d4d;
      }

      .cls-8 {
        fill: #231f20;
      }

      .cls-9 {
        fill: #f1f2f2;
      }

      .cls-10 {
        fill: #898484;
      }

      .cls-11 {
        fill: #414042;
      }
    </style>
  </defs>
  <g id="_100" data-name="100">
    <g>
      <path class="cls-1" d="m40.04,46.11s6.08,14.29,11.19,19.41c5.12,5.12,3.38.43,3.68-3.41.3-3.84,4.14-10.24,3.5-13.43-.64-3.2-21.02-8.29-18.37-2.56Z"/>
      <path class="cls-3" d="m41.36,45.17s2.62,7.98,4.82,11.61c2.2,3.63,6.75,9.92,7.75,10.02.99.11-.14-1.42.36-5.33.5-3.91,3.62-12.22,2.27-13.47-1.35-1.25-15.48-5.7-15.2-2.83Z"/>
      <path class="cls-1" d="m77.13,46.85s4.92,5.09,8.33,6.37c3.41,1.28,1.27-3.87,2.34-7.05,1.07-3.18-13.42-1.9-10.67.68Z"/>
      <path class="cls-3" d="m77.68,45.99s2.02,1.78,4.64,3.98c2.61,2.2,4.46,3.91,4.46,1.99s1.2-6.67,0-6.82c-1.2-.15-9.95-.71-9.1.85Z"/>
      <path class="cls-1" d="m115.8,39.13c-4.56.05-10.79-.31-13.03-.4s-15.35.14-21.11-.17c-5.76-.31-23.03-2.79-34.44-4.4-11.41-1.62-17.38-3.5-20.78-4.89-.57-.23-.95-.45-1.18-.66,0,0-1.93-1.4-1.41-3.51,0,0,0,0,0,0,.05-.43.16-.96.37-1.62.66-2.07,1.23-3.98,1.69-5.59.12-.47.25-.91.36-1.29,0-.02,0-.04.01-.05.76-2.73-3.05-3.9-7.74-3.26-4.69.64-10.66,11.94-14.5,21.96-3.84,10.02-.9,15.74-.9,15.74,3.2.9,6.75.5,9.11-1.35,1.02-.8,3.07-3.62,5.41-7.87,0,0,1.57-1.57,2.83-1.17,3.81,1.19,15.46,5.07,23.07,6.18,13.65,1.99,33.4-1.01,44.49-1.29,7.71-.2,17.49-1.22,23.01-2.69,0,0,9.19-1.35,8.98-2.4-.13-.64-1.37-1.06-4.24-1.24Z"/>
      <path class="cls-3" d="m108.67,40.59c-12.94-.09-26.44.2-41.8-1.87-12.68-1.71-30.87-4.68-38.51-6.84h0s-4.55-.72-6.92.06c0,0,1.62-.95,3.74-1.24-.03-.02-.07-.04-.1-.06-.1-.07-.19-.13-.28-.19-.17-.1-.4-.23-.67-.33h0c-2.5-1.59-1.12-7.64-1.12-7.64,1.02-2.67,1.58-5.2-1.21-5.94-3.98-1.06-5.41,2.38-5.41,2.38-2.27,1.76-6.66,8.14-10.96,19.07-2.07,5.26-1.93,8.98-1.56,10.98,0,0,.32,1.23,1.58,1.43,0,0,0,.02,0,.03,0,0,.03,0,.09-.02.56.06,1.29-.07,2.24-.58,1.84-.59,4.31-1.68,5.64-3.5,1.04-1.42,2.35-3.47,3.47-5.27h0c1.13-1.01,3.67-1.3,3.67-1.3h0c.27.05.57.11.88.17,0,0,0,0,0,0,0,0-1.52-.75-2.27-1.95,0,0,3.2,2.14,4.59,2.54h0c6.66,1.9,18.62,5.81,27.76,5.81s54.02-2.84,58.14-3.98c4.12-1.14,11.94-1.66-1-1.76Z"/>
      <path class="cls-4" d="m120.04,40.37c-.03.07-.06.15-.09.22.07-.07.1-.15.09-.22Z"/>
      <path class="cls-7" d="m144.67,14.34c-2.98,2.13-13.11,15.89-15.03,18.98-1.92,3.09-1,5.12-.99,5.41h0c-.03-.34-.01-.66.06-.94.57-2.27,15.28-20.9,15.28-20.9,0,0,.43,1.71,2.35,1.49.28-.03.47-.15.62-.33-2.2.29-2.28-3.71-2.28-3.71Z"/>
      <path class="cls-7" d="m150.13,9.81c-4.46,2.08-3.58,3.88-3.58,3.88.74-1.48,2.82-2.97,3.58-3.88Z"/>
      <path class="cls-2" d="m23.36,12.63c-.91-.32-1.36-.88-1.6-2.08-.01-.07-.04-.14-.06-.21-1.26-.07-2.66.01-4.12.3-.17.03-.35.08-.52.14-.09.39-.13.76-.15,1.04-.05.83-.83,1.23-.83,1.23C11.9,15.2,3.06,29.98,1.48,39.82c-.92,5.77-.29,8.99.4,10.66.38.19.8.35,1.26.48,0,0-2.94-5.72.9-15.74,3.84-10.02,9.81-21.32,14.5-21.96,4.68-.64,8.5.52,7.74,3.26.23-.86.41-1.58.54-2.16-.75-1.62-2.64-1.44-3.45-1.73Z"/>
      <path class="cls-10" d="m1.48,39.82c1.58-9.84,10.42-24.62,14.61-26.76,0,0,.77-.4.83-1.23.02-.27.06-.65.15-1.04-4.86,1.63-11.62,12.51-14.44,20.35C-.31,39.29.01,47.75.01,47.75c-.04,1.24.7,2.14,1.86,2.74-.68-1.68-1.32-4.89-.4-10.66Z"/>
      <path class="cls-10" d="m27.02,12.93c-.23-1.37-2.38-2.41-5.32-2.58.03.07.05.13.06.21.24,1.2.69,1.76,1.6,2.08.81.29,2.7.11,3.45,1.73.16-.73.24-1.24.2-1.43Z"/>
      <path class="cls-9" d="m17.38,11.6c.17.99,1.24,1.62,2.39,1.43,1.15-.2,1.94-1.16,1.77-2.14-.17-.99-1.24-1.62-2.39-1.43-1.15.2-1.94,1.16-1.77,2.14Z"/>
      <path class="cls-8" d="m17.63,11.38c.11.63.79,1.03,1.52.91.73-.13,1.24-.74,1.13-1.36-.11-.63-.79-1.03-1.52-.91-.73.13-1.24.74-1.13,1.36Z"/>
      <path class="cls-6" d="m20.16,10.27c-.03-.2-.25-.33-.49-.29-.23.04-.39.23-.36.43.03.2.25.33.48.29.23-.04.39-.23.36-.43Z"/>
      <path class="cls-2" d="m150.13,9.01c-5.2,1.5-13.14,9.38-17.93,14.92-4.8,5.54-14.93,11.3-14.93,11.3,1.49,2.77,1.49,3.52-.75,1.38-2.24-2.14-17.35-7.67-18.18-7.88-.83-.21-1.71-.72-1.52-.8.19-.08,1.09.27,1.09.27,0,0,.09-2.13.09-3.89s-.91-.96-2.03.05c-1.12,1.01-2.27,2.56-2.27,2.56,2.61,1.01,1.07.85,0,.78-1.07-.07-7.36-1.1-11.51-1.32-4.16-.21-7.57-1.39-11.62-2.03-4.05-.64-12.65-3.91-14.36-4.55-1.71-.64,1.71-.57,1.71-.57-1.42-2.99-.35-14.64-.99-16.85-.64-2.2-6.29,5.44-8.53,10.02-2.24,4.58-.73,6.14-.73,6.14,3.96.21,3.88.56,2.33.79-2.13.32-14.16,3.36-14.16,3.36h0c-3.92,1.36-8.07,3.04-10.75,5-.01-.01-.02-.02-.04-.04-.28.43-.12.98,1.4,1.6,3.4,1.39,9.37,3.27,20.78,4.89,11.41,1.62,28.68,4.09,34.44,4.4,5.76.31,18.87.8,21.11.89,2.24.09,8.47-.27,13.03-.32,2.87.18,4.11.6,4.24,1.24.01.07-.02.15-.09.22-1.78,4.55,6.13,6.65,10.75,10.38,4.69,3.79,10.23,1.31,10.23,1.31,0,0-2.56.57-6.26-3.7-3.23-3.73-5.82-7.46-6.03-9.86-.01-.28-.93-2.31.99-5.41,1.92-3.09,12.05-16.84,15.03-18.98,0,0,.08,4,2.28,3.71.85-1.08-.4-4.36-.4-4.36,0,0-.88-1.8,3.58-3.88.34-.4.41-.68,0-.79Z"/>
      <path class="cls-11" d="m25.43,30.41s-5.75.4-7.69,3c-1.94,2.6.43,4.88,3.02,6.12,0,0-3.46-2.54-2.48-4.98.97-2.44,5.5-3.42,6.47-3.58.97-.16,1.54-.66.68-.57Z"/>
      <path class="cls-10" d="m148.61,9.03c-4.55.53-11.09,7.15-16.21,12.26-5.12,5.12-17.06,12.8-17.06,12.8-.56-.45-6.36-2.87-16.91-5.73-.26-3.1.57-7.05-2.2-5.38-2.15,1.29-3.2,2.27-4.34,3.64-12.76-3.33-22.8-5.55-33.31-7.24-1.6-7.56,1.16-21.97-3.34-18.96-3.72,2.48-9.09,12.77-11.75,18.21-6.85.66-13.3,2.56-18.41,4.51-.29.11-.58.22-.87.33-.21.66-.32,1.19-.37,1.62h0s0,0,0,0c-.52,2.11,1.41,3.51,1.41,3.51-.38-.34-.39-.65-.23-.91l.05.02c2.67-1.96,6.82-3.64,10.75-5h0s12.03-3.04,14.16-3.36c1.54-.23,1.63-.58-2.33-.79,0,0-1.51-1.56.73-6.14,2.24-4.59,7.89-12.23,8.53-10.02.64,2.2-.43,13.86.99,16.85,0,0-3.41-.07-1.71.57,1.71.64,10.31,3.91,14.36,4.55,4.05.64,7.46,1.81,11.62,2.03,4.16.21,10.45,1.25,11.51,1.32,1.07.07,2.61.23,0-.78,0,0,1.15-1.55,2.27-2.56,1.12-1.01,2.03-1.81,2.03-.05s-.09,3.89-.09,3.89c0,0-.91-.35-1.09-.27-.19.08.69.59,1.52.8.83.21,15.94,5.73,18.18,7.88,2.24,2.14,2.24,1.39.75-1.38,0,0,10.13-5.75,14.93-11.3,4.8-5.54,12.73-13.42,17.93-14.92-.27-.07-.75-.08-1.52.01Z"/>
      <path class="cls-1" d="m78.73,38.14c.17-.49,7.98-6.17,10.59-6.49,2.61-.32.43,3.9-.07,6.49-.5,2.6-11.52,2.92-10.52,0Z"/>
      <path class="cls-3" d="m82.11,40.16s-2.95-.66-1.51-2.03c1.44-1.36,7.58-5.32,8.4-5.25.81.06.38,3.37,0,4.54-.38,1.17-1,3.4-6.89,2.74Z"/>
      <path class="cls-7" d="m93.39,43.51s2.97,2.51,5.2,3.36c2.23.85.56-3.95,1.3-4.42.74-.46-8.52-.48-6.5,1.06Z"/>
      <path class="cls-2" d="m96.66,42.67s-1.1.24-.5.89c.6.65,2.42,2.31,2.63,2.58.21.27.43.3.43-.3s.17-3.07-.25-3.17c-.43-.11-.89-.27-2.31,0Z"/>
      <path class="cls-7" d="m130.71,50.97c-4.62-3.73-12.53-5.83-10.75-10.38-1.22.52-8.05.48-9.55.76-1.49.29.65,1.42.65,1.42,1.97,1.29,17.64,12.64,23.05,12.64s6.82-3.13,6.82-3.13c0,0-5.54,2.47-10.23-1.31Z"/>
      <path class="cls-5" d="m39.81,31.86c.06.01.4-1.29.16-2.94-.13-.81-.44-1.54-.83-1.95-.38-.42-.75-.49-.76-.44-.02.04.28.17.58.59.31.4.56,1.08.68,1.85.23,1.57.04,2.88.16,2.89Z"/>
      <path class="cls-5" d="m37.56,31.68s.12-.3.16-.81c.04-.51.02-1.22-.19-1.98-.21-.76-.62-1.38-.98-1.74-.37-.37-.68-.49-.7-.45-.02.04.23.22.53.6.3.38.65.96.84,1.68.4,1.44.21,2.69.33,2.7Z"/>
      <path class="cls-5" d="m42.37,32.79s.12-.37.21-.98c.03-.31.11-.67.1-1.09,0-.41.02-.87-.02-1.34-.1-.95-.26-1.81-.57-2.38-.28-.57-.61-.84-.64-.79-.02.04.21.32.41.89.23.55.35,1.39.45,2.3.03.46.02.91.04,1.31.02.4-.03.77-.02,1.07-.02.61,0,1,.05,1Z"/>
      <path class="cls-5" d="m44.72,32.64s.12-.32.21-.84c.1-.53.15-1.27.13-2.09-.04-.82-.17-1.57-.37-2.08-.2-.51-.43-.78-.46-.75-.03.03.11.31.25.82.03.13.06.27.1.41.03.15.05.31.07.48.07.34.06.72.1,1.12.02.8,0,1.53-.04,2.06-.03.53-.02.86.02.87Z"/>
      <path class="cls-5" d="m46.63,32.43s.13-.24.23-.66c.11-.41.19-1,.24-1.66.02-.66-.01-1.26-.14-1.68-.11-.42-.28-.66-.32-.63-.03.03.05.26.1.67.06.41.06.98.04,1.62-.04.64-.09,1.21-.14,1.63-.04.42-.04.69,0,.69Z"/>
      <path class="cls-1" d="m43.89,33.78s10.37-8.33,14.85-12.23c4.48-3.9,7.4-5.36,4.94.95-2.45,6.31-2.45,11.57-2.45,13.74s2.49,3.1-7,1.55c-9.49-1.55-14.28-.83-10.34-4.01Z"/>
      <path class="cls-3" d="m52.52,37.85c1.31-1.12,4.88,0,6.85,0,.6,0,.94-.32,1.12-.76-.41-2.76-.65-7.14,1.01-10.8,2.67-5.86,2.13-6.4,2.13-6.4-1.39,0-12.69,10.88-15.99,13.5-3.31,2.62-6.18,2.5-6.18,2.5-1.01,4.31,6.11,4.89,12.05,4.65-1.06-1.08-1.52-2.22-.99-2.68Z"/>
    </g>
  </g>
</svg>