<?xml version="1.0" encoding="UTF-8"?>
<svg id="Layer_2" data-name="Layer 2" xmlns="http://www.w3.org/2000/svg" viewBox="0 0 499.83 557">
  <defs>
    <style>
      .cls-1 {
        fill: #bbbdbf;
      }

      .cls-1, .cls-2, .cls-3, .cls-4, .cls-5, .cls-6, .cls-7, .cls-8, .cls-9, .cls-10 {
        stroke-width: 0px;
      }

      .cls-2 {
        fill: #929497;
      }

      .cls-3 {
        fill: #be7229;
      }

      .cls-4 {
        fill: #e88738;
      }

      .cls-5 {
        fill: #723e19;
      }

      .cls-6 {
        fill: #58595b;
      }

      .cls-7 {
        fill: #fff;
      }

      .cls-8 {
        fill: #9a5725;
      }

      .cls-9 {
        fill: #7a7b7b;
      }

      .cls-10 {
        fill: #404041;
      }
    </style>
  </defs>
  <g id="SCOTTISH_HIGHLAND" data-name="SCOTTISH HIGHLAND">
    <g id="POSE">
      <g>
        <path class="cls-5" d="m265.91,420.61s2.94,65.07,0,73.1c-2.94,8.04-7.21,19.09,25.01,19.09s28.79-2.46,14.16-62.62c-14.64-60.16-40.21-60.38-39.17-29.58Z"/>
        <path class="cls-8" d="m349.34,471.3s-10.51,41.5-9.2,48.87c1.31,7.37,14.33,8.59,18.28,17.19,3.95,8.59-4.84,19.64-37.72,19.64s-34.55-7.37-29.79-36.83c0,0-7.02-72.65-7.02-88.51s79.88-23.36,65.44,39.64Z"/>
        <path class="cls-5" d="m233.93,420.61s-2.94,65.07,0,73.1c2.94,8.04,7.21,19.09-25.01,19.09s-28.79-2.46-14.16-62.62c14.64-60.16,40.21-60.38,39.17-29.58Z"/>
        <path class="cls-8" d="m150.49,471.3s10.51,41.5,9.2,48.87c-1.31,7.37-14.33,8.59-18.28,17.19-3.95,8.59,4.84,19.64,37.72,19.64s34.55-7.37,29.79-36.83c0,0,7.02-72.65,7.02-88.51s-79.88-23.36-65.44,39.64Z"/>
        <path class="cls-3" d="m394.01,255.73c-.8-3.66-2.18-6.88-3.76-10.24-1.43-3.03-2.39-5.93-3.36-9.15-.54-1.78-2.75-5.19-2.56-6.91,3.7-1.06,6.06,1.52,5.87-4.01-.09-3.05-.43-6.24-1.51-9.11-.68-1.8-1.81-2.88-2.12-4.69-.3-1.73,0-3.03-.54-4.65-.42-1.25-1.21-2.18-1.8-3.26-1.21-2.23-2.39-4.63-3.45-6.92,2.22-.08,3.76-1.84,4.51-3.87-3.95-2.33-7.73-7.11-10.4-10.97-.43-.62-3.16-3.33-3.57-4.12-.62-1.22.13-2.43-.1-3.7-1.09-5.73-7.33-5.19-10.38-9.2,1,.26,2.1.25,3.05-.16-.51-2.36-5.69-6.36-7.98-6.52-.33-4.18-4.43-7.83-6.65-10.97-3.07-4.35-6.62-6.82-10.61-10.04-3.72-3.03-8.31-4.56-12.11-7.51-3.91-3.04-7.32-6.16-10.67-9.92-3.05-3.42-6.88-4.81-8.06-9.65-1.73-7.09-2.65-14.11-3.03-21.25-31.46-18.25-54.89-18.55-54.89-18.55,0,0-23.43.3-54.89,18.55-.38,7.14-1.3,14.16-3.03,21.25-1.18,4.84-5.01,6.23-8.06,9.65-3.36,3.76-6.76,6.88-10.67,9.92-3.8,2.95-8.39,4.48-12.11,7.51-3.99,3.22-7.54,5.69-10.61,10.04-2.22,3.15-6.32,6.79-6.65,10.97-2.29.16-7.47,4.16-7.98,6.52.96.41,2.06.42,3.05.16-3.05,4.01-9.29,3.47-10.38,9.2-.24,1.27.51,2.48-.1,3.7-.41.79-3.13,3.5-3.57,4.12-2.66,3.87-6.45,8.64-10.4,10.97.75,2.03,2.29,3.79,4.51,3.87-1.06,2.29-2.24,4.69-3.45,6.92-.59,1.09-1.38,2.02-1.8,3.26-.54,1.63-.24,2.92-.54,4.65-.31,1.81-1.44,2.9-2.12,4.69-1.07,2.87-1.42,6.06-1.51,9.11-.18,5.53,2.18,2.95,5.87,4.01.2,1.72-2.02,5.13-2.56,6.91-.97,3.23-1.93,6.12-3.36,9.15-1.59,3.36-2.96,6.58-3.76,10.24-1.28,5.78-5.65,11.16-5.68,16.79-.04,4.86.66,4.65,4.77,5.22,3.12.42,2.36,2.01,2.35,5.27-.01,1.87-1,7.58,1.17,8.02.84.18,1.49-1.31,2.35-1.53,1.26-.34,3.37-.08,4.63.2.64,2.54.13,5.13.77,7.75.5,1.98.16,4.35.8,6.15,1.09-.67,1.72-1.56,2.02-2.62-.26,2.67-.8,5.27-1.28,7.94-.68.28-1.01.83-1,1.66.04,2.14.07,4.27.04,6.42-.03,4.27.92,7.87,1.27,11.98.24,2.66.76,10.4-2.44,6.61-2.02-2.37-1.32-11.1-4.52-11.84-.63,2.36-.22,5.28-.24,7.76-.03,4.43-2.58,6.55-3.38,10.82-.73,3.84-.93,10.4-.24,14.22.52,2.86,1.81,5.19,4.61,5.36.05,1.55,1.91,6.16,2.82,7.13.97-.76,2.06-1.01,3.16-.67.38,2.6,1.18,4.89,1.59,7.49,2.23-.12,3.54,3.34,4.82,5.11,2.06,2.82,3.74,5.82,4.81,9.27.37,1.21.51,3.07,1.06,4.19.55,1.14,3.13,2.95,2.15,4.55-1.63,2.65-2.99-1.7-4.58-1.73,2.67,7.42.96,19.13,1.01,27.36.03,5.56-2.41,8.85-4.38,13.5.07.33.13.66.21,1.01.43,1.91.21,3.91.55,5.85.51,2.84,2.94,4.65,3.5,7.92.83,4.82,1.35,9.26,1.25,14.29.79-1.46,1.98-8.1,3.37-8.4.72,3.03.85,6.02,2.57,8.81,1.14,1.85,2.1,1.81,3.37,3.17.93,1,1.68,2.58,2.61,3.64.03.04.07.08.09.12,1,.16,1.94.34,2.75.49,3.43.62,8.17,1.1,11.29,2.83,1.08-2.23-.92-3.79-.93-5.89,3.21-1.87,7.28,3.78,10.7,2.57,2.41-.84,1.87-4.69,3.74-6.38,1.04-.93,1.59-.01,2.2-1.49.6-1.46-.21-3.33-.93-4.39-2.06-3.08-7.66-3.17-8.53-7.25,1.74-.18,2.73-1.65,4.47-1.8.22-2.63-5.76-7.2-3.23-10.07.83-.94,2.64.05,3.72-1.13,1.23-1.31,1.14-3.68.64-5.4-.66-.14-1.31-.3-1.97-.45-.43-1.55.42-3.75-.12-5.11-.45-1.17-1.69-1.65-2.77-2.2-2.02-1.05-5.27-2.22-6.92-3.91-3.22-3.29,1.32-6.12.2-9.62-.85-2.69-5.68-1.13-6.75-3.78-1.27-3.15,5.41-6.66,5.53-10.54.12-4.1-4.89-8.29-6.61-11.75-1.91-3.88-3.93-7.2-6.37-10.71-.71-1.05-3.78-4.48-2.4-6.2.84-1.05,3.57.13,4.65-.13,1.32-.3,1.85-1.59,3.4-1.6.5-2.52-2.66-3.16-3.8-4.65-.88-1.14-1.4-2.77-1.91-4.04,5.83-.92,4.48-3.54,3.55-8.8-.79-4.35,1.1-2.03,3.22-3.53,1.66-1.17,1.74-3.09,1.19-4.98-.75-2.6-5.79-10.91-2.69-13.06,1.66-1.15,2.94.33,4.72-1.35,1.84-1.74,1.91-2.79.29-4.99-2.36-3.2-4.51-5.15-4.46-9.44.05-4.75-.87-10.53.11-15.09.97-4.54,2.06-9.18,3.76-13.42.69-1.78.64-3.33,1.17-5.27.41-1.6,2.43-3.13,2.06-5.05,2.31,1.8.51,10.61,3.6,11.22,2.12.42,2.01-2.52,2.39-3.85.43-1.57,1.25-3.46,1.46-5.14,3.24.79,5.06,12.83,5.65,15.55,2.1,9.74,5.51,18.51,9.36,27.53,1.21,2.84,2.75,5.82,3.47,8.88.56,2.37.43,11.02,2.62,11.81,1.66-1.01,2.06-3.37,3.95-4.47,3.43,2.18-.45,15.3,1.01,19.14,2.61,1.02,4.01-2.35,5.81-.45,1.51,1.6,1.31,6.27,2.54,8.43,1.02,1.8,3.13,6.61,4.58,7.47,1.61.94,2.08-.24,3.6.3,1.34.46,1.59,1.69,2.28,2.98.58,1.06,4.02,8.46,5.98,5.48.88,2.18,2.01,7.24,3.51,8.87,1.65,1.81,3.95.64,5.82,2.06,1.28-3.34-2.49-20.67,2.53-20.71,4.93,4.46,4.59,14.58,9.32,19.52.92-2.69-.18-5.79.42-8.63,2.18-.58,3.54,4.58,5.03,6.19,1.64,1.74,3.87,2.7,5.51,4.29,1.46,1.42,3.03,2.99,4.69,4.5,1.66-1.51,3.24-3.08,4.69-4.5,1.64-1.59,3.87-2.54,5.51-4.29,1.49-1.61,2.86-6.76,5.03-6.19.6,2.83-.5,5.94.42,8.63,4.73-4.94,4.39-15.06,9.32-19.52,5.02.04,1.25,17.37,2.53,20.71,1.87-1.42,4.17-.25,5.82-2.06,1.51-1.64,2.64-6.7,3.51-8.87,1.95,2.98,5.4-4.42,5.98-5.48.69-1.28.94-2.52,2.28-2.98,1.52-.54,1.99.64,3.61-.3,1.44-.87,3.55-5.68,4.58-7.47,1.23-2.16,1.04-6.83,2.54-8.43,1.8-1.9,3.2,1.47,5.81.45,1.46-3.84-2.43-16.96,1.01-19.14,1.89,1.1,2.28,3.46,3.95,4.47,2.19-.79,2.06-9.44,2.62-11.81.72-3.05,2.27-6.03,3.47-8.88,3.85-9.02,7.26-17.79,9.36-27.53.59-2.71,2.41-14.76,5.65-15.55.21,1.68,1.02,3.57,1.46,5.14.38,1.34.26,4.27,2.39,3.85,3.09-.62,1.3-9.43,3.6-11.22-.37,1.91,1.65,3.45,2.06,5.05.52,1.94.47,3.49,1.17,5.27,1.7,4.25,2.79,8.89,3.76,13.42.97,4.56.05,10.34.1,15.09.05,4.29-2.1,6.24-4.46,9.44-1.63,2.2-1.55,3.25.29,4.99,1.78,1.68,3.05.2,4.72,1.35,3.11,2.15-1.94,10.46-2.69,13.06-.55,1.89-.47,3.81,1.19,4.98,2.12,1.49,4.01-.83,3.22,3.53-.93,5.26-2.28,7.88,3.55,8.8-.51,1.27-1.04,2.9-1.91,4.04-1.14,1.49-4.3,2.14-3.8,4.65,1.55.01,2.07,1.3,3.4,1.6,1.09.26,3.81-.92,4.65.13,1.38,1.72-1.69,5.15-2.4,6.2-2.44,3.51-4.46,6.83-6.37,10.71-1.72,3.46-6.74,7.64-6.61,11.75.12,3.88,6.8,7.39,5.53,10.54-1.07,2.65-5.9,1.09-6.75,3.78-1.13,3.5,3.42,6.33.2,9.62-1.66,1.69-4.9,2.86-6.92,3.91-1.07.55-2.32,1.04-2.77,2.2-.54,1.36.31,3.57-.12,5.11-.66.14-1.31.3-1.97.45-.5,1.72-.59,4.09.64,5.4,1.09,1.18,2.9.18,3.72,1.13,2.53,2.87-3.45,7.43-3.22,10.07,1.74.14,2.73,1.61,4.47,1.8-.88,4.08-6.48,4.17-8.53,7.25-.72,1.06-1.53,2.94-.93,4.39.62,1.48,1.17.56,2.2,1.49,1.86,1.69,1.32,5.55,3.74,6.38,3.42,1.21,7.49-4.44,10.7-2.57-.01,2.1-2.01,3.66-.93,5.89,3.12-1.73,7.85-2.22,11.29-2.83.81-.14,1.76-.33,2.75-.49.03-.04.07-.08.09-.12.93-1.06,1.68-2.65,2.61-3.64,1.27-1.36,2.23-1.32,3.37-3.17,1.72-2.79,1.85-5.78,2.57-8.81,1.39.3,2.58,6.95,3.37,8.4-.1-5.03.42-9.47,1.25-14.29.56-3.26,2.99-5.07,3.5-7.92.34-1.94.12-3.93.55-5.85.08-.35.14-.68.21-1.01-1.97-4.65-4.4-7.94-4.38-13.5.05-8.23-1.66-19.94,1.01-27.36-1.59.03-2.95,4.38-4.58,1.73-.98-1.6,1.6-3.41,2.15-4.55.55-1.13.69-2.99,1.06-4.19,1.08-3.45,2.75-6.45,4.81-9.27,1.28-1.77,2.6-5.23,4.82-5.11.41-2.6,1.21-4.89,1.59-7.49,1.1-.34,2.19-.09,3.16.67.9-.97,2.77-5.58,2.82-7.13,2.81-.17,4.09-2.5,4.61-5.36.69-3.83.5-10.38-.24-14.22-.8-4.26-3.36-6.38-3.38-10.82-.01-2.48.39-5.4-.24-7.76-3.2.73-2.5,9.47-4.52,11.84-3.2,3.79-2.67-3.95-2.44-6.61.35-4.12,1.3-7.71,1.27-11.98-.03-2.15,0-4.29.04-6.42.01-.84-.31-1.39-1-1.66-.49-2.67-1.02-5.27-1.28-7.94.3,1.06.93,1.95,2.02,2.62.64-1.8.3-4.17.8-6.15.64-2.62.13-5.2.77-7.75,1.26-.28,3.37-.54,4.63-.2.85.22,1.51,1.72,2.35,1.53,2.16-.45,1.18-6.15,1.17-8.02-.01-3.26-.77-4.85,2.35-5.27,4.12-.56,4.81-.35,4.77-5.22-.03-5.64-4.39-11.01-5.68-16.79Zm-79.91-38.59c-1.76,5.31-3.36,10.44-5.45,15.6-1.15,2.84-1.69,4.69-3.46,6.97-1.84,2.4-2.7,3.63-4.05,6.46-2.79,5.95-6.04,9.75-11.75,12.02-1.6.63-3.13,1.23-4.86,1.31-1.13.05-2.58-.58-3.66.01-3.32,1.78-4.71,7.66-8.7,8.93-3.4,1.09-3.49-1.3-5.9-2.23-4.13-1.61-7,7.77-9.32,10.82-2.25,2.94-3.11,2.02-5.86.41-.31-.18-.72-.46-1.17-.75-.45.29-.85.56-1.17.75-2.75,1.61-3.61,2.53-5.86-.41-2.32-3.04-5.19-12.43-9.32-10.82-2.41.93-2.5,3.32-5.9,2.23-4-1.27-5.39-7.14-8.7-8.93-1.07-.59-2.53.04-3.66-.01-1.73-.08-3.26-.68-4.86-1.31-5.7-2.27-8.95-6.07-11.75-12.02-1.35-2.83-2.22-4.06-4.05-6.46-1.77-2.28-2.31-4.13-3.46-6.97-2.1-5.17-3.7-10.29-5.45-15.6-1.69-5.11-4.06-12.47-2.27-17.79,2.49-7.42,11.56-9.95,17.44-12.11,14.98-5.52,30.4-4.84,45.38.37,1.21.42,2.41.85,3.63,1.32,1.22-.47,2.43-.9,3.63-1.32,14.98-5.2,30.4-5.89,45.38-.37,5.87,2.16,14.94,4.69,17.44,12.11,1.8,5.32-.58,12.68-2.27,17.79Z"/>
        <path class="cls-8" d="m355.28,475.02c.81-.14,1.76-.33,2.75-.49-1.76,2.03-3.32,4.06-4.88,6.28-2.16,3.07-4.29,7.59-6.95,10.08-2.08-3.09-7.45,8.19-8.39,9.26-2.92,3.3-3.5-.34-7.07.42-2.83.6-5.26,2.06-8.32,1.44-1.72-.35-2.49-1.89-3.83-2.43-1.52-.62-2.95.07-4.5-.2-1.56-.28-3.7-1.38-4.82-2.62-1.27-1.43-1.31-3.66-2.56-5.05-1.7-1.93-4.86-1.51-6.62-3.19-1.8-1.7-2.15-4.56-4.08-6.29-1.3-1.17-3.38-.93-4.34-2.45-.43-.69-.22-1.84-.12-2.9-.59-.6-1.18-1.23-1.74-1.9-2.23,2.67-2.07,6.37-4.04,9.06-3.29-4.22-5.96-9.5-6.28-15.06-.09-1.66.14-3.43.12-5.13-.1-4.17-.52-5.09-4.59-5.31-1.09-3.64-.2-9.03-.17-12.98.01-1.72.13-3.32-.26-4.96-.1-.42-.41-1.49-.73-2.48-3.64,3.28-11.75,9.05-23.95,9.05s-20.31-5.77-23.95-9.05c-.33.98-.63,2.06-.73,2.48-.39,1.64-.28,3.24-.26,4.96.03,3.95.92,9.33-.17,12.98-4.06.22-4.48,1.14-4.59,5.31-.03,1.69.21,3.46.12,5.13-.31,5.56-2.99,10.84-6.28,15.06-1.97-2.69-1.81-6.38-4.04-9.06-.56.67-1.15,1.3-1.74,1.9.1,1.06.31,2.2-.12,2.9-.96,1.52-3.04,1.28-4.34,2.45-1.93,1.73-2.28,4.59-4.08,6.29-1.76,1.68-4.92,1.26-6.62,3.19-1.25,1.39-1.28,3.62-2.56,5.05-1.13,1.25-3.26,2.35-4.82,2.62-1.55.26-2.98-.42-4.5.2-1.34.54-2.11,2.07-3.83,2.43-3.07.62-5.49-.84-8.32-1.44-3.57-.76-4.14,2.88-7.07-.42-.94-1.06-6.31-12.35-8.39-9.26-2.66-2.49-4.78-7.01-6.95-10.08-1.56-2.22-3.12-4.25-4.88-6.28,1,.16,1.94.34,2.75.49,3.43.62,8.17,1.1,11.29,2.83,1.08-2.23-.92-3.79-.93-5.89,3.21-1.87,7.28,3.78,10.7,2.57,2.41-.84,1.87-4.69,3.74-6.38,1.04-.93,1.59-.01,2.2-1.49.6-1.46-.21-3.33-.93-4.39-2.06-3.08-7.66-3.17-8.53-7.25,1.74-.18,2.73-1.65,4.47-1.8.22-2.63-5.76-7.2-3.23-10.07.83-.94,2.64.05,3.72-1.13,1.23-1.31,1.14-3.68.64-5.4-.66-.14-1.31-.3-1.97-.45-.43-1.55.42-3.75-.12-5.11-.45-1.17-1.69-1.65-2.77-2.2-2.02-1.05-5.27-2.22-6.92-3.91-3.22-3.29,1.32-6.12.2-9.62-.85-2.69-5.68-1.13-6.75-3.78-1.27-3.15,5.41-6.66,5.53-10.54.12-4.1-4.89-8.29-6.61-11.75-1.91-3.88-3.93-7.2-6.37-10.71-.71-1.05-3.78-4.48-2.4-6.2.84-1.05,3.57.13,4.65-.13,1.32-.3,1.85-1.59,3.4-1.6.5-2.52-2.66-3.16-3.8-4.65-.88-1.14-1.4-2.77-1.91-4.04,5.83-.92,4.48-3.54,3.55-8.8-.79-4.35,1.1-2.03,3.22-3.53,1.66-1.17,1.74-3.09,1.19-4.98-.75-2.6-5.79-10.91-2.69-13.06,1.66-1.15,2.94.33,4.72-1.35,1.84-1.74,1.91-2.79.29-4.99-2.36-3.2-4.51-5.15-4.46-9.44.05-4.75-.87-10.53.11-15.09.97-4.54,2.06-9.18,3.76-13.42.69-1.78.64-3.33,1.17-5.27.41-1.6,2.43-3.13,2.06-5.05,2.31,1.8.51,10.61,3.6,11.22,2.12.42,2.01-2.52,2.39-3.85.43-1.57,1.25-3.46,1.46-5.14,3.24.79,5.06,12.83,5.65,15.55,2.1,9.74,5.51,18.51,9.36,27.53,1.21,2.84,2.75,5.82,3.47,8.88.56,2.37.43,11.02,2.62,11.81,1.66-1.01,2.06-3.37,3.95-4.47,3.43,2.18-.45,15.3,1.01,19.14,2.61,1.02,4.01-2.35,5.81-.45,1.51,1.6,1.31,6.27,2.54,8.43,1.02,1.8,3.13,6.61,4.58,7.47,1.61.94,2.08-.24,3.6.3,1.34.46,1.59,1.69,2.28,2.98.58,1.06,4.02,8.46,5.98,5.48.88,2.18,2.01,7.24,3.51,8.87,1.65,1.81,3.95.64,5.82,2.06,1.28-3.34-2.49-20.67,2.53-20.71,4.93,4.46,4.59,14.58,9.32,19.52.92-2.69-.18-5.79.42-8.63,2.18-.58,3.54,4.58,5.03,6.19,1.64,1.74,3.87,2.7,5.51,4.29,1.46,1.42,3.03,2.99,4.69,4.5,1.66-1.51,3.24-3.08,4.69-4.5,1.64-1.59,3.87-2.54,5.51-4.29,1.49-1.61,2.86-6.76,5.03-6.19.6,2.83-.5,5.94.42,8.63,4.73-4.94,4.39-15.06,9.32-19.52,5.02.04,1.25,17.37,2.53,20.71,1.87-1.42,4.17-.25,5.82-2.06,1.51-1.64,2.64-6.7,3.51-8.87,1.95,2.98,5.4-4.42,5.98-5.48.69-1.28.94-2.52,2.28-2.98,1.52-.54,1.99.64,3.61-.3,1.44-.87,3.55-5.68,4.58-7.47,1.23-2.16,1.04-6.83,2.54-8.43,1.8-1.9,3.2,1.47,5.81.45,1.46-3.84-2.43-16.96,1.01-19.14,1.89,1.1,2.28,3.46,3.95,4.47,2.19-.79,2.06-9.44,2.62-11.81.72-3.05,2.27-6.03,3.47-8.88,3.85-9.02,7.26-17.79,9.36-27.53.59-2.71,2.41-14.76,5.65-15.55.21,1.68,1.02,3.57,1.46,5.14.38,1.34.26,4.27,2.39,3.85,3.09-.62,1.3-9.43,3.6-11.22-.37,1.91,1.65,3.45,2.06,5.05.52,1.94.47,3.49,1.17,5.27,1.7,4.25,2.79,8.89,3.76,13.42.97,4.56.05,10.34.1,15.09.05,4.29-2.1,6.24-4.46,9.44-1.63,2.2-1.55,3.25.29,4.99,1.78,1.68,3.05.2,4.72,1.35,3.11,2.15-1.94,10.46-2.69,13.06-.55,1.89-.47,3.81,1.19,4.98,2.12,1.49,4.01-.83,3.22,3.53-.93,5.26-2.28,7.88,3.55,8.8-.51,1.27-1.04,2.9-1.91,4.04-1.14,1.49-4.3,2.14-3.8,4.65,1.55.01,2.07,1.3,3.4,1.6,1.09.26,3.81-.92,4.65.13,1.38,1.72-1.69,5.15-2.4,6.2-2.44,3.51-4.46,6.83-6.37,10.71-1.72,3.46-6.74,7.64-6.61,11.75.12,3.88,6.8,7.39,5.53,10.54-1.07,2.65-5.9,1.09-6.75,3.78-1.13,3.5,3.42,6.33.2,9.62-1.66,1.69-4.9,2.86-6.92,3.91-1.07.55-2.32,1.04-2.77,2.2-.54,1.36.31,3.57-.12,5.11-.66.14-1.31.3-1.97.45-.5,1.72-.59,4.09.64,5.4,1.09,1.18,2.9.18,3.72,1.13,2.53,2.87-3.45,7.43-3.22,10.07,1.74.14,2.73,1.61,4.47,1.8-.88,4.08-6.48,4.17-8.53,7.25-.72,1.06-1.53,2.94-.93,4.39.62,1.48,1.17.56,2.2,1.49,1.86,1.69,1.32,5.55,3.74,6.38,3.42,1.21,7.49-4.44,10.7-2.57-.01,2.1-2.01,3.66-.93,5.89,3.12-1.73,7.85-2.22,11.29-2.83Z"/>
        <path class="cls-8" d="m314.1,217.14c-1.76,5.31-3.36,10.44-5.45,15.6-1.15,2.84-1.69,4.69-3.46,6.97-1.84,2.4-2.7,3.63-4.05,6.46-2.79,5.95-6.04,9.75-11.75,12.02-1.6.63-3.13,1.23-4.86,1.31-1.13.05-2.58-.58-3.66.01-3.32,1.78-4.71,7.66-8.7,8.93-3.4,1.09-3.49-1.3-5.9-2.23-4.13-1.61-7,7.77-9.32,10.82-2.25,2.94-3.11,2.02-5.86.41-.31-.18-.72-.46-1.17-.75-.45.29-.85.56-1.17.75-2.75,1.61-3.61,2.53-5.86-.41-2.32-3.04-5.19-12.43-9.32-10.82-2.41.93-2.5,3.32-5.9,2.23-4-1.27-5.39-7.14-8.7-8.93-1.07-.59-2.53.04-3.66-.01-1.73-.08-3.26-.68-4.86-1.31-5.7-2.27-8.95-6.07-11.75-12.02-1.35-2.83-2.22-4.06-4.05-6.46-1.77-2.28-2.31-4.13-3.46-6.97-2.1-5.17-3.7-10.29-5.45-15.6-1.69-5.11-4.06-12.47-2.27-17.79,2.49-7.42,11.56-9.95,17.44-12.11,14.98-5.52,30.4-4.84,45.38.37,1.21.42,2.41.85,3.63,1.32,1.22-.47,2.43-.9,3.63-1.32,14.98-5.2,30.4-5.89,45.38-.37,5.87,2.16,14.94,4.69,17.44,12.11,1.8,5.32-.58,12.68-2.27,17.79Z"/>
        <path class="cls-4" d="m195.03,88.9c-.38,7.14-1.31,14.16-3.03,21.25-1.18,4.84-5.01,6.23-8.06,9.65-3.35,3.76-6.77,6.88-10.68,9.92-3.79,2.95-8.38,4.48-12.12,7.51-3.98,3.22-7.53,5.69-10.61,10.04-2.21,3.15-6.31,6.79-6.65,10.97-2.28.16-7.47,4.16-7.98,6.52.95.41,2.06.42,3.06.16-3.06,4.01-9.3,3.47-10.38,9.2-.24,1.27.51,2.48-.11,3.7-.4.79-3.14,3.5-3.57,4.12-2.66,3.87-6.46,8.64-10.39,10.97.74,2.03,2.28,3.79,4.51,3.87-1.06,2.29-2.25,4.69-3.45,6.92-.59,1.09-1.38,2.02-1.8,3.26-.53,1.63-.24,2.92-.53,4.65-.32,1.81-1.45,2.9-2.13,4.69-1.07,2.87-1.41,6.06-1.51,9.11-.18,5.53,2.18,2.95,5.87,4.01.2,1.72-2.02,5.13-2.56,6.91-.96,3.23-1.93,6.12-3.35,9.15-1.58,3.36-2.96,6.58-3.77,10.24-1.28,5.78-5.65,11.16-5.67,16.79-.04,4.86.65,4.65,4.77,5.22,3.13.42,2.37,2.01,2.35,5.27-.01,1.87-1,7.58,1.17,8.02.84.18,1.5-1.31,2.34-1.53,1.26-.34,3.38-.08,4.64.2.63,2.54.12,5.13.77,7.75.49,1.98.15,4.35.8,6.15,1.08-.67,1.71-1.56,2.02-2.62-.26,2.67-.81,5.27-1.3,7.94-.68.28-1,.83-.99,1.66.04,2.14.06,4.27.04,6.42-.02,4.27.92,7.87,1.27,11.98.24,2.66.76,10.4-2.44,6.61-2.02-2.37-1.32-11.1-4.52-11.84-.63,2.36-.23,5.28-.24,7.76-.02,4.43-2.58,6.55-3.39,10.82-.74,3.84-.93,10.4-.24,14.22.52,2.86,1.82,5.19,4.61,5.36.06,1.55,1.91,6.16,2.82,7.13.98-.76,2.07-1.01,3.16-.67.38,2.6,1.18,4.89,1.59,7.49,2.22-.12,3.53,3.34,4.82,5.11,2.06,2.82,3.75,5.82,4.82,9.27.37,1.21.51,3.07,1.06,4.19.56,1.14,3.14,2.95,2.15,4.55-1.63,2.65-2.98-1.7-4.58-1.73,2.68,7.42.96,19.13,1.01,27.36.04,5.56-2.41,8.85-4.38,13.5-.25-1.17-.39-2.2-.38-3.66.04-4.1.71-9.15-.11-13.15-.96-4.68-2.71-8.89-3.69-13.59-1.28-6.2-2.75-11.85-5.72-17.24-2.03-3.72-3.96-7.68-5.61-11.67-.44-1.05-3.63-11.81-5.39-8.14-1.74-1.6-4.2-8.86-4.52-11.71-.36-3.16.2-6.55.07-9.75-.12-2.95-.75-6.28-2.65-8.52-1.59-1.87-1.83-1.36-2.14-3.91-.21-1.74.25-3.4-.15-5.14-1.49-.03-3.64,2.54-4.58.43-.38-.87,1.26-4,1.24-5.51-.08-5.91-5.46-.24-6.14-4.21-.18-1.05,1.07-1.26,1.24-2.11.17-.84-.06-1.64.06-2.48.32-2.1.87-4.26,1.37-6.36.32-1.34,1.25-5.85,2.37-7.72-1.96,1.17-6.65,2.61-7.41.45-.23-.63,1.12-3.93,1.22-4.75.17-1.36-.01-2.7.23-4.02.2-1.18.94-1.95,1.14-3.19.13-.87-.31-1.84-.14-2.69.31-1.49,1.11-2.14,1.28-3.84.2-1.94-.27-3.99-.07-5.93.2-1.87,1.08-3.37,1.28-5.24.2-1.91-.42-4.01-.11-5.9.31-1.93,1.18-3.25,1.27-5.24.08-1.73-.23-3.55-.05-5.27.29-2.82,1.27-4.65,1.21-7.84-.05-3.38,1.25-5.58,1.19-9.18-.05-3.25,1.21-5.15,1.19-8.52-.06-6.94,1.49-12.74,3.27-19.01.57-1.97.93-4.06,1.49-5.95.33-1.1,1.02-2.05,1.25-3.16.33-1.6-.11-3.38.2-5.02.25-1.26.9-1.85.93-3.67.08-7.69,3.54-16.39,7.1-22.88,1.37-2.49,3.64-4.1,5.09-6.48,1.09-1.78,1.09-1.63,2.54-2.82.77-.63,1.47-1.32,2.21-2.14,3.86-4.34,7.74-8.52,11.59-12.65,2.01-2.16,3.99-4.33,5.94-6.67,1.9-2.28,3.46-6.2,6.62-5.98,19.06-22.65,38.18-37.51,54.99-47.22Z"/>
        <path class="cls-7" d="m119,300.98c.1-1.04.15-2.08.15-3.15.14,1.14.12,2.2-.15,3.15Z"/>
        <path class="cls-4" d="m304.8,88.9c.38,7.14,1.31,14.16,3.03,21.25,1.18,4.84,5.01,6.23,8.06,9.65,3.35,3.76,6.77,6.88,10.68,9.92,3.79,2.95,8.38,4.48,12.12,7.51,3.98,3.22,7.53,5.69,10.61,10.04,2.21,3.15,6.31,6.79,6.65,10.97,2.28.16,7.47,4.16,7.98,6.52-.95.41-2.06.42-3.06.16,3.06,4.01,9.3,3.47,10.38,9.2.24,1.27-.51,2.48.11,3.7.4.79,3.14,3.5,3.57,4.12,2.66,3.87,6.46,8.64,10.39,10.97-.74,2.03-2.28,3.79-4.51,3.87,1.06,2.29,2.25,4.69,3.45,6.92.59,1.09,1.38,2.02,1.8,3.26.53,1.63.24,2.92.53,4.65.32,1.81,1.45,2.9,2.13,4.69,1.07,2.87,1.41,6.06,1.51,9.11.18,5.53-2.18,2.95-5.87,4.01-.2,1.72,2.02,5.13,2.56,6.91.96,3.23,1.93,6.12,3.35,9.15,1.58,3.36,2.96,6.58,3.77,10.24,1.28,5.78,5.65,11.16,5.67,16.79.04,4.86-.65,4.65-4.77,5.22-3.13.42-2.37,2.01-2.35,5.27.01,1.87,1,7.58-1.17,8.02-.84.18-1.5-1.31-2.34-1.53-1.26-.34-3.38-.08-4.64.2-.63,2.54-.12,5.13-.77,7.75-.49,1.98-.15,4.35-.8,6.15-1.08-.67-1.71-1.56-2.02-2.62.26,2.67.81,5.27,1.3,7.94.68.28,1,.83.99,1.66-.04,2.14-.06,4.27-.04,6.42.02,4.27-.92,7.87-1.27,11.98-.24,2.66-.76,10.4,2.44,6.61,2.02-2.37,1.32-11.1,4.52-11.84.63,2.36.23,5.28.24,7.76.02,4.43,2.58,6.55,3.39,10.82.74,3.84.93,10.4.24,14.22-.52,2.86-1.82,5.19-4.61,5.36-.06,1.55-1.91,6.16-2.82,7.13-.98-.76-2.07-1.01-3.16-.67-.38,2.6-1.18,4.89-1.59,7.49-2.22-.12-3.53,3.34-4.82,5.11-2.06,2.82-3.75,5.82-4.82,9.27-.37,1.21-.51,3.07-1.06,4.19-.56,1.14-3.14,2.95-2.15,4.55,1.63,2.65,2.98-1.7,4.58-1.73-2.68,7.42-.96,19.13-1.01,27.36-.04,5.56,2.41,8.85,4.38,13.5.25-1.17.39-2.2.38-3.66-.04-4.1-.71-9.15.11-13.15.96-4.68,2.71-8.89,3.69-13.59,1.28-6.2,2.75-11.85,5.72-17.24,2.03-3.72,3.96-7.68,5.61-11.67.44-1.05,3.63-11.81,5.39-8.14,1.74-1.6,4.2-8.86,4.52-11.71.36-3.16-.2-6.55-.07-9.75.12-2.95.75-6.28,2.65-8.52,1.59-1.87,1.83-1.36,2.14-3.91.21-1.74-.25-3.4.15-5.14,1.49-.03,3.64,2.54,4.58.43.38-.87-1.26-4-1.24-5.51.08-5.91,5.46-.24,6.14-4.21.18-1.05-1.07-1.26-1.24-2.11-.17-.84.06-1.64-.06-2.48-.32-2.1-.87-4.26-1.37-6.36-.32-1.34-1.25-5.85-2.37-7.72,1.96,1.17,6.65,2.61,7.41.45.23-.63-1.12-3.93-1.22-4.75-.17-1.36.01-2.7-.23-4.02-.2-1.18-.94-1.95-1.14-3.19-.13-.87.31-1.84.14-2.69-.31-1.49-1.11-2.14-1.28-3.84-.2-1.94.27-3.99.07-5.93-.2-1.87-1.08-3.37-1.28-5.24-.2-1.91.42-4.01.11-5.9-.31-1.93-1.18-3.25-1.27-5.24-.08-1.73.23-3.55.05-5.27-.29-2.82-1.27-4.65-1.21-7.84.05-3.38-1.25-5.58-1.19-9.18.05-3.25-1.21-5.15-1.19-8.52.06-6.94-1.49-12.74-3.27-19.01-.57-1.97-.93-4.06-1.49-5.95-.33-1.1-1.02-2.05-1.25-3.16-.33-1.6.11-3.38-.2-5.02-.25-1.26-.9-1.85-.93-3.67-.08-7.69-3.54-16.39-7.1-22.88-1.37-2.49-3.64-4.1-5.09-6.48-1.09-1.78-1.09-1.63-2.54-2.82-.77-.63-1.47-1.32-2.21-2.14-3.86-4.34-7.74-8.52-11.59-12.65-2.01-2.16-3.99-4.33-5.94-6.67-1.9-2.28-3.46-6.2-6.62-5.98-19.06-22.65-38.18-37.51-54.99-47.22Z"/>
        <path class="cls-7" d="m380.83,300.98c-.1-1.04-.15-2.08-.15-3.15-.14,1.14-.12,2.2.15,3.15Z"/>
        <path class="cls-1" d="m307.14,70.5c.3,1.02.62,1.99.96,2.91,9.23-3.63,17.15-6.41,21.96-8.01,29.69-9.88,111.23,7.87,142.7-9.07,18.98-10.23,17.45-36.82,13.24-56.32-1.3.12-2.01,1.49-1.65,4.35,1.97,15.74,4.92,46.03-39.38,40.34-44.3-5.69-73.83-18.29-126.99-4.64,0,0-18.71,4.2-10.83,30.44Z"/>
        <path class="cls-8" d="m346.93,71.2s34.27-5.24,53.84,10.49c.77.62,1.43,1.28,2,1.96.66.32,1.32.66,1.98,1.03.03.53-.13.99-.37,1.41,1.2,2.42,1.5,5.11,1.06,7.92.06.06.14.1.2.16-.08-.01-.15-.02-.22-.04-1.09,6.66-6.32,13.97-13.68,19.8.68.79,1.35,1.56,1.14,2.59-1.14.08-2.43-.35-3.74-.66-12.06,8.43-28.61,12.75-42.22,5.14-1.06-.59-2.06-1.22-3.01-1.85-1.1-.45-2.19-.92-3.26-1.46-4.48-2.27-9.23-5.66-9.56-10.64-.1-1.48-.11-2.98-.07-4.48-4.31-15.11,6.2-30.81,15.89-31.39Z"/>
        <path class="cls-2" d="m308.1,73.41c8.04,22.77,21.68,15.98,21.68,15.98,0,0,57.09-10.49,78.75-10.49s64.98,6.29,84.66-27.29c16.11-27.5-1.4-52.18-7.2-51.6,4.21,19.49,5.74,46.09-13.24,56.32-31.46,16.94-113-.81-142.7,9.07-4.81,1.6-12.73,4.38-21.96,8.01Z"/>
        <path class="cls-8" d="m273.47,125.1c.14,3.25.29,2.36,2.67,3.84,1.52.96,2.02,2.82,3.83,3.38,2.75.84,10.74-2.33,10.8,2.07,1.56-.39,2.15-1.82,3.61-2.2,1.22-.33,2.86-.29,4.01-.59,2.99-.77,4.77-.69,7.54.46,2.31-2.69,4.17-4.64,8-3.54.13,1.34-.42,3.78,1.48,3.89,1.04.07,2.2-1.46,2.65-2.25,1.63,1.65,2.61,3.46,4.71,4.58,1.99,1.06,4.27,1.9,6.28,2.92,2.43,1.23,3.59,1.61,6.07.37,1.49-.75.73-1.93,2.65-1.28.64.21,1.4,1.64,2.03,2.08,2.48,1.78,5.05,1.77,7.42.37,2.39-1.4,1.89-5.82,4.97-5.78,1.07.01,1.46,1.28,2.52,1.55,1.3.3,2.61-.22,4,.18.42.12.88.29,1.32.49-1.04-2.85-2.27-5.68-2.64-8.61-8.22-.33-8.93-4.29-9.15-9.18-.17-3.89-2.86-7.16-4.29-10.75-2.08-5.28-3.89-10.49-6.14-15.73-3.63-8.47-10.89-14-18.06-19.43-.55-.42-1.09-.8-1.64-1.17-2.65,1.02-5.35,1.89-8.18,2.29-3.47.51-6.33.51-9.57,2.23-4.46,2.35-9.58,6.65-13.62,9.79-2.84,2.22-4.94,4.73-6.67,7.9-3.6,6.61-4.22,14.22-5.82,21.46-.8,3.58-.92,6.99-.77,10.66Z"/>
        <path class="cls-1" d="m192.69,70.5c-.3,1.02-.62,1.99-.96,2.91-9.23-3.63-17.15-6.41-21.96-8.01-29.69-9.88-111.23,7.87-142.7-9.07C8.1,46.1,9.63,19.5,13.84,0c1.3.12,2.01,1.49,1.65,4.35-1.97,15.74-4.92,46.03,39.38,40.34,44.3-5.69,73.83-18.29,126.99-4.64,0,0,18.71,4.2,10.83,30.44Z"/>
        <path class="cls-8" d="m152.9,71.2s-34.27-5.24-53.84,10.49c-.77.62-1.43,1.28-2,1.96-.66.32-1.32.66-1.98,1.03-.03.53.13.99.37,1.41-1.2,2.42-1.5,5.11-1.06,7.92-.06.06-.14.1-.2.16.08-.01.15-.02.22-.04,1.09,6.66,6.32,13.97,13.68,19.8-.68.79-1.35,1.56-1.14,2.59,1.14.08,2.43-.35,3.74-.66,12.06,8.43,28.61,12.75,42.22,5.14,1.06-.59,2.06-1.22,3.01-1.85,1.1-.45,2.19-.92,3.26-1.46,4.48-2.27,9.23-5.66,9.56-10.64.1-1.48.11-2.98.07-4.48,4.31-15.11-6.2-30.81-15.89-31.39Z"/>
        <path class="cls-2" d="m191.74,73.41c-8.04,22.77-21.68,15.98-21.68,15.98,0,0-57.09-10.49-78.75-10.49S26.32,85.19,6.65,51.61C-9.47,24.11,8.05-.57,13.84,0c-4.21,19.49-5.74,46.09,13.24,56.32,31.46,16.94,113-.81,142.7,9.07,4.81,1.6,12.73,4.38,21.96,8.01Z"/>
        <path class="cls-3" d="m358.67,157.49c-.03,4.4-.01,8.81.03,13.2.05,5.45-3.36,9.71-4.19,15.21-1.49-.1-2.05-1-2.69-2.39-3.58.08-3,5.3-3.83,7.73-.6,1.76-4.5,7.96-6.33,8.76-1.01-.62-1.44-1.56-2.27-2.11-1.57,3.04-3.63,5.14-5.06,8.35-1.35,3.04-3.22,9.19-6.14,10.79-.41-.97-1.1-1.76-1.91-2.1-2.07,3.68-6.31,12.86-10.84,12.79-.92-.01-1.43-1.23-2.62-.96-.94.21-2.67,2.37-3.33,3.15-1.98,2.33-3.45,6.83-7,7.14-.13-.79-.25-1.59-.38-2.37-4.52-2.07-5.98,5.23-8.3,6.9-.84.62-5.65,2.28-6.96,2.32-.12,1.78-.76,3.76-2.56,4.5-2.77-2.46-6.55,3.72-8.84,4.4-1.44.43-2.92-.43-4.33.31-1.17.62-1.14,2.05-2.6,2.23-.45-1.77-.3-3.78-2.62-3.7-.89,1.38-1.22,3.15-2.56,4.22-1.39,1.11-2.95.88-4.37,2.15-2.25,2.06-.84,2.11-3.83,2.7-2.46.5-3.05.79-5.24,2.29-2.19-1.51-2.78-1.8-5.24-2.29-2.99-.59-1.57-.64-3.83-2.7-1.42-1.27-2.98-1.04-4.37-2.15-1.34-1.08-1.66-2.84-2.56-4.22-2.32-.08-2.18,1.93-2.62,3.7-1.46-.18-1.43-1.61-2.6-2.23-1.4-.75-2.88.12-4.33-.31-2.28-.68-6.07-6.87-8.84-4.4-1.8-.73-2.44-2.71-2.56-4.5-1.31-.04-6.12-1.7-6.96-2.32-2.32-1.66-3.78-8.97-8.3-6.9-.13.79-.25,1.59-.38,2.37-3.55-.31-5.02-4.81-7-7.14-.66-.77-2.39-2.94-3.33-3.15-1.19-.28-1.7.94-2.62.96-4.54.07-8.77-9.11-10.84-12.79-.81.34-1.51,1.13-1.91,2.1-2.91-1.6-4.78-7.75-6.14-10.79-1.43-3.21-3.49-5.31-5.06-8.35-.83.55-1.26,1.49-2.27,2.11-1.84-.8-5.73-7-6.33-8.76-.83-2.44-.25-7.66-3.83-7.73-.64,1.39-1.19,2.28-2.69,2.39-.84-5.49-4.25-9.75-4.19-15.21.04-4.39.05-8.8.03-13.2-.04-5.01-.77-5.03-5.14-5.7-.21-3.74,1.8-9.23,2.75-12.91.28-1.09.64-2.18,1.04-3.25.45-.2.9-.37,1.32-.49,1.39-.41,2.7.12,4-.18,1.06-.26,1.44-1.53,2.52-1.55,3.08-.04,2.58,4.38,4.97,5.78,2.37,1.4,4.94,1.42,7.42-.37.63-.45,1.39-1.87,2.03-2.08,1.91-.64,1.15.54,2.65,1.28,2.48,1.25,3.64.87,6.07-.37,2.01-1.02,4.29-1.86,6.28-2.92,2.1-1.11,3.08-2.92,4.71-4.58.45.8,1.61,2.32,2.65,2.25,1.9-.12,1.35-2.56,1.48-3.89,3.83-1.1,5.69.85,8,3.54,2.77-1.15,4.55-1.23,7.54-.46,1.15.3,2.79.26,4.01.59,1.46.38,2.04,1.81,3.6,2.2.07-4.4,8.05-1.23,10.8-2.07,1.81-.56,2.31-2.43,3.83-3.38,2.39-1.48,2.53-.59,2.67-3.84.14-3.67.03-7.08-.77-10.66-1.6-7.24-2.22-14.85-5.82-21.46-1.73-3.17-3.83-5.69-6.67-7.9-4.04-3.15-9.16-7.45-13.62-9.79-3.24-1.72-6.1-1.72-9.57-2.23-2.83-.41-5.53-1.27-8.18-2.29,8.46-5.65,16.82-5.36,27.02-5.36,7.94,0,14.25.73,22,2.5,6.2,1.4,13.2,4.27,19.18,8.13,5.98-3.85,12.98-6.73,19.18-8.13,7.75-1.77,14.05-2.5,22-2.5,10.2,0,18.56-.29,27.02,5.36-2.65,1.02-5.35,1.89-8.18,2.29-3.47.51-6.33.51-9.57,2.23-4.46,2.35-9.58,6.65-13.62,9.79-2.84,2.22-4.94,4.73-6.67,7.9-3.6,6.61-4.22,14.22-5.82,21.46-.8,3.58-.92,6.99-.77,10.66.14,3.25.29,2.36,2.67,3.84,1.52.96,2.02,2.82,3.83,3.38,2.75.84,10.74-2.33,10.8,2.07,1.56-.39,2.15-1.82,3.61-2.2,1.22-.33,2.86-.29,4.01-.59,2.99-.77,4.77-.69,7.54.46,2.31-2.69,4.17-4.64,8-3.54.13,1.34-.42,3.78,1.48,3.89,1.04.07,2.2-1.46,2.65-2.25,1.63,1.65,2.61,3.46,4.71,4.58,1.99,1.06,4.27,1.9,6.28,2.92,2.43,1.23,3.59,1.61,6.07.37,1.49-.75.73-1.93,2.65-1.28.64.21,1.4,1.64,2.03,2.08,2.48,1.78,5.05,1.77,7.42.37,2.39-1.4,1.89-5.82,4.97-5.78,1.08.01,1.46,1.28,2.52,1.55,1.3.3,2.61-.22,4,.18.42.12.88.29,1.32.49.39,1.07.76,2.16,1.04,3.25.96,3.68,2.96,9.18,2.75,12.91-4.37.67-5.1.69-5.14,5.7Z"/>
        <path class="cls-8" d="m226.36,125.1c-.14,3.25-.29,2.36-2.67,3.84-1.52.96-2.02,2.82-3.83,3.38-2.75.84-10.74-2.33-10.8,2.07-1.56-.39-2.15-1.82-3.6-2.2-1.22-.33-2.86-.29-4.01-.59-2.99-.77-4.77-.69-7.54.46-2.31-2.69-4.17-4.64-8-3.54-.13,1.34.42,3.78-1.48,3.89-1.04.07-2.2-1.46-2.65-2.25-1.63,1.65-2.61,3.46-4.71,4.58-1.99,1.06-4.27,1.9-6.28,2.92-2.43,1.23-3.59,1.61-6.07.37-1.49-.75-.73-1.93-2.65-1.28-.64.21-1.4,1.64-2.03,2.08-2.48,1.78-5.05,1.77-7.42.37-2.39-1.4-1.89-5.82-4.97-5.78-1.07.01-1.46,1.28-2.52,1.55-1.3.3-2.61-.22-4,.18-.42.12-.88.29-1.32.49,1.04-2.85,2.27-5.68,2.64-8.61,8.22-.33,8.93-4.29,9.15-9.18.17-3.89,2.86-7.16,4.29-10.75,2.08-5.28,3.89-10.49,6.14-15.73,3.63-8.47,10.89-14,18.06-19.43.55-.42,1.09-.8,1.64-1.17,2.65,1.02,5.35,1.89,8.18,2.29,3.47.51,6.33.51,9.57,2.23,4.46,2.35,9.58,6.65,13.62,9.79,2.84,2.22,4.94,4.73,6.67,7.9,3.61,6.61,4.22,14.22,5.82,21.46.8,3.58.92,6.99.77,10.66Z"/>
        <path class="cls-6" d="m309.47,203.27c-2.61,16.28-10.51,23.01-18.46,24.29-6.76,1.11-13.54-1.72-17.08-5.94-7.68-9.18-24.02-11.8-24.02-11.8,0,0-16.33,2.62-24.02,11.8-3.54,4.22-10.32,7.05-17.08,5.94-7.94-1.28-15.85-8.01-18.46-24.29-4.78-30.15,5.77-36.71,15.38-48.5,9.61-11.8,35.54-11.8,44.18-11.8s34.57,0,44.18,11.8c9.61,11.8,20.16,18.35,15.38,48.5Z"/>
        <path class="cls-10" d="m233.22,173.97s-8.22-2.81-17.85-11c-9.63-8.2-7.76,11.36,0,19.23,7.76,7.87,21.73,9.26,17.85-8.22Z"/>
        <path class="cls-10" d="m291.01,227.56h0s-7.33,9.69-41.1,9.69-41.1-9.67-41.1-9.67h0c6.76,1.1,13.54-1.73,17.08-5.95,7.68-9.18,24.02-11.8,24.02-11.8,0,0,16.33,2.62,24.02,11.8,3.54,4.22,10.32,7.05,17.08,5.94Z"/>
        <path class="cls-9" d="m275.15,160.99c-2.57,10.2-16.69,13.38-25.24,13.38s-22.67-3.19-25.24-13.38c-2.57-10.19,0-11.14,6.61-8.08,6.59,3.05,18.63,3.05,18.63,3.05,0,0,12.03,0,18.63-3.05,6.61-3.07,9.18-2.11,6.61,8.08Z"/>
        <path class="cls-3" d="m353.18,118.98c-3.4-.79-9.39-6.33-11.58-9.03-3.68-4.52-6.66-8.65-9.16-14-.84,2.32-2.01,5.83-3.83,7.56-3.33,3.15-3.54.14-5.26-2.12-2.99-3.91-4.23.47-6.25,3.32-1.84,2.58-4.13,8.02-8.02,7.75-.59-1.98.75-4.31-1.42-5.22-3.42-1.43-5.03,3.43-6.55,5.1-1.87,2.08-14.09,4.42-8.44,9.6-1.73-1-3.89-2.52-5.87-2.71-.85,2.92.39,6.03-.33,8.97-2.36.64-5.28.21-7.5-.77-2.1-.93-2.37-2.73-4.12-3.75-4.21-2.46-5.56,6.36-10.34,4.56-.41-1.72.01-3.32-.39-5.03-4.38-1.81-6.78,6.96-9.99,6.28-1.02-.21-1.56-2.2-2.87-2.54-.45-.12-.89-.12-1.34-.05-.45-.07-.89-.07-1.34.05-1.31.34-1.85,2.33-2.87,2.54-3.21.68-5.61-8.09-9.99-6.28-.41,1.72.01,3.32-.39,5.03-4.79,1.8-6.14-7.03-10.34-4.56-1.74,1.02-2.02,2.82-4.12,3.75-2.22.98-5.14,1.42-7.5.77-.72-2.94.52-6.04-.33-8.97-1.98.2-4.14,1.72-5.87,2.71,5.65-5.18-6.57-7.51-8.44-9.6-1.52-1.66-3.13-6.53-6.55-5.1-2.16.9-.83,3.24-1.42,5.22-3.89.28-6.19-5.17-8.02-7.75-2.02-2.84-3.26-7.22-6.25-3.32-1.72,2.27-1.93,5.27-5.26,2.12-1.82-1.73-2.99-5.24-3.83-7.56-2.5,5.35-5.48,9.48-9.16,14-2.19,2.7-8.18,8.25-11.58,9.03-5.52,1.27-.71-2.75-1.8-4.94-4.18,1.4-7.71,6.95-12.44,7.6,2.11-6.76,6.5-13.2,4.59-20.65-1.22-.13-2.4-.28-3.61-.46,2.1-4.55,4.46-9.24,6.75-13.83.67-1.32,1.46-2.64,2.2-3.96.04-.01.08-.03.12-.03,4.05-.56,1.72,1.46,2.53,4.38,1.06,3.81,3,0,5.11,2.1.96.96.25,5.86.1,7.21,1.95-2.4,5.96-4.1,8.29-6.32,1.95-1.87,3.28-4.35,4.98-6.42.94-1.17,2.57-4.17,3.87-4.73,3.95,4.68,5.53,0,6.88-4.06.98-3,1.9-6.03,2.56-9.33,3.64.52,3.97,8.9,7.5,3.2,1.78-2.87.69-10.67,4.39-12.05,1.51,1.22.21,6.03,3.08,5.94,2.84-.08,1.26-5.69,4.17-6.29.85,2.39.26,5.86.26,8.36,0,2.95.73,7-.83,9.69,6.28,2.73,8.77-8.61,13.74-7.56.71,2.45.48,5.7-1,7.8-1.74,2.49-6.76,4.35-6.59,7.66,3.67.72,5.58-.62,8.81-2.16,1.57-.76,6.55-4.35,7.96-4.12.87,3.24.12,9.35,5.47,5.23,2.03-1.56,2.98-7.35,4.89-7.85.55,2.69,2.02,5.13,2.65,7.73.71,2.84-.71,6.67,1.98,8.8,2.1-2.62.63-6.03,4.55-5.89,1.19.05,2.1,2.18,4,.85.85-.6,1.56-2.83,1.93-3.71,1.14-2.78.08-8.09,3.51-9.29.83-.29,1.73-.35,2.66-.29.93-.07,1.84,0,2.66.29,3.43,1.21,2.37,6.52,3.51,9.29.37.88,1.08,3.11,1.93,3.71,1.9,1.32,2.81-.8,4-.85,3.92-.14,2.45,3.26,4.55,5.89,2.69-2.12,1.27-5.95,1.98-8.8.63-2.61,2.1-5.05,2.65-7.73,1.91.5,2.86,6.29,4.89,7.85,5.35,4.12,4.6-1.99,5.47-5.23,1.4-.24,6.38,3.36,7.96,4.12,3.23,1.55,5.14,2.88,8.81,2.16.17-3.3-4.85-5.17-6.59-7.66-1.48-2.1-1.7-5.35-1-7.8,4.97-1.05,7.46,10.29,13.74,7.56-1.56-2.69-.83-6.74-.83-9.69,0-2.5-.59-5.98.26-8.36,2.91.6,1.32,6.21,4.17,6.29,2.87.09,1.57-4.72,3.08-5.94,3.7,1.38,2.61,9.18,4.39,12.05,3.53,5.7,3.85-2.67,7.5-3.2.66,3.3,1.57,6.33,2.56,9.33,1.35,4.06,2.94,8.74,6.88,4.06,1.3.56,2.92,3.57,3.87,4.73,1.7,2.07,3.03,4.55,4.98,6.42,2.32,2.22,6.33,3.92,8.29,6.32-.14-1.35-.85-6.25.1-7.21,2.11-2.1,4.05,1.72,5.11-2.1.81-2.92-1.52-4.94,2.53-4.38.04,0,.08.01.12.03.75,1.32,1.53,2.64,2.2,3.96,2.29,4.59,4.65,9.28,6.75,13.83-1.21.18-2.39.33-3.61.46-1.91,7.45,2.48,13.88,4.59,20.65-4.73-.66-8.26-6.2-12.44-7.6-1.09,2.19,3.72,6.21-1.8,4.94Z"/>
        <path class="cls-4" d="m357.48,82.74s-.08-.03-.12-.03c-4.05-.56-1.72,1.46-2.53,4.38-1.06,3.81-3,0-5.11,2.1-.96.96-.25,5.86-.1,7.21-1.95-2.4-5.96-4.1-8.29-6.32-1.95-1.87-3.28-4.35-4.98-6.42-.94-1.17-2.57-4.17-3.87-4.73-3.95,4.68-5.53,0-6.88-4.06-.98-3-1.9-6.03-2.56-9.33-3.64.52-3.97,8.9-7.5,3.2-1.78-2.87-.69-10.67-4.39-12.05-1.51,1.22-.21,6.03-3.08,5.94-2.84-.08-1.26-5.69-4.17-6.29-.85,2.39-.26,5.86-.26,8.36,0,2.95-.73,7,.83,9.69-6.28,2.73-8.77-8.61-13.74-7.56-.71,2.45-.49,5.7,1,7.8,1.74,2.49,6.76,4.35,6.59,7.66-3.67.72-5.58-.62-8.81-2.16-1.57-.76-6.55-4.35-7.96-4.12-.87,3.24-.12,9.35-5.47,5.23-2.03-1.56-2.98-7.35-4.89-7.85-.55,2.69-2.02,5.13-2.65,7.73-.71,2.84.71,6.67-1.98,8.8-2.1-2.62-.63-6.03-4.55-5.89-1.19.05-2.1,2.18-4,.85-.85-.6-1.56-2.83-1.93-3.71-1.14-2.78-.08-8.09-3.51-9.29-.83-.29-1.73-.35-2.66-.29-.93-.07-1.84,0-2.66.29-3.43,1.21-2.37,6.52-3.51,9.29-.37.88-1.08,3.11-1.93,3.71-1.9,1.32-2.81-.8-4-.85-3.92-.14-2.45,3.26-4.55,5.89-2.69-2.12-1.27-5.95-1.98-8.8-.63-2.61-2.1-5.05-2.65-7.73-1.91.5-2.86,6.29-4.89,7.85-5.35,4.12-4.6-1.99-5.47-5.23-1.4-.24-6.38,3.36-7.96,4.12-3.22,1.55-5.14,2.88-8.81,2.16-.17-3.3,4.85-5.17,6.59-7.66,1.48-2.1,1.7-5.35,1-7.8-4.97-1.05-7.46,10.29-13.74,7.56,1.56-2.69.83-6.74.83-9.69,0-2.5.59-5.98-.26-8.36-2.91.6-1.32,6.21-4.17,6.29-2.87.09-1.57-4.72-3.08-5.94-3.7,1.38-2.61,9.18-4.39,12.05-3.53,5.7-3.85-2.67-7.5-3.2-.66,3.3-1.57,6.33-2.56,9.33-1.35,4.06-2.94,8.74-6.88,4.06-1.3.56-2.92,3.57-3.87,4.73-1.7,2.07-3.03,4.55-4.98,6.42-2.32,2.22-6.33,3.92-8.29,6.32.14-1.35.85-6.25-.1-7.21-2.11-2.1-4.05,1.72-5.11-2.1-.81-2.92,1.52-4.94-2.53-4.38-.04,0-.08.01-.12.03.52-.94,1.04-1.9,1.44-2.88,0-.03.98-2.95.98-2.95.3-1.23,1.13-3,1.31-3.93,1.14-6.06,2.9-12.1,5.53-18.13.96-2.18,1.73-4.5,2.58-6.53.46-1.09.85-3.05,1.31-3.93.69-1.26,1.49-1.72,2.37-2.87,1.46-1.93,2.15-5.05,3.24-7.25,1-2.02,2.44-3.7,3.6-5.57,1.25-2.05,1.84-5.27,3.54-6.95.93-.92,2.31-1.17,3.38-1.87,1.15-.76,2.43-1.84,3.61-2.65.96-.67,1.87-2.18,2.84-2.69,1.23-.66,2.44-.07,3.71-.22,1.82-.24,2.23-1.04,3.83-1.42,1.64-.39,3.64.31,5.34.09,1.82-.24,2.24-1.02,3.84-1.4,1.68-.41,3.7.54,5.38.13,1.61-.39,2.01-1.18,3.84-1.4,1.72-.22,3.28.33,4.96-.26-.47-.67-.29-1.08.59-1.19,12.59.37,25.17.87,37.74,1.48l2.6,6.97,2.6-6.97c12.57-.62,25.16-1.11,37.74-1.48.88.12,1.06.52.59,1.19,1.68.59,3.24.04,4.96.26,1.84.22,2.23,1.01,3.84,1.4,1.68.41,3.7-.54,5.37-.13,1.6.38,2.02,1.17,3.84,1.4,1.69.22,3.7-.49,5.34-.09,1.6.38,2.01,1.18,3.83,1.42,1.27.16,2.48-.43,3.71.22.97.51,1.89,2.02,2.84,2.69,1.18.81,2.45,1.89,3.61,2.65,1.08.71,2.45.96,3.38,1.87,1.7,1.68,2.29,4.9,3.54,6.95,1.17,1.87,2.61,3.55,3.61,5.57,1.09,2.2,1.78,5.32,3.24,7.25.88,1.15,1.68,1.61,2.37,2.87.46.88.85,2.84,1.31,3.93.85,2.03,1.63,4.35,2.58,6.53,2.64,6.03,4.39,12.07,5.53,18.13.18.93,1.01,2.7,1.31,3.93,0,0,.98,2.92.98,2.95.41.98.92,1.94,1.44,2.88Z"/>
        <path class="cls-10" d="m266.61,173.97s8.22-2.81,17.85-11,7.76,11.36,0,19.23-21.73,9.26-17.85-8.22Z"/>
      </g>
    </g>
  </g>
</svg>