<?xml version="1.0" encoding="UTF-8"?><svg data-name="Layer 2" xmlns="http://www.w3.org/2000/svg" viewBox="0 0 87.02 67.95"><defs/><g data-name="100"><g><path d="m42.26,36.84c-1.78,2.96-4.42,11.39-5.74,17.37-.68,3.07-1.21,4.69-1.89,5.57-.65.83-1.43.98-2.59,1.03-2.3.11-5.79.27-5.11-1.47.02-.07.06-.14.1-.21,1.05-1.97,3-7.17,3.26-11.98.26-4.81.28-18.07.28-18.07,2.42-13.22,9.72-10.84,15.06-5.97,5.34,4.86-1.58,10.78-3.36,13.74Z" style="stroke-width:0px;fill:#231f20"/><path d="m75.28,35.49c-2.71,4.63-.32,4.63-1.44,9.26-.9,3.73-1.39,8.29-3.3,10.42-.46.51-1,.88-1.65,1.07-3.35.96-4.63-.48-3.53-2.39,0,0,0,0,0,0,1.1-1.92,2.73-8.46.5-11.33-2.23-2.87,0-11.49,0-11.49,2.87-7.18,4.79-8.3,9.42-8.94s2.71,8.78,0,13.41Z" style="stroke-width:0px;fill:#231f20"/><path d="m34.62,59.77c-.65.83-1.43.98-2.59,1.03-2.3.11-5.79.27-5.11-1.47,1.58.5,4.02.82,7.7.44Z" style="stroke-width:0px;fill:#231f20"/><path d="m70.54,55.17c-.46.51-1,.88-1.65,1.07-3.35.96-4.63-.48-3.53-2.39-.05.1-.76,1.87,5.18,1.32Z" style="stroke-width:0px;fill:#231f20"/><path d="m4.3,35.96s-.85-4.31,1.06-6.76c1.92-2.45,4.26-2.23,4.2-.48-.05,1.75-5.27,7.24-5.27,7.24Z" style="stroke-width:0px;fill:#202121"/><path d="m50.28,16.85c-.7,2.32-1.98,4.86-3.89,5.21-3.35.61-7.66-3.64-9.74-3.96-2.08-.32-7.02-1.28-7.43,0-.41,1.28-3.58.64-5.82,3.03-2.23,2.39-1.44,7.34-3.19,6.91-1.76-.44-5.75,2.42-10.48,7.46-4.73,5.04-7.87,17.08-8.31,23.16-.25,3.58-.22,4.93-.55,5.43-.22-1.19-.83-2.7-.83-4.62,0-8.62-.96-21.07,5.99-27.05,6.94-5.99,9.89-13.41,17.39-21.79,4.65-5.19,9.46-6.61,14.61-7.63,3.31,1.14,8.77,3.66,9.91,8.11.02.08.04.17.07.26.01.04.02.08.04.13.03.1.06.2.09.3.03.09.06.18.09.27,0,.01,0,.02.01.04.03.1.07.2.1.3.01.04.03.08.04.12.03.08.06.16.09.24.11.29.22.58.35.89.06.15.12.3.19.46.21.49.43.99.68,1.52.08.17.16.34.24.52.04.09.08.18.13.26.07.15.14.3.22.44Z" style="stroke-width:0px;fill:#4c4c4c"/><path d="m51.66,39.89c-5.75-2.62-10.54-12.7-10.69-10.47-.16,2.23,1.6,4.95-1.6,5.11-3.19.16-8.14-1.12-7.73-.16.41.96-1.69.64-3.29-.48-1.6-1.12-.96,2.71-1.88,2.38s-3.07-1.26-3.05,0c.02,1.26-3.11,8-5.88,10.98-2.77,2.98-10.02,12.11-9.16,8.3.86-3.81,2.56-4.47,2.67-5.64.11-1.17-4.79,4.04-5,7.13-.21,3.09-.64,8.76-2.34,9.79-.65.4-1.02.33-1.81.1h0c-.42-.6-.78-1.52-1.02-2.84.33-.5.29-1.85.55-5.43.43-6.08,3.57-18.12,8.31-23.16,4.74-5.04,8.73-7.89,10.48-7.46,1.76.43.96-4.51,3.19-6.91,2.23-2.39,5.4-1.76,5.82-3.03.41-1.28,5.36-.32,7.43,0,2.08.32,6.39,4.57,9.74,3.96,1.91-.35,3.2-2.88,3.89-5.21.41.83.85,1.69,1.32,2.56.2.37.4.74.6,1.11.1.19.2.37.31.56.1.19.21.38.31.56.1.19.21.37.31.56.1.19.21.38.31.56.11.19.21.37.32.56.84,1.48,1.69,2.92,2.47,4.24h0s0,0,0,0h0s0,.01,0,.02c0,.01.01.02.02.03,0,0,0,.01.01.02.26.48,1.7,3.19,2.09,7.06.44,4.27-.96,7.82-6.7,5.2Z" style="stroke-width:0px;fill:#353736"/><path d="m86.86,26.14c-.11,1.38-.31,2.6-.57,3.69-1.45,1.28-2.88,2.26-4.15,2.63-2.78.81-3.94-.45-4.03-2.21.79-1.06,1.42-2.16,1.67-3.17.5-2.01,3.99-3.56,7.13-4.57,0,.07,0,.13,0,.2.15,1.27.11,2.42-.07,3.44Z" style="stroke-width:0px;fill:#353736"/><path d="m8.4,33.04s-.16-2.23,1.76-4.79c1.92-2.55,5.43-.56,4.31,2.2s-2.5,3.39-2.93,4.51c-.43,1.12-3.29,3.01-3.14-1.92Z" style="stroke-width:0px;fill:#353736"/><path d="m9.73,35.49s-.8-2.18.59-4.68c1.38-2.5,2.77-3.25,3.35-2.5s.48,2.66-1.17,4.36c-1.65,1.7-2.77,2.82-2.77,2.82Z" style="stroke-width:0px;fill:#202121"/><path d="m86.92,22.5c-3.14,1.01-6.63,2.56-7.13,4.57-.25,1.01-.88,2.11-1.67,3.17-.06-1.38.54-3.07,1.55-4.33,2.31-2.87-2.95,1.6-5.51,4.27-2.55,2.68-5.75,3.39-9.29,2.75-3.49-.63-8.48-5.23-8.64-5.37,0,0,0,0,0,0h0c-.78-1.32-1.62-2.76-2.47-4.24-.11-.18-.21-.37-.32-.56-.11-.19-.21-.37-.31-.56-.11-.19-.21-.37-.31-.56-.11-.19-.21-.38-.31-.56-.1-.19-.21-.38-.31-.56-.2-.37-.4-.74-.6-1.11-.46-.87-.91-1.73-1.32-2.56.53-1.75.71-3.38.57-3.86-.32-1.12,5.39,7.18,17.38,7.18s12.95-4.79,12.95-2.08c0,2.22,2.02,3.69,5.64,2.93.04.46.07.95.09,1.48Z" style="stroke-width:0px;fill:#fff"/><path d="m82.3,51.61c-1.03,3.1-1.88,4.95-2.82,6.06-.8.95-1.66,1.38-2.77,1.6-2.24.45-4.75.9-4.36-1.52.03-.17.07-.35.13-.55.88-3.03,2.63-6.07,2.95-10.85.24-3.58-2.11-4.93-2.78-10.6,0,0,3.31-2.62,5.45-5.5.08,1.76,1.25,3.02,4.03,2.21,1.27-.37,2.7-1.35,4.15-2.63-1.11,4.62-3.31,6.65-3.99,7.51-.96,1.21,1.92,8.52,0,14.27Z" style="stroke-width:0px;fill:#202121"/><path d="m79.67,25.91c-1.02,1.26-1.62,2.95-1.55,4.33-2.15,2.88-5.45,5.5-5.45,5.5-3.6,1.43-7.6,2.94-11.28,4.15,0,0-1-4.38-1.48-5.92-.02-.06-.06-.15-.11-.26-.02-.03-.03-.07-.05-.11-.06-.11-.13-.25-.21-.4-.02-.03-.03-.06-.05-.09-.09-.16-.19-.35-.31-.55-.05-.09-.11-.19-.16-.28-.2-.34-.42-.73-.67-1.16-.04-.07-.08-.14-.13-.22-.36-.6-.76-1.27-1.18-1.99-.08-.12-.15-.25-.23-.38-.18-.3-.35-.6-.54-.91,0,0,0-.01-.01-.02,0,0-.01-.02-.02-.03,0,0,0,0,0-.01h0c.16.14,5.15,4.74,8.64,5.37,3.55.64,6.74-.08,9.29-2.75,2.55-2.67,7.82-7.14,5.51-4.27Z" style="stroke-width:0px;fill:#d1d3d4"/><path d="m62.99,61.67c-1.12,3.03-5,2.82-7.31,2.58-1.11-.11-1.34-.78-1.2-1.76.15-1.06.74-2.49,1.11-3.99.72-2.87-3.11-13.41-4.17-15.08-.22-.34-.82-.76-1.63-1.28-8.51-.46-19.85-5.27-26.72.33,0,0-5.14,7.42-9.77,11.73-4.64,4.31-7.03,6.23-7.03,6.23,0,0-.31,6.23-1.95,7.18-.87.51-1.53.61-2.42-.68.79.23,1.16.3,1.81-.1,1.7-1.03,2.13-6.7,2.34-9.79.21-3.09,5.11-8.3,5-7.13-.11,1.17-1.81,1.83-2.67,5.64-.86,3.81,6.39-5.32,9.16-8.3,2.77-2.98,5.9-9.72,5.88-10.98-.02-1.26,2.13-.34,3.05,0s.28-3.49,1.88-2.38c1.6,1.12,3.7,1.44,3.29.48-.41-.96,4.54.32,7.73.16,3.19-.16,1.44-2.87,1.6-5.11.16-2.23,4.95,7.85,10.69,10.47s7.14-.93,6.7-5.2c-.39-3.87-1.83-6.58-2.09-7.06.18.31.36.61.54.91.08.13.15.25.23.38.43.72.83,1.39,1.18,1.99.04.07.08.15.13.22.25.42.48.81.67,1.16.06.1.11.19.16.28.11.2.22.38.31.55.02.03.03.06.05.09.08.15.15.28.21.4.02.04.04.07.05.11.05.11.09.2.11.26.48,1.54,1.48,5.92,1.48,5.92.63,6.03,2.61,19.04,1.6,21.77Z" style="stroke-width:0px;fill:#202121"/><path d="m62.99,61.67c-1.12,3.03-5,2.82-7.31,2.58-1.11-.11-1.34-.78-1.2-1.76,1.48.95,4.13,1.55,8.51-.82Z" style="fill:#808285;stroke-width:0px"/><path d="m79.48,57.68c-.8.95-1.66,1.38-2.77,1.6-2.24.45-4.75.9-4.36-1.52,1.3.48,3.92,1.08,7.12-.08Z" style="fill:#808285;stroke-width:0px"/><path d="m86.83,21.02c-3.62.75-5.64-.72-5.64-2.93,0-2.71-.96,2.08-12.95,2.08s-17.7-8.3-17.38-7.18c.14.48-.05,2.11-.57,3.86-.07-.15-.15-.3-.22-.44-.04-.09-.08-.18-.13-.26-.08-.17-.16-.35-.24-.52-.24-.52-.47-1.03-.68-1.52-.07-.15-.13-.31-.19-.46-.12-.3-.24-.6-.35-.89-.03-.08-.06-.16-.09-.24-.01-.04-.03-.08-.04-.12-.04-.1-.07-.2-.1-.3,0-.01,0-.03-.01-.04-.03-.09-.06-.18-.09-.27-.03-.1-.06-.2-.09-.3-.01-.04-.03-.08-.04-.13-.02-.09-.05-.17-.07-.26-1.14-4.45-6.61-6.97-9.91-8.11,3.17-.63,6.46-1.1,9.91-2.19,9.08-2.87,27.99,2.16,34.94,12.21.47.68.89,1.34,1.27,1.99,1.08.43,2.3,1.87,2.67,6.02Z" style="stroke-width:0px;fill:#fff"/><path d="m11.74,44.48c0-1.38-1.12-2.5-2.5-2.5s-2.5,1.12-2.5,2.5,1.12,2.5,2.5,2.5,2.5-1.12,2.5-2.5Z" style="stroke-width:0px;fill:#f1f2f2"/><path d="m10.79,44.48c0-1.03-.83-1.86-1.86-1.86s-1.86.83-1.86,1.86.83,1.86,1.86,1.86,1.86-.83,1.86-1.86Z" style="stroke-width:0px;fill:#231f20"/><circle cx="9.36" cy="43.2" r=".7" style="stroke-width:0px;fill:#fff"/></g></g></svg>