<?xml version="1.0" encoding="UTF-8"?>
<svg id="Layer_2" data-name="Layer 2" xmlns="http://www.w3.org/2000/svg" viewBox="0 0 211.23 273.96">
  <defs>
    <style>
      .cls-1 {
        fill: #010101;
      }

      .cls-1, .cls-2, .cls-3, .cls-4, .cls-5, .cls-6, .cls-7, .cls-8, .cls-9, .cls-10, .cls-11, .cls-12, .cls-13, .cls-14, .cls-15, .cls-16, .cls-17, .cls-18 {
        stroke-width: 0px;
      }

      .cls-2 {
        fill: #424143;
      }

      .cls-3 {
        fill: #a28156;
      }

      .cls-4 {
        fill: #82772f;
      }

      .cls-5 {
        fill: #e7e7e7;
      }

      .cls-6 {
        fill: #feed84;
      }

      .cls-7 {
        fill: #fff;
      }

      .cls-8 {
        fill: #3c3e3d;
      }

      .cls-9 {
        fill: #231f20;
      }

      .cls-10 {
        fill: #292a29;
      }

      .cls-11 {
        fill: #ec2227;
      }

      .cls-12 {
        fill: #dcc850;
      }

      .cls-13 {
        fill: #9f1d22;
      }

      .cls-14 {
        fill: #757574;
      }

      .cls-15 {
        fill: #2db674;
      }

      .cls-16 {
        fill: #595a5c;
      }

      .cls-17 {
        fill: #b5b6b6;
      }

      .cls-18 {
        fill: #92918f;
      }
    </style>
  </defs>
  <g id="GREY_CROWNED_CRANE" data-name="GREY CROWNED CRANE">
    <g>
      <path class="cls-2" d="m178.06,252.95c-4.4-5.07-4.29-.38-11.24-20.6-4.65-13.53-8.65-27.73-9.31-33.88-.66-6.16-.33-9.24-4.96-13.59-4.62-4.35-15-35.4-16.98-41.2-1.98-5.79-9.84-6.34-7.05-.6,0,0,3.52,7.82,7.49,17.08h2.44s10.67,28.32,12.14,30.16c1.47,1.84,16.18,49.66,17.65,54.81,1.47,5.15,3.68,12.14,0,16.92-3.68,4.78-10.94,10.94-19.82,11.9h13.64c4.07,0,5.06-1.81,7.04-6.88,1.98-5.07,5.31-4.57,4.97-8.92-.33-4.34,1.08-1.52,4.22-.43,3.14,1.09,4.55.76-.24-4.78Z"/>
      <path class="cls-9" d="m113.38,149.9c-1.07-7.98-4.71-6.65-4.75-1.76,0,0,.99,5.97,2.07,13.5h1.1s4.95,35.31,5.07,37.89c.12,2.58-6.38,58.48-8.23,63.64-1.86,5.15-28.02,7.81-28.02,7.81h28.42c3.06,0,5.02-7.3,5.02-7.3,0,0,2.94,2.77,3.68,3.02.73.25-2.94-7.55-2.94-9.81,0,0-.74-1.26-.25-7.8.49-6.54,2.96-41.59,5.07-45.33,2.11-3.74.77-8.77.22-13.55-.56-4.78-5.37-32.32-6.44-40.3Z"/>
      <path class="cls-9" d="m108.63,263.16c1.86-5.15,8.36-61.06,8.23-63.64-.12-2.58-5.07-37.89-5.07-37.89h-1.1c1.57,10.95,3.31,25.19,2.44,29.06-1.47,6.54.98,8.56.23,16.61-4.77,51.76-3.16,51.25-10.36,57.12-4.15,3.39-18.32,2.01-22.4,6.54,0,0,26.16-2.67,28.02-7.81Z"/>
      <path class="cls-2" d="m168.24,262.05c3.68-4.78,1.47-11.77,0-16.92-1.47-5.15-16.18-52.97-17.65-54.81-1.47-1.84-12.14-30.16-12.14-30.16h-2.44c5.06,11.79,10.87,25.91,11.12,29.15.44,5.8,3.96,9.66,5.29,14.97,1.32,5.31,14.4,42.87,14.4,48.67s-4.3,13.76-6.94,15.21c-2.64,1.45-9.36,2.17-11.45,5.79,8.87-.97,16.14-7.12,19.82-11.9Z"/>
      <path class="cls-10" d="m117.73,139.08s7.81,11.26,15.83,14.67c8.02,3.41,9.18-10.74,10.65-18.59,1.47-7.85-14.29-12.26-21.86-11.77-7.57.49-7.58,11.88-4.63,15.69Z"/>
      <path class="cls-10" d="m97.44,133.2s8.95,18.31,12.26,20.55c5.88,3.97,7.89-3.77,9.81-7.31,1.92-3.54-4.91-34.82-22.07-13.24Z"/>
      <path class="cls-8" d="m173.48,103.76h0c-13.2-14.08-33.79-26.62-58.15-26.97-34.39-.49-51.59,17.43-51.59,17.43-1.38,1.7-2.53,3.34-3.48,4.94.1-.07,25.26-18.09,45.09-18.09,15.89,0,44.81,9.55,59.01,20.47,3.28-.33,6.36.13,9.13,2.21Z"/>
      <path class="cls-8" d="m100.69,129.61c8.45,2.09,22,2.99,34.99,3.83-5.25-7.19-13.36-16.58-23.88-23.56l8.03,1.24-1.61-4.9s6.6,3.64,11.89,3.66l-2.91-5.23s6.67,3.53,17.12,2.06c.19-.03.39-.06.58-.09.06,0,.12-.02.18-.03.14-.02.28-.05.42-.07.06-.01.12-.02.18-.03.17-.03.33-.06.5-.1.03,0,.06-.01.08-.02.19-.04.39-.08.58-.12.05-.01.11-.03.17-.04.14-.03.28-.06.42-.1.06-.01.13-.03.19-.04.15-.04.3-.07.45-.11.04-.01.09-.02.13-.03.19-.05.38-.1.57-.15.06-.01.11-.03.17-.05.14-.04.28-.08.42-.11.07-.02.13-.04.2-.06.13-.04.27-.08.41-.12.06-.02.12-.03.18-.05.19-.05.37-.11.56-.16.06-.02.12-.04.18-.05.13-.04.27-.08.4-.12.08-.02.16-.05.24-.07.11-.03.22-.07.33-.1.09-.03.17-.05.25-.08.12-.04.24-.07.36-.11.17-.06.34-.11.52-.17.06-.02.11-.04.17-.05,1.52-.49,3.02-.98,4.51-1.43.02,0,.04-.01.06-.02.41-.12.81-.24,1.21-.35h0c.19-.05.38-.1.57-.16.03,0,.06-.02.09-.02.18-.05.35-.09.53-.14.02,0,.03,0,.05-.01.39-.1.77-.19,1.16-.27.03,0,.07-.02.1-.02.16-.04.32-.07.48-.1.03,0,.06-.01.09-.02.38-.08.75-.14,1.12-.2.04,0,.07-.01.11-.02.15-.02.3-.04.45-.07.04,0,.07-.01.11-.01.18-.02.36-.05.54-.06-14.2-10.92-43.12-20.47-59.01-20.47-19.82,0-44.99,18.02-45.09,18.09-2.69,4.54-3.7,8.7-3.41,12.48l22.01-2.61s5.4,16.5,21.83,20.57Z"/>
      <path class="cls-10" d="m120.98,142.96c6.28-.18,13.28-.52,20.45-.81-1.13-1.91-3.07-5.02-5.76-8.71-12.99-.84-26.54-1.74-34.99-3.83-16.43-4.07-21.83-20.57-21.83-20.57l-22.01,2.61c1.71,22.43,49.17,31.75,64.13,31.32Z"/>
      <path class="cls-1" d="m166.24,107.38c-14.89,8.6-11.3,25.75-.26,30.6,12.38,5.44,21.11,18.39,25.89,15.3,4.79-3.09,15.86-4.85,18.61-4.85-14.04-30.86-44.22-41.04-44.24-41.05Z"/>
      <path class="cls-1" d="m199.47,125.04c-8.72-11.47-26.97-20.38-26.97-20.38-2.37.76-4.45,1.68-6.27,2.72.03,0,30.21,10.19,44.24,41.05,2.75,0-2.29-11.91-11.01-23.39Z"/>
      <path class="cls-4" d="m171.3,104.62c.19.02.35,0,.52-.02-.19,0-.37,0-.52.02Z"/>
      <path class="cls-4" d="m86.11,117.86c-.3,0-.59-.01-.87-.03.3.05.59.07.87.03Z"/>
      <path class="cls-4" d="m195.05,136.65c.95.32,1.86.43,2.87.27-.94.07-1.9-.03-2.87-.27Z"/>
      <path class="cls-4" d="m171.3,104.62c.19.02.35,0,.52-.02-.19,0-.37,0-.52.02Z"/>
      <path class="cls-4" d="m194.87,136.59s0,.01,0,.02c.06.01.12.03.18.04-.06-.02-.12-.04-.18-.06Z"/>
      <path class="cls-12" d="m195.05,136.65c.97.24,1.93.33,2.87.27-1.51-1.29-3.22-2.26-4.76-3.53-1.2-.99-1.83-2.2-2.74-3.46-.38-.53-.77-1.02-1.16-1.49-1.01-2.13-2.18-4.54-3.48-7.25-2.46-5.11-6.18-10.62-10.96-15.97-.91-.28-2.12-.58-3-.62-.16.02-.33.04-.52.02.15-.02.33-.03.52-.02.15-.02.29-.04.45-.06-.88-.88-3.98-1.49-6.03-1.45,2.6,2.25,4.54,4.53,5.58,6.79,5.65,12.33,14.81,24.59,23.06,26.73,0,0,0-.01,0-.02.06.02.12.04.18.06Z"/>
      <path class="cls-7" d="m163.81,101.62s-.08.01-.11.01c-.15.02-.3.04-.45.07-.04,0-.07.01-.11.02-.37.06-.75.13-1.12.2-.03,0-.06.01-.09.02-.16.03-.32.07-.48.1-.04,0-.07.01-.1.02-.39.09-.77.18-1.16.27-.02,0-.03,0-.05.01-.18.05-.36.09-.53.14-.03,0-.06.02-.09.02-.19.05-.38.1-.57.16h0c-.4.11-.8.23-1.21.35-.02,0-.04.01-.06.02-1.49.45-2.99.94-4.51,1.43-.06.02-.11.04-.17.05-.17.06-.35.11-.52.17-.12.04-.24.07-.36.11-.09.03-.17.05-.25.08-.11.03-.22.07-.33.1-.08.02-.16.05-.24.07-.13.04-.26.08-.4.12-.06.02-.12.04-.18.05-.19.06-.37.11-.56.16-.06.02-.12.03-.18.05-.13.04-.27.08-.41.12-.07.02-.14.04-.2.06-.14.04-.28.08-.42.11-.06.02-.11.03-.17.05-.19.05-.38.1-.57.15-.05.01-.09.02-.13.03-.15.04-.3.07-.45.11-.07.01-.13.03-.19.04-.14.03-.28.07-.42.1-.06.01-.11.03-.17.04-.19.04-.39.08-.58.12-.03,0-.06.01-.08.02-.16.03-.33.07-.5.1-.06.01-.12.02-.18.03-.14.03-.28.05-.42.07-.06,0-.12.02-.18.03-.19.03-.39.06-.58.09-10.45,1.47-17.12-2.06-17.12-2.06l2.91,5.23c-5.29-.02-11.89-3.66-11.89-3.66l1.61,4.9-8.03-1.24c10.52,6.98,18.63,16.37,23.88,23.56,10.44.67,20.51,1.3,27.3,2.48-.49-.84-.86-1.7-.98-2.53,0,.67,0,1.35.02,2.02-.78-1.83-1.42-3.53-1.95-5.41-.27-.96-.73-1.96-.93-2.94-.15-.73.15-1.53-.46-2.08-.02.35-.21.6-.26.87-1.17-1.16-.38-4.49-.55-6.04-.11-1.02-.45-1.98-.29-3.05.1-.72.45-1.4.43-2.14.22-.1.44-.12.68-.06l-2.21-1.84c.68-.43.42-2.39.31-3.26-.3.02-.73-.17-1.02-.12,1.19-1.61,4.32-1.37,5.46-3.16-.6-.13-1.19-.02-1.78-.16.48-.48,1.88-.92,2.63-1.29.85-.42,2.08-1.27,2.94-1.5.07-.02.15-.04.23-.05.02,0,.04,0,.06-.01.08-.01.17-.03.26-.04h0c.09-.01.19-.02.28-.02.02,0,.04,0,.06,0,.1,0,.21-.01.31-.01h0c2.05-.04,5.15.57,6.03,1.45-.16.02-.3.04-.45.06.87.03,2.08.34,3,.62-.43-.49-.88-.97-1.33-1.46h0c-2.77-2.07-5.85-2.54-9.13-2.21h0c-.18.02-.36.04-.54.06Z"/>
      <path class="cls-4" d="m158.94,102.66c.19-.05.38-.1.57-.16-.19.05-.38.1-.57.16Z"/>
      <path class="cls-4" d="m146.83,106.25c.05-.01.11-.03.17-.04-.06.01-.11.03-.17.04Z"/>
      <path class="cls-4" d="m147.42,106.11c.06-.01.13-.03.19-.04-.07.01-.13.03-.19.04Z"/>
      <path class="cls-4" d="m157.72,103.01c.41-.12.81-.24,1.21-.35-.4.11-.8.23-1.21.35Z"/>
      <path class="cls-4" d="m146.17,106.39s.06-.01.08-.02c-.03,0-.06.01-.08.02Z"/>
      <path class="cls-4" d="m144.89,106.62c.06,0,.12-.02.18-.03-.06,0-.12.02-.18.03Z"/>
      <path class="cls-4" d="m148.07,105.96s.09-.02.13-.03c-.05.01-.09.02-.13.03Z"/>
      <path class="cls-4" d="m145.49,106.52c.06-.01.12-.02.18-.03-.06.01-.12.02-.18.03Z"/>
      <path class="cls-4" d="m164.35,101.55h0c-.18.02-.36.04-.54.06.18-.02.36-.05.54-.06Z"/>
      <path class="cls-4" d="m151.85,104.87c.09-.03.17-.05.25-.08-.09.03-.17.05-.25.08Z"/>
      <path class="cls-4" d="m161.44,102.03c.16-.04.32-.07.48-.1-.16.03-.32.07-.48.1Z"/>
      <path class="cls-4" d="m150.7,105.23c.06-.02.12-.04.18-.05-.06.02-.12.04-.18.05Z"/>
      <path class="cls-4" d="m151.28,105.05c.08-.02.16-.05.24-.07-.08.02-.16.05-.24.07Z"/>
      <path class="cls-4" d="m152.46,104.68c.17-.06.34-.11.52-.17-.17.06-.35.11-.52.17Z"/>
      <path class="cls-4" d="m160.18,102.33c.39-.1.77-.19,1.16-.27-.39.09-.77.18-1.16.27Z"/>
      <path class="cls-4" d="m153.15,104.46c1.52-.49,3.02-.98,4.51-1.43-1.49.45-2.99.94-4.51,1.43Z"/>
      <path class="cls-4" d="m148.77,105.77c.06-.01.11-.03.17-.05-.06.02-.11.03-.17.05Z"/>
      <path class="cls-4" d="m159.6,102.48c.18-.05.35-.09.53-.14-.18.05-.36.09-.53.14Z"/>
      <path class="cls-4" d="m149.97,105.44c.06-.02.12-.03.18-.05-.06.02-.12.03-.18.05Z"/>
      <path class="cls-4" d="m163.24,101.7c.15-.02.3-.04.45-.07-.15.02-.3.04-.45.07Z"/>
      <path class="cls-4" d="m162.01,101.91c.38-.08.75-.14,1.12-.2-.37.06-.75.13-1.12.2Z"/>
      <path class="cls-4" d="m149.36,105.61c.07-.02.13-.04.2-.06-.07.02-.14.04-.2.06Z"/>
      <path class="cls-12" d="m198.38,141.7c-.53-.76-1.49-1.31-2.1-2.11-.6-.81-.99-2.07-1.41-2.98-8.25-2.14-17.41-14.4-23.06-26.73-1.04-2.26-2.98-4.55-5.58-6.79h0c-.11,0-.21,0-.31.01-.02,0-.04,0-.06,0-.1,0-.19.01-.28.02h0c-.09.01-.18.02-.26.04-.02,0-.04,0-.06.01-.08.01-.16.03-.23.05-.86.23-2.09,1.08-2.94,1.5-.75.37-2.15.8-2.63,1.29.59.14,1.18.03,1.78.16-1.14,1.79-4.27,1.56-5.46,3.16.29-.05.72.14,1.02.12.11.87.37,2.82-.31,3.26l2.21,1.84c-.24-.06-.46-.04-.68.06.02.74-.33,1.42-.43,2.14-.15,1.07.18,2.04.29,3.05.17,1.56-.62,4.88.55,6.04.05-.27.24-.52.26-.87.61.55.31,1.35.46,2.08.21.98.67,1.99.93,2.94.53,1.87,1.17,3.58,1.95,5.41-.02-.67-.02-1.35-.02-2.02-.05-.37-.06-.73,0-1.07,0,.36,0,.71,0,1.07.12.82.49,1.69.98,2.53,1.19.21,2.29.43,3.27.67,12.17,3.04,19.48,6.65,21.91,19.38.41.74.85,1.41,1.36,1.87.34-1.75-.07-3.65-.39-5.39-.33-1.76-1.38-3.58-1.4-5.33.11,1.08,2.36,3.71,3.26,4.18.35-1.88-.25-3.95.16-5.82.97,1.2,1.07,3.9,2.14,5-.22-1.17.36-2.68.35-3.93,0-1.19.04-2.38-.03-3.57.34.6.72,1.16,1.23,1.61.64-1,.16-2.7.33-3.88,1.17-.01,1.84,1.53,3.22.98Z"/>
      <path class="cls-4" d="m165.31,103.17s-.04,0-.06.01c.02,0,.04,0,.06-.01Z"/>
      <path class="cls-4" d="m165.57,103.13h0s0,0,0,0Z"/>
      <path class="cls-4" d="m165.92,103.1s-.04,0-.06,0c.02,0,.04,0,.06,0Z"/>
      <path class="cls-17" d="m141.43,142.16c8.79-.35,17.83-.63,26.13-.46-.3-.68-.67-1.09-1.43-1.86-.93-.94-2.25-2.39-3.16-3.93-6.79-1.17-16.86-1.8-27.3-2.48,2.69,3.69,4.63,6.8,5.76,8.71Z"/>
      <path class="cls-3" d="m166.24,136.59c-.97-.24-2.07-.47-3.27-.67.91,1.54,2.23,2.99,3.16,3.93.76.76,1.13,1.18,1.43,1.86.23,0,.46,0,.69.01.78.42,1.53,1.11,2.1,1.51,1.8,1.26,3.46,2.74,5.26,4,1.07.74,2.12,1.59,2.87,2.59-.63-1.54-.94-3.65-2.1-4.97,2.82,1.96,6.79,4.6,8.46,7.86-.15-1.43-1.11-3.29-1.96-4.81,1.15,1.79,2.69,3.39,3.78,5.21.47.79.95,1.88,1.49,2.87-2.43-12.73-9.74-16.35-21.91-19.38Z"/>
      <path class="cls-18" d="m41.76,28.9s13.92,9.15,11.72,20.92c-2.21,11.77-6.87,25.75-2.21,36.05,4.66,10.3,10.44,12.72,16.98,6.58-.27-.79.07-1.62.44-2.47-.59,1.02-1.61,1.72-2.99,2.47-.09-.62-.2-1.34-.08-1.98-1.03.99-2.96,1.48-4.49,1.62-6.43-4.16-10.17-11.99-7.13-22.86,4.27-15.3,9.81-31-13.19-45.75,0,0-.95.56-2.28,1.51.84,1.35,1.92,2.69,3.24,3.9Z"/>
      <path class="cls-18" d="m44.7,54.84s-1.85,10.18-3.89,12.63c-2.04,2.45-7.31,12.75-3.29,23.54,4.02,10.79,7.13,30.57,8.6,36.46v-7.03s7.19,15.29,8.66,23.75c0,0-1.63-20.81-2.94-27.92,0,0,7.68,12.18,8.41,18.07l1.23-4.09,3.11,12.27,1.47-12.6,1.31,5.99s1.14-6.97,2.78-8.94l1.64,6.46,1.47-6.62s7.77,10.85,14.43,13.44c0,0-9.25-5.91-11.98-16.91l4.9,2.31s-1.22-2.96-2.21-5.79c.31.22.6.4.83.5,1.09.5,2.78.66,3.92.83-1.59-1.41-2.65-2.89-3.49-4.74,1.83.77,3.59,1.26,5.58,1.38-2.74-.48-6.04-4.39-6.06-6.87,1.18,1.41,6.55,4.15,8.4,3.51-2.1-1.31-5.75-3.4-6.1-6.14,3.19,1.37,6.78,1.88,9.76,3.97-2.39-3.05-6.12-4.79-9.03-6.87,1.29-.26,2.69.04,3.99-.15-.12-.93-3.09-1.48-3.97-1.47-.25-1.24,2.57-2.21,3.52-2.53-2.38.26-4.65-1.2-6.82-1.14-.77-2,3.46-3.15,4.59-4.01-1.71.06-3.47.14-4.96.33-.04-.93,1.67-2.13,2.39-2.91-.77.04-1.6-.08-2.36.02-.72.09-1.51.57-2.23.32-.37-1.86,2.33-4.82,4.24-5.1-1.8.05-3.73.13-5.4.74-1.49.54-2.73,1.7-4.08,2.44.03-1.34,1.72-1.69,2.2-2.75-2.01.21-2.98,2.92-5.06,3.22-6.54,6.14-12.32,3.72-16.98-6.58-4.66-10.3,0-24.28,2.21-36.05,2.21-11.77-11.72-20.92-11.72-20.92-1.32-1.21-2.4-2.54-3.24-3.9-4.38,3.13-12.91,10.47-5.26,15.83,0,0,9.35.25,10.37,8.94.14,1.19.01,2.45-.31,3.77.53.32.99.74,1.38,1.31Z"/>
      <path class="cls-14" d="m33.26,85.92c.81,6.81,3.1,13.41,6.74,18.73,0,0,9.06,33.45,9.55,56.5,0,0,1.11-22.28-2.98-37.8,0,0,9.62,26.52,10.22,40.75,0,0,1.51-23.05-3.85-42.67,0,0,8.62,22.17,8.99,32.85v-17.28s3.13,18.76,3.59,30.16c0,0,2.64-15.66.64-28.05,1.22,5.64,4.08,17.04,7.9,20.32,0,0-4.78-12.51-4.78-27.95,0,0,5.71,13.24,11.31,16.55,0,0-4.97-6.18-7.04-16.7,0,0,10.07,8.52,14.12,8.93-6.66-2.59-14.43-13.44-14.43-13.44l-1.47,6.62-1.64-6.46c-1.63,1.96-2.78,8.94-2.78,8.94l-1.31-5.99-1.47,12.6-3.11-12.27-1.23,4.09c-.74-5.88-8.41-18.07-8.41-18.07,1.31,7.11,2.94,27.92,2.94,27.92-1.47-8.46-8.66-23.75-8.66-23.75v7.03c-1.47-5.89-4.58-25.67-8.6-36.46-4.02-10.79,1.24-21.09,3.29-23.54,2.04-2.45,3.89-12.63,3.89-12.63-.38-.57-.85-1-1.38-1.31-2.01,8.32-11.64,19.19-10.06,32.39Z"/>
      <path class="cls-1" d="m17.68,38.65c5.07-4.41,12.52-8.58,12.52-8.58,0,0-.42-3.19,2.69-6.13,3.1-2.94,4.07.26,7.92,2.93,1.51,1.05,3.3,5.32,3.89,10.12h0c.8-7.58.2-13.22-8.38-18.88-6.56-4.33-21.58-.1-20.71,15.4.13,2.37.65,4.27,1.4,5.8.2-.23.42-.45.67-.66Z"/>
      <path class="cls-6" d="m62.61,33.67c-.69.07-1.14-.46-1.41-.98.19.04.49-.1.68-.08.12-.4.21-.46.5-.75-.28-.36-.23-.9-.25-1.37-.14-.03-.28-.06-.42-.1.16-.3.51-.57.67-.86-1.14-.61.25-.99.49-1.47-.88-.66-1.25-1.11-.24-1.83-.18-.46-.66-.83-1.17-.98.19-.85,1.33-.72,1.42-1.36-.4-.16-.85-.31-.93-.74.28-.19.54-.47.67-.73-.38-.21-.58-.58-.41-1,.33-.04.4-.25.65-.35-.2-.55-.76-1.04-.91-1.61.27-.37.71-.64,1.16-.58.32-.95-.51-1.1-.95-1.62-.41-.48-.74-1.35.41-1.03-1.17-.81-.98-1.19-.12-1.98-.21-.32-1.15-.67-1.22-1.03-.13-.58.65-.71.41-1.38-.9-.08-.7-.8-.23-1.21-.78-.13-1.32-.62-2.14-.58-.07-.54,0-1.1-.07-1.64-.38-.02-.78-.05-1.16-.08,0-.36.06-.54.42-.75-.25-.67-1.06-.38-1.66-.48.25-.48.93-1.38.93-1.87-.73-.27-1.2.54-1.89.42-.02-.38-.05-.79-.07-1.17-.69.1-1.14.96-1.89.67-.02-.38-.05-.78-.08-1.16-.34.03-.65.2-.9.44-.08-.44,0-.87-.09-1.31-.45.18-.85.69-1.39.56-.02-.38,0-.8-.09-1.17-.37.33-.89.35-1.11-.19-.26.42-.41.3-.77.37-.06-.36-.06-.74-.02-1.11-.33.29-.61,1.07-.98,1.16-.74.19-1.03-.52-1.25-1.01-.34-.73.22-.95-.67-.68-.4.12-.13.98-1,.64-.06-.46,0-.94-.08-1.4-.79-.06-1.08,1.06-1.62,1.42-.11-.4-.24-.77-.34-1.17-1.02-.4-.76,1.03-1.63.91,0-.53-.09-1.26-.73-1.16,0,.5-.22.94-.34,1.42-.53-.06-.61-1.17-.74-1.66-.13-.09-.26-.09-.4,0-.12.49-.24,1.41-.48,1.67-.07-.51-.3-.92-.35-1.43-.67.39-.45,1.39-1.11,1.67-.33-.39-.15-1.46-.74-1.41-.56.04-.09,1.25-.75,1.43.01-.59-.33-1.09-.34-1.68-.37.32-.15,1.31-.24,1.87-.36-.48-.53-1.09-.88-1.57-.08.44-.03.91-.09,1.36-.36,0-.54-.06-.75-.42-.43.22-.44.7-.87.92-.05-.57.1-1.78-.74-1.66-.14.57-.36,1.07-.34,1.65-.63.08-.71-.68-1-1.17-.58.23-.43.88-.48,1.42-.75-.29-.47-1.13-.94-1.6.03.7.18,1.69-.16,2.29-.44-.48-.68-1.25-1.01-1.62.05.66.25,1.33.16,2.11-.72-.55-1.08-1.32-1.51-2.06-.18.1-.28.16-.28.16,2.21,4.78,10.3,21.33,10.3,21.33,2.79,5.72,21.99,10.08,25.82,10.89-.12-.17-.2-.34-.24-.53Z"/>
      <path class="cls-11" d="m41.76,27.91h0c-.32-.47-.65-.83-.96-1.04-3.85-2.67-4.82-5.88-7.92-2.93-.59.56-1.05,1.12-1.41,1.67.99.28,2.34.31,3.99.37,4.13.14,6.31,1.93,6.31,1.93Z"/>
      <path class="cls-2" d="m15.71,34.73c-.16.07-.33.13-.5.21,0,0-11.83,4.87-15.21,8.88,0,0,11.17-3.51,13.87-4.51,2.7-1.01,1.95-3.36,1.84-4.58Z"/>
      <path class="cls-11" d="m42.93,56.8c1.84-2.33.94-15.04.94-15.04-.7-1.88-3.65,2.66-2.11,6.34,0,0-.55,6.01-2.88,8.71-1.02,1.18-1.38,2.39-1.37,3.44,3.05,1.35,3.57-1.1,5.41-3.44Z"/>
      <path class="cls-13" d="m38.89,63.06c1.23.74,5.25-3.43,5.81-8.22.56-4.78-.13-11.2-.82-13.08,0,0,.9,12.71-.94,15.04-1.84,2.33-2.36,4.78-5.41,3.44.03,1.34.68,2.41,1.37,2.82Z"/>
      <path class="cls-1" d="m24.29,45.16s6.43,1.74,12.33,1.35,5.15,1.59,5.15,1.59c0,0,2.68-6.4,2.93-11.11.26-4.71-21.65,2.16-20.41,8.17Z"/>
      <path class="cls-7" d="m44.7,36.99c-.47-3.8-1.7-7.28-2.93-9.08,0,0-2.18-1.79-6.31-1.93-1.65-.06-2.99-.09-3.99-.37-1.55,2.36-1.28,4.46-1.28,4.46,0,0-7.45,4.17-12.52,8.58-.24.21-.46.43-.67.66.25.52.54.99.84,1.42.02-.08.04-.16.07-.24,0,0,18.49,5,26.78-3.51Z"/>
      <path class="cls-5" d="m26.99,45.59c12.67.75,16.9-1.01,17.7-8.6-8.29,8.51-26.78,3.51-26.78,3.51-.03.08-.05.16-.07.24,3.33,4.84,9.15,4.85,9.15,4.85Z"/>
      <path class="cls-9" d="m24.67,30.15c-2.31,2.61-6.02,3.84-6.72,3.95h0c-.69.13-1.45.33-2.23.64.11,1.22.86,3.57-1.84,4.58-2.7,1-13.87,4.51-13.87,4.51,0,0,6.41-.91,12.44-1.58h0c.15-.02.3-.03.44-.05.04,0,.08,0,.12-.01,5.58-.56,7.48.89,7.48.89-.96-5.55,7.99-7.7,9.71-10.7,1.73-3-3.2-4.85-5.52-2.23Z"/>
      <path class="cls-16" d="m3.45,41.33s7.54-4.02,8.89-4.51c1.35-.49,2.57-1.04,2.27,0-.3,1.04-11.95,5.88-11.16,4.51Z"/>
      <path class="cls-15" d="m23.79,32.01c0,1.51,1.22,2.72,2.72,2.72s2.73-1.22,2.73-2.72-1.22-2.72-2.73-2.72-2.72,1.22-2.72,2.72Z"/>
      <path class="cls-1" d="m25.27,32.01c0,.69.56,1.24,1.24,1.24s1.24-.56,1.24-1.24-.56-1.24-1.24-1.24-1.24.56-1.24,1.24Z"/>
      <path class="cls-7" d="m28.04,30.71c0-.36-.29-.65-.65-.65s-.65.29-.65.65.29.65.65.65.65-.29.65-.65Z"/>
    </g>
  </g>
</svg>