<?xml version="1.0" encoding="UTF-8"?><svg data-name="Layer 2" xmlns="http://www.w3.org/2000/svg" viewBox="0 0 475.91 225.75"><defs/><g><g><path d="m250.56,202.81c1.9,1.09,4.75,1.68,6.29,2.98-1.26.11-2.4.26-3.4.42-19.07,3.29-18.03-10.53-18.03-10.53-6.85-25.01,16.71-31.54,8.82-7.87-2,6.01-.44,9.55,3.28,11.52,1.94-.91,4.56-1.08,7.11-1.1-.06.02-.13.05-.2.07.97.57,1.84,2.4,2.59,2.96-2,1.24-4.15,1.76-6.47,1.56Z" style="stroke-width:0px;fill:#767c78"/><path d="m259.1,151.13c-4.53,5.12-6.38,14.14-9.3,18.72-2.03,3.19-2.97,5.75-7.43,7.79-4.12,1.88-11.66-.3-12.57,5.3-2.49-.35-4.88-1.44-7.05-2.63.13,1.17-.9,3.34-.74,4.66-1.86-.85-4.02-.11-5.63-.41.05.72-.11,1.57-.12,2.3-7.42.52-13.33-1.95-20.05-3.58-4.15-1.01-7.14,2.76-6.22-5.6-8.49,5.58-11.1,9.26-13.8-.71-2.19,3.72-4.68,8.19-9.08,4.14-1.53,1.45-1.59.46-3.31,1.12-4.88-5.39-7.74-8.82-7.36-17.44.11-2.37.08-5.25.32-7.99.36-.65.69-1.31,1-1.98-.26,0-.52,0-.78.03.2-1.41.5-2.74.97-3.9,1.21-3.04,3.81-5.13,6.41-7.15,2.69-2.09,14.51-6.85,9.42-9.44,4.45-2.4,8.58-4.69,13.54-6.27,6.67-2.13,14.52-1.95,20.86-4.73-11.18-7.81-30.23,1.13-38.43,8.32-.61-1.9-1.54-3.75-1.54-5.84-5.25.29-6.82,13.17-10.96,4.61-.82,3.67-1.45,7.4-2.23,11.07-.49-.6-1.83-1.21-2.51-2.55-2.91,4.89-4.33,11.83-5.58,18.07-.03.17-.07.34-.11.49-2.64,1.43-1.98,1.46-6.83-3.54-.71,1.96-.91,4.46-.71,6.64-3.57-1.23-5.89-6.25-7.16-9.94.11,4.92-.75,10.08-1.97,15.33-.69.32-1.47.7-1.96,1.3-.58-2.66-1.78-5.31-5.13-4.82-2.69-4.93-3.29-26.33,2.45-27.62-.85-2.8-3.27-4.86-4.48-6.98,1.34.17,2.95-.29,4.37-.07-2.51-1.92-16-10.02-16.25-8.6-10.2,0-13.88.87-18.28,1.99-3.37.87-6.92,1.28-10.57,1.45,1.94-4.19,4.66-9.13,8.41-15.06,3.65-5.77,8.15-11.26,13.33-16.33.22.07.42.14.6.21,1.43.57,3.91,2.66,4.35,2.79.67.2,3.81.88,4.31,1.14,0,0,0,0-.02-.02.17,0,4.59,1.58,4.86,1.76h-.04c4.09.82,5.66,1.51,8.49,3.36,2.82,1.83.84,4.87,5.49,4.35.06.8.12,1.64.2,2.45,7.9-3.39,16.5-8.71,25.87-10.36,9.49-1.67,26.97,2.48,35.09-2.65-.13.96.31,2.2.19,3.14,2.75.65,5.72.87,8.42,1.37.05.67.07,1.27.13,1.92,8.75,1.06,10.2,4.69,15.97,9.13,3.46,2.66,11.96,3.08,9.62,8.6,4-.07,9.15.08,9.89,4.61,6.2,1.5,9.08,2.24,13.67,6.66,1.55,1.48,5.96,5.91,9.28,7.72.52,4.65.75,9.25.72,13.7Z" style="fill:#94a198;stroke-width:0px"/><path d="m467.98,198.8c.43.62.84.29,1.21.76-2.15,2.26-5.31,4.12-8.73,5.67-1.57,1.07-3.32,2.08-5.19,2.96-4.25,2.02-12.99,3.42-23.71,4.32-9.27,1.06-18.87,1.26-28.42,1.24-6.35.08-12.69.05-18.67-.09-4.47.01-8.88.07-13.17.27-5.31.24-10.68.34-16.1.32-3.58-8.48-17.7-5.24-.15-10.71-.82-.25-1.61-.64-2.4-1.05,7.22.05,14.42.53,21.39,1.94,1.71-1.78,3.82-.98,6.74-.32,5.45,1.25,6.88,1.23,11.18,1.21,7.16-.03,13.77,1.15,20.9.67,8.6-.58,17.83.09,25.92-2.29,3.78-1.11,6.35-2.82,11.31-3.07.1-.73.22-1.61.35-2.42,6.19-1.68,16.47-7.09,24.98-7.83-1.51,3.41-5.1,5.56-7.44,8.4Z" style="stroke-width:0px;fill:#bcbec0"/><path d="m146.81,157.52c-1.37,6.2-4.28,7.74-7.32,12.96-.35-1.99-1.23-1.98-1.94-3.24-1.71,2.21-2.95,5.07-4.79,6.5-.59-2.57-.87-5.62-1.38-8.4-.27.25-.73.44-1.24.68,1.22-5.26,2.08-10.41,1.97-15.33,1.27,3.69,3.59,8.71,7.16,9.94-.2-2.18,0-4.67.71-6.64,4.85,5,4.19,4.97,6.83,3.54Z" style="stroke-width:0px;fill:#fff"/><path d="m259.1,151.13c-.12,21.57-6.26,39.46-15.51,42.5-21.7,7.14-59.17,2.72-59.17,2.72v9.21c0,9.2,4.6,11.17-7.89,14.46-12.49,3.29-38.13,2.63-47.54,5.27-9.4,2.62-9.65-6.58,6.77-9.86,16.44-3.29,30.91-5.92,21.04-6.58-9.86-.66-11.18-16.43-11.18-16.43-.68.21-1.35.38-2,.55.38-1.02.71-2.23,1.01-3.74.87-4.54.99-8.87,1.95-13.47,1.52-7.28,6.73-12.57,10.18-18.97-.24,2.74-.21,5.62-.32,7.99-.38,8.63,2.48,12.05,7.36,17.44,1.73-.66,1.78.33,3.31-1.12,4.4,4.05,6.89-.42,9.08-4.14,2.69,9.97,5.31,6.29,13.8.71-.92,8.36,2.07,4.6,6.22,5.6,6.72,1.63,12.63,4.1,20.05,3.58,0-.73.17-1.58.12-2.3,1.61.31,3.77-.43,5.63.41-.16-1.32.87-3.49.74-4.66,2.17,1.19,4.57,2.28,7.05,2.63.92-5.59,8.45-3.41,12.57-5.3,4.46-2.04,5.39-4.61,7.43-7.79,2.92-4.58,4.77-13.6,9.3-18.72Z" style="stroke-width:0px;fill:#767c78"/><path d="m187.31,128.08c-4.96,1.58-9.09,3.88-13.54,6.27,5.09,2.58-6.73,7.35-9.42,9.44-2.6,2.02-5.2,4.11-6.41,7.15-.46,1.15-.77,2.49-.97,3.9-2.47.22-4.81,1.74-6.98,2.42-.07-.36-.15-.73-.22-1.1-1.33.51-2.27.99-2.97,1.37.04-.16.08-.33.11-.49,1.25-6.23,2.67-13.18,5.58-18.07.68,1.34,2.02,1.95,2.51,2.55.78-3.68,1.41-7.41,2.23-11.07,4.13,8.56,5.71-4.32,10.96-4.61,0,2.09.93,3.93,1.54,5.84,8.2-7.19,27.25-16.13,38.43-8.32-6.34,2.78-14.19,2.6-20.86,4.73Z" style="stroke-width:0px;fill:#767c78"/><path d="m130.13,166.01c-2.05,8.87-5.13,17.99-6.29,26.63-.37-.14-.56-.22-.56-.22,0,0-7.24,15.77-12.49,23.66-5.26,7.89-18.41,7.24-22.1,7.24s-2.88-4.61,5.01-8.55c7.89-3.94,9.86-32.22,9.86-32.22-11.18-1.31-14.87-5.26-14.87-5.26,0,0-.91,19.06-6.82,28.27q-5.92,9.2-17.75,9.2c-11.83,0,3.94-5.92,5.92-9.2,1.97-3.29,6.49-44.05,6.49-44.05,4.34-15.44-6.41-17,3.76-38.85,3.65-.17,7.2-.58,10.57-1.45,4.4-1.12,8.09-1.98,18.28-1.99.26-1.42,13.74,6.68,16.25,8.6-1.42-.22-3.03.24-4.37.07,1.2,2.12,3.63,4.18,4.48,6.98-5.74,1.29-5.14,22.69-2.45,27.62,3.35-.48,4.55,2.16,5.13,4.82.49-.6,1.27-.99,1.96-1.3Z" style="stroke-width:0px;fill:#767c78"/><path d="m156.97,154.84c-.09.63-.16,1.29-.22,1.95-3.45,6.4-8.66,11.7-10.18,18.97-.97,4.61-1.08,8.93-1.95,13.47-.3,1.51-.62,2.72-1.01,3.74-10.24,2.54-17.73.37-19.78-.34,1.16-8.64,4.24-17.76,6.29-26.63.51-.24.98-.43,1.24-.68.51,2.78.79,5.83,1.38,8.4,1.84-1.43,3.09-4.29,4.79-6.5.71,1.26,1.6,1.25,1.94,3.24,3.04-5.22,5.95-6.76,7.32-12.96.7-.38,1.64-.86,2.97-1.37.07.37.15.74.22,1.1,2.17-.68,4.52-2.2,6.98-2.42Z" style="stroke-width:0px;fill:#bcbec0"/><path d="m258.38,137.43c-3.32-1.81-7.73-6.24-9.28-7.72-4.59-4.42-7.47-5.16-13.67-6.66-.74-4.53-5.89-4.67-9.89-4.61,2.34-5.52-6.16-5.94-9.62-8.6-5.77-4.44-7.22-8.08-15.97-9.13-.06-.65-.08-1.25-.13-1.92-2.7-.5-5.67-.72-8.42-1.37.12-.94-.32-2.18-.19-3.14-8.12,5.13-25.6.99-35.09,2.65-9.37,1.66-17.97,6.97-25.87,10.36-.08-.81-.14-1.65-.2-2.45-4.65.52-2.67-2.51-5.49-4.35-2.83-1.85-4.4-2.54-8.49-3.36h.04c-.28-.18-4.69-1.76-4.86-1.76,0,0,0,.02.02.02-.5-.27-3.64-.95-4.31-1.14-.44-.13-2.92-2.22-4.35-2.79-.18-.07-.38-.14-.6-.21,27.92-27.24,75.77-42,117.9-19.82,24.25,12.77,35.65,40.25,38.46,65.98Z" style="stroke-width:0px;fill:#b1b7b2"/><path d="m355.2,214.24c-17.89-.05-36.19-1.34-53.54-2.9-13.74-1.23-27.59-4.82-41.43-5.78-1.2.06-2.34.13-3.38.23-1.54-1.3-4.39-1.88-6.29-2.98,2.32.2,4.47-.32,6.47-1.56-.75-.56-1.63-2.39-2.59-2.96.07-.02.14-.05.2-.07,2.36-.04,4.67.08,6.36-.12,3.22-.36,6.25-.99,9.33-1.45.05.49.06.97-.04,1.37,11.23.83,21.8,3.86,33.18,4.68,8.14.58,16.41.9,24.23.57,8.07-.33,16.52-.86,24.96-.8.79.4,1.58.8,2.4,1.05-17.55,5.47-3.43,2.23.15,10.71Z" style="stroke-width:0px;fill:#6c403d"/><path d="m475.91,189c-.12.49-.29.96-.49,1.4-8.51.74-18.79,6.15-24.98,7.83-.13.81-.25,1.69-.35,2.42-4.96.25-7.53,1.95-11.31,3.07-8.09,2.38-17.32,1.71-25.92,2.29-7.13.48-13.74-.7-20.9-.67-4.3.02-5.73.04-11.18-1.21-2.92-.66-5.03-1.47-6.74.32-6.97-1.41-14.17-1.89-21.39-1.94-.94-.48-1.88-.99-2.86-1.25.63-.42.94-.88,1.85-1.28-1.16-1.14-6.73-2.99-7.23-4.44-.02-.05-.03-.1-.04-.15,15.47-.42,30.91-1.71,46.48.09,6.75.78,12.79,2.77,20.03,1.49,7.76-1.38,14.46-5.4,22.94-4.62-.34.5-.83,1.2-1.17,1.71,6.82.91,18.26-3.82,24.19-7.03-.41,1.03-.24,2.2-.49,3.12,6.19-.65,11.59-4.73,17.56-5.72-.72,1.49-1.11,4.18-1.78,5.74.84-.45,2.94-.71,3.78-1.14Z" style="stroke-width:0px;fill:#fff"/><path d="m352.66,202.49c-8.44-.06-16.89.47-24.96.8-7.82.33-16.09,0-24.23-.57-11.38-.83-21.95-3.86-33.18-4.68.1-.4.09-.88.04-1.37,2.72-.4,5.47-.68,8.43-.53,11.04.54,22.22-2.9,33.47-1.82.07.55-.67.49-.55,1.05,8.89-1.38,18.22.24,27.23.14,1.82-.02,3.66-.06,5.48-.12,0,.05.02.1.04.15.5,1.45,6.06,3.29,7.23,4.44-.92.4-1.22.86-1.85,1.28.98.27,1.92.77,2.86,1.25Z" style="stroke-width:0px;fill:#8e504e"/><path d="m99.06,86.67s14.7-8.21,26.01-40.77C133.12,22.7,157.58,2.15,177.08.16c19.51-1.99,6.5,14.91,0,37.78-6.5,22.87-51.66,44.83-53.69,60.7-2.04,15.86-28.04,1.94-24.33-11.98Z" style="stroke-width:0px;fill:#c1834f"/><path d="m123.63,85.03c7.78-18.76,17.94-36.12,28.58-53.32,6.77-10.94,15.62-21.13,27.86-24.16,2.7,15.98-13.42,38.41-24.25,48.61-8.49,7.99-23.34,15.74-32.2,28.87Z" style="stroke-width:0px;fill:#996239"/><path d="m128.13,159.23c-8.45,10.23-21.86,13.44-27.14,20.79.66-5.34,1.89-10.57.29-15.97-.91,1.34-2.45,1.57-3.38,2.44-1.45-1.05-2.85-1.78-4.2-2.24-1.35.46-2.75,1.19-4.2,2.24-.93-.87-2.47-1.11-3.38-2.44-1.6,5.4-.37,10.63.29,15.97-5.29-7.35-18.69-10.56-27.14-20.79-10.25-12.42,3.67-22.77,0-43.48-.55-3.13-.55-6.24-.1-9.27,2.02,3.02,5.24,5.89,6.47,8.95,1.07.26,1-.41,1.87-.51.44,1.24.79,1.94,1.01,3.26.79.03,1.94-.08,2.69.21.77,3.31,1.27,7.06,5.13,7.6.38,1.75,1.62,2.79,1.69,4.62,6.74,1.22,4.31,9.54,6.51,13.88,1.53,2.99,2.25,4.8,6.58,5.58.92.17,1.78.24,2.58.24s1.66-.07,2.58-.24c4.33-.78,5.05-2.59,6.58-5.58,2.2-4.34-.23-12.66,6.51-13.88.08-1.82,1.31-2.87,1.69-4.62,3.86-.54,4.36-4.29,5.13-7.6.75-.29,1.9-.18,2.69-.21.22-1.32.57-2.02,1.01-3.26.87.09.8.77,1.87.51,1.23-3.06,4.45-5.93,6.47-8.95.45,3.03.45,6.15-.1,9.27-3.67,20.7,10.25,31.05,0,43.48Z" style="fill:#94a198;stroke-width:0px"/><path d="m88.32,86.67s-14.7-8.21-26.01-40.77C54.26,22.7,29.81,2.15,10.3.16c-19.51-1.99-6.5,14.91,0,37.78,6.5,22.87,51.66,44.83,53.69,60.7,2.04,15.86,28.04,1.94,24.33-11.98Z" style="stroke-width:0px;fill:#c1834f"/><path d="m100.99,180.02c-1.14,1.58-2.69,3.4-2.16,5.43,3.24,12.54-5.13,11.74-5.13,11.74,0,0-3.67,0-5.13-11.74-.26-2.08-1.02-3.85-2.16-5.43-.66-5.34-1.89-10.57-.29-15.97.91,1.34,2.45,1.57,3.38,2.44,1.45-1.05,2.85-1.78,4.2-2.24,1.35.46,2.75,1.19,4.2,2.24.93-.87,2.47-1.11,3.38-2.44,1.6,5.4.37,10.63-.29,15.97Z" style="stroke-width:0px;fill:#c1834f"/><path d="m128.23,106.48c-2.02,3.02-5.24,5.89-6.47,8.95-1.07.26-1-.41-1.87-.51-.44,1.24-.79,1.94-1.01,3.26-.79.03-1.94-.08-2.69.21-.77,3.31-1.27,7.06-5.13,7.6-.38,1.75-1.62,2.79-1.69,4.62-6.74,1.22-4.31,9.54-6.51,13.88-1.53,2.99-2.25,4.8-6.58,5.58-.92.17-1.78.24-2.58.24s-1.66-.07-2.58-.24c-4.33-.78-5.06-2.59-6.58-5.58-2.2-4.34.23-12.66-6.51-13.88-.08-1.82-1.31-2.87-1.69-4.62-3.86-.54-4.36-4.29-5.13-7.6-.75-.29-1.9-.18-2.69-.21-.22-1.32-.57-2.02-1.01-3.26-.87.09-.8.77-1.87.51-1.23-3.06-4.45-5.93-6.47-8.95,2.57-17.02,19.61-31.44,34.54-31.44s31.97,14.42,34.54,31.44Z" style="stroke-width:0px;fill:#b1b7b2"/><path d="m63.76,85.03c-7.78-18.76-17.94-36.12-28.58-53.32C28.41,20.78,19.56,10.58,7.32,7.56c-2.7,15.98,13.42,38.41,24.25,48.61,8.49,7.99,23.34,15.74,32.2,28.87Z" style="stroke-width:0px;fill:#996239"/><path d="m77.93,135.37c-1.21,6.84-3.45,9.21-7.78,8.26-2.43-1.6-4.09-4.7-4.09-8.26,0-5.18,3.49-9.39,7.82-9.39.68,0,1.34.11,1.96.31h0s3.3,2.25,2.09,9.09Z" style="stroke-width:0px;fill:#231f20"/><path d="m74.74,131.28c0-1.04-.85-1.89-1.89-1.89s-1.89.85-1.89,1.89.85,1.89,1.89,1.89,1.89-.85,1.89-1.89Z" style="stroke-width:0px;fill:#fff"/><path d="m109.46,135.37c1.21,6.84,3.45,9.21,7.78,8.26,2.43-1.6,4.09-4.7,4.09-8.26,0-5.18-3.49-9.39-7.82-9.39-.68,0-1.34.11-1.96.31h0s-3.3,2.25-2.09,9.09Z" style="stroke-width:0px;fill:#231f20"/><path d="m112.64,131.28c0-1.04.85-1.89,1.89-1.89s1.89.85,1.89,1.89-.85,1.89-1.89,1.89-1.89-.85-1.89-1.89Z" style="stroke-width:0px;fill:#fff"/><path d="m94.94,186.92s-1.64.51-2.25,2.36c-.62,1.85.86,4.93,3.08,3.7,2.22-1.23,1.79-7.55-.83-6.06Z" style="stroke-width:0px;fill:#996239"/></g></g></svg>