<?xml version="1.0" encoding="UTF-8"?><svg data-name="Layer 2" xmlns="http://www.w3.org/2000/svg" viewBox="0 0 383.15 570.65"><defs/><g><g><path d="m163.24,251.24c-27.43-9.81-66.53-57.9-76.87-64.64-10.35-6.74-56.72-60.66-65.27-72.02-8.55-11.37-9.86-27.4-3.94-40.88,4.64-10.56,12.9-6.99,16.26-4.94-.85,3.77-1.38,7.96-1.58,12.58,0,0,11.83,25.52,14.9,30.28,3.06,4.76,26.3,51.19,26.3,51.19,0,0,44.27,36.33,48.43,38.19,4.17,1.88,4.6,5.62,4.6-8.23s16.66-38.33,16.66-38.33c0,0,1.07-.82,2.41-2.55,13.16,8.04,22.89,13.92,22.89,13.92,43.75,26.69,22.64,95.23-4.79,85.42Z" style="stroke-width:0px;fill:#787878"/><path d="m145.14,151.91c-1.34,1.73-2.41,2.55-2.41,2.55,0,0-16.66,24.48-16.66,38.33s-.43,10.11-4.6,8.23c-4.16-1.86-48.43-38.19-48.43-38.19,0,0-23.23-46.43-26.3-51.19-3.06-4.76-14.9-30.28-14.9-30.28.2-4.62.72-8.81,1.58-12.58.93.56,1.49,1.01,1.49,1.01,0,0,30.9,30.33,41.02,38.43,6.64,5.31,44.14,28.41,69.2,43.7Z" style="stroke-width:0px;fill:#787878"/><path d="m2.53,7.01s2.14,95.97,7.4,127.31c5.26,31.35,65.74,181.03,71,192.64,5.26,11.61,43.83,105.62,50.84,120.74,7.01,15.12,31.99,118.34,31.99,118.34,0,0,6.58,4.6,19.07,4.6s22.81-4.6,22.81-4.6c0,0-29.37-107.82-31.68-124.25-2.31-16.44-62.18-126.67-77.61-169.84-15.43-43.17-48.96-142.08-55.53-152.78-6.57-10.7-4.77-112.16-4.77-112.16,0,0-17.09-15.78-33.53,0Z" style="stroke-width:0px;fill:#594a42"/><path d="m9.65,8.77s-1.16,41.2,0,42.73c1.16,1.54,9.49,2.5,8.17,4.43-1.31,1.93-7.23,5.97-7.23,5.97,0,0-2.48,1.77,1.4,3.88,3.89,2.11,8.46,8.52,5.17,9.18-3.29.66-8.23,5.26-7.51,7.89s8.02-2.63,8.64-1.75c.63.88-4.01,9.64-4.76,12.27-.75,2.63,1.62,31.76,4.82,40.97,3.2,9.21,24.51,67.5,30.95,80.87,6.44,13.37,34.49,87.18,35.8,88.63s10.91-11.27,11.26-16.53c.35-5.26-26.17-72.58-32.74-88.89-6.57-16.3-28.8-78.54-28.97-85.11s-2.8-35.94-2.8-35.94c0,0-6.14-1.09-6.14-3.18s3.5-3.93,6.14-4.95-3.44-1.41-5.01-3.32c-1.57-1.92,3.82-4.37,5.01-7.84,1.18-3.46.87-46.46.87-49.3S14.19-.66,9.65,8.77Z" style="stroke-width:0px;fill:#726658"/><path d="m.4,59.17s2.63-9.53,8.55-9.53,11.15,4.69,4.59,7.93c-6.56,3.25-9.06,8.94-9.06,8.94,0,0-5.71.22-4.07-7.34Z" style="stroke-width:0px;fill:#231f20"/><path d="m5.3,65.01s-4.18.24-5.2,7.97c-1.02,7.72,6.05,7.72,9.5,2.96s6.25-2.14,9.04-5.92c2.79-3.78-3.68-7.88-13.34-5.01Z" style="stroke-width:0px;fill:#231f20"/><path d="m5.05,79.08S-.03,81.19.1,85.63c.13,4.44.81,5.8,5.65,5.94,4.84.14,6.97-6.43,9.93-7.91,2.96-1.48-3.35-6.36-10.63-4.58Z" style="stroke-width:0px;fill:#231f20"/><path d="m37.54,55.55s-2.63-2.63-6.41,0c-3.78,2.63-4.93,6.96-4.11,8.49.82,1.54,4.39-.44,9.34,1.54,4.96,1.97,7.59-5.42,1.18-10.03Z" style="stroke-width:0px;fill:#231f20"/><path d="m40.01,69.39s-1.22-3.51-5.77-2.79c-4.55.72-7.47,4.12-7.39,5.86.07,1.74,4.14,1.52,7.74,5.45,3.6,3.93,9.19-1.58,5.42-8.52Z" style="stroke-width:0px;fill:#231f20"/><path d="m8.34,51.72s-5.2,1.86-6.08,6.35c-.88,4.49,3.73,1.32,5.04-.65,1.31-1.97,4.46-2.23,6.23-3.03s-3.16-3.7-5.19-2.67Z" style="stroke-width:0px;fill:#414042"/><path d="m10.15,65.41s-5.7-.77-7.56,2.96c-1.86,3.73.33,6.14,2.85,3.84,2.52-2.3,6.46-3.73,9.09-3.94,2.63-.22,2.19-1.75-4.38-2.85Z" style="stroke-width:0px;fill:#414042"/><path d="m9.65,80.21s-5.09-.66-7.5,3.29c-2.41,3.94,2.85,5.17,4.49,3.19,1.64-1.98,5.12-3.85,6.89-3.85s2.35-2.43-3.88-2.63Z" style="stroke-width:0px;fill:#414042"/><path d="m34.91,55.93s-3.07.17-4.71,2.69c-1.64,2.52-.08,1.84,3.85,1.52,3.93-.32,3.82,2.5,5.13,1.75,1.31-.75.44-5.59-4.27-5.97Z" style="stroke-width:0px;fill:#414042"/><path d="m36.01,68.37s-2.81-1.06-5.7,1.97c-2.88,3.04,1.11,1.1,4.34,1.86s4.67,2.42,5.63,1.86c.97-.55-.22-4.55-4.27-5.7Z" style="stroke-width:0px;fill:#414042"/><path d="m16.57,12.27s.15,1.56.41,4.28c.22,2.73.61,6.62.94,11.29.32,4.68.77,10.13,1.12,15.98.38,5.85.71,12.09,1.05,18.33.12,3.13.36,6.22.45,9.33.12,3.09.11,6.13.12,9.06,0,5.87-.23,11.35-.4,16.03-.17,4.69-.47,8.59-.63,11.32-.19,2.73-.33,4.29-.33,4.29,0,0-.06-6.25-.15-15.63,0-4.69-.12-10.15-.23-16-.05-2.92-.16-5.95-.28-9-.11-3.04-.37-6.18-.51-9.3-.3-6.24-.6-12.49-.81-18.35-.24-5.86-.35-11.33-.5-16.02-.15-4.69-.15-8.6-.21-11.34-.02-2.74-.03-4.3-.03-4.3Z" style="stroke-width:0px;fill:#594a42"/><path d="m29.55,98.61s.78,4.78,1.96,11.94c.6,3.58,1.28,7.75,2.12,12.19.41,2.21.91,4.51,1.46,6.77.58,2.33,1.3,4.55,2.03,6.87.72,2.3,1.48,4.59,2.24,6.84.76,2.25,1.51,4.47,2.23,6.62,1.45,4.3,2.8,8.31,3.95,11.74,1.13,3.45,2.07,6.33,2.73,8.34.64,2.02,1.01,3.18,1.01,3.18,0,0-.52-1.1-1.36-3.04-.83-1.95-2.06-4.72-3.43-8.08-1.38-3.36-2.94-7.3-4.53-11.56-1.6-4.25-3.21-8.82-4.71-13.44-.71-2.3-1.45-4.7-2-7-.57-2.37-.95-4.68-1.32-6.94-.71-4.5-1.18-8.72-1.53-12.34-.36-3.62-.53-6.64-.68-8.76-.13-2.12-.16-3.33-.16-3.33Z" style="stroke-width:0px;fill:#594a42"/><path d="m31.85,136.95s.54,1.22,1.49,3.36c.92,2.15,2.29,5.2,3.84,8.89,1.55,3.69,3.4,7.98,5.3,12.62,1.89,4.63,3.92,9.57,5.94,14.51.98,2.49,1.96,4.98,2.93,7.43.83,2.5,1.55,5,2.26,7.4,1.41,4.81,2.59,9.33,3.64,13.19,1.05,3.86,1.84,7.11,2.43,9.37.56,2.27.88,3.57.88,3.57,0,0-.41-1.27-1.12-3.5-.7-2.23-1.7-5.41-2.89-9.23-1.18-3.82-2.55-8.29-4.03-13.07-.74-2.39-1.48-4.85-2.33-7.33-.99-2.43-1.99-4.89-3-7.36-1.97-4.96-3.93-9.92-5.77-14.58-1.85-4.65-3.48-9.03-4.92-12.76-1.44-3.73-2.57-6.88-3.39-9.06-.8-2.2-1.25-3.45-1.25-3.45Z" style="stroke-width:0px;fill:#594a42"/><path d="m21.11,129.28s.31,1.13.86,3.11c.53,1.98,1.39,4.78,2.41,8.13.52,1.67,1.1,3.48,1.73,5.38.63,1.9,1.33,3.9,2.08,5.95.74,2.05,1.58,4.15,2.46,6.25.43,1.06.89,2.11,1.38,3.16.47,1.06.98,2.09,1.52,3.12,1.03,2.07,2.16,4.15,3.19,6.21,1.06,2.05,2.04,4.11,3,6.08,1.91,3.96,3.62,7.69,5.03,10.92,1.43,3.21,2.52,5.94,3.31,7.83.78,1.9,1.19,3,1.19,3,0,0-.56-1.03-1.54-2.84-.96-1.81-2.34-4.4-3.99-7.5-3.26-6.22-7.61-14.51-11.96-22.81-.54-1.06-1.06-2.13-1.52-3.21-.5-1.07-.95-2.15-1.38-3.23-.89-2.15-1.63-4.31-2.34-6.41-.71-2.09-1.31-4.14-1.85-6.09-.55-1.94-1.01-3.8-1.41-5.52-.82-3.43-1.33-6.32-1.7-8.34-.35-2.02-.49-3.19-.49-3.19Z" style="stroke-width:0px;fill:#594a42"/><path d="m64.5,206.43s.51,1.19,1.41,3.26c.87,2.09,2.17,5.05,3.64,8.64,1.46,3.59,3.22,7.76,5.01,12.27,1.79,4.51,3.7,9.31,5.61,14.12.93,2.41,1.86,4.83,2.77,7.2.93,2.36,1.77,4.75,2.73,6.94,1.94,4.41,3.79,8.56,5.41,12.08,1.59,3.54,2.92,6.49,3.85,8.55.92,2.07,1.44,3.25,1.44,3.25,0,0-.61-1.14-1.67-3.14-1.03-2.01-2.56-4.87-4.29-8.34-1.72-3.48-3.78-7.5-5.78-11.95-1.01-2.24-1.85-4.58-2.82-6.94-.94-2.37-1.9-4.77-2.85-7.17-1.86-4.83-3.71-9.66-5.45-14.18-1.74-4.53-3.28-8.79-4.64-12.42-1.36-3.64-2.42-6.69-3.19-8.82-.75-2.14-1.18-3.36-1.18-3.36Z" style="stroke-width:0px;fill:#594a42"/><path d="m64.5,235.36s.48,1.02,1.28,2.84c.78,1.82,1.95,4.4,3.24,7.53,1.31,3.13,2.8,6.79,4.34,10.74,1.55,3.94,3.13,8.18,4.68,12.43.76,2.13,1.5,4.27,2.21,6.39.35,1.07.7,2.11.98,3.23.12.45.28,1.04.44,1.51.19.47.33.92.55,1.4,1.63,3.83,3.49,7.33,5.02,10.35,3.12,6.02,5.2,10.03,5.2,10.03,0,0-.66-.92-1.76-2.57-1.08-1.66-2.67-4-4.43-6.91-.88-1.45-1.84-3.03-2.78-4.74-.95-1.71-1.95-3.5-2.84-5.48-.23-.48-.44-1.04-.66-1.56-.2-.54-.34-1-.52-1.59-.28-.98-.66-2.03-1-3.07-.74-2.09-1.5-4.21-2.26-6.33-1.52-4.25-3.03-8.51-4.45-12.5-1.41-3.99-2.7-7.73-3.77-10.95-1.09-3.21-1.92-5.91-2.54-7.79-.6-1.89-.92-2.97-.92-2.97Z" style="stroke-width:0px;fill:#594a42"/><path d="m78.47,258.04s.32.55.88,1.51c.54.97,1.35,2.34,2.24,4.03.89,1.68,1.97,3.63,3.05,5.75,1.1,2.11,2.23,4.39,3.36,6.66,1.11,2.29,2.22,4.57,3.22,6.73,1.01,2.16,1.89,4.2,2.68,5.94.79,1.74,1.37,3.22,1.81,4.24.42,1.03.65,1.62.65,1.62,0,0-.32-.55-.88-1.51-.54-.97-1.35-2.34-2.24-4.03-.89-1.68-1.97-3.63-3.05-5.75-1.1-2.11-2.22-4.39-3.36-6.66-1.11-2.29-2.22-4.57-3.21-6.73-1.01-2.16-1.89-4.2-2.68-5.94-.79-1.74-1.37-3.22-1.81-4.24-.42-1.03-.65-1.62-.65-1.62Z" style="stroke-width:0px;fill:#594a42"/><path d="m22.09,2.3s.03.7.07,1.94c.02,1.23.1,2.99.11,5.11.02,2.11.04,4.57.07,7.21,0,2.64-.01,5.45-.02,8.26-.07,5.63-.13,11.25-.18,15.47-.03,4.22-.06,7.04-.06,7.04,0,0-.09-.7-.24-1.93-.13-1.23-.33-2.98-.44-5.1-.12-2.11-.27-4.58-.32-7.22-.08-2.64-.08-5.46-.07-8.28.03-2.82.08-5.63.18-8.27.09-2.64.24-5.1.35-7.21.11-2.11.28-3.87.37-5.1.12-1.23.18-1.93.18-1.93Z" style="stroke-width:0px;fill:#594a42"/><path d="m29.32,3.87s.33,2.59.56,6.48c.13,1.94.23,4.21.3,6.65.08,2.43.1,5.02.12,7.62-.02,2.59-.03,5.19-.12,7.62-.07,2.43-.17,4.7-.3,6.65-.23,3.89-.57,6.48-.57,6.48,0,0-.33-2.59-.57-6.48-.13-1.94-.23-4.21-.3-6.65-.08-2.43-.1-5.02-.12-7.62.02-2.59.04-5.19.12-7.62.07-2.43.18-4.7.3-6.65.23-3.89.56-6.48.56-6.48Z" style="stroke-width:0px;fill:#594a42"/><path d="m336.58,348.66s-.01.05-.01.08c-4.98,14.27-11.61,28.27-19.93,40.84-.42.08-.84.17-1.26.26-46.28,10.51-38.53-25.63-38.53-25.63l-14.13-31.56c-14.13-31.56,6.1-63.77,6.1-63.77,0,0-25.5-.66-32.6-24.76-7.09-24.1,20.91-32.44,20.91-32.44-4.38-20.74-11.54-34.59-21.05-43.26-3.14-13.73-9.93-28.09-23.46-39.16,18.46-1.01,38.7,4.31,56.2,14.46,3.17,16.54,12.82,34.11,12.82,34.11,0,0,76.56,75.72,54.95,170.81Z" style="fill:#9f9e9f;stroke-width:0px"/><path d="m211.96,436.23c-70.99-21.88-72.82-145.33-75.14-168-2.51-24.42,10.06-106.6,44.24-129.18,9.09-6.01,19.97-9.14,31.56-9.77,36.86,30.15,23.6,84.61,23.6,84.61,0,0-28.45,12.27-30.5,41.19-2.06,28.93,47.53,137.9,47.53,137.9,0,0-65.43,16.63-41.29,43.25Z" style="stroke-width:0px;fill:#e6e7e8"/><path d="m336.58,348.66c21.62-95.09-54.95-170.81-54.95-170.81,0,0-9.65-17.57-12.82-34.11,12.79,7.4,24.14,17.38,32.27,29.35,0,0,34.34,36.8,45.1,91.08,4.25,21.39,1.2,53.59-9.61,84.57,0-.03.01-.05.01-.08Z" style="stroke-width:0px;fill:#b7b7b7"/><path d="m316.63,389.58c-19.45,29.37-48.12,50.9-86.66,49.58-6.52-.22-12.52-1.24-18.01-2.93-24.14-26.61,41.29-43.25,41.29-43.25,0,0-49.6-108.98-47.53-137.9,2.05-28.93,30.5-41.19,30.5-41.19,0,0,5.31-21.8-.14-45.45,9.51,8.66,16.67,22.52,21.05,43.26,0,0-27.99,8.34-20.91,32.44,7.1,24.1,32.6,24.76,32.6,24.76,0,0-20.24,32.21-6.1,63.77l14.13,31.56s-7.76,36.13,38.53,25.63c.42-.09.84-.18,1.26-.26Z" style="stroke-width:0px;fill:#787878"/><path d="m235.43,236.02s21.41-23.67,46.2-34.19c24.8-10.52-35.46,6.03-45.41,12.06-9.96,6.03-21.83,37.25-.79,22.13Z" style="stroke-width:0px;fill:#787878"/><path d="m87.48,341.46c-.09.09-.46.46-1,.87.5-.47.88-.79,1-.87Z" style="stroke-width:0px;fill:#b7b7b7"/><path d="m262.9,286.39c-15.84,19.76-58.56,35.75-79.85,45.57-25.68,11.86-41.63,14.16-51.32,16.59-9.69,2.43-22.1.85-30.82,4.77-8.72,3.93-9.01,7.21-18.41,5.89-9.4-1.31-7.64-12.45-7.64-12.45-8.39-4.05-2.91-14.38-2.91-14.38-3.22-9.24-.68-14.81,4.21-19.05,0,0-1.8,15.82,4.77,13.64,5.34-1.79,6.34-2.12,6.53-2.18-.68.46-11.26,7.68-8.28,14.88,2.22,5.42,5.61,3.89,7.3,2.66-2.34,2.18-7.06,7.72,3.66,8.74,13.41,1.29,14.03-6.57,24.1-14.46,10.09-7.89,8.42.88,24.59-.88,0,0,18.37-28.93,47.3-39.88,28.93-10.95,56.12-7.01,56.12-7.01,0,0,27.72-11.9,29.77-44.71,4.34,12.06,2.83,27.35-9.11,42.26Z" style="stroke-width:0px;fill:#787878"/><path d="m281.12,362.63c-5.93,20.81-11.35,38.6-60.15,27.01-50.21-11.93-50.62-43.82-58.51-40.76-7.89,3.08,10.52,32.44,9.76,42.08-.76,9.65-9.76,22.35-23.43,22.35s-15.25-6.57-20.05-3.94c-4.8,2.63-28.07,18.86-31.54,13.15-3.48-5.69,5.22-11.83,5.22-11.83-9.2-2.63-6.13-8.76,8.26-14.02,14.4-5.26,25.5-7.02,11.91-10.97-13.6-3.94-11.83-7.89-11.83-7.89,3.79-1.76,7.42-2.33,10.64-2.25,0,0-3.96,2.47,4.26,6.75,8.22,4.27,5.92,7.55,5.92,7.55,0,0-23.67,6.92-22.68,12.18.97,5.17,19.04-4.56,19.71-4.92-.46.45-9.1,8.86-5.9,8.86s13.81-6.57,17.75-7.89c3.94-1.31,15.78.99,15.78-10.85s-4.93-39.45,0-47.33c4.93-7.89,35.57-35.97,56.41-36.07,20.2-.09,51.04,8.7,62.22,35.04.08.18.16.37.22.55.16.38.32.78.46,1.16.12.29.22.59.33.88.12.34.25.68.38,1,2.43,6.72,4.12,13.54,4.89,20.17Z" style="fill:#9f9e9f;stroke-width:0px"/><path d="m272.01,244.13c-2.05,32.81-29.77,44.71-29.77,44.71,0,0-27.19-3.94-56.12,7.01-28.93,10.95-47.3,39.88-47.3,39.88-16.17,1.76-14.5-7.01-24.59.88-10.07,7.89-10.69,15.75-24.1,14.46-10.72-1.03-6-6.56-3.66-8.74.54-.41.91-.78,1-.87-.12.08-.5.39-1,.87-1.68,1.24-5.08,2.76-7.3-2.66-2.97-7.21,7.6-14.42,8.28-14.88-.2.07-1.2.39-6.53,2.18-6.57,2.18-4.77-13.64-4.77-13.64,3.84-3.33,9.15-5.85,14.27-8.7,11.61-6.5,10.55-19.85,10.55-19.85,0,0,7.58-5.28,11.49,2.13,3.91,7.4,3.01,9.83,3.01,9.83,20.01-6.68,104.45-63.85,104.45-63.85,11.28-7.69,35.9-12.1,46.1.59,2.51,3.12,4.55,6.71,5.98,10.65Z" style="fill:#9f9e9f;stroke-width:0px"/><path d="m86.48,342.32c.5-.47.88-.79,1-.87-.09.09-.46.46-1,.87Z" style="stroke-width:0px;fill:#b7b7b7"/><path d="m251.3,412.87c-40.63,10.08-70.24-21.7-70.24-21.7,0,0-2.83,26.07-12.46,31.78-9.65,5.69-31.56-1.76-39.45-.45-7.89,1.31-32.87,14.03-37.26,5.71-4.38-8.34,1.76-13.15,1.76-13.15,0,0-14.46-2.2-7.89-11.4,6.57-9.2,30.24-10.95,30.24-10.95,0,0-21.92-4.83-8.11-13.37.96-.59,1.91-1.1,2.85-1.54,0,0-1.76,3.94,11.83,7.89,13.58,3.94,2.49,5.71-11.91,10.97-14.38,5.26-17.46,11.39-8.26,14.02,0,0-8.7,6.14-5.22,11.83,3.47,5.71,26.74-10.52,31.54-13.15,4.8-2.63,6.36,3.94,20.05,3.94s22.67-12.7,23.43-22.35c.76-9.64-17.65-39-9.76-42.08,7.89-3.06,8.3,28.83,58.51,40.76,48.81,11.6,54.22-6.19,60.15-27.01,2.76,23.25-5.42,44.18-29.82,50.24Z" style="stroke-width:0px;fill:#787878"/><path d="m98.68,305.71c-1.51.66-10.27,1.97-12.2,7.89-1.93,5.92,22.06-4.6,38.17-7.89,16.11-3.29,80.21-43.72,90.4-50.29,10.19-6.57,28.6-16.11,36.82-18.08,8.22-1.97,2.36-12.1-15.64-7.7-18,4.4-88.23,52.19-100.39,58.71s-27.31,13.08-37.14,17.36Z" style="stroke-width:0px;fill:#b7b7b7"/><path d="m274.83,338.87c-11.18-26.34-42.02-35.13-62.22-35.04-20.84.09-51.48,28.18-56.41,36.07-4.93,7.89,0,35.5,0,47.33s-11.83,9.53-15.78,10.85c-3.94,1.31-14.46,7.89-17.75,7.89s5.44-8.42,5.9-8.86c-.67.35-18.74,10.08-19.71,4.92-.99-5.26,22.68-12.18,22.68-12.18,0,0,2.3-3.27-5.92-7.55-8.22-4.27-4.26-6.75-4.26-6.75,7.51.16,12.81,3.79,12.81,3.79.7-42.73,43.85-83.65,74.95-88.25,31.1-4.6,53.58,25.8,53.58,25.8,4.9,6.84,9.01,14.31,12.12,21.98Z" style="stroke-width:0px;fill:#b7b7b7"/><path d="m245.62,125.25c2.65,18.32,41.53,46.73,84.84,40.78,4.03-.56,7.69-1.59,11.02-3.02,6.97-2.27,12.34-6.83,19.47-11.99,7.13-5.15,10.94-1.2,10.94-1.2,1.13-6.19-2.45-12.32-2.64-12.65,3.42,2.85,10.26-.01,10.26-.01-4.97-3.22-4.31-13.98-4.31-13.98l5.3,2.75c0-13.65-4.04-17.77-4.29-18.02l6.93,3.92c-.38-.74-13.07-24.45-22.85-28.85h3.98s-12.12-23.01-42.92-26.12c-30.79-3.11-53.84,17.18-61.14,27.49-2.4,3.4-6.8,8.26-11.11,11.81-3.21,9.97-4.69,20.67-3.47,29.08Z" style="fill:#9f9e9f;stroke-width:0px"/><path d="m284.77,109.79s-3.4-12.71,7.94-23.02c11.34-10.31,39.3-11.34,49.89,0s10.96,28.86,10.96,28.86l-5.29-1.54s-.76,8.41,5.29,11.16c0,0-4.91,3.78-12.47,0,0,0,4.54,4.81,3.02,11,0,0-5.67-2.41-8.31-2.41,0,0,4.54,11.34-5.67,15.81,0,0,3.4-3.43-5.67-8.93,0,0-3.4,2.4-1.13,6.87,0,0-12.2.8-17.44-4.24,0,0-2.22,4.93,1.56,8.36,0,0-20.03-8.59-21.54-17.87s-1.13-24.05-1.13-24.05Z" style="stroke-width:0px;fill:#707071"/><path d="m249.09,96.17c4.31-3.55,8.71-8.41,11.11-11.81,7.29-10.31,30.34-30.6,61.14-27.49,30.81,3.11,42.92,26.12,42.92,26.12h-3.98c9.78,4.4,22.47,28.11,22.85,28.85h.01c-1.33-9.95-10.27-23.24-10.27-23.24h7.52c-2.65-.45-7.13-5.07-10.95-9.57-3.82-4.49-6.97-8.88-6.97-8.88-11.51-18.49-35.98-22.21-54.55-20.95-20.32,1.37-42.09,19.7-42.09,19.7-6.87,4.81-12.99,15.53-16.74,27.27Z" style="stroke-width:0px;fill:#b7b7b7"/><path d="m201.87,125.25c-2.65,18.32-41.53,46.73-84.84,40.78-4.03-.56-7.69-1.59-11.02-3.02-6.97-2.27-12.34-6.83-19.47-11.99-7.13-5.15-10.94-1.2-10.94-1.2-1.13-6.19,2.45-12.32,2.64-12.65-3.42,2.85-10.26-.01-10.26-.01,4.97-3.22,4.31-13.98,4.31-13.98l-5.3,2.75c0-13.65,4.04-17.77,4.29-18.02l-6.93,3.92c.38-.74,13.07-24.45,22.85-28.85h-3.98s12.12-23.01,42.92-26.12c30.79-3.11,53.84,17.18,61.14,27.49,2.4,3.4,6.8,8.26,11.11,11.81,3.21,9.97,4.69,20.67,3.47,29.08Z" style="fill:#9f9e9f;stroke-width:0px"/><path d="m162.72,109.79s3.4-12.71-7.94-23.02c-11.34-10.31-39.3-11.34-49.89,0-10.58,11.34-10.96,28.86-10.96,28.86l5.29-1.54s.76,8.41-5.29,11.16c0,0,4.91,3.78,12.47,0,0,0-4.54,4.81-3.02,11,0,0,5.67-2.41,8.31-2.41,0,0-4.54,11.34,5.67,15.81,0,0-3.4-3.43,5.67-8.93,0,0,3.4,2.4,1.13,6.87,0,0,12.2.8,17.44-4.24,0,0,2.22,4.93-1.56,8.36,0,0,20.03-8.59,21.54-17.87s1.13-24.05,1.13-24.05Z" style="stroke-width:0px;fill:#707071"/><path d="m198.4,96.17c-4.31-3.55-8.71-8.41-11.11-11.81-7.29-10.31-30.34-30.6-61.14-27.49-30.81,3.11-42.92,26.12-42.92,26.12h3.98c-9.78,4.4-22.47,28.11-22.85,28.85h-.01c1.33-9.95,10.27-23.24,10.27-23.24h-7.52c2.65-.45,7.13-5.07,10.95-9.57,3.82-4.49,6.97-8.88,6.97-8.88,11.51-18.49,35.98-22.21,54.55-20.95,20.32,1.37,42.09,19.7,42.09,19.7,6.87,4.81,12.99,15.53,16.74,27.27Z" style="stroke-width:0px;fill:#b7b7b7"/><path d="m305.22,163.6v.03c-1.23,6.92-3.34,13.33-6.48,18.78-16.3,28.23-52.17,26.92-74.99,26.92s-58.69,1.31-74.99-26.92c-3.14-5.45-5.26-11.86-6.48-18.78v-.03c.13-2.01,7.22-103.32,81.47-103.32s81.34,101.31,81.47,103.32Z" style="fill:#9f9e9f;stroke-width:0px"/><path d="m237.45,183.8c-3.2,4.32-9.97,4.32-13.7,4.32s-10.5,0-13.7-4.32-2.78-21.43,0-30.77c4.27-14.38,13.7-14.38,13.7-14.38,0,0,9.43,0,13.7,14.38,2.78,9.35,3.2,26.46,0,30.77Z" style="stroke-width:0px;fill:#231f20"/><path d="m305.22,163.6c-.13-2.01-7.22-103.32-81.47-103.32s-81.34,101.31-81.47,103.32c-5.11-28.88,5.1-69.96,18.87-86.13,21.41-25.17,62.6-25.07,62.6-25.07,0,0,41.4-1.54,62.82,23.64,13.77,16.16,23.77,58.68,18.65,87.56Z" style="stroke-width:0px;fill:#b7b7b7"/><path d="m223.75,176.74c-8.54,0-11.48-5-7.97-19.15,3.5-14.13,7.97-14.13,7.97-14.13,0,0,4.47,0,7.97,14.13,3.51,14.14.56,19.15-7.97,19.15Z" style="stroke-width:0px;fill:#1f2328"/><circle cx="180.11" cy="138.22" r="11.93" transform="translate(4.21 281.75) rotate(-76.72)" style="stroke-width:0px;fill:#f1f2f2"/><circle cx="182.03" cy="137.8" r="7.98" style="stroke-width:0px;fill:#231f20"/><circle cx="176.44" cy="132.47" r="3.66" style="stroke-width:0px;fill:#fff"/><circle cx="267.38" cy="138.22" r="11.93" transform="translate(-24.6 65.13) rotate(-13.28)" style="stroke-width:0px;fill:#f1f2f2"/><circle cx="265.47" cy="137.8" r="7.98" style="stroke-width:0px;fill:#231f20"/><circle cx="271.05" cy="132.47" r="3.66" style="stroke-width:0px;fill:#fff"/></g></g></svg>