<?xml version="1.0" encoding="UTF-8"?><svg data-name="Layer 2" xmlns="http://www.w3.org/2000/svg" viewBox="0 0 87.53 102.12"><defs/><g data-name="100"><g><path d="m85.31,75.84c-.32,1.18-.68,2.39-1.07,3.61-.31.95-.63,1.91-.97,2.87-.44,1.22-.91,2.44-1.41,3.64-.56,1.32-1.15,2.62-1.78,3.87-2.03,4.02-4.46,7.53-7.24,9.73-1.38,1.09-2.84,1.85-4.39,2.19-.34.08-.69.13-1.05.17-2.08.2-4.08.26-6.01.2-1.13-.03-2.23-.11-3.29-.23-2.06-.23-3.99-.62-5.79-1.16-.68-.2-1.33-.42-1.97-.67-2.65-1.02-4.92-2.38-6.73-4.07-.67-.62-1.27-1.28-1.8-1.99-.7-.92-1.29-1.92-1.74-2.98-.29-.66-.61-1.23-.96-1.72-.34-.47-.7-.86-1.09-1.18-.94-.78-2-1.17-3.09-1.25-1.75-.14-3.58.47-5.09,1.4-1.58.97-2.8,2.27-3.22,3.39-1.13,3.01-.93-2.27,2.49-5.76.46-.47.98-.91,1.56-1.29,1.43-.93,2.84-1.45,4.19-1.56,1.76-.15,3.41.37,4.87,1.54.8.64,1.54,1.46,2.21,2.48.4.61.78,1.29,1.12,2.03.28.59.62,1.16,1.02,1.71,1.07,1.44,2.56,2.7,4.28,3.74,1.01.61,2.11,1.13,3.25,1.58,1.09.42,2.22.76,3.36,1.02.71.16,1.42.29,2.13.38,1.93.25,3.85.23,5.59-.09.23-.04.47-.09.7-.14.69-.15,1.36-.34,2.02-.56,1.64-.56,3.19-1.35,4.59-2.37.94-.69,1.82-1.48,2.6-2.37.51-.58.98-1.2,1.42-1.86.68-1.04,1.26-2.18,1.71-3.43.31-.83.56-1.71.76-2.64.12-.58.22-1.18.3-1.79.14-1.17.27-2.34.37-3.48.18-1.98.3-3.9.35-5.68.06-2.14.03-4.07-.1-5.66.1.16.2.32.28.5.22.5.32,1.24.66,1.66.14.17.32.31.46.49.27.35.36.76.65,1.05.13.12.24.27.38.38.16.14.34.22.5.35.34.26.58.64.87.95.48.51.99,1.04,1.55,1.44.38.27.65.63,1.05.89.43.28.86.5,1.34.65.05.02.11.03.16.05Z" style="stroke-width:0px;fill:#382d29"/><path d="m27.63,13.03c-.56-.18-1.12-.38-1.7-.5-.65-.13-1.32-.15-1.99-.13h0c-.5-.91-.75-1.92-.77-2.97.53-.9,1.19-1.7,2.04-2.24.61-.39,1.27-.61,1.93-.91.77-.34,1.45-.87,2.22-1.21.81-.36,1.84-.44,2.71-.57.57-.08,1.17-.03,2.74-.03.35.04.65.44,1,.44.32,0,.66-.28,1-.3.14,0,.29,0,.42,0,.2,0,.31-.08.46-.11.31-.06.48.1.8.13.08.25-.06.74.25.91.38.21.35-.4.52-.63.31.08.38.57.65.69.02-.15.08-.55.26-.55.23,0,.4.66.56.83.53.57.38-.61.74-.54.12.02.2.48.28.57.19.21.24.12.47.06.27-.07.25-.09.29.21.04.32-.02.56.17.85.24-.13.4-.62.64-.7.17.3.1.97.33,1.2.33.32.39-.19.67-.2.03.17.07.44.2.57.2.21.34.03.55.12.37.16-.08.75.15.99.13.13.42-.05.56.01.21.1.11.23.13.44.05.57.39.24.72.49.25.19.13.72.13,1,0,.23-.11.94.08,1.06.16.1.36-.09.49.08.06.08.02.45,0,.55-.07.25-.3.53-.4.77.16.08.42-.1.55-.2.25-.18.34-.57.56-.78.32-.02.33.57.58.7.19.1.55,0,.71-.07.46-.21.83-.63,1.29-.85.39-.19.67-.22,1.11-.2.24.01.45.06.41.39-.03.22-.23.31-.38.43-.25.2-.36.32-.5.59-.32.61-.72,1.44-.86,2.11-.09.43-.08.89-.21,1.31-.24.75-.07,1.78-.49,2.52-.22.39-.35.26-.71.41-.43.18-.33.55-.4.95-.05.26-.11.43-.11.7,0,.25-.08.31-.13.51-.12.49,0,1.13-.01,1.64,0,.59.05,1.2.15,1.78.07.4.36.8.48,1.19.1.35.21.7.29,1.06.03.11.05.22.08.33.08.35.12.7.17,1.06.07.45.05.98.18,1.41.17.55.64,1.02,1.04,1.49-.41-.06-.89.05-1.21.31-.39.31-.67.8-.98,1.18-.32.39-.67.75-.84,1.23-.07.2-.1.41-.15.62-.67-.94-1.27-1.96-1.8-3.02.22-.17.38-.39.46-.66.06-.2-.02-.42.03-.63.05-.24.18-.44.23-.69.18-.93.05-2.05-.04-2.99-.04-.36-.05-.73-.15-1.08-.07-.26-.27-.49-.33-.75-.06-.27-.07-.44-.2-.69-.08-.16-.26-.31-.33-.46-.04-.09-.03-.21-.06-.29-.05-.11-.13-.15-.18-.25-.15-.31-.06-1.16-.51-1.15-.06.19,0,.37-.06.56-.06.21-.1.22-.12.45-.01.22.06.48.01.7-.04.19-.15.35-.18.55-.36-.16-.49-1.18-.58-1.58-.12-.55-.1-1.08-.1-1.64,0-.12-.04-.36,0-.48.06-.2.25-.36.3-.56.04-.18.06-.82-.04-.97-.11-.18-.35-.2-.5-.35-.19-.18-.4-.37-.57-.57-.32-.38-.56-.9-.78-1.35-.48-.97-.56-2.11-1-3.13-.18-.42-.37-.72-.78-.92-.36-.18-.72-.38-1.08-.55-.49-.23-1.02-.45-1.52-.69-.21-.1-1.42-.97-1.43-.57-.01.27.73.72.9.82.29.16.54.45.82.59.22.1.4.12.61.27.37.27.84.22,1.24.46.5.31.43.64.43,1.21v2.18c0,.25,0,.49,0,.74,0,.37.1.51-.28.57-.42.07-.96-.26-1.32-.4-.15-.05-.25-.11-.39-.18-.22-.1-.39-.1-.61-.17-.15-.05-.27-.17-.42-.23-.26-.1-.55-.12-.82-.2-1.36-.42-2.66-1.13-3.99-1.64-.58-.22-1.29-.71-1.58-1.27.04.05.09.08.16.09-1.12-.75-1.44-.87-1.69-.96-.54-.19-1.1-.13-1.64-.31Z" style="stroke-width:0px;fill:#493933"/><path d="m63.62,48.26c-.18-.1-.34-.2-.5-.32.74.25,1.5.44,2.21.75.33.14.61.39.93.55.22.11.41.17.6.33.24.21.49.44.71.66-.26-.16-.54-.34-.81-.47-.15-.07-.31-.09-.45-.16-.18-.09-.35-.18-.53-.27-.14-.07-.24-.18-.37-.25-.14-.08-.31-.1-.45-.17-.22-.11-.48-.16-.69-.28-.22-.13-.44-.22-.66-.34Z" style="stroke-width:0px;fill:#493933"/><path d="m86.25,72.1c-.27,1.19-.58,2.44-.94,3.74-.05-.01-.1-.03-.16-.05-.49-.16-.92-.37-1.34-.65-.4-.26-.67-.63-1.05-.89-.56-.4-1.07-.93-1.55-1.44-.29-.31-.53-.69-.87-.95-.16-.13-.34-.21-.5-.35-.13-.12-.25-.26-.38-.38-.3-.28-.38-.7-.65-1.05-.14-.18-.32-.32-.46-.49-.35-.42-.44-1.17-.66-1.66-.08-.17-.17-.34-.28-.5-.13-1.58-.37-2.83-.72-3.63.07-.01.14-.03.21-.04.21-.05.49-.1.62-.31.1-.16.05-.38.05-.55s.02-.35,0-.52c-.07-.35-.31-.65-.48-.94-.29-.49-.5-1.11-.65-1.67-.07-.25-.08-.4-.19-.63-.18-.36-.36-.68-.57-1.02-.12-.19-.21-.4-.32-.59-.17-.28-.37-.56-.51-.86-.11-.23-.17-.46-.3-.68-.08-.14-.05-.22-.09-.36-.1-.39-.53-.63-.79-.89-.23-.23-.44-.39-.75-.51-.17-.07-.33-.15-.48-.26,0,0-.02-.01-.03-.02-.1-.06-.21-.11-.31-.17.1.06.2.11.3.16.02.01.03.02.05.03.02.01.04.02.05.03.14.07.27.14.41.21.14.07.28.14.41.21.26.13.51.25.77.38h0s.04.02.06.03c1.16.57,2.57.77,3.21,2.05.32.64.47,1.18,1.02,1.69.24.22.57.38.77.65.26.37.32.92.37,1.35.1.96.34,1.84.58,2.77.25.98.53,1.84,1.06,2.72.48.8,1.03,1.59,1.63,2.31.36.43.77.85,1.17,1.25.37.37.69.79,1.09,1.12.51.42.82.92,1.23,1.4Z" style="stroke-width:0px;fill:#493933"/><path d="m86.25,72.1c-.41-.47-.72-.98-1.23-1.4-.4-.33-.72-.75-1.09-1.12-.4-.39-.81-.82-1.17-1.25-.6-.72-1.15-1.51-1.63-2.31-.53-.88-.81-1.74-1.06-2.72-.24-.93-.48-1.81-.58-2.77-.05-.44-.1-.98-.37-1.35-.2-.27-.53-.42-.77-.65-.56-.51-.7-1.05-1.02-1.69-.64-1.28-2.04-1.48-3.21-2.05-.02-.01-.04-.02-.06-.03.1-.05.2-.1.29-.17.23-.2.19-.17.02-.46-.1-.17-.22-.29-.35-.44-.2-.21-.48-.46-.61-.72-.15-.3-.2-.55-.4-.84-.46-.66-.72-1.44-1.2-2.09-.27-.37-.38-.6-.85-.6-.35,0-.69.06-.96-.14-.25-.18-.49-.39-.78-.54-.36-.18-.71-.22-1.11-.31-1.38-.32-2.92-.53-4.17-1.16-.4-.2-.85-.14-1.3-.34-.79-.36-1.4-1-2.18-1.37.99.34,1.97.67,2.97,1.02,1.06.38,2.2.98,3.33,1,.39,0,.93.1,1.22-.22.29-.32.12-.63-.29-.64-.2,0-.29-.06-.46-.11-.14-.04-.26,0-.4-.02-.45-.08-.5-.44-.56-.79-.1-.54-.85-.75-1.31-.96-.86-.37-1.66-.75-2.4-1.32-.64-.5-1.21-1.11-1.83-1.63-.6-.51-1.06-1.13-1.72-1.56-1.02-.67-1.5-1.76-2.14-2.72-.55-.83-1.15-1.71-1.27-2.74-.02-.18.03-.43-.11-.58-.1-.1-.23-.03-.33-.1-.45-.33-.28-1.63-.28-2.11,0-.45.1-.79-.28-1.08-.4-.31-.66-.63-1.13-.81-.91-.34-1.51-1.05-2.14-1.76-.28-.32-.54-.77-1-.81.03-.14.1-.26.13-.4l-1.21.35c-.09-.35-.19-.71-.29-1.06-.12-.4-.41-.79-.48-1.19-.1-.58-.15-1.19-.15-1.78,0-.51-.1-1.14.01-1.64.05-.2.13-.26.13-.51,0-.27.06-.44.11-.7.07-.4-.03-.77.4-.95.36-.15.48-.02.71-.41.42-.74.25-1.77.49-2.52.13-.42.12-.88.21-1.31.14-.67.54-1.5.86-2.11.15-.27.25-.39.5-.59.15-.12.35-.21.38-.43.05-.33-.17-.38-.41-.39-.43-.02-.72,0-1.11.2-.46.23-.83.65-1.29.85-.16.07-.52.17-.71.07-.25-.13-.26-.72-.58-.7-.22.2-.31.59-.56.78-.13.09-.39.28-.55.2.1-.24.33-.52.4-.77.03-.1.07-.47,0-.55-.13-.17-.32.02-.49-.08-.19-.12-.08-.83-.08-1.06,0-.28.12-.81-.13-1-.33-.25-.67.09-.72-.49-.02-.21.08-.35-.13-.44-.14-.06-.43.12-.56-.01-.24-.24.22-.82-.15-.99-.21-.09-.35.09-.55-.12-.12-.13-.16-.4-.2-.57-.28,0-.34.52-.67.2-.23-.23-.16-.9-.33-1.2-.25.08-.41.57-.64.7-.19-.29-.13-.53-.17-.85-.04-.3-.01-.28-.29-.21-.23.06-.28.15-.47-.06-.08-.09-.16-.55-.28-.57-.37-.07-.22,1.12-.74.54-.15-.16-.32-.82-.56-.83-.18,0-.23.41-.26.55-.26-.12-.34-.6-.65-.69-.17.23-.14.83-.52.63-.31-.17-.16-.65-.25-.91-.32-.03-.49-.19-.8-.13-.15.03-.25.11-.46.11-.14,0-.29-.01-.42,0-.34.02-.67.3-1,.3-.35,0-.64-.4-1-.44-1.57,0-2.18-.06-2.74.03-.87.13-1.9.21-2.71.57-.77.34-1.45.87-2.22,1.21-.66.29-1.32.52-1.93.91-.85.54-1.51,1.34-2.04,2.24-.06-2.79,1.46-5.84,3.94-7.75.05.05.11.1.18.14.16.1.42.13.59.16.34.06.68.09,1.02.12.62.05,1.25.12,1.87.05.57-.07,1.1-.23,1.66-.35.41-.09.9,0,1.25.26.15.11.37.29.42.47-.04.02-.09.03.22.3,0-.03-.02-.06-.04-.08.2.13.43.25.64.36.27.14.49.29.79.29.31,0,.7-.06.97.07.09.04.25.1.35.11.07,0,.09-.01.17-.03.16-.04.48-.04.64,0,.25.07.58.23.77.4.11.1.1.17.23.09.11-.07.18-.29.35-.21.13.06.19.34.33.43.2.14.24-.15.43-.21.17-.06.25.19.32.31.11.17.11.18.25.07.19-.15.27-.09.38.11.14.26.21.09.41.01.26-.1.31.07.41.26.13.25.28.13.47-.03.28-.22.27.11.35.34.12.36.2.04.47.13.02.09.01.41.12.45.13.05.24-.16.35-.21.11-.05.2-.06.27.04.11.16.09.51.13.7.2.09.37-.15.55-.19.25-.06.29.12.35.33.05.17.06.39.3.29.07-.03.11-.1.18-.13.08-.03.23-.01.32,0,.04.15.03.57.2.63.04-.12.17-.22.3-.21.09.25-.06.52.1.78.08-.04.31-.24.39-.19.07.24.04.55.17.77.51-.32.3.72.54.64.02-.14.15-.28.29-.28.05.2-.06.41.12.57.12.11.19.08.31,0,.1.31-.04.68.02,1,.11.05.22-.06.32-.1.14-.05.31-.08.45-.04.03.18-.09.5.18.5.08,0,.13-.06.21-.07.19-.04.28.06.43.16.13.09.27.15.43.13.01.02.02.04.04.06.07.12.21.47.32.55.39.28.5-.44.83-.42.14,0,.22.18.32.26.13.12.19.14.36.21.29.12.58.16.89.04.27-.1.58-.23.86-.35.41-.18.4-.62.6-1,.14-.27.34-.5.49-.75.16-.25.45-.38.62-.62-.02.33.07.75-.04,1.06-.1.29-.43.5-.61.74-.19.24-.28.49-.37.77-.08.27-.32.52-.42.79-.11.29-.13.61-.25.89-.13.3-.33.42-.53.67-.2.25-.34.49-.57.72-.21.21-.51.48-.61.74-.12.33-.13.61-.17.97-.03.31-.32.68-.08,1,.16.22.53.25.76.31.16.04.25.1.46.11.24.01.48.1.71.18.5.18.86.55,1.31.79.27.14.51.16.74.4.12.12.18.28.29.41.13.16.3.24.46.36.35.27.74.54,1.01.89.15.21.34.79,0,.94-.22.1-.28-.09-.4-.26-.16-.23-.26-.24-.47-.39-.32-.23-.46-.66-.78-.9-.26-.2-.56-.33-.88-.46-.36-.15-.66-.37-1-.54-.19-.09-.76-.38-.96-.26.3.55,1.08.73,1.51,1.13.29.26.54.58.83.85.45.42.95.8,1.36,1.25.11.12.23.25.35.35.2.17.37.42.57.57.25.19,1,.49.73.96-.09.16-.34.32-.47.48-.1.13-.22.24-.33.37-.27.34-.28.7-.36,1.11-.07.41-.24.74-.25,1.16-.01.53,0,1.06,0,1.59,0,.61.13,1.09.25,1.67.14.71.18,1.42.18,2.14,0,.42,0,.75.16,1.15.32.81.82,1.55,1.31,2.25.27.39.74.63,1.08.96.19.18.32.38.48.59.28.35.72.67,1.11.89.36.2.53.44.84.7.21.18.46.27.69.42.29.19.52.5.75.76.34.39.74.69,1.1,1.06.49.5,1,1.06,1.57,1.48.27.19.59.21.82.41.21.19.39.42.61.61.15.12.25.3.41.41.21.15.56.2.8.28.55.18,1.08.37,1.57.66.38.23.7.51.96.92.17.28.24.56.45.81.34.41.61.85.92,1.28.26.36.45.78.74,1.12.23.22.46.43.69.65.22.31.43.63.63.97,1.2,1.82,2.98,3.14,4.67,4.5.8.65,1.7,1.12,2.53,1.74.48.44,1,.81,1.56,1.13,1.08.44,2.19.59,3.34.47.14,1.64.26,2.95.41,3.81.24,1.45-.18,5.13-1.22,9.7Z" style="stroke-width:0px;fill:#5c4840"/><path d="m46.45,30.22c-.05.24-.18.45-.23.69-.05.21.03.42-.03.63-.08.28-.24.49-.46.66-2.08-4.11-3.23-8.73-4.38-10.59-1.71-2.76-8.07-3.54-14.5-6.57-1.37-.65-2.33-1.57-2.92-2.64.67-.01,1.35,0,1.99.13.58.12,1.14.32,1.7.5.55.17,1.1.12,1.64.31.25.09.57.21,1.69.96-.07,0-.12-.04-.16-.09.3.56,1.01,1.05,1.58,1.27,1.33.51,2.63,1.22,3.99,1.64.27.08.56.1.82.2.15.06.27.18.42.23.22.07.39.07.61.17.14.06.24.12.39.18.36.13.9.46,1.32.4.38-.06.28-.2.28-.57,0-.25,0-.5,0-.74v-2.18c0-.57.07-.9-.43-1.21-.4-.25-.87-.19-1.24-.46-.21-.15-.39-.17-.61-.27-.28-.13-.53-.43-.82-.59-.18-.09-.91-.54-.9-.82.01-.39,1.22.47,1.43.57.5.25,1.03.46,1.52.69.37.18.72.37,1.08.55.41.2.61.5.78.92.44,1.03.52,2.17,1,3.13.22.45.46.97.78,1.35.17.2.39.4.57.57.15.14.39.17.5.35.1.16.08.79.04.97-.04.2-.24.36-.3.56-.03.12,0,.36,0,.48,0,.56-.01,1.09.1,1.64.08.39.21,1.42.58,1.58.03-.2.14-.36.18-.55.05-.22-.03-.48-.01-.7.01-.23.06-.24.12-.45.05-.19,0-.37.06-.56.45,0,.36.85.51,1.15.05.1.13.14.18.25.04.08.02.2.06.29.07.15.25.3.33.46.12.25.14.42.2.69.05.26.25.49.33.75.1.35.12.72.15,1.08.09.94.22,2.06.04,2.99Z" style="stroke-width:0px;fill:#382d29"/><path d="m40.21,11.87c-.04-.2-.26-.31-.39-.46-.33-.38-.59-.87-.62-1.38-.02-.34-.01-.44-.14-.73-.1-.23-.18-.56-.25-.83-.09-.35-.13-.68-.21-1.03-.07-.34-.24-.65-.26-1-.01-.21-.09-.68,0-.86.12-.27.38-.08.44.15.07.26-.05.6-.01.86.02.14.08.21.11.31.04.14,0,.27.02.4.04.19.18.42.26.6.13.27.25.53.36.83.1.28.21.59.35.86.09.17.25.31.31.5.17.54.29,1.06.01,1.77Z" style="stroke-width:0px;fill:#382d29"/><path d="m44.2,18.42c-.04-.3-.25-.38-.4-.6-.14-.2-.17-.52-.18-.75-.01-.54,0-1.09,0-1.64,0-.43.13-1.14-.03-1.53-.1-.26-.41-.46-.51-.74-.09-.25-.21-.53-.18-.81-.07.44.54.78.75,1.09.01.02.21.29.22.32.05.15-.01.26.02.4.03.13.13.14.16.27.03.11,0,.32,0,.43,0,.57,0,1.14,0,1.71,0,.24-.05.54.01.77.06.25.25.49.3.77.04,0,.08.02-.17.31Z" style="stroke-width:0px;fill:#382d29"/><path d="m46.62,23.69c0-.5-.19-.84-.27-1.34-.07-.43-.01-.91-.01-1.35,0-.3-.03-.6.03-.9.06-.35.23-.67.26-1.02.03-.4-.06-1.67.54-1.78.07.25.07.73,0,.98-.08.26-.34.46-.41.7-.16.58.09,1.29-.06,1.86-.15.56-.05,1.1.08,1.64.07.27.22.53.28.78.03.11.01.32,0,.44-.04.29-.15.28-.43,0Z" style="stroke-width:0px;fill:#382d29"/><path d="m40.3,10.31c0-.16-.01-.25-.07-.4-.1-.25-.11-.52-.19-.77-.06-.17-.19-.31-.29-.46-.11-.16-.24-.33-.33-.5-.12-.23-.19-.5-.28-.75-.02-.06-.03-.13-.06-.19-.02-.05-.1-.11-.11-.16-.02-.05,0-.1-.02-.16-.03-.1-.1-.19-.13-.29-.03-.14-.06-.47,0-.6.05,0,.21.59.25.69.1.25.24.42.39.64.21.3.29.66.53.96.13.15.3.28.4.46.08.14.09.36.12.53.02.13.07.23.07.36,0,.11-.03.24,0,.34.02.11.07.17.08.28,0,.09,0,.19-.36,0Z" style="stroke-width:0px;fill:#5c4840"/><path d="m43.06,18.85c-.09-.02-.11-.08-.16-.15-.09-.14-.18-.31-.27-.46-.21-.37-.27-.82-.5-1.17-.19-.28-.26-.61-.35-.94-.11-.36-.24-.71-.37-1.06-.03-.08-.09-.13-.13-.21-.05-.09-.08-.21-.13-.31-.07-.17-.13-.3-.17-.48-.1-.44-.59-.58-.91-.84-.22-.18-.41-.36-.64-.51-.41-.28-.89-.42-1.3-.71-.28-.21-.53-.39-.84-.55-.16-.09-.34-.17-.5-.23-.08-.03-.14.01-.2-.08-.04-.07-.02-.19,0-.26.09.01.26.18.34.24.16.11.32.23.46.36.15.13.29.21.46.3.22.11.46.13.67.27.21.14.45.23.68.34.11.05.21.08.32.12.17.06.25.17.39.27.32.24.76.33,1.05.6.27.26.44.54.61.87.11.2.19.42.27.63.04.1.09.21.12.31.05.18.14.29.21.46.06.16.13.31.17.48,0,.03.05.03.06.08,0,.05-.02.1,0,.15.02.07.05.14.07.21.05.17.07.34.11.5.04.14.08.28.12.43.03.11.1.21.14.32.04.11.05.2.08.32.05.19.15.44.27.6.08.11.25.21.27.34.03.21-.3.16-.41-.23Z" style="stroke-width:0px;fill:#5c4840"/><path d="m43.89,16.78c0-.88-.01-1.76,0-2.63,0-.32-.19-.59-.41-.8-.24-.23-.35-.49-.38-.81.08.2.27.44.43.58.11.1.24.16.34.27.23.27.3.63.3.98,0,.36,0,.71,0,1.07,0,.15.04.36,0,.5-.02.09-.06.11-.08.21-.01.09,0,.19-.21.64Z" style="stroke-width:0px;fill:#5c4840"/><path d="m47.75,24.04v-.84c0-.28-.05-.61.05-.87.03-.08.07-.12.11-.19.04-.08.04-.13.07-.22.05-.18.18-.41.2-.62.02-.17-.02-.34,0-.51.02-.25.08-.5.13-.75.05-.26.16-.52.16-.77,0-.14.01-.28-.01-.42-.05-.3-.21-.55-.26-.85-.08-.47-.08-.92-.09-1.4.07.05.09.11.13.19.07.15.15.28.22.43.08.18.07.37.1.56.03.19.08.38.11.57.02.14,0,.29.03.42.02.08.05.13.06.21,0,.12,0,.24,0,.36,0,.31.08.6.08.9,0,.18-.03.36-.06.54,0,.09-.02.15-.09.18-.04.07-.09.12-.12.23-.05.19-.1.38-.17.56-.12.38-.12.78-.16,1.18-.03.22-.04.45-.06.67,0,.12,0,.23,0,.35-.02.1-.03.13-.07.22-.03.06-.05.15-.09.2-.05.06-.11.07-.27-.34Z" style="stroke-width:0px;fill:#5c4840"/><path d="m53.6,8.5c-.01.41-.41.51-.63.79-.19.23-.3.63-.41.91-.03.09-.07.28-.15.32-.13.07-.56,0-.7,0-.22,0-.45-.01-.67,0-.16,0-.23.09-.37.13-.13.04-.28.01-.41.06-.08.03-.14.08-.22.09-.18.03-.33-.03-.47-.13-.15-.1-.23-.2-.43-.16-.07.02-.13.07-.21.07-.28,0-.15-.32-.18-.5-.15-.04-.32-.01-.45.04-.1.04-.2.15-.32.1-.07-.32.07-.69-.02-1-.12.08-.19.11-.31,0-.18-.16-.06-.37-.12-.57-.15,0-.27.14-.29.28-.24.08-.03-.95-.54-.64-.13-.22-.1-.53-.17-.77-.08-.04-.31.15-.39.19-.15-.26,0-.52-.1-.78-.13-.02-.25.09-.3.21-.18-.05-.16-.48-.2-.63-.09-.02-.23-.04-.32,0-.07.03-.11.1-.18.13-.23.1-.25-.12-.3-.29-.06-.21-.11-.39-.35-.33-.18.05-.35.28-.55.19-.04-.2-.03-.54-.13-.7-.07-.1-.16-.09-.27-.04-.11.05-.22.27-.35.21-.11-.05-.1-.36-.12-.45-.27-.09-.35.23-.47-.13-.08-.23-.06-.57-.35-.34-.19.15-.34.28-.47.03-.09-.18-.15-.36-.41-.26-.2.08-.27.25-.41-.01-.11-.2-.19-.26-.38-.11-.14.11-.14.1-.25-.07-.07-.12-.15-.37-.32-.31-.18.06-.22.35-.43.21-.14-.09-.2-.38-.33-.43-.17-.08-.24.15-.35.21-.12.08-.12.01-.23-.09-.19-.18-.52-.34-.77-.4-.16-.04-.47-.04-.64,0-.08.02-.11.04-.17.03-.09,0-.25-.07-.35-.11-.28-.13-.66-.08-.97-.07-.31,0-.53-.15-.79-.29-.21-.11-.44-.23-.64-.36.03.02.04.04.04.08-.31-.27-.26-.28-.22-.3-.05-.17-.27-.36-.42-.47-.35-.26-.83-.35-1.25-.26-.56.12-1.09.28-1.66.35-.62.07-1.25,0-1.87-.05-.34-.03-.68-.07-1.02-.12-.17-.03-.43-.06-.59-.16-.07-.04-.13-.09-.18-.14.65-.5,1.38-.93,2.15-1.25,0,0,9.68-1.37,14.66.76,4.29,1.84,6.68,4.66,9.62,6.08.04.41.08.82.07,1.23Z" style="stroke-width:0px;fill:#71584f"/><g><path d="m38.55,2.81c-.14.07-.3.11-.46.11l-.09.08c.03.07.08.09.14.13.09.06.17.19.29.19.12,0,.18-.13.24-.2.05-.06.25-.23.2-.32-.05-.1-.25-.02-.32.01Z" style="stroke-width:0px;fill:#5c4840"/><path d="m39.42,3.12l.08.22c.06.07.08.14.19.14.14,0,.22-.17.3-.26.29-.32-.44-.12-.58-.1Z" style="stroke-width:0px;fill:#5c4840"/><path d="m39.52,3.36v-.02s-.03-.03-.05-.04c0,.04,0,.06.05.06Z" style="stroke-width:0px;fill:#5c4840"/><path d="m40.85,3.28c-.1.02-.19.08-.28.12l-.08.17s.07.05.12.06c.06.02.13,0,.19,0,.09,0,.14,0,.23-.04.08-.05.25-.18.23-.27-.13-.01-.27-.07-.41-.05Z" style="stroke-width:0px;fill:#5c4840"/><path d="m40.48,3.6l.02-.03s0,0,0,0c0,.01,0,.02-.01.03Z" style="stroke-width:0px;fill:#5c4840"/><path d="m41.79,3.76c-.06-.01-.12-.03-.18-.04l-.32.2h-.02s0,.03.01.06c.03.06.08.13.14.17.13.09.25-.02.34-.1.05-.04.09-.08.14-.12.03-.02.06-.05.09-.08,0-.03.02-.02-.02-.04-.05-.03-.11-.04-.17-.05Z" style="stroke-width:0px;fill:#5c4840"/><path d="m42.79,4.27c-.09-.05-.2-.05-.31-.06l-.21.22s-.02-.02-.03-.03c.06.09.09.19.14.29,0,.02.02.05.05.06.06.02.16-.07.21-.09.09-.04.34-.13.3-.25-.02-.05-.1-.1-.15-.13Z" style="stroke-width:0px;fill:#5c4840"/><path d="m43.69,4.75l-.46.1c0,.09.02.15.07.23.03.05.05.07.11.07.07,0,.13-.02.19-.04.08-.02.16-.04.24-.06.06-.01.22-.02.24-.08,0-.03-.05-.09-.07-.11-.08-.09-.21-.11-.33-.11Z" style="stroke-width:0px;fill:#5c4840"/><path d="m44.47,5.31s0,.01,0,.02l-.18.2s-.02-.02-.02-.03c0,.08.03.15.06.22.02.06.03.07.09.07.05,0,.12-.04.16-.05.13-.05.36-.12.27-.28-.06-.11-.25-.17-.37-.14Z" style="stroke-width:0px;fill:#5c4840"/><path d="m45.81,5.86c-.08-.06-.15-.08-.25-.08l-.25.12s-.03,0-.04,0c-.02.04.01.07.03.1.03.05.05.1.07.16.05.12.07.18.21.1.1-.05.36-.16.36-.28,0-.05-.08-.1-.12-.13Z" style="stroke-width:0px;fill:#5c4840"/><path d="m46.7,6.36l-.41.08s-.03-.02-.05-.01c-.03.02-.02.08-.02.11,0,.04-.02.11,0,.14.03.03.09.02.12.02.15,0,.4.05.51-.07.07-.08-.06-.25-.16-.26Z" style="stroke-width:0px;fill:#5c4840"/><path d="m47.5,7.06l-.21.14s-.02-.04-.04-.04c0,.02-.02.04-.03.06-.02.04-.03.09-.04.13-.03.12.15.12.24.1.13-.02.34-.08.3-.22-.02-.08-.13-.17-.23-.18Z" style="stroke-width:0px;fill:#5c4840"/><path d="m48.38,7.77l-.41.1c-.13-.02-.13.23-.11.3.07.02.23,0,.29,0,.11,0,.22-.02.33-.04.04,0,.09-.01.13-.02.15-.07-.12-.35-.23-.34Z" style="stroke-width:0px;fill:#5c4840"/><path d="m49.09,8.57l-.37-.04s-.01,0-.02,0c-.01.06-.03.09-.03.15,0,.02-.02.16,0,.18.03.03.11.03.14.02.1,0,.21-.04.3-.07.03,0,.13-.03.13-.06.01-.06-.13-.13-.16-.18Z" style="stroke-width:0px;fill:#5c4840"/><path d="m49.94,9.24h-.37s-.01,0-.02,0c-.01.03-.02.07-.03.1,0,.05-.02.14,0,.18,0,.04.04.06.09.04.09,0,.18,0,.26-.01.1-.02.3-.09.33-.19-.01-.03-.13-.06-.15-.08-.03-.02-.08-.04-.12-.04Z" style="stroke-width:0px;fill:#5c4840"/><path d="m51.09,9.98l-.28-.02s-.01.08.02.11c.04.03.11.03.15.04.04,0,.11.04.14,0,.02-.02,0-.13-.04-.13Z" style="stroke-width:0px;fill:#5c4840"/><path d="m36.74,2.68l-.21.04s.06.03.09.04c.05.03.16.14.23.13.05-.01.16-.12.12-.17-.04-.04-.19-.04-.24-.04Z" style="stroke-width:0px;fill:#5c4840"/><path d="m38.65,2.3s0-.05-.02-.07c-.03-.08-.1-.17-.17-.23-.02-.02-.04-.02-.07-.03-.03,0-.13-.03-.16-.02,0,.01,0,.02,0,.03l-.34.2c-.06-.07-.07.03-.07.06,0,.1,0,.2.03.3.04.01.1-.01.13-.02.14-.04.27-.08.41-.12.05-.01.25-.05.27-.1Z" style="stroke-width:0px;fill:#5c4840"/><path d="m39.79,2.47c.01-.06-.04-.13-.06-.19-.02-.05-.03-.11-.08-.14l-.46.1c-.08,0-.07.16-.06.2,0,.05.04.17.09.22.05.04.1.02.16.01.11-.02.21-.06.31-.11.04-.02.1-.04.11-.09Z" style="stroke-width:0px;fill:#5c4840"/><path d="m40.56,2.92c.08.01.21-.04.27-.09.09-.07.09-.2.05-.29l-.39.06c0,.08-.05.31.08.32Z" style="stroke-width:0px;fill:#5c4840"/><path d="m41.79,3.04c-.09,0-.08.03-.11.1-.03.1-.13.21-.12.31.07.01.16,0,.23,0,.1,0,.31.01.38-.06.09-.09,0-.24-.02-.34l-.37-.02Z" style="stroke-width:0px;fill:#5c4840"/><path d="m42.98,3.6l-.39.08c0-.06-.07.01-.08.03-.03.05-.03.15.03.19.12.07.33,0,.45-.05.06-.02.14-.04.12-.1-.02-.05-.1-.11-.13-.15Z" style="stroke-width:0px;fill:#5c4840"/><path d="m43.65,4.12c-.08.05-.31.29-.17.35.12.05.37.07.49,0,.06-.04.11-.16.18-.14l-.51-.12s0-.06,0-.09Z" style="stroke-width:0px;fill:#5c4840"/><path d="m44.5,4.75c-.04.06-.06.13-.04.2.1.03.23.06.33.02.09-.04.11-.07.11-.16l-.32-.18s-.05.09-.07.11Z" style="stroke-width:0px;fill:#5c4840"/><path d="m45.55,5.57c.06-.02.25-.06.3-.12.03-.03.03-.09.02-.12,0-.1-.11-.2-.23-.18l-.25.04c-.1.03-.12.13-.14.21,0,.05-.03.15.02.19.07.05.22,0,.28-.02Z" style="stroke-width:0px;fill:#5c4840"/><path d="m46.45,6.02c.09.08.28.02.38,0,.05-.01.09-.01.13-.04.04-.03.06-.06.11-.08l-.48-.14c-.11-.03-.22.19-.14.26Z" style="stroke-width:0px;fill:#5c4840"/><path d="m47.78,6.5l-.23-.04c-.06,0-.16.05-.2.07-.11.06-.14.18-.03.26.13.08.29.02.4-.05.07-.04.1-.05.11-.12,0-.03.01-.13-.05-.12Z" style="stroke-width:0px;fill:#5c4840"/><path d="m48.45,7.14s-.01.05-.03.07c-.04.06-.08.11-.13.17-.04.04-.18.15-.15.22.02.04.13.02.18.03.1.01.21.03.31,0,.07-.02.09-.06.13-.12.02-.03.06-.07.06-.1,0-.05-.08-.08-.12-.1l-.25-.16Z" style="stroke-width:0px;fill:#5c4840"/><path d="m49.59,8.13l-.25-.18s-.11-.01-.16,0c-.1.03-.22.09-.19.19.03.11.22.11.32.1.08,0,.12-.04.19-.07.03-.02.08-.02.09-.05Z" style="stroke-width:0px;fill:#5c4840"/><path d="m49.92,8.64c-.09.05-.18.09-.24.17.02.03.17.05.21.05.05,0,.12.01.17,0,.12-.02.11-.16.17-.22l-.16-.08c-.06,0-.11.05-.15.07Z" style="stroke-width:0px;fill:#5c4840"/><path d="m50.95,9.2c-.06.05-.16.06-.22.12-.07.06-.08.15.02.2.08.04.25.04.34,0,.17-.06.15-.2.1-.32h-.23Z" style="stroke-width:0px;fill:#5c4840"/><path d="m37.07,2.02s-.22.09-.17.15c.03.04.2.03.24.02.04,0,.04-.02.06-.04.06-.04.1-.05.17-.06l-.16-.1c-.06,0-.09,0-.15.03Z" style="stroke-width:0px;fill:#5c4840"/><path d="m37.92,1.56c.05.06.1.06.18.03.09-.04.18-.08.25-.14.03-.02.07-.04.06-.08l-.23-.08c-.1,0-.2.03-.3.06-.05.02-.05.02-.05.06,0,.05.04.11.08.15Z" style="stroke-width:0px;fill:#5c4840"/><path d="m39.44,1.83c.09-.03.27-.09.28-.2-.03,0-.07,0-.1,0-.04,0-.18.04-.22.02-.03-.02-.02-.03-.02-.06,0-.04-.02-.06-.02-.1v-.08c-.11,0-.23.04-.32.09-.05.03-.07.02-.07.07,0,.07.05.15.09.2.03.03.05.06.09.07.09.03.21.02.3,0Z" style="stroke-width:0px;fill:#5c4840"/><path d="m40.67,2.25c.05-.05.11-.1.16-.15-.01-.04-.21,0-.26-.02-.05-.01-.06-.03-.07-.07,0-.04,0-.08-.02-.13l-.07-.1s-.1.08-.14.14c-.07.09-.06.21,0,.31.05.08.11.18.23.15.06-.02.13-.09.17-.13Z" style="stroke-width:0px;fill:#5c4840"/><path d="m41.39,2.27s-.15.11-.16.15c0,.03.04.04.07.05.1.04.22.07.31.13.06.04.06.09.13.1.08.01.25-.07.3-.12.05-.05.05-.11.05-.18,0-.06-.01-.07-.08-.1-.07-.03-.14-.05-.2-.1l-.3-.04s-.08.07-.12.11Z" style="stroke-width:0px;fill:#5c4840"/><path d="m43.42,3.14s-.09-.14-.13-.16c-.05-.02-.15.02-.21.02-.06,0-.13,0-.17-.05-.05-.05-.05-.12-.13-.15l-.14.02c-.07-.02-.05.06-.05.1,0,.06,0,.12.02.19,0,.04.04.18.09.21.03.02.14,0,.15,0,.12,0,.24-.02.36-.05.08-.02.2-.04.2-.13Z" style="stroke-width:0px;fill:#5c4840"/><path d="m43.97,3.61c0-.05,0-.1,0-.15l-.11-.02c-.08,0-.14.07-.17.13-.03.06-.06.14-.04.21.03.1.14.1.24.1.09,0,.19-.01.27-.06.04-.02.04-.03.04-.07,0-.05,0-.09-.04-.13-.06-.05-.12.01-.19,0Z" style="stroke-width:0px;fill:#5c4840"/><path d="m44.78,4.11s-.05-.03,0-.06l-.14-.08s-.05.05-.07.08c-.04.05-.08.15-.07.21.03.11.27.1.38.09.03-.05.05-.2.03-.26-.04,0-.08.03-.13.02Z" style="stroke-width:0px;fill:#5c4840"/><path d="m45.59,4.85c.07-.01.14,0,.17-.08.01-.03,0-.05-.02-.08-.01-.01-.18-.1-.09-.1h-.3c-.07,0-.19.07-.19.14,0,.17.31.14.43.12Z" style="stroke-width:0px;fill:#5c4840"/><path d="m46.4,5.13c-.06,0-.08,0-.12.03-.09.09-.05.27.02.37.09.12.3.1.42.02.03-.02.1-.06.12-.09-.05-.04-.12-.02-.18-.03-.07-.01-.08-.05-.11-.1-.02-.03-.05-.06-.06-.09,0-.02,0-.06,0-.08l-.09-.02Z" style="stroke-width:0px;fill:#5c4840"/><path d="m47.53,5.78c0,.11-.2.21-.16.32.04.11.33.08.41.08.09,0,.26.01.31-.07.02-.04,0-.05-.04-.07-.03-.02-.06-.04-.09-.06-.03-.03-.05-.07-.08-.09-.04-.02-.12,0-.14-.01-.02-.02,0-.09,0-.12l-.21.02Z" style="stroke-width:0px;fill:#5c4840"/><path d="m48.83,6.72c-.05-.01-.1.01-.14-.02-.05-.03-.07-.11-.06-.16l-.14-.04c-.06-.02-.06.04-.07.07-.03.05-.08.12-.06.19.02.07.17.07.24.08.05,0,.3-.02.24-.12Z" style="stroke-width:0px;fill:#5c4840"/><path d="m49.59,7.52c0-.05,0-.12,0-.17l-.25-.08c-.09.02-.12.22-.12.28,0,.09.15.12.23.14.09.02.21.04.3.01.01-.04-.08-.12-.11-.13-.04-.02-.05,0-.06-.05Z" style="stroke-width:0px;fill:#5c4840"/><path d="m50.47,8.07s-.05-.02-.09-.02c-.09,0-.22.12-.26.18-.06.08.05.1.14.1.08,0,.23.02.3,0-.01-.04-.06-.07-.05-.12l-.05-.14Z" style="stroke-width:0px;fill:#5c4840"/><path d="m50.92,8.9c.06.04.19.11.25.05.03-.03.06-.11.06-.14l-.21-.06c-.12,0-.23.06-.1.15Z" style="stroke-width:0px;fill:#5c4840"/><path d="m39.99,1.51s.03.01.08.01c.09,0,.14,0,.22-.04.02-.01.13-.05.13-.08,0-.03-.11-.04-.13-.05-.11-.06-.13-.14-.13-.25l-.18-.08s-.04.05-.05.08c-.02.08-.03.16-.01.24,0,.03.04.14.07.17Z" style="stroke-width:0px;fill:#5c4840"/><path d="m41.19,1.74s.07.02.12.02c.12,0,.24-.04.35-.08.03-.01.15-.04.13-.08-.01-.02-.1-.03-.12-.03-.08-.02-.27-.06-.24-.17l-.25.12s-.01,0-.02,0c-.03.05,0,.17.04.21Z" style="stroke-width:0px;fill:#5c4840"/><path d="m42.45,2.06c0,.12-.03.28.06.38.04.05.13.04.2.04.09,0,.22-.03.23-.12,0-.02.03-.07.02-.08,0-.04-.07-.04-.1-.04-.05,0-.12,0-.16-.05-.03-.03,0-.09-.04-.11l-.21-.02Z" style="stroke-width:0px;fill:#5c4840"/><path d="m43.79,2.75s0,0,0,.01h.02s-.01,0-.02-.01Z" style="stroke-width:0px;fill:#5c4840"/><path d="m44,2.94c-.07,0-.15-.02-.18-.09-.01-.03-.02-.07-.03-.1l-.21-.04c0,.11.02.29.13.36.08.05.21.05.3.04.1-.01.1-.05.16-.1.02-.02.05-.03.03-.05-.03-.04-.15-.02-.19-.02Z" style="stroke-width:0px;fill:#5c4840"/><path d="m45.01,3.52c-.06,0-.14,0-.2-.02-.1-.02-.16-.11-.15-.2h-.16s-.02.04-.02.07c0,.06.03.18.07.23.04.04.12.02.17.02.07,0,.15-.02.22-.03.04,0,.12-.01.14-.05-.02-.03-.04-.02-.07-.02Z" style="stroke-width:0px;fill:#5c4840"/><path d="m45.36,4.23c.07.03.21-.02.27-.04.04-.01.14-.05.11-.1-.01-.03-.04-.02-.07-.02-.12-.02-.14-.08-.14-.17l-.16.04c-.08-.02-.05.14-.05.18,0,.05-.02.1.03.12Z" style="stroke-width:0px;fill:#5c4840"/><path d="m46.7,4.65c-.14-.02-.31-.06-.3-.22,0,0,.01,0,.02,0l-.23.02c-.02.08-.07.23.05.27.06.02.47.04.46-.07Z" style="stroke-width:0px;fill:#5c4840"/><path d="m47.44,5.45c.08,0,.23,0,.25-.09.02-.12-.06-.12-.18-.14-.08-.01-.16-.03-.17-.1,0-.06-.03-.11-.02-.17,0,0,0,0,0,.01l-.14.06s-.01,0-.02,0c-.01.03,0,.09,0,.12,0,.04.01.09.02.13,0,.04,0,.09.02.12.04.07.17.04.25.04Z" style="stroke-width:0px;fill:#5c4840"/><path d="m48.4,6.02s.14,0,.18,0c.07,0,.3,0,.3-.1-.09-.02-.18.02-.27-.02-.07-.03-.09-.11-.09-.18l-.16-.12s-.01,0-.02,0c-.01.04,0,.1,0,.15,0,.06,0,.23.07.27Z" style="stroke-width:0px;fill:#5c4840"/><path d="m48.51,5.67s0,.03,0,.05h0s0-.03,0-.05Z" style="stroke-width:0px;fill:#5c4840"/><path d="m49.39,6.5l-.16-.04c0,.1,0,.2,0,.31,0,.09.03.08.12.07.07-.01.17-.02.24-.05.03-.01.08-.03.07-.07,0-.04-.06-.01-.09-.02-.06,0-.14-.03-.17-.08-.03-.04-.02-.08-.02-.12Z" style="stroke-width:0px;fill:#5c4840"/><path d="m50.1,7.65c.1.08.33-.01.42-.06-.01-.03-.15-.02-.18-.04-.08-.04-.07-.12-.07-.19l-.18-.02s0,.08,0,.13c0,.05-.03.15.02.19Z" style="stroke-width:0px;fill:#5c4840"/><path d="m51.2,8.16c-.02-.07.03-.14.02-.21l-.21.06s-.01,0-.02,0c-.03.07-.05.2-.03.27.05.01.12,0,.17,0,.04,0,.08-.02.12-.03.03,0,.06,0,.09-.02-.06-.02-.13,0-.16-.07Z" style="stroke-width:0px;fill:#5c4840"/><path d="m39.26.83s-.1-.02-.13-.05l-.25-.06c0,.09,0,.18.13.2.09.02.2-.04.26-.09Z" style="stroke-width:0px;fill:#5c4840"/><path d="m40.79,1.03c.11.04.32-.12.36-.2-.08-.03-.15.01-.23-.03-.06-.03-.07-.06-.07-.11l-.16.02s-.01,0-.02,0c-.02.04,0,.09,0,.13.02.05.05.17.11.19Z" style="stroke-width:0px;fill:#5c4840"/><path d="m42.39,1.64s.09-.03.13-.05c.05-.02.11-.03.15-.06,0-.07-.14-.03-.18-.04-.09-.01-.14-.06-.15-.14l-.14-.08c-.07,0,.03.27.04.29.03.06.07.1.15.08Z" style="stroke-width:0px;fill:#5c4840"/><path d="m43.36,2.09s.01.08.04.11c.05.05.1,0,.15-.02.02-.01.2-.1.2-.13-.06-.01-.23-.03-.18-.12,0,0,.01,0,.02,0l-.23-.02c-.07-.02-.04.07-.03.09.01.03.03.06.04.09Z" style="stroke-width:0px;fill:#5c4840"/><path d="m44.7,2.83s.19-.07.14-.14c-.04-.05-.21-.02-.18-.12l-.23-.02c0,.09-.01.19.03.27.06.11.14.06.24.01Z" style="stroke-width:0px;fill:#5c4840"/><path d="m45.42,3.35c.02.05.03.08.1.09.08.01.16-.02.23-.04.1-.04.27-.12.08-.15-.08-.01-.25,0-.25-.08h-.21c0,.08.03.13.05.18Z" style="stroke-width:0px;fill:#5c4840"/><path d="m45.58,3.14s0,.02,0,.02h.07s-.04-.03-.07-.02Z" style="stroke-width:0px;fill:#5c4840"/><path d="m46.29,3.98s.05.02.09,0c.08-.04.19-.09.21-.18.02-.09-.09-.12-.16-.16l-.21.02c-.06,0-.01.16,0,.19.01.04.03.1.07.13Z" style="stroke-width:0px;fill:#5c4840"/><path d="m47.37,4.4c-.07-.04-.11,0-.18-.03-.04-.02-.04-.04-.05-.08-.02-.03-.06-.06-.06-.1,0,0,.01,0,.02,0h-.14s-.01,0-.02,0c-.04.09,0,.24.05.31.1.01.23.01.32,0,.08-.01.15-.05.07-.11Z" style="stroke-width:0px;fill:#5c4840"/><path d="m48.24,4.93s.08-.06.08-.08c0-.04-.12-.04-.15-.04-.06,0-.11.02-.15-.03-.02-.03-.04-.1-.04-.13h-.16c0,.09,0,.17.04.25.07.15.28.12.39.03Z" style="stroke-width:0px;fill:#5c4840"/><path d="m49.38,5.63s.12-.03.12-.06c0-.04-.1-.07-.13-.08-.06-.02-.09-.01-.09-.06,0-.03.01-.06-.02-.09l-.18.02s-.01,0-.02,0c-.03.07,0,.17.04.24.07.12.17.07.3.03Z" style="stroke-width:0px;fill:#5c4840"/><path d="m49.93,6.3c.09,0,.22-.02.29-.05.04-.01.13-.05.12-.1,0-.04-.06-.03-.09-.03-.04,0-.11.01-.14,0-.04-.02-.02-.1-.02-.13l-.3.02c0,.07-.03.18.02.25.03.03.07.05.11.05Z" style="stroke-width:0px;fill:#5c4840"/><path d="m50.91,7.02c.05-.01.14-.04.13-.1,0-.04,0-.03-.05-.04-.05,0-.12.02-.16-.02-.03-.03-.03-.1-.02-.14l-.23-.04c0,.08,0,.16.02.24.01.05.01.1.07.12.07.02.18,0,.24-.02Z" style="stroke-width:0px;fill:#5c4840"/><path d="m50.81,6.7s0,0,0,.01h.02s-.01,0-.02-.01Z" style="stroke-width:0px;fill:#5c4840"/><path d="m51.89,7.5s-.1-.02-.12-.03c-.03-.03-.01-.11-.01-.15l-.25.08c-.08-.02-.06.15-.01.18.07.04.42.02.4-.08Z" style="stroke-width:0px;fill:#5c4840"/><path d="m51.98,8.67l-.16-.12c-.06,0-.09.06-.12.11-.02.03-.02.05-.02.08,0,.06,0,.07.07.08.05,0,.25.05.26-.01,0-.02-.02-.04-.02-.06,0-.02,0-.05,0-.07Z" style="stroke-width:0px;fill:#5c4840"/><path d="m52.35,8.11s-.02.08-.02.12c0,.06,0,.08.08.08.05,0,.11,0,.15-.03.04-.02.04-.03.04-.07l-.25-.1Z" style="stroke-width:0px;fill:#5c4840"/><path d="m51.71,9.48s-.03.09-.02.12c.05.01.19.02.24,0,.05-.02.03-.06.03-.11h-.25Z" style="stroke-width:0px;fill:#5c4840"/></g><path d="m87.06,58.59c-1.14.12-2.26-.03-3.34-.47-.56-.32-1.08-.7-1.56-1.13-.82-.61-1.72-1.09-2.53-1.74-1.69-1.36-3.47-2.68-4.67-4.5-.19-.33-.4-.65-.63-.97-.23-.22-.46-.44-.69-.65-.29-.34-.48-.76-.74-1.12-.31-.43-.59-.87-.92-1.28-.21-.25-.28-.54-.45-.81-.25-.4-.57-.69-.96-.92-.48-.28-1.02-.48-1.57-.66-.24-.08-.58-.13-.8-.28-.16-.11-.26-.29-.41-.41-.23-.19-.4-.43-.61-.61-.23-.2-.55-.22-.82-.41-.57-.41-1.08-.98-1.57-1.48-.36-.36-.76-.67-1.1-1.06-.23-.26-.45-.57-.75-.76-.23-.15-.48-.23-.69-.42-.3-.26-.48-.5-.84-.7-.39-.22-.83-.54-1.11-.89-.16-.21-.29-.42-.48-.59-.35-.33-.81-.57-1.08-.96-.49-.71-.99-1.45-1.31-2.25-.16-.4-.16-.73-.16-1.15,0-.72-.04-1.43-.18-2.14-.12-.59-.25-1.07-.25-1.67,0-.53-.01-1.06,0-1.59,0-.41.17-.75.25-1.16.07-.41.09-.77.36-1.11.1-.13.23-.24.33-.37.12-.16.37-.32.47-.48.28-.47-.48-.77-.73-.96-.2-.15-.37-.4-.57-.57-.12-.11-.24-.23-.35-.35-.41-.45-.91-.83-1.36-1.25-.29-.27-.54-.59-.83-.85-.44-.39-1.21-.58-1.51-1.13.2-.12.77.17.96.26.34.17.64.4,1,.54.32.13.62.26.88.46.32.24.45.66.78.9.2.15.31.15.47.39.12.17.18.35.4.26.35-.15.15-.73,0-.94-.26-.35-.66-.62-1.01-.89-.16-.12-.33-.2-.46-.36-.11-.13-.17-.28-.29-.41-.23-.24-.48-.25-.74-.4-.45-.24-.81-.61-1.31-.79-.23-.08-.47-.17-.71-.18-.2,0-.3-.07-.46-.11-.23-.06-.59-.09-.76-.31-.24-.32.05-.69.08-1,.04-.36.04-.64.17-.97.1-.27.41-.54.61-.74.23-.23.37-.47.57-.72.2-.25.41-.37.53-.67.12-.28.14-.6.25-.89.1-.27.34-.52.42-.79.08-.28.18-.53.37-.77.18-.24.51-.45.61-.74.11-.31.02-.73.04-1.06-.17.24-.46.38-.62.62-.16.25-.35.48-.49.75-.2.38-.19.82-.6,1-.28.12-.58.25-.86.35-.31.12-.6.09-.89-.04-.16-.07-.22-.1-.36-.21-.1-.09-.18-.26-.32-.26-.32-.02-.43.7-.83.42-.11-.08-.25-.43-.32-.55-.01-.02-.03-.04-.04-.06.01,0,.03,0,.04,0,.08-.01.15-.07.22-.09.14-.05.28-.02.41-.06.14-.04.21-.13.37-.13.22-.01.45,0,.67,0,.14,0,.57.07.7,0,.08-.04.11-.23.15-.32.11-.28.22-.67.41-.91.22-.27.61-.38.63-.79.01-.41-.02-.82-.07-1.23.48.23.97.42,1.48.57,3.7,1.04,15.8,8.3,23.63,18.12,6.52,8.18,7.71,24.45,8.42,32.63Z" style="stroke-width:0px;fill:#71584f"/><path d="m69.32,42.76c-.05.2.25.35.39.43.17.09.3.06.49.06.42.02.66.3.97.56.19.16.38.34.6.47.19.11.4.17.59.28.37.21.76.34,1.12.57.71.47,1.47.86,2.24,1.24.26.13.53.23.79.37.17.09.32.2.49.29.28.14.56.3.84.43.19.08.38.24.59.29.14.03.28.12.43.14.4.07.87,0,1.27,0,.35,0,.68.03,1.01-.09.17-.06.34-.1.51-.14.15-.03.35-.03.48-.12.11-.08.32-.29.35-.42-.17-.02-.2-.13-.37-.04-.07.04-.08.07-.15.09-.1.03-.25.04-.36.06-.2.04-.43.08-.64.08-.22,0-.39.07-.61.07-.29,0-.55-.07-.84-.07-.33,0-.66-.05-.99-.12-.38-.08-.72-.23-1.09-.36-.29-.1-.59-.17-.85-.34-.3-.19-.52-.45-.78-.66-.35-.28-.81-.5-1.25-.62-.16-.05-.26-.11-.41-.18-.16-.07-.33-.1-.49-.17-.37-.16-.72-.38-1.04-.61-.23-.16-.49-.26-.69-.43-.18-.15-.37-.26-.53-.43-.15-.15-.25-.26-.41-.37-.16-.12-.34-.19-.52-.27-.18-.08-.32-.06-.53-.07-.15,0-.32-.18-.6.07Z" style="stroke-width:0px;fill:#5c4840"/><path d="m73.3,46.32c.03.11.2.17.29.22.25.16.5.32.72.51.33.28.85.47,1.26.62.27.1.5.2.75.36.28.17.6.24.9.38.37.16.75.34,1.15.44.22.06.42.22.63.25.25.03.53,0,.77,0h1.65c.23,0,.55-.05.77.01-.03.28-.59.2-.77.2-.45,0-.91-.04-1.36,0-.23.02-.44.08-.69.07-.27,0-.55,0-.82,0-.16,0-.39.05-.54-.01-.05-.02-.1-.1-.15-.13-.13-.09-.29-.17-.43-.24-.63-.28-1.32-.43-1.94-.71-.29-.13-.55-.32-.83-.46-.25-.12-.48-.29-.7-.46-.14-.11-.29-.21-.44-.3-.12-.07-.19-.16-.3-.25-.12-.09-.18-.12-.25-.25-.06-.1-.2-.2.34-.26Z" style="stroke-width:0px;fill:#5c4840"/><path d="m62.49,39.7s-.04,0-.06-.01c-.06-.42-.16-.85-.21-1.28-.02-.17,0-.34-.03-.51-.02-.11-.08-.2-.12-.29-.1-.22-.17-.46-.25-.69-.15-.39-.36-.76-.53-1.14-.21-.47-.39-.94-.59-1.41-.43-1.03-.89-2.05-1-3.17-.14-1.4-.15-2.81-.2-4.22,0,.09.05.15.06.23.03.13.07.27.08.41.01.12,0,.24,0,.36,0,.14.06.25.08.39.02.17-.04.35,0,.51.01.08.07.14.08.21.02.14.02.28.05.43.03.17.01.35.05.53.03.16.09.32.11.49.02.24.02.52.09.75.04.14.16.29.2.44.05.21.07.43.14.65.05.16.1.33.16.49.03.08.08.16.12.23.09.15.11.24.16.4.05.15.18.35.25.5.11.23.26.44.38.67.16.3.27.65.41.97.12.28.3.53.43.8.24.52.28,1.13.44,1.69.17.57.23,1.18.37,1.76.04.18.27.79.06.89-.14.07-.42,0-.51-.12-.07-.09-.24-.42-.21-.96Z" style="stroke-width:0px;fill:#5c4840"/><path d="m62.7,32.8s-.05,0-.07,0c-.04.21.3.61.39.79.12.23.22.49.39.69.09.1.17.15.28.22.18.11.29.24.42.4.54.67,1.18,1.26,1.74,1.92.28.34.52.67.86.96.14.1.25.22.35.36.03.06.06.11.11.15.08.06.18.06.28.09.25.1.48.3.71.44.21.14.39.3.59.45.15.12.25.26.37.41.24.31.55.57.87.8.4.3.82.63,1.26.87.1.06.21.11.33.12-.16-.18-.32-.42-.53-.55-.15-.09-.36-.08-.5-.18-.1-.08-.12-.2-.21-.29-.05-.05-.11-.07-.16-.12-.1-.09-.17-.22-.25-.32-.1-.12-.16-.26-.24-.39-.11-.16-.26-.29-.39-.43-.08-.09-.13-.15-.22-.21-.12-.09-.18-.18-.27-.29-.1-.13-.22-.2-.37-.24-.25-.08-.47-.17-.7-.32-.32-.21-.58-.39-.86-.67-.24-.24-.5-.46-.74-.68-.09-.08-.19-.19-.26-.28-.15-.19-.29-.39-.43-.6-.13-.19-.37-.24-.54-.4-.17-.16-.31-.38-.46-.57-.12-.15-.26-.29-.39-.43-.15-.16-.33-.27-.48-.42-.09-.09-.17-.23-.26-.33-.05-.05-.12-.11-.17-.17-.12-.15-.25-.86-.44-.79Z" style="stroke-width:0px;fill:#5c4840"/><path d="m35.17,84.48s.27,1.46-.05,1.54c-.11.26-.17.54-.2.84-1.75-.14-3.58.47-5.09,1.4-.05-.07-.11-.15-.17-.26-.36-.64-.47-1.38-.56-2.1.46-.47.98-.91,1.56-1.29,1.43-.93,2.84-1.45,4.19-1.56,0,.02.01.03.02.05.14.45.24.91.29,1.39Z" style="stroke-width:0px;fill:#493933"/><path d="m41.92,87.16c-.09.36-.16.8-.32,1.15-.49.07-.8.03-1.32.23-.44.17-.9.36-1.18.75-.34-.47-.7-.86-1.09-1.18.13-.03.2,0,.44-.19.31-.24.54-.59.77-.9.25-.33.89-.81.86-1.28-.02-.37-.18-.77-.35-1.16.8.64,1.54,1.46,2.21,2.48,0,.03-.01.07-.02.1Z" style="stroke-width:0px;fill:#493933"/><path d="m48.37,94.53c-.33.25-.69.5-1.04.64-.06.08-.13.11-.2.1-.06,0-.09-.02-.09-.09-.46,0-.91-.04-1.38.04-.64.12-1.22.38-1.81.65-.07.03-.15.07-.22.11-.67-.62-1.27-1.28-1.8-1.99.12-.23.21-.47.35-.68.43-.65,1.33-.97,2.04-1.18l-.13-1.34c1.07,1.44,2.56,2.7,4.28,3.74Z" style="stroke-width:0px;fill:#493933"/><path d="m51.62,96.11c1.09.42,2.22.76,3.36,1.02-.01.03-.02.05-.04.08-.18.27-.35.15-.36.53-.01.54.27,1.11.15,1.65-.96.29-1.7.71-2.42,1.33-.68-.2-1.33-.42-1.97-.67.03-.02.06-.03.09-.05.51-.29.46-.43.45-1.02-.01-.55-.12-1.27.18-1.77.12-.2.27-.24.41-.4.16-.19.19-.44.15-.7Z" style="stroke-width:0px;fill:#493933"/><path d="m63.45,97.54c.06.26.15.33.04.58-.03.06-.13.15-.16.21-.2.33-.23.8-.34,1.15-.18.59-.46,1.05-.87,1.5-.3.34-.54.71-.73,1.12-1.13-.03-2.23-.11-3.29-.23,0-.06-.02-.12-.04-.18-.05-.21-.22-.49-.19-.72.02-.13.21-.3.25-.45.2-.77-.18-1.38-.53-2.03-.17-.32-.33-.65-.48-.98,1.93.25,3.85.23,5.59-.09.23-.04.47-.09.7-.14.01.09.03.18.05.27Z" style="stroke-width:0px;fill:#493933"/><path d="m72.65,99.14c.07.15.13.28.18.4-1.38,1.09-2.84,1.85-4.39,2.19-.01-.15-.03-.28-.04-.39-.06-.34-.18-.32-.4-.54-.26-.26-.36-.73-.46-1.07-.21-.69-.29-1.08-.79-1.61-.41-.43-.99-.88-1.33-1.41,1.64-.56,3.19-1.35,4.59-2.37-.03.1-.05.19-.06.3-.02.48.49.85.77,1.21.82,1.03,1.41,2.1,1.93,3.29Z" style="stroke-width:0px;fill:#493933"/><path d="m76.5,94.22c.04.39.12.97-.01,1.33-.37.06-.49.01-.78-.26-.35-.34-.58-.73-.79-1.17-.23-.48-.45-.97-.65-1.47-.1-.19-.19-.37-.29-.56-.15-.14-.3-.09-.52-.09-.31,0-.59.02-.86-.03.51-.58.98-1.2,1.42-1.86.14.05.3.02.53.07.3.06.83.3.97.56.08.15.08.39.12.56.14.51.34,1,.51,1.5.15.45.3.95.35,1.42Z" style="stroke-width:0px;fill:#493933"/><path d="m81.86,85.95c-.56,1.32-1.15,2.62-1.78,3.87-.36-.14-.73-.26-1.08-.38-.44-.14-1.21-.17-1.59-.44-.2-.15-.45-.55-.6-.76-.29-.4-.46-1.13-.85-1.42-.06-.04-.13-.09-.21-.13.31-.83.56-1.71.76-2.64.23.04.47.05.7.12.49.13.77.43,1.02.84.31.49.63.52,1.22.42.89-.15,1.7.06,2.41.52Z" style="stroke-width:0px;fill:#493933"/><path d="m84.24,79.45c-.31.95-.63,1.91-.97,2.87-.81-.7-1.35-1.7-2.16-2.4-.29-.25-.55-.53-.82-.79-.21-.2-.54-.56-.79-.7-.38-.21-.42.14-.76.29-.42.18-1.07.09-1.57.07.18-1.98.3-3.9.35-5.68.24.1.51.12.83.12.53,0,1.15.17,1.44.65.24.4.4,1.12.82,1.4.24.16.47.02.74.08.21.04.37.19.56.29.39.2.75.32,1.08.63.4.38.59.64.72,1.16.08.31.09.61.21.92.11.27.07.57.17.82.04.09.1.19.16.28Z" style="stroke-width:0px;fill:#493933"/><path d="m74.36,54.6c-.08.07-.18.12-.28.17h0c-.26-.13-.51-.25-.77-.38-.14-.07-.28-.14-.41-.21-.14-.07-.27-.14-.41-.21-.03-.01-.06-.03-.1-.05-.1-.06-.21-.11-.31-.17-.4-.23-.8-.47-1.18-.74-1.2-.85-2.25-1.77-3.3-2.79,0,0,0,0-.01-.01-.22-.22-.47-.45-.71-.66-.19-.16-.38-.22-.6-.33-.32-.16-.6-.41-.93-.55-.71-.3-1.47-.5-2.21-.75-.09-.03-.18-.06-.26-.09-.61-.22-1.16-.58-1.73-.88-.42-.22-.75-.49-1.1-.82-.34-.32-.74-.55-1.08-.85-.34-.3-.5-.71-.88-.96-.31-.2-.5-.31-.77-.57-.33-.32-.72-.56-1.04-.89-.34-.34-.62-.72-.93-1.08-.29-.34-.61-.66-.89-1.02-.26-.33-.42-.7-.65-1.05-.57-.87-1.1-1.77-1.63-2.66-.23-.4-.57-.68-.56-1.13,0-.75.27-1.52.12-2.27-.1-.47-.36-.92-.62-1.3-.11-.16-.24-.32-.37-.48-.4-.46-.86-.93-1.04-1.49-.13-.43-.11-.96-.18-1.41-.06-.36-.1-.71-.17-1.06-.02-.11-.05-.22-.08-.33l1.21-.35c-.03.15-.1.26-.13.4.46.03.72.49,1,.81.63.7,1.23,1.42,2.14,1.76.47.17.73.5,1.13.81.38.29.28.63.28,1.08,0,.48-.17,1.78.28,2.11.1.07.23,0,.33.1.14.15.09.39.11.58.11,1.03.71,1.91,1.27,2.74.64.96,1.11,2.05,2.14,2.72.66.43,1.13,1.05,1.72,1.56.62.53,1.19,1.14,1.83,1.63.74.57,1.54.95,2.4,1.32.47.2,1.21.41,1.31.96.07.35.11.71.56.79.14.03.26-.02.4.02.16.04.25.1.46.11.41.01.59.32.29.64-.29.32-.83.22-1.22.22-1.13-.01-2.28-.62-3.33-1-.93-.33-1.84-.64-2.77-.96-.06-.02-.13-.04-.19-.07.12.06.23.12.34.19.62.37,1.16.88,1.84,1.19.44.2.9.14,1.3.34,1.25.64,2.79.84,4.17,1.16.41.09.76.13,1.11.31.29.14.53.35.78.54.28.2.61.15.96.14.48,0,.58.22.85.6.48.66.73,1.44,1.2,2.09.2.29.25.54.4.84.13.26.41.51.61.72.14.14.25.26.35.44.17.29.21.26-.02.46Z" style="stroke-width:0px;fill:#493933"/><path d="m51.53,31.37l.12.08s-.06-.07-.12-.08Z" style="stroke-width:0px;fill:#382d29"/><path d="m77.52,63.45c-.13.2-.41.26-.62.31-.07.01-.14.03-.21.04-.1-.23-.21-.42-.32-.57-1.49-1.92-4.91-10.03-9.61-12.17-4.7-2.14-12.6-9.37-17.29-13.64-.71-.64-1.35-1.39-1.93-2.2.05-.21.08-.42.15-.62.18-.48.52-.84.84-1.23.31-.38.59-.88.98-1.18.32-.26.8-.37,1.21-.31.13.16.26.32.37.48.26.39.53.83.62,1.3.15.75-.11,1.52-.12,2.27,0,.45.33.74.56,1.13.53.89,1.07,1.79,1.63,2.66.23.35.39.71.65,1.05.28.36.6.68.89,1.02.31.36.59.74.93,1.08.33.33.72.57,1.04.89.27.27.46.37.77.57.38.25.54.66.88.96.35.31.75.53,1.08.85.35.33.68.59,1.1.82.57.31,1.12.67,1.73.88.09.03.17.06.26.09.16.12.32.23.5.32.22.12.44.21.66.34.21.13.47.18.69.28.14.07.31.09.45.17.13.07.23.19.37.25.18.09.35.18.53.27.15.08.3.09.45.16.27.14.54.31.81.47,0,0,0,0,.01.01,1.05,1.02,2.1,1.94,3.3,2.79.38.27.77.51,1.18.74.1.06.2.12.31.17,0,0,.02.01.03.02.15.11.31.19.48.26.31.13.51.28.75.51.26.26.69.51.79.89.04.15.01.22.09.36.13.22.19.45.3.68.14.3.34.58.51.86.11.19.2.4.32.59.21.34.4.66.57,1.02.11.23.12.38.19.63.15.55.36,1.17.65,1.67.18.3.42.59.48.94.03.17,0,.35,0,.52s.04.39-.05.55Z" style="stroke-width:0px;fill:#382d29"/><path d="m51.09,32.35c-.11-.16-.24-.32-.37-.48.03,0,.05,0,.07.01.32.06.25-.02.45-.23.15-.16.26-.08.43-.15,0-.02,0-.04-.02-.05l.66.42s-.03,0-.04,0c.08.37.25.76.42,1.09.19.36.43.69.68,1.02.12.15.28.29.38.45.09.15.16.33.21.5.13.46.29.93.48,1.38.22.54.56.85,1,1.2.2.16.32.39.47.6.2.28.4.56.61.84.22.3.48.58.69.9.08.16.16.32.24.49.07.1.13.19.2.29.07.13.07.29.13.43.06.13.18.26.13.4-.15-.09-.3-.25-.42-.37-.37-.37-.71-.77-1.1-1.13-.45-.41-.92-.78-1.41-1.15-.4-.31-.69-.66-1.04-1.02,0,.14.14.27.22.37.17.21.35.41.54.6.35.37.75.74,1.06,1.14.17.22.3.47.47.7.24.31.47.61.68.94.04.06.07.13.1.2,0,.01.06.14.07.14.03.03.11.05.15.06.07.04.14.1.2.16.09.09.13.2.23.29.1.1.23.16.33.27.1.1.18.23.27.33.11.13.18.33.31.44.06-.07.2-.06.28-.03.1.03.19.12.28.16.09.04.16.06.24.11.12.07.23.18.38.21.12.03.23.04.36.08.53.17,1.02.47,1.52.7.22.1.43.24.65.34.12.06.37.15.35.3-.27-.15-.61-.32-.92-.41-.23-.06-.43-.11-.65-.23-.14-.08-.21-.1-.34-.14-.25-.07-.5-.24-.78-.3-.17-.04-.35-.07-.51-.13-.19-.08-.34-.23-.54-.29.06.05.02.08.06.16.1.22.26.4.42.57.13.13.26.29.41.39.1.06.2.09.3.16.18.14.31.35.5.49.03.02.06.04.08.06.05.04.1.08.15.12.15.12.28.26.41.41.12.13.24.28.37.41.07.07.09.14.14.22.07.09.18.15.27.23.08.07.15.16.23.23.17.16.39.26.57.41.11.09.23.18.34.27-.09-.03-.18-.06-.26-.09-.61-.22-1.16-.58-1.73-.88-.42-.22-.75-.49-1.1-.82-.34-.32-.74-.55-1.08-.85-.34-.3-.5-.71-.88-.96-.31-.2-.5-.31-.77-.57-.33-.32-.72-.56-1.04-.89-.34-.34-.62-.72-.93-1.08-.29-.34-.61-.66-.89-1.02-.26-.33-.42-.7-.65-1.05-.57-.87-1.1-1.77-1.63-2.66-.23-.4-.57-.68-.56-1.13,0-.75.27-1.52.12-2.27-.1-.47-.36-.92-.62-1.3Z" style="stroke-width:0px;fill:#382d29"/><path d="m67.59,50.23s0,0-.01-.01c.05.03.09.06.14.08.14.08.22.21.35.31.15.11.32.18.47.28.19.13.34.23.56.32.28.13.51.31.77.48.37.25.7.57,1.03.87.25.23.45.5.7.73.24.22.51.43.78.63,0,0,0,0,0,0-.1-.06-.21-.11-.31-.17-.4-.23-.8-.47-1.18-.74-1.2-.85-2.25-1.77-3.3-2.79Z" style="stroke-width:0px;fill:#382d29"/><path d="m52.96,33.66c-.13,0-.28.03-.41.03-.29,0-.37.18-.64.22-.07,0-.15,0-.22-.01-.06,0-.1.04-.12.09-.12.02-.29.06-.41.03-.15-.04-.15-.1-.34-.11-.21-.02-.32-.03-.51-.13-.35-.19-.7-.23-1.07-.32-.33-.08-.54-.19-.89-.19-.33,0-.61.05-.93.14-.16.04-.37.05-.5.16.21.08.51.01.73.02.48.01,1.01.08,1.47.22.4.12.87.18,1.19.45.19.16.28.41.2.66-.09.27-.39.36-.6.51-.15.1-.27.25-.41.35-.19.14-.41.22-.58.37-.33.28-.72.44-1.06.71-.47.38-.83.92-1.25,1.35-.14.14-.34.26-.46.41-.16.2-.23.49-.32.72-.14.42-.25.88-.46,1.26-.12.22-.25.32-.45.5-.26.22-.5.46-.74.7-.06.06-.12.14-.18.19-.03.02-.09,0-.12.03-.04.04-.08.11-.13.14-.18.1-.42.06-.63.06h-1.7c-.79,0-1.69.13-2.43-.14-.51-.18-1.09-.19-1.62-.18-.05,0-.15,0-.28-.01,1.75-.37,4.26-1.27,4.26-1.27,0,0,2.78-5.12,3.64-6.83.86-1.71-.86-2.14-1.05-5.73-.18-3.59,2.11-4.52,2.11-4.52,5.68-1.85,7.39,6.09,6.92,10.12Z" style="stroke-width:0px;fill:#493933"/><path d="m83.34,58.69c-.03-.08-.07-.16-.12-.25-.09-.16-.35-.34-.56-.34-.42,0-.41.67-.56.91-.18.29-.25.11-.52.17-.13.03-.25.1-.4.14-.14.03-.3.13-.44.19-.18.08-.35.19-.54.22-.23.03-.5,0-.73,0-.41,0-.81.03-1.19-.08-.42-.13-.79-.22-1.18-.42-.57-.31-1.17-.6-1.75-.88-.4-.19-.84-.3-1.22-.53-.26-.16-.5-.37-.75-.54-.5-.34-.95-.71-1.38-1.14-.26-.26-.53-.51-.78-.78-.23-.23-.34-.52-.51-.8-.34-.57-.73-1.14-1.17-1.64-.21-.23-.35-.49-.53-.73-.05.14-.05.45-.03.61.06.37.16.76.25,1.12.14.56.2,1.13.18,1.71,0,.21-.08.38-.11.59-.01.13-.05.2-.08.32-.04.14,0,.27-.02.41-.11.61-.43,1.22-.7,1.78-.09.19-.19.37-.33.53-.07.08-.19.17-.24.27-.06.13-.06.31-.12.45-.13.33-.19.73-.43.99-.17.19-.24.22-.36.46-.05.11-.1.23-.16.34-.11.25-.11.24-.41.33-.17.05-.51.18-.69.08-.09-.06-.15-.21-.2-.31-.15-.28-.29-.56-.45-.83-.03-.05-.05-.09-.07-.14.04-.34.17-1.36.36-2.63.09,0,.19,0,.26-.02.28-.07.44-.51.5-.75.12-.41.17-.87.26-1.29.09-.4.31-.62.48-.98.11-.22.21-.48.24-.72.03-.33.16-.62.22-.94.04-.23.11-.43.1-.66,0-.26.07-.45.11-.69.08-.56.25-.82.79-1.03.45-.18.88-.56,1.39-.36.6.23,1.25.67,1.81,1.01.45.28.78.64,1.16,1,.35.34.76.53,1.17.78.77.47,1.56,1.07,2.49,1.11.63.03,1.24.14,1.87.21.24.03.44.12.69.11.23-.01.35-.11.59-.11.23,0,.47,0,.7,0,.18,0,.31-.01.48-.05.16-.04.3-.02.45-.05.55-.1.6-.48.61-.97,0-.3-.08-.34-.32-.53-.29-.23-.65-.35-.97-.53-.21-.12-.44-.27-.63-.42-.25-.19-.46-.3-.75-.43-.48-.21-.85-.61-1.33-.86-.28-.15-.49-.34-.79-.45-.2-.07-.4-.15-.59-.23,2.39.57,4.27,1.32,4.27,1.32,2.83.46,3.68,4.2,2.65,6.97Z" style="stroke-width:0px;fill:#493933"/><path d="m52.96,33.66c-.11.92-.34,1.64-.65,1.98-1.71,1.85-2.99,5.41-5.55,7.12-2.56,1.71-3.27,1.71-6.55,2.28-3.28.57-5.98,2.7-5.98,2.7,0,0,.43-1.42,1.71-2.28,1.28-.85,2.85-1.82,2.85-1.82,0,0-4.56-.31-6.69-.03-2.14.28,2.42-1.57,3.84-1.57.29,0,.69-.06,1.15-.16.13,0,.23.01.28.01.53,0,1.11,0,1.62.18.74.27,1.64.14,2.43.14h1.7c.22,0,.45.04.63-.06.05-.03.08-.11.13-.14.03-.03.09,0,.12-.03.07-.05.12-.13.18-.19.24-.25.48-.48.74-.7.2-.17.34-.28.45-.5.21-.39.31-.84.46-1.26.08-.23.16-.53.32-.72.12-.16.32-.27.46-.41.43-.43.78-.97,1.25-1.35.34-.27.73-.43,1.06-.71.18-.15.4-.24.58-.37.15-.1.27-.25.41-.35.21-.15.51-.24.6-.51.08-.25-.01-.5-.2-.66-.32-.28-.79-.34-1.19-.45-.46-.14-.99-.2-1.47-.22-.23,0-.52.06-.73-.02.12-.11.34-.12.5-.16.32-.09.59-.14.93-.14.35,0,.57.12.89.19.38.09.72.13,1.07.32.19.1.29.11.51.13.18.02.18.07.34.11.12.03.29,0,.41-.03.03-.05.07-.08.12-.09.07,0,.15,0,.22.01.27-.04.35-.22.64-.22.13,0,.27-.02.41-.03Z" style="stroke-width:0px;fill:#382d29"/><path d="m47.11,23.86c.1-.3-.17-.21-.29-.11-.23.18-.6.5-.74.75-.11.21-.21.63-.15.86.05.17.12.2.09.4-.02.1-.15.27-.17.38-.06.36.04.69.22,1.01.12.21.18.26.19.51.02.36-.1.69-.11,1.04-.01.43.13.77.35,1.14.26.44.4.81.91,1,.22.08.47.07.67.2.25.17.13.28.22.51.03.08.16.18.2.24.06.09.08.28.17.35.13.1.4.16.58.16.5.02.84.22,1.31.4.2.08.42.11.61.2.22.1.39.2.64.16.26-.04.61-.36.7-.59.06-.16.05-.31.05-.48,0-.26.07-.4.11-.64.06-.31,0-.7,0-1.01,0-.36-.06-.6-.21-.9-.17-.35-.41-.62-.52-1.01-.13-.46-.3-.92-.47-1.37-.2-.53-.55-.94-.93-1.37-.2-.23-.42-.41-.54-.7-.11-.26-.14-.46-.35-.66-.26-.25-.63-.39-.93-.56-.35-.2-.66-.31-1.6.11Z" style="stroke-width:0px;fill:#5c4840"/><path d="m42.84,39.34c-.03-.2.03-.28.1-.45.11-.23.17-.46.25-.71.09-.3.18-.6.32-.88.26-.53.48-1.06.75-1.57.37-.71,1.04-1.41,1.89-1.41.4,0,.65.1.97.32.19.14.66.29.51.62-.08.18-.36.34-.53.44-.37.21-.64.5-.98.74-.3.21-.65.37-.94.58-.47.34-.67.99-.98,1.44-.16.24-.52.82-1.36.88Z" style="stroke-width:0px;fill:#5c4840"/><path d="m83.34,58.69c-.63,1.71-1.96,3.05-3.98,3.05-5.31,0-7.66-4.27-7.66-4.27,0,0,1.03,5.45-.44,7.22-1.47,1.77-1.62,4.72-5.16,3.24-3.54-1.47-3.98-3.54-6.04-4.72-2.06-1.18-6.34-2.65-6.78-2.65s-.59-1.03,2.65-.59c3.19.44,6.24,2.15,6.33,2.21-.05-.09-1.38-2.53-4.27-4.12-2.95-1.62,1.03-1.18,2.95-.29,1.92.88,4.13,3.24,4.13,3.24,0,0,0-.04.02-.12.02.04.04.09.07.14.15.28.3.56.45.83.05.09.1.25.2.31.18.11.52-.03.69-.08.29-.09.29-.08.41-.33.05-.11.1-.23.16-.34.12-.24.19-.27.36-.46.24-.26.3-.67.43-.99.06-.14.06-.32.12-.45.05-.1.17-.19.24-.27.14-.16.23-.34.33-.53.27-.56.59-1.17.7-1.78.02-.14-.02-.27.02-.41.03-.12.07-.19.08-.32.02-.21.1-.38.11-.59.02-.58-.04-1.15-.18-1.71-.09-.37-.19-.76-.25-1.12-.03-.16-.02-.47.03-.61.19.24.32.5.53.73.45.49.84,1.07,1.17,1.64.17.28.28.57.51.8.25.26.52.52.78.78.43.43.88.8,1.38,1.14.25.17.49.38.75.54.38.23.82.34,1.22.53.59.28,1.18.58,1.75.88.39.21.76.3,1.18.42.38.12.78.08,1.19.08.23,0,.5.04.73,0,.19-.03.35-.14.54-.22.14-.06.31-.16.44-.19.15-.04.27-.11.4-.14.27-.06.34.12.52-.17.15-.24.14-.91.56-.91.2,0,.47.18.56.34.05.08.09.16.12.25Z" style="stroke-width:0px;fill:#382d29"/><path d="m81.81,53.86c0,.49-.06.86-.61.97-.16.03-.3,0-.45.05-.17.04-.3.06-.48.05-.23,0-.47,0-.7,0-.24,0-.36.1-.59.11-.25.01-.45-.08-.69-.11-.63-.07-1.24-.18-1.87-.21-.94-.04-1.73-.64-2.49-1.11-.41-.25-.81-.44-1.17-.78-.38-.36-.71-.73-1.16-1-.56-.34-1.2-.78-1.81-1.01-.52-.2-.94.18-1.39.36-.54.21-.71.46-.79,1.03-.03.25-.11.43-.11.69,0,.23-.07.44-.1.66-.05.33-.18.61-.22.94-.02.23-.13.5-.24.72-.17.35-.39.58-.48.98-.1.42-.15.88-.26,1.29-.07.25-.23.68-.5.75-.08.02-.17.03-.26.02.18-1.18.4-2.59.66-3.84.59-2.9,1.18-4.47,5.31-4.62,1.64-.06,3.44.23,5.02.6.19.08.39.16.59.23.3.1.51.3.79.45.48.25.85.65,1.33.86.29.13.5.23.75.43.19.15.42.31.63.42.32.18.69.3.97.53.23.19.32.23.32.53Z" style="stroke-width:0px;fill:#5c4840"/><path d="m35.92,10.09s-.07.06-.09.11c-.34,1.28-.1,2.73-1.32,3.56-1.22.82-6.67.5-7.54.18-.86-.32,2.63-.48,3.75-.64,1.12-.16,1.97-.27.81-.4-1.16-.13-3.05.03-6.87.54-3.7.5-8.03,1.52-8.31,1.59-.01,0-.01,0-.01,0-1.53.2-3,.36-4.68.02-.5-.1-.91-.3-1.21-.57-.04-.04-.08-.07-.12-.12,1.99-.42,8.48-1.87,12.09-3.45,4.3-1.88,11.87-.17,12.69-.5.41-.16.62-.93.73-1.65.04.43.07.88.09,1.32Z" style="stroke-width:0px;fill:#493933"/><path d="m35.83,8.76h0c-.1.72-.31,1.49-.73,1.65-.82.32-8.38-1.39-12.69.5-3.61,1.58-10.11,3.03-12.09,3.45-.2-.21-.35-.45-.45-.73-.08-.23-.13-.49-.14-.76.1.01,2.81.29,3.86-1.28,1.07-1.6,5.02-4.27,6.83-5.34.38-.22.72-.39,1.04-.52.02-.04.04-.09.06-.14,0,0,.45-.66,1.26-.98.81-.32,1.61.13,2.15.69.06,0,.12,0,.19,0,.12,0,.25-.02.38-.04.07,0,.13-.02.2-.03.22-.04.45-.1.68-.17.19-.06.39-.12.59-.19,0,0,0,0,.01,0,.11-.04.22-.08.34-.12.16-.06.31-.12.47-.18.12-.04.23-.09.35-.13.03-.01.05-.02.08-.03.09,0,3.09.23,5.12.69,1.28.28,1.93,1.04,2.24,1.57.09.57.18,1.32.25,2.12Z" style="stroke-width:0px;fill:#5c4840"/><path d="m23.84,11.05c-2.16.87-8.42,3-12.07,3.37-.5.05-.94.07-1.32.05-.18-.16-.33-.35-.44-.56-.05-.09-.09-.19-.13-.29.16.05.47.12.92.16.5.05,1.19.06,2.06-.03,1.18-.13,2.7-.46,4.58-1.17,5.27-1.99,10.39-3.28,12.95-2.85s-3.88.25-6.55,1.32Z" style="stroke-width:0px;fill:#231f20"/><path d="m35.11,4.25c-.78-.51-1.7-.95-2.62-.99-1.28-.05-2.81.56-4.26,1.13-.03,0-.05.02-.08.03-.12.04-.23.09-.35.13-.16.06-.32.12-.47.18-.11.04-.23.08-.34.12,0,0,0,0-.01,0-.2.07-.4.13-.59.19-.23.07-.46.13-.68.17-.07.01-.13.03-.2.03-.13.02-.26.03-.38.04-.06,0-.13,0-.19,0-.54-.56-1.35-1.01-2.15-.69-.81.32-1.26.98-1.26.98-.02.05-.04.09-.06.14-.32.13-.66.29-1.04.52-1.81,1.07-5.77,3.74-6.83,5.34-1.05,1.57-3.76,1.29-3.86,1.28-.07-2.03,1.95-5.03,6.43-7.33,6.59-3.39,16.63-8.85,18.94-1.28Z" style="stroke-width:0px;fill:#71584f"/><path d="m35.58,6.64c-.31-.53-.96-1.29-2.24-1.57-2.03-.45-5.02-.68-5.12-.69,1.45-.57,2.98-1.18,4.26-1.13.92.04,1.84.48,2.62.99.12.39.22.82.29,1.28,0,0,.08.44.18,1.11Z" style="stroke-width:0px;fill:#493933"/><path d="m14.23,12.01s3.24-1.7,4.48-2.35c2.7-1.41,5.3-.86,6.9-.89s1.74.58,1.74.58c0,0-4.62,0-8.33,1.92-3.71,1.91-7.15,1.69-4.8.74Z" style="stroke-width:0px;fill:#71584f"/><path d="m21.46,5.05s.83-.93,1.68-.93,2.17.44,1.81.28c-.36-.17-1.06-.6-1.81-.6s-1.68,1.06-1.68,1.06c0,0-.63.97,0,.19Z" style="stroke-width:0px;fill:#5c4840"/><path d="m22.42,7.6s.57.43,1.49.28c.93-.14.72-.87,1.09-.9.37-.03-.06.43-.17.76-.11.32-1.95.93-2.42-.14Z" style="stroke-width:0px;fill:#493933"/><path d="m12.86,13.76s0,.02,0,.03c-.09.36-.7.55-1.08.63-.18.04-.31.06-.31.06-6.37.69-9.5,5.18-9.5,5.18l-1.96,1.74c.79-1.81,1.9-3.2,3.13-4.26h0c.06-.02,1.02-.31,2.78-1.29,1.61-.9,3.93-1.2,4.04-1.93.02,0,.04,0,.06-.01.46-.09.75-.12.79-.12.5.05,1.19.06,2.06-.03Z" style="fill:#c69da3;stroke-width:0px"/><path d="m24.67,6.06s-.95-.73-1.37-.63c-.33,0-.63.18-.79.44,0,0,0,0,0,0,0,0-.01.02-.03.06-.01.03-.03.05-.04.08-.11.21-.3.59-.35.7l-.07.16s.27.33,1.01.39c0,0,.01,0,.02,0,.09.03.17.04.27.04.39,0,.73-.24.87-.59,0,0,0,0,0,0l.5-.66Z" style="stroke-width:0px;fill:#231f20"/><circle cx="23.56" cy="5.97" r=".23" style="stroke-width:0px;fill:#fff"/><path d="m35.4,13.7c-1.21,1.68-9.7,1.47-13.69,1.05-2.05-.22-3.73.06-5.35.28.28-.07,4.61-1.09,8.31-1.59,3.82-.51,5.71-.68,6.87-.54,1.17.13.31.24-.81.4-1.12.16-4.61.33-3.75.64.86.32,6.32.64,7.54-.18,1.22-.82.98-2.28,1.32-3.56.01-.05.04-.09.09-.11.06,1.49-.03,2.94-.52,3.61Z" style="stroke-width:0px;fill:#382d29"/><path d="m9.95,13.92c-.1.74-2.42,1.03-4.04,1.93-1.76.98-2.72,1.27-2.78,1.29,2.49-2.15,5.4-2.95,6.82-3.22Z" style="stroke-width:0px;fill:#e9bbc0"/></g></g></svg>