<?xml version="1.0" encoding="UTF-8"?>
<svg id="Layer_2" data-name="Layer 2" xmlns="http://www.w3.org/2000/svg" viewBox="0 0 119.25 103.43">
  <defs>
    <style>
      .cls-1 {
        fill: #b75a27;
      }

      .cls-1, .cls-2, .cls-3, .cls-4, .cls-5, .cls-6, .cls-7, .cls-8, .cls-9, .cls-10, .cls-11, .cls-12, .cls-13, .cls-14 {
        stroke-width: 0px;
      }

      .cls-2 {
        fill: #454545;
      }

      .cls-3 {
        fill: #766546;
      }

      .cls-4 {
        fill: #914520;
      }

      .cls-5 {
        fill: #bbb;
      }

      .cls-6 {
        fill: #fff;
      }

      .cls-7 {
        fill: #363a3b;
      }

      .cls-8 {
        fill: #2d2f30;
      }

      .cls-9 {
        fill: #453a27;
      }

      .cls-10 {
        fill: #615336;
      }

      .cls-11 {
        fill: #424748;
      }

      .cls-12 {
        fill: #f5f6f6;
      }

      .cls-13 {
        fill: #1e2021;
      }

      .cls-14 {
        fill: #151616;
      }
    </style>
  </defs>
  <g id="_100" data-name="100">
    <g>
      <path class="cls-10" d="m76.43,103.43h-3.7l-4.86-18.52s-2.88-.55-1.96,0c.92.55-4.74,1.36-6.25.38-1.52-.97-3.49.02-3.63,1.69-.11,1.28,2.08,11.67,3.11,16.44h-6.24s-4.79-14.78-4.81-17.16c-.02-2.38-1.67-4.56,2.5-4.53,4.17.03,6.56-.46,9.07-1.76,2.51-1.3,8.93-2.47,10.11,1.79,1.18,4.26,6.67,21.66,6.67,21.66Z"/>
      <path class="cls-3" d="m72.73,103.43h-13.59c-1.03-4.77-3.22-15.16-3.11-16.44.14-1.67,2.11-2.66,3.63-1.69,1.52.97,7.18.16,6.25-.38-.92-.55,1.96,0,1.96,0l4.86,18.52Z"/>
      <path class="cls-9" d="m71.1,101.88s-.76-2.1-1.88-5.45c-1.12-3.34-2.58-7.92-3.99-12.87,0,0,1.11,3.18,2.4,7.05,1.29,3.88,2.76,8.46,3.47,11.27Z"/>
      <path class="cls-9" d="m56.03,101.41s-.66-1.85-1.58-4.8c-.46-1.47-1-3.22-1.54-5.15-.14-.48-.27-.98-.41-1.48-.07-.25-.14-.51-.2-.76-.07-.26-.14-.52-.2-.78-.07-.26-.13-.52-.2-.79-.06-.27-.13-.53-.19-.8-.13-.54-.25-1.09-.35-1.64,0,0,.05.18.13.5.02.08.05.17.07.27.03.1.06.2.09.32.03.11.07.24.1.36.04.13.08.26.12.41.33,1.14.81,2.7,1.34,4.41,1.05,3.43,2.26,7.46,2.84,9.94Z"/>
      <path class="cls-9" d="m61.54,102.96s-.13-.34-.34-.96c-.21-.61-.51-1.5-.84-2.6-.33-1.1-.71-2.4-1.07-3.84-.09-.36-.18-.73-.26-1.11-.04-.19-.08-.38-.13-.57-.02-.1-.04-.19-.06-.29-.02-.1-.04-.2-.06-.29-.04-.2-.08-.39-.12-.59-.04-.2-.07-.4-.11-.6-.07-.4-.13-.82-.18-1.23,0,0,.03.13.08.37.03.12.06.27.1.44.04.17.09.36.14.58.21.85.52,2.02.87,3.3.71,2.56,1.58,5.56,1.97,7.41Z"/>
      <path class="cls-9" d="m68.17,82.1s.56,1.51,1.35,3.91c.2.6.41,1.26.63,1.96.22.71.45,1.46.68,2.24.11.39.23.8.34,1.21.06.21.11.41.17.62.06.21.11.42.17.64.11.43.22.86.34,1.3.1.44.21.89.31,1.34,0,0-.18-.58-.46-1.5-.3-.92-.7-2.2-1.15-3.6-.89-2.8-1.91-6.09-2.36-8.13Z"/>
      <path class="cls-14" d="m65.97,77.13s-3.53,2.07-7.99,2.29c-4.47.21-3.22,2.36-3.22,2.36,0,0,.93-.72,4.13-.72s8.56-2.32,10.88.72c0,0,1.42,2.41,1.43,0,0-2.41-1.17-4.31-5.23-4.65Z"/>
      <path class="cls-7" d="m67.87,20.24l-.89,1.34.89.89-.98.45.27,1.34s-1.06,2.5.63,7.86c-6.6.71-16.51.28-22.05,1.55-.08.02-.16.04-.24.05-.47.11-.94.21-1.41.3-.15.03-.31.06-.46.09-.16.03-.31.06-.46.09-.05.01-.11.02-.16.03-.05,0-.09.02-.14.03-.05.01-.1.02-.15.03-.15.03-.3.06-.44.08-.06.01-.11.02-.17.03-.06.01-.11.02-.17.03-.06.01-.11.02-.17.03-.17.03-.33.06-.49.09-.11.02-.22.04-.33.06-.05,0-.11.02-.16.03-.27.04-.53.09-.8.13-.09.01-.19.03-.28.04-.36.06-.72.11-1.06.16-3.32-1.5-5.16-3.21-5.16-3.21-1.91-.02-3.45.36-4.66,1.05-1.13-1.79-1.72-3.92-1.6-6.35.54-.1,1.11-.21,1.69-.33,0,0,2.75-11.56,4.82-15.31v2.44s1.6-4.38,2.49-5.1l.54,1.88,1.6-1.52s.19,2.06.9,2.77c0,0,1.13-3.22,2.35-3.75,0,0-.12,1.52,1.13,2.5,0,0,.18-1.61.98-2.5,0,0,.18,2.77.54,3.4,0,0,.19-2.93,1.25-4.2,0,0,.18,4.38.63,5.01,0,0,1.02-3.31,1.94-4.11,0,0,.42,1.97,1.12,3.22,0,0,.34-1.52,1.41-2.23,0,0,.98,2.23,1.79,2.5,0,0,.36-2.41,1.34-3.84,0,0,.36,3.13,1.52,3.67,0,0,.45-2.23,1.16-2.77,0,0,.27,2.95,1.52,3.84,0,0,.54-2.32,1.61-3.04,0,0-.18,1.52.72,2.24,0,0,.71-2.41,2.06-2.95,0,0-.16,3.13.68,3.84,0,0,.93-2.41,1.91-3.31,0,0-.18,2.59,0,3.04,0,0,.63-.8,1.52-1.34,0,0-1.34,4.29-1.34,5.09l1.34-2.5v3.67l.72-.89s-.36,1.97-.36,2.5l1.07-.87s-.98,2.48-.98,2.84l.98-.09Z"/>
      <path class="cls-6" d="m40.92,43.93c-.05.05-.1.09-.15.14.05-.05.1-.1.15-.14Z"/>
      <path class="cls-7" d="m119.23,75.42c-.17.17-2.59-.3-6.04-1.08-.28-.06-.56-.13-.85-.19-2.42-.55-5.27-1.23-8.17-1.92,0,0,0,0,0,0h0c-.07-.01-.14-.02-.2-.03-.08-.01-.17-.03-.25-.04-.08-.01-.16-.03-.23-.04-.1-.02-.2-.04-.3-.05-.01,0-.03,0-.04,0-.06-.01-.11-.02-.17-.03-.11-.02-.22-.04-.33-.06-.06-.01-.11-.02-.17-.03-.12-.02-.24-.05-.36-.07-.05,0-.09-.02-.14-.03-.17-.03-.33-.07-.49-.11-.11-.02-.21-.05-.31-.07-.06-.01-.13-.03-.19-.04-.1-.02-.19-.04-.29-.07-.1-.02-.21-.05-.31-.07-.17-.04-.33-.08-.49-.12-.04-.01-.09-.02-.13-.03-.09-.02-.17-.04-.26-.06-.07-.02-.14-.03-.2-.05-.19-.05-.37-.1-.55-.15-.04-.01-.09-.02-.13-.04-.03,0-.06-.01-.09-.02-.04-.01-.09-.02-.13-.04-.15-.04-.3-.08-.44-.13-.05-.01-.1-.03-.15-.04-.07-.02-.14-.04-.21-.06-.09-.03-.17-.05-.26-.08-.08-.03-.16-.05-.25-.08-.07-.02-.13-.04-.2-.06-.07-.02-.13-.04-.2-.06-.14-.04-.27-.09-.4-.13-.06-.02-.12-.04-.18-.06-.06-.02-.13-.04-.19-.06-.06-.02-.12-.04-.18-.06-.07-.02-.13-.04-.2-.07-.04-.01-.08-.03-.12-.04-.34-.12-.67-.24-1-.36-.05-.02-.11-.04-.16-.06-.02,0-.05-.02-.07-.03-.07-.03-.13-.05-.2-.08-.01,0-.02,0-.03-.01-.07-.03-.13-.05-.2-.08-.03,0-.06-.02-.09-.03-.04-.02-.08-.03-.12-.05-.05-.02-.1-.04-.14-.06-.05-.02-.11-.04-.16-.06-.01,0-.03-.01-.04-.02,0,0-.02,0-.03-.01-.07-.03-.14-.06-.2-.08-.07-.03-.13-.06-.2-.08-.03-.01-.07-.03-.1-.04-.06-.03-.12-.05-.19-.08,0,0,0,0-.01,0,0,0,0,0,0,0-.08-.03-.16-.07-.23-.1-.08-.04-.16-.07-.24-.11-.08-.04-.16-.07-.24-.11-.08-.04-.16-.07-.24-.11-.08-.04-.16-.07-.23-.11-.08-.04-.15-.07-.23-.11-.05-.03-.1-.05-.16-.08,0,0,0,0,0,0-.04-.02-.07-.04-.11-.05-.13-.06-.27-.13-.4-.2-.08-.04-.16-.08-.24-.12-.07-.04-.15-.07-.22-.11-.13-.07-.27-.14-.4-.21-.04-.02-.07-.04-.11-.06,0,0,0,0,0,0-.05-.03-.1-.05-.14-.08-.06-.03-.11-.06-.17-.09l-.1-.05c-.05-.03-.11-.06-.16-.09-.07-.04-.14-.08-.21-.12-.06-.03-.12-.07-.18-.1,0,0-.02-.01-.03-.02,0,0,0,0,0,0,0,0,0,0,0,0-.05-.03-.1-.06-.14-.08,0,0-.01,0-.02-.01-.02-.01-.04-.03-.07-.04-.05-.03-.11-.06-.16-.1,0,0-.01,0-.02,0-.06-.03-.11-.07-.17-.1-.02,0-.03-.02-.05-.03-.06-.03-.11-.07-.17-.1,0,0-.01,0-.02-.01-.06-.04-.13-.08-.19-.12-.06-.04-.12-.07-.17-.11-.14-.09-.28-.17-.41-.26-.06-.04-.13-.08-.19-.12-.13-.08-.25-.16-.37-.25-.13-.08-.25-.17-.38-.25-.12-.08-.24-.17-.36-.25,0,0,0,0,0,0-.06-.04-.12-.08-.17-.12-.06-.04-.12-.09-.18-.13-.07-.05-.14-.1-.21-.15-.06-.04-.12-.09-.18-.13,0,0-.01,0-.02-.01-.04-.03-.08-.06-.12-.09-.06-.04-.11-.09-.17-.13-.05-.04-.1-.08-.15-.11-.12-.09-.24-.18-.35-.27-.06-.04-.11-.09-.17-.13,0,0,0,0,0,0-.06-.05-.12-.09-.17-.14-.05-.04-.1-.08-.15-.12-.05-.04-.11-.09-.16-.13-.04-.04-.09-.07-.13-.11,0,0-.02-.01-.02-.02,0,0,0,0-.01-.01-.05-.04-.1-.09-.15-.13-.05-.04-.11-.09-.16-.13-.05-.04-.1-.09-.16-.13-.05-.04-.1-.09-.16-.13-.05-.04-.1-.08-.15-.13,0,0-.02-.02-.03-.02-.04-.04-.09-.08-.13-.12-.1-.09-.2-.18-.3-.27-.05-.04-.1-.09-.15-.13-.15-.13-.29-.27-.44-.4-.05-.04-.1-.09-.14-.13-.05-.04-.1-.09-.14-.13-.05-.05-.11-.1-.16-.15-.04-.04-.08-.08-.12-.12-.03-.03-.07-.07-.1-.1-.02-.02-.04-.03-.05-.05-.08-.08-.17-.17-.25-.25-.14-.14-.27-.27-.41-.41-.04-.04-.08-.08-.12-.12-.05-.05-.1-.1-.15-.15-.04-.05-.09-.09-.13-.14-.01-.01-.03-.03-.04-.04-.07-.08-.15-.15-.22-.23-.13-.14-.26-.27-.38-.41-.04-.04-.07-.08-.11-.12-.09-.1-.18-.19-.26-.29-.08-.08-.16-.17-.23-.25-.41-.46-.81-.91-1.2-1.36-.06-.07-.12-.14-.18-.21-.06-.07-.13-.15-.19-.22-.06-.07-.13-.15-.19-.22,0-.01-.02-.02-.03-.03-.1-.12-.2-.24-.31-.36-.04-.05-.08-.09-.12-.14-.07-.08-.14-.17-.21-.25-.03-.04-.06-.08-.1-.11,0,0-.02-.02-.02-.03,0,0-.01-.01-.02-.02-.04-.05-.08-.1-.12-.15,0-.01-.02-.02-.03-.04-.05-.06-.09-.11-.14-.17-.06-.08-.13-.15-.19-.22-.05-.06-.1-.12-.15-.18-.05-.06-.1-.12-.15-.18-.1-.12-.2-.24-.3-.36-.03-.04-.07-.08-.1-.12-.1-.12-.2-.23-.3-.35-.1-.12-.2-.23-.3-.35-.03-.04-.07-.08-.1-.11-.03-.04-.07-.07-.1-.11-.1-.11-.2-.22-.3-.33,0,0,0,0,0,0-.03-.04-.07-.07-.1-.11-.1-.11-.2-.22-.3-.33-.07-.07-.13-.14-.2-.22-.04-.04-.08-.09-.12-.13-.01-.01-.02-.02-.03-.03-.05-.05-.1-.1-.14-.15-.03-.03-.07-.07-.1-.1-.03-.03-.07-.07-.1-.1-.03-.03-.07-.07-.1-.1-.02-.02-.03-.03-.05-.05-.03-.04-.07-.07-.1-.11-.03-.03-.06-.06-.08-.08-.03-.03-.06-.06-.09-.09-.03-.03-.06-.06-.09-.09-.03-.03-.06-.06-.09-.09-.03-.03-.07-.06-.1-.1,0,0,0,0,0,0-.03-.03-.06-.06-.1-.09-.07-.06-.14-.13-.2-.19l-.1-.09s-.07-.06-.1-.09c-.03-.03-.07-.06-.1-.09-.05-.05-.1-.09-.16-.14-.05-.05-.1-.09-.16-.13,0,0,0,0,0,0-.05-.04-.1-.09-.16-.13-.1-.09-.21-.17-.31-.26-.05-.04-.11-.08-.16-.13-.02-.01-.04-.03-.05-.04-.02-.01-.04-.03-.05-.04-.02-.01-.04-.03-.05-.04-.02-.01-.04-.03-.05-.04-.04-.03-.07-.05-.11-.08-.03-.02-.06-.04-.09-.06,0,0,0,0-.01,0,0,0,0,0-.01,0,0,0,0,0-.01,0-.03-.02-.05-.04-.08-.06-.01,0-.02-.02-.03-.02-.03-.02-.06-.04-.09-.07-.04-.03-.07-.05-.11-.08-.04-.03-.07-.05-.11-.08-.04-.02-.07-.05-.11-.07,0,0-.01,0-.02-.01-.03-.02-.07-.04-.1-.06-.04-.02-.07-.05-.11-.07-.05-.03-.1-.06-.15-.09-.03-.02-.07-.04-.1-.06-.04-.02-.08-.05-.12-.07,0,0,0,0,0,0,0,0,0,0,0,0-.03-.02-.05-.03-.08-.05-.04-.02-.08-.04-.12-.07-.07-.04-.15-.08-.22-.12-.04-.02-.08-.04-.13-.07-.04-.02-.08-.04-.13-.07-.03-.02-.07-.03-.1-.05-.03-.01-.06-.03-.09-.04-.02-.01-.05-.02-.07-.04-.04-.02-.07-.03-.11-.05-.04-.02-.08-.04-.12-.05-.03-.02-.06-.03-.1-.04-.01,0-.02-.01-.04-.02,0,0,0,0,0,0-.04-.02-.07-.03-.11-.05-.04-.02-.08-.03-.12-.05-.04-.02-.08-.03-.12-.05h0s0,0,0,0c-.04-.02-.08-.03-.12-.04,0,0-.01,0-.02,0-.04-.02-.08-.03-.12-.05-.04-.02-.09-.03-.13-.05-.04-.02-.08-.03-.13-.04,0,0,0,0,0,0,0,0,0,0,0,0-.04-.01-.08-.03-.12-.04,0,0,0,0-.01,0h0s-.08-.03-.12-.04c-.04-.01-.08-.03-.12-.04,0,0,0,0,0,0,0,0,0,0,0,0-.04-.01-.08-.03-.13-.04,0,0,0,0-.01,0,0,0,0,0-.01,0-.04-.01-.08-.02-.11-.03-.04-.01-.09-.03-.13-.04,0,0-.01,0-.02,0-.04-.01-.08-.02-.12-.03-.09-.02-.18-.04-.27-.06,0,0,0,0,0,0-.04,0-.07-.02-.11-.03-.03,0-.06-.01-.09-.02,0,0,0,0-.01,0-.07-.01-.14-.03-.21-.04-.05,0-.1-.02-.14-.03-.02,0-.05,0-.07-.01-.02,0-.05,0-.07-.01-.02,0-.04,0-.07-.01-.02,0-.04,0-.07-.01h-.02s-.08-.01-.12-.02c-.01,0-.02,0-.03,0-.02,0-.05,0-.07,0-.02,0-.05,0-.07,0-.05,0-.1-.01-.15-.02h0s-.06,0-.09-.01c-.01,0-.03,0-.04,0,0,0,0,0,0,0-.04,0-.08,0-.11-.01-.03,0-.06,0-.09,0-.06,0-.11-.01-.17-.01-.02,0-.03,0-.05,0-.04,0-.08,0-.12,0-.05,0-.09,0-.14,0h0s-.04,0-.07,0c-.01,0-.02,0-.03,0,0,0-.01,0-.02,0-.03,0-.06,0-.1,0h0s-.07,0-.11,0c0,0-.01,0-.02,0-.03,0-.07,0-.1,0-.05,0-.09,0-.14,0h-.01s-.06,0-.09,0h-.03c-.05,0-.1,0-.16,0-.48,0-.99.02-1.51.07-.08,0-.15.01-.23.02,0,0,0,0,0,0-.01,0-.02,0-.03,0,0,0-.01,0-.02,0-.06,0-.13.01-.19.02,0,0,0,0,0,0-.03,0-.05,0-.08,0-.05,0-.11.01-.16.02-.01,0-.02,0-.03,0-.01,0-.03,0-.04,0h0c-.06,0-.12.01-.17.02,0,0-.02,0-.03,0-.07,0-.13.02-.19.02-.02,0-.04,0-.07,0-.02,0-.04,0-.07,0-.02,0-.03,0-.05,0-.05,0-.1.01-.15.02,0,0,0,0-.01,0-.07,0-.14.02-.21.03-.02,0-.04,0-.06,0-.07.01-.15.02-.22.04-.06,0-.11.02-.17.03,0,0-.01,0-.02,0-.03,0-.06,0-.09.01,0,0,0,0,0,0-.05,0-.1.02-.15.03-.01,0-.02,0-.03,0-.03,0-.06.01-.09.02-.04,0-.08.02-.12.02-.03,0-.05.01-.08.02,0,0,0,0,0,0-.06.01-.11.02-.17.03-.05.01-.1.02-.16.03-.05.01-.1.02-.16.03-.04,0-.08.02-.12.03-.03,0-.07.02-.1.02-.01,0-.02,0-.04,0-.05.01-.09.02-.14.03,0,0,0,0,0,0,0,0,0,0-.01,0,0,0-.02,0-.03,0-.07.02-.13.03-.2.05-.06.01-.11.03-.17.04,0,0,0,0-.01,0-.03,0-.05.01-.08.02-.06.01-.11.03-.17.04-.03,0-.06.02-.09.02,0,0-.01,0-.02,0-.05.01-.09.02-.14.04,0,0,0,0-.01,0-.07.02-.15.04-.22.06-.07.02-.13.04-.2.06,0,0,0,0,0,0-.02,0-.03.01-.05.02-.06.02-.12.04-.18.06-.06.02-.11.03-.17.05,0,0,0,0,0,0-.03,0-.05.02-.08.02-.01,0-.03,0-.04.01-.05.02-.1.03-.15.05-.07.02-.14.05-.21.07-.07.02-.14.05-.21.07-.07.03-.14.05-.21.07-.07.03-.14.05-.21.08-.14.05-.28.1-.41.16-.05.02-.1.04-.15.06,0,0,0,0-.01,0-.02,0-.04.02-.06.02,0,0-.01,0-.02,0-.06.02-.11.05-.17.07-.05.02-.1.04-.15.06,0,0-.01,0-.02,0-.02,0-.03.01-.05.02-.06.02-.11.05-.17.07-.02,0-.03.01-.04.02-.12.05-.24.1-.35.16-.01,0-.02.01-.04.02-.05.02-.09.04-.14.07-.02,0-.04.02-.06.03-.06.03-.11.05-.17.08-.06.03-.12.06-.18.09,0,0-.02,0-.02.01-.06.03-.12.06-.18.09-.06.03-.13.06-.19.09,0,0,0,0,0,0-.06.03-.12.06-.18.09,0,0-.01,0-.02.01-.06.03-.11.06-.17.09h0c-.06.03-.12.07-.18.1-.06.03-.12.07-.18.1-.06.03-.12.07-.18.1-.06.03-.11.07-.17.1,0,0,0,0,0,0-.05.03-.11.06-.16.09,0,0-.02.01-.03.02,0,0,0,0-.01,0-.05.03-.1.06-.14.09-.01,0-.02.01-.03.02-.04.03-.08.05-.12.08-.07.04-.13.08-.2.12-.06.04-.11.07-.17.11-.05.03-.1.07-.15.1-.15.1-.29.19-.44.29-.04.02-.07.05-.11.07-.07.05-.14.1-.22.15-.03.02-.07.05-.1.07-.04.02-.07.05-.1.07-.03.03-.07.05-.1.08-.03.03-.07.05-.1.08-.03.03-.07.05-.1.08-.03.02-.07.05-.1.07,0,0,0,0,0,0,0,0,0,0,0,0-.03.02-.06.05-.09.07-.04.03-.08.06-.13.1-.08.06-.16.12-.24.19-.03.02-.06.04-.08.07-.03.03-.07.05-.1.08-.03.02-.06.05-.09.07-.03.03-.07.06-.1.08-.08.07-.16.13-.24.2-.03.03-.06.05-.09.08-.06.05-.12.11-.19.16-.03.03-.06.05-.09.08-.06.05-.12.11-.18.16-.03.03-.06.05-.09.08-.03.03-.06.05-.09.08-.05.04-.09.08-.14.13-.04.04-.08.07-.12.11-.03.03-.06.06-.1.09-.03.03-.06.05-.09.08-.05.05-.1.1-.15.14-.01,0-.02.02-.03.03-.02.03-.05.05-.07.07-.03.03-.06.06-.08.08-.03.03-.06.06-.08.08-.03.03-.05.05-.08.08-.05.06-.11.11-.16.17-.05.06-.11.11-.16.17-.03.03-.05.06-.08.08-1.83-4.15-1.76-6.99-1.38-11.21.03-.34.09-.67.17-.97.03,0,.06-.02.09-.03.08-.02.16-.05.24-.07.03-.01.07-.02.11-.03.15-.04.31-.08.47-.12.06-.01.11-.03.17-.04.05-.01.1-.02.15-.04.03,0,.07-.02.1-.02.08-.02.15-.03.23-.05.04,0,.08-.02.12-.03.05-.01.09-.02.14-.03.07-.02.15-.03.22-.05h0c.07-.02.15-.03.23-.04.08-.02.15-.03.23-.04.04,0,.08-.01.12-.02.04,0,.08-.01.12-.02.04,0,.08-.01.12-.02.76-.14,1.6-.28,2.51-.44.05,0,.1-.02.15-.03.02,0,.05,0,.07-.01.07-.01.15-.03.22-.04.1-.02.2-.04.3-.05.1-.02.2-.04.31-.06h0c.1-.02.21-.04.31-.06.07-.01.14-.03.21-.04.06-.01.12-.02.18-.03.05,0,.1-.02.15-.03.07-.01.14-.03.21-.04.06-.01.12-.02.18-.04.11-.02.21-.04.32-.06.08-.02.16-.03.24-.05.1-.02.2-.04.3-.06.09-.02.17-.03.26-.05.05,0,.09-.02.14-.03.07-.01.14-.03.21-.04.06-.01.11-.02.17-.03.01,0,.03,0,.04,0,.05,0,.1-.02.14-.03.01,0,.03,0,.04,0,.07-.01.14-.02.21-.04.22-.04.43-.08.65-.12.15-.03.3-.05.46-.08.15-.03.3-.05.45-.07.09-.02.19-.03.28-.05.07-.01.14-.02.22-.03.06,0,.13-.02.19-.03.17-.03.34-.05.51-.08.11-.02.21-.03.32-.05.1-.01.19-.03.29-.04.45-.07.9-.13,1.35-.19.24-.03.48-.07.72-.1.34-.05.68-.09,1.01-.14.2-.03.4-.05.61-.08.78-.1,1.54-.2,2.3-.3.06,0,.12-.02.18-.02.03,0,.06,0,.09-.01.08-.01.17-.02.25-.03.19-.03.39-.05.58-.08.1-.01.19-.03.28-.04.01,0,.03,0,.04,0,.12-.02.23-.03.35-.05.95-.14,1.87-.28,2.74-.42.04,0,.09-.02.13-.02.09-.01.17-.03.26-.05.04,0,.08-.01.13-.02.13-.02.25-.05.38-.07.12-.02.24-.05.37-.07,0,0,0,0,0,0,.04,0,.08-.02.12-.02.04,0,.08-.02.12-.02.07-.02.15-.03.22-.05.05,0,.09-.02.13-.03.04,0,.08-.02.12-.03.04,0,.08-.02.12-.02.08-.02.15-.03.23-.05.04,0,.08-.02.11-.03.15-.04.3-.07.45-.11,2.56,5.52,4.9,8.8,9.37,12.88,5.19,4.74,6.88,11.53,11.71,14.57,4.11,2.59,21.79,9.04,28.03,10.13Z"/>
      <path class="cls-6" d="m40.77,44.07s.1-.1.15-.14c-.05.05-.1.09-.15.14Z"/>
      <path class="cls-12" d="m70.13,37.84c-.15.04-.3.07-.45.11-.04,0-.08.02-.11.03-.08.02-.15.03-.23.05-.04,0-.08.02-.12.02-.04,0-.08.02-.12.03-.04,0-.09.02-.13.03-.07.01-.15.03-.22.05-.04,0-.08.02-.12.02-.04,0-.08.02-.12.02,0,0,0,0,0,0-.12.02-.24.05-.37.07-.12.02-.25.05-.38.07-.04,0-.08.01-.13.02-.08.02-.17.03-.26.05l-.13.02c-.87.15-1.79.29-2.74.42-.12.02-.23.03-.35.05-.01,0-.03,0-.04,0-.1.01-.19.03-.28.04-.19.03-.38.05-.58.08-.08.01-.17.02-.25.03-.03,0-.06,0-.09.01-.06,0-.12.02-.18.02-.75.1-1.52.2-2.3.3-.2.03-.4.05-.61.08-.34.04-.67.09-1.01.14-.24.03-.48.07-.72.1-.45.06-.9.13-1.35.19-.1.01-.19.03-.29.04-.11.02-.21.03-.32.05-.17.03-.34.05-.51.08-.06,0-.13.02-.19.03-.07.01-.14.02-.22.03-.09.02-.19.03-.28.05-.15.02-.3.05-.45.07-.15.03-.31.05-.46.08-.22.04-.43.08-.65.12-.07.01-.14.03-.21.04-.01,0-.03,0-.04,0-.05,0-.1.02-.14.03-.01,0-.03,0-.04,0-.06.01-.11.02-.17.03-.07.01-.14.03-.21.04-.05,0-.09.02-.14.03-.09.02-.17.03-.26.05-.1.02-.2.04-.3.06-.08.02-.16.03-.24.05-.11.02-.22.04-.32.06-.06.01-.12.02-.18.04-.07.01-.14.03-.21.04-.05,0-.1.02-.15.03-.06.01-.12.02-.18.03-.07.01-.14.03-.21.04-.11.02-.21.04-.31.06h0c-.1.02-.21.04-.31.06-.1.02-.2.04-.3.05-.07.01-.15.03-.22.04-.02,0-.05,0-.07.01-.05,0-.1.02-.15.03-.92.16-1.75.3-2.51.44-.04,0-.08.01-.12.02-.04,0-.08.01-.12.02-.04,0-.08.01-.12.02-.08.02-.15.03-.23.04-.08.01-.15.03-.23.04h0c-.07.02-.15.03-.22.05-.05,0-.09.02-.14.03-.04,0-.08.02-.12.03-.08.02-.16.03-.23.05-.03,0-.07.02-.1.02-.05.01-.1.02-.15.04-.06.01-.11.03-.17.04-.16.04-.32.08-.47.12-.04,0-.07.02-.11.03-.08.02-.16.05-.24.07-.03.01-.06.02-.09.03,1.29-4.87,8.34-4.46,1.44-5.51-2.53-.38-4.7-1.11-6.46-1.9.35-.05.7-.1,1.06-.16.09-.01.18-.03.28-.04.26-.04.53-.09.8-.13.05,0,.11-.02.16-.03.11-.02.22-.04.33-.06.16-.03.33-.06.49-.09.06-.01.11-.02.17-.03.06,0,.11-.02.17-.03.06,0,.11-.02.17-.03.15-.03.29-.05.44-.08.05,0,.1-.02.15-.03.05,0,.09-.02.14-.03.05-.01.11-.02.16-.03.15-.03.31-.06.46-.09.15-.03.3-.06.46-.09.46-.1.93-.2,1.41-.3.08-.02.16-.04.24-.05,5.54-1.27,15.46-.84,22.05-1.55.28.88.63,1.83,1.06,2.86.43,1.02.85,1.97,1.27,2.86Z"/>
      <path class="cls-12" d="m61.19,47.96c.79-.48,1.68-.8,2.65-.98-.03,0-.06,0-.09-.01-.01,0-.03,0-.04,0,0,0,0,0,0,0-.04,0-.08,0-.11-.01-.03,0-.06,0-.09,0-.06,0-.11-.01-.17-.01-.02,0-.03,0-.05,0-.04,0-.08,0-.12,0-.05,0-.09,0-.14,0h0s-.04,0-.07,0c-.01,0-.02,0-.03,0,0,0-.01,0-.02,0-.03,0-.06,0-.1,0h0s-.07,0-.11,0c0,0-.01,0-.02,0-.03,0-.07,0-.1,0-.05,0-.09,0-.14,0h-.01s-.06,0-.09,0h-.03c-.05,0-.1,0-.16,0-.48,0-.99.02-1.51.07-.08,0-.15.01-.23.02,0,0,0,0,0,0-.01,0-.02,0-.03,0,0,0-.01,0-.02,0-.06,0-.13.01-.19.02,0,0,0,0,0,0-.03,0-.05,0-.08,0-.05,0-.11.01-.16.02-.01,0-.02,0-.03,0-.01,0-.03,0-.04,0h0c-.06,0-.12.01-.17.02,0,0-.02,0-.03,0-.07,0-.13.02-.19.02-.02,0-.04,0-.07,0-.02,0-.04,0-.07,0-.02,0-.03,0-.05,0-.05,0-.1.01-.15.02,0,0,0,0-.01,0-.07,0-.14.02-.21.03-.02,0-.04,0-.06,0-.07.01-.15.02-.22.04-.06,0-.11.02-.17.03,0,0-.01,0-.02,0-.03,0-.06,0-.09.01,0,0,0,0,0,0-.05,0-.1.02-.15.03-.01,0-.02,0-.03,0-.03,0-.06.01-.09.02-.04,0-.08.02-.12.02-.03,0-.05.01-.08.02,0,0,0,0,0,0-.06.01-.11.02-.17.03-.05.01-.1.02-.16.03-.05.01-.1.02-.16.03-.04,0-.08.02-.12.03-.03,0-.07.02-.1.02-.01,0-.02,0-.04,0-.05.01-.09.02-.14.03,0,0,0,0,0,0,0,0,0,0-.01,0,0,0-.02,0-.03,0-.07.02-.13.03-.2.05-.06.01-.11.03-.17.04,0,0,0,0-.01,0-.03,0-.05.01-.08.02-.06.01-.11.03-.17.04-.03,0-.06.02-.09.02,0,0-.01,0-.02,0-.05.01-.09.02-.14.04,0,0,0,0-.01,0-.07.02-.15.04-.22.06-.07.02-.13.04-.2.06,0,0,0,0,0,0-.02,0-.03.01-.05.02-.06.02-.12.04-.18.06-.06.02-.11.03-.17.05,0,0,0,0,0,0-.03,0-.05.02-.08.02-.01,0-.03,0-.04.01-.05.02-.1.03-.15.05-.07.02-.14.05-.21.07-.07.02-.14.05-.21.07-.07.03-.14.05-.21.07-.07.03-.14.05-.21.08-.14.05-.28.1-.41.16-.05.02-.1.04-.15.06,0,0,0,0-.01,0-.02,0-.04.02-.06.02,0,0-.01,0-.02,0-.06.02-.11.05-.17.07-.05.02-.1.04-.15.06,0,0-.01,0-.02,0-.02,0-.03.01-.05.02-.06.02-.11.05-.17.07-.02,0-.03.01-.04.02-.12.05-.24.1-.35.16-.01,0-.02.01-.04.02-.05.02-.09.04-.14.07-.02,0-.04.02-.06.03-.06.03-.11.05-.17.08-.06.03-.12.06-.18.09,0,0-.02,0-.02.01-.06.03-.12.06-.18.09-.06.03-.13.06-.19.09,0,0,0,0,0,0-.06.03-.12.06-.18.09,0,0-.01,0-.02.01-.06.03-.11.06-.17.09h0c-.06.03-.12.07-.18.1-.06.03-.12.07-.18.1-.06.03-.12.07-.18.1-.06.03-.11.07-.17.1,0,0,0,0,0,0-.05.03-.11.06-.16.09,0,0-.02.01-.03.02,0,0,0,0-.01,0-.05.03-.1.06-.14.09-.01,0-.02.01-.03.02-.04.03-.08.05-.12.08-.07.04-.13.08-.2.12-.06.04-.11.07-.17.11-.05.03-.1.07-.15.1-.15.1-.29.19-.44.29-.04.02-.07.05-.11.07-.07.05-.14.1-.22.15-.03.02-.07.05-.1.07-.04.02-.07.05-.1.07-.03.03-.07.05-.1.08-.03.03-.07.05-.1.08-.03.03-.07.05-.1.08-.03.02-.07.05-.1.07,0,0,0,0,0,0,0,0,0,0,0,0-.03.02-.06.05-.09.07-.04.03-.08.06-.13.1-.08.06-.16.12-.24.19-.03.02-.06.04-.08.07-.03.03-.07.05-.1.08-.03.02-.06.05-.09.07-.03.03-.07.06-.1.08-.08.07-.16.13-.24.2-.03.03-.06.05-.09.08-.06.05-.12.11-.19.16-.03.03-.06.05-.09.08-.06.05-.12.11-.18.16-.03.03-.06.05-.09.08-.03.03-.06.06-.09.08-.05.04-.09.08-.14.13-.04.04-.08.07-.12.11-.03.03-.06.06-.1.09-.03.03-.06.05-.09.08-.05.05-.1.1-.15.14-.01,0-.02.02-.03.03-.02.03-.05.05-.07.07-.03.03-.06.06-.08.08-.03.03-.06.06-.08.08-.03.03-.05.05-.08.08-.05.06-.11.11-.16.17-.05.06-.11.11-.16.17-.03.03-.05.06-.08.08.73,1.66,1.77,3.53,3.21,5.77.3.47.63.92.97,1.35,1.14,1.44,2.47,2.68,3.85,3.71,3.38,2.51,7.06,3.73,8.91,3.44.97-.15,1.43-.71,1.09-1.71-1.17-3.4-5.47-12.88-3.26-17.43.35-.71.85-1.3,1.55-1.73Z"/>
      <path class="cls-1" d="m61.81,68.84c-2.62-2.25-5.03-4.13-8.91-3.44-1.38-1.02-2.71-2.27-3.85-3.71.75-1.63,1.95-3.57,3.16-5.52,2.48-4.02,5.79-5.8,7.43-6.48-2.21,4.55,2.09,14.03,3.26,17.43.34,1-.12,1.56-1.09,1.71Z"/>
      <path class="cls-4" d="m81.06,71.74c-2.05,3.34-7.72,4.29-13.68,1.19-2.21-1.15-3.93-2.69-5.56-4.09.97-.15,1.43-.71,1.09-1.71-1.17-3.4-5.47-12.88-3.26-17.43.63-.26,1.01-.36,1.01-.36,8.75-.01,22.45,19.07,20.41,22.4Z"/>
      <path class="cls-4" d="m52.9,65.39c-.22.04-.45.09-.69.15-4.42,1.08-4.55-.85-3.16-3.85,1.14,1.44,2.47,2.68,3.85,3.71Z"/>
      <path class="cls-5" d="m104.18,72.22c-.05,1.39-4.29,1.35-9.05,2.36-7.26,1.55-4.23,3.9-21.47,4.8-12.47.66-27.52-9.23-32.66-19.62.02-.04.04-.07.06-.11.02-.04.05-.08.07-.12.02-.03.04-.06.06-.09.02-.04.05-.08.07-.12.02-.04.04-.07.06-.1,0-.02.02-.03.03-.05.04-.06.07-.12.11-.18.02-.04.05-.08.07-.11.02-.03.04-.06.06-.09.04-.07.09-.13.13-.2.02-.02.03-.05.05-.07.02-.03.04-.06.06-.09.03-.04.05-.08.08-.12.05-.08.1-.16.16-.24.02-.03.05-.07.07-.1.01-.02.02-.03.03-.05.02-.03.04-.06.06-.09.03-.04.06-.08.08-.12.03-.04.05-.08.08-.12,0,0,0,0,0,0,.03-.04.06-.08.09-.12.03-.04.06-.08.09-.12.02-.03.04-.05.06-.08.17-.23.35-.47.54-.71.02-.03.05-.06.07-.09.08-.1.15-.2.23-.29.04-.05.08-.09.11-.14.05-.07.11-.13.16-.2.03-.03.06-.07.09-.1.14-.17.29-.34.43-.5.04-.04.07-.08.11-.12.04-.04.07-.08.11-.12.03-.03.05-.06.08-.09.03-.03.05-.06.08-.09.05-.06.11-.11.16-.17.03-.03.05-.06.08-.09.73,1.66,1.77,3.53,3.21,5.77.3.47.63.92.97,1.35-1.39,3.01-1.27,4.94,3.16,3.85.24-.06.46-.11.69-.15,3.38,2.51,7.06,3.73,8.91,3.44,1.63,1.4,3.35,2.94,5.56,4.09,5.96,3.1,11.63,2.14,13.68-1.19,2.05-3.34-11.66-22.41-20.41-22.4,0,0-.38.1-1.01.36.35-.71.85-1.3,1.55-1.73.79-.48,1.68-.8,2.65-.98h0c.05,0,.1.01.15.02.02,0,.05,0,.07,0,.02,0,.05,0,.07,0,.01,0,.02,0,.03,0,.04,0,.08.01.12.02h.02s.04,0,.07.01c.02,0,.04,0,.07.01.02,0,.05,0,.07.01.02,0,.05,0,.07.01.05,0,.1.02.14.03.07.01.14.03.21.04,0,0,0,0,.01,0,.03,0,.06.01.09.02.04,0,.07.02.11.03,0,0,0,0,0,0,.09.02.18.04.27.06.04,0,.08.02.12.03,0,0,.01,0,.02,0,.04.01.09.02.13.04.04,0,.08.02.11.03,0,0,0,0,.01,0,0,0,0,0,.01,0,.04.01.08.02.13.04,0,0,0,0,0,0,0,0,0,0,0,0,.04.01.08.03.12.04s.08.03.12.04h0s0,0,.01,0c.04.01.08.03.12.04,0,0,0,0,0,0,0,0,0,0,0,0,.04.01.08.03.13.04.04.01.09.03.13.05.04.02.08.03.12.05,0,0,.01,0,.02,0,.04.01.08.03.12.04,0,0,0,0,0,0h0s.08.03.12.05c.04.02.08.03.12.05.04.02.07.03.11.05,0,0,0,0,0,0,.01,0,.02.01.04.02.03.01.06.03.1.04.04.02.08.04.12.05.04.02.07.03.11.05.02.01.05.02.07.04.03.01.06.03.09.04.03.02.07.03.1.05.04.02.08.04.13.07.04.02.08.04.13.07.07.04.15.08.22.12.04.02.08.04.12.07.03.02.05.03.08.05,0,0,0,0,0,0,0,0,0,0,0,0,.04.02.08.04.12.07.03.02.07.04.1.06.05.03.1.06.15.09.04.02.07.04.11.07.03.02.07.04.1.06,0,0,.01,0,.02.01.04.02.07.05.11.07.04.03.07.05.11.08.04.03.07.05.11.08.03.02.06.04.09.07.01,0,.02.02.03.02.03.02.05.04.08.06,0,0,0,0,.01,0,0,0,0,0,.01,0,0,0,0,0,.01,0,.03.02.06.04.09.06.04.03.07.05.11.08.02.01.04.03.05.04.02.01.04.03.05.04.02.01.04.03.05.04.02.01.04.03.05.04.05.04.11.08.16.13.11.08.21.17.31.26.05.04.1.09.16.13,0,0,0,0,0,0,.05.04.1.09.16.13.05.05.1.09.16.14.03.03.07.06.1.09.03.03.07.06.1.09l.1.09c.07.06.14.13.2.19.03.03.06.06.1.09,0,0,0,0,0,0,.03.03.07.06.1.1.03.03.06.06.09.09.03.03.06.06.09.09.03.03.06.06.09.09.03.03.06.06.08.08.03.04.07.07.1.11.02.02.03.03.05.05.03.03.07.07.1.1.03.03.07.07.1.1.03.04.07.07.1.1.05.05.1.1.14.15.01.01.02.02.03.03.04.04.08.09.12.13.07.07.13.14.2.22.1.11.2.22.3.33.03.04.07.07.1.11,0,0,0,0,0,0,.1.11.2.22.3.33.03.04.07.07.1.11.03.04.07.08.1.11.1.11.2.23.3.35.1.12.2.23.3.35.03.04.07.08.1.12.1.12.2.24.3.36.05.06.1.12.15.18.05.06.1.12.15.18.06.07.13.15.19.22.05.06.09.11.14.17,0,.01.02.02.03.04.04.05.08.1.12.15,0,0,.01.01.02.02,0,0,.02.02.02.03.03.04.06.08.1.11.07.08.14.16.21.25.04.05.08.09.12.14.1.12.2.24.31.36,0,.01.02.02.03.03.06.07.12.15.19.22.06.07.13.15.19.22.06.07.12.14.18.21.39.45.79.9,1.2,1.36.08.08.15.17.23.25.09.1.18.19.26.29.04.04.07.08.11.12.13.13.25.27.38.41.07.08.15.15.22.23.01.01.03.03.04.04.04.05.09.09.13.14.05.05.1.1.15.15.04.04.08.08.12.12.13.14.27.27.41.41.08.08.17.17.25.25.02.02.04.03.05.05.03.03.07.07.1.1.04.04.08.08.12.12.05.05.11.1.16.15.05.04.09.09.14.13.05.04.1.09.14.13.14.14.29.27.44.4.05.04.1.09.15.13.1.09.2.18.3.27.04.04.09.08.13.12,0,0,.02.02.03.02.05.04.1.09.15.13.05.05.1.09.16.13.05.05.1.09.16.13.05.05.11.09.16.13.05.04.1.09.15.13,0,0,0,0,.01.01,0,0,.02.01.02.02.04.04.09.07.13.11.05.04.11.09.16.13.05.04.1.08.15.12.06.05.11.09.17.14,0,0,0,0,0,0,.06.04.11.09.17.13.12.09.23.18.35.27.05.04.1.08.15.11.06.04.11.09.17.13.04.03.08.06.12.09,0,0,.01,0,.02.01.06.04.12.09.18.13.07.05.14.1.21.15.06.04.12.09.18.13.06.04.12.08.17.12,0,0,0,0,0,0,.12.08.24.17.36.25.12.09.25.17.38.25.12.08.25.16.37.25.06.04.13.08.19.12.14.09.27.18.41.26.06.04.11.07.17.11.06.04.13.08.19.12,0,0,.01,0,.02.01.06.03.11.07.17.1.02,0,.03.02.05.03.06.03.11.07.17.1,0,0,.01,0,.02,0,.05.03.11.06.16.1.02.01.04.03.07.04,0,0,.01,0,.02.01.05.03.1.06.14.08,0,0,0,0,0,0,0,0,0,0,0,0,0,0,.02.01.03.02.06.03.12.07.18.1.07.04.14.08.21.12.05.03.11.06.16.09l.1.05c.06.03.11.06.17.09.05.03.1.05.14.08,0,0,0,0,0,0,.04.02.07.04.11.06.13.07.26.14.4.21.07.04.15.08.22.11.08.04.16.08.24.12.13.07.26.13.4.2.04.02.07.04.11.05,0,0,0,0,0,0,.05.03.1.05.16.08.08.04.15.07.23.11.08.04.16.07.23.11.08.04.16.07.24.11.08.03.16.07.24.11.08.04.16.07.24.11.08.03.16.07.23.1,0,0,0,0,0,0,0,0,0,0,.01,0,.06.03.12.05.19.08.03.01.07.03.1.04.06.03.13.06.2.08.07.03.14.06.2.08,0,0,.02,0,.03.01.01,0,.03.01.04.02.05.02.11.04.16.06.05.02.1.04.14.06.04.02.08.03.12.05.03.01.06.02.09.03.07.03.13.05.2.08.01,0,.02,0,.03.01.07.03.13.05.2.08.02,0,.05.02.07.03.05.02.11.04.16.06.33.12.66.24,1,.36.04.01.08.03.12.04.07.02.13.05.2.07.06.02.12.04.18.06.06.02.13.04.19.06.06.02.12.04.18.06.13.04.27.09.4.13.07.02.13.04.2.06.07.02.13.04.2.06.08.03.16.05.25.08.09.03.17.05.26.08.07.02.14.04.21.06.05.01.1.03.15.04.15.04.29.08.44.13.04.01.09.02.13.04.03,0,.06.02.09.02.04.01.09.02.13.04.18.05.37.1.55.15.07.02.13.04.2.05.08.02.17.04.26.06.04.01.09.02.13.03.16.04.33.08.49.12.1.02.21.05.31.07.09.02.19.04.29.07.06.01.13.03.19.04.1.02.21.05.31.07.16.04.33.07.49.11.04,0,.09.02.14.03.12.02.24.05.36.07.06.01.11.02.17.03.11.02.22.04.33.06.06.01.11.02.17.03.01,0,.03,0,.04,0,.1.02.2.04.3.05.08.01.15.03.23.04.08.01.16.03.25.04.07.01.14.02.2.04Z"/>
      <path class="cls-13" d="m44.88,54.56s-.05.06-.08.09c-.05.06-.11.11-.16.17-.03.03-.05.06-.08.09-.03.03-.05.06-.08.09-.04.04-.07.08-.11.12-.04.04-.07.08-.11.12-.15.17-.29.34-.43.5-.03.03-.06.07-.09.1-.06.07-.11.13-.16.2-.04.05-.08.09-.11.14-.08.1-.16.2-.23.29-.02.03-.05.06-.07.09-.19.24-.36.48-.54.71-.02.03-.04.05-.06.08-.03.04-.06.08-.09.12-.03.04-.06.08-.09.12,0,0,0,0,0,0-.03.04-.05.08-.08.12-.03.04-.06.08-.08.12-.02.03-.04.06-.06.09-.01.02-.02.03-.03.05-.02.03-.05.07-.07.1-.05.08-.11.16-.16.24-.03.04-.05.08-.08.12-.02.03-.04.06-.06.09-.02.02-.03.05-.05.07-.04.07-.09.13-.13.2-.02.03-.04.06-.06.09-.02.04-.05.07-.07.11-.04.06-.07.12-.11.18,0,.02-.02.03-.03.05-.02.03-.04.07-.06.1-.02.04-.05.08-.07.12-.02.03-.04.06-.06.09-.02.04-.05.08-.07.12-.02.04-.04.07-.06.11-.94-1.89-1.54-3.8-1.75-5.67-.35-1.5-.63-4.01-.88-6.14h0c.21-.51.43-.97.64-1.39.02-.04.04-.07.05-.11.01-.02.02-.04.03-.06.02-.04.04-.08.06-.12.06-.12.13-.23.19-.35.01-.02.02-.04.03-.06.11-.19.22-.36.33-.53.01-.02.02-.03.03-.05s.02-.03.03-.05c.03-.05.07-.1.1-.15.03-.05.07-.09.1-.14,0,0,0,0,0,0,.02-.03.04-.05.06-.08,0,0,0-.01.01-.02.02-.02.04-.05.06-.07.01-.01.02-.03.03-.04.01-.01.02-.03.03-.04.02-.03.04-.05.06-.08.04-.05.08-.09.11-.14.03-.04.07-.08.1-.12,0,0,0,0,.01-.01.02-.02.04-.04.06-.06.02-.03.05-.05.07-.08.02-.02.04-.04.07-.07.03-.03.05-.05.08-.08.05-.05.1-.09.15-.14.02-.02.05-.05.07-.07.02-.02.05-.04.08-.07.02-.02.05-.04.07-.06,0,0,0,0,0,0,.02-.02.05-.04.07-.06.03-.02.05-.04.08-.06,0,0,0,0,0,0,.03-.02.05-.04.08-.06.02-.02.05-.04.07-.06,0,0,.01-.01.02-.01.02-.02.04-.03.06-.05.02-.02.05-.04.07-.05.02-.01.03-.03.05-.04.07-.04.13-.09.2-.13.03-.02.06-.03.08-.05.02-.01.04-.02.06-.04.01,0,.02-.01.03-.02.02,0,.03-.02.05-.03.04-.02.08-.05.12-.07.02-.01.04-.02.06-.03.03-.01.05-.03.08-.04.02-.01.05-.02.07-.04.04-.02.07-.04.11-.05.02-.01.04-.02.06-.03.09-.04.18-.08.27-.12.02,0,.04-.02.07-.03.03-.01.05-.02.08-.03.03-.01.05-.02.08-.03.02,0,.05-.02.07-.03.02,0,.05-.02.07-.03.02,0,.05-.02.07-.03.02,0,.05-.02.07-.03.02,0,.03-.01.05-.02.02,0,.04-.02.07-.02.06-.02.12-.04.19-.06-.08.3-.14.62-.17.97-.38,4.21-.46,7.06,1.38,11.21Z"/>
      <path class="cls-5" d="m43.67,42.39c-.06.02-.12.04-.19.06-.02,0-.04.02-.07.02-.02,0-.03.01-.05.02-.02,0-.05.02-.07.03-.02,0-.05.02-.07.03-.02,0-.05.02-.07.03-.02,0-.05.02-.07.03-.03.01-.06.02-.08.03-.03.01-.05.02-.08.03-.02,0-.04.02-.07.03-.09.04-.18.08-.27.12-.02,0-.04.02-.06.03-.04.02-.07.04-.11.05-.02.01-.05.02-.07.04-.03.01-.05.03-.08.04-.02,0-.04.02-.06.03-.04.02-.08.04-.12.07-.02,0-.03.02-.05.03-.01,0-.02.01-.03.02-.02.01-.04.02-.06.04-.03.02-.06.03-.08.05-.07.04-.13.09-.2.13-.02.01-.04.02-.05.04-.02.02-.05.03-.07.05-.02.01-.04.03-.06.05,0,0-.01,0-.02.01-.02.02-.05.04-.07.06-.03.02-.05.04-.08.06,0,0,0,0,0,0-.03.02-.05.04-.08.06-.02.02-.05.04-.07.06,0,0,0,0,0,0-.02.02-.05.04-.07.06-.03.02-.05.04-.08.07-.02.02-.05.05-.07.07-.05.04-.1.09-.15.14-.03.03-.05.05-.08.08-.02.02-.04.04-.07.07-.02.03-.05.05-.07.08-.02.02-.04.04-.06.06,0,0,0,0-.01.01-.03.04-.07.08-.1.12-.04.04-.08.09-.11.14-.02.03-.04.05-.06.08-.01.01-.02.03-.03.04-.01.01-.02.03-.03.04-.02.02-.04.05-.06.07,0,0,0,.01-.01.02-.02.03-.04.05-.06.08,0,0,0,0,0,0-.03.05-.07.09-.1.14-.03.05-.07.1-.1.15-.01.02-.02.03-.03.05s-.02.03-.03.05c-.11.17-.22.34-.33.53-.01.02-.02.04-.03.06-.07.11-.13.23-.19.35-.02.04-.04.08-.06.12-.01.02-.02.04-.03.06-.02.03-.04.07-.05.11-.22.42-.43.88-.64,1.39-.19-1.63-.37-3.04-.55-3.6-1.22-3.8-1.91-5.95-3.42-6.78,0,0,0,0,0,0-1.08-.52-2.07-1.14-2.94-1.84,0,0,.04,0,.12,0,0,0,.02,0,.02,0,.04,0,.08,0,.13,0,0,0,.01,0,.02,0h0s.01,0,.02,0c.01,0,.02,0,.04,0,0,0,.01,0,.02,0h0s.03,0,.04,0c.04,0,.07,0,.12,0,.01,0,.03,0,.04,0,.05,0,.1,0,.16-.01.01,0,.03,0,.04,0,.03,0,.06,0,.09,0,.02,0,.04,0,.06,0,.01,0,.02,0,.03,0,.02,0,.04,0,.06,0,0,0,.01,0,.02,0,.07,0,.14-.01.22-.02.04,0,.08,0,.13,0,.05,0,.1,0,.15-.01.05,0,.11,0,.16-.01.27-.02.56-.05.88-.08.04,0,.08,0,.13-.01.09,0,.19-.02.28-.03.05,0,.09,0,.14-.02,0,0,0,0,0,0,.07,0,.14-.01.21-.02h0s.09-.01.14-.01c.09,0,.18-.02.27-.03.09,0,.19-.02.28-.03.04,0,.08,0,.12-.01.04,0,.08,0,.11-.01.14-.02.28-.03.42-.05.03,0,.06,0,.1-.01.03,0,.05,0,.07,0,.06,0,.12-.01.17-.02.23-.03.47-.06.72-.09.06,0,.12-.02.18-.02.22-.03.44-.06.66-.09.06,0,.13-.02.19-.03.02,0,.04,0,.06,0,.04,0,.07,0,.11-.01.07-.01.15-.02.22-.03,1.75.79,3.92,1.52,6.46,1.9,6.9,1.05-.15.63-1.44,5.51Z"/>
      <path class="cls-6" d="m40.92,43.93c-.05.05-.1.09-.15.14.05-.05.1-.1.15-.14Z"/>
      <path class="cls-13" d="m38.65,34.98c-.07,0-.15.02-.22.03-.04,0-.07,0-.11.01-.02,0-.04,0-.06,0-.06,0-.13.02-.19.03-.22.03-.44.06-.66.09-.06,0-.12.02-.18.02-.25.03-.48.06-.72.09-.06,0-.12.01-.17.02-.02,0-.05,0-.07,0-.03,0-.06,0-.1.01-.14.02-.28.03-.42.05-.04,0-.07,0-.11.01-.04,0-.08,0-.12.01-.09.01-.19.02-.28.03-.09,0-.18.02-.27.03-.05,0-.09,0-.14.01h0c-.07,0-.14.01-.21.02,0,0,0,0,0,0-.05,0-.1.01-.14.02-.1,0-.19.02-.28.03-.04,0-.09,0-.13.01-.32.03-.61.06-.88.08-.06,0-.11,0-.16.01-.05,0-.11,0-.15.01-.04,0-.09,0-.13,0-.08,0-.15.01-.22.02,0,0-.02,0-.02,0-.02,0-.04,0-.06,0-.01,0-.02,0-.03,0-.02,0-.04,0-.06,0-.03,0-.06,0-.09,0-.01,0-.03,0-.04,0-.06,0-.11,0-.16.01-.01,0-.03,0-.04,0-.04,0-.08,0-.12,0-.02,0-.03,0-.04,0h0s-.01,0-.02,0c-.01,0-.02,0-.04,0,0,0-.01,0-.02,0h0s-.01,0-.02,0c-.05,0-.1,0-.13,0,0,0-.02,0-.02,0-.08,0-.12,0-.12,0-1.05-.84-1.93-1.81-2.62-2.91,1.2-.69,2.74-1.07,4.66-1.05,0,0,1.84,1.71,5.16,3.21Z"/>
      <path class="cls-6" d="m35.23,35.41c-.09.01-.18.02-.27.03.09,0,.18-.02.27-.03Z"/>
      <path class="cls-11" d="m68.7,19.41s1.07.18,1.79,1.25l-1.43.92.89,1.73h-.89s.6,3.86.77,6.72c.03.48.17,1.07.4,1.74-.74.14-1.56.25-2.44.35-1.69-5.36-.63-7.86-.63-7.86l-.27-1.34.98-.45-.89-.89.89-1.34-.98.09c0-.36.98-2.84.98-2.84l-1.07.87c0-.54.36-2.5.36-2.5l-.72.89v-3.67l-1.34,2.5c0-.8,1.34-5.09,1.34-5.09-.89.54-1.52,1.34-1.52,1.34-.18-.45,0-3.04,0-3.04-.98.89-1.91,3.31-1.91,3.31-.84-.72-.68-3.84-.68-3.84-1.34.54-2.06,2.95-2.06,2.95-.89-.72-.72-2.24-.72-2.24-1.07.72-1.61,3.04-1.61,3.04-1.25-.89-1.52-3.84-1.52-3.84-.71.54-1.16,2.77-1.16,2.77-1.16-.54-1.52-3.67-1.52-3.67-.98,1.43-1.34,3.84-1.34,3.84-.8-.27-1.79-2.5-1.79-2.5-1.07.71-1.41,2.23-1.41,2.23-.7-1.25-1.12-3.22-1.12-3.22-.92.8-1.94,4.11-1.94,4.11-.45-.63-.63-5.01-.63-5.01-1.06,1.27-1.25,4.2-1.25,4.2-.36-.63-.54-3.4-.54-3.4-.8.89-.98,2.5-.98,2.5-1.25-.98-1.13-2.5-1.13-2.5-1.22.54-2.35,3.75-2.35,3.75-.72-.72-.9-2.77-.9-2.77l-1.6,1.52-.54-1.88c-.89.72-2.49,5.1-2.49,5.1v-2.44c-2.07,3.75-4.82,15.31-4.82,15.31-.58.12-1.14.23-1.69.33.05-1,.22-2.06.52-3.16,0,0,.03-.17.1-.47.07-.3.18-.73.36-1.25,0,0,1.75-12.05,6.64-19.91,0,0-.29,3.1-.44,5.01,0,0,1.04-4.53,4.85-6.67l-1.65,3.86,2.68-1.96s-.54,3.04,0,4.47c0,0,.68-4.32,2.49-6.36,0,0-.55,2.97,0,4.75,0,0,.91-2.14,1.98-3.22v2.14s1.43-2.89,3.39-3.68c0,0-1.32,2.97-1.55,5.47,0,0,.84-2.68,3.16-3.93,0,0-.36,1.79,0,3.93,0,0,1.43-1.97,2.5-2.5,0,0-.54,2.14,0,3.75,0,0,1.43-4.68,4.47-6.72,0,0-1.07,3.14-1.07,5.11,0,0,1.07-2.14,2.5-3.04,0,0-.71,4.65,0,6.08,0,0,1.07-2.5,2.86-3.57v2.5s1.79-3.75,3.4-4.65c0,0-.54,1.79,0,4.29,0,0,.71-2.15,2.5-2.86,0,0-.71,2.5,0,5,0,0,1.25-1.97,3.04-3.04l-1.61,3.75,1.61-.89s-1.25,3.04-1.79,4.11l1.79-2c-.02.06-1.61,3.8-1.79,4.68,0,0,.71-1.43,1.79-1.79l-.71,3.04,1.97-.18s-1.79,1.61-2.5,2.86Z"/>
      <path class="cls-11" d="m119.23,75.42c-6.24-1.09-23.92-7.54-28.03-10.13-4.83-3.04-6.52-9.83-11.71-14.57-4.47-4.08-6.81-7.36-9.37-12.88.07-.02.14-.03.2-.05.1-.03.2-.05.3-.08.03,0,.07-.02.1-.03.03,0,.07-.02.1-.03.19-.05.38-.11.57-.17.03,0,.05-.02.08-.02.07-.02.14-.04.2-.07.03-.01.07-.02.11-.03.16-.06.32-.11.47-.17.04-.01.07-.03.11-.04.11-.04.22-.09.32-.13.01,0,.03-.01.04-.02.06-.02.11-.05.17-.07.03-.01.06-.03.1-.04,1.68,2.47,3.93,5.14,6.52,7.47,4.16,3.76,7.5,9.25,10.6,13.53.76,1.05,1.51,2.03,2.26,2.89.24.27.48.54.72.8.02.02.03.03.04.05,1.42,1.56,2.74,2.98,3.95,4.17.01,0,8.93,3.7,15.44,6.5,3.29,1.41,5.97,2.6,6.57,2.96.13.08.18.14.15.17Z"/>
      <path class="cls-6" d="m72.98,36.88s-.06.03-.1.04c-.05.02-.11.05-.17.07-.01,0-.03.01-.04.02-.1.04-.21.09-.32.13-.04.01-.07.03-.11.04-.15.06-.31.11-.47.17-.03.01-.07.02-.11.03-.07.02-.13.04-.2.07-.03,0-.05.02-.08.02-.18.06-.37.11-.57.17-.03,0-.06.02-.1.03-.03,0-.07.02-.1.03-.1.03-.2.05-.3.08-.07.02-.14.03-.2.05-.41-.89-.83-1.84-1.27-2.86-.44-1.03-.79-1.98-1.06-2.86.88-.09,1.69-.21,2.44-.35.5,1.42,1.46,3.21,2.75,5.11Z"/>
      <path class="cls-6" d="m70.33,37.79c.1-.03.2-.05.3-.08-.1.03-.2.05-.3.08Z"/>
      <path class="cls-12" d="m38.43,25.73c0,2.55,2.06,4.61,4.61,4.61s4.61-2.06,4.61-4.61-2.06-4.61-4.61-4.61-4.61,2.06-4.61,4.61Z"/>
      <path class="cls-14" d="m45.6,25.73c0-1.74-1.41-3.16-3.16-3.16s-3.16,1.41-3.16,3.16,1.41,3.16,3.16,3.16,3.16-1.41,3.16-3.16Z"/>
      <path class="cls-6" d="m45.6,22.98c0-.58-.47-1.05-1.05-1.05s-1.05.47-1.05,1.05.47,1.05,1.05,1.05,1.05-.47,1.05-1.05Z"/>
      <path class="cls-6" d="m36.53,22.56s-2-1.22-2.78.85c-.79,2.07,4.78.38,2.78-.85Z"/>
      <path class="cls-8" d="m28.27,25.09S7.65,29.54,0,33.67c0,0,24.33-3.49,30.29-3.18,5.96.32,5.63-2.86-2.02-5.4Z"/>
      <path class="cls-14" d="m26.93,30.56s-18.94,6.92-24.27,8.51c0,0,21-2.79,27.63-4.26,6.63-1.46,4.1-5.43,4.1-5.43l-7.46,1.18Z"/>
      <path class="cls-2" d="m26.14,26.33s-10.72,2.26-13.35,3.57c-2.62,1.31,6.08-.1,10.96-.53,4.89-.43,7.18-4.13,2.38-3.05Z"/>
      <path class="cls-8" d="m27.22,32.53s-6.44,1.79-8.94,2.5c-2.5.71,2.62.36,5.6,0,2.98-.36,7.55-3.68,3.34-2.5Z"/>
      <path class="cls-7" d="m87.29,80.61c-15.84-5.98-28.47-24.13-28.41-30.72,0-.74.08-1.38.19-1.94,0,0,2.76-3.45,10.75-1.08,7.98,2.37,17.19,10.79,18.93,16.32,1.53,4.87,4.34,15.33,11.32,20.37.26,1.74-2.82.81-12.79-2.95Z"/>
      <path class="cls-11" d="m100.08,83.56c-6.98-5.04-9.79-15.5-11.32-20.37-1.74-5.53-10.95-13.95-18.93-16.32-7.98-2.37-10.75,1.08-10.75,1.08.92-4.4,4.83-3.48,4.83-3.48,11.56-1.14,17.86,5.93,23.36,12.58,5.5,6.66,4.88,13.01,9.6,20.69,1.75,2.84,3.06,4.8,3.21,5.82Z"/>
      <path class="cls-13" d="m61.54,52.31s.17.28.5.81c.33.53.83,1.29,1.49,2.26.66.97,1.49,2.13,2.48,3.45,1,1.32,2.16,2.79,3.5,4.36s2.85,3.23,4.55,4.93c1.7,1.69,3.59,3.42,5.68,5.09,2.09,1.67,4.38,3.27,6.87,4.71,2.5,1.43,5.2,2.67,8.08,3.59,0,0-.12-.04-.34-.1-.11-.03-.25-.07-.42-.12-.16-.05-.35-.11-.56-.18-.85-.27-2.07-.69-3.52-1.32-.18-.08-.37-.16-.56-.25-.05-.02-.1-.04-.14-.06-.05-.02-.09-.04-.14-.07-.1-.05-.19-.09-.29-.14-.1-.05-.2-.09-.3-.14-.05-.02-.1-.05-.15-.07-.05-.02-.1-.05-.15-.07-.2-.1-.41-.2-.62-.31-.83-.43-1.7-.9-2.61-1.44-.9-.54-1.82-1.13-2.76-1.77-.94-.64-1.89-1.34-2.83-2.08-1.89-1.49-3.77-3.16-5.55-4.94-1.78-1.78-3.48-3.66-5.02-5.55-.77-.95-1.51-1.89-2.2-2.83-.69-.94-1.35-1.86-1.95-2.76-.61-.9-1.16-1.77-1.67-2.61-.25-.42-.49-.83-.72-1.23-.23-.4-.44-.79-.63-1.16Z"/>
      <path class="cls-13" d="m66.9,57.2s.15.2.45.58c.3.38.73.94,1.31,1.64.58.7,1.29,1.55,2.14,2.52.85.96,1.83,2.04,2.93,3.19,1.11,1.15,2.35,2.38,3.72,3.65,1.37,1.26,2.88,2.55,4.53,3.81.83.63,1.69,1.25,2.59,1.85.9.6,1.84,1.18,2.81,1.72.98.54,1.99,1.04,3.05,1.49,1.06.45,2.15.83,3.28,1.14,0,0-.09-.02-.27-.07-.09-.02-.2-.05-.33-.08-.07-.02-.13-.04-.21-.06-.07-.02-.15-.04-.24-.07-.66-.19-1.62-.49-2.76-.97-1.14-.47-2.46-1.11-3.86-1.93-1.4-.82-2.89-1.8-4.38-2.92-1.49-1.12-2.98-2.37-4.42-3.69-1.44-1.32-2.82-2.71-4.11-4.1-.64-.69-1.26-1.39-1.85-2.07-.59-.68-1.15-1.36-1.68-2.01-.53-.66-1.02-1.29-1.47-1.9-.45-.61-.87-1.19-1.23-1.74Z"/>
      <path class="cls-13" d="m75.48,65.23s.29.35.86.94c.57.58,1.43,1.4,2.54,2.31,1.11.91,2.48,1.93,4.06,2.92,1.58.99,3.37,1.97,5.29,2.84,0,0-.16-.06-.45-.17-.29-.11-.71-.28-1.22-.5-.51-.22-1.11-.49-1.76-.83-.33-.16-.66-.35-1.01-.53-.17-.1-.35-.2-.53-.3-.04-.03-.09-.05-.13-.08-.04-.03-.09-.05-.13-.08-.09-.05-.18-.11-.27-.16-.72-.43-1.45-.92-2.17-1.43-.71-.52-1.41-1.07-2.05-1.63-.32-.28-.63-.57-.92-.85-.15-.14-.29-.28-.43-.42-.14-.14-.27-.28-.4-.42-.26-.28-.49-.55-.71-.82-.22-.27-.41-.53-.57-.77Z"/>
    </g>
  </g>
</svg>