<?xml version="1.0" encoding="UTF-8"?>
<svg id="Layer_2" data-name="Layer 2" xmlns="http://www.w3.org/2000/svg" viewBox="0 0 549 395.98">
  <defs>
    <style>
      .cls-1 {
        fill: #444545;
      }

      .cls-1, .cls-2, .cls-3, .cls-4, .cls-5, .cls-6 {
        stroke-width: 0px;
      }

      .cls-3 {
        fill: #2b2b2b;
      }

      .cls-4 {
        fill: #fff;
      }

      .cls-5 {
        fill: #231f20;
      }

      .cls-6 {
        fill: #f1f2f2;
      }
    </style>
  </defs>
  <g id="SCORPION">
    <g>
      <path class="cls-2" d="m116.32,311.19s-.47,18.19-18.39,23.85c-17.92,5.66-80.18,7.55-95.27-16.98,0,0,18.86,7.07,29.24,1.89,10.38-5.19,15.56-39.91,41.03-37.64,25.47,2.27,44.8,16.35,43.39,28.88Z"/>
      <path class="cls-2" d="m198.77,308.04c-.17,4.1-1.13,8.81-3.23,14.06-7.54,18.96-55.96,22.54-75.46,13.1-19.07-9.23-26.11-29.29-1.65-44.88,0,0,3.25,12.25,2.56,17.73-.7,5.49,10.14,14.26,28.46,14.52,18.32.28,41.2-2.32,49.3-14.52,0,0,0-.01.01-.01Z"/>
      <path class="cls-2" d="m112.54,311.26c-6.28,5-50.29,8.85-70.43-12.11-19.8-20.64-41.44-10.81-42.11-10.5,0-.01.01-.03.03-.06.52-.73,5.7-7.29,24.39-5.31,19.79,2.09,34.67,24.38,64.23,24.76,19.6.25,24.87-9.7,25.79-19.35,1.26,1.9,1.89,3.06,1.89,3.06,3.77,12.51,2.51,14.52-3.78,19.51Z"/>
      <path class="cls-3" d="m114.44,288.7c-.92,9.65-6.19,19.6-25.79,19.35-29.56-.38-44.44-22.66-64.23-24.76-18.7-1.98-23.88,4.58-24.39,5.31,8.2-18.82,29.56-31.37,63.47-31.37,27.73,0,45.39,23.02,50.94,31.47Z"/>
      <path class="cls-1" d="m66.08,260.48s-37.7-3.72-56.55,18.85c0,0,25.15-13.11,49.69,2.87,24.54,15.98,47.3,14.16,47.35,5.28.04-8.88-24.42-27.28-40.49-26.99Z"/>
      <path class="cls-3" d="m198.77,308.04s-.01.01-.01.01c-8.1,12.2-30.98,14.8-49.3,14.52-18.32-.27-29.15-9.03-28.46-14.52.7-5.49-2.56-17.73-2.56-17.73.53-.35,1.08-.68,1.65-1.02,26.4-15.72,69.8,0,69.8,0,4.36,1.37,9.33,8,8.88,18.74Z"/>
      <path class="cls-1" d="m163.75,286.91s-25.83-3.63-38.63,2.61c0,0,2.79,6.86,2.09,12.13-.7,5.27,58.29,5.51,63,1.78,4.72-3.72,2.39-11.17-26.47-16.52Z"/>
      <path class="cls-2" d="m470.77,178.57s19.07,47.93-23.28,78.19c0,0,0,64.69-80.52,73.53,0,0-26.53,25.13-75.4,21.42,0,0-22.8,36.3-118.21,18.15,0,0-33.99-46.12,3.25-79.84,0,0,36.3-31.56,99.14-9.15,0,0,4.33-4.8,12.18-10.26,3.18,10.26,10.93,35.88,11.21,42.81.35,8.73,25.05,1.1,26.84-5.38,1.79-6.49,5.28-12.08,12.61-13.47,7.33-1.4,11.87,3.49,11.87,6.63s4.19,4.54,5.59-1.75c1.4-6.28.35-28.74-5.59-35.66-5.93-6.93,3.14-.99,8.03,5.64,4.89,6.63,3.49,24.09,7.33,25.13s32.11-1.4,49.92-21.64,15.36-45.38-8.03-54.46c-23.39-9.08,20.25-2.09,25.83,12.57,5.59,14.66,20.6-4.89,24.09-18.85,3.49-13.96,3.49-35.26-5.24-41.54-8.73-6.28-13.96-11.17-4.19-8.38,9.77,2.79,14.31,10.47,19.9,2.09,5.59-8.38,8.03-25.48,2.79-37-5.24-11.52-20.6-11.87-14.31-11.87s9.08,2.44,15.36-7.68c6.28-10.12,5.59-38.75-.35-43.98-5.93-5.24-10.47-2.44-14.66,0-4.19,2.44-9.42,3.56-9.42,3.56,0,0-.03,0-.1-.01-.01,0-.04,0-.07-.01-2.71-.53-38.66-8.03-31.95-33.55,0,0-36.3,13.96-71.21,0,0,0,8.38,27.93-16.76,47.47,0,0,5.59,23.74,4.19,39.1-1.35,14.88-35.47,39.91-37.6,41.46,1.93-1.68,32.14-28.05,29.67-44.95-2.54-17.45-1.15-37-9.87-37.35-8.73-.35,3.84.35,14.66-21.99,10.82-22.34,9.38-31.86,4.89-36.65-4.5-4.79,4.89,5.93,40.49,5.93s40.14-2.44,43.98-5.24c3.84-2.79.7,17.1,27.93,23.39,26.6,6.14,26.91-5.93,26.91-6.49,1.66,5.05,2.46,11.11,2.07,18.36,0,0,30.22,26.53.1,60.74,0,0,17.82,27.46-4.05,60.98Z"/>
      <path class="cls-3" d="m470.88,127.37c5.24,11.52,2.79,28.62-2.79,37-5.59,8.38-10.12.7-19.9-2.09-9.77-2.79-4.54,2.09,4.19,8.38,8.73,6.28,8.73,27.58,5.24,41.54-3.49,13.96-18.5,33.51-24.09,18.85-5.59-14.66-49.22-21.64-25.83-12.57,23.39,9.08,25.83,34.21,8.03,54.46s-46.08,22.69-49.92,21.64-2.44-18.5-7.33-25.13c-4.89-6.63-13.96-12.57-8.03-5.64,5.93,6.93,6.98,29.38,5.59,35.66-1.4,6.28-5.59,4.89-5.59,1.75s-4.54-8.03-11.87-6.63c-7.33,1.4-10.82,6.98-12.61,13.47-1.79,6.48-26.49,14.1-26.84,5.38-.28-6.93-8.03-32.55-11.21-42.81,11.07-7.74,29.17-16.78,52.05-15.53,0,0,15.36-42.54,54.46-42.54,0,0-12.57-40.49,37.7-53.06,0,0-2.79-26.53,15.36-43.28,0,0-20.94-30.58,0-48.8,0,0,5.24-1.12,9.42-3.56,4.19-2.44,8.73-5.24,14.66,0,5.93,5.24,6.63,33.86.35,43.98-6.28,10.12-9.08,7.68-15.36,7.68s9.08.35,14.31,11.87Z"/>
      <path class="cls-3" d="m293.9,118.99c-19.55-20.94,9.77-41.89,9.77-41.89,0,0-12.57-46.08,29.32-62.83,0,0,49.57-32.11,85.87,0,0,0,43.52-7.25,53.78,24.21h0c0,.57-.31,12.65-26.91,6.51-27.23-6.28-24.09-26.18-27.93-23.39-3.84,2.79-8.38,5.24-43.98,5.24s-44.99-10.72-40.49-5.93c4.5,4.79,5.93,14.31-4.89,36.65-10.82,22.34-23.39,21.64-14.66,21.99,8.73.35,7.33,19.9,9.87,37.35,2.47,16.9-27.74,43.27-29.67,44.95-.03.01-.06.04-.07.06.77-.91,19.12-22.4-.03-42.91Z"/>
      <path class="cls-3" d="m292.48,324.58h0c-13.99,30.37-53.38,22.35-55.13,21.14-1.75-1.21-21.29-16.94-38.55-19.03-17.27-2.09-21.49,3.84-29.17,8.38-7.68,4.54-25.79-2.33-25.79-2.33-.64-7.02-.27-15.09,1.59-24.31,0,0,14.42-25.13,57.71-37.7,43.28-12.57,77.26-4.19,79.59-4.19s13.13,35.86,9.75,58.04Z"/>
      <path class="cls-2" d="m292.48,324.6c-.11.84-.27,1.65-.43,2.44-4.66,21.88-13.04,37.24-25.61,45.14-12.57,7.92-80.05,11.1-96.34,2.76,0,0-23.37-10.57-26.25-42.21,0,0,18.11,6.87,25.79,2.33,7.68-4.54,11.9-10.47,29.17-8.38,17.26,2.09,36.81,17.82,38.55,19.03,1.75,1.21,41.13,9.23,55.13-21.13Z"/>
      <path class="cls-1" d="m148.51,308.05s38.35-46.16,132.36-37.79c0,0,15.97,36.95,7.06,47.1-8.92,10.15-48.94,2.88-65.23,0-16.29-2.88-45.15-6.47-53.99-2.15s-15.43,7.61-20.2,6.69c-4.77-.92,0-13.84,0-13.84Z"/>
      <path class="cls-1" d="m325.32,262.3s-22.69,2.24-28.62,9.94c-5.93,7.69,2.09,22.34,14.31,20.6,12.22-1.75,30.51-7.35,33.41-15.19,2.9-7.84-1.64-16.9-19.1-15.34Z"/>
      <path class="cls-1" d="m390.16,216.73s-19.46,5.93-28.54,17.8c-9.08,11.87-7.33,18.5,0,24.44s9.08,10.82,25.83,6.63c16.76-4.19,24.28-30.37,22.26-38.75s-13.44-12.41-19.56-10.12Z"/>
      <path class="cls-1" d="m430.04,165.77s-16.06-1.4-24.78,16.76c-8.73,18.15-7.54,26.18,4.78,26.18s13.72,8.03,23.14,4.54c9.42-3.49,12.57-15.71,12.22-26.53-.35-10.82-1.94-20.28-15.36-20.94Z"/>
      <path class="cls-1" d="m453.08,120.16s-11.87,1.4-15.82,16.76c-3.96,15.36-1.86,20.48,3.72,19.55,5.59-.93,10.94,3,15.82.11,4.89-2.9,5.35-11.74,5.59-23.84.23-12.1-6.74-13.25-9.31-12.57Z"/>
      <path class="cls-1" d="m451.22,71.52s-7.1,2.22-9.08,15.59c-1.98,13.37,2.39,22.11,6.66,22.81s2.41-.7,7.07,0c4.65.7,6.75-7.94,7.68-19.1.93-11.15,1.16-26.05-12.33-19.3Z"/>
      <path class="cls-1" d="m426.78,18.46s.93,10.01,20.48,15.59c19.55,5.59,23.5,5.59,20.25,0-3.26-5.59-23.74-20.71-40.73-15.59Z"/>
      <path class="cls-1" d="m341.14,14.74s40.03-25.37,73.54,0c0,0-18.85,4.29-36.77,4.94-17.92.65-36.77-4.94-36.77-4.94Z"/>
      <path class="cls-1" d="m323.68,23.12s-11.82,7-16.74,20.94c-4.92,13.95-1.16,28.39,0,30.02,1.16,1.63,12.78-13.03,16.74-27.23,3.97-14.2,0-23.74,0-23.74Z"/>
      <path class="cls-1" d="m300.89,84.09s-11.63,7.1-11.64,17.69c0,10.59,13.91,21.41,15.22,26.06,1.31,4.65-2.88,20.94,2.93,14.43,5.82-6.52,10.7-22.11,6.52-39.1-4.19-16.99-8.94-22.26-13.03-19.08Z"/>
      <circle class="cls-6" cx="157.72" cy="322.14" r="17.41" transform="translate(-111.27 84.88) rotate(-22.5)"/>
      <circle class="cls-5" cx="155.33" cy="322.59" r="12.45" transform="translate(-111.63 84) rotate(-22.5)"/>
      <circle class="cls-4" cx="163.94" cy="314.13" r="4.76"/>
      <path class="cls-3" d="m529.37,295.9c-29.82,4.24-46.51-31.23-50.01-26.66-3.5,4.57-36.99,35.91-49.08,39.57-12.11,3.66-17.87-7.37-17.87-7.37,0,0-7.74-12.51,3.02-11,10.75,1.51,4.69,15.76,10.28,12.23,5.59-3.53,49.07-42.28,58.91-40.3,9.83,1.97,42.49,27.88,42.49,27.88.84,1.51,1.59,3.42,2.28,5.64Z"/>
      <path class="cls-2" d="m549,381.48c-9.44-5.49-21.34-.87-21.34-.87-11.69-16.24-6.69-78.58-6.69-78.58-18.79-.81-42.66-25.16-42.66-25.16-6.27,12.34-43.95,38.31-54.52,39.04-10.58.71-11.39-14.47-11.39-14.47,0,0,5.77,11.03,17.87,7.37,12.09-3.66,45.57-35,49.08-39.57,3.5-4.58,20.19,30.9,50.01,26.66,6.73,22.21,5.36,75.79,5.36,75.79,13.08-1.48,14.27,9.79,14.27,9.79Z"/>
      <path class="cls-1" d="m427.63,304.73s23.36-13.76,36.62-24.93c13.26-11.17,13.03-13.85,18.38-12.63,5.35,1.22,16.51,19.09,30.49,21.09,13.98,2,8.61,2.4,3.26-2.45-5.35-4.85-30.49-21.14-33.98-21.14s-21.88,12.84-37.47,24.92c-15.59,12.08-25.31,17.72-17.31,15.13Z"/>
      <path class="cls-2" d="m427.63,388.91s-6.63-2.53-14.12-.43c-7.47,2.09-13.28-4.19-13.28-4.19-7.47-15.36,9.68-53.06,9.68-53.06-18.56-7.68-22.13-30.72-22.13-30.72,0,0-12.45,37.7-24.91,36.3-12.45-1.4-9.97-11.87-9.97-11.87,3.32,3.14,8.73,1.4,8.73,1.4,0,0,1.16.7,11.63-10.01,10.47-10.7,11.17-21.35,13.5-23.36,2.33-2,3.03,21.18,18.15,29.6,12.52,6.97,15.48,6.86,16.92,2.12,2.54,13.4-11.92,52.97-11.92,52.97,14.24-1.4,17.72,11.24,17.72,11.24Z"/>
      <path class="cls-3" d="m319.96,335.77c-10.23,13.26-14.19,15.71-11.27,16.1,2.92.39-.82,5.89-9.9,15.6-9.08,9.7-21.6,14.02-21.6,14.02,8.31-11.67,26.82-31.4,26.82-31.4,0,0,4.71-18.85,9.05-25.83s18.82-22.84,18.82-22.84c0,0,7.3-5.63,10.77-3.9.22,8.88-12.44,24.99-22.69,38.26Z"/>
      <path class="cls-2" d="m344.2,304.2c-2.18,13.96-28.6,48-28.6,48,1.45,11.66-28.96,32.09-28.96,32.09,10.86.46,13.75,9.31,15.21,11.17,1.45,1.86-1.45-1.86-16.66-2.33-15.19-.46-11.94,1.83-11.94-4.22,0-1.35,1.55-4.05,3.94-7.43,0,0,12.52-4.31,21.6-14.02,9.08-9.7,12.82-15.21,9.9-15.6-2.92-.39,1.03-2.83,11.27-16.1,10.25-13.26,22.91-29.38,22.69-38.26,1.41.7,2.18,2.64,1.55,6.69Z"/>
      <path class="cls-1" d="m333.7,303.13s-13.27,12.79-19.72,23.74c-6.45,10.94-8.55,19.02-1.75,10.12s22.17-28.56,24.09-31.3,3.96-6.17-2.62-2.56Z"/>
      <path class="cls-1" d="m303.15,353.19s-11.08,11.55-15.23,16.78c-4.15,5.24.7,2.09,7.61-3.84s12.28-15.83,7.61-12.94Z"/>
      <path class="cls-3" d="m421.83,324.69c-1.44,4.73-4.4,4.85-16.92-2.12-15.12-8.42-15.82-31.6-18.15-29.6-2.33,2.01-3.03,12.66-13.5,23.36-10.47,10.71-11.63,10.01-11.63,10.01,0,0,1.19-3.28,3.17-7.93,3.99-4.73,16.83-20.06,19.17-24.18,2.79-4.89,3.67-6.81,6.2-1.26,2.53,5.56,12.3,28.64,22.89,28.22,2.88-.13,4.4-2.67,4.93-6.42,1.91,3.53,3.27,6.94,3.84,9.83,0,.03.01.06.01.1Z"/>
      <path class="cls-1" d="m417.98,314.77c-.53,3.76-2.05,6.3-4.93,6.42-10.58.42-20.36-22.66-22.89-28.22-2.53-5.56-3.41-3.63-6.2,1.26-2.35,4.12-15.18,19.45-19.17,24.18,4.68-10.93,13.82-29.38,22.56-30.12,9.75-.82,23.75,13.73,30.62,26.47Z"/>
      <path class="cls-2" d="m147.64,375.05s-17.38,16.63-57.91,20.37c-40.53,3.73-60.43-11.93-67.41-28.36,0,0,21.64,10.1,35.95-1.77,14.31-11.87,25.13-32.11,46.08-24.78,20.94,7.33,49.49,25.57,43.28,34.54Z"/>
      <path class="cls-2" d="m215.91,384.15c-10.67,4.89-30.91,11.17-59.54,5.59-26.42-5.15-32.03-25.05-6.91-36.65,0,0,7.61,7.68,7.85,15.95.22,8.28,9.3,13.38,33.73,12.45,24.42-.92,34.22-10.19,36.79-18.81,3.27,8.81-4.94,18.28-11.92,21.47Z"/>
      <path class="cls-2" d="m152.88,367.06c.7,26.91-83.11,18.36-91.01-9.44-7.37-25.93-40.23-20.04-44.64-19.13,4.55-2.36,19.81-9.41,31.97-5.17,14.48,5.05,23.22,17.98,31.23,29.32,8.04,11.34,50.96,13.8,59.52,6.12,6.77-6.07,8.62-10.63,7.69-19.39,4.12,9.89,5.22,17.69,5.22,17.69Z"/>
      <path class="cls-2" d="m234.21,354.97c.35,15.71-8.38,21.64-26.88,21.64s-28.62-4.19-37.7-16.76c0,0-5.35-6.94-.96-16.03,0,0,12.13-2.76,25.4,0,13.26,2.76,30.08,11.2,34.5,8.85,1.17-.61,2.47-1.95,3.67-3.76,1.23,2.01,1.93,4.05,1.97,6.05Z"/>
      <path class="cls-3" d="m232.24,348.92c-1.2,1.8-2.5,3.14-3.67,3.76-4.43,2.35-21.24-6.09-34.5-8.85-13.26-2.76-25.4,0-25.4,0,1.42-2.97,3.9-6.19,7.94-9.45,14.33-11.58,47.25.78,55.63,14.55Z"/>
      <path class="cls-3" d="m227.83,362.66h0c-2.57,8.63-12.37,17.9-36.79,18.82-24.43.92-33.51-4.17-33.73-12.45-.24-8.27-7.85-15.95-7.85-15.95,2.08-.96,4.38-1.87,6.91-2.71,0,0,25.75-9.47,54.76-.07,10.03,3.25,14.97,7.72,16.7,12.36Z"/>
      <path class="cls-1" d="m180.94,347.58s-24.04.76-23.87,7.56,12.74,10.3,37.87,10.47c25.13.17,30.54-3.2,21.99-9.02-8.55-5.82-19.46-9.02-36-9.02Z"/>
      <path class="cls-1" d="m202.62,334.37s-17.45-6.28-23.39,0c-5.93,6.28,4.01,5.07,13.61,5.85,9.6.78,20.47,7.95,27.86,6.46,7.39-1.49-18.09-12.31-18.09-12.31Z"/>
      <path class="cls-3" d="m139.96,368.76c-8.56,7.68-51.48,5.22-59.52-6.12-8.01-11.34-16.76-24.27-31.23-29.32-12.16-4.24-27.42,2.81-31.97,5.17-.32.07-.49.11-.49.11,1.97-2.46,4.01-4.82,6.14-7.05t.03-.01c16.9-17.69,39.98-28.2,79-21.39,18.15,3.17,29.99,13.4,37.64,24.34,3.52,5.03,6.14,10.18,8.1,14.88.92,8.77-.92,13.32-7.69,19.39Z"/>
      <path class="cls-3" d="m48.62,379.86s21.98,18.62,67.77,6.29c0,0-47.51-4.43-51.25-17.22,0,0-.7,4.41-16.52,10.93Z"/>
      <path class="cls-1" d="m100.75,312.61s-47.94-8.25-72.84,17.17c0,0,30.95-10.74,53.06,8.85,22.11,19.59,54.87,20.95,56.08,7.51,1.22-13.44-16.06-28.98-36.3-33.53Z"/>
    </g>
  </g>
</svg>