<?xml version="1.0" encoding="UTF-8"?>
<svg id="Layer_2" data-name="Layer 2" xmlns="http://www.w3.org/2000/svg" xmlns:xlink="http://www.w3.org/1999/xlink" viewBox="0 0 92.95 44.35">
  <defs>
    <style>
      .cls-1 {
        fill: #e2c134;
      }

      .cls-1, .cls-2, .cls-3, .cls-4, .cls-5, .cls-6, .cls-7, .cls-8, .cls-9, .cls-10 {
        stroke-width: 0px;
      }

      .cls-2 {
        fill: #e6e7e8;
      }

      .cls-3 {
        fill: none;
      }

      .cls-11 {
        clip-path: url(#clippath-1);
      }

      .cls-4 {
        fill: #fff;
      }

      .cls-5 {
        fill: #efd258;
      }

      .cls-6 {
        fill: #231f20;
      }

      .cls-7 {
        fill: #b79f3a;
      }

      .cls-12 {
        clip-path: url(#clippath);
      }

      .cls-8 {
        fill: #bcbec0;
      }

      .cls-9 {
        fill: #9b8732;
      }

      .cls-10 {
        fill: #fbb040;
      }
    </style>
    <clipPath id="clippath">
      <path class="cls-3" d="m31.47,38.15c-2.59-1.3-2.74-4.91-2.52-7.34.11-1.23.32-2.15.36-2.33-.5,1.94-5.13,5.91-5.13,5.91,0,0-14.68.86-18.61,1.03-3.41.14-4.9,1.82-5.4,3.38-.08.24-.13.48-.16.7-.25,1.72,3.68,1.56,7.1,1.56h27.01c-.26-1.12-1.24-2.2-2.64-2.91Z"/>
    </clipPath>
    <clipPath id="clippath-1">
      <path class="cls-3" d="m85.33,19.87c-6.83-4.61-29.72-3.9-33.14-4.51-3.42-.61-3.41-7.84-7.26-7.56-2.94.22-9.32.18-12.9,3.9-1.09,1.14-1.92,2.62-2.31,4.57,0,0,.06,10.25-.4,12.18,0,0,0,0,0,0,0,0,0,.02,0,.03-.04.18-.25,1.11-.36,2.33-.16,1.76-.12,4.13.89,5.81-2.09.18-4.23.32-6,.32-5.64,0-13.66.88-13.83,4.46-.17,3.58,3.59,2.9,7.17,2.9,3.59,0,14.69-1.36,18.96-1.36,4.27,0,10.76.49,14.69-1.04.58-.23,1.12-.51,1.6-.83h1.83c-.05.09-.1.18-.14.27-.33.69-.44,1.35-.38,1.77.17,1.19,6.89,1.24,9.68.87,2.79-.37,15.26-.02,20.04.32,4.78.34,5.64-2.9,5.64-2.9,0,0,1.35-1.01,2.31-2.87.84-.92,1.25-1.97,1.45-2.96.51-2.53-.68-11.07-7.51-15.69Z"/>
    </clipPath>
  </defs>
  <g id="_100" data-name="100">
    <g>
      <path class="cls-7" d="m24.18,34.39s-1.52,1.72-3.28,3.51c-3.13.68-10.58.95-12.24.84-1.94-.12-1.86-.3-2.2.22-.34.52-2.05,1.15-2.92.95-.87-.2-1.33-1.21-.72-1.62.61-.41,2.01-1.03.27-.65-1.75.38-1.14,1.9-1.82,2.1-.46.13-.86-.51-1.08-.95.5-1.56,1.99-3.24,5.4-3.38,3.93-.17,18.61-1.03,18.61-1.03Z"/>
      <path class="cls-9" d="m20.9,37.9c-1.15,1.18-2.41,2.39-3.4,3.17H7.11c-3.42,0-7.34.16-7.1-1.56.03-.23.09-.47.16-.7.22.44.63,1.08,1.08.95.68-.2.08-1.72,1.82-2.1,1.75-.38.34.24-.27.65-.61.41-.15,1.42.72,1.62.87.2,2.58-.43,2.92-.95.34-.52.27-.34,2.2-.22,1.66.1,9.11-.17,12.24-.84Z"/>
      <path class="cls-7" d="m34.11,41.06h-16.62c.99-.78,2.25-1.99,3.4-3.17,1.76-1.79,3.28-3.51,3.28-3.51,0,0,4.63-3.97,5.13-5.91-.04.18-.25,1.11-.36,2.33-.22,2.43-.07,6.04,2.52,7.34,1.4.71,2.38,1.79,2.64,2.91Z"/>
      <path class="cls-5" d="m92.85,35.55c-.4,1.96-1.6,4.17-5.36,5.08.78-4.32-13.81-13.01-13.81-13.01,0,0-4.04,5.6-10.25,5.69-6.21.09-7.97-2.81-7.97-2.81l-10.33,1.97s-3.57-.61-3.34-3.65c.23-3.04,4.57-14.12,4.57-14.12,0,0-1.36-.1-3.12-.23.81-4.07-.58-2.22-3.01-3.17-1.73-.68-4.6-.59-8.2.38,3.58-3.71,9.96-3.68,12.9-3.9,3.84-.29,3.84,6.95,7.26,7.56,3.42.61,26.3-.1,33.14,4.51,6.83,4.61,8.03,13.15,7.51,15.69Z"/>
      <path class="cls-4" d="m43.25,14.49c-2.47-.18-5.71-.41-7-.45-2.2-.08-5.16,2.73-5.16,5.24s-.08,8.35-1.22,10.26c-.2.34-.52.77-.92,1.27.11-1.23.32-2.15.36-2.33,0,0,0-.02,0-.03,0,0,0,0,0,0,.46-1.93.4-12.18.4-12.18.39-1.95,1.22-3.44,2.31-4.57,3.61-.97,6.47-1.06,8.2-.38,2.43.96,3.82-.9,3.01,3.17Z"/>
      <path class="cls-8" d="m46.37,41.06h-12.25c-.26-1.12-1.24-2.2-2.64-2.91-2.59-1.3-2.74-4.91-2.52-7.34.4-.5.72-.93.92-1.27,1.14-1.91,1.22-7.76,1.22-10.26s2.96-5.31,5.16-5.24c1.29.04,4.53.27,7,.45-.22,1.08-.59,2.58-1.13,4.67,0,0-2.91,10.05-2.9,11.79,0,1.74,5.98,3.29,5.98,3.29,0,0,1.08,3.26,1.18,6.83Z"/>
      <path class="cls-7" d="m87.49,40.64c-1.11.27-2.44.42-4.04.42h-37.08c-.09-3.57-1.18-6.83-1.18-6.83,0,0-5.98-1.55-5.98-3.29,0-1.74,2.9-11.79,2.9-11.79.55-2.08.92-3.58,1.13-4.67,1.75.13,3.12.23,3.12.23,0,0-4.35,11.08-4.57,14.12-.23,3.04,3.34,3.65,3.34,3.65l10.33-1.97s1.76,2.9,7.97,2.81c6.21-.1,10.25-5.69,10.25-5.69,0,0,14.58,8.7,13.81,13.01Z"/>
      <g class="cls-12">
        <g>
          <path class="cls-6" d="m7.55,35.74c.03-.09.08-.75,0-.84-.1-.14-.63-.06-.79-.06l-.34.23c0,.38.94,1.33,1.13.68Z"/>
          <path class="cls-6" d="m14.82,37.66c-.32-.1-.84-.34-1.19-.31-.25.03-.29.04-.3.31,0,.42.29.78.71.7l.8.34c.17.25.34.48.65.26.22-.16.17-.41.1-.65-.13-.41-.38-.54-.77-.66Z"/>
          <path class="cls-6" d="m21.2,33.92c-.12.08-.11.2.02.35l-.57-.34c-.19-.05-.13.06-.25.09-.09.02-.22,0-.29.05-.13.07-.2.24-.26.36-.3.59,0,.95.58.99.41.03.71-.06,1-.37.37-.4.27-.83-.22-1.12Z"/>
          <path class="cls-6" d="m26.12,35.52c-.23,0-.45-.06-.59.19-.2.34,0,.93.25,1.18.21.21.87.43,1.18.36.31-.08.2-.28.19-.59l-1.02-1.14Z"/>
          <path class="cls-6" d="m28.05,31.65l-1.37-.57c-.15-.05-.63-.24-.8-.11-.45.35.35,1.23.54,1.34.35.22,1.29.69,1.57.19.12-.2.08-.64.06-.86Z"/>
          <path class="cls-6" d="m10.78,35.98c.11.05.44-.02.53-.1.16-.14.11-.34.13-.52l-.7-.3c-.25.04-.16.82.04.92Z"/>
          <path class="cls-6" d="m11.45,35.32s0,.03,0,.04l.1.04s-.06-.06-.09-.09Z"/>
          <path class="cls-6" d="m15.7,35.75c-.26.14-.4.36-.41.65.22.25.49.31.81.18.24-.03.35-.16.35-.38l-.46-.68c-.08.09-.17.17-.28.23Z"/>
          <path class="cls-6" d="m29.44,34.62c.16-.09.2-.2.13-.34h-.26s-.34-1.27-.34-1.27l-.49.86c.14.51.46.76.96.74Z"/>
          <path class="cls-6" d="m9.49,39.85c0,.32.19.5.23.8l1.14.91c.42.12.5-.59.47-.85-.1-.81-1.16-1.18-1.83-.86Z"/>
          <path class="cls-6" d="m8.13,37.8c-.28-.08-.41.3-.26.5.22.31.8.13.71-.27l-.46-.23Z"/>
          <path class="cls-6" d="m11.42,37.69c-.22-.08-.36.18-.43.33.15.21.31.4.6.33.16-.04.3-.13.3-.33l-.46-.23s0-.07-.01-.11Z"/>
          <path class="cls-6" d="m13.93,36.02c.46.18.57-.47.58-.8v.07s-.81-.46-.81-.46c-.24.41-.36.96.23,1.18Z"/>
          <path class="cls-6" d="m19.17,36.54l-.11-.23c-.26-.01-.45.08-.59.28-.02.19.05.33.23.41.21.08.87-.15.68-.45-.07,0-.13,0-.2-.01Z"/>
          <path class="cls-6" d="m24.41,33.58l-1.02.34c-.36,0-.23.35-.09.53.26.31.74.49,1.15.39.49-.12.41-1.3-.04-1.26Z"/>
          <path class="cls-6" d="m17.24,34.15l-.46.23c-.03.5.98.89,1.37.66.01-.61-.27-1.2-.91-.89Z"/>
          <path class="cls-6" d="m5.45,37.63c-.17.16-.09.59.04.75.19,0,.36-.22.47-.35l-.23-.34c-.02-.18-.18-.15-.28-.05Z"/>
          <path class="cls-6" d="m6.87,39.87c0,.28.16,1.05.58,1l.46.68c.21-.28.54.02.58-.45.05-.57-1.1-1.55-1.62-1.24Z"/>
          <path class="cls-6" d="m29.42,35.5c-.46-.33-.59-.43-1.07-.11-1.19.81.69,1.22.73.92l.68.8v.09c0-.3,0-.6,0-.9,0-.14,0-.28.01-.43-.07-.19-.2-.25-.36-.37Z"/>
        </g>
      </g>
      <path class="cls-5" d="m51.8,38.31c-2.45,4.1-10.25,2.51-17.2,2.68-6.95.17-16.85.11-17.37.63-.51.51-1.54,1.02-3.18.92-1.64-.11-1.26-1.6-.58-1.97.68-.37,1.02-1-.51-.31-1.54.68-.63,2.16-1.59,2.28-.97.11-1.36-1.13-1.36-1.13.17-3.58,8.2-4.46,13.83-4.46s14.93-1.34,14.93-1.34l2.66-.86c.34-6.83,5.81-10.25,9.56-10.3,1.67-.02,3.01.86,3.96,2.19.96,4.31-.85,7.83-3.16,11.7Z"/>
      <path class="cls-5" d="m73.26,42.19c-5.18-.22-12.07-.52-13.15-.64s-.97.63-2.25.64c-1.29.01-1.5-.41-1.21-1.13.29-.72,2.27-1.39.45-.87-1.82.51-.85,2.16-2.11,1.99-.63-.09-.83-.48-.87-.85.62-1.29,1.99-2.64,4.4-2.54,3.7.15,12.47-.64,12.47-.64,0,0,3.47,1.7,5.3,1.86,1.82.16,2.16,2.4-3.02,2.19Z"/>
      <path class="cls-5" d="m80.38,35.75c-11.16.68-10.19-5.98-10.19-5.98.2-.42.46-.82.79-1.19,3.07-3.42,6.83-4.15,6.83-4.15,1.26-.39,8.79-.88,12.55,4.35.33,2.8-.32,6.38-9.99,6.97Z"/>
      <path class="cls-7" d="m56.64,32.67c-.17,3.75-1.88,7.69-5.81,9.22-3.93,1.53-10.42,1.03-14.69,1.04-4.27,0-15.37,1.36-18.96,1.36-3.59,0-7.34.68-7.17-2.9,0,0,.4,1.25,1.36,1.13.97-.11.06-1.59,1.59-2.28,1.54-.68,1.2-.06.51.31-.68.37-1.06,1.87.58,1.97,1.64.11,2.67-.41,3.18-.92.51-.51,10.42-.46,17.37-.63,6.95-.17,14.75,1.42,17.2-2.68,2.31-3.87,4.12-7.39,3.16-11.7,1.19,1.65,1.78,3.98,1.68,6.06Z"/>
      <path class="cls-7" d="m89.09,41.39s-.85,3.24-5.64,2.9c-4.78-.34-17.25-.68-20.04-.32-2.79.37-9.51.32-9.68-.87-.06-.41.05-1.08.38-1.77.04.37.24.76.87.85,1.25.17.28-1.48,2.11-1.99,1.82-.51-.15.15-.45.87-.29.72-.08,1.14,1.21,1.13,1.29-.01,1.17-.75,2.25-.64s7.97.42,13.15.64,4.84-2.03,3.02-2.19c-1.82-.16-5.3-1.86-5.3-1.86,0,0-2.45-4.9-.79-8.38,0,0-.97,6.66,10.19,5.98,9.67-.59,10.32-4.18,9.99-6.97.35.49.67,1.02.94,1.61,3.25,6.93-2.22,11.01-2.22,11.01Z"/>
      <g>
        <path class="cls-1" d="m50.26,29.13c-.02-.18,0-.18-.14-.33-.11-.12-.35-.12-.32-.34l-.91-.11s.02-.05.02-.08c-.23.21-.44.34-.61.63-.13.22-.37.83-.16,1.09.3.38,1.25.54,1.65.35.4-.19.51-.8.47-1.21Z"/>
        <path class="cls-1" d="m56.75,26.07c-.74.11.19,2.32.69,2.49.54.19.34-1.54.34-1.81l-1.02-.68Z"/>
        <path class="cls-1" d="m56.52,19.93c0,.13,0,.28,0,.44h0v-.44Z"/>
        <path class="cls-1" d="m55.61,19.35c-.42-.07-.78-.27-.97.25-.21.59.21,1.93.95,2.04.77.12.9-.64.93-1.27l-.91-1.02Z"/>
        <path class="cls-1" d="m61.89,28.69s0,.07-.01.11l-.34-.11c-.05-.09-.12-.13-.21-.14-.34.39-.61.92-.81,1.38-.17.37-.32.63-.11,1,.26.48.81.76,1.16,1.17.29-.03.37-.57.4-.76.08-.51.12-1.01.26-1.51.12-.41.29-1.04-.33-1.13Z"/>
        <path class="cls-1" d="m66.99,30.76c-.18-.06-.88-.12-1.04-.01-.28.19-.32,1.3.14,1.13l.46.46c.53.01,1.09-.67.85-1.2-.08-.18-.21-.31-.41-.37Z"/>
        <path class="cls-1" d="m61.69,21.37c-.29-.1-.64-.29-.95-.31l-1.25.46-.09.03c-.05.53-.13,1.26,0,1.77.13.54.32.8.9.89.59.09,1.95.34,2.16-.46.14-.52.29-1.55-.09-2.02-.18-.22-.4-.25-.68-.35Z"/>
        <path class="cls-1" d="m68.23,19.87c-.34-.3-.54,0-.78.28l-.8-.46c-.4-.13-.78.38-.93.63-.24.39-.58,1.44-.46,1.95.11.45.65.43,1.03.51.61.12,1.34.38,1.93.1.65-.31.46-1.02.4-1.62-.05-.46-.02-1.06-.4-1.4Z"/>
        <path class="cls-1" d="m50.83,16.16l-.46-.11c-.08-.13-.19-.21-.33-.24-.19.46.31,1.22.55,1.53.28.36.78.72,1.23.85.35-.47-.42-2.74-.99-2.03Z"/>
        <path class="cls-1" d="m52.31,21.51c-.33,0-.43-.05-.47.36-.05.5.05.99.2,1.46.15.51.39,1.34.83,1.69.26.21.6.26.68-.11.18-.78-.05-1.71-.1-2.49l-1.14-.91Z"/>
        <path class="cls-1" d="m57.08,17.3s0,.09.01.13c0-.04,0-.09-.01-.13Z"/>
        <path class="cls-1" d="m57.09,17.53h.01s0-.07-.01-.09c0,.03,0,.06,0,.09Z"/>
        <path class="cls-1" d="m60.29,18.62c.01-.51.03-1.04,0-1.55-.3.05-.92-.23-1.11-.29-.38-.11-.78-.25-1.17-.28l-.9,1.01c.1.6.45,1.28.77,1.74.2.29.41.5.77.56.3.05.81,0,1.07-.14.43-.23.56-.59.57-1.06Z"/>
        <path class="cls-1" d="m75.47,24.83c-.2-.14-.63-.4-.84-.13l-.91.23c-.22-.08-.47.19-.62.32-.41.34-.58.67-.63,1.21-.03.3-.13.94.19,1.14.2.12,1.29-.52,1.35-.55.71-.34,1.73-.6,1.78-1.52.02-.33-.05-.51-.32-.69Z"/>
        <path class="cls-1" d="m82.03,22.31l-.91-.34c-.49,0-.95,0-1.42.18-.51.18-1.39.79-1.35,1.43.23.15.49.23.77.22.58.08,1.16.12,1.75.12.5,0,1.24,0,1.65-.35.22-.19.36-.4.19-.69-.09-.16-.46-.59-.68-.57Z"/>
        <path class="cls-1" d="m87.66,22.92c-.23-.32-.65-.34-.96-.61h-.68c-.64-.07-1.56.22-1.36,1.02.22.86,1.24,1.05,1.97,1.16.38.06,1.03.2,1.43.09.12-.48-.11-1.26-.4-1.66Z"/>
        <path class="cls-1" d="m72.59,17.78c.77.17,1.66.49,2.44.46.27,0,.4-.1.51-.36.28-.64-.14-.85-.69-1.15l-1.25-.57c-.45-.04-.83.27-1.21.48-.29.16-.57.35-.53.74.04.38.28.31.73.4Z"/>
        <path class="cls-1" d="m66.44,26.68c0-.43.2-1.33-.12-1.66-.17-.17-.58-.23-.79-.32l-1.14-.23c-.38-.02-.95.51-1.14.71-.45.48-.76,1.13-.27,1.71.26.31.68.66,1.06.81.36.14.64.1,1.01,0,.38-.09.84-.19,1.18-.39.32-.18.22-.2.22-.64Z"/>
        <path class="cls-1" d="m62.39,18.33c.11.23.24.45.39.66.05.14.15.19.31.15.12-.04.24-.09.35-.13.27-.12.73-.35.83-.68.09-.26-.06-.92-.24-1.12-.09-.1-.58-.35-.68-.36-.36-.05-.36.25-.44.57l-1.02-.23c-.05.23.05.38.17.59.11.18.23.37.34.55Z"/>
        <path class="cls-1" d="m72.93,22.6c.04-.23.14-.51.1-.75-.05-.31-.37-.66-.56-.86-.14-.15-.36-.46-.57-.5l-1.71.57c-.01.41-.01.84.02,1.25.03.37-.02,1.11.32,1.33.26.17.82.05,1.12.05.27,0,.85.12,1.07-.14.18-.21.16-.69.21-.94Z"/>
        <path class="cls-1" d="m69.17,16.4c-.19-.03-.95-.14-.92.22l-1.25.23s-.06,0-.09,0c-.13.25-.18.66-.01.91.27.4.89.35,1.3.36.25,0,.9.11,1.17-.02.24-.12.14-.38.14-.61,0-.46.21-.98-.33-1.07Z"/>
        <path class="cls-1" d="m77.69,20.88c-.04-.37-.12-.75-.19-1.12-.02-.13-.03-.27-.13-.37-.2-.21-.66-.27-.93-.28-.21,0-.59-.06-.8.02-.23.09-.26.34-.55.34-.03.11-.04.22-.02.33h-.68c-.01.43,0,.86.12,1.28.16.56.39.78.99.87.62.09,1.04-.04,1.62-.24.47-.17.62-.22.57-.82Z"/>
        <path class="cls-1" d="m79.75,26.64l-1.25-.46c-.19.02-.41.16-.58.24-.31.14-.97.4-1.05.81-.1.47.51.87.81,1.15.39.35.49.43.99.44.39,0,1.35.1,1.43-.45.08-.49.1-1.42-.36-1.72Z"/>
        <path class="cls-1" d="m85.22,26.07c-.5.03-2.27.13-1.9,1.02.14.35.72.68,1.06.77.5.13,1.02,0,1.52.13.25-.26.11-.88.11-1.23l-.8-.68Z"/>
        <path class="cls-1" d="m82.98,19.38c-.15-.16-.48-.62-.71-.57,0,.07,0,.14-.01.21h-.91c-.42-.04-1.06.22-1.14.69-.09.49.74.6,1.06.71.42.15.78.3,1.22.32.44.02.77-.17.81-.64.03-.29-.12-.51-.32-.71Z"/>
        <path class="cls-1" d="m75.43,30.62l-1.02-.57c-.39.01-.87-.01-1.19.29-.24.23-.29.59-.26.9.05.6.71.57,1.2.6.33.02.98.07,1.26-.2.16-.16.22-.78.12-.99-.03,0-.06-.01-.09-.02Z"/>
        <path class="cls-1" d="m49.75,33.53c-.22.25-.58,1.17-.07,1.31.39.11.87-.02,1.14-.29.39-.38.35-.92.47-1.42l-.23-.34c-.45,0-1.03.42-1.31.74Z"/>
        <path class="cls-1" d="m44.49,28.78c-.14.25-.7,1.34-.2,1.4.59.07,1.07-.96,1.3-1.38.13-.23.1-.32.11-.58l-.34-.34c-.34-.02-.73.66-.87.89Z"/>
        <path class="cls-1" d="m48.79,21.4c.26-.08.68-.35.56-.68l-.46-1.59c-.26-.06-.34.04-.51.23-.37.43-.54.78-.51,1.36.03.58.32.85.92.68Z"/>
      </g>
      <g class="cls-11">
        <g>
          <path class="cls-6" d="m29.01,21.63c.14.17.31.23.43.44.15.26.26.53.43.79.45.67.96,1.36,1.5,1.96.36.4.77.63,1.2.93.15.1.49.45.71.31-.07-.39-.33-.64-.56-.94-.23-.31-.33-.67-.58-.97-.28-.34-.62-.64-.93-.95-.57-.56-1.2-1.27-1.45-2.05-.17-.52-.19-1.07-.9-1.11.14.88-.06,1.33.16,1.6Z"/>
          <path class="cls-6" d="m36.14,26.76c.52-.1,1.08-.2,1.59-.38.53-.18,1-.41,1.5-.65.3-.15.63-.19.93-.34.23-.12.43-.31.66-.44.81-.46,1.79-.37,2.61-.82.49-.27.96-.53,1.38-.91.16-.14.16-.23.18-.36,0,.01.02.02.03.03.24.19,1.02.19,1.26,0,.17-.14.19-.5.23-.7l-.8-.34c-.1,0-.21.01-.31.03,0-.15,0-.31-.05-.35-.11-.12-.27.03-.35.07-.41.2-.7.54-1.03.86-.27.25-.41.37-.74.54-.29.15-.55.42-.82.61-.37.25-.73.37-1.11.56-.11.06-.22.18-.34.23-.11.05-.22.06-.34.11-.12.05-.21.16-.36.21-.26.08-.53.1-.77.22-.61.31-1.2.59-1.88.69-.41.06-.74.16-1.11.36-.23.12-.64.56-.91.55-.16.08.16.31.57.23Z"/>
          <path class="cls-6" d="m48.89,19.82c.21-.21.08-.58-.08-.8-.12-.16-.31-.17-.54-.12-.44.09-.38.46-.54.78-.11.23-.3.29-.49.42-.67.49-.06,1.22.46,1.52.53.31,1.17.36,1.66-.06.22-.19.51-.94.34-1.21-.06-.1-.26-.18-.4-.09-.15.09-.01.34-.07.49-.08.22-.77.52-.9.3l-.23-.23-.09-.02c-.06-.14-.08-.49-.01-.61.18-.32.67-.16.9-.38Z"/>
          <path class="cls-6" d="m49.62,15.68c-.04.13-.13.74-.03.9l.11.06c.18.06.33.17.45.31l-.11-.34c-.07-.46.79-.01.96-.18.14-.14.12-.7-.04-.82-.09-.02-.18-.03-.27-.05-.19-.03-.38-.08-.56-.15-.29-.03-.4-.05-.5.27Z"/>
          <path class="cls-6" d="m56.98,18.55l.46-.34c-.26.08-.24-.17-.24-.35.02-.68.67-.4,1.19-.35.27.02,1.79,0,1.35-.54-.49-.61-1.5-.29-2.11-.07-.51.18-.57.54-.85.96-.1.16-.24.26-.17.44.04.12.26.25.38.26Z"/>
          <path class="cls-6" d="m51.05,17.4c-.18.05-.74-.11-.8.11-.08.29.42.77.7.7l.23.34c.18,0,.38.03.55,0,.12-.36.06-.97.03-1.35-.03-.31-.35-.57-.68-.45-.05.21.03.44-.02.66Z"/>
          <path class="cls-6" d="m51.75,22.87c.17-.29.67,0,.91.01.14.01.56.06.66-.04.14-.14-.22-1.11-.35-1.19-.11-.07-.24-.03-.37-.03-.12,0-.62-.07-.77.01-.35.19-.41.95-.44,1.3-.04.43-.02.79.22,1.15.05.07.45.53.46.16l-.23-.8c-.13-.1-.19-.43-.1-.58Z"/>
          <path class="cls-6" d="m59.47,18.44c0,.13.22.22.25.39.02.11.05.48,0,.57-.13.23-.92.32-1.15.23-.3-.12-.78-.83-1.14-.54-.23.18-.03.77.24.83l-.27.27c.14-.11.28,0,.44.07.2.09.33.12.56.11.25,0,.55.06.78-.01.28-.09.76-.46.91-.7.12-.2.2-1.16.07-1.35-.12-.17-.69-.16-.68.13Z"/>
          <path class="cls-6" d="m57.32,20.26l.07-.07s-.04.04-.07.07Z"/>
          <path class="cls-6" d="m52.54,25.16l.46.11c.04-.2.32-.09.46-.14.19-.06.25-.18.33-.35.17-.34.4-.96.13-1.31-.1-.13-.42-.26-.57-.12-.17.15.04.93,0,1.13-.1.41-.94.29-.8.68Z"/>
          <path class="cls-6" d="m29.08,24.93c-.35.04.08.43.17.52.22.23.25.23.51.28.21.04.3-.04.46.12,0,0,0,0,0,0-.08-.36-.17-.25-.43-.37-.27-.12-.31-.45-.48-.65-.11-.13-.49-.43-.66-.35-.02.15,0,.33.44.45Z"/>
          <path class="cls-6" d="m31.46,27.25c.27.26.45.51.78.72.14.09.52.51.7.48.16-.38-.35-1.05-.66-1.19-.18-.08-.52.03-.67-.08-.17-.12-.28-.55-.41-.72-.07-.09-.06-.14-.16-.18-.14-.06-.37.05-.53.03.07.18.13.38.23.54.21.33.47.14.73.39Z"/>
          <path class="cls-6" d="m30.43,26.3s.05.02.07.02c-.06-.15-.12-.3-.22-.42-.02-.02-.04-.04-.05-.06.04.18,0,.37.21.46Z"/>
          <path class="cls-6" d="m44.45,27.68c-.49-.15-1,.04-1.41.27-.2.11-.37.13-.59.18-.42.1-.84.38-1.16.66-.26.22-.5.47-.72.73-.04.05-.37.64-.55.64-.59.84-.48.79-.36.77.08-.03.13-.09.16-.17.13-.1.3-.15.45-.24.45-.28.72-.72,1.19-.95.55-.26,1.12-.49,1.61-.86.31-.23.68-.32.98-.57.1-.09.44-.32.41-.46Z"/>
          <path class="cls-6" d="m35.55,28.46c.27.05,1.72-.5,1.61-.8h-.23c-.35-.08-1.34.44-1.38.8Z"/>
          <path class="cls-6" d="m38.32,27.32c.57.04.99-.46,1.49-.63l-.25.06c-.49,0-1.01.04-1.24.57Z"/>
          <path class="cls-6" d="m39.81,26.69l.2-.05c-.07,0-.14.03-.2.05Z"/>
          <path class="cls-6" d="m43.2,25.61h-.8c-.31-.07-.91.36-1.01.64.28.19.7,0,.95-.14.25-.14.55-.51.85-.5Z"/>
          <path class="cls-6" d="m29.15,29.22c.22.27.31.43.62.55.12.05.3.12.38.23.06.09.04.18.09.27.04.09.15.18.21.26.21.28.21.3.55.31.5.02,1.02.21,1.5.35.44.13,1.04.34,1.5.2-.38-.56-1.07-.87-1.67-1.18-.29-.16-.59-.3-.91-.41-.18-.06-.36-.09-.54-.1-.07.03-.13.02-.18-.04-.02-.08-.05-.16-.1-.23-.08-.16-.2-.32-.35-.42-.18-.12-.46-.1-.61-.24-.19-.16-.14-.49-.24-.7-.11-.23-.28-.32-.45-.5,0,.02,0,.05.01.07-1.02.74-.08,1.24.18,1.56Z"/>
          <path class="cls-6" d="m36.73,30.86c.39-.21.75-.39,1.12-.64.28-.18.54-.36.88-.51.34-.15.65-.28.92-.54.13-.12.5-.39.48-.59-.26-.14-.95.34-1.17.47-.37.22-.77.5-1.22.43l.23-.11c-.26,0-.44-.03-.68.13-.25.17-.53.54-.8.65-.15.06-.34,0-.5.02-.39.05-.99.23-1.32.42.64.21,1.42.61,2.07.26Z"/>
          <path class="cls-6" d="m40.86,33.36c.18,0,.44.07.52-.11,0-.02,0-.34,0-.36-.07-.15-.07-.08-.23-.11-.47-.07-1.01,0-1.49,0l-.34.34c-.26-.36-1.34-.04-1.65.05-.51.15-.82.39-1.17.76.23-.01.46,0,.69-.05.45-.1.88-.34,1.33-.4.15-.02.29,0,.43-.04.07-.02.14-.08.24-.09.53-.08,1.12,0,1.66,0Z"/>
          <path class="cls-6" d="m28.28,32.91c.23.01.45-.03.68.02.27.06.32.07.58,0,.27-.07.58.04.79.15.07.04.13.16.21.21.27.16.72.2,1.03.29.41.12.83.24,1.24.37.12.04.24.1.37.09.08-.24-.14-.35-.33-.44-.39-.2-.73-.48-1.12-.67-.3-.15-.63-.12-.94-.22-.17-.05-.18-.1-.31-.17-.25-.14-.6.05-.92.03-.2-.01-.34-.04-.52-.15-.38-.22-.5-.75-.89-.91-.08.02-.11.07-.1.15-.71.23-.75.24-.78.24-.26.68.45.98,1.01,1.01Z"/>
          <path class="cls-6" d="m29.67,34.73c-.03.11-.04.22-.02.33l.23.23c.48,0,.9.37,1.4.36.1-.32-.71-.54-.95-.71-.25-.16-.34-.28-.66-.22Z"/>
          <path class="cls-6" d="m32.62,35.65c-.05.22.37.61.56.67l.23.23c-.1-.52.52-.28.79-.36,0-.19-.61-.3-.78-.36-.24-.09-.53-.25-.8-.17Z"/>
          <path class="cls-6" d="m35.68,33.24l-.11-.23c-.22.25-.83.19-.93.55.29.04.61.13.9.12.07-.13.09-.31.15-.45Z"/>
          <path class="cls-6" d="m37.3,32.56c.42.02.69-.22,1-.46l-.68-.23c-.05.15-1.06.66-.32.69Z"/>
          <path class="cls-6" d="m33.76,24.46c.18-.07.31-.17.3-.38-.01-.32-.36-.43-.54-.63l-.57.23c.01-.09-.02-.12-.09-.11-.24.51.41,1.07.9.89Z"/>
          <path class="cls-6" d="m30.33,20.27c.2.16.32.27.47.05.11-.15.13-.46.1-.63l-.68-.68c-.36.38-.3.93.11,1.26Z"/>
          <path class="cls-6" d="m46.5,19.46l-.57-.11c-.52-.17-.67.91-.5,1.18.5.79.94-.73,1.07-1.07Z"/>
          <path class="cls-6" d="m47.93,17.71c.27-.24.17-.65.17-.98l-.8-.23c.35-.23-.14-.39-.34-.36-.57.09-.58.99-.28,1.37.26.33.9.52,1.25.2Z"/>
          <path class="cls-6" d="m44.49,25.1c.2-.11.28-.36.53-.4l-.46-.57c-.32,0-.94.53-.79.85.11.22.53.22.71.12Z"/>
          <path class="cls-6" d="m44.21,29.94c.22.03.58.06.79-.02,0-.22.25-.35.24-.54-.16-.09-.27.1-.43.09-.06-.16-.07-.53,0-.69.06-.13.18-.17.22-.33.04-.19-.12-.58,0-.74.26-.36.54.23.59.42.08.31.13.64-.1.91.4-.17.62-1.48.33-1.74-.3-.26-1.16-.11-1.17.35l.11.23c-.25-.04-.32.56-.4.74-.14.31-.35.69-.39,1.03-.03.23-.01.25.21.28Z"/>
          <path class="cls-6" d="m48.21,30.11c.22.15,1.06.41,1.35.28.04-.13.05-.35.02-.48-.06-.24-.05-.17-.26-.19-.3-.03-.81.16-1.04-.15-.11-.15-.16-.57-.01-.7.18-.15.82-.3,1.03-.22.23.09.44.31.57.51.08.12.12.29.25.34.08-.3.04-.7.03-1.01-.01-.33-.1-.6-.46-.69-.38-.1-1.25-.13-1.26.44-.44.47-.93,1.4-.23,1.88Z"/>
          <path class="cls-6" d="m50.89,33.17c.1-.12.04-.35-.05-.46-.37-.44-1.44.15-1.61.5.11.05.23.1.34.14l.23.11c.06-.28.55-.22.78-.23.13,0,.22.03.31-.07Z"/>
          <path class="cls-6" d="m55.85,19.91c.12-.34-.56-.98-.91-.9-.52.11-.62.94-.56,1.35.11.03.22.04.33.01l.11.23c0-.22-.03-.45,0-.67.34-.06.69.04,1.04-.02Z"/>
          <path class="cls-6" d="m58.81,21.74c-.12.19-.24.66-.12.89.15.27.54.14.79.14l.11-.34c0-.11-.05-.3,0-.4.09-.24.4-.24.61-.34.2-.09.39-.15.44-.39.04-.22-.15-.5-.34-.58-.63-.26-1.22.58-1.49,1.02Z"/>
          <path class="cls-6" d="m56.52,26.98l.23-.46c.33-.09.6.55.9.4.46-.22-.33-1.01-.54-1.07-.24-.07-.86-.1-1.05.05-.62.51.52.75.45,1.07Z"/>
          <path class="cls-6" d="m49.86,34.61c-.46-.11-.41-.63-.51-1.01,0,.16-.03.35,0,.5.02.14.1.26.12.39l.34.57c.1.12.09.2.24.24.07.02.59-.09.64-.15.07-.08.08-.46.02-.56-.14-.21-.6.07-.84.01Z"/>
          <path class="cls-6" d="m56.42,27.37c.03.06.07.1.12.13v-.06s-.08-.05-.12-.07Z"/>
          <path class="cls-6" d="m58.01,28.4c.1-.23-.02-.6-.22-.75-.3-.22-.94.03-1.25-.16l.21.85c.22.24,1.1.42,1.26.06Z"/>
          <path class="cls-6" d="m61.98,23.23c-.19-.03-.3.15-.46.2-.17.05-.41.03-.59.02-.41-.02-.85-.23-1.26-.1.02.14.02.3.17.32l.11.68c.03.3,1.51.05,1.72-.04.4-.18.4-.71.32-1.09Z"/>
          <path class="cls-6" d="m61.19,29.14c.17-.04.71.07.38-.29-.12-.13-.46-.21-.62-.17-.26.07-.34.36-.45.57-.16.3-.64,1.02-.41,1.37.1.02.2.02.3,0l.34-.23c-.05-.38.01-1.14.46-1.25Z"/>
          <path class="cls-6" d="m51.06,34.38s.07,0,.1,0c.01-.17-.07-.83-.21-.88-.19.11-.11.48-.11.66l.23.23Z"/>
          <path class="cls-6" d="m55.36,20.97c-.53-.31-.53-.14-.54.31l.8.34c.5.11,1-.4.78-.9-.2-.03-.31.26-.46.35-.28.16-.3.06-.57-.1Z"/>
          <path class="cls-6" d="m53.82,16.7c.31.16.44.17.76.03.44-.19.92-.13,1.37-.35.05-.28-.26-.69-.44-.89-.23-.25-.52-.25-.85-.22-.48.04-.74.06-1.2,0-.35-.04-.46.05-.69.32l.32.32c-.07.37.5.66.74.79Z"/>
          <path class="cls-6" d="m61.13,21.79c.31.22.6.09.92.18.27.07.24.32.29.59.02.13.08.81.21.84.41-.44.36-1.69-.05-2.15-.32-.36-.98-.33-1.42-.4l-.23.23c-.38.04.15.64.28.73Z"/>
          <path class="cls-6" d="m62.1,18.44l.23-.11c0-.34-.09-.54.19-.76.39-.32.7-.34.28-.83-.2-.23-.49-.52-.72-.2-.27.37-.55,1.51-.27,1.9.1.02.2.02.3,0Z"/>
          <path class="cls-6" d="m67.91,18.44l-.57.23c.44,0,.84.11,1.27.12.48.01.84-.24,1.02-.7.19-.47.22-1.08-.13-1.48-.25-.28-.62-.42-.99-.25-.16.07-.39.25-.24.44.41-.3.78.22.82.59.05.41-.25.58-.6.71-.3.11-.48.09-.81,0-.15-.04-.9-.24-.91-.46,0-.34,1.37-.69,1.02-1.13-.35.18-1.47.21-1.34.78.1.45.97,1.22,1.47,1.15Z"/>
          <path class="cls-6" d="m63.35,18.29c-.14.12-.3.23-.49.28-.12.03-.28-.08-.37.05-.09.14.02.24.17.28l.23.46c1.29,0,1.59-1.3.88-2.27-.17.06-.18.28-.2.44-.04.37.07.52-.23.77Z"/>
          <path class="cls-6" d="m62.34,31.62c.15-.24.1-.49.1-.76,0-.57.28-1.26.02-1.81-.06-.12-.22-.36-.4-.26-.12.07-.04.12-.07.23-.06.25-.17.49-.22.75-.07.31-.08.72-.26.99-.26.39-.67.15-1.03.07-.21.22.21.51.37.59l.11.34c-.03.9,1.12.27,1.37-.14Z"/>
          <path class="cls-6" d="m62.36,26.59c-.08.3.28.78.59.84.25.05.89-.2,1.07-.42-.25-.24-.46-.1-.66-.43-.18-.3-.28-.41-.22-.78.07-.43.29-.7.73-.75.47-.06.99,0,1.46,0,.19,0,.48.06.65-.01-.09-.24-.51-.69-.72-.82-.3-.19-.85-.09-1.2-.08-.47,0-.56.19-.83.56-.22.29-.49.65-.43,1.04l-.23,1.14c-.07-.09-.13-.18-.2-.27Z"/>
          <path class="cls-6" d="m67.49,19.79c-.66-.05-.99.21-1.46.65-.3.28-.61.54-.97.73-.15.08-.36.16-.46.3-.2.28-.09.76.11,1,.31.39.62,0,.92-.24,0,.03,0,.05,0,.08l.11-.68c0-.22-.06-.49.11-.67.3-.32,1.02-.23,1.42-.27.3-.03.54-.03.62-.34.09-.37-.03-.54-.4-.56Z"/>
          <path class="cls-6" d="m66.02,27.51c.49-.31.48-.65.4-1.24-.05-.38-.11-.78-.25-1.14-.25.14-.01,1.16-.07,1.36-.09.28-.19.29-.48.38-.28.08-.47.18-.73.28-.34.13-.84-.13-.86.31-.02.36.17.29.35.54l.46.46c.06-.42.11-.33.39-.52.25-.17.54-.27.79-.43Z"/>
          <path class="cls-6" d="m66.5,32.32c.33-.05.87-.19.96-.56.03-.12.08-.6-.11-.59-.12,0-.36.32-.45.39-.23.16-.39.26-.67.17,0-.03-.01-.06-.02-.09l-.23-.11c-.3-.02-.02-.39.12-.44.31-.11.68.05,1.01-.03.09-.25-.01-.5-.27-.55-.27-.06-.84-.07-1.06.08-.25.18-.29.76-.27,1.06.04.59.44.77,1,.68Z"/>
          <path class="cls-6" d="m66.75,23.46c.35.08,1.41-.69,1.31-1.03-.05-.19-.31-.12-.47-.11-.65.01-1.54-.35-2.09.11-.03.19.14.43.35.35h.8c0,.21-.04.51.09.69Z"/>
          <path class="cls-6" d="m70.42,22.31v.07s0,0,0,.01v-.09Z"/>
          <path class="cls-6" d="m71.79,20.62c-.36-.05-.79-.16-1.16-.12-.55.07-.71.43-.85.91-.17.58-.26,1.2-.1,1.8.14.52.49.62.73.13v-.95c-.01-.45-.06-.9.4-1.1.29-.12,1.03-.21.97-.67Z"/>
          <path class="cls-6" d="m71.55,17.87h.49c.45.09.92.11,1.36.17.42.06.86.19,1.28.18.13,0,.42.01.53-.09.15-.14.06-.14.09-.37.02-.19.05-.26.18-.41.1-.11.19-.13.14-.28-.1-.31-.9-.3-1.06-.06-.14.21.03.4-.23.57-.19.13-.49.08-.71.04-.16-.03-.65-.04-.79-.11-.23-.11-.21-.34-.03-.47.14-.1.48-.08.64-.11.24-.05.48-.07.72-.1.21-.86-1.94-.29-2.32-.07-.35.21-.38.34-.47.7-.04.15-.17.53.17.41Z"/>
          <path class="cls-6" d="m68.14,22.08l.23-.23c0-.3.01-.62-.1-.91-.15-.39-.38-.13-.68-.1-.02.21.15.7.24.89.08.17.27.18.32.35Z"/>
          <path class="cls-6" d="m71.21,24.25c-.02-.15-.02-.3,0-.46.35-.05.74.09,1.05-.08.18-.1.41-.23.57-.34.77-.53.09-2.43-.83-2.31.04.4.17.64.4.94.17.21.26.57.11.82-.25.39-.99.28-1.35.28-.17,0-.47-.08-.55.11-.02.04.14.27.13.35l.46.68Z"/>
          <path class="cls-6" d="m73.26,25.37c.29.02.53-.13.8-.21.41-.12.99-.12,1.31-.44-.22-.07-.52-.07-.75-.11-.37-.06-.51.04-.83.18-.39.18-.69.53-1.02.82-.21.19-.42.4-.55.65-.16.3-.11.62-.11.95,0,.49.09.81.62.8.59-.01,1.08-.42,1.63-.62.35-.13.6-.29.82-.58.1-.12.14-.2.18-.37.05-.22.19-.91,0-1.06-.1-.08-.42,0-.52.06-.34.18-.41.61-.68.86-.18.16-.38.31-.62.34-.21.02-.49-.04-.4.34h-.46c-.03-.2.05-.28.13-.48.16-.37.23-.79.44-1.12Z"/>
          <path class="cls-6" d="m80.72,20.28c.64.23,1.31.31,1.97.32.32,0,.51.07.6-.25.04-.14.05-.37.08-.52.06-.31.12-.76-.26-.83-.43-.08-.24.32-.28.58-.06.47-.41.35-.81.34-.22,0-.83-.04-.91-.34-.13-.43.62-.29.7-.58v-.34c-.24-.03-.36.01-.58.13-.38.21-.73.34-1.14.46.13.24.3.35.35.65.05.3-.02.28.28.38Z"/>
          <path class="cls-6" d="m75.65,20.03l-.11-.57s0,.06,0,.09c-.32.14-.7.16-1.01.31-.35.17-.25.64-.24.98.01.32.13.67.35.91.07.07.06.08.06.08,0,0,.03,0,.13.04.28.1,1.25,0,1.47,0,.69-.03,1.4-.23,1.75-.9.12-.23.19-.41.12-.67-.16-.54-.57-.42-1-.5,0-.06-.01-.13-.03-.19-.2-.06-.56-.04-.77-.01-.02.48.39.9-.23,1.15-.25.1-.7.17-.97.11-.13-.03-.12,0-.18-.11-.03-.05,0-.37.03-.42.16-.28.49-.04.66-.28Z"/>
          <path class="cls-6" d="m74.68,21.83s0,0,0,0h0Z"/>
          <path class="cls-6" d="m73.57,30.48c.2-.06.96-.22,1.18-.07.21.14.11.69.47.67.17-.01.44-.27.46-.45.02-.17-.13-.48-.14-.68-.4-.12-.93,0-1.36,0h-.46c-.43.19-.66.3-.95.7-.29.4-.07,1.08.36,1.33.2.12,1.47.12,1.5-.16.04-.35-.77-.55-.98-.64-.12-.05-.4-.12-.48-.24-.18-.29.21-.4.41-.46Z"/>
          <path class="cls-6" d="m79.17,28.23c-.71.01-1.17-.01-1.47-.73-.11-.26-.18-.48-.49-.41-.24.05-.31.14-.32.36-.02.5.25.94.69,1.12l.46.23c.48,0,.99.05,1.47,0,.27-.03.49-.24.46-.57-.26-.04-.54-.01-.8,0Z"/>
          <path class="cls-6" d="m84.99,23.22c-.2-.45.93-.13,1.04-.11.53.14,1.03.16,1.56.23-.31-.13-.47-.46-.7-.68-.31-.31-.45-.19-.86-.14-.33.04-.67.02-1,0-.13,0-.33-.05-.45.01-.23.13-.5.87-.49,1.14.35-.07.66-.19,1.02-.24l-.11-.23Z"/>
          <path class="cls-6" d="m83.51,26.86h.34c.04-.42.34-.52.69-.42.27.08.52.21.8.28.29.07.53.09.75.32.1-.14.09-.76-.02-.92-.15-.21-.51-.16-.74-.17-.26-.01-.5-.08-.75-.11-.42-.04-.74.23-1.03.51-.11.1-.48.67-.04.51Z"/>
          <path class="cls-6" d="m79.65,22.33c-.32-.21-.88.27-1.27.2l-.34.68c-.04.11-.17.37-.13.51.04.18-.04.08.17.18.26.11,1.41.27,1.71.04-.29-.2-.67-.38-.92-.64.31-.21.78-.57.78-.98Z"/>
          <path class="cls-6" d="m80.17,26.18c-.09-.09-.41-.08-.53-.09-.33-.05-.57-.09-.9-.22-.5-.2-.68-.09-1.1.24-.07.05-.17.08-.2.18-.04.15.53.52.6.58v-.23c-.02-.07-.02-.14,0-.21.61-.24,1.02.44,1.57.45.07.23.14,1,.57.9.08-.24.02-.56.02-.81,0-.21.12-.64-.04-.8Z"/>
          <path class="cls-6" d="m81.67,21.99c-.28-.15-1.01-.34-1.32-.26-.39.1.02.34.2.47l-.21.21c.11-.02.26,0,.35,0,.46,0,.75.28.96.68.14.26.33.54.61.2.44-.54-.15-1.08-.59-1.31Z"/>
          <path class="cls-6" d="m80.21,22.54l.13-.13c-.07.02-.12.05-.13.13Z"/>
          <path class="cls-6" d="m87.94,24.54c.17-.35-.8-1.27-.81-.65-.37.11-.91-.1-1.27-.17-.19-.04-.72-.3-.87-.12-.19.22.24.46.34.53l.11.68s0-.07,0-.1c.18-.03.55.17.7.2.18.03.38.04.57.03.25-.01,1.08-.12,1.21-.4Z"/>
          <path class="cls-6" d="m85.44,27.49c-.24.05-.48.08-.72.07-.32-.01-.66-.15-.97-.11-.38.05-.29.35,0,.56h.91c.29.26.37.27.74.14.18-.06.52-.17.61-.37.22-.46-.3-.33-.56-.28Z"/>
          <path class="cls-6" d="m80.55,24.7c.17-.37.18-.29.51-.36.2-.04.23-.02.29-.21.05-.15.04-.62-.02-.79-.16.03-.29.12-.45.17-.29.08-.58.01-.87.07-.04.12.06.2.09.32l.46.8Z"/>
          <path class="cls-6" d="m69.27,27.3c-.07.02-.15.03-.22.03-.27.17-.3.42-.34.72-.06.44-.22,1.76.54,1.78.04-.2.06-.41.12-.6.1-.32.33-.53.5-.81.13-.21.31-.52.31-.77l-.57-.57c-.12.07-.23.14-.35.21Z"/>
          <path class="cls-6" d="m67.64,25.16c.38.19,1.62-.21.96-.68l-.68-.34c-.17-.02-.35-.05-.47.11-.18.24-.04.8.2.92Z"/>
          <path class="cls-6" d="m63.98,16.55c.28.16.4.19.69.14.24-.1.48-.18.73-.24.23-.06.45-.12.68-.16.19-.1.33-.22.18-.45-.16-.24-.8-.36-1-.4-.46-.1-1.04-.09-1.45-.31l-.34.57c-.5.06.44.81.51.85Z"/>
          <path class="cls-6" d="m57.91,15.51c.23.16.49.39.78.44.25.04.59,0,.85-.01.28-.01.34-.06.27-.36-.05-.23-.65-1.13-.9-.67l-1.48.11c-.02.22.35.39.47.48Z"/>
          <path class="cls-6" d="m55.61,33.93l-.62-.52c0-.25-.23-.51-.41-.28l-.8-.57c-.28,0-.54.03-.81-.09-.23.21-.2,1.2.02,1.4.22.2,1.08-.06,1.41-.06.21,0,.37-.02.51-.2-.01.37-.04.74-.08,1.12-.03.29-.37,1.32.19,1.25.49-.07.58-.64.64-1.02.06-.35.34-.83-.06-1.03Z"/>
          <path class="cls-6" d="m56.07,29.48l-.57-.11c-.19-.32-.36.03-.34.24.04.32.29.71.42.99.14.29.49,1.37.81.52.09-.23.14-1.78-.32-1.63Z"/>
          <path class="cls-6" d="m48.41,24.14c.06-.15.37-.94-.08-.81h-.46c-.06-.48-.91.37-.97.49-.09.18-.11.36,0,.54.15.28.38.25.68.23.39-.03.69-.08.84-.44Z"/>
          <path class="cls-6" d="m42.83,31.77c-.37.55-.3,1.07-.32,1.7-.01.43.23.45.57.23.56-.35.58-.9.57-1.48l-.23-1.02c-.21,0-.49.41-.6.58Z"/>
          <path class="cls-6" d="m45.82,25.84l-.11-.46c-.39-.08-.69.28-.57.68.19.04.68.05.69-.23Z"/>
          <path class="cls-6" d="m48,25.78c.25.32.67.31,1.06.41.08.02.51.19.65.09.18-.13.23-.74.21-.93,0,.05,0,.1,0,.15l-.46-.68c-.6-.45-1.24.52-1.46.96Z"/>
          <path class="cls-6" d="m53.87,30.08c.04-.14.38-.88-.08-.83l-.57-.91c-.48-.25-.84,1.77-.84,1.92-.03.6.5.74.64,1.28.44.02.78-1.21.86-1.46Z"/>
          <path class="cls-6" d="m47.97,13.33c.06.02.13.04.2.07-.02.36.06.72.32.98.17-.14.29-.3.4-.48.06-.1.13-.09.14-.22.11-.04.21-.07.29-.11.22-.02.4-.1.49-.27.25-.48.17-1.55,0-2.02-.14-.37-.33-.73-.81-.57-.52.17-.29.73-.21,1.13l-.34-.11c-.02-.14-.1-.22-.22-.25-.26.2-.4.64-.48.93-.12.4-.23.77.23.93Z"/>
          <path class="cls-6" d="m79.38,18.33c.15-.24.1-1.17-.04-1.35-.26-.34-.47-.26-.61.1h-1.14c-.51-.62-.6,1-.54,1.24.73.11,1.58.05,2.32.02Z"/>
          <path class="cls-6" d="m58.23,24.13h-.57c-.01-.16-.09-.24-.22-.23-.2.32-.64,1.15-.27,1.49.24.22.76.11,1.06.31.07-.31.03-.67.09-.99.04-.2.08-.41-.09-.58Z"/>
          <path class="cls-6" d="m60.54,36.11c-.31-.25-.78-.28-1.17-.25l-1.02.46c-.15-.3-.59.1-.72.21-.42.35-.56.95-.32,1.45.08.18.17.27.35.3.22-.06.43-.13.64-.22.46-.13.92-.21,1.4-.24.27-.02.72.09.94-.13.17-.18.1-.59.1-.8,0-.33.08-.54-.2-.76Z"/>
          <path class="cls-6" d="m60.04,31.99c-.46-.27-1.22-.71-1.24.16,0,.39.31.8.57,1.09l.57.23c.08.1.19.39.37.36.25-.04.41-.72.45-.88.16-.6-.28-.7-.72-.96Z"/>
          <path class="cls-6" d="m64.25,34.64c.26-.23.63-.34.81-.65.2-.36.14-.75-.26-.96-.42-.23-.58.13-1.01.1-.3-.02-.55-.24-.87-.22-.13.34.47,1.37.89,1.37l.34-.23c-.08.23-.04.43.09.6Z"/>
          <path class="cls-6" d="m63.19,29.7c-.25.23,0,.53.17.7l.57.11c.55-.04.39-.76-.01-.89-.18-.06-.57-.06-.72.08Z"/>
          <path class="cls-6" d="m60.72,27.05c0-.29,0-.71-.09-.99-.07-.22-.06-.25-.28-.23-.11.02-.2.1-.32.12-.15.03-.43-.12-.53.05.06.21.15.71.43.74l.68.23s.07.05.1.07Z"/>
          <path class="cls-6" d="m69.73,36.66l.46-.68c.06-.21-.25-.75-.34-.96-.22-.53-.04-1.1-.12-1.65-.27-.06-.82.37-1.01.53-.33.26-.29.62-.35,1.01-.08.61-.16,1.1,0,1.72.38.15.94.03,1.37.03Z"/>
          <path class="cls-6" d="m53.7,38.72c-.07.33-.16.52-.33.79-.1.17-.44.34-.37.57l.34.91c-.02-.11-.02-.22.02-.33.26,0,.55-.09.76-.26.19-.17.09-.33.16-.54.08-.24.3-.31.2-.62-.07-.22-.53-.58-.77-.5Z"/>
          <path class="cls-6" d="m57.67,34.03c-.1-.02-.4-.02-.45.11-.05.12.18.39.22.47l.28.47c.17-.04.35-.07.51-.14.03-.33-.23-.86-.56-.91Z"/>
          <path class="cls-6" d="m57.78,35.18l-.06-.1s-.01,0-.02,0c.03.03.05.06.08.09Z"/>
          <path class="cls-6" d="m47.77,31.89c-.03-.32-.27-.4-.59-.35h-.8c-.16-.26-.58-.33-.86-.24-.42.14-.71.86-.61,1.26.36-.08.63-.39,1-.33.46.08.76.57,1.22.57.52,0,.67-.44.63-.91Z"/>
          <path class="cls-6" d="m50.37,37.11l-.91.11c0-.14-.07-.12-.18-.13-.25-.02-.37.39-.4.58-.05.37.05.63.42.68.27.04.52-.16.77-.13.38.05.5.63.96.6.46-.03.71-1.15.81-1.49-.29-.35-1.05-.23-1.47-.23Z"/>
          <path class="cls-6" d="m44.67,35.79c-.37-.14-.86-.05-1.25-.04-.34.01-.34.01-.58-.22-.17-.17-.39-.48-.67-.47-.11.1-.23.17-.36.23-.16.04-.31.12-.45.23.02.3,1.07.74,1.38.69l.46.68c.31.05.43.6.68.77.42.29,1.08.06,1.45-.24.71-.57-.08-1.41-.66-1.63Z"/>
          <path class="cls-6" d="m45.14,40.82c-.17-.07-.29-.05-.46-.06-.44-.02-.86-.09-1.27-.23-.55-.2-1.07-.42-1.58,0,.16.35.46.42.81.58l1.02.46c.07.21.5.36.71.42.29.08.48-.03.71-.22.39-.32.58-.71.06-.94Z"/>
          <path class="cls-6" d="m37.68,36.34c-.27.06-.44.35-.76.33-.24-.02-.31-.16-.51-.25-.17-.08-.83-.33-1.03-.22-.27.14-.35,1.19.18,1.02l.11-.23c.48-.07.91.3,1.28.53.5.32,1.03-.12,1.54.12.12-.36-.42-1.4-.83-1.31Z"/>
          <path class="cls-6" d="m39.77,38.7c.23.16.4.24.59.47l.46.34c.19-.22.16-.64.1-.91-.27-.02-1.05-.13-1.14.1Z"/>
          <path class="cls-6" d="m47.18,38.15s-.07,0-.11-.01l-.46-.68c-.24,0-.43-.02-.51.23-.06.19.04.62.15.77.23.3.96.09.93-.3Z"/>
          <path class="cls-6" d="m48.22,40.21c-.08.07-.18.09-.28.07-.12,0-.23,0-.34-.04-.35-.04-.62-.13-.91.09.2.41.5.67.84,1l.11-.34c.3.19.61.26.94.19.13-.37.13-1.01-.36-.97Z"/>
          <path class="cls-6" d="m40.8,37.57c.04-.22-.29-.94-.57-.91l-.68.11c-.52-.17-.03.5.09.58.32.22.78.29,1.16.21Z"/>
          <path class="cls-6" d="m38.16,41.69c-.21-.25-.67-.89-1-.96-.27-.06-.55.17-.8.23-.31.08-1.04-.16-1.24.11.18.24.45.55.77.6-.03,0-.06,0-.09-.01l.46.91c.03.21.05.63.25.76.2.13.65.04.87.04.36,0,.51.02.74-.28.22-.28.34-.43.29-.78-.03-.22-.09-.46-.23-.63Z"/>
          <path class="cls-6" d="m32.95,42.59c-.2-.06-.44,0-.65-.03-.57-.06-1.16-.31-1.74-.2-.09.45.47.54.79.56l.23.57c.48.07,1.3.32,1.65-.18.22-.31.05-.63-.28-.72Z"/>
          <path class="cls-6" d="m19.29,38.25c-.25,0-.53-.04-.45.34.07.37.62.47.57,0l-.11-.34Z"/>
          <path class="cls-6" d="m22.38,40.68c.02-.22-.06-.38-.25-.49v-.34c-.88-.16-.31,1.08.25.84Z"/>
          <path class="cls-6" d="m17.24,40.07l-.46-.23s0-.06.01-.08c-.13.14-.29.32-.2.53.28.1.58.21.88.11.05-.16-.03-.36-.24-.33Z"/>
          <path class="cls-6" d="m31.01,39.5l-.68-.11s-.06.02-.09.03c-.08.38-.15,1.04.38.94.29-.05.93-.67.39-.85Z"/>
          <path class="cls-6" d="m34.06,36.65c-.23-.02-.54-.04-.76.02-.02.11,0,.21,0,.32l-.57-.23c-.05.3-.4.54-.08.88.24.25.61.24.93.27.31.03.39.13.63.32.21.16.43.24.44-.11,0-.24-.21-.53-.32-.73-.12-.24-.21-.48-.26-.74Z"/>
          <path class="cls-6" d="m26.2,38.93c.15.02.83.12.94-.1.14-.29-.49-.47-.66-.56-.2-.11-.41-.25-.59-.02l-.34-.11s-.07.03-.1.04c-.12.46.41.69.76.75Z"/>
          <path class="cls-6" d="m30.56,37.06c.04-.27.08-.52-.23-.52-.13,0-.17.08-.25.09-.09.02-.17.02-.26.02-.13-.12-.29-.22-.42-.31-.11-.07-.95-.54-.77-.03l.11.23s-.07.02-.1.03c.07.23.7.65.93.78.1.05.28.21.4.09.01-.01.02-.04.03-.07,0,0,.02,0,.02.01.35.14.49.05.54-.32Z"/>
          <path class="cls-6" d="m26.46,41.22c-.25-.19-.33-.03-.59.07-.25.1-.52.12-.78.15-.04.22.37.87.57.9l.8.34c.21,0,.64-.18.68-.4.05-.25-.49-.93-.68-1.07Z"/>
          <path class="cls-6" d="m32.82,39.51c-.46.06-.33.55.01.68l.46.11s.07,0,.1,0c.17-.37-.19-.84-.57-.78Z"/>
          <path class="cls-6" d="m36.94,39.73l.46-.11c.15.02.3.02.45,0,.06-.37.08-.82-.35-.91-.4-.08-1.13-.05-1.5.15-.37.21-.42.57-.05.76.18.1.83.35.98.11Z"/>
          <path class="cls-6" d="m23.23,43.04c-.41-.2-.71-.27-1.16-.17-.15.03-.72.09-.75.28-.03.28.56.66.81.69l.34.57c.29.22.4.27.72.14.27-.12.96-.27,1.09-.57.2-.44-.8-.81-1.06-.93Z"/>
          <path class="cls-6" d="m22.02,38.94c-.02-.35.21-.61.09-1-.24-.06-1.29-.09-1.24.31.03.23.63.46.8.46l.34.23Z"/>
          <path class="cls-6" d="m18.49,40.89c-.44.24,0,.81.23,1.01l.57-.34c.13-.4-.42-.87-.8-.67Z"/>
          <path class="cls-6" d="m23.52,39.45c-.2.12-.14.14-.01.31.1.12.38.33.56.31l.57-.23c.19-.52-.84-.57-1.12-.4Z"/>
          <path class="cls-6" d="m28.29,40.3c-.3-.03-1.15-.15-1.28.09.19.21.83.97,1.16.82l.34-.23c.11.03.21.02.31-.04.16-.38-.24-.62-.53-.65Z"/>
          <path class="cls-6" d="m28.04,38.01c.4.11.35-.12.35-.44l-.8-.23c-.08.31.13.58.45.67Z"/>
          <path class="cls-6" d="m42.86,43.83s-.05.01-.08.02c.02,0,.05,0,.08-.02Z"/>
          <path class="cls-6" d="m43.37,43.03c-.2-.05-.35-.21-.51-.33-.51-.4-1.07-.5-1.71-.47-.2.26.1.69.22.92l1.48.68c.36-.08,1.38-.37,1.11-.79-.2-.04-.39.03-.59-.02Z"/>
          <path class="cls-6" d="m47.17,35.3c-.1.02-.2.04-.29.09.1.01.2-.02.29-.09Z"/>
          <path class="cls-6" d="m47.5,35.2c.16-.55-.54-1.13-1.01-1.18-.44-.05-.79.27-1.2.35.39.06.74.52,1.1.69l.8.23s0,0-.01,0c.11-.02.22-.05.33-.1Z"/>
          <path class="cls-6" d="m84.9,20.95c.46.31,1.07.35,1.56.61.44.23.8.61,1.28.77.2.07.69.2.9.08.31-.17-.05-.88-.14-1.09-.26-.58-.59-1.11-1.19-1.4-.42-.2-.51-.2-.83.1l-1.37-.23c-.62.1-.71.81-.21,1.15Z"/>
          <path class="cls-6" d="m72.37,34.65c.08.22.39.46.63.4.07-.21.14-.78-.03-.95-.14-.13-.34-.08-.53-.07-.28.02-.44.03-.61-.2-.21-.3-.16-.75-.3-1.09-.17-.41-.67-.42-.85,0-.19.44.17,1.33.53,1.62l1.25.23-.09.04Z"/>
          <path class="cls-6" d="m71.08,30.08c.36.16.52-.34.47-.59l-.51-.41c-.06.24-.19.9.04,1Z"/>
          <path class="cls-6" d="m70.98,29.03l.06.04s0-.03.01-.04c-.02,0-.04,0-.07,0Z"/>
          <path class="cls-6" d="m79.85,31.97c.53-.57.16-.93-.48-1.01-.32-.04-.63.02-.95-.06-.23-.05-.82-.33-1.06-.09-.31.31.12.96.35,1.17l.8.23c.18-.03.33,0,.46.12.04.03.08.05.12.08.3.04.59-.25.77-.44Z"/>
          <path class="cls-6" d="m85.47,29.68c-.75-.26-1.54-.18-2.32-.2-.46-.01-1.29.16-1.23.72.04.39.61.94,1.02.88l.46.11c0-.19-.09-.65.04-.78.18-.19.71.03.77.23.08.28-.15.6.08.84.28.28,1.03.24,1.37.11.83-.3.55-1.65-.2-1.91Z"/>
          <path class="cls-6" d="m88.31,29.31c.15.31.51.76.9.74l-.34.34c.2.33.31.65.77.56.21-.04.51-.15.59-.36.13-.33-.08-1.07-.13-1.39-.04-.29-.12-.73-.4-.92-.16-.11-.43-.12-.61-.04-.08.08-.17.15-.26.21-.13.05-.27.11-.4.16-.32.2-.27.36-.11.69Z"/>
          <path class="cls-6" d="m90.15,26.5c.16.28.86,1.79,1.43,1.49.1-.7,0-1.46.01-2.17,0-.36.09-.62-.34-.56l-1.02-.34c-.3.03-.78,0-.78.42.05.15.13.28.24.39.17.25.32.5.46.76Z"/>
          <path class="cls-6" d="m76.51,23.62c.19-.1.25-.4-.06-.29l-.91-.57c-.25-.05-.68.09-.79.34-.28.61.57.58.9.58.27,0,.62.07.87-.05Z"/>
          <path class="cls-6" d="m76.85,39.48c-.5-.3-1.19-.48-1.76-.59-.31-.08-.63-.11-.95-.09-.08,0-.16.01-.24.02-.13-.04-.26-.21-.33-.33-.21-.36-.24-.85-.58-1.13-.15-.13-1.38-.76-1.59-.59-.4.33.35.95.58,1.09l.02-.07c.21.72.58.97.8,1.08.25.12.49,0,.74.07.21.06.41.3.57.44.38.32.69.66,1.2.7.32.03.53.1.78.32.49.43.56,1.14.88,1.69.08.14.55.92.81.5.1-.16.02-.51.02-.7,0-.81-.22-1.96-.97-2.41Z"/>
          <path class="cls-6" d="m70.28,41.22c-.11-.25-.38-.54-.58-.73-.22-.2-.44-.2-.64-.42-.14-.16-.22-.3-.25-.51-.04-.29-.08-.41-.27-.68-.08-.11-.16-.34-.24-.4-.1-.07-.44,0-.56,0-.21,0-.42,0-.74.11,0,.1.03.18.12.23.17.19.32.41.43.64.23.42.26.19.68.28.41.09.57.52.59.88.02.35.13.73.34,1.02.15.21.38.31.56.48.19.18.35.43.56.57.06-.21.02-.47.03-.69,0-.24.08-.57-.02-.79Z"/>
          <path class="cls-6" d="m90.69,34.33c-.29-.22-1.07-.06-1.41-.06-.3,0-.67-.09-.96,0-.27.07-.43.36-.56.58-.21.34-.52.85-.58,1.24-.03.17-.07.18.04.31.21.26.87.47,1.2.39l-.11.34c.24,0,.46.07.57-.18.19-.45-.32-.44-.48-.71.23-.12.79-.41,1.02-.22-.07.18-.2.56,0,.66.21.11.85-.11,1.07-.13.22-.02.45-.05.58-.26.3-.49.09-1.61-.38-1.95Z"/>
          <path class="cls-6" d="m78.14,34.72c-.56-.35-1.41-.21-2.04-.23-.58-.01-1,.19-.9.86.04.26.63,1.51,1.01,1.42,0-.03.01-.07.02-.1v-.02c.12.06.23.06.33,0,.06-.27-.18-1.01.28-.89.19.05.36.33.5.45.23.2.75.37,1.04.2.04-.45.2-1.42-.24-1.69Z"/>
          <path class="cls-6" d="m84.35,33.75c-.36-.2-.78-.16-1.18-.16l-.8-.11c-.06.15-.64.32-.71.35-.17.09-.84.48-.82.81.02.26.34.52.49.72.17.23.32.5.53.69.21.19.74.26.96.02.22-.24-.24-.79-.42-.9.24-.1.61-.2.85-.07.09.22.01.43.04.65.39.09.95.04,1.15-.33.18-.33.22-.64.21-1.01,0-.32-.02-.5-.31-.66Z"/>
          <path class="cls-6" d="m89.11,32.45c-.16-.21-.23-.48-.47-.61-.21-.12-.4-.08-.64-.08-.24,0-.69-.11-.87.11-.17.21-.17.79-.09,1,.15.42.77.26,1.13.26l.91.23c-.04-.22.12-.32.17-.5.06-.22,0-.21-.15-.4Z"/>
          <path class="cls-6" d="m89.4,40.32c-.24-.06-.61.1-.81-.03-.22-.14-.24-.56-.41-.79-.21-.29-.58-.56-.93-.68-.53-.17-1.01.36-1.2.8-.3.72.61.96,1.11,1.13l-.68.68c.46,0,.54-.08.68.34.06.18.08.38.3.46.23.08.5-.16.71-.21.27-.06.54-.05.82-.13.45-.12.61-.17.7-.62.07-.38.21-.85-.29-.96Z"/>
          <path class="cls-6" d="m80.9,38.82c-.06-.21,0-.39-.14-.58-.09-.13-.27-.28-.42-.32-.31-.09-.7,0-.92.22-.26.26-.49.81-.24,1.14.2.26.57.23.79.45v.68c.6,0,1.31.13,1.37-.66.01-.17.03-.4-.07-.54-.14-.2-.31-.14-.38-.39Z"/>
          <path class="cls-6" d="m83.37,43.59c-.04-.19.24-.42.31-.57.08-.17.18-.39.12-.58-.18-.64-1.67-.46-2.12-.29,0,.22.33,1.14.69,1.01v.91c.18,0,.32.19.52.22.3.04.69-.13.96-.25-.1-.19-.44-.19-.49-.44Z"/>
          <path class="cls-6" d="m83.75,37.69c-.28.07-.77.54-.83.81.2.21.56.2.82.21l.57.46h.09c.22-.48.16-.83-.14-1.25-.14-.2-.25-.29-.51-.23Z"/>
          <path class="cls-6" d="m93.55,33.13c-.03-.14-.1-.18-.19-.29-.19-.25-.27-.27-.56-.38-.31-.12-.3-.2-.63.1l-.46-.34c-.21.05-.36-.24-.56-.04-.15.15.07,1.06.09,1.14.03.13.09.5.23.58.2.12.48-.06.69,0,.34.11.29.61.62.71.42.12.49-.4.57-.69.06-.2.23-.59.18-.8Z"/>
          <path class="cls-6" d="m75.2,43.25c-.24-.19-.52-.33-.82-.4-.18.01-.34-.04-.47-.15.06-.21.03-.43.03-.64,0-.4-.12-.63-.33-.97-.36-.59-1.05-1.27-1.77-1.36-.41-.05-.44.04-.35.4.1.4.42.62.61.98.1.18.15.41.29.56.18.2.52.23.54.56,0,.16-.1.35-.11.52-.01.27.01.66.21.86l-.34.46c-.03.42-.04.7.44.8.61.12,1.74-.04,2.17-.53.32-.36.25-.76-.1-1.07Z"/>
          <path class="cls-6" d="m69.5,38.48l.11.23c-.07.37,1.02.36.92-.17-.1-.53-.71-.07-1.03-.05Z"/>
          <path class="cls-6" d="m66.45,41.46c.11-.34-.45-1.03-.82-1.04h-1.48c-.44-.11-.68.73-.42.99l.36.07c.28.01.56.05.83.13.19.02.37.09.52.21.07.08.15.15.25.19.25.06.69-.3.77-.55Z"/>
          <path class="cls-6" d="m60.05,39.16c-.14,0-.4-.06-.52,0-.31.18-.15.8.04.99.24.24.74.18.95-.09.14-.18.09-.36.09-.57l-.57-.34Z"/>
          <path class="cls-6" d="m62.22,42.12c-.24,0-.86-.11-.96.22.16.41,1.21.71,1.62.57.06-.15.02-.29.02-.45l-.68-.34Z"/>
          <path class="cls-6" d="m64.14,39.96c.07-.25.09-.91-.04-1.14-.05-.09-.2-.18-.33-.21.31.02.67.05.94-.03.04-.36-.2-.26-.38-.32-.34-.12-.36-.67-.72-.8-.54-.19-1.58.7-1.51,1.25h.46c.34,0,.63-.11.98-.11.04,0,.08,0,.12,0-.07.02-.11.08-.07.22l-.68-.11c-.15.26-.18.72.13.93.2.14.49.03.71.11.14.05.25.21.4.21Z"/>
          <path class="cls-6" d="m68.42,43.36c-.48-.31-.77-.55-.98-1.12-.09-.25-.17-.49-.5-.35-.14.06-.22.27-.28.41-.05.12-.05.28-.11.39-.07.14-.2.2-.25.35-.1.32.11.71.36.89l-.11.57c.35.58.76.41,1.32.34.35-.04,1.46.13,1.29-.48-.1-.34-.44-.83-.72-1.01Z"/>
          <path class="cls-6" d="m82.03,25.27c-.2,0-.51-.08-.65.12-.21.29.05.67.17.92.1.21.03.34.33.43.24.07.42-.03.37-.33l-.23-1.14Z"/>
          <path class="cls-6" d="m23.97,37.92c.17-.03.29-.07.38-.13.02,0,.03-.01.04-.04.13-.14.14-.35.14-.65,0-.3.09-.81-.21-1-.19-.12-.6.03-.8.06-.42.07-.85.13-1.27.16l-.11.46c.51.44,1.12,1.26,1.83,1.15Z"/>
          <path class="cls-6" d="m15.26,37.11c-.17-.04-.44-.13-.64-.11l.11.68s-.06-.01-.09-.02c.47.23.89.5,1.44.34.04-.11.07-.56,0-.67-.1-.16-.68-.2-.83-.23Z"/>
        </g>
      </g>
      <path class="cls-2" d="m42.96,23.95c-.41,1.48-1.8,1.47-2.54,1.47h-4.02c-.74,0-2.13.01-2.54-1.47,0,0,2.66.57,3.61-.41,0,0,.6-.37.95-.37s.95.37.95.37c.95.98,3.61.41,3.61.41Z"/>
      <path class="cls-4" d="m38.41,20.51c.2,0,.35.03.48.07,0,.05-.01.09-.03.14-.25.62-.45,1.85.5,2.83.95.98,3.61.41,3.61.41,0,0,2.21-.33,2.71-3.2.08-.45.17-.84.28-1.19-.03.06-.62,1.04-2.51,1.64-1.95.62-3.84-.25-4.25-.96-.09-.16-.39-.11-.78.06v.21Z"/>
      <path class="cls-7" d="m46.16,2.87s1.83-.49,3.21-.66c1.38-.16,1.79.08,1.79,1.31s-1.39,3.45-2.5,3.61c0,0-.19-2.29-2.5-4.27Z"/>
      <path class="cls-9" d="m46.65,3.32s2.51-.76,3.49-.58c.98.18.9.57.53,1.64-.37,1.07-1.44,2.13-2.3,2.17-.86.04-2.14-2.99-1.72-3.24Z"/>
      <path class="cls-7" d="m30.66,2.87s-1.83-.49-3.21-.66c-1.38-.16-1.79.08-1.79,1.31s1.39,3.45,2.5,3.61c0,0,.19-2.29,2.5-4.27Z"/>
      <path class="cls-9" d="m30.17,3.32s-2.51-.76-3.49-.58c-.98.18-.9.57-.53,1.64.37,1.07,1.44,2.13,2.3,2.17.86.04,2.14-2.99,1.72-3.24Z"/>
      <path class="cls-5" d="m49.37,7.8c0,.16,0,.33-.01.51,0,.07-.01.14-.02.22-.06.52-.11,1.14-.15,1.81,0,0,0,0,0,0-.01.17-.02.34-.03.51,0,0,0,0,0,0-.02.28-.03.57-.05.85-.01.21-.03.42-.04.63-.04.5-.08,1-.13,1.46-.13,1.12-.31,2.05-.64,2.44-.69.83-1.74,1.43-2.34,3.32,0,0,0,0,0,0-.02.04-.32.54-1.15,1.04-.31.19-.7.38-1.18.54,0,0,0,0,0,0-.02,0-.04.01-.06.02,0,0,0,0,0,0-.04.01-.08.03-.12.04-.43.14-.86.2-1.27.21-1.44.03-2.66-.61-2.98-1.17-.09-.16-.39-.11-.78.06-.39-.17-.69-.22-.78-.06-.32.56-1.54,1.21-2.98,1.17-.41,0-.84-.07-1.27-.21-.04-.01-.08-.03-.12-.04,0,0,0,0,0,0-.02,0-.04-.01-.06-.02,0,0,0,0,0,0-.48-.16-.87-.35-1.18-.54-.83-.5-1.12-.99-1.15-1.04,0,0,0,0,0,0-.6-1.89-1.65-2.49-2.34-3.32-.32-.39-.51-1.32-.64-2.44-.05-.46-.09-.96-.13-1.46-.01-.21-.03-.42-.04-.63-.02-.29-.03-.57-.05-.85,0,0,0,0,0,0-.01-.17-.02-.34-.03-.51,0,0,0,0,0,0-.04-.67-.09-1.29-.15-1.81,0-.07-.02-.15-.02-.22-.01-.18-.02-.35-.01-.51.03-1.49.73-2.55,1.23-3.32.13-.2.25-.38.34-.54.06-.12.16-.27.29-.45.19-.25.45-.55.8-.87.35-.32.79-.65,1.32-.97.35-.21.75-.42,1.2-.61.36-.15.75-.29,1.17-.42.43-.13.9-.24,1.4-.34.34-.06.7-.12,1.07-.16.37-.04.75-.07,1.15-.09.28-.01.57-.02.86-.02.04,0,.08,0,.12,0s.08,0,.12,0c.3,0,.58,0,.86.02.4.02.78.05,1.15.09.37.04.73.1,1.07.16.5.09.97.21,1.4.34.42.13.81.27,1.17.42.45.19.85.39,1.2.61.54.32.97.65,1.32.97.35.32.61.62.8.87.13.18.23.33.29.45.09.16.21.34.34.54.5.78,1.2,1.83,1.23,3.32Z"/>
      <path class="cls-6" d="m38.41,20.51v2.67c-.35,0-.95.37-.95.37.95-.98.74-2.21.5-2.83-.02-.04-.03-.09-.03-.14.13-.04.28-.07.48-.07Z"/>
      <path class="cls-4" d="m38.41,20.51c-.2,0-.35.03-.48.07,0,.05.01.09.03.14.25.62.45,1.85-.5,2.83-.95.98-3.61.41-3.61.41,0,0-2.21-.33-2.71-3.2-.08-.45-.17-.84-.28-1.19.03.06.62,1.04,2.51,1.64,1.95.62,3.84-.25,4.25-.96.09-.16.39-.11.78.06v.21Z"/>
      <path class="cls-6" d="m39.92,20.43c-.49.9-1.52,1.15-1.52,1.15,0,0-1.02-.25-1.52-1.15-.49-.9-.9-1.52,1.52-1.52s2.01.62,1.52,1.52Z"/>
      <path class="cls-4" d="m31.97,11.44s-.03.05-.07.04c.15-.03.14.12.18.24.03.09.08.18.12.26.09.16.16.32.26.48.26.45.7.72,1.17.92.1.04.2.04.3.07.02,0,.06.04.09.05.05.02.09,0,.15.02.15.03.32.1.47.14.08.03.18.07.26.11.06.03.15.12.19.04.02-.04,0-.18,0-.22,0-.08-.03-.16-.05-.24-.03-.12-.07-.24-.08-.36,0-.11-.04-.13-.12-.2-.09-.07-.18-.13-.29-.18-.28-.12-.54-.29-.81-.42-.27-.13-.43-.36-.67-.54-.16-.13-.32-.27-.52-.35-.12-.05-.29-.05-.42-.04-.01.05-.02.11-.17.16Z"/>
      <path class="cls-6" d="m35.25,13.34s.11-1.31-.71-1.8-1.91-.34-2.52-.33l-.52.32s.88-.04,1.08.04c.21.08.25,1.31,1.27,1.56l1.03.25s.37.32.37-.03Z"/>
      <path class="cls-10" d="m33.18,11.32s-.22.83.78,1.33,1.19,0,1.19,0c0,0-.1-.5-.55-.83,0,0,0,.41-.45.45-.46.05-.41-.67-.1-.81,0,0-.32-.06-.88-.15Z"/>
      <path class="cls-6" d="m38.41,20.51v2.67c.35,0,.95.37.95.37-.95-.98-.74-2.21-.5-2.83.02-.04.03-.09.03-.14-.13-.04-.28-.07-.48-.07Z"/>
      <path class="cls-4" d="m44.85,11.44s.03.05.07.04c-.15-.03-.14.12-.18.24-.03.09-.08.18-.12.26-.09.16-.16.32-.26.48-.26.45-.7.72-1.17.92-.1.04-.2.04-.29.07-.02,0-.06.04-.09.05-.05.02-.09,0-.15.02-.15.03-.32.1-.47.14-.08.03-.18.07-.26.11-.06.03-.15.12-.19.04-.02-.04,0-.18,0-.22,0-.08.03-.16.05-.24.03-.12.07-.24.08-.36,0-.11.04-.13.12-.2.09-.07.18-.13.29-.18.28-.12.54-.29.81-.42.27-.13.43-.36.67-.54.16-.13.32-.27.52-.35.12-.05.29-.05.42-.04.01.05.02.11.17.16Z"/>
      <path class="cls-6" d="m41.56,13.34s-.11-1.31.71-1.8c.82-.49,1.91-.34,2.52-.33l.52.32s-.88-.04-1.08.04c-.21.08-.25,1.31-1.27,1.56l-1.03.25s-.37.32-.37-.03Z"/>
      <path class="cls-10" d="m43.63,11.32s.22.83-.78,1.33-1.19,0-1.19,0c0,0,.1-.5.55-.83,0,0,0,.41.45.45.46.05.41-.67.1-.81,0,0,.32-.06.88-.15Z"/>
      <path class="cls-6" d="m32.53,22.5s0-.04,0-.05c0,.02,0,.04,0,.05Z"/>
      <path class="cls-6" d="m35.28,23.59c-.19-.08-.25-.07-.49-.09-.18-.01-.31-.05-.46-.08-.12-.03-.18-.04-.28-.1-.07-.05-.12-.09-.23-.11-.11-.02-.23,0-.34-.04-.17-.06-.21-.19-.33-.28-.08-.06-.21-.1-.3-.16-.06-.04-.11-.1-.17-.14-.05-.03-.13-.05-.16-.08.02.14.08.27.13.41.03.07.07.17.14.23.08.07.21.09.32.14.09.04.12.09.18.14.09.07.23.08.35.12.08.02.2.06.27.07.21.03.44-.01.64.02,0,.11.16.06.26.07.09.01.18.06.28.04.4-.04.33-.1.18-.16Z"/>
      <path class="cls-6" d="m32.44,21.08c.08.06.12.07.18.16.06.1.07.12.2.12.08,0,.15-.01.22.02.09.04.14.06.25.06.09,0,.17,0,.26,0,.07,0,.08.02.13.05.06.03.1.03.18.03.07,0,.12,0,.17.03.06.04.08.08.15.1.06,0,.13-.02.18,0,.05.01.09.06.14.04.28,0,.35.01.42-.03.07-.04.1-.1.01-.13-.07-.03-.1,0-.17-.06-.06-.05-.07-.05-.14-.07-.08-.02-.19-.02-.27-.04-.03-.01-.05-.04-.08-.06-.03-.01-.07-.02-.09-.03-.02-.01-.02-.05-.04-.07-.05-.03-.13,0-.19,0-.1,0-.16-.01-.25-.04-.06-.02-.15-.04-.22-.05-.07,0-.12.04-.19.05-.13.01-.17-.09-.26-.16-.09-.07-.13-.01-.23-.05-.05-.02-.06-.04-.09-.08-.04-.05-.05-.05-.1-.08-.03-.02-.04,0-.07-.04-.03-.05-.04-.11-.08-.16-.07-.07-.2-.05-.27-.12-.06-.06,0-.13-.04-.19-.08.01-.2.1-.19.19,0,.07.07.16.09.23.03.09.03.11.1.15.05.04.11.06.16.11.05.04.08.1.13.13Z"/>
      <path class="cls-6" d="m38.08,12.3l-.21.08c-.06.01-.07.05-.09.1-.04.09-.03.11.06.14.11.04.07.03.11.13.03.06.11.11.18.08.07-.03.06-.08.06-.15,0-.09.03-.14.04-.22,0-.04.01-.14,0-.17-.03-.05-.15-.07-.16,0Z"/>
      <path class="cls-6" d="m35.29,22.61s-.08,0-.12,0c-.05,0-.08-.03-.12-.03-.02.02-.05.03-.09.03-.03-.01-.05-.03-.07-.05-.05-.03-.03-.02-.09-.03-.04,0-.11-.04-.15-.03-.06,0-.1.06-.17.03,0-.11-.05-.1-.13-.12-.07-.02-.13-.06-.21-.04-.07.02-.08.04-.16.04-.02,0-.06,0-.08,0-.06-.01-.04-.04-.08-.06-.05-.02-.11-.03-.16-.04-.05-.01-.11,0-.17-.02-.06-.02-.08-.04-.16-.04-.09,0-.11-.03-.15-.11-.07.03-.14.05-.19-.01-.02-.02-.02-.06-.04-.08-.02-.02-.05,0-.08,0-.06-.03-.06-.06-.1-.1-.05-.06-.06-.06-.14-.07,0-.08-.04-.07-.09-.1-.04-.03-.07-.11-.12-.1-.09.01.04.18.04.23.01.07-.02.06.04.1.05.04.09.03.13.08.03.03.04.09.08.12.04.02.12,0,.17,0,.1.08.15.15.2.18.02.01.06.02.08.04.06.04.06.09.14.11.06.01.1,0,.16,0,.07.01.12.04.19.04.05,0,.08,0,.13,0,.06.01.1.03.16.04.06.01.16.01.2.03.04.01.05.05.09.06.07.03.06-.01.12-.02.05,0,.08.03.12.04.07.01.14-.02.21,0,.06.01.1.06.16.08.07.02.14,0,.2,0,.17.03.31.13.5.08-.02-.04-.06-.08-.08-.11-.03-.05-.1-.14-.17-.16Z"/>
      <path class="cls-6" d="m38.08,10.78c.02-.1.07-.22.03-.33-.07-.23-.25-.24-.44-.15-.13.06-.26.12-.25.28,0,.03.02.17.05.2.07.06.28-.02.37,0,.1.02.15.09.09.18-.03.05-.13.09-.14.15-.01.11.12.25.21.25.12,0,.15-.11.25-.12l.04-.08c.16-.12-.11-.33-.2-.38Z"/>
      <path class="cls-6" d="m38.02,9.62c.07-.05.06-.15.09-.22.03-.09.08-.16.1-.24.02-.16-.07-.39-.25-.41l-.25.08c-.04.06-.06.02-.1.04-.05.03-.08.08-.1.14-.02.08-.03.23,0,.31.05.14.35.42.51.31Z"/>
      <path class="cls-6" d="m37.44,7.65c.09-.04.17-.06.27-.07.05,0,.11.02.16,0,.05-.02.11-.09.15-.13.08-.11.08-.28.02-.39l-.25-.08c-.09,0-.18,0-.27,0-.16.01-.51.08-.55.28-.04.19.03.27.17.38.13.11.14.08.31.02Z"/>
      <path class="cls-6" d="m37.2,5.09c-.11.03-.16.14-.23.22-.08.1-.17.18-.21.3-.02.06-.06.17-.02.23.05.08.25.11.33.13.2.04.34-.02.5-.13.08-.06.14-.09.24-.11.05-.01.14,0,.19-.03.07-.03.1-.08.12-.16.02-.09.04-.2.04-.29,0-.1,0-.11-.08-.16l-.41.04c-.15-.03-.31-.08-.47-.04Z"/>
      <path class="cls-6" d="m37.96,3.57l.12-.16s.02.06.03.1c.09,0,0-.52-.1-.57-.07-.04-.22-.04-.29,0-.07.04-.08.1-.18.11-.03.07-.02.24,0,.31,0,.04.02.1.05.13.09.08.27.03.36.09Z"/>
      <path class="cls-6" d="m37.06,1.93c.18-.03.35-.13.54-.12.1,0,.15.05.23.08h.25s0-.02,0-.03c.15-.02.22-.07.19-.24-.02-.09-.02-.19-.04-.28-.03-.14-.24-.34-.38-.34-.09,0-.25.05-.34.08-.11.04-.19.1-.31.13-.08,0-.15.03-.21.07-.03.07-.04.15-.02.23,0,.14,0,.31.1.43Z"/>
      <path class="cls-6" d="m36.59.22c-.02.09-.08.19-.16.24-.09.06-.18.02-.28.04,0,.03,0,.05,0,.08l-.21-.04c-.06,0-.13,0-.19,0-.12,0-.19-.05-.3-.08-.13-.03-.29.03-.25-.18.34-.06.7-.12,1.07-.16.05.01.11.03.16.05.05.02.11.03.16.05Z"/>
      <path class="cls-6" d="m36.33,3.83c-.12.03-.24.02-.36.03-.31.04-.05.25-.02.43.06.02.18-.02.24-.03.09,0,.2-.02.29.02.05.02.1.08.16.06l.37-.16s-.01.06,0,.08c.23,0,.4-.26.21-.44-.12-.12-.48-.13-.64-.1-.09.02-.17.07-.26.1Z"/>
      <path class="cls-6" d="m35.73,1.95c-.16.1-.31.22-.39.39-.04.08-.11.3-.02.39.08.08.32,0,.42-.03.07-.01.14-.07.21-.07l.21-.12c.2-.07.62-.14.57-.43-.02-.16-.2-.26-.34-.29-.23-.05-.46.05-.65.17Z"/>
      <path class="cls-6" d="m38.22.1c-.07.04-.19.08-.27.09-.07.01-.13,0-.2.01-.01.04-.01.08,0,.12l-.16-.21c-.06,0-.15.02-.17-.06,0-.01,0-.03,0-.04.28-.01.57-.02.86-.02.01.05-.02.08-.07.1Z"/>
      <path class="cls-6" d="m34.02.98c-.07.02-.13.03-.2.06-.11.04-.23.03-.35.04-.13.01-.26.03-.39.08-.09.04-.16.09-.26.07-.11-.03-.2-.09-.19-.19.36-.15.75-.29,1.17-.42.13.07.23.23.21.36Z"/>
      <path class="cls-6" d="m31.63,2.3c-.21.22-.58.19-.81.39-.15.13-.23.27-.45.27-.08,0-.17-.01-.22-.08-.04-.05-.04-.17-.04-.26.35-.32.79-.65,1.32-.97h.08c.12,0,.24.2.25.31.02.13-.05.26-.14.35Z"/>
      <path class="cls-6" d="m33.48,1.77c.01.14.12.15.25.16.22,0,.44-.08.66-.08.13,0,.33.05.44-.02.12-.07.14-.42-.03-.39l-.45-.12c-.24-.04-.49-.09-.71.08-.12.09-.18.23-.16.38Z"/>
      <path class="cls-6" d="m29.89,3.86s-.12.1-.15.12c-.19.1-.4.1-.59.22-.14.09-.28.28-.46.28h0c.13-.2.25-.38.34-.54.06-.12.16-.27.29-.45.01,0,.02,0,.03,0l.33.16c.04.07.22.12.21.21Z"/>
      <path class="cls-6" d="m31.31,3.2c.14,0,.27.02.4-.05.14-.07.24-.21.38-.28.09-.05.21-.08.31-.1.12-.03.2-.02.25-.14.02-.05.02-.1.05-.14.02-.04.04-.02.06-.07l-.41.04c-.49,0-.89.26-1.03.74Z"/>
      <path class="cls-6" d="m35.82.9c-.12.12.01.27.14.29.12.02.23-.06.35-.07.1-.02.3.04.3-.13l-.37-.12c-.1,0-.34-.05-.42.03Z"/>
      <path class="cls-6" d="m34.27,3.1c.07-.03.13-.11.16-.18.02-.07.02-.15-.02-.22-.07-.11-.23-.12-.34-.19l-.29.04c-.21-.03-.34.14-.46.27-.07.08-.29.25-.23.37.07.14.49.03.57,0,.12-.03.24-.07.37-.08.09,0,.16.02.24-.02Z"/>
      <path class="cls-6" d="m32.06,3.9c.06,0,.13-.02.16-.08.03-.07-.07-.21-.13-.25l-.62.04c-.23-.03-.51.14-.67.29-.18.17.11.16.23.16.19,0,.34-.07.52-.12.17-.04.33-.03.5-.05Z"/>
      <path class="cls-6" d="m34.35,3.57c-.16-.03-.35-.09-.49.05-.05.05-.12.21-.09.28.03.08.16.04.23.03.19-.03.38-.03.57-.03.07,0,.4.05.45-.03.07-.13-.2-.29-.3-.29h-.37Z"/>
      <path class="cls-6" d="m30.16,4.63l-.29.04c-.23,0-.34.13-.41.34-.05.15-.13.38-.08.54.04.13.21.06.31,0,.07-.04.17-.1.22-.16.04-.04.05-.1.08-.14.08-.11.24-.13.31-.24.08-.13.07-.4-.14-.39Z"/>
      <path class="cls-6" d="m33.99,4.92c.12.02.28-.12.38-.17.11-.05.2-.07.33-.08.05,0,.15,0,.19-.03.08-.07.07-.2.07-.3l-.16-.16c-.06.07-.15.04-.23.04-.15.01-.33.06-.46.14-.13.08-.21.2-.22.35,0,.09-.02.19.1.2Z"/>
      <path class="cls-6" d="m34.56,5.47c-.02.13.01.22.15.24.11.01.3.02.4-.02.06-.04.13-.08.2-.1.08-.01.16-.01.25,0,.09,0,.14-.03.17-.13.02-.05.03-.11-.03-.12l-.33-.25c-.18,0-.38-.04-.54.05-.16.08-.24.15-.27.33Z"/>
      <path class="cls-6" d="m32.54,4.27c-.17,0-.34-.03-.5.04-.2.09-.32.27-.28.49.15.04.29.05.43,0,.16-.05.32-.05.48-.08.09-.02.05-.03.11-.1.04-.05.13-.06.12-.14-.01,0-.02,0-.04,0l-.33-.21Z"/>
      <path class="cls-6" d="m35.91,7.43c-.02-.29-.14-.38-.4-.5-.11-.05-.13-.03-.14-.13,0-.05.01-.08.03-.12.08-.17.34-.27.38-.46.05-.22-.74-.08-.85-.02-.1.05-.13.07-.13.19,0,.11.03.14.13.2l.08.12s-.02,0-.03,0c-.02.05,0,.1,0,.15-.02.15-.11.2-.08.37.02.16.04.38.12.52.11.2.32.2.52.15.28-.08.41-.18.39-.49Z"/>
      <path class="cls-6" d="m36.34,10.16c.08.09.24.23.38.21.15-.03.31-.19.39-.31.13-.21.06-.35-.1-.52-.08-.08-.22-.19-.2-.33.02-.12.17-.04.26-.07.14-.05.08-.22.06-.34-.01-.1,0-.3-.04-.4-.08-.15-.23-.13-.34-.05-.07.05-.11.07-.19.09-.09.02-.33.03-.4.12-.06.08.05.26.1.32.06.08.13.14.19.22l.04.29c0,.16.02.24-.07.39-.08.14-.2.23-.07.39Z"/>
      <path class="cls-6" d="m36.38,13.09c-.17,0-.11-.07-.21-.17-.08-.07-.27-.11-.24-.24.03-.14.13-.23.09-.39-.03-.11-.1-.21-.13-.32-.03-.12-.05-.16-.18-.21-.08-.03-.12-.04-.18-.11-.04-.04-.1-.17-.15-.2-.19-.09-.12.22-.12.3,0,.16,0,.33,0,.49,0,.09.03.22.11.27.05.04.15.06.21.1.03.01.16.06.17.08.04.06-.02.13-.06.17-.05.06-.06.08-.06.16,0,.14,0,.21.11.3.04.03.24.19.26.06.26.08.32.09.37.08.04,0,.06-.02.09-.03.11-.03.37.03.36-.13,0-.24-.29-.2-.43-.21Z"/>
      <path class="cls-6" d="m34.55,10.12c0,.1-.03.25.04.34.07.09.21.1.31.11.13,0,.24-.02.3-.13.03-.05.05-.12.08-.17.02-.04.09-.09.08-.14-.02-.1-.15-.1-.12-.23.01-.07.07-.1.09-.17.03-.14,0-.16-.12-.21-.17-.08-.23-.26-.35-.39-.11-.12-.06-.15.06-.23.09-.06.17-.13.17-.25,0-.06-.01-.24-.07-.29-.07-.06-.24-.03-.32-.03-.15,0-.32-.03-.47.02-.34.11-.14.52.15.51.1.13.08.12.05.13,0,.08-.05.12-.05.2,0,.12-.04.28,0,.38.05.13.22.09.24.25,0,.06-.01.09-.04.15-.04.07-.04.07-.04.15Z"/>
      <path class="cls-6" d="m37.51,11.27s-.14-.05-.19-.02c-.06.04-.05.15-.14.12l-.12-.08c-.06.02-.09-.03-.14-.04-.11-.03-.27-.02-.34.08-.13.18-.03.42-.01.62.09.04.32-.02.4-.08.06-.05.09-.13.15-.18.05-.04.14-.06.2-.09.06-.03.13-.05.19-.07.07-.02.08.02.09-.08,0-.06-.03-.14-.08-.18Z"/>
      <path class="cls-6" d="m32.91,5.17l-.33-.04s-.05.03-.08.04c-.02,0-.03-.01-.05-.01-.03,0-.06.01-.07.06-.12.11-.21.26-.29.39-.06.11-.05.17,0,.29.21.53.33-.27.58-.05.13.11-.08.33-.13.43-.1.19.05.52.3.45.14-.04.28-.18.39-.28.09-.07.19-.15.22-.27.06-.24-.16-.28-.33-.36-.31-.15-.07-.21,0-.43.02-.07.01-.13-.03-.19-.03-.04-.16-.13-.17-.03Z"/>
      <path class="cls-6" d="m31.68,10.66c.08-.05.1-.02.18,0,.12.02.25.02.37.01.14,0,.22-.1.35-.09l.21-.04c.03-.09.11-.09.08-.22-.02-.09-.1-.23-.17-.28-.13-.09-.28-.02-.38.08-.06.06-.06.09-.17.09-.09,0-.19-.02-.28.02-.12.04-.39.3-.35.45.03.14.1.02.17-.02Z"/>
      <path class="cls-6" d="m33.74,6.87c-.05.12-.12.26,0,.34.07.04.12.05.18.11.02.02.09.13.11.14.07.03.2-.05.25-.08.09-.05.16-.12.24-.17.1-.06.07-.12.07-.23,0-.07.02-.13-.03-.18-.09-.09-.3-.1-.42-.11l-.21.04c-.13,0-.15.01-.2.14Z"/>
      <path class="cls-6" d="m34.05,10.47c-.09-.04-.06-.03-.09-.11-.02-.05-.06-.09-.06-.14l-.41.08c-.2-.05-.49.35-.22.45.21.08.42,0,.63.04.15.03.58.42.58.04,0-.26-.23-.27-.42-.36Z"/>
      <path class="cls-6" d="m33.28,8.7c-.17-.09-.33.42-.33.54,0,.19.08.16.23.16.08,0,.17.01.25,0,.06-.01.12-.06.17-.08.03-.01.11-.04.13-.06.08-.1-.05-.35-.12-.43l-.33-.12Z"/>
      <path class="cls-6" d="m30.82,5.82s.12-.14.12-.18c0-.04-.08-.13-.12-.14l-.49-.04c-.14-.03-.36.29-.32.41.29.05.59.24.81-.04Z"/>
      <path class="cls-6" d="m30.99,11.67c-.02-.08-.15-.16-.54-.26-.41-.04-.65.44-.69.77-.02.13-.02.27,0,.4,0,.06.02.33.07.37.04.04.12.02.17.03.09.01.23.07.31,0,.04-.03.09-.16.11-.19.08-.16.12-.29.31-.35.11-.04.16-.02.18-.15.02-.1.03-.2.03-.3,0-.06,0-.11,0-.17,0-.04.04-.09.04-.14Z"/>
      <path class="cls-6" d="m28.41,10.99c.04.08.07.13.16.16.2.06.22-.12.23-.28.03-.29.01-.59-.03-.87-.01-.11-.03-.15-.12-.22-.06-.04-.1-.04-.13-.1-.05-.08-.05-.22-.07-.32-.02-.09-.14-.26-.38-.26-.31-.06-.31.34-.29.54,0,.14.03.39.22.38.15-.01.17-.11.27-.18.06-.04.07-.06.13.03.07.09.1.23.08.34-.05.28-.2.5-.06.78Z"/>
      <path class="cls-6" d="m28.2,13.22c0,.16,0,.32-.09.46-.07.1-.14.15-.22.12-.05-.46-.09-.96-.13-1.46.06-.01.2,0,.23,0l.16.12c-.01.07.03.13.04.2.03.17,0,.37,0,.55Z"/>
      <path class="cls-6" d="m27.92,7.2c.07.02.2.06.27-.01.01-.06.01-.13,0-.19,0-.09,0-.18,0-.26.01,0,.02,0,.03,0l-.21-.29c.03.22-.52.62-.11.76Z"/>
      <path class="cls-6" d="m28.45,5.82c.14.03.33-.02.35-.18,0-.06,0-.12,0-.18l-.29-.21c-.02.14-.22.19-.25.34-.03.14.07.2.18.23Z"/>
      <path class="cls-6" d="m29.48,8.84c.22-.13.08-.48-.02-.64l-.29-.12c-.09.01-.21-.07-.29-.05-.08.02-.08.15-.08.22-.01.18.02.26.14.39.11.12.36.31.54.2Z"/>
      <path class="cls-6" d="m32.43,7.91c.29.04.25-.32.2-.49l-.25-.29c-.09,0-.16,0-.25-.02-.18-.04-.25,0-.24.18,0,.17.02.25.17.34.12.07.31.13.37.27Z"/>
      <path class="cls-6" d="m31.18,7.13c0-.08-.09-.11-.08-.2l-.37-.21c-.2-.03-.37.16-.39.35-.03.29.27.43.51.47.22.03.21-.1.27-.26.02-.06.06-.09.06-.16Z"/>
      <path class="cls-6" d="m28.79,6.91c.05.09.17.18.24.25.1.08.23.23.35.27.22.06.24-.1.25-.28,0-.15,0-.52-.2-.55,0-.01,0-.02,0-.03l-.37-.08c-.19,0-.36.26-.27.43Z"/>
      <path class="cls-6" d="m31.83,8.8c-.09.12-.13.21-.09.36.02.07.1.28.2.32.17.06.15-.27.18-.39.02-.08.08-.15.1-.23.01-.06,0-.1.04-.16l-.12-.16c-.12.04-.23.16-.3.27Z"/>
      <path class="cls-6" d="m29.4,10.58c.14-.05.11-.12.11-.25,0-.15,0-.29.1-.41.09-.12.15-.11.15-.26,0-.09,0-.17,0-.26l-.37.08c0,.09-.15.18-.2.24-.09.11-.15.29-.14.44.01.18.12.5.34.42Z"/>
      <path class="cls-6" d="m27.87,8.1c-.03.16.04.32-.05.47-.05,0-.09-.03-.13-.06-.07-.05-.16-.12-.23-.19-.01-.18-.02-.35-.01-.51.01-.02.03-.04.05-.05l.37.08c.1.07.02.18,0,.26Z"/>
      <path class="cls-6" d="m30.98,8.37l-.21-.08c-.08,0-.2.15-.24.2-.11.12-.26.33-.18.51.07.17.2.22.35.3.05.03.17.13.23.1.02-.12-.01-.24.02-.36.03-.11.13-.23.15-.33.02-.07.04-.39-.12-.34Z"/>
      <path class="cls-6" d="m35.17,13.05s0,0,0,0c.01,0,.02,0,.03,0-.01,0-.02,0-.03,0Z"/>
      <path class="cls-6" d="m35.58,14.74s-.03-.05-.03-.07c-.02-.06-.01-.13,0-.2,0-.09-.03-.12-.04-.2-.01-.1,0-.17-.02-.27-.06-.17-.13-.35-.18-.52-.04-.12-.16-.31-.12-.44-.29.04-.27-.02-.39,0-.06.01-.26.02-.3.07.02.07.09.06.13.11.03.04.04.09.07.13.03.02.06.05.08.08,0,.04.01.08.02.13.02.09.02.15.03.23,0,.09.04.16.04.25,0,.09,0,.18,0,.27,0,.1.03.17.04.27.01.09,0,.22,0,.3,0,.16-.03.31-.08.46-.03.14-.05.29-.07.43-.02.09-.25.59-.11.66.11.05.32-.09.38-.17.17-.24.16-.57.34-.82.05-.06.02-.07.11-.08.06,0,.1.03.16.04.07-.16-.01-.41-.04-.57,0-.03.01-.07,0-.1Z"/>
      <path class="cls-6" d="m31.74,12.04c.11.1.25.21.27.36,0,.08.05.29.12.34.07.05.15.04.21.09.15.13.26.4.47.46.08.02.26.02.34,0-.02-.15-.13-.19-.24-.27-.12-.09-.17-.26-.3-.36-.11-.09-.19-.13-.2-.28,0-.09,0-.17-.06-.24-.05-.07-.1-.11-.15-.19-.35-.22-.47-.14-.51-.1-.09.08-.04.13.04.2Z"/>
      <path class="cls-6" d="m34.14,16.98l-.12-.29c-.08.1-.39.23-.26.41.12.16.41.1.39-.12Z"/>
      <path class="cls-6" d="m28.99,12.81c.1.05.11.01.11-.1,0-.17-.05-.33-.04-.49l-.25-.21s-.08-.02-.12.02c-.02.03-.02.14-.01.18.01.12.07.26.14.37.04.07.11.19.17.23Z"/>
      <path class="cls-6" d="m32.65,14.23c.09,0,.21.03.27-.04.09-.09.05-.24.11-.34l-.29-.25c-.08,0-.16,0-.23,0-.17-.01-.33-.1-.51-.08-.12.01-.15.09-.25.16-.09.06-.4.1-.42.21.1.07.22.09.33.12.13.04.26.09.39.12.18.05.41.08.59.08Z"/>
      <path class="cls-6" d="m30.67,16.45c.14-.03.45-.26.29-.43-.03-.04-.06-.04-.12-.02-.09.01-.17,0-.25-.06-.1-.07-.18-.15-.29-.21-.17-.09-.3-.04-.47-.06-.07-.01-.1-.03-.13-.09-.13-.18-.15-.54-.42-.54-.24,0-.57.32-.39.55.09.12.25.18.38.26.05.04.23.23.31.21,0-.01,0-.03,0-.04l.12.08s0,.02,0,.03c.09.03.2,0,.3,0,.24.02.37.35.65.29Z"/>
      <path class="cls-6" d="m29.52,14.03c.11.12.16.19.32.24l.25.08c.13-.04.23-.2.21-.34-.03-.18-.24-.23-.39-.28-.15-.05-.53-.09-.47.17.01.06.05.08.09.13Z"/>
      <path class="cls-6" d="m30.04,10.27c-.11.21-.11.45-.04.67.03.1.11.22.24.15.06-.06.11-.13.15-.21.06-.11.14-.2.25-.27.09-.05.23-.07.27-.18.03-.09.02-.3-.12-.3l-.33-.12s-.12-.01-.16,0c-.12.03-.2.16-.25.26Z"/>
      <path class="cls-6" d="m30.49,17.23c-.07.03-.12.04-.17.09-.05.05-.1.14-.07.22.04.1.36.13.46.14.08,0,.21.03.29,0,.08-.02.07,0,.08-.09,0-.13-.03-.28,0-.4.01,0,.02,0,.03,0l-.29-.16c-.11.08-.21.15-.33.21Z"/>
      <path class="cls-6" d="m33.21,14.6s.14-.22.07-.28c-.11-.09-.24.12-.24.2,0,.1.04.26-.11.25v.03s-.05-.04-.05-.04c-.08,0-.29,0-.35.06-.07.07-.02.33-.02.43,0,.08-.02.17.08.21.11.04.16-.07.24-.13.07-.05.11-.05.17-.09.13-.07.14-.17.1-.29-.03-.08-.03-.08.02-.16.04-.06.06-.13.1-.2Z"/>
      <path class="cls-6" d="m31.11,14.97l-.49-.21s0,.02,0,.03c-.1.05-.22-.06-.28.06-.11.23.2.33.36.37.14.03.21.11.34.03.03-.02.05-.05.08-.06.05-.02.1,0,.15-.02-.03-.08-.09-.14-.15-.2Z"/>
      <path class="cls-6" d="m34.27,15.67l-.25-.16c.03.14-.42.51-.17.58.1.03.19-.03.22-.11.03-.07.04-.13.09-.18.03-.04.09-.06.1-.11Z"/>
      <path class="cls-6" d="m33.57,13.95s.04.18.06.19c.08.05.26-.1.33-.14.14-.08.35-.12.22-.3-.1-.14-.25-.12-.4-.12l-.12-.04c-.08-.03-.1.04-.08.1.02.06.1.13.14.17,0,.07-.12.06-.14.15Z"/>
      <path class="cls-6" d="m32.67,16.53c.02.11-.14.14-.2.2-.09.1-.05.19.07.21.07,0,.24.02.29-.05.04-.06-.03-.14.05-.2l-.21-.16Z"/>
      <path class="cls-6" d="m32.96,17.65s.02,0,.03,0l-.16-.08c-.11-.03-.34.19-.35.28.13.02.49,0,.48-.19Z"/>
      <path class="cls-6" d="m33.73,15.18l-.08-.16c-.04.11-.25.24-.14.37.16.19.17-.18.22-.2Z"/>
      <path class="cls-6" d="m32.09,17.31c-.05.06-.24.09-.21.21.03.12.25-.05.29-.08l-.08-.12Z"/>
      <path class="cls-6" d="m32.42,16.16c.11-.06.09-.14.04-.25l-.25-.08c.03.08-.22.18-.26.23-.08.08-.17.27-.1.38.13.01.29-.07.4-.14.07-.05.1-.1.16-.14Z"/>
      <path class="cls-6" d="m33.37,16.82c.13,0,.22-.26.2-.37l-.08-.04c-.14.01-.14.32-.12.41Z"/>
      <path class="cls-6" d="m34.68,15.05l-.12-.16c0,.06-.05.11-.06.17-.03.11-.04.26-.01.37.16.05.2-.28.2-.37Z"/>
      <path class="cls-6" d="m28.56,13.99l-.16.21c0,.12.17.41.3.38,0-.15-.02-.25.02-.39.03-.12-.01-.22-.15-.2Z"/>
      <path class="cls-6" d="m28.15,11.05c-.02.08-.12.15-.15.25-.05.16.02.32-.02.47-.05.01-.09,0-.14-.02-.05-.01-.09-.03-.13-.05-.02-.29-.03-.57-.05-.85,0,0,0,0,0,0,0-.06,0-.12,0-.19l.29-.04c.08.09.24.3.21.43Z"/>
      <path class="cls-6" d="m44.28,22.5s0-.04,0-.05c0,.02,0,.04,0,.05Z"/>
      <path class="cls-6" d="m41.53,23.59c.19-.08.25-.07.49-.09.18-.01.31-.05.46-.08.12-.03.18-.04.28-.1.08-.05.12-.09.23-.11.11-.02.23,0,.34-.04.17-.06.21-.19.33-.28.08-.06.21-.1.3-.16.06-.04.11-.1.17-.14.05-.03.13-.05.16-.08-.02.14-.08.27-.13.41-.03.07-.07.17-.14.23-.08.07-.21.09-.32.14-.09.04-.11.09-.18.14-.09.07-.23.08-.35.12-.08.02-.2.06-.27.07-.21.03-.44-.01-.64.02,0,.11-.16.06-.26.07-.09.01-.18.06-.28.04-.4-.04-.33-.1-.18-.16Z"/>
      <path class="cls-6" d="m44.38,21.08c-.08.06-.12.07-.18.16-.06.1-.07.12-.2.12-.08,0-.15-.01-.22.02-.09.04-.14.06-.25.06-.09,0-.17,0-.26,0-.07,0-.08.02-.13.05-.06.03-.1.03-.18.03-.07,0-.12,0-.17.03-.06.04-.08.08-.15.1-.06,0-.13-.02-.18,0-.05.01-.09.06-.14.04-.28,0-.35.01-.42-.03-.07-.04-.1-.1-.01-.13.07-.03.1,0,.17-.06.06-.05.07-.05.14-.07.08-.02.19-.02.27-.04.03-.01.05-.04.08-.06.03-.01.07-.02.09-.03.02-.01.02-.05.04-.07.05-.03.13,0,.19,0,.1,0,.16-.01.25-.04.06-.02.15-.04.22-.05.07,0,.12.04.19.05.13.01.17-.09.26-.16.09-.07.13-.01.23-.05.05-.02.06-.04.09-.08.04-.05.05-.05.1-.08.03-.02.04,0,.07-.04.04-.05.04-.11.08-.16.08-.07.2-.05.27-.12.06-.06,0-.13.04-.19.08.01.2.1.19.19,0,.07-.07.16-.09.23-.03.09-.03.11-.1.15-.05.04-.11.06-.16.11-.05.04-.08.1-.13.13Z"/>
      <path class="cls-6" d="m38.73,12.3l.21.08c.06.01.07.05.09.1.04.09.03.11-.06.14-.11.04-.07.03-.11.13-.03.06-.11.11-.18.08-.07-.03-.06-.08-.06-.15,0-.09-.03-.14-.04-.22,0-.04-.01-.14,0-.17.03-.05.15-.07.16,0Z"/>
      <path class="cls-6" d="m41.53,22.61s.08,0,.12,0c.05,0,.08-.03.12-.03.02.02.05.03.09.03.03-.01.05-.03.07-.05.05-.03.03-.02.09-.03.04,0,.11-.04.15-.03.06,0,.1.06.17.03,0-.11.05-.1.13-.12.07-.02.13-.06.21-.04.07.02.08.04.16.04.02,0,.06,0,.08,0,.06-.01.04-.04.08-.06.05-.02.11-.03.16-.04.05-.01.11,0,.17-.02.06-.02.08-.04.16-.04.09,0,.11-.03.15-.11.07.03.14.05.19-.01.02-.02.02-.06.04-.08.02-.02.05,0,.08,0,.06-.03.06-.06.1-.1.05-.06.06-.06.14-.07,0-.08.04-.07.09-.1.04-.03.07-.11.12-.1.09.01-.04.18-.04.23-.01.07.02.06-.04.1-.05.04-.09.03-.13.08-.03.03-.04.09-.08.12-.04.02-.12,0-.17,0-.1.08-.15.15-.2.18-.02.01-.06.02-.08.04-.06.04-.06.09-.14.11-.06.01-.1,0-.16,0-.07.01-.12.04-.19.04-.05,0-.08,0-.13,0-.06.01-.1.03-.16.04-.06.01-.16.01-.2.03-.04.01-.05.05-.09.06-.07.03-.06-.01-.12-.02-.05,0-.08.03-.12.04-.07.01-.14-.02-.21,0-.06.01-.1.06-.16.08-.07.02-.14,0-.2,0-.17.03-.31.13-.5.08.02-.04.06-.08.08-.11.03-.05.1-.14.17-.16Z"/>
      <path class="cls-6" d="m38.73,10.78c-.02-.1-.07-.22-.03-.33.07-.23.25-.24.44-.15.13.06.26.12.25.28,0,.03-.02.17-.05.2-.07.06-.28-.02-.36,0-.1.02-.15.09-.09.18.03.05.13.09.14.15.01.11-.12.25-.21.25-.12,0-.15-.11-.25-.12l-.04-.08c-.16-.12.11-.33.2-.38Z"/>
      <path class="cls-6" d="m38.79,9.62c-.07-.05-.06-.15-.09-.22-.03-.09-.08-.16-.1-.24-.02-.16.07-.39.25-.41l.25.08c.04.06.06.02.1.04.05.03.08.08.1.14.02.08.03.23,0,.31-.05.14-.35.42-.51.31Z"/>
      <path class="cls-6" d="m39.37,7.65c-.09-.04-.17-.06-.27-.07-.05,0-.11.02-.16,0-.05-.02-.11-.09-.15-.13-.08-.11-.08-.28-.02-.39l.25-.08c.09,0,.18,0,.27,0,.16.01.51.08.55.28.04.19-.03.27-.17.38-.13.11-.14.08-.31.02Z"/>
      <path class="cls-6" d="m39.61,5.09c.11.03.16.14.23.22.08.1.17.18.21.3.02.06.06.17.02.23-.05.08-.25.11-.33.13-.2.04-.34-.02-.5-.13-.08-.06-.14-.09-.24-.11-.05-.01-.14,0-.19-.03-.07-.03-.1-.08-.12-.16-.02-.09-.04-.2-.04-.29,0-.1,0-.11.08-.16l.41.04c.15-.03.31-.08.47-.04Z"/>
      <path class="cls-6" d="m38.86,3.57l-.12-.16s-.02.06-.03.1c-.09,0,0-.52.1-.57.07-.04.22-.04.29,0,.07.04.08.1.18.11.03.07.02.24,0,.31,0,.04-.02.1-.05.13-.09.08-.27.03-.37.09Z"/>
      <path class="cls-6" d="m39.75,1.93c-.18-.03-.35-.13-.54-.12-.1,0-.15.05-.23.08h-.25v-.03c-.16-.02-.23-.07-.2-.24.02-.09.02-.19.04-.28.03-.14.24-.34.38-.34.09,0,.26.05.34.08.11.04.19.1.31.13.08,0,.15.03.21.07.03.07.04.15.02.23,0,.14,0,.31-.1.43Z"/>
      <path class="cls-6" d="m40.22.22c.02.09.08.19.16.24.09.06.18.02.28.04,0,.03,0,.05,0,.08l.2-.04c.06,0,.13,0,.19,0,.12,0,.19-.05.3-.08.13-.03.29.03.25-.18-.34-.06-.7-.12-1.07-.16-.05.01-.11.03-.16.05-.05.02-.11.03-.16.05Z"/>
      <path class="cls-6" d="m40.49,3.83c.12.03.24.02.36.03.31.04.05.25.02.43-.06.02-.18-.02-.24-.03-.09,0-.2-.02-.29.02-.05.02-.1.08-.16.06l-.37-.16s.01.06,0,.08c-.23,0-.4-.26-.21-.44.12-.12.48-.13.64-.1.09.02.17.07.26.1Z"/>
      <path class="cls-6" d="m41.08,1.95c.16.1.31.22.39.39.04.08.11.3.02.39-.08.08-.32,0-.42-.03-.07-.01-.14-.07-.21-.07l-.2-.12c-.2-.07-.62-.14-.57-.43.02-.16.2-.26.34-.29.23-.05.46.05.65.17Z"/>
      <path class="cls-6" d="m38.59.1c.07.04.19.08.27.09.07.01.13,0,.2.01.01.04.01.08,0,.12l.16-.21c.06,0,.15.02.17-.06,0-.01,0-.03,0-.04-.28-.01-.57-.02-.86-.02-.01.05.02.08.07.1Z"/>
      <path class="cls-6" d="m42.8.98c.07.02.13.03.2.06.11.04.23.03.35.04.13.01.26.03.39.08.09.04.16.09.26.07.11-.03.2-.09.19-.19-.36-.15-.75-.29-1.17-.42-.13.07-.23.23-.21.36Z"/>
      <path class="cls-6" d="m45.19,2.3c.21.22.58.19.81.39.15.13.23.27.45.27.08,0,.17-.01.22-.08.04-.05.04-.17.04-.26-.35-.32-.79-.65-1.32-.97h-.08c-.12,0-.24.2-.25.31-.02.13.05.26.14.35Z"/>
      <path class="cls-6" d="m43.34,1.77c-.01.14-.12.15-.25.16-.22,0-.44-.08-.66-.08-.13,0-.33.05-.44-.02-.12-.07-.14-.42.03-.39l.45-.12c.24-.04.49-.09.71.08.12.09.18.23.16.38Z"/>
      <path class="cls-6" d="m46.93,3.86s.12.1.15.12c.19.1.4.1.59.22.14.09.28.28.46.28h0c-.13-.2-.25-.38-.34-.54-.06-.12-.16-.27-.29-.45-.01,0-.02,0-.03,0l-.33.16c-.04.07-.22.12-.21.21Z"/>
      <path class="cls-6" d="m45.51,3.2c-.14,0-.27.02-.4-.05-.14-.07-.24-.21-.38-.28-.09-.05-.21-.08-.31-.1-.12-.03-.2-.02-.25-.14-.02-.05-.02-.1-.05-.14-.02-.04-.04-.02-.06-.07l.41.04c.49,0,.89.26,1.03.74Z"/>
      <path class="cls-6" d="m41,.9c.12.12-.01.27-.14.29-.12.02-.23-.06-.35-.07-.1-.02-.3.04-.3-.13l.37-.12c.1,0,.34-.05.42.03Z"/>
      <path class="cls-6" d="m42.55,3.1c-.07-.03-.13-.11-.16-.18-.02-.07-.02-.15.02-.22.07-.11.23-.12.34-.19l.29.04c.21-.03.34.14.46.27.07.08.29.25.23.37-.07.14-.49.03-.57,0-.12-.03-.24-.07-.37-.08-.09,0-.16.02-.24-.02Z"/>
      <path class="cls-6" d="m44.75,3.9c-.06,0-.13-.02-.16-.08-.03-.07.07-.21.13-.25l.62.04c.23-.03.51.14.67.29.18.17-.11.16-.23.16-.19,0-.34-.07-.52-.12-.17-.04-.33-.03-.5-.05Z"/>
      <path class="cls-6" d="m42.47,3.57c.16-.03.35-.09.49.05.05.05.12.21.09.28-.03.08-.16.04-.23.03-.19-.03-.38-.03-.57-.03-.07,0-.4.05-.45-.03-.07-.13.2-.29.3-.29h.37Z"/>
      <path class="cls-6" d="m46.65,4.63l.29.04c.23,0,.34.13.41.34.05.15.13.38.08.54-.04.13-.21.06-.31,0-.07-.04-.17-.1-.22-.16-.04-.04-.05-.1-.08-.14-.08-.11-.24-.13-.31-.24-.08-.13-.07-.4.14-.39Z"/>
      <path class="cls-6" d="m42.82,4.92c-.12.02-.28-.12-.38-.17-.11-.05-.2-.07-.33-.08-.05,0-.15,0-.19-.03-.08-.07-.07-.2-.07-.3l.16-.16c.06.07.15.04.23.04.15.01.33.06.46.14.13.08.21.2.22.35,0,.09.02.19-.1.2Z"/>
      <path class="cls-6" d="m42.26,5.47c.02.13-.01.22-.15.24-.11.01-.3.02-.4-.02-.06-.04-.13-.08-.2-.1-.08-.01-.16-.01-.25,0-.09,0-.14-.03-.17-.13-.02-.05-.03-.11.03-.12l.33-.25c.18,0,.38-.04.54.05.16.08.24.15.27.33Z"/>
      <path class="cls-6" d="m44.27,4.27c.17,0,.34-.03.5.04.2.09.32.27.28.49-.15.04-.29.05-.43,0-.16-.05-.32-.05-.48-.08-.09-.02-.05-.03-.11-.1-.04-.05-.13-.06-.12-.14.01,0,.02,0,.04,0l.33-.21Z"/>
      <path class="cls-6" d="m40.91,7.43c.02-.29.14-.38.4-.5.11-.05.13-.03.14-.13,0-.05-.01-.08-.03-.12-.08-.17-.34-.27-.38-.46-.05-.22.74-.08.85-.02.1.05.13.07.13.19,0,.11-.03.14-.13.2l-.08.12s.02,0,.03,0c.02.05,0,.1,0,.15.02.15.11.2.08.37-.02.16-.04.38-.12.52-.11.2-.32.2-.52.15-.28-.08-.41-.18-.39-.49Z"/>
      <path class="cls-6" d="m40.47,10.16c-.08.09-.24.23-.38.21-.15-.03-.31-.19-.39-.31-.13-.21-.06-.35.1-.52.08-.08.22-.19.2-.33-.02-.12-.17-.04-.26-.07-.14-.05-.08-.22-.06-.34.01-.1,0-.3.04-.4.08-.15.23-.13.34-.05.07.05.11.07.19.09.09.02.33.03.4.12.06.08-.05.26-.1.32-.06.08-.13.14-.19.22l-.04.29c0,.16-.02.24.07.39.08.14.2.23.07.39Z"/>
      <path class="cls-6" d="m40.43,13.09c.17,0,.11-.07.21-.17.08-.07.27-.11.24-.24-.03-.14-.13-.23-.09-.39.03-.11.1-.21.13-.32.03-.12.05-.16.18-.21.08-.03.12-.04.18-.11.04-.04.1-.17.15-.2.19-.09.12.22.12.3,0,.16,0,.33,0,.49,0,.09-.03.22-.11.27-.05.04-.15.06-.21.1-.03.01-.16.06-.17.08-.04.06.02.13.06.17.05.06.06.08.06.16,0,.14,0,.21-.11.3-.04.03-.24.19-.26.06-.26.08-.32.09-.37.08-.04,0-.06-.02-.09-.03-.11-.03-.37.03-.36-.13,0-.24.29-.2.43-.21Z"/>
      <path class="cls-6" d="m42.26,10.12c0,.1.03.25-.04.34-.07.09-.21.1-.31.11-.13,0-.24-.02-.3-.13-.03-.05-.05-.12-.08-.17-.02-.04-.09-.09-.08-.14.02-.1.15-.1.12-.23-.01-.07-.07-.1-.09-.17-.03-.14,0-.16.12-.21.17-.08.23-.26.35-.39.11-.12.06-.15-.06-.23-.09-.06-.17-.13-.17-.25,0-.06.01-.24.07-.29.07-.06.24-.03.32-.03.15,0,.32-.03.47.02.34.11.14.52-.15.51-.11.13-.08.12-.05.13,0,.08.05.12.05.2,0,.12.04.28,0,.38-.05.13-.22.09-.24.25,0,.06.01.09.04.15.04.07.04.07.04.15Z"/>
      <path class="cls-6" d="m39.31,11.27s.14-.05.19-.02c.06.04.05.15.14.12l.12-.08c.06.02.09-.03.14-.04.11-.03.27-.02.34.08.13.18.03.42.01.62-.09.04-.32-.02-.4-.08-.06-.05-.09-.13-.15-.18-.05-.04-.14-.06-.2-.09-.06-.03-.13-.05-.19-.07-.07-.02-.08.02-.09-.08,0-.06.03-.14.08-.18Z"/>
      <path class="cls-6" d="m43.9,5.17l.33-.04s.05.03.08.04c.02,0,.03-.01.05-.01.03,0,.06.01.07.06.12.11.21.26.29.39.06.11.05.17,0,.29-.21.53-.33-.27-.58-.05-.13.11.08.33.13.43.1.19-.05.52-.3.45-.14-.04-.28-.18-.39-.28-.09-.07-.19-.15-.22-.27-.06-.24.16-.28.33-.36.31-.15.07-.21,0-.43-.02-.07-.01-.13.03-.19.03-.04.16-.13.17-.03Z"/>
      <path class="cls-6" d="m45.13,10.66c-.08-.05-.1-.02-.18,0-.12.02-.25.02-.37.01-.14,0-.22-.1-.35-.09l-.21-.04c-.03-.09-.11-.09-.08-.22.02-.09.1-.23.17-.28.13-.09.28-.02.38.08.06.06.06.09.17.09.09,0,.19-.02.28.02.12.04.39.3.35.45-.03.14-.1.02-.17-.02Z"/>
      <path class="cls-6" d="m43.08,6.87c.05.12.12.26,0,.34-.07.04-.12.05-.18.11-.02.02-.09.13-.11.14-.07.03-.2-.05-.25-.08-.09-.05-.16-.12-.24-.17-.1-.06-.07-.12-.07-.23,0-.07-.02-.13.03-.18.09-.09.3-.1.42-.11l.2.04c.13,0,.15.01.2.14Z"/>
      <path class="cls-6" d="m42.76,10.47c.09-.04.06-.03.09-.11.02-.05.06-.09.06-.14l.41.08c.2-.05.49.35.22.45-.21.08-.42,0-.63.04-.15.03-.58.42-.58.04,0-.26.23-.27.42-.36Z"/>
      <path class="cls-6" d="m43.53,8.7c.17-.09.33.42.33.54,0,.19-.08.16-.23.16-.08,0-.17.01-.25,0-.06-.01-.12-.06-.17-.08-.03-.01-.11-.04-.13-.06-.08-.1.05-.35.12-.43l.33-.12Z"/>
      <path class="cls-6" d="m46,5.82s-.12-.14-.12-.18c0-.04.08-.13.12-.14l.49-.04c.14-.03.36.29.32.41-.29.05-.59.24-.81-.04Z"/>
      <path class="cls-6" d="m45.83,11.67c.02-.08.15-.16.54-.26.41-.04.65.44.69.77.02.13.02.27,0,.4,0,.06-.02.33-.07.37-.04.04-.12.02-.17.03-.09.01-.23.07-.31,0-.04-.03-.09-.16-.11-.19-.08-.16-.12-.29-.31-.35-.11-.04-.16-.02-.18-.15-.02-.1-.03-.2-.03-.3,0-.06,0-.11,0-.17,0-.04-.04-.09-.04-.14Z"/>
      <path class="cls-6" d="m48.4,10.99c-.04.08-.07.13-.16.16-.2.06-.22-.12-.23-.28-.03-.29-.01-.59.03-.87.01-.11.03-.15.12-.22.06-.04.1-.04.13-.1.05-.08.05-.22.07-.32.02-.09.14-.26.38-.26.31-.06.31.34.29.54,0,.14-.03.39-.22.38-.15-.01-.17-.11-.27-.18-.06-.04-.07-.06-.13.03-.07.09-.1.23-.08.34.05.28.2.5.06.78Z"/>
      <path class="cls-6" d="m48.62,13.22c0,.16,0,.32.09.46.07.1.14.15.22.12.05-.46.09-.96.13-1.46-.06-.01-.21,0-.23,0l-.16.12c.01.07-.03.13-.04.2-.03.17,0,.37,0,.55Z"/>
      <path class="cls-6" d="m48.89,7.2c-.07.02-.2.06-.27-.01-.01-.06-.01-.13,0-.19,0-.09,0-.18,0-.26-.01,0-.02,0-.03,0l.21-.29c-.03.22.52.62.11.76Z"/>
      <path class="cls-6" d="m48.36,5.82c-.14.03-.33-.02-.35-.18,0-.06,0-.12,0-.18l.29-.21c.02.14.22.19.25.34.03.14-.07.2-.18.23Z"/>
      <path class="cls-6" d="m47.33,8.84c-.22-.13-.08-.48.02-.64l.29-.12c.09.01.21-.07.29-.05.08.02.08.15.08.22.01.18-.02.26-.14.39-.11.12-.36.31-.54.2Z"/>
      <path class="cls-6" d="m44.39,7.91c-.29.04-.25-.32-.2-.49l.25-.29c.09,0,.16,0,.25-.02.18-.04.25,0,.24.18,0,.17-.02.25-.17.34-.12.07-.31.13-.37.27Z"/>
      <path class="cls-6" d="m45.63,7.13c0-.08.09-.11.08-.2l.37-.21c.2-.03.37.16.39.35.03.29-.27.43-.51.47-.22.03-.21-.1-.27-.26-.02-.06-.06-.09-.06-.16Z"/>
      <path class="cls-6" d="m48.02,6.91c-.05.09-.17.18-.24.25-.1.08-.23.23-.35.27-.22.06-.24-.1-.25-.28,0-.15,0-.52.2-.55,0-.01,0-.02,0-.03l.37-.08c.19,0,.36.26.27.43Z"/>
      <path class="cls-6" d="m44.99,8.8c.09.12.13.21.09.36-.02.07-.1.28-.2.32-.17.06-.15-.27-.18-.39-.02-.08-.08-.15-.1-.23-.01-.06,0-.1-.04-.16l.12-.16c.12.04.23.16.3.27Z"/>
      <path class="cls-6" d="m47.42,10.58c-.14-.05-.11-.12-.11-.25,0-.15,0-.29-.1-.41-.09-.12-.15-.11-.15-.26,0-.09,0-.17,0-.26l.37.08c0,.09.15.18.2.24.09.11.15.29.14.44-.01.18-.12.5-.34.42Z"/>
      <path class="cls-6" d="m48.94,8.1c.03.16-.04.32.05.47.05,0,.09-.03.13-.06.07-.05.16-.12.23-.19.01-.18.02-.35.01-.51-.01-.02-.03-.04-.05-.05l-.37.08c-.1.07-.02.18,0,.26Z"/>
      <path class="cls-6" d="m45.83,8.37l.21-.08c.08,0,.2.15.24.2.11.12.26.33.18.51-.07.17-.2.22-.35.3-.05.03-.17.13-.23.1-.02-.12.01-.24-.02-.36-.03-.11-.13-.23-.15-.33-.02-.07-.04-.39.12-.34Z"/>
      <path class="cls-6" d="m41.64,13.05s0,0,0,0c-.01,0-.02,0-.03,0,.01,0,.02,0,.03,0Z"/>
      <path class="cls-6" d="m41.23,14.74s.03-.05.03-.07c.02-.06.01-.13,0-.2,0-.09.03-.12.04-.2.01-.1,0-.17.02-.27.06-.17.13-.35.18-.52.04-.12.16-.31.12-.44.29.04.27-.02.39,0,.06.01.26.02.3.07-.02.07-.09.06-.13.11-.03.04-.04.09-.07.13-.03.02-.06.05-.08.08,0,.04-.01.08-.02.13-.02.09-.02.15-.03.23,0,.09-.04.16-.04.25,0,.09,0,.18,0,.27,0,.1-.03.17-.04.27-.01.09,0,.22,0,.3,0,.16.03.31.08.46.03.14.05.29.07.43.02.09.25.59.11.66-.11.05-.32-.09-.38-.17-.17-.24-.16-.57-.34-.82-.05-.06-.02-.07-.11-.08-.06,0-.1.03-.16.04-.07-.16.01-.41.04-.57,0-.03-.01-.07,0-.1Z"/>
      <path class="cls-6" d="m45.07,12.04c-.11.1-.25.21-.27.36,0,.08-.05.29-.12.34-.07.05-.15.04-.21.09-.15.13-.26.4-.47.46-.08.02-.26.02-.34,0,.02-.15.13-.19.24-.27.12-.09.17-.26.3-.36.11-.09.19-.13.2-.28,0-.09,0-.17.06-.24.05-.07.1-.11.15-.19.35-.22.47-.14.51-.1.09.08.04.13-.04.2Z"/>
      <path class="cls-6" d="m42.67,16.98l.12-.29c.08.1.39.23.26.41-.12.16-.41.1-.39-.12Z"/>
      <path class="cls-6" d="m47.82,12.81c-.1.05-.11.01-.11-.1,0-.17.05-.33.04-.49l.25-.21s.08-.02.12.02c.02.03.02.14.01.18-.01.12-.07.26-.14.37-.04.07-.11.19-.17.23Z"/>
      <path class="cls-6" d="m44.16,14.23c-.09,0-.21.03-.27-.04-.09-.09-.05-.24-.11-.34l.29-.25c.08,0,.16,0,.23,0,.17-.01.33-.1.51-.08.12.01.15.09.25.16.09.06.4.1.42.21-.1.07-.22.09-.33.12-.13.04-.26.09-.39.12-.18.05-.41.08-.6.08Z"/>
      <path class="cls-6" d="m46.14,16.45c-.14-.03-.45-.26-.29-.43.03-.04.06-.04.12-.02.09.01.17,0,.25-.06.1-.07.18-.15.29-.21.17-.09.3-.04.47-.06.07-.01.1-.03.13-.09.13-.18.15-.54.42-.54.24,0,.57.32.39.55-.09.12-.25.18-.38.26-.05.04-.23.23-.31.21,0-.01,0-.03,0-.04l-.12.08s0,.02,0,.03c-.09.03-.2,0-.3,0-.24.02-.37.35-.65.29Z"/>
      <path class="cls-6" d="m47.3,14.03c-.11.12-.16.19-.32.24l-.25.08c-.13-.04-.23-.2-.21-.34.03-.18.24-.23.39-.28.15-.05.53-.09.47.17-.01.06-.05.08-.09.13Z"/>
      <path class="cls-6" d="m46.78,10.27c.11.21.11.45.04.67-.03.1-.11.22-.24.15-.06-.06-.11-.13-.15-.21-.06-.11-.14-.2-.25-.27-.09-.05-.23-.07-.27-.18-.03-.09-.02-.3.12-.3l.33-.12s.12-.01.16,0c.12.03.2.16.25.26Z"/>
      <path class="cls-6" d="m46.32,17.23c.07.03.12.04.17.09.05.05.1.14.07.22-.04.1-.36.13-.46.14-.08,0-.21.03-.29,0-.08-.02-.07,0-.08-.09,0-.13.03-.28,0-.4-.01,0-.02,0-.03,0l.29-.16c.11.08.21.15.33.21Z"/>
      <path class="cls-6" d="m43.61,14.6s-.14-.22-.07-.28c.11-.09.24.12.24.2,0,.1-.05.26.11.25v.03s.05-.04.05-.04c.08,0,.29,0,.35.06.07.07.02.33.02.43,0,.08.02.17-.08.21-.11.04-.16-.07-.24-.13-.07-.05-.11-.05-.17-.09-.13-.07-.14-.17-.1-.29.03-.08.03-.08-.02-.16-.04-.06-.06-.13-.1-.2Z"/>
      <path class="cls-6" d="m45.71,14.97l.49-.21s0,.02,0,.03c.1.05.22-.06.28.06.11.23-.2.33-.36.37-.14.03-.21.11-.34.03-.03-.02-.05-.05-.08-.06-.05-.02-.1,0-.15-.02.03-.08.09-.14.15-.2Z"/>
      <path class="cls-6" d="m42.55,15.67l.25-.16c-.03.14.42.51.17.58-.1.03-.19-.03-.22-.11-.03-.07-.04-.13-.09-.18-.03-.04-.09-.06-.1-.11Z"/>
      <path class="cls-6" d="m43.24,13.95s-.04.18-.06.19c-.08.05-.26-.1-.33-.14-.14-.08-.35-.12-.22-.3.1-.14.25-.12.4-.12l.12-.04c.08-.03.1.04.08.1-.02.06-.1.13-.14.17,0,.07.12.06.14.15Z"/>
      <path class="cls-6" d="m44.15,16.53c-.02.11.14.14.2.2.09.1.05.19-.07.21-.07,0-.24.02-.29-.05-.04-.06.03-.14-.05-.2l.21-.16Z"/>
      <path class="cls-6" d="m43.85,17.65s-.02,0-.03,0l.16-.08c.11-.03.34.19.35.28-.13.02-.49,0-.48-.19Z"/>
      <path class="cls-6" d="m43.08,15.18l.08-.16c.04.11.25.24.14.37-.16.19-.17-.18-.22-.2Z"/>
      <path class="cls-6" d="m44.72,17.31c.05.06.24.09.21.21-.03.12-.25-.05-.29-.08l.08-.12Z"/>
      <path class="cls-6" d="m44.39,16.16c-.11-.06-.09-.14-.04-.25l.25-.08c-.03.08.22.18.26.23.08.08.17.27.1.38-.13.01-.29-.07-.4-.14-.07-.05-.1-.1-.16-.14Z"/>
      <path class="cls-6" d="m43.45,16.82c-.13,0-.22-.26-.2-.37l.08-.04c.14.01.14.32.12.41Z"/>
      <path class="cls-6" d="m42.14,15.05l.12-.16c0,.06.05.11.06.17.03.11.04.26.01.37-.16.05-.2-.28-.2-.37Z"/>
      <path class="cls-6" d="m48.25,13.99l.16.21c0,.12-.17.41-.3.38,0-.15.02-.25-.02-.39-.03-.12.01-.22.15-.2Z"/>
      <path class="cls-6" d="m48.66,11.05c.02.08.12.15.15.25.05.16-.02.32.02.47.05.01.09,0,.14-.02.05-.01.09-.03.13-.05.02-.29.03-.57.05-.85,0,0,0,0,0,0,0-.06,0-.12,0-.19l-.29-.04c-.08.09-.24.3-.21.43Z"/>
    </g>
  </g>
</svg>