<?xml version="1.0" encoding="UTF-8"?>
<svg id="Layer_2" data-name="Layer 2" xmlns="http://www.w3.org/2000/svg" viewBox="0 0 450.71 711.74">
  <defs>
    <style>
      .cls-1 {
        fill: #ffe2b8;
      }

      .cls-1, .cls-2, .cls-3, .cls-4, .cls-5, .cls-6, .cls-7, .cls-8, .cls-9, .cls-10 {
        stroke-width: 0px;
      }

      .cls-2 {
        fill: #ebd0a2;
      }

      .cls-3 {
        fill: #9b8567;
      }

      .cls-4 {
        fill: #fff;
      }

      .cls-5 {
        fill: #939598;
      }

      .cls-6 {
        fill: #c2a881;
      }

      .cls-7 {
        fill: #231f20;
      }

      .cls-8 {
        fill: #bcbec0;
      }

      .cls-9 {
        fill: #e3e4e5;
      }

      .cls-10 {
        fill: #484748;
      }
    </style>
  </defs>
  <g id="POSE">
    <g>
      <path class="cls-5" d="m157.54,671.93s-26.28,3.87-28.62,21.41c-2.33,17.54,9.19,19.16,31.01,18.18,21.81-.98,23.22-.13,26.3-18.02,3.08-17.89-14.44-26.08-28.69-21.56Z"/>
      <path class="cls-5" d="m402.61,675.38s-21.12-4.51-29.95,9.7c-8.83,14.21-11,26.65,7.11,26.65h47.82c15.22,0,24.69-2.3,16.69-26.21-8-23.91-29.28-9.75-41.68-10.14Z"/>
      <path class="cls-3" d="m450.61,623.02c.89-4.18-4.54-8.02-7.31-10.84-.04-.52-.08-1.03-.12-1.54,1.47-3.84,3.52-5.32,1.92-10.4-1.24-3.93-2.51-4.81-.18-8.11,2.63-3.73,4.54-5.53,1.2-10.31-1.78-1.14-2.62-2.73-2.52-4.78.99-2.85,1.89-5.74,2.69-8.65.81-5.92-2.65-7.4-6.49-10.82-.1-2.1-.2-4.23-.3-6.4.87-.94,1.95-2,2.99-3.32,3.27-4.15,5.27-6.38,2.35-11.13-1.42-2.31-6.17-6.13-5.72-9.03.31-.64.82-1.11,1.52-1.4,1.09-1.45,1.6-3.07,1.55-4.88.31-2.75-1.18-6.7-.21-9.23.92-2.41,3.92-2.95,4.16-6.04-.61-3.32-2.06-6.26-4.35-8.81-1.3-1.78-2.8-3.36-4.42-4.83-.02-.9-.05-1.79-.07-2.68,1.29-1.08,3.28-1.64,4.23-3.58,2.14-4.36.91-11.6-.94-15.79-1.69-3.84-.65-3.33,1.58-7.32,2.27-4.06.97-5.74-2.19-8.73.72-3.21,2.9-4.32,1.9-7.91-.7-2.5-3.14-3.93-4.99-5.65.03-1.73.06-3.4.1-5.02,3.86-3.35,3.12-7.67.51-11.81.03-.49.06-1.02.09-1.49,2.09-28.36-8.75-28.8-24.13-16.16-7.75-2.84-15.87-3.91-24.45-2.44-8.69,1.49-17.43,5.19-23.5,11.53-5.94,6.21-8.41,15.03-8.98,23.61-.84,12.72.7,25.6,1.52,38.26.16,2.47.8,3.82,1.81,6.07,1.07,2.37,1.95,4.59,2.75,6.76-1.33,4.16-1.24,8.17-1.04,10.36-.11.06-.22.11-.33.19-2.58,1.73-2.85,2.64-3.3,5.38-.39,2.39-.32,5.74.85,7.9.68,1.26,1.69,1.95,2.65,2.66-.02.97-.04,1.98-.06,3.03-2.62,2.34-4.11,3.33-3.6,8.28.27,2.57,1.65,4.04,3.36,5.22-.07,4.49-.12,9.26-.17,14.19-.07.59-.08,1.16-.01,1.69-.12,16.3-.05,34.05.51,48.37-1.42,1.43-2.22,2.37-2.13,5.03.09,2.96,1.38,4.5,2.75,6.41.09,1.21.18,2.38.28,3.48,0,.05,0,.09,0,.14-2.34,3.9-3.39,7.09-2.92,12.42.23,2.65.53,7.31,2.89,8.88-.11,2.46-.23,4.94-.33,7.41-2.22,3.68-4.65,7.41-4.2,11.81.3,2.97,2.07,3.53,4.19,4.84.07,1.12.16,2.22.27,3.31-2.15,4.51-3.96,10.37-2.94,14.87,1.04,4.61,5.59,6.01,10.2,5.98,1.09,5.18-1.17,10.97,1.68,15.96,3.04,5.31,8.76,1.96,13.46,1.46,2.04-.22,4.02-.03,6.08-.03,4.65,0,4.78-2.76,5.58-6.34,1.2.06,2.41.11,3.7.11,1.78,0,3.48-.08,5.13-.22,3.46,1.87,6.41,3.48,7.66-1.22,1.73-.42,3.36-.95,4.92-1.55.96.5,1.87,1.02,2.55,1.23,2.92.93,5.46,1.47,8.11-.03.21-1.37.97-2.1,2.28-2.2.86.56,1.72,1.11,2.58,1.67,3,2.19,6.05,4.83,9.25,1.17,4.02-4.61-2.11-10.56.33-15.11,1.44-2.68,3.93-3.55,3.33-7.19-.41-2.52-4.45-4.34-4.1-6.32,11.05-3.83,2.29-8.7,1.53-15.69.07-.66.12-1.32.18-1.99,1.95-.72,4.92-2.43,5.5-4.53.96-3.46-3.38-6.83-5.03-9.73-.01-1.13-.03-2.26-.06-3.38,1.56-2.12,5.81-2.23,6.41-5.05Z"/>
      <path class="cls-3" d="m202.51,587.18c.39-3.74.1-6.77-.84-10.47-.41-1.6-2.92-6.19-2.85-8.39.06-1.91,1.01-3.58,1.12-5.65.13-2.37-.21-4.62-.84-6.78.4-9.54.74-19.13.97-28.48.58-.56,1.39-1.08,2.52-1.56.05-3.72-1.1-7.29-2.28-10.86.47-34.17-.81-63.06-6.02-71.11-11.96-18.48-42.39-70.65-65.21-38.04,0,0-16.91,8.43-16.3,57.04.06,4.97.18,10.71.34,17.01-.03.34-.05.67-.07.98-.08,1.13,0,2.17.18,3.17.12,4.44.27,9.13.43,14.01-2.44,2.45-4.46,5.31-4.94,8.62-.59,4.06,1.23,10.96,5.69,12.62,0,.25.02.51.03.76-3.04,1.22-5.68,3.58-6.59,6.81-1.29,4.58,2.93,9.83,7.37,13.05.13,3.24.27,6.49.4,9.75-3.06,5.72-5.28,12.17-.36,17.07.41.41.79.71,1.14.98.11,2.5.22,5,.33,7.47-2.9,4.73-8.31,11-6.31,15.27.86.03,1.72.1,2.58.19.21,2.71-1.23,5.21-1.86,7.82-.88,3.7-1.63,7.65-1.64,11.48,0,3.08-.56,4.94,2.15,6.62.99.61,2.13-.31,3.01.76,2.46,3.02-8.32,13.24-7.47,16.83.85,3.58,6.14,2.37,8.69,3.22.15,2.95-3.02,8.86-1.5,11.45,1.11,1.89,3.79,2.23,6.17,2.3.03.49.06.96.09,1.42-1.91,3.28-4.49,9.74-2.65,11.73.8.86,2.71.73,4.05,1.16.34,1.7.78,3.3,1.25,4.85,0,.02,0,.06,0,.08-.22,8.11-.67,13.68,8.52,14.47,5.71,5.49,13.54,8.31,23.35,8.31,6.71,0,12.85-.28,18.19-2.36.35-.04.72-.11,1.12-.3.37-.17.63-.37.86-.58,2.95-1.47,5.62-3.61,7.98-6.69,2.34-.25,4.79-.43,6.44-1.88,2.3-2.02,1.89-2.8,1.67-6.37-.13-2.11-.54-3.89.89-5.53,1.14-1.3,3.89-1.06,4.74-2.21,1.48-2.01.08-8.76.13-11.37.04-2.05.29-3.84-.23-5.84-.47-1.81-3.07-4.13-2.91-5.91.36-3.78,5.68-5.63,5.59-10.04-.05-2.47-3.04-4.88-2.38-7.33.47-1.72,3.71-2.1,4.38-4.27,1.32-4.23-2.52-7.82-5.45-11.35.24-3.87.48-7.88.72-12.01.69-.8,1.27-1.7,1.56-3,.61-2.73-.44-5.61.34-8.26,1.32.29,2.56.07,3.72-.68Z"/>
      <path class="cls-2" d="m438.74,408.9c0,2.52-2.67,3.39-2.98,5.5-.37,2.52,2.83,3.26,2.09,6.3-.65,2.59-3.96,3.61-6.54,4.15-.76-.2-1.52-.41-2.28-.61-1.93-1.24-3.98-1.8-6.13-1.72-1.13-.26-1.83.33-2.07,1.72-2.46,1.83-4.76,2.98-7.89,2.54-1.59,4.39-1.72,12.54-8.3,12.22-5.59-.26-4.52-4.28-4.63-8.93-9.48,5.74-13.33-9.46-9.04-15.87-9.46-3.89-6.83-16.54.22-21.93-5.56,3.52-7.52-.72-9.63-5.61-1.07-2.48-1.67-6.02-3.91-7.54-.87-.59-2.63-.54-3.65-.98-1.83-.78-2.57-1.85-4.61-1.87-2.11-.04-4.74,2.46-7.04,2.76-5.28.7-6.02-3.04-10.06-5.5-2.8,2.13-4.04,4.11-7.96,4.3-2.46.13-4.8-.87-7.13-1.39-4.72-1.04-4.98,1.04-9.15,2.35-3.93,1.2-8.48.35-12.56,1.5-2.33.65-4.37,1.26-6.7,1.61-4,.59-4.24,4.74-8.22,5.46-3.15.59-9-2.65-12.02-3.39-2.8-.67-4.35-1.11-6.78-.48-6.02,1.57-11.3.07-17.56-.22-3.96-.2-6.17-.09-6.33,4.24-1.57.35-3.37-.37-4.8.35-1.78.89-1.43,2.41-2.37,4.09-2.54,4.54-5.56,2.35-9.98,3.04-.33,2.61,1.09,6.37-.91,8.61-1.63,1.85-4.43,1.46-6.56,1.7.09,3.85,14.87,7.56,17.54,11,2.65,2.8,3.26,5.83,1.76,9.11-1.11.74-2.02,1.65-2.74,2.78,2.06,3.74,4.24,8.87,2.04,13.13-2.41,4.65-5.56,1.98-9.3,3.11,2.76,4.15.39,8.89-3.7,10.04-3.52.98-2.87-.78-4.28,2.74-1.5,3.76-2.67,4.72-6.8,4.67-4.41-.04-7.13-2.17-11.26-2.91-3.85-.72-1.72-.63-3.7,1.54-4.11,4.54-4.04.78-9.59,1.3-3.02,7.65-11.91-1.7-14.96-4.72-2.15.04-2.54,3.76-3.41,5.22-1.76,2.96-2.04,3.37-5.26,2.78-6.2-1.13-9.87-8.41-12.33-13.46-5.33,5.98-13.37,9.69-20.87,5.54-2.89-1.59-5.02-3.85-5.61-7.17-.41-2.22.65-4.89-.67-6.78-3.15.91-6.37,1.98-9.46.17-5.59-3.24-4.22-9.93-6.22-15.06-1.8-4.59-3.65-1.72-7.37-3.39-3.22-1.48-5.54-6.96-6.91-10.02-1.09-2.48-1.67-4.87-2.15-7.52-.24-1.3-.11-4.11-.78-5.26-1.26-2.13-2.59-1.28-5.02-1.3-4.46-.02-9.24-2.15-13.06-4.35-2.28-1.33-7.35-4.59-7.89-7.33-16.17,2.48-21.61,3.72-26.17,4.24-9.17,1.09-19.17,3.63-27.61,7.83.15-2.74,1.54-6.11,1.3-8.61-.24-2.72-2.35-5.39,5.83-16.37-3.74-.85-6.72-4.87-7.96-8.02-1.76-4.46-1.96-7.33-.5-9.63,5.87-1.85,13.54-2.3,17.54-2.98-1.24-3.91-7.28-4.83-7.7-9.8-.3-3.7,4-4.74,7.04-5.7,1.91-.61,9.76-.98,10.61-2.54,1.76-3.2-6.46-16.02,2.76-15.3.52-2.76.04-4.09,2.33-6.35,2.17-2.2,3.61-1.85,6.37-2.33-.02-6.87,3.43-5.96,8.76-7.22.91-2.87-1.35-6.87.37-9.24,3.15-4.3,15.93-2.22,20.67-2.07-.37-.8-1.24-1.76-1.76-2.72,5.17-2.22,13.04-1.43,18.19-.2,3.5.85,13.72,3.54,16.48,6.78-1.63-4.96,1.3-6.91,5.98-7.22,7.46-.52,13.17,3,19.65,5.85,1.72-2.93-.89-5.41,2.52-8.26,1.02-.5,2.07-1.02,3.11-1.52,2.3-.33,4.48.07,6.5,1.13,2.41-.76.89-.85,3.02-2.37,3.2-2.28,8.87-.91,12.39-.39-1.02-1.33-2.04-2.63-3.09-3.96,1.8-5.3,11.13-2.65,15.37-2.33,3.2.24,11.54.15,14,3.13-2.8-2.76-1.48-5.59,1.93-6.67,3.2-1.02,6.78.24,10.04-1.09,2.04-.83,2.93-1.61,5.06-1.96,7.04-1.09,16.8,4.09,22.91,7.2,6.35,3.22,4.74-.74,9.02-5.3,3.02-3.22,3.98-1.54,7.65-.8,3.46.72,5.5-1.8,8.89-2.46,4.67-.91,8.5,3.37,12.06,1.83,2.59-1.13,3.17-3.15,6.41-3.02,2.59.11,4.37,1.22,5.7,3.61,3.78-1.65,12.72-7.52,16.67-3.93,1.46,1.3.11,3.5,2.07,4.5,2.33,1.17,7.89-2.72,10.74-1.76,5.28,1.8,2.2,7.78,5.26,10.74,3.04-1,6.15-4.76,9.09-5.28,3.46-.63,3.85,2.09,5.63,4.5,2.24,3,2.17,3.61,6.5,2.67,5.7-1.24,10.69-3.37,16.63-2.15.33,3.09-.76,7.06.46,9.96,3.39.33,7.65-1.26,10.52.78,2.33,1.67,2.87,5.26,3.76,7.83,3.39-.11,6.8-1.41,10.17-1.96,4.43,4.35-1.07,18.46,6.89,18.15,1.48,6.52-5.24,18.91,1.09,22.43,1.89,1.04,5.09.65,6.28,2.8,1.3,2.37-.07,7.37.15,10.02,3.04,2.04,4.72.15,6.74,3.7,1.22,2.13,1.65,4.59,2.04,6.98,4.65,1.17,7.06.61,10.41,5.33,1.3,1.83,2.2,4.02,3.15,6.17.02.02.04.07.04.09.67,1.96,1.52,3.89,1.24,5.78-.26,1.76-1.8,2.65-2.24,4.17.02.5.02,1.02.04,1.52,1.17,1.22,2.33,2.43,3.5,3.65,3,1.46,4.74,3.61,5.22,6.46-1.67.76-3.04,1.87-4.11,3.28.63,2.91,3.85,5.09,3.85,8.13Z"/>
      <path class="cls-6" d="m424.52,439.18c1.33.52,4.46,2.09,4.91,3.33,1.24,3.35-3.5,4.72-5.35,6.65-1.09,1.15-1.54,2.78-2.65,3.83-1.15,1.09-3.06,1.15-4.74,1.7-.17.33-.33.65-.5.98-.43,3.06,1.02,6.09.48,9.33-1.07.33-2.11.65-3.17.98-2.54-.17-3.76.78-3.67,2.87-1.33,2.91.24,7,0,10.13-5.02.11-3.83-.07-5.98,4.67-2.35,5.13-5.41,8.59-11.3,6.09-.22.48-.46.96-.67,1.43-.04,2.2-1.17,3.24-3.37,3.13-3.48,1.43-8.35.11-12.11.65.11,6.98-5.83,9.17-12.41,6.65-.26,4.43-7.5,5.59-10.85,6.13-5.39.91-17.87,2.89-21.98-1.13.15,2.48-2.63,4.78-4.3,6.41-4.33,4.28-11.37,6.7-17.52,6.02-2.98-.33-3.91-.65-6.87-.37-5.98.54-10.69,1.65-16.46-.43-3.61-.41-5.91-2.3-6.91-5.65-.65-.17-1.28-.37-1.91-.54-3.3-.13-5.22,3.09-9.22,1.26-1.85-.85-3.15-4.02-5.5-4.15-1.15.46-2.3.93-3.46,1.41-3.41.65-6.48.09-9.22-1.65-3.78-1.8-5.11-2.39-8.78-1.09-2.8,1-4.83,3.89-8.02,3.57-2.65-.26-3.26-2.91-6-3-2.7-.09-6.76,3.7-9.78,4-5.83.61-9.65-3.91-15.09-3.13-3.85.57-10.87,2.65-14.89,1.5-3.72-1.07-4.56-3.39-6.04-6.85-4.09.7-7.02,3.28-11.24,3.98-5.74.96-8.33-1.83-13.8-2.65-2.87-.43-5.56,1.28-8.22,1.07-3.33-.26-2.89-1.46-4.63-3.8-3.52.67-6.85,2.87-10.48,2.22-5.13-.93-4.24-4.39-8.54-6.8-3.3-1.85-8.43.04-11.91-.61-6.17-1.15-5.89-6.15-5.83-10.65-3.3.37-6.59.22-9.87-.46-4.61-1.52-6.74-4.43-6.35-8.74-4.09-4.67-10.91,1.26-15.19-1.22-1.59-1.63-2.2-3.56-1.78-5.8-1.26-2.96-3.78-3.65-7.61-2.11-7.13-.2-10.06.35-12.43-5.26-1.13-2.7-1.85-3.93-1.87-6.96-.02-2.33.91-5.37-.67-7.37-2.52-3.15-8.89.96-10.3-3.48-1.11-3.5,2.24-10.06,3.67-14.11-.3-.54-.61-1.07-.89-1.63-4.78-.91-9.76-.3-13.63-3.13,2.72-3.59,1.91-4.57.46-8.39-2.09-5.59-2.85-10.83-2.61-16.67v-.09c8.43-4.2,18.43-6.74,27.61-7.83,4.56-.52,10-1.76,26.17-4.24.54,2.74,5.61,6,7.89,7.33,3.83,2.2,8.61,4.33,13.06,4.35,2.43.02,3.76-.83,5.02,1.3.67,1.15.54,3.96.78,5.26.48,2.65,1.07,5.04,2.15,7.52,1.37,3.06,3.7,8.54,6.91,10.02,3.72,1.67,5.56-1.2,7.37,3.39,2,5.13.63,11.83,6.22,15.06,3.09,1.8,6.3.74,9.46-.17,1.33,1.89.26,4.56.67,6.78.59,3.33,2.72,5.59,5.61,7.17,7.5,4.15,15.54.43,20.87-5.54,2.46,5.04,6.13,12.33,12.33,13.46,3.22.59,3.5.17,5.26-2.78.87-1.46,1.26-5.17,3.41-5.22,3.04,3.02,11.93,12.37,14.96,4.72,5.54-.52,5.48,3.24,9.59-1.3,1.98-2.17-.15-2.26,3.7-1.54,4.13.74,6.85,2.87,11.26,2.91,4.13.04,5.3-.91,6.8-4.67,1.41-3.52.76-1.76,4.28-2.74,4.09-1.15,6.46-5.89,3.7-10.04,3.74-1.13,6.89,1.54,9.3-3.11,2.2-4.26.02-9.39-2.04-13.13.72-1.13,1.63-2.04,2.74-2.78,1.5-3.28.89-6.3-1.76-9.11-2.67-3.43-17.46-7.15-17.54-11,2.13-.24,4.93.15,6.56-1.7,2-2.24.59-6,.91-8.61,4.41-.7,7.43,1.5,9.98-3.04.93-1.67.59-3.2,2.37-4.09,1.43-.72,3.24,0,4.8-.35.15-4.33,2.37-4.43,6.33-4.24,6.26.28,11.54,1.78,17.56.22,2.43-.63,3.98-.2,6.78.48,3.02.74,8.87,3.98,12.02,3.39,3.98-.72,4.22-4.87,8.22-5.46,2.33-.35,4.37-.96,6.7-1.61,4.09-1.15,8.63-.3,12.56-1.5,4.17-1.3,4.43-3.39,9.15-2.35,2.33.52,4.67,1.52,7.13,1.39,3.91-.2,5.15-2.17,7.96-4.3,4.04,2.46,4.78,6.2,10.06,5.5,2.3-.3,4.93-2.8,7.04-2.76,2.04.02,2.78,1.09,4.61,1.87,1.02.43,2.78.39,3.65.98,2.24,1.52,2.85,5.06,3.91,7.54,2.11,4.89,4.06,9.13,9.63,5.61-7.04,5.39-9.67,18.04-.22,21.93-4.28,6.41-.43,21.61,9.04,15.87.11,4.65-.96,8.67,4.63,8.93,6.59.33,6.72-7.83,8.3-12.22,3.13.43,5.43-.72,7.89-2.54.24-1.39.93-1.98,2.07-1.72,2.15-.09,4.2.48,6.13,1.72.76.2,1.52.41,2.28.61-.46.09-.87.17-1.26.24-.76,3.63.63,6.63,1.22,10.13.76,4.5-2.8,4.72-6.74,3.96Z"/>
      <path class="cls-1" d="m430.46,372.34c0,1.17.35,2.33.74,3.48-.96-2.15-1.85-4.35-3.15-6.17-3.35-4.72-5.76-4.15-10.41-5.33-.39-2.39-.83-4.85-2.04-6.98-2.02-3.54-3.7-1.65-6.74-3.7-.22-2.65,1.15-7.65-.15-10.02-1.2-2.15-4.39-1.76-6.28-2.8-6.33-3.52.39-15.91-1.09-22.43-7.96.3-2.46-13.8-6.89-18.15-3.37.54-6.78,1.85-10.17,1.96-.89-2.57-1.43-6.15-3.76-7.83-2.87-2.04-7.13-.46-10.52-.78-1.22-2.89-.13-6.87-.46-9.96-5.93-1.22-10.93.91-16.63,2.15-4.33.93-4.26.33-6.5-2.67-1.78-2.41-2.17-5.13-5.63-4.5-2.93.52-6.04,4.28-9.09,5.28-3.07-2.96.02-8.93-5.26-10.74-2.85-.96-8.41,2.93-10.74,1.76-1.96-1-.61-3.2-2.07-4.5-3.96-3.59-12.89,2.28-16.67,3.93-1.33-2.39-3.11-3.5-5.7-3.61-3.24-.13-3.83,1.89-6.41,3.02-3.57,1.54-7.39-2.74-12.06-1.83-3.39.65-5.43,3.17-8.89,2.46-3.67-.74-4.63-2.41-7.65.8-4.28,4.57-2.67,8.52-9.02,5.3-6.11-3.11-15.87-8.28-22.91-7.2-2.13.35-3.02,1.13-5.06,1.96-3.26,1.33-6.85.07-10.04,1.09-3.41,1.09-4.74,3.91-1.93,6.67-2.46-2.98-10.8-2.89-14-3.13-4.24-.33-13.56-2.98-15.37,2.33,1.04,1.33,2.07,2.63,3.09,3.96-3.52-.52-9.19-1.89-12.39.39-2.13,1.52-.61,1.61-3.02,2.37-2.02-1.07-4.2-1.46-6.5-1.13-1.04.5-2.09,1.02-3.11,1.52-3.41,2.85-.8,5.33-2.52,8.26-6.48-2.85-12.19-6.37-19.65-5.85-4.67.3-7.61,2.26-5.98,7.22-2.76-3.24-12.98-5.93-16.48-6.78-5.15-1.24-13.02-2.02-18.19.2.52.96,1.39,1.91,1.76,2.72-4.74-.15-17.52-2.24-20.67,2.07-1.72,2.37.54,6.37-.37,9.24-5.33,1.26-8.78.35-8.76,7.22-2.76.48-4.2.13-6.37,2.33-2.28,2.26-1.8,3.59-2.33,6.35-9.22-.72-1,12.11-2.76,15.3-.85,1.57-8.7,1.93-10.61,2.54-3.04.96-7.35,2-7.04,5.7.41,4.98,6.46,5.89,7.7,9.8-4,.67-11.67,1.13-17.54,2.98,1.2-1.85,3.5-3.3,6.96-4.89.37-3.35-3.63-5.7-3.98-8.83-.33-2.83-.13-2.13,2.28-4.13,2.13-1.76,3.17-2.02,3.13-4.67-.04-2.2-2.46-4.98-1.59-7.26,1-2.59,3.65-2.28,5.7-3.56,2.89-1.83,1.17-3.13.48-6.54-.26-1.39-1.3-5.33-.13-6.41,1.61-1.5,4.67-.07,6.76-.59,1.09-2.63-1.74-4.65-1.02-7.02.87-2.8,8.22-4.11,10.93-5-1.02-4.09-9.11-4-8.89-9.24.28-6.26,14.93-6.22,20.06-6.48.52-2.67-2.91-5.65-2.91-8.52,4.7-1.57,10.04,1.17,14.39-.85.76-4.7-3.46-9.72,1.13-13.83,4.65-4.13,12.93.57,14.72,5.85,4.54-3.3,7.61-5.56,13.54-6.93,3.67-.87,8.5-1.02,12.17-.22,1.72.46,3.35,1.07,4.89,1.87,1-.46,2.07-.78,3.17-.98,3.54-.46,9.24,1.07,9.43,4.93.98-1.33,4.67-1.83,5.33-1.98,4.85-1.15,9.37-.67,14.02.67-1.35-.67-2.26-2.24-3.09-3.46,7.11-7.06,26-4.76,35.52-1.93-.91-1.85-2.43-4.04-.93-5.87,1.91-2.3,6.76-.98,9.52-.54-2.54-3.41-4.2-4.54.2-6.83,4.57-2.37,9.8.72,11.69,4.72,1.11-1.15,2.39-2.85,3.37-4.06.8-1,1.61-2.65,2.52-3.41,6.35-5.28,14.69,7.7,17.59,11.48,2.85-.35,5.52-2.96,8.5-.98,2.07,1.37,1.37,3.96,4.28,4.48,1.93-.8,3.74-1.83,5.41-3.09,1.35-.59,2.74-.83,4.17-.65,2.2-.11,3.67.24,5.63,1.07,8.83,3.78,20.24,1.67,29.85,1.67,7.09,0,15.11,1.07,22.06-.17,1.2-5.85,3.65-8.26,10.56-7.15,2.09.33,3.43.43,5.37.39,3.67-.04,4.46.76,7.98,1.43,1.33.24,2.52.09,3.8.33,2.17.39,3.91,1.85,6.02,2.33,1.91.43,2.63-.46,4.35-.15,5.11.87,9.63,4.89,13.24,8.04-.22-.65.04-1.11.83-1.37,1.37.85,2.28,2.04,2.72,3.59,4.72.89,6.65-6.17,11.37-4.5.3,2.11.3,5.13,1.33,7.02,1.41,2.63,3,1.89,5.65,2.04,4.26.22,5.87,2.37,5.85,6.5,2.8.5,5.61-.24,8.43.02.74,3.83-1.48,7.28-1.22,11,.13,1.85,1.22,3.57,1.17,5.83,2.02.63,3.98.28,5.87-1.07,2.8-1.54,5.48-1.5,8,.11.63,5.2-.17,9.78-.91,14.93,1.8.98,3.74,1.48,5.85,1.5.22,2.24-.57,4.09-2.33,5.54-1.93,1.24-2.3,2.83-1.07,4.74,1.61,2.7,6.13,3.22,3.96,7.56,2.89,2.76,5.59,2.46,8.26,5.89-1.48,1.98-2.5,4.13-3.11,6.46-1.22,1.63-1.07,3.15.43,4.56,1.26,3.52,6.15,4.89,5.74,9.02-.26,2.63-3.63,4.46-2.89,7.06.76,2.56,4.26,2.07,4.54,5.41.24,2.63-2.37,6-2.35,8.85Z"/>
      <path class="cls-8" d="m252.97,671.58s-18.11-2.71-26.81,12.5c-8.7,15.22-10.6,27.66,17.88,27.66h50.23c15.94,0,13.04-16.79,8.7-27.66s-15.22-22.83-50-12.5Z"/>
      <path class="cls-8" d="m62.27,667.63s-19.73,3.94-33.32,23.6c-13.59,19.66,11.52,20.51,43.12,20.51s30.68-7.04,26.08-22.06-19.72-29.14-35.88-22.06Z"/>
      <path class="cls-6" d="m324.42,623.76c1.37,5.93-4.54,5.04-6.74,8.91,2.85,5.04,8.67,12.78,1.76,17.3-5.3,3.48-6.13.33-5.3,7.5.76,3.06.46,5.98-.93,8.76-.59.76-1.17,1.54-1.76,2.3-1.28,1.76-1.09,3.52.57,5.3,1.98,2.48,2.37,5.06,1.15,7.78-1.59.3-6.33-.65-7.48.07-1.72,1.04-1.5,3.83-2.3,5.59-3.63.39-6.52-1.04-10.04-.98-2.83.04-2.07.13-4.3,1.41-5.91,3.41-10.54.2-16.37-1.46.09,5.78-6.11,5.85-10.39,5.54-3.72-.24-9.24-3.52-12.37-2.74-2.54.63-3.26,4.2-6.35,4.35-5.06.28-3.67-4.8-6.52-7.43-3-2.78-8.33-.15-12.3-2.85-2.63-1.78-5.26-7.43-3.33-10.72-.17.07-.35.11-.54.17-2.65.85-3.54-.52-4.63-2.43-4-7.13,3.93-14.74,3.96-21.56-4.39.46-10.91-1.3-11.91-6.39-.72-3.63,2.15-10.11,5.93-11.15-6.89-.57-3.91-13.13-2.98-16.91-2.72-1.96-6.33,1.93-8.33-2-2.52-4.91,6.17-11.46,4.06-15.61-1.54-.17-5.26-.48-5.91-2.37.28-1.07.54-2.13.83-3.2,1.02-2.93,2.02-5.85,3.06-8.78.91,1.54,1.78,2.89,2.52,3.96,2.59,3.76,4.15,4.37,8.33,4.56,1.24,3.72-2.74,21.72,5.87,16.24-.15,6.37-4.91,15.06,3.24,18.67,3.28,1.43,6.93,0,9.85,1.15,1.74.7,1.74,1.7,3.17,2.98,2.39,2.15,5.59,3.09,8.52,2.59,2.76-.5,2.22-1.3,5.7.17,1.87.78,6.48,4.46,8.61,4.37,3-.11,1.89-1.85,4.02-2.7,2.8-1.13,5.83.7,8.72-1.43,1.74-1.28,1.07-3.15,2.33-4.15,1.54-.2,3.07-.43,4.59-.76,2.7-.09,4.52-1.65,5.43-4.7,1.22-3.56,2.2-7.17,2.93-10.85,1.07-.37,1.98-.96,2.74-1.76,4.63-3.72,5.02-8.72,4.02-14.26-.54-2.98-2.54-5.85-2.59-8.76,1.35-1.93,2.28-4.07,2.78-6.39-.11-2.09-.2-4.17-.3-6.26-1.26-6.7-5.3-7.3-10.67-7.52,2.26-3.8,4.46-5.74,5.17-10.3.59-3.67-1.35-8.61.02-11.98,1.13-2.8,4.39-2.3,4.74-6.63-.3-1.67-.59-3.35-.87-5-1.24-3.33-2.78-6.48-4.63-9.5.22-2.46,3.02-3.3,3.65-6.15,1.37-6.24-3.5-9.19-5.35-14-1.24-3.2.48-6.74.89-10.15.91-7.72-.96-16.72-6.87-22.11,5.61-6.06,6.61-27.3-5.83-27.28,4.54-6.11,11.41-29.72-1.61-30.58-.46-5.2-.61-9.85-4.96-13.41-6.72-5.54-12.89-10.89-18.91-17.63-1.5-1.67-4.37-4.52-6.89-7.72,3.22-.61,4.85,1.65,8.17,4.93,4.22,4.17,9.5,5.15,15,7.04,4.46,1.54,2.3,1.89,2.93,5.83.85,5.26,8.76,2.65,12.89,2.35,2.33,3.13,2.93,7.59,3.39,11.28,8.39,2.35,7.06,7.13,6.22,13.87,3.74.74,7.39.67,11.17.98.24,2.56-1.22,6.11.61,8.17.72.65,1.57,1.11,2.54,1.37,1.04,1.11,1.83,2.39,2.35,3.8,1.24,1.72,3.35,2.96,4.26,4.78.96,1.87.87,3.93,1.91,5.89,3.13,6,6.74,10.39,4.28,17.59-1.13,3.33-2.33,3.37-.02,6.35,2.41,3.13,7.09,4.06,5.59,9.24-1.11,3.83-6.43,6.52-10,6.5,4.07,3.43,8.96,13.76,4.46,18.63-1.3,1.43-2.7.46-3.33,2.89-.61,2.37,3.87,5.15,3.41,7.59-.39,2.07-2.33,2.39-3.02,4.33-1.33,3.76,2.46,6.56,2.61,9.87.28,1.24-.07,2.24-1.09,2.98-.35.93-.11,1.7.72,2.28,1.57,1.98,2.57,4.24,2.96,6.83.85,3.74.78,7.41-.2,11.02-.76,4.09-1.72,7.65-5.2,10.17,1.35,4.43,5.7,7.37,7.13,12.04,1.76,5.7-1.89,10.09-4.3,14.69,5.2,4.59,7.87,9.35,5.46,16.46-1.15,3.37-4.28,4.76-5.35,7.52-1.46,3.7,4.74,8.15,5.54,11.61Z"/>
      <path class="cls-6" d="m112.59,471.83c-.96,3.54,1.26,7.37-.72,11.41-.98,2-4.7,3.78-4.3,5.87,4.22,2.54,7.28,3.28,7.06,8.39-.22,4.72-4.22,8.13-6.37,11.98,1.91,2.59,6.5,4.87,7.13,8.35.57,3.04-1.74,5.06-3.35,7.22,6.61,3.09,3.93,12.26-3,12,3.96,5.3,5.85,11.72.85,17.13-1.24,1.33-3.04,1.72-3.85,3.59-.91,2.17,0,5.56-.41,7.89-.7,3.98-4.54,7.76-3.83,11.35,1.2,5.96,5.74,5.22,4.83,13.39-.39,3.59-1.74,7.13-3.37,10.3,3.74,2.11,5.74,7.41,6.3,11.48.96,6.89-1,4.11-2.54,7.72,4.02,3.98,4.56,8,2.91,13.35-.98,3.13-2.43,8.63-6.85,7.98,6.22,1.52,8.02,17.28.35,17.74,1.91.98-1.67,2.5-2.52,4.04-2.89,5.28,2.89,10.09,6.06,14.04-3.3,3.54-7.48,5.35-12.56,5.41-1.74.3-3.46.59-5.17.89-1.63,1.22-1.33,3.54-2.85,4.76-2.54,2.07-4.91-1-7.98.85-2.93,1.78-2.24,4.02-6,4-3.15-.02-4.39-3.37-7.15-4.04-4.09-.98-7.17,1.63-10.3-2.3-3.89,6.7-12.89,5.91-19.35,3.91-2.3-.72-3.46-1.39-5.2-3.67-1.76-2.28-1.52-6.61-3.06-8.39-1.87-2.13-3.24-.3-5.04-4.2-1.33-2.85.72-6.87-.33-9.41-1.09-2.57-3.87-2.54-6-4.87-1.63-1.78-2.46-5.15-4.37-6.63-2.52-1.96-2.33.41-4.11-3.17-1.17-2.41-1.37-4.98-.61-7.7.2-1.02.41-2.02.63-3.04-.65-1.35-2.61-1.11-3.83-1.67-3.06-1.41-4.04-3.72-3.61-7.11.5-3.98,3.76-7.35,4.22-11.06.28-2.37-.76-4.15-1.15-6.56-1.37-8.46,2.46-12.98,8.28-17.89-5.61-.54-6.2-.7-5.15-7.61.37-2.43.93-4.83,1.59-7.22.02.04.04.07.07.11,1.3,1.63,5.09.3,7.13.87.98,3.17-1.67,5.59-1.46,8.54.22,2.91,2.28,4.52,1.48,7.78-.52,2.07-2.33,3.26-1.26,5.98,1.63,4.17,9.54,4.43,13.06,5.35.41,3.39-.46,5,1.37,8.11.93,1.63,2.17,4.02,4.24,4.54,3.96,1,5.09-1.15,5.89,3.17.96,5.28.17,7.06,5.7,7.04,3.3,0,6.96-.48,10.22.11,1.72.3,3.85,1.7,5.61,1.48.93-.11,1.5-1.2,2.04-1.28,2.7-.48,7.13.74,9.52-.37,5.15-2.39,4.22-11.17,4.78-15.89,4.02-.04,8.28-1.33,11.35-4.11,4.63-4.2,1.61-7.3,3.02-12.22.87-3.06,4.24-5.54,5.26-9.43,1.61-6.11,1.33-14.26-3.48-18.96,2.8-2.11,3.48-5.63,3.83-9.04.43-4.17-2.15-10.41-.96-14.5.83-1.22,1.65-2.41,2.48-3.63,2.87-5.06,4.17-10.54,3.96-16.37-1.22-6.37-4.59-10.59-9.17-14.98,1.52-2.04,3.3-1.83,4.46-4.43,1.54-3.52-.41-8.43-2.02-11.46.87-2.35,4.06-1.41,4.35-4.24.3-3-4.98-5.24-4.48-8.61.39-2.74,6.22-4.3,7.09-7.72,1.07-4.2-2.65-7.72-4.15-11.15,2.41-2.2,3.83-5.41,3.85-8.65.02-2.96-1.24-4.74-.72-7.5.72-3.65,3.28-3.87,2.28-8.48-.93-4.28-2.83-9.2-5.17-12.83,5.54-.02,9.76-6.72,9.02-11.85-.67-4.83-4.52-5.78-7.26-9-2.61-3.04-1.35-3.24-1.15-6.2.74-.96.76-2,.07-3.17-1.02-.93-1.89-2-2.56-3.22-.17-2.04,1.76-3.04,1.11-5.46-1.13-.91-1.96-2.04-2.48-3.39.07-2.11.13-4.2.26-6.28.02-.41.02-.83.02-1.26.85,1.5,1.7,2.78,3.06,4.22,1.91,2,3.61,2.74,3.72,5.74.07,2.39-1.33,5.26-2.87,7.06,2.52,1.3,5.7,1.39,7.85,3.5,2.61,2.61,3.15,6.93,3.39,10.35.26,3.72.41,8.02-.04,11.74-.3,2.43-2.39,4.61-2.67,6.56-.48,3.46,1.61,4.8,3.89,8.19,1.65,2.39,3.83,5.04,3.28,8.2-.57,3.37-3.98,4.85-4.54,8.02,3.52,3.96,8,8.89,6.63,14.61-.13,1.7-.87,3.13-2.17,4.3-.8.37-1.46.91-1.98,1.61Z"/>
      <path class="cls-2" d="m98.03,427.56c2.35,3.63,4.24,8.54,5.17,12.83,1,4.61-1.57,4.83-2.28,8.48-.52,2.76.74,4.54.72,7.5-.02,3.24-1.43,6.46-3.85,8.65,1.5,3.43,5.22,6.96,4.15,11.15-.87,3.41-6.7,4.98-7.09,7.72-.5,3.37,4.78,5.61,4.48,8.61-.28,2.83-3.48,1.89-4.35,4.24,1.61,3.02,3.57,7.93,2.02,11.46-1.15,2.61-2.93,2.39-4.46,4.43,4.59,4.39,7.96,8.61,9.17,14.98.22,5.83-1.09,11.3-3.96,16.37-.83,1.22-1.65,2.41-2.48,3.63-1.2,4.09,1.39,10.33.96,14.5-.35,3.41-1.02,6.93-3.83,9.04,4.8,4.7,5.09,12.85,3.48,18.96-1.02,3.89-4.39,6.37-5.26,9.43-1.41,4.91,1.61,8.02-3.02,12.22-3.06,2.78-7.33,4.06-11.35,4.11-.57,4.72.37,13.5-4.78,15.89-2.39,1.11-6.83-.11-9.52.37-.54.09-1.11,1.17-2.04,1.28-1.76.22-3.89-1.17-5.61-1.48-3.26-.59-6.91-.11-10.22-.11-5.52.02-4.74-1.76-5.7-7.04-.8-4.33-1.93-2.17-5.89-3.17-2.07-.52-3.3-2.91-4.24-4.54-1.83-3.11-.96-4.72-1.37-8.11-3.52-.91-11.43-1.17-13.06-5.35-1.07-2.72.74-3.91,1.26-5.98.8-3.26-1.26-4.87-1.48-7.78-.22-2.96,2.43-5.37,1.46-8.54-2.04-.56-5.83.76-7.13-.87-.02-.04-.04-.07-.07-.11.72-2.61,1.5-5.2,2.15-7.83.48-1.13.8-2.15.74-2.91h-.07c.54-2.52.89-5.09.89-7.72-3.24-2.07-4.67-2.35-5.39-5.09.11-.61.17-1.15.22-1.61-.2-.04-.37-.09-.54-.13-.07-.52-.13-1.13-.17-1.8-.37-5,1.15-10.76.07-15.63-.41-1.8-1.52-1.02-1.63-3.8.54-3.7,1.89-7.06,4.02-10.15,1.65-1.11,2.35-2.5,2.11-4.2-4.89-3.04-6.96-2.7-4.39-9.24.67-1.76,6.33-8.24,3.15-9.54-.48-3.63,1.83-7.43,2.43-11,.65-3.65-.11-3.52-.91-6.22-2.33-7.83,3.89-14.09,3.96-21.43-2.76-1.89-3.28-1.76-2.35-5.2,1.24-4.59,6.15-8.11,6.83-12.76-3.87-2.54-7.48-1.87-8.74-7.46-.3-3.78.13-7.5,1.33-11.13.67-2.2,1.63-4.26,2.87-6.17-.35-1.91-2.39-2.83-2.65-5.35-.41-3.89,2.83-7.09,5.59-9.33-3.24-2.7.07-6.83,1.59-9.69.67-1.24.89-3.28,1.59-4.37,1.28-2.02,5.06-1.89,7.02-3.06.43-2.65-4.22-6.74-4.78-9.98-.67-3.87-.7-5.93,2.63-8.22,3.3-2.26,5.5-3.39,9.46-3.3,3.74-9.11,8.19-16.24,10.46-19.89,2.57-4.13,5.15-6.28,9.26-2.52,1.65,1.5,3,4.13,5.28,4.87,1.85.61,3.65-.13,5.5.17,2.87.46,2.85,1.28,3.83,3.7-.35,2.67.39,4.91,2.17,6.72,1.33,2.8,3.78,3.76,7.33,2.87,3.89-.02,7.22-1.72,9.26,2.09.98,1.85-.28,4.39.74,6.11,1.15,1.91,3.91,3.09,5.28,5.63.39.72.74,1.39,1.07,2,0,.43,0,.85-.02,1.26-.13,2.09-.2,4.17-.26,6.28.52,1.35,1.35,2.48,2.48,3.39.65,2.41-1.28,3.41-1.11,5.46.67,1.22,1.54,2.28,2.56,3.22.7,1.17.67,2.22-.07,3.17-.2,2.96-1.46,3.15,1.15,6.2,2.74,3.22,6.59,4.17,7.26,9,.74,5.13-3.48,11.83-9.02,11.85Z"/>
      <path class="cls-2" d="m291.51,610.52c-.76.8-1.67,1.39-2.74,1.76-.74,3.67-1.72,7.28-2.93,10.85-.91,3.04-2.74,4.61-5.43,4.7-1.52.33-3.04.57-4.59.76-1.26,1-.59,2.87-2.33,4.15-2.89,2.13-5.91.3-8.72,1.43-2.13.85-1.02,2.59-4.02,2.7-2.13.09-6.74-3.59-8.61-4.37-3.48-1.48-2.93-.67-5.7-.17-2.93.5-6.13-.43-8.52-2.59-1.43-1.28-1.43-2.28-3.17-2.98-2.91-1.15-6.56.28-9.85-1.15-8.15-3.61-3.39-12.3-3.24-18.67-8.61,5.48-4.63-12.52-5.87-16.24-4.17-.2-5.74-.8-8.33-4.56-.74-1.07-1.61-2.41-2.52-3.96.46-1.33.93-2.67,1.41-4,1.04-3.02,2.2-6.04,2.5-9.11.35-3.7-.11-7.72-.09-11.43.02-2.28.74-5.3-.26-7.43-.57-1.26-2.17-.83-2.78-2.67-1.89-5.74,2.54-12.15,2.96-17.59-12.78-4.96-.98-16.41.15-24.91-4.17.07-5.7.37-5.78-4.24-.11-5.26,3.33-12.61,5.26-17.5-4.78,1.13-6.8-5.17-6.91-8.61-.09-2.37,1.5-8.04-.11-9.89-1.67-1.98-6.04-1.85-4.28-6.17.74-1.85,4.87-3.5,6.93-4.17-8.85-8.2,5.39-19.06,8.76-25.98-5.26-.22-8.09-9.87-8.37-13.74-.39-5.8,4.83-15.17,11.67-15.41-.96-4.83,4.24-8.83,5.52-11.8,1.3-3.09-.98-7.26,2.76-9.5,2.76-1.67,5.48.46,8.26.91,3,.46,3.83-.57,6.3-2.09,1.83-1.11,3.24-1.74,4.46-1.96,2.52,3.2,5.39,6.04,6.89,7.72,6.02,6.74,12.19,12.09,18.91,17.63,4.35,3.56,4.5,8.22,4.96,13.41,13.02.87,6.15,24.48,1.61,30.58,12.43-.02,11.43,21.22,5.83,27.28,5.91,5.39,7.78,14.39,6.87,22.11-.41,3.41-2.13,6.96-.89,10.15,1.85,4.8,6.72,7.76,5.35,14-.63,2.85-3.43,3.7-3.65,6.15,1.85,3.02,3.39,6.17,4.63,9.5.28,1.65.57,3.33.87,5-.35,4.33-3.61,3.83-4.74,6.63-1.37,3.37.57,8.3-.02,11.98-.72,4.56-2.91,6.5-5.17,10.3,5.37.22,9.41.83,10.67,7.52.11,2.09.2,4.17.3,6.26-.5,2.33-1.43,4.46-2.78,6.39.04,2.91,2.04,5.78,2.59,8.76,1,5.54.61,10.54-4.02,14.26Z"/>
      <path class="cls-2" d="m405.47,339.38c-.04,6.7-.79,14.61-2.88,22.74-2.17,1.63-4.73,2.3-7.47.63-.71,1.2-.77,2.54-1.44,3.85-1.3,2.52-4.27,4.76-6.58,5.91-3.17,1.54-5.61.83-8.39-1.17-1.44.89-2.11,2.54-3.57,3.37-1.77,1-4.53,1.13-6.5.89-4.29-.52-2.46-4.46-3.27-7.7-1-.28-1.91.09-2.92-.15-2.23-.59-4.55-3.3-5.79-5.15-1.58-2.35-1.99-5.06-.61-7.7-2.7-.54-7.39-1.37-7.82-5.41-.22-2.28,2.94-5.17,4.53-6.41-1.54-2.93-2.03-5.59-1.44-9,.91-5.33,4.08-7.22,8.61-8.43-3.21-1.89-7.31-3.3-8.51-7.65-1.08-3.85,2.38-6.09,4.59-8.46-2.6-2.5-5.97-1.52-6.82-6.2-1.02-5.57,2.9-10.8,6.34-14.3-.2-1.37-1.14-2.04-2.8-1.98-2.09-1.85-3.78-4.04-5.06-6.59-1.36-3.87,1.46-5.02,2.94-8.06-1.75-3.06-6.03-4.48-6.54-8.41-.51-3.85,3.72-5.83,6.05-7.91-1.48-1.59-3.82-3.46-4.45-5.65-1.04-3.61,1.83-4.78,3.96-7.41-1.83-3.06-4.14-2.76-3.13-6.87.81-3.17,3.9-4.93,6.36-6.43-.24-.98-.91-1.46-2.05-1.43-1.71-.76-2.68-2.15-2.9-4.13-.59-4.52,3.49-6.3,5.5-9.41-2.34-1.46-4.69-4.06-3.6-6.83.61-1.54,2.07-2.5,2.72-4.02.51-1.17.39-2.33.51-3.7.26-3,.45-4.13-.79-6.74-1.12-2.39-1.18-3.46.26-5.72,1.06-1.65,3.62-2.61,3.86-4.72-2.88-1.5-8.57-3.39-7.41-7.61.67-2.48,3.07-3.3,5.26-3.33.18-1.7-.59-3.63.33-5.13,1.04-1.67,1.54-.65,3.03-1.48,2.13-1.15,2.48-4,2.92-6.5.26-1.46.43-2.59,1.46-3.65,1.16-1.22,3.13-.8,4.12-1.74.91-.89,1.16-2.59,1.71-3.7.39-.8.81-1.57,1.3-2.33,1.85-3.02,4.33-5.74,6.86-7.98-2.38-1.2-5.14-1.85-7.96-2.3.39-.72.45-1.46,1.12-1.78,1.4-.67,2.56.87,3.62-1.2.95-1.85-.22-4.35.77-6.06.85-1.46,2.84-2.22,3.78-3.63,1.79-2.67-.2-7.52,3.43-8.74-.04-.96-1.16-1.57-1.67-2.39-1.06-1.72-.97-3.39-.45-5.39.51-2,1.4-3.11,1.02-4.87-.45-2.04-1.56-3.65-1.69-5.91-.08-1.46-.14-3.39.2-4.83.35-1.43,1.81-2.46,1.93-3.85-2.64-1.07-5.71-2.13-6.09-5.24-.55-4.33-3.51-3.26-6.64-3.78-.89-.13-1.77-.37-2.62-.72-.39-.35-.63-.8-.73-1.35-1.04-1.13-1.83-.59-3.49-.65-1.58-.04-4.45.07-5.4-1.56-.71-1.22.49-2.93-.28-4.11-.55-.85-3.74-1.24-4.73-1.76-1.38-.74-1.99-1.33-2.68-2.76-.89-1.8-.71-.87-2.4-1.41-.93-.28-1.3-.91-2.15-1.48-1.12-.76-1.44-.61-2.7-.7-1.4-.11-2.19-.5-3.41-1.26-1.12-.72-2.34-1.41-3.25-2.39-.53-.57-.57-1.13-1.3-1.35-.51,1.13-1.5,1.83-2.64,2.24-1.14-.41-2.13-1.11-2.64-2.24-.73.22-.77.78-1.3,1.35-.91.98-2.13,1.67-3.25,2.39-1.22.76-2.01,1.15-3.41,1.26-1.26.09-1.58-.07-2.7.7-.85.57-1.22,1.2-2.15,1.48-1.69.54-1.5-.39-2.4,1.41-.69,1.43-1.3,2.02-2.68,2.76-1,.52-4.18.91-4.73,1.76-.77,1.17.43,2.89-.28,4.11-.95,1.63-3.82,1.52-5.4,1.56-1.67.07-2.46-.48-3.49.65-.1.54-.35,1-.73,1.35-.85.35-1.73.59-2.62.72-3.13.52-6.09-.54-6.64,3.78-.39,3.11-3.45,4.17-6.09,5.24.12,1.39,1.58,2.41,1.93,3.85.35,1.43.28,3.37.2,4.83-.12,2.26-1.24,3.87-1.69,5.91-.39,1.76.51,2.87,1.02,4.87.53,2,.61,3.67-.45,5.39-.51.83-1.62,1.43-1.67,2.39,3.64,1.22,1.65,6.06,3.43,8.74.93,1.41,2.92,2.17,3.78,3.63,1,1.72-.18,4.22.77,6.06,1.06,2.06,2.21.52,3.62,1.2.67.33.73,1.07,1.12,1.78-2.82.46-5.59,1.11-7.96,2.3,2.54,2.24,5.02,4.96,6.86,7.98.49.76.91,1.52,1.3,2.33.55,1.11.79,2.8,1.71,3.7,1,.93,2.97.52,4.12,1.74,1.04,1.07,1.2,2.2,1.46,3.65.45,2.5.79,5.35,2.92,6.5,1.48.83,1.99-.2,3.03,1.48.91,1.5.14,3.43.32,5.13,2.19.02,4.59.85,5.26,3.33,1.16,4.22-4.53,6.11-7.41,7.61.24,2.11,2.8,3.07,3.86,4.72,1.44,2.26,1.38,3.33.26,5.72-1.24,2.61-1.06,3.74-.79,6.74.12,1.37,0,2.52.51,3.7.65,1.52,2.11,2.48,2.72,4.02,1.1,2.76-1.26,5.37-3.59,6.83,2.01,3.11,6.09,4.89,5.5,9.41-.22,1.98-1.2,3.37-2.9,4.13-1.14-.02-1.81.46-2.05,1.43,2.46,1.5,5.54,3.26,6.36,6.43,1.02,4.11-1.3,3.8-3.13,6.87,2.13,2.63,5,3.8,3.96,7.41-.63,2.2-2.97,4.06-4.45,5.65,2.34,2.09,6.56,4.06,6.05,7.91-.51,3.93-4.79,5.35-6.54,8.41,1.48,3.04,4.31,4.2,2.94,8.06-1.28,2.54-2.97,4.74-5.06,6.59-1.67-.07-2.6.61-2.8,1.98,3.43,3.5,7.35,8.74,6.34,14.3-.85,4.67-4.22,3.7-6.82,6.2,2.21,2.37,5.67,4.61,4.59,8.46-1.2,4.35-5.3,5.76-8.51,7.65,4.53,1.22,7.7,3.11,8.61,8.43.59,3.41.1,6.06-1.44,9,1.58,1.24,4.75,4.13,4.53,6.41-.43,4.04-5.12,4.87-7.82,5.41,1.38,2.63.97,5.35-.61,7.7-1.24,1.85-3.55,4.56-5.79,5.15-1.02.24-1.93-.13-2.92.15-.81,3.24,1.02,7.17-3.27,7.7-1.97.24-4.73.11-6.5-.89-1.46-.83-2.13-2.48-3.57-3.37-2.78,2-5.22,2.72-8.39,1.17-2.32-1.15-5.28-3.39-6.58-5.91-.67-1.3-.73-2.65-1.44-3.85-2.74,1.67-5.3,1-7.47-.63-2.09-8.13-2.84-16.04-2.88-22.74.37-1.24,1.06-2.43,2.32-3.56,2.25-2.06,3.9-3.59,5.89-5.76,2.01-2.24,4.79-2.96,6.32-5.7-2.97-1.96-7.82-3.52-6.7-8.26.79-3.37,4.18-3.74,5.83-6.22.79-1.17,1.12-1.61.93-3.26-.18-1.87-2.4-3.02-2.54-4.43-.35-3.22,5.83-7.24,8-9.04-.89-2.13-3.96-3.76-5.44-5.28-2.44-2.48-4.85-5.54-5.91-8.98,2.03-2.87,8.41-3.09,8.94-7.17.49-3.7-3.27-5.17-5.42-7.06-2.6-2.28-5.14-4.96-4.29-8.87.67-3.09,4.85-5.52,4.98-8.56.18-4.39-7.29-6.93-7.45-11.5-.08-2.15,2.54-4.43,3.47-5.96,4.2-6.74-1.56-12.11-1-19.02,1.34-1.22,3.31-.78,4.02-2.46-1.79-2.48-7.17-8.13-5.36-11.74.85-1.67,2.76-1.76,3.68-3.26,3.37-5.61-7.37-14.69.18-18.41,0-1.72-.83-2.61-1.52-4.15-1.54-3.43-3.09-8.69-2.44-12.67.22-1.39,1.36-2.85,1.4-4.2.12-2.59-2.15-3.09-3.59-5.41-1.38-2.2-2.15-5.63-.81-8.06.83-1.52,3.13-2.09,3.86-3.41,1.22-2.2-.04-4.61.73-6.96.79-.22,1.58-.35,2.4-.39-.14-5.13-7.15-8.72-6.93-14.85.08-2.13,1.52-3.78,1.3-5.93-.28-2.74-3.03-4.93-3.64-7.74-1.32-6.06,2.99-11.48,3.19-17.43.77-1.8.53-3.46-.75-4.93-.77-.39-1.56-.78-2.34-1.17-1.22-1.78-2.44-1.74-.81-4.17,2.01-3.07,6.17-1.74,5.95-6.43-.16-3.7-3.7-5.63-4.57-8.83-.63-2.3-.59-.93.16-2.65.32-.76,1.36-.96,1.71-1.85.67-1.78-1.06-3.15-1.42-4.72-.85-3.7.69-3.09,3.96-3.35,2.5-6.11-3.53-12.39,4.98-12.89,3.68-.22,2.3-.46,4.24-2.96,1.62-2.09,3.59-1.76,5.63-.39.89-1.98.85-4.59,3.15-5.54,1.58.43,3.15.87,4.73,1.3,3.29,2,6.58,3.98,9.89,5.96.75-1.65-.43-3.24,0-5.13,2.97-1.46,6.56.07,9.65.2.28-2.09-1.24-4.85.51-6.46,3.35.2,6.8,1.41,10.13,1.28-.16-5.04,7.47-2.5,9.73-1.74,2.44.8,4.79,1.83,7.05,3.02,2.25-1.2,4.61-2.22,7.05-3.02,2.25-.76,9.89-3.3,9.73,1.74,3.33.13,6.78-1.09,10.13-1.28,1.75,1.61.22,4.37.51,6.46,3.09-.13,6.68-1.65,9.65-.2.43,1.89-.75,3.48,0,5.13,3.31-1.98,6.6-3.96,9.89-5.96,1.58-.43,3.15-.87,4.73-1.3,2.3.96,2.25,3.57,3.15,5.54,2.03-1.37,4-1.7,5.63.39,1.95,2.5.57,2.74,4.24,2.96,8.51.5,2.48,6.78,4.98,12.89,3.27.26,4.81-.35,3.96,3.35-.37,1.57-2.09,2.93-1.42,4.72.35.89,1.38,1.09,1.71,1.85.75,1.72.79.35.16,2.65-.87,3.2-4.41,5.13-4.57,8.83-.22,4.7,3.94,3.37,5.95,6.43,1.62,2.43.41,2.39-.81,4.17-.77.39-1.56.78-2.34,1.17-1.28,1.48-1.52,3.13-.75,4.93.2,5.96,4.51,11.37,3.19,17.43-.61,2.8-3.35,5-3.64,7.74-.22,2.15,1.22,3.8,1.3,5.93.22,6.13-6.78,9.72-6.93,14.85.81.04,1.6.17,2.4.39.77,2.35-.49,4.76.73,6.96.73,1.33,3.03,1.89,3.86,3.41,1.34,2.43.57,5.87-.81,8.06-1.44,2.33-3.72,2.83-3.59,5.41.04,1.35,1.18,2.8,1.4,4.2.65,3.98-.89,9.24-2.44,12.67-.69,1.54-1.52,2.43-1.52,4.15,7.56,3.72-3.19,12.8.18,18.41.91,1.5,2.82,1.59,3.68,3.26,1.81,3.61-3.57,9.26-5.36,11.74.71,1.67,2.68,1.24,4.02,2.46.57,6.91-5.2,12.28-1,19.02.93,1.52,3.55,3.8,3.47,5.96-.16,4.56-7.64,7.11-7.45,11.5.12,3.04,4.31,5.48,4.98,8.56.85,3.91-1.69,6.59-4.29,8.87-2.15,1.89-5.91,3.37-5.42,7.06.53,4.09,6.91,4.3,8.94,7.17-1.06,3.43-3.47,6.5-5.91,8.98-1.48,1.52-4.55,3.15-5.44,5.28,2.17,1.8,8.35,5.83,8,9.04-.14,1.41-2.36,2.57-2.54,4.43-.18,1.65.14,2.09.93,3.26,1.65,2.48,5.04,2.85,5.83,6.22,1.12,4.74-3.74,6.3-6.7,8.26,1.52,2.74,4.31,3.46,6.32,5.7,1.99,2.17,3.64,3.7,5.89,5.76,1.26,1.13,1.95,2.33,2.32,3.56Z"/>
      <path class="cls-1" d="m414.11,107.79c-.83,2.02.16,5.91.22,8.17.2,1.85.06,3.67-.39,5.48-.87.98-1.93,1.57-3.13,1.76-2.07,1.37-1.48,1.39-.67,4,.55,1.78,1.4,4.3.93,6.24-.43,1.72-2.64,2.48-2.94,4.04-.55,2.76,3.7,6.46,3.98,9.02.61,5.52-4.57,6.65-5.04,11.33.61,1.02.91,2.15.93,3.37.35,1.91.39,3.85.16,5.78-.37,2.7-.77,1.33.91,3.96,2.58,3.96,4.61,22.13-1.97,23.22-.2,4,3.68,7.46,3.29,11.67-.3,3.41-2.9,3.35-4.92,5.22,1.28,3.26,5.4,7.06,5.22,10.69-.22,4.04-4.02,4.48-6.54,6.93,1.67,3.59,4.1,5.06,4.18,9.63.35,1.93-.14,3.5-1.48,4.72-.93.22-1.52.78-1.79,1.63,3.11,2.11,4.55,5.98,4.27,9.89-.16,2.48-2.05,5.67-1.46,7.89,1.08,1.35,1.87,2.85,2.34,4.54,1.2,2.54,1.79,5.26,1.81,8.17-.24,6-2.7,5.87-7.19,5.52,2.52,5.52,7.92,10.5,4.55,17.09-.75.96-1.48,1.93-2.21,2.89-1.24,1.13-1.24,2.26-.04,3.43,1.42,3.7,4.49,4.37,4.04,8.96-.22,2.3-1.3,5.54-3.96,4.78-.08,2.56,1.42,4.74.87,7.41-.41,1.91-1.73,3.33-3.03,4.63.28,2.74.45,5.96.41,9.52-.37-1.24-1.06-2.43-2.32-3.56-2.25-2.06-3.9-3.59-5.89-5.76-2.01-2.24-4.79-2.96-6.32-5.7,2.97-1.96,7.82-3.52,6.7-8.26-.79-3.37-4.18-3.74-5.83-6.22-.79-1.17-1.12-1.61-.93-3.26.18-1.87,2.4-3.02,2.54-4.43.35-3.22-5.83-7.24-8-9.04.89-2.13,3.96-3.76,5.44-5.28,2.44-2.48,4.85-5.54,5.91-8.98-2.03-2.87-8.41-3.09-8.94-7.17-.49-3.7,3.27-5.17,5.42-7.06,2.6-2.28,5.14-4.96,4.29-8.87-.67-3.09-4.85-5.52-4.98-8.56-.18-4.39,7.29-6.93,7.45-11.5.08-2.15-2.54-4.43-3.47-5.96-4.2-6.74,1.56-12.11,1-19.02-1.34-1.22-3.31-.78-4.02-2.46,1.79-2.48,7.17-8.13,5.36-11.74-.85-1.67-2.76-1.76-3.68-3.26-3.37-5.61,7.37-14.69-.18-18.41,0-1.72.83-2.61,1.52-4.15,1.54-3.43,3.09-8.69,2.44-12.67-.22-1.39-1.36-2.85-1.4-4.2-.12-2.59,2.15-3.09,3.59-5.41,1.38-2.2,2.15-5.63.81-8.06-.83-1.52-3.13-2.09-3.86-3.41-1.22-2.2.04-4.61-.73-6.96-.79-.22-1.58-.35-2.4-.39.14-5.13,7.15-8.72,6.93-14.85-.08-2.13-1.52-3.78-1.3-5.93.28-2.74,3.03-4.93,3.64-7.74,1.32-6.06-2.99-11.48-3.19-17.43-.77-1.8-.53-3.46.75-4.93.77-.39,1.56-.78,2.34-1.17,1.22-1.78,2.44-1.74.81-4.17-2.01-3.07-6.17-1.74-5.95-6.43.16-3.7,3.7-5.63,4.57-8.83.63-2.3.59-.93-.16-2.65-.33-.76-1.36-.96-1.71-1.85-.67-1.78,1.06-3.15,1.42-4.72.85-3.7-.69-3.09-3.96-3.35-2.5-6.11,3.53-12.39-4.98-12.89-3.68-.22-2.3-.46-4.24-2.96-1.62-2.09-3.59-1.76-5.63-.39-.89-1.98-.85-4.59-3.15-5.54-1.58.43-3.15.87-4.73,1.3-3.29,2-6.58,3.98-9.89,5.96-.75-1.65.43-3.24,0-5.13-2.97-1.46-6.56.07-9.65.2-.28-2.09,1.24-4.85-.51-6.46-3.35.2-6.8,1.41-10.13,1.28.16-5.04-7.47-2.5-9.73-1.74-2.44.8-4.79,1.83-7.05,3.02-2.25-1.2-4.61-2.22-7.05-3.02-2.25-.76-9.89-3.3-9.73,1.74-3.33.13-6.78-1.09-10.13-1.28-1.75,1.61-.22,4.37-.51,6.46-3.09-.13-6.68-1.65-9.65-.2-.43,1.89.75,3.48,0,5.13-3.31-1.98-6.6-3.96-9.89-5.96-1.58-.43-3.15-.87-4.73-1.3-2.3.96-2.25,3.57-3.15,5.54-2.03-1.37-4-1.7-5.63.39-1.95,2.5-.57,2.74-4.24,2.96-8.51.5-2.48,6.78-4.98,12.89-3.27.26-4.81-.35-3.96,3.35.37,1.57,2.09,2.93,1.42,4.72-.35.89-1.38,1.09-1.71,1.85-.75,1.72-.79.35-.16,2.65.87,3.2,4.41,5.13,4.57,8.83.22,4.7-3.94,3.37-5.95,6.43-1.62,2.43-.41,2.39.81,4.17.77.39,1.56.78,2.34,1.17,1.28,1.48,1.52,3.13.75,4.93-.2,5.96-4.51,11.37-3.19,17.43.61,2.8,3.35,5,3.64,7.74.22,2.15-1.22,3.8-1.3,5.93-.22,6.13,6.78,9.72,6.93,14.85-.81.04-1.6.17-2.4.39-.77,2.35.49,4.76-.73,6.96-.73,1.33-3.03,1.89-3.86,3.41-1.34,2.43-.57,5.87.81,8.06,1.44,2.33,3.72,2.83,3.59,5.41-.04,1.35-1.18,2.8-1.4,4.2-.65,3.98.89,9.24,2.44,12.67.69,1.54,1.52,2.43,1.52,4.15-7.56,3.72,3.19,12.8-.18,18.41-.91,1.5-2.82,1.59-3.68,3.26-1.81,3.61,3.57,9.26,5.36,11.74-.71,1.67-2.68,1.24-4.02,2.46-.57,6.91,5.2,12.28,1,19.02-.93,1.52-3.55,3.8-3.47,5.96.16,4.56,7.64,7.11,7.45,11.5-.12,3.04-4.31,5.48-4.98,8.56-.85,3.91,1.69,6.59,4.29,8.87,2.15,1.89,5.91,3.37,5.42,7.06-.53,4.09-6.91,4.3-8.94,7.17,1.06,3.43,3.47,6.5,5.91,8.98,1.48,1.52,4.55,3.15,5.44,5.28-2.17,1.8-8.35,5.83-8,9.04.14,1.41,2.36,2.57,2.54,4.43.18,1.65-.14,2.09-.93,3.26-1.65,2.48-5.04,2.85-5.83,6.22-1.12,4.74,3.74,6.3,6.7,8.26-1.52,2.74-4.31,3.46-6.32,5.7-1.99,2.17-3.64,3.7-5.89,5.76-1.26,1.13-1.95,2.33-2.32,3.56-.04-3.56.12-6.78.41-9.52-1.3-1.3-2.62-2.72-3.03-4.63-.55-2.67.95-4.85.87-7.41-2.66.76-3.74-2.48-3.96-4.78-.45-4.59,2.62-5.26,4.04-8.96,1.2-1.17,1.2-2.3-.04-3.43-.73-.96-1.46-1.93-2.21-2.89-3.37-6.59,2.03-11.56,4.55-17.09-4.49.35-6.95.48-7.19-5.52.02-2.91.61-5.63,1.81-8.17.47-1.7,1.26-3.2,2.34-4.54.59-2.22-1.3-5.41-1.46-7.89-.28-3.91,1.16-7.78,4.27-9.89-.26-.85-.85-1.41-1.79-1.63-1.34-1.22-1.83-2.78-1.48-4.72.08-4.56,2.52-6.04,4.18-9.63-2.52-2.46-6.32-2.89-6.54-6.93-.18-3.63,3.94-7.43,5.22-10.69-2.01-1.87-4.61-1.8-4.92-5.22-.39-4.22,3.49-7.67,3.29-11.67-6.58-1.09-4.55-19.26-1.97-23.22,1.69-2.63,1.28-1.26.91-3.96-.22-1.93-.18-3.87.16-5.78.02-1.22.33-2.35.93-3.37-.47-4.67-5.65-5.8-5.04-11.33.28-2.57,4.53-6.26,3.98-9.02-.3-1.57-2.52-2.33-2.94-4.04-.47-1.93.39-4.46.93-6.24.81-2.61,1.4-2.63-.67-4-1.2-.2-2.25-.78-3.13-1.76-.45-1.8-.59-3.63-.39-5.48.06-2.26,1.06-6.15.22-8.17-.79-1.96-3.07-3.26-3.74-5.48-.75-3.48-.04-6.56,2.15-9.24.53-.78,1.04-1.57,1.56-2.35.16-2.17-2.9-3.7-3.37-5.72-.67-3.02,1.62-6.89,3.21-8.89,1.1-1.35,4.73-3.93,4.06-5.96-5.06.15-.04-11.46.14-14.5.06-1.04-.28-2.11-.2-3.17.24-3.3,2.52-5.72,3.88-8.5-.53-.07-1.08-.13-1.6-.2-.45-2.35,1.87-4.5,2.62-6.56-.65-1.17-2.03-.89-2.7-2.11-1.16-2.04,1.42-4.59,2.54-5.85,1.22-1.33,3.72-2.2,4.45-3.87.39-.87.22-2.28.51-3.24.95-3.28,3.07-3.37,5.87-3.28,2.01.07,5.06,1.76,6.78.98-.89-5.48,6.32-3.59,9.26-5.59-1.95-2.46-.71-6.35,2.21-7.46,2.9-1.09,6.05,1.78,8.73,1.02.79-.22,1.89-1.48,2.97-1.76,1.77-.48,3.62-.2,5.42-.22,3.29-.02,4.16.41,6.86,2.09.55-4.06,1.79-4.7,5.28-3.72,1.24.33,2.88,1.24,4.08,1.41,2.3.3,1.16.17,2.01-1.41.85-1.61-.28-1.7,2.01-1.41.55.07,3.37.74,3.86,1.07,1.54,1.04,2.23,3,3.17,4.7,1.6.04,2.56.11,2.56.11,0,0,.95-.07,2.56-.11.93-1.7,1.62-3.65,3.17-4.7.49-.33,3.31-1,3.86-1.07,2.3-.28,1.16-.2,2.01,1.41.85,1.59-.28,1.72,2.01,1.41,1.2-.17,2.84-1.09,4.08-1.41,3.49-.98,4.73-.35,5.28,3.72,2.7-1.67,3.57-2.11,6.86-2.09,1.81.02,3.66-.26,5.42.22,1.08.28,2.17,1.54,2.97,1.76,2.68.76,5.83-2.11,8.73-1.02,2.92,1.11,4.16,5,2.21,7.46,2.94,2,10.16.11,9.26,5.59,1.73.78,4.77-.91,6.78-.98,2.8-.09,4.92,0,5.87,3.28.28.96.12,2.37.51,3.24.73,1.67,3.23,2.54,4.45,3.87,1.12,1.26,3.7,3.8,2.54,5.85-.67,1.22-2.05.93-2.7,2.11.75,2.07,3.07,4.22,2.62,6.56-.53.07-1.08.13-1.6.2,1.36,2.78,3.64,5.2,3.88,8.5.08,1.07-.26,2.13-.2,3.17.18,3.04,5.2,14.65.14,14.5-.67,2.02,2.97,4.61,4.06,5.96,1.58,2,3.88,5.87,3.21,8.89-.47,2.02-3.53,3.54-3.37,5.72.53.78,1.04,1.57,1.56,2.35,2.19,2.67,2.9,5.76,2.15,9.24-.67,2.22-2.94,3.52-3.74,5.48Z"/>
      <path class="cls-6" d="m402.59,362.12c-6.34,24.48-24.92,50.74-73.08,50.74s-66.74-26.26-73.08-50.74c2.17,1.63,4.73,2.3,7.47.63.71,1.2.77,2.54,1.44,3.85,1.3,2.52,4.27,4.76,6.58,5.91,3.17,1.54,5.61.83,8.39-1.17,1.44.89,2.11,2.54,3.57,3.37,1.77,1,4.53,1.13,6.5.89,4.29-.52,2.46-4.46,3.27-7.7,1-.28,1.91.09,2.92-.15,2.23-.59,4.55-3.3,5.79-5.15,1.58-2.35,1.99-5.06.61-7.7,2.7-.54,7.39-1.37,7.82-5.41.22-2.28-2.94-5.17-4.53-6.41,1.54-2.93,2.03-5.59,1.44-9-.91-5.33-4.08-7.22-8.61-8.43,3.21-1.89,7.31-3.3,8.51-7.65,1.08-3.85-2.38-6.09-4.59-8.46,2.6-2.5,5.97-1.52,6.82-6.2,1.02-5.57-2.9-10.8-6.34-14.3.2-1.37,1.14-2.04,2.8-1.98,2.09-1.85,3.78-4.04,5.06-6.59,1.36-3.87-1.46-5.02-2.94-8.06,1.75-3.06,6.03-4.48,6.54-8.41.51-3.85-3.72-5.83-6.05-7.91,1.48-1.59,3.82-3.46,4.45-5.65,1.04-3.61-1.83-4.78-3.96-7.41,1.83-3.06,4.14-2.76,3.13-6.87-.81-3.17-3.9-4.93-6.36-6.43.24-.98.91-1.46,2.05-1.43,1.71-.76,2.68-2.15,2.9-4.13.59-4.52-3.49-6.3-5.5-9.41,2.34-1.46,4.69-4.06,3.59-6.83-.61-1.54-2.07-2.5-2.72-4.02-.51-1.17-.39-2.33-.51-3.7-.26-3-.45-4.13.79-6.74,1.12-2.39,1.18-3.46-.26-5.72-1.06-1.65-3.62-2.61-3.86-4.72,2.88-1.5,8.57-3.39,7.41-7.61-.67-2.48-3.07-3.3-5.26-3.33-.18-1.7.59-3.63-.32-5.13-1.04-1.67-1.54-.65-3.03-1.48-2.13-1.15-2.48-4-2.92-6.5-.26-1.46-.43-2.59-1.46-3.65-1.16-1.22-3.13-.8-4.12-1.74-.91-.89-1.16-2.59-1.71-3.7-1.89-3.93-5-7.5-8.16-10.3,5.04-2.54,11.84-2.67,17.3-3.43,9.97-1.35,19.4-1.52,29.12-.46,9.73-1.07,19.15-.89,29.12.46,5.46.76,12.27.89,17.3,3.43-3.17,2.8-6.28,6.37-8.16,10.3-.55,1.11-.79,2.8-1.71,3.7-1,.93-2.97.52-4.12,1.74-1.04,1.07-1.2,2.2-1.46,3.65-.45,2.5-.79,5.35-2.92,6.5-1.48.83-1.99-.2-3.03,1.48-.91,1.5-.14,3.43-.33,5.13-2.19.02-4.59.85-5.26,3.33-1.16,4.22,4.53,6.11,7.41,7.61-.24,2.11-2.8,3.07-3.86,4.72-1.44,2.26-1.38,3.33-.26,5.72,1.24,2.61,1.06,3.74.79,6.74-.12,1.37,0,2.52-.51,3.7-.65,1.52-2.11,2.48-2.72,4.02-1.1,2.76,1.26,5.37,3.6,6.83-2.01,3.11-6.09,4.89-5.5,9.41.22,1.98,1.2,3.37,2.9,4.13,1.14-.02,1.81.46,2.05,1.43-2.46,1.5-5.54,3.26-6.36,6.43-1.02,4.11,1.3,3.8,3.13,6.87-2.13,2.63-5,3.8-3.96,7.41.63,2.2,2.97,4.06,4.45,5.65-2.34,2.09-6.56,4.06-6.05,7.91.51,3.93,4.79,5.35,6.54,8.41-1.48,3.04-4.31,4.2-2.94,8.06,1.28,2.54,2.97,4.74,5.06,6.59,1.67-.07,2.6.61,2.8,1.98-3.43,3.5-7.35,8.74-6.34,14.3.85,4.67,4.22,3.7,6.82,6.2-2.21,2.37-5.67,4.61-4.59,8.46,1.2,4.35,5.3,5.76,8.51,7.65-4.53,1.22-7.7,3.11-8.61,8.43-.59,3.41-.1,6.06,1.44,9-1.58,1.24-4.75,4.13-4.53,6.41.43,4.04,5.12,4.87,7.82,5.41-1.38,2.63-.97,5.35.61,7.7,1.24,1.85,3.55,4.56,5.79,5.15,1.02.24,1.93-.13,2.92.15.81,3.24-1.02,7.17,3.27,7.7,1.97.24,4.73.11,6.5-.89,1.46-.83,2.13-2.48,3.57-3.37,2.78,2,5.22,2.72,8.39,1.17,2.32-1.15,5.28-3.39,6.58-5.91.67-1.3.73-2.65,1.44-3.85,2.74,1.67,5.3,1,7.47-.63Z"/>
      <path class="cls-8" d="m387.94,68.99c-.5.09-.96.11-1.33.02-1-.24-1.3-1.33-2.02-1.52-1.83-.5-1.17-.07-2.67,1.41-2.17,2.13-5.85,2.98-8.8,2-1.43-.46-2.22-2.02-3.5-2.54-1.59-.65-1.46-.11-2.93.52-2.89,1.24-5.89,2.54-7.43-1.17-1.7-4.11-.2-6.35-5.28-6.43-2.04-.02-4.48.52-6.48.13-2.48-.5-1.74-1.24-3.15-3.15-1.52-2.09-3.93-2-5.63-3.98-2.24-2.61-3.04-7-3.28-10.91-3.78,1.54-5.91,3.28-5.91,3.28,0,0-2.13-1.74-5.91-3.28-.24,3.91-1.04,8.3-3.28,10.91-1.7,1.98-4.11,1.89-5.63,3.98-1.41,1.91-.67,2.65-3.15,3.15-2,.39-4.43-.15-6.48-.13-5.09.09-3.59,2.33-5.28,6.43-1.54,3.72-4.54,2.41-7.43,1.17-1.48-.63-1.35-1.17-2.93-.52-1.28.52-2.07,2.09-3.5,2.54-2.96.98-6.63.13-8.8-2-1.5-1.48-.85-1.91-2.67-1.41-.72.2-1.02,1.28-2.02,1.52-.37.09-.83.07-1.33-.02-13.65,24.32-14,61.3,16.09,78.58,10.3,5.93,24.19,9.54,42.34,9.54s32.04-3.61,42.34-9.54c30.08-17.28,29.74-54.26,16.09-78.58Zm-7.33,55.63c-1,1.41-3.13,2.17-4.04,3.63-1.07,1.72.2,4.22-.83,6.06-1.13,2.06-2.37.52-3.87,1.2-.72.33-.78,1.07-1.2,1.78-3.41-.5-6.91-.72-10-1.13-7.37-.93-14.43-1.3-21.54-1.09-.07-.22-.13-.43-.26-.65-.85-1.52-1.61-1.48-1.3-3.33.33-2.15,2.87-3.72,4.5-4.89-2.11-1.78-2.76-2.59-2.7-5.28.02-.87.15-1.91.02-2.78-.17-1.24-.09-.76-.72-1.43-.78-.83-1.91-1.24-3-1.43-1.33-.26-2.76.2-4.09.04-.7-.09-1.39-.2-2.09-.33-.7.13-1.39.24-2.09.33-1.33.15-2.76-.3-4.09-.04-1.09.2-2.22.61-3,1.43-.63.67-.54.2-.72,1.43-.13.87,0,1.91.02,2.78.07,2.7-.59,3.5-2.7,5.28,1.63,1.17,4.17,2.74,4.5,4.89.3,1.85-.46,1.8-1.3,3.33-.13.22-.2.43-.26.65-7.11-.22-14.17.15-21.54,1.09-3.09.41-6.59.63-10,1.13-.41-.72-.48-1.46-1.2-1.78-1.5-.67-2.74.87-3.87-1.2-1.02-1.85.24-4.35-.83-6.06-.91-1.46-3.04-2.22-4.04-3.63-1.91-2.67.22-7.52-3.67-8.74.04-.96,1.24-1.57,1.78-2.39,1.13-1.72,1.04-3.39.48-5.39-.54-2-1.5-3.11-1.09-4.87.48-2.04,1.67-3.65,1.8-5.91.09-1.46.15-3.39-.22-4.83-.37-1.43-1.93-2.46-2.07-3.85,2.83-1.07,6.11-2.13,6.52-5.24.59-4.33,3.76-3.26,7.11-3.78.96-.13,1.89-.37,2.8-.72.41-.35.67-.8.78-1.35,1.11-1.13,1.96-.59,3.74-.65,1.7-.04,4.76.07,5.78-1.56.76-1.22-.52-2.93.3-4.11.59-.85,4-1.24,5.06-1.76,1.48-.74,2.13-1.33,2.87-2.76.96-1.8.76-.87,2.57-1.41,1-.28,1.39-.91,2.3-1.48,1.2-.76,1.54-.61,2.89-.7,1.5-.11,2.35-.5,3.65-1.26,1.2-.72,2.5-1.41,3.48-2.39.57-.57.61-1.13,1.39-1.35.54,1.13,1.61,1.83,2.83,2.24,1.22-.41,2.28-1.11,2.83-2.24.78.22.83.78,1.39,1.35.98.98,2.28,1.67,3.48,2.39,1.3.76,2.15,1.15,3.65,1.26,1.35.09,1.7-.07,2.89.7.91.57,1.3,1.2,2.3,1.48,1.8.54,1.61-.39,2.57,1.41.74,1.43,1.39,2.02,2.87,2.76,1.07.52,4.48.91,5.06,1.76.83,1.17-.46,2.89.3,4.11,1.02,1.63,4.09,1.52,5.78,1.56,1.78.07,2.63-.48,3.74.65.11.54.37,1,.78,1.35.91.35,1.85.59,2.8.72,3.35.52,6.52-.54,7.11,3.78.41,3.11,3.7,4.17,6.52,5.24-.13,1.39-1.7,2.41-2.07,3.85-.37,1.43-.3,3.37-.22,4.83.13,2.26,1.33,3.87,1.8,5.91.41,1.76-.54,2.87-1.09,4.87-.57,2-.65,3.67.48,5.39.54.83,1.74,1.43,1.78,2.39-3.89,1.22-1.76,6.06-3.67,8.74Z"/>
      <path class="cls-9" d="m382.51,113.48c-1.13-1.72-1.04-3.39-.48-5.39.54-2,1.5-3.11,1.09-4.87-.48-2.04-1.67-3.65-1.8-5.91-.09-1.46-.15-3.39.22-4.83.37-1.43,1.93-2.46,2.07-3.85-2.83-1.07-6.11-2.13-6.52-5.24-.59-4.33-3.76-3.26-7.11-3.78-.96-.13-1.89-.37-2.8-.72-.41-.35-.67-.8-.78-1.35-1.11-1.13-1.96-.59-3.74-.65-1.7-.04-4.76.07-5.78-1.56-.76-1.22.52-2.93-.3-4.11-.59-.85-4-1.24-5.06-1.76-1.48-.74-2.13-1.33-2.87-2.76-.96-1.8-.76-.87-2.57-1.41-1-.28-1.39-.91-2.3-1.48-1.2-.76-1.54-.61-2.89-.7-1.5-.11-2.35-.5-3.65-1.26-1.2-.72-2.5-1.41-3.48-2.39-.57-.57-.61-1.13-1.39-1.35-.54,1.13-1.61,1.83-2.83,2.24-1.22-.41-2.28-1.11-2.83-2.24-.78.22-.83.78-1.39,1.35-.98.98-2.28,1.67-3.48,2.39-1.3.76-2.15,1.15-3.65,1.26-1.35.09-1.7-.07-2.89.7-.91.57-1.3,1.2-2.3,1.48-1.8.54-1.61-.39-2.57,1.41-.74,1.43-1.39,2.02-2.87,2.76-1.07.52-4.48.91-5.06,1.76-.83,1.17.46,2.89-.3,4.11-1.02,1.63-4.09,1.52-5.78,1.56-1.78.07-2.63-.48-3.74.65-.11.54-.37,1-.78,1.35-.91.35-1.85.59-2.8.72-3.35.52-6.52-.54-7.11,3.78-.41,3.11-3.7,4.17-6.52,5.24.13,1.39,1.7,2.41,2.07,3.85.37,1.43.3,3.37.22,4.83-.13,2.26-1.33,3.87-1.8,5.91-.41,1.76.54,2.87,1.09,4.87.57,2,.65,3.67-.48,5.39-.54.83-1.74,1.43-1.78,2.39,3.89,1.22,1.76,6.06,3.67,8.74,1,1.41,3.13,2.17,4.04,3.63,1.07,1.72-.2,4.22.83,6.06,1.13,2.06,2.37.52,3.87,1.2.72.33.78,1.07,1.2,1.78,3.41-.5,6.91-.72,10-1.13,7.37-.93,14.43-1.3,21.54-1.09.07-.22.13-.43.26-.65.85-1.52,1.61-1.48,1.3-3.33-.33-2.15-2.87-3.72-4.5-4.89,2.11-1.78,2.76-2.59,2.7-5.28-.02-.87-.15-1.91-.02-2.78.17-1.24.09-.76.72-1.43.78-.83,1.91-1.24,3-1.43,1.33-.26,2.76.2,4.09.04.7-.09,1.39-.2,2.09-.33.7.13,1.39.24,2.09.33,1.33.15,2.76-.3,4.09-.04,1.09.2,2.22.61,3,1.43.63.67.54.2.72,1.43.13.87,0,1.91-.02,2.78-.07,2.7.59,3.5,2.7,5.28-1.63,1.17-4.17,2.74-4.5,4.89-.3,1.85.46,1.8,1.3,3.33.13.22.2.43.26.65,7.11-.22,14.17.15,21.54,1.09,3.09.41,6.59.63,10,1.13.41-.72.48-1.46,1.2-1.78,1.5-.67,2.74.87,3.87-1.2,1.02-1.85-.24-4.35.83-6.06.91-1.46,3.04-2.22,4.04-3.63,1.91-2.67-.22-7.52,3.67-8.74-.04-.96-1.24-1.57-1.78-2.39Zm-53-44.26l-.46.39.46-.91.46.91-.46-.39Z"/>
      <circle class="cls-7" cx="287.55" cy="81.76" r="15.41" transform="translate(-11.09 68.25) rotate(-13.28)"/>
      <path class="cls-8" d="m337.58,131.09c-.3,1.85.46,1.8,1.3,3.33.13.22.2.43.26.65-3.2.09-6.39.3-9.63.63-3.24-.33-6.43-.54-9.63-.63.07-.22.13-.43.26-.65.85-1.52,1.61-1.48,1.3-3.33-.33-2.15-2.87-3.72-4.5-4.89,2.11-1.78,2.76-2.59,2.7-5.28-.02-.87-.15-1.91-.02-2.78.17-1.24.09-.76.72-1.43.78-.83,1.91-1.24,3-1.43,1.33-.26,2.76.2,4.09.04.7-.09,1.39-.2,2.09-.33.7.13,1.39.24,2.09.33,1.33.15,2.76-.3,4.09-.04,1.09.2,2.22.61,3,1.43.63.67.54.2.72,1.43.13.87,0,1.91-.02,2.78-.07,2.7.59,3.5,2.7,5.28-1.63,1.17-4.17,2.74-4.5,4.89Z"/>
      <path class="cls-9" d="m319.88,135.08c-.26.89-.17,1.76-.65,2.7-1.46,2.87-5.7,2.52-8.39,2.02-1.54-.28-4.15-2.35-5.72-1.07-.59.46-.48,1.83-1.02,2.35-.52.52-1.35.46-1.91.83-1,.67-.98,1.39-2.28,1.67-.63.15-1.24-.22-1.87.11-.39.2-.2.87-.91,1.04-1.67-1.5-2.89-4.54-4.72-5.48-1.28-.63-2.57-.28-3.67-1.46-.15-.15-.28-.33-.39-.5,3.41-.5,6.91-.72,10-1.13,7.37-.93,14.43-1.3,21.54-1.09Z"/>
      <path class="cls-5" d="m329.51,126.85c-8.56,0-14.28-7.98-12.56-12.54,1.72-4.56,12.56-4.56,12.56-4.56,0,0,10.85,0,12.54,4.56,1.72,4.56-3.98,12.54-12.54,12.54Z"/>
      <path class="cls-4" d="m279.08,77.53c0-2.34,1.9-4.24,4.24-4.24s4.24,1.9,4.24,4.24-1.9,4.24-4.24,4.24-4.24-1.9-4.24-4.24Z"/>
      <path class="cls-6" d="m277.8,36.53c-.14-.51-.49-.65-.6-1.13-.28-1.27.49-2.64-.63-3.73-1.07-1.05-2.54-.74-3.67-.14-2.06,1.09-2.99,2.54-4.61,4.16-.72.71-1.55,1.28-2.5,1.85-1.31.77-2.71,1.47-4.07,2.12-1.45.69-1.76,1.16-2.43,2.78h.27c-1.98,1.67-2.89,3.82-2.37,6.5.6.14.86-.06,1.39.19-.84,2.88-3.54,5.47-2.6,8.79.31,1.11.35.49,1.14,1.18.93.81.69,1.14,1.22,2.26.18.38.66,1.37,1.05,1.64.22.15,2.13.62,2.33.55.44-.14.56-.58.94-.88.38-.3.96-.32,1.4-.65.25-.19,1.01-.98,1.21-1.19.44-.48.67-1.65,1.21-2.01.52-.35,1.45.02,2.05-.09,1.15-.22,1.68-.92,2.18-1.95.61-1.26.72-2.54,1.08-3.83.3-1.06.25-.53,1.19-1.3,1.13-.92,1.76-2.34,2.01-3.75.29-1.65-.46-2.8-.43-4.27,1.73-.7,3.22-2.47,3.26-4.32.01-.71.18-2.03-.02-2.75Z"/>
      <path class="cls-8" d="m278.01,33.23c-7.72.59-13.76,12.56-13.76,12.56,0,0-6.93-2.24-8.63-10.43.22.17.43.37.67.57.67.54,1.57.8,2.33,1.22,1.76.93,1.72-.07,2.67-1.67,1.07-1.8,3.11-1.93,4.93-2.26,1.63-.3,1.52-.85,2.26-2.17.63-1.13,2.2-2.22,2.65-3.35.33-.85.07-2.04.24-2.93.17-.91.3-1.98.54-2.89.83-3.17.54-6.76.43-10.15,3.54,9.56,5.65,21.52,5.65,21.52Z"/>
      <path class="cls-9" d="m271.92,21.86c-.24.91-.37,1.98-.54,2.89-.17.89.09,2.09-.24,2.93-.46,1.13-2.02,2.22-2.65,3.35-.74,1.33-.63,1.87-2.26,2.17-1.83.33-3.87.46-4.93,2.26-.96,1.61-.91,2.61-2.67,1.67-.76-.41-1.65-.67-2.33-1.22-.24-.2-.46-.39-.67-.57-.39-1.89-.5-4.11-.17-6.7,1.72-13.69.59-30.26,8.8-28.54,3.15.65,5.91,5.65,8.11,11.59.11,3.39.39,6.98-.43,10.15Z"/>
      <circle class="cls-7" cx="371.46" cy="81.76" r="15.41" transform="translate(50.98 286.61) rotate(-45)"/>
      <path class="cls-9" d="m339.14,135.08c.26.89.17,1.76.65,2.7,1.46,2.87,5.7,2.52,8.39,2.02,1.54-.28,4.15-2.35,5.72-1.07.59.46.48,1.83,1.02,2.35.52.52,1.35.46,1.91.83,1,.67.98,1.39,2.28,1.67.63.15,1.24-.22,1.87.11.39.2.2.87.91,1.04,1.67-1.5,2.89-4.54,4.72-5.48,1.28-.63,2.57-.28,3.67-1.46.15-.15.28-.33.39-.5-3.41-.5-6.91-.72-10-1.13-7.37-.93-14.43-1.3-21.54-1.09Z"/>
      <path class="cls-4" d="m372.88,77.53c0-2.34-1.9-4.24-4.24-4.24s-4.24,1.9-4.24,4.24,1.9,4.24,4.24,4.24,4.24-1.9,4.24-4.24Z"/>
      <path class="cls-6" d="m381.22,36.53c.14-.51.49-.65.6-1.13.28-1.27-.49-2.64.63-3.73,1.07-1.05,2.54-.74,3.67-.14,2.06,1.09,2.99,2.54,4.61,4.16.72.71,1.55,1.28,2.5,1.85,1.31.77,2.71,1.47,4.07,2.12,1.45.69,1.76,1.16,2.43,2.78h-.27c1.98,1.67,2.89,3.82,2.37,6.5-.6.14-.86-.06-1.39.19.84,2.88,3.54,5.47,2.6,8.79-.31,1.11-.35.49-1.14,1.18-.93.81-.69,1.14-1.22,2.26-.18.38-.66,1.37-1.05,1.64-.22.15-2.13.62-2.33.55-.44-.14-.56-.58-.94-.88-.38-.3-.96-.32-1.4-.65-.25-.19-1.01-.98-1.21-1.19-.44-.48-.67-1.65-1.21-2.01-.52-.35-1.45.02-2.05-.09-1.15-.22-1.68-.92-2.18-1.95-.61-1.26-.72-2.54-1.08-3.83-.3-1.06-.25-.53-1.19-1.3-1.13-.92-1.76-2.34-2.01-3.75-.29-1.65.46-2.8.43-4.27-1.73-.7-3.22-2.47-3.26-4.32-.01-.71-.18-2.03.02-2.75Z"/>
      <path class="cls-8" d="m381.01,33.23c7.72.59,13.76,12.56,13.76,12.56,0,0,6.93-2.24,8.63-10.43-.22.17-.43.37-.67.57-.67.54-1.57.8-2.33,1.22-1.76.93-1.72-.07-2.67-1.67-1.07-1.8-3.11-1.93-4.93-2.26-1.63-.3-1.52-.85-2.26-2.17-.63-1.13-2.2-2.22-2.65-3.35-.33-.85-.07-2.04-.24-2.93-.17-.91-.3-1.98-.54-2.89-.83-3.17-.54-6.76-.43-10.15-3.54,9.56-5.65,21.52-5.65,21.52Z"/>
      <path class="cls-9" d="m387.09,21.86c.24.91.37,1.98.54,2.89.17.89-.09,2.09.24,2.93.46,1.13,2.02,2.22,2.65,3.35.74,1.33.63,1.87,2.26,2.17,1.83.33,3.87.46,4.93,2.26.96,1.61.91,2.61,2.67,1.67.76-.41,1.65-.67,2.33-1.22.24-.2.46-.39.67-.57.39-1.89.5-4.11.17-6.7-1.72-13.69-.59-30.26-8.8-28.54-3.15.65-5.91,5.65-8.11,11.59-.11,3.39-.39,6.98.43,10.15Z"/>
      <path class="cls-10" d="m354.9,133.59c-1.13,7.54-12.26,14.17-25.39,5.3-13.13,8.87-24.26,2.24-25.41-5.3-1.13-7.54,4.87-6.43,5.43-5.3.57,1.15-4,8.56,5.41,10.28,9.43,1.72,14.56-4,14.56-4,0,0,5.13,5.72,14.54,4,9.43-1.72,4.87-9.13,5.43-10.28.57-1.13,6.56-2.24,5.41,5.3Z"/>
    </g>
  </g>
</svg>