<?xml version="1.0" encoding="UTF-8"?>
<svg id="Layer_2" data-name="Layer 2" xmlns="http://www.w3.org/2000/svg" viewBox="0 0 316.28 285.32">
  <defs>
    <style>
      .cls-1 {
        fill: #7a564a;
      }

      .cls-1, .cls-2, .cls-3, .cls-4, .cls-5, .cls-6, .cls-7, .cls-8, .cls-9, .cls-10, .cls-11 {
        stroke-width: 0px;
      }

      .cls-2 {
        fill: #51271f;
      }

      .cls-3 {
        fill: #a79fa6;
      }

      .cls-4 {
        fill: #fff;
      }

      .cls-5 {
        opacity: .15;
      }

      .cls-5, .cls-6 {
        fill: #eae8af;
      }

      .cls-7 {
        fill: #65493e;
      }

      .cls-8 {
        fill: #231f20;
      }

      .cls-9 {
        fill: #bab1b9;
      }

      .cls-10 {
        fill: #4c3830;
      }

      .cls-11 {
        fill: #3a2b26;
      }
    </style>
  </defs>
  <g id="ECHIDNA">
    <g>
      <path class="cls-11" d="m57.84,202.23s12.48,25.99,18.24,39.44c5.76,13.45-2.88,8.07-9.12,21.51-6.24,13.45,1.39,12.55,11.01,12.55s32.66,1.79,42.26-8.96c9.6-10.76,0-65.22.96-74.74.96-9.52-75.83-31.93-63.35,10.2Z"/>
      <path class="cls-11" d="m248.01,199.84s-12.48,25.99-18.24,39.44c-5.76,13.45,2.88,8.07,9.12,21.51,6.24,13.45-1.39,12.55-11.01,12.55s-32.66,1.79-42.26-8.96c-9.6-10.76,0-65.22-.96-74.74-.96-9.52,75.83-31.93,63.35,10.2Z"/>
      <path class="cls-2" d="m225.67,211.35c.32.05.63.11.95.17-.35.19-.69.09-.95-.17Z"/>
      <path class="cls-2" d="m287.78,170.19c-2.78,6.81,11.29,8.4,10.15,15.97-5.93-.92-12.02,0-17.62,2.66,3.4,2.45,6.81,4.9,10.21,7.35-9.79,1.26-19.58,2.53-29.38,3.78,3.16,3.14,6.32,6.29,9.48,9.42-8.8-.53-17.6-1.08-26.39-1.61-5.03-.31-10.08-.61-15.12-.92-1.35-.08-2.88-.06-3.78,1.25-.64.93-.34,2.62.33,3.26-9.87-1.81-19.74-3.23-29.6-4.31-3.78-.43-7.56-.79-11.36-1.12-.34-.04-.69-.06-1.03-.08-1.3-.12-2.6-.22-3.9-.32-2-.15-3.99-.3-5.99-.43h-.02s-.06,0-.08-.01c-1.03-.07-2.04-.13-3.07-.18-1.76-.12-3.53-.21-5.31-.3-.77-.05-1.54-.08-2.3-.12-6.91-.32-13.84-.51-20.79-.59-2.02-.04-4.04-.06-6.07-.06-1.7-.01-3.4-.01-5.11,0-.53-.01-1.05-.01-1.58,0-.93,0-1.87.01-2.8.01h-.21c-1.56.01-3.12-.05-4.67-.14-.35-.02-.71-.05-1.06-.07-1.55-.11-3.07-.26-4.61-.43-4.95-.54-9.87-1.3-14.83-1.7-3.46-.27-6.94-.38-10.47-.12-6.55.47-20.61.54-31.87,3.08-6.03,1.36-11.25,3.44-14.09,6.65,3.63-4.44,8.24-7.49,13.13-8.66.12-.04.25-.07.37-.09-.14-.01-.3-.04-.44-.05-12.29-1.38-24.58-2.75-36.87-4.15,3.12-3.24,6.7-5.71,10.52-7.23-7.63-5.29-15.27-10.59-22.89-15.88,4.1-1.35,8.21-2.71,12.33-4.05-3.55-3.27-7.1-6.56-10.65-9.84,2.16-.86,4.33-1.73,6.49-2.6-4.88-3.83-9.75-7.66-14.62-11.49,1.13-.3,2.26-.58,3.39-.86,2.81-.73,5.64-1.44,8.45-2.16-1.76-1.91-3.53-3.82-5.29-5.72-1.51-1.64-3.04-3.29-4.55-4.93,5.45-.73,10.59-4.72,13.67-10.6.01-.01.01-.04.02-.05-2.02-1.7-4.03-3.39-6.05-5.09,4.72-.34,9.42-.7,14.12-1.04-1.73-4.75-3.44-9.49-5.16-14.24,1.93-.09,3.86-.19,5.79-.28,2.32-.11,4.63-.22,6.95-.34-.21-6.31-2.07-12.52-5.18-17.36,4.15.3,8.3.6,12.44.9-.58-1.93-1.16-3.84-1.75-5.77-1.44-4.8-2.9-9.6-4.35-14.38,5.96,4.01,12.37,6.87,18.97,8.45-.52-2.09-1.05-4.18-1.57-6.28-1.21-4.82-2.41-9.66-3.63-14.48,6.11,2.49,12.23,4.98,18.34,7.47-.19-7.17-1.52-14.3-3.91-20.79,5.2,3.01,10.39,6.03,15.58,9.04-.77-5.96-1.54-11.92-2.3-17.88,5.53,3.06,11.05,6.13,16.58,9.21-.56-10.84,3.24-21.89,9.81-28.59-.73,5.31.11,10.94,2.29,15.52.8-6.22,2.85-12.16,5.89-17.08.59,6,3.29,11.61,7.17,14.91.45-7.6,2.98-14.97,7.04-20.47-.24,3.72,1.25,7.54,3.71,9.47,1.15-4.55,2.28-9.1,3.42-13.65,2.33,7.03,6.37,13.07,11.39,17.05.48-5.4.98-10.8,1.48-16.2,5.37,4.31,10.36,9.42,14.86,15.19.05-5.26.09-10.52.13-15.78,4.56,6.33,9.12,12.66,13.69,18.99,1.51-5.05,3.01-10.1,4.51-15.15l5.03,20.85c3.25-5.41,5.73-11.62,7.27-18.19.73,5.05,1.47,10.09,2.21,15.14,1.29-2.91,2.58-5.83,3.86-8.73.64,2.99,1.89,5.73,3.57,7.94,1.62,2.15,3.64,3.81,5.85,4.7.18-6.87-.46-13.77-1.9-20.39,6.96,11.2,13.92,22.42,20.88,33.62-.19-6.15.99-12.35,3.36-17.68,3.38,9.28,6.78,18.54,10.16,27.82.08.21.15.44.24.65-.01-.34-.01-.69,0-1.02.07-5.46,1.71-10.86,4.54-14.9,3.58,7.82,5.66,16.82,5.98,25.92,2.14-7.1,5.98-13.31,10.86-17.53.17,9.01.34,18.01.52,27,2.8-.22,5.51-2.12,7.19-5.05.02,4.87.04,9.73.06,14.6,3.06-.67,5.96-2.55,8.21-5.32-.77,6.11-1.54,12.23-2.3,18.34,2.81,1.04,5.87.95,8.64-.27.31,4.25.01,8.58-.87,12.7-.24,1.13-.52,2.25-.84,3.34,2.28-.34,4.56-.69,6.84-1.03-2.35,7.08-3.75,14.69-4.11,22.37,3.07-.35,6.13-.72,9.21-1.09-.85,1.19-1.62,2.47-2.32,3.82-1.09,2.09-2,4.35-2.68,6.71,5.72-.56,11.52.28,16.99,2.48-3.86,4.7-8.36,8.52-13.22,11.23.64.38,1.29.77,1.93,1.16,3.71,2.21,7.41,4.43,11.12,6.65-4.54,2.47-9.06,4.93-13.59,7.39-.46.25-.92.51-1.36.83-.38.27-.72.57-1.02.93-.26.31-.48.66-.65,1.08Z"/>
      <path class="cls-6" d="m92.92,190.13s-.45.11-1.21.22c-.78.11-1.82.25-3.07.35-1.25.09-2.68.18-4.19.21-.76.03-1.53.03-2.32.04-.79,0-1.58,0-2.38,0-3.19-.04-6.39-.2-8.88-.47-1.24-.14-2.31-.3-3.06-.44-.75-.13-1.2-.26-1.2-.26,0,0,1.46-1.12,3.91-2.02,1.22-.47,2.68-.86,4.27-1.15.8-.12,1.62-.25,2.47-.3.84-.08,1.7-.08,2.56-.09.86.04,1.72.06,2.56.16.84.07,1.67.22,2.46.37,1.58.33,3.03.76,4.24,1.26,2.44.97,3.86,2.12,3.86,2.12Z"/>
      <path class="cls-6" d="m84.27,169.47s-.41.17-1.12.37c-.71.21-1.73.45-2.93.63-2.41.38-5.6.49-8.74.2-3.15-.28-6.26-.96-8.56-1.78-1.15-.4-2.11-.82-2.77-1.16-.66-.33-1.04-.57-1.04-.57,0,0,.41-.17,1.12-.37.71-.21,1.73-.45,2.93-.64,2.42-.39,5.6-.49,8.74-.2,3.15.29,6.26.97,8.56,1.79,1.15.4,2.11.82,2.77,1.15.66.32,1.04.56,1.04.56Z"/>
      <path class="cls-6" d="m86.12,147.54s-.41-.05-1.06-.22c-.66-.16-1.57-.43-2.6-.84-2.06-.8-4.57-2.2-6.84-3.92-2.27-1.71-4.3-3.74-5.64-5.51-.67-.88-1.18-1.68-1.51-2.27-.34-.59-.5-.96-.5-.96,0,0,.41.05,1.06.21.66.16,1.57.43,2.6.84,2.07.8,4.57,2.21,6.84,3.92,2.27,1.72,4.3,3.74,5.63,5.51.67.88,1.18,1.68,1.52,2.27.34.58.5.96.5.96Z"/>
      <path class="cls-6" d="m110.16,134.39s-1.72-.82-3.82-2.55c-1.05-.85-2.19-1.92-3.33-3.15-1.13-1.23-2.24-2.61-3.26-4.06-.49-.74-.99-1.47-1.43-2.22-.46-.74-.86-1.5-1.25-2.24-.75-1.49-1.36-2.93-1.79-4.21-.88-2.56-1.05-4.47-1.05-4.47,0,0,.4.28,1.01.8.62.52,1.46,1.29,2.38,2.24,1.86,1.91,4.05,4.58,6.01,7.41,1.96,2.82,3.7,5.81,4.84,8.22.57,1.2.99,2.24,1.27,3.01.28.76.4,1.22.4,1.22Z"/>
      <path class="cls-6" d="m142.36,131.7s-.05,0-.14,0c-.1,0-.23.04-.42,0-.39-.03-.99-.2-1.58-.7-1.21-1-2.12-3.03-2.54-5.46-.19-1.2-.36-2.39-.52-3.72-.16-1.31-.31-2.69-.44-4.12-.26-2.86-.44-5.91-.54-8.96-.18-6.11.03-12.23.5-16.83.24-2.3.51-4.22.74-5.56.22-1.34.41-2.11.41-2.11,0,0,.23.76.53,2.09.31,1.33.69,3.23,1.06,5.51.74,4.56,1.31,10.66,1.49,16.77.08,3.05.08,6.11,0,8.98-.04,1.43-.11,2.82-.2,4.14-.08,1.3-.19,2.59-.3,3.68-.19,2.13-.02,3.94.53,5,.28.51.64.88.93,1.04.31.18.5.25.5.25Z"/>
      <path class="cls-6" d="m182.4,124.6s-.25-.57-.59-1.59c-.33-.99-.81-2.39-1.39-4.08-.26-.84-.57-1.73-.89-2.68-.29-.95-.68-1.92-1-2.95-.36-1.01-.73-2.05-1.11-3.11-.39-1.05-.79-2.12-1.18-3.18-.42-1.06-.82-2.12-1.25-3.16-.43-1.04-.85-2.06-1.26-3.05-.43-.99-.84-1.95-1.23-2.85-.4-.91-.78-1.78-1.14-2.58-.72-1.63-1.31-3-1.73-3.95-.43-.97-.64-1.56-.64-1.56,0,0,.52.33,1.38.99.43.32.94.74,1.48,1.25.56.5,1.18,1.08,1.79,1.76.64.67,1.26,1.44,1.91,2.27.65.83,1.27,1.76,1.89,2.73.59.99,1.21,2.01,1.72,3.1.57,1.07,1.01,2.22,1.48,3.35.41,1.16.83,2.31,1.13,3.48.35,1.16.57,2.33.8,3.45.17,1.14.36,2.23.42,3.29.09,1.05.13,2.04.11,2.96.01.91-.06,1.77-.13,2.52-.05.75-.15,1.39-.24,1.91-.18,1.05-.34,1.66-.34,1.66Z"/>
      <path class="cls-6" d="m209.99,132.97s-.02.03-.07.1c-.04.06-.11.17-.3.24-.43.16-.98-.31-1.24-.85-.29-.57-.58-1.28-.41-2.34.19-.88.34-1.62.59-2.56.49-1.82,1.15-3.91,2.03-6.07.44-1.08.91-2.19,1.44-3.3.51-1.11,1.1-2.21,1.68-3.31.61-1.08,1.23-2.17,1.89-3.2.65-1.04,1.32-2.04,2.01-2.99,1.36-1.9,2.76-3.58,4.03-4.96,1.28-1.37,2.44-2.45,3.28-3.17.84-.72,1.37-1.1,1.37-1.1,0,0-.19.62-.6,1.64-.4,1.03-1.01,2.46-1.77,4.15-1.53,3.36-3.74,7.66-6.06,11.9-2.33,4.22-4.77,8.41-6.79,11.49-.48.76-1.02,1.55-1.39,2.06-.27.38-.41,1.03-.4,1.48.01.47.11.81.31.85.21.05.41-.1.39-.07Z"/>
      <path class="cls-6" d="m221.67,161.48s.46-.51,1.32-1.31c.42-.41.95-.88,1.63-1.36.66-.51,1.42-1.08,2.3-1.59.44-.27.89-.54,1.37-.81.49-.24,1-.5,1.53-.76,1.05-.54,2.22-.93,3.43-1.38,1.23-.37,2.5-.78,3.83-1.01,1.32-.31,2.69-.43,4.06-.6,1.37-.05,2.75-.16,4.1-.06,1.35.01,2.68.21,3.95.38,1.26.24,2.48.46,3.61.82,1.13.33,2.18.68,3.12,1.09.47.2.92.38,1.34.58.41.22.8.43,1.17.62.73.37,1.35.75,1.83,1.1.98.67,1.51,1.09,1.51,1.09,0,0-.69-.05-1.84-.21-.57-.1-1.27-.16-2.06-.26-.78-.1-1.67-.2-2.63-.27-.95-.12-1.98-.18-3.06-.24-1.07-.1-2.22-.08-3.38-.15-1.17.01-2.37-.03-3.59.03-1.22,0-2.45.12-3.68.19-1.23.13-2.46.22-3.67.4-1.22.13-2.39.38-3.55.54-1.14.26-2.27.41-3.32.69-1.06.23-2.07.46-2.99.72-.94.23-1.79.45-2.54.67-.75.21-1.45.39-2,.58-1.12.35-1.79.5-1.79.5Z"/>
      <path class="cls-6" d="m202.46,194.02s.65-.2,1.78-.44c.56-.13,1.26-.27,2.07-.36.81-.12,1.73-.23,2.72-.28,1-.08,2.08-.09,3.22-.07,1.15.01,2.35.11,3.59.22,1.24.15,2.52.3,3.81.57,1.3.22,2.58.58,3.87.9,1.27.4,2.55.77,3.77,1.25,1.24.43,2.41.99,3.55,1.5,1.12.56,2.2,1.09,3.18,1.69.99.58,1.9,1.16,2.71,1.74.82.56,1.54,1.13,2.17,1.65.64.5,1.16.98,1.58,1.38.85.8,1.3,1.31,1.3,1.31,0,0-.67-.15-1.77-.49-1.09-.34-2.64-.82-4.5-1.4-1.82-.58-3.93-1.25-6.2-1.98-1.13-.34-2.29-.69-3.48-1.05-1.18-.35-2.39-.7-3.59-1.05-1.21-.33-2.41-.68-3.61-.99-1.2-.31-2.37-.62-3.51-.92-2.31-.57-4.47-1.1-6.32-1.55-1.89-.47-3.47-.87-4.57-1.14-1.13-.28-1.77-.49-1.77-.49Z"/>
      <path class="cls-6" d="m217.69,176.32s.49-.42,1.37-1.06c.44-.33.99-.7,1.67-1.07.67-.4,1.44-.83,2.3-1.21.86-.41,1.82-.78,2.85-1.13,1.03-.37,2.15-.64,3.31-.92,1.17-.22,2.38-.47,3.63-.56,1.25-.16,2.52-.15,3.8-.18,1.27.07,2.55.09,3.79.29,1.25.12,2.45.41,3.62.66,1.15.32,2.26.61,3.28,1.02,1.02.38,1.97.78,2.81,1.22.86.4,1.6.86,2.25,1.27.66.39,1.21.78,1.64,1.12.88.67,1.34,1.1,1.34,1.1,0,0-.65-.06-1.71-.24-.53-.1-1.18-.18-1.91-.3-.73-.12-1.55-.24-2.44-.35-.88-.14-1.84-.25-2.84-.37-.99-.15-2.06-.2-3.14-.34-1.09-.07-2.2-.19-3.34-.23-1.13-.08-2.28-.09-3.43-.13-1.15,0-2.3-.02-3.44.03-1.14,0-2.25.1-3.34.13-1.08.1-2.15.13-3.14.25-1.01.09-1.97.17-2.85.29-.9.09-1.71.18-2.43.28-.72.1-1.39.15-1.93.25-1.08.15-1.72.19-1.72.19Z"/>
      <path class="cls-6" d="m71.13,178.94s-.78.23-2.15.53c-1.37.3-3.35.67-5.72.99-2.37.32-5.15.56-8.13.68-1.49.05-3.03.1-4.59.08-1.56,0-3.15-.06-4.74-.11-1.59-.1-3.17-.17-4.73-.33-1.56-.12-3.09-.32-4.56-.51-2.95-.4-5.69-.9-8.03-1.44-2.33-.54-4.26-1.09-5.6-1.52-1.34-.43-2.1-.73-2.1-.73,0,0,.81-.11,2.21-.21,1.4-.1,3.39-.2,5.76-.27,4.75-.12,11.01-.01,17.27.29,6.25.3,12.5.78,17.22,1.34,2.36.29,4.32.57,5.71.81,1.39.23,2.18.41,2.18.41Z"/>
      <path class="cls-6" d="m66.7,153.23s-.59.07-1.6.11c-1,.04-2.45.02-4.15-.11-1.7-.13-3.67-.4-5.74-.82-1.04-.21-2.1-.45-3.17-.74-1.08-.27-2.15-.61-3.23-.94-1.06-.37-2.14-.72-3.16-1.14-1.04-.39-2.04-.84-3-1.27-1.92-.89-3.67-1.83-5.12-2.73-1.45-.9-2.62-1.74-3.41-2.37-.8-.62-1.23-1.03-1.23-1.03,0,0,.59.03,1.59.16,1,.13,2.41.36,4.06.69,3.31.67,7.56,1.82,11.75,3.19,4.18,1.37,8.3,2.95,11.36,4.36,1.53.71,2.79,1.35,3.68,1.83.89.48,1.38.8,1.38.8Z"/>
      <path class="cls-6" d="m87,128.57s-.45-.28-1.15-.82c-.71-.54-1.67-1.35-2.76-2.37-2.17-2.04-4.72-4.99-6.96-8.17-2.23-3.18-4.15-6.58-5.33-9.31-.59-1.37-1.02-2.55-1.29-3.4-.27-.85-.38-1.36-.38-1.36,0,0,.45.28,1.15.82.71.54,1.67,1.35,2.76,2.36,2.17,2.04,4.72,4.99,6.95,8.17,2.23,3.18,4.14,6.58,5.32,9.32.59,1.37,1.02,2.55,1.29,3.4.27.85.38,1.36.38,1.36Z"/>
      <path class="cls-6" d="m121.01,114.16s-.43-.54-1.1-1.51c-.67-.97-1.58-2.4-2.54-4.16-.97-1.76-1.97-3.87-2.92-6.18-.47-1.16-.94-2.36-1.35-3.6-.44-1.23-.82-2.51-1.21-3.78-.35-1.29-.71-2.57-.99-3.85-.31-1.27-.54-2.54-.77-3.77-.42-2.46-.69-4.79-.8-6.79-.12-2.01-.11-3.69-.05-4.87.05-1.18.13-1.87.13-1.87,0,0,.32.61.79,1.69.47,1.08,1.1,2.63,1.81,4.48,1.39,3.72,2.99,8.68,4.42,13.68,1.43,5,2.71,10.05,3.5,13.94.39,1.95.68,3.58.85,4.75.18,1.17.23,1.85.23,1.85Z"/>
      <path class="cls-6" d="m160.17,112.82s-.26-.71-.62-1.95c-.36-1.24-.83-3.02-1.29-5.16-.93-4.28-1.77-10.02-2.21-15.79-.44-5.77-.5-11.57-.22-15.95.14-2.19.32-4.02.5-5.3.17-1.28.32-2.02.32-2.02,0,0,.26.71.62,1.95.37,1.24.83,3.02,1.3,5.16.93,4.28,1.76,10.02,2.2,15.79.44,5.77.49,11.57.22,15.95-.14,2.19-.32,4.02-.49,5.3-.17,1.28-.31,2.02-.31,2.02Z"/>
      <path class="cls-6" d="m201.38,116.1s-.18-.05-.51-.15c-.32-.14-.85-.37-1.33-.88-.5-.49-1-1.22-1.35-2.13-.37-.9-.64-1.96-.78-3.11-.16-1.15-.17-2.41-.18-3.62,0-1.24,0-2.54.04-3.88.07-2.69.24-5.55.49-8.4.52-5.7,1.43-11.36,2.42-15.58.5-2.11.99-3.86,1.37-5.08.38-1.22.65-1.92.65-1.92,0,0,.14.73.29,2,.16,1.27.32,3.08.42,5.25.21,4.33.08,10.06-.44,15.76-.27,2.85-.62,5.69-1.04,8.35-.21,1.33-.44,2.61-.67,3.82-.24,1.24-.48,2.29-.62,3.29-.32,2-.25,3.64.18,4.71.21.54.48.92.7,1.18.24.25.37.38.37.38Z"/>
      <path class="cls-6" d="m236.47,136.5s-.04.01-.11.04c-.07.03-.19.08-.39.04-.19-.04-.4-.23-.52-.49-.12-.25-.16-.56-.17-.89.02-.65.11-1.45.75-2.3.42-.49.67-.68.99-1.01.32-.3.65-.62,1-.95,1.47-1.29,3.26-2.72,5.3-4.03,1.02-.66,2.09-1.32,3.22-1.92,1.11-.63,2.29-1.18,3.47-1.73,1.19-.51,2.39-1.02,3.6-1.44,1.2-.44,2.4-.81,3.58-1.13,2.35-.65,4.59-1.04,6.53-1.26,1.94-.2,3.57-.24,4.71-.2,1.14.04,1.8.11,1.8.11,0,0-.58.33-1.61.81-.51.23-1.12.55-1.84.86-.7.32-1.5.68-2.36,1.07-3.4,1.5-7.94,3.49-12.48,5.49-4.51,2.05-9.02,4.09-12.41,5.63-.44.2-.86.39-1.26.57-.35.15-.69.28-1,.41-.45.25-.87.77-1.08,1.19-.2.44-.28.79-.11.95.16.16.41.14.39.16Z"/>
      <path class="cls-6" d="m236.41,162.7s.42-.19,1.14-.43c.73-.25,1.76-.54,3-.79,2.48-.52,5.77-.8,9.05-.69,3.28.11,6.55.61,8.99,1.3,1.22.33,2.23.7,2.94,1,.71.29,1.11.51,1.11.51,0,0-.42.19-1.14.43-.73.25-1.76.55-3,.8-2.48.52-5.77.8-9.05.69-3.28-.11-6.55-.62-8.99-1.3-1.22-.33-2.23-.7-2.94-1-.71-.29-1.11-.51-1.11-.51Z"/>
      <path class="cls-6" d="m91.92,195.36s-.49.26-1.35.63c-.86.37-2.11.84-3.63,1.29-1.52.45-3.3.86-5.23,1.17-.97.15-1.97.29-2.99.38-1.02.11-2.06.16-3.1.22-1.04.02-2.08.06-3.11.02-1.02,0-2.03-.08-3.01-.15-1.95-.17-3.76-.43-5.31-.77-1.55-.33-2.82-.71-3.71-1.02-.89-.3-1.39-.53-1.39-.53,0,0,.52-.18,1.43-.41.91-.23,2.2-.51,3.73-.78,3.07-.53,7.13-.93,11.18-1.08,4.05-.15,8.13-.06,11.23.23,1.55.15,2.85.33,3.78.49.92.15,1.46.3,1.46.3Z"/>
      <path class="cls-6" d="m82.05,174.42s-.39.14-1.06.3c-.67.16-1.62.34-2.75.45-2.25.23-5.18.14-8.05-.34-2.87-.48-5.67-1.35-7.72-2.31-1.03-.47-1.87-.95-2.45-1.33-.58-.37-.91-.63-.91-.63,0,0,.39-.14,1.06-.3.67-.16,1.62-.34,2.75-.45,2.25-.23,5.18-.14,8.05.35,2.87.49,5.67,1.36,7.72,2.31,1.03.47,1.87.95,2.45,1.32.58.36.91.63.91.63Z"/>
      <path class="cls-6" d="m85.61,154.53s-.78.05-2.12.05c-.67.02-1.49-.04-2.44-.19-.48-.06-.99-.13-1.53-.21-.52-.12-1.07-.24-1.64-.37-1.16-.24-2.35-.67-3.63-1.11-1.26-.48-2.56-1.04-3.87-1.69-1.3-.66-2.63-1.39-3.91-2.21-1.31-.79-2.55-1.69-3.8-2.58-1.22-.93-2.44-1.85-3.58-2.82-1.17-.95-2.24-1.93-3.3-2.89-2.09-1.91-3.95-3.78-5.52-5.41-1.56-1.64-2.84-3.04-3.73-4.03-.9-.99-1.38-1.61-1.38-1.61,0,0,.72.28,1.94.85.61.29,1.35.64,2.16,1.1.82.44,1.75.95,2.72,1.55,3.93,2.35,8.77,5.95,13.49,9.46,1.18.87,2.36,1.75,3.54,2.57.59.42,1.17.83,1.74,1.24.58.39,1.16.77,1.72,1.16,1.13.75,2.24,1.46,3.31,2.12,1.08.62,2.08,1.27,3.06,1.76.48.27.95.52,1.39.77.45.22.87.43,1.27.62.8.38,1.52.77,2.15,1.01,1.24.52,1.93.87,1.93.87Z"/>
      <path class="cls-6" d="m97.85,138.55s-.37-.37-.93-1.05c-.57-.69-1.31-1.66-2.17-2.84-.83-1.19-1.77-2.59-2.69-4.11-.94-1.52-1.88-3.15-2.78-4.81-1.81-3.31-3.44-6.72-4.53-9.43-.53-1.36-.95-2.52-1.21-3.36-.27-.84-.38-1.35-.38-1.35,0,0,.45.27,1.15.81.71.53,1.67,1.34,2.73,2.39,1.06,1.05,2.19,2.36,3.3,3.83.54.74,1.1,1.52,1.61,2.34.53.81,1.01,1.67,1.49,2.52.45.87.91,1.74,1.3,2.62.41.87.76,1.76,1.09,2.62.64,1.73,1.12,3.39,1.43,4.85.31,1.45.47,2.71.54,3.59.07.88.06,1.4.06,1.4Z"/>
      <path class="cls-6" d="m116.33,129.9s-.53-.43-1.37-1.23c-.42-.4-.93-.89-1.47-1.49-.55-.59-1.17-1.27-1.8-2.04-1.27-1.52-2.63-3.39-3.95-5.48-.65-1.05-1.32-2.14-1.92-3.28-.64-1.13-1.2-2.32-1.78-3.5-.53-1.2-1.09-2.4-1.54-3.61-.49-1.2-.9-2.41-1.29-3.58-.75-2.35-1.32-4.59-1.67-6.54-.19-.97-.31-1.88-.41-2.68-.12-.8-.17-1.5-.21-2.09-.08-1.16-.07-1.84-.07-1.84,0,0,.39.56.97,1.56.59,1,1.39,2.43,2.31,4.14,1.82,3.44,4.05,8.02,6.2,12.63.53,1.15,1.07,2.31,1.59,3.45.52,1.14,1.04,2.26,1.52,3.36.99,2.18,1.86,4.25,2.61,6.05.73,1.81,1.31,3.32,1.71,4.42.4,1.09.58,1.74.58,1.74Z"/>
      <path class="cls-6" d="m130.88,121.11s-.32-.73-.78-2.01c-.47-1.29-1.07-3.13-1.72-5.36-1.28-4.46-2.59-10.46-3.51-16.53-.92-6.06-1.45-12.19-1.54-16.82-.04-2.32,0-4.26.06-5.63.06-1.37.15-2.15.15-2.15,0,0,.32.73.78,2.01.47,1.29,1.08,3.13,1.72,5.36,1.29,4.46,2.59,10.46,3.5,16.53.91,6.06,1.44,12.19,1.53,16.83.04,2.32.01,4.26-.06,5.63-.06,1.37-.15,2.15-.15,2.15Z"/>
      <path class="cls-6" d="m221.29,148.56s.45-.56,1.28-1.47c.41-.46.93-1,1.59-1.57.64-.59,1.37-1.26,2.22-1.89.83-.67,1.78-1.33,2.8-1.99,1.01-.69,2.15-1.29,3.32-1.94,1.2-.58,2.43-1.22,3.75-1.71,1.29-.56,2.66-.98,4.02-1.42,1.38-.36,2.75-.77,4.14-1,1.37-.3,2.75-.45,4.08-.6,1.33-.1,2.62-.19,3.85-.17,1.23.01,2.38.05,3.44.17.53.06,1.04.1,1.52.17.48.08.93.16,1.36.24.85.13,1.59.31,2.19.48,1.2.32,1.87.56,1.87.56,0,0-.7.17-1.91.38-.6.11-1.32.24-2.16.39-.83.14-1.75.32-2.76.52-1,.17-2.08.41-3.21.64-1.13.22-2.31.51-3.54.77-1.22.3-2.47.59-3.73.93-1.27.31-2.54.7-3.81,1.06-1.27.39-2.54.76-3.78,1.19-1.25.39-2.45.85-3.64,1.24-1.16.46-2.33.83-3.39,1.27-1.08.41-2.11.8-3.05,1.2-.96.37-1.83.72-2.6,1.04-.77.32-1.47.58-2.04.83-1.14.48-1.82.7-1.82.7Z"/>
      <path class="cls-6" d="m48.05,163.87s-.44.05-1.16.04c-.74,0-1.74-.03-2.92-.14-2.36-.22-5.35-.74-8.27-1.47-2.92-.73-5.81-1.66-7.99-2.58-1.09-.46-2-.9-2.64-1.25-.64-.33-1.01-.58-1.01-.58,0,0,1.62-.65,4.04-.88,1.21-.13,2.62-.15,4.12-.04.75.06,1.52.14,2.29.28.78.11,1.55.3,2.33.47.77.21,1.54.41,2.28.68.75.24,1.46.54,2.15.84,1.37.61,2.61,1.29,3.62,1.97,2.04,1.35,3.16,2.67,3.16,2.67Z"/>
      <path class="cls-6" d="m30.54,129.6s-1.07,0-2.56-.38c-1.5-.34-3.41-1.07-5.19-2.04-1.78-.98-3.41-2.19-4.5-3.28-1.11-1.06-1.7-1.96-1.7-1.96,0,0,1.04.25,2.44.82,1.41.55,3.18,1.41,4.9,2.35,1.72.95,3.39,1.98,4.61,2.88,1.23.87,2,1.61,2,1.61Z"/>
      <path class="cls-6" d="m62.29,119.94s-.49-.24-1.26-.73c-.79-.49-1.86-1.2-3.09-2.11-2.46-1.83-5.47-4.47-8.27-7.31-2.8-2.84-5.4-5.89-7.18-8.38-.89-1.25-1.59-2.34-2.06-3.13-.47-.79-.71-1.28-.71-1.28,0,0,.51.18,1.34.58.84.39,1.99,1,3.3,1.82,1.31.82,2.77,1.86,4.26,3.06.74.6,1.5,1.24,2.23,1.92.75.66,1.46,1.39,2.19,2.1,1.42,1.45,2.76,2.98,3.94,4.49,1.17,1.51,2.19,2.98,2.99,4.31.79,1.33,1.39,2.49,1.77,3.33.38.84.56,1.35.56,1.35Z"/>
      <path class="cls-6" d="m84.49,98.42s-.44-.35-1.13-1.02c-.34-.33-.76-.74-1.19-1.25-.45-.5-.95-1.07-1.43-1.73-1-1.29-2.02-2.9-2.97-4.7-.46-.9-.93-1.85-1.33-2.84-.43-.98-.77-2.01-1.14-3.03-.31-1.04-.64-2.07-.86-3.12-.27-1.03-.43-2.07-.6-3.07-.28-2.01-.41-3.91-.36-5.54,0-.81.07-1.57.14-2.23.05-.66.14-1.24.22-1.71.16-.95.31-1.49.31-1.49,0,0,.26.5.62,1.38.37.88.85,2.13,1.41,3.6.26.74.55,1.54.85,2.38.28.84.58,1.72.89,2.64.62,1.82,1.25,3.76,1.87,5.7.31.97.63,1.94.93,2.89.3.96.61,1.9.89,2.82.59,1.83,1.1,3.57,1.55,5.08.42,1.53.76,2.79.99,3.73.23.93.32,1.48.32,1.48Z"/>
      <path class="cls-6" d="m101.41,82.16s-.37-.48-.92-1.36c-.56-.87-1.29-2.15-2.07-3.72-.78-1.57-1.57-3.44-2.3-5.49-.73-2.05-1.38-4.26-1.93-6.51-.25-1.13-.51-2.25-.7-3.38-.22-1.12-.37-2.23-.51-3.3-.27-2.15-.41-4.18-.42-5.93-.01-1.75.07-3.22.17-4.26.1-1.03.21-1.63.21-1.63,0,0,.3.53.72,1.48.43.94.99,2.29,1.6,3.91,1.2,3.25,2.49,7.61,3.54,12.01,1.05,4.41,1.85,8.88,2.25,12.32.19,1.72.3,3.17.34,4.21.05,1.03.03,1.64.03,1.64Z"/>
      <path class="cls-6" d="m149.93,83.21s-.23-.62-.52-1.71c-.3-1.09-.67-2.66-1.01-4.55-.33-1.89-.6-4.1-.77-6.47-.16-2.37-.22-4.91-.16-7.44.05-1.27.09-2.53.2-3.77.08-1.24.22-2.47.36-3.65.3-2.36.69-4.55,1.12-6.42.44-1.87.89-3.41,1.26-4.49.36-1.07.62-1.68.62-1.68,0,0,.15.65.32,1.76.17,1.12.37,2.71.54,4.6.33,3.79.45,8.79.31,13.78-.14,4.99-.53,9.97-1.07,13.74-.27,1.88-.55,3.45-.79,4.56-.23,1.11-.41,1.74-.41,1.74Z"/>
      <path class="cls-6" d="m128.04,57.21s-.18-.28-.43-.74c-.25-.46-.57-1.1-.88-1.86-.63-1.52-1.16-3.5-1.4-5.53-.24-2.02-.18-4.08.08-5.69.13-.8.28-1.48.39-1.97.04-.24.1-.44.1-.57.01-.13-.04-.18-.05-.19-.01,0,.09-.04.25.03.15.07.38.2.57.39.43.38.93.97,1.41,1.7.95,1.48,1.69,3.58,1.94,5.74.25,2.16,0,4.38-.57,6.02-.29.82-.62,1.49-.91,1.95-.12.23-.28.4-.36.52-.09.12-.14.18-.14.18Z"/>
      <path class="cls-6" d="m152.44,131.54s-1.26-1.22-2.5-3.37c-.63-1.07-1.24-2.36-1.78-3.79-.26-.71-.52-1.46-.72-2.23-.23-.76-.39-1.56-.56-2.35-.13-.8-.28-1.59-.35-2.39-.1-.79-.13-1.58-.16-2.34-.03-1.52.06-2.95.25-4.17.36-2.45,1.09-4.06,1.09-4.06,0,0,.23.38.53,1.05.31.67.71,1.62,1.11,2.75.81,2.27,1.59,5.25,2.17,8.26.57,3.01.94,6.08,1.03,8.48.05,1.2.02,2.22-.01,2.96-.03.74-.1,1.18-.1,1.18Z"/>
      <path class="cls-6" d="m191.42,136.38s-.13-.85-.26-2.32c-.13-1.48-.3-3.56-.41-6.06-.27-5-.32-11.62-.2-18.22.12-6.61.41-13.21.86-18.2.2-2.49.44-4.58.63-6.04.19-1.46.35-2.31.35-2.31,0,0,.25.82.59,2.26.17.72.38,1.6.56,2.61.2,1.01.42,2.15.58,3.39.2,1.25.38,2.6.54,4.03.16,1.43.28,2.95.39,4.51.09,1.57.18,3.19.21,4.84.05,1.65.03,3.32.02,5-.05,1.67-.09,3.35-.2,4.99-.09,1.65-.23,3.26-.39,4.83-.33,3.12-.74,6.03-1.24,8.51-.21,1.24-.47,2.37-.71,3.37-.21,1-.45,1.87-.65,2.58-.39,1.43-.67,2.24-.67,2.24Z"/>
      <path class="cls-6" d="m171.82,57.21s-.2-.31-.47-.86c-.27-.55-.6-1.33-.9-2.28-.6-1.88-1-4.39-1-6.91,0-2.51.39-5.02.99-6.91.29-.94.63-1.73.9-2.28.26-.55.47-.86.47-.86,0,0,.21.31.47.86.27.55.61,1.33.9,2.28.61,1.88,1,4.39.99,6.91,0,2.51-.4,5.02-1,6.91-.29.94-.62,1.73-.9,2.28-.26.55-.47.86-.47.86Z"/>
      <path class="cls-6" d="m209.31,84.25s-.11-.59-.21-1.6c-.05-.5-.11-1.12-.11-1.82-.02-.71-.04-1.51.01-2.37.06-1.73.3-3.73.7-5.85.22-1.05.45-2.14.77-3.23.28-1.09.66-2.18,1.03-3.27.41-1.07.81-2.15,1.29-3.17.44-1.04.96-2.03,1.46-2.98,1.04-1.89,2.13-3.58,3.19-4.95.52-.69,1.04-1.3,1.51-1.82.45-.54.89-.98,1.25-1.34.73-.72,1.19-1.09,1.19-1.09,0,0-.11.59-.37,1.56-.26.98-.66,2.34-1.14,3.95-.51,1.6-1.1,3.44-1.79,5.38-.33.98-.68,1.97-1.04,2.99-.36,1.01-.73,2.04-1.1,3.07-.37,1.03-.74,2.05-1.11,3.06-.38,1.01-.73,2.01-1.11,2.97-.34.97-.73,1.89-1.06,2.79-.35.89-.69,1.73-1,2.5-.65,1.56-1.22,2.84-1.64,3.77-.42.92-.71,1.44-.71,1.44Z"/>
      <path class="cls-6" d="m183.57,80.83s-.17-.69-.36-1.9c-.2-1.21-.43-2.94-.62-5-.38-4.13-.47-9.62-.16-15.08.3-5.46.99-10.91,1.82-14.97.42-2.03.84-3.72,1.17-4.9.33-1.18.57-1.85.57-1.85,0,0,.17.69.37,1.9.2,1.21.43,2.94.62,5,.38,4.13.46,9.62.16,15.08-.31,5.46-1,10.91-1.83,14.97-.42,2.03-.83,3.72-1.17,4.9-.33,1.18-.57,1.85-.57,1.85Z"/>
      <path class="cls-6" d="m213.6,138.9s.15-.59.49-1.56c.16-.49.38-1.08.69-1.73.3-.66.64-1.42,1.08-2.18.42-.78.93-1.6,1.51-2.43.56-.85,1.24-1.68,1.93-2.55.74-.83,1.49-1.7,2.34-2.49.82-.83,1.74-1.58,2.65-2.34.95-.71,1.89-1.44,2.89-2.04.97-.65,1.99-1.19,2.98-1.7,1-.49,1.98-.93,2.93-1.29.96-.35,1.86-.66,2.73-.88.43-.11.84-.21,1.23-.31.4-.07.78-.14,1.14-.2.71-.14,1.33-.21,1.85-.24,1.04-.08,1.64-.07,1.64-.07,0,0-.48.39-1.32.96-.42.29-.92.64-1.5,1.04-.58.38-1.21.84-1.9,1.33-.7.46-1.43,1-2.22,1.54-.77.55-1.58,1.13-2.42,1.73-.83.61-1.68,1.23-2.53,1.88-.86.63-1.71,1.32-2.57,1.98-.85.68-1.7,1.35-2.53,2.04-.83.69-1.64,1.37-2.43,2.02-.76.69-1.55,1.31-2.25,1.96-.72.62-1.41,1.22-2.03,1.78-1.29,1.13-2.37,2.06-3.13,2.72-.77.68-1.26,1.04-1.26,1.04Z"/>
      <path class="cls-6" d="m237.76,94.36s1.22-1.26,3.32-2.82c1.04-.79,2.3-1.63,3.69-2.47.71-.4,1.42-.85,2.18-1.23.75-.41,1.53-.78,2.31-1.16.79-.35,1.58-.72,2.37-1.03.78-.34,1.59-.59,2.35-.88,1.54-.53,3-.95,4.27-1.24,2.53-.6,4.29-.71,4.29-.71,0,0-.38.23-1.05.58-.67.35-1.63.85-2.79,1.41-1.15.57-2.5,1.22-3.94,1.89-1.44.68-2.97,1.4-4.51,2.12-1.54.71-3.08,1.42-4.52,2.08-1.44.68-2.81,1.28-3.98,1.8-1.18.52-2.17.93-2.88,1.22-.71.28-1.12.43-1.12.43Z"/>
      <path class="cls-6" d="m254.93,179.76s.46-.18,1.28-.45c.41-.14.91-.29,1.5-.44.59-.16,1.25-.33,1.98-.46,1.46-.31,3.18-.52,5.04-.64.93-.02,1.89-.1,2.87-.05.98.01,1.97.09,2.96.15.99.12,1.98.23,2.94.39.97.12,1.91.38,2.82.57,1.81.45,3.47.97,4.84,1.54.7.26,1.32.54,1.86.8.55.25,1.02.49,1.4.7.76.42,1.18.68,1.18.68,0,0-.49-.07-1.34-.23-.84-.16-2.04-.38-3.47-.64-.71-.12-1.49-.26-2.3-.4-.81-.15-1.68-.24-2.56-.4-1.78-.23-3.67-.49-5.58-.65-1.9-.19-3.81-.28-5.6-.37-.9,0-1.77-.07-2.59-.07-.83,0-1.61-.02-2.34-.02-1.46,0-2.68,0-3.53.01-.86,0-1.36,0-1.36,0Z"/>
      <path class="cls-6" d="m61.99,91.67s-1.07-1.57-2.38-4.05c-.67-1.24-1.4-2.7-2.13-4.28-.36-.8-.76-1.61-1.11-2.45-.36-.84-.72-1.7-1.08-2.56-.34-.87-.68-1.73-1.01-2.59-.34-.85-.62-1.71-.92-2.53-.58-1.65-1.07-3.2-1.46-4.55-.79-2.69-1.12-4.56-1.12-4.56,0,0,1.07,1.57,2.38,4.05.67,1.24,1.4,2.7,2.13,4.28.36.8.76,1.61,1.1,2.45.36.84.72,1.7,1.08,2.56.34.87.67,1.73,1.01,2.59.34.85.62,1.71.92,2.53.58,1.65,1.07,3.2,1.46,4.55.79,2.69,1.12,4.56,1.12,4.56Z"/>
      <path class="cls-6" d="m237.53,76.17s.85-1.76,2.46-4.18c.79-1.22,1.77-2.59,2.88-4.02.57-.7,1.12-1.46,1.75-2.17.62-.72,1.25-1.45,1.89-2.17.66-.7,1.33-1.4,1.98-2.09.65-.7,1.34-1.32,1.99-1.95,1.32-1.24,2.59-2.35,3.72-3.26,2.25-1.83,3.93-2.84,3.93-2.84,0,0-.28.4-.79,1.08-.52.67-1.26,1.62-2.18,2.73-.91,1.11-1.99,2.39-3.18,3.73-.6.67-1.18,1.38-1.82,2.07-.63.7-1.26,1.41-1.9,2.12-1.3,1.4-2.57,2.81-3.81,4.11-1.22,1.31-2.39,2.51-3.41,3.52-2.02,2.04-3.5,3.33-3.5,3.33Z"/>
      <path class="cls-6" d="m273.52,152.41s.35-.15.96-.38c.6-.22,1.51-.51,2.6-.74,1.09-.26,2.38-.44,3.78-.54.7-.03,1.42-.09,2.15-.07.74-.01,1.48.05,2.23.09.74.08,1.49.14,2.21.27.73.09,1.43.28,2.12.42,1.36.33,2.61.71,3.64,1.14,1.04.4,1.88.83,2.45,1.14.57.32.89.53.89.53,0,0-.38-.02-1.02-.08-.64-.07-1.55-.16-2.64-.28-1.07-.12-2.32-.26-3.66-.4-1.33-.12-2.75-.25-4.17-.38-1.42-.1-2.84-.2-4.17-.29-1.35-.07-2.6-.13-3.68-.19-1.1-.06-2.01-.11-2.65-.14-.65-.04-1.03-.08-1.03-.08Z"/>
      <path class="cls-6" d="m164.16,43.03s-.4-1.33-.68-3.32c-.15-1-.28-2.16-.36-3.41-.09-1.25-.14-2.58-.14-3.91,0-1.33.05-2.66.14-3.91.08-1.25.21-2.41.36-3.41.28-1.99.68-3.32.68-3.32,0,0,.4,1.33.68,3.32.15,1,.28,2.16.36,3.41.09,1.25.14,2.58.14,3.91,0,1.33-.05,2.66-.14,3.91-.08,1.25-.21,2.41-.36,3.41-.28,1.99-.68,3.32-.68,3.32Z"/>
      <path class="cls-6" d="m202.48,54.86s.18-1.63.85-3.98c.32-1.18.78-2.52,1.34-3.93.3-.7.57-1.43.92-2.15.32-.73.7-1.45,1.06-2.17.39-.71.76-1.43,1.18-2.11.39-.69.84-1.34,1.25-1.98.84-1.26,1.68-2.4,2.47-3.33,1.54-1.88,2.8-2.95,2.8-2.95,0,0-.15.39-.43,1.04-.29.65-.7,1.57-1.22,2.65-.52,1.08-1.13,2.33-1.82,3.65-.67,1.33-1.39,2.73-2.13,4.13-.73,1.4-1.48,2.79-2.19,4.1-.7,1.31-1.38,2.53-1.97,3.57-.59,1.05-1.11,1.9-1.48,2.51-.38.61-.61.94-.61.94Z"/>
      <path class="cls-6" d="m113.47,52.3s.03-.33.12-.89c.09-.58.18-1.33.26-2.26.05-.46.06-.96.09-1.48.04-.52,0-1.07.03-1.63-.03-1.13-.12-2.31-.26-3.5-.1-.59-.17-1.18-.29-1.75-.11-.58-.23-1.14-.37-1.69-.17-.53-.28-1.07-.45-1.56-.17-.49-.31-.97-.48-1.4-.31-.87-.63-1.59-.86-2.1-.23-.51-.36-.82-.36-.82,0,0,.27.18.73.54.24.17.5.41.77.7.3.28.61.62.9,1.02.64.78,1.22,1.8,1.72,2.96.22.59.48,1.19.63,1.84.2.63.29,1.3.4,1.97.06.67.14,1.34.12,2,.03.66-.08,1.31-.13,1.93-.09.62-.2,1.22-.36,1.77-.14.56-.31,1.07-.52,1.53-.17.46-.39.88-.59,1.23-.19.36-.38.65-.55.88-.34.46-.55.71-.55.71Z"/>
      <path class="cls-6" d="m171.02,130.46s-.2-.43-.44-1.19c-.26-.76-.58-1.81-.87-3.09-.61-2.54-1.1-5.89-1.34-9.24-.24-3.35-.23-6.73.01-9.34.12-1.3.28-2.4.43-3.18.14-.78.27-1.24.27-1.24,0,0,1.08,1.55,2.01,4.04.48,1.24.92,2.72,1.27,4.32.17.8.33,1.63.44,2.48.13.85.2,1.72.28,2.58.04.87.1,1.74.08,2.6.01.86-.03,1.7-.09,2.52-.12,1.63-.35,3.16-.64,4.45-.57,2.6-1.41,4.28-1.41,4.28Z"/>
      <path class="cls-6" d="m210.12,156.55s.7-.59,1.96-1.54c1.27-.95,3.09-2.27,5.38-3.71,1.14-.72,2.39-1.49,3.76-2.24,1.36-.76,2.82-1.51,4.37-2.23,3.09-1.44,6.54-2.74,10.14-3.64.97-.22,1.72-.4,2.7-.57.93-.19,1.85-.3,2.76-.42,1.82-.21,3.63-.31,5.38-.27,1.75.04,3.44.18,5.02.45,1.59.24,3.05.64,4.39,1.05.66.23,1.29.43,1.88.66.58.26,1.13.5,1.64.73,1.02.49,1.86.97,2.54,1.41.69.4,1.17.82,1.52,1.06.34.26.52.4.52.4,0,0-.22-.05-.64-.16-.41-.1-1-.27-1.77-.44-.75-.19-1.68-.35-2.72-.55-1.05-.17-2.24-.31-3.52-.45-2.58-.19-5.56-.24-8.73.04-1.59.13-3.22.37-4.87.62-.82.15-1.66.3-2.46.47-.77.14-1.74.39-2.51.57-6.64,1.62-13.16,4.19-18.21,5.95-2.5.92-4.64,1.63-6.14,2.11-1.5.48-2.39.71-2.39.71Z"/>
      <path class="cls-6" d="m259.35,106.71s2.01-.8,5.15-1.56c1.56-.4,3.41-.76,5.4-1.07,1-.13,2.03-.31,3.08-.4,1.05-.09,2.12-.19,3.2-.29,1.07-.05,2.15-.1,3.21-.12,1.06-.05,2.1,0,3.11,0,2.01.05,3.89.18,5.5.38,3.21.35,5.31.9,5.31.9,0,0-.54.07-1.48.16-.94.08-2.27.2-3.86.3-3.17.2-7.4.47-11.63.74-4.23.27-8.46.54-11.63.74-1.6.1-2.93.15-3.87.19-.94.04-1.48.03-1.48.03Z"/>
      <path class="cls-6" d="m40.35,115.29s-1.22-.62-2.83-1.77c-.81-.57-1.73-1.27-2.67-2.05-.95-.78-1.93-1.65-2.87-2.55-.94-.9-1.85-1.84-2.67-2.76-.83-.91-1.57-1.79-2.17-2.58-1.22-1.56-1.89-2.75-1.89-2.75,0,0,1.22.62,2.83,1.77.81.57,1.73,1.27,2.67,2.05.95.78,1.93,1.65,2.87,2.55.94.9,1.85,1.85,2.67,2.76.83.91,1.56,1.79,2.17,2.58,1.22,1.56,1.89,2.75,1.89,2.75Z"/>
      <path class="cls-6" d="m137.88,31.21s-.47-1.23-.88-3.09c-.21-.93-.41-2.02-.57-3.19-.16-1.17-.3-2.42-.38-3.68-.08-1.25-.11-2.51-.1-3.69,0-1.18.06-2.29.16-3.24.16-1.9.48-3.18.48-3.18,0,0,.48,1.23.88,3.09.21.93.41,2.02.57,3.19.17,1.17.3,2.42.38,3.68.08,1.25.11,2.51.09,3.7,0,1.18-.06,2.29-.16,3.24-.16,1.9-.47,3.18-.47,3.18Z"/>
      <path class="cls-6" d="m239.98,46.82s.25.34.36.68c.14.36.13.71-.03.96-.16.25-.48.4-.87.41-.36.03-.77-.06-.77-.06,0,0-.25-.34-.36-.68-.14-.36-.13-.71.03-.96.17-.25.49-.39.87-.41.36-.03.77.06.77.06Z"/>
      <path class="cls-6" d="m238.43,49.19s-.35,1.26-1.11,2.99c-.37.87-.84,1.86-1.38,2.9-.53,1.04-1.13,2.13-1.76,3.2-.63,1.07-1.3,2.12-1.96,3.08-.65.97-1.3,1.85-1.89,2.59-1.15,1.49-2.1,2.4-2.1,2.4,0,0,.24-1.29.91-3.06.32-.89.75-1.91,1.27-2.97.51-1.06,1.1-2.17,1.74-3.25.64-1.08,1.34-2.12,2.03-3.08.69-.96,1.37-1.82,2-2.53,1.24-1.44,2.25-2.27,2.25-2.27Z"/>
      <path class="cls-6" d="m268.07,131.17s1.68-.25,4.15-.38c1.24-.07,2.67-.13,4.21-.15,1.54-.03,3.17-.04,4.81-.01,1.64.02,3.27.08,4.81.15,1.54.06,2.97.16,4.21.27,2.47.2,4.13.51,4.13.51,0,0-1.62.49-4.09.85-1.23.2-2.68.35-4.23.45-.78.04-1.58.11-2.39.11-.82.03-1.64.02-2.47.02-1.66-.03-3.31-.13-4.86-.28-1.55-.15-2.99-.35-4.21-.58-2.46-.43-4.06-.97-4.06-.97Z"/>
      <path class="cls-6" d="m227.68,186.84s.63-.11,1.72-.2c1.09-.1,2.64-.18,4.48-.19,3.68-.02,8.53.36,13.31,1.12,4.78.76,9.51,1.91,13,3.09,1.75.59,3.19,1.15,4.19,1.58,1,.43,1.57.73,1.57.73,0,0-.63.11-1.72.2-1.09.1-2.64.18-4.48.19-3.68.02-8.53-.36-13.31-1.13-4.78-.77-9.51-1.92-13-3.09-1.75-.59-3.19-1.15-4.19-1.58-1-.43-1.57-.73-1.57-.73Z"/>
      <path class="cls-6" d="m21.89,145.85s-.35.08-.96.17c-.61.09-1.47.22-2.49.33-1.03.11-2.22.23-3.49.32-1.27.1-2.62.2-3.98.27-1.35.08-2.71.13-3.98.17-1.27.05-2.47.06-3.5.06-1.03,0-1.9-.03-2.52-.06-.61-.03-.97-.07-.97-.07,0,0,1.28-.65,3.3-1.21,1.01-.3,2.2-.57,3.48-.79.65-.09,1.31-.22,1.99-.28.68-.08,1.38-.12,2.07-.17,1.39-.07,2.78-.06,4.09.02,1.3.08,2.52.22,3.55.41,2.07.35,3.41.85,3.41.85Z"/>
      <path class="cls-6" d="m48.86,89.64s-1.33-.62-3.09-1.91c-.89-.63-1.87-1.42-2.87-2.33-1-.91-2.02-1.93-2.97-3.01-.47-.55-.94-1.09-1.37-1.66-.45-.55-.83-1.13-1.23-1.68-.77-1.11-1.43-2.18-1.94-3.15-1.04-1.9-1.49-3.31-1.49-3.31,0,0,.28.24.74.67.46.44,1.11,1.06,1.84,1.84.74.77,1.59,1.67,2.47,2.65.89.97,1.83,2.02,2.75,3.07.93,1.05,1.84,2.12,2.69,3.13.86,1,1.64,1.96,2.31,2.8.67.83,1.2,1.55,1.58,2.06.38.51.58.82.58.82Z"/>
      <path class="cls-6" d="m86.58,70.16s-.27-.44-.69-1.24c-.42-.79-1.01-1.95-1.59-3.38-.61-1.42-1.21-3.12-1.76-4.97-.25-.93-.55-1.88-.76-2.88-.23-.99-.43-2-.63-3.01-.16-1.02-.32-2.03-.44-3.04-.15-1-.19-2-.28-2.96-.12-1.93-.15-3.73-.06-5.27.05-1.54.2-2.82.32-3.72.13-.89.22-1.4.22-1.4,0,0,.1.51.25,1.39.14.88.33,2.14.56,3.65.23,1.5.49,3.24.78,5.11.31,1.86.61,3.85.98,5.82.33,1.98.73,3.95,1.08,5.8.38,1.85.73,3.58,1.03,5.07.3,1.5.56,2.74.74,3.62.17.88.25,1.39.25,1.39Z"/>
      <path class="cls-6" d="m198.49,39.52s-.47-1.24-.75-3.16c-.16-.96-.26-2.08-.3-3.29,0-.6-.03-1.23,0-1.86.01-.63.07-1.27.12-1.92.08-.64.14-1.28.25-1.9.09-.63.24-1.23.36-1.83.27-1.18.59-2.26.93-3.17.65-1.83,1.36-2.95,1.36-2.95,0,0,.02.33.03.9,0,.57,0,1.37-.05,2.32-.04.95-.1,2.05-.2,3.21-.08,1.17-.19,2.41-.32,3.65-.12,1.24-.26,2.47-.4,3.64-.13,1.16-.28,2.25-.43,3.19-.14.94-.29,1.72-.4,2.28-.11.56-.2.88-.2.88Z"/>
      <path class="cls-6" d="m231.68,109.53s.5-.44,1.41-1.13c.91-.69,2.24-1.63,3.86-2.68,3.25-2.09,7.75-4.5,12.4-6.56,4.66-2.05,9.47-3.75,13.21-4.73,1.87-.49,3.46-.83,4.58-1.04,1.12-.21,1.79-.27,1.79-.27,0,0-.5.45-1.41,1.14-.91.7-2.23,1.64-3.86,2.68-3.25,2.09-7.75,4.5-12.41,6.55-4.66,2.05-9.47,3.74-13.21,4.73-1.87.49-3.45.84-4.58,1.04-1.12.21-1.79.28-1.79.28Z"/>
      <path class="cls-6" d="m199.32,137.28s0-.76.08-2.07c.04-.65.09-1.45.22-2.35.1-.91.23-1.93.42-3.03.36-2.2.93-4.74,1.67-7.42.39-1.33.79-2.71,1.28-4.09.46-1.39,1-2.77,1.53-4.15.58-1.37,1.14-2.74,1.77-4.06.6-1.33,1.27-2.61,1.91-3.84,1.32-2.45,2.67-4.67,3.94-6.51.62-.92,1.24-1.75,1.8-2.47.54-.73,1.05-1.34,1.48-1.84.85-1,1.38-1.54,1.38-1.54,0,0-.17.74-.55,1.99-.37,1.25-.95,3.01-1.66,5.1-1.45,4.16-3.52,9.57-5.69,14.93-.55,1.34-1.09,2.68-1.63,4-.55,1.32-1.08,2.62-1.62,3.86-1.05,2.51-2.1,4.84-3.01,6.84-.94,2-1.74,3.65-2.34,4.82-.59,1.17-.98,1.82-.98,1.82Z"/>
      <path class="cls-6" d="m275.82,170.88s2.42-.84,6.18-1.65c1.87-.42,4.07-.81,6.44-1.15,1.19-.15,2.41-.34,3.67-.44,1.25-.11,2.53-.22,3.8-.33,1.28-.05,2.55-.11,3.81-.16,1.26-.06,2.5-.02,3.69-.02,2.39.04,4.63.15,6.54.33,3.82.33,6.34.86,6.34.86,0,0-.64.07-1.75.16-1.11.08-2.7.19-4.6.33-3.78.23-8.83.54-13.87.85-5.04.33-10.09.66-13.87.91-1.91.11-3.49.19-4.6.26-1.12.05-1.76.06-1.76.06Z"/>
      <path class="cls-5" d="m293.28,153.31c3.71,2.21,7.41,4.43,11.12,6.65-4.54,2.47-9.06,4.93-13.59,7.39-.46.25-.92.51-1.36.83-2.02-.32-3.99-.99-5.9-2.08-7.62-4.35-12.53-14.7-21.3-14.31,3.19-.84,5.78-3.63,6.38-6.87-6.52-1.89-13.05-3.78-19.57-5.66,2.85-1.21,5.78-2.21,8.76-3,5.87-1.6,11.94-2.42,18.02-2.45-1.86-.83-3.7-1.65-5.55-2.48-2.09-.92-4.18-1.86-6.26-2.79,2.71-2.9,6.11-5.15,9.84-6.52-4.12-5.39-11.4-8.17-18.07-6.9.66-4.69,1.32-9.38,1.99-14.08-5.52,3.1-11.03,6.19-16.55,9.29.7-2.07,1.51-4.11,2.45-6.09,2.39-5.16,5.53-9.97,9.3-14.24-7.74,2.1-15.13,5.5-21.77,10.01,3.05-7.53,6.1-15.06,9.15-22.58-8.79,2.04-17.02,6.46-23.59,12.65.76-6.68,1.51-13.37,2.27-20.06-4.48,2.21-7.91,6.44-9.23,11.25-.02.07-.05.14-.06.21.05-.21.09-.41.14-.63.31-1.41.61-2.8.92-4.21,1.13-5.24,2.28-10.48,3.43-15.72-4.16,4.93-8.31,9.87-12.47,14.81-2.29,2.72-4.6,5.45-6.89,8.18.56-12.04-2.68-24.23-9.15-34.4-.19,1.63-.43,3.25-.71,4.87-1.08,6.5-2.78,12.89-5.07,19.09-2.12-5.51-4.24-11-6.36-16.51-2.78,6.78-5.54,13.57-8.31,20.35.37-9.29-.74-18.64-3.29-27.58-1.77,5.87-3.56,11.75-5.33,17.61-.64,2.13-1.29,4.25-1.93,6.38-1.61-4.57-3.21-9.15-4.82-13.72-1.88-5.35-3.76-10.7-5.64-16.05-.57,7.49-1.12,15-1.69,22.5-2.53-5.68-5.05-11.37-7.58-17.07.07,7.63.14,15.26.21,22.88-3.96-8.02-7.93-16.05-11.89-24.07-1.08,8.3-1.06,16.73.02,25.02-3.1-3.4-6.19-6.82-9.3-10.22.32,7.06.64,14.12.96,21.19-1.28-3.27-3.11-6.32-5.38-8.99-2.09-2.47-4.56-4.63-7.3-6.36,1.54,6.56,2.29,13.31,2.23,20.04-3.98-3.76-7.97-7.53-11.95-11.3,1.52,5.83,3.06,11.65,4.6,17.48-8.13-5.19-15.45-11.64-21.62-19.04-.63-.76-1.25-1.51-1.86-2.29,1.95,7.87,3.9,15.74,5.84,23.61-3.64-2.27-7.29-4.54-10.93-6.82.01,2.28.04,4.56.05,6.84-3.01-1.94-6.04-3.89-9.06-5.83,1.47,4.92,2.09,10.08,1.83,15.2-3.56-.32-7.13-.63-10.7-.95-.01.59-.02,1.17-.04,1.76-.07,4.47-.15,8.93-.22,13.4.02-1.55-14.67,1.39-15.3,1.62-.31,4.7.6,9.45.26,14.16-9.4.74-18.02.83-26.76,1.61-1.51-1.64-3.04-3.29-4.55-4.93,5.45-.73,10.59-4.72,13.67-10.6.01-.01.01-.04.02-.05-2.02-1.7-4.03-3.39-6.05-5.09,4.72-.34,9.42-.7,14.12-1.04-1.73-4.75-3.44-9.49-5.16-14.24,1.93-.09,3.86-.19,5.79-.28,2.32-.11,4.63-.22,6.95-.34-.21-6.31-2.07-12.52-5.18-17.36,4.15.3,8.3.6,12.44.9-.58-1.93-1.16-3.84-1.75-5.77-1.44-4.8-2.9-9.6-4.35-14.38,5.96,4.01,12.37,6.87,18.97,8.45-.52-2.09-1.05-4.18-1.57-6.28-1.21-4.82-2.41-9.66-3.63-14.48,6.11,2.49,12.23,4.98,18.34,7.47-.19-7.17-1.52-14.3-3.91-20.79,5.2,3.01,10.39,6.03,15.58,9.04-.77-5.96-1.54-11.92-2.3-17.88,5.53,3.06,11.05,6.13,16.58,9.21-.56-10.84,3.24-21.89,9.81-28.59-.73,5.31.11,10.94,2.29,15.52.8-6.22,2.85-12.16,5.89-17.08.59,6,3.29,11.61,7.17,14.91.45-7.6,2.98-14.97,7.04-20.47-.24,3.72,1.25,7.54,3.71,9.47,1.15-4.55,2.28-9.1,3.42-13.65,2.33,7.03,6.37,13.07,11.39,17.05.48-5.4.98-10.8,1.48-16.2,5.37,4.31,10.36,9.42,14.86,15.19.05-5.26.09-10.52.13-15.78,4.56,6.33,9.12,12.66,13.69,18.99,1.51-5.05,3.01-10.1,4.51-15.15l5.03,20.85c3.25-5.41,5.73-11.62,7.27-18.19.73,5.05,1.47,10.09,2.21,15.14,1.29-2.91,2.58-5.83,3.86-8.73.64,2.99,1.89,5.73,3.57,7.94,1.62,2.15,3.64,3.81,5.85,4.7.18-6.87-.46-13.77-1.9-20.39,6.96,11.2,13.92,22.42,20.88,33.62-.19-6.15.99-12.35,3.36-17.68,3.38,9.28,6.78,18.54,10.16,27.82.07-.13.15-.25.24-.37.07-5.46,1.71-10.86,4.54-14.9,3.58,7.82,5.66,16.82,5.98,25.92,2.14-7.1,5.98-13.31,10.86-17.53.17,9.01.34,18.01.52,27,2.8-.22,5.51-2.12,7.19-5.05.02,4.87.04,9.73.06,14.6,3.06-.67,5.96-2.55,8.21-5.32-.77,6.11-1.54,12.23-2.3,18.34,2.81,1.04,5.87.95,8.64-.27.31,4.25.01,8.58-.87,12.7-.24,1.13-.52,2.25-.84,3.34,2.28-.34,4.56-.69,6.84-1.03-2.35,7.08-3.75,14.69-4.11,22.37,3.07-.35,6.13-.72,9.21-1.09-.85,1.19-1.62,2.47-2.32,3.82-1.09,2.09-2,4.35-2.68,6.71,5.72-.56,11.52.28,16.99,2.48-3.86,4.7-8.36,8.52-13.22,11.23.64.38,1.29.77,1.93,1.16Z"/>
      <path class="cls-7" d="m201.14,194.78c2.2.63,4.33,1.45,6.4,2.47-7.52,8.2-23.52,16.78-29.78,27.48-2.97,4.75-7.72,12.61-9.54,14.81-3.49-4.8-8.22-8.95-14.19-9.19-8.66-.35-13.18,4.34-15.43,8.18-3.14-4.88-10.66-11.43-10.66-11.43-12.62-6.65-20.09-19.67-32.19-31.25,3.47-1.68,6.94-3.36,10.4-5.02-5.83-3.13-10.13-9.42-11.18-16.36,1.59-.56,3.18-1.11,4.78-1.65-.72-4.15-1.43-8.3-2.15-12.44,3.18-.46,6.36-.92,9.54-1.38-.93-3.08-1.86-6.16-2.79-9.24,4.21.61,8.43,1.23,12.64,1.84.04-3.08.1-6.18.15-9.27,5.1,3.21,10.21,6.43,15.31,9.66,1.65-1.6,2.86-3.71,3.44-6.02,4.38,1.17,8.76,2.34,13.14,3.51-.91-2.93.79-6.49,3.54-7.39,2.74-.9,5.99,1.05,6.73,4.04,2.17-.95,3.74-3.33,3.85-5.85,2.07,3.25,4.13,6.5,6.19,9.75,1.85-4.14,5.72-7.14,9.96-7.69.13,3.14.26,6.29.39,9.43,6.18-1.65,12.37-3.32,18.55-4.98-.69,4.2-1.38,8.39-2.07,12.59,4.32.35,8.65.7,12.97,1.05-3.13,2.33-5.24,6.19-5.6,10.28,2.98,1.19,5.67,3.19,7.78,5.74-2.44,2.87-4.88,5.73-7.32,8.59,3.03.46,6.05.91,9.08,1.37-4.95.34-9.64,3.63-11.95,8.37Z"/>
      <path class="cls-10" d="m136.8,207.89s-.27-13.3-11.76-12.7c-11.49.59-10.4,7.98-6.02,14.48,4.38,6.5,17.78,6.2,17.78-1.77Z"/>
      <path class="cls-8" d="m132.55,208.19s-1.76-11.82-12.57-8.57c0,0,.66,15.07,12.57,8.57Z"/>
      <path class="cls-10" d="m164.84,207.89s.27-13.3,11.76-12.7c11.49.59,10.4,7.98,6.02,14.48-4.38,6.5-17.78,6.2-17.78-1.77Z"/>
      <path class="cls-8" d="m169.7,208.19s1.59-11.82,11.36-8.57c0,0-.6,15.07-11.36,8.57Z"/>
      <ellipse class="cls-4" cx="127.94" cy="203.38" rx="1.58" ry="1.7"/>
      <path class="cls-4" d="m175.34,203.38c0-.94-.71-1.7-1.58-1.7s-1.58.76-1.58,1.7.71,1.7,1.58,1.7,1.58-.76,1.58-1.7Z"/>
      <path class="cls-3" d="m168.22,239.54c-.09.11-.16.19-.23.26-1.64,1.77-3.01,28.36-3.28,36.34s-1.64,8.86-7.11,9.16c-5.47.3-10.94-2.66-10.4-5.32.55-2.66-6.02-34.27-7.39-39-.21-.73-.65-1.56-1.21-2.46,1.39-2.36,3.64-5.06,7.2-6.7,1.97,15.09,4.72,31.15,7.6,34.57,2.69,3.2,4.96-16.75,6.57-34.41,3.26,1.67,6.02,4.48,8.26,7.56Z"/>
      <path class="cls-9" d="m159.96,231.97c-1.61,17.67-3.87,37.62-6.57,34.41-2.88-3.42-5.63-19.48-7.6-34.57,2.21-1,4.91-1.61,8.23-1.48,2.13.08,4.11.67,5.93,1.63Z"/>
      <path class="cls-1" d="m175.38,172.48c-3.01,9.21-12.04,28.91-13.13,34.82-.44,2.35-1.21,13.01-2.29,24.68-1.82-.96-3.8-1.55-5.93-1.63-3.32-.13-6.02.47-8.23,1.48-1.09-8.43-1.95-16.56-2.43-22.01-1.37-15.22-16.42-30.29-12.31-40.35,4.1-10.06,22.36-12.92,22.36-12.92,4.01-.87,24.97,6.72,21.96,15.93Z"/>
    </g>
  </g>
</svg>