<?xml version="1.0" encoding="UTF-8"?>
<svg id="Layer_2" data-name="Layer 2" xmlns="http://www.w3.org/2000/svg" viewBox="0 0 725.6 507.99">
  <defs>
    <style>
      .cls-1 {
        fill: #09a0a0;
      }

      .cls-1, .cls-2, .cls-3, .cls-4, .cls-5, .cls-6, .cls-7, .cls-8 {
        stroke-width: 0px;
      }

      .cls-2 {
        fill: #f6e606;
      }

      .cls-3 {
        fill: #00b6be;
      }

      .cls-4 {
        fill: #231f20;
      }

      .cls-5 {
        fill: #f1f2f2;
      }

      .cls-6 {
        fill: #414042;
      }

      .cls-7 {
        fill: #7fbb46;
      }

      .cls-8 {
        fill: #ead519;
      }
    </style>
  </defs>
  <g id="_1" data-name="1">
    <g>
      <path class="cls-4" d="m160.65,234.68c-.22.19-.46.38-.74.6-.25.19-.55.41-.87.6-2.78,1.85-7.34,4.06-11.7,5.97-.71.33-1.42.63-2.1.93-5.18,2.24-9.57,3.9-9.57,3.9,0,0-3.03,2.29-7.09,6.19-.27-.16-.57-.35-.85-.57,3.05-15.84,13.91-29.73,13.91-29.73l19.01,12.11Z"/>
      <path class="cls-4" d="m194.42,262.47c-14.21-4.55-23.43-9.79-34.61-9.79-1.15,0-2.29.05-3.44.14-3.3,2.02-6.74,3.65-10.25,5.21-4.42,1.91-11.26-1.12-17.54-5.15,4.06-3.9,7.09-6.19,7.09-6.19,0,0,4.39-1.66,9.57-3.9.68-.3,1.39-.6,2.1-.93,4.36-1.91,8.92-4.12,11.7-5.97.33-.19.63-.41.87-.6.27-.22.52-.41.74-.6,0,0,27.9,18.68,32.04,22.74.68.65,1.34,2.51,1.72,5.05Z"/>
      <path class="cls-7" d="m127.11,251.89c-7.34-4.91-13.5-10.74-13.5-10.74,0,0-19.85-4.2-24.68-17.45,0,0-5.56-6.35,11.59-18.46,3.63,1.12,8.7,2.54,14.26,3.6-10.28,1.39-20.43,6.76-24.05,13.74-3.55,6.79,16.64,10.04,16.64,10.04,0,0,10.53,11.97,19.74,19.28Z"/>
      <path class="cls-2" d="m212.25,221.07c-.85.03-1.69.11-2.51.22-.82.08-1.64.19-2.4.3-.76.11-1.47.25-2.18.35-.03.03-.08.03-.11.03-.74.16-1.45.33-2.13.49-.16.03-.3.08-.44.11-.55.16-1.06.3-1.58.46-.6.22-1.2.41-1.77.65-.08.03-.16.05-.25.11-.49.19-.98.41-1.45.65-.08.03-.14.05-.19.08-.49.27-.98.55-1.42.82-26.97,17.13-30.19,4.94-35.18,9.33l-19.01-12.11s-10.85,13.88-13.91,29.73c-.16-.08-.3-.19-.46-.3-.05-.05-.11-.08-.16-.11-9.22-7.31-19.74-19.28-19.74-19.28,0,0-20.18-3.25-16.64-10.04,3.63-6.98,13.77-12.35,24.05-13.74,1.61.3,3.25.57,4.91.79,4.58.63,10.09,2.15,16.09,3.85,10.94,3.11,23.56,6.85,35.34,6.95,18.24.16,40.74,0,40.74,0,0,0,.14.22.38.65Z"/>
      <path class="cls-3" d="m334.81,108.31c4.75.17,9.62-.2,13.91,1.32-1.2.77-2.97,3.6-4.77,4.77,10.49,6.24,8.29,17.76,0,24.13,8.24,4.82,8.84,12.61-1.4,15.21,9.89,2.8,5.02,9.49-1.45,11.94,18.29.05.95,10.89-5.9,12.49,15.71-1.87,10.42,17.24-5.32,15.26-5.57,3.67-10.29,8.89-12.84,14.39-1.6-.05-3.25-.1-4.95-.15.25-3.47.35-6.99.35-10.54-5.15-15.06-.67-23.51-17.71-31.95,5.72-8.07,3.35-17.81-7.12-19.98,2.82-5.72,2.1-11.69-1.7-15.84,22.48-18.21-18.33-26.7-31.47-19.41-.03-1.8-.47-4.07-.4-6-6.15,1.92-11.09,7.14-15.11,12.49-6.07-8.69-14.59-1.45-16.84,7.29-.9.17-1.97-.52-2.72-.77-.13-4.17-.47-8.17-1.07-11.87-5.3-32.37-20.13-91.93-9.54-76.84,10.59,15.09,16.94,28.1,16.94,28.1,0,0-5.3-55.9,6.37-43.19,11.64,12.69,11.64,38.67,11.64,38.67,0,0,10.59-29.95,13.79-47.41,3.17-17.46,18.88,13.61,10.49,34.2,0,0,14.91-27.78,18.09-39.32,3.2-11.57,9.54-2.82,9.54,12.26,0,14.16-4.67,25.58-5.22,26.93,1.3-1.72,14.11-19.03,22.16-34.87,8.49-16.66,8.49.8,8.49,10.32s-10.59,30.38-10.59,30.38c0,0,26.48-15.29,37.07-28.78,1.82-2.32,3.22-3.72,4.27-4.42-1.97,5.55-4.75,10.84-8.07,15.76-4.15,6.15-8.49,6.4-8.87,15.64,4.5-1.02,9.09-1.52,13.66-1.1-1.27,2.07-1.25,6.49-2.3,8.44,10.14-1.02,6.47,11.64,2.1,16.54,11.37,3.65,4.25,11.14-2.1,15.86,16.31,2.2-9.74,16.91-11.42,20.03Z"/>
      <path class="cls-3" d="m312.45,197.14c0,3.55-.1,7.07-.35,10.54-18.01-.6-40.74-2.45-60.3-4.32,3.12-1.37,6.07-2.92,8.84-4.57,17.81-10.62,21.26-22.03,3.97-35.77,1.15-1.2,2.5-3.32,3.65-4.5-4.62-.82-8.07-3.8-12.91-4,12.94-7.64,17.19-27.2-3.27-23.01,3.87-4.4,1.12-4.65,2.62-9.84-1.02-.95-3.25.1-4.5-.5.9-5.72-1.45-9.69-5.77-11.04,2.82-2.77,6.02-5.05,9.62-6.17-.07,1.92.37,4.2.4,6,13.14-7.29,53.96,1.2,31.47,19.41,3.8,4.15,4.52,10.12,1.7,15.84,10.47,2.17,12.84,11.92,7.12,19.98,17.04,8.44,12.56,16.89,17.71,31.95Z"/>
      <path class="cls-3" d="m260.64,198.79c-2.77,1.65-5.72,3.2-8.84,4.57-23.91-2.25-43.04-4.5-43.04-4.5,0,0,11.64-43.44,10.62-75.89.75.25,1.82.95,2.72.77,2.25-8.74,10.77-15.99,16.84-7.29,1.67-2.22,3.5-4.4,5.5-6.32,4.32,1.35,6.67,5.32,5.77,11.04,1.25.6,3.47-.45,4.5.5-1.5,5.2,1.25,5.45-2.62,9.84,20.46-4.2,16.21,15.36,3.27,23.01,4.85.2,8.29,3.17,12.91,4-1.15,1.17-2.5,3.3-3.65,4.5,17.29,13.74,13.84,25.15-3.97,35.77Z"/>
      <path class="cls-1" d="m344.77,201.38c.43-.52,1.19-1.35,1.64-1.91.27-.74.32-1.66.96-3.95,0-3.25,6.09-5.9,2.75-10.03,4.68.62,6.97-2.98,4-6.39,3.24-2.93,10.76-9.61,8.28-14.36,5.48-1.79,6.87-8.45,1.23-10.81,5.23-3.71,2.94-9.7-2.88-11.05,2.68-3.35,3.93-7.37-.81-9.16,3.77-2.84,2.5-6.8-1.87-8.95,4.16-4.01,4.76-9.34-1.46-11.91,2.73-3.22,1.61-2.16,1.03-5.89,2.89-1.38,5.12-2.35,7.47-2.67,11.8-9.62-2.76-14.65-2.76-14.65,25.43-16.09-.7-21.28-.7-21.28,18.36-19.08-2.47-19.88-2.47-19.88,9.54-26.3-11.64-10.47-11.64-10.47,6.14-10.69,9.37-24.23,4.27-20.88-1.97,5.55-4.75,10.84-8.07,15.76-4.15,6.15-8.49,6.4-8.87,15.64,4.5-1.02,9.09-1.52,13.66-1.1-1.27,2.07-1.25,6.49-2.3,8.44,10.14-1.02,6.47,11.64,2.1,16.54,11.37,3.65,4.25,11.14-2.1,15.86,16.31,2.2-9.74,16.91-11.42,20.03,4.75.17,9.62-.2,13.91,1.32-1.2.77-2.97,3.6-4.77,4.77,10.49,6.24,8.29,17.76,0,24.13,8.24,4.82,8.84,12.61-1.4,15.21,9.89,2.8,5.02,9.49-1.45,11.94,18.29.05.95,10.89-5.9,12.49,15.71-1.87,10.42,17.24-5.32,15.26-5.57,3.67-10.29,8.89-12.84,14.39,13.34.3,23.33-.22,26.15-2.2,1.01-.7,2.09-1.54,3.19-2.45-.44-.63-.94-1.24-1.62-1.81Z"/>
      <path class="cls-8" d="m260.28,268.01c-.16.03-.33.03-.49.05-31.64,2.89-51.05-1.01-65.37-5.59-.38-2.54-1.04-4.39-1.72-5.05-4.15-4.06-32.04-22.74-32.04-22.74,4.99-4.39,8.21,7.8,35.18-9.33.44-.27.93-.55,1.42-.82.05-.03.11-.05.19-.08.46-.25.95-.46,1.45-.65.08-.05.16-.08.25-.11.57-.25,1.17-.44,1.77-.65.52-.16,1.04-.3,1.58-.46.14-.03.27-.08.44-.11.68-.16,1.39-.33,2.13-.49.03,0,.08,0,.11-.03.71-.11,1.42-.25,2.18-.35.76-.11,1.58-.22,2.4-.3.82-.11,1.66-.19,2.51-.22,15.44-1.06,36.76,2.48,56.53,8.43-4.66,7.45-8.37,14.34-8.84,25.01-.22,4.85-.11,9.35.33,13.5Z"/>
      <path class="cls-3" d="m281.6,206.37c-4.04,9.87-8.78,16.69-12.82,23.13-19.77-5.95-41.1-9.49-56.53-8.43-.25-.44-.38-.65-.38-.65,0,0-22.5.16-40.74,0-18.24-.16-38.54-9.05-51.43-10.8-7.42-1.01-14.51-2.95-19.17-4.39.38-.25.76-.52,1.15-.79,16.74-11.4,48.19-9.57,61.31-8.67.68-.03,21.87-.74,33.68-9.98,10.85-8.51,41.23-15.71,87.32-8.65,1.66,8.43,1.2,24.05-2.37,29.24Z"/>
      <path class="cls-5" d="m151.84,243.87c-.46,8.56-6.03,14.29-14.75,13.47-2.51-.25-6.05-2.4-9.82-5.35-.05-.05-.11-.08-.16-.11-9.22-7.31-19.74-19.28-19.74-19.28,0,0-20.18-3.25-16.64-10.04,3.63-6.98,13.77-12.35,24.05-13.74,6.41-.9,12.84-.25,17.81,2.54,1.12.63,2.18,1.31,3.19,2.1,9.22,6.74,14.67,18.33,15.82,26.45.22,1.45.3,2.78.25,3.95Z"/>
      <path class="cls-3" d="m697.99,264.49c-4.45.25-10.47.23-17.76.03-.07-.03-.17-.03-.25-.03h-.27c-113.68-5.17-286.07-35.22-286.07-35.22-2.72,2.72-6.69,5.15-11.77,6.87.92-.6,22.73-15.46-.03-31.45,0,0,225.94,45.06,283.45,51.58,57.5,6.49,84.56,5.45,32.7,8.22Z"/>
      <g>
        <circle class="cls-5" cx="118.77" cy="220.39" r="7.98" transform="translate(-121.05 148.53) rotate(-45)"/>
        <path class="cls-4" d="m118.77,229.04c-4.78,0-8.66-3.88-8.66-8.66s3.88-8.66,8.66-8.66,8.66,3.88,8.66,8.66-3.88,8.66-8.66,8.66Zm0-15.95c-4.02,0-7.3,3.27-7.3,7.3s3.27,7.29,7.3,7.29,7.29-3.27,7.29-7.29-3.27-7.3-7.29-7.3Z"/>
      </g>
      <path class="cls-4" d="m121.89,220.41c0,2.42-1.96,4.38-4.38,4.38s-4.38-1.96-4.38-4.38,1.96-4.38,4.38-4.38,4.38,1.96,4.38,4.38Z"/>
      <path class="cls-5" d="m121.89,217.14c0-1.21-.98-2.19-2.19-2.19s-2.19.98-2.19,2.19.98,2.19,2.19,2.19,2.19-.98,2.19-2.19Z"/>
      <path class="cls-3" d="m393.63,229.27l-55.43,3.5c-2.47,4.95-3.7,10.02-3.77,15.19-15.46,7.14-35.3,16.46-74.16,20.06-.42-4.15-.55-8.64-.32-13.51.87-19.81,12.96-26.78,21.66-48.14,3.57-5.17,4.05-20.78,2.37-29.23,5.05.75,10.27,1.7,15.66,2.82,54.86,11.44,84.18,23.46,94.7,32.47,5.4,4.62,4.87,11.34-.7,16.84Z"/>
      <path class="cls-4" d="m88.93,223.7s-13.84,38.52,27.69,56.58c0,0-18.66-11.44-3.01-39.13,0,0-1.81-10.84-24.68-17.46Z"/>
      <path class="cls-6" d="m88.93,228.01s-2.63,21.8,6.76,32.88c9.4,11.09,4.7,5.64,2.44-1.32-2.26-6.95-.38-21.05,1.32-25.18,1.69-4.13-1.66-5.26-4.5-6.39-2.83-1.13-5.76-3.58-6.03,0Z"/>
      <path class="cls-4" d="m113.61,241.16s3.41,14.74-6.24,20.47c0,0,17.68,8.42,38.74-3.62,0,0-12.04-10.23-32.51-16.85Z"/>
      <path class="cls-8" d="m393.63,229.27c-5.27,5.25-15.09,9.39-28.63,9.67-11.32.22-19.91,4.12-30.58,9.02.07-5.17,1.3-10.24,3.77-15.19l55.43-3.5Z"/>
      <path class="cls-2" d="m679.7,264.49c-77.99-2.42-297.86-28.33-297.86-28.33.03,0,.03-.02.03-.02,5.07-1.72,9.04-4.15,11.77-6.87,0,0,172.39,30.05,286.07,35.22Z"/>
      <path class="cls-3" d="m351.52,226.52c-7.59,1.3-15.81,1.15-23.01,4.15,4.97,11.39-3.9,16.86-13.84,16.76,7.32,3.55,11.49,9.32,10.84,16.49-4.17,2.05-8.57,2.87-13.19,2.45,4.22,9.52,7.04,21.36-7.47,20.63,5.95,3.62,9.04,9.17,8.49,15.79-4,1.67-8.07,1.67-12.22,0,.75,4.52,3,11.49,5.4,16.76-6.17,1.57-12.54,1.52-18.81-.1,6.62,7.94,3.82,18.11-7.07,17.09,4.5,5.87,1.85,8.07,2.17,13.49-2.37.27-4.7.77-6.97,1.47,2.7,10.84-4.55,19.46-15.69,19.86,4.52,11.44-6.47,19.53-14.11,15.46,2.7,12.04-13.79,21.13-15.99,11.12-1.05,17.64-18.16,25.98-13.34,6.94-8.54,24.21-27.85,46.14-26.65,5.22-2.32,3.32-38.59,70.99-42.14,36.07-10.32,11.57-20.11,22.43-34.12,10.24-10.09,11.64-33.5,40.12-50.23,37.89,1.3-11.47,7.39-19.81,11.47-29.8-15.84,5.45-31.9,17.04-48.29,23.66-5.07,2.05-16.56,6.05-23.78,9.29-7.09-2.72-2.62-10.17,25.63-23.08,53.91-24.68,70.04-101.14,89.35-139.46,11.57,5.2,35.5,8.37,43.76,10.07,9.24,1.92,19.48.92,27.28.08,7.09-.8,13.34-4.85,18.46-5.6,6.74-1.02,14.44,2.87,22.23,1.55-.1-1.9.6-4.27.55-6.17,8.49.92,17.91-.22,21.71-8.79-.1-.05-1.27-.87-2.07-1.4,11.32,1.8,30.45-5.94,16.91-17.96,2.3-1.27,3.77-3.87,5.3-4.82-3.97-5.22-9.69-8.32-15.19-12.02,6.05.42,12.36.25,17.94-2.15-2.27-2.52-5.12-8.89-8.39-11.22,17.46,3.92,14.84-11.07,3.97-18.71,8.49,1.57,28.2,4.57,16.69-10.37,10.82-1.75,14.16-10.82,4.45-17.49,5.45-.57,5.42-3.45,8.24-4.87-1.67-1.2-2.82-1.92-4.3-3.32,8.12-3.9,12.74-7.97,14.64-12.12,18.16,3,36.15,6.79,39.79,9.77,2.5,2.02,2.55,4.65,1.6,7.14Z"/>
      <path class="cls-3" d="m310.13,209.61c-15.36-2.52-30.88-4.52-38.07-4.92-3.92-.23-9.62-.35-16.16-.2,3.7,15.84-3.35,37.24-17.19,42.04,7.32,5.87,9.89,18.24,1.4,23.48,2.7,7.64-1.85,14.46-9.27,17.84,21.33,14.51-13.61,17.46-22.36,17.01.67,9.29-8.44,12.07-16.74,11.74,2.87,8.37-22.66,10.69-30.05,13.84-5.1,2.15-11.47,7.92-17.46,11.42,7.24,1.35,13.86,2.37,17.49,3.12,9.24,1.92,19.48.92,27.28.08,7.09-.8,13.34-4.85,18.46-5.6,6.74-1.02,14.44,2.87,22.23,1.55-.1-1.9.6-4.27.55-6.17,8.49.92,17.91-.22,21.71-8.79-.1-.05-1.27-.87-2.07-1.4,11.32,1.8,30.45-5.94,16.91-17.96,2.3-1.27,3.77-3.87,5.3-4.82-3.97-5.22-9.69-8.32-15.19-12.02,6.05.42,12.36.25,17.94-2.15-2.27-2.52-5.12-8.89-8.39-11.22,17.46,3.92,14.84-11.07,3.97-18.71,8.49,1.57,28.2,4.57,16.69-10.37,10.82-1.75,14.16-10.82,4.45-17.49,5.45-.57,5.42-3.45,8.24-4.87-1.67-1.2-2.82-1.92-4.3-3.32,8.12-3.9,12.74-7.97,14.64-12.12Zm-60.7,114.98c-.62-.57-.22-.35.42.05-.15,0-.27-.02-.42-.05Z"/>
      <path class="cls-3" d="m238.71,246.53c7.32,5.87,9.89,18.24,1.4,23.48,2.7,7.64-1.85,14.46-9.27,17.84,21.33,14.51-13.61,17.46-22.36,17.01.67,9.29-8.44,12.07-16.74,11.74,2.87,8.37-22.66,10.69-30.05,13.84-5.1,2.15-11.47,7.92-17.46,11.42-9.37-1.75-19.78-4.02-26.28-6.94,4.55-8.99,9.24-15.86,14.64-19.51,28.43-19.18,66.25-96.02,66.25-96.02,10.17-11.14,37.42-14.36,57.05-14.89,3.7,15.84-3.35,37.24-17.19,42.04Z"/>
      <path class="cls-1" d="m280.76,377.05c1-1.21,4.85-4.94,4.24-8.99,4.39-.99,10.72-11.26,10.02-15.88,4.79.83,14.66-14.46,8.46-17.42,5.12.66,14.74-3.64,9.13-9.35,4.77-.04,7.05-3.59,3.35-6.45,4.01-.95,5-3.93,2.32-6.66,6.51-1.09,12.42-14.06,4.36-17.71,4.89.12,9.12-3.66,5.67-7.41,2.9-3,4.16-7.38.82-10.68,3.46-2.03,7.06-4.57,8.23-8.49-1.62-.8-3.09-3.04-4.78-3.64,6.8-1.9,9.86-7.32,2.19-10.53,2.4-1.95,3.18-4.58,1.91-7.29,2.71-2.38,3.2-4.63-.02-6.2,2.92-3.96.35-6.22-1.94-9.66-.4-.61-.93-1.09-1.47-1.51-1.61.4-3.19.87-4.72,1.51,4.97,11.39-3.9,16.86-13.84,16.76,7.32,3.55,11.49,9.32,10.84,16.49-4.17,2.05-8.57,2.87-13.19,2.45,4.22,9.52,7.04,21.36-7.47,20.63,5.95,3.62,9.04,9.17,8.49,15.79-4,1.67-8.07,1.67-12.22,0,.75,4.52,3,11.49,5.4,16.76-6.17,1.57-12.54,1.52-18.81-.1,6.62,7.94,3.82,18.11-7.07,17.09,4.5,5.87,1.85,8.07,2.17,13.49-2.37.27-4.7.77-6.97,1.47,2.7,10.84-4.55,19.46-15.69,19.86,4.52,11.44-6.47,19.53-14.11,15.46,2.7,12.04-13.79,21.13-15.99,11.12-1.05,17.64-18.16,25.98-13.34,6.94-8.54,24.21-27.85,46.14-26.65,5.22-2.32,3.32-38.59,70.99-42.14,36.07-10.32,11.57-20.11,22.43-34.12,10.24-10.09,11.64-33.5,40.12-50.23,37.89,1.3-11.47,7.39-19.81,11.47-29.8-15.84,5.45-31.9,17.04-48.29,23.66-5.07,2.05-16.56,6.05-23.78,9.29,9.59,3.67,40.32-1.27,61.7-12.94,0,0-38.32,33.82,2.27,20.28,40.59-13.51,49.66-32.7,49.66-32.7,0,0,4.02,24.8,35.25-5.62,0,0,32.35,10.14,35.72-20.31,0,0,19.16,18.04,28.18-7.89,0,0,23.68-1.12,20.31-18.04,0,0,27.05,6.77,23.68-20.28,0,0,18.04,0,20.28-20.31,0,0,.26-.21.73-.62v-1.98Z"/>
      <path class="cls-4" d="m113.01,234.68s2.45-.22,6.12-.38c1.82-.1,4.01-.09,6.23-.3,2.09-.35,4.43-1.2,6.71-2.01,2.31-.81,4.64-1.63,6.91-2.16,1.12-.3,2.25-.47,3.31-.6,1.07-.12,2.08-.18,3.02-.14,1.88.02,3.41.47,4.42.81.99.44,1.55.69,1.55.69,0,0-.59-.16-1.62-.43-.51-.13-1.16-.17-1.88-.29-.74-.01-1.56-.07-2.46,0-3.62.14-8.2,1.76-12.79,3.43-2.33.79-4.62,1.64-7.09,1.92-2.35.14-4.45-.11-6.3-.13-3.67-.16-6.12-.38-6.12-.38Z"/>
      <path class="cls-4" d="m94.95,220.88s.84.09,2.02.45c1.18.35,2.73.94,4.16,1.76.71.42,1.41.86,2.03,1.35.62.47,1.13,1.01,1.56,1.47.43.46.71.92.88,1.25.17.33.24.52.24.52,0,0-.18-.13-.45-.35-.25-.24-.71-.49-1.18-.84-.99-.66-2.38-1.42-3.76-2.21-1.39-.78-2.76-1.61-3.8-2.25-1.03-.65-1.71-1.15-1.71-1.15Z"/>
      <path class="cls-4" d="m116.62,230.56s1.88-.01,4.6-.43c1.35-.2,2.92-.6,4.35-1.34.71-.41,1.25-.9,1.7-1.6.47-.76,1.06-1.59,1.67-2.32,1.25-1.48,2.84-2.69,4.49-3.46,1.66-.77,3.34-1.08,4.74-1.23,1.42-.13,2.6-.03,3.41.04.81.11,1.28.17,1.28.17,0,0-.46.03-1.28.1-.81.04-1.96.22-3.3.46-1.34.26-2.85.77-4.32,1.55-1.45.81-2.86,1.9-4,3.28-.59.69-1.1,1.36-1.6,2.15-.55.85-1.42,1.53-2.25,1.94-1.72.79-3.41.94-4.82,1.04-2.84.1-4.68-.33-4.68-.33Z"/>
      <path class="cls-4" d="m117.51,232.93s1.94.03,4.77-.33c1.41-.16,3.04-.49,4.7-1.02.84-.25,1.65-.61,2.47-1,.77-.41,1.59-.92,2.35-1.47,1.55-1.05,3.07-2.27,4.68-3.19,1.61-.94,3.37-1.45,4.87-1.51.75-.02,1.43.04,2.02.16.59.1,1.09.26,1.5.37.79.3,1.24.48,1.24.48,0,0-.47-.08-1.3-.22-.42-.04-.92-.11-1.49-.12-.58-.02-1.21.03-1.9.1-.68.12-1.41.28-2.13.6-.73.28-1.44.73-2.18,1.17-1.46.96-2.93,2.17-4.54,3.29-.8.56-1.62,1.05-2.53,1.52-.9.42-1.82.74-2.72.97-1.8.47-3.52.58-4.98.63-2.93.03-4.82-.43-4.82-.43Z"/>
      <path class="cls-4" d="m108.41,213.09s.03,1.13.05,2.78c.03,1.64.06,3.86.45,5.9.22.98.57,2.14.73,3.15.2,1.03.28,2.01.38,2.84.15,1.67.1,2.8.1,2.8,0,0-.38-1.06-.85-2.66-.23-.79-.5-1.72-.79-2.71-.28-1-.59-2.07-.89-3.15-.46-2.32-.16-4.59.12-6.24.31-1.66.71-2.72.71-2.72Z"/>
      <path class="cls-4" d="m102.95,217.14s-.1.9.26,2.03c.16.57.5,1.18.92,1.76.2.3.46.58.72.86l.86.94c1.21,1.48,1.66,3.26,1.77,4.58.12,1.32-.11,2.18-.11,2.18,0,0-.22-.85-.64-2.02-.41-1.16-1.11-2.68-2.06-3.85l-.82-.96c-.3-.34-.54-.72-.75-1.1-.42-.76-.6-1.58-.65-2.26-.06-1.4.49-2.16.49-2.16Z"/>
    </g>
  </g>
</svg>