<?xml version="1.0" encoding="UTF-8"?><svg data-name="Layer 2" xmlns="http://www.w3.org/2000/svg" viewBox="0 0 116.82 59"><defs/><g data-name="100"><g><path d="m57.34,39.65s0-.06,0-.16c0-.11.01-.26.02-.46.03-.39.08-.96.18-1.67.2-1.42.6-3.44,1.42-5.74.82-2.3,2.1-4.89,3.97-7.31.93-1.21,2.01-2.37,3.2-3.43,1.19-1.06,2.51-2.01,3.89-2.85l1.05-.59c.17-.1.35-.19.53-.28l.54-.26.53-.26.53-.25c.35-.17.68-.34,1.01-.52.66-.37,1.3-.77,1.87-1.23.29-.23.55-.48.79-.73.23-.26.45-.54.61-.84.33-.59.46-1.25.33-1.89-.13-.64-.47-1.22-.88-1.73-.83-1.02-1.87-1.78-2.86-2.41-.99-.63-1.95-1.13-2.82-1.55-.87-.42-1.64-.75-2.28-1.01-1.28-.52-2.03-.76-2.03-.76,0,0,.76.21,2.07.67.65.23,1.44.53,2.32.91.89.38,1.87.85,2.91,1.45,1.03.61,2.13,1.33,3.06,2.38.46.53.88,1.16,1.07,1.92.09.38.12.78.06,1.18-.05.4-.18.79-.36,1.15-.18.36-.41.69-.66,1-.26.3-.54.59-.84.85-.6.53-1.25.98-1.93,1.4-.33.21-.7.41-1.04.6l-.52.27-.52.28-.51.28c-.17.09-.34.18-.5.29l-.99.61c-1.29.85-2.5,1.82-3.59,2.87-1.09,1.05-2.06,2.19-2.88,3.36-1.66,2.35-2.75,4.83-3.43,7.01-.68,2.19-.97,4.09-1.1,5.41-.06.66-.09,1.18-.1,1.52,0,.17,0,.31,0,.39,0,.08,0,.13,0,.13h-2.15Z" style="fill:#151b2c;stroke-width:0px"/><path d="m115.03,17.07c-1.8,8.8-3.22,16.25-6.35,21.01-8.44,12.84-27.33,17.24-29.72,17.24s-8.07,3.67-11.56,3.67h-17.98c-3.49,0-9.17-3.67-11.56-3.67s-21.28-4.4-29.72-17.24c-3.13-4.76-4.55-12.22-6.35-21.01,2.09,9.04,4.35,17.25,9.71,22.12,12.06,10.94,24.58,12.11,27.52,11.01,2.94-1.1,1.47,1.1,4.95,4.4,3.49,3.3,5.14,2.2,4.77,0-.37-2.2-3.3-1.83-1.28-3.67s8.5-1.83,10.95-1.83,8.93,0,10.95,1.83-.92,1.47-1.28,3.67c-.37,2.2,1.28,3.3,4.77,0,3.49-3.3,2.02-5.5,4.95-4.4,2.93,1.1,15.45-.06,27.52-11.01,5.36-4.86,7.63-13.07,9.71-22.12Z" style="stroke-width:0px;fill:#b3b7bc"/><path d="m58.41,52.16c-9.23,0-12.6,2.16-11.5.87,1.1-1.28,11.5-1.74,11.5-1.74,0,0,10.4.46,11.5,1.74,1.1,1.28-2.27-.87-11.5-.87Z" style="stroke-width:0px;fill:#231f20"/><path d="m115.03,17.07c-2.09,9.04-4.35,17.25-9.71,22.12-12.06,10.94-24.58,12.11-27.52,11.01-2.94-1.1-1.47,1.1-4.95,4.4-3.49,3.3-5.14,2.2-4.77,0,.37-2.2,3.3-1.83,1.28-3.67s-8.5-1.83-10.95-1.83-8.93,0-10.95,1.83.92,1.47,1.28,3.67c.37,2.2-1.28,3.3-4.77,0-3.49-3.3-2.02-5.5-4.95-4.4-2.93,1.1-15.45-.06-27.52-11.01-5.36-4.86-7.63-13.07-9.71-22.12C-1.27,2.13.18-2.61,1.8,1.32c2.57,6.24,18.83,19.89,25.25,22.09,6.42,2.2,12.35,8.62,12.35,8.62l-1.83,1.47s-3.31-4.77-8.35-7.52c-5.04-2.75-15.49-8.99-20.08-13.94C4.54,7.08,1.59,1.38,1.8,4.7c0,0,.54,25.13,13.2,34.12,12.66,8.99,22.93,8.99,24.95,8.99s3.67-.18,3.85,3.3c.18,3.49,4.95,4.77,3.12,2.66-1.83-2.11-1.83-3.76,1.28-5.23s6.3-1.65,10.21-1.65,7.1.18,10.21,1.65,3.12,3.12,1.28,5.23c-1.83,2.11,2.94.83,3.12-2.66s1.83-3.3,3.85-3.3,12.29,0,24.95-8.99,13.2-34.12,13.2-34.12c.21-3.31-2.74,2.38-7.33,7.34s-15.04,11.19-20.08,13.94c-5.04,2.75-8.35,7.52-8.35,7.52l-1.83-1.47s5.93-6.42,12.35-8.62c6.42-2.2,22.68-15.86,25.25-22.09,1.62-3.93,3.07.81,0,15.75Z" style="fill:#151b2c;stroke-width:0px"/><circle cx="41.43" cy="50.6" r="2.5" style="stroke-width:0px;fill:#f1f2f2"/><path d="m43,50.51c0-.83-.68-1.51-1.51-1.51s-1.51.68-1.51,1.51.68,1.51,1.51,1.51,1.51-.68,1.51-1.51Z" style="stroke-width:0px;fill:#231f20"/><circle cx="42.65" cy="49.79" r=".72" style="stroke-width:0px;fill:#fff"/><path d="m115.03,4.7s-.54,25.13-13.2,34.12-22.93,8.99-24.95,8.99-3.67-.18-3.85,3.3-4.95,4.77-3.12,2.66c1.83-2.11,1.83-3.76-1.28-5.23s-6.3-1.65-10.21-1.65-7.1.18-10.21,1.65-3.12,3.12-1.28,5.23c1.83,2.11-2.94.83-3.12-2.66-.18-3.49-1.83-3.3-3.85-3.3s-12.29,0-24.95-8.99C2.34,29.83,1.8,4.7,1.8,4.7c-.21-3.31,2.74,2.38,7.33,7.34,4.59,4.95,15.04,11.19,20.08,13.94,5.04,2.75,8.35,7.52,8.35,7.52l1.83-1.47h0c.17-.15,5.65-4.77,19.01-4.77s18.85,4.62,19.02,4.77c0,0,0,0,0,0l1.83,1.47s3.31-4.77,8.35-7.52c5.04-2.75,15.49-8.99,20.08-13.94s7.54-10.65,7.33-7.34Z" style="stroke-width:0px;fill:#263049"/><circle cx="75.39" cy="50.6" r="2.5" style="stroke-width:0px;fill:#f1f2f2"/><path d="m73.83,50.51c0-.83.68-1.51,1.51-1.51s1.51.68,1.51,1.51-.68,1.51-1.51,1.51-1.51-.68-1.51-1.51Z" style="stroke-width:0px;fill:#231f20"/><circle cx="74.17" cy="49.79" r=".72" style="stroke-width:0px;fill:#fff"/></g></g></svg>