<?xml version="1.0" encoding="UTF-8"?><svg data-name="Layer 2" xmlns="http://www.w3.org/2000/svg" viewBox="0 0 100.55 64.79"><defs/><g data-name="100"><g><path d="m59.7,50.12s1.84,1.62,1.04,3.04c-.8,1.42-3.01,1.55-5.32,1.55s-4.34-.75-5.4-.49-3.19.89-2.39-.89,2.57-2.92,3.99-2.57c1.42.35,4.34.35,4.61-1.15.27-1.51,3.47.5,3.47.5Z" style="stroke-width:0px;fill:#5d6462"/><path d="m65.83,34.05c-.04.13-.16.12-.19.18-.17.4-.19,1.38-.53,1.6-.24.15-.23-.2-.35.29-.1.38,0,.87-.04,1.26-.22.03-.27-.18-.49-.11-.03.28.22.57.11.83-.16.03-.33.03-.49,0-.1,0-.15.05-.18.14-.4.07-.82-.03-1.22.06.05.32.22.55-.08.78-.27.2-.66.04-.97.1-.18.45.32.82.37,1.24.05.4-.15.81-.19,1.21-.03.24-.04.5-.03.75.02.46.48,1.06.31,1.48-.15-.04-.31-.05-.47-.03-.09.58.56,1.13.32,1.72-.19-.02-.3-.15-.49-.2,0,.61.29,1.21.13,1.81-.11-.03-.21-.07-.3-.14-.15.32-.02.85-.02,1.19-.02.62.05,1.74-.37,2.24-.19-.09-.19-.28-.32-.43-.11.34.14.63-.32.7-.19.03-.36-.16-.53-.3-.13.2-.29.37-.46.5.05.32.13.68-.05.82-.26.2-.56-.2-.75-.27-.35-.12-.49-.07-.82-.28-.04-.03-.1-.07-.15-.11-.26-.12-.52-.31-.77-.56-.08-.03-.17-.05-.26-.03-.29.05-.29.31-.52.41-.37-.6-.18-1.38-.54-2.02-.25-.01-.3.54-.49.71-.07-.34-.17-.68-.25-1.01-.06-.25-.23-.48-.28-.73-.04-.18,0-.34-.03-.52-.18-1.09-.55-2.13-.85-3.18,0-.02-.01-.03-.01-.05-.42-1.36-.75-2.77-.96-4.1-.07-.21-.14-.42-.14-.65,0-.04,0-.08,0-.12.06.04.13.07.2.1.27.08.44.03.68-.02.35-.07.62-.15,1-.14.25,0,.53.06.77-.02.02-.1.03-.2.04-.3.82-.25,1.8.18,2.62-.05.05-.23,0-.44.04-.67.38-.13.82.08,1.2-.05.1-.5-.11-.61.46-.86.75-.33.13-.52.46-1.04.27-.41,1.21-.18,1.48-.5.29-.34-.04-.89.12-1.28.35-.05.41.06.52-.28.12-.4-.11-.9.01-1.31.24-.04.67-.02.84-.22.22-.27-.05-.68.36-.93.26-.16.73-.1,1.03-.15.06-.07.14-.12.23-.14.12,0,.24.01.37.02.51-.16.49-1.33.57-1.76.04-.22.07-.44.09-.65.02.03.03.05.05.08.26.48.52,1.07.54,1.61.02.63-.01,1.26-.01,1.89,0,.41.13,1.11.01,1.49Z" style="fill:#383a39;stroke-width:0px"/><path d="m8.51,51.32s-.37,1.66-1.48,2.24c-1.11.58-3.66.13-4.07-.67,0,0-.37.93-1.11.94l-.37-.22s-.29.08-.66.22c-.37.14-1.27.18-.53-1.25.74-1.43,1.15-2.41,2.55-2.91,1.4-.49,3.17.49,4.19.36,1.03-.13,1.63.82,1.48,1.3Z" style="stroke-width:0px;fill:#5d6462"/><path d="m99.99,31.93c-.06.46-.13.91-.21,1.36-.18,1.11-.38,2.19-.62,3.24-.19.86-.39,1.69-.62,2.5-.19.69-.39,1.36-.6,2.01-.06.2-.13.4-.19.6-.02,0-.04,0-.05,0-.19.04-.34.19-.53.2-.06,0-.11,0-.16-.02-.07-.02-.13-.05-.19-.1-.03-.02-.06-.04-.08-.07-.03-.03-.05-.05-.07-.09s-.04-.06-.06-.09c-.04-.06-.08-.13-.12-.19h0s-.01-.02-.02-.03c-.09-.15.02-.23-.16-.33-.06-.03-.2.04-.28.01-.47-.16-.38-.48-.28-.92.03-.13.06-.26.08-.38.08-.45.12-.9.19-1.36.03-.19.06-.38.1-.57.12-.55.25-1.07.16-1.63-.05-.31-.15-.56-.18-.87-.01-.11-.01-.22-.01-.32,0-.13,0-.26,0-.39,0-.1.01-.19.03-.28.03-.3.09-.61.18-.9.02-.09.05-.18.09-.27.03-.09.05-.16.09-.24.06-.15.13-.3.2-.46.04-.09.07-.18.1-.26.02-.04.03-.08.04-.12v-.02s.02-.09.03-.13c.01-.07.02-.13.01-.2-.03.08-.08.12-.17.13-.05-.38.24-.88.3-1.27.04-.27.05-.55.05-.82,0-.22-.01-.44-.02-.65,0-.57,0-1.14.04-1.72.02-.26.11-.64.15-.99.03-.23.04-.46,0-.65-.02-.12-.14-.22-.15-.27-.07-.38-.03-.79,0-1.19,0-.05,0-.11.01-.16,0-.1.01-.2.01-.29,0-.23-.02-.45-.09-.66-.1,0-.2.02-.3.03,0-.2,0-.39.02-.6h0c.01-.15.03-.3.05-.45.07-.52.18-1.05.24-1.57.01-.07.02-.14.03-.21.01-.11.02-.21.02-.31-.02.04-.03.04-.05.02,0,0-.02-.02-.02-.03,0-.01-.02-.03-.02-.05-.01-.02-.02-.04-.03-.06,0-.02-.02-.04-.02-.07-.05-.18-.11-.43-.14-.62,0-.02,0-.03-.01-.05,0-.02,0-.04-.01-.06h0s-.02-.08-.02-.11c0-.02,0-.03,0-.03-.06-.49.07-1.3-.16-1.79-.12.19-.14.45-.37.46-.02-.1-.03-.33-.04-.61-.02-.43-.06-.97-.18-1.33,0-.03-.02-.05-.03-.07-.03-.09-.07-.16-.11-.21-.02-.02-.03-.04-.05-.05-.05-.04-.11-.05-.18-.04-.55-.9-.11-2.29-.7-3.21-.1-.15-.31-.27-.44-.46-.1-.14-.48-1.34-.79-1.44-.01.12-.02.23-.03.36-.79-.46-.92-1.68-1.68-2.12-.17-.1-.3-.08-.48-.21-.18-.13-.27-.3-.51-.31-.12.13-.16.26-.28.36-.2-.37-.36-.79-.67-1.05-.1-.04-.2-.07-.3-.08-.17-.1-.31-.23-.43-.39-.31-.35-1.09-1.9-1.64-1.09-.58-.21-.74-.89-1.27-1.14-.04.27.03.52-.02.79-.46-.08-.7-.64-1.22-.67-.44-.02-.36.16-.38.57-.36.3-1.47-1.14-1.88-1.2-.06.12-.13.24-.2.36-.56-.02-.89-.77-1.44-.66.03.15,0,.3-.08.43-.6-.16-1.18-.12-1.81-.12-.24,0-.48,0-.72-.01-.18-.02-.31.04-.4.2-.14.18-.32.22-.55.14-.36-.11-.73-.16-1.11-.15-.23.23.04.78.06,1.06-.21.26-.58.17-.88.21-.08.37.11.49-.2.76-.35.31-1.79.43-1.93.95.35.14,0,.3-.18.41-.46.3-1.04.49-1.45.87.03.47.46.36-.15.74-.28.17-1.46.45-1.41.86.1.07.2.14.31.19-.14.23-2.07,1.15-1.4,1.43-.11.34-.46.37-.53.76-.05.35,0,.41-.26.71-.22.27-1.02,1.62-.5,1.83-.48.14-.74,1.04-.63,1.49.04.15.19.35.24.49.09.25.13.39.06.7-.14.64-.67.77-1,1.24-.52.74.32,1.63-.39,2.32-.13.13-.35.13-.4.32-.1.36.74.72.94.91-.08.38-.65.49-.89.78-.24.3-.14.32-.05.68.19.72-.67,1.37-.11,1.96.31.32.58.27.49.74-.05.26-.22.43-.17.72.05.28.15.29.33.38-.26.11-.5.23-.73.38-.23.15-.37.37-.6.53.47.06.8.4.55.83-.19.31-.49.44.12.6.3.07.64-.04.94.03.03,0,.05.02.08.03-.03.03-.06.06-.1.08-.21.15-.53.15-.75.27.09.22.3.28.4.49-.12.36-.59.48-.91.53-1,.18-1.99.07-2.89.65-.56.37-1.02.78-1.46,1.28-.12.14-.2.29-.37.38-.37.06-1.05.31-1.48.47-.4.14-2.35.63-2.32,1.27.13.03.22.09.29.2-.13.34-.45.39-.66.63-.17.2-.19.43-.32.66-.51.88-1.22.22-1.98.47-.54.18-.16.65-.37.98-.19.28-.78,0-1.05-.06-.52-.14-1.4-.61-1.93-.35-.33.16-.34.54-.39.86-.27.14-.74-.11-1.04-.14-.31-.04-.75-.11-1.05,0-.04.23.01.46-.04.69-.51.02-.88-.61-1.41-.55-.46.05-.69.6-1.09.71-.38.11-.93-.12-1.32-.2-.49-.1-1.05-.25-1.56-.14-.41.09-.67.19-1.15.18-.47,0-.8.03-1.21.23-.18.09-.09.11-.3.13-.27.02-.57-.26-.81-.37-.3-.13-.7-.28-1.03-.32-.05.18,0,.29-.09.45-.45-.07-.79-.36-1.21-.46-.32-.08-.48.09-.77.15-.27.06-.64.03-.92.03-.52-.02-.92-.31-1.43-.36-.18.22.04.43-.2.66-.19.19-.59.21-.85.22-.55.03-1.17.07-1.67-.17-.11-.06-.21-.12-.32-.19-.14-.09-.2-.21-.18-.37-.38-.4-1.63-.26-1.81-.87-.17-.57.53-.71.9-.73-.04-.39-.71-1.03-.9-1.36-.21-.37-.43-.68-.33-1.1-.99.66-.89.23-.92-.22-.49,0-1.28-.06-1.72.06-.32.09-.75.35-.88.68-.08.22.02.47-.02.7-.56.13-1.13-.02-1.71.14-.95.27-1.96.53-2.86.92.11-3.73,2.7-7.63,5.69-8.8.03.04.06.07.09.1-.15.1-.32.16-.49.21l2.13.53v-.14c.75-.22,1.87-.07,2.63.05.86.13,1.62.27,2.49.3-.31-.16-.48-.56-.19-.74.12-.07.58,0,.71,0,.49.02.96.12,1.44.17.22.02.49.09.7-.02.07-.04.08-.25.18-.29.42-.19,1.3-.03,1.75-.03s.95.09,1.36-.02c.12-.03.13-.14.26-.17.15-.04.38.01.54.02.44,0,2.18-.03,1.47-.83.66.22,1.59.19,2.29.12.49-.05.7-.35,1.12-.53.6-.26,1.33-.2,1.96-.19.67.02,1.2-.23,1.83-.39.07-.37-.07-.57.37-.68.56-.13,1.24,0,1.82,0,.52,0,1.13.09,1.63-.02.45-.1.8-.16,1.3-.15.48,0,.98-.01,1.37-.29.1-.07.09-.19.19-.24.14-.07.45-.01.62,0,.41,0,.6-.08.97-.16.26-.06.53,0,.79-.05,1.38-.3,2.92-.14,4.35-.14.26,0,.54.03.8,0,.39-.05.35-.09.35-.46,0-.34.13-.49.19-.77.06-.28-.06-.58.02-.87.44.02.4-.6.5-.89.2-.63.41-1.24.5-1.91.17-1.29.67-2.55,1.1-3.8.2-.58.47-1.11.64-1.71.18-.61.31-1.25.6-1.82.34-.7.61-1.4.89-2.12.23-.58.44-.83.88-1.23.41-.37.77-1.02,1-1.5.18-.39.25-.45.49-.74.62-.74,1.1-1.94,1.96-2.45.28-.17.52-.02.8-.13.19-.07.3-.3.46-.43.18-.13.36-.19.57-.27.32-.12.62-.11.93-.21.3-.08.52-.3.85-.35,0-.72.97-.69,1.48-.8.46-.1.8-.27,1.21-.46.27-.13.45-.06.72-.11.32-.07.61-.39.91-.5.62-.23,1.37-.33,2.03-.18.25.06.48.19.72.27.87.28,1.83.19,2.74.22.65.03,1.06.41,1.64.71.55.28,1.12.57,1.66.88.66.37,1.21.92,1.9,1.24.29.13.61.13.88.26.24.12.26.28.45.46.22.22.52.28.72.53.24.29.27.36.61.53.47.23.56.66.97.94.3.21.54.21.69.62.11.29.15.64.22.95.14.62.55,1.13.88,1.66.11.19.21.41.3.61.18.39.44.7.63,1.07.23.46.1,1.03.32,1.51.11.24.33.42.48.66.23.38.21.83.39,1.22.07.15.19.25.27.41.11.22.13.52.19.8.02.1.04.2.07.29.21.58.17,1.17.24,1.76.02.21.06.41.12.61.22.75.26,1.63.19,2.46-.03.42-.08.83-.15,1.22-.07.44-.1.9-.11,1.38,0,.68.04,1.38.06,2.05,0,.17.01.34.01.5,0,1.03.02,2.07,0,3.1v.27c-.01.43-.06.61.23.92.25.27.56.36.81.68,0,0,0,.01.01.02Z" style="stroke-width:0px;fill:#6e7472"/><path d="m97.75,41.64c-.38,1.15-.8,2.26-1.24,3.32-.39.95-.81,1.86-1.24,2.74-.53,1.08-1.08,2.1-1.66,3.07-.34.58-.69,1.15-1.04,1.7-.72,1.11-1.46,2.13-2.2,3.08-.68.87-1.37,1.67-2.04,2.41-3.89,4.22-7.64,6.41-9.44,6.74-4.41.8-8.38-3.67-1.54-5.48,1.93-.51,4.13-2.28,6.31-4.9.49-.58.98-1.2,1.46-1.87.46-.62.91-1.28,1.36-1.96.51-.78,1.01-1.6,1.5-2.45.49-.85.97-1.74,1.44-2.66.52-1.01,1.02-2.06,1.49-3.13.36-.8.7-1.61,1.02-2.43.38-.94.73-1.89,1.06-2.85.32-.94.61-1.88.89-2.82.26-.89.49-1.79.71-2.7.15-.63.28-1.25.4-1.88.2-1.03.37-2.05.5-3.06.07-.54.13-1.07.18-1.6.02-.27.04-.54.05-.8.05-.76.06-1.5.03-2.22-.03-.87-.11-1.72-.23-2.53-.13-.86-.3-1.68-.53-2.47-2.73-9.76-12.16-14.42-19.6-9.39-7.79,5.25-7.61,16.23-7.36,19.58-.52.15-1.05.3-1.53.52-.18-.09-.28-.1-.33-.38-.05-.29.12-.46.17-.72.1-.47-.18-.42-.49-.74-.56-.58.29-1.24.11-1.96-.09-.36-.2-.38.05-.68.24-.29.81-.39.89-.78-.2-.19-1.03-.55-.94-.91.05-.2.27-.19.4-.32.71-.69-.13-1.58.39-2.32.33-.48.87-.6,1-1.24.07-.31.02-.45-.06-.7-.05-.14-.21-.34-.24-.49-.11-.45.14-1.34.63-1.49-.52-.21.28-1.56.5-1.83.25-.3.2-.36.26-.71.06-.39.41-.42.53-.76-.67-.28,1.26-1.2,1.4-1.43-.11-.05-.22-.12-.31-.19-.04-.4,1.14-.69,1.41-.86.61-.38.18-.27.15-.74.4-.38.98-.57,1.45-.87.18-.11.53-.28.18-.41.14-.52,1.58-.63,1.93-.95.31-.27.12-.39.2-.76.3-.04.67.05.88-.21-.03-.28-.29-.83-.06-1.06.38-.01.75.04,1.11.15.23.08.41.03.55-.14.09-.15.22-.22.4-.2.24.01.48.01.72.01.63,0,1.21-.04,1.81.12.09-.13.11-.27.08-.43.55-.11.88.64,1.44.66.06-.12.13-.24.2-.36.41.06,1.53,1.5,1.88,1.2.03-.41-.06-.59.38-.57.52.03.76.59,1.22.67.05-.27-.02-.52.02-.79.53.25.69.92,1.27,1.14.55-.81,1.32.74,1.64,1.09.11.16.26.29.43.39.1.02.2.04.3.08.32.26.47.68.67,1.05.12-.1.15-.22.28-.36.24,0,.33.18.51.31.19.13.31.12.48.21.76.44.89,1.65,1.68,2.12.01-.12.02-.24.03-.36.31.1.69,1.3.79,1.44.13.19.33.31.44.46.58.92.15,2.31.7,3.21.07-.01.13,0,.18.04.02.02.04.03.05.05.04.05.08.13.11.21.01.03.02.05.03.07.12.36.15.9.18,1.33.01.28.02.5.04.61.23-.01.24-.27.37-.46.23.49.1,1.3.16,1.79,0,0,0,.02,0,.03,0,.02.01.06.02.1h0s0,.04.01.06c0,.02,0,.04.01.05.03.19.09.44.14.62,0,.03.01.05.02.07,0,.02.02.05.03.06,0,.02.02.04.02.05,0,.02.02.03.02.03.02.02.04.02.05-.02,0,.11-.01.21-.02.31-.01.07-.02.14-.03.21-.06.53-.17,1.05-.24,1.57-.02.15-.04.3-.05.44h0c-.02.21-.02.41-.02.61.1-.01.2-.02.3-.03.07.21.09.44.09.66,0,.1,0,.2-.01.29,0,.05,0,.11-.01.16-.03.4-.07.81,0,1.19.01.05.13.15.15.27.03.19.02.42,0,.65-.04.36-.13.73-.15.99-.04.57-.04,1.14-.04,1.72,0,.21.02.43.02.65,0,.28-.01.55-.05.82-.05.39-.35.89-.3,1.27.09,0,.14-.05.17-.13,0,.07,0,.13-.01.2,0,.04-.02.09-.03.13v.02s-.02.08-.04.12c-.03.09-.06.18-.1.26-.06.15-.14.3-.2.46-.03.08-.06.16-.09.24-.04.09-.06.18-.09.27-.09.3-.15.6-.18.9-.02.1-.02.19-.03.28,0,.13-.01.26,0,.39,0,.11,0,.21.01.32.03.31.13.56.18.87.08.56-.05,1.08-.16,1.63-.04.19-.07.38-.1.57-.06.45-.11.9-.19,1.36-.02.13-.05.26-.08.38-.1.44-.2.75.28.92.08.03.22-.04.28-.01.19.1.07.18.16.33,0,.01.01.02.02.03.04.06.07.13.12.19.02.03.04.06.06.09s.05.06.07.09c.02.03.05.05.08.07.05.05.12.08.19.1.05.02.1.02.16.02.19-.01.35-.16.53-.2.02,0,.04,0,.05,0Z" style="stroke-width:0px;fill:#4e5150"/><path d="m100.54,24.52c0,.57-.02,1.15-.04,1.74,0,.18-.02.35-.03.52-.05,1.04-.13,2.05-.23,3.05-.07.71-.15,1.41-.25,2.1,0,0,0-.01-.01-.02-.24-.31-.56-.4-.81-.68-.29-.31-.24-.5-.23-.92v-.27c.02-1.03,0-2.07,0-3.1,0-.16,0-.33-.01-.5-.02-.67-.06-1.37-.06-2.05,0-.47.03-.94.11-1.38.07-.38.12-.8.15-1.22.07-.83.04-1.71-.19-2.46-.06-.2-.1-.4-.12-.61-.07-.6-.03-1.19-.24-1.76-.03-.09-.06-.19-.07-.29-.05-.28-.08-.57-.19-.8-.08-.16-.2-.26-.27-.41-.18-.39-.16-.84-.39-1.22-.15-.24-.37-.41-.48-.66-.22-.48-.09-1.05-.32-1.51-.19-.38-.45-.68-.63-1.07-.1-.2-.19-.42-.3-.61-.32-.53-.74-1.05-.88-1.66-.07-.31-.11-.65-.22-.95-.15-.4-.38-.41-.69-.62-.4-.27-.5-.7-.97-.94-.35-.18-.37-.24-.61-.53-.21-.25-.5-.31-.72-.53-.19-.18-.2-.34-.45-.46-.27-.13-.59-.12-.88-.26-.69-.32-1.24-.87-1.9-1.24-.54-.31-1.11-.6-1.66-.88-.58-.3-.99-.69-1.64-.71-.9-.04-1.87.06-2.74-.22-.24-.08-.47-.21-.72-.27-.65-.15-1.4-.05-2.03.18-.3.11-.59.43-.91.5-.27.05-.45-.02-.72.11-.41.2-.75.36-1.21.46-.52.11-1.48.09-1.48.8-.33.05-.55.26-.85.35-.31.1-.61.09-.93.21-.21.07-.39.13-.57.27-.16.12-.27.35-.46.43-.28.11-.52-.04-.8.13-.87.51-1.34,1.71-1.96,2.45-.24.29-.31.36-.49.74-.23.49-.59,1.13-1,1.5-.44.39-.65.64-.88,1.23-.29.72-.55,1.42-.89,2.12-.28.57-.41,1.21-.6,1.82-.17.6-.44,1.13-.64,1.71-.43,1.24-.93,2.5-1.1,3.8-.09.67-.3,1.28-.5,1.91-.1.3-.06.91-.5.89-.08.28.04.58-.02.87-.06.28-.19.43-.19.77,0,.38.04.41-.35.46-.26.03-.54,0-.8,0-1.44,0-2.97-.16-4.35.14-.26.06-.53,0-.79.05-.37.09-.56.17-.97.16-.17,0-.47-.06-.62,0-.11.05-.09.16-.19.24-.39.28-.89.3-1.37.29-.49-.01-.85.06-1.3.15-.51.11-1.11.02-1.63.02-.57,0-1.26-.12-1.82,0-.44.11-.3.3-.37.68-.63.16-1.16.4-1.83.39-.63-.02-1.37-.07-1.96.19-.43.18-.63.48-1.12.53-.69.07-1.63.1-2.29-.12.71.8-1.03.83-1.47.83-.16,0-.39-.06-.54-.02-.13.03-.14.14-.26.17-.41.1-.93.02-1.36.02-.45,0-1.33-.15-1.75.03-.1.04-.11.26-.18.29-.21.1-.48.04-.7.02-.48-.05-.95-.15-1.44-.17-.13,0-.6-.08-.71,0-.29.18-.12.58.19.74-.87-.03-1.63-.16-2.49-.3-.75-.12-1.87-.27-2.63-.05v.14l-2.13-.53c.18-.05.34-.12.49-.21-.03-.03-.06-.06-.09-.1.28-.12.57-.2.86-.26,0,0,5.54-1.46,15.8-2.57,8.91-.97,14.02-2.17,18.19-1.77.15-.41.38-.81.72-1.2,3.75-4.23.22-13.41,11.47-19.93,9.56-5.54,23.28-3.16,26.49,13.45.14.74.27,1.51.37,2.32.12.98.21,2,.26,3.07.05.96.07,1.97.05,3Z" style="stroke-width:0px;fill:#888988"/><path d="m89.32,54.75c.36.21.7.55,1.05.8-.68.87-1.37,1.67-2.04,2.41-.18-.14-.38-.26-.6-.35-.15-.05-.31-.11-.46-.16-.29-.14-.48-.36-.58-.66-.58-.74-1.68-1.16-2.4-1.79-.24-.21-.45-.44-.64-.69.49-.58.98-1.2,1.46-1.87.26.2.51.4.75.63.47.43.81.79,1.41.99.68.23,1.4.31,2.04.67Z" style="stroke-width:0px;fill:#fff"/><path d="m93.56,50.72s.03.03.05.05c-.34.58-.69,1.15-1.04,1.7-.92-.47-1.96-.39-2.94-.55-.34-.05-.54-.19-.85-.33-.46-.22-.99-.28-1.45-.5-.3-.15-.59-.36-.87-.6.51-.78,1.01-1.6,1.5-2.45.14.13.26.26.3.3.36.3.96.73,1.47.78.65.07,1.24,0,1.9.24.78.28,1.32.79,1.91,1.36Z" style="stroke-width:0px;fill:#fff"/><path d="m96.51,44.96c-.39.95-.81,1.86-1.24,2.74-.12,0-.23,0-.34-.03-.3-.07-.4-.33-.61-.43-.38-.17-.66-.1-1.06-.45-.21-.18-.33-.37-.62-.39-.3-.02-.46.21-.73.2-.51,0-.65-.75-1.11-.89-.18-.05-.47.04-.68,0-.25-.06-.48-.19-.71-.33.52-1.01,1.02-2.06,1.49-3.13.09.07.16.14.26.18.23.11.35.1.6.27.26.18.34.5.69.58.16.04.33-.06.5-.06.86.01,1.16.83,1.93.94.16.02.32-.1.5-.07.52.07.72.63,1.14.86Z" style="stroke-width:0px;fill:#fff"/><path d="m95.5,19.37c-.13-.86-.3-1.68-.53-2.47.06-.03.14-.04.32-.01.24.04.53.05.81.04.29-.01.58-.05.85-.12.37-.11.63-.14,1.06-.14.16.02.33.02.49,0,.06,0,.13-.02.19-.03.07-.1.15-.19.22-.29.22-.14.64-.15.94-.22.14.74.27,1.51.37,2.32-.13.03-.23.06-.28.12-.19.2-.08.54-.39.59-.29.04-.48-.26-.73-.43-.08-.05-.17-.09-.27-.1-.1.1-.14.22-.15.36-.16.14-.35.2-.56.16-.4.07-.78-.09-1.15-.14h0c-.12-.02-.23-.03-.34-.03-.3.02-.35.21-.64.32-.07.03-.14.05-.21.06Z" style="stroke-width:0px;fill:#fff"/><path d="m98.37,38.98c.06.02.12.04.18.05-.19.69-.39,1.36-.6,2.01-.12-.04-.24-.07-.37-.03-.22.06-.27.4-.51.48-.26.08-.4-.07-.58-.2h0s-.07-.04-.11-.06c-.34-.16-.55-.05-.92-.07-.66-.04-.73-.64-1.21-.96-.48-.32-1.21-.12-1.81-.27-.16-.04-.33-.08-.49-.11.38-.94.73-1.89,1.06-2.85.21.22.41.52.62.62.02-.13.08-.26.16-.36.49.1.77.55,1.15.84.51-.63.74-.11,1.08.22.13.13.28.22.47.22.31,0,.42-.26.77-.21.46.06.72.54,1.13.68Z" style="stroke-width:0px;fill:#fff"/><path d="m98.5,32.72c.41.16.84.4,1.28.57-.18,1.11-.38,2.19-.62,3.24-.5-.13-.53-.81-1.02-.9-.15-.03-.32.05-.48.04-.63-.05-.57-.52-1-.77-.27-.15-.4-.07-.59,0-.07.03-.16.05-.27.06-.54.05-.87-.21-1.28-.47-.22-.14-.44-.24-.66-.33.26-.89.49-1.79.71-2.7.16.21.27.49.53.56.09-.24.07-.5.28-.65.13.14.66,1.45.92.74.14.01.25.12.35.23.12.13.23.27.36.27.16,0,.23-.15.41-.18.21-.03.87.21,1.08.29Z" style="stroke-width:0px;fill:#fff"/><path d="m100.48,26.78c-.05,1.04-.13,2.05-.23,3.05-.04-.08-.09-.15-.13-.22-.32.05-.21.41-.52.54-.22.09-.45.03-.66-.1-.34-.2-.65-.56-.87-.74.09.56-.65.4-.95.35-.04,0-.07-.01-.12-.01-.36-.05-.71-.03-1.07-.03-.31,0-.63-.01-.95-.03.2-1.03.37-2.05.5-3.06.49.22,1.06.45,1.5.42.02-.18,0-.54.16-.65.01,0,.02-.01.03-.01.23-.12.36.18.52.3.29.21.67.29,1.03.16,0-.11.03-.22.09-.31.04,0,.08,0,.12.01.35.05.6.3.95.35.19.03.41-.01.6-.02Z" style="stroke-width:0px;fill:#fff"/><path d="m99.57,21.82c.28-.04.61-.15.92-.31.05.96.07,1.97.05,3-.22-.14-.39-.35-.41-.56-.19.04-.16.23-.3.35-.23.22-.54.25-.86.15-.03-.01-.07-.03-.11-.06-.21-.14-.46-.47-.64-.49-.17-.01-.36.19-.52.22-.21.04-.44.05-.68.04-.35,0-.71-.05-1.03-.05h-.29c.05-.76.06-1.5.03-2.22.01,0,.02.02.03.03-.04-.14-.04-.28,0-.41.35-.2.64.28.96.52.13.11.27.17.43.12.2-.83,1.04.04,1.44-.07.14-.04.16-.2.3-.25.08-.03.16-.03.25-.03.15.01.3.04.44.02Z" style="stroke-width:0px;fill:#fff"/><path d="m28.11,38.88c.15-.57.2-1.15.11-1.74-.59-3.62-5.12-1.5-6.16-.95-.15.01-.3.02-.46.04-1.26.15-2.58.65-3.73,1.18-.59.28-1.38.51-1.73,1.09-.34.56-.45,1.29-.67,1.9.02-.07-.13.51-.16.56-.16.24-.46.34-.71.51-.4.26-.7.65-1.06.97-.43.38-.88.7-1.23,1.15-.19.24-.44.4-.68.58-.24.18-.3.36-.5.58-.35.39-.55.13-.96.29-.33.13-.36.5-.57.7-.21.2-.51.24-.77.41-.59.39-.56.86-.97,1.35-.12-.05-.2-.09-.3-.15-.16.17-.5.52-.73.5-.05-.23-.03-.46-.16-.66-.42.36-.38,1.4-.9,1.54-.07-.16-.2-.22-.36-.15-.1.36-.85,2.14-.03,2.11.22.44.58.61.86.67.55.72,2.46.54,4.3.02,1.53-.43,4.43-2.26,6.84-3.69.39-.1.77-.25,1.08-.54.12-.11.24-.21.36-.3.43-.24.83-.45,1.17-.62.05-.02.09-.04.15-.06.08-.03.15-.07.23-.11.1-.04.2-.08.28-.11.03-.01.06-.02.09-.03.18-.03.38.05.55,0,.19-.05.39-.15.59-.22.82-.32,1.65-.46,2.51-.72.43-.13,1.15-.2,1.52-.47.47-.35.7-1.12,1.08-1.57.36-.43.74-.71.99-1.22.23-.47.34-1.07.42-1.58.09-.59-.03-.93-.29-1.25Z" style="fill:#383a39;stroke-width:0px"/><path d="m67.57,29.33c.86,2.89.5,6.17-1.76,7.69-.09.06-.2.13-.31.19-.01.03-.03.06-.04.09-.12.26-.25.52-.36.78-.04.11-.12.47-.19.56-.33.48-.94.85-1.49.89-.38.03-.57.18-.97.18-.49,0-.93-.06-1.37.2-.31.19-.54.55-.89.66-.22.07-.46,0-.69.02-.7.03-1.08.31-1.66.6-.38.19-.82.38-1.22.47-.85.19-1.88.5-2.66.94.12.96-1.74.5-2.15.5.01.21.19.34.32.49-.44.12-.94.02-1.38.12-.44.1-1.16-.08-1.54.16.07.11.07.21,0,.31-.45-.1-1.09-.41-1.52-.14.09.15.17.3.25.45-.69.19-1.7.05-2.4.01.21.03.42.12.45.33-.66.22-1.62,0-2.32.07-.46.05-.95.1-1.4.18-.49.09-.98.21-1.48.27-.4.05-1-.06-1.31.26.08.16.14.28.14.47-.8.13-1.67-.11-2.44.06-.48.11-.73.15-1.31.14-.26,0-.92-.1-1.22.03,0,.1-.02.2-.03.29-.63.23-1.61.03-2.28.03-.42,0-.87.06-1.29-.03-.52-.11-.92-.44-1.4-.64-.1.16-.16.35-.21.53-.42.12-.77-.4-1.12-.52-.14-.04-.27-.02-.39-.04-.42-.1-.77-.3-1.13-.54-.18-.11-.43-.4-.64-.37-.03.23.09.61-.22.68-.82-.54-1.82-1.57-2.29-2.55-.4-.3-.78-.62-1.13-.98-1.36-1.39-1.89-3.16-1.83-4.96.9-.39,1.91-.65,2.86-.92.58-.16,1.15-.02,1.71-.14.04-.23-.06-.47.02-.7.13-.33.56-.6.88-.68.44-.12,1.23-.06,1.72-.06.04.45-.06.88.92.22-.09.43.13.73.33,1.1.19.33.86.97.9,1.36-.37.03-1.07.16-.9.73.18.62,1.42.47,1.81.87-.03.16.03.28.18.37.11.06.22.12.32.19.51.24,1.13.2,1.67.17.26-.01.65-.03.85-.22.24-.23.02-.44.2-.66.51.04.91.34,1.43.36.28,0,.65.04.92-.03.29-.06.45-.23.77-.15.42.1.77.39,1.21.46.08-.16.03-.27.09-.45.32.05.72.19,1.03.32.24.11.54.38.81.37.22-.02.12-.04.3-.13.41-.2.73-.23,1.21-.23.48.01.74-.1,1.15-.18.51-.11,1.07.04,1.56.14.39.08.94.31,1.32.2.4-.12.63-.66,1.09-.71.54-.06.91.57,1.41.55.05-.23,0-.46.04-.69.3-.11.73-.04,1.05,0,.29.03.77.28,1.04.14.05-.31.06-.69.39-.86.53-.26,1.41.21,1.93.35.27.07.86.35,1.05.06.21-.33-.17-.8.37-.98.75-.25,1.47.41,1.98-.47.13-.23.15-.47.32-.66.22-.24.53-.29.66-.63-.07-.11-.16-.17-.29-.2-.04-.63,1.92-1.12,2.32-1.27.44-.16,1.11-.41,1.48-.47.18-.09.25-.24.37-.38.44-.5.89-.91,1.46-1.28.9-.58,1.89-.48,2.89-.65.32-.05.8-.17.91-.53-.1-.22-.31-.28-.4-.49.27-.13.65-.12.85-.36-.31-.12-.69.02-1.02-.06-.61-.15-.3-.28-.12-.6.25-.44-.07-.78-.55-.83.23-.15.37-.37.6-.53.63-.43,1.46-.67,2.25-.9.05.63.1.99.1.99-.12.52-.31.93-.54,1.25Z" style="stroke-width:0px;fill:#4e5150"/><path d="m28.71,51.76s.53,1.59-1.19,2.66c-1.72,1.07-4.93.74-5.42,0,0,0-1.05,1.49-2.16.68,0,0-.88.73-1.27,0-.39-.74.41-1.5,1.33-2.63.92-1.12,1.94-1.8,3.1-1.49,1.15.31,2.57.16,3.49-.07.92-.23,2.05.12,2.12.86Z" style="stroke-width:0px;fill:#6e7472"/><path d="m62.17,50.83s1.84,1.62,1.04,3.04c-.8,1.42-3.01,1.55-5.32,1.55s-4.34-.75-5.4-.49c-1.06.27-3.19.89-2.39-.89.8-1.77,2.57-2.92,3.99-2.57,1.42.35,4.34.35,4.61-1.15.27-1.51,3.47.5,3.47.5Z" style="stroke-width:0px;fill:#6e7472"/><path d="m39.28,39.18c0,.26,0,.5-.04.71-.04.21-.13.4-.23.58-.12.38-.28.78-.49,1.19-.13.67-.23,1.33-.42,2-.04.17-.09.34-.15.5-.07.12-.17.15-.3.12-.16-.05-.28,0-.35.15-.18.18-.26.4-.24.68-.14.54-.17.4-.49.65-.13.11-.32.28-.44.4-.39.41-.37,1.09-.82,1.43-.17-.2-.37-.26-.61-.2-.06.24-.1.5-.1.75-.1.09-.2.1-.32.03-.2.03-.3.14-.31.36-.02.25-.09.48-.21.7-.4.09-.24-.56-.63-.61-.39.41.01,1.83-.43,2-.11-.15-.29-.69-.54-.62-.11.19-.26.62-.44.75-.15.11-.21.05-.36.11-.23.09-.39.19-.62.35-.15.11-.38.23-.52.37-.29.29-.33.73-.67.97-.12.09-.53.39-.68.43-.24.07-.55-.13-.79-.09-.08.02-.13.11-.24.12-.27.01-.43-.2-.63-.34-.29-.2-.58-.32-.74.07-.19-.05-.39-.06-.58-.13-.32-.12-.6-.41-.89-.61-.26.1.11,1.34-.55.63-.19-.21-.17-.61-.43-.73-.13-.06-.37.05-.53,0-.04-.21.5-1.02.2-.94,0-.55.24-1.16.4-1.68.1-.34,0-.74.13-1.06.05-.01.1-.02.14-.03.12-.3.23-.55.33-.77.1.05.18,0,.29.09.35.23.39,1.06.8,1.21.29.1.35-.18.62-.18.22,0,.3.19.52.21.43.05.76-.53,1.22-.57.36-.04.51.07.81-.14.34-.23.72-.75,1.04-.9.07.23.05.71.39.74.48.04.36-.8.71-.92.31-.11.47.27.72.21.34-.07.13-.84.18-1.09.29-.07.65-.04.89.16.41-.14-.06-.92.36-1.19.4-.25.65.23,1.01.1.07-.32.09-.73.29-1,.21-.27.14-.15.45-.21.44-.08.46-.15.51-.72.03-.29-.06-.66.04-.94.07-.21.22-.28.34-.44.15-.21.17-.38.24-.67.05-.2.11-.44.27-.58.11-.1.26-.01.37-.13.28-.3.03-.8.21-1.11.11-.2.42-.29.57-.46.22-.27.27-.55.28-.88.03-.55.05-1.14-.03-1.69-.03-.19-.07-.37-.11-.56.17.09.33.19.47.3.07.05.14.11.2.18,0,0,0,.01.01.02.68.67,1.03,1.67.92,2.9Z" style="stroke-width:0px;fill:#4e5150"/><path d="m68.29,34.76c-.04.13-.16.12-.19.18-.17.4-.19,1.38-.53,1.6-.24.15-.23-.2-.35.29-.1.38,0,.87-.04,1.26-.22.03-.27-.18-.49-.11-.03.28.22.57.11.83-.16.03-.33.03-.49,0-.1,0-.15.05-.18.14-.4.07-.82-.03-1.22.06.05.32.22.55-.08.78-.27.2-.66.04-.97.1-.18.45.32.82.37,1.24.05.4-.15.81-.19,1.21-.03.24-.04.5-.03.75.02.46.48,1.06.31,1.48-.15-.04-.31-.05-.47-.03-.09.58.56,1.13.32,1.72-.19-.02-.3-.15-.49-.2,0,.61.29,1.21.13,1.81-.11-.03-.21-.07-.3-.14-.15.32-.02.85-.02,1.19-.02.62.05,1.74-.37,2.24-.19-.09-.19-.28-.32-.43-.11.34.14.63-.32.7-.19.03-.36-.16-.53-.3-.13.2-.29.37-.46.5.05.32.13.68-.05.82-.26.2-.56-.2-.75-.27-.35-.12-.49-.07-.82-.28-.04-.03-.1-.07-.15-.11-.26-.12-.52-.31-.77-.56-.09-.03-.17-.05-.26-.03-.29.05-.29.31-.52.41-.37-.6-.18-1.38-.54-2.02-.25-.01-.3.54-.49.71-.07-.34-.17-.67-.25-1.01-.06-.25-.23-.48-.28-.73-.04-.18,0-.34-.03-.52-.18-1.09-.55-2.13-.85-3.18,0-.02-.01-.03-.01-.05-.42-1.36-.75-2.77-.96-4.1-.07-.21-.14-.42-.14-.65,0-.04,0-.08,0-.12.06.04.13.07.2.1.27.08.44.03.68-.02.35-.07.62-.15,1-.14.25,0,.53.06.77-.02.02-.1.03-.2.04-.3.82-.25,1.8.18,2.62-.05.05-.23,0-.44.04-.67.38-.13.82.08,1.2-.05.1-.5-.11-.61.46-.86.75-.33.13-.52.46-1.04.27-.41,1.21-.18,1.48-.5.29-.34-.04-.89.12-1.28.35-.05.41.06.52-.28.12-.4-.11-.9.01-1.31.24-.04.67-.02.84-.22.22-.27-.05-.68.36-.93.26-.16.73-.1,1.03-.15.06-.07.14-.12.23-.14.12,0,.24.01.37.02.51-.16.49-1.33.57-1.76.04-.22.07-.44.09-.65.02.03.03.05.05.08.26.48.52,1.07.54,1.61.02.63-.01,1.26-.01,1.89,0,.41.13,1.11.01,1.49Z" style="stroke-width:0px;fill:#4e5150"/><path d="m37.81,38.03c-.02.33-.06.61-.28.88-.15.18-.46.27-.57.46-.18.31.07.81-.21,1.11-.11.12-.26.04-.37.13-.16.14-.22.38-.27.58-.07.29-.09.46-.24.67-.12.16-.27.23-.34.44-.1.28-.01.65-.04.94-.05.56-.07.64-.51.72-.31.06-.24-.06-.45.21-.21.27-.22.68-.29,1-.36.13-.61-.35-1.01-.1-.42.27.06,1.05-.36,1.19-.24-.21-.6-.23-.89-.16-.05.26.16,1.02-.18,1.09-.26.06-.41-.32-.72-.21-.35.13-.23.97-.71.92-.35-.03-.32-.51-.39-.74-.32.14-.7.67-1.04.9-.31.21-.46.1-.81.14-.46.04-.79.62-1.22.57-.22-.03-.29-.21-.52-.21-.27,0-.33.28-.62.18-.41-.14-.46-.97-.8-1.21-.11-.08-.19-.03-.29-.09.45-.99.72-1.27.92-1.53.39-.53.69-1.16,1.02-1.73.24-.42.55-.88.76-1.32.17-.36.21-.75.35-1.13.24-.68.59-1.16,1.05-1.71.37-.43.77-.88,1.18-1.32.88-1.17,1.83-1.95,2.73-2.43.16-.21.32-.42.54-.53.34-.18.85-.16,1.23-.24.19-.04.38-.05.56-.03.88-.14,1.47-.05,1.47-.05.44.05.84.18,1.19.37.04.19.07.38.11.56.08.55.06,1.13.03,1.69Z" style="stroke-width:0px;fill:#6e7472"/><path d="m67.71,29.69c-.02.21-.05.43-.09.65-.07.43-.06,1.59-.57,1.76-.12-.01-.24-.02-.37-.02-.09.03-.17.07-.23.14-.29.06-.77-.01-1.03.15-.41.25-.13.66-.36.93-.17.21-.6.19-.84.22-.12.41.11.91-.01,1.31-.11.35-.17.23-.52.28-.16.38.16.94-.12,1.28-.27.32-1.21.1-1.48.5-.33.52.29.71-.46,1.04-.57.24-.36.36-.46.86-.38.13-.82-.09-1.2.05-.04.23.01.44-.04.67-.82.23-1.8-.2-2.62.05-.01.1-.03.2-.04.3-.24.09-.52.03-.77.02-.38,0-.65.07-1,.14-.24.05-.41.1-.68.02-.07-.02-.13-.05-.2-.1-.02-.46-.04-.86-.13-1.31-.18-.99-.1-2.13.19-3.08.16-.55.38-1,.6-1.53.1-.25.16-.6.36-.79.27-.27.65-.43.94-.7.45-.44.78-.94,1.38-1.16.13-.04.22-.07.31-.1.16-.14.33-.28.49-.41.09-.18.11-.35.3-.5.68-.53,1.48-.94,2.21-1.42.15-.11.45-.46.63-.54.16-.06.33-.02.5-.06.01-.05.02-.1.03-.15.17,0,.33,0,.48,0,2.24-.94,3.68-.3,4.45,1.04.13.13.23.28.33.46Z" style="stroke-width:0px;fill:#6e7472"/><path d="m16.51,26.7s-2.46.9-2.46,1.94.39.93.39.93c0,0,1.68-2.23,2.65-2.55.97-.32.65-.45-.58-.32Z" style="stroke-width:0px;fill:#fff"/><path d="m18.54,30.16s-.87,2.62-2.23,3.39c-1.36.78-1.51,2.63-2.3,2.96-.67-.03-1.14-.11-1.43-.18-.16-.55-.15-1.18.05-1.81.53-1.69,1.31-4.75,2.78-6.37.9.22,2.64.81,3.14,2.01Z" style="stroke-width:0px;fill:#888988"/><path d="m16.99,38.69l-1.94-.29c-1.27-.19-2.17-1.01-2.47-2.07.36.09.97.19,1.92.19,1.17,0,2.43-.03,3.22-.14.24.91.31,1.78-.73,2.3Z" style="stroke-width:0px;fill:#6e7472"/><path d="m17.28,34.62c.04.54.28,1.16.44,1.77-.79.11-2.05.14-3.22.14-.17,0-.34,0-.49-.01.79-.33.95-2.19,2.3-2.96,1.36-.78,2.23-3.39,2.23-3.39.68,1.65-1.36,3.1-1.26,4.46Z" style="stroke-width:0px;fill:#b5b5b6"/><path d="m13.62,33.74s-.63.36-.7.73c-.07.36.61.32.9,0s.34-.92-.19-.73Z" style="stroke-width:0px;fill:#231f20"/><path d="m15.11,30.58s1-.13,1.55.26c0,0-.37.84-1.2,1.1,0,0-.6-.58-.35-1.36Z" style="stroke-width:0px;fill:#231f20"/><path d="m14.55,29.95s-1.07,2.52-1.21,3.09c-.15.57.11.37.5.12s.31-.69.45-1.48c.15-.79.45-1.32.86-1.52.4-.19.82-.69.82-.99s-.02-.52-.21-.52-.48.69-1.21,1.29Z" style="stroke-width:0px;fill:#6e7472"/><path d="m29.78,30.45s0,0,0,.01c-1.16-.29-2.57-.29-3.77-.16-.33.04-.66.1-.98.18-.32.08-.65.16-.98.23-.19.14-.17.13-.15.37.03.48.35.77.7,1.06.35.29.61.57.87.94.26.36.72.38,1.04.77.26.31.51.64.43,1.07-.03.13-.11.23-.11.42,0,.17.02.35-.01.51-.18.05-.54-.07-.65.09-.11.15.12.53.12.73-.27-.03-.48-.23-.78-.12,0,.23.21.39.11.64-.34.07-.65-.04-.95.11-.03.05-.07.1-.11.14-.14.04-.29.05-.44.04-.37-.03-.77-.24-1.14-.13-.06.37.15.55-.38.51-.39-.03-.74-.19-1.14-.12-.22.04-.45.24-.74.12-.31-.13-.38-.83-.78-.78-.06.22-.07.44-.19.65-.2-.1-.47-.35-.64-.52-.16-.16-.41-.78-.64-.81-.04.14.03.26-.07.39-.18.04-.43-.09-.65-.29-.16-.64-.43-1.3-.47-1.87-.1-1.36,1.94-2.81,1.26-4.46-.37-.9-1.43-1.45-2.32-1.76.15-.11.35-.19.46-.25.15-.07.81-.33.83-.52-.1-.11-.29-.23-.23-.38.44-.06.77-.07,1.12-.34.2-.15.43-.27.65-.4.29-.18.54-.26.79-.48.31-.28.69-.38,1.11-.4.39-.02.78.03,1.16,0,.4-.03.79-.12,1.19-.13.73-.03,1.36.08,2.06.21.41.07,1.12.18,1.51-.01.21-.11.32-.29.36-.49,2.29,1.52,2.95,4.21,2.54,5.26Z" style="stroke-width:0px;fill:#4f4f4f"/><path d="m29.18,34.49c.04.21.14.74.02.94-.11.17-.33.18-.46.41-.3.57-.23,1.15-.38,1.73-.06.23-.2.04-.19.42.01.3.21.58.09.89-.07.02-.15.03-.22.04-.14.29.27.6.08.9-.3.04-.75-.1-.98.14-.16.18-.1.69-.18.94-.08.23-.33.97-.52,1.07-.21.11-.51-.17-.56.18-.04.23.22.35.28.54.22.79-1.61-.07-1.93.13,0,.28.21.41.29.66-.58.03-1.28-.52-1.74-.82-.17-.11-.77-.46-1.03-.78-1.04-.48-1.75-1.37-1.75-1.37-2.23-.68-3-1.84-3-1.84,1-.5.98-1.33.75-2.2.22.2.47.33.65.29.1-.13.03-.24.07-.39.23.03.47.64.64.81.17.16.44.41.64.52.11-.21.12-.43.19-.65.4-.05.47.65.78.78.29.12.52-.07.74-.12.39-.07.75.09,1.14.12.53.04.32-.14.38-.51.37-.11.77.1,1.14.13.15.02.3,0,.44-.04.04-.05.08-.1.11-.14.3-.14.61-.04.95-.11.1-.24-.11-.41-.11-.64.29-.11.51.09.78.12,0-.2-.23-.58-.12-.73.11-.16.47-.03.65-.09.03-.16.02-.34.01-.51,0-.19.08-.29.11-.42.08-.43-.18-.76-.43-1.07-.32-.39-.78-.4-1.04-.77-.26-.37-.52-.65-.87-.94-.36-.29-.67-.57-.7-1.06-.02-.23-.03-.22.15-.37.32-.07.65-.15.98-.23.32-.08.65-.14.98-.18,1.2-.13,2.6-.12,3.77.16-.19.48-.46,1.39-.82,2.5.03.51.14,1.03.22,1.54Z" style="stroke-width:0px;fill:#353535"/><path d="m27.24,25.19c-.04.21-.14.39-.36.49-.4.19-1.1.08-1.51.01-.71-.12-1.33-.23-2.06-.21-.4.01-.79.1-1.19.13-.39.03-.78-.02-1.16,0-.42.02-.8.12-1.11.4-.25.22-.5.3-.79.48-.22.13-.45.24-.65.4-.35.27-.68.28-1.12.34-.06.15.13.28.23.38-.02.19-.68.45-.83.52-.12.06-.31.14-.46.25-.3-.11-.59-.19-.82-.24.14-.15.96-1.32,1.1-1.45,1.75-1.46,3.94-2.2,3.94-2.2,3.08-.81,5.29-.31,6.79.69Z" style="stroke-width:0px;fill:#787878"/><path d="m30.03,28.17c-.02.06-.02.13-.01.21-.39,0-.75.03-1.06.06-.04.35-.22.37-.54.4-.02.16.12.32.24.41-.32.38-1.38-.06-1.84.12,0,.14.11.22.12.36-.32.12-.67-.21-1.02-.1-.05.15.08.21.09.37-.28.11-.59-.22-.91-.1-.02.28.36.28.38.49-.19.07-.29-.06-.47-.1-.26-.05-.51,0-.77-.07-.68-.18-1.37-.2-2.06-.33-.35-.07-.61-.08-.81-.4h-.03c-.32-.91-.61-2.62.85-4.31,1.98-2.32,4.51-3.17,5.55-3.12-.19.23-.37.41-.24.77.33.1.71-.07,1.04.04-.05.15-.26.18-.35.35.24.06.4,0,.5.28.06.2.02.19.13.37.08.14.1.09.13.29.03.19.05.23.14.4.08.17.05.16.06.33.01.2-.06.21.12.4.13.13.28.22.33.39.03.11-.02.23.03.34.08.2.29.16.39.29.23.3-.02.04.02.27.03.18-.01.1.07.27.06.14.15.17.15.34,0,.04-.12.18-.12.28-.01.23.39.74-.1.7Z" style="stroke-width:0px;fill:#fff"/><path d="m30.13,29.99c-.46.17-.46,1.08-.29,1.47-.28.1-.6-.04-.89.03-.03.16.02.32-.01.49-.31.07-.68.03-1.01.02.05.02.07.05.07.11-.32.08-.6.26-.9.3-.41.05-.86,0-1.26-.06-.01,0-.03-.01-.04-.02-2.54-1.04-3.76-1.3-4.14-2.17,0,0-.16-.26-.31-.68h.03c.2.32.46.33.81.4.69.14,1.38.15,2.06.33.26.06.51.02.77.07.18.04.28.18.47.1-.02-.21-.4-.21-.38-.49.32-.12.64.2.91.1,0-.15-.13-.21-.09-.37.35-.11.7.22,1.02.1-.01-.14-.11-.22-.12-.36.46-.18,1.51.26,1.84-.12-.13-.09-.27-.25-.24-.41.31-.03.49-.05.54-.4.3-.03.67-.06,1.06-.06.03.29.21.64.1.81-.09,0-.16.02-.23.07-.05.3.29.45.24.73Z" style="stroke-width:0px;fill:#d1d3d4"/><circle cx="15.77" cy="30.91" r=".2" style="stroke-width:0px;fill:#fff"/></g></g></svg>