<?xml version="1.0" encoding="UTF-8"?>
<svg id="Layer_2" data-name="Layer 2" xmlns="http://www.w3.org/2000/svg" viewBox="0 0 21.68 81.06">
  <defs>
    <style>
      .cls-1 {
        fill: #aa6828;
      }

      .cls-1, .cls-2, .cls-3, .cls-4, .cls-5, .cls-6, .cls-7, .cls-8, .cls-9, .cls-10, .cls-11, .cls-12, .cls-13 {
        stroke-width: 0px;
      }

      .cls-2 {
        fill: #fed3ac;
      }

      .cls-3 {
        fill: #d8ae8b;
      }

      .cls-4 {
        fill: #e94f39;
      }

      .cls-5 {
        fill: #f9a344;
      }

      .cls-6 {
        fill: #fff;
      }

      .cls-7 {
        fill: #231f20;
      }

      .cls-8 {
        fill: #f1f2f2;
      }

      .cls-9 {
        fill: #aa856a;
      }

      .cls-10 {
        fill: #995a26;
      }

      .cls-11 {
        fill: #db8c27;
      }

      .cls-12 {
        fill: #4b3122;
      }

      .cls-13 {
        fill: #c03f27;
      }
    </style>
  </defs>
  <g id="_100" data-name="100">
    <g>
      <path class="cls-7" d="m8.61,74.58c-2.29.79-5.44.04-7.26-3.14-2.57-4.48.31-1.19,1.54.78.79,1.27,3.22,1.74,4.98,1.35.21.35.49.68.74,1.01Z"/>
      <path class="cls-10" d="m10.84,72.9c-.5.78-1.29,1.36-2.23,1.68-.24-.33-.52-.66-.74-1.01.97-.22,1.74-.7,1.91-1.46.48-2.13,1.23-7.6.48-13.04-.75-5.44,1.66-1.96,1.72,0,0,0,.57,11.13-1.15,13.82Z"/>
      <path class="cls-11" d="m3.71,29.27c-.73.9-1.47,1.87-2.13,2.84.71-8.48,2.7-12.21,2.88-20.01.08-3.46.86-4.53,1.86-4.44-1.14,1.14-1.9,3.04-1.4,6.07,0,0,.03.06.08.16.09,2.02.15,6.54-.73,10.32-.28,1.22-.5,3.03-.55,5.08Z"/>
      <path class="cls-11" d="m20.33,40.4c0,.08,0,.16,0,.24-.13,5.49-.35,9.82-.6,13.36,0,0,0,0,0,.01-.05.45-.97,9.05-2.8,9.71-1.87.67-3.42,1.42-4.23-2.98-.81-4.41.25-8.89-1.86-8.89s-1.05,4.48-1.86,8.89c-.81,4.41-2.35,3.66-4.23,2.98-1.83-.65-2.75-9.26-2.8-9.71,0,0,0,0,0-.01-.25-3.53-.47-7.86-.6-13.36,0-.08,0-.16,0-.24,1.59,1.38,3.58,2.04,3.58,2.04,0,0-.5.45.24,3.54.74,3.09,3.28,1.95,3.66.99.22-.54.16-1.77.08-2.97.58.23,1.22.36,1.93.36s1.35-.13,1.93-.36c-.07,1.2-.13,2.42.08,2.97.38.96,2.92,2.1,3.66-.99.74-3.09.24-3.54.24-3.54,0,0,1.99-.66,3.58-2.04Z"/>
      <path class="cls-3" d="m16.77,13.72s-1.16,2.39-2.86,3.19c-1.7.8-2.53.85-3.07.85s-1.37-.05-3.07-.85c-1.7-.8-2.86-3.19-2.86-3.19-.5-3.03.26-4.92,1.4-6.07,1.89.16,4.53,4.44,4.53,4.44,0,0,2.64-4.29,4.53-4.44,1.14,1.14,1.9,3.04,1.4,6.07Z"/>
      <path class="cls-2" d="m16.11,36.26c-1.15,1.7-3.35,4.06-3.25,5.34.04.56-.03,1.47-.08,2.39-.58.23-1.22.36-1.93.36s-1.35-.13-1.93-.36c-.06-.93-.13-1.83-.08-2.39.09-1.28-2.1-3.65-3.25-5.34-1.15-1.7.51-2.35.51-2.35,0,0,.54-.09,1.07-2.17.52-2.08.16-6.54.16-6.54,0,0-1.75,1.79-3.6,4.07.05-2.05.27-3.86.55-5.08.88-3.78.82-8.29.73-10.32.29.54,1.34,2.36,2.78,3.03,1.7.8,2.53.85,3.07.85s1.37-.05,3.07-.85c1.44-.67,2.49-2.49,2.78-3.03-.09,2.02-.15,6.54.73,10.32.28,1.22.5,3.03.55,5.08-1.85-2.28-3.6-4.07-3.6-4.07,0,0-.37,4.46.16,6.54.52,2.08,1.07,2.17,1.07,2.17,0,0,1.66.66.51,2.35Z"/>
      <path class="cls-1" d="m8.83,46.96c-.38.96-2.91,2.1-3.66-.99-.74-3.09-.24-3.54-.24-3.54,0,0-1.99-.66-3.58-2.04-.07-3.25.03-5.95.22-8.3.66-.97,1.41-1.94,2.13-2.84-.15,5.63.94,13.04,5.21,14.73.07,1.2.13,2.42-.08,2.97Z"/>
      <path class="cls-3" d="m8.91,44c-4.27-1.7-5.35-9.1-5.21-14.73,1.85-2.28,3.6-4.07,3.6-4.07,0,0,.37,4.46-.16,6.54s-1.07,2.17-1.07,2.17c0,0-1.66.66-.51,2.35s3.35,4.06,3.25,5.34c-.04.56.03,1.47.08,2.39Z"/>
      <path class="cls-11" d="m17.97,29.27c.73.9,1.47,1.87,2.13,2.84-.71-8.48-2.7-12.21-2.88-20.01-.08-3.46-.86-4.53-1.86-4.44,1.14,1.14,1.9,3.04,1.4,6.07,0,0-.03.06-.08.16-.09,2.02-.15,6.54.73,10.32.28,1.22.5,3.03.55,5.08Z"/>
      <path class="cls-1" d="m12.85,46.96c.38.96,2.91,2.1,3.66-.99.74-3.09.24-3.54.24-3.54,0,0,1.99-.66,3.58-2.04.07-3.25-.03-5.95-.22-8.3-.66-.97-1.41-1.94-2.13-2.84.15,5.63-.94,13.04-5.21,14.73-.07,1.2-.13,2.42.08,2.97Z"/>
      <path class="cls-3" d="m12.77,44c4.27-1.7,5.35-9.1,5.21-14.73-1.85-2.28-3.6-4.07-3.6-4.07,0,0-.37,4.46.16,6.54s1.07,2.17,1.07,2.17c0,0,1.66.66.51,2.35s-3.35,4.06-3.25,5.34c.04.56-.03,1.47-.08,2.39Z"/>
      <path class="cls-1" d="m18.54,67.37c-.35,5.23-2.67,5.38-1.52,10.15.99,4.12-.93,3.51-2.16,3.51s-2.15.03-1.58-5.75c.34-3.42.89-4.21,0-6.6-.89-2.39-2.44-7.76-2.44-7.76,0,0-1.54,5.38-2.44,7.76-.89,2.39-.34,3.18,0,6.6.57,5.78-.35,5.75-1.58,5.75s-3.15.61-2.16-3.51c1.15-4.78-1.17-4.93-1.52-10.15-.23-3.34-.75-7.1-1.19-13.36.05.45.97,9.05,2.8,9.71,1.87.67,3.42,1.42,4.23-2.98.81-4.41-.25-8.89,1.86-8.89s1.05,4.48,1.86,8.89c.81,4.41,2.35,3.66,4.23,2.98,1.83-.65,2.75-9.26,2.8-9.71-.44,6.26-.96,10.02-1.19,13.36Z"/>
      <path class="cls-11" d="m8.94,45.01c-1.84,1.42-2.5.68-2.73-.08,0,0,0,0,0,0-.06-1.32.11-2.87-.12-3.27-.45-.78-6.54-3.58-6.06-7.05.48-3.47,2.79-10.82,2.79-10.82,2.5-6.56,5.16-3.29,4.97,2.76-.19,6.05-3.11,6.94-3.11,6.94.72,2.24,2.54,3.92,3.88,5.49.9,1.05,1.02,4.04.39,6.05Z"/>
      <path class="cls-5" d="m5.16,20.94s-1.2.99-3.01,6.49-1.14,8.18.67,3.81c1.81-4.37,4.79-10.53,2.34-10.3Z"/>
      <path class="cls-11" d="m15.6,41.66c-.28.49.02,2.62-.19,4.02-.2.06-.4.1-.63.14-1.15.19-1.65-.72-2.2-1.43-.43-1.96-.25-4.47.56-5.42,1.34-1.57,3.16-3.25,3.88-5.49,0,0-2.92-.9-3.11-6.94-.19-6.05,2.47-9.32,4.97-2.76,0,0,2.31,7.35,2.79,10.82.48,3.47-5.61,6.27-6.06,7.05Z"/>
      <path class="cls-5" d="m16.53,20.94s1.2.99,3.01,6.49,1.14,8.18-.67,3.81c-1.81-4.37-4.79-10.53-2.34-10.3Z"/>
      <path class="cls-12" d="m8.94,45.01c-.31.98-.79,1.72-1.45,1.91-.97.27-1.23-.76-1.28-1.99.23.76.89,1.51,2.73.08Z"/>
      <path class="cls-12" d="m15.41,45.68c-.13.86-.45,1.45-1.21,1.24-.79-.22-1.33-1.26-1.61-2.53.55.71,1.05,1.61,2.2,1.43.22-.04.43-.08.63-.14Z"/>
      <path class="cls-11" d="m17.26,6.68c.15-1.13.51-2.06.99-2.36,0,0,2.41-1.51,2.85,2.3.04-.92-.11-1.84-.44-2.41-.9-1.57-2.29-.86-2.29-.86-.85.48-1.22,1.94-1.11,3.33Z"/>
      <path class="cls-12" d="m17.26,6.68c.11,1.34.69,2.61,1.74,2.83,1.36.28,2.02-1.29,2.09-2.89h0c-.44-3.81-2.85-2.3-2.85-2.3-.48.3-.84,1.23-.99,2.36Z"/>
      <path class="cls-11" d="m4.43,6.68c-.15-1.13-.51-2.06-.99-2.36,0,0-2.41-1.51-2.85,2.3-.04-.92.11-1.84.44-2.41.9-1.57,2.29-.86,2.29-.86.85.48,1.22,1.94,1.11,3.33Z"/>
      <path class="cls-12" d="m4.43,6.68c-.11,1.34-.69,2.61-1.74,2.83-1.36.28-2.02-1.29-2.09-2.89h0c.44-3.81,2.85-2.3,2.85-2.3.48.3.84,1.23.99,2.36Z"/>
      <path class="cls-2" d="m19.44,10.09c-.08.66-.22,1.31-.42,1.89-.72,2.13-4.04,4.1-5.89,4.1h-4.58c-1.85,0-5.17-1.97-5.89-4.1-.2-.58-.34-1.23-.42-1.89,1.11-5.25,5.32-4.43,6.72-2.52,1.44,1.97,1.87,1.36,1.87,1.36,0,0,.43.61,1.87-1.36,1.4-1.91,5.62-2.73,6.72,2.52Z"/>
      <path class="cls-11" d="m19.44,10.09c-1.11-5.25-5.32-4.43-6.72-2.52-1.44,1.97-1.87,1.36-1.87,1.36,0,0-.43.61-1.87-1.36-1.4-1.91-5.62-2.73-6.72,2.52-.21-1.75-.04-3.64.42-4.94.07-.19.13-.4.2-.61.42-.12,1.46-.5,1.89-1.34.55-1.07,2.21-1.97,3.87-1.45,1.66.52.85,1.94,2.22,3.36,1.37-1.42.56-2.84,2.22-3.36s3.31.37,3.87,1.45c.44.85,1.47,1.22,1.89,1.34.07.22.14.43.2.61.45,1.3.63,3.19.42,4.94Z"/>
      <path class="cls-13" d="m18.82,4.54c-.42-.12-1.46-.5-1.89-1.34-.55-1.07-2.21-1.97-3.87-1.45s-.85,1.94-2.22,3.36c-1.37-1.42-.56-2.84-2.22-3.36-1.66-.52-3.31.37-3.87,1.45-.44.85-1.47,1.22-1.89,1.34.1-.29.2-.61.34-.93,0,0,0,0,0,0,.07-.1,2.16-2.95,7.64-2.95s7.57,2.85,7.64,2.95c0,0,0,0,0,0,.14.32.25.63.34.93Z"/>
      <path class="cls-12" d="m9.61,7.15s.05-1.77-2.02-2.2c-2.06-.42-2.72.54-3.24,1.12-.52.59-.32,1.84.93,2.7,1.26.86,3.79,1.38,4.32-1.63Z"/>
      <path class="cls-12" d="m12.27,11.32c0,.77-.4,1.48-1.43,1.48s-1.43-.71-1.43-1.48,1.43-.84,1.43-.84c0,0,1.43.06,1.43.84Z"/>
      <path class="cls-9" d="m13.63,13.62c-.42.67-1.65.67-2.78.67s-2.36,0-2.78-.67c-.42-.67-1.57-1.12-.7-.82.87.3,1.24.82,2.06.82h2.85c.81,0,1.19-.52,2.06-.82.87-.3-.28.15-.7.82Z"/>
      <path class="cls-4" d="m18.48,3.61c-.07-.1-2.16-2.95-7.64-2.95S3.27,3.51,3.2,3.61c.73-1.71,2.34-3.61,7.64-3.61s6.91,1.9,7.64,3.61Z"/>
      <path class="cls-8" d="m8.35,7.04c0,.87-.71,1.58-1.58,1.58s-1.58-.71-1.58-1.58.71-1.58,1.58-1.58,1.58.71,1.58,1.58Z"/>
      <path class="cls-7" d="m7.67,6.91c0-.42-.34-.76-.76-.76s-.76.34-.76.76.34.76.76.76.76-.34.76-.76Z"/>
      <circle class="cls-6" cx="7.45" cy="6.27" r=".35"/>
      <path class="cls-12" d="m12.08,7.15s-.05-1.77,2.01-2.2c2.06-.42,2.72.54,3.24,1.12.52.59.32,1.84-.93,2.7-1.25.86-3.79,1.38-4.32-1.63Z"/>
      <path class="cls-8" d="m13.33,7.04c0,.87.71,1.58,1.58,1.58s1.58-.71,1.58-1.58-.71-1.58-1.58-1.58-1.58.71-1.58,1.58Z"/>
      <path class="cls-7" d="m14.02,6.91c0-.42.34-.76.76-.76s.76.34.76.76-.34.76-.76.76-.76-.34-.76-.76Z"/>
      <circle class="cls-6" cx="14.23" cy="6.27" r=".35"/>
    </g>
  </g>
</svg>