<?xml version="1.0" encoding="UTF-8"?>
<svg id="Layer_2" data-name="Layer 2" xmlns="http://www.w3.org/2000/svg" viewBox="0 0 537.45 543.65">
  <defs>
    <style>
      .cls-1 {
        fill: #e0aaa4;
      }

      .cls-1, .cls-2, .cls-3, .cls-4, .cls-5, .cls-6, .cls-7 {
        stroke-width: 0px;
      }

      .cls-2 {
        fill: #a57371;
      }

      .cls-3 {
        fill: #d2977c;
      }

      .cls-4 {
        fill: #f3cdc6;
      }

      .cls-5 {
        fill: #f0947b;
      }

      .cls-6 {
        fill: #fddfdc;
      }

      .cls-7 {
        fill: #513931;
      }
    </style>
  </defs>
  <g id="PIG">
    <g>
      <path class="cls-4" d="m535.6,450.18c-.76,3.87-1.77,7.55-3.01,11.05-39.53,54.46-98.3,22.12-75.33,7.76,22.97-14.36,40.2-51.68,40.2-62.21s-17.23,41.15-71.79,32.46c-54.56-8.7-80.41-79.36-80.41-79.36,0,0-17.23-75.61-60.3-71.79-43.08,3.83-45.3-43.44-45.3-43.44-6.73-90.91-68.18-76.44-175.88-53.6,8.64-91.96-3.87-109.1,34.69-154.41,0,0,13.82-13.11,39.5-23.64-.94.49-29.87,15.59,43.61,12.79,74.66-2.84,126.14.03,170.27,41.19,44.13,41.16,74.77,101.46,69.02,124.43-5.74,22.97,5.74,39.29,12.44,36.39,6.7-2.89,29.67,15,46.9,47.69,17.23,32.69,46.02,89.81,46.02,89.81,9.34,30.93,14.05,60.92,9.34,84.88Z"/>
      <path class="cls-2" d="m140.58,516.48c-22.32,4.69-38.7,2.04-47.18-.26-4.32-23.24,2.51-80.32-5.78-114.54-10.21-42.12-16.37-97.98-16.37-97.98,5.33-48.2,43.17-62.84,62.32-15.62,19.14,47.21,5.11,75.31,7.1,100.83,2,25.51-1.99,103.25-.09,127.57Z"/>
      <path class="cls-3" d="m98.49,526.2c-2.51-1.06-4.1-4.62-5.09-9.98,8.48,2.3,24.86,4.95,47.18.26,0,.02,0,.04,0,.06,1.91,24.25-28.72,15.32-42.09,9.66Z"/>
      <path class="cls-1" d="m532.6,461.23c-23.55,66.8-130.35,66.68-214.62,64.26-88.68-2.55-174.92-43.85-202.28-121.25-27.35-77.4-64.08-98.73-53.1-201.25.44-4.12.84-8.09,1.21-11.94,107.7-22.84,169.14-37.31,175.88,53.6,0,0,2.22,47.27,45.3,43.44,43.07-3.83,60.3,71.79,60.3,71.79,0,0,25.85,70.66,80.41,79.36,54.56,8.7,71.79-42.99,71.79-32.46s-17.23,47.86-40.2,62.21c-22.97,14.36,35.81,46.7,75.33-7.76Z"/>
      <path class="cls-6" d="m526.26,365.3s-28.79-57.12-46.02-89.81c-17.23-32.69-40.2-50.58-46.9-47.69-6.7,2.9-18.19-13.42-12.44-36.39,5.74-22.97-24.89-83.27-69.02-124.43-44.14-41.15-95.61-44.03-170.27-41.19-73.47,2.8-44.54-12.3-43.61-12.79.02,0,.03,0,.03,0,32.65-13.39,84.49-22.62,151.5,4.52,119.73,48.5,138.88,152.73,158.02,182.94,13.25,20.91,57.71,95.25,78.72,164.85Z"/>
      <path class="cls-1" d="m348.23,363.31c-12.46,33.39-46.1,65.77-49.83,109.28-2.17,25.25-4.76,43.69-10.2,55.31-23.77,2.71-43.47,1-53.8-.4-.06-14.3,6.28-43.94,14.7-66.04,9.27-24.28,23.13-80.94,9.43-99.16-13.7-18.21-18.84-52.62-18.84-52.62,0,0,29.02,40.62,44.34,54.02,15.32,13.4-4.79,1.91-10.53,24.89-5.74,22.97-.2,69.87,16.17,42.11,16.38-27.75,56.37-64.41,62.21-112.13h0c2.5,15.56,1.09,32.05-3.64,44.74Z"/>
      <path class="cls-3" d="m288.19,527.9c-3.94,8.4-9.37,13.24-17.21,14.51-18.69,3.04-34.88,1.01-36.37-11.13-.13-1.09-.2-2.36-.21-3.78,10.33,1.4,30.03,3.11,53.8.4Z"/>
      <path class="cls-4" d="m351.87,318.55h0c-5.85,47.73-45.84,84.39-62.21,112.14-16.38,27.76-21.91-19.14-16.17-42.11,5.74-22.97,25.85-11.49,10.53-24.89-15.32-13.4-44.34-54.02-44.34-54.02-.16-28.34,22.58-39.46,66.5-39.46,27.22,0,41.64,22.94,45.7,48.33Z"/>
      <path class="cls-4" d="m9.39,142.07c-2.21-1.44-4.38-5.76-6.75-14.79-9.67-37.01,8.4-62.54,35.2-84.24,17.93-14.52,35.41-11.98,45.02-8.72,0,0-81.05,14.38-73.47,107.75Z"/>
      <path class="cls-1" d="m39.12,127.27c-15.44-3.86-22.85,19.27-29.73,14.79C1.81,48.7,82.86,34.32,82.86,34.32h0c4.75,1.61,7.57,3.41,7.57,3.41,33.44,39.37-30.89,94.65-51.31,89.55Z"/>
      <path class="cls-4" d="m255.45,218.2h0c-5.6,32.55-7.43,47.35-31.58,69.88-24.16,22.52-24.08-1.91-9.73-23.61,14.36-21.69,11.49-52.97,0-24.25-11.49,28.72-19.14,42.12-59.34,47.86-40.2,5.74-67.01-28.86-67.01-28.86-39.02-29.46-66.46-40.43-84.63-37.27,1.46-13.66,6.15-29.58,16.03-47.46,5.25-9.48,1.37-57.43,25.94-99.55,24.57-42.12,83.27-47.22,83.27-47.22,86,0,122.86,52.33,126.96,176.13.17,4.97.19,9.76.08,14.35Z"/>
      <path class="cls-1" d="m255.45,218.21c-2.64,109.85-81.45,114.55-133.87,114.55s-94.31-48.19-105.23-59.67c-7.15-7.52-15.96-25.26-13.19-51.13,18.17-3.16,45.61,7.81,84.63,37.27,0,0,26.8,34.6,67.01,28.86,40.2-5.74,47.86-19.14,59.34-47.86,11.49-28.72,14.36,2.56,0,24.25-14.36,21.7-14.44,46.13,9.73,23.61,24.15-22.53,25.98-37.33,31.58-69.87Z"/>
      <path class="cls-1" d="m153.53,36.62s-20.93,13.12-24.19,45.67c-3.26,32.54-5.79,77.88,24.19,80.1,29.98,2.22,91.56-14.1,93.63-32.76,2.07-18.66-8.75-110.92-93.63-93.01Z"/>
      <path class="cls-6" d="m103.57,39.85s-61.75,16.59-62.14,66.37c-.4,49.78,11.09,62.54,3.43,63.18-7.66.64-24.89,22.97-15.32,17.23s14.68-2.58,5.11.94c-9.57,3.52-17.23,15.01.64,8.63,17.87-6.38,31.91,8.26,42.76,1.9,10.85-6.36-24.25-14.66-10.21-14.66s18.96-4.47,3.42-14.04c-15.54-9.57,13.18-31.56,22.11-49.6,8.93-18.04,30.63-49.31,29.36-65.9-1.28-16.59-10.21-15.32-19.14-14.04Z"/>
      <path class="cls-4" d="m173.13,27.72s-33.18,6.38-31.91,34.46c1.28,28.08-5.11,68.92,6.38,80.41,11.49,11.49,62.6-4.16,80.41-11.49,17.8-7.33,28.08-15.06,16.59-43.91-11.49-28.84-35.74-70.96-71.47-59.48Z"/>
      <path class="cls-6" d="m200.74,34.32s-41.16-13.3-44.99,17.34c-3.83,30.63-13.4,71.79,10.53,71.79s68.29-7.63,68.11-29.67c-.18-22.04-21.28-56.95-33.65-59.45Z"/>
      <path class="cls-5" d="m98.41,255.15c-1.06,15.49-12.03,32.94-36.46,32.94-30.63,0-51.69-14.36-58.24-33.5-2.14-6.25-2.88-12-2.91-16.9,0,0,0,0,0,0,0,0,4.65-31.27,40.63-30.63,35.7.63,53.23,30.77,56.98,48.1Z"/>
      <path class="cls-1" d="m98.41,255.15c-3.75-17.34-21.28-47.47-56.98-48.1C5.45,206.41.8,237.67.8,237.67c0,0,0,0,0,0-.06-10.1,2.92-16.62,2.92-16.62,12.6-21.07,32.71-20.61,46.11-20.61s38.22,10.63,47.53,43.6c.95,3.36,1.32,7.17,1.05,11.1Z"/>
      <path class="cls-7" d="m61.7,224.84s-15.34,4.62-8.12,32.34c7.22,27.73,23.03,9.54,22.51-6.65-.52-16.18-6.29-28.21-14.39-25.7Z"/>
      <path class="cls-7" d="m35.93,251.08s.19-21.47-9.48-26.85c-9.67-5.38-15.73,5.15-10.63,19.83s18.83,38.29,20.1,7.02Z"/>
    </g>
  </g>
</svg>