<?xml version="1.0" encoding="UTF-8"?><svg data-name="Layer 2" xmlns="http://www.w3.org/2000/svg" xmlns:xlink="http://www.w3.org/1999/xlink" viewBox="0 0 256.65 490.44"><defs><clipPath id="a"><path d="m.26,382.89c1.65,13.23,3.86,26.46,3.86,26.46l-.1-4.41c-.1-4.41,2.3-23.7,5.14-32.56s0-20.53,0-20.53h0c1.06-7.67,1.53-17.09.52-28.01-2.94-31.64,2.21-33.11,2.21-33.11,0,0,.36,1.09,1.13,2.9,1.47,12.09,7.61,25.93,13.26,36.49,9.81,18.34,7.36,41.39,4.9,50.79-2.45,9.41,5.88,23.85,9.31,34.67,3.43,10.82,13.43,58.38,14.73,67.31.01.07.02.14.03.21,1.33,8.7,5.89,7.23,12.22,7.23s7.32-1.22,3.63-6.62c-.06-.09-.13-.19-.19-.29-3.92-5.64-22.56-68.19-18.14-97.82,2.77-18.59,8.83-36.01,12.48-52.96.12,0,.24,0,.36,0,21.76,0,43.52-2.65,61.65-7.95.79,9.79,1.44,18.94,1.05,25.31-.98,15.68-6.29,103.12-6.29,112.06,0,8.37-1.37,13.6-.33,20.81.07.48.15.98.24,1.48,1.47,7.99,2.45,5.64,12.11,5.64,8.58,0,7.72-2.63,5.87-6.68-.23-.51-.48-1.04-.72-1.59-2.21-4.94-4.13-10.91-4.13-19.38s3.1-81.42,10.46-104.7c7.36-23.28,10.59-32.54,20.89-53,1.21-2.41,2.09-4.92,2.69-7.48,8.97-18.22,2.86-43.47.99-52.83-2.21-11.04-5.15-25.87,3.68-43.1,8.83-17.23,13.96-67.34,20.05-93.74,2.65-11.48,6.01-19.93,8.98-25.81,12.12,2.49,23.15,4.56,29.97,11.02,7.35,6.97,19.12,6.04,22.07,6.04h0c2.94,0,3.44-4.37-6.86-19.38-10.3-15.01-12.01-26.44-16.43-30.16-2.76-2.33-5.82-5.82-10.61-8.1-.43-2.99-.84-7.11-.42-10.29.31-2.39.82-5.35,1.1-8.1h0c.38-3.75.32-7.1-1.28-8.09-1.96-1.21-4-2.54-5.55-.8-.38-1.2-.98-1.9-1.88-1.9-2.94,0-4.66-1.72-5.88,3.19-.14.56-.29,1.22-.45,1.94-1.03,4.74-2.42,12.51-3.74,17.33-.87-.83-1.75-1.54-2.61-1.99-4.41-2.34-14.33-4.18-16.54-4.54-2.2-.37-.82,4.41,4.92,11.02.62.71,1.29,1.36,1.98,1.95-4.65,2.25-13.53,10.86-21.24,43.2-11.03,46.28-37.52,98.51-43.41,102.19-5.89,3.68-17.66,20.6-25.02,31.64-1.55,2.32-4.2,4.12-7.64,5.61-12.89,5.6-36.74,6.85-54.17,14.98-13.41,6.26-23.83,17.71-29.94,31.5h0c-3.95,8.91-6.11,18.8-6.11,28.88,0,13.57,1.23,32.49,1.74,48.09-1.57,6.26-5.9,25.02-4.54,35.93Zm4.59-34.29c.04,1.21.07,2.4.09,3.57-.2-1-.19-2.32-.09-3.57Z" style="fill:none;stroke-width:0px"/></clipPath></defs><g data-name="100"><g><path d="m106.43,481.31c5.31.41,9.84.25,13.08-.01-.48-2.9-1.31-6.18-1.31-8.2,0-4.24,8.19-98.76,13.81-120.94,5.61-22.18,18.56-58.71,18.56-58.71,8.08-23.8-31.14-25.4-36.7-14.11-5.56,11.29-.17,55.49,0,63.96.18,8.46-5.5,98.76-6.32,115.22-.47,9.53-1.09,17.65-1.12,22.79Z" style="stroke-width:0px;fill:#ba943a"/><path d="m12.69,389.38c1.62,7.05.84,76.65,2.31,87.94.25,1.92.58,3.46,1,4.72,6.39.13,12.28-.46,14.88-.78-.21-.35-.44-.73-.68-1.12-3.43-5.64-4.28-29.1-4.28-53.09s1.34-34.39,11.64-51.65c10.3-17.26,17.66-66.92,17.66-66.92.49-33.86-22.07-35.74-30.9-27.75-8.83,7.99,4.41,61.14-5.39,80.89-9.81,19.75-7.85,20.69-6.24,27.75Z" style="stroke-width:0px;fill:#ba943a"/><path d="m16,482.05c2.03,6.13,6.02,5.16,11.62,5.16,6.27,0,6.08-1.22,3.26-5.93-2.6.31-8.49.91-14.88.78Z" style="stroke-width:0px;fill:#484136"/><path d="m107.55,487.2h10.66c1.93,0,1.84-2.72,1.31-5.91-3.24.26-7.78.42-13.08.01-.03,3.73.26,5.89,1.12,5.89Z" style="stroke-width:0px;fill:#484136"/><path d="m4.02,372.38c2.35-5.89,8.01-23.21,5.66-48.54-2.94-31.64,2.21-33.11,2.21-33.11,0,0,13.98,41.94,53.71,41.94s79.46-8.83,97.12-26.49c17.66-17.66,9.56-50.77,7.36-61.8-2.21-11.04-5.15-25.87,3.68-43.1,8.83-17.23,13.96-67.34,20.05-93.74,6.09-26.41,16-36.79,16-36.79l-4.02-7.7-6.06-11.6c-4.76,9.3-11.13,15.64-11.13,15.64,0,0,.39,12.13,0,22.05-.39,9.92-19.68,81.02-23.54,94.24-3.86,13.23-14.6,47.4-11.16,57.32,3.44,9.92,8.95,9.53,8.4,19.92-.55,10.4-31.96,25.28-31.96,25.28,0,0-12.68,20.94-44.09,20.39-31.41-.55-36.37-20.94-36.37-20.94l-31.42-4.96s-8.65,7.35-9.29-10.38c-3.95,8.91-6.11,18.79-6.11,28.88,0,23.44,3.68,62.86.97,73.5Z" style="stroke-width:0px;fill:#dcb350"/><path d="m4.02,372.38c-.59,1.47-.97,2.23-.97,2.23.39-.45.71-1.21.97-2.23Z" style="stroke-width:0px;fill:#fff"/><path d="m9.16,270h0c.63,17.73,9.29,10.38,9.29,10.38l31.42,4.96s4.96,20.39,36.37,20.94c31.42.55,44.09-20.39,44.09-20.39,0,0,31.41-14.88,31.96-25.28.55-10.39-4.96-10-8.4-19.92-3.44-9.92,7.3-44.09,11.16-57.32,3.86-13.23,23.15-84.33,23.54-94.24.39-9.92,0-22.05,0-22.05,0,0,6.36-6.35,11.13-15.64l-5.92-11.34s-13.43-2.32-24.47,43.96c-11.03,46.28-37.52,98.51-43.41,102.19-5.89,3.68-17.66,20.6-25.02,31.64-1.55,2.32-4.2,4.12-7.64,5.61-12.89,5.6-36.74,6.85-54.17,14.98-13.41,6.26-23.83,17.71-29.94,31.5Z" style="stroke-width:0px;fill:#ffd86e"/><path d="m9.16,351.85s2.84,11.67,0,20.53-5.24,28.16-5.14,32.56l.1,4.41s-2.2-13.23-3.86-26.46c-1.65-13.23,5.08-38.03,5.08-38.03,0,0-2.71,13.96,3.82,6.98Z" style="stroke-width:0px;fill:#231f20"/><path d="m121.67,482.9c5.8,1.02,13.06.81,18.22.45-.23-.51-.48-1.04-.72-1.59-2.21-4.94-4.13-10.91-4.13-19.38s3.1-81.42,10.46-104.7c7.36-23.28,10.59-32.54,20.89-53,7.4-14.71,2.27-33.05-1.21-42.21,0,0,4.29,29.45-7.29,46.36-11.57,16.91-22.04,19.03-24.25,2.64-1.25-9.31-4.26-21.65-6.47-32.23-.68,1.8-1.14,3.57-1.33,5.27-1.96,17.4,3.43,49.85,2.45,65.53-.98,15.68-6.29,103.12-6.29,112.06,0,8.37-1.37,13.6-.33,20.81Z" style="stroke-width:0px;fill:#dcb350"/><path d="m26.28,330.13c9.81,18.34,7.36,41.39,4.9,50.79-2.45,9.41,5.88,23.85,9.31,34.67,3.43,10.82,13.43,58.38,14.73,67.31.01.07.02.14.03.21,5.07.8,12.29.72,15.84.61-.06-.09-.13-.19-.19-.29-3.92-5.64-22.56-68.19-18.14-97.82s17.19-56.28,15.21-82.77c-1.08-14.42-5.49-24.29-9.29-30.29,0,0,9.36,30.46,0,53.18-9.37,22.73-23.15,1.59-31.41-19.02-8.27-20.61-14.61-19.08-7.86-34.91-14.22,11.76-2.94,39.97,6.87,58.31Z" style="stroke-width:0px;fill:#dcb350"/><path d="m121.67,482.9c.07.48.15.98.24,1.48,1.47,7.99,2.45,5.64,12.11,5.64,8.58,0,7.72-2.63,5.87-6.68-5.16.36-12.42.57-18.22-.45Z" style="stroke-width:0px;fill:#695f4b"/><path d="m55.26,483.11c1.33,8.7,5.89,7.23,12.22,7.23s7.32-1.22,3.63-6.62c-3.55.11-10.78.19-15.84-.61Z" style="stroke-width:0px;fill:#695f4b"/><path d="m127.17,279.24c2.22,10.58,5.22,22.92,6.47,32.23,2.2,16.38,12.68,14.27,24.25-2.64,11.57-16.91,7.29-46.36,7.29-46.36h0c-1.36-3.59-2.47-5.76-2.47-5.76-4.62-12.61-29.31,5.99-35.54,22.53Z" style="stroke-width:0px;fill:#ffd86e"/><path d="m27.27,306.72c8.27,20.61,22.05,41.75,31.41,19.02,9.36-22.72,0-53.18,0-53.18h0c-3.18-5.02-5.92-7.34-5.92-7.34-4.41-8.93-19.13-5.17-33.35,6.59-6.75,15.83-.41,14.29,7.86,34.91Z" style="stroke-width:0px;fill:#ffd86e"/><g style="clip-path:url(#a)"><g><path d="m203.49,63.86c-.34.3-.5.48-.94.54-.56.08-1.29.05-1.82-.12-.68-.22-1.05-.76-1.68-1.06-.7-.33-.73-.48-.67-1.28.03-.52.38-1.07.74-1.47l3.18-.98c.02.07.03.13.05.2,1.21.1,2,1.85,2.14,2.88.1.71-.47.85-.99,1.29Z" style="stroke-width:0px;fill:#a97139"/><path d="m197.15,68.07l1.96-1.22c.42,0,1.06-.13,1.46-.03.55.14,1.55,1.07,1.21,1.7-.34.62-2.09.87-2.68.98-.66.12-1.79.21-2.41.01-.08-.41-.27-1.68.47-1.43Z" style="stroke-width:0px;fill:#a97139"/><path d="m195.32,61.75c.83.61.73,1.65.29,2.39-.47.79-1.46,1.06-1.9,1.97l-1.22-.49s0,.1.01.15c-.62-.79-1.51-1.36-.72-2.39.77-1.01,2.11-2.68,3.54-1.63Z" style="stroke-width:0px;fill:#a97139"/><path d="m195.41,58.39c-.64-.14-1.49.13-1.83-.47-.21-.37-.25-1.68-.07-2.07.84-.03,1.57-1.28,2.41-1.02l1.71,1.47c.69.02,0,1.43-.24,1.68-.58.6-1.21.57-1.99.4Z" style="stroke-width:0px;fill:#a97139"/><path d="m190.05,62.68l-1.96,1.71c-.44-.42-.98-.36-1.18-1.03-.23-.78.14-1.46.39-2.17.29-.83.85-1.29,1.49-1.91.45-.44.8-.65,1.45-.54.47.08,1.3.54,1.5,1,.17.4-.05.57-.21.88-.31.58-.77,1.91-1.47,2.06Z" style="stroke-width:0px;fill:#a97139"/><path d="m198.64,80.94c.38.5.68,1.16.49,1.83-.21.71-.99.74-1.64.73-.73-.01-1.48.02-2.15-.34-.63-.34-.97-.93-1.44-1.44-.72-.79-1.39-1.25-1.42-2.38-.02-.78.42-1.46.51-2.22,0-.17-.02-.33-.03-.5.01-.16.1-.25.26-.29.15-.24.39-.72.74-.68l1.22.73c.94.28.51,2.35,1.32,2.97.72.55,1.53.79,2.12,1.57Z" style="stroke-width:0px;fill:#a97139"/><path d="m191.17,73.71c-1.26.73-1.89-.66-2.57-1.6-.36-.49-.23-1.03-.39-1.59-.2-.7-.17-1.39.37-1.96l1.71-1.22c.94-.21,1.22,1.3,1.66,1.87.45.57.86.94,1.22,1.57.37.64.46.75-.23,1.32-.65.54-1.04,1.19-1.77,1.62Z" style="stroke-width:0px;fill:#a97139"/><path d="m190.04,54.03c0,.56.2.94-.35,1.07-1.3.31-1.77-.8-2.03-1.84-.14-.54-.85-2.93.18-3.07l1.71-.73c.8-.23,1,1.49.88,1.96-.23.92-.41,1.63-.39,2.62Z" style="stroke-width:0px;fill:#a97139"/><path d="m187.82,80.2c.1,1.34.23,2.73.28,4.07.01.4.16,1.39-.12,1.69-.39.41-1.63.3-2.11.25-1.38-.15-2.64-1.17-3.89-1.72-.43-.19-1.01-.36-1.24-.72-.32-.49-.24-1.32-.24-1.87-.01-1.78,1-3.15,1.7-4.73.43-.97.62-2.21,1.24-3.09.27-.38.98-1,2.45.35.06.01.13.02.19.03.29,1.01.79,1.94,1.08,2.94.27.94.59,1.79.67,2.79Z" style="stroke-width:0px;fill:#a97139"/><path d="m184.54,67.1c-.38.08-1.09.06-1.36-.26l-.98-.73c-.3-.42-.77-.49-.93-.98-.1-.3-.14-.93-.06-1.24.26-1.1,1.46-2.49,2.71-2.21.71.16.85.82.95,1.46.16.96.36,2.01.28,2.98-.04.5-.1.86-.61.97Z" style="stroke-width:0px;fill:#a97139"/><path d="m196.9,99.93c-.9-.23-1.59-1.49-2.05-2.21-.56-.88-1.17-1.75-1.56-2.71-.3-.73-.35-1.38-.31-2.24.03-.71.24-1.39.27-2.1.01-.38-.17-1.4-.04-1.81.25-.77,2.97-1.28,3.7-1.18l2.69.98c.94.12,1.27.91,1.42,1.74.46,2.47-.03,5.15-1.28,7.29-.56.96-1.49,2.6-2.84,2.25Z" style="stroke-width:0px;fill:#a97139"/><path d="m185.64,98.44l-2.45,1.71c-.56.01-.8-.11-1.16-.54-.74-.89-1.32-1.62-1.5-2.84-.16-1.05-.06-2.53.48-3.47.3-.52,1.05-1.08,1.43-1.48.73-.74,1.36-1.38,2.3-1.85.79-.4,1.55-.65,2.12.16.45.65,1.2,1.6,1.23,2.41.05,1.19-.84,2.64-1.23,3.74-.16.45-.71,2.04-1.23,2.14Z" style="stroke-width:0px;fill:#a97139"/><path d="m169.58,88.42c-.2-1.02-.34-2.1-.37-3.13-.04-1.17.34-2.14.9-3.15.54-.98.73-1.68,1.87-2.13.91-.36,1.65-.42,2.63-.42l2.69.49c.15.72.38,1.49.59,2.2.28.93.94,1.72,1.11,2.66.14.78.75,1.93.52,2.74-.19.66-1.73,1.14-2.3,1.47-.74.43-1.46.87-2.29,1.11-1.36.39-2.86-.08-4.17-.52-.79-.27-1.04-.5-1.2-1.32Z" style="stroke-width:0px;fill:#a97139"/><path d="m179.73,69.56c.41,1.06-.89,2.81-1.4,3.64-.18.29-.44.78-.72,1.01-.27.22-.23.12-.53.21-1.32.41-2.53,1.25-3.87,1.7-.49.17-1.82.62-2.27.02-2.27-.5-2.34-.51-2.41-.52-.21-.54.23-1.98.44-2.45.26-.59.72-1.16,1.04-1.72.56-.98,1.02-2.02,1.69-2.93.59-.8,1.09-1.76,1.83-2.41.7-.61,1.43-1,2.34-.99.65,0,.69.08,1.07.7.65,1.05,1.38,3.7,2.79,3.74Z" style="stroke-width:0px;fill:#a97139"/><path d="m181.89,59.09c-.3.16-1.52.37-1.4.89l-3.43-.49c.01-1.72.25-3.28,1.51-4.6.39-.41,1.16-1.33,1.75-1.53.47-.16,1.54.28,1.89.57.88.71,2.15,2.35,1.7,3.6-.24.65-1.46,1.26-2.02,1.56Z" style="stroke-width:0px;fill:#a97139"/><path d="m176.57,96.98c.45.14.74,1.19.9,1.6.46,1.16.85,2.26,1.45,3.36.55,1.01.94,1.21.14,1.98-.65.62-1.15,1.35-1.72,2.04-.55.67-1.16,1.3-1.72,1.96-.26.3-.37.53-.77.6-.76.13-2.1-.77-2.61-1.27-.6-.59-.81-1.64-1.07-2.4-.41-1.18-.65-2.3-.71-3.55-.06-1.06-.14-2.1.22-3.09.6-1.65,3.03-2.66,5.88-1.23Z" style="stroke-width:0px;fill:#a97139"/><path d="m194.2,109c-1.21-.42-2.45-1.15-3.42-1.98-.53-.46-1.4-1.11-1.49-1.84-.22-1.67,1.92-4.41,3.65-4.5.82-.04,1.19.78,1.55,1.36.45.71,1.62,1.33,1.44,2.29l1.22,2.69c0,.78.11,1.51-.64,1.98-.69.44-1.58.25-2.31,0Z" style="stroke-width:0px;fill:#a97139"/><path d="m169.74,94.14c.06.45-.57,1.03-.76,1.39-.38.74-.75,1.54-1.01,2.33-.32.96-.35,1.98-.7,2.91-.22.59-.37,1.67-.88,2.06-1.53,1.16-4.17-.64-4.28-2.27-.12-1.72.27-3.13.93-4.7.39-.91,1.14-3.34,2.51-3.3l3.43.49c.27.06.72.78.76,1.08Z" style="stroke-width:0px;fill:#a97139"/><path d="m193.14,117.05c-2.06.42-4.45-.23-6.53-.24-.52,0-1.06.06-1.57.02-.68-.05-1.2-.16-1.53-.75-.79-1.43-1.59-2.88-2.28-4.36-.26-.56-.94-1.44-.73-2.12.26-.86,1.68-1.38,2.32-1.98.85-.8,2.53-2.39,3.73-1.27.38.36.71.75.99,1.18.31.47.77.76,1.05,1.28.26.47.45.97.77,1.41.55.75,1.35.74,2.2.97.62.17,1.2.46,1.82.61.25.06.91.04,1.11.17.43.3.12.63-.04.94,1.5,2.45.04,3.87-1.31,4.15Z" style="stroke-width:0px;fill:#a97139"/><path d="m166.4,108.02c.88-.4,2.36-1.38,3.05-.31.55.84.63,1.7.9,2.64.13.45.62,1.1.56,1.56-.08.66-1.27,1.43-1.67,1.95-.49.62-.88,1.02-1.49,1.5l-.49,2.2c-.51.3-.57,1.05-.97,1.48-.39.41-.76.8-1.13,1.22-.54.62-1.13.79-1.94.93-.43.07-1.29.21-1.7.03-.36-.16-.32-.37-.37-.71-.22-1.55-.57-3.09-.88-4.63-.19-.95-.61-2.25-.38-3.23.12-.53.61-.67.96-1.03.55-.56,1.17-.93,1.85-1.37,1.22-.78,2.37-1.62,3.7-2.21Z" style="stroke-width:0px;fill:#a97139"/><path d="m181.72,128.43c-.58.94-1.32,1.91-2.01,2.79-1.11,1.41-2.24,2.19-3.89,2.82-.6.23-1.29.78-1.98.7-1-.12-1.98-1.41-2.45-2.14-.56-.88-.99-1.83-1.45-2.76-.33-.67-.91-1.28-1.14-1.99-.43-1.34-.02-3.13.5-4.37.68-1.61,1.6-3.09,2.38-4.64.33-.66.44-1.69.85-2.26.27-.37.97-.63,1.38-.79.57-.22.73-.19,1.18-.72.29-.34.49-.86.88-1.07.28-.15,1.23-.24,1.57-.13.48.16.38.75.62,1.1.11.16.3.19.42.36.22.35.27.93.46,1.31.67,1.32,1.78,2.38,2.5,3.65.27.47.55,1.51,1.13,1.69l-.73,2.69c-.04,1.42.56,2.46-.24,3.77Z" style="stroke-width:0px;fill:#a97139"/><path d="m160.4,127.48c.42-.26.97-.06,1.48-.13.46-.06.71-.26,1.21-.25.5,0,1.29-.11,1.68.29.22.22.27.73.47,1,.22.3.56.53.77.82.39.54.52,1.22.75,1.86.43,1.21,1.06,2.37,1.81,3.41.51.7.5.99.16,1.68-1.66,1.71-2.03,2.26-2.38,2.46-.36.2-.76.31-1.13.47-.77.32-1.3.46-2.14.5-1.17.06-2.26.28-3.41.5-.81.17-1.63.26-2.47.25-.36-.01-.72-.01-1.08,0-.5-.18-.39-.08-.61-.8-.45-1.46-1.04-3.07-1-4.62.02-.7.34-1.24.48-1.84.1-.43-.04-.6.29-1.01.37-.47.98-.81,1.4-1.24.73-.75,1.58-1.38,2.4-2.03.24-.19.49-.38.72-.58.21-.19.4-.61.61-.73Z" style="stroke-width:0px;fill:#a97139"/><path d="m191.29,131.03c-1.07-1.36-2.34-2.77-3.16-4.3-.52-.97-1-1.96-.6-3.04.41-1.11,1.12-1.95,2.15-2.56.93-.55,1.95-1.11,2.92-1.59,2.63.63,3.25,1.11,3.52,1.48.82,1.09.58,2.79.4,4.03-.21,1.41-.66,2.8-1.17,4.13-.36.93-.91,2.2-1.9,2.67-1.03.49-1.53-.02-2.15-.81Z" style="stroke-width:0px;fill:#a97139"/><path d="m192.66,119.49s-.05.03-.08.04c-.03,0-.06-.01-.09-.02.06,0,.11-.01.17-.02Z" style="stroke-width:0px;fill:#a97139"/><path d="m181.21,145.57c-1.26-.46-2.56-1.02-3.85-1.32-1.08-.25-2.15-.83-2.62-1.93-.34-.81-.02-.75.55-1.07.64-.35,1.15-.84,1.46-1.48.15-.3.24-.76.48-.99.12-.12.3-.1.41-.19.14-.13.23-.31.37-.47.63-.71,1.69-1.31,2.46-1.89,1.22-.92,2.3-2.1,3.59-2.9.41-.25,1.24-.84,1.77-.56.13.07.21.28.33.37.22.18.55.28.8.43.85.52,1.89.71,2.69,1.34.48.37,1.51,1.26,1.37,1.97l2.45,4.16c-.02,1.04-.11,2.05-.47,3.04-.82,2.21-3.39,3.36-5.58,3.36-2.13,0-4.25-1.19-6.2-1.91Z" style="stroke-width:0px;fill:#a97139"/><path d="m163.36,144.74c.8,0,1.23-.06,1.94-.42.78-.4,1.4-1.15,2.21-1.42.48-.16.99-.18,1.47,0,.41.16.71.64,1.17.65.17,1.2.82,2.32.99,3.56.11.83.04,1.69.04,2.53-.17,2.58-.43,2.84-.5,3.18-.06.31.14.69-.02.99-.13.24-.49.45-.66.67-.87,1.17-1.9,2.05-2.94,3.08-.62.62-1.19,1.31-2.02,1.67-.68.29-.88.14-1.51,0-.31-.06-.65.05-.94-.08-.45-.5-.86-1.04-1.23-1.6-.52-.7-1.11-1.32-1.79-1.87-1.2-.99-2.37-1.72-3.44-2.88-.84-.91-1.57-2.03-2.62-2.72-.87-.57-1.45-1.28-1.84-2.31-.45-1.19.39-1.75,1.08-2.59.52-.63,1-.46,1.76-.46,2.95,0,5.89,0,8.84,0Z" style="stroke-width:0px;fill:#a97139"/><path d="m151.43,141.98c-.67.42-1.35.87-2.05,1.24-.76.4-1.24.79-1.93,1.26-.31.21-.63.39-1.03.29-1.14-.28-.65-2.68-.54-3.44.2-1.48.65-2.98,1.12-4.4.16-.49.8-1.4,1.4-1.24l2.69.24c.02-.07.04-.15.05-.22.28.06.3.33.41.58.18.43.28.8.52,1.23.35.62.62,1.39.75,2.09.07.4.04,1.17-.14,1.47-.18.31-.98.74-1.25.91Z" style="stroke-width:0px;fill:#a97139"/><path d="m183.06,159.79c-1.18.68-1.84,1.19-3.06.57-.5-.26-.99-.52-1.47-.8-.39-.23-.91-.42-1.24-.79-.42-.47-.73-1.23-.95-1.86-.3-.84-.46-1.69-.87-2.49-.18-.35-.46-.72-.55-1.1-.13-.49-.33-1.13-.28-1.61.06-.52.43-1.36.78-1.77.43-.49.85-.18,1.41-.28.36-.07.6-.25.98-.27.34-.02.68,0,1.02,0,.8,0,1.6,0,2.4,0,.63,0,1.17-.06,1.72.3.43.28.5.42,1.03.44.37.01.75,0,1.13,0,.61,0,3.38-.26,2.99.98.74,2.86.92,3.76.76,4.4-.19.78-1.24,1.53-1.85,1.95-1.25.86-2.62,1.57-3.93,2.33Z" style="stroke-width:0px;fill:#a97139"/><path d="m160.61,165.51c.62-.31,1.1-.78,1.65-1.17.42-.29,1.69-.45,2.17-.23.19.09.67.5.83.69.14.18.17.54.27.74.25.51.68.93,1.01,1.39.45.61.98,1.38,1.17,2.12.14.54.15,1.19.25,1.75.17,1-.17,1.9-.21,2.87-.01.33.2.9-.24.96-.63,3-3.01,2.21-3.39,2.19-.79-.04-1.52-.1-2.28-.27-.65-.14-1.2-.72-1.83-.95-1.07-.4-2.21-.57-3.28-1.01-1.38-.56-2.08-1.64-3.28-2.41-.41-.26-.89-.38-1.28-.66.34-.87.42-1.91,1.25-2.41.9-.54,1.71-1.1,2.63-1.58.79-.41,1.62-.72,2.41-1.11.7-.34,1.48-.58,2.16-.92Z" style="stroke-width:0px;fill:#a97139"/><path d="m150.16,154.1c.07-.02.13-.03,1.42-1.27.01-.07.03-.15.04-.22.3-.07.94.58,1.15.74.83.65,1.68,1.39,2.44,2.12.86.83,1.61,1.38,1.99,2.51.12.34.24.61.25.97.02.35.13.53.18.79.11.52.17,1.2-.14,1.65-.42.61-1.56,1.09-2.2,1.43-.39.21-1.1.64-1.55.75-.92.21-1.32-.6-1.61-1.36-.77-2.02-1.26-4.18-1.98-6.23-.12-.34-.37-.83-.31-1.2.04-.26.29-.38.31-.68Z" style="stroke-width:0px;fill:#a97139"/><path d="m182.69,182.29c-.47-.04-1.3-.95-1.73-1.22-.91-.58-2.1-1.33-3.12-1.72-.44-.17-.96-.22-1.34-.48-.25-.18-.55-.9-.63-1.05-.59-1.06-1.18-2.12-1.76-3.19-1.2-2.22-2.15-4.47-2.62-6.98-.13-.67-.28-2.03-.06-2.72.26-.83,1.83-2.24,2.78-2.04.93.2,1.66.77,2.35,1.43.36.34.61.8.97,1.12.37.32.59.21.97.18.93-.08,1.87-.46,2.78-.65,1.07-.22,2.76-.7,3.83-.35,0,.07.01.13.02.2l1.47,2.45c.92.7,1.26,1.79,1.24,2.92-.06,2.49-.75,5.13-1.75,7.4-.59,1.35-1.2,2.77-2.19,3.87-.29.33-.7.87-1.22.82Z" style="stroke-width:0px;fill:#a97139"/><path d="m146.8,149.6c.32,1.08.4,2.38.39,3.49-.02,2.06-.17,4.05.66,5.97.27.64,1.05,1.94.79,2.68-.14.41-.64.83-.9,1.18-.62.82-1.31,1.71-2.32,2.1-.59.22-1.39.22-2.02.34-1.78.33-3.43.91-5.25.94-.37,0-1.2.08-1.46-.26-.18-.24-.05-1.49-.04-1.68.03-.87.15-1.78.35-2.62.47-1.97,1.21-3.88,1.81-5.82.43-1.38.95-2.67,1.63-3.95.29-.54.41-.85.93-1.15.36-.21.77-.85,1.17-.93l2.94-1.22c.83.03,1.04-.07,1.34.93Z" style="stroke-width:0px;fill:#a97139"/><path d="m174.12,202.31c-.57,0-1.59.19-2.16-.04-.41-.17-.68-.75-1-1.06-.96-.91-1.69-2.26-2.2-3.48-.26-.64-.4-1.03-.78-1.57-.21-.3-.51-.58-.51-.98,0-.43.29-.64.55-.98.86-1.14,1.87-2.06,2.86-3.09,1.77-1.84,2.98-4.14,5.25-5.47.94-.56,2.12-1.36,3.18-1.59.71-.15,2.11-.27,2.65.38l1.96,3.92c.78-.25.77,1.25.71,1.71-.34,2.64-.54,5.14-1.85,7.52-.98,1.77-1.82,3.5-3.82,4.24-1.55.57-3.21.5-4.84.49Z" style="stroke-width:0px;fill:#a97139"/><path d="m170.22,183.03c.23.3.54.7.52,1.1-.03.59-1.42,3.24-2.25,3l-.98,1.22c-.64.82-1.94.97-2.9.98-.63.01-1.47.13-2.01-.28-.79-.6-.52-2.26-.47-3.08.1-1.59.42-3.39.76-4.96,1.45-.23,3.02-.25,4.5-.26.68,0,.98.16,1.46.65.46.48.97,1.09,1.38,1.62Z" style="stroke-width:0px;fill:#a97139"/><path d="m141.76,173.49c.51.73.64,1.2.3,2-.55,1.31-.86,2.78-1.5,4.04-.69,1.36-1.96,1.23-3.22,1.7-2.38.88-4.62,2.07-6.93,3.09-.98.44-2.67,2.06-3.69.97-.71-.76-.62-1.69-.63-2.66-.02-2.22.7-4.01,1.5-6.08.54-1.39,1.03-2.68,1.93-3.88.43-.58.84-1.17,1.24-1.77.6-.91,2-2.03,5.39-2.14.68-.05.99.17,1.59.54,1.71,1.06,2.88,2.56,4.02,4.2Z" style="stroke-width:0px;fill:#a97139"/><path d="m150.13,175.66c1.36-.28,1.94.48,2.96,1.17.51.34.91.48,1.34.94.17.18.21.31.45.42.42.2.95.1,1.37.35.41.24.63.72,1.09.99.37.22.95.29,1.12.7.1.24-.02.8-.02,1.06,0,.72.09,1.48-.02,2.19-.07.46-.19,1.07-.72,1.19-2.81,1.71-3.98,1.85-5.01,1.5-1.04-.35-1.94-.94-2.93-1.44-1.06-.54-2.74-.79-3.36-1.89-.75-1.34-.8-4.19.03-5.53.59-.95,2.63-1.43,3.7-1.65Z" style="stroke-width:0px;fill:#a97139"/><path d="m170.22,205.97c.01.68-.11.82.46,1.23.48.34,1.34,1.49,1.97,1.48l.73,2.94c1.75,1.8-.05,4.49-1,6.28-.3.92-.88,1.58-1.75,1.98-.49.05-.99.1-1.48.15-1.32.08-2.51.02-3.57-.78-.48-.36-1.01-.74-1.27-1.29-.33-.68-.48-1.28-.98-1.89-.86-1.05-1.76-2.05-2.56-3.15-.8-1.08-1.97-2.43-2.52-3.68-.33-.74-.23-1.53-.53-2.26-.21-.53-.49-.61-.4-1.13.05-.29.33-.55.39-.86.06-.27.04-.45.17-.73.29-.63.57-1.01.56-1.72,0-.76.13-.68.74-1.1.87-.6,1.67-.95,2.68-1.33,1.55-.58,3.51-2.46,5.04-.88.59.61,1.15,1.19,1.51,1.98.67,1.49,1.77,3.07,1.8,4.75Z" style="stroke-width:0px;fill:#a97139"/><path d="m126.79,189.82c.14.59.27.95.54,1.51.43.9.87,1.43,1.47,2.21.17.22.9.92.97,1.2.1.37-.05.4-.21.69-.8,1.4-1.37,2.58-2.52,3.75-1.08,1.09-1.49,2.45-2.35,3.67-.21.3-.61.79-.95.96-.9-2.35-1.59-4.71-2.1-7.17-.28-1.33-1-2.46-1.32-3.78-.32-1.32-.69-2.74.07-3.96.4-.65,1.14-1.72,3.51-2.26.43-.14.51.19.74.47.45.54,1.09.87,1.5,1.46.26.37.54.82.64,1.26Z" style="stroke-width:0px;fill:#a97139"/><path d="m152.36,192.31c.13-.18.94-.22,1.13-.28.47-.16.62-.42,1.03-.69.4-.27,1.09-.83,1.53-.98.54-.19,1.33-.05,3.38-.05.48-.1.69.17.96.52.59.74,1.21,1.5,1.77,2.26.67.92.64,2.51.43,3.6-.73.09-1.37-.02-2.11.2-1.3.38-2.18,1.38-3.33,2.03-1.3.74-2.78,1.1-4.02,1.92-.44.29-.93.54-1.35.86-.33.24-.65.82-1.11.57-.44-.24-.31-.8-.31-1.22,0-1.7.16-3.29.48-4.96.05-.7.26-1.34.62-1.93.28-.32.56-.63.85-.94.08-.28-.12-.66.05-.9Z" style="stroke-width:0px;fill:#a97139"/><path d="m133.88,190.13c-.1-.15-.12-.37-.23-.5-.16-.21-.52-.34-.64-.61-.54-1.27.79-2.08,1.84-2.34.66-.17,1.18-.27,1.83-.54.65-.27,1.33-.48,1.98-.73.77-.3,2.86-1.06,3.12-1.97,1.61,1.55,2.23,2.2,2.44,2.69.18.44.31.55.69.92.43.43.67.9,1.04,1.36.25.32.39.41.5.76.1.35.02,1.06,0,1.41-.03.74-.27,1.41-.26,2.16,0,.51.06.81-.23,1.24-.61.91-1.91,1.46-2.84,1.82-1.57.61-2.93,1.38-4.2,2.51-.41.36-2.1,2.61-2.82,2.33-.52-.2-.62-1.73-.7-2.2-.06-.41-.13-.77-.21-1.18-.05-.22-.18-.49-.21-.66-.16-.77-.08-1.58-.24-2.38-.18-.88.16-1.87-.04-2.73-.12-.51-.53-.96-.81-1.39Z" style="stroke-width:0px;fill:#a97139"/><path d="m168.92,248.67c-1.31.44-3.39-.49-4.46-1.19-.47-.31-.78-.75-1.25-1.05-.58-.36-.97-.4-1.39-.98-.26-.49-.46-1-.6-1.54-.54-1.4-1.11-2.8-1.69-4.18-.86-2.05-1.72-3.95-3.05-5.74-.66-.89-1.41-1.6-1.47-2.69-.1-1.89-.34-3.78-.38-5.67-.04-2.2-.12-4.47,0-6.67.04-.76.28-1.97.72-2.57.72-.98,1.4-.75,2.21-.11,1.45,1.13,2.46,2.7,3.74,4.01.76.78.99,1.74,1.84,2.42,1.37,1.1,3.11,1.95,4.75,2.51.98.33,5.27,3.44,3.65,4.4.71,3.62,1.31,3.93,1.51,4.93.35,1.71.66,3.6.7,5.35.05,1.89-.5,3.56-1.47,5.19-.74,1.25-1.89,3.08-3.37,3.57Z" style="stroke-width:0px;fill:#a97139"/><path d="m148.39,207.42c.71.62,1.23.76,1.76,1.62.42.69.46,1.23.45,2.02v.19c0,1.78.69,6.63-.34,8.16-.73,1.08-1.71,2.62-2.97,3.17-1.57.69-3.18.27-4.77-.08-1.42-.32-2.55-.91-3.86-1.49-.66-.29-1.34-.34-1.98-.56-1.44-.49-1.16-2.21-1.15-3.56.02-2.61-.05-5.23,0-7.84.02-.8.05-1.28.61-1.86.84-.87,1.8-1.85,2.68-2.68.82-.76,1.86-1.84,2.85-2.36.84-.44,1.77-.44,2.68-.44.21,0,.95-.1,1.13-.03.48.21.19.25.32.72.44,1.54,1.29,3.9,2.58,5.03Z" style="stroke-width:0px;fill:#a97139"/><path d="m116.41,209.27c-.24.52-.5,2.02-1.08,2.35-.3.17-.98,0-1.31,0-2.33.01-2.83-1.28-3.82-3.26-.62-1.26-1.59-2.71-1.81-4.14-.15-.94-.25-1.93-.38-2.88-.15-1.08.44-1.49,1.13-2.26.61-.69,3.09-4.54,7.29-4-.06-.24-.03-.48.07-.7.51.1.62.82.82,1.28.45,1.05,1.25,2.28,1.36,3.43.08.83-.05,1.73-.04,2.57.05,2.64-1.16,5.25-2.23,7.61Z" style="stroke-width:0px;fill:#a97139"/><path d="m124.53,210.78c.75-.63,1.46-1.4,2.5-1.43.05-1.23,1.8-1.92,2.76-2.09,1.17-.2,1.61-.26,1.89.87.38,1.53.18,3.32.18,4.92,0,.85.24,2.11-.06,2.92-.1.02-.2.04-.3.06l1.39,5.22c.39.42.86,1.08,1.03,1.41.38.75.07.8-.31,1.34-.39.55-.62,1.03-1.19,1.41-.44.3-1.15.68-1.66.83-.58.17-1.29.1-1.87,0-1.3-.25-2.5-.29-3.83-.29-1.87,0-3.5-.08-5.27-.42-.15-.95-.68-1.72-.8-2.7-.23-1.83.01-3.85.01-5.7,0-.53-.17-1.43.05-1.94.28-.67,1.34-1.18,1.85-1.72,1.01-1.08,2.49-1.73,3.63-2.7Z" style="stroke-width:0px;fill:#a97139"/><path d="m110.59,215.43c.13.42.35.78.65,1.1.05.42-.06.5-.22.91-.75,1.93.08,4.15-.82,5.95-.22.44-.56,1.17-.97,1.48-.39.3-.91.18-1.27.42-.34.22-.3.59-.7.7-.7.19-1.14-.42-1.56-.84-1.86-1.86-4.03-3.27-5.75-5.28-.65-.76-1.04-.98-1.19-1.89-.16-.92-.03-2.2.35-3.04.45-.99,1.11-1.86,1.54-2.87.41-.98.58-2.08,1.07-3.01l4.04-1.84c.04,1.06.95,2.33,1.44,3.2.67,1.17,1.43,2.28,2.26,3.35.47.49.84,1.05,1.11,1.67Z" style="stroke-width:0px;fill:#a97139"/><path d="m151.22,225.94c-.08,0-.17,0-.25,0h0c.08,0,.17,0,.25,0Z" style="stroke-width:0px;fill:#a97139"/><path d="m135.56,229.69c.47-.47.93-.53,1.47-.88.18-.17.33-.36.44-.58.19-.06.37-.11.56-.15.64-.53.96-.86,1.92-.67.43.08.75.33,1.18.41.53.1,1.21-.02,1.75-.02.96,0,1.71.01,2.61-.27,1.11-.35,2.27-.41,3.37-.82.68-.26,1.37-.68,2.11-.74l1.18,4.13c-.04-.29-.05-.58-.02-.87.99.33,0,2.99-.15,3.74-.15.74-.24.47.11,1.18.82,1.71,2.4,2.96,3.29,4.57.5.9.15,1.05-.01,2.04-.1.64-.04,1-.34,1.65-.19.41-.64,1.39-1.02,1.68-.36.28-.78.29-1.2.47-.95.41-1.93.92-2.94,1.17-2.17.52-4.67.5-6.9.83-1.22.18-4.63,1.14-5.7.04-.46-.47-.71-2.03-1.01-2.66-.25-.53-.36-.84-.73-1.26-.79-.9-.75-1.21-.73-2.49.02-1.26-.05-2.43-.35-3.65-.29-1.16-1.2-2.79-1.16-3.99.04-1.2,1.46-2.03,2.26-2.83Z" style="stroke-width:0px;fill:#a97139"/><path d="m106.81,232.77c.11-.84.07-1.31.43-2.03.48-.95,1.26-1.02,2.38-1.31.89-.24,1.22-.38,2.01-.9.77-.51,3.02-1.18,2.97-2.21,2.67,1.86,2.77,1.88,2.87,1.91.04.58.47.93.88,1.29.9.79,1.36,1.88,1.68,3.08.68,2.57,1.21,6.28-.65,8.43-.98,1.14-2.3,1.89-3.35,2.96-1.31,1.33-3.19,4.05-5.12,4.41-.92.17-1.11-.3-1.63-.93-.94-1.15-1.83-2.35-2.7-3.55-.62-.84-1.28-1.05-1.08-2.08.04-.23.25-.47.29-.81.03-.3,0-.63,0-.93,0-2.52.71-4.83,1.03-7.33Z" style="stroke-width:0px;fill:#a97139"/><path d="m101.38,226.68c.24.3.85.77,1.03,1.09.23.4.12,1.63.1,2.08-.06,1.77-.89,3.44-1.11,5.14-.08.59,0,1.21-.02,1.8-.02.78.06.8-.71.92-.9.14-1.98,0-2.9,0-.53,0-1.23-.13-1.73-.01-.59.14-.79.35-1.45.38-1.29.07-2.29-.09-3.49-.38-.6-.14-1.23-.22-1.84-.44-.62-.23-1.1-.62-1.78-.72-.17-.91-.5-1.58-.8-2.49-.22-.65-.2-1.47-.57-2.04-.22-.34-.66-.54-.83-.92-.24-.54-.15-2.02-.02-2.54.22-.85.85-1.61,1.22-2.4.32-.67.57-1.34.95-1.98.49-.81,1.09-1.79,1.92-2.3.57-.35,1.19-.32,1.76-.52.42-.15.83-.4,1.24-.6,1-.49.82-.27,2.8-.32.74-.03,1.1,1.27,1.46,1.76.48.64,1.1,1.17,1.66,1.73.99,1,2.29,1.72,3.13,2.76Z" style="stroke-width:0px;fill:#a97139"/><path d="m130.34,236.18c-.46.02-.65.25-1.01.42-.6.29-1.02.42-1.69.56-.9.19-1.82.67-2.76.55l-1.47-1.1c-1.86-.44-.38-4.2.28-5.15.65-.95,1.44-.73,2.51-.73,1.5,0,3.11.02,4.54.4-.02.97-.34,1.9-.34,2.92,0,.61.14,1.54-.06,2.12Z" style="stroke-width:0px;fill:#a97139"/><path d="m88.85,244.67c.2-.88.99-1.78,1.49-2.56.79-1.25,1.71-.46,2.85.02,1.23.52,2.16.4,3.38.07.99-.27,2.01.13,2.88-.53.64-.49.77-.96,1.64-.4.77.49.35.93.69,1.6.34.67,1.37,1.16,1.82,1.84.74,1.1.41,3.61,1.81,4.03.73,2.71.79,3.18.65,3.68-.17.64-.16,1.09-.27,1.75-.2,1.25-1.31,2.4-2.13,3.28-.8.86-1.3,1.87-2.27,2.6-.97.73-2.08,1.27-3.07,1.97-1.73,1.23-2.7,2.98-4.29,4.31-.73.61-2.67,2.06-3.75,1.92-.74-.1-.58-.11-.77-.83-.38-1.47-.52-2.85-.74-4.37-.39-2.75-1.15-5.43-1.83-8.1-.38-1.49-1.65-2.45-.76-4.04.54-.96,1.27-1.82,1.72-2.88.25-.59.72-1.31.89-1.9.15-.5-.06-.98.05-1.47Z" style="stroke-width:0px;fill:#a97139"/><path d="m81.66,236.23c-1.34.92-2.97,1.66-4.54,2.04-1.19.29-2.79.74-4.03.57-1.41-.19-2.56-2.07-2.99-3.35-.59-1.76-.11-3.55.82-5.22,1.19-2.13,3.14-3.72,5.27-4.73.76-.36,1.34-.77,2.19-.71,1.72.12,1.74,1.83,3.5,1.13.02,2.46.38,4.85.37,7.31,0,1.06.36,2.31-.6,2.97Z" style="stroke-width:0px;fill:#a97139"/><path d="m132.24,241.9c.53.79.57,1.92.72,2.81.12.75.89,1.43.74,2.18-.38,3.7-.35,4.66-.98,5.33-.67.71-1.96,1.77-2.88,2.17-2.08.93-4.43,2.39-6.74,2.75-.87.13-2.12.25-2.97.06-.5-.11-.92-.39-1.45-.45-.14-1.19-.66-2.54-1.25-3.62-.25-.46-.54-.78-.66-1.26-.14-.58.21-.97.3-1.38.13-.6,0-.99.35-1.49.24-.35.68-.58.97-.86,1.1-1.02,2.41-1.7,3.02-3.11.22-.51.62-.95.82-1.47.12-.29.07-.62.23-.91.21-.38.6-.71,1.02-.82.56-.15,1.14-.12,1.72-.26,1.21-.3,2.63-.54,3.88-.57,1.25-.03,2.38-.23,3.14.9Z" style="stroke-width:0px;fill:#a97139"/><path d="m171.85,264.13c-.81-1.5-2.01-2.05-3.21-3.1-1.24-1.08-.39-2.75-.39-4.14,0-.72-.12-1.01.37-1.61.94-1.15,2.58-1.59,3.64-2.62.28-.28,2.46-3.43,2.6-2.09,4.16,1.26,4.19,2.33,4.4,2.92.3.86.39,1.44.39,2.38-.02,2.7-.08,5.36-.26,8.06-.19,2.74-.12,6.51-1.61,8.96-.24.4-.53.92-1.1.86-1.87-.18-2.02-3.68-2.53-4.92-.64-1.57-1.49-3.22-2.3-4.71Z" style="stroke-width:0px;fill:#a97139"/><path d="m161.56,261.23c-.19.64-.58,1.36-.87,1.97-.79,1.66-3.51,3.64-5.29,3.9-1.15.17-2.42,0-3.57.01-.45,0-1.16.17-1.59-.02-.47-.21-1.12-1.54-1.44-1.93-1.16-1.37-1.71-3.07-2.59-4.61-1.03-1.79-2.71-2.93-2.6-5.03.05-.88.83-3.23,1.85-3.53.31-.09.78.1,1.11.06.43-.05.5-.23.81-.29.33-.07.72.02,1.04-.06.36-.1.56-.42.91-.58.55-.26,1.11-.1,1.68-.19.66-.1,1.17-.5,1.78-.72.86-.32,1.75-.34,2.56-.8.9-.51,1.65-1.33,2.79-1.04.62.16,1.42.4,1.98.72,1.06.62,2.52,1.22,3.37,2.15,1.12,1.22-.92,3.43-1.14,4.86-1.13,2.93-.63,4.55-.81,5.14Z" style="stroke-width:0px;fill:#a97139"/><path d="m125.08,266.89c-.81-.55-.59-1.74-.57-2.62.02-.72.1-1.97.45-2.6.64-1.15,2.87-1.11,2.93-2.58,1.42-.19,2.67-1.13,4.07-1.63,1.82-.66,3.28-1.82,5.05-2.62,3.28-1.48,4.04,5.52,4.04,7.5-1.47,4.05-2.26,5.21-4.04,5.53-1.64.29-3.56-.02-5.22-.02-2.17,0-4.79.35-6.71-.95Z" style="stroke-width:0px;fill:#a97139"/><path d="m165.28,281.46c-.37-1.75.17-4.07.49-5.76.23-1.17.25-2.2.26-3.39,0-.55-.03-1.34.26-1.85.62-1.07,2.47-2.41,3.8-1.84,1.37.59,2.06,3.61,2.48,4.78.4,1.12,1.21,1.26,1.19,2.52l.73,5.51c-.81,1.5-1.98,6.67-4.75,4.82-.97-.65-2.14-1.75-2.91-2.62-.47-.54-1.39-1.42-1.55-2.18Z" style="stroke-width:0px;fill:#a97139"/><path d="m159.78,275.73c-.21.69-.28,1.41-.46,2.1-.2.78-.53,1.14-1,1.77l-1.47,3.67c-.66.49-1.05,1.05-1.63,1.64-1.12,1.14-1.62,1.52-3.25,1.32-.83-.1-1.61-.48-2.29-.97-.98-.7-.8-1.59-1.22-2.61-1.12-2.75-4.03-3.1-3.18-6.33.4-1.51,1.45-4.51,3.28-4.82.63-.11,1.37.05,2,.03,1.22-.05,2.41-.31,3.64-.37,1.64-.08,3.18-.73,4.84-.21.54.17,1.3.37,1.5.91.14.4.02,1.29-.04,1.71-.11.75-.51,1.43-.73,2.16Z" style="stroke-width:0px;fill:#a97139"/><path d="m83.63,249.08c-.09,0-.18.01-.27.02l-2.2,1.1c-.57.76-2.7.37-3.51.37-.83,0-1.58.2-2.18-.36-.39-.37-.68-1.54-.91-2.06-.41-.92-1.35-2.56-1.12-3.61.25-1.12,1.32-.9,2.4-1.15,2.26-.53,4.52-1.83,6.66-2.77.78-.34,1.56-.59,2.36-.08,3.08,1.94-.79,6.26-1.22,8.54Z" style="stroke-width:0px;fill:#a97139"/><path d="m116.88,281.46c-.52.07-.9.01-1.28-.29-.56-.44-.58-1.28-.79-1.9-.36-1.05-1.33-2.24-1.35-3.39,0-.6.21-.94.56-1.41.49-.66,1.09-1.77,1.74-2.26.71-.54,1.77-.72,2.36-1.44.49-.59.67-1.48.8-2.22.19-1.06.07-1.52,1.09-2.14.25-.15,1.21-.65,1.49-.39.25.22.43,1.64.52,1.97.3,1.1.61,2.22.66,3.36.07,1.69.35,6.71-1.85,7.13l-2.2,2.2c-.62,0-1.08.66-1.75.76Z" style="stroke-width:0px;fill:#a97139"/><path d="m157.52,293.65c-1.64-2.13.24-4.19,1.34-6.14.51-.91,1.83-2.65,2.98-2.78,1.02-.12,2.06,1.55,2.72,2.2,1.01,1,2.22,1.86,2.22,3.29,0,.64.43,3.58-.74,3.34l-1.84,2.2c-.6.56-1.71,1.2-2.56,1.13-1.44-.11-3.28-2.18-4.11-3.25Z" style="stroke-width:0px;fill:#a97139"/><path d="m140.51,285.87c-.85.17-1.99-.03-2.86-.03-1.7,0-2.65-.17-4.29-.8-1.09-.42-3.29-1.14-3.71-2.33-.18-.51-.05-1.54.08-2.06.39-1.55.83-2.96,1-4.58.08-.84-.03-2.06.74-2.64.57-.44,1.68-.48,2.34-.72.5-.18,1.03-.41,1.55-.47.54-.06,1.11.05,1.65.02.67-.04,1.18-.34,1.85-.39.83-.06,1.73-.02,2.56,0,.89.03,1.07.22,1.1,1.11.08,1.95,0,3.92,0,5.88v3.67c-.5,1.05-.73,3.08-2.02,3.34Z" style="stroke-width:0px;fill:#a97139"/><path d="m151.34,299.44c-.02.1-.04.2-.06.3-1.04.3-2.32-.22-3.22-.74-.92-.54-2.13-.99-2.72-1.85-.37-.54-.56-1.16-.64-1.79-.34-2.78.75-7.67,4.44-5.76.97.5,1.49.66,2.57.64.85-.02,1.85.18,2.5.81.79.77.44,2.41.44,3.33,0,1.18-.29,2.02-.43,3.14l-.31.06-2.57,1.84Z" style="stroke-width:0px;fill:#a97139"/><path d="m130.06,297.07c.13-1.1.52-2.12,1.12-3.05.34-.53,1.41-2.2,2.08-2.55.65-.35,1.29-.05,1.9.17,1.01.36,1.89,1,2.92,1.36.63.22,1.64.19,1.88.92.27.8-.27,1.99-.36,2.74-.07.52.29,1.96-.4,2.05l-.37,1.84c-2.53,0-9.24.46-8.78-3.48Z" style="stroke-width:0px;fill:#a97139"/><path d="m123.41,291.72c.31-1.07-.51-.57-.93-.72-.48-.17-.43.01-.56-.55-.17-.77.41-1.66.75-2.3.74-1.42,1.41-3.71,2.87-4.63,1.94-1.22,1.55,2.01,1.55,3.08,0,.7.14,1.52-.07,2.19-.23.7-.83.78-1.4,1.1l-2.2,1.84Z" style="stroke-width:0px;fill:#a97139"/><path d="m126.42,310.4c-.34-1.03-.06-2.69-.06-3.77,0-1.61,0-3.23,0-4.84,0-.84-.17-1.88.07-2.69.6.3,1.2.6,1.75,1.06.69.56.86,1.08,1.27,1.83.4.72,1.08,1.36,1.26,2.18.24,1.08.16,2.63-.22,3.64-.29.78-.77,2.45-1.57,2.66h-2.2c-.1-.02-.2-.04-.3-.06Z" style="stroke-width:0px;fill:#a97139"/><path d="m158.34,307.35c.55-1.35,1.06-3.01,2.74-2.25.6.28,2.37,2.05,2.34,2.71,0,.01-.85,1.11-.75.97-.44.63-.99,1.56-1.71,1.92-.02-.08-.04-.16-.06-.24l-2.2.37c-1.45.15-.57-2.95-.35-3.48Z" style="stroke-width:0px;fill:#a97139"/><path d="m141.48,306.02c-.76-1.95,1.08-5.51,3.43-4.57.41.16,1.6.79,1.72,1.27.09.37-.88,1.52-.99,1.71-.31.54-.4.88-.91,1.27l-2.94.37c-.1-.01-.2-.02-.3-.04Z" style="stroke-width:0px;fill:#a97139"/><path d="m155.39,322.65c-.25-.77.13-1.24.57-1.79.79-.97,2.49-4.11,3.7-1.93.49.89.52,1.93.5,2.92l-1.47,2.94c.02.08.04.16.06.24-.89-.97-2.9-.96-3.37-2.38Z" style="stroke-width:0px;fill:#a97139"/><path d="m160.47,302.72c-.36-.09-.68-.27-1.05-.34h-1.84c.06-1.07,1.04-2.85,2.42-2.24.65.29.5.45.53,1.23.02.42.1.96-.06,1.35Z" style="stroke-width:0px;fill:#a97139"/><path d="m150.24,307.82c.66-.84,1.46-3.15,2.94-2.48.94.43,1.09,3.97.68,4.78-.4.81-1.95,2.4-2.89,2.18l-1.47-1.84c-.1-.02-.2-.04-.3-.06-.34-1.25.34-1.69,1.04-2.58Z" style="stroke-width:0px;fill:#a97139"/><path d="m135.91,310.83h-2.2c-.18-1.32.85-6.91,3.14-5.32.79.55.71,2.1.48,2.94-.16.56-.91,2.19-1.42,2.38Z" style="stroke-width:0px;fill:#a97139"/><path d="m151.76,316.72c1.11-.1,2.8,1.17,2.51,2.37-.22.88-1.22,1.84-2.2,1.66l-1.84-.73c.75-.19,1.13-2.61,1.53-3.29Z" style="stroke-width:0px;fill:#a97139"/><path d="m145.67,312.86c.74.34.95.57.65,1.28-.24.56-.59.86-1.23.73l-1.47-.37c.17-1.24.65-2.28,2.04-1.64Z" style="stroke-width:0px;fill:#a97139"/><path d="m131.33,317.98c1.67.8.5,3.5-.93,3.88l-1.1-.37c-1.18-.26-.6-1.19-.2-1.87.53-.91.99-2.23,2.23-1.64Z" style="stroke-width:0px;fill:#a97139"/><path d="m140.38,313.7c.85.36-.02,1.84-.43,2.28l-2.2.73c-.24-.78,1.65-3.43,2.64-3.01Z" style="stroke-width:0px;fill:#a97139"/><path d="m151.2,334.15c.64-.49,1.66-.64,2.4-.92.85-.32,2.56-.67,3.31.14.66.71.29,2.62.29,3.47,0,.66.35,2.17-.36,2.66l-2.94,1.1c-.36.5-1.29.49-1.84.4-1.34-.22-1.4-1.08-1.59-2.32-.23-1.53-.71-3.43.72-4.52Z" style="stroke-width:0px;fill:#a97139"/><path d="m146.93,327l-2.2-.73c0-.08,0-.17,0-.29,0-.5,0-1-.02-1.5.25-1,.75-.79,1.75-.8,1.23-.01,2.15-.17,1.92,1.28-.1.59-.58,2.19-1.44,2.05Z" style="stroke-width:0px;fill:#a97139"/><path d="m144.73,326.26h0c0,.26,0,.26,0,0Z" style="stroke-width:0px;fill:#a97139"/><path d="m138.45,340.21c1.63-.1,1.47,2.8.4,2.59h-1.84c.01-1.24-.3-2.49,1.44-2.59Z" style="stroke-width:0px;fill:#a97139"/><path d="m141.79,357.87l-1.47-.73c-.51-1.38,2.28-2.59,3.12-1.65.47.53-.77,2.75-1.65,2.38Z" style="stroke-width:0px;fill:#a97139"/><path d="m138.85,329.57l-1.47,1.84c-.77-.1-.92-1.93-.74-2.56.32-1.15,2.3-.96,3.33-.69.05.56-.77,1.07-1.12,1.41Z" style="stroke-width:0px;fill:#a97139"/><path d="m143.62,339.67c.93-.71,2.75-.18,2.16,1.25-.22.09-.45.1-.69.04l-1.84,2.2c0-.79-.35-2.94.37-3.49Z" style="stroke-width:0px;fill:#a97139"/><path d="m135.17,351.62c-1.73.17-.21-2.96.6-3.28,1.69-.67,1.55,1.55.51,1.44l-1.1,1.84Z" style="stroke-width:0px;fill:#a97139"/><path d="m126.54,331.58c.34-.5,3.2-1.47,3.7-.71.3.47-.18,1.06-.28,1.58-.1.02-.2.04-.3.06l-1.47,3.31c-1.05.02-1.52-.32-1.78-1.44-.18-.76-.32-2.13.13-2.79Z" style="stroke-width:0px;fill:#a97139"/><path d="m140.68,323.32l-1.84,1.47c-.14-.94.59-4.47,2.35-3.3.51.34.2,1.76-.51,1.83Z" style="stroke-width:0px;fill:#a97139"/><path d="m145.43,333.28c3.05-1.26,1.31,1.1,1.5,2.54l-2.94,1.84c.12-.92-.82-1.5-.77-2.4.05-1.06,1.32-1.61,2.21-1.98Z" style="stroke-width:0px;fill:#a97139"/><path d="m154.65,327.04c.16.6-.06,1.65-.73,1.8l-.73,1.84c.02-.95-1.58-1.14-1.55-2.21.04-1.11,2.2-1.71,3.01-1.42Z" style="stroke-width:0px;fill:#a97139"/><path d="m136.01,336.85c-.42.25-1.08.52-1.58.44l-.73-1.47c.88.03.89-1.47,1.62-1.44.32.01.79.63.96.88.53.77.48,1.14-.27,1.59Z" style="stroke-width:0px;fill:#a97139"/><path d="m135.91,323.32l-1.84-.37c.8-.08,1.54-1.07,2.4-.72.35.14.86.61.49,1.04-.18.2-.84.06-1.05.05Z" style="stroke-width:0px;fill:#a97139"/><path d="m142.15,310.83v-2.2c2.06-.4,1.8,2.53,0,2.2Z" style="stroke-width:0px;fill:#a97139"/><path d="m132.6,315.98v-1.47c.39.2.99.29,1.14.71.31.9-.61.76-1.14.76Z" style="stroke-width:0px;fill:#a97139"/><path d="m148.43,347.52c.53,0,.92.17.71.79l-.37,2.94c-.52-.06-1.77-.3-2.16-.64-.59-.51-.52-.46-.05-1.22.35-.57,1.07-1.88,1.86-1.88Z" style="stroke-width:0px;fill:#a97139"/><path d="m131.91,345.05c.35.22.49.72.28,1.08-.31.51-.93.34-1.42.34h-.37c-1.12-.13.48-2.07,1.51-1.42Z" style="stroke-width:0px;fill:#a97139"/><path d="m127.06,359.3c.12-1.13.7-1.6,1.85-1.48,2.37.25,2.48,3.63,0,3.35l-1.1.73c-1.22.4-.83-1.99-.76-2.61Z" style="stroke-width:0px;fill:#a97139"/><path d="m111.98,270.83c-.83,1.01-1.79,2.38-2.81,3.2-.95.77-2.92.45-4.13.43-1.86-.03-4.02-.32-5.83-.74-1.28-.29-2.52-.63-3.72-1.2-.06-.51,1.21-1.79,1.44-2.32.23-.52.35-1.08.4-1.64.09-.92.29-.94,1.08-1.45.78-.5,1.51-1.12,2.28-1.65,1.58-1.1,3.47-1.88,4.94-3.12.78-.66,1.3-1.63,1.99-2.4.87-.96,1.19-2.14,1.85-3.25.53-.9,1.43-3.69,2.84-2.02.17.2.21.47.36.67.23.31.5.4.75.71.43.54.95,1.2,1.21,1.85.49,1.26.44,1.38,1.6,2.17.53.36,1.37.88,1.63,1.51.53,1.28-1.05,2.32-2.15,2.21-.83,2.6-.93,2.62-1.03,2.64-.07.99-1.11,1.98-1.63,2.79-.33.52-.66,1.12-1.06,1.6Z" style="stroke-width:0px;fill:#a97139"/><path d="m109.86,283.51c.66-.54,1.23-1.56,2.17-1.28.43.13.9.58,1.19.93,1.16,1.44,1.29,3.18,3.03,4.11.66.35,1.31.68,1.89,1.1.5.36.56.39.51,1.14-.11,1.7-.83,3.43-1.17,5.09-.1.02-.2.04-.31.06l-1.47,2.94c-.23.13-.52.21-.73.36-.21.14-.37.41-.58.53-.51.29-1.02.21-1.62.22-.98,0-1.78-.08-2.75-.36-.91-.27-2.69-.33-3.26-1.16-.63-.92-.6-2.62-.82-3.68-.33-1.53-.94-2.98-.89-4.55.03-.96.25-1.43.96-2.16,1.16-1.19,2.57-2.22,3.86-3.27Z" style="stroke-width:0px;fill:#a97139"/><path d="m66.92,236.27c-1.04,1.63-3.17,1.43-4.84,1.44-.98,0-2.33.17-3.03-.72-.9-1.12.62-3.28,1.09-4.39.41-.97.49-2.37,1.57-2.64,1.4-.34,3.23.14,4.38-1.08l2.2.37c1.04.04-.23,1.98-.38,2.42-.5,1.46-.15,3.27-1,4.59Z" style="stroke-width:0px;fill:#a97139"/><path d="m79.77,266.03c-.7-.43-1.36-1.27-1.92-1.85-.66-.69-1.11-1.54-1.79-2.21-.84-.83-2.75-1.37-3.06-2.6-.34-1.38.54-1.93,1.19-2.91.46-.7.33-1.82,1.3-2.18.59-.22,1.13.24,1.68.36.91.19,2.1,0,3.05-.02,1.23-.01,1.75.32,2.63,1.06.37.31.53.35.78.87.14.29.39.66.48.95.35,1.18-.02,3.12-.02,4.36v3.05l-2.2,1.47c-.77-.01-1.43.09-2.12-.34Z" style="stroke-width:0px;fill:#a97139"/><path d="m123.05,303.48c-.08,1.04-1.58,2.1-2.6,1.88-.43-.09-1.43-.7-1.8-.99-.68-.54-.36-.96-.12-1.66.49-1.46.93-2.95,1.41-4.41.22-.68.32-2.12,1.25-2.2.53-.05,1.73.58,2.24.78.23.09.41-.13.66.09.31.29.09,1.58.03,1.9-.14.72-.41,1.29-.34,2.04l-.73,2.57Z" style="stroke-width:0px;fill:#a97139"/><path d="m103.2,285.48l-1.47,1.84c-1.42.02-2.82.48-4.23.38-1.67-.11-2.82-.76-4.03-1.84-.62-.55-1.56-1.06-1.73-1.92-.12-.63.43-1.9.65-2.5.38-1.04,1.05-1.92,1.57-2.89.43-.81.26-.97.97-1.17,1.32-.37,3.27.28,4.52.48,1.79.28,3.49.67,5.31.64,1.27-.02,2.18.24,2.17,1.83,0,.71-.54,1.39-.93,1.92-.84,1.15-1.77,2.24-2.79,3.23Z" style="stroke-width:0px;fill:#a97139"/><path d="m119.42,315.86c.78-1.09,1.55-2.18,2.28-3.31.37-.58,1.07-2.46,1.73-2.72.46.53,1.2,1.01,1.56,1.63.37.64.36,1.61.55,2.39.12.49,0,.91.06,1.38.08.57.43,1.1.58,1.65.14.5.09,1,.2,1.48.11.46.44.75.33,1.27l-2.94,1.84c-.85,0-2.21.29-2.86-.34-.8-.79-1.36-2.08-2.12-2.94-.36-.4-.67-.41-.49-1.03.06-.19,1.02-1.2,1.1-1.31Z" style="stroke-width:0px;fill:#a97139"/><path d="m91.44,299.43c0-1.46.47-2.44.87-3.83.3-1.06.07-2.05.27-3.09,1.75-.37,3.65-.78,5.44-.79.8,0,1.71-.17,2.35.28.52.36,1.05,1.07,1.35,1.6.46.81.84,1.78,1.14,2.65.19.56.74,1.79.67,2.41-.11.02-.22.04-.32.06l.73,2.94c-.13.64-1.42,1.2-1.91,1.45-1.14.58-1.9,1.52-2.94,2.26-.91.64-1.96.91-3.07.71-.81-.14-.8-.41-1.14-1.16-.64-1.41-1.56-2.5-2.64-3.57-.71-.7-.8-.9-.8-1.9Z" style="stroke-width:0px;fill:#a97139"/><path d="m109.62,304.39c.69.03.94.25,1.66-.07,1.12-.49,2.75-.74,3.99-.43.33,1.46.53,1.56,1.49,2.75.42.52.7,1.12,1.07,1.67.14.21.48.49.6.69.55.92-.25,2.04-.88,2.88-.57.75-1.22,1.58-1.85,2.27l-3.67,1.1c-.76.08-1.59-.12-2.29-.42-.8-.35-2.52-1.7-2.82-2.53-.71-1.99.65-5.46,1.59-7.13.37-.67.46-.8,1.12-.76Z" style="stroke-width:0px;fill:#a97139"/><path d="m90.34,278.5l-1.84,4.04c-.91-.16-1.59.57-2.55.4-1.08-.19-2.79-1.64-3.01-2.75-.28-1.4.02-3.46.78-4.67.37-.59.89-1,1.3-1.56.35-.48.53-1.06.91-1.51.88-1.07,1.33-.46,2.2.18.86.63,2.18,1.05,3.25,1.11.18.01.95-.18,1.12.02.42.51-.3,1.64-.5,2.13-.33.8-.64,2.37-1.66,2.61Z" style="stroke-width:0px;fill:#a97139"/><path d="m100.09,309.79c.73-.53,1.63-.74,2.42-1.17.31-.17,1.02-.9,1.47-.71,1.08.46.19,3.99-.02,4.79-.28,1.02-.87,2.19-.74,3.27l-2.94,1.84c-.81.24-1.9-.95-2.28-1.5-.71-1.04-2.65-2.95-2.09-4.33,1.81-.31,2.73-1.15,4.19-2.2Z" style="stroke-width:0px;fill:#a97139"/><path d="m94.39,323.46c.08.53.25,2.32-.37,2.44l-4.41,1.84c-.72-.31-2.17-1.97-1.65-2.76.82-1.25,5.08-2.35,6.43-1.51Z" style="stroke-width:0px;fill:#a97139"/><path d="m110.19,319.63c.73.36,1.41,1.46,2.2,1.49l-2.94,2.94c-.64-.04-2.28-.6-2.58-1.24-.28-.6.64-3.33,1.11-3.71.53-.44,1.58.22,2.2.53Z" style="stroke-width:0px;fill:#a97139"/><path d="m93.52,309.36c-.09.04-.17.05-.25.06v-.06c.09,0,.17,0,.25,0Z" style="stroke-width:0px;fill:#a97139"/><path d="m79.35,309.94c.15-.43.66-.83,1.01-1.09,1.67-1.27,3.29-2.5,4.78-4.02,1.27-1.3,2.68-2.5,4.17-1.01.98.97,1.72,2.01,2.34,3.26.26.53.78,2.38,1.63,2.34l-.36,3.62c0,.64-.03,1.07.2,1.65.37.94,1.15,1.85.89,2.94-.33,1.37-1.85,1.29-2.99,1.28-1.35,0-2.71-.08-4.06-.02-1.61.07-3.17.41-4.79.39-.49,0-1.29.15-1.75-.06-.85-.39-.92-1.7-1.02-2.49-.21-1.58-.07-3.22-.07-4.81,0-.57-.17-1.44.03-1.99Z" style="stroke-width:0px;fill:#a97139"/><path d="m71.15,252.1c-.08.51-.1,1.54-.27,1.99-.14.39-.1.73-.75.52.16,3.89-.53,5.09-1.1,5.18-.47.08-.75-.22-1.18-.32-.56-.14-1.1-.09-1.66-.08-1.24.01-2.26.09-3.4-.36-1.6-.63-3.05-1.99-4.3-3.19-1.19-1.14-2.45-2.24-3.61-3.42-.32-.32-1.21-1.16-1.24-1.68-.02-.32.25-.96.3-1.33.12-.92.4-1.65.82-2.5.56-1.15,1.2-2.26,1.7-3.45.35-.84.59-1.74,1.09-2.51.5-.77.85-1.01,1.73-1.06.97-.05,1.83-.01,2.76.27,1.2.36,2.13.47,3.41.47.65,0,2.26-.26,2.85.06.79.44.54,1.13.7,1.79.07.31.31.39.4.69.17.55.17,1.25.34,1.83.46,1.62,1.43,3.13,1.49,4.82.03.75.03,1.52-.09,2.25Z" style="stroke-width:0px;fill:#a97139"/><path d="m74.98,303.06c-.38-.29-.81-1.36-1.08-1.78-.28-.46-.53-.47-.84-.79-.45-.46-.55-1.2-.65-1.82-.36-2.25-.07-4.73-.07-7,0-1.08-.11-1.69.65-2.53,1.45-1.6,3.73-3.35,5.95-3.29,1.15.03,1.63.67,2.67,1.11,1.14.48,2.18,1.14,3.32,1.58.87.34,1.61.12,2.49.25.78.11.75.39,1.09,1.11.46.98.02,2.32-.08,3.52-.12,1.51-.37,3-.58,4.5-.05.4-.12.76-.07,1.17-3.36,1.55-3.34,1.88-3.66,2.03-.34.16-.54.15-.93.17-.91.04-1.84,0-2.75,0-1.27,0-1.99-.22-2.95.72-.49.48-1.57,1.78-2.5,1.07Z" style="stroke-width:0px;fill:#a97139"/><path d="m78.59,276.29c-2.48,3.52-2.77,5.41-3.66,5.86-.74.38-2.47-.37-3.33-.36-2.13.04-3.71-.7-4.31-2.9-.5-1.84-.81-3.76-1.19-5.62-.24-1.19-1.12-3.48-.57-4.71.08-.18.36-.27.48-.44.18-.25.12-.5.34-.75.54-.63,1.48-.67,2.22-.9,1.64-.52,2.79-1.96,4.5-1.94.51,0,1.38-.18,1.85-.03.55.18,1.17,1.23,1.62,1.67.92.91,1.7,1.97,2.68,2.8.68.57,1.08.58,1.19,1.43.14,1.04-.37,5.95-1.84,5.89Z" style="stroke-width:0px;fill:#a97139"/><path d="m71.03,323.2c.63-2.25,3.45-1.41,4.86-.33,1.58,1.21.48,2.9-.62,4.13l-1.1,3.67c-.22-1.04-2.51-.99-3.14-1.81-.38-.5-.17-1.51-.17-2.11,0-1.17-.16-2.42.16-3.56Z" style="stroke-width:0px;fill:#a97139"/><path d="m68.3,307.87c0-1.22.01-1.91,1.44-1.22,1.19.58,3.09,2.66,2.66,4.17-.22.78-2.15,2.31-3,2.58h-1.1c0-1.85.02-3.69,0-5.54Z" style="stroke-width:0px;fill:#a97139"/><path d="m53.02,238.42c-2.92.69-1.94-3.58-1.62-5.12l3.31-.37c.1.02.2.04.31.05.24.65.41,1.83.46,2.52.1,1.38-1.11,2.6-2.45,2.92Z" style="stroke-width:0px;fill:#a97139"/><path d="m61.39,270.67c-.02-.09-.05-.17-.07-.26l-2.57.73c-.02-.1-.05-.2-.07-.3-.66-.07-1.02-.53-1.35-1.06-1.18-1.91-2.41-3.98-3.37-6.01-.32-.67-.86-1.09-1.2-1.74-.35-.67-.2-.88.26-1.6,1.15-1.83,2.05-1.05,3.78-.14,1.16.61,3.98,1.94,5.23,3.04.22.2.6.56.71.82.65,1.63.07,5.38-1.34,6.5Z" style="stroke-width:0px;fill:#a97139"/><path d="m45.51,238.44c-.65-.18-.5-2.05-.34-2.6.39-1.31,1.86-1.23,2.91-.91,1.78.53-.56,2.61-.74,3.88l-1.84-.37Z" style="stroke-width:0px;fill:#a97139"/><path d="m57.64,296.5c-3.18,1.09-4.18,1.07-5.11.55-1.05-.59-1.3-1.59-1.93-2.55-.84-1.28-1.99-2.29-2.17-3.86-.28-2.41,1.02-4.89,2.16-6.9.03-.05,1.55-3.04,1.94-3.08.42-.05.82.39,1.14.6,1.28.84,2.66,1.58,3.98,2.33.62.35,1.68.72,2.06,1.35.19.31.17.57.18.92.06,1.93-.47,4.26-.77,6.11-.12.74-.2,4.93-1.47,4.53Z" style="stroke-width:0px;fill:#a97139"/><path d="m66.07,286.55c.57-.25,2.49.01,2.89.22,1.18.6,2.15,2.94,2.3,4.25.15,1.3-.54,2.81-.94,3.99-.25.74-.73,2.72-1.66,2.96l-.73.37c.02-.76-.23-1.14-.37-1.83-.13-.64-.29-1.25-.45-1.9-.47-1.91-.96-3.85-1.32-5.78-.12-.65-.38-1.98.28-2.27Z" style="stroke-width:0px;fill:#a97139"/><path d="m40.37,241.75h-2.94c.04.27-.06.4-.29.37-.67-1.47,1.2-3.98,2.07-4.88.75-.78,1.43-.91,2.42-.26.32.21.84.72.98,1.11.32.84.43.14.03.85-.53.94-2.25,1.7-2.27,2.8Z" style="stroke-width:0px;fill:#a97139"/><path d="m65.36,307.52l-.37.73c.83,1.76-.11,1.62-1.68,1.1-.97-.32-1.57-.81-2.33-1.42-.15-.12-.8-.44-.93-.64-.75-1.08.31-3.65.52-4.7.48-2.37.96-4.83,2.35-6.87.69.43,1.45,1.38,1.98,2,1.04,1.24,1.91,2.87,1.94,4.48.03,1.35.55,5.62-1.48,5.31Z" style="stroke-width:0px;fill:#a97139"/><path d="m62.42,282.54l-2.2-1.1c-.87.12-1.39-.32-2.16-.63-1.3-.52-2.55-1.11-3.86-1.6-.76-.28-1.37-.5-1.72-1.29-.41-.92-.75-3.55-.34-4.53.44-1.04,2.5.11,3.36.4,1.29.43,3.2.78,4.33,1.69,1.28,1.04,1.94,3.02,2.45,4.48.28.78.96,1.9.15,2.57Z" style="stroke-width:0px;fill:#a97139"/><path d="m52.56,241.72c.73.37.08,1.26-.05,1.87-.37,1.66-.6,3.47-1.18,5.09-.1.02-.2.03-.3.05l-1.84,2.2c-1.01.13-1.67.44-2.77.38-.98-.05-1.52-.5-1.92-1.4-.45-1.02-.79-2.29-.86-3.41-.03-.51-.23-2.09.02-2.62.42-.89,1.39-.82,2.23-1.11.96-.32,1.55-1.41,2.53-1.42.62,0,1.32.38,1.95.41.31.02,1.83-.23,2.18-.05Z" style="stroke-width:0px;fill:#a97139"/><path d="m33.02,244.32l.37,2.2c-.84-1.19-3.32,2.33-4.71,1.45-.43-.28-.44-1.71-.53-2.2-.18-.95-.5-1.4.06-2.17.98-1.35,3.35-3.37,5.17-2.91,1.76.45.09,2.5-.06,3.57-.1.02-.2.04-.3.07Z" style="stroke-width:0px;fill:#a97139"/><path d="m42.31,280.37c1.36-.45,3.3.54,4.66.73.02,1.12-.75,2.64-1.1,3.7-.21.62-.41,1.97-1.09,2.16l-2.57,1.47c-.75.18-2.67-.81-3.04-1.43.65-2.02.65-5.8,3.14-6.62Z" style="stroke-width:0px;fill:#a97139"/><path d="m38.56,245.4c.42-.36,1.21-1.01,1.84-.74.55.24.34.76.33,1.32-.02,1.24.1,2.51.02,3.75-.05.73-.52,1.59-.39,2.31h-3.31c-1.05-.22-1.23-1.9-1.13-2.76.16-1.31,1.61-3.02,2.63-3.89Z" style="stroke-width:0px;fill:#a97139"/><path d="m22.81,253.84c-.21-.17-.32-.79-.42-1.02-.3-.72-.59-1.65-1.12-2.25l1.84-2.94c.91.89,1.69,1.89,2.53,2.85,1.04,1.19.76,1.13-.34,2.3-.45.48-1.68,1.72-2.48,1.07Z" style="stroke-width:0px;fill:#a97139"/><path d="m45.58,255.35c.94,0,2.89-.34,3.83-.02.61.21.77.74.91,1.49.48,2.5-1.19,4.86-1.12,7.35h-2.2c-.81,1.05-1.38.12-1.87-.43-.9-1.02-3.09-1.78-3.33-3.31-.09-.57.41-1.88.51-2.42.13-.68.24-1.87.84-2.37.63-.53,1.64-.3,2.45-.3Z" style="stroke-width:0px;fill:#a97139"/><path d="m17.59,260.12c-.03,1.25-2.22-.27-2.53-.73-.65-.96-.56-1.63.17-2.43.53-.58,2.37-3.53,3.5-2.6.67.56.33,2.04.33,2.82l-1.47,2.94Z" style="stroke-width:0px;fill:#a97139"/><path d="m39.6,267.16c.24-.15.58-.01.83-.04.59-.07,1.14-.33,1.72-.34.54,1.39,2.28,1.71,3.61,1.82.49.04.54.05.93.25.36.18.59.42,1.02.47l2.94.37c-.7,1.03-1.68,1.78-2.23,2.94-.46.96-.76,1.98-1.16,2.94-.31.74-.53.65-1.24.76-1.4.21-2.8.58-4.17.9-.73.17-1.51.48-1.97-.16-.45-.63-.27-2.37-.26-3.11.02-1.36.1-2.74-.07-4.09-.09-.69-.77-2.17.05-2.69Z" style="stroke-width:0px;fill:#a97139"/><path d="m13.19,261.98c.47.22,1.74,2.05.73,2.18l1.1,1.47c-.81.23-2.41.73-3.27.3-.09-.71-.44-4.82,1.44-3.95Z" style="stroke-width:0px;fill:#a97139"/><path d="m34.12,255.35l-.73,2.94c-.1.02-.2.04-.31.06-.06.37.06.92-.21,1.21-.39.41-1.39.21-1.93.2-.7,0-3.86.45-4.2-.31-.23-.52.26-1.74.4-2.14.4-1.2.4-2.12.38-3.39-.01-.64-.19-1.92.39-2.4.46-.38,1.92-.56,2.61-.81,1.03-.36,2.14-.69,3.25-.51.49.08.55-.1.76.34.09.19-.03,1.3-.03,1.45,0,.49.4,3.36-.37,3.36Z" style="stroke-width:0px;fill:#a97139"/><path d="m51.39,308.26c-.47,0-.94.05-1.41-.02-.41-1.7-.91-4.55-.37-6.23.38.12.68.34,1.09.41.65.11,1.51-.31,2.16-.38.88-.09,2.29-.27,2.96.52.86,1-.92,4.24-1.49,5.33l-2.94.37Z" style="stroke-width:0px;fill:#a97139"/><path d="m58.74,329.2c0,.35,0,.7.02,1.06-.24-.99-.74-2.3-.21-3.28.32-.59.75-.66,1.33-.89.61-.24,1.81-1.13,2.55-.92-.03.71-.37,5.67-1.86,5.14l-1.84-1.1Z" style="stroke-width:0px;fill:#a97139"/><path d="m42.57,292.43c.81.09,1.26.66,2.02.78.26.04.58-.14.83,0,.4.22.52,1.46.64,1.87.34,1.23.57,2.36.55,3.63l-2.2,3.67c0-.1-.02-.2-.03-.3-1.44-.36-4.76-.66-5.14-2.33-.52-2.26.15-5.66,1.21-7.66.79.29,1.3.25,2.12.34Z" style="stroke-width:0px;fill:#a97139"/><path d="m37.82,260.09c.64.23.78,1.89.71,2.6-.07.7-.21,1.22-.74,1.77-.36.38-.82.5-.8,1.09-.1.02-.2.05-.3.07l-3.31,1.1c0,.35,0,.7.02,1.05-.58-1.57-.78-3.2.39-4.41.59-.61,2.92-3.69,4.03-3.29Z" style="stroke-width:0px;fill:#a97139"/><path d="m21.98,260.64c.28-.19,1.82-.62,2.17-.51.31.82-.25,2.35-.38,3.23-.1.02-.2.04-.31.07l-2.2,2.57c-.02-1.12-.52-4.53.72-5.36Z" style="stroke-width:0px;fill:#a97139"/><path d="m53.23,342.06l-2.57.37c0-1.05-.13-2.21.02-3.25,1.11-.35,3.4-.26,4.39.39.08.88-1.55,1.78-1.84,2.5Z" style="stroke-width:0px;fill:#a97139"/><path d="m62.8,313.31c.39.16.55.04.83.41.29.39.27,1.24.35,1.68.18.95.61,2.41.08,3.33-.42.73-1.52,1.55-2.37,1.65l-2.57-1.47c-1.38-.76-1.7-4.17-1.48-5.59,1.19-.71,3.86-.56,5.17-.01Z" style="stroke-width:0px;fill:#a97139"/><path d="m42.56,307.16c.78-.88,1.85-.98,2.92-.47.24.12.39.36.62.44.27.09.68-.1.91,0,.88.39.34,3.77.34,4.8l-.73,2.57c-.63.93-1.63,1.89-2.86,1.88-.44,0-1.74-.27-2.09-.58-.39-.34-.21-1.1-.2-1.56.01-1.07.01-2.13,0-3.2-.01-1.56.02-2.68,1.09-3.88Z" style="stroke-width:0px;fill:#a97139"/><path d="m29.63,275.04c.08-.94-.15-2.5.68-3.21.81-.69,1.91-.19,2.78-.04.74.13,2.31-.07,2.92.51.74.71.37,2.91.33,3.84-.04.94-.1,2.13-.46,3.04-.1.02-.2.03-.3.05l-.73,2.57c-1.64.03-5.53.31-5.92-1.87.08-.58.18-1.15.31-1.71.16-1.06.29-2.12.39-3.18Z" style="stroke-width:0px;fill:#a97139"/><path d="m9.87,274.09c-.73-.13-1.53-2.55-1.51-3.25.02-.96,1.22-1.88,2.2-1.5.27.98.05,2.26.05,3.28l-.73,1.47Z" style="stroke-width:0px;fill:#a97139"/><path d="m27.23,271.48c-.03-.11-.06-.22-.08-.33l-2.57,1.84c.03-2,0-6.62,2.97-6.22,1.48.2,1.64.48,1.17,1.8-.28.78-.72,2.76-1.49,2.92Z" style="stroke-width:0px;fill:#a97139"/><path d="m45.44,320.37c0-.28.36-.86.49-1.14.43-.88,1.07-1.47,1.81-2.09.32-.27.97-1.13,1.38-1.3.66-.27,1.44.36,2.29.17,1.01-.22,1.37-1.34,2.57-1.14.95.16,1.07.78,1.45,1.69.54,1.31.72,2.45.75,3.82l-2.57,2.2c.36.91-2.56,2.3-3.17,2.17-.44-.09-.34-.38-.55-.67-.62-.87-1.59-1.37-2.46-1.97-.27-.19-1.98-1.12-1.99-1.75Z" style="stroke-width:0px;fill:#a97139"/><path d="m38.12,287.37c.31.54-.21,1.79-.31,2.2-.28,1.18-.18,3.1-1.11,3.99l-2.2,1.1c.07.51.05,1.02-.07,1.52-.4-.23-.64-1.09-.96-1.48-.73-.87-1.67-1.59-2.45-2.43-.85-.91-2.01-2.1-1.61-3.46.16-.53.65-1.02.87-1.55.25-.6.18-2.02.62-2.45.32-.31,1.67-.07,2.1-.07.77,0,2.04-.23,2.79-.02.8.23.9,1.18,1.46,1.89.21.26.74.54.87.76Z" style="stroke-width:0px;fill:#a97139"/><path d="m17.59,272.59c1.15.29.49,2.06-.37,2.23l-1.84,1.1c-.18-1.23.62-3.73,2.21-3.33Z" style="stroke-width:0px;fill:#a97139"/><path d="m2.38,291.38c.66-1.23,1.69-2.1,3.08-2.6l-2.57,3.67c.07-.47-.13-.77-.51-1.08Z" style="stroke-width:0px;fill:#a97139"/><path d="m24.13,278.14c.52.24,1.03.51,1.51.82-.68,1.14-.71,2.65-1.14,3.9-.1.02-.2.03-.3.05l-1.47,2.2c-.03-.34-.01-.67.04-1-1.08,1.17-2.92.61-3.75-.52-1.01-1.36-.99-2.63.03-3.83.64-.74,1.88-2.66,2.99-2.7.49-.02,1.68.88,2.08,1.07Z" style="stroke-width:0px;fill:#a97139"/><path d="m15.92,301.27c.89.03,2.32,2.19,2.96,2.78.7.65,2.3,1.36,2.46,2.4.09.59-.41,1.51-.53,2.07-.12.59-.13,2.02-1.01,1.94l-.37,1.47c.06.23.05.46-.03.69-1.06.4-2.29-.67-3.25-1.02-1.12-.4-2.01-.56-2.23-1.86-.27-1.58-.07-3.53.38-5.04.18-.61.69-3.47,1.62-3.43Z" style="stroke-width:0px;fill:#a97139"/><path d="m15.04,285.85c.71-.73.95-.39,1.52.34.23.29,1.52,1.17,1.66,1.48.26.54-.51,2.03-.71,2.6-.23.65-.8,1.61-1.32,2.08-.02-.08-.05-.17-.07-.25l-.73,4.04c-.53.1-1.18-.19-1.58-.52-.79-.66-.64-1.12-.62-2.07.04-2.62-.17-5.61,1.85-7.69Z" style="stroke-width:0px;fill:#a97139"/><path d="m10.95,284.06c-.49.07-1.29.53-1.74.29-.4-.22-.36-1.36-.51-1.75-.1-.02-.2-.04-.3-.05l1.1-2.2c.29,0,.75.11,1.02-.06.32-.2.2-.66.73-.68.48.91.88,2.04.88,3.08,0,1.16-.22,1.24-1.18,1.39Z" style="stroke-width:0px;fill:#a97139"/><path d="m17.57,270.4c-.49.18-.98.48-1.39.74-.18-.76-.33-2.65.25-3.21.03.14.02.27-.05.39l1.57-1.57c.82-.1,1.82,2.31,1.45,2.98-.27.49-1.45.54-1.83.68Z" style="stroke-width:0px;fill:#a97139"/><path d="m4.54,279.6c-.98.08-1.89-.24-1.65-1.48l1.47-2.57c1.08-.12,3.17.49,3.28,1.75-1.34.63-1.64,2.18-3.1,2.3Z" style="stroke-width:0px;fill:#a97139"/><path d="m8.46,301.32c.37-.27,1.33-.04,1.78-.04l1.84,3.67c-.82.38-2.75,1.5-3.67,1.18-.74-.26-.4-1.67-.38-2.32.02-.66-.2-2.02.44-2.49Z" style="stroke-width:0px;fill:#a97139"/><path d="m8.4,290.99l1.47-1.1c.53.63,1.22.72,1.12,1.66-.1.98-.87,2.22-1.86,2.42-1.6.32-1.33-1.87-1.03-2.94.1-.01.2-.02.3-.03Z" style="stroke-width:0px;fill:#a97139"/><path d="m4.36,300.37c-.57.43-1.66,1.74-2.39,1.69-.64-.05-1.03-1.3-.92-1.88l1.84-2.57c.82,0,2.05-.26,2.81.06,1.58.67-.72,2.25-1.34,2.71Z" style="stroke-width:0px;fill:#a97139"/><path d="m1.05,312.3l2.94-1.1c.49,0,1.11-.16,1.46.29.68.9-1.25,2.14-1.78,2.46-.36.22-1.89,1.2-2.3,1.01-.68-.33-.32-2.03-.32-2.66Z" style="stroke-width:0px;fill:#a97139"/><path d="m11.22,320.41c-.08,0-.17-.01-.25-.02l.37,5.51c-.38,0-.67.04-1.04-.06-.03-.46-.28-.7-.43-1.09-.32-.86-.38-1.52-.38-2.43,0-1.38.02-2.95,1.73-1.91Z" style="stroke-width:0px;fill:#a97139"/><path d="m4.75,323.99c1.72,0,1.24,3.71-.02,3.38l-1.1,1.84c-1.64-.32-.64-5.22,1.12-5.21Z" style="stroke-width:0px;fill:#a97139"/><path d="m20.14,298.67c-.29-.56-.76-.99-.7-1.62.09-1,1.4-2.62,1.91-3.41.39-.61.95-1.02,1.38-1.59.68-.91,1.15-1.99,1.77-2.94.76-1.16,1.15-.63,1.61.45.43,1.02.89,1.98,1.49,2.92.6.93,1.61,1.72,1.38,2.92l.37,3.67c-.49.36-.32.88-.45,1.37-.13.52-.41,1.11-.67,1.6-.72,1.34-1.8,2.85-3.49,2.01-.99-.5-1.75-1.42-2.43-2.26-.83-1.02-1.56-1.95-2.16-3.11Z" style="stroke-width:0px;fill:#a97139"/><path d="m23.81,317.44c.92-.09,2.85-.28,3.7.05-.03.78-.02,4.49-1.1,4.73l-.73,4.04c.34,1.72-2.1,1.1-3,.91-1.23-.26-1.68-.28-1.83-1.5-.16-1.32,0-2.9.24-4.2.31-1.68.84-3.84,2.73-4.03Z" style="stroke-width:0px;fill:#a97139"/><path d="m38.92,305.07c.63,2.17-1.04,4.79-1.49,6.86l-3.31-.37c-1.4.26-3.08-2.37-2.99-3.57.1-1.29,1.24-2.63,1.96-3.65.46-.64,1.42-2.39,2.27-2.35.71.03,1.79,1.37,2.27,1.79.51.44,1.1.67,1.28,1.28Z" style="stroke-width:0px;fill:#a97139"/><path d="m52.43,373.94c-.17-1.22,1.02-2.56,1.47-3.61.57-1.36.45-2.64,2.14-2.12,1,.31,1.6,1.11,2.41,1.73.33.26.7.42.95.76-.35,1.02-1.84,2.58-2.86,2.96h-2.2c.42.57.67,1.19.76,1.87-1.02.28-2.51-.53-2.66-1.59Z" style="stroke-width:0px;fill:#a97139"/><path d="m27,315.42c-.54-.16-.89-.32-1.37-.59-.63-.35-1.12-.84-1.81-1.11-.52-.21-1.07-.45-1.1-1.05-.07-2.12,1.2-3.95,1.3-6.06.58-.11,1.17.06,1.74.14.5.07,1.07-.07,1.55.03.35.08.6.26.79.55.33.5.38,1.08.49,1.65.26,1.36.54,2.51,1.49,3.5.8,2.05.63,2.93-.17,3.14-.27.07-.66-.01-.94,0-.67,0-1.32,0-1.97-.19Z" style="stroke-width:0px;fill:#a97139"/><path d="m31.79,379.44c.66.4,1.21,1.01,1.76,1.54.26.25,1.04.86,1.16,1.34.15.62-.9,1.6-1.5,1.64l-.73.73c-.7.11-1.56-.24-2.2-.48.02-.93.57-1.89.88-2.77.21-.58.35-1.42.63-2Z" style="stroke-width:0px;fill:#a97139"/><path d="m37.83,367.81c-.14-.5.04-1.06.1-1.57.06-.47.03-1.37.3-1.82.54-.93,2.74-.59,3.63-.34.1.55-.9,2.26-1.49,2.24l-2.2.92c.05.24-.07.59-.34.57Z" style="stroke-width:0px;fill:#a97139"/><path d="m55.68,333.4c0,.51-.36.69-.74.98-.71.53-1.67,1.23-2.62,1.07l-1.84-1.84c0,.49-.14.98-.69,1.12-.43.11-.58-.17-.8-.47-1-1.34-.98-2.99-.82-4.56.05-.5-.03-1.32.28-1.75.23-.32.19-.19.48-.21.38-.03.91.28,1.31.33.58.08,1.15.03,1.73.14.61.11,1.21.34,1.83.42.12.02.59-.04.7.09.09.1,0,.4.01.52.01.91.27,1.67.61,2.51.21.51.55,1.08.56,1.65Z" style="stroke-width:0px;fill:#a97139"/><path d="m39.94,316.75c.43.73.95,1.38,1.53,1.99.38.4.79.85,1.29,1.12.39.21,1.01.19,1.3.54.26.31.19,1.12.18,1.45-.02.65-.11,1.28-.44,1.85-.11,0-.15-.06-.13-.19l-1.38,2.08c.07-.13.1-.27.1-.42-.74.02-1.62.27-2.35.37-.73.1-1.41.2-2.14.18-.21,0-.81.1-1.02-.01-.33-.18-.59-.99-.71-1.23-.54-1.1-1.48-2.04-1.91-3.18-.22-.57-.32-1.3-.34-1.91-.03-.66.08-.79.62-1.22.65-.52,1.3-1.05,1.97-1.56.64-.49,1.29-.96,2.11-1.02.16-.01.51-.04.65.03.3.15.51.84.68,1.14Z" style="stroke-width:0px;fill:#a97139"/><path d="m42.29,325.58s-.05.09-.09.13l.09-.13Z" style="stroke-width:0px;fill:#a97139"/><path d="m27.52,333.26c.34-.09.77.23,1.07.38.31.19.63.35.97.5.27.14.54.25.82.35.35.34.06,1.07-.03,1.47-.11.51-.76,2.27-1.56,2.24l-1.29-.18c-1.38.17-.88-2.83-.71-3.4.12-.41.27-1.24.72-1.36Z" style="stroke-width:0px;fill:#a97139"/><path d="m61.83,338.62c.13-.45.25-.89.38-1.34.39-.77,1.44-.55,2.16-.54.49,0,1.05-.06,1.53.03-.05.23-.22.45-.17.71l.55,2.94c-.17.63-.15,1.43-.51,1.99-.32.52-.92.41-1.42.41-.67,0-1.34-.02-2.01-.02-.39,0-.99.08-1.4,0,.1-.68.23-1.39.35-2.07.14-.71.32-1.41.53-2.1Z" style="stroke-width:0px;fill:#a97139"/><path d="m32.01,331.5c-.81-.23-1.55-.78-2.13-1.37-.3-.31-.4-.36-.29-.76.24-.45.43-.92.57-1.4.16-.59.37-1.16.64-1.71.28-.62.56-.91,1.26-.7.57.18,1.19.71,1.5,1.2.2.33,1,2.19.39,2.26v2.57c-.67-.03-1.25.1-1.93-.1Z" style="stroke-width:0px;fill:#a97139"/><path d="m59.21,362.6c-.89-.34-1.69-.89-2.48-1.41-.66-.44-.51-.23-.52-.66,0-.4.44-1.14.61-1.52.41-.93.85-1.74,1.69-2.3.7.43,1.07,1.07,1.49,1.77.19.32.64.84.58,1.24l-1.47,2.2c.09.22.12.45.1.69Z" style="stroke-width:0px;fill:#a97139"/><path d="m37.03,334.36c.01-1.35.38-2.71,1.17-3.83.58-.81,1.24-1.51,2.27-1.55,1.2-.04,2.76.29,3.9.67.25.09.46.14.58.39.04.09.01.26.03.36.11.85.25,1.7.36,2.55.16,1.23.46,2.55.37,3.79l-2.39.18c-1.22-.71-2.69-.79-4.06-1-1.06-.16-2.23-.29-2.22-1.56Z" style="stroke-width:0px;fill:#a97139"/><path d="m31.66,343.43c.21-.17,1.55-1.31,1.95-.74.22.32.39,1.89-.22,1.95l.37,2.94c-.87-.25-1.37,1.54-2.2.45-.49-.64-.94-1.68-1.19-2.43-.08-.25-.21-.66-.09-.95.16-.39,1.05-.93,1.39-1.22Z" style="stroke-width:0px;fill:#a97139"/><path d="m47.9,394.98c.31-.03,2.22-.29,2.3.5.04.41-.47,1.53-.61,1.9-.1.28-.06.46-.4.35l-2.02.92c-.07.27-.27.42-.51.4-.18-.65-.22-1.34-.4-1.99-.15-.55-.46-.9-.66-1.41.55-.6,1.53-.6,2.3-.66Z" style="stroke-width:0px;fill:#a97139"/><path d="m53.74,383.98c.29.17.91.47.78.89l-1.1,3.49c0,.05,0,.1-.01.15-.51.15-1.43.09-1.81-.31-.63-.66.24-2.43.53-3.14.36-.87.68-1.64,1.62-1.09Z" style="stroke-width:0px;fill:#a97139"/><path d="m53.11,364.82c-.39.06-.77.02-1.16.03l-.55.92c-.56-.29-1.33-.43-1.84-.81-.75-.56-.56-2.08-.58-2.91,0-.51-.03-1.02.38-1.4.38-.35.91-.56,1.4-.69.71-.19,1.28-.35,1.94-.69.23.15.37.37.41.67.35.69.69,1.38,1.02,2.08.12.27.95,1.85.76,2.25-.14.28-1.52.52-1.77.56Z" style="stroke-width:0px;fill:#a97139"/><path d="m58.38,344.81c.45.1.79.42.91.87.11.43,0,1.57-.51,1.69-.01-.06-.03-.11-.04-.17l-1.1,1.1c-.25-.23-.53-.33-.8-.51-.31-.21-.3-.15-.32-.54-.03-.67.3-1.29.66-1.84.31-.48.6-.75,1.2-.62Z" style="stroke-width:0px;fill:#a97139"/><path d="m43.49,341.05c.37-.27.99-.35,1.43-.46.31-.08.99-.33,1.33-.16-.04,1.04-.43,2.02-.58,3.04,0-.04,0-.07.01-.11l-2.02.92c-.29-.81-1.05-2.58-.19-3.22Z" style="stroke-width:0px;fill:#a97139"/><path d="m35.78,339.89c.15-.96.75-1.41,1.66-1.31.48.05,1.29.03,1.29.56,0,.35-.27,1.33-.74,1.27l-1.1,1.65c-.83,0-1.2-1.54-1.1-2.17Z" style="stroke-width:0px;fill:#a97139"/><path d="m58.2,337.83c-.16-.35.22-1.06.37-1.38v.29s2.01-1.47,2.01-1.47c.05,0,.1,0,.15.01.55,1.44-1.32,2.48-2.53,2.55Z" style="stroke-width:0px;fill:#a97139"/><path d="m55.09,356.2c0-.06-.01-.12-.02-.17l-1.47-.37c-1.41.33-.54-3.66.5-4.06.63-.24,1.6.59,2.04.93.38.29,1.46.93,1.52,1.44-.61.23-1.98,2.48-2.57,2.23Z" style="stroke-width:0px;fill:#a97139"/><path d="m51.35,349c-.55.33-.95.62-1.61.6l-1.47-1.1c.12.02.23.06.34.12.1-.6.31-1.68.84-2.03.87-.57,2.01.39,2.62.96.23.21.59.44.43.78-.09.2-1.02.6-1.16.68Z" style="stroke-width:0px;fill:#a97139"/><path d="m39.01,348.19c.24-.34,1.1-.96,1.49-.46.37.48-.35,1.54-.5,1.86l-1.1,1.1c.06-.27-.13-.5-.19-.76-.12-.53-.02-1.31.3-1.75Z" style="stroke-width:0px;fill:#a97139"/><path d="m32.62,356.8c.17-.49.41-.58.93-.52.83.1,1.34.86,1.84,1.45.33.38.87.83.96,1.36.13.75-.82,2.46-1.68,2.27l-1.47.74c-1.01.21-.74-1.3-.74-1.87,0-.98-.18-2.47.16-3.43Z" style="stroke-width:0px;fill:#a97139"/><path d="m48.38,354.83c.52.09,1.41.16,1.46.85.03.35-.36.95-.6,1.18-.32.31-.57.29-.97.27l-.73-.37c.12.3.26.58.18.91-.52-.46-1.27-1.47-1.31-2.18-.06-.96,1.37-.76,1.98-.66Z" style="stroke-width:0px;fill:#a97139"/><path d="m35.78,350.89c.1.42-.08,1.85-.74,1.83l-.18,1.29c-.18.03-.34.12-.51.17-.41-.52-.61-2.12-.32-2.67.28-.53,1.22-.75,1.76-.62Z" style="stroke-width:0px;fill:#a97139"/><path d="m42.57,357.5c.12.84.67,1.54.75,2.42.12,1.25-.94,1.25-1.93,1.27-.42,0-.72.09-.83-.37-.18-.73.12-1.67.18-2.4l1.84-.92Z" style="stroke-width:0px;fill:#a97139"/><path d="m46.96,368.85c.38-.27,1.03-.18,1.47-.17.53.02.83.05,1.07.49.28.52-.11,1.88-.65,2.24,0-.05-.02-.09-.03-.14l-.94-.4c-.29-.65-1.07-1.18-.93-2.02Z" style="stroke-width:0px;fill:#a97139"/><path d="m47.54,370.73l.35.15s0,.01,0,.02c-.15.03-.27-.03-.35-.16Z" style="stroke-width:0px;fill:#a97139"/><path d="m31.55,371.09l3.12-.55c.05.27.38.44.56.62.33.35.45.7.42,1.19-.1,1.78-2.82,2.44-4.25,2.23-.2-.55-.02-1.33-.03-1.91,0-.58-.05-1.05.18-1.59Z" style="stroke-width:0px;fill:#a97139"/><path d="m49.01,382.12l-.73.18c.79-.97-.03-.91-.19-1.84-.15-.86,1.93-1.25,2.29-.74-.18.6-.48,1.11-.78,1.65-.14.24-.27.68-.59.75Z" style="stroke-width:0px;fill:#a97139"/><path d="m43.76,408.92c.26.02.58-.08.8.08-.15.41-.5.78-.51,1.23l-.18,1.29c-.75-.64-1.48-1.69-1.26-2.69.37-.16.78.06,1.16.09Z" style="stroke-width:0px;fill:#a97139"/><path d="m39.54,395.05c.66.15,1.11.34,1.77.24.35.41-.11,2.72-.52,3-.06-.14-.13-.26-.23-.38v2.57c-.06.44-.81.48-1.1.3-.36-.22-.61-.86-.75-1.23-.46-1.26-.75-2.68-.59-4.04.1-.79.83-.6,1.42-.46Z" style="stroke-width:0px;fill:#a97139"/><path d="m40,379.01v.72l2.2-1.84c.15-.69.77.76.74.98-.06.56-.33.53-.93.73-.63.2-1.32.55-1.99.5-.14-.32-.02-.75-.03-1.09Z" style="stroke-width:0px;fill:#a97139"/><path d="m37.34,384.95c.25-.15.95.33,1.21.46.56.27,1.23.47,1.73.83.4.28.44.29.17.79-.41.77-.98,1.42-1.56,2.07l-.92.18c-.64,0-.8-.26-.9-.94-.11-.8-.03-1.63.06-2.43.02-.17,0-.85.2-.96Z" style="stroke-width:0px;fill:#a97139"/><path d="m40.4,374.02c-.11-.29-.07-.71-.02-1.01.03-.22.26-1.06.54-.45l2.2-1.84c.09.73.73,1.45.08,2.02-.73.64-1.98.78-2.8,1.27Z" style="stroke-width:0px;fill:#a97139"/><path d="m46.4,391.11c-.3-.3-.27-1.12-.31-1.53-.07-.83-.01-1.65.17-2.46.11-.29.23-.58.34-.87.39-.37.85.11,1.22.23.33.11.68.09,1.01.2-.03.64-.18,1.28-.37,1.89-.1.32-.35.71-.37,1.06l-1.65.92c.04.19.03.36-.04.54Z" style="stroke-width:0px;fill:#a97139"/><path d="m48.27,377.06c-.44-.12-.64-.19-.77-.58-.11-.36.08-1.19.25-1.53.05,0,.09,0,.14,0l2.02.37s.09,0,.14,0c.15.29.38,1.03.25,1.37-.25.7-1.51.52-2.04.37Z" style="stroke-width:0px;fill:#a97139"/><path d="m44.96,348.13c.07.58.87,1.31.55,1.94-.27.54-1.28.53-1.78.76.17-.2.14-.43.13-.67l1.1-2.02Z" style="stroke-width:0px;fill:#a97139"/><path d="m43.5,383.76c.01-.48.21-1.01.36-1.46l1.08-.72c.02.6.81,1.47.35,2.02-.3.36-1.38.23-1.79.16Z" style="stroke-width:0px;fill:#a97139"/><path d="m44.95,381.43v.13s-.01.01-.01.01c0-.05,0-.1.01-.14Z" style="stroke-width:0px;fill:#a97139"/><path d="m35.23,378.08l1.65-2.2c-.05.32.16.54.26.83.15.42.17.91.12,1.36-.49.14-1.71.62-2.22.36,0-.15.06-.26.19-.34Z" style="stroke-width:0px;fill:#a97139"/><path d="m31.18,391.67l2.02-.92c.39.09.55.78.66,1.11.11.33.32.76.15,1.08-.21.41-1.04.49-1.42.58-.31.07-1.05.35-1.38.16-.3-.17-.32-1.69-.18-2.01.05,0,.1,0,.15,0Z" style="stroke-width:0px;fill:#a97139"/><path d="m43.2,405.26c.13-.31.12-.58.11-.91l1.65-1.1c.56-.02,1.34,1.17,1.15,1.56-.38.8-2.37,1.01-3.17,1-.05-.22.17-.35.26-.55Z" style="stroke-width:0px;fill:#a97139"/><path d="m34.12,365.03c.36-.08.36.33.39.57.08.89-.01,1.23-.94,1.37-.35.05-1.14.31-1.39,0-.2-.26-.08-.91-.08-1.2l2.02-.74Z" style="stroke-width:0px;fill:#a97139"/><path d="m52.89,400.9l-.02.14,1.29,2.02c-.07.83-.14,1.62-.39,2.41-.55-.55-2.49-1.01-2.37-1.96.06-.49.52-1.14.79-1.51.23-.32.65-.69.71-1.09Z" style="stroke-width:0px;fill:#a97139"/><path d="m141.05,367.24c.49-.15.92.81.94,1.16.03.67-1.32,1.09-1.85.85-.06-.35,0-.73,0-1.09l.92-.92Z" style="stroke-width:0px;fill:#a97139"/><path d="m133.34,374.58c.43.28.64.56.92,1,.16.24.62.83.55,1.1-.06.25-1.13.77-1.18.8-.54.29-1.15.66-1.79.58-.08-.29.17-.79.2-1.09l1.29-2.39Z" style="stroke-width:0px;fill:#a97139"/><path d="m136.65,364.58c-.2.31-1.3.11-1.61.05-.02-.05-.03-.1-.05-.15l1.29-1.47c.34.25.61,1.19.37,1.57Z" style="stroke-width:0px;fill:#a97139"/><path d="m127.64,368.15c.43.7,1.45,2.45.72,3.14-.19.07-.38.14-.58.21-.53.22-1.07.43-1.62.62-.28.09-.6.21-.89.26-.18-.71-.02-1.65-.02-2.39l2.39-1.84Z" style="stroke-width:0px;fill:#a97139"/><path d="m130.23,352.33c.08.76.05.97-.66,1.15-.53.13-2.51.79-2.85-.1-.14-.36.18-1.24.27-1.6.09-.4.09-.41.41-.53.23.02.47.04.7.04.35.02.62-.12.83-.4l.92.92c.36-.07.36.28.39.53Z" style="stroke-width:0px;fill:#a97139"/><path d="m131.22,340.24c-.31.18-.78.54-1.16.32-.32-.18-.3-.65-.04-.88l1.1-1.29c.22.08.86.44,1,.64.38.54-.53.99-.91,1.21Z" style="stroke-width:0px;fill:#a97139"/><path d="m131.89,328.8c-.11-.17-.08-.42-.14-.62-.07-.27-.24-.53-.26-.81l1.65-1.65c.34.28.78,1.36.74,1.76-.07.74-1.42,1.12-2,1.33Z" style="stroke-width:0px;fill:#a97139"/><path d="m141.42,350.15l.73-1.47c.15.73.41,1.62-.73,1.47Z" style="stroke-width:0px;fill:#a97139"/></g></g><g><path d="m178.61,37.92s-4.62-4.06-6.93-8.32c-2.31-4.26-16.36-3.89-20.46,0-2.14,2.03,8.1,8.42,15.51,12.17,7.41,3.76,11.88,2.03,11.88-.91v-2.94Z" style="stroke-width:0px;fill:#ffd86e"/><path d="m172.41,41.38s-9.66-4.54-13.12-7.9c-3.46-3.36-7.65-4.03,0-4.2s10.39,1.66,13.12,5.96c2.73,4.3,3.91,8.11,0,6.15Z" style="stroke-width:0px;fill:#dcb350"/><path d="m218.16,60.29s0,0,0,0c0,0-4.64,11.52-7.1,12.28-2.46.76-7.11,1.51-7.11,4.54s5.86,13.62-7.46,13.62-7.46-10.59-7.46-13.62-4.65-3.78-7.11-4.54c-2.46-.76-7.1-12.28-7.1-12.28,0,0,0,0,0,0-1.1-6.71-1.55-12.65-1.14-14.6.65-3.14,1.99-9.87,6.53-14.24,4.54-4.37-2.02-15.7-1.07-24.21.07-.61.17-1.18.29-1.71.9-.49,1.8-.94,2.77-1.04,1.98-.2,4.17-.04,6.24.03.01.06.03.13.04.19,1.34,7.23,0,18.32,8.01,18.32s6.67-11.1,8.01-18.32c.01-.07.03-.13.04-.19,2.07-.07,4.26-.23,6.24-.03.97.1,1.88.55,2.77,1.04.13.53.23,1.1.29,1.71.95,8.51-5.61,19.84-1.07,24.21,4.54,4.37,5.88,11.1,6.53,14.24.4,1.95-.05,7.88-1.14,14.6Z" style="stroke-width:0px;fill:#ffd86e"/><path d="m218.16,60.29c-.67,4.13-1.59,8.55-2.71,12.52-2.94,10.42-8.2,12.44-8.2,12.44,0,0-1.41,7.73-4.62,7.73h-12.28c-3.2,0-4.62-7.73-4.62-7.73,0,0-5.26-2.02-8.2-12.44-1.12-3.97-2.04-8.39-2.71-12.52,0,0,4.64,11.52,7.1,12.28,2.46.76,7.11,1.51,7.11,4.54s-5.86,13.62,7.46,13.62,7.46-10.59,7.46-13.62,4.65-3.78,7.11-4.54c2.46-.76,7.1-12.28,7.1-12.28Z" style="stroke-width:0px;fill:#dcb350"/><path d="m194.83,79.54s-1.72-2.72-4.01-1.29c-2.29,1.43-1.66,3.13,2,3.13s2-1.85,2-1.85Z" style="stroke-width:0px;fill:#231f20"/><path d="m213.27,47.09c-2.73,2.52-3.66,3.36-7.48,9.08-3.82,5.72-4,16.48-3.64,18.49.36,2.02-3.1,1.26-3.64,1.98-.55.71-2.02,2.34-2.02,2.34,0,0-1.48-1.63-2.02-2.34-.55-.71-4.01.04-3.64-1.98s.18-12.78-3.64-18.49-4.74-6.56-7.48-9.08c-2.73-2.52-4.37-1.18-1.83-7.9,2.54-6.72,9.3-6.22,9.31-8.24,0-2.02-5.47-16.81-2.92-16.98,2.55-.17,2.92,6.56,5.22,9.75,2.31,3.19,7.01,2.81,7.01,2.81,0,0,4.7.38,7.01-2.81,2.3-3.19,2.67-9.92,5.22-9.75,2.55.17-2.93,14.96-2.92,16.98,0,2.02,6.76,1.51,9.31,8.24,2.54,6.72.9,5.38-1.83,7.9Z" style="stroke-width:0px;fill:#ffe39f"/><path d="m203.5,84.64c-.19,2.24-2.17,4.71-7.01,4.71s-6.82-2.46-7.01-4.71c-.19-2.24.55-1.85,2.86-1.68,2.31.17,4.15-.67,4.15-.67,0,0,1.84.84,4.15.67,2.31-.17,3.05-.56,2.86,1.68Z" style="stroke-width:0px;fill:#ffe39f"/><path d="m188.44,4.53c-2.07-.07-4.26-.23-6.24-.03-.97.1-1.88.55-2.77,1.04,1.62-6.87,7.69-7.52,9.01-1.01Z" style="stroke-width:0px;fill:#695f4b"/><path d="m184.51,55.1c0,2.87-2.33,5.2-5.19,5.2s-5.2-2.33-5.2-5.2,2.33-5.19,5.2-5.19,5.19,2.33,5.19,5.19Z" style="stroke-width:0px;fill:#f2f2f2"/><path d="m182.82,54.91c0-1.81-1.47-3.28-3.28-3.28s-3.28,1.47-3.28,3.28,1.47,3.28,3.28,3.28,3.28-1.47,3.28-3.28Z" style="stroke-width:0px;fill:#231f20"/><path d="m182.69,52.81c0-.74-.6-1.35-1.34-1.35s-1.34.6-1.34,1.35.6,1.34,1.34,1.34,1.34-.6,1.34-1.34Z" style="stroke-width:0px;fill:#fff"/><path d="m214.37,37.92s4.62-4.06,6.93-8.32c2.31-4.26,16.36-3.89,20.46,0,2.14,2.03-8.1,8.42-15.51,12.17-7.41,3.76-11.88,2.03-11.88-.91v-2.94Z" style="stroke-width:0px;fill:#ffd86e"/><path d="m220.56,41.38s9.66-4.54,13.12-7.9c3.46-3.36,7.65-4.03,0-4.2s-10.39,1.66-13.12,5.96-3.91,8.11,0,6.15Z" style="stroke-width:0px;fill:#dcb350"/><path d="m198.15,79.54s1.72-2.72,4.01-1.29c2.29,1.43,1.66,3.13-2,3.13s-2-1.85-2-1.85Z" style="stroke-width:0px;fill:#231f20"/><path d="m204.54,4.53c2.07-.07,4.26-.23,6.24-.03.97.1,1.88.55,2.77,1.04-1.62-6.87-7.69-7.52-9.01-1.01Z" style="stroke-width:0px;fill:#695f4b"/><path d="m208.46,55.1c0,2.87,2.33,5.2,5.19,5.2s5.2-2.33,5.2-5.2-2.33-5.19-5.2-5.19-5.19,2.33-5.19,5.19Z" style="stroke-width:0px;fill:#f2f2f2"/><path d="m210.16,54.91c0-1.81,1.47-3.28,3.28-3.28s3.28,1.47,3.28,3.28-1.47,3.28-3.28,3.28-3.28-1.47-3.28-3.28Z" style="stroke-width:0px;fill:#231f20"/><path d="m210.29,52.81c0-.74.6-1.35,1.34-1.35s1.35.6,1.35,1.35-.6,1.34-1.35,1.34-1.34-.6-1.34-1.34Z" style="stroke-width:0px;fill:#fff"/></g></g></g></svg>