<?xml version="1.0" encoding="UTF-8"?><svg data-name="Layer 2" xmlns="http://www.w3.org/2000/svg" viewBox="0 0 56.16 83.02"><defs/><g data-name="100"><g><path d="m55.34,73.78c-.29.89-.66,1.67-1.11,2.32-3.02,4.3-11.11,4.82-17.99,4.82s-10.1,1.2-12.53-9.46c-2.43-10.67-6.22-24.95-7.25-30.45s-2.58-12.25-5.68-14.97c-1.57-1.38-2.09-6.73-.68-11.39.5-1.63,1.23-3.18,2.24-4.45-.16-.12-.33-.23-.49-.34-.32-.22-.52-.44-.76-.68-.25-.25-.64-.39-.71-.79,0-.04-.01-.09-.01-.14-.01-.32.1-.74.09-1.13-.32.03-.61.15-.87.34l.17-1.89c.04-.31.27-.51.43-.76.24-.39.47-.87.65-1.3.27.02.23.29.46.35.21.06.36-.05.49-.18.2-.19.21-.67.54-.71.22-.03.45.35.67.17.1-.09-.01-.34.06-.46.27-.45.55-.03.82.14.64.41.3-.06.73-.31.38-.23.59.3,1,.11.4-.19.5-.81,1.03-.85.55-.04.27.5.37.86.38.02.53-.34.73-.59.21-.27.62-.52.98-.57.74-.1-.11,1.08.93.81.2-.05.43-.33.69-.15.26.18-.09.64.12.83.13.12.66.03.83.03.37,0,.84-.08,1.19.03.05.22-.02.42.03.64.29.09,2.51-.17,1.89.51.59.09.66.28.67.88.01.45.05,1.2.57.58.28.35.26.92.55,1.32.41.57.41-.03.92.2.1.38.38,1.51.9,1.52.17-.14.15-.31.2-.5.24.05.22.3.3.5.09.23.17.34.34.52.3.31.6.93,1.02.59.1-.08.04-.3.22-.39.25-.11.27.04.41.22.42.51.42,1.42,1.07,1.77-.01-.22.14-.39.38-.31.2.07.12.15.2.34.13.35.23,1.3.62,1.38.06-.18-.06-.5.2-.53.35-.03.34.72.37.88.04.27.13,1.07.41,1.18.3.12.33-.24.47-.47.6.15.51,1.58.68,2.04.29-.03.41-1.29.82-.43.16.34.14,1.12.17,1.49.06.76-.04,1.53.05,2.29.33-.22.54-1.38,1.01-.67.46.69,0,1.73.19,2.49.46.08,1.03.01,1.49,0,.63,0,1.26,0,1.87.16.46.13.65.33,1.03.54-.49-.07-.91.37-.97.83.36.15,1.02.03,1.41.03.13,0,.51-.08.62.03.25.25-.17.26-.22.33-.37.47.18.57.58.75.33.15,1.47.74,1.37,1.27-.48.12-.77.46-.4.97.35.49,1.96.95,1.96,1.62-.11.02-.22.03-.34.05.04.31.65.63.88.83.33.29.86.6.97,1.06-.38.36-.92.67-.49,1.22.17.22.5.35.69.55.23.23.14.15.16.41,0,0-.12.12-.12.19-.02.2.38.55.49.69.29.33.78.63.93,1.06.11.34-.04.26-.07.58-.07.61.65,1.04.98,1.45.18.22.77.75.74,1.02-.12.07-.4.12-.48.24-.18.28.16.61.31.82.26.38,1.46,1.37,1.38,1.88-.33.09-.78-.12-.67.39.08.38.62.73.83,1.01.17.23.28.5.38.76.06.17.15.24.13.44-.02.15-.17.23-.15.42.03.24.36.54.49.75.1.18.18.4.3.55-.34.23.38.89.43,1.21.04.28,0,.4.12.68.07.17.17.34.22.5.12.4.14.79.16,1.21,0,.2.18.43.17.61-.02.3-.14.26-.08.6.08.37.4.65.44,1.04.03.29-.08.36-.15.61-.09.36-.04.75-.12,1.12-.09.41-.09.77-.09,1.19,0,.42-.11.75-.15,1.13.64,2.43,1.14,4.83,1.48,7.12.77,5.12.74,9.67-.29,12.82Z" style="stroke-width:0px;fill:#a8824a"/><path d="m55.63,60.96c-.14-.34-.32-.66-.47-1.01-.27-.65-.36-1.38-.73-1.99-.29-.47-.53-.77-.69-1.3-.13-.41-.24-.79-.38-1.2-.31-.85-.53-1.75-.77-2.59-.12-.41-.46-.91-.73-1.25-.18-.23-.95-.91-.62-1.3.22-.25.92.03.51-.54-.18-.24-.55-.45-.76-.69-.16-.18-.34-.37-.48-.57-.56-.77-.12-1.61-.66-2.4-.26-.38-.58-.81-.92-1.13-.12-.11-.38-.23-.45-.38-.19-.4.31-.85.14-1.16-.16-.29-.8-.32-.99-.59-.07-.1-.17-.66-.2-.82-.11-.64.09-1.38-.4-1.87-.36-.36-1.07-.68-1.16-1.23-.11-.65.68-.45,1.04-.72.03-.23-.36-.53-.5-.68-.29-.32-.57-.62-.88-.92-.24-.24-.59-.51-.67-.86-.04-.2.04-.4,0-.6-.2-1.08-2.52-.95-2.21-2.03.04-.14.16-.19.15-.38-.02-.31-.36-.53-.56-.73-.45-.45-1.27-.9-1.49-1.52-.13-.37.03-.72-.15-1.06-.26-.52-.92-.94-1.41-1.22.07-.27.41-.42.66-.51.13-.53-1.69-1.01-2.04-1.17-.7-.31-.8-.37-.49-.99.36-.73-.58-.67-1.15-.77-.51-.08-.94-.14-1.46-.13-.26,0-.56.04-.81-.02.2-.41.1-.89.11-1.33,0-.3.08-.58-.31-.57-.12-.31.07-.67-.06-.99-.16-.01-.31-.03-.46-.05-.12-.42.15-1.03-.03-1.42-.14-.29-.33-.22-.34-.62,0-.22.04-.45-.02-.66-.41-.09-.57.02-.45-.5.05-.22.3-.75.13-.99-.17-.23-.63.09-.7-.26-.02-.09.18-.25.2-.34.04-.14,0-.36-.03-.5-.64-.07-.79-.25-1.17-.75-.37-.48-.79-.82-1.38-.95-.51-.12-.57-.14-.82-.6-.16-.29-.02-.25-.38-.3-.14-.02-.37.09-.49-.02-.3-.27.27-1-.19-1.19-.13-.06-.38.11-.5-.01-.15-.15.08-.45-.05-.63-.27-.37-1.08-.07-.98-.68.02-.12.27-.23.29-.38.06-.35-.26-.41-.49-.56-.23-.15-.45-.32-.69-.47-.13-.08-.51-.22-.6-.34-.14-.18,0-.34-.11-.54-.14-.25-.58-.15-.81-.2-.04-.1-.12-.15-.24-.14-.17,0-.33,0-.5.01-.24-.05-.24.08-.34-.16-.09-.22.1-.37-.11-.58-.19-.19-.33-.07-.57-.11-.21-.04-.39-.15-.6-.19-.16-.03-.35-.1-.47-.13-.42-.09-.89-.04-1.33-.04-.63,0-1.27,0-1.91,0-.53,0-.65-.11-.71-.62-.33.19-.66.06-1.01.1-.33.04-.65.19-1,.29-1.14.3-2.17.92-3.38.93-.36,0-.69.02-1.03.08-.01-.32.1-.74.09-1.13-.32.03-.61.15-.87.34l.17-1.89c.04-.31.27-.51.43-.76.24-.39.47-.87.65-1.3.27.02.23.29.46.35.21.06.36-.05.49-.18.2-.19.21-.67.54-.71.22-.03.45.35.67.17.1-.09-.01-.34.06-.46.27-.45.55-.03.82.14.64.41.3-.06.73-.31.38-.23.59.3,1,.11.4-.19.5-.81,1.03-.85.55-.04.27.5.37.86.38.02.53-.34.73-.59.21-.27.62-.52.98-.57.74-.1-.11,1.08.93.81.2-.05.43-.33.69-.15.26.18-.09.64.12.83.13.12.66.03.83.03.37,0,.84-.08,1.19.03.05.22-.02.42.03.64.29.09,2.51-.17,1.89.51.59.09.66.28.67.88.01.45.05,1.2.57.58.28.35.26.92.55,1.32.41.57.41-.03.92.2.1.38.38,1.51.9,1.52.17-.14.15-.31.2-.5.24.05.22.3.3.5.09.23.17.34.34.52.3.31.6.93,1.02.59.1-.08.04-.3.22-.39.25-.11.27.04.41.22.42.51.42,1.42,1.07,1.77-.01-.22.14-.39.38-.31.2.07.12.15.2.34.13.35.23,1.3.62,1.38.06-.18-.06-.5.2-.53.35-.03.34.72.37.88.04.27.13,1.07.41,1.18.3.12.33-.24.47-.47.6.15.51,1.58.68,2.04.29-.03.41-1.29.82-.43.16.34.14,1.12.17,1.49.06.76-.04,1.53.05,2.29.33-.22.54-1.38,1.01-.67.46.69,0,1.73.19,2.49.46.08,1.03.01,1.49,0,.63,0,1.26,0,1.87.16.46.13.65.33,1.03.54-.49-.07-.91.37-.97.83.36.15,1.02.03,1.41.03.13,0,.51-.08.62.03.25.25-.17.26-.22.33-.37.47.18.57.58.75.33.15,1.47.74,1.37,1.27-.48.12-.77.46-.4.97.35.49,1.96.95,1.96,1.62-.11.02-.22.03-.34.05.04.31.65.63.88.83.33.29.86.6.97,1.06-.38.36-.92.67-.49,1.22.17.22.5.35.69.55.23.23.14.15.16.41,0,0-.12.12-.12.19-.02.2.38.55.49.69.29.33.78.63.93,1.06.11.34-.04.26-.07.58-.07.61.65,1.04.98,1.45.18.22.77.75.74,1.02-.12.07-.4.12-.48.24-.18.28.16.61.31.82.26.38,1.46,1.37,1.38,1.88-.33.09-.78-.12-.67.39.08.38.62.73.83,1.01.17.23.28.5.38.76.06.17.15.24.13.44-.02.15-.17.23-.15.42.03.24.36.54.49.75.1.18.18.4.3.55-.34.23.38.89.43,1.21.04.28,0,.4.12.68.07.17.17.34.22.5.12.4.14.79.16,1.21,0,.2.18.43.17.61-.02.3-.14.26-.08.6.08.37.4.65.44,1.04.03.29-.08.36-.15.61-.09.36-.04.75-.12,1.12-.09.41-.09.77-.09,1.19,0,.42-.11.75-.15,1.13.64,2.43,1.14,4.83,1.48,7.12Z" style="fill:#cc9e5f;stroke-width:0px"/><path d="m55.34,73.78c-.29.89-.66,1.67-1.11,2.32-3.02,4.3-11.11,4.82-17.99,4.82s-10.1,1.2-12.53-9.46c-2.43-10.67-6.22-24.95-7.25-30.45s-2.58-12.25-5.68-14.97c-1.57-1.38-2.09-6.73-.68-11.39,5.35-.46,10.82-.4,13.11,4.51,0,0-2.45,6.42-3.83,8.55-1.38,2.12-2.39,4.87-1.8,8.14.59,3.27,4.28,5.37,4.28,5.37,0,0,2,7.88,3.03,10.63,1.03,2.75,13.59,1.55,18.41,6.37s8.09,16.17,8.95,16.34c.64.13,1.56,1.2,3.11-.77Z" style="stroke-width:0px;fill:#7f5e33"/><path d="m21.86,39.97c0,1.57-.02,3.49-.08,5.56-.15,5.18-.57,11.26-1.66,14.92-1.52,5.11-5.32,16.17-6.35,19.65-1.03,3.48-4.99,2.88-8.09,2.88s-2.23-3.96,0-4.13c2.23-.17,3.27-.86,4.13-4.13.85-3.27,3.1-20.13,3.1-20.13,0,0-1.2-10.15-.86-16,.22-3.72,2.32-5.49,3.82-6.29h0c.85-.46,1.51-.59,1.51-.59,2.75-.17,4.47,2.75,4.47,8.26Z" style="stroke-width:0px;fill:#a8824a"/><path d="m53.51,76.65c-1.97,3.99-7.1,5.22-10.96,5.22s-16.87,1.69-21.7-1.31c-4.83-3.01-3.52-16.3-1.11-20.37,1.47-2.48,3.84-3.7,6.67-4.27,0,0,0,0,0,0,1.8-.37,3.79-.47,5.86-.47,5.3,0,13.82,3.9,13.82,3.9,2.88,1.9,5.47,5.84,6.86,9.64,1.09,3,1.43,5.9.56,7.66Z" style="stroke-width:0px;fill:#a8824a"/><path d="m21.78,45.52c-.15,5.18-.57,11.26-1.66,14.92-.15.51-.33,1.08-.52,1.69-.54-.05-1.09-.06-1.65-.02-.67.02-1.34.04-2.01.05-.48,0-.9-.12-1.36-.14-.4-.02-.83-.02-1.23,0-.45.03-1,.3-1.43.1-.02,0-.04-.02-.06-.03.58-4.06,1.04-7.49,1.04-7.49,0,0-1.2-10.15-.86-16,.22-3.72,2.32-5.49,3.82-6.29-.09.1-3.2,3.6-2.43,8.18.78,4.64,1.31,10.32,4.14,10.84,1.75.32,3.18-2.06,4.2-5.8Z" style="stroke-width:0px;fill:#7f5e33"/><path d="m53.51,76.65c-1.97,3.99-7.1,5.22-10.96,5.22s-16.87,1.69-21.7-1.31c-4.83-3.01-3.52-16.3-1.11-20.37,1.47-2.48,3.84-3.7,6.67-4.27-.19.1-7.6,4.18-4.55,15.01,3.08,10.98,23.22,5.51,27.8,5.33,2.42-.09,3.15-3.8,3.29-7.28,1.09,3,1.43,5.9.56,7.66Z" style="stroke-width:0px;fill:#7f5e33"/><path d="m19.6,62.13c-1.73,5.54-4.9,14.83-5.83,17.96-1.03,3.48-4.99,2.88-8.09,2.88s-2.23-3.96,0-4.13c2.23-.17,3.27-.86,4.13-4.13.47-1.8,1.36-7.69,2.06-12.64.02.01.04.02.06.03.43.2.98-.07,1.43-.1.4-.02.83-.02,1.23,0,.47.02.89.14,1.36.14.67,0,1.34-.03,2.01-.05.55-.04,1.1-.03,1.65.02Z" style="stroke-width:0px;fill:#1b180f"/><g><path d="m21.95,26.44c.47-.12.93-.03,1.12-.51.11-.28.46-1.29-.18-1.25l-.94.27c-.12.15-.25.08-.38.16-.09.06-.15.17-.23.24-.32.29-.64.58-.59,1.07.41.03.79.12,1.21.02Z" style="stroke-width:0px;fill:#5b4830"/><path d="m25.85,17.27l-.54-.4c-.13-.03-.26-.02-.39.02-.03.4-.51,1.17-.16,1.52.54.56,1.77-.64,1.09-1.14Z" style="stroke-width:0px;fill:#5b4830"/><path d="m30.3,24.28c.2-.19.13-.5.13-.68l-.81-.94c-.25.18-.3.34-.54.53-.33.27-.67.91-.54,1.35.43.08,1.41.07,1.76-.26Z" style="stroke-width:0px;fill:#5b4830"/><path d="m18.44,40.46l.13-.54c-.31-.05-.57.18-.83.3-.25.11-.52.14-.64.42-.09.21-.06.58,0,.78.09.24.37.64.66.67.31.04.42-.26.54-.49.05-.1.53-1.14.12-1.15Z" style="stroke-width:0px;fill:#5b4830"/><path d="m21.06,49.49c.43-.01.43-.62.46-.94.05-.47.04-.99.02-1.46-.02-.32-.05-.23-.28-.43l-.27-.13c-.08-.05-.16-.08-.24-.11-.3.29-.49.65-.56,1.07-.08.53-.04,2.04.86,2.01Z" style="stroke-width:0px;fill:#5b4830"/><path d="m16.28,33.85c-.45-.05-.96.36-.55.78.39.39,1.36.35,1.23-.37l-.67-.4Z" style="stroke-width:0px;fill:#5b4830"/><path d="m25.13,38.57c.04.39.42.68.78.77.57.15,1.96-.2,2.29-.76.23-.39-.04-.91-.33-1.21l-.54-.27c-.55-.09-.65.34-1.08.53-.42.18-1.18.33-1.12.95Z" style="stroke-width:0px;fill:#5b4830"/><path d="m29.98,45.48c-.02.6.52.95.99,1.18.71.34,1.97.48,2.37-.42.12-.27.23-1.38-.07-1.61l-1.08-.81s-.02-.07-.02-.11c-.4-.11-.65,0-.96.25-.46.37-1.2.85-1.22,1.52Z" style="stroke-width:0px;fill:#5b4830"/><path d="m36.77,38.97l-.94-.4c-.38,0-1.71-.22-1.33.57.26.54,1.13.62,1.62.44.25-.09.28-.18.4-.37.08-.13-.02-.33.26-.23Z" style="stroke-width:0px;fill:#5b4830"/><path d="m43.25,42.96c-.41.45-.08,1.13.44,1.3.51.17,1.41-.03,1.44-.71v-.4c-.49-.24-1.41-.69-1.88-.19Z" style="stroke-width:0px;fill:#5b4830"/><path d="m36.35,36.61c-.08.44.86.63,1.15.69.51.1.82.05,1.15-.34l-1.21-.67c-.32,0-1-.13-1.09.33Z" style="stroke-width:0px;fill:#5b4830"/><path d="m33.26,50.25c-.45.26-.61,1.18-.73,1.62-.09.34-.22.74.12.98.3.22.78.15,1.1.07.43-.11,1.54-.68,1.54-1.28l-1.48-1.21c.01-.34-.34-.29-.54-.18Z" style="stroke-width:0px;fill:#5b4830"/><path d="m25.11,59.6c-.15.04-.27.03-.4.13-.45.34-.78,1.66-.26,2.05.52.4,1.33.33,1.58-.29.19-.46.38-1.2,1.04-1.09l-1.21-1.08c-.26.1-.49.2-.74.27Z" style="stroke-width:0px;fill:#5b4830"/><path d="m30.57,75.77l-1.75-.81c-.25,0-.74-.09-.92.16-.37.51.63,1.1.86,1.25.5.34,2.47,1.54,2.81.48.24-.74-.43-.88-.99-1.08Z" style="stroke-width:0px;fill:#5b4830"/><path d="m21.81,69.97c-.63.26-1.26.89-1.01,1.62.2.59.75.86,1.34.6.47-.2.33-.57.34-1.01l-.67-1.21Z" style="stroke-width:0px;fill:#5b4830"/><path d="m32.89,70.12c.5-.15.17-.89.11-1.23l-1.21-.67c-.68-.11-.36.69-.16.96.24.32.76,1.1,1.26.95Z" style="stroke-width:0px;fill:#5b4830"/><path d="m46.6,73.31c.19.58,1.63.59,2.03.32.26-.18.25-.97.68-.83l-.81-.94c-.48.2-2.14.73-1.9,1.46Z" style="stroke-width:0px;fill:#5b4830"/><path d="m47.28,46.66l-.54-.81c-.61,0-1,.39-1.01,1-.02.62.52.97,1.14,1.02.62.04.42-.8.41-1.21Z" style="stroke-width:0px;fill:#5b4830"/><path d="m45.8,36.68l-.94-.4s-.02.07-.02.11c-.34.05-.37,0-.38.37-.01.4.09.74.43,1.01.2.15.78.43,1.03.24.35-.26.17-1.12-.11-1.33Z" style="stroke-width:0px;fill:#5b4830"/><path d="m35.01,48.27c-.17.19-.39.12-.55.33-.15.2-.18.4,0,.58.21.21.73.36,1.01.32.39-.06.35-.22.35-.56l-.81-.67Z" style="stroke-width:0px;fill:#5b4830"/><path d="m25.3,52.56c.15-.24.35-1.13-.12-1.19l-.94-.13c-.32.26-.32.28-.44.68-.1.31-.29.95.01,1.2.12.1.57.02.69-.01.32-.07.63-.26.8-.55Z" style="stroke-width:0px;fill:#5b4830"/><path d="m15.6,55.61c-.37.17-.4,1.26-.13,1.56h.4c.95.33,1.01-2.16-.27-1.56Z" style="stroke-width:0px;fill:#5b4830"/><path d="m13.2,47.21c-.05.23-.07.64-.02.88.03.16.15.26.17.43.04,0,.07.02.11.03h.54c.51-.42-.16-1.58-.79-1.34Z" style="stroke-width:0px;fill:#5b4830"/><path d="m53.68,62.23c-.17-.35-.45-.79-.88-.53-.38.23-.38,1.57.14,1.4l.81.54c.1-.56.21-.82-.07-1.41Z" style="stroke-width:0px;fill:#5b4830"/><path d="m50.5,65.34c-.37.17-.34.89-.24,1.24.04,0,.07.01.11.02l.4.54c.61-.33.66-.75.42-1.4-.13-.35-.33-.57-.7-.4Z" style="stroke-width:0px;fill:#5b4830"/><path d="m33.86,74.76c-.32-.12-.68-.08-1.02-.07-.21,0-.57-.06-.79.02-.09.28.15.44.33.6.28.25.45.55.88.46l.81-.4c.15-.32.21-.45-.21-.6Z" style="stroke-width:0px;fill:#5b4830"/><path d="m50.73,50.11c.13-.47-.19-1.81-.81-1.85-.71-.05-.64,1.31.06,1.23v.81c.38.05.6.36.75-.18Z" style="stroke-width:0px;fill:#5b4830"/><path d="m39.03,59.24c-.39-.34-.79-.79-1.33-.86-.17-.02-.79.02-.96.17-.39.34.22.66.5.78.32.14.53.13.87.13l.67.54c.5-.26.75-.31.24-.76Z" style="stroke-width:0px;fill:#5b4830"/><path d="m21.54,57.44s.1-.29.1-.3c.05-.26-.18-.64-.24-.91-.07-.34-.35-.5-.5-.81-.42.7-.71,1.47-.85,2.29l.4.27c.26,0,.72.03.92-.16.05-.04.13-.31.16-.37Z" style="stroke-width:0px;fill:#5b4830"/><path d="m18.84,28.59l-.67-.27c.08.29-.34.54-.41.81-.1.38-.25.6.17.77.4.16.93.35,1.06-.23.06-.26.04-.81-.03-1.06-.04,0-.07-.02-.11-.02Z" style="stroke-width:0px;fill:#5b4830"/><path d="m23.83,35.06h-.27s0,.07,0,.11c-.26.07-.55-.06-.79.04-.02.09-.07.3-.05.39.1.32.79.34,1.02.21.24-.13.39-.52.09-.75Z" style="stroke-width:0px;fill:#5b4830"/><path d="m37.63,32.5c.2,0,.78.1.95-.07.39-.39-.23-.86-.33-1.14h-.94c-.35,0-.66,0-.91.26-.18.19-.45.63-.44.9.4.21,1.23.05,1.68.05Z" style="stroke-width:0px;fill:#5b4830"/></g><path d="m13.43,23.73c-1.07.55-2.05,1.09-3.86,1.07-3.04-.02-1.94-2.4-1.94-2.4,0,0-4.77-.9-3.96,1.43.63,1.82-1.02.64-1.78.03-.03-.27-.05-.57-.06-.87-.06-1.69.27-2.71.56-3.77.1.01.24.05.33.02.33-.1.47-.75.54-1.02.09-.38.01-.74.47-.74.28,0,.56.01.84.01.25,0,.53.03.78,0,.2-.02.36-.11.56-.12.35-.03.47-.11.78-.21.25-.08.58-.02.84-.02.23,0,.55-.06.78-.01.32.06.33.35.47.63.13.26.31.65.57.81.26.16.63-.07.85.11.2.15.09.4.16.6.05.14.17.24.23.37.06.12.07.29.13.4.09.16.33.42.5.5.24.12.49-.05.7.17.16.17.12.42.24.61.18.26.44.45.61.72.26.41.63.84.66,1.33,0,.12.01.24.01.35Z" style="stroke-width:0px;fill:#282728"/><path d="m13.3,26.02c-2.17.78-4.43,1.68-6.65,1.68-3.24,0-4.48-1.05-4.76-3.83.76.61,2.41,1.79,1.78-.03-.81-2.33,3.96-1.43,3.96-1.43,0,0-1.1,2.38,1.94,2.4,1.81.01,2.79-.52,3.86-1.07.02.78-.02,1.54-.13,2.28Z" style="stroke-width:0px;fill:#191919"/><path d="m23.47,13.73c-.14.32-.23.77-.27,1.38-.34,6.32-4.4,7.08-7.16,7.64-1.11.23-1.89.61-2.62.99,0-.12,0-.23-.01-.35-.03-.49-.4-.92-.66-1.33-.17-.27-.43-.46-.61-.72-.13-.19-.08-.45-.24-.61-.21-.22-.46-.05-.7-.17-.16-.08-.41-.34-.5-.5-.06-.12-.07-.28-.13-.4-.07-.13-.18-.23-.23-.37-.07-.2.04-.45-.16-.6-.23-.17-.59.06-.85-.11-.26-.16-.43-.55-.57-.81-.14-.28-.15-.57-.47-.63-.23-.04-.55.01-.78.01-.27,0-.6-.06-.84.02-.31.1-.42.18-.78.21-.2.02-.36.1-.56.12-.25.02-.52,0-.78,0-.28,0-.56-.01-.84-.01-.45,0-.37.37-.47.74-.07.28-.21.92-.54,1.02-.09.03-.23,0-.33-.02.29-1.09.54-2.22.25-4.15-.35-2.33.29-5.23,2.32-7.33-.13.2-2.63,4.22-.89,6.6,1.78,2.44,3.94,1.55,5.21-1.15,1.27-2.71,2.71-6.98,9.23-6.75.39.01.75.02,1.09.02.38.23.73.5,1.05.8,1.64,1.59,2.48,4.08,2.84,6.45Z" style="stroke-width:0px;fill:#2c2816"/><path d="m7.1,21.04s-2.06-.61-3.43,0c-1.71.77-.13,3.44,1.42,3.67s4.77-2.9,2.01-3.67Z" style="stroke-width:0px;fill:#231f20"/><path d="m7.93,6.71S6.35,1.89,5.29.74c-1.06-1.15-2.55.23-4.38,3.56C-.93,7.62,0,14.56,3.89,15.11c3.9.55,4.64-4.84,4.04-8.4Z" style="stroke-width:0px;fill:#2c2816"/><path d="m6.41,8.31s-1.5-4.59-2.36-5.39c-.85-.8-3.39,2.87-2.24,7,1.15,4.13,5.17,5.15,4.59-1.61Z" style="stroke-width:0px;fill:#1b180f"/><path d="m23.5,19.32c-.46,2.41-3.24,5.16-6.44,5.62-1.2.17-2.47.6-3.77,1.07.12-.74.16-1.51.13-2.28.73-.38,1.51-.76,2.62-.99,2.75-.56,6.82-1.32,7.16-7.64.03-.61.13-1.06.27-1.38.34,2.26.25,4.42.03,5.59Z" style="stroke-width:0px;fill:#1b180f"/><path d="m19.58,6.48c-.34,0-.7-.01-1.09-.02-6.52-.23-7.95,4.04-9.23,6.75-1.27,2.71-3.43,3.6-5.21,1.15-1.74-2.38.77-6.4.89-6.6h0c1.26-1.31,3.06-2.3,5.48-2.65,0,0,5.68-.74,9.16,1.38Z" style="stroke-width:0px;fill:#3d3721"/><path d="m15.76,15.77c0-1.17-.95-2.12-2.12-2.12s-2.12.95-2.12,2.12.95,2.12,2.12,2.12,2.12-.95,2.12-2.12Z" style="stroke-width:0px;fill:#f1f2f2"/><circle cx="13.59" cy="15.9" r="1.21" style="stroke-width:0px;fill:#231f20"/><path d="m14.8,14.56c0-.32-.26-.58-.58-.58s-.58.26-.58.58.26.58.58.58.58-.26.58-.58Z" style="stroke-width:0px;fill:#fff"/><path d="m1.65,15.77c0-1.17.95-2.12,2.12-2.12s2.12.95,2.12,2.12-.95,2.12-2.12,2.12-2.12-.95-2.12-2.12Z" style="stroke-width:0px;fill:#f1f2f2"/><path d="m2.61,15.9c0-.67.54-1.21,1.21-1.21s1.21.54,1.21,1.21-.54,1.21-1.21,1.21-1.21-.54-1.21-1.21Z" style="stroke-width:0px;fill:#231f20"/><path d="m2.61,14.56c0-.32.26-.58.58-.58s.58.26.58.58-.26.58-.58.58-.58-.26-.58-.58Z" style="stroke-width:0px;fill:#fff"/><path d="m27.9,9.69c-.19,3.58-2.31,5.2-3.83,5.39-.93.11-1.17-.11-1.26-.72,1.52-.37,3.94-1.62,3.56-3.18-.49-1.98-2.41-8.83-3.67-7.68-.83.75-2,2.74-2.71,4.02-.44-.41-.93-.77-1.49-1.06,0,0,.47-1.32,1.49-3.16,1.02-1.84,2.74-4,3.57-3.07.84.93,4.54,5.89,4.34,9.47Z" style="stroke-width:0px;fill:#2c2816"/><path d="m22.82,14.36c-.06-.39-.06-.93-.15-1.64-.17-1.43-1.01-3.66-2.68-5.21.71-1.28,1.88-3.26,2.71-4.02,1.26-1.15,3.18,5.71,3.67,7.68.39,1.56-2.03,2.81-3.56,3.18Z" style="stroke-width:0px;fill:#1b180f"/><path d="m5.56,20.96s-2.1,0-2.12.85,3.31.76,3.85.42.49-1.27-1.73-1.27Z" style="stroke-width:0px;fill:#414042"/></g></g></svg>