<?xml version="1.0" encoding="UTF-8"?>
<svg id="Layer_2" data-name="Layer 2" xmlns="http://www.w3.org/2000/svg" viewBox="0 0 214.22 191.8">
  <defs>
    <style>
      .cls-1 {
        fill: #91341f;
      }

      .cls-1, .cls-2, .cls-3, .cls-4, .cls-5, .cls-6, .cls-7, .cls-8, .cls-9 {
        stroke-width: 0px;
      }

      .cls-2 {
        fill: #ba4e27;
      }

      .cls-3 {
        fill: #ee7323;
      }

      .cls-4, .cls-9 {
        fill: #fff;
      }

      .cls-5 {
        fill: #231f20;
      }

      .cls-6 {
        fill: #f1f2f2;
      }

      .cls-7 {
        fill: #d1d3d4;
      }

      .cls-8 {
        fill: #c95d28;
      }

      .cls-9 {
        opacity: .2;
      }
    </style>
  </defs>
  <g id="_1" data-name="1">
    <g>
      <path class="cls-3" d="m128.06,58.1c-6.1-5.88-13.82-7.79-20.35-8.13-.94-2.21-1.78-6.51-.31-14.31,0,0,2.83-5.19,10.91,0,7.51,4.82,7.19,5.17,9.75,22.44Z"/>
      <path class="cls-4" d="m107.4,35.66c-1.47,7.79-.63,12.09.31,14.31-7.53-.4-13.46,1.26-13.46,1.26-2.29.06-4.35-.02-6.2-.21,3.9-11.84,4.7-24.97,4.7-24.97,0,0,6.73,16,10.54,6.82,1.61-3.89,5.74-4.99,10.15-4.48-2.74.61-5.16,2.59-6.04,7.27Z"/>
      <path class="cls-5" d="m130.02,60.2c-.63-.75-1.28-1.45-1.96-2.1-2.56-17.28-2.24-17.62-9.75-22.44-8.08-5.19-10.91,0-10.91,0,.88-4.68,3.3-6.66,6.04-7.27,5.99.69,12.51,4.37,13.98,8.06,2.12,5.33.13,16.47,2.33,23.04,0,0,0,.02.01.04.08.22.15.44.25.65,0,0,0,.02,0,.02Z"/>
      <path class="cls-2" d="m128.53,138.77c-1.97,4.8-2.11,11.96-2.06,16.64.08,8.38-6.08,12.37-19.07,13.14-12.99.77-12.54-11.86-12.54-11.86,3.75-20.05,34.29-41.6,33.85-19.25,0,0-.08.46-.18,1.33Z"/>
      <path class="cls-5" d="m116.63,171.77c-11.26,2-25.52,4.97-21.77-15.08,0,0-.46,12.63,12.54,11.86,12.99-.77,19.14-4.76,19.07-13.14-.05-4.68.09-11.84,2.06-16.64-.26,2.43-.56,7.97.84,15.04,1.9,9.58-1.48,15.97-12.74,17.96Z"/>
      <path class="cls-3" d="m136.15,100.74s-.42,12.24-6.28,21.85c-5.86,9.6-22.47,6.74-22.47,6.74,0,0-25.19-9.91-21.19,29.23-15.61-16.91-2.88-92.9.99-104.93.29-.89.57-1.76.85-2.6,1.85.19,3.91.26,6.2.21,0,0,22.88-6.4,35.77,8.97,1.17,3.26,5.8,17.56,6.13,40.54Z"/>
      <path class="cls-3" d="m201.9,110c-5.77,11.6-14.37,18.82-27.84,14.47-18.54-6-21.24-18.51-21.39-19.28,0-.02,0-.04,0-.04-2.16-18.96-2.57-32.55,2.39-43.13,0,0,0,0,.01-.02.38-.59,8.16-12.21,24.62-6.38,16.89,5.99,21.4,14.37,22.9,33.93.62,8.06.35,14.71-.69,20.45Z"/>
      <path class="cls-4" d="m209.61,62.22c-10.62-14.55-32.54-23.37-46.06-11.39-13.51,11.97-13.89,27.94-10.89,54.33,0,0-4.13,3.55-9.01,3.58-4.88.02-7.51-7.99-7.51-7.99-.33-22.98-4.96-37.28-6.13-40.54.41,1.01.94,1.9,1.63,2.6,5.08,5.19,13.55,7.58,24.98-9.18,10.32-15.14,41.69-14.33,52.99,8.6Z"/>
      <path class="cls-5" d="m190.07,141.04c-9.94,5.62-21.7,1.47-32.02-4.25,0,0-.62-1.36-1.61-6.16,0,0,0,.02,0,.02,5.27,13.57,29.63,10.38,36.76,0,7.13-10.38,10.89-21.55,9.38-41.11-1.5-19.56-6.01-27.94-22.9-33.93-16.46-5.84-24.24,5.79-24.62,6.38,1.93-4.14,4.69-7.81,8.48-11.17,13.51-11.97,35.43-3.15,46.06,11.39h0c1.22,2.47,2.19,5.19,2.89,8.17,7.19,30.74-9.74,63.47-22.44,70.65Z"/>
      <path class="cls-8" d="m128.71,143.65s-.02.05-.02.05c-3.39,6.12-13.92,23.04-37.26,17.96-2.01-.44-3.75-1.51-5.22-3.11-3.99-39.13,21.19-29.23,21.19-29.23,0,0,16.61,2.87,22.47-6.74,5.86-9.61,6.28-21.85,6.28-21.85.36,25.52-6.99,41.94-7.44,42.92Z"/>
      <path class="cls-8" d="m201.9,110c-1.48,8.19-4.5,14.56-8.69,20.66-7.13,10.38-31.49,13.57-36.76,0,0,0,0-.02,0-.02-.97-4.63-2.29-12.49-3.76-25.44.15.77,2.85,13.28,21.39,19.28,13.47,4.35,22.06-2.87,27.84-14.47Z"/>
      <path class="cls-7" d="m158.05,136.79c-2.87-1.58-5.62-3.29-8.2-4.93-11.82-7.57-17.75,5.67-21.14,11.8.45-.97,7.8-17.4,7.44-42.92,0,0,2.63,8.02,7.51,7.99,4.88-.02,9.01-3.58,9.01-3.58,0,0,0,.02,0,.04.05.49.11.96.17,1.43.08.71.16,1.41.25,2.08v.02c.08.69.17,1.38.25,2.04.45,3.62.88,6.75,1.29,9.48.04.27.08.53.12.79.14.9.27,1.76.41,2.57.09.59.19,1.15.28,1.68.11.64.22,1.25.32,1.82.05.28.1.54.14.8.04.18.08.37.11.54.08.45.17.87.25,1.27.05.24.1.47.14.7.02.07.03.14.05.21,1,4.8,1.61,6.16,1.61,6.16Z"/>
      <path class="cls-8" d="m155.43,125.29c-.09-.53-.19-1.09-.28-1.68.09.58.19,1.15.28,1.68Z"/>
      <path class="cls-9" d="m98.78,58.1s4.7,12.82,14.15,14.68c9.45,1.86,27.74,7.58,23.22-1.2-4.52-8.78-9.02-17.93-27.29-20.34-18.27-2.41-10.09,6.86-10.09,6.86Z"/>
      <path class="cls-3" d="m95.61,51.2c-3.05,1.26-21.21,10.88-20.34,0,0,0,2.01-12.16,0-26.01-.73-5.06-.7-9.67,0-13.52,0,0,0,0,0-.02.17-.3,3.13-5.43,8.89-4.92,5.94.53,7.32,15.72,9.65,28.1.42,11.33,4.85,15.1,1.8,16.36Z"/>
      <path class="cls-5" d="m93.81,34.84c-2.33-12.38-3.71-27.58-9.65-28.1-5.76-.51-8.73,4.61-8.89,4.92,1.2-6.69,4.37-11.1,8.89-11.63,7.13-.84,9.23,23.49,9.65,34.82Z"/>
      <path class="cls-3" d="m55.14,130.93c-2.67.98-5.08,2.53-6.35,4.12-4.75,5.96-17.06,15-20.41,14.08-3.36-.93,2.52-4.95,8.31-9.14,5.8-4.19-13.35,2.52-18.35,2.52s6.68-5.87,12.17-8.1c5.5-2.24-12.77-.29-15.84-2.41-3.08-2.12,2.79-.95,12.86-.96,10.07,0,8.67-3.35.84-5.31-5.21-1.3-12.79-2.98-17.27-3.95,3.75-4.38,8.15-6.66,8.15-6.66,7.01,1.83,24.59,6.14,24.59,6.14,7.89,1.95,10.97,5.42,11.28,9.68Z"/>
      <path class="cls-5" d="m36.69,161.94c-3.68,0-20.71,3.36-31.48-9.65-7.64-9.23-6.22-22.65,0-31.04,6.21-8.39,7.05-7.97,14.05-6.14,0,0-15.64,8.11-13.12,23.06,2.52,14.96,14.52,22.51,30.55,23.77Z"/>
      <path class="cls-3" d="m146.94,127.12c8.67,0,8.67,3.08.84,3.91-7.83.83-6.71,2.53,2.21,5.18,8.91,2.66-5.28,3.21-10.02,1.95-4.74-1.25-8.97-.42-3.93,2.84,5.03,3.26,10.91,10.44,3.93,8.18-6.98-2.26-24.07-13.03-24.07-13.03,0,0-.76-.03-1.89.2-2.2-6.7-.58-12.39,10.46-15.12,0,0,17.58-4.31,24.59-6.14,0,0,3.96,2.06,7.58,6-1.03.16-2.06.39-3.09.66-22.19,6.12-15.28,5.35-6.61,5.35Z"/>
      <path class="cls-5" d="m131.64,161.94c3.68,0,20.71,3.36,31.48-9.65,7.64-9.23,6.22-22.65,0-31.04-6.21-8.39-7.05-7.97-14.05-6.14,0,0,15.64,8.11,13.12,23.06-2.52,14.96-14.52,22.51-30.55,23.77Z"/>
      <path class="cls-2" d="m79.7,162.33c-.25,2.5-.6,5.18-1.07,7.87-2.47,5.78-5.88,11.16-10.51,13.98-12.45,7.57-10.91-1.73-10.73-2.68,0-.05.02-.08.02-.08,3.02-12.84,18.95-25.34,18.95-25.34,0,0,4.45-4.61,3.35,6.26Z"/>
      <path class="cls-5" d="m78.63,170.19c-1.59,8.98-4.61,17.91-10.51,19.85-7.63,2.51-13.71,4.19-10.73-8.56-.18.96-1.72,10.25,10.73,2.68,4.63-2.82,8.04-8.2,10.51-13.98Z"/>
      <path class="cls-8" d="m50.24,144.74c-6.07,10.07-9.87,17.2-13.55,17.2-16.02-1.26-28.03-8.81-30.55-23.77-1.18-7.01,1.64-12.53,4.97-16.4,4.48.97,12.06,2.65,17.27,3.95,7.83,1.96,9.23,5.3-.84,5.31-10.07,0-15.94-1.17-12.86.96,3.07,2.12,21.33.17,15.84,2.41-5.5,2.23-17.16,8.1-12.17,8.1s24.15-6.71,18.35-2.52c-5.8,4.19-11.67,8.21-8.31,9.14,3.36.92,15.66-8.11,20.41-14.08,1.27-1.59,3.68-3.14,6.35-4.12.29,4.08-1.94,8.88-4.9,13.81Z"/>
      <path class="cls-8" d="m162.19,138.17c-2.52,14.96-14.52,22.51-30.55,23.77-3.67,0-7.48-7.13-13.55-17.2-1.73-2.87-3.2-5.7-4.08-8.37,1.13-.23,1.89-.2,1.89-.2,0,0,17.09,10.77,24.07,13.03,6.97,2.26,1.1-4.92-3.93-8.18-5.03-3.26-.81-4.09,3.93-2.84,4.74,1.26,18.93.7,10.02-1.95-8.92-2.66-10.03-4.35-2.21-5.18,7.84-.83,7.84-3.91-.84-3.91s-15.58.76,6.61-5.35c1.02-.28,2.06-.5,3.09-.66,3.57,3.9,6.8,9.64,5.55,17.06Z"/>
      <path class="cls-3" d="m42.69,99.46c-.94,8.33-1.16,15.96-.54,22.38-.24-.65-.35-1.1-.35-1.1-.07-.07-.13-.13-.19-.19-.5-6.98.03-14.22,1.08-21.09Z"/>
      <path class="cls-3" d="m115.4,75.11c7.26,16.75,6.2,40.63,1.28,54.32-7.45-5.38-20.29-15.4-32.52-15.4-14.68,0-23.07,5.13-31.23,11.79-.71.59-1.39,1.02-2.03,1.35-4.26-13.94-4.84-36.19,2.03-52.06,12.36-28.52,31.23-28.94,31.23-28.94,0,0,18.88.42,31.23,28.94Z"/>
      <path class="cls-3" d="m124.65,132.41c-.26.06-.5.11-.76.13,2.9-7.7,3.27-19.45,1.75-33.08,1.68,10.89,2.02,22.74-.99,32.95Z"/>
      <path class="cls-4" d="m123.9,132.54c-.39,1.06-.85,2.05-1.34,2.94-.15.29-.31.55-.47.81-.1.16-.2.32-.3.47-9.79,14.68-23.78,14.26-23.78,11.75s3.78-2.52,12.92-9.65c.22-.17.43-.35.64-.55.11-.1.23-.21.34-.33.4-.41.8-.88,1.17-1.4.13-.16.25-.34.37-.51.16-.23.32-.47.47-.72.16-.25.31-.51.46-.78.15-.27.3-.54.44-.82.13-.25.26-.5.39-.77.08-.15.15-.31.22-.47.12-.23.23-.48.33-.73.33-.75.64-1.53.93-2.35,4.92-13.69,5.97-37.57-1.28-54.32-12.36-28.52-31.23-28.94-31.23-28.94,0,0-18.88.42-31.23,28.94-6.87,15.86-6.29,38.12-2.03,52.06.77,2.53,1.66,4.77,2.65,6.67.13.24.26.48.39.71,0,.02.03.03.04.06.13.26.29.5.44.75.15.24.3.48.46.7,0,0,0,.02.02.03.12.18.24.34.37.51.05.08.11.15.17.23.13.18.27.35.41.51l.03.03c.16.19.33.38.49.55.12.13.23.24.35.34.23.23.45.42.69.6,9.14,7.13,12.92,7.13,12.92,9.65s-13.99,2.94-23.78-11.75c-.15-.22-.29-.44-.43-.68-.13-.21-.24-.41-.36-.63-.03-.06-.07-.13-.1-.19-.12-.21-.23-.43-.34-.65-.12-.23-.23-.46-.33-.7-.26-.57-.5-1.17-.72-1.8-.1-.28-.2-.56-.29-.86-.22-.67-.42-1.37-.6-2.1-.07-.25-.13-.5-.19-.76-.08-.34-.15-.67-.22-1.02-.06-.29-.12-.58-.17-.87-.08-.41-.15-.82-.22-1.25-.04-.24-.08-.49-.11-.74-.02-.09-.03-.18-.04-.28-.03-.26-.07-.52-.1-.78-.07-.53-.13-1.06-.18-1.6h0c-.62-6.43-.4-14.06.54-22.39,1.88-12.22,5.43-23.23,7.79-29.39.93-2.43,1.97-4.65,3.1-6.69h0s9.72-23.1,30.18-22.78c20.45.31,28.61,12.48,30.82,17.09,2.21,4.61,9.46,29.53,9.92,35.37v.02c.43,2.07.81,4.2,1.15,6.38,1.53,13.63,1.16,25.38-1.75,33.08Z"/>
      <g>
        <circle class="cls-6" cx="110.93" cy="86.96" r="10.28"/>
        <circle class="cls-5" cx="110.93" cy="86.96" r="6.11"/>
        <path class="cls-4" d="m103.32,82.8c0-1.7,1.38-3.08,3.08-3.08s3.08,1.38,3.08,3.08-1.38,3.08-3.08,3.08-3.08-1.38-3.08-3.08Z"/>
      </g>
      <g>
        <circle class="cls-6" cx="57.4" cy="86.96" r="10.28"/>
        <circle class="cls-5" cx="57.4" cy="86.96" r="6.11"/>
        <path class="cls-4" d="m65.01,82.8c0-1.7-1.38-3.08-3.08-3.08s-3.08,1.38-3.08,3.08,1.38,3.08,3.08,3.08,3.08-1.38,3.08-3.08Z"/>
      </g>
      <path class="cls-8" d="m124.65,132.41c-4.36,14.82-15.79,26.18-40.49,26.18-30.98,0-41.09-17.89-42.56-38.03.07.06.13.13.19.19,0,0,.11.44.35,1.1h0c.05.55.12,1.08.18,1.61.03.26.06.53.1.78,0,.09.03.18.04.28.03.25.07.5.11.74.07.43.13.84.22,1.25.05.29.11.59.17.87.07.34.14.68.22,1.02.06.26.13.51.19.76.18.73.38,1.43.6,2.1.09.29.19.58.29.86.22.63.46,1.23.72,1.8.1.24.21.48.33.7.11.23.22.44.34.65.03.07.07.13.1.19.12.22.23.42.36.63.13.23.28.46.43.68,9.79,14.68,23.78,14.26,23.78,11.75s-3.78-2.52-12.92-9.65c-.23-.18-.46-.38-.69-.6-.12-.1-.23-.22-.35-.34-.17-.18-.34-.36-.49-.55l-.03-.03c-.13-.16-.28-.33-.41-.51-.06-.08-.12-.15-.17-.23-.13-.16-.24-.34-.37-.51,0-.02-.02-.03-.02-.03-.16-.23-.31-.46-.46-.7-.15-.24-.3-.49-.44-.75-.02-.03-.03-.04-.04-.06-.13-.23-.26-.47-.39-.71-.99-1.9-1.88-4.14-2.65-6.67.64-.33,1.32-.76,2.03-1.35,8.16-6.66,16.55-11.79,31.23-11.79,12.23,0,25.07,10.03,32.52,15.4-.29.82-.6,1.6-.93,2.35-.1.25-.21.5-.33.73-.07.16-.14.32-.22.47-.13.26-.25.52-.39.77-.14.29-.29.55-.44.82-.15.27-.3.53-.46.78-.15.25-.31.49-.47.72-.12.18-.24.35-.37.51-.38.52-.77.99-1.17,1.4-.11.12-.23.23-.34.33-.21.2-.42.39-.64.55-9.14,7.13-12.92,7.13-12.92,9.65s13.99,2.94,23.78-11.75c.1-.15.2-.31.3-.47.16-.26.32-.54.47-.81.5-.9.95-1.89,1.34-2.94.25-.03.5-.08.76-.13Z"/>
      <path class="cls-7" d="m46.55,136.77c-2.36-3.54-3.78-8.66-4.4-14.92.89,2.46,3.52,7.93,8.75,5.31,1.68,5.49,3.92,9.69,6.5,11.7,9.14,7.13,12.92,7.13,12.92,9.65s-13.99,2.94-23.78-11.75Z"/>
      <path class="cls-7" d="m98.01,148.52c0-2.52,3.78-2.52,12.92-9.65,2.21-1.73,4.18-5.06,5.76-9.44,1.49,1.08,2.77,1.97,3.78,2.56,1.02.59,2.18.73,3.43.55-.6,1.59-1.3,3-2.11,4.23-9.79,14.68-23.78,14.26-23.78,11.75Z"/>
      <path class="cls-9" d="m83.13,42.81s-18.05,1.89-21.2,14.89,9.02,20.34,22.23,20.34,30.9-10.91,25.31-19.93c-5.59-9.02-12.07-15.31-26.34-15.31Z"/>
      <path class="cls-3" d="m50.9,127.16s12.12,8.69,32.76,8.69,33.02-6.43,33.02-6.43c0,0,9.85-18.25-18.68-24.96-28.52-6.71-48.53,2.22-47.11,22.69Z"/>
      <path class="cls-1" d="m83.58,123.7c-20.79,0-24.68-13.08-24.84-13.64-.23-.81.25-1.64,1.05-1.87.81-.23,1.64.24,1.87,1.05.14.48,3.55,11.42,21.92,11.42s22.92-12.59,23.1-13.13c.27-.79,1.13-1.22,1.92-.96.79.26,1.22,1.12.96,1.91-.05.15-5.25,15.21-25.99,15.21Z"/>
    </g>
  </g>
</svg>