<?xml version="1.0" encoding="UTF-8"?><svg data-name="Layer 2" xmlns="http://www.w3.org/2000/svg" viewBox="0 0 83.99 98.85"><defs/><g data-name="100"><g><path d="m10.88,12.39c-.08-.42-.26-1.37-.49-2.06-.3-.91-1.3-2.37-1.57-2.9s-.27-1.22-1.17-.89-.1,2.24.2,2.99c.29.71.71.4.24,1.4-.64-.48-1.27-.89-1.95-.85-1.51.09-.78,1.11-.78,1.11,0,0-.55.26,0,1.12,0,0-1,.63,0,1.77,0,0-.5.98.33,1.44.79.43,1.64,1.4,2.89,1.31.08-.06.18-.12.28-.2-.02,0-.04,0-.06,0h.07s0,0,0,0c.25.01.46-.08.66-.25.24-.22.04-.49.25-.72.15-.18.34-.12.4-.39.06-.27-.01-.32.21-.53.24-.22.25-.31.32-.62.1-.43.29-.83.39-1.26.02-.08.04-.16.05-.25-.08-.09-.16-.16-.24-.21Z" style="stroke-width:0px;fill:#303030"/><path d="m8.75,3.71c-.02.23-.09.48-.08.71.02.39.08.77.08,1.17,0,.31,0,.62,0,.93,0,.49.06,1.01-.02,1.49-.09.54-.16,1.04-.18,1.58,0,.3-.07.61-.1.91-.08.86-.07,1.72-.12,2.59-.06.99-.19,1.93-.45,2.89-.08.3-.04.53-.15.85-.18.5-.39.98-.6,1.47-.24.57-.42,1.2-.7,1.75-.24.47-.67.83-1.01,1.22-.91,1.06-1.73,2.22-2.44,3.43-.12.21-.31.65-.54.77-.08.04-.16.05-.24.08-.5.17-1.03.21-1.5.45-.2-.41-.19-.89-.33-1.32-.14-.05-.19.03-.29-.11-.07-.11-.04-.41-.02-.61.05.01.1.02.16.03.02.02.03.05.05.07,1-.84,1.94-1.75,2.9-2.62.14-.12.23-.29.44-.24.07.17-.07.35-.06.53.14.07.25-.05.33-.15.27-.3.44-.69.64-1.03.13-.22.26-.42.43-.61.08-.08.24-.19.22-.32-.25-.08-.56.1-.78.19-.3.13-.49.3-.74.48-.27.19-.53.37-.78.6.39-.61.79-1.17,1.25-1.73.25-.31.59-.61.73-.99.11.04.04.35.06.45.4-.28.49-.9.56-1.34.07-.44.22-.92.11-1.38-.25,0-.47-.11-.68-.22.08-.25.15-.5.21-.76.24-1.04.54-2.07.78-3.12.07-.3.04-.62.08-.93.09-.81.12-1.62.14-2.44.15,0,.24.22.4.27.27.1.32-.53.45-.68.18.02.23.35.39.46.14-.21.18-.86.22-1.03.13-.61.19-1.16.25-1.78.04-.45.32-1.19.06-1.63-.27.14-.34.88-.39,1.13-.04.21-.12.47-.14.71,0-.9-.03-1.8-.07-2.7-.02-.33-.09-.78,0-1.1.38-.05.31-.48.31-.78,0-.32,0-.71-.06-1.1.15.1.24.28.36.41.37.4.73,0,1.16.07.13.52-.06,1.15-.14,1.67-.07.45-.11.9-.16,1.35Z" style="stroke-width:0px;fill:#594a42"/><g><path d="m41.95,70.45v3.09h.05s.03,0,.05,0v-3.09s-.03-.01-.05-.02c-.02,0-.03.02-.05.02Zm.05-17.09s.03.01.05.02v-.04s-.03.02-.05.02Z" style="stroke-width:0px;fill:#a33d23"/><path d="m74.72,39.11c0-.37-.06-.73-.08-1.09-.07-.05-.12-.12-.13-.23-.19.04-.15.43-.31.49-.11.04-.27-.6-.36-.67-.19.21-.2.6-.27.87-.11.41-.25.86-.4,1.25-.12.31-.28.55-.36.89-.05.24-.11.47-.2.69-.05.13-.14.5-.23.57-.16.13-.35-.08-.53.04-.3.19-.19.9-.38,1.21-.07.12-.33.47-.46.5-.05-.13,0-.27-.04-.4-.19.03-.56.82-.67.98-.13.18-.24.42-.51.34-.06-.3.03-.6-.03-.89-.26-.1-.31.47-.54.48-.22.01-.2-.77-.27-.91-.41,0-.4.84-.45,1.09-.31-.16-.3-.9-.65-1-.14.15-.06.46-.29.53-.11-.11-.15-.28-.31-.31-.12.13-.19.35-.4.32-.21-.03-.11-.21-.25-.3-.16-.12-.7.05-.86.07-.27.03-.62.07-.89.02-.06-.28.12-.61-.27-.56-.34.05-1.02.47-1.35.24,0-.2.07-.57-.11-.73-.31.04-.51.28-.8.36-.03-.33.07-.73-.36-.73-.46,0-.88.35-1.34.31-.04-.16.09-.31.09-.47-.25-.22-.65.3-.92.18-.39-.16-.13-.87-.42-1.09-.28.21-1.24.83-1.48.33-.07-.14.04-.4,0-.56-.19,0-.38.2-.52.31-.27-.13.1-.57-.17-.71-.11.19-.25.62-.54.47-.1-.11-.19-.22-.27-.35-.08-.03-.15-.03-.23,0-.25.02-.62.23-.78-.03-.19-.31.16-.81-.09-1.13-.27.03-.37.36-.63.45-.23-.14-.12-.45-.28-.64-.15,0-.24.13-.37.18-.16-.18.09-.5-.13-.68-.15.03-.17.16-.32.21-.19-.18-.06-.48-.11-.71-.66-.09-1.22.66-1.68.98-.07-.17.01-.32-.02-.48-.19-.05-.48.29-.57.38-.18.17-.37.32-.57.47-.22.15-.29.37-.53.53-.14-.12-.04-.46-.04-.63,0-.26.08-.61-.04-.86-.08.03-.16.05-.24.07-.1-.35-.11-.92-.57-.82-.24.05-.47.24-.6.44-.03.05-.1.35-.17.41-.19.15-.48.02-.6.31-.04.1-.02.22-.06.34-.03.05-.05.12-.08.17-.12.28-.13.58-.16.89-.04.35-.03.86-.16,1.15-.12.27-.15.25-.43.28-.6.07-1.27.49-1.82.7-.33.12-.68.2-1,.34.04.27-.41.51-.55.63-.57.48-1.07.95-1.44,1.59-.04.08-.08.15-.12.23-.04-.08-.08-.15-.12-.23-.38-.64-.88-1.11-1.44-1.59-.14-.12-.59-.37-.55-.63-.32-.13-.67-.21-1-.34-.55-.21-1.22-.63-1.82-.7-.28-.03-.31-.02-.43-.28-.14-.29-.12-.8-.16-1.15-.03-.31-.04-.61-.16-.89-.02-.05-.05-.11-.08-.17-.05-.11-.02-.24-.06-.34-.12-.3-.41-.17-.6-.31-.07-.06-.14-.36-.17-.41-.13-.21-.36-.39-.6-.44-.46-.1-.47.47-.57.82-.08-.02-.16-.04-.24-.07-.11.25-.05.6-.04.86,0,.17.1.51-.04.63-.24-.15-.3-.37-.53-.53-.21-.14-.39-.3-.57-.47-.09-.09-.38-.43-.57-.38-.03.17.05.32-.02.48-.46-.32-1.03-1.08-1.68-.98-.05.22.08.53-.11.71-.15-.04-.17-.17-.32-.21-.22.18.03.5-.13.68-.14-.05-.22-.17-.37-.18-.16.19-.05.5-.28.64-.25-.09-.36-.42-.63-.45-.25.32.1.82-.09,1.13-.16.26-.53.05-.78.03-.08-.04-.15-.04-.23,0-.08.13-.17.24-.27.35-.29.14-.44-.29-.54-.47-.27.14.09.59-.17.71-.14-.11-.33-.31-.52-.31-.04.16.07.42,0,.56-.24.51-1.21-.12-1.48-.33-.29.22-.03.92-.42,1.09-.27.11-.67-.4-.92-.18,0,.16.13.32.09.47-.46.04-.89-.31-1.34-.31-.43,0-.33.4-.36.73-.29-.07-.49-.32-.8-.36-.17.15-.1.53-.11.73-.33.23-1.01-.2-1.35-.24-.39-.05-.21.27-.27.56-.27.06-.62.01-.89-.02-.16-.02-.7-.18-.86-.07-.13.1-.03.27-.25.3-.21.04-.28-.18-.4-.32-.16.03-.2.2-.31.31-.23-.07-.15-.37-.29-.53-.35.1-.33.84-.65,1-.05-.24-.04-1.08-.45-1.09-.07.14-.05.92-.27.91-.23-.02-.28-.58-.54-.48-.06.3.03.6-.03.89-.26.08-.38-.16-.51-.34-.11-.16-.48-.95-.67-.98-.04.14.01.27-.04.4-.13-.03-.39-.38-.46-.5-.19-.31-.08-1.01-.38-1.21-.18-.11-.37.09-.53-.04-.09-.07-.18-.45-.23-.57-.09-.22-.15-.45-.2-.69-.08-.34-.23-.57-.36-.89-.16-.4-.3-.84-.4-1.25-.07-.27-.08-.65-.27-.87-.09.07-.24.71-.36.67-.16-.05-.11-.45-.31-.49,0,.11-.06.18-.13.23-.02.37-.08.73-.08,1.09.2,0,.31-.09.44.08.18.21-.01.81-.05,1.06-.04.26-.23.83-.05,1.05.17.22.47-.03.54.33.05.23,0,.5.02.74.04.52.27,1.09.53,1.53.2-.03.18-.24.35-.24.02.21.07.41.14.61.07.17.16.33.27.48.06.17.03.44.14.57.08.11.17,0,.29.15.24.31-.05.8.18,1.12.19-.06.24-.41.28-.57.12.43.19.83.41,1.22.11-.07.17-.18.25-.28.18.01.28.5.39.65.22.3.54.45.82.69.18-.07.12-.67.09-1.03.08.5.31.97.58,1.41.05-.28.06-1.21.38-1.31.28-.09.14.68.44.71.17-.39.22-.84.59-1.11.06.18.07.79.3.8.26-.54.57-1.24,1.08-1.58.05.38.14.73.33,1.06.09.17.36.65.63.5.05-.46.19-.88.33-1.32.32.33.29.86.58,1.22.21-.61.38-1.17.7-1.73.07.02.14.04.21.06.08.26.11.53.1.8,0,.28-.07.72.07.98.43-.18.6-.73.78-1.12.21-.47.37-.94.5-1.44.23.74.38,1.51.57,2.26.07.27.19.47.28.71.09.24.1.52.12.77-.04-.83.04-1.66.19-2.48.05-.25.1-.5.12-.76-.03-.11-.02-.22,0-.33.2.59.32,1.16.67,1.7.04-.26.07-1.36.44-1.32.03.14.07.27.11.41.1-.05.24-.04.28.1.31-.32.03-1.04.31-1.42.15.49.26.99.38,1.49.06.26.11.75.29.97.02-.64.05-1.28.12-1.92.02-.16.05-1.21.29-1.28.16.42.31.83.58,1.2.07.1.16.14.21.27.08-.42.11-.84.28-1.24.08-.18.13-.4.23-.55.3.26.39.7.73.9.08-.02.14,0,.19.08.05.08.12.15.21.18.18-.08.15-.3.22-.44.06-.11.16-.17.19-.31.18.16.23.41.39.58.09.09.21.15.3.26.28-.35.12-.86.4-1.21.19.02.19.37.22.48.05.15.13.29.17.44.05.21.1.39.11.61,0,.05,0,.11,0,.16-1.16,1.91-3.22,5.7-3.3,11.27-.02,1.18.14,2.51.49,3.86.03.51,0,1.04,0,1.54,0,.28-.03.6.02.87.03.13.12.35.15.52.04.24.02.49.14.71.11-.01.16-.08.27-.1.17.65.03,1.35.21,2,.1.36.25.66.47.97.15.23.27.51.46.7.18-.24.18-.57.4-.77.15.08.2.5.26.63.17.39.51.84.82,1.13.39.38.88.69,1.32.98.03-.22.01-.51.27-.53.19,0,.52.6.61.74.18.27.31.57.49.83.11.16.16.25.34.07.05-.05.06-.16.12-.21.07-.08.16-.11.23-.19.11.08.08.27.17.38.16.2.13.04.31.1.41.14.24.92.6,1.15.08-.1.28-.54.37-.55.1.26.3.89.59.93.29.04.24-.27.52.08.14.17.33.34.44.51.12.2.17.61.38.73.1-.3.03-.69.21-.95.33.14.51.86.63,1.18.33,0,.33-.76.66-.84.06.16.05.45.23.53.06-.16.09-.33.11-.5.35.08.46.63.78.76.03-.17-.08-.56.03-.69.13-.15.47.02.6.08.17.08.31.24.47.29.08.03.18.01.26.04.09-.23.18-.24.33-.23v-3.09s.03-.01.05-.02c-.41-.16-.68-.49-.82-.99-.18-.32-.31-.66-.56-.93-.15.31-.31.54-.53.81-.28-.23-.49-.51-.63-.84-.11-.29-.28-.52-.52-.7-.13-.15-.29-.27-.47-.35-.25-.1-.44-.28-.56-.54-.43-.53-.82-1.1-1.32-1.57-.42-.4-.82-.8-1.18-1.25-.44-.55-.83-1.1-1.13-1.73-.31-.65-.51-1.35-.89-1.96-.06-.24-.2-.39-.41-.45-.15-.04-.26-.13-.31-.27-.22-.31-.25-.73-.35-1.1-.2-.76-.46-1.57-.57-2.36-.07-.49-.02-1.02-.02-1.51,0-.33.09-.63.11-.96.03-.62.05-1.14.32-1.72.18.1.32.05.41-.13.08-.37.19-.73.35-1.07.25-.07.7.54.89.67.54.38.79.17.86-.4.4.11.66.74,1.18.51.07.11.95,1.02.89.5.19-.06.38.23.53.31.06-.24.1-.4.26-.6.31.18.53.47.87.55.02-.2.12-.32.3-.37.24.24.44.5.68.73.11.1,1.14,1.12,1.02.58.26.07.51.39.76.34.29-.05.21-.4.57-.38.1,0,.17.05.23.08.02,0,.03.02.05.02.02,0,.03-.02.05-.02.06-.03.13-.07.23-.08.36-.03.29.33.57.38.25.05.5-.28.76-.34-.12.54.92-.48,1.02-.58.25-.23.44-.49.68-.73.18.05.29.17.3.37.35-.08.56-.37.87-.55.16.2.2.36.26.6.15-.09.34-.37.53-.31-.06.52.82-.39.89-.5.52.23.79-.4,1.18-.51.06.57.31.78.86.4.18-.13.64-.73.89-.67.16.34.28.69.35,1.07.09.19.23.23.41.13.26.57.29,1.1.32,1.72.01.33.1.63.11.96,0,.5.05,1.02-.02,1.51-.11.79-.37,1.6-.57,2.36-.1.37-.13.79-.35,1.1-.06.15-.16.24-.31.27-.21.06-.35.21-.41.45-.38.61-.58,1.31-.89,1.96-.3.64-.69,1.19-1.13,1.73-.37.45-.76.85-1.18,1.25-.49.47-.89,1.04-1.32,1.57-.12.26-.31.44-.56.54-.18.08-.34.2-.47.35-.24.18-.42.41-.52.7-.14.33-.35.61-.63.84-.22-.26-.38-.5-.53-.81-.25.27-.38.61-.56.93-.14.5-.41.83-.82.99.02,0,.03.02.05.02v3.09c.14,0,.24,0,.33.23.08-.03.18-.01.26-.04.16-.06.3-.22.47-.29.13-.06.47-.24.6-.08.11.13,0,.53.03.69.32-.13.43-.68.78-.76.02.17.05.34.11.5.18-.08.17-.37.23-.53.34.08.33.84.66.84.11-.32.3-1.04.63-1.18.19.26.11.65.21.95.21-.13.26-.54.38-.73.1-.17.3-.34.44-.51.28-.35.23-.04.52-.08.3-.04.49-.68.59-.93.09,0,.29.45.37.55.36-.22.19-1,.6-1.15.18-.06.15.1.31-.1.09-.11.05-.31.17-.38.07.08.16.11.23.19.05.06.07.16.12.21.18.18.23.09.34-.07.18-.26.31-.56.49-.83.09-.14.42-.75.61-.74.25.01.24.31.27.53.44-.28.93-.6,1.32-.98.3-.29.65-.74.82-1.13.06-.13.1-.56.26-.63.22.21.22.54.4.77.19-.19.31-.48.46-.7.21-.31.37-.61.47-.97.17-.65.04-1.35.21-2,.11.02.16.09.27.1.12-.22.1-.47.15-.71.03-.17.13-.38.15-.52.06-.28.02-.59.02-.87,0-.51-.04-1.03,0-1.54.35-1.36.5-2.68.49-3.86-.07-5.58-2.14-9.36-3.3-11.27,0-.05,0-.11,0-.16,0-.22.06-.4.11-.61.04-.16.12-.29.17-.44.04-.12.03-.47.22-.48.28.35.13.86.4,1.21.09-.1.21-.16.3-.26.17-.17.21-.43.39-.58.04.14.13.2.19.31.08.14.05.36.22.44.09-.04.16-.1.21-.18.05-.07.11-.09.19-.08.34-.2.44-.64.73-.9.1.15.15.38.23.55.18.4.2.82.28,1.24.05-.13.13-.17.21-.27.27-.36.42-.78.58-1.2.24.08.27,1.12.29,1.28.07.64.1,1.28.12,1.92.19-.22.23-.71.29-.97.12-.5.23-1,.38-1.49.28.38,0,1.1.31,1.42.05-.13.18-.15.28-.1.04-.14.08-.27.11-.41.36-.04.39,1.06.44,1.32.35-.54.47-1.11.67-1.7.03.11.03.21,0,.33.02.26.07.51.12.76.15.82.23,1.64.19,2.48.03-.25.03-.53.12-.77.09-.24.21-.44.28-.71.18-.75.34-1.52.57-2.26.13.5.29.97.5,1.44.18.39.34.94.78,1.12.14-.26.07-.7.07-.98-.02-.27.02-.54.1-.8.07-.02.14-.04.21-.06.32.56.49,1.13.7,1.73.29-.36.26-.89.58-1.22.13.44.28.86.33,1.32.26.15.53-.34.63-.5.19-.34.27-.68.33-1.06.51.34.82,1.04,1.08,1.58.23-.02.24-.63.3-.8.36.27.42.72.59,1.11.3-.03.16-.8.44-.71.32.1.34,1.03.38,1.31.27-.44.5-.9.58-1.41-.04.36-.09.97.09,1.03.28-.24.6-.39.82-.69.1-.15.2-.64.39-.65.08.1.14.21.25.28.22-.39.29-.79.41-1.22.05.16.1.51.28.57.24-.31-.06-.81.18-1.12.12-.15.21-.04.29-.15.11-.13.08-.4.14-.57.11-.15.2-.31.27-.48.07-.2.12-.4.14-.61.16,0,.15.21.35.24.26-.44.49-1.01.53-1.53.02-.24-.03-.5.02-.74.08-.36.37-.11.54-.33.18-.22-.01-.79-.05-1.05-.04-.25-.23-.85-.05-1.06.14-.16.24-.08.44-.08Zm-60.44,7.92s0,.09.01.14c0-.06-.01-.1-.01-.14Zm55.42.14s0-.09.01-.14c0,.03,0,.08-.01.14Z" style="stroke-width:0px;fill:#a33d23"/><path d="m8.66,34.9s.02-.07.03-.1c-.03.04-.04.08-.03.1Z" style="stroke-width:0px;fill:#a33d23"/></g><path d="m42.04,35.5v9.98c-.05-.11-.11-.21-.17-.32-.38-.64-.88-1.11-1.44-1.59-.14-.12-.59-.37-.55-.63-.32-.13-.67-.21-1-.34-.55-.21-1.22-.63-1.82-.69-.28-.03-.31-.02-.43-.28-.14-.29-.12-.8-.16-1.15-.03-.31-.04-.61-.16-.89-.02-.05-.05-.11-.08-.17-.05-.11-.02-.24-.06-.34-.12-.3-.41-.17-.6-.31-.07-.06-.14-.36-.17-.41-.13-.21-.36-.39-.6-.44-.46-.1-.47.47-.57.82-.08-.02-.16-.04-.24-.07-.11.25-.05.6-.04.86,0,.17.1.51-.04.63-.24-.15-.3-.37-.53-.53-.21-.14-.39-.3-.57-.47-.09-.09-.38-.43-.57-.38-.03.17.05.32-.02.48-.46-.32-1.03-1.08-1.68-.98-.05.22.08.53-.11.71-.15-.04-.17-.17-.32-.21-.22.18.03.5-.13.68-.14-.05-.22-.17-.37-.18-.16.19-.05.5-.28.64-.25-.09-.36-.42-.63-.45-.25.32.1.82-.09,1.13-.16.26-.53.05-.78.03-.08-.04-.15-.04-.23,0-.08.13-.17.24-.27.35-.29.14-.44-.29-.54-.47-.27.14.09.59-.17.71-.14-.11-.33-.31-.52-.31-.04.16.07.42,0,.56-.24.51-1.21-.12-1.48-.33-.29.22-.03.92-.42,1.09-.27.11-.67-.4-.92-.18,0,.16.13.32.09.47-.46.04-.89-.31-1.34-.31-.43,0-.33.4-.36.73-.29-.07-.49-.32-.8-.36-.17.15-.1.53-.11.73-.33.23-1.01-.2-1.35-.24-.39-.05-.21.27-.27.56-.27.06-.62.01-.89-.02-.16-.02-.7-.18-.86-.07-.13.1-.03.27-.25.3-.21.04-.28-.18-.41-.32-.16.03-.2.2-.31.31-.23-.07-.15-.37-.29-.53-.35.1-.33.84-.65,1-.05-.24-.04-1.08-.45-1.09-.07.14-.05.92-.27.91-.23-.02-.28-.58-.54-.48-.06.3.03.6-.03.89-.26.08-.38-.16-.51-.34-.11-.16-.48-.95-.67-.98-.04.14.01.27-.04.4-.13-.03-.39-.38-.46-.5-.19-.31-.08-1.01-.38-1.21-.18-.11-.37.09-.53-.04-.09-.07-.18-.45-.23-.57-.09-.22-.15-.45-.2-.69-.08-.34-.23-.57-.36-.89-.16-.4-.3-.84-.4-1.25-.07-.27-.08-.65-.27-.87-.09.07-.24.71-.36.67-.16-.05-.11-.45-.31-.49,0,.11-.06.18-.13.23,0-.08,0-.16,0-.24,0-.17.05-.44-.02-.59-.06,0-.11-.02-.17-.03-.06-.13,0-.29-.03-.43-.02-.15-.09-.26-.1-.42-.03-.58.09-1.2,0-1.78-.06.02-.27.15-.35.27.12-.42.17-.78.16-1.22,0-.36.08-.79-.02-1.14-.12.05-.24.13-.37.17-.08-.15.05-.41.07-.57.04-.27.07-.53.1-.79.06-.45-.05-.93.02-1.38.04-.23.11-.41.11-.66,0-.21,0-.43,0-.64v-10.24c0-.24,0-.47,0-.7,0-.28-.07-.54-.09-.82,0,0,0,0-.01,0-.03,0-.06,0-.08,0,.03-.02.06-.04.08-.06,0,0,0,0,0,0,0-.06,0-.11,0-.17v-.06l.11.16s.05-.04.08-.06c.25.01.46-.08.66-.25.24-.22.04-.49.25-.72.15-.18.34-.12.4-.39.06-.27-.01-.32.21-.53.24-.22.25-.31.32-.62.08-.35.22-.69.32-1.03.07.33.21.63.29.97.11.44.08.89.07,1.34,0,.27.08.51.15.77.09.34.1.71.18,1.07.06.27.16.57.18.86.01.16,0,.32,0,.48,0,.31.09.57.11.87.02.28-.04.57,0,.84.04.21.1.34.1.57,0,.25,0,.48.04.73.1.59.18,1.2.31,1.78.05.25.12.49.15.74.03.33-.02.66.02.99.03.29.13.56.17.85.04.25.03.49.07.74.08.47.1.96.2,1.42.09.38.16.84.15,1.24,0,.61.02,1.17.09,1.77.05.48.07.95.18,1.43s.19.92.27,1.4c.21,1.18.9,2.14,1.13,3.31.1.53.35,1.02.44,1.55.02.12.04.44.14.54.17.17.37-.07.56-.1.17.18.15.52.22.74.07.23.07.42.08.66.28-.05.39-.67.68-.81.07.26.14.62.37.77.37.26.32-.29.64-.23.11.29.15.46.42.17.08-.08.17-.3.31-.24.1.04.06.18.19.2.22-.24.25-.6.52-.81.19-.14.41-.25.59-.42.3-.28.55-.62.83-.91.31-.32.65-.43,1-.68.83-.6,1.76-1.09,2.6-1.67.23-.16.39-.41.61-.6.32-.28.68-.54,1.03-.78.34-.23.56-.58.9-.82.39-.27.7-.5,1.03-.83.28-.27.68-.29.96-.56.2-.19.41-.36.64-.51.46-.3.96-.32,1.47-.45.49-.12,1-.3,1.5-.21.48.08.96.3,1.4.49.92.4,1.77.93,2.65,1.39.43.23.76.51,1.15.79.36.26.76.4,1.14.62.29.18.56.35.92.44.37.09.61.24.99.25.29,0,.51.16.8.2.12.02.24.03.36.05Z" style="stroke-width:0px;fill:#bc4d27"/><path d="m52.26,56.19c-.11.79-.37,1.6-.57,2.36-.1.37-.13.79-.35,1.1-.06.15-.16.24-.31.27-.21.06-.35.21-.41.45-.38.61-.58,1.31-.89,1.96-.3.64-.69,1.19-1.13,1.73-.37.45-.76.85-1.18,1.25-.49.47-.89,1.04-1.32,1.57-.12.26-.31.44-.56.54-.18.08-.34.2-.47.35-.24.18-.42.41-.52.7-.14.33-.35.61-.63.84-.22-.26-.38-.5-.53-.81-.25.27-.38.61-.56.93-.13.48-.39.81-.77.97-.02.01-.03.02-.05.02-.02,0-.03,0-.05-.02-.38-.16-.64-.49-.77-.97-.18-.32-.31-.66-.56-.93-.15.31-.31.54-.53.81-.28-.23-.49-.51-.63-.84-.11-.29-.28-.52-.52-.7-.13-.15-.29-.27-.47-.35-.25-.1-.44-.28-.56-.54-.43-.53-.82-1.1-1.32-1.57-.42-.4-.82-.8-1.18-1.25-.44-.55-.83-1.1-1.13-1.73-.31-.65-.51-1.35-.89-1.96-.06-.24-.2-.39-.41-.45-.15-.04-.26-.13-.31-.27-.22-.31-.25-.73-.35-1.1-.2-.76-.46-1.57-.57-2.36-.07-.49-.02-1.02-.02-1.51,0-.33.09-.63.11-.96.03-.62.05-1.14.32-1.72.18.1.32.05.41-.13.08-.37.19-.73.35-1.07.25-.07.7.54.89.67.54.38.79.17.86-.4.4.11.66.74,1.18.51.07.11.95,1.02.89.5.19-.06.38.23.53.31.06-.24.1-.4.26-.6.31.18.53.47.87.55.02-.2.12-.32.3-.37.24.24.44.5.68.73.11.1,1.14,1.12,1.02.58.26.07.51.39.76.34.29-.05.21-.4.57-.38.12,0,.21.07.28.1.07-.03.15-.09.27-.1.36-.03.29.33.57.38.25.05.5-.28.76-.34-.12.54.92-.48,1.02-.58.25-.23.44-.49.68-.73.18.05.29.17.3.37.35-.08.56-.37.87-.55.16.2.2.36.26.6.15-.09.34-.37.53-.31-.06.52.82-.39.89-.5.52.23.79-.4,1.18-.51.06.57.31.78.86.4.18-.13.64-.73.89-.67.16.34.28.69.35,1.07.09.19.23.23.41.13.26.57.29,1.1.32,1.72.01.33.1.63.11.96,0,.5.05,1.02-.02,1.51Z" style="stroke-width:0px;fill:#bc4d27"/><path d="m42.04,70.41v.04s-.03-.01-.05-.02c.02,0,.03,0,.05-.02Z" style="stroke-width:0px;fill:#bc4d27"/><path d="m42.04,34.87v.63c-.12-.02-.24-.04-.36-.05-.29-.03-.51-.19-.8-.2-.38,0-.62-.16-.99-.25-.37-.09-.63-.27-.92-.44-.37-.22-.78-.36-1.14-.62-.39-.27-.72-.56-1.15-.79-.88-.47-1.73-.99-2.65-1.39-.44-.2-.92-.41-1.4-.49-.5-.08-1.02.1-1.5.21-.52.13-1.01.15-1.47.45-.23.15-.44.32-.64.51-.28.26-.68.28-.96.56-.34.32-.64.56-1.03.83-.34.24-.56.59-.9.82-.35.24-.71.5-1.03.78-.21.19-.37.44-.61.6-.84.58-1.77,1.07-2.6,1.67-.35.25-.7.36-1,.68-.28.29-.53.63-.83.91-.18.17-.4.28-.59.42-.27.21-.3.57-.52.81-.13-.03-.08-.16-.19-.2-.14-.06-.23.16-.31.24-.27.29-.31.13-.42-.17-.32-.06-.27.49-.64.23-.22-.16-.3-.51-.37-.77-.29.14-.39.76-.68.81-.02-.24-.02-.43-.08-.66-.06-.22-.05-.57-.22-.74-.18.03-.39.27-.56.1-.1-.1-.12-.41-.14-.54-.1-.53-.34-1.02-.44-1.55-.24-1.17-.92-2.14-1.13-3.31-.08-.48-.16-.92-.27-1.4s-.13-.94-.18-1.43c-.07-.6-.1-1.16-.09-1.77,0-.4-.06-.85-.15-1.24-.11-.46-.12-.95-.2-1.42-.04-.25-.03-.49-.07-.74-.04-.29-.15-.56-.17-.85-.03-.33.02-.66-.02-.99-.03-.25-.09-.5-.15-.74-.12-.59-.21-1.19-.31-1.78-.04-.25-.05-.47-.04-.73,0-.23-.06-.36-.1-.57-.05-.27.02-.56,0-.84-.02-.3-.11-.57-.11-.87,0-.16.02-.32,0-.48-.02-.29-.12-.58-.18-.86-.08-.35-.09-.73-.18-1.07-.07-.26-.16-.5-.15-.77,0-.45.04-.9-.07-1.34-.08-.34-.22-.65-.29-.97.02-.08.05-.15.06-.23s.04-.16.05-.25c1.5,1.78,2.22,11.2,2.77,16.66.16,1.63.44,3.2.79,4.59.1.22.19.44.27.66.11.32.18.65.23.98.99,2.73,2.41,4.25,4.14,3.06,2.82-1.93,7.45-6.53,10.78-7.84,3.32-1.31,6.35,1.11,6.35,1.11l5.59,3.04Z" style="stroke-width:0px;fill:#d8682e"/><path d="m48.93,55.65c-.03.34-.11.52-.31.76-.15.18-.24.42-.39.59-.17.2-.4.47-.65.57-.11.04-.27,0-.36.04-.12.06-.15.18-.19.32-.1.3-.17.54-.3.83-.13.29-.25.83-.47,1.08-.23.27-.76.37-1.09.39-.34.02-.55-.1-.69.24-.08.2-.13.83-.46.78-.11.27-.14.58-.3.82-.14.21-.15.15-.35.11-.08-.02-.2-.06-.28-.03-.19.07-.08.27-.21.37-.24.19-.58-.1-.84-.08-.02,0-.03,0-.05,0-.02,0-.03,0-.05,0-.26-.02-.6.27-.84.08-.13-.1-.02-.3-.21-.37-.08-.03-.21.02-.28.03-.21.05-.21.1-.35-.11-.17-.24-.19-.56-.3-.82-.33.05-.38-.58-.46-.78-.14-.34-.35-.21-.69-.24-.33-.03-.86-.13-1.09-.39-.22-.25-.34-.79-.47-1.08-.13-.29-.2-.53-.3-.83-.04-.14-.06-.26-.19-.32-.08-.04-.25,0-.36-.04-.25-.09-.48-.37-.65-.57-.15-.17-.24-.41-.39-.59-.2-.25-.28-.43-.31-.76-.05-.48-.22-1.32.27-1.64.03.12.03.61.26.58.1-.01.07-.15.15-.19.1-.04.17.06.24.11.15.09.42.31.61.35.2.04.09.04.26-.13.26-.26.23-.02.54.06.19.05.41-.11.57-.21.23-.15.35-.27.65-.26.21,0,.39.09.6.12.14.02.23-.03.36-.04.42-.03.62.57.73.91.12-.14.26-.43.48-.38.11.21.13.41.39.33.26-.08.35-.21.67-.13.06.02.11.03.15.05.04-.02.08-.03.14-.05.31-.08.41.05.67.13.26.08.28-.11.39-.33.22-.05.36.24.48.38.12-.34.31-.94.73-.91.13,0,.22.06.36.04.21-.02.38-.12.6-.12.3,0,.43.11.65.26.16.11.38.26.57.21.31-.08.28-.33.54-.06.17.17.07.17.26.13.19-.03.46-.26.61-.35.07-.04.15-.15.24-.11.08.04.05.18.15.19.23.03.23-.47.26-.58.49.31.32,1.15.27,1.64Z" style="stroke-width:0px;fill:#d8682e"/><path d="m42.04,62.44v.02s-.03-.01-.05-.02c.02,0,.03,0,.05,0Z" style="stroke-width:0px;fill:#d8682e"/><path d="m5.26,15.05s.82.61,1.88.76c1.06.15,1.51-.23,1.49-.53s.05-.79-.48-.67c-.53.12-.86,0-.86,0,0,0-1.06-.56-1.28-.56,0,0,1.23.08,1.74,0,.5-.08.86-.35.88-.48s-.22-.78-.61-.83c-.4-.05-1.98-.38-1.98-.38,0,0,1.67-.1,1.98-.18.31-.08.66-.34.42-.76s-.97-.53-.97-.53h-1.33s1.21-.26,1.59-.36c.38-.1,1.21.22,1.13-.46-.08-.69-.96-.64-1.66-.59-.71.05-1.92.18-2.28.81-.36.63.12.78.12.78,0,0-.97.45-.12,1.36,0,0-1.15.71,0,1.59,0,0-.72.47.36,1.03Z" style="stroke-width:0px;fill:#3f403f"/><path d="m4.88,18.17c-.14.38-.48.68-.73.99-.46.56-.86,1.12-1.25,1.73.25-.22.51-.4.78-.6.25-.18.44-.35.74-.48.22-.1.53-.28.78-.19.01.13-.15.24-.22.32-.17.19-.3.39-.43.61-.2.34-.38.73-.64,1.03-.08.09-.19.21-.33.15,0-.17.13-.35.06-.53-.2-.05-.3.11-.44.24-.97.87-1.91,1.78-2.9,2.62-.02-.02-.03-.05-.05-.07-.06,0-.11-.02-.16-.03,0-.05,0-.08,0-.11,0-.21.04-.46,0-.66-.1.05-.2.11.31-.64-.12-.1-.25-.16-.39-.2.1-.02.15-.08.23-.16.42-.41.84-.85,1.23-1.29.7-.78,1.34-1.6,2-2.41.31-.39.62-.77.94-1.15l.14-.17s-.03-.1-.02-.15c.03-.14.05-.27.1-.4.1-.32.21-.63.3-.94.21.11.44.21.68.22.11.45-.04.93-.11,1.38-.07.43-.16,1.06-.56,1.34-.02-.1.05-.41-.06-.45Z" style="stroke-width:0px;fill:#726658"/><path d="m7.82,5.69c-.06.62-.12,1.17-.25,1.78-.03.17-.08.81-.22,1.03-.16-.1-.2-.43-.39-.46-.13.15-.18.78-.45.68-.16-.05-.25-.26-.4-.27,0-.47.01-.95.02-1.42,0-1.2.09-2.42.22-3.61.03-.3.11-.56.08-.86-.03-.4-.04-.87-.11-1.27-.06-.35-.15-.71-.24-1.05-.05-.23-.07-.27.21-.23.31.05.51.24.84.17.17-.03.16-.07.32,0,.02,0,.04.02.06.03.05.39.06.78.06,1.1,0,.31.08.73-.31.78-.09.32-.02.77,0,1.1.04.9.07,1.8.07,2.7.02-.24.1-.5.14-.71.05-.25.11-.99.39-1.13.26.43-.02,1.18-.06,1.63Z" style="stroke-width:0px;fill:#726658"/><path d="m73.11,12.39c.08-.42.26-1.37.49-2.06.3-.91,1.3-2.37,1.57-2.9.27-.53.27-1.22,1.17-.89.91.33.1,2.24-.2,2.99-.29.71-.72.4-.24,1.4.64-.48,1.27-.89,1.95-.85,1.51.09.78,1.11.78,1.11,0,0,.55.26,0,1.12,0,0,1,.63,0,1.77,0,0,.5.98-.33,1.44-.79.43-1.64,1.4-2.89,1.31-.08-.06-.18-.12-.28-.2.02,0,.04,0,.06,0h-.07s0,0,0,0c-.25.01-.46-.08-.66-.25-.24-.22-.04-.49-.25-.72-.15-.18-.34-.12-.4-.39-.06-.27.01-.32-.21-.53-.24-.22-.25-.31-.32-.62-.1-.43-.29-.83-.39-1.26-.02-.08-.04-.16-.05-.25.08-.09.16-.16.24-.21Z" style="stroke-width:0px;fill:#303030"/><path d="m75.24,3.71c.02.23.09.48.08.71-.02.39-.08.77-.08,1.17,0,.31,0,.62,0,.93,0,.49-.06,1.01.02,1.49.09.54.16,1.04.18,1.58,0,.3.07.61.1.91.08.86.07,1.72.12,2.59.06.99.19,1.93.45,2.89.08.3.04.53.15.85.18.5.39.98.6,1.47.24.57.42,1.2.7,1.75.24.47.67.83,1.01,1.22.91,1.06,1.73,2.22,2.44,3.43.12.21.31.65.54.77.08.04.16.05.24.08.5.17,1.03.21,1.5.45.2-.41.19-.89.33-1.32.14-.05.19.03.29-.11.07-.11.04-.41.02-.61-.05.01-.1.02-.16.03-.02.02-.03.05-.05.07-1-.84-1.94-1.75-2.9-2.62-.14-.12-.23-.29-.44-.24-.07.17.07.35.06.53-.14.07-.25-.05-.33-.15-.27-.3-.44-.69-.64-1.03-.13-.22-.26-.42-.43-.61-.08-.08-.24-.19-.22-.32.25-.08.56.1.78.19.3.13.49.3.74.48.27.19.53.37.78.6-.39-.61-.79-1.17-1.25-1.73-.25-.31-.59-.61-.73-.99-.11.04-.04.35-.06.45-.4-.28-.49-.9-.56-1.34-.07-.44-.22-.92-.11-1.38.25,0,.47-.11.68-.22-.08-.25-.15-.5-.21-.76-.24-1.04-.54-2.07-.78-3.12-.07-.3-.04-.62-.08-.93-.09-.81-.12-1.62-.14-2.44-.15,0-.24.22-.4.27-.27.1-.32-.53-.45-.68-.18.02-.23.35-.39.46-.14-.21-.18-.86-.22-1.03-.13-.61-.19-1.16-.25-1.78-.04-.45-.32-1.19-.06-1.63.28.14.34.88.39,1.13.04.21.12.47.15.71,0-.9.03-1.8.07-2.7.02-.33.09-.78,0-1.1-.38-.05-.31-.48-.31-.78,0-.32,0-.71.06-1.1-.15.1-.24.28-.36.41-.37.4-.73,0-1.16.07-.13.52.06,1.15.14,1.67.07.45.11.9.16,1.35Z" style="stroke-width:0px;fill:#594a42"/><g><path d="m42,70.43s-.03.02-.05.02v3.09s.03,0,.05,0h.05v-3.09s-.03-.01-.05-.02Zm-.05-17.09v.04s.03,0,.05-.02c-.02,0-.03-.02-.05-.02Z" style="stroke-width:0px;fill:#a33d23"/><path d="m75.33,34.9s-.02-.07-.03-.1c.03.04.04.08.03.1Z" style="stroke-width:0px;fill:#a33d23"/></g><path d="m41.95,35.5v9.98c.05-.11.11-.21.17-.32.38-.64.88-1.11,1.44-1.59.14-.12.59-.37.55-.63.32-.13.67-.21,1-.34.55-.21,1.22-.63,1.82-.69.28-.03.31-.02.43-.28.14-.29.12-.8.16-1.15.03-.31.04-.61.16-.89.02-.05.05-.11.08-.17.05-.11.02-.24.06-.34.12-.3.41-.17.6-.31.07-.06.14-.36.17-.41.13-.21.36-.39.6-.44.46-.1.47.47.57.82.08-.02.16-.04.24-.07.11.25.05.6.04.86,0,.17-.1.51.04.63.24-.15.3-.37.53-.53.21-.14.39-.3.57-.47.09-.09.38-.43.57-.38.03.17-.05.32.02.48.46-.32,1.03-1.08,1.68-.98.05.22-.08.53.11.71.15-.04.17-.17.32-.21.22.18-.03.5.13.68.14-.05.22-.17.37-.18.16.19.05.5.28.64.25-.09.36-.42.63-.45.25.32-.1.82.09,1.13.16.26.53.05.78.03.08-.04.15-.04.23,0,.08.13.17.24.27.35.29.14.44-.29.54-.47.27.14-.09.59.17.71.14-.11.33-.31.52-.31.04.16-.07.42,0,.56.24.51,1.21-.12,1.48-.33.29.22.03.92.42,1.09.27.11.67-.4.92-.18,0,.16-.13.32-.09.47.46.04.89-.31,1.34-.31.43,0,.33.4.36.73.29-.07.49-.32.8-.36.17.15.1.53.11.73.33.23,1.01-.2,1.35-.24.39-.05.21.27.27.56.27.06.62.01.89-.02.16-.02.7-.18.86-.07.13.1.03.27.25.3.21.04.28-.18.41-.32.16.03.2.2.31.31.23-.07.15-.37.29-.53.35.1.33.84.65,1,.05-.24.04-1.08.45-1.09.07.14.05.92.27.91.23-.02.28-.58.54-.48.06.3-.03.6.03.89.26.08.38-.16.51-.34.11-.16.48-.95.67-.98.04.14-.01.27.04.4.13-.03.39-.38.46-.5.19-.31.08-1.01.38-1.21.18-.11.37.09.53-.04.09-.07.18-.45.23-.57.09-.22.14-.45.2-.69.08-.34.23-.57.36-.89.16-.4.3-.84.4-1.25.07-.27.08-.65.27-.87.09.07.24.71.36.67.16-.05.11-.45.31-.49,0,.11.06.18.13.23,0-.08,0-.16,0-.24,0-.17-.05-.44.02-.59.06,0,.11-.02.17-.03.06-.13,0-.29.03-.43.02-.15.09-.26.1-.42.03-.58-.09-1.2,0-1.78.06.02.27.15.35.27-.12-.42-.17-.78-.16-1.22,0-.36-.08-.79.02-1.14.12.05.24.13.37.17.08-.15-.05-.41-.07-.57-.04-.27-.07-.53-.1-.79-.06-.45.05-.93-.02-1.38-.04-.23-.11-.41-.11-.66,0-.21,0-.43,0-.64v-10.24c0-.24,0-.47,0-.7,0-.28.07-.54.09-.82,0,0,0,0,.01,0,.03,0,.06,0,.08,0-.03-.02-.06-.04-.08-.06,0,0,0,0,0,0,0-.06,0-.11,0-.17v-.06l-.11.16s-.05-.04-.08-.06c-.25.01-.46-.08-.66-.25-.24-.22-.04-.49-.25-.72-.15-.18-.34-.12-.4-.39-.06-.27.01-.32-.21-.53-.24-.22-.25-.31-.32-.62-.08-.35-.22-.69-.32-1.03-.07.33-.21.63-.29.97-.11.44-.08.89-.07,1.34,0,.27-.08.51-.15.77-.09.34-.1.71-.18,1.07-.06.27-.16.57-.18.86-.01.16,0,.32,0,.48,0,.31-.09.57-.11.87-.02.28.04.57,0,.84-.04.21-.1.34-.1.57,0,.25,0,.48-.04.73-.1.59-.18,1.2-.31,1.78-.05.25-.12.49-.15.74-.03.33.02.66-.02.99-.03.29-.13.56-.17.85-.04.25-.03.49-.07.74-.08.47-.1.96-.2,1.42-.09.38-.16.84-.15,1.24,0,.61-.02,1.17-.09,1.77-.05.48-.07.95-.18,1.43s-.19.92-.27,1.4c-.21,1.18-.9,2.14-1.13,3.31-.1.53-.35,1.02-.44,1.55-.02.12-.04.44-.14.54-.17.17-.37-.07-.56-.1-.17.18-.15.52-.22.74-.07.23-.07.42-.08.66-.28-.05-.39-.67-.68-.81-.07.26-.14.62-.37.77-.37.26-.32-.29-.64-.23-.11.29-.15.46-.42.17-.08-.08-.17-.3-.31-.24-.1.04-.06.18-.19.2-.22-.24-.25-.6-.52-.81-.19-.14-.41-.25-.59-.42-.3-.28-.55-.62-.83-.91-.31-.32-.65-.43-1-.68-.83-.6-1.76-1.09-2.6-1.67-.23-.16-.39-.41-.61-.6-.32-.28-.68-.54-1.03-.78-.34-.23-.56-.58-.9-.82-.39-.27-.69-.5-1.03-.83-.28-.27-.68-.29-.96-.56-.2-.19-.41-.36-.64-.51-.46-.3-.96-.32-1.47-.45-.49-.12-1-.3-1.5-.21-.48.08-.96.3-1.4.49-.92.4-1.77.93-2.65,1.39-.43.23-.76.51-1.15.79-.36.26-.76.4-1.14.62-.29.18-.56.35-.92.44-.37.09-.61.24-.99.25-.29,0-.51.16-.8.2-.12.02-.24.03-.36.05Z" style="stroke-width:0px;fill:#bc4d27"/><path d="m42,70.43s-.03.02-.05.02v-.04s.03.02.05.02Z" style="stroke-width:0px;fill:#bc4d27"/><path d="m41.95,34.87v.63c.12-.02.24-.04.36-.05.29-.03.51-.19.8-.2.38,0,.62-.16.99-.25.37-.09.63-.27.92-.44.37-.22.78-.36,1.14-.62.39-.27.72-.56,1.15-.79.88-.47,1.73-.99,2.65-1.39.44-.2.92-.41,1.4-.49.5-.08,1.02.1,1.5.21.52.13,1.01.15,1.47.45.23.15.44.32.64.51.28.26.68.28.96.56.34.32.64.56,1.03.83.34.24.56.59.9.82.35.24.71.5,1.03.78.21.19.37.44.61.6.84.58,1.77,1.07,2.6,1.67.35.25.69.36,1,.68.28.29.53.63.83.91.18.17.4.28.59.42.27.21.3.57.52.81.13-.03.08-.16.19-.2.14-.06.23.16.31.24.27.29.31.13.42-.17.32-.06.27.49.64.23.22-.16.3-.51.37-.77.29.14.39.76.68.81.02-.24.02-.43.08-.66.06-.22.05-.57.22-.74.18.03.39.27.56.1.1-.1.12-.41.14-.54.1-.53.34-1.02.44-1.55.24-1.17.92-2.14,1.13-3.31.08-.48.16-.92.27-1.4s.13-.94.18-1.43c.07-.6.1-1.16.09-1.77,0-.4.06-.85.15-1.24.11-.46.12-.95.2-1.42.04-.25.03-.49.07-.74.04-.29.15-.56.17-.85.03-.33-.02-.66.02-.99.03-.25.09-.5.15-.74.12-.59.21-1.19.31-1.78.04-.25.05-.47.04-.73,0-.23.06-.36.1-.57.05-.27-.02-.56,0-.84.02-.3.11-.57.11-.87,0-.16-.02-.32,0-.48.02-.29.12-.58.18-.86.08-.35.09-.73.18-1.07.07-.26.16-.5.15-.77,0-.45-.04-.9.07-1.34.08-.34.22-.65.29-.97-.02-.08-.05-.15-.06-.23s-.04-.16-.05-.25c-1.5,1.78-2.22,11.2-2.77,16.66-.16,1.63-.44,3.2-.79,4.59-.1.22-.19.44-.27.66-.11.32-.18.65-.23.98-.99,2.73-2.41,4.25-4.14,3.06-2.82-1.93-7.45-6.53-10.78-7.84-3.32-1.31-6.35,1.11-6.35,1.11l-5.59,3.04Z" style="stroke-width:0px;fill:#d8682e"/><path d="m42,62.44s-.03.01-.05.02v-.02s.03,0,.05,0Z" style="stroke-width:0px;fill:#d8682e"/><path d="m78.73,15.05s-.82.61-1.88.76-1.51-.23-1.49-.53-.05-.79.48-.67c.53.12.86,0,.86,0,0,0,1.06-.56,1.28-.56,0,0-1.23.08-1.74,0-.5-.08-.86-.35-.88-.48s.22-.78.61-.83c.4-.05,1.98-.38,1.98-.38,0,0-1.67-.1-1.98-.18-.31-.08-.66-.34-.42-.76s.97-.53.97-.53h1.33s-1.21-.26-1.59-.36-1.21.22-1.13-.46c.08-.69.96-.64,1.66-.59.71.05,1.92.18,2.28.81s-.12.78-.12.78c0,0,.97.45.12,1.36,0,0,1.15.71,0,1.59,0,0,.72.47-.36,1.03Z" style="stroke-width:0px;fill:#3f403f"/><path d="m79.11,18.17c.14.38.48.68.73.99.46.56.86,1.12,1.25,1.73-.25-.22-.51-.4-.78-.6-.25-.18-.44-.35-.74-.48-.22-.1-.53-.28-.78-.19-.01.13.15.24.22.32.17.19.3.39.43.61.2.34.38.73.64,1.03.08.09.19.21.33.15,0-.17-.13-.35-.06-.53.2-.05.3.11.44.24.97.87,1.91,1.78,2.9,2.62.02-.02.03-.05.05-.07.06,0,.11-.02.16-.03,0-.05,0-.08,0-.11,0-.21-.04-.46,0-.66.1.05.2.11-.31-.64.12-.1.25-.16.39-.2-.1-.02-.15-.08-.23-.16-.42-.41-.84-.85-1.23-1.29-.69-.78-1.34-1.6-2-2.41-.31-.39-.62-.77-.94-1.15-.05-.06-.09-.11-.14-.17-.01-.05.03-.1.02-.15-.03-.14-.05-.27-.1-.4-.1-.32-.21-.63-.3-.94-.21.11-.44.21-.68.22-.11.45.04.93.11,1.38.07.43.16,1.06.56,1.34.02-.1-.05-.41.06-.45Z" style="stroke-width:0px;fill:#726658"/><path d="m76.17,5.69c.06.62.12,1.17.25,1.78.03.17.08.81.22,1.03.16-.1.2-.43.39-.46.13.15.18.78.45.68.16-.05.25-.26.4-.27,0-.47-.01-.95-.02-1.42,0-1.2-.09-2.42-.22-3.61-.03-.3-.11-.56-.08-.86.03-.4.04-.87.11-1.27.06-.35.15-.71.24-1.05.05-.23.07-.27-.21-.23-.31.05-.51.24-.84.17-.17-.03-.16-.07-.32,0-.02,0-.04.02-.06.03-.05.39-.06.78-.06,1.1,0,.31-.08.73.31.78.09.32.02.77,0,1.1-.04.9-.07,1.8-.07,2.7-.02-.24-.1-.5-.15-.71-.05-.25-.11-.99-.39-1.13-.26.43.02,1.18.06,1.63Z" style="stroke-width:0px;fill:#726658"/><path d="m32.87,94.66s1.05,1.64,1.27,3.01,2.21,1.27,2.8,1.02c.59-.25.27-1.06-.4-.88-.67.18-.99-.25-1.1-1.42-.12-1.16-.32-2.14.68-2.16.99-.01,1.31.76,1.54,1.38.23.62,1.1,1.32,1.14.57s-.52-3.58-1.03-4.04-1.84-2.04-3.32-1.84c-1.48.2-2.24,3.42-1.57,4.35Z" style="stroke-width:0px;fill:#303030"/><path d="m36.53,62.61c-.16,0-.33.02-.49.09-.14.06-.25.14-.4.17-.08.01-.16-.02-.24,0-.14.03-.6.36-.65.46-.06.15.03.47-.12.6-.16.14-.47-.13-.68-.06-.02.1-.01.2,0,.29-.15.04-.2-.11-.34-.17-.11-.04-.16-.02-.27-.05-.25-.04-.77-.21-1.02-.06.05.35.48.78.26,1.14-.21.35-.64.16-.96.25-.5.15.08.64-.08.92-.12.2-.7.21-.92.3.2.24.68.43.72.76.02.09-.03.24-.08.32-.05.08-.14.09-.19.17-.28.39.28,1.11.35,1.53.05.31-.23.28-.48.37.07,1.34.18,2.68.17,4.03,0,.41-.15,1.14.02,1.52.11.25.37.37.25.67-.09.22-.34.35-.54.45-.28.14-.23.08-.15.29.17.45,1.02,1.05.7,1.62-.14.24-.41.24-.48.49-.05.18.06.49.08.67.06.42.15.83.21,1.25.02.1.06.26.03.36-.05.17-.26.2-.31.32-.07.19.15.21.28.29-.05.35-.28.57-.5.85-.17.21-.46.6-.2.86.16.15.45.27.64.38.03.29-.37.59-.24.9.18.04.59.07.67.26.08.18-.11.44-.15.64-.03.19-.06.43-.02.62.04.18.15.22.24.36.09.15.11.4.02.56-.08.12-.25.11-.28.29-.06.35.6.52.41.9-.1,0-.22.02-.29.09.01.27.27.44.18.72-.09.3-.24.38-.17.73.08,0,.16-.03.23-.01.06.02.06.07.11.09.15.06.39.1.45.25.08.19,0,.65,0,.83,0,.72-.12,1.54.02,2.25.1-.04.13-.16.27-.1.06.65-.08,1.34.04,1.99.02.11.03.31.07.49-.24-.13-.46-.27-.61-.51-.15-.24-.19-.93-.46-1.07-.09.23-.19.45-.34.65-.34-.05-.28-1.18-.32-1.42-.22-.01-.31-.44-.4-.62-.34-.6-.32-1.35-.27-2.02-.04.18-.2.5-.41.49-.24-.51-.52-1-.59-1.57-.06-.5.06-1.02-.02-1.51-.21.1-.41.23-.63.31-.21-.15-.08-.75-.08-.98,0-.34.06-.71-.06-1.03-.16.09-.35.27-.54.13-.01-.2.09-.4.11-.6.02-.26,0-.53,0-.79,0-.44,0-.86.05-1.3.03-.25.1-.52.04-.77-.15.04-.28.19-.41.27-.19-.07-.1-.87-.1-1.02.01-.52.15-.95.28-1.45.08-.3.07-.54-.15-.77-.22-.23-.47-.22-.73-.34-.22-.1-.23-.07-.18-.36.08-.47.35-.93.39-1.41,0-.08.02-.53-.11-.6-.15-.08-.38.11-.56.09-.08-.17.15-.4.22-.55.16-.34.26-.71.42-1.06.08-.17.56-.94.27-1.06-.08-.03-.1-.08-.16.04-.13-.1-.08-.39-.08-.56,0-.62.22-1.21.3-1.82.02-.17.13-.63-.08-.73-.17-.08-.26.14-.4.07-.05-.37,1.2-1.86.22-1.9.1-.32.9-1.4.62-1.73-.11-.13-.37-.04-.54-.07-.06-.44.51-.78.64-1.16.16-.45.15-.99.25-1.45.08-.34.21-.52.38-.76.07-.42.15-.8.25-1.11,1.25-3.78,4.89-3.41,4.89-3.41.72-.03,2.06.48,2.72,2.52Z" style="stroke-width:0px;fill:#bc4d27"/><path d="m38.11,88.3c-.09-.14-.2-.18-.34-.13-.03.71,0,1.43,0,2.15,0,.67,0,1.27-.22,1.91-.15.42-.37.8-.39,1.25-.02.59.03,1.03-.27,1.55-.13.23-.28.37-.46.56-.12.13-.24.25-.38.37-.1.02-.16.07-.18.18,0,.11-.04.21-.11.29-.16-.07-.21-.23-.37-.31-.15.07-.07.3-.25.28-.32-.02-.6-.7-.91-.85,0,.39.21.75.21,1.15-.42-.49-.87-.71-1.43-1.01-.1-.05-.19-.1-.29-.15-.04-.17-.05-.38-.07-.49-.12-.65.02-1.33-.04-1.99-.13-.06-.16.06-.27.1-.14-.71-.02-1.53-.02-2.25,0-.18.08-.63,0-.83-.06-.15-.3-.19-.45-.25-.05-.02-.05-.08-.11-.09-.07-.02-.15.02-.23.01-.07-.35.08-.43.17-.73.09-.28-.17-.44-.18-.72.06-.08.19-.1.29-.09.18-.39-.47-.55-.41-.9.03-.18.21-.16.28-.29.1-.15.08-.4-.02-.56-.09-.14-.2-.19-.24-.36-.05-.19-.02-.43.02-.62.03-.2.23-.46.15-.64-.09-.18-.5-.22-.67-.26-.13-.31.27-.61.24-.9-.19-.11-.48-.23-.64-.38-.26-.26.03-.65.2-.86.22-.27.45-.5.5-.85-.13-.08-.35-.1-.28-.29.05-.13.26-.15.31-.32.03-.1-.02-.26-.03-.36-.06-.42-.15-.83-.21-1.25-.03-.18-.13-.49-.08-.67.06-.25.34-.24.48-.49.31-.58-.53-1.18-.7-1.62-.08-.22-.14-.16.15-.29.21-.1.45-.23.54-.45.12-.3-.14-.42-.25-.67-.17-.38-.02-1.12-.02-1.52,0-1.35-.1-2.68-.17-4.03.25-.09.54-.06.48-.37-.07-.42-.63-1.14-.35-1.53.05-.07.14-.08.19-.17.05-.08.09-.23.08-.32-.05-.33-.52-.51-.72-.76.22-.08.8-.1.92-.3.17-.28-.42-.77.08-.92.32-.09.75.1.96-.25.22-.36-.21-.79-.26-1.14.25-.14.76.02,1.02.06.11.02.17,0,.27.05.14.06.19.2.34.17-.02-.1-.02-.19,0-.29.21-.07.52.2.68.06.16-.13.06-.46.12-.6.05-.1.51-.43.65-.46.08-.02.16.01.24,0,.15-.02.27-.11.4-.17.16-.07.32-.1.49-.09.21.63.35,1.42.38,2.39.02.5.03,1.14.04,1.89.05.12.1.22.11.36.02.19-.03.38,0,.57.02.17.09.31.11.47.02.18,0,.37,0,.56,0,.43-.02.8-.1,1.22-.05.27-.08.52-.08.77,0,1.96,0,4.14.02,6.26.09,1.15.03,2.31.23,3.46.17.97.11,1.94.21,2.91.04.39.06.81.15,1.19.06.26.21.48.27.73.1.44-.08.92,0,1.36.04.19.09.33.13.54.01.07.25.9.13,1.02Z" style="stroke-width:0px;fill:#a33d23"/><path d="m31.02,61.14c-.01.18-.18.07-.3.09-.23.04-.61.36-.76.51-.4.4.17.34.45.43.03.13-.36.41-.43.52-.16.28-.24.61-.33.91-.06.21-.36,1.25-.06,1.29.16-.19.26-.63.5-.72.07.22-.03.45.02.68.28-.45.71-.79,1.12-1.11.19-.15.28-.26.39-.47.07-.13.13-.32.31-.35.26-.04.18.31.44.2.12-.05.22-.23.33-.31.13-.09.23-.12.33-.25.11-.13.19-.33.4-.29.16.03.28.33.51.18.13-.09.06-.29.19-.38.08-.06.26-.01.36-.01.24,0,.52.04.76,0,.1-.31-.62-.57-.52-.81.08-.2.42.03.45-.18.03-.26-.65-.56-.87-.64-.44-.17-.85-.27-1.31-.27-.19,0-.25.02-.4.1-.1.05-.2.14-.31.2-.16.08-.34.16-.5.25-.29.17-.27.29-.75.45Z" style="stroke-width:0px;fill:#d8682e"/><path d="m46.4,89.42s-1.41,1.16-1.96,2.27c-.55,1.11-2.45.61-2.96.27-.51-.34,0-.95.6-.66.61.29,1.02,0,1.41-.96s.82-1.74-.14-1.96-1.45.36-1.83.84c-.38.48-1.38.88-1.24.24.14-.64,1.36-2.91,1.97-3.19.61-.28,2.27-1.34,3.67-.85,1.39.48,1.35,3.35.47,4Z" style="stroke-width:0px;fill:#303030"/><path d="m50.59,61.62c.16.03.31.08.45.18.12.08.21.17.35.22.08.03.16.02.24.05.13.06.5.43.52.53.03.14-.15.39-.03.54.13.15.48,0,.67.09,0,.09-.04.17-.08.25.14.06.22-.05.37-.07.11-.01.16.01.28.02.26.02.79-.01,1,.16-.13.28-.65.56-.53.91.12.34.59.27.87.42.45.23-.24.52-.14.79.07.19.63.33.82.45-.26.16-.76.22-.88.49-.04.08-.03.21,0,.29.03.08.12.11.15.18.18.39-.54.87-.71,1.22-.13.25.16.29.38.41-.39,1.12-.82,2.22-1.13,3.36-.1.34-.13.99-.39,1.28-.17.19-.45.23-.4.51.03.21.24.37.42.5.24.17.21.11.07.28-.28.34-1.24.67-1.08,1.22.07.23.34.29.35.51,0,.16-.17.4-.24.55-.16.34-.35.67-.51,1.01-.04.08-.12.2-.12.29,0,.15.2.22.22.34.02.18-.2.15-.35.19-.04.31.13.54.28.82.11.21.3.6-.02.76-.19.09-.5.13-.71.19-.1.24.21.58.01.81-.18,0-.59-.06-.72.08-.13.14,0,.4-.01.57-.01.17-.04.37-.14.53-.08.14-.2.15-.32.26-.13.11-.21.32-.15.47.04.12.21.14.2.3-.02.31-.7.31-.62.68.09.02.21.06.26.14-.08.23-.37.31-.35.57.02.27.14.37-.01.65-.08,0-.15-.06-.22-.06-.06,0-.08.05-.13.05-.16.02-.4,0-.5.11-.12.15-.16.55-.2.7-.17.61-.26,1.32-.56,1.89-.09-.05-.09-.16-.23-.14-.21.54-.24,1.15-.52,1.67-.05.09-.11.26-.18.4.26-.06.52-.13.72-.31.21-.17.41-.74.7-.81.03.22.07.42.17.62.34.03.56-.94.65-1.13.22.04.41-.31.54-.44.47-.44.64-1.07.75-1.65,0,.16.07.46.28.5.36-.38.75-.73.95-1.2.18-.41.19-.87.38-1.27.18.13.34.28.53.4.24-.08.26-.62.31-.81.08-.28.11-.61.31-.85.13.11.27.3.49.22.06-.17,0-.36.04-.53.05-.22.13-.44.2-.66.11-.37.2-.73.26-1.11.03-.22.03-.46.15-.66.14.07.23.22.33.32.2-.02.31-.71.34-.84.11-.44.09-.84.08-1.28,0-.27.06-.47.33-.62.27-.15.51-.09.79-.13.24-.04.24-.01.26-.27.04-.42-.12-.86-.04-1.27.01-.07.1-.45.26-.48.17-.03.35.17.52.19.12-.12-.05-.37-.08-.51-.08-.32-.08-.66-.15-.98-.04-.16-.32-.91,0-.95.08,0,.12-.05.15.06.15-.05.18-.31.21-.45.14-.52.08-1.07.15-1.6.02-.15.03-.55.25-.59.18-.03.22.17.37.14.14-.3-.71-1.82.25-1.65-.02-.29-.53-1.37-.19-1.59.14-.09.37.04.54.06.17-.36-.3-.77-.34-1.12-.04-.41.09-.86.11-1.28,0-.31-.07-.48-.18-.72.04-.37.05-.7.02-.99-.3-3.45-3.92-3.91-3.92-3.91-.69-.18-2.11-.02-3.24,1.55Z" style="stroke-width:0px;fill:#bc4d27"/><path d="m42.85,82.95c.12-.1.24-.11.36-.04-.14.61-.34,1.21-.51,1.81-.17.56-.31,1.07-.24,1.65.04.39.17.75.07,1.14-.13.5-.28.86-.11,1.37.07.22.19.37.31.57.09.14.17.26.28.4.09.03.14.09.13.18-.03.1-.02.19.04.27.17-.03.26-.15.43-.18.12.09,0,.27.17.29.32.05.76-.47,1.09-.53-.1.33-.39.59-.48.92.52-.32,1.01-.41,1.63-.55.11-.02.21-.05.32-.07.08-.14.14-.31.18-.4.27-.52.3-1.13.52-1.67.14-.02.14.09.23.14.3-.57.39-1.28.56-1.89.04-.15.08-.55.2-.7.1-.11.34-.1.5-.11.06,0,.07-.05.13-.05.07,0,.14.05.22.06.16-.28.03-.38.01-.65-.02-.25.27-.34.35-.57-.04-.08-.16-.12-.26-.14-.09-.36.59-.36.62-.68.01-.16-.16-.18-.2-.3-.06-.15.02-.36.15-.47.12-.1.24-.12.32-.26.09-.15.12-.36.14-.53.02-.18-.11-.44.01-.57.13-.14.54-.08.72-.08.2-.23-.11-.57-.01-.81.21-.06.52-.09.71-.19.32-.16.13-.55.02-.76-.15-.28-.32-.51-.28-.82.14-.04.37-.01.35-.19-.02-.12-.22-.18-.22-.34,0-.09.08-.21.12-.29.16-.34.35-.67.51-1.01.07-.15.24-.39.24-.55,0-.22-.27-.28-.35-.51-.17-.55.8-.88,1.08-1.22.13-.17.17-.1-.07-.28-.18-.13-.38-.29-.42-.5-.05-.28.23-.33.4-.51.25-.29.29-.94.39-1.28.32-1.14.74-2.24,1.13-3.36-.22-.13-.51-.16-.38-.41.17-.34.89-.83.71-1.22-.03-.07-.12-.1-.15-.18-.03-.08-.03-.21,0-.29.12-.27.63-.32.88-.49-.2-.12-.76-.26-.82-.45-.09-.27.59-.56.14-.79-.29-.14-.75-.07-.87-.42-.12-.35.4-.62.53-.91-.21-.17-.74-.14-1-.16-.12,0-.17-.03-.28-.02-.15.02-.23.13-.37.07.04-.08.07-.16.08-.25-.19-.1-.55.06-.67-.09-.12-.15.05-.4.03-.54-.02-.1-.39-.47-.52-.53-.08-.04-.16-.02-.24-.05-.14-.05-.23-.14-.35-.22-.14-.09-.29-.15-.45-.18-.35.49-.68,1.13-.95,1.93-.14.42-.3.95-.49,1.58-.08.09-.15.17-.2.28-.06.15-.06.33-.13.48-.06.14-.16.24-.22.38-.06.15-.09.32-.13.47-.1.36-.18.68-.19,1.05-.01.24-.05.45-.1.67-.48,1.65-1,3.49-1.52,5.27-.37.95-.59,1.95-1.06,2.87-.4.78-.57,1.61-.91,2.41-.13.32-.25.67-.43.97-.12.21-.32.36-.44.56-.2.35-.15.79-.34,1.14-.08.15-.17.26-.25.43-.03.06-.46.71-.37.83Z" style="stroke-width:0px;fill:#a33d23"/><path d="m56.29,61.54c-.03.15.16.1.27.14.21.08.5.43.62.59.29.42-.25.25-.54.26-.06.1.25.42.29.53.08.27.09.56.1.83,0,.19.04,1.13-.26,1.1-.11-.2-.1-.59-.31-.71-.12.17-.08.39-.19.57-.17-.44-.49-.82-.82-1.17-.15-.17-.21-.27-.26-.48-.03-.13-.05-.3-.21-.36-.25-.09-.25.22-.48.08-.11-.07-.16-.24-.25-.33-.1-.1-.19-.15-.26-.28-.07-.13-.1-.32-.32-.33-.17,0-.35.22-.54.04-.11-.1.01-.26-.09-.36-.07-.07-.25-.07-.35-.08-.24-.05-.51-.08-.73-.16-.02-.28.74-.35.7-.57-.03-.18-.42-.06-.39-.25.03-.22.76-.33,1-.36.46-.05.89-.05,1.34.05.19.04.24.07.37.17.09.07.16.16.25.23.14.11.29.21.42.32.24.2.19.3.62.54Z" style="stroke-width:0px;fill:#d8682e"/><path d="m49.3,35.56c0,.16.03.32.05.48,0,.18,0,.37,0,.56,0,.18,0,.37.02.55.01.13.05.31.02.44-.04.17-.09.05-.2.03-.04.24.01.51.03.74.02.2,0,.4,0,.59,0,.33.05.72,0,1.04-.1.02-.21-.1-.31-.05-.02.33-.03.66-.05.99,0,.15-.04.29-.05.44-.03.16-.01.32-.04.47,0,.08-.03.18-.06.25-.02.05-.05.06-.06.1-.04.08-.05.2-.08.3-.04.14-.09.27-.12.41-.08.02-.18-.07-.24.03-.02.07-.04.14-.06.2-.05.22-.09.44-.12.67-.06.37-.12.64-.25.98-.1.24-.17.63-.33.82-.05-.02-.07-.08-.11-.11-.33.38-.41,1.02-.66,1.46-.1-.08-.08-.28-.15-.39-.05.13-.09.27-.11.43-.08.31-.17.61-.27.92-.08.28-.15.57-.2.86,0,.12-.03.23-.08.34-.08-.13-.1-.34-.15-.49-.08.06-.11.15-.09.28-.02.19-.05.39-.08.58-.01.1-.05.61-.15.65-.1-.14-.18-.29-.29-.42-.07.34-.09.63-.3.91-.14.18-.37.4-.57.47,0-.11.03-.23,0-.33-.12.06-.23.15-.31.28-.09.13-.21.23-.33.31-.15.05-.08-.03-.16-.14-.15-.23-.47.49-.64.51,0-.07-.02-.15-.04-.21-.16,0-.21.29-.35.35-.04.01-.08,0-.11-.01,0-.03-.02-.05-.05-.06-.03-.03-.07-.03-.11,0-.04.01-.09.05-.13.09-.05-.04-.09-.08-.13-.09-.04-.04-.07-.04-.1,0-.03,0-.04.03-.05.06-.04.02-.07.02-.11.01-.14-.06-.19-.36-.35-.35-.02.07-.03.14-.04.21-.18-.02-.49-.74-.65-.51-.08.11,0,.18-.16.14-.12-.08-.23-.19-.33-.31-.08-.13-.19-.22-.31-.28-.04.1,0,.22,0,.33-.19-.08-.43-.29-.57-.47-.21-.28-.23-.57-.3-.91-.1.13-.19.28-.29.42-.1-.04-.13-.56-.14-.65-.03-.2-.05-.39-.08-.58.02-.13-.01-.23-.09-.28-.05.15-.08.36-.15.49-.05-.1-.08-.21-.08-.34-.05-.29-.12-.58-.2-.86-.1-.3-.18-.61-.27-.92-.02-.15-.05-.29-.1-.43-.07.11-.06.31-.15.39-.26-.45-.34-1.08-.66-1.46-.04.03-.06.09-.11.11-.16-.19-.23-.58-.33-.82-.13-.33-.19-.61-.25-.98-.04-.22-.08-.45-.12-.67-.02-.07-.04-.14-.06-.2-.07-.1-.16-.01-.24-.03-.04-.14-.08-.27-.12-.41-.03-.1-.04-.21-.08-.3-.02-.04-.04-.06-.06-.1-.03-.07-.05-.17-.06-.25-.02-.16,0-.32-.03-.47-.02-.15-.05-.28-.05-.44-.02-.33-.02-.67-.05-.99-.1-.05-.21.07-.31.05-.05-.32,0-.71,0-1.04,0-.2,0-.39,0-.59.02-.24.07-.51.03-.74-.11.02-.16.14-.2-.03-.03-.13,0-.31.02-.44.02-.18.02-.37.02-.55s-.01-.37,0-.56c.01-.16.04-.32.04-.48-.44-.14-.64-.6-.35-.68.1-.03.31-.36.59-.86.04-.13.08-.26.1-.4-.07.05-.17.14-.25.14-.04-.16.08-.37.14-.51.05-.14.12-.26.18-.39.03-.06.06-.12.05-.19-.11-.09-.28.08-.41.03,0-.08.09-.11.14-.15.12-.09.2-.19.29-.31.09-.13.21-.22.32-.33.11-.11.18-.23.28-.34.2-.26.46-.44.66-.7.18-.22.39-.4.57-.61.17-.2.41-.33.54-.58.1-.18.18-.32.31-.47.15-.15.26-.34.4-.48.12-.12.21-.14.34-.15,1.75-1.7,3.4-1.76,3.4-1.76,0,0,1.65.06,3.4,1.76.14,0,.23.03.35.15.15.14.26.33.4.48.14.15.21.29.31.47.13.25.37.38.54.58.18.21.4.39.57.61.21.26.46.44.67.7.09.12.17.24.27.34.11.11.22.2.32.33.09.13.18.22.29.31.05.04.14.06.14.15-.13.05-.3-.12-.41-.03,0,.07.02.13.05.19.06.13.12.25.18.39.06.14.18.35.14.51-.08,0-.18-.08-.25-.14.02.14.06.27.1.4.29.5.49.83.59.86.29.08.09.54-.35.68Z" style="stroke-width:0px;fill:#bc4d27"/><path d="m48.33,36.85s-.43,2.92-1.71,2.92c-.84,0-3.14-.16-4.62.62-1.49-.78-3.78-.62-4.62-.62-1.28,0-1.71-2.92-1.71-2.92.02-.91.09-1.68.19-2.15.42-2.03,2.16-3.43,3.14-4.68s3.01-1.47,3.01-1.47c0,0,2.03.21,3.01,1.47s2.73,2.66,3.14,4.68c.1.47.17,1.24.19,2.15Z" style="stroke-width:0px;fill:#3f403f"/><path d="m46.62,35.45c.04.69-1.3-1.01-2.31-1.09-1.02-.08-1.38.83-2.31.83s-1.3-.91-2.31-.83c-1.01.08-2.35,1.78-2.31,1.09.04-.69.68-.97.45-.97s-.91-1.25,1-3.4c1.9-2.15,3.17-2.08,3.17-2.08,0,0,1.27-.08,3.17,2.08,1.9,2.15,1.22,3.4,1,3.4s.42.29.45.97Z" style="stroke-width:0px;fill:#515251"/><path d="m45.77,45.32c-2.73,1.33-3.77,1.47-3.77,1.47,0,0-1.05-.14-3.77-1.47-2.09-1.02-2.61-5.51-2.56-8.47,0,0,.43,2.92,1.71,2.92.84,0,3.14-.16,4.62.62,1.49-.78,3.78-.62,4.62-.62,1.28,0,1.71-2.92,1.71-2.92.05,2.96-.48,7.45-2.56,8.47Z" style="stroke-width:0px;fill:#303030"/><path d="m46.89,39.33c-.21,2.15-2.24,2.28-4.89,2.28s-4.68-.14-4.89-2.28c-.21-2.15.56-3.1,1.12-3.59.56-.49,1.54-1.26,2.27-.63.73.63,1.5.63,1.5.63,0,0,.77,0,1.5-.63.73-.63,1.71.14,2.27.63.56.49,1.33,1.44,1.12,3.59Z" style="stroke-width:0px;fill:#303030"/><path d="m46.33,37.45c0,.23-.38.79-1.03.79-.66.01-2.37-1.05-2.64-1.12-.28-.08-.35-.05-.66-.05s-.38-.02-.66.05c-.28.08-1.99,1.13-2.64,1.12-.66,0-1.03-.57-1.03-.79s.81.54,1.69.21c.89-.33,2.21-.81,2.06-.93s-1.4.05-2.06-.07c-.66-.12-2.13.49-1.02-.57,1.11-1.06,1.72-.57,2.16-.3.44.27,1.5.3,1.5.3,0,0,1.07-.04,1.5-.3.44-.26,1.05-.76,2.16.3s-.37.44-1.02.57c-.66.12-1.91-.05-2.06.07-.15.12,1.17.6,2.06.93.89.33,1.7-.44,1.7-.21Z" style="fill:#1b1b1b;stroke-width:0px"/><path d="m40,36.83c.3-.3.13-.79.11-.84.28.26.38.66.38.66,0,0-.1.09-.49.19Z" style="stroke-width:0px;fill:#231f20"/><path d="m40,36.83s0,0,0,0c-.13.04-.29.07-.49.1-.8.13-.99-.55-.99-.55,0,0,.21-.55.97-.62.26-.02.47.08.61.22h0c.02.06.2.55-.11.85Z" style="stroke-width:0px;fill:#231f20"/><path d="m39.68,36.04c0-.09-.08-.17-.17-.17s-.17.08-.17.17.08.17.17.17.17-.08.17-.17Z" style="stroke-width:0px;fill:#fff"/><path d="m45.49,47.35c-1.33,2.48-3.49,2.36-3.49,2.36,0,0-2.17.12-3.5-2.36-1.33-2.48-1.23-5.15-.14-7.07,1.09-1.93,3.64-1.71,3.64-1.71,0,0,2.54-.21,3.64,1.71,1.09,1.92,1.19,4.59-.14,7.07Z" style="stroke-width:0px;fill:#3f403f"/><path d="m45.77,45.32c-1.33,1.41-3.77,1.47-3.77,1.47,0,0-2.45-.06-3.77-1.47.08.04,1.33.73,3.77.73s3.7-.69,3.77-.73Z" style="stroke-width:0px;fill:#231f20"/><path d="m44.88,44.52c-.87.91-2.14.98-2.88.98s-2.02-.08-2.89-.98c-.87-.91-1.09-1.96-.28-3.85.81-1.89,3.17-1.78,3.17-1.78,0,0,2.36-.11,3.17,1.78.81,1.89.59,2.95-.28,3.85Z" style="stroke-width:0px;fill:#515251"/><path d="m41.65,39.93s-.45-.49-.84-.59c-.38-.11-.45.38,0,.59.45.21,1.12.49.84,0Z" style="stroke-width:0px;fill:#231f20"/><path d="m43.99,36.83c-.3-.3-.13-.79-.11-.84-.28.26-.38.66-.38.66,0,0,.1.09.49.19Z" style="stroke-width:0px;fill:#231f20"/><path d="m43.99,36.83s0,0,0,0c.13.04.29.07.49.1.8.13.99-.55.99-.55,0,0-.21-.55-.97-.62-.26-.02-.47.08-.61.22h0c-.02.06-.2.55.11.85Z" style="stroke-width:0px;fill:#231f20"/><path d="m44.31,36.04c0-.09.08-.17.17-.17s.17.08.17.17-.08.17-.17.17-.17-.08-.17-.17Z" style="stroke-width:0px;fill:#fff"/><path d="m42.35,39.93s.45-.49.84-.59.45.38,0,.59c-.45.21-1.12.49-.84,0Z" style="stroke-width:0px;fill:#231f20"/></g></g></svg>