<?xml version="1.0" encoding="UTF-8"?>
<svg id="Layer_2" data-name="Layer 2" xmlns="http://www.w3.org/2000/svg" viewBox="0 0 74.94 67.38">
  <defs>
    <style>
      .cls-1 {
        fill: #d5d6d6;
      }

      .cls-1, .cls-2, .cls-3, .cls-4 {
        stroke-width: 0px;
      }

      .cls-2 {
        fill: #fff;
      }

      .cls-3 {
        fill: #231f20;
      }

      .cls-4 {
        fill: #595a5c;
      }
    </style>
  </defs>
  <g id="_100" data-name="100">
    <g>
      <g>
        <path class="cls-2" d="m74.71,36.82c-.09-.03-.19-.02-.28,0,.07.01.16.01.28,0Z"/>
        <path class="cls-2" d="m71.01,33.89c.25.57.78,1.5.62,2.14.09.27-.02.45-.31.55-.32-.11-.6-.05-.83.18.05.37.47,1.41.26,1.77-.39.04-1.17-.05-1.5.2.67.23.12.73-.11.94-.69.6-1.36,1.19-1.87,1.94.27,0,.64-.11.78.15-.55.55-2.34,1.48-2,2.37.28.72.79.9-.17,1.34-.39.18-1.74.46-1.88,1-.12.47.42.86.61,1.27.47.97-.64.94-1.36,1.37-.03.38.56.37.78.52-1.14.53-2.48.86-3.38,1.76.09.34.62.67.56,1-.36.25-.75.28-1.1.54-.26.19-.46.45-.72.63-.33.24-.75.33-1.08.56-.38.26-.61.63-.97.91-.45.36-1.08.45-1.53.8-.22.17-.33.5-.58.63-.37.2-1.22,0-1.64.02-.41.82.51,1.88.24,2.68-.21.61-.88.44-1.4.51-.08.45.12.82-.2,1.18-.27.3-.87.19-1.14.42-.24.21-.21.51-.42.71-.18.18-.32.03-.51.17-.64.47-.46,1.2-1.37,1.35-.3.05-.63-.04-.94,0-.46.05-.82.27-1.24.45-.36.15-.76.29-1.15.23-.42-.06-.65-.32-1.12-.23-.53.11-.83.59-1.35.69-.49.1-1.07-.12-1.57-.04-.34.05-.59.19-.89.34-.32.16-.57.33-.81.41-.92-.83-1.92-1.3-3.19-1.42-.63-.06-1.15.16-1.7-.27-.39-.31-.43-.57-.94-.63-.3-.03-.62.05-.91.01-.39-.05-.32-.12-.61-.29-.53-.3-.65.06-1.19.07-.44,0-.72-.36-1.13-.52-.72-.28-1.31-.63-2-.98-.38-.19-1.49-.7-1.44.1-.37-.1-.72-.49-1.07-.71-.55-.34-.89-.3-1.48-.38-.39-.06-.64-.29-1.03-.41-.72-.21-1.41-.25-2.12-.52-.55-.2-1.4-.23-1.86-.6.14-.36.51-.22.74-.45-.09-.2-.21-.21-.38-.32-.62-.39-1.23-.73-1.82-1.17-.4-.3-1.64-.75-1.79-1.28h-.01c.1,0,.19.01.25.01.45-.03.66-.28,1.15-.25.81.05,1.51.24,2.32.24,1.03,0,2.25.17,3.26-.02.07-.29,0-.57.04-.87.75.05,2.75.7,3.36.09.21-.21.05-.71.42-.83.21-.07,1.34.53,1.56.59.37.1,1.68.64,1.96.39.31-.28.02-.76.2-1.15,1.24-.1,2.46,1.04,3.73.88.19-.42.06-.72.62-.57.73.2,1.4,1.47,1.96,1.97.41-.11.03-.84.37-1.12.57.27,1.04,1.09,1.62.74.2-.12.17-.41.44-.53.21-.09.43-.03.64.02.24.05.38.16.61.19.23.03.52-.1.75,0,.7.3.71,1.83.99,2.46.33-.33.78-.96,1.31-.88.07.3-.04.6.04.9.68.02,1.57-1.17,2.01-1.58.08.68-.13,1.38.03,2.04.71-.04,1.15.24,1.72.67.33.25,1.57.84,1.66,1.29-.04-.31.04-.65-.01-.96-.05-.28-.2-.54-.28-.83-.2-.68-.65-1.31-1.08-1.88-.84-1.1-1.97-1.94-2.84-3-.19-.24-.35-.31-.55-.48-.31-.27-.44-.59-.46-1.1-.03-.53.12-.53-.32-.75-.39-.2-.85-.14-1.24-.32-.36-.17-.42-.55-.73-.73-.28-.16-.46.04-.7-.23-.41-.45.07-1.29-.28-1.76-.21-.29-.69-.48-1.01-.63-.33-.16-.79-.22-.92-.58-.1-.26.07-.59-.02-.88-.12-.03-.25-.05-.38-.08-.03-.2-.05-.4-.07-.61-.55-.18-.61.16-.9-.34-.19-.33-.2-.53-.2-.93,0-.48.65-2.01-.2-1.97.06-.14.15-.44.25-.58.12-.16.38-.27.47-.44.25-.47-.28-.84.14-1.42.24-.33.57-.5.76-.89.21-.44.37-.75.63-1.15.5-.77-.01-.93-.48-1.53-.45-.58.02-1.09.52-1.58.43-.42.58-.38.63-.95.02-.3-.04-.56.05-.85.08-.27.39-.79.56-1.02.31-.41.94-.77.09-1.13.09-.38.71-.79.9-1.18.25-.5.51-.99.77-1.47.06-.11.37-.55.36-.68-.02-.28-.36-.35-.46-.58-.17-.44.07-.48-.24-.78-.21-.2-.3-.29-.48-.53-.08-.11-.15-.22-.25-.31-.07-.07-.31-.01-.37-.09-.19-.3.19-.51.36-.69.42-.43.69-.97,1.02-1.47.14-.22.55-.52.39-.83-.1-.2-.48-.14-.63-.4-.29-.48.73-1.57-.23-1.57-.1-.34,0-.7-.09-1.04-.08-.3-.2-.47-.18-.84.03-.62.35-1.11.21-1.8-.14-.66-.47-1.37-.94-1.86-.33-.35-.99-1.48-1.49-1.39-.13.52.17,1.27-.08,1.74-.23.43-.86.74-1.31.73-.52,0-1.04-.41-1.59-.25-.59.17-.33.78-.71,1.14-.48.46-1.21-.03-1.72.49-.41.43-.39,1.25-1.16,1.29-.91.04-1.65-1.6-2.51-1.35-.66.19-.34,1.1-.48,1.56-.06.01-.12.03-.19.04-1.64,1.27-1.82,1.49-2.06,1.58-.29.01-.58.07-.85.16-.14.04-.24.12-.29.24-1.35.35-2.86.29-4.26.26-.99-.02-1.6-.03-2.48.44-1.05.56-2.17,1.12-3.31,1.52-2.88,1.01-5.71-1.25-8.1-2.62-.03-.03-.07-.06-.11-.08.26-.66.55-1.33.87-2.02-.02-.65.03-1.4.47-1.59.09.06.17.14.21.22.03-.05.06-.11.09-.16l.16-1.58c-.07-.43.22-.89.23-1.34,0-.64.07-1.34-.02-1.98.32.35.86.75,1.34.82.35-.55-.56-2.07-.64-2.68.47-.13.92.62,1.36.4.63-.31-.18-1.12-.21-1.52.79-.2,2.76.45,1.87-1.13.32-.11.7.08,1-.08.3-.16.4-.58.5-.86.1-.28.17-.62.44-.8.42-.28.67.05,1.1.1.06-.39.26-.71.27-1.11.02-.45-.13-.74.44-.69.3.02.7.45,1.01.24.34-.23.04-.61-.08-.85.36-.13,1.15.16,1.44-.06.34-.26-.09-.85.24-1.11.29-.23,1.3.21,1.64.22.38.01,1.04.14,1.2-.21.07-.16-.15-.52.02-.67.21-.18.46.1.64.15.25.06.42,0,.66.04.32.05.79.34,1.11.27.65-.14.36-1.12.93-1.19.59-.07,1.38.79,2.02.45-.07-1.47,2.28,0,2.95-.23.02-.13.03-.25.05-.38.63-.19,1.38.01,2,.14.52.1,1.76.24,2.22.01-.03-.75.85-.33,1.16-.05.24-1.05,1.27.53,1.76.28.1-.05.14-.31.27-.38.16-.09.4-.05.58-.04.39,0,.56.21.89.22.42.01.73-.48,1.02-.68.64-.44.48.08.84.48.3.34.46.22.79.05.17-.09.8-.57.73-.11.59.36,1.46-.65,2.14-.62.11.47-.25,1.08.35,1.11.46.02.79-.71,1.22-.66.11.47.26,1.48.94,1.38.42-.06,1.04-1.81,1.35-.49.11.46-.16,1.11.53,1.13.26,0,.98-.5,1.21-.58.38-.11,1.2-.27,1.59-.07-.26.47-1.13,1.25-.19,1.35.41.04.86-.17,1.26-.23.65-.09,1.47-.13,2.11.02-.27.51-.67.82-.1,1.21.51.35,1.27.39,1.86.32-.55.57-.16,1.8.77,1.27.5-.28.23-.42.97-.38.67.04.65.15.61.7-.02.26-.12.65.22.71.18.03.27-.25.45-.27.9-.11.31,1.26.47,1.79.45.1.92.01,1.38.08.24.04.47.24.67.04-.03.61-.6,1.09-.06,1.73.72.86,2.25.41,2.92,1.53-.27.12-.53.43-.59.72-.08.39.04.4.34.73.4.44.51.49,1.03.63.35.09.96.09,1.19.45.34.51-.25.84-.09,1.36.23.72,1.5.66,1.77,1.31-.71.14-.83.48-.22.96.16.12.56.24.65.43.16.31-.07.42-.15.69-.07.27-.12.58,0,.83-.17.49-.3.97-.39,1.4-.39.67-.34,1.22.16,1.65.4.11.79.23,1.19.36.16.42.24.86.22,1.31.1.24.2.48.3.72.23.12.32.3.25.52-.21.4-.33.82-.36,1.27-.01.8.76,1.48.49,2.19-.37.34-.65.74-.82,1.22.1.71.35,1.36.75,1.95.31.88.21,1.27-.67,1.5Z"/>
      </g>
      <path class="cls-1" d="m74.17,38.62c-.16.15-.77.65-.77.9,0,.38.52.5.47.86-.32.18-.93.37-1.09.73-.17.36.08.83.15,1.18.09.44.2.94-.16,1.26-.26.23-.59.12-.71.49-.08.23.18.69-.02.88-.2.2-.66-.08-.89.02-.67.29.26,1.64,0,2.25-.34.08-.7-.09-.95.19-.26.29-.12.58-.14.95-.02.33-.1,1.68-.45,1.83-.34.14-.56-.19-.87-.17-.17.51-.25,1.03-.38,1.55-.09.38-.04.72-.45.55-.3-.12-.39-.7-.81-.56-.27.09-.3.64-.38.84-.1.25-.22.59-.51.7-.38.14-.4-.07-.68-.2-.44-.21-.38-.25-.68.19-.37.54-.45,1.28-.74,1.86-.23-.16-.24-.45-.59-.45-.44-.01-1.22,1.31-1.57,1.56-.44.31-.64.18-.97.68-.52.78-.86,1.62-1.15,2.5-.96-.23-.45.96-1.19,1.22-.31.11-.44-.22-.78-.05-.45.23-.86,1.35-1.11,1.74-.1.16-.35.77-.67.69-.2-.05-.21-.71-.48-.79-.45-.13-.98.78-1.23,1.05-.28.31-1.6,1.93-2.15,1.79-.14-.34-.17-.7-.3-1.05-.37.29-.62.82-.95,1.15-.41.4-.95.74-1.29,1.19-.05-.37-.17-.63-.53-.61-.23.01-.69.45-.86.56-.47.32-.95.63-1.4.98-.12-.38-.07-.8-.33-1.12-.62-.06-.42.8-.82.93-.44.15-.61-.55-.95-.69-.17.35-.44.8-.84.89-.41.09-.45-.15-.78-.23-.29-.07-.64.1-.93.02-.33-.09-.46-.44-.84-.44-.14.28-.36.71-.73.69-.38-.03-.35-.4-.65-.51-.27-.09-.85.14-1.04.23-.25.16-.5.31-.76.45-.21.07-.36,0-.44-.2-.02-.17-.11-.26-.29-.25-.32,0-.64.02-.96.07-.65.08-1.66.43-2.27.19-.26-.1-.32-.34-.63-.45-1-.33-2.5.45-3.46.72-.37-.27.05-.89-.25-1.21-.39-.42-1.32-.14-1.78-.22-.16-.03-.11-.15-.25-.18-.49-.1-1.02-.14-1.52-.19-.57-.06-3.18.08-3.14-.69-.37-.23-1.05-.14-1.36-.44-.31-.29-.08-.54-.48-.81-.69-.46-1.88-.6-2.65-.83-.88-.26-1.56-.77-2.37-1.16-.79-.37-1.89-.52-2.54-1.16-.27-.26-.39-.47-.73-.69-.23-.15-.58-.34-.66-.57,1.3.06-.66-1.24-.84-1.37.25-.17.57-.21.79-.43-.57-.24-1.76-.58-2.06-1.21.11-.12.19-.25.25-.37-.59-.69-1.42-1.37-2.42-1.17.46-.2.98-.58.75-1.03-.19-.36-1.61-.84-1.18-1.45.27-.02.54-.03.81-.03.12-.33-1.19-1.49-1.23-1.56-.39-.57-.69-1.19-.94-1.82.29-.03.56.05.85.01.03-.34-.05-.66-.24-.97-.23-.71-.45-1.43-.64-2.16-.16-.58-.3-1.63-.71-1.94.12-1.09-.17-2.24.1-3.31.37-1.43.68-2.85,1.09-4.27-.73-2.66-1.37-3.1-1.37-6.65,0,0,.2-4.27,2.24-9.48.04.03.07.05.11.08,2.38,1.36,5.22,3.63,8.1,2.62,1.13-.4,2.25-.95,3.31-1.52.88-.47,1.49-.46,2.48-.44,1.4.03,2.9.09,4.26-.26.05-.12.15-.21.29-.24.28-.09.56-.15.85-.16.24-.09.42-.31,2.06-1.58.06-.01.12-.03.19-.04.14-.46-.18-1.38.48-1.56.87-.24,1.6,1.39,2.51,1.35.76-.03.75-.86,1.16-1.29.5-.52,1.24-.03,1.72-.49.38-.37.13-.97.71-1.14.55-.16,1.07.24,1.59.25.45,0,1.09-.31,1.31-.73.25-.47-.05-1.23.08-1.74.5-.09,1.16,1.05,1.49,1.39.47.49.8,1.2.94,1.86.14.69-.17,1.18-.21,1.8-.02.37.09.55.18.84.1.34-.01.7.09,1.04.97,0-.05,1.09.23,1.57.15.25.53.19.63.4.16.31-.25.61-.39.83-.33.5-.59,1.04-1.02,1.47-.18.18-.55.39-.36.69.05.08.3.03.37.09.1.1.17.21.25.31.18.24.28.33.48.53.31.3.06.34.24.78.09.23.43.31.46.58.01.12-.3.57-.36.68-.26.49-.52.97-.77,1.47-.19.39-.81.79-.9,1.18.85.36.22.72-.09,1.13-.17.23-.48.75-.56,1.02-.09.29-.02.55-.05.85-.05.57-.2.54-.63.95-.5.49-.97,1.01-.52,1.58.47.6.98.76.48,1.53-.26.4-.41.71-.63,1.15-.19.39-.52.56-.76.89-.42.58.11.95-.14,1.42-.09.17-.35.28-.47.44-.1.14-.19.44-.25.58.85-.04.2,1.49.2,1.97,0,.4,0,.6.2.93.29.5.35.16.9.34.02.21.04.4.07.61.12.02.25.05.38.08.1.28-.07.61.02.88.13.36.59.42.92.58.31.15.79.34,1.01.63.35.47-.12,1.3.28,1.76.24.27.42.07.7.23.31.18.38.56.73.73.39.19.85.12,1.24.32.44.22.29.21.32.75.03.51.15.83.46,1.1.2.17.36.25.55.48.88,1.07,2,1.9,2.84,3,.43.57.88,1.19,1.08,1.88.09.29.23.56.28.83.06.3-.03.65.01.96-.09-.45-1.33-1.04-1.66-1.29-.57-.43-1.01-.7-1.72-.67-.16-.66.05-1.37-.03-2.04-.44.42-1.33,1.6-2.01,1.58-.08-.3.03-.6-.04-.9-.52-.08-.98.55-1.31.88-.28-.63-.29-2.16-.99-2.46-.23-.1-.52.03-.75,0-.23-.03-.37-.13-.61-.19-.21-.05-.43-.11-.64-.02-.27.12-.24.41-.44.53-.58.35-1.05-.47-1.62-.74-.34.28.04,1.02-.37,1.12-.56-.5-1.23-1.77-1.96-1.97-.56-.15-.43.15-.62.57-1.27.16-2.49-.98-3.73-.88-.19.39.11.88-.2,1.15-.29.25-1.6-.29-1.96-.39-.22-.06-1.35-.66-1.56-.59-.37.12-.21.62-.42.83-.61.6-2.61-.05-3.36-.09-.03.3.03.58-.04.87-1.02.2-2.23.02-3.26.02-.81,0-1.52-.19-2.32-.24-.49-.03-.71.22-1.15.25-.27.02-1.25-.2-1.38-.39.06.69-.01,1.38.06,2.07.08.75.03,2.84.96,3.06.28.07.42,0,.7.14.38.18.7.47,1.1.65.73.32,1.31.8,2.17.77-.03-.21-.09-.41-.18-.6.87-.12,1.76.98,2.65,1.05-.22-.49.36-.29.56-.26.72.08,1.49.63,2.15.92.03-.13-.03-.49.03-.56.25-.35.92.15,1.17.29.49.27,1.04.7,1.58.87.46.15.34.08.9-.06.28-.07.63-.15.89.03.21.14.2.63.41.76.68.43,1.43-.94,2.09-1.1.3.47-.06,1.14.3,1.52.46.49,2.13-.38,2.68-.54.29.22.21.96.33,1.29,1.12.13,1.69-.66,2.68-.95.66-.2.49.03.94.53.58.64.96.25,1.68-.11.3-.15.56-.28.89-.34.5-.08,1.08.14,1.57.04.53-.11.83-.59,1.35-.69.47-.09.7.17,1.12.23.39.05.8-.08,1.15-.23.42-.18.78-.39,1.24-.45.31-.04.64.06.94,0,.91-.16.73-.89,1.37-1.35.19-.14.33.01.51-.17.2-.2.18-.51.42-.71.27-.23.87-.12,1.14-.42.32-.36.13-.73.2-1.18.52-.07,1.19.1,1.4-.51.28-.8-.64-1.86-.24-2.68.42-.03,1.27.18,1.64-.02.24-.13.36-.46.58-.63.45-.35,1.07-.44,1.53-.8.36-.28.59-.65.97-.91.33-.23.75-.32,1.08-.56.26-.19.46-.44.72-.63.35-.26.74-.3,1.1-.54.06-.33-.47-.66-.56-1,.89-.9,2.24-1.23,3.38-1.76-.23-.15-.82-.13-.78-.52.72-.43,1.83-.4,1.36-1.37-.2-.41-.73-.8-.61-1.27.13-.54,1.49-.82,1.88-1,.96-.44.45-.61.17-1.34-.34-.89,1.44-1.82,2-2.37-.14-.25-.52-.15-.78-.15.52-.76,1.19-1.34,1.87-1.94.23-.21.78-.71.11-.94.33-.24,1.12-.15,1.5-.2.21-.36-.21-1.4-.26-1.77.23-.23.51-.29.83-.18.29-.09.39-.28.31-.55.15-.63-.37-1.57-.62-2.14.88-.23.98-.62.67-1.5-.41-.59-.66-1.24-.75-1.95.17-.47.44-.88.82-1.22.28-.72-.5-1.39-.49-2.19.02-.45.14-.88.36-1.27.06-.23-.02-.4-.25-.52-.1-.24-.2-.48-.3-.72.02-.45-.06-.89-.22-1.31-.39-.13-.79-.25-1.19-.36-.5-.43-.56-.98-.16-1.65.09-.43.22-.91.39-1.4.05.1.12.19.22.25.36.23,1.49.09,1.52.68-.69.53-.24.54-.03,1.17.1.3.04.48.2.74.18.29.64.48.92.63-.19.05-.58.13-.63.35-.08.37.37.4.63.54.78.41.41.57.04,1.18-.74,1.22.51.7.88,1.36.27.47-.71.61-.64,1.19.08.72.85.82.62,1.65-.12.42-.37.91-.04,1.36.22.31.28-.03.27.44,0,.06-.18.37-.19.5-.05.44.21.96.44,1.29-.5.31-.53,1.12-.39,1.64,1.33-.07-.08,1.92.74,2.06-.02,0-.05.01-.07.03-.12.41.53.5.57.87.05.47-.51.66-.77.9Z"/>
      <path class="cls-1" d="m39.73,65.34c-.29.1-.55.06-.88-.29-.45-.5-.28-.72-.94-.53-.99.29-1.56,1.09-2.68.95-.13-.33-.05-1.07-.33-1.29-.56.16-2.23,1.03-2.68.54-.35-.38,0-1.04-.3-1.52-.66.16-1.42,1.53-2.09,1.1-.21-.14-.2-.62-.41-.76-.26-.18-.61-.1-.89-.03-.56.14-.44.21-.9.06-.53-.17-1.08-.6-1.58-.87-.25-.14-.92-.63-1.17-.29-.05.08,0,.43-.03.56-.65-.29-1.43-.84-2.15-.92-.21-.02-.79-.22-.56.26-.88-.07-1.78-1.18-2.65-1.05.09.19.15.39.18.6-.86.03-1.44-.45-2.17-.77-.41-.18-.72-.47-1.1-.65-.27-.13-.42-.08-.7-.14-.93-.22-.88-2.31-.96-3.06-.08-.69,0-1.38-.06-2.07.1.15.74.32,1.13.37h.01c.15.53,1.39.99,1.79,1.29.59.44,1.2.79,1.82,1.17.17.11.29.11.38.32-.23.23-.61.09-.74.45.45.37,1.31.4,1.86.6.71.27,1.4.31,2.12.52.39.11.64.35,1.03.41.59.09.93.04,1.48.38.34.22.7.61,1.07.71-.04-.81,1.07-.3,1.44-.1.69.35,1.28.7,2,.98.41.16.68.53,1.13.52.54-.01.66-.38,1.19-.07.29.17.22.25.61.29.3.04.62-.05.91-.01.51.06.55.32.94.63.55.43,1.07.21,1.7.27,1.27.12,2.27.6,3.19,1.42Z"/>
      <path class="cls-2" d="m37.7,38.92c-.48.14-1.24.12-1.74.02-.4-.08-.78-.37-1.19-.17.1.44.82.68.67,1.19-.13.46-.79.19-1.16.23-.5.06-.61.36-1.02.65-.41.29-1.17.56-1.67.63-.06.41.56.56.48.95-.07.35-.68.33-.9.41-.38.14-.65.4-1.01.57-.43.21-.72.14-1.15.28-.22.07-.67.34-1,.57-1.29,3.88-2.79,10.03-9.19,10.03s-7.9-6.15-9.19-10.03c-.33-.23-.78-.5-1-.57-.43-.14-.72-.07-1.14-.28-.35-.18-.63-.43-1.01-.57-.22-.08-.83-.06-.9-.41-.08-.4.55-.55.48-.95-.5-.06-1.25-.34-1.67-.63-.42-.29-.53-.6-1.02-.65-.37-.04-1.02.23-1.16-.23-.15-.52.57-.76.67-1.19-.41-.2-.78.09-1.19.17-.5.11-1.25.12-1.74-.02-.04-.51,1.27-1.28,1.54-1.62.55-.67,1.16-1.39,1.18-2.29.01-.61-.03-.97.23-1.48.1-.21.33-.48.25-.75-.1-.34-.37-.23-.67-.27-.2-.72.11-1.31.36-1.94.13-.33.44-.65.53-.97.08-.3-.01-.81-.01-1.12,0-.66-.12-1.5.1-2.09.23-.58.97-1.03,1-1.68-.56-.39-1.05-.72-1.25-1.49.79-.35,1.45.42,1.5-.9.02-.53-.02-.55.45-.62.41-.06.61-.04.96-.18.42-.17.56-.15.64-.67.06-.38-.18-.71.2-.88.34-.16,1.05.07,1.42.03.55-.06,1.23-.14,1.74-.3,0-.39-.32-.59-.42-.9.38-.16.96-.07,1.36-.06.56.02,1.24.4,1.77.22.17-.6-.39-1.09-.18-1.67.5-.24,1.71.19,2.21.38.11-.49-.17-.77.35-.91.45-.12,1.1.53,1.51.28.38-.23-.02-.79.52-.76.53.03,1.07.75,1.57,1.08.5-.33,1.05-1.06,1.57-1.08.54-.03.14.53.52.76.41.25,1.05-.4,1.51-.28.52.14.24.42.35.91.5-.19,1.7-.61,2.21-.38.2.58-.36,1.07-.18,1.67.53.18,1.21-.21,1.77-.22.39-.01.98-.1,1.35.06-.1.31-.43.51-.42.9.52.16,1.2.23,1.74.3.37.04,1.08-.19,1.42-.03.38.17.14.5.2.88.08.52.22.5.64.67.34.14.55.12.96.18.47.07.43.08.45.62.05,1.32.71.56,1.5.9-.2.77-.7,1.1-1.25,1.49.03.65.78,1.1,1,1.68.23.59.11,1.43.11,2.09,0,.31-.09.82-.01,1.12.08.33.39.64.52.97.24.63.56,1.22.36,1.94-.3.03-.56-.07-.67.27-.08.27.14.54.25.75.25.51.21.87.23,1.48.02.9.62,1.61,1.18,2.29.28.34,1.59,1.11,1.54,1.62Z"/>
      <path class="cls-2" d="m14.44,20.1c-.1.05-.21.09-.32.13-.26.1-.52.21-.76.34-.11.06-.59.43-.74.35-.15-.08-.04-.45-.07-.61-.13-.03-.28.1-.4.18-.02.01-.03.02-.04.03-.19.13-.35.26-.5.43-.13.14-.27.41-.46.47-.1-.09-.17-.32-.32-.29-.14.03-.21.47-.24.58-.2.6-.25-.19-.58-.2-.2.29-.34.59-.38.94-.03.24-.05.47-.09.7-.25-.03-.37-.31-.66-.22-.03.14.08.48-.01.59-.08.09-.36-.04-.44-.06-.13-.03-.41-.17-.46-.01-.06.17.19.36.14.53-.42.05-.8-.41-1.25-.29-.1.23.31.37.27.58-.16.06-.36-.04-.52-.06-.2-.02-.39.01-.59-.02.14.08.77.52.4.61-.14.04-.37-.07-.5,0-.14.06-.04.16-.01.29.01.05.02.09.02.13,0,.26-.2.32-.5.36-.2.03-.41.05-.61.05-.09-.11-.17-.22-.24-.35-2.29-3.93-.44-13.78,2.81-12.63,3.24,1.15,6.99,6.57,6.99,6.57.06.28.08.57.06.86Z"/>
      <path class="cls-3" d="m18.85,51.64c-1.38,0-2.69-1.12-2.36-2.52.33-1.4,2.36-1.4,2.36-1.4,0,0,2.03,0,2.36,1.4.33,1.4-.98,2.52-2.36,2.52Z"/>
      <path class="cls-1" d="m12.15,20.49s-.03.02-.04.03c-.19.13-.35.26-.5.43-.13.14-.27.41-.46.47-.1-.09-.17-.32-.32-.29-.14.03-.21.47-.24.58-.2.6-.25-.19-.58-.2-.2.29-.34.59-.38.94-.03.24-.05.47-.09.7-.25-.03-.37-.31-.66-.22-.03.14.08.48-.01.59-.08.09-.36-.04-.44-.06-.13-.03-.41-.17-.46-.01-.06.17.19.36.14.53-.42.05-.8-.41-1.25-.29-.1.23.31.37.27.58-.16.06-.36-.04-.52-.06-.2-.02-.39.01-.59-.02.14.08.77.52.4.61-.14.04-.37-.07-.5,0-.14.06-.04.16-.01.29.01.05.02.09.02.13-.14-.07-.25-.17-.33-.3-.95-1.63-1.16-9.72.92-9.6s5.57,4.96,5.57,4.96c.02.06.04.13.06.19Z"/>
      <path class="cls-3" d="m14.1,39.46s-.72-2.41-2.42-2.41-2.25,1.2-2.25,1.2c0,0-.54,1.51,1.51,2.41s3.17-1.2,3.17-1.2Z"/>
      <path class="cls-2" d="m13.04,38.31c0-.36-.29-.66-.66-.66s-.66.29-.66.66.29.66.66.66.66-.29.66-.66Z"/>
      <path class="cls-2" d="m23.26,20.1c.1.05.21.09.32.13.26.1.52.21.76.34.11.06.59.43.74.35.15-.08.04-.45.07-.61.13-.03.28.1.4.18.02.01.03.02.04.03.19.13.35.26.5.43.13.14.27.41.46.47.1-.09.17-.32.32-.29.14.03.21.47.24.58.2.6.25-.19.58-.2.2.29.34.59.38.94.03.24.05.47.09.7.25-.03.37-.31.66-.22.03.14-.08.48.02.59.08.09.36-.04.44-.06.12-.03.41-.17.46-.01.06.17-.19.36-.14.53.42.05.8-.41,1.25-.29.1.23-.31.37-.27.58.16.06.36-.04.52-.06.2-.02.39.01.59-.02-.14.08-.77.52-.4.61.14.04.37-.07.5,0,.14.06.04.16.01.29-.01.05-.02.09-.02.13,0,.26.2.32.5.36.2.03.41.05.61.05.09-.11.17-.22.24-.35,2.29-3.93.44-13.78-2.81-12.63-3.24,1.15-6.99,6.57-6.99,6.57-.06.28-.08.57-.06.86Z"/>
      <path class="cls-1" d="m25.55,20.49s.03.02.04.03c.19.13.35.26.5.43.13.14.27.41.46.47.1-.09.17-.32.32-.29.14.03.21.47.24.58.2.6.25-.19.58-.2.2.29.34.59.38.94.03.24.05.47.09.7.25-.03.37-.31.66-.22.03.14-.08.48.02.59.08.09.36-.04.44-.06.12-.03.41-.17.46-.01.06.17-.19.36-.14.53.42.05.8-.41,1.25-.29.1.23-.31.37-.27.58.16.06.36-.04.52-.06.2-.02.39.01.59-.02-.14.08-.77.52-.4.61.14.04.37-.07.5,0,.14.06.04.16.01.29-.01.05-.02.09-.02.13.14-.07.25-.17.33-.3.95-1.63,1.16-9.72-.92-9.6s-5.57,4.96-5.57,4.96c-.02.06-.04.13-.06.19Z"/>
      <path class="cls-3" d="m23.6,39.46s.72-2.41,2.42-2.41,2.25,1.2,2.25,1.2c0,0,.54,1.51-1.51,2.41-2.05.9-3.17-1.2-3.17-1.2Z"/>
      <path class="cls-2" d="m24.66,38.31c0-.36.29-.66.66-.66s.66.29.66.66-.29.66-.66.66-.66-.29-.66-.66Z"/>
      <path class="cls-4" d="m18.85,48.14s-2.05-.2-1.75,1.05c.3,1.26,3.53,1.13,3.61,0,.09-1.31-1.86-1.05-1.86-1.05Z"/>
    </g>
  </g>
</svg>