<?xml version="1.0" encoding="UTF-8"?><svg data-name="Layer 2" xmlns="http://www.w3.org/2000/svg" viewBox="0 0 538.66 475.59"><defs/><g><g><path d="m203.12,450.5s-19.27-12.14-27.83-12.14-38.86,12.51-53.15,12.14-25.37,17.83-25.37,17.83l18.63-5.35s11.02,7.49,22.61,5.35c11.58-2.14,35.14-10.55,40.49-10.09,5.35.46,47.17,3.42,24.62-7.74Z" style="stroke-width:0px;fill:#a34924"/><path d="m537.31,357.36c-13.82,6.13-46.65,21.63-47.68,22.11t-.02.01s-.01,0-.02.01c-61.72,17.1-152.89,3.75-162.71-.01-9.82-3.76-49.1-31.99-49.1-31.99h-44.9c-13.27-2.47-28.62-22.56-41.12-43.05-8.67,1.79-17.24.88-22.43-5.86-8.63-11.21-3.3-20.48,3.24-29.37-3.27-6.69-5.18-10.96-5.18-10.96-15.37,9.69-37.6,15.16-59.28,17.5-.02.01-.05.02-.07.03-10.97,6.22-22.13,9.38-33.64,13.11-6.56,2.12-8.85,4.41-15.42,2.58-7.34-2.05-7.28-15.99-16.95-4.63-2.69-6.87-6.19-14.4-9.86-21.59-9.19-5.46-20.07-11.86-28.03-16.53,5.88-43.46,16.01-74.51,16.01-74.51h205.72c74.55,0,196.4,82.18,210.43,88.81,14.03,6.62,61.73,27.09,51.91,34.22s-36.47,18.27-36.47,18.27c0,0,99.6,35.62,85.57,41.86Z" style="stroke-width:0px"/><path d="m181.21,158.72c-2.98,10.13-2.98,15.49-2.98,15.49,0,0,5.39,24.36-77.6,24.36s-77.58-24.36-77.58-24.36c0,0,0-5.36-3.01-15.49-3.01-10.15-10.78-24.74-10.78-45.04,0-2.23.15-4.34.4-6.37.15.85,5.16,28.8,25.17,34.09,20.33,5.36,31.53-7.72,28.32-25.77-1.7-9.73,17.85-19.15,37.47-18.87,19.63-.28,39.2,9.15,37.47,18.87-3.18,18.05,8,31.13,28.32,25.77,20.03-5.29,25.04-33.24,25.16-34.09.25,2.03.4,4.14.4,6.37,0,20.3-7.74,34.89-10.78,45.04Z" style="stroke-width:0px;fill:#d1d2d3"/><path d="m100.63,62.61v34.15c-19.62-.29-39.19,9.15-37.47,18.86,3.18,18.06-8,31.14-28.33,25.77-20.02-5.28-25.02-33.23-25.17-34.08v-.02c1.96-16.38,11.02-25.84,11.02-25.84,0-17.32,13.03-55.75,26.84-68.85,32.26,8.64,31,45.28,31,45.28,0,0,8.13,2.74,22.11,4.72Z" style="stroke-width:0px;fill:#fff"/><path d="m122.73,57.88s-8.12,2.73-22.11,4.74c-13.96-2.01-22.11-4.74-22.11-4.74,0,0,1.28-36.62-30.98-45.27.45-.45.93-.88,1.38-1.25C63.35-1.17,100.62.03,100.62.03c0,0,37.3-1.2,51.73,11.33.45.38.93.8,1.38,1.25-32.26,8.65-31.01,45.27-31.01,45.27Z" style="stroke-width:0px"/><path d="m60.86,93.44s-5.04-2.74-7.1,4.12c-2.07,6.86,1.42,17.29,6.13,19.98,4.71,2.69,4.21-10.92,4.21-12.32s.71-11.58-3.23-11.78Z" style="stroke-width:0px;fill:#f79420"/><path d="m20.69,81.45s7.85-4.49,15.31,4.46c0,0,2.88-14.91,0-26.85-2.88-11.93-7.62-4.33-9.69,3.54-2.07,7.87-2.33,14.8-2.33,14.8l-3.29,4.04Z" style="stroke-width:0px;fill:#231f20"/><path d="m34.83,67.64c0,4.82-1.31,8.72-2.93,8.72s-2.93-3.91-2.93-8.72,1.31-8.72,2.93-8.72,2.93,3.91,2.93,8.72Z" style="stroke-width:0px"/><path d="m100.63,62.61v34.15c19.62-.29,39.19,9.15,37.47,18.86-3.18,18.06,8,31.14,28.33,25.77,20.02-5.28,25.02-33.23,25.17-34.08v-.02c-1.96-16.38-11.02-25.84-11.02-25.84,0-17.32-13.03-55.75-26.84-68.85-32.26,8.64-31,45.28-31,45.28,0,0-8.13,2.74-22.11,4.72Z" style="stroke-width:0px;fill:#fff"/><path d="m140.4,93.44s5.04-2.74,7.1,4.12c2.07,6.86-1.42,17.29-6.13,19.98-4.71,2.69-4.21-10.92-4.21-12.32s-.71-11.58,3.23-11.78Z" style="stroke-width:0px;fill:#f79420"/><path d="m180.57,81.45s-7.85-4.49-15.31,4.46c0,0-2.88-14.91,0-26.85,2.88-11.93,7.62-4.33,9.69,3.54,2.07,7.87,2.33,14.8,2.33,14.8l3.29,4.04Z" style="stroke-width:0px;fill:#231f20"/><path d="m166.43,67.64c0,4.82,1.31,8.72,2.93,8.72s2.93-3.91,2.93-8.72-1.31-8.72-2.93-8.72-2.93,3.91-2.93,8.72Z" style="stroke-width:0px"/><path d="m100.62,166.46c-24.11,0-42.03-58.45-40.66-68.9,1.38-10.43,14.81-37.72,21.36-49.8,10.35-19.1,19.3-19.1,19.3-19.1,0,0,8.97,0,19.3,19.1,6.54,12.08,20,39.38,21.38,49.8,1.38,10.45-16.54,68.9-40.68,68.9Z" style="fill:#fdf5a5;stroke-width:0px"/><path d="m100.63,33.42s-10.48.89-22.11,26.85c-11.63,25.95-14.34,38.18-14.37,42.65-.04,4.47,15.77,60.25,36.48,60.25V33.42Z" style="stroke-width:0px;fill:#424143"/><path d="m100.63,33.42s10.48.89,22.11,26.85c11.63,25.95,14.34,38.18,14.37,42.65.04,4.47-15.77,60.25-36.48,60.25V33.42Z" style="stroke-width:0px;fill:#424143"/><path d="m119.25,118.14c-4.14,24.16-9.3,48.33-18.62,48.33s-14.46-24.16-18.6-48.33c-4.14-24.16-5.16-29.53,0-51.88,5.16-22.38,18.6-37.6,18.6-37.6,0,0,13.46,15.21,18.62,37.6,5.16,22.36,4.14,27.72,0,51.88Z" style="fill:#fdf5a5;stroke-width:0px"/><path d="m118.52,85.6c0,3.21-.22,6.99-.6,11.18l-.04-.02s-1.17,10.03-6.24,28.57c-5.07,18.52-11.02,21.25-11.02,21.25-7.19-.11-16.17-43.34-16.99-47.4-.02-.09-.02-.2-.05-.3-.53-5.01-.83-9.55-.83-13.28,0-23.25,17.87-52.19,17.87-52.19,0,0,17.89,28.94,17.89,52.19Z" style="stroke-width:0px;fill:#f05e24"/><path d="m117.92,96.78c-2.51,26.04-11.92,66.4-17.3,66.4s-14.19-37.96-16.99-64c.83,4.06,9.8,47.3,16.99,47.4,0,0,5.95-2.73,11.02-21.25,5.08-18.55,6.24-28.57,6.24-28.57l.04.02Z" style="stroke-width:0px;fill:#a34924"/><path d="m163.98,415.76c-82.6,5.92-131.77-25.01-157.08-49.16-5.33-19.32-6.9-39.77-6.9-59.39,0-20.73,1.7-40.65,4.13-58.49,7.96,4.67,18.84,11.07,28.02,16.53,3.68,7.19,7.18,14.72,9.86,21.59,9.66-11.36,9.61,2.58,16.95,4.63,6.57,1.83,8.86-.46,15.42-2.58,11.51-3.72,22.67-6.89,33.64-13.11.02-.01.05-.02.07-.03,21.69-2.33,43.92-7.81,59.28-17.5,0,0,1.91,4.27,5.18,10.96-6.55,8.88-11.87,18.16-3.24,29.37,5.19,6.73,13.77,7.65,22.43,5.86,12.5,20.48,27.86,40.57,41.13,43.05h27.53c37.64,26.8,24.41,59.61-96.44,68.27Z" style="stroke-width:0px;fill:#fff"/><path d="m489.59,379.49c-.53.34-9.05,6-29.44,25.91-21.06,20.57-145.9,55-292.77,55-106.39,0-146.47-43.02-160.48-93.81,25.32,24.15,74.48,55.08,157.08,49.16,120.84-8.66,134.08-41.47,96.44-68.27h17.36s39.28,28.23,49.09,31.99c9.83,3.76,101,17.11,162.72.01Z" style="stroke-width:0px;fill:#d1d2d3"/><path d="m216.83,465.11c-5.35-.46-28.9,7.95-40.48,10.1-11.59,2.14-22.61-5.36-22.61-5.36l-18.64,5.36s11.08-18.21,25.38-17.83c11.19.28,32.2-7.33,44.89-10.65,1.54,2.08,1.38,3.2,6.47,2.63,7.35-.83,10.6,4.09,18.87,2.94.44-.06.93-.14,1.46-.26,5.23,2.78,9.29,5.33,9.29,5.33,22.55,11.16-19.27,8.19-24.63,7.74Z" style="stroke-width:0px;fill:#a34924"/><path d="m253.72,286.09s29.47,32.36,75.1,34.52c45.63,2.16,116.55-13.43,134.98-21.58,18.43-8.15,11.41-11.87-11.41-12.95-22.81-1.08-117.87-49.62-117.87-49.62l65.59,11.7s-90.29-55.93-109.79-60.24c-19.49-4.32-70.86-7.55-70.86-7.55,0,0,5.57,20.5,16.11,17.26,10.54-3.24,50.46,11.87,50.46,11.87l11.1,11.87-34.87,4.32,12.36,7.55-5.01,14.93,33.52,20.67-19.01,1.08v10.88l-30.42,5.3Z" style="stroke-width:0px;fill:#231f20"/><path d="m355.46,347.49s71.28-12.53,84.59-14.88l13.31-2.36s75.1,19.27,61.79,22.48c-13.31,3.21-60.84,8.56-97.91,10.71-37.07,2.14-61.77-15.95-61.77-15.95Z" style="stroke-width:0px;fill:#231f20"/></g></g></svg>