<?xml version="1.0" encoding="UTF-8"?><svg data-name="Layer 2" xmlns="http://www.w3.org/2000/svg" viewBox="0 0 121.86 89.3"><defs/><g data-name="100"><g><path d="m95.13,64.97c-.39-8.28-3.95-17.31-10.96-31.42-7.01-14.11-5.98-22.77-9.74-26.9-3.77-4.14-16.18-4.52-24.98,0-8.81,4.52-6.81,21.64-12.64,30.67-5.83,9.03-8.28,24.27-8.28,24.27-.6,2.84-1.18,5.14-1.74,6.97.19,1.04.43,2.05.72,3.03.17.56.35,1.12.56,1.66.97,2.55,2.36,4.88,4.22,6.91-.36-4.14-.59-7.66-.74-10.52h0c1.68,1.5,11.53,9.55,28.71,9.55,18.94,0,31.72-11.15,31.72-11.15h0c.62,2.56,1.29,5.5,1.8,8.07.67-.91,1.25-1.86,1.74-2.87.17-.34.32-.69.47-1.04.18-.43.33-.86.47-1.3-.75-1.99-1.24-4.11-1.33-5.93Z" style="stroke-width:0px;fill:#4a3b24"/><path d="m91.99,68.05s-12.78,11.15-31.72,11.15c-17.18,0-27.03-8.06-28.71-9.55.15,2.86.38,6.37.74,10.52,4.72,5.15,12.47,8.39,24.21,8.39,18.34,0,31.34-4.31,37.29-12.43-.51-2.57-1.18-5.51-1.8-8.07h0Z" style="stroke-width:0px;fill:#382c1e"/><path d="m74.19,16.62c-1.02-.71-1.65-3.66-.21-4.1,1.44-.44,3.34.74,3.34.74.54-2.42-2.42-7.74-5.66-9.86-3.24-2.12-18.49-.42-21.13,0-2.63.42-8.28,10.3-5.65,8.06,2.63-2.24,2.84,5.95,2.84,5.95-.2.09-.4.18-.61.29-1.35.66-2.17,1.9-2.64,2.94,1.33-1.07,3.23-2.25,5.4-2.51,4.17-.5,8.05.75,11,.75,2.76,0,12.12-3.38,16.44,1.76-.59-1.53-1.57-3.2-3.13-4.01Z" style="fill:#614d33;stroke-width:0px"/><path d="m97.45,64.47c.62-7.47-4.19-19.25-9.08-27.15-4.79-7.74-7.56-18.17-8.35-24.41-.01-.11-.02-.21-.04-.32,0-.02,0-.05,0-.07-.07-.62-.19-1.18-.34-1.68-1.95-7.41-9.39-10.85-20.87-10.85,0,0-13.05,1.5-16.31,11.04-.52,1.53-.91,2.8-1.22,3.92-.99,3.18-3.2,10.74-6.69,18.69-.35.74-.72,1.51-1.11,2.32h0,0s-.05.14-.11.36c-.46.97-.93,1.93-1.43,2.89-5.06,9.77-5.27,18-5.27,18h0c-.49,3.95-.47,7.79.17,11.35.56-1.84,1.14-4.13,1.74-6.97,0,0,2.45-15.24,8.28-24.27,5.83-9.03,3.84-26.15,12.64-30.67,8.81-4.52,21.22-4.14,24.98,0,3.77,4.14,2.73,12.79,9.74,26.9,7.01,14.11,10.57,23.14,10.96,31.42.09,1.82.58,3.94,1.33,5.93.64-1.98.97-4.11.97-6.39,0-.02,0-.03,0-.05Z" style="fill:#614d33;stroke-width:0px"/><path d="m43.59,24.45s-.14,4.77,3.5,6.9c0,0,.46,9.41,3.93,10.91,3.47,1.51-2.17-10.66.84-10.16s6.98-1.73,9.95-1.73,3.72,1.48,6.36,1.48,3.39,6.19,2.13,8.93c-1.26,2.74,2.04,1.61,3.09-1.9,1.05-3.51.55-7.23,2.18-8.51,1.63-1.28,2.63-2.91,2.63-5.92h-34.6Z" style="stroke-width:0px;fill:#382c1e"/><path d="m77.04,44.23c-.06-.15-1.79.43-4.64,1.12-2.84.69-6.82,1.51-11.26,1.63-4.43.14-8.43-.58-11.23-1.36-2.82-.77-4.47-1.54-4.54-1.4-.08.13,1.47,1.18,4.3,2.17,2.81.99,6.92,1.87,11.5,1.73,4.57-.13,8.62-1.1,11.44-2,2.83-.91,4.48-1.76,4.42-1.9Z" style="stroke-width:0px;fill:#382c1e"/><path d="m48.85,26.82s-1.13,7.77,1.13,11.1c2.26,3.33,1.88.43,2.07-3.07.19-3.5,1.88-7.94,1.32-8.54-.56-.6-4.35-1.02-4.51.51Z" style="stroke-width:0px;fill:#fff"/><path d="m68.98,27.34s1.51,6.96,1.32,10.72c-.19,3.76,2.45.01,2.82-4.79.38-4.8,1.13-10.07-4.14-5.93Z" style="stroke-width:0px;fill:#fff"/><path d="m71.19,25.17c-4.85,0-5.68-1.79-9.87-1.79s-5.12,1.79-10.77,1.79c-3.75,0-5.88-.91-6.89-1.53,0,.04-.01.07-.02.11-.85,7.21,10.31,8.34,13.92,4.28,3.61-4.06,7.89,0,7.89,0,3.35,4.19,13.32,1.75,12.71-4.29-1.07,1.18-3.49,1.42-6.97,1.42Z" style="stroke-width:0px;fill:#4a3b24"/><path d="m54.33,32.03s2.09-.75,4.07.69c1.98,1.44,4.19.73,5.55,0,1.36-.73,2.18-1.03,3.2-.95,1.02.08-.75-1.94-1.6-2.69-.85-.75-3.15-2.38-5.22-1.75-2.07.63-4.15,4.36-6,4.71Z" style="stroke-width:0px;fill:#382c1e"/><path d="m56.38,29.91s1.79-.45,2.49-1.3c.71-.85,3.76-.94,5.32.33,1.55,1.27.89,1.65-.47,2.12-1.36.47-6.12,1.1-7.34-1.15Z" style="stroke-width:0px;fill:#4a3b24"/><g><path d="m75.15,13.48c0,1.12-.78,2.02-1.74,2.02s-1.74-.91-1.74-2.02.78-2.02,1.74-2.02,1.74.91,1.74,2.02Z" style="stroke-width:0px;fill:#f2f2f2"/><path d="m74.44,13.55c0,.77-.63,1.4-1.4,1.4s-1.4-.63-1.4-1.4.63-1.4,1.4-1.4,1.4.63,1.4,1.4Z" style="stroke-width:0px;fill:#010101"/><path d="m72.1,12.52c0-.24.2-.44.44-.44s.44.2.44.44-.2.44-.44.44-.44-.2-.44-.44Z" style="stroke-width:0px;fill:#fff"/></g><g><path d="m46.4,13.48c0,1.12.78,2.02,1.74,2.02s1.74-.91,1.74-2.02-.78-2.02-1.74-2.02-1.74.91-1.74,2.02Z" style="stroke-width:0px;fill:#f2f2f2"/><path d="m47.12,13.55c0,.77.63,1.4,1.4,1.4s1.4-.63,1.4-1.4-.63-1.4-1.4-1.4-1.4.63-1.4,1.4Z" style="stroke-width:0px;fill:#010101"/><path d="m49.45,12.52c0-.24-.2-.44-.44-.44s-.44.2-.44.44.2.44.44.44.44-.2.44-.44Z" style="stroke-width:0px;fill:#fff"/></g><path d="m59.86,16.94s.56-1.47-.75-1.69c-1.32-.22-.33.57,0,.84.33.27.64,1.39.75.84Z" style="stroke-width:0px;fill:#382c1e"/><path d="m61.93,16.94s-.56-1.47.75-1.69c1.32-.22.33.57,0,.84-.33.27-.64,1.39-.75.84Z" style="stroke-width:0px;fill:#382c1e"/><path d="m77.87,22.58s.05.06.08.09c-.02-.03-.05-.06-.08-.09h0Z" style="stroke-width:0px;fill:none"/><path d="m60.89,18.88c-2.95,0-6.83-1.25-11-.75-2.17.26-4.07,1.44-5.4,2.51-.16.35-.28.68-.37.95-.05.2-.08.31-.08.31-.17.55-.3,1.13-.37,1.75.49,1.65,2.48,3.82,6.23,3.82,5.64,0,7.24-4.08,11.43-4.08s5.02,4.33,9.87,4.33c5.57,0,5.9-2.79,6.97-3.96,0-.02,0-.05-.01-.08-.02-.14-.07-.45-.17-.87-.01-.05-.02-.09-.03-.13-.02-.03-.05-.06-.08-.09h0s.05.06.08.09c-.03-.11-.06-.23-.1-.34-.02-.05-.04-.11-.06-.16-.03-.14-.05-.28-.08-.41-.1-.35-.23-.73-.38-1.12-4.32-5.14-13.68-1.76-16.44-1.76Z" style="stroke-width:0px;fill:#4a3b24"/><path d="m40.23,83c-.22-.64-.6-1.27-1.12-1.83-1.4-1.51-4.78-8.21-7.81-11.76,0,0,0,0,0,0,0,0-3.33-1.43-3.33,1.88s-.09,8.3,4.52,12.13c0,0-23.14-.69-32.45,5.34.25.52,1.95.6,4.61.5,4.08-.92,9.92-1.97,16.08-2.14,11.38-.32,18.6.26,19.51-4.12Z" style="stroke-width:0px;fill:#4a3b24"/><path d="m32.48,83.42c-4.61-3.83-4.52-8.82-4.52-12.13s3.33-1.88,3.33-1.88c0,0,0,0,0,0-2.19-2.57-4.2-3.5-5.15.35,0,0,.14,9,1.21,11.24,0,0-15.28.52-23.55,4.84-2.91,1.52-4.01,2.42-3.77,2.92,9.31-6.03,32.45-5.34,32.45-5.34Z" style="fill:#614d33;stroke-width:0px"/><path d="m35.1,87.75c4.61.14,5.93-2.4,5.12-4.74-.91,4.38-8.12,3.79-19.51,4.12-6.15.18-12,1.22-16.08,2.14,2.07-.08,4.72-.28,7.71-.48,8.56-.57,16.88-1.21,22.76-1.04Z" style="stroke-width:0px;fill:#382c1e"/><path d="m93.79,86.93c6.33,0,21.32-1.25,26.76,2.33.75-.1,1.2-.36,1.29-.76-2.47-1.17-6.16-3.11-10.62-4.55-7.81-2.53-15.9-1.3-17.43-.94-1.53.36,1.74-4.77,2.29-8.8.55-4.03-2.82-6.27-2.82-6.37-1.32-.14-2.13.74-2.5,1.57,0,0-2.49,5.36-3.36,10.21-.36,2.04-.67,3.8-.45,5.16,0,.03.56,2.14,6.85,2.14Z" style="stroke-width:0px;fill:#4a3b24"/><path d="m96.08,74.21c-.55,4.03-3.82,9.15-2.29,8.8,1.54-.36,9.62-1.59,17.43.94,4.46,1.45,8.15,3.38,10.62,4.55.15-.67-.69-1.72-2.76-3.08-4.66-3.06-18.12-4.76-22.26-4.76,0,0,3.1-7.66-.26-10.89-1.34-1.29-2.44-1.82-3.31-1.92,0,.09,3.37,2.34,2.82,6.37Z" style="fill:#614d33;stroke-width:0px"/><path d="m92.17,87.8c6.21,0,19.67.17,24.84,1.19,1.51.3,2.71.38,3.54.27-5.44-3.58-20.43-2.33-26.76-2.33s-6.84-2.11-6.85-2.14c.31,1.89,1.63,3.01,5.23,3.01Z" style="stroke-width:0px;fill:#382c1e"/><path d="m82.97,46.79s-.18,0-.51.04c-.33.04-.82.11-1.45.25-.32.06-.66.15-1.03.26-.38.09-.78.24-1.21.39-.86.32-1.81.75-2.81,1.31-1,.55-2.06,1.21-3.22,1.88-1.15.67-2.41,1.35-3.75,2-1.34.66-2.79,1.3-4.32,1.77-1.54.45-3.22.59-4.92.48-1.7-.12-3.34-.52-4.86-1.07-1.52-.56-2.93-1.25-4.24-1.96-1.31-.72-2.52-1.47-3.69-2.15-.29-.17-.58-.33-.87-.48-.29-.15-.57-.3-.85-.44-.56-.29-1.11-.51-1.63-.75-2.1-.9-3.85-1.49-5.07-1.88-.61-.19-1.08-.33-1.41-.41-.32-.09-.5-.12-.51-.1-.01.04.65.27,1.84.72,1.19.45,2.91,1.1,4.97,2.04.51.25,1.05.48,1.6.78.27.15.55.3.83.45.28.15.57.31.85.48,1.14.69,2.35,1.46,3.67,2.2,1.32.74,2.75,1.45,4.31,2.03,1.56.57,3.25.98,5.01,1.11,1.76.12,3.51-.03,5.12-.51,1.6-.5,3.05-1.16,4.4-1.83,1.36-.67,2.61-1.37,3.76-2.07,1.15-.69,2.2-1.37,3.18-1.94.98-.57,1.89-1.02,2.72-1.36.42-.16.81-.32,1.18-.43.36-.12.7-.23,1.01-.3.61-.17,1.09-.28,1.42-.35.33-.08.5-.13.49-.15Z" style="stroke-width:0px;fill:#382c1e"/><path d="m54.33,60.21s-.16-.25-.54-.59c-.19-.17-.43-.37-.71-.59-.3-.21-.63-.44-1.01-.7-1.52-1-3.76-2.15-6.34-3.14-5.18-1.96-9.63-2.62-9.67-2.39-.05.23,4.27,1.26,9.37,3.19,2.54.97,4.77,2.01,6.33,2.86.39.22.74.41,1.06.58.31.18.57.33.78.46.44.25.7.36.73.32Z" style="stroke-width:0px;fill:#382c1e"/><path d="m85.73,51.43c0-.06-.32-.08-.9-.06-.29.01-.65,0-1.06.06-.41.06-.87.13-1.38.21-2.04.38-4.79,1.24-7.65,2.57-2.86,1.33-5.32,2.78-7.03,3.93-1.71,1.15-2.69,1.97-2.62,2.07.14.2,4.37-2.61,10.01-5.22,2.82-1.31,5.47-2.23,7.43-2.76.49-.12.94-.23,1.33-.33.39-.1.74-.14,1.02-.2.56-.12.87-.21.86-.27Z" style="stroke-width:0px;fill:#382c1e"/><path d="m83.6,54.44s-.18.02-.5.12c-.16.05-.36.11-.59.18-.23.08-.49.18-.79.29-1.18.45-2.88,1.16-4.83,2.33-.24.15-.49.3-.74.46-.13.08-.25.16-.38.24-.12.09-.25.18-.38.27-.25.18-.51.37-.77.56-.26.19-.5.42-.76.63-1.04.86-2,1.9-3.12,2.86-.56.48-1.15.95-1.79,1.37-.64.42-1.33.8-2.06,1.09-1.46.62-3.1.94-4.79,1.07-3.38.29-6.62-.56-9.27-1.82-1.33-.63-2.53-1.37-3.57-2.16-.26-.2-.51-.4-.75-.61-.24-.2-.46-.42-.68-.63-.22-.21-.4-.44-.6-.66-.2-.23-.4-.45-.61-.64-.84-.79-1.71-1.36-2.48-1.82-.78-.45-1.48-.79-2.06-1.05-.58-.26-1.04-.44-1.35-.55-.32-.11-.49-.15-.49-.13-.01.04.63.31,1.75.88.56.29,1.24.65,1.99,1.13.75.48,1.58,1.06,2.37,1.84.2.19.38.41.57.62.19.22.39.47.61.69.22.22.44.46.69.67.24.22.49.43.76.64,1.06.83,2.28,1.6,3.63,2.26,1.36.66,2.86,1.21,4.47,1.56,1.61.36,3.33.5,5.07.35,1.73-.14,3.44-.47,4.96-1.13.77-.31,1.49-.71,2.15-1.15.67-.44,1.27-.93,1.84-1.42,1.14-.99,2.09-2.05,3.09-2.9.25-.21.48-.44.73-.63.25-.19.5-.38.75-.56.12-.09.24-.18.36-.27.13-.08.25-.16.37-.24.25-.16.49-.32.72-.47,1.9-1.19,3.56-1.95,4.7-2.47.29-.13.55-.24.77-.34.23-.09.41-.17.57-.23.31-.13.46-.21.46-.22Z" style="stroke-width:0px;fill:#382c1e"/><path d="m42.54,76.01c.07-.04,0-.31-.17-.77-.18-.46-.44-1.12-.86-1.89-.79-1.56-2.06-3.64-3.71-5.74-1.66-2.1-3.36-3.83-4.71-4.96-1.34-1.13-2.3-1.68-2.39-1.55-.09.13.67.88,1.84,2.13,1.18,1.25,2.75,3.02,4.37,5.08,3.25,4.1,5.32,7.85,5.63,7.69Z" style="stroke-width:0px;fill:#382c1e"/><path d="m91.37,62.72c-.05-.06-.3.07-.7.35-.4.29-.98.71-1.63,1.31-1.33,1.16-3.03,2.93-4.66,5.08-1.61,2.17-2.83,4.31-3.52,5.94-.71,1.63-.93,2.72-.77,2.77.15.05.62-.91,1.49-2.41.86-1.5,2.14-3.51,3.71-5.62,3.16-4.22,6.32-7.16,6.08-7.43Z" style="stroke-width:0px;fill:#382c1e"/><path d="m33.42,58.95c-.02.06.8.37,2.08,1.3,1.29.91,3.08,2.36,5.29,4.15,1.11.89,2.32,1.87,3.66,2.89,1.34,1.02,2.79,2.08,4.39,3.1,1.6,1.02,3.35,2.02,5.33,2.72.5.17,1.01.32,1.54.44.54.12,1.07.17,1.6.23,1.07.12,2.17.13,3.27.1,2.21-.08,4.34-.46,6.34-.99,2-.53,3.88-1.23,5.61-2.03.86-.41,1.69-.83,2.47-1.29.4-.22.77-.47,1.14-.7.35-.25.7-.5,1.04-.74,1.37-.98,2.65-1.88,3.77-2.76,1.13-.87,2.16-1.64,3.05-2.35.88-.71,1.64-1.32,2.27-1.81,1.23-1,1.89-1.59,1.86-1.64-.04-.05-.77.45-2.06,1.37-1.29.93-3.16,2.27-5.47,3.94-1.14.85-2.43,1.71-3.8,2.66-.34.24-.69.48-1.05.72-.36.22-.72.46-1.11.66-.76.44-1.58.83-2.42,1.22-1.7.76-3.54,1.42-5.5,1.93-1.96.5-4.03.87-6.16.95-1.07.03-2.12.02-3.15-.09-.51-.06-1.03-.1-1.51-.21-.49-.1-.97-.24-1.44-.4-1.88-.66-3.6-1.62-5.18-2.6-3.16-1.99-5.83-4.08-8.09-5.8-2.26-1.73-4.11-3.11-5.48-3.95-.68-.42-1.24-.71-1.64-.86-.39-.16-.62-.19-.63-.17Z" style="stroke-width:0px;fill:#382c1e"/><path d="m54.16,31.35s.02-.06.06-.18c.03-.12.07-.29.15-.49.14-.41.4-.96.77-1.51.37-.55.78-1,1.08-1.31.15-.15.28-.28.37-.36.09-.08.14-.13.14-.13,0,0-.06.03-.16.11-.1.08-.23.19-.39.34-.32.31-.73.75-1.11,1.31-.38.56-.63,1.12-.76,1.54-.07.21-.11.38-.13.5-.02.12-.03.19-.03.19Z" style="stroke-width:0px;fill:#a57f51"/><path d="m51.75,31.74s.02-.06.06-.18c.03-.12.07-.29.15-.49.14-.41.4-.96.77-1.51.37-.55.78-1,1.08-1.31.15-.15.28-.28.37-.36.09-.08.14-.13.14-.13,0,0-.06.03-.16.11-.1.08-.23.19-.39.34-.32.31-.73.75-1.11,1.31-.38.56-.63,1.12-.76,1.54-.07.21-.11.38-.13.5-.02.12-.03.19-.03.19Z" style="stroke-width:0px;fill:#a57f51"/><path d="m49.35,31.59s.03-.06.07-.18c.03-.12.08-.29.16-.49.15-.41.41-.95.78-1.5.37-.55.77-1,1.07-1.31.3-.31.5-.49.49-.51-.01-.02-.24.14-.56.44-.32.3-.74.75-1.12,1.31-.38.56-.63,1.12-.75,1.55-.07.21-.1.39-.12.51-.02.12-.02.19-.02.19Z" style="stroke-width:0px;fill:#a57f51"/><path d="m47.35,31.07s.03-.06.07-.18c.03-.12.08-.29.16-.49.15-.41.41-.95.78-1.5.37-.55.77-1,1.07-1.31.3-.31.5-.49.49-.51-.01-.02-.24.14-.56.44-.32.3-.74.75-1.12,1.31-.38.56-.63,1.12-.75,1.55-.07.21-.1.39-.12.51-.02.12-.02.19-.02.19Z" style="stroke-width:0px;fill:#a57f51"/><path d="m45.35,30.61s.03-.06.07-.18c.03-.12.08-.29.16-.49.15-.41.4-.95.78-1.5.37-.55.77-1,1.07-1.31.3-.31.5-.49.49-.51-.01-.02-.24.14-.56.44-.32.3-.75.75-1.12,1.31-.38.56-.63,1.12-.75,1.55-.07.21-.1.39-.12.51-.02.12-.02.19-.02.19Z" style="stroke-width:0px;fill:#a57f51"/><path d="m43.38,29.94s.03-.06.07-.18c.03-.12.08-.28.16-.48.14-.4.4-.93.77-1.46.37-.54.77-.97,1.06-1.28.3-.3.5-.48.49-.49-.01-.02-.24.13-.56.42-.32.29-.74.72-1.11,1.27-.38.55-.63,1.1-.75,1.51-.07.21-.1.38-.12.5-.02.12-.02.19-.01.19Z" style="stroke-width:0px;fill:#a57f51"/><path d="m54.72,28.86s.02-.05.05-.15c.01-.05.03-.11.05-.17.03-.07.06-.14.09-.22.14-.33.4-.76.77-1.17.37-.41.75-.73,1.04-.94.14-.11.26-.19.34-.25.08-.06.13-.09.13-.09,0,0-.05.02-.14.07-.09.05-.21.13-.36.23-.3.21-.69.53-1.06.94-.37.41-.63.85-.76,1.19-.03.09-.06.16-.08.23-.02.07-.03.13-.04.18-.02.1-.03.15-.03.15Z" style="stroke-width:0px;fill:#a57f51"/><path d="m51.8,28.91s.03-.05.07-.15c.02-.05.03-.11.06-.17.03-.06.06-.14.1-.22.15-.32.41-.74.77-1.15.74-.81,1.51-1.28,1.48-1.31,0-.02-.21.08-.52.28-.3.2-.7.52-1.07.93-.37.42-.63.86-.76,1.21-.03.09-.06.17-.08.23-.01.07-.03.13-.03.18-.02.1-.02.16-.01.16Z" style="stroke-width:0px;fill:#a57f51"/><path d="m49.46,28.98s.03-.05.07-.15c.02-.05.03-.11.06-.17.03-.07.06-.14.1-.22.15-.32.41-.74.77-1.15.73-.81,1.51-1.28,1.48-1.31,0-.02-.21.08-.52.28-.3.2-.7.52-1.07.93-.37.42-.63.86-.76,1.21-.03.09-.06.17-.08.23-.01.07-.03.13-.03.18-.02.1-.02.16-.01.16Z" style="stroke-width:0px;fill:#a57f51"/><path d="m48.24,28.24s.02-.06.03-.16c0-.05,0-.11,0-.18.01-.07.02-.15.03-.24.06-.35.2-.83.44-1.31.49-.97,1.11-1.63,1.08-1.66-.01-.01-.19.13-.42.41-.24.28-.54.69-.79,1.18-.25.5-.38,1-.41,1.36,0,.09,0,.17-.01.25,0,.07.01.14.01.19,0,.1.02.16.03.16Z" style="stroke-width:0px;fill:#a57f51"/><path d="m45.1,28.68s.03-.05.07-.15c.02-.05.04-.11.06-.17.03-.07.06-.14.1-.22.15-.33.41-.75.77-1.15.74-.81,1.51-1.28,1.48-1.31-.01-.02-.21.08-.52.28-.3.2-.7.52-1.07.93-.37.42-.63.86-.76,1.21-.03.09-.06.17-.08.23-.01.07-.03.13-.04.18-.02.1-.02.16-.01.16Z" style="stroke-width:0px;fill:#a57f51"/><path d="m43.36,27.52s.03-.05.07-.14c.02-.05.04-.1.06-.17.03-.06.06-.14.1-.22.15-.32.41-.73.77-1.12.73-.79,1.5-1.24,1.47-1.27,0-.02-.21.08-.51.27-.3.2-.69.5-1.07.9-.37.4-.63.84-.76,1.18-.03.09-.06.16-.08.23-.01.07-.03.13-.04.18-.02.1-.02.15-.01.16Z" style="stroke-width:0px;fill:#a57f51"/><path d="m55.14,27.26s.02-.05.05-.15c.01-.05.03-.11.05-.18.03-.07.06-.14.09-.22.14-.33.4-.76.77-1.16.37-.41.75-.73,1.04-.94.14-.11.26-.19.34-.25.08-.06.13-.09.13-.09,0,0-.05.02-.14.07-.09.05-.21.13-.36.23-.3.21-.69.53-1.06.94-.37.41-.63.85-.76,1.19-.03.09-.06.16-.08.23-.02.07-.03.13-.04.18-.02.1-.03.15-.02.15Z" style="stroke-width:0px;fill:#a57f51"/><path d="m51.99,27.38s.02-.05.05-.15c.02-.05.03-.11.05-.18.03-.07.06-.14.09-.22.14-.33.4-.76.77-1.16.37-.41.75-.73,1.04-.94.14-.11.26-.19.34-.25.08-.06.13-.09.13-.09,0,0-.05.02-.14.07-.09.05-.21.13-.36.23-.3.21-.69.53-1.06.94-.37.41-.63.85-.76,1.19-.03.09-.06.16-.08.23-.02.07-.03.13-.04.18-.02.1-.03.15-.03.15Z" style="stroke-width:0px;fill:#a57f51"/><path d="m43.56,25.99s.03-.05.07-.14c.02-.05.04-.1.06-.17.03-.06.06-.14.1-.22.15-.32.41-.73.77-1.12.73-.79,1.5-1.24,1.47-1.27,0-.02-.21.08-.51.27s-.69.5-1.07.9c-.37.4-.63.84-.76,1.18-.03.09-.06.16-.08.23-.01.07-.02.13-.04.18-.02.1-.02.15-.01.16Z" style="stroke-width:0px;fill:#a57f51"/><path d="m54.4,26.46s.02-.05.05-.15c.02-.05.03-.11.05-.18.03-.07.06-.14.09-.22.14-.33.4-.76.77-1.16.37-.41.75-.73,1.04-.94.15-.11.26-.19.35-.25.08-.06.13-.09.13-.09,0,0-.05.02-.14.07-.09.05-.21.13-.36.23-.3.21-.69.53-1.06.94-.37.41-.63.85-.76,1.19-.03.09-.06.16-.08.23-.02.07-.03.13-.04.18-.02.1-.03.15-.03.16Z" style="stroke-width:0px;fill:#a57f51"/><path d="m52.24,25.63s.03-.05.07-.15c.02-.05.04-.11.06-.17.03-.07.06-.14.1-.22.15-.32.41-.74.77-1.15.73-.81,1.51-1.28,1.48-1.31,0-.02-.21.08-.52.28-.3.2-.7.52-1.07.93-.37.42-.63.86-.76,1.21-.03.09-.06.17-.08.23-.01.07-.03.13-.04.18-.02.1-.02.16-.01.16Z" style="stroke-width:0px;fill:#a57f51"/><path d="m50.09,26.1s.02-.05.05-.15c.01-.05.03-.11.05-.18.03-.07.06-.14.09-.22.14-.33.4-.76.77-1.16.37-.41.75-.73,1.04-.94.14-.11.26-.19.34-.25.08-.06.13-.09.13-.09,0,0-.05.02-.14.07-.09.05-.21.13-.36.23-.3.21-.69.53-1.06.94-.37.41-.63.85-.76,1.19-.03.09-.06.16-.08.23-.02.07-.03.13-.04.18-.02.1-.03.15-.03.16Z" style="stroke-width:0px;fill:#a57f51"/><path d="m48.11,25.2s.03-.05.07-.14c.02-.05.04-.11.06-.17.03-.06.06-.14.1-.22.15-.32.41-.74.77-1.15.73-.81,1.51-1.28,1.48-1.31,0-.02-.21.08-.52.28-.3.2-.7.52-1.07.93-.37.42-.63.86-.76,1.21-.03.09-.06.17-.08.23-.01.07-.03.13-.04.18-.02.1-.02.16-.01.16Z" style="stroke-width:0px;fill:#a57f51"/><path d="m45.97,25.76s.02-.05.05-.15c.02-.05.03-.11.05-.17.03-.07.06-.14.09-.22.14-.33.4-.76.77-1.17.37-.41.75-.73,1.04-.94.15-.11.26-.19.35-.25.08-.06.13-.09.13-.09,0,0-.05.02-.14.07-.09.05-.21.13-.36.23-.3.21-.69.53-1.06.94-.37.41-.63.85-.76,1.19-.03.09-.06.16-.08.23-.02.07-.03.13-.04.18-.02.1-.03.15-.03.16Z" style="stroke-width:0px;fill:#a57f51"/><path d="m54.4,24.93s.02-.05.05-.15c.02-.05.03-.11.05-.18.03-.07.06-.14.09-.22.14-.33.4-.76.77-1.16.37-.41.75-.73,1.04-.94.15-.11.26-.19.34-.25.08-.06.13-.09.13-.09,0,0-.05.02-.14.07-.09.05-.21.13-.36.23-.3.21-.69.53-1.06.94-.37.41-.63.85-.76,1.19-.03.09-.06.16-.08.23-.02.07-.03.13-.04.18-.02.1-.03.15-.03.16Z" style="stroke-width:0px;fill:#a57f51"/><path d="m52.97,23.7s.02-.05.05-.15c.02-.05.03-.11.05-.18.03-.07.06-.14.09-.22.14-.33.4-.76.77-1.16.37-.41.75-.73,1.04-.94.15-.11.26-.19.35-.25.08-.06.13-.09.13-.09,0,0-.05.02-.14.07-.09.05-.21.13-.36.23-.29.21-.69.53-1.06.94-.37.41-.63.85-.76,1.19-.03.09-.06.16-.08.23-.02.07-.03.13-.04.18-.02.1-.03.15-.03.16Z" style="stroke-width:0px;fill:#a57f51"/><path d="m50.52,23.98s.02-.05.05-.15c.01-.05.03-.11.05-.17.03-.07.06-.14.09-.22.14-.33.4-.76.77-1.16.37-.41.75-.73,1.04-.94.15-.11.26-.19.35-.25.08-.06.13-.09.13-.09,0,0-.05.02-.14.07-.09.05-.21.13-.36.23-.3.21-.69.53-1.06.94-.37.41-.63.85-.76,1.19-.03.09-.06.16-.08.23-.02.07-.03.13-.04.18-.02.1-.03.15-.03.16Z" style="stroke-width:0px;fill:#a57f51"/><path d="m48.21,23.7s.02-.05.05-.15c.01-.05.03-.11.05-.18.03-.07.06-.14.09-.22.14-.33.4-.76.77-1.16.37-.41.75-.73,1.04-.94.14-.11.26-.19.34-.25.08-.06.13-.09.13-.09,0,0-.05.02-.14.07-.09.05-.21.13-.36.23-.3.21-.69.53-1.06.94-.37.41-.63.85-.76,1.19-.03.09-.06.16-.08.23-.02.07-.03.13-.04.18-.02.1-.03.15-.03.16Z" style="stroke-width:0px;fill:#a57f51"/><path d="m46.33,23.7s.02-.05.05-.15c.01-.05.03-.11.05-.17.03-.07.06-.14.09-.22.14-.33.4-.76.77-1.16.37-.41.75-.73,1.04-.94.14-.11.26-.19.34-.25.08-.06.13-.09.13-.09,0,0-.05.02-.14.07-.09.05-.21.13-.36.23-.3.21-.69.53-1.06.94-.37.41-.63.85-.76,1.19-.03.09-.06.16-.08.23-.02.07-.03.13-.04.18-.02.1-.03.15-.03.16Z" style="stroke-width:0px;fill:#a57f51"/><path d="m43.81,23.58s.03-.04.09-.13c.02-.04.05-.09.09-.16.04-.06.09-.12.14-.19.21-.28.56-.63,1.01-.93.45-.3.89-.51,1.22-.65.16-.07.3-.12.39-.16.09-.04.14-.06.14-.06,0,0-.06,0-.15.03-.1.03-.23.07-.4.14-.33.13-.78.34-1.24.64-.45.31-.8.66-1.01.96-.05.07-.09.14-.13.2-.03.06-.06.12-.08.16-.04.09-.07.14-.06.14Z" style="stroke-width:0px;fill:#a57f51"/><path d="m67.99,31.35s-.02-.06-.06-.18c-.03-.12-.07-.29-.15-.49-.14-.41-.4-.96-.77-1.51-.37-.55-.78-1-1.08-1.31-.15-.15-.28-.28-.37-.36-.09-.08-.14-.13-.14-.13,0,0,.06.03.16.11.1.08.23.19.39.34.31.31.73.75,1.11,1.31.38.56.63,1.12.76,1.54.07.21.11.38.13.5.02.12.03.19.03.19Z" style="stroke-width:0px;fill:#a57f51"/><path d="m70.4,31.74s-.02-.06-.06-.18c-.03-.12-.07-.29-.15-.49-.14-.41-.4-.96-.77-1.51-.37-.55-.78-1-1.08-1.31-.15-.15-.28-.28-.37-.36-.09-.08-.14-.13-.14-.13,0,0,.06.03.16.11.1.08.23.19.39.34.31.31.73.75,1.11,1.31.38.56.63,1.12.76,1.54.07.21.11.38.13.5.02.12.03.19.03.19Z" style="stroke-width:0px;fill:#a57f51"/><path d="m72.8,31.59s-.03-.06-.07-.18c-.03-.12-.08-.29-.16-.49-.15-.41-.41-.95-.78-1.5-.37-.55-.77-1-1.07-1.31-.3-.31-.5-.49-.49-.51.01-.02.24.14.56.44.32.3.74.75,1.12,1.31.38.56.63,1.12.75,1.55.07.21.1.39.12.51.02.12.02.19.02.19Z" style="stroke-width:0px;fill:#a57f51"/><path d="m74.8,31.07s-.03-.06-.07-.18c-.03-.12-.08-.29-.16-.49-.15-.41-.4-.95-.77-1.5-.37-.55-.77-1-1.07-1.31-.3-.31-.5-.49-.49-.51.01-.02.24.14.56.44.32.3.74.75,1.12,1.31.38.56.63,1.12.75,1.55.07.21.1.39.12.51.02.12.02.19.01.19Z" style="stroke-width:0px;fill:#a57f51"/><path d="m76.8,30.61s-.03-.06-.07-.18c-.03-.12-.08-.29-.16-.49-.15-.41-.4-.95-.78-1.5-.37-.55-.77-1-1.07-1.31-.3-.31-.5-.49-.49-.51.01-.02.24.14.56.44.32.3.74.75,1.12,1.31.38.56.63,1.12.75,1.55.07.21.1.39.12.51.02.12.02.19.02.19Z" style="stroke-width:0px;fill:#a57f51"/><path d="m78.78,29.94s-.03-.06-.07-.18c-.03-.12-.08-.28-.16-.48-.15-.4-.4-.93-.77-1.46-.37-.54-.77-.97-1.07-1.28-.3-.3-.5-.48-.49-.49.01-.02.24.13.56.42.32.29.74.72,1.11,1.27.38.55.63,1.1.75,1.51.07.21.1.38.12.5.02.12.02.19.01.19Z" style="stroke-width:0px;fill:#a57f51"/><path d="m67.44,28.86s-.02-.05-.05-.15c-.01-.05-.03-.11-.05-.17-.03-.07-.06-.14-.09-.22-.14-.33-.4-.76-.77-1.17-.37-.41-.75-.73-1.04-.94-.15-.11-.26-.19-.35-.25-.08-.06-.13-.09-.13-.09,0,0,.05.02.14.07.09.05.21.13.36.23.3.21.69.53,1.06.94.37.41.63.85.76,1.19.03.09.06.16.08.23.02.07.03.13.04.18.02.1.03.15.03.15Z" style="stroke-width:0px;fill:#a57f51"/><path d="m70.35,28.91s-.03-.05-.07-.15c-.02-.05-.03-.11-.06-.17-.03-.06-.06-.14-.1-.22-.15-.32-.41-.74-.77-1.15-.74-.81-1.51-1.28-1.48-1.31,0-.02.21.08.52.28.3.2.7.52,1.07.93.37.42.63.86.76,1.21.03.09.05.17.08.23.01.07.02.13.04.18.02.1.02.16.01.16Z" style="stroke-width:0px;fill:#a57f51"/><path d="m72.7,28.98s-.03-.05-.07-.15c-.02-.05-.03-.11-.06-.17-.03-.07-.06-.14-.1-.22-.15-.32-.41-.74-.77-1.15-.73-.81-1.51-1.28-1.48-1.31,0-.02.21.08.52.28.3.2.7.52,1.07.93.37.42.63.86.76,1.21.03.09.06.17.08.23.01.07.03.13.04.18.02.1.02.16.01.16Z" style="stroke-width:0px;fill:#a57f51"/><path d="m73.92,28.24s-.02-.06-.02-.16c0-.05,0-.11-.01-.18-.01-.07-.02-.15-.03-.24-.06-.35-.2-.83-.44-1.31-.5-.97-1.11-1.63-1.08-1.66.01-.01.19.13.42.41.24.28.53.69.79,1.18.25.5.38,1,.41,1.36,0,.09,0,.17.01.25,0,.07-.01.14-.01.19-.01.1-.02.16-.03.16Z" style="stroke-width:0px;fill:#a57f51"/><path d="m77.06,28.68s-.03-.05-.07-.15c-.02-.05-.04-.11-.06-.17-.03-.07-.06-.14-.1-.22-.15-.33-.41-.75-.77-1.15-.74-.81-1.51-1.28-1.48-1.31,0-.02.21.08.52.28.3.2.7.52,1.07.93.37.42.63.86.76,1.21.03.09.06.17.08.23.01.07.02.13.04.18.02.1.02.16.01.16Z" style="stroke-width:0px;fill:#a57f51"/><path d="m78.79,27.52s-.03-.05-.07-.14c-.02-.05-.03-.1-.06-.17-.03-.06-.06-.14-.1-.22-.15-.32-.41-.73-.77-1.12-.73-.79-1.5-1.24-1.47-1.27,0-.02.21.08.51.27.3.2.69.5,1.06.9.37.4.63.84.76,1.18.03.09.06.16.08.23.01.07.03.13.03.18.02.1.02.15.01.16Z" style="stroke-width:0px;fill:#a57f51"/><path d="m67.01,27.26s-.02-.05-.05-.15c-.02-.05-.03-.11-.05-.18-.03-.07-.06-.14-.09-.22-.14-.33-.4-.76-.77-1.16-.37-.41-.75-.73-1.04-.94-.15-.11-.26-.19-.34-.25-.08-.06-.13-.09-.13-.09,0,0,.05.02.14.07.09.05.21.13.36.23.3.21.69.53,1.06.94.37.41.63.85.76,1.19.03.09.06.16.08.23.02.07.03.13.04.18.02.1.03.15.03.15Z" style="stroke-width:0px;fill:#a57f51"/><path d="m70.16,27.38s-.02-.05-.05-.15c-.02-.05-.03-.11-.05-.18-.03-.07-.06-.14-.09-.22-.14-.33-.4-.76-.77-1.16-.37-.41-.75-.73-1.04-.94-.15-.11-.26-.19-.35-.25-.08-.06-.13-.09-.13-.09,0,0,.05.02.14.07.09.05.21.13.36.23.3.21.69.53,1.06.94.37.41.63.85.76,1.19.03.09.06.16.08.23.02.07.03.13.04.18.02.1.03.15.03.15Z" style="stroke-width:0px;fill:#a57f51"/><path d="m78.6,25.99s-.03-.05-.07-.14c-.02-.05-.03-.1-.06-.17-.03-.06-.06-.14-.1-.22-.15-.32-.41-.73-.77-1.12-.73-.79-1.5-1.24-1.47-1.27,0-.02.21.08.51.27.3.2.69.5,1.07.9.37.4.63.84.76,1.18.03.09.06.16.08.23.01.07.02.13.04.18.02.1.02.15.01.16Z" style="stroke-width:0px;fill:#a57f51"/><path d="m67.75,26.46s-.02-.05-.05-.15c-.01-.05-.03-.11-.05-.18-.03-.07-.06-.14-.09-.22-.14-.33-.4-.76-.77-1.16-.37-.41-.75-.73-1.04-.94-.15-.11-.26-.19-.34-.25-.08-.06-.13-.09-.13-.09,0,0,.05.02.14.07.09.05.21.13.36.23.3.21.69.53,1.06.94.37.41.63.85.76,1.19.03.09.06.16.08.23.02.07.03.13.04.18.02.1.03.15.03.16Z" style="stroke-width:0px;fill:#a57f51"/><path d="m69.91,25.63s-.03-.05-.07-.15c-.02-.05-.04-.11-.06-.17-.03-.07-.06-.14-.1-.22-.15-.32-.41-.74-.77-1.15-.73-.81-1.51-1.28-1.48-1.31,0-.02.21.08.52.28.3.2.7.52,1.07.93.37.42.63.86.76,1.21.03.09.06.17.08.23.01.07.02.13.03.18.02.1.02.16.01.16Z" style="stroke-width:0px;fill:#a57f51"/><path d="m72.06,26.1s-.02-.05-.05-.15c-.01-.05-.03-.11-.05-.18-.03-.07-.06-.14-.09-.22-.14-.33-.4-.76-.77-1.16-.37-.41-.75-.73-1.04-.94-.14-.11-.26-.19-.34-.25-.08-.06-.13-.09-.13-.09,0,0,.05.02.14.07.09.05.21.13.36.23.3.21.69.53,1.06.94.37.41.63.85.76,1.19.03.09.06.16.08.23.02.07.03.13.04.18.02.1.03.15.02.16Z" style="stroke-width:0px;fill:#a57f51"/><path d="m74.04,25.2s-.03-.05-.07-.14c-.02-.05-.04-.11-.06-.17-.03-.06-.06-.14-.1-.22-.15-.32-.41-.74-.77-1.15-.74-.81-1.51-1.28-1.48-1.31,0-.02.21.08.52.28.3.2.7.52,1.07.93.37.42.63.86.76,1.21.03.09.06.17.08.23.01.07.03.13.04.18.02.1.02.16.01.16Z" style="stroke-width:0px;fill:#a57f51"/><path d="m76.18,25.76s-.02-.05-.05-.15c-.01-.05-.03-.11-.05-.17-.03-.07-.06-.14-.09-.22-.14-.33-.4-.76-.77-1.17-.37-.41-.75-.73-1.04-.94-.14-.11-.26-.19-.34-.25-.08-.06-.13-.09-.13-.09,0,0,.05.02.14.07.09.05.21.13.36.23.3.21.69.53,1.06.94.37.41.63.85.76,1.19.03.09.06.16.08.23.02.07.03.13.04.18.02.1.03.15.03.16Z" style="stroke-width:0px;fill:#a57f51"/><path d="m67.75,24.93s-.02-.05-.05-.15c-.01-.05-.03-.11-.05-.18-.03-.07-.06-.14-.09-.22-.14-.33-.4-.76-.77-1.16-.37-.41-.75-.73-1.04-.94-.14-.11-.26-.19-.34-.25-.08-.06-.13-.09-.13-.09,0,0,.05.02.14.07.09.05.21.13.36.23.3.21.69.53,1.06.94.37.41.63.85.76,1.19.03.09.06.16.08.23.02.07.03.13.04.18.02.1.03.15.03.16Z" style="stroke-width:0px;fill:#a57f51"/><path d="m69.18,23.7s-.02-.05-.05-.15c-.01-.05-.03-.11-.05-.18-.03-.07-.06-.14-.09-.22-.14-.33-.4-.76-.77-1.16-.37-.41-.75-.73-1.04-.94-.15-.11-.26-.19-.35-.25-.08-.06-.13-.09-.13-.09,0,0,.05.02.14.07.09.05.21.13.36.23.3.21.69.53,1.06.94.37.41.63.85.76,1.19.03.09.06.16.09.23.02.07.03.13.04.18.02.1.03.15.03.16Z" style="stroke-width:0px;fill:#a57f51"/><path d="m71.64,23.98s-.02-.05-.05-.15c-.01-.05-.03-.11-.05-.17-.03-.07-.06-.14-.09-.22-.14-.33-.4-.76-.77-1.16-.37-.41-.75-.73-1.04-.94-.15-.11-.26-.19-.35-.25-.08-.06-.13-.09-.13-.09,0,0,.05.02.14.07.09.05.21.13.36.23.3.21.69.53,1.06.94.37.41.63.85.76,1.19.03.09.06.16.08.23.02.07.03.13.04.18.02.1.03.15.03.16Z" style="stroke-width:0px;fill:#a57f51"/><path d="m73.94,23.7s-.02-.05-.05-.15c-.01-.05-.03-.11-.05-.18-.03-.07-.06-.14-.09-.22-.14-.33-.4-.76-.77-1.16-.37-.41-.75-.73-1.04-.94-.14-.11-.26-.19-.34-.25-.08-.06-.13-.09-.13-.09,0,0,.05.02.14.07.09.05.21.13.36.23.3.21.69.53,1.06.94.37.41.63.85.76,1.19.03.09.06.16.08.23.02.07.03.13.04.18.02.1.03.15.03.16Z" style="stroke-width:0px;fill:#a57f51"/><path d="m75.82,23.7s-.02-.05-.05-.15c-.01-.05-.03-.11-.05-.17-.03-.07-.06-.14-.09-.22-.14-.33-.4-.76-.77-1.16-.37-.41-.75-.73-1.04-.94-.14-.11-.26-.19-.34-.25-.08-.06-.13-.09-.13-.09,0,0,.05.02.14.07.09.05.21.13.36.23.29.21.69.53,1.06.94.37.41.63.85.76,1.19.03.09.06.16.08.23.02.07.03.13.04.18.02.1.03.15.03.16Z" style="stroke-width:0px;fill:#a57f51"/><path d="m78.34,23.58s-.03-.04-.09-.13c-.02-.04-.05-.09-.09-.16-.04-.06-.09-.12-.14-.19-.21-.28-.56-.63-1.01-.93-.45-.3-.89-.51-1.22-.65-.16-.07-.3-.12-.39-.16-.09-.04-.14-.06-.14-.06,0,0,.06,0,.15.03.1.03.23.07.4.14.33.13.78.34,1.24.64.45.31.81.66,1.01.96.05.07.09.14.13.2.03.06.06.12.08.16.04.09.07.14.06.14Z" style="stroke-width:0px;fill:#a57f51"/></g></g></svg>