<?xml version="1.0" encoding="UTF-8"?>
<svg id="Layer_2" data-name="Layer 2" xmlns="http://www.w3.org/2000/svg" viewBox="0 0 80.56 66.18">
  <defs>
    <style>
      .cls-1 {
        fill: #d22027;
      }

      .cls-1, .cls-2, .cls-3, .cls-4, .cls-5, .cls-6, .cls-7, .cls-8, .cls-9, .cls-10, .cls-11 {
        stroke-width: 0px;
      }

      .cls-2 {
        fill: #282e74;
      }

      .cls-3 {
        fill: #2a368d;
      }

      .cls-4 {
        fill: #fff;
      }

      .cls-5 {
        fill: #374a9f;
      }

      .cls-6 {
        fill: #be2026;
      }

      .cls-7 {
        fill: #231f20;
      }

      .cls-8 {
        fill: #e53325;
      }

      .cls-9 {
        fill: #4961ad;
      }

      .cls-10 {
        fill: #ef3c31;
      }

      .cls-11 {
        fill: #252868;
      }
    </style>
  </defs>
  <g id="_100" data-name="100">
    <g>
      <path class="cls-11" d="m14.32,43c-1.04,2.7-.74,2.7-.49,2.88.25.18,3.62,2.21,4.54,2.52.92.31,1.17,1.11.86,1.29s-1.11.06-1.72-.06c-.59-.12-3.58-1.47-3.77-1.55.1.24,2.18,5.37,1.22,5.46-.98.09-.98.24-1.47-1.06-.49-1.31-1.72-3.6-2.29-3.6s-3.6,2.79-4.01,3.11-.98,1.47-1.72,1.55c-.74.08-.9-.73-.33-1.39.57-.66,3.02-3.6,2.61-3.52-.4.08-4.01.74-4.91,1.47-.48.39-1.27.59-1.7.48,0,0,.59-1.11,4-2.06,3.41-.95,4.52-1.29,5.38-3.34.85-2.05,7.93-19.8,7.93-19.8,0,0,.14-1.11-.08-2.32,3.31-3.04,4.42,1.6,3.32,3.36-1.23,1.97-6.32,13.87-7.37,16.57Z"/>
      <path class="cls-5" d="m67.38,42.99s5.34-.8,5.34-2.84-6.14-5.97-12.8-8.19c-6.66-2.22,1.44,11.49,7.46,11.04Z"/>
      <path class="cls-3" d="m18.45,25.38s-7.09,17.75-7.93,19.8c-.86,2.05-1.97,2.39-5.38,3.34-3.41.96-4,2.06-4,2.06-.38-.1-.46-.44.23-1.14,1.47-1.47,6.14-2.21,7.61-4.18,1.47-1.96,8.1-20.75,8.1-20.75.46-.61.89-1.09,1.29-1.45.22,1.22.08,2.32.08,2.32Z"/>
      <path class="cls-1" d="m42.91,38.81c-9.1-.99-21.39-9.25-21.39-9.25l-3.19-1c-3.13-.98-15.34-14.27-15.72-14.68h0C.41,9.53-.43,6,.2,5.36c1.32-1.34,7.91-2.95,7.91-2.95,0,0,1.62-3.08,5.29-2.28,3.68.81,5.57,4.83,5.57,4.83,0,0,23.74,10.5,27.4,12.92,2.89,1.9,14.83,14.36,19.7,19.49,1.62,3.62-14.08,2.44-23.17,1.45Z"/>
      <path class="cls-6" d="m42.35,44.93c-11.85-2.95-17.08-9.03-27.68-16.53-5.56-3.94-9.64-9.72-12.06-14.52.38.42,12.59,13.71,15.72,14.68l3.19,1s12.29,8.26,21.39,9.25c9.09.99,24.79,2.17,23.17-1.45,1.29,1.37,2.09,2.21,2.09,2.21,3.11,5.62-13.97,8.3-25.82,5.36Z"/>
      <path class="cls-7" d="m13.38,10.67s-2.15-.95-4.14,0c-1.99.95-1.1,4.73,2.1,5.48,3.2.76,5.12-1.88,4.86-2.82-.5-1.81-2.82-2.66-2.82-2.66Z"/>
      <path class="cls-10" d="m1.14,6.18s3.39,3.48,6.05,3.99c0,0,3.24-3.45,8.01-1.4,4.78,2.05,3.42,5.44,4.61,6.97s12.29,8.53,16.9,11.95c4.61,3.41,20.43,8.75,24.57,8.87,4.15.13,0-2.56-1.71-4.27-1.71-1.71-13.31-12.8-14.85-13.65-1.54-.85-24.13-11.43-26.48-12.46-2.36-1.02-4.36-1.28-2.19-1.88s-.53-3.33-3.72-3.24c-3.18.09-3.62,1.37-2.43,2.05,1.19.68-9.03.68-8.78,3.07Z"/>
      <path class="cls-4" d="m14.87,12.27c0-.55-.44-.99-.99-.99s-.99.44-.99.99.44.99.99.99.99-.44.99-.99Z"/>
      <path class="cls-4" d="m36.57,16.49s5.69,2.69,6.26,3.15c.57.46,3.41,2.16,2.62,2.16s-2.82-.99-4.37-1.69c-1.55-.7-7.88-5.25-4.51-3.62Z"/>
      <path class="cls-4" d="m46.92,22.26s-.63.37,0,1.01c.63.64,1.49.42,1.31,0-.18-.42-.8-1.52-1.31-1.01Z"/>
      <path class="cls-4" d="m13.16,2.13s2.01.55,2.56.98c.55.43.51-.21,0-.64-.51-.43-1.88-1.07-2.56-1.07s-1.01.42,0,.73Z"/>
      <path class="cls-4" d="m17.06,3.69s-.57-.24-.43.26c.14.5.63.66.63.36s.07-.57-.2-.63Z"/>
      <path class="cls-7" d="m1.8,8.2s.09,1.37.73,1.54c.64.17.9-.21.9-.55s-1.55-1.66-1.63-.98Z"/>
      <path class="cls-2" d="m80.49,47.62s-.6,4.57-1.97,9.38c-1.37,4.82-2.9,6.52-4.44,6.69-1.54.17-8.7,1.19-10.24,2.22-1.54,1.02-.17-1.02,3.24-3.07,0,0-12.29-.68-14.68,0s-1.19-1.19,0-1.19,11.95-1.42,11.95-1.42c0,0-11.26-1.37-11.78-1.77-.51-.4,8.87-.28,14.51,0s5.8.55,7.34-1.46c1.54-2.01,1.54-8.33,2.39-8.67s3.68-.72,3.68-.72Z"/>
      <path class="cls-2" d="m78.35,50.89c-1.88,1.37-6.77,3.7-13.6,7.56-6.83,3.87-9.56.46-11.15-1.45-1.59-1.92-2.96-9.01-2.96-10.92,0-1.8.61-5.99,4.49-7.04-.11.27-.16.41-.16.41,0,0-2.16,3.73,0,11.78,2.16,8.05,3.93,7.92,8.87,5.67,4.33-1.97,14.01-7,16.21-9.73,1.27.71,0,2.5-1.7,3.73Z"/>
      <path class="cls-5" d="m80.05,47.17c-2.19,2.73-11.88,7.77-16.21,9.73-4.95,2.25-6.71,2.38-8.87-5.67-2.16-8.05,0-11.78,0-11.78,0,0,.05-.14.16-.41.24-.07.48-.12.74-.16,4.55-.68,12.3,3.19,12.3,3.19-1.47,4.51-5.02,11.54-5.02,11.54,0,0,4.27-2.56,7.51-4.11,3.24-1.54,6.83-3.06,8.87-2.55.2.05.37.12.51.2Z"/>
      <path class="cls-6" d="m17.55,26.43s.35,1.99.9,4.64c-.93.26-1.5.64-1.5.64-.07-.67-.14-1.34-.21-2.03-.17-1.67.19-2.68.81-3.25Z"/>
      <path class="cls-6" d="m23.08,31.7c-.27-.16-.53-.29-.79-.41.03-1.97.14-3.77.53-4.89v3.14s.12.86.27,2.16Z"/>
      <path class="cls-8" d="m22.82,26.4c-.39,1.12-.5,2.93-.53,4.89-1.49-.63-2.87-.51-3.84-.23-.55-2.65-.9-4.64-.9-4.64,1.68-1.58,5.27-.03,5.27-.03Z"/>
      <path class="cls-9" d="m22.29,31.3c-.04,2.67.06,5.62-.2,7.52-.46,3.28-.91,3.55-2.2-1.46-.55-2.11-1.04-4.37-1.44-6.29.98-.27,2.36-.4,3.84.23Z"/>
      <path class="cls-5" d="m23.45,41.21s-1.67,2.43-2.27,2.43-8.7,11.18-9.71,11.44c-1.01.25-3.86.51-7.19,1.82-3.32,1.31,2.56-1.57,3.9-2.25,1.34-.68.97-1.11-.57-1.06-1.53.05-6.28.31-6.28.31-.2-.11-.26-.29-.12-.57.61-1.22,4.96-.87,6.55-1.01h0s2.01.18,2.51-.12c1.66-.47,7.81-10.42,7.81-10.42,0,0-.56-4.68-1.13-10.08,0,0,.57-.38,1.5-.64.4,1.92.89,4.18,1.44,6.29,1.29,5.01,1.75,4.74,2.2,1.46.26-1.89.16-4.85.2-7.52.26.12.53.25.79.41.28,2.54.65,6.74.37,9.5Z"/>
      <path class="cls-2" d="m22.82,43.56c-1.66,2.31-8.29,10.96-8.29,10.96,0,0,4.08,2.72,3.37,2.72s-4.08-1.06-5.93-1.06-4.9.89-5.43,1.06c-.53.18-4.98,1.77-4.62,1.02.35-.74,5.51-3.74,5.51-3.74-2.13-.75-5.28-.15-6.1-.61,0,0,4.75-.26,6.28-.31,1.54-.05,1.92.38.57,1.06-1.34.68-7.22,3.56-3.9,2.25,3.32-1.32,6.18-1.57,7.19-1.82,1-.26,9.11-11.44,9.71-11.44s2.27-2.43,2.27-2.43c-.1,1.05-.3,1.89-.63,2.36Z"/>
      <path class="cls-9" d="m63.07,41.2s-5.71-2.35-6.39,1.79c-.68,4.14-.09,10.56,3.2,10.6,3.29.03,9.08-10,3.2-12.39Z"/>
    </g>
  </g>
</svg>