<?xml version="1.0" encoding="UTF-8"?><svg data-name="Layer 2" xmlns="http://www.w3.org/2000/svg" viewBox="0 0 118.05 55.6"><defs/><g data-name="100"><g><path d="m47.62,32.99c-1.05,6.4-5.33,10.71-8.51,15.68-3.19,4.97-6.11,3.95-11.95,3.95-1.48,0-2.31-.17-2.68-.48,1.91-1.2,4.53-2.99,6.16-4.74,2.81-3.02,9.12-16.71,9.12-16.71,0,0,2.45-2.63,3.91-6.32,2.6.37,4.62,4.52,3.95,8.62Z" style="stroke-width:0px;fill:#a8aaad"/><path d="m91.86,49.55c-1.44,3.15-7.48,2.6-12.37,2.6-2.32,0-2.7-.64-2.33-1.57,1.91-1.38,3.87-3.03,4.64-4.49,1.73-3.24,4.32-18.34,4.32-18.34,0,0-.05-.87-.34-2.01,4.21-4.12,11.6,2.97,11.84,8.7.29,7.04-4.32,11.95-5.75,15.1Z" style="stroke-width:0px;fill:#a8aaad"/><path d="m43.67,24.37c-1.46,3.69-3.91,6.32-3.91,6.32,0,0-6.32,13.68-9.12,16.71-1.63,1.75-4.25,3.55-6.16,4.74-1.08-.92,1.89-3.09,4.27-5.73,3.19-3.54,10.35-18.38,10.35-18.38,1.46-2.87,3.1-3.86,4.56-3.65Z" style="stroke-width:0px;fill:#e6e7e7"/><path d="m86.11,27.76s-2.59,15.1-4.32,18.34c-.78,1.45-2.73,3.11-4.64,4.49.4-1.03,1.73-2.39,2.33-3.6,1.15-2.3,4.03-16.5,4.03-16.5.5-2.26,1.3-3.79,2.26-4.73.28,1.13.34,2.01.34,2.01Z" style="stroke-width:0px;fill:#e6e7e7"/><path d="m107.78,25.75c-.24.92-.55,1.83-.93,2.71-3.98-1.91-8.87-2.48-10.56-.71-3.92,4.09-17.66,5.99-25.46,1.78-7.79-4.2-18.1-3.89-18.1-3.89,0,0-7.63-3.78-12.66-1.42-5.03,2.36-13.81-3.15-15.81-4.84-2-1.69,2-4.93-3.18-2.34-3.53,1.76-12.94,2.46-18.57,2.72-1.34-.73-2.07-1.71-2.14-3.01,0-.08-.01-.15-.02-.22,3.75-2.92,11.65-8.91,15.85-10.82,5.62-2.55,11.22.31,13.6,1.45,2.37,1.14,10.3-.58,13.89-1.45,3.59-.86,8.77-1.94,14.16,0,5.4,1.94,7.55-1.94,14.24-2.59,0,0,13.96-3.09,25.54,6.55,11.58,9.64,9.16,12.55,10.15,16.06Z" style="stroke-width:0px;fill:#e6e7e7"/><path d="m106.85,28.47c-2.73,6.31-9.16,11.34-18.73,10.95-16.11-.66-20.14-5.38-29.35-5.74-9.21-.36-19.2-2.45-19.2-2.45-.99-.53-1.8-1.13-2.45-1.78h0c-7.63-2.53-13.56-6.91-15.53-7.85-.66.02-1.31.06-1.97.07-8.29.12-14.16-.28-17.11-1.89,5.64-.26,15.04-.95,18.57-2.72,5.18-2.59,1.18.65,3.18,2.34,2,1.69,10.78,7.2,15.81,4.84,5.03-2.36,12.66,1.42,12.66,1.42,0,0,10.31-.31,18.1,3.89,7.79,4.2,21.54,2.3,25.46-1.78,1.7-1.77,6.58-1.21,10.56.71Z" style="stroke-width:0px;fill:#a8aaad"/><path d="m8.65,12.02s2.17-2.59,3.74-.67c0,0,.18,1.68-3.74.67Z" style="fill:#010101;stroke-width:0px"/><path d="m9.66,11.35c0-.21.17-.38.38-.38s.38.17.38.38-.17.38-.38.38-.38-.17-.38-.38Z" style="stroke-width:0px;fill:#fff"/><path d="m23.38,9.1c-.19-.45-.45-1.13-.94-1.98h0s.75-2.4,2.23-2.12c.01,0,.02,0,.03,0,.04.06.07.13.1.21h0c.31,2.06-1.38,3.83-1.42,3.88Z" style="stroke-width:0px;fill:#e6e7e7"/><path d="m107.78,25.75c-.99-3.51,1.43-6.42-10.15-16.06C86.04.05,72.08,3.15,72.08,3.15c-6.69.65-8.85,4.53-14.24,2.59-5.4-1.94-10.58-.86-14.16,0-3.59.86-11.52,2.59-13.89,1.45-2.37-1.14-7.98-4-13.6-1.45C11.99,7.64,4.08,13.63.34,16.55c-.18-1.64-.99-.83,9.88-10.14,5.73-4.91,15.97-2.78,15.97-2.78,1.05.21,1.98.46,2.81.76,9.35.52,14.77-2.2,14.77-2.2.74-.3,1.46-.51,2.13-.63,8.63-1.44,14.18,1.52,27.13-1.03,12.95-2.55,29.78,4.14,34.1,14.5,1.39,3.34,1.59,7.13.67,10.71Z" style="stroke-width:0px;fill:#fff"/><path d="m24.25,9.43c-.47.46-.61.3-.87-.33h0s1.74-1.82,1.42-3.88c.44,1.1.14,3.53-.55,4.21Z" style="stroke-width:0px;fill:#bdbec0"/><path d="m24.7,5.01s-.02,0-.03,0c-1.47-.29-2.23,2.12-2.23,2.12h0c-.11-.19-.23-.38-.36-.59,0,0,1.04-1.99,2.17-1.85.18.02.33.14.45.33Z" style="stroke-width:0px;fill:#fff"/><path d="m.25,14.75s-.81,3.09.51,3.42c1.32.32,2.84-5.86-.51-3.42Z" style="fill:#010101;stroke-width:0px"/><path d="m1.33,14.57s-1.01.25-.99,1.22c.02.97,1.29.39,1.39,0,.1-.39.28-1.14-.4-1.22Z" style="stroke-width:0px;fill:#231f20"/><path d="m60.2,46.92c-1.02,5.1-2.26,7.97-5.53,8.56h0c-5.97-1.18-4.61-3.35-3.96-5.07.65-1.73-2.16-9.06-6.04-15.54-3.89-6.47-4.78-12.46-4.78-12.46,3.04-2.11,9.73.42,12.83,3.24,4.03,3.66,8.63,15.51,7.48,21.27Z" style="stroke-width:0px;fill:#e6e7e7"/><path d="m118.04,48.39c-.03.39-.08.8-.16,1.2h0c-3.62,4.58-5.44,4.49-7.73,3.2-2.29-1.29-2.03-4.33-9.58-11.23s-9.47-14.97-9.47-14.97c1.79-5.45,6.8-7.43,11.98-7.18,6.62.32,7.77,14.65,9.5,19.38,1.73,4.73,5.75,6.3,5.47,9.6Z" style="stroke-width:0px;fill:#e6e7e7"/><path d="m54.67,55.49c-.42.08-.88.12-1.37.12-4.32,0-9.21-.79-6.62-2.96,2.59-2.17.58-6.5-2.88-12.41-3.45-5.91-5.47-14.58-5.47-14.58.07-1.57.65-2.61,1.56-3.24,0,0,.89,5.99,4.78,12.46,3.88,6.48,6.69,13.81,6.04,15.54-.65,1.73-2.01,3.89,3.96,5.07Z" style="stroke-width:0px;fill:#bdbec0"/><path d="m117.88,49.59c-.52,2.98-2.12,6.01-6.18,6.01-4.6,0-6.91-.79-5.75-2.73,1.15-1.94-4.03-4.36-7.77-9.09-3.74-4.73-7.77-11.84-7.77-11.84-.06-2.07.19-3.85.68-5.35,0,0,1.92,8.06,9.47,14.97s7.3,9.95,9.58,11.23c2.29,1.29,4.11,1.38,7.73-3.2h0Z" style="stroke-width:0px;fill:#bdbec0"/><path d="m46.5,23.98s-3.46,1.42-1.73,5.95c1.73,4.53,9.44,6.26,9.52,3.45.08-2.81-4.22-10.83-7.79-9.41Z" style="stroke-width:0px;fill:#fff"/><path d="m102.28,21.62s-6.06.05-6,4.13c.06,4.08,4.44,7.43,7.86,7.53,3.42.11,4.39-12.43-1.86-11.66Z" style="stroke-width:0px;fill:#fff"/></g></g></svg>