<?xml version="1.0" encoding="UTF-8"?><svg data-name="Layer 2" xmlns="http://www.w3.org/2000/svg" viewBox="0 0 576.53 531.52"><defs/><g><g><polygon points="257.4 339.87 242.04 371.77 236.63 367.1 249.32 339.87 257.4 339.87" style="stroke-width:0px;fill:#626d2f"/><path d="m418.21,272.49c4.24,8.11,6.48,14.44,7.17,19.37,2.92-.11,3.9-5.48,2-15.67-3.8-20.48-27.95-85.97-34.9-94.66-6.95-8.69-18.22-7.04-18.22-7.04.05,3.38,2.68,12.74,6.62,24.6,20.03,42.27,37.33,73.4,37.33,73.4Z" style="stroke-width:0px;fill:#626d2f"/><path d="m411.6,275.75c5.93,10.99,10.84,16.22,13.78,16.11-.7-4.94-2.93-11.26-7.17-19.37,0,0-17.3-31.13-37.33-73.4,8.37,25.21,22.68,61.78,30.72,76.67Z" style="stroke-width:0px;fill:#626d2f"/><path d="m421.55,291.37c4.75-1.72,14.1-103.08,18.53-108.04,4.42-4.97,6.22-6.88,7.45,1,1.1,6.99,11.08,69.24,13.31,83.17.24-1.02.51-2.28.84-3.78,2.37-10.7,6.34-50.72-1.4-77.01-7.51-25.48-22.57-27.31-32.63-4.85-10.06,22.46-12.09,96.36-12.09,96.36,0,0,1.18,10.29,5.99,13.15Z" style="stroke-width:0px;fill:#626d2f"/><path d="m421.55,291.37c1.08.65,2.35.91,3.82.6,8.04-1.71,19.04-103.68,19.04-103.68,0,0,8.27,57.49,11.86,71.17,3.06,11.7,3.18,14.05,4.58,8.03-2.24-13.93-12.22-76.18-13.31-83.17-1.24-7.88-3.03-5.97-7.45-1-4.42,4.96-13.78,106.32-18.53,108.04Z" style="stroke-width:0px;fill:#626d2f"/><path d="m301.78,311.9l12.18,62.21s47.15-23.83,52.63-25.81c5.48-1.98,27.46,115.87,29.62,121.86s14.4,11.24,25.96,6.09,9.09,1.21-2.48,5.4c-11.57,4.19-27.65-2.25-29.62-6.71s-23.72-112.15-25.95-118.36c-2.24-6.2-50.3,24.65-54.98,25.05-4.67.4-1.17-27.97-11.89-55.7-10.72-27.74,4.52-14.03,4.52-14.03Z" style="stroke-width:0px;fill:#626d2f"/><polygon points="260.87 332.07 245.51 373.29 240.09 367.25 252.79 332.07 260.87 332.07" style="stroke-width:0px;fill:#718236"/><path d="m239.7,361.67s-43.97-28.6-52.97-29.59c-9-.99-124.57,157.81-139.64,163.73-15.07,5.92-28.61,7.87-39.78,8.53-11.17.66-8.19,3.73,0,3.73s37.22-1.75,46.16-8.33c8.93-6.58,128.81-153.43,133.27-157.82,4.46-4.38,45.65,24.55,52.97,28.06,7.32,3.51,11.93-.73,0-8.31Z" style="stroke-width:0px;fill:#626d2f"/><path d="m305.56,280.42l-11.18,76.96s60.37-7.83,67.08-7.83-15.65,145.34-15.65,153.17,11.18,19.01,25.71,17.89c14.53-1.12,9.36,5.2-4.8,5.2s-29.05-14.16-29.43-20.12c-.38-5.96,18.24-139.48,18.25-147.58,0-8.1-64.1,7.45-69.32,5.96-5.22-1.49,9.69-32.8,8.94-69.32s10.39-14.32,10.39-14.32Z" style="stroke-width:0px;fill:#718236"/><path d="m310.73,268.09s10.15,7.94,30.8-25.52c20.64-33.45,31.09-59.25,31.09-59.25,0,0,3.52-7.04,7.04-7.04s12.02-8.8,8.89-22.58c-3.13-13.78-6.96-20.11-6.96-20.11-1.79,1.86-3.36,3.95-4.57,6.21-9.12,16.98-55.73,100.72-66.28,128.29Z" style="stroke-width:0px;fill:#abd037"/><path d="m317.18,286.86c10.56-5.28,60.42-88.57,73.32-107.93,12.9-19.36,16.62-31.97,16.62-31.97,7.29-27.73-13.85-25.51-25.54-13.36,0,0,3.83,6.32,6.96,20.11,3.13,13.78-5.37,22.58-8.89,22.58s-7.04,7.04-7.04,7.04c0,0-10.45,25.79-31.09,59.25-20.64,33.45-30.8,25.52-30.8,25.52-10.56,27.57-4.11,24.05,6.45,18.77Z" style="stroke-width:0px;fill:#718236"/><path d="m380.24,146.95s-49.27,97.17-54.85,103.87-9.97,10.52-2.35-3.56c7.63-14.08,66.58-134.04,57.19-100.31Z" style="stroke-width:0px;fill:#fff"/><path d="m22.27,384.55c8.9,11.59,183.55-24.27,224.13-41.34,51.08-21.48,68.85-54.86,68.85-54.86,5.6-7.86,5.06-12.23-.3-13.82,0,0-2.1,18.62-62.77,52.89-60.66,34.26-229.91,57.12-229.91,57.12Z" style="stroke-width:0px;fill:#718236"/><path d="m22.26,384.55h0s169.25-22.86,229.91-57.12c60.66-34.27,62.77-52.89,62.77-52.89-25.53-7.56-160.52,48.19-261.21,90.38-25.02,10.48-33.78,16.64-31.48,19.64Z" style="stroke-width:0px;fill:#abd037"/><path d="m297.07,281.92s-63.95,33.22-121.22,48.74c-57.28,15.52-150.39,50.98-112.42,34.65,37.97-16.33,180.7-77.11,209.42-82.51s31.29-7.68,24.23-.88Z" style="stroke-width:0px;fill:#fff"/><path d="m432.36,108.21s33.06-41.42,60.34-51.68c27.28-10.26,89.45-7.87,83.42-10.56-6.03-2.69-55.33-1.93-85.43,7.31s-71.96,62.08-58.33,54.93Z" style="fill:#8aa53d;stroke-width:0px"/><path d="m385.91,117.76c3.74,15.3,27.16,23.29,26.29,14.48-.88-8.85,9.68-14.71,9.68-14.71l-1.8-8.71v-5.57l2.15,4.28,2.59,8.05s2.93,0,10.85,1.95c7.92,1.96,9.97,13,10.27,20.92.29,7.92,2.05,10.56,12.9,10.85,6.9.19,10.72-1.65,12.59-3,.15-1.66-.02-3.55-.56-5.7-3.91-15.64-17.6-26.98-27.76-35.98-10.17-8.99-31.68-6.65-31.68-6.65-18.6,2.46-24.87,11.09-25.51,19.78Z" style="stroke-width:0px;fill:#abd037"/><path d="m391.09,134.74c7.04,9.39,26.98,19.55,47.71,21.5,17.88,1.69,31.69.46,32.63-9.94-1.87,1.35-5.68,3.19-12.59,3-10.85-.29-12.61-2.93-12.9-10.85-.29-7.92-2.35-18.96-10.27-20.92-7.92-1.95-10.85-1.95-10.85-1.95l-2.59-8.05-2.15-4.28v5.57l1.8,8.71s-10.56,5.87-9.68,14.71c.87,8.81-22.55.82-26.29-14.48-.48,6.47,2.17,12.98,5.17,16.98Z" style="stroke-width:0px;fill:#718236"/><path d="m436.06,101.5s16.03,11.34,21.31,18.38c5.28,7.04,8.99,16.62,2.74,10.56-6.26-6.06-18.98-17.75-27.75-22.22-8.77-4.48-26.41-3.3-32.47.66-6.06,3.96-11.54,9.44-11.34,6.51.2-2.93,4.69-12.83,16.62-15.25,11.93-2.42,27.89-.82,30.89,1.37Z" style="stroke-width:0px;fill:#fff"/><circle cx="429.17" cy="132.24" r="14.71" style="stroke-width:0px;fill:#f1f2f2"/><path d="m427.07,133.54c0,3.46,2.8,6.26,6.26,6.26s6.26-2.8,6.26-6.26-2.8-6.26-6.26-6.26-6.26,2.8-6.26,6.26Z" style="stroke-width:0px;fill:#231f20"/><circle cx="429.71" cy="126.82" r="3.62" style="stroke-width:0px;fill:#fff"/><path d="m422.23,107.53s16.96-50.21,39.11-69.15C483.49,19.43,542.75.48,536.16,0c-6.58-.47-52.68,17.05-77.82,36s-46.49,82.89-36.12,71.52Z" style="stroke-width:0px;fill:#abd037"/><path d="m381.41,281.38c1.17,9.08,1.09,15.79.03,20.66,2.78.91,5.55-3.79,7.3-14.01,3.52-20.53,3.52-90.33,0-100.89s-14.66-12.9-14.66-12.9c-1.13,3.19-1.89,12.88-2.3,25.37,4.17,46.59,9.63,81.78,9.63,81.78Z" style="stroke-width:0px;fill:#abd037"/><path d="m374.08,282.16c1.77,12.37,4.56,18.97,7.36,19.88,1.06-4.87,1.14-11.58-.03-20.66,0,0-5.46-35.2-9.63-81.78-.86,26.55-.09,65.81,2.3,82.56Z" style="stroke-width:0px;fill:#718236"/><path d="m378.01,300.26c5.05.03,48.89-91.84,54.76-94.96,5.87-3.13,8.21-4.31,6.65,3.52-1.39,6.94-13.56,68.8-16.28,82.64.57-.87,1.27-1.97,2.1-3.26,5.92-9.22,23.5-45.4,25.32-72.74,1.77-26.5-11.73-33.44-28.94-15.84-17.21,17.6-44.68,86.23-44.68,86.23,0,0-2.46,10.07,1.07,14.41Z" style="stroke-width:0px;fill:#abd037"/><path d="m378.01,300.26c.79.98,1.89,1.67,3.38,1.88,8.13,1.18,53.73-90.69,53.73-90.69,0,0-12.12,56.81-13.49,70.88-1.17,12.04-1.88,14.28,1.51,9.12,2.72-13.84,14.89-75.7,16.28-82.64,1.57-7.83-.78-6.65-6.65-3.52-5.87,3.13-49.71,94.99-54.76,94.96Z" style="stroke-width:0px;fill:#718236"/><path d="m240.19,363.1s-34.09-32.91-41.07-34.04c-6.98-1.13-96.57,181.55-108.26,188.36-11.69,6.81-22.18,9.06-30.84,9.81s-6.35,4.29,0,4.29,28.86-2.02,35.78-9.58c6.93-7.57,99.86-176.52,103.32-181.56,3.45-5.04,35.39,28.24,41.07,32.28,5.67,4.03,9.25-.84,0-9.55Z" style="stroke-width:0px;fill:#abd037"/></g></g></svg>