<?xml version="1.0" encoding="UTF-8"?>
<svg id="Layer_2" data-name="Layer 2" xmlns="http://www.w3.org/2000/svg" viewBox="0 0 102.29 49.46">
  <defs>
    <style>
      .cls-1 {
        fill: #818285;
      }

      .cls-1, .cls-2, .cls-3, .cls-4, .cls-5, .cls-6, .cls-7, .cls-8, .cls-9, .cls-10, .cls-11 {
        stroke-width: 0px;
      }

      .cls-2 {
        fill: #56190f;
      }

      .cls-3 {
        fill: #010101;
      }

      .cls-4 {
        fill: #0d0e0e;
      }

      .cls-5 {
        fill: #801c19;
      }

      .cls-6 {
        fill: #8d2c1d;
      }

      .cls-7 {
        fill: #fff;
      }

      .cls-8 {
        fill: #231f20;
      }

      .cls-9 {
        fill: #ab3c2d;
      }

      .cls-10 {
        fill: #a8aaad;
      }

      .cls-11 {
        fill: #f2f2f2;
      }
    </style>
  </defs>
  <g id="_100" data-name="100">
    <g>
      <path class="cls-6" d="m99.43,13.77c-.27.16-.57.3-.91.41-1.12.38-2.12.84-2.99,1.35-1.21.7-2.18,1.5-2.91,2.26,0-.14,0-.28,0-.42,0-.09,0-.18-.01-.27,0-.17-.01-.34-.03-.51,0-.08-.01-.15-.03-.23,0-.08-.02-.16-.03-.24-.36-2.46-1.89-6.19-3.78-6.65-.05-.01-.09-.02-.14-.03-.14-.02-.27,0-.39.03-.03,0-.05.01-.08.03-.3.11-.54.38-.73.73-.03.07-.07.13-.1.21-.03.07-.06.14-.09.22-.03.08-.05.16-.07.23-.13.45-.19.96-.19,1.48,0,.11,0,.23.01.34h0c-.79.8-1.6,2.25-2.3,3.4-1.44,2.38-6.48,4.82-12.84,6.69s-10.44,6.9-17.04,12.9c-6.6,6-10.35,2.53-10.35,2.53-.04-.94.09-1.98.36-3.1.35.75.99,1.57,2.07,1.34,1.92-.41,6.12-3.29,9-7.49,2.88-4.2,12.48-10.39,18-13.24,5.52-2.85,6.09-7.53,12.26-8.7,6.17-1.17,7.3-1.35,9.78-.99.29.04.59.12.89.21.22.72.23,1.43.11,2.1h0c1.45.15,1.97,1.92,1.98,3.59,0,.77.27,1.38.55,1.81Z"/>
      <path class="cls-7" d="m86.33,2.05s-3.17-2.83-6.24-1.84-2.25,4.1,0,4.84c2.25.74,8.24-1.06,6.24-3Z"/>
      <path class="cls-7" d="m98.52,14.18c-1.12.38-2.12.84-2.99,1.35-.33-.19-.57-.53-.67-1.03-.28-1.54,1.32-3.41,1.9-5.54.22.14.49.31.8.51,0,0,.72.73.72,2.44,0,.8.07,1.6.24,2.26Z"/>
      <path class="cls-7" d="m92.62,17.79h0c-.29.3-.53.59-.73.87-.27.36-.68.87-1.18,1.44-.22-.43-.46-.88-.71-1.34-.11-.2-.22-.4-.33-.59-.09-.16-.18-.32-.27-.47-.12-.2-.23-.4-.35-.58-.06-.1-.12-.21-.19-.31-.05-.08-.1-.16-.14-.23-.03-.05-.06-.1-.1-.15-.05-.09-.11-.17-.17-.25-.22-.33-.43-.61-.62-.84-.04-.04-.08-.09-.11-.14-.06-.08-.12-.17-.17-.25-.04-.07-.08-.14-.12-.22-.03-.06-.05-.12-.08-.17-.03-.06-.05-.12-.07-.18-.07-.18-.13-.37-.18-.57-.03-.11-.05-.23-.07-.35-.04-.24-.07-.49-.08-.73h0c0-.12-.01-.23-.01-.35,0-.53.06-1.04.19-1.48.02-.08.05-.16.07-.23.03-.08.06-.15.09-.22.03-.07.06-.14.1-.21.19-.36.44-.62.73-.73.03-.01.05-.02.08-.03.12-.04.26-.05.39-.03.04,0,.09.01.14.03,1.89.46,3.42,4.2,3.78,6.65.01.08.02.15.03.24.01.08.02.15.03.23.01.17.03.34.03.51,0,.09.01.18.01.27,0,.14,0,.28,0,.42Z"/>
      <path class="cls-7" d="m102.07,9.44c-.01.17-.28,2.97-2.64,4.33-.28-.43-.55-1.04-.55-1.81-.01-1.67-.53-3.44-1.98-3.59h0c.12-.67.11-1.38-.11-2.1,1.8.59,3.63,2,4.8,2.2.21.28.37.6.49.97Z"/>
      <circle class="cls-11" cx="96.55" cy="8.6" r="1.55"/>
      <path class="cls-3" d="m98,8.38c0-.58-.47-1.05-1.05-1.05s-1.05.47-1.05,1.05.47,1.05,1.05,1.05,1.05-.47,1.05-1.05Z"/>
      <path class="cls-7" d="m97.54,7.65c0-.16-.13-.3-.3-.3s-.3.13-.3.3.13.3.3.3.3-.13.3-.3Z"/>
      <path class="cls-4" d="m90.7,20.1c-1.63,1.86-4.15,4.4-5.24,4.68-1.41.36-4.17.47-6.45,3.6-2.28,3.13-8.35,1.56-8.35,1.56,0,0-7.73,2.04-8.33,3.84-.6,1.8-4.84,11.7-17.49,6.51-.26-.6-.4-1.29-.43-2.06,0,0,3.75,3.47,10.35-2.53,6.6-6,10.68-11.03,17.04-12.9s11.4-4.31,12.84-6.69c.7-1.16,1.51-2.6,2.3-3.4.01.24.04.49.08.73.02.12.04.23.07.35.05.2.1.39.18.57.02.06.05.12.07.18.03.06.05.12.08.17.04.07.08.14.12.22.05.09.11.17.17.25.04.05.07.09.11.14.19.23.4.51.62.84.05.08.11.17.17.25.04.05.07.1.1.15.05.08.1.15.14.23.06.1.13.2.19.31.12.19.23.39.35.58.09.15.18.31.27.47.11.2.22.4.33.59.25.45.49.91.71,1.34Z"/>
      <path class="cls-10" d="m101.32,13.84s0,0,0,0c-.37.24-.78.48-1.2.71,0,0-.36-.27-.69-.78,2.37-1.35,2.63-4.16,2.64-4.33.11.33.18.71.21,1.15.07,1.04-.29,2.15-.96,3.25Z"/>
      <path class="cls-2" d="m101.32,13.84c-1.18,1.95-3.35,3.87-5.88,5.31-1.03.58-1.8,1.32-2.42,2.14-.08-.13-.14-.28-.19-.44-.02-.07-.04-.14-.06-.21-.09-.37-.13-.79-.14-1.24,0-.12,0-.23,0-.34,0-.41,0-.83,0-1.26h0c.72-.77,1.69-1.57,2.91-2.27.77.45,2.06.17,3.37-.39-.16-.26-.29-.59-.38-.96.33-.11.63-.25.91-.41.33.51.69.78.69.78.42-.23.83-.47,1.2-.71Z"/>
      <path class="cls-10" d="m98.9,15.14c-1.31.56-2.6.84-3.37.39.87-.51,1.87-.97,2.99-1.35.09.37.22.7.38.96Z"/>
      <path class="cls-10" d="m93.02,21.29c-.37.48-.68.99-.97,1.52,0,0-.09-.18-.23-.49-.02-.04-.04-.09-.06-.13-.19-.39-.46-.93-.77-1.55-.04-.09-.09-.17-.13-.26-.05-.09-.09-.18-.14-.27.5-.57.91-1.08,1.18-1.44.21-.28.45-.57.73-.87,0,.43,0,.85,0,1.26,0,.12,0,.23,0,.34.01.45.05.87.14,1.24.01.08.04.14.06.21.05.16.11.31.19.44Z"/>
      <path class="cls-3" d="m92.05,22.81c-1.14,2.09-1.85,4.48-3.45,6.51-2.7,3.42-8.64,6.84-14.04,10.98-5.4,4.14-27.19,5.76-29.71,0,12.64,5.19,16.88-4.71,17.49-6.51.6-1.8,8.33-3.84,8.33-3.84,0,0,6.07,1.56,8.35-1.56,2.28-3.13,5.04-3.24,6.45-3.6,1.08-.28,3.6-2.82,5.24-4.68.05.09.09.18.14.27.04.09.09.17.13.26.31.62.58,1.16.77,1.55.02.05.04.09.06.13.15.31.23.49.23.49Z"/>
      <path class="cls-9" d="m96.78,6.27c-.3-.1-.59-.17-.89-.21-2.48-.36-3.61-.18-9.78.99-6.17,1.17-6.74,5.85-12.26,8.7-5.52,2.85-15.12,9.03-18,13.24-2.88,4.2-7.08,7.08-9,7.49-1.09.23-1.73-.58-2.07-1.34,1.29-5.33,5.82-12.13,11.02-15.41h0c3.69-2.99,13.18-4.27,16.77-8.42,2.22-2.56,4.29-4.53,5.56-5.66.36-.36.74-.68,1.13-.98.08-.06.12-.1.12-.1,0,0,0,0,0,0,5.16-3.83,12.2-2.72,16.01-1.06.18.48.47,1,.81,1.53.27.41.45.82.57,1.22Z"/>
      <path class="cls-7" d="m101.58,8.47c-1.16-.2-3-1.61-4.8-2.2-.12-.4-.31-.81-.57-1.22-.34-.53-.63-1.06-.81-1.53,1.11.49,1.95,1.02,2.38,1.49,1.48,1.6,2.96,2.28,3.8,3.46Z"/>
      <path class="cls-7" d="m92.9,8.61c-.22.65-.61,1.1-1.1,1.44,0,0,1.39-3.27-1.74-3.61-3.13-.35-3.51,3.54-2.96,6.08-1.04.44-1.51-.33-1.62-2.79-.14-3.08,2.24-5.04,5.18-4.62,2.94.42,2.24,3.5,2.24,3.5Z"/>
      <path class="cls-1" d="m91.8,10.05h0c-1.09.78-2.65,1.05-3.8,1.92-.34.25-.64.44-.9.55-.55-2.53-.16-6.43,2.96-6.08,3.13.35,1.74,3.61,1.74,3.61Z"/>
      <path class="cls-3" d="m101.66,7.77s-.33-.29-.8.06c-.47.35.83,1.18,1.03,2.16.2.98.88-1.9-.24-2.21Z"/>
      <path class="cls-6" d="m8.89,45.15c-1.88.46-3.34,1.03-4.17,1.71-1.04.85-2.24,1.7-3.33,2.48-2.71-.78-1.41-5.28,3.33-9.34,3.4.56,4.11,3.02,4.17,5.15Z"/>
      <path class="cls-6" d="m13.65,44.29h0c-.01-.14-.03-.28-.05-.41-.01-.06-.02-.11-.03-.17-.02-.1-.04-.21-.06-.31-.01-.04-.02-.08-.03-.12-.03-.15-.07-.3-.11-.44-.04-.15-.08-.3-.13-.44-.1-.34-.23-.67-.36-.99-.06-.15-.14-.31-.21-.46-.05-.1-.09-.2-.14-.29-.01-.02-.02-.04-.03-.06-.03-.06-.06-.12-.1-.18-.09-.16-.18-.32-.27-.47-.05-.08-.09-.16-.14-.23-.53-.82-1.16-1.49-1.82-1.91-.09-.05-.17-.11-.24-.16,1.63-.43,3.45-.72,5.36-.93.1.1.21.22.31.34.05.05.09.11.13.17.03.04.06.09.09.13.04.05.07.1.1.16.03.05.06.09.09.14.04.07.09.15.13.23.08.15.17.31.24.48.14.3.27.61.38.93.03.08.06.16.09.24.03.08.05.16.08.24.03.08.05.17.08.25.03.08.05.17.07.25.09.34.18.67.25,1.01.07.34.13.67.19.99.02.14.04.27.06.41.01.1.03.2.04.3.02.15.04.3.05.45.01.14.03.29.03.42-1.4.12-2.75.26-4.04.43Z"/>
      <path class="cls-6" d="m22.73,43.56h0c0-.14,0-.28,0-.41,0-.18-.02-.36-.04-.53h0c-.02-.18-.04-.36-.08-.54-.05-.27-.1-.53-.17-.79-.04-.15-.08-.31-.13-.46-.23-.76-.54-1.46-.86-2.04-.06-.11-.13-.23-.19-.33-.1-.16-.19-.31-.29-.44-.06-.09-.13-.17-.19-.25-.06-.08-.12-.15-.18-.21-.06-.07-.12-.12-.17-.17-.42-.36-.81-.71-1.03-1,1.13-.05,2.27-.08,3.39-.1.15.07.3.15.43.23.05.03.1.06.14.09.05.03.1.07.15.11.06.04.11.08.16.13.36.3.67.66.93,1.06.05.07.09.14.13.21.05.08.09.15.13.23.04.08.08.15.12.23.04.07.07.14.11.22.08.17.15.34.22.52.06.16.12.32.18.49,0,0,0,.01,0,.01.06.17.11.33.15.5,0,.02.01.05.02.07.04.15.08.29.11.44.01.05.03.1.04.15.03.14.06.28.09.42.04.18.06.36.09.53.05.35.1.7.13,1.04.01.17.03.33.04.5-1.13.01-2.28.04-3.44.09Z"/>
      <path class="cls-6" d="m35.56,43.75c-1.4-.11-2.98-.19-4.68-.24-.01-.1-.02-.21-.04-.32-.01-.08-.02-.15-.04-.23-.01-.09-.03-.18-.05-.28-.02-.09-.04-.18-.06-.28-.04-.19-.09-.37-.14-.56-.03-.09-.05-.19-.08-.28-.14-.47-.3-.94-.47-1.4-.03-.09-.07-.18-.1-.27-.23-.58-.48-1.13-.74-1.64-.06-.12-.12-.23-.18-.34-.02-.03-.03-.06-.05-.09-.03-.06-.06-.12-.1-.18-.2-.37-.4-.7-.59-.99-.03-.05-.06-.1-.1-.15-.04-.06-.08-.12-.12-.17,1.15.03,2.24.06,3.24.1.92.52,1.84,1.25,2.56,2.21.19.26.37.52.52.79.05.09.1.18.15.26.05.09.1.19.14.28.05.09.09.19.13.28.04.09.08.19.12.28.18.45.32.9.42,1.35.02.09.04.18.06.27.03.14.05.28.08.42.01.08.02.15.03.23.02.14.04.28.05.41,0,.08.01.16.02.24.01.1.01.2.02.3Z"/>
      <path class="cls-6" d="m39.49,43.83c.24-2.02-1.03-4.24-2.24-5.2-.75-.59-1.66-1.44-1.87-2.07.26,0,.49.01.7.01,1.3,0,2.46-.12,3.46-.3.19.07.38.15.56.24.06.03.12.06.18.09.45.23.85.5,1.22.81.06.05.12.1.17.15.07.06.14.12.2.18.01.01.03.03.05.05.05.04.1.1.15.15.13.13.26.27.38.41.05.06.11.13.16.19.04.05.08.1.12.15.07.09.14.17.2.26.01.01.02.03.03.04.1.13.19.27.28.41.09.13.18.27.26.4.05.07.09.15.13.22.26.44.48.89.68,1.33.11.23.21.46.3.69.08.19.15.38.22.57-1.43.58-3.2,1.07-5.35,1.22Z"/>
      <path class="cls-6" d="m49.34,39.64h0c-.04.05-.4.46-1.09,1.01,0-.05-.01-.11-.02-.17,0-.08-.02-.16-.03-.24-.03-.19-.07-.39-.13-.59-.01-.07-.03-.13-.05-.19-.01-.04-.02-.08-.04-.12-.02-.06-.04-.12-.06-.18,0-.01,0-.03-.01-.04-.03-.08-.06-.15-.09-.23-.04-.09-.08-.17-.12-.26-1.04-2.14-2.98-3.04-4.52-3.41.42-.18.64-.31.64-.31,2.83-1.39,4.23-.77,5.94.31,1.26.79.47,2.71-.42,4.41Z"/>
      <path class="cls-9" d="m13.65,44.28h0c-1.75.24-3.37.53-4.76.87-.05-2.12-.77-4.59-4.17-5.15,1.23-1.05,3.04-1.82,5.18-2.37.08.05.15.11.24.16.66.42,1.29,1.09,1.82,1.91.05.07.1.15.14.23.1.15.19.31.27.47.03.06.06.12.1.18.01.02.02.04.03.06.05.09.1.19.14.29.07.15.14.31.21.46.14.32.26.66.36.99.05.15.09.3.13.44.04.15.08.3.11.44,0,.04.01.08.03.12.02.1.04.21.06.31,0,.05.02.11.03.17.02.13.04.27.05.4Z"/>
      <path class="cls-9" d="m22.73,43.55h0c-1.7.07-3.4.17-5.04.31,0-.13-.02-.28-.03-.42-.01-.15-.03-.3-.05-.45-.01-.1-.03-.2-.04-.3-.02-.13-.04-.27-.06-.41-.05-.32-.12-.66-.19-.99-.07-.34-.16-.67-.25-1.01-.02-.09-.05-.17-.07-.25-.02-.09-.05-.17-.08-.25-.03-.08-.05-.17-.08-.24-.03-.08-.05-.16-.09-.24-.12-.32-.24-.64-.38-.93-.08-.16-.16-.32-.24-.48-.04-.08-.09-.16-.13-.23-.03-.05-.06-.1-.09-.14-.03-.05-.07-.11-.1-.16-.03-.05-.06-.09-.09-.13-.04-.06-.09-.12-.13-.17-.1-.12-.2-.24-.31-.34,1.34-.14,2.73-.24,4.12-.31.22.29.61.64,1.03,1,.06.05.12.1.17.17.06.06.12.13.18.21.06.08.13.16.19.25.1.13.19.28.29.44.06.1.13.22.19.33.32.58.63,1.29.86,2.04.05.15.09.3.13.46.19.73.31,1.51.29,2.26Z"/>
      <path class="cls-9" d="m30.88,43.51c-1.5-.04-3.09-.05-4.72-.04,0-.16-.02-.33-.04-.5-.03-.34-.07-.69-.13-1.04-.03-.18-.06-.36-.09-.53-.03-.14-.05-.28-.09-.42-.01-.05-.02-.1-.04-.15-.03-.15-.07-.3-.11-.44,0-.03-.01-.05-.02-.07-.05-.17-.1-.34-.15-.5,0,0,0,0,0-.01-.05-.17-.11-.33-.18-.49-.07-.18-.14-.35-.22-.52-.04-.08-.07-.15-.11-.22-.04-.08-.08-.15-.12-.23-.04-.08-.09-.15-.13-.23-.04-.07-.09-.14-.13-.21-.27-.41-.58-.77-.93-1.06-.05-.05-.1-.09-.16-.13-.05-.04-.1-.08-.15-.11-.05-.03-.09-.06-.14-.09-.14-.09-.28-.17-.43-.23,1.82-.03,3.6,0,5.25.04.04.05.08.11.12.17.04.05.07.1.1.15.19.29.39.62.59.99.03.06.06.12.1.18.02.03.03.07.05.09.06.11.12.22.18.34.26.51.51,1.06.74,1.64.04.09.07.18.1.27.18.46.33.93.47,1.4.02.09.05.19.08.28.05.19.1.37.14.56.02.09.04.19.06.28.02.09.04.19.05.28.01.08.03.15.04.23.01.11.03.21.04.32Z"/>
      <path class="cls-9" d="m39.49,43.83c-1.07.08-2.24.07-3.5-.04-.14-.01-.28-.03-.43-.04,0-.1,0-.2-.02-.3,0-.08-.01-.16-.02-.24-.01-.14-.03-.27-.05-.41-.01-.08-.02-.15-.03-.23-.02-.14-.05-.28-.08-.42-.02-.09-.04-.18-.06-.27-.1-.45-.24-.9-.42-1.35-.04-.09-.08-.19-.12-.28-.04-.09-.08-.19-.13-.28-.05-.09-.09-.19-.14-.28-.05-.09-.1-.18-.15-.26-.15-.27-.32-.53-.52-.79-.72-.97-1.64-1.69-2.56-2.21,1.67.06,3.09.12,4.1.14.22.63,1.12,1.48,1.87,2.07,1.21.95,2.48,3.18,2.24,5.2Z"/>
      <path class="cls-9" d="m48.23,40.48c0,.06.01.11.02.17-.74.59-1.87,1.34-3.4,1.96-.07-.19-.14-.38-.22-.57-.09-.23-.19-.46-.3-.69-.2-.44-.42-.89-.68-1.33-.04-.07-.08-.15-.13-.22-.08-.14-.17-.27-.26-.4-.09-.14-.18-.27-.28-.41,0-.01-.01-.02-.03-.04-.06-.09-.13-.18-.2-.26-.04-.05-.08-.1-.12-.15-.05-.06-.1-.13-.16-.19-.12-.14-.25-.28-.38-.41-.05-.05-.1-.1-.15-.15-.01-.02-.03-.04-.05-.05-.06-.07-.13-.13-.2-.18-.05-.05-.11-.1-.17-.15-.37-.31-.78-.58-1.22-.81-.06-.03-.12-.06-.18-.09-.18-.09-.37-.17-.56-.24,1.7-.3,2.94-.75,3.64-1.06,1.53.37,3.47,1.27,4.52,3.41.04.09.08.17.12.26.03.08.06.15.09.23,0,.01.01.03.01.04.02.06.04.12.06.18.01.04.03.08.04.12.02.06.04.13.05.19.05.2.1.4.13.59.01.08.03.16.03.24Z"/>
      <path class="cls-2" d="m8.73,47.8c-1.36.35-2.65.75-4,1.2-1.45.48-2.56.56-3.33.33,1.09-.78,2.29-1.63,3.33-2.48.83-.68,2.29-1.25,4.17-1.71.03,1.06-.11,2.04-.16,2.65Z"/>
      <path class="cls-5" d="m13.7,45.14c0,.08,0,.16,0,.23,0,.15-.02.3-.03.45-.01.07-.02.14-.03.22-.02.14-.05.28-.08.42-.04.14-.07.27-.12.4-1.76.26-3.27.58-4.7.94.05-.61.19-1.59.16-2.65,1.39-.34,3-.63,4.76-.86,0,.02,0,.05,0,.07.01.12.02.24.03.36.01.14.01.28.01.42Z"/>
      <path class="cls-2" d="m17.89,46.35c-1.67.14-3.13.31-4.45.5.05-.13.08-.26.12-.4.03-.14.06-.28.08-.42.01-.07.02-.14.03-.22.02-.15.03-.3.03-.45,0-.08,0-.15,0-.23,0-.14,0-.28-.01-.42,0-.12-.01-.24-.03-.36,0-.02,0-.05,0-.07,1.28-.17,2.64-.31,4.04-.43,0,.09.01.17.02.25,0,.04,0,.09,0,.13,0,.12,0,.24,0,.35,0,.61.05,1.22.17,1.76Z"/>
      <path class="cls-5" d="m22.73,43.56v.02c0,.09,0,.18-.01.26,0,.11-.02.22-.03.33,0,.07-.02.14-.03.21-.02.15-.05.3-.09.45-.03.11-.06.21-.09.32h0c-.02.06-.04.12-.06.18-.02.06-.04.12-.07.18-.09.2-.19.4-.31.58-1.52.07-2.89.16-4.14.26-.12-.54-.17-1.15-.17-1.76,0-.11,0-.23,0-.35,0-.04,0-.09,0-.13,0-.08-.01-.17-.02-.25,1.65-.13,3.34-.23,5.04-.29Z"/>
      <path class="cls-2" d="m26.08,45.95h0c-1.46.04-2.81.09-4.05.14.12-.19.22-.38.31-.58.03-.06.05-.12.07-.18.03-.06.05-.12.06-.18h0c.04-.11.07-.21.09-.32.04-.15.07-.3.09-.45.01-.07.03-.14.03-.21.01-.11.02-.22.03-.33,0-.09,0-.18.01-.26v-.02c1.15-.04,2.3-.07,3.44-.09,0,.04,0,.08,0,.13,0,.11.01.23.01.34.02.83-.02,1.54-.1,2.01Z"/>
      <path class="cls-5" d="m30.92,44.29c0,.37-.03.72-.1,1.04-.03.13-.06.26-.1.37-.02.06-.04.12-.07.18-1.65.02-3.16.04-4.58.08.08-.47.13-1.18.1-2.01,0-.11,0-.22-.01-.34,0-.04,0-.08,0-.13,1.62-.02,3.22,0,4.72.04.01.15.03.3.03.44,0,.11.01.22.01.33Z"/>
      <path class="cls-2" d="m35.5,45.85c-.17,0-.33,0-.5,0-1.54,0-2.98,0-4.34.02.02-.06.05-.12.07-.18.04-.12.08-.24.1-.37.07-.32.1-.67.1-1.04,0-.11,0-.22-.01-.33,0-.14-.02-.29-.03-.44,1.7.05,3.28.13,4.68.24.04.78,0,1.49-.06,2.1Z"/>
      <path class="cls-5" d="m39.49,43.83s0,.01,0,.02c0,.06-.01.12-.02.17,0,.03,0,.05-.01.08-.01.08-.03.16-.05.24-.01.06-.03.12-.05.18,0,.03-.01.05-.03.08-.02.06-.05.13-.07.2-.04.09-.08.18-.12.27-.03.06-.06.13-.1.19-.04.07-.08.14-.13.21-.05.08-.11.15-.17.23-1.02.1-2.09.16-3.23.17.06-.6.1-1.32.06-2.1.14.01.29.03.43.04,1.26.11,2.43.12,3.5.04Z"/>
      <path class="cls-2" d="m45.33,44.06c-.09.05-.15.07-.15.07-1.89.83-4.02,1.33-6.46,1.56.06-.08.12-.15.17-.23.05-.06.09-.14.13-.21.04-.06.07-.12.1-.19.05-.09.09-.18.12-.27.03-.06.05-.13.07-.2.01-.02.02-.05.03-.08.02-.06.04-.12.05-.18.02-.08.04-.16.05-.24,0-.03.01-.05.01-.08.01-.06.02-.11.02-.17,0,0,0-.01,0-.02,2.15-.16,3.93-.64,5.35-1.22.05.13.1.26.14.39.04.12.08.24.12.36.08.24.15.48.22.7Z"/>
      <path class="cls-5" d="m48.27,41.13c0,.16,0,.32-.02.47-.88,1.39-2.43,2.22-2.92,2.46-.07-.22-.14-.45-.22-.7-.04-.12-.08-.24-.12-.36-.04-.13-.09-.26-.14-.39,1.53-.63,2.66-1.38,3.4-1.96,0,.07.01.14.01.21,0,.09,0,.18,0,.27Z"/>
      <path class="cls-2" d="m49.33,39.65c-.32.61-.66,1.19-.92,1.68-.05.09-.1.18-.16.27.01-.15.02-.31.02-.47,0-.09,0-.18,0-.27,0-.07,0-.14-.01-.21.69-.55,1.04-.95,1.09-1Z"/>
      <path class="cls-4" d="m79.64,42.11c-.64,2.02-7.92,1.76-11.19,1.59-3.28-.17-6.24-1.27-3.38-1.54,2.85-.27,2.61.09-.45-1.53-3.06-1.62-2.31-8.41-2.31-8.41.89-1.54,2.63-2.91,5.79-3.83,0,0,4.56-1.44,8.04,1.92,3.48,3.36,0,10.55,0,10.55,0,0,2.7.22,3.51,1.26Z"/>
      <path class="cls-4" d="m91.51,43.7h0c-1.63-.98-2.59-.37-4.62-.91-2.03-.54-3.64-3.78-4.99-7.83-1.33-3.99-.46-10-.44-10.17h0c3.1-5.46,11.17-4.99,10.14-1.09,0,0-1.69,5.29-1.61,8.05.08,2.76-.27,9.12.8,9.72.8.45,1.58,1.65.73,2.24Z"/>
      <path class="cls-8" d="m72.99,29.02s-4.95-.9-5.85,1.89c-.9,2.79,5.31,3.58,5.85,5.57.54,1.99,3,1.48,3.78-.98.78-2.46-2.16-6.34-3.78-6.48Z"/>
      <path class="cls-8" d="m90.27,22.17s-2.2-1.71-3.53,0c-1.33,1.71-1.1,5.12,0,6.7,1.1,1.58,2.63-.45,3.53-2.32.9-1.87.97-3.85,0-4.39Z"/>
      <path class="cls-3" d="m91.51,43.7c-.3.2-.78.33-1.53.33-2.92,0-4.24.19-5.2-1.25-.96-1.44-6.24-8.88-4.08-16.2.19-.66.45-1.26.76-1.8-.03.18-.89,6.18.44,10.17,1.35,4.05,2.96,7.29,4.99,7.83,2.03.54,2.99-.06,4.62.91Z"/>
      <path class="cls-3" d="m79.74,43.27c-.96,2.04-6.6,1.56-12.36,1.56s-6.48-.48-5.16-2.4c.95-1.38-2.17-6.33.09-10.22,0,0-.75,6.79,2.31,8.41,3.06,1.62,3.3,1.26.45,1.53-2.85.27.11,1.38,3.38,1.54,3.28.17,10.56.42,11.19-1.59.24.31.32.69.09,1.16Z"/>
    </g>
  </g>
</svg>