<?xml version="1.0" encoding="UTF-8"?>
<svg id="Layer_2" data-name="Layer 2" xmlns="http://www.w3.org/2000/svg" viewBox="0 0 519.23 589.97">
  <defs>
    <style>
      .cls-1 {
        fill: #fff;
      }

      .cls-1, .cls-2, .cls-3, .cls-4 {
        stroke-width: 0px;
      }

      .cls-2 {
        fill: #231f20;
      }

      .cls-3 {
        fill: #f1f2f2;
      }

      .cls-4 {
        fill: #222223;
      }
    </style>
  </defs>
  <g id="RHINOCEROS_BEETLE" data-name="RHINOCEROS BEETLE">
    <g>
      <path class="cls-2" d="m153.03,367.15l-7.3,36.83s-78.4,54.65-86.72,64.15c-8.32,9.5-26.13,16.22-40.39,8.7-14.26-7.51-6.34,9.51,7.52,9.51s27.72-5.15,34.85-11.48c7.13-6.34.99,4.55,11.09,8.71,10.1,4.16,2.97-11.29,17.23-20.79l14.26-9.5s0,5.35,4.16,9.5c4.16,4.16-1.19-1.78,9.5-16.04,10.69-14.26,29.1-20.2,40.39-27.32,11.29-7.13,13.07-52.27,13.07-52.27h-17.65Z"/>
      <path class="cls-2" d="m234.62,376.13v42.77c0,26.14,29.7,60.59,28.51,71.28s5.35,4.8,6.53-3.84c0,0,20.87,24.62,24.1,41.85s7.38,4.75,7.38,4.75c0,0,14.85,21.38,17.82,31.48,2.97,10.1,1.19,24.95,5.35,25.54,4.16.59,5.26-38.18-19.6-64.15,0,0,14.26,0,9.5-2.97-4.75-2.97-27.32-21.38-36.83-43.36,0,0,10.69,2.38,13.66-2.38s-15.44-3.98-26.14-16.25c-10.69-12.27-16.63-36.02-17.23-38.99s1.19-51.08,1.19-51.08l-14.26,5.35Z"/>
      <path class="cls-2" d="m311.3,404.69v33.49c0,20.47,70.2,50.58,67.91,58.95s10.32,3.76,12.62-3c0,0,36.53,20.8,42.76,34.29,6.23,13.49,9.11-1.03,9.11-1.03,0,0,27.79,14.48,33.26,22.57,9.9,14.65-.47,21.73,7.56,22.2,8.03.47,10.17-29.9-37.86-50.24,0,0,27.53,0,18.35-2.33s-52.77-16.75-71.12-33.96c0,0,20.65,1.86,26.38-1.86,5.74-3.72-29.83-3.12-50.47-12.72s-42.04-27.26-43.19-29.59c-1.15-2.33,12.22-40.96,12.22-40.96l-27.53,4.19Z"/>
      <path class="cls-1" d="m129.07,419.2s-54.53,37.01-57.2,41.67c-2.67,4.66,60.59-37.81,64.15-41.67,3.56-3.86,12.99-13.73-6.95,0Z"/>
      <path class="cls-1" d="m278.87,491.07s13.66,26.43,21.68,29.7,9.8.59,3.27-2.97c-6.53-3.56-26.75-36.72-24.95-26.73Z"/>
      <path class="cls-1" d="m303.92,529.97s13.46,20.39,16.43,30.49,4.36,10.49,2.97,3.96c-1.39-6.53-12.28-31.68-17.42-35.24-5.15-3.56-1.98.79-1.98.79Z"/>
      <path class="cls-1" d="m410.44,500.67s14.23,12.57,30.09,16.83c15.86,4.26,22.37,2.38,10.49,0-11.88-2.38-52.67-27.12-40.59-16.83Z"/>
      <path class="cls-1" d="m449.05,526.21s29.5,12.87,32.87,26.73c3.37,13.86,5.74,11.29,4.36,5.94-1.39-5.35-6.94-16.54-22.77-26.53-15.83-9.99-17.03-8.91-14.45-6.14Z"/>
      <path class="cls-4" d="m518.97,379.6c-18.53,46.05-25.37,53.67-56.26,59.02-30.89,5.35-172.25-30.29-182.09-51.68-9.84-21.38-19.86-64.15-12.73-77.22,7.13-13.07,22.57-51.08,22.57-51.08,0,0-26.56-9.79-72.63,4.42,3.87-17.53,10.74-31.48,22.26-36.4,41.22-17.53,163.51-.83,212.69,37.3,45.85,35.57,63.96,87.08,66.19,115.64Z"/>
      <path class="cls-2" d="m519.23,385.35c0,26.85-18.6,60.75-35.88,70.64-17.27,9.91-122.29,4.25-171.49-12.71-49.18-16.94-94.37-66.41-94.37-66.41,0,0-9.65-68.83.33-113.92,46.07-14.21,72.63-4.42,72.63-4.42,0,0-15.44,38.01-22.57,51.08-7.13,13.07,2.9,55.83,12.73,77.22,9.84,21.38,151.2,57.02,182.09,51.68,30.89-5.35,37.73-12.97,56.26-59.02.19,2.09.26,4.04.26,5.87Z"/>
      <path class="cls-1" d="m311.3,255.24s128.84-5.03,185.86,93.57c0,0,1.19,20.2-17.82,21.98-19.01,1.78-74.58-45.54-110.94-41.48-36.36,4.06-76.75,4.06-82.69-11.39-5.94-15.44,23.87-39.84,25.6-62.68Z"/>
      <path class="cls-1" d="m311.3,247.83s-2.24-15.84-7.38-20.59c-5.15-4.75,93.45,8.08,125.13,28,31.68,19.92,53.85,61.89,53.85,61.89,0,0-64.43-76.43-171.6-69.3Z"/>
      <path class="cls-4" d="m292.83,256.67c-4.75,23.76-22.17,22.17-33.26,44.33-2.9,5.82-3.42,12.81-3.14,20.58-12,33.14-55.48,22.19-89.52,13.49-34.05-8.72-57.02-31.69-51.08-41.2,5.94-9.5,6.72-30.08,0-38.56-6.72-8.48-31.29-14.49-45.55,0-14.26,14.49-6.32,56-41.17,4.51C-5.23,209.1,9.27,75.7,9.7,71.8c.02-.07.02-.09.02-.09,5.77-19.46,14.4-36.14,26.51-47.87,52.27-50.7,20.6-9.5,4.75,22.17-15.85,31.67-15.85,159.97,28.51,191.66,0,0,22.17,0,33.26-22.19,11.1-22.17,42.77-31.43,61.77-29.98,19.01,1.47,33.26-8.03,25.35-39.7-7.94-31.67-41.2-85.53-88.72-95.04-47.52-9.5,28.51-19.01,72.87,15.85,44.36,34.83,80.78,117.2,95.04,126.71,14.26,9.5,28.51,39.61,23.76,63.37Z"/>
      <path class="cls-2" d="m242.15,395.92s-82.37-6.32-128.3-41.17c-53.91-40.89-66.53-17.42-91.88-77.62C2.52,230.92-9.48,136.14,9.7,71.68c-.43,3.9-14.92,137.3,19.41,188.03,34.85,51.49,26.92,9.98,41.17-4.51,14.26-14.49,38.82-8.48,45.55,0,6.72,8.48,5.94,29.06,0,38.56-5.94,9.5,17.04,32.48,51.08,41.2,34.05,8.7,77.53,19.65,89.52-13.5.78,21.91,7.94,49.92-14.28,74.46Z"/>
      <path class="cls-1" d="m133.65,54.59s54.65,26.93,74.45,84.74c19.8,57.81,39.6,85.02,56.23,88.05,16.63,3.03,19.01-12.02,7.92-23.9-11.09-11.88-43.1-55.44-54.42-76.03-11.32-20.59-44.74-67.28-84.18-72.86Z"/>
      <path class="cls-1" d="m161.37,194.77s-28.51-3.96-45.54,15.05c-17.03,19.01,23.36,23.76,29.7,41.58,6.34,17.82,41.18,24.95,46.73,16.24,5.54-8.71-9.5-39.09-10.3-48.05-.79-8.97-10.28-24.58-20.59-24.81Z"/>
      <path class="cls-1" d="m161.37,194.77s26.53,1.58,43.16,15.05c16.63,13.46,28.9-1.42,24.35-20.51s49.27,33.17,49.27,33.17c0,0,3.2,19.42-2.74,28.92s-19.4,37.62-49.89,37.62-70.55-16.98-76.85-32.05,12.7-62.19,12.7-62.19Z"/>
      <path class="cls-1" d="m27.52,62.91s-13.86,41.58-6.34,97.81,19.01,72.71,31.28,76.35c12.28,3.64,1.58-9.31-3.56-17.49-5.15-8.18-27.32-63.22-22.97-107.57,4.36-44.35,7.92-66.13,1.58-49.1Z"/>
      <circle class="cls-3" cx="90.88" cy="276.34" r="24.95"/>
      <circle class="cls-2" cx="86.31" cy="275.48" r="14.82" transform="translate(-169.52 141.72) rotate(-45)"/>
      <circle class="cls-1" cx="95.63" cy="263.03" r="8.32" transform="translate(-157.98 144.66) rotate(-45)"/>
    </g>
  </g>
</svg>