<?xml version="1.0" encoding="UTF-8"?><svg data-name="Layer 2" xmlns="http://www.w3.org/2000/svg" viewBox="0 0 58.94 69.81"><defs/><g data-name="100"><g><path d="m39.93,12.87c.04.46-.18,1.05-.57,1.38-.12.11-.4.14-.56.26-.1.18-.23.28-.41.29-.12.05-.22.02-.3-.1-.35,0-.56.19-.89-.09-.2-.16-.33-.47-.46-.66-.07-.23-.21-.39-.42-.48-.1-.1-.2-.08-.3.03-.32-.12-.35-.33-.61-.6-.15-.16-.63-.51-.54.05-.38-.17-.62-.98-.8-1.33s-.37-.61-.58-.93c-.3-.44-.8-1.73-1.39-1.86.07.15.03.25-.1.31-.38-.28-.93-.93-1.41-1.01-.07.58-1.32-.68-1.66-.77.1.2.14.42.12.64-.48-.14-.89-.46-1.4-.5-.42-.03-.36.06-.8-.14-.51-.22-.92-.69-1.51-.7-.25.21-.5.2-.76-.01-.46-.14-.87-.37-1.24-.67-.2.26-.23.56-.08.91-.74.08-1.2-.29-1.9-.49.07.35.36.54.2.94-.37.08-.69-.65-1.07-.73-.46-.1-.37.17-.43.53-.6.17-.98-.17-1.51-.37-.81-.31-1.13.05-1.3.75-.43.17-.82-.22-1.23-.15.13.26.55.6.49.89-.33.19-.69.38-1.07.42-.21.02-.55-.11-.75.02-.13.08-.17.32-.3.42-.16.13-.38.17-.57.21-.41.1-.84-.02-1.23.07-.37.08-.4.28-.33.62.04.2.24.41.15.61-.09.21-.53.37-.72.48-.26.14-.51.29-.8.35-.16.04-.58-.02-.69.18-.22.4.81,1.18,1.02,1.48.26.39.39.92.15,1.36-.24.43-.77.38-.86.93-.04.24.04.46-.02.7-.06.2-.26.55-.42.71-.28.28-.53.15-.82.31-.12.06-.33.33-.41.43-.27.38-.44.78-.75,1.15-.32.38-.75.6-1.07.96.18.37,1.24.26.79.86-.29.38-1.74.51-1,1.19.51.46.72.7.3,1.37-.31.48-.53.9-.52,1.5,0,.25.05.54-.02.78-.15.54-.91,1.05-.85,1.65.05.57.83.36.67.97-.16.66-1.54,1.11-.91,1.74.25.25.39.05.37.49,0,.19-.24.48-.31.65-.45.93-.22,1.68.69,2.33.4.28.56.3.57.83.01.74-.22,1.48-.52,2.15-.21.47-1,1.23-.8,1.74.1.23.46.26.55.45.28.57-.62,1.47-.37,2.08.18.43.37.11.64.28.21.13.11.51.06.73-.14.69-.32,1.46.05,2.08.26.46.16.49,0,1.02-.19.65-.42,1.95.22,2.44.25.19.7.12.94.29.3.22.09.39.02.83-.11.7-.22,1.37-.23,2.08-.01.55-.43,1.04.08,1.41.25.19.82.3.85.66.03.31-.54.54-.67.8-.36.68,1.32,1.24,1.8,1.59-.09.3-.33.61-.12.93.29.46.97.23,1.09.79.08.44-.13.89.13,1.33.33.56,1.28.42,1.52.92.41.85-1.08,1.06.25,1.74.51.26,2.27.56,2.4,1.19.1.49-.31.3-.52.62.06.33.42.58.63.8.4.4.81.79,1.18,1.22.25.3.56.57.78.91.16.26.32.57.08.84-.16.18-.55.16-.77.29.91.46-.15,1.61-.04,2.22.1.5.55.47.54.96-.08.01-.17.02-.23.02-.38,0-.57-.07-.92-.15-.56-.12-1.09.05-1.63-.21-.48-.23-.88-.67-1.32-.96-.3-.2-.57-.33-.98-.37-.44-.05-.78-.21-1.15-.48-.6-.44-.65-.78-.96-1.39-.08.05-.13.11-.15.2-.37-.34-.66-.76-1.06-1.04-.57-.4-.5-.35-.92-1.21-.39-.8-.88-1.6-1.07-2.49-.22.09-.33.28-.32.57-.56-.12-.51-1.63-.62-2.04-.14-.49-.24-.98-.33-1.47-.02-.12-.05-.23-.06-.35-.1-.23-.2-.46-.3-.7-.33,0-.3.68-.75.66-.04-.79-.31-1.32-.58-2.08-.21-.57-.28-1.09-.37-1.66-.01-.07-.02-.13-.03-.2-.79.21-.69-.79-.71-1.37-.02-.45,0-.97-.03-1.48-.02-.46-.06-.92-.19-1.32-.06-.19-.14-.29-.24-.47-.21-.4-.16-.9-.17-1.37,0-.25-.03-.49-.12-.71-.07-.17-.28-.3-.35-.47-.25-.55-.01-1.73-.05-2.36-.3-.16-.46-.05-.62-.41-.02-.03-.03-.06-.04-.1-.19-.53-.07-1.26-.07-1.8,0-.66.19-1.36.16-1.99-.17-.11-.22-.32-.22-.55,0-.26.08-.55.1-.75.04-.44.11-.88.22-1.32-.12-.12-.2-.03-.23.26-.09-.56.36-1.18.33-1.77-.09.02-.15-.05-.19-.18-.16-.59.14-2.41.15-2.66-.16.12-.33.24-.48.36-.15-.41.06-1.01.17-1.39.04-.14.07-.24.08-.33.08-.33.03-.42-.05-.88-.11-.68-.06-1.37.01-2.06.03-.25.18-.62-.21-.58-.03-.12-.02-.25,0-.4.04-.32.16-.69.17-.97.01-.39-.08-.83-.02-1.21.05-.39.29-.74.35-1.12.02-.24.03-.48.05-.71,0-.09.02-.17.02-.26.05-.17.15-.3.31-.39.08-.22-.01-.42.02-.65.05-.38.25-.54.4-.85.15-.31.23-.64.29-.98.01-.07.02-.15.03-.22.05-.28-.07-.78.07-1.01.13-.22.52-.28.7-.45.26-.26.18-.24.23-.59.08-.6.27-1.11.49-1.63.12-.29.25-.58.38-.89.38-.91.92-1.82.99-2.79.02-.27-.05-.33.07-.6,0-.02.02-.03.03-.05.16-.31.52-.54.64-.82-.15-.04-.3-.05-.45-.01.23-.38.47-1.09.78-1.38.23-.21.46-.36.65-.53.13-.12.25-.26.34-.44-.02-.1-.02-.19.02-.29.1-.12.23-.21.36-.28.14-.07.26-.16.36-.28.03-.1.03-.19,0-.29-.03-.09-.01-.16.07-.22.19-.05.35-.14.49-.28.32-.27.32-.51.42-.88.85-.03.52-1.05.91-1.42.15-.07.29-.14.43-.2.15-.11.26-.26.33-.43.31-.09.62-.17.93-.26.38-.1.7-.28.97-.54-.02-.24-.21-.35-.36-.52.26-.07.64.07.87-.06.15-.08.2-.25.32-.33.18-.12.3.05.48-.19.16-.21.07-.49-.16-.6.25.03.62.11.85-.01-.01-.43.36-.44.69-.52.48-.12,1.16-.25,1.55-.56.11-.09.08-.25.28-.35.28-.15.87-.03,1.15-.03.31,0,.62,0,.93,0,.26,0,.64.06.89-.04.16-.06.27-.26.39-.31.4-.16,1.02-.03,1.45-.03.52,0,1.05-.03,1.57.04.37.06.93.4.89-.2.37-.14.83-.02,1.23-.07.06-.08.14-.14.23-.17.22.04.43.11.63.21.46.17.78.13,1.24.22.2.03,1.36.62,1.37.17.66.03,1.36.84,1.9,1.23.01,0,.02,0,.03.01.26-1.11,2.72,1.06,3,1.08.15.01.33-.1.53-.05.28.07.34.19.55.29.8.39,1.7.85,2.45,1.32.47.29.85.82,1.24,1.17.6.53.76,1.28,1.18,1.93.07.11.13.2.21.28-.49.97-.19,1.96.23,2.95.25.58.2,1.41.25,2.06Z" style="stroke-width:0px;fill:#6e7472"/><path d="m43.03,25.28c-1.52,10.29-8.04,18.68-7.45.66.06-1.96,0-3.72-.15-5.33-.42-.44-.54-.53-.54-1.09,0-.43-.03-.74-.17-1.14-.29-.83-.53-1.7-1.07-2.4.24,0,.4-.15.34-.4-.1-.42-.81-.32-.97-.67-.08-.19.04-.52.02-.73-.06-.54-.41-.47-.74-.84-.39-.44.25-.98-.23-1.55-.78-.91-1.54-.53-2.55-.72-.19-.29.06-.6-.08-.89-.17-.01-.34-.03-.51-.06-.02-.1-.03-.21-.05-.31-.86-.31-1.87.59-2.75.53-.12-.22-.02-.49-.07-.73-.39-.2-.71.34-1.08.35-.09-.37.14-.69-.32-.74-.41-.04-1.17.53-1.28-.17-.48-.1-1.12.51-1.57.69-.07-.08-.09-.18-.06-.29-.3-.12-2.09.52-1.87-.02-.25-.07-.48,0-.67.23-.5.34-1.03.63-1.6.85-.71.29-.82.53-1.32,1.23-.68.96-1.4,1.83-2.11,2.74-.23.3-.43,1.12-.85,1.12-.15-.18-.2-.48-.5-.4-.22.63-.31,1.29-.64,1.86-.16.29-.37.54-.49.85-.25.61-.25,1.24-.46,1.84-.11-.05-.23-.11-.34-.17-.15.19-.22.46-.28.75-.05.3-.08.61-.14.85-.16.61-.25,1.07-.33,1.66-.04.33-.11.65-.15.98-.02.08-.02.16-.03.24-.04.66.09,1.36-.04,2-.13.05-.24,0-.31-.11-.08.23-.08.5-.07.78.02.22.04.43.04.62,0,.58.08,1.23-.04,1.79-.1-.1-.19-.17-.3-.25-.08.28-.08.66-.07,1.02.01.25.03.48.03.66,0,.66-.06.74-.15,1.19-.07.35.15,1.81-.57,1.68-.12.21-.03.64-.03.88,0,.47,0,.93,0,1.4,0,.55,0,1.08.07,1.63,0,.04.01.07.02.11.09.61.23,1.2.28,1.81.03.3.02.7.04,1.09.03.43.09.85.25,1.13-.3.22-.1,1.1-.1,1.46,0,.5-.2.8-.17,1.25,0,.06,0,.11.01.17.12.77.28,1.57.43,2.32.03.14.06.29.1.43.32,1.08,1,2.14,1.45,3.16,0,0,0,0,0,.01-.4.26.42,1.81.57,2.19-.16-.14-.28-.31-.51-.33-.07.47.4.86.53,1.3,0,.03.01.06.02.1.02.12-.03.26-.02.37.05.33.31.43.54.74.23.31.53.73.55,1.14,0,.12-.1.21-.07.37.05.25.22.46.45.66.39.32.91.59,1.14.93-.11.02-.21.03-.32.03-.34.87,1.72,1.82,2.06,2.37-.09-.09-.16-.09-.21-.01.42.66.88,1.29,1.29,1.96.3.5.47.9.98,1.19.23.13.4.17.55.4.12.19.12.43.18.64.1.33.22.47.39.76.12.2.08.55.19.69.21.29.76.23,1,.61.1.17.24.66.11.83-.15.21-.52.09-.8.11,0,.03-.01.07-.02.11.22.35.69,1.04.58,1.34-.35-.19-.62-.78-1.06-.72,0,.46.3.85.15,1.32-.43.08-.67-.03-1.05.19-.29.16-.08.34-.61.16-.25-.09-.33-.3-.55-.36-.08-.02-.24-.01-.38,0,.01-.49-.44-.46-.54-.96-.11-.61.95-1.75.04-2.22.22-.13.61-.11.77-.29.24-.27.08-.58-.08-.84-.21-.33-.52-.61-.78-.91-.37-.43-.78-.82-1.18-1.22-.21-.22-.57-.47-.63-.8.21-.33.62-.14.52-.62-.12-.63-1.89-.93-2.4-1.19-1.33-.68.16-.88-.25-1.74-.24-.5-1.19-.35-1.52-.92-.26-.43-.05-.89-.13-1.33-.11-.57-.8-.33-1.09-.79-.21-.33.03-.63.12-.93-.48-.35-2.16-.91-1.8-1.59.13-.26.71-.49.67-.8-.03-.35-.6-.47-.85-.66-.51-.37-.09-.86-.08-1.41.01-.7.12-1.38.23-2.08.07-.44.29-.61-.02-.83-.24-.17-.69-.1-.94-.29-.64-.49-.41-1.79-.22-2.44.16-.53.27-.57,0-1.02-.36-.62-.18-1.39-.05-2.08.05-.22.15-.6-.06-.73-.27-.17-.46.16-.64-.28-.26-.61.64-1.5.37-2.08-.09-.19-.45-.22-.55-.45-.2-.51.58-1.27.8-1.74.3-.67.53-1.41.52-2.15,0-.53-.17-.55-.57-.83-.92-.65-1.14-1.39-.69-2.33.08-.16.31-.46.31-.65.02-.44-.12-.24-.37-.49-.63-.62.74-1.08.91-1.74.16-.61-.62-.4-.67-.97-.06-.6.7-1.11.85-1.65.07-.24.03-.53.02-.78-.01-.6.21-1.01.52-1.5.42-.66.21-.91-.3-1.37-.75-.67.71-.8,1-1.19.46-.6-.61-.49-.79-.86.32-.36.75-.58,1.07-.96.32-.37.48-.77.75-1.15.08-.11.29-.37.41-.43.29-.16.53-.03.82-.31.16-.16.36-.51.42-.71.06-.24-.02-.47.02-.7.09-.56.62-.5.86-.93.24-.44.11-.97-.15-1.36-.21-.31-1.24-1.08-1.02-1.48.11-.2.52-.14.69-.18.29-.06.53-.21.8-.35.19-.11.63-.26.72-.48.09-.2-.11-.41-.15-.61-.07-.34-.04-.53.33-.62.39-.09.82.02,1.23-.07.2-.05.41-.08.57-.21.14-.1.17-.34.3-.42.2-.12.53,0,.75-.02.38-.04.74-.24,1.07-.42.06-.29-.37-.63-.49-.89.41-.07.8.32,1.23.15.17-.7.49-1.06,1.3-.75.53.2.91.54,1.51.37.07-.36-.03-.63.43-.53.38.08.7.82,1.07.73.16-.4-.14-.58-.2-.94.69.21,1.16.57,1.9.49-.15-.34-.12-.64.08-.91.38.31.79.53,1.24.67.26.21.52.22.76.01.58.01,1,.48,1.51.7.44.2.38.11.8.14.51.04.92.36,1.4.5.02-.23-.02-.44-.12-.64.34.09,1.59,1.35,1.66.77.48.07,1.03.73,1.41,1.01.13-.06.17-.16.1-.31.59.12,1.09,1.42,1.39,1.86.21.31.4.58.58.93s.42,1.16.8,1.33c-.09-.56.39-.21.54-.05.25.27.29.48.61.6.1-.11.2-.12.3-.03.2.09.34.25.42.48.13.2.26.5.46.66.33.28.54.1.89.09.08.12.19.15.3.1.18-.02.31-.11.41-.29.16-.12.44-.15.56-.26.39-.33.61-.92.57-1.38-.06-.65,0-1.47-.25-2.06-.42-.99-.73-1.98-.23-2.95.15.17.31.31.46.49.52.65.55,1.66.85,2.41.15.38.4.36.49.78.12.56-.14,1.2.21,1.71.24-.03.31-.14.53-.12.08.52.16,1.05.22,1.57,0,.43.13.79.4,1.1.16.4.19.56.23,1.14.08,1.05.11,2.1.03,3.15.34,3.03.17,5.17.17,5.17Z" style="stroke-width:0px;fill:#4e5150"/><path d="m8.54,37.33h-2c-.55,0-.99.08-1.46-.2-.66-.39-.88-.62-.94.19-.56.06-.73-.67-1.2-.72-.43-.05-.21.23-.32.53-.24.05-.51-.31-.71-.43-.33-.19-.62-.35-.93-.57-.22-.16-.41-.24-.6-.28-.16-.59.14-2.41.15-2.66-.16.12-.33.24-.48.36-.15-.41.06-1.01.17-1.39.04-.14.07-.24.08-.33.03.02.07.04.1.06.28.12.49-.05.7-.16.19.34.44.69.8.85.46.21.47-.01.79-.07.82-.16,1.24.6,1.95.84.22-.16.17-.78.29-1.05.37.26.94,1.33,1.41,1.31.32-.01.34-.33.48-.57.48.1.7.9,1.15,1.13.15.07.32.11.5.14,0,.47,0,.93,0,1.4,0,.55,0,1.08.07,1.63Z" style="fill:#fff;stroke-width:0px"/><path d="m9.03,42.93c0,.5-.2.8-.17,1.25-.11.05-.22.1-.37.1-.37.02-.8-.19-1.17-.21-.3-.02-.62.06-.92.03-.51-.05-1.19-.59-1.68-.37-.03.2.07.35-.06.53-.34-.02-.97-.55-1.28-.4-.32.16-.13.65-.16.93-.57.14-1.46-.92-1.86-1.24-.03.24,0,.47-.19.65-.24-.09-.56-.18-.85-.16-.02-.03-.03-.06-.04-.1-.19-.53-.07-1.26-.07-1.8,0-.66.19-1.36.16-1.99-.17-.11-.22-.32-.22-.55.35.15.74.21,1.2.17.48-.05.86-.47,1.33-.36.24.06.7.49.93.38.2-.1.11-.34.31-.42.42.38.92,1.1,1.53,1.16.14-.38.15-.76.23-1.15.15-.03.25.04.3.21.23.34.54.57.94.69.32.15.58.11.78-.13-.02-.11.02-.18.11-.2.28-.09.73.4,1.06.39.03.43.09.85.25,1.13-.3.22-.1,1.1-.1,1.46Z" style="fill:#fff;stroke-width:0px"/><path d="m9.56,29.13c-.1-.1-.19-.17-.3-.25-.08.28-.08.66-.07,1.02-.49-.12-.98-.22-1.5-.31-.75-.12-1.48-.38-2.23-.4-.61-.02-.98.12-1.56-.12-.19-.08-.37-.16-.56-.25-.19.16-.39.26-.63.29-.28.04-.65-.01-.92-.09-.4-.12-1.06-.66-1.74-1.12.04-.32.16-.69.17-.97.01-.39-.08-.83-.02-1.21.05-.39.29-.74.35-1.12.02-.24.03-.48.05-.71.2.2.44.36.78.5,1.01.42,1.88,1.19,3.04,1.25.51.03,1.03-.06,1.54.01.53.07.93.31,1.45.35.89.06,1.42.26,2.15.71.02.22.04.43.04.62,0,.58.08,1.23-.04,1.79Z" style="fill:#fff;stroke-width:0px"/><path d="m10.85,50.26c-.51.02-.35.23-.63.53-.32.35-.45.2-1,.21-.67.02-.5.11-.94.4-.36.25-.3.18-.81,0-.29-.11-1.07-.51-1.29-.22.05.12.06.25.04.37-.92.37-1.95-.64-2.82-.73-.04.26.07.5,0,.75-.46-.08-.84-.39-1.29-.5-.01.02-.03.05-.04.08-.02-.46-.06-.92-.19-1.32-.06-.19-.14-.29-.24-.47-.21-.4-.16-.9-.17-1.37h.1c.6,0,1.65.42,2.2.17-.1-.55.47-.32.77-.25.8.2.9.08.91-.65.99.03,2.22.46,3.19.14-.02-.11,0-.21.05-.31.22-.03.46-.01.7,0,.32,1.08,1,2.14,1.45,3.16Z" style="fill:#fff;stroke-width:0px"/><path d="m4.63,12.5c.16-.31.52-.54.64-.82-.15-.04-.3-.05-.45-.01.23-.38.47-1.09.78-1.38.23-.21.46-.36.65-.53.3.63.54,1.29,1,1.88.05-.49.18-.57.41-.24.16.5.46.89.91,1.16.35.31,1.06,1.72,1.64,1.16.16.3.39,1.75.06,2.06-.47.44-2.24-.46-2.62-.58-.38-.12-.66-.19-.95-.46-.29-.28-.48-.68-.76-.97-.42-.41-.83-.88-1.29-1.25Z" style="fill:#fff;stroke-width:0px"/><path d="m10.63,20.31c-.05.3-.08.61-.14.85-.16.61-.25,1.07-.33,1.66-.04.33-.11.65-.15.98-.16-.01-.33-.03-.49-.06-.44-.08-1.21-.17-1.66-.32-1.12-.37-2.1-1.14-3.18-1.61-.18-.07-.36-.14-.54-.21-.24.07-.48.09-.73.05-.61-.12-1.06-.73-1.51-1.16-.08.2-.17.26-.26.24.01-.07.02-.15.03-.22.05-.28-.07-.78.07-1.01.13-.22.52-.28.7-.45.26-.26.18-.24.23-.59.08-.6.27-1.11.49-1.63.04.08.1.16.15.24.4.53,1.23.33,1.75.6.51.26.81.84,1.34,1.17.54.33,1.37.53,1.99.69.53.13.93.28,1.43.5.26.11.53.19.8.28Z" style="fill:#fff;stroke-width:0px"/><path d="m12.91,56.82c-.21-.02-.42-.03-.59.03-.35.13-.38.47-.66.64-.61.39-1.69-.21-2.42-.1-.08.31.02.61-.05.92-.51.08-1.29-.19-1.74.02-.37.17-.29.38-.76.38-.62,0-1.2-.21-1.78-.38-.02-.12-.05-.23-.06-.35-.1-.23-.2-.46-.3-.7-.33,0-.3.68-.75.66-.04-.79-.31-1.32-.58-2.08-.21-.57-.28-1.09-.37-1.66.51.06,1.03.04,1.5-.05.56-.1,1.14-.3,1.69-.34,1.14-.09,2.37.21,3.53.21.51,0,.69-.01,1.06-.29.32-.25.08-.27.62-.29.07,0,.14,0,.21,0,0,.03.01.06.02.1.02.12-.03.26-.02.37.05.33.31.43.54.74.23.31.53.73.55,1.14,0,.12-.1.21-.07.37.05.25.22.46.45.66Z" style="fill:#fff;stroke-width:0px"/><path d="m50.73,57.58c-.8,2.29-1.69,3.65-2.72,4.34-2.01,1.34-3.61,1.34-9.63,1.34h0c-6.03,0-7.62,0-9.63-1.34-1.03-.69-1.92-2.04-2.72-4.34.08-.03.1-.13.21-.15.18-.04.3.06.45.15.22.12.47.31.73.34.1,0,.24-.05.31-.03.39.08.61.67,1.12.55.07-.02.2-.12.23-.12.24-.03.28.21.44.24.22.04.09-.05.26-.09.17-.04.3-.03.49-.03.17,0,.61.07.77,0,.11-.04.12-.13.22-.19.28-.16.55-.02.87-.12.01-.08.03-.16.04-.24.58-.25.7.53,1.03-.33.11-.27.48-1.5.89-1.14.55-1.31-.06-2.76-.29-4.03-.26-.04-.37.21-.61.07-.3-.17-.23-.75-.35-1.02-.16-.36-.52-.49-.71-.88-.03-.07-.09-.46-.15-.53-.11-.13-.29-.19-.4-.34-.26-.33-.25-.66-.43-1.01-.18-.34-.51-.61-.69-.94-.19-.32-.42-.56-.7-.83-.63-.62-1.03-1.41-1.67-2.01.85.37,1.74.77,2.53,1.25.39.24.73.42,1.06.76.15.15.39.55.62.62-.02-.17-.06-.34.02-.49.58.02,1.15.8,1.52,1.19.56-.2.88.79,1.38.92.01-.08.06-.15.13-.19.33.28.52.66.75,1.03.26-.04.05-1.21.4-1.43.34.21.46.76.74,1.05.22.23.4.44.64.64.16.13.33.26.49.39h0c.17-.13.33-.25.49-.39.24-.2.42-.41.64-.64.28-.29.4-.84.74-1.05.35.22.14,1.39.4,1.43.23-.37.42-.75.75-1.03.07.04.12.11.13.19.5-.13.82-1.12,1.38-.92.38-.39.94-1.17,1.52-1.19.08.15.04.31.02.49.24-.07.47-.47.62-.62.33-.34.67-.52,1.06-.76.78-.48,1.67-.88,2.53-1.25-.64.6-1.04,1.39-1.67,2.01-.28.27-.51.51-.7.83-.19.33-.51.6-.69.94-.19.35-.17.69-.43,1.01-.12.15-.3.21-.4.34-.06.08-.12.47-.15.53-.19.39-.55.52-.71.88-.12.27-.05.85-.35,1.02-.24.14-.35-.11-.61-.07-.22,1.27-.83,2.72-.29,4.03.41-.35.79.87.89,1.14.33.86.45.08,1.03.33.01.08.03.16.04.24.32.11.58-.04.87.12.1.06.11.15.22.19.16.06.6,0,.77,0,.19,0,.32-.01.49.03.17.05.04.13.26.09.16-.03.2-.26.44-.24.03,0,.16.11.23.12.51.13.73-.46,1.12-.55.07-.02.22.03.32.03.26-.02.51-.22.73-.34.15-.08.27-.19.45-.15.11.02.13.12.21.15Z" style="stroke-width:0px;fill:#4e5150"/><path d="m38.38,22.82v.76c-.3-.12-.62-.22-.93-.32-.14-.05-.28-.08-.42-.12.83-.22,1.35-.32,1.35-.32Z" style="fill:#fff;stroke-width:0px"/><path d="m53.24,45c-.08.98-.2,2.02-.38,3.12-.66,4.18-1.35,7.26-2.13,9.46-.08-.03-.1-.13-.21-.15-.18-.04-.3.06-.45.15-.22.12-.47.31-.73.34-.1,0-.24-.05-.32-.03-.39.08-.61.67-1.12.55-.07-.02-.2-.12-.23-.12-.24-.03-.28.21-.44.24-.22.04-.09-.05-.26-.09-.17-.04-.3-.03-.49-.03-.17,0-.61.07-.77,0-.11-.04-.12-.13-.22-.19-.28-.16-.55-.02-.87-.12-.01-.08-.03-.16-.04-.24-.58-.25-.7.53-1.03-.33-.11-.27-.48-1.5-.89-1.14-.55-1.31.06-2.76.29-4.03.26-.04.37.21.61.07.3-.17.23-.75.35-1.02.16-.36.52-.49.71-.88.03-.07.09-.46.15-.53.11-.13.29-.19.4-.34.26-.33.25-.66.43-1.01.18-.34.51-.61.69-.94.19-.32.42-.56.7-.83.63-.62,1.03-1.41,1.67-2.01-.85.37-1.74.77-2.53,1.25-.39.24-.73.42-1.06.76-.15.15-.39.55-.62.62.02-.17.06-.34-.02-.49-.58.02-1.15.8-1.52,1.19-.56-.2-.88.79-1.38.92-.01-.08-.06-.15-.13-.19-.33.28-.52.66-.75,1.03-.26-.04-.04-1.21-.4-1.43-.34.21-.46.76-.74,1.05-.22.23-.4.44-.64.64-.16.13-.33.26-.49.38,0,0,0,0,0,0h0c-.17-.13-.33-.25-.49-.39-.24-.2-.42-.41-.64-.64-.28-.29-.4-.84-.74-1.05-.35.22-.14,1.39-.4,1.43-.22-.37-.42-.75-.75-1.03-.07.04-.12.11-.13.19-.5-.13-.82-1.12-1.38-.92-.38-.39-.94-1.17-1.52-1.19-.08.15-.04.31-.02.49-.24-.07-.47-.47-.62-.62-.33-.34-.68-.52-1.06-.76-.78-.48-1.67-.88-2.53-1.25.64.6,1.04,1.39,1.67,2.01.28.27.51.51.7.83.19.33.51.6.69.94.19.35.17.69.43,1.01.12.15.3.21.4.34.06.08.12.47.15.53.19.39.55.52.71.88.12.27.05.85.35,1.02.24.14.35-.11.61-.07.23,1.27.83,2.72.29,4.03-.41-.35-.79.87-.89,1.14-.33.86-.45.08-1.03.33-.01.08-.03.16-.04.24-.31.11-.58-.04-.87.12-.1.06-.11.15-.22.19-.16.06-.6,0-.77,0-.19,0-.31-.01-.49.03-.17.05-.05.13-.26.09-.16-.03-.2-.26-.44-.24-.03,0-.16.11-.23.12-.51.13-.73-.46-1.12-.55-.07-.02-.22.03-.31.03-.26-.02-.51-.22-.73-.34-.15-.08-.27-.19-.45-.15-.11.02-.13.12-.21.15-.78-2.2-1.47-5.28-2.13-9.46-.17-1.1-.3-2.14-.38-3.12.1-.18.23-.35.35-.56.17-.27.11-.57.28-.82.12-.17.35-.2.44-.4.11-.24-.02-.51-.08-.73-.12-.43-.21-1.12-.06-1.56.1-.02.21-.05.31-.06.28-.84-.28-1.7.35-2.42.16-.17.39-.18.4-.46.01-.16-.14-.3-.17-.47-.08-.41.11-.94.2-1.33.12-.49.26-1.01.57-1.47.03-.04.07-.09.11-.13-.01.16,0,.33.03.48.05.25.14.35.28.55.13.2.14.23.14.53,0,.22-.01,2.23.6,1.68.3.41.19.99.46,1.41.19.3.15.19.46.21.16.55.49.93.78,1.41.34-.05.13-.43.53-.14.27.2.62.81.96.81.31,0,.36-.23.7.02.34.24.93,1.24,1.4,1.12.12-1.25,1.46.58,1.81.7.12-.2.15-.46.43-.46.56.02.71,1.37,1.27,1.31.04-.15,0-.28.03-.43.36.02.85.95,1.12,1.23.35.34.73.73,1.16.97h0c.43-.24.81-.62,1.16-.97.27-.28.76-1.2,1.12-1.23.03.15-.01.28.03.43.56.06.71-1.29,1.27-1.31.29,0,.31.26.43.46.34-.11,1.69-1.95,1.81-.7.47.12,1.06-.88,1.4-1.12.34-.25.39-.02.7-.02.34,0,.69-.61.96-.81.4-.29.19.09.53.14.29-.48.62-.87.78-1.41.31-.03.28.08.46-.21.27-.42.16-1,.46-1.41.61.55.6-1.46.6-1.68,0-.3,0-.33.14-.53.13-.2.23-.3.28-.55.03-.16.04-.32.03-.48.04.04.08.08.11.13.31.46.45.98.57,1.47.1.39.29.92.2,1.33-.03.17-.19.31-.17.47.02.28.25.28.4.46.64.71.07,1.58.35,2.42.1.02.21.04.31.06.15.44.06,1.14-.06,1.56-.06.22-.19.49-.08.73.1.21.32.24.44.4.17.24.11.55.28.82.12.2.25.38.35.56Z" style="stroke-width:0px;fill:#6e7472"/><path d="m29.46,61.32s-2.25.76-2.25,1.93.63,1.96,1.33,1.63c.7-.34.65-1.63.65-1.63,0,0,1.11.45,4.09.45s3.73-.17,3.73-1.68-2.35-1.91-3.73-1.85-3.25.92-3.81,1.15Z" style="stroke-width:0px;fill:#6e7472"/><path d="m29.36,60.61s-1.21.02-1.18,1.6.88,3.11,1.85,2.94c.97-.17.17-2.36.21-3.11.04-.76-.08-1.39-.88-1.43Z" style="stroke-width:0px;fill:#888988"/><path d="m31.89,59.81s-1.12.01-1,2.02c.12,2.01.33,3.38,1.17,3.33.84-.05.88-1.82.93-2.96.04-1.14.08-2.69-1.09-2.4Z" style="stroke-width:0px;fill:#888988"/><path d="m34.77,60.19s-1.03.11-1.03,1.31.23,2.1,0,2.91c-.23.82.64,1.21,1.46.23.81-.98.52-2.52.52-3.3s-.23-1.23-.94-1.16Z" style="stroke-width:0px;fill:#888988"/><path d="m37.24,60.62s-.89.11-.89,1.25.2,1.99,0,2.77c-.2.78.56,1.15,1.26.22.7-.93.45-2.4.45-3.14s-.2-1.17-.81-1.1Z" style="stroke-width:0px;fill:#888988"/><path d="m48.57,60.45s2.34.91,2.34,2.33-.65,2.37-1.38,1.96c-.73-.41-.67-1.96-.67-1.96,0,0-1.15.54-4.24.54s-3.86-.2-3.86-2.03,2.43-2.3,3.86-2.23,3.37,1.11,3.95,1.39Z" style="stroke-width:0px;fill:#6e7472"/><path d="m48.4,59.2s1.21.02,1.18,2.03c-.03,2.01-.88,3.95-1.85,3.73-.97-.21-.17-2.99-.21-3.95-.04-.96.08-1.76.88-1.81Z" style="stroke-width:0px;fill:#888988"/><path d="m45.87,58.18s1.12.02,1,2.57c-.12,2.55-.33,4.29-1.17,4.22-.84-.07-.88-2.31-.93-3.75-.04-1.44-.08-3.41,1.09-3.04Z" style="stroke-width:0px;fill:#888988"/><path d="m42.99,58.67s1.03.14,1.03,1.67-.23,2.66,0,3.69c.23,1.03-.64,1.54-1.46.3s-.52-3.2-.52-4.19.23-1.56.94-1.47Z" style="stroke-width:0px;fill:#888988"/><path d="m40.52,59.21s.89.13.89,1.59-.2,2.53,0,3.51c.2.98-.56,1.46-1.26.28s-.45-3.05-.45-3.98.2-1.49.81-1.4Z" style="stroke-width:0px;fill:#888988"/><path d="m50.39,32.93c-.05.23-.05.46.01.69.06.47.2.97.1,1.45-.04.25-.14.35-.28.55-.13.2-.14.23-.14.53,0,.22.01,2.23-.6,1.68-.3.41-.19.99-.46,1.41-.19.3-.15.19-.46.21-.16.55-.49.93-.78,1.41-.34-.05-.13-.43-.53-.14-.27.2-.62.81-.96.81-.31,0-.36-.23-.7.02-.34.24-.93,1.24-1.4,1.12-.12-1.25-1.46.58-1.81.7-.12-.2-.15-.46-.43-.46-.56.02-.71,1.37-1.27,1.31-.04-.15,0-.28-.03-.43-.36.02-.85.95-1.12,1.23-.35.34-.73.73-1.16.96,0,0,0,0,0,0h0c-.43-.24-.81-.62-1.16-.97-.27-.28-.76-1.2-1.12-1.23-.03.15.01.28-.03.43-.56.06-.71-1.29-1.27-1.31-.29,0-.31.26-.43.46-.34-.11-1.69-1.95-1.81-.7-.47.12-1.06-.88-1.4-1.12-.34-.25-.39-.02-.7-.02-.34,0-.69-.61-.96-.81-.4-.29-.19.09-.53.14-.29-.48-.62-.87-.78-1.41-.31-.03-.28.08-.46-.21-.27-.42-.16-1-.46-1.41-.61.55-.6-1.46-.6-1.68,0-.3,0-.33-.14-.53-.13-.2-.23-.3-.28-.55-.1-.48.04-.97.1-1.45.06-.23.06-.46.01-.69-.08-.08-.17-.1-.27-.07-.22-.16-.19-.66-.16-.98.4-.82.86-1.62,1.36-2.43,2.37-3.87,7.34-5.65,9.74-6.31.14.04.28.08.42.12.31.1.62.2.93.32v9.4s-.07-.02-.11-.03c-1.54-.4-3.08-.61-4.61-.07-.78.28-2,.52-2.21,1.46-.11.48-.16.79-.4,1.2-.08.13-.13.31-.19.46-.1.23-.09.39-.12.64-.05.33-.15.43-.43,1.54h0c.34.48.72.93,1.05,1.42.21.3.52.9.82.32.13.1.28.23.39.35.06.05.2.25.26.28.17.08.35.06.54.16.2.11.3.33.54.39.17-.3.2-.29.56-.1.35.19.53.53.91.57.12.02.24-.03.37,0,.19.04.31.2.48.25.29.09.6,0,.91.1.49.15.87.48,1.24.83h0c.37-.35.75-.68,1.24-.83.3-.09.61,0,.91-.1.17-.06.3-.21.48-.25.13-.03.24.02.37,0,.38-.04.56-.38.91-.57.36-.2.38-.21.56.1.24-.06.34-.28.54-.39.19-.1.37-.07.54-.16.06-.03.21-.23.26-.28.12-.12.26-.25.39-.35.3.58.61-.02.82-.32.33-.49.71-.94,1.05-1.41h0c-.28-1.11-.38-1.21-.43-1.54-.03-.25-.02-.41-.12-.64-.06-.15-.11-.32-.19-.46-.24-.4-.29-.71-.4-1.2-.21-.93-1.43-1.18-2.21-1.46-1.52-.53-3.07-.33-4.61.07-.04.01-.07.02-.11.03v-9.4c.3-.12.61-.22.93-.32.13-.05.28-.08.42-.12,2.4.66,7.37,2.44,9.74,6.31.49.81.95,1.61,1.36,2.43.03.33.06.83-.16.98-.1-.03-.19-.01-.27.07Z" style="stroke-width:0px;fill:#4f4f4f"/><rect x="38.37" y="23.59" width="0" height="9.4" style="stroke-width:0px;fill:#4f4f4f"/><path d="m46.43,38.17h0c-.34.48-.72.93-1.05,1.42-.21.3-.52.9-.82.32-.13.1-.28.23-.39.35-.06.05-.2.25-.26.28-.17.08-.35.06-.54.16-.2.11-.3.33-.54.39-.17-.3-.2-.29-.56-.1-.35.19-.53.53-.91.57-.12.02-.24-.03-.37,0-.19.04-.31.2-.48.25-.29.09-.6,0-.91.1-.49.15-.87.48-1.24.83h0s0,0,0,0c-.37-.34-.75-.67-1.24-.83-.3-.09-.61,0-.91-.1-.17-.06-.3-.21-.48-.25-.13-.03-.24.02-.37,0-.38-.04-.56-.38-.91-.57-.36-.2-.38-.21-.56.1-.24-.06-.34-.28-.54-.39-.19-.1-.37-.07-.54-.16-.06-.03-.21-.23-.26-.28-.12-.12-.26-.25-.39-.35-.3.58-.61-.02-.82-.32-.33-.49-.71-.94-1.05-1.41h0c.28-1.11.38-1.21.43-1.54.03-.25.02-.41.12-.64.06-.15.11-.32.19-.46.24-.4.29-.71.4-1.2.21-.93,1.43-1.18,2.21-1.46,1.52-.53,3.07-.33,4.61.07.04.01.07.02.11.03h0s.07-.02.11-.03c1.54-.4,3.08-.61,4.61-.07.78.28,2,.52,2.21,1.46.11.48.16.79.4,1.2.08.13.13.31.19.46.1.23.09.39.12.64.04.33.15.43.43,1.54Z" style="stroke-width:0px;fill:#353535"/><path d="m30.31,38.17c-.06-.07-.11-.15-.16-.23.08.06.14.13.16.23Z" style="fill:#fff;stroke-width:0px"/><path d="m26.35,33.63c-.04.31-.11.64-.13.96-.04.04-.08.08-.11.13-.31.46-.45.98-.57,1.47-.1.39-.29.92-.2,1.33.03.17.19.31.17.47-.02.28-.25.28-.4.46-.64.71-.07,1.58-.35,2.42-.1.02-.21.04-.31.06-.15.44-.06,1.14.06,1.56.06.22.19.49.08.73-.1.21-.32.24-.44.4-.17.24-.11.55-.28.82-.12.2-.25.38-.35.56-.44-5.48.53-9.38,2.42-13.12-.03.33-.06.83.16.98.1-.03.19-.01.27.07.05.23.05.46-.01.69Z" style="stroke-width:0px;fill:#888988"/><path d="m38.37,22.82v.76c.3-.12.62-.22.93-.32.14-.05.28-.08.42-.12-.83-.22-1.35-.32-1.35-.32Z" style="fill:#fff;stroke-width:0px"/><rect x="38.37" y="23.59" width="0" height="9.4" style="stroke-width:0px;fill:#4f4f4f"/><path d="m46.44,38.17c.06-.07.11-.15.16-.23-.08.06-.14.13-.16.23Z" style="fill:#fff;stroke-width:0px"/><path d="m42.81,19.32c.45-.31.94-.56,1.4-.66.75-.15,1.57.03,2.34-.05-.1.05-1.01.64-1.01.71.07.53,1.58.45,1.98.56-.44.18.52.71.47,1-.06.35-.3,0,.03.46.28.38.92.68.94,1.21-.12.06-.25.11-.37.14.11.21.17.41.33.59.2.24.85.37.91.67-.28.07-.71-.13-.74.22-.03.35.69.73.84,1.05-.32-.01-.65-.23-.97-.12-.03.29.51.88.75,1.05.49.34,1.2.36,1.74.62.28.13.58.45.87.49.01-.11.02-.22.03-.33.69-.4,1.32.81,1.95.54.09-.24-.06-.61-.14-.81-.03-.09-.24-.5-.18-.6.15-.22,1.14.03,1.42-.02.1-.21-.27-.55-.25-.82.28-.12.96.37,1.19.13.21-.21-.12-.79-.16-1.09.52.03,1.09.27,1.63.42.18.05.64.14,1.09.25-.14-.37-.67-.82-.92-1.07-.13-.15-.79-.62-.89-.89.25-.06.66.14.83-.08-.07-.52-.64-.93-.93-1.32.3-.08.61.09.91-.06-.06-.49-.69-.54-.89-.92.12-.02.25,0,.37-.05.03-.57-1.12-.71-1.27-1.23.18-.08.36-.15.56-.18.13-.56-1.02-.52-1.23-.64.23-.09.93-.26.78-.61-.16-.34-1.06-.39-1.38-.59.13-.3.86-.32.85-.65-.39-.1-.85,0-1.25-.02-.4-.01-.79-.05-1.19-.15-.4-.1-.71-.14-1.12-.14-.64,0-1.4,0-1.93.39.24-.26.19-.55-.27-.55s-.89.2-1.33.3c-.43.11-.78.07-1.18.1-.57.04-1.44.31-1.99.53-.41.16-.8.57-1.26.63l.07.14c-.21.05-.34.08-.34.08-.57.13-.93.62-1.1,1.31Z" style="fill:#fff;stroke-width:0px"/><path d="m44.18,25.28c.04.06.08.12.12.19.31.82.71,1.59,1.01,2.41.31.87.61,1.77,1.27,2.45.46.47,1.05.78,1.55,1.21.14.12.27.22.4.3.13-.01.23.05.29.17.06.15.15.28.28.37.28-.16.34-.54.45-.82.31-.02.65.49.85.7.24.25.52.35.81.57.2.16.7.46.96.25.11-.08.07-.3.19-.38.14-.1.37.02.52-.02.26-.07.31-.43.58-.44.16-.01.27.18.43.17.26-.01.28-.25.36-.45.07-.17.18-.53.39-.55.14,0,.28.27.5.26.66-.01.33-1.36.44-1.81.69-.05.6-.38.71-.98.18-.03.35.01.53-.03.08-.42.02-.92-.15-1.31.16.07.97.2,1.11.05.3-.3-.47-1.1-.54-1.39.41-.06.89.11,1.28,0-.08-.43-.48-.7-.57-1.1.32-.07.65.02.98-.01,0-.05-.01-.09-.03-.14-.45-.11-.91-.2-1.09-.25-.54-.15-1.11-.39-1.63-.42.04.29.37.88.16,1.09-.23.24-.91-.25-1.19-.13-.02.28.34.61.25.82-.28.05-1.27-.2-1.42.02-.06.1.15.51.18.6.07.2.22.57.14.81-.62.27-1.26-.94-1.95-.54-.01.11-.02.21-.03.33-.29-.04-.6-.36-.87-.49-.54-.26-1.25-.28-1.74-.62-.24-.17-.78-.76-.75-1.05.31-.11.65.11.97.12-.15-.32-.88-.7-.84-1.05.03-.35.46-.16.74-.22-.06-.3-.7-.43-.91-.67-.16-.19-.22-.38-.33-.59.12-.03.25-.08.37-.14-.02-.53-.67-.83-.94-1.21-.33-.46-.08-.11-.03-.46.05-.29-.91-.82-.47-1-.4-.11-1.91-.03-1.98-.56,0-.07.91-.67,1.01-.71-.77.08-1.59-.11-2.34.05-.46.1-.95.34-1.4.66-.37,1.54.18,4.08,1.37,5.96Z" style="stroke-width:0px;fill:#d1d3d4"/><path d="m33.93,19.32c-.45-.31-.94-.56-1.4-.66-.75-.15-1.57.03-2.34-.05.1.05,1.01.64,1.01.71-.07.53-1.58.45-1.98.56.44.18-.52.71-.47,1,.06.35.3,0-.03.46-.28.38-.92.68-.94,1.21.12.06.25.11.37.14-.11.21-.17.41-.33.59-.2.24-.85.37-.91.67.28.07.71-.13.74.22.03.35-.69.73-.84,1.05.32-.01.65-.23.97-.12.03.29-.51.88-.75,1.05-.49.34-1.2.36-1.74.62-.28.13-.58.45-.87.49-.01-.11-.02-.22-.03-.33-.69-.4-1.32.81-1.95.54-.09-.24.06-.61.14-.81.03-.09.24-.5.18-.6-.15-.22-1.14.03-1.42-.02-.1-.21.27-.55.25-.82-.28-.12-.96.37-1.19.13-.21-.21.12-.79.16-1.09-.52.03-1.09.27-1.63.42-.18.05-.64.14-1.09.25.14-.37.67-.82.92-1.07.13-.15.79-.62.89-.89-.25-.06-.66.14-.83-.08.07-.52.64-.93.93-1.32-.3-.08-.61.09-.91-.06.06-.49.69-.54.89-.92-.12-.02-.25,0-.37-.05-.03-.57,1.12-.71,1.27-1.23-.18-.08-.36-.15-.56-.18-.14-.56,1.02-.52,1.23-.64-.23-.09-.93-.26-.78-.61.16-.34,1.06-.39,1.38-.59-.13-.3-.86-.32-.85-.65.39-.1.85,0,1.25-.02.4-.01.79-.05,1.19-.15.4-.1.71-.14,1.12-.14.64,0,1.4,0,1.93.39-.24-.26-.19-.55.27-.55s.89.2,1.33.3c.43.11.78.07,1.18.1.57.04,1.44.31,1.99.53.41.16.8.57,1.26.63l-.07.14c.21.05.34.08.34.08.57.13.93.62,1.1,1.31Z" style="fill:#fff;stroke-width:0px"/><path d="m32.57,25.28c-.04.06-.08.12-.12.19-.31.82-.71,1.59-1.01,2.41-.31.87-.61,1.77-1.27,2.45-.46.47-1.05.78-1.55,1.21-.14.12-.27.22-.4.3-.13-.01-.23.05-.29.17-.06.15-.15.28-.28.37-.28-.16-.34-.54-.45-.82-.31-.02-.65.49-.85.7-.24.25-.52.35-.81.57-.2.16-.7.46-.96.25-.11-.08-.07-.3-.19-.38-.14-.1-.37.02-.52-.02-.26-.07-.31-.43-.58-.44-.16-.01-.27.18-.43.17-.26-.01-.28-.25-.36-.45-.07-.17-.18-.53-.39-.55-.14,0-.28.27-.5.26-.66-.01-.33-1.36-.44-1.81-.69-.05-.6-.38-.71-.98-.18-.03-.35.01-.53-.03-.08-.42-.02-.92.15-1.31-.16.07-.97.2-1.11.05-.3-.3.47-1.1.54-1.39-.41-.06-.89.11-1.28,0,.08-.43.48-.7.57-1.1-.32-.07-.65.02-.98-.01,0-.05.01-.09.03-.14.45-.11.91-.2,1.09-.25.54-.15,1.11-.39,1.63-.42-.04.29-.37.88-.16,1.09.23.24.91-.25,1.19-.13.02.28-.34.61-.25.82.28.05,1.27-.2,1.42.02.06.1-.15.51-.18.6-.07.2-.22.57-.14.81.62.27,1.26-.94,1.95-.54.01.11.02.21.03.33.29-.04.6-.36.87-.49.54-.26,1.25-.28,1.74-.62.24-.17.78-.76.75-1.05-.31-.11-.65.11-.97.12.15-.32.88-.7.84-1.05-.03-.35-.46-.16-.74-.22.06-.3.7-.43.91-.67.16-.19.22-.38.33-.59-.12-.03-.25-.08-.37-.14.02-.53.67-.83.94-1.21.33-.46.08-.11.03-.46-.05-.29.91-.82.47-1,.4-.11,1.91-.03,1.98-.56,0-.07-.91-.67-1.01-.71.77.08,1.59-.11,2.34.05.46.1.95.34,1.4.66.37,1.54-.18,4.08-1.37,5.96Z" style="stroke-width:0px;fill:#d1d3d4"/><path d="m49.1,34.95c.01.32.07.66-.02.96-.15.03-.22-.1-.31-.19-.08.15-.17.28-.26.42.01.2.04.39.03.54.04.11.04.21,0,.3-.02.06-.06.09-.14.09-.1.25-.11.55-.22.81-.05.13-.26.63-.38.7-.11.07-.26-.01-.39.03-.27.1-.24.31-.56.23-.19-.05-.21-.21-.43-.06-.23.15-.08.52-.42.61-.21-.1-.13-.38-.41-.4-.28-.03-.35.38-.53.49-.41.25-.36-.1-.67-.18-.47-.12-.44.76-.88.53-.2-.11-.11-.34-.44-.25-.25.07-.38.61-.69.55-.07-.14-.11-.28-.19-.4-.21-.02-.42.31-.6.4-.1.05-.19.04-.29.1-.12.07-.16.2-.33.19-.01-.08-.03-.17-.05-.25-.25.06-.43.04-.69.08-.3.05-.24.21-.42-.1-.16-.28-.16-.4-.42-.57-.19-.11-.29-.21-.46-.38-.14-.14-.29-.28-.45-.39-.04-.03-.08-.06-.12-.09h0s-.08.06-.12.09c-.16.11-.31.25-.45.39-.17.17-.27.27-.46.38-.26.16-.26.29-.42.57-.18.3-.11.15-.42.1-.25-.04-.43-.02-.69-.08-.02.08-.03.17-.05.25-.16.01-.2-.11-.33-.19-.1-.06-.19-.05-.29-.1-.18-.09-.39-.42-.6-.4-.08.13-.12.27-.19.4-.3.07-.43-.47-.69-.55-.33-.1-.24.14-.44.25-.43.23-.41-.66-.88-.53-.32.08-.26.43-.67.18-.19-.11-.25-.52-.53-.49-.28.03-.2.31-.41.4-.34-.08-.19-.46-.42-.61-.22-.15-.24.02-.43.06-.33.08-.29-.14-.56-.23-.12-.05-.28.03-.39-.03-.11-.07-.33-.57-.38-.7-.11-.26-.12-.56-.22-.81-.07,0-.12-.03-.13-.09-.05-.09-.05-.19,0-.3,0-.15.02-.34.03-.54-.09-.14-.18-.27-.26-.42-.1.09-.17.21-.31.19-.08-.3-.03-.64-.02-.96-1.21-3.58,1.1-8.31,1.7-9.67.13-.3.29-.75.47-1.29.13-.14.21-.29.34-.44.37-.43.51-1.01.71-1.54.25-.65.48-1.34.94-1.87,0,.11-.03.22,0,.33.26-.04.52-.36.7-.52.07-.06.29-.29.43-.24.17.06.06.42.09.57.26.05.59-.29.84-.35.07-.02.28-.06.34,0,.07.06,0,.12.03.17.07.19-.01.19.24.19.26,0,.55-.05.8.02-.05.17-.5.52-.2.72.11.08.35.01.49.08.11.06.12.16.27.12.31.66.33.67.36.67.03.19.11.34.12.53.47.13.97.27,1.45.37.2.04.4.07.6.08h0c.2-.02.4-.05.6-.08.48-.1.98-.24,1.45-.37,0-.19.08-.34.12-.53.03,0,.05-.01.36-.67.15.05.16-.06.27-.12.14-.07.38,0,.49-.08.29-.2-.16-.55-.2-.72.25-.07.54-.02.8-.02.25,0,.16,0,.24-.19.02-.06-.04-.12.03-.17.07-.06.27-.02.34,0,.25.06.58.4.84.35.03-.15-.08-.51.09-.57.14-.05.36.18.43.24.18.16.44.48.7.52.03-.11,0-.22,0-.33.46.53.7,1.22.94,1.87.2.53.34,1.11.71,1.54.13.15.21.3.34.44.17.53.33.98.47,1.29.6,1.36,2.92,6.1,1.7,9.67Z" style="stroke-width:0px;fill:#4f4f4f"/><path d="m46.93,23.99c-.13-.14-.21-.29-.34-.44-.37-.43-.51-1.01-.71-1.54-.25-.65-.48-1.34-.94-1.87,0,.11.03.22,0,.33-.26-.04-.52-.36-.7-.52-.07-.06-.29-.29-.43-.24-.17.06-.06.42-.09.57-.26.05-.59-.29-.84-.35-.07-.02-.28-.06-.34,0-.07.06,0,.12-.03.17-.07.19.01.19-.24.19-.26,0-.55-.05-.8.02.05.17.49.52.2.72-.11.08-.35.01-.49.08-.11.06-.12.16-.27.12-.31.66-.33.67-.36.67-.03.19-.11.34-.12.53-.47.13-.97.27-1.45.37-.2.04-.4.07-.6.08h0c-.2-.02-.4-.05-.6-.08-.48-.1-.98-.24-1.45-.37,0-.19-.08-.34-.12-.53-.03,0-.05-.01-.36-.67-.15.05-.16-.06-.27-.12-.14-.07-.38,0-.49-.08-.29-.2.16-.55.2-.72-.25-.07-.54-.02-.8-.02-.25,0-.16,0-.24-.19-.02-.06.04-.12-.03-.17-.07-.06-.27-.02-.34,0-.25.06-.58.4-.84.35-.03-.15.08-.51-.09-.57-.14-.05-.36.18-.43.24-.18.16-.44.48-.7.52-.03-.11,0-.22,0-.33-.46.53-.7,1.22-.94,1.87-.2.53-.34,1.11-.71,1.54-.13.15-.21.3-.34.44.62-1.88,1.48-4.82,2.48-6.36,1.27-1.92,5.88-2.08,6.07-2.09h0c.19,0,4.81.16,6.07,2.09,1,1.54,1.86,4.47,2.48,6.36Z" style="stroke-width:0px;fill:#787878"/><path d="m46.82,28.56s-2.36.86-2.79,1.09c-.43.22.32,1.91-.52,2.42-.84.51-.85,2.37-3.79,2.28h0c-.35-.21-.75-.37-1.34-.37s-.99.16-1.34.37h-.19c-2.75,0-2.78-1.79-3.6-2.28-.84-.51-.08-2.19-.51-2.42-.43-.23-2.79-1.09-2.79-1.09-.92-1.12,2.61-5.2,3.07-6.32.21-.49.97-.83,1.9-1.05,0,0,.48.58,1.16,1.32.67.74,1.55,1.64,2.31,2.29.76-.65,1.64-1.55,2.31-2.29.67-.74,1.16-1.32,1.16-1.32.93.22,1.7.55,1.9,1.05.46,1.12,3.99,5.2,3.07,6.32Z" style="stroke-width:0px;fill:#888988"/><path d="m37.24,27s-1.17-.69-1.66-1.06-1.26-.86-1.97-.58c-.7.28-2.3,1.35-2.52,1.78-.22.43.25-.15,1.26.19s1.64.73,2.76.55,1.7-.48,1.91-.55c.21-.06.84.06.21-.33Z" style="stroke-width:0px;fill:#6e7472"/><path d="m41.85,21.2s-1.93,2.32-3.47,3.62c-1.54-1.3-3.48-3.62-3.48-3.62.59-.14,1.24-.23,1.86-.28.62-.06,1.19-.08,1.62-.08s1,.02,1.62.08c.61.05,1.26.14,1.85.28Z" style="fill:#fff;stroke-width:0px"/><path d="m37.7,32.06s-.53-.86-1.06-.86-.51.74,0,.86c.51.12,1.53.57,1.06,0Z" style="stroke-width:0px;fill:#231f20"/><path d="m42.91,35.01c-.31.46-.6.86-.85,1.15-1.38,1.55-3.68,1.41-3.68,1.41,0,0-2.31.14-3.68-1.41-.25-.29-.55-.69-.85-1.15.43.13,1.02.24,1.65.1,1.23-.28,1.54-1.12,2.89-1.12s1.66.84,2.89,1.12c.62.15,1.21.04,1.65-.1Z" style="stroke-width:0px;fill:#6e7472"/><path d="m38.38,31.77c-.74,0-1.66-1.68-1.34-1.92.31-.25,1.34-2.71,1.34-2.71,0,0,1.02,2.46,1.34,2.71.32.25-.6,1.92-1.34,1.92Z" style="stroke-width:0px;fill:#6e7472"/><path d="m37.03,34.35c-.45.26-.86.6-1.54.76-.62.14-1.22.04-1.65-.1-1.38-2.08-3.16-5.52-3.9-6.44,0,0,2.36.86,2.79,1.08.43.23-.32,1.91.51,2.42.84.51.86,2.37,3.79,2.28Z" style="stroke-width:0px;fill:#b5b5b6"/><path d="m33.99,28.37s-.09-.02-.13-.03c-1.26-.3-1.29-1.35-1.29-1.35,0,0,.63-.69,1.49-.71-.2.24-.43.64-.44,1.22-.01.42.14.69.38.87Z" style="stroke-width:0px;fill:#3c2415"/><path d="m36.24,27.7c-.34.38-1.08.91-2.26.68-.23-.18-.39-.45-.38-.87.02-.58.24-.97.44-1.22.1,0,.21,0,.32.02,1.01.17,1.87,1.39,1.87,1.39Z" style="stroke-width:0px;fill:#231f20"/><path d="m35.12,27.36c0,.29-.23.52-.52.52s-.52-.23-.52-.52.23-.52.52-.52.52.23.52.52Z" style="stroke-width:0px;fill:#231f20"/><circle cx="34.95" cy="27" r=".35" style="fill:#fff;stroke-width:0px"/><path d="m39.51,27s1.17-.69,1.66-1.06,1.26-.86,1.97-.58c.7.28,2.3,1.35,2.52,1.78.22.43-.25-.15-1.26.19s-1.64.73-2.76.55-1.7-.48-1.91-.55c-.21-.06-.84.06-.21-.33Z" style="stroke-width:0px;fill:#6e7472"/><path d="m39.05,32.06s.53-.86,1.06-.86.51.74,0,.86c-.51.12-1.53.57-1.06,0Z" style="stroke-width:0px;fill:#231f20"/><path d="m39.72,34.35c.45.26.86.6,1.54.76.62.14,1.22.04,1.65-.1,1.38-2.08,3.16-5.52,3.9-6.44,0,0-2.36.86-2.79,1.08-.43.23.32,1.91-.51,2.42-.84.51-.86,2.37-3.79,2.28Z" style="stroke-width:0px;fill:#b5b5b6"/><path d="m42.76,28.37s.09-.02.13-.03c1.26-.3,1.29-1.35,1.29-1.35,0,0-.63-.69-1.49-.71.2.24.43.64.44,1.22.01.42-.14.69-.38.87Z" style="stroke-width:0px;fill:#3c2415"/><path d="m40.5,27.7c.34.38,1.08.91,2.26.68.23-.18.39-.45.38-.87-.02-.58-.24-.97-.44-1.22-.1,0-.21,0-.32.02-1.01.17-1.87,1.39-1.87,1.39Z" style="stroke-width:0px;fill:#231f20"/><path d="m41.63,27.36c0,.29.23.52.52.52s.52-.23.52-.52-.23-.52-.52-.52-.52.23-.52.52Z" style="stroke-width:0px;fill:#231f20"/><circle cx="41.8" cy="27" r=".35" style="fill:#fff;stroke-width:0px"/></g></g></svg>