<?xml version="1.0" encoding="UTF-8"?><svg data-name="Layer 2" xmlns="http://www.w3.org/2000/svg" viewBox="0 0 121.94 54.56"><defs/><g data-name="100"><g><path d="m49.84,40s2.68,5.53,2.68,6.87-1.51,4.36-2.68,4.36-3.35,2.5-1.34,2.5h7.04c2.01,0,3.19-5.03,4.02-6.86s2.68-12.73.67-13.91-14.42-3.02-10.39,7.04Z" style="stroke-width:0px;fill:#353435"/><path d="m93.59,42.88s-1.01,6.18-4.19,7.02c-3.19.84-3.35,3.02-2.18,3.02h7.21c2.01,0,2.68-.17,6.04-4.02,3.35-3.86,7-11.55,8.03-14.07,1.03-2.52-15.24-3.65-14.9,8.06Z" style="stroke-width:0px;fill:#353435"/><path d="m111.04,38.34c-9.3,6.29-20.14,7.45-35.22,7.45s-21.63-5.53-30.93-4.05c-9.3,1.48-16.6-1.48-16.6-1.48-.49-.32-.91-.72-1.24-1.21,1.35-1.18,2.92-2.42,4.71-3.73,0,0,.97,2.03,7.01,0,6.04-2.03,2.51,2.48,27.66,4,25.15,1.52,39.95-4.05,42.11-7.3,2.12-3.21,10.59-5.7,11.98-15.92.91,14.41-.93,16.47-9.47,22.24Z" style="fill:#474546;stroke-width:0px"/><path d="m39.07,16.14c-.62,2.59-1.56,5.25-2.52,7.44-.24.55-.47,1.11-.69,1.69-.01.01-.02.02-.03.03-3.77,4.78-2.89,8.68-4.65,11.06s-3.14.38-3.27-1.13c-.13-1.51.55-10.42,1.63-11.82,1.08-1.4.52-6.96,0-3.52-.52,3.44-2.14,8.05-2.3,11.32-.16,3.27-.09,5.78-1.51,5.78s-2.6-1.13-3.73-1.76c-1.13-.63-2.64-.13-6.94,2.39-4.3,2.51-7.64,1.26-6.38.25s2.14-5.41,2.51-6.79c.38-1.38,1.89-2.39,3.39-3.14,1.51-.75-.88-1.13-2.89.75-2.01,1.89-1.76,3.02-3.9,6.79-2.14,3.77-6.89,3.85-6.89,3.85-.22-.21-.4-.69-.59-2.1-.25-1.95-.51-5.19-.12-7.31h0s1.31-.41,2.82,0c1.51.41,4.65,1.1,4.53,0-.13-1.1.75-4.12,2.64-5.63,1.89-1.51.92-4.77,1.38-6.79.46-2.02,3.02-2.01,5.16-1.76s6.29.65,5.16-.12c-1.13-.76-3.27-1.77-.63-3.15,2.28-1.19,6.62-3.54,9.55-4.21,0,0,2.44.73,2.44,4.59s-2.01,7.89,0,9.73c1.55,1.42,3.6-2.34,5.83-6.44Z" style="stroke-width:0px;fill:#696466"/><path d="m120.52,16.1c-1.39,10.22-9.85,12.71-11.98,15.92-2.15,3.25-16.96,8.82-42.11,7.3-25.15-1.52-21.63-6.03-27.66-4-6.04,2.03-7.01,0-7.01,0-1.8,1.31-3.36,2.55-4.71,3.73-4.52-6.46,3.8-26.78,7.78-31.08.54-.59,1.08-1.09,1.63-1.51.71,1.46,1.63,2.97,2.61,4.54,0,0,1.41,5.34.72,8.79-.69,3.45,2.36,2.78,6.96,1.27s7.78,2.94,29.24,2.73c21.46-.21,25.98-6.03,29.51-6.39,3.52-.36,12.74-9.74,14.84-3.79.08.84.14,1.67.18,2.49Z" style="stroke-width:0px;fill:#696466"/><path d="m35.86,25.26c-2.45,6.46-3.37,14.02-5.16,15.45-1.95,1.56-3.77,0-3.77,0,0,0-1.95,1.56-4.42-.65,0,0-1.43-.65-4.54.65-3.12,1.3-5.71,3.12-9.74,2.34-4.03-.78-5.59-2.27-6.36-3.15,0,0,5.17-.4,6.55-3.29,1.38-2.89,1.83-5.43,3.44-6.75-.31.37-.55.77-.67,1.21-.38,1.38-1.26,5.78-2.51,6.79s2.08,2.26,6.38-.25c4.3-2.51,5.81-3.02,6.94-2.39,1.13.63,2.31,1.76,3.73,1.76s1.35-2.51,1.51-5.78c.16-3.27,1.78-7.87,2.3-11.32.52-3.44,1.08,2.12,0,3.52-1.08,1.4-1.76,10.31-1.63,11.82.13,1.51,1.51,3.52,3.27,1.13s.88-6.29,4.65-11.06c0-.01.01-.02.03-.03Z" style="fill:#474546;stroke-width:0px"/><path d="m14.59,27.93c-1.03.51-2.05,1.14-2.72,1.93h0c-1.6,1.32-2.05,3.86-3.44,6.75-1.38,2.89-6.55,3.29-6.55,3.29-.41-.47-.72-.34-.97-.58,0,0,4.75-.08,6.89-3.85,2.14-3.77,1.89-4.9,3.9-6.79,2.01-1.89,4.4-1.51,2.89-.75Z" style="stroke-width:0px;fill:#353435"/><path d="m39.4,8.07c-1.72-.88-4.57-.1-7.34,0s-8.17,3.02-10.81,4.4c-2.64,1.38-.5,2.39.63,3.15,1.13.76-3.02.37-5.16.12s-4.69-.26-5.16,1.76c-.46,2.02.5,5.28-1.38,6.79-1.89,1.51-2.77,4.53-2.64,5.63.13,1.1-3.02.41-4.53,0-1.51-.41-2.82,0-2.82,0h0c.21-1.15.6-1.98,1.29-2.1,1.95-.35,9.35-8.28,9.35-8.28,0,0-.26-4.44,2.47-4.55l2.73-.11s1.82-2.85,5.06-5.06c3.25-2.21,8.7-3.81,14.94-4.05,1.81-.07,2.86.83,3.37,2.3Z" style="stroke-width:0px;fill:#787576"/><path d="m39.07,16.14c-2.24,4.1-4.29,7.85-5.83,6.44-2.01-1.84,0-5.87,0-9.73s-2.44-4.59-2.44-4.59c.46-.11.89-.18,1.27-.19,2.77-.1,5.62-.88,7.34,0,.69,1.97.41,4.97-.33,8.07Z" style="stroke-width:0px;fill:#787576"/><path d="m120.33,13.61c-2.09-5.94-11.32,3.43-14.84,3.79-3.52.36-8.05,6.18-29.51,6.39-21.46.22-24.64-4.24-29.24-2.73s-7.64,2.18-6.96-1.27c.69-3.45-.72-8.79-.72-8.79-.98-1.57-1.9-3.08-2.61-4.54,3.77-2.94,7.81-2.42,13.96-2.42,7.04,0,34.45-5.28,42.75-3.77,8.3,1.51,26.15,3.02,27.16,13.34Z" style="stroke-width:0px;fill:#787576"/><path d="m21.42,13.01s-1.68-3.23-.75-4.76c.92-1.53,2.85,1.17,2.93,2.38s0,3.3-.75,3.3-.99.06-1.43-.92Z" style="stroke-width:0px;fill:#787576"/><path d="m22.01,13.38s-1.13-2.29-1.07-3.71c.06-1.41.38-1.82,1.07,0,.69,1.82.9,4.54,0,3.71Z" style="stroke-width:0px;fill:#696466"/><path d="m15.5,18.13c0,.94-.76,1.7-1.7,1.7s-1.7-.76-1.7-1.7.76-1.7,1.7-1.7,1.7.76,1.7,1.7Z" style="stroke-width:0px;fill:#f1f2f2"/><circle cx="13.66" cy="18.23" r="1.08" style="stroke-width:0px;fill:#231f20"/><circle cx="14.2" cy="17.33" r=".54" style="stroke-width:0px;fill:#fff"/><path d="m45.79,41.9c-1.89,4.23-5.11,6.37-5.11,6.37,0,0-.57,1.56-1.7,4.17-1.13,2.61-3.98,2.08-6.25,2.08h-2.84s-3.6,0-2.41-1.91c1.19-1.91,4.68-5.21,4.68-5.21,0,0,1.51-2.78,2.65-8.34.36-1.77,1.2-2.91,2.18-3.66-.06.18-2.21,7.4.77,7.85,3.02.45,6.13.77,8.6-6.93.7,1.41.42,3.37-.57,5.59Z" style="fill:#474546;stroke-width:0px"/><path d="m120.08,35.39c0,2.26,0,9.3-1.01,9.58-1.01.28-2.35-3.47-2.35-6.26s-1.51-3.24-3.52-5.56c-2.01-2.31-5.45-.3-5.45-.3-.21-.67-.32-1.11-.32-1.11.19-6.59,5.5-8.28,8.34-5.91,1.22,1.02,2.58,2.47,3.71,4.15.37,2.12.59,4.26.59,5.41Z" style="stroke-width:0px;fill:#696466"/><path d="m46.36,36.31c-2.47,7.7-5.58,7.38-8.6,6.93-2.98-.45-.82-7.67-.77-7.85h0c2.1-1.61,4.84-1.37,4.84-1.37,2.44.17,3.89,1,4.52,2.29Z" style="stroke-width:0px;fill:#696466"/><path d="m121.92,37.45c-.3,4.51-1.4,11.71-2.54,14.24-1.14,2.53-6.25,2-10.05,2s.19-3.69,1.71-4.7c1.52-1.01,2.46-8.95,0-10.64-1.72-1.18-2.8-3.93-3.29-5.48,0,0,3.44-2.01,5.45.3,2.01,2.31,3.52,2.77,3.52,5.56s1.34,6.54,2.35,6.26c1.01-.28,1.01-7.32,1.01-9.58,0-1.15-.22-3.29-.59-5.41,1.5,2.24,2.6,4.88,2.43,7.46Z" style="fill:#474546;stroke-width:0px"/></g></g></svg>