<?xml version="1.0" encoding="UTF-8"?><svg data-name="Layer 2" xmlns="http://www.w3.org/2000/svg" viewBox="0 0 578.93 386.03"><defs/><g data-name="SCOTTISH BLACKFACE"><g><path d="m177.7,268.3l8.67,74.05s-21.35,38.33,0,38.33,33.35-2.31,41.36-23.65c8.01-21.35,0-94.73,0-94.73,0,0-5.93,4-23.64,6.67-17.71,2.67-26.39-.67-26.39-.67Z" style="stroke-width:0px;fill:#959595"/><path d="m439.24,268.3l8.67,74.05s-21.35,38.33,0,38.33,33.35-2.31,41.36-23.65c8-21.35,0-94.73,0-94.73,0,0-5.93,4-23.64,6.67-17.71,2.67-26.39-.67-26.39-.67Z" style="stroke-width:0px;fill:#959595"/><path d="m255.47,272.94c-.23.09-.45.21-.66.33-1.38.82-3.92,2.33-4.7,3.86-.89,1.71-.07,5.88-.05,7.69.02,8.27.02,16.52,0,24.78-.02,8.81-.8,17.39-1.84,26.16-.75,6.23-2.38,11.94-4.06,17.98-.8,2.94-.59,5.85-1.18,8.74-.9,4.51-4.86,7.71-8.42,10.09-3.52,2.37-2.77,4.59-2.77,8.53,0,1.24.09,2.42.12,3.55-5.2,1.13-11.26,1.38-18.33,1.38-21.34,0,0-38.32,0-38.32l-8.67-74.05s8.67,3.34,26.38.68c17.72-2.68,23.65-6.68,23.65-6.68,0,0,.21,1.95.52,5.29Z" style="stroke-width:0px;fill:#d0d2d3"/><path d="m501.45,287.18c-1.64,2.77-.77,5.83-.77,8.93-.02,5-.12,10.01.03,15.02.23,7.05,1.04,13.84,2.14,20.78.52,3.24,1.17,6.58,1.32,9.87.19,3.69,0,7.48,0,11.19,0,2.3-.14,4.28-1.41,6.35-1.6,2.61-4.07,3.64-5.31,6.6-.63,1.53-1.06,3.24-1.18,4.91-.1,1.46.45,3.36.14,4.8-.3,1.08-.84,2.02-1.62,2.84-.64,1.43-1.04,2.89-1.2,4.42-.1.59-.21,1.2-.31,1.81-5.19,1.1-11.19,1.34-18.19,1.34-21.34,0,0-38.32,0-38.32l-8.67-74.05s8.67,3.34,26.38.68c17.72-2.68,23.65-6.68,23.65-6.68,0,0,.44,3.92.99,10.22-2.31.28-4.59.73-6.87,1.43-4.04,1.24-7,4.32-9.14,7.88Z" style="stroke-width:0px;fill:#d0d2d3"/><path d="m254.95,362.38c-5.36,14.29-12.51,20.05-23.04,22.28-.03-1.13-.12-2.31-.12-3.55,0-3.93-.75-6.16,2.77-8.53,3.57-2.38,7.52-5.59,8.42-10.09.59-2.89.38-5.8,1.18-8.74,1.67-6.04,3.31-11.75,4.06-17.98,1.04-8.77,1.83-17.35,1.84-26.16.02-8.27.02-16.52,0-24.78-.02-1.81-.84-5.99.05-7.69.78-1.53,3.32-3.05,4.7-3.86.21-.12.44-.24.66-.33,1.65,17.21,6.16,71.58-.52,89.44Z" style="stroke-width:0px;fill:#192023"/><path d="m516.47,362.38c-5.38,14.34-12.57,20.1-23.18,22.31.1-.61.21-1.22.31-1.81.16-1.53.56-2.99,1.2-4.42.78-.82,1.32-1.76,1.62-2.84.31-1.44-.24-3.34-.14-4.8.12-1.67.56-3.38,1.18-4.91,1.24-2.96,3.71-3.99,5.31-6.6,1.27-2.07,1.41-4.06,1.41-6.35,0-3.71.19-7.5,0-11.19-.16-3.29-.8-6.63-1.32-9.87-1.1-6.94-1.91-13.73-2.14-20.78-.16-5.01-.05-10.02-.03-15.02,0-3.1-.87-6.16.77-8.93,2.14-3.57,5.1-6.65,9.14-7.88,2.28-.7,4.56-1.15,6.87-1.43,1.84,20.92,5.17,68.1-.99,84.51Z" style="stroke-width:0px;fill:#192023"/><path d="m213.51,314.36s2.03,26.4,2.9,33.94c.87,7.54,12.24,6.96,13.37-7.54,1.13-14.5,1.41-26.4,1.41-26.4,0,0-6.96,4.06-8.84,4.35-1.88.29-8.84-4.35-8.84-4.35Z" style="stroke-width:0px;fill:#f1f1f2"/><path d="m475.61,314.36s2.03,26.4,2.9,33.94c.87,7.54,12.24,6.96,13.37-7.54,1.13-14.5,1.41-26.4,1.41-26.4,0,0-6.96,4.06-8.84,4.35-1.88.29-8.84-4.35-8.84-4.35Z" style="stroke-width:0px;fill:#f1f1f2"/><path d="m81.71,41.54c2.82,2.18,5.8,4.18,9.08,5.53-.8.09-1.62.16-2.38.1-3.74-.26-7.26-1.34-10.96-1.72,1.27-1.44,2.72-2.72,4.26-3.92Z" style="stroke-width:0px;fill:#cdb39c"/><path d="m578.35,178.11c-3.06-1.06-4.28-4.25-7.19-5.52-3.74,1.98-.63,7.92-2.07,11.19-2.3-1.24-2.33-4.79-4.82-6.67-1.27,2.31,1.15,2.8,1.65,4.8.82,3.31-.85,7.26-.19,10.62.84,4.26,3.15,7.99,4.59,12.11-.5-.12-1.03-.28-1.53-.45-4.94-1.76-7.94-5.52-12.91-2.68-2.19,1.24-1.37,2.44-4.32,1.9-1.88-.33-2.7-3.34-5.4-3.08-1.62,5.38-.09,11.59-1.53,17.21-2.07,8.08-2,10.16-10.91,8.42-1.97-.38-6.46-3.13-8.48-1.17-.99.96-.19,7.78-.17,8.13.09,6.06-1.41,10.15-7.88,10.89-1.91.21-4.39-.85-6.18.16-2.91,1.6-2.58,6.34-3.36,8.98-2.07,7.14-4.8,4.53-10.48,1.67-1.95-.97-4.89-3.27-7-3.6-3.6-.59-1.31.64-3.79,1.08-6.06,1.06-8.16-5.05-13.14-6.39-3.52,3.55-2.42,7.83-8.6,6.51-7.76-1.67-13.09-11.09-20.66-12.11-4.99-.7-7.03.44-10.2-3.93-2.51-3.46-5-7.1-7.19-10.79-1.55-2.61-3.24-7.54-6.04-9.03-4.66,2.77-3.78,13.92-5.59,18.76-2.4,6.49-9.85,3.48-12.04-1.67-5.22-.14-17.11,13.37-21.42,10.25-1.93-1.39.44-5.03-2.59-5.46-4.47-.63-3.05,6.3-5.24,8.14-5.53,4.61-7.01-10.11-11.36-12.18-4.16-1.98-6.09,1.72-7.47,5.26-1.74,4.47-2.7,4.79-7.52,4.23-5.52-.64-11.63-2.61-16.52-5.19-1.78-.92-1.18-1.9-3.34-1.84-1.6.03-1.88,1.31-2.98,1.53-8.34,1.74-13.45-12.41-22.5-10.34-3.76.87-2.45,4.21-4.89,6.3-3.17,2.73-8.11-2.37-11.38-4.28-5.05-2.96-8.89-6.58-13.11-10.56-1.79-1.69-4.25-4.3-6.54-4.94-2.49,5.8,3.9,12.01,4.93,17.6.3,1.53.47,4.75-.42,6.27-1.43,2.42-3.53.87-4.96,1.97-4.54,3.53,1.83,6.32.24,10.65-1.65,4.63-8.49-1.34-12.17.14.03,3.9,3.99,5.4,2.07,8.91-2.09,3.81-7.33,3.08-10.96,3.1-7.9,0-16.08-3.57-24.05-1.57-.09,4.33-2.58,5.62-6.54,4.91-5.53-1.03-6.96-5.6-10.36-9.24-1.72-1.84-5.13-4.25-7.9-3.01-2.58,1.17-1.01,5.9-4.05,6-5.15-7.1-7.76-15.78-11.3-23.77-1.13-2.56-2.21-5.71-2.8-8.27-.24-1.1-.54-4.33-1.15-5.33-2.28-3.71-2.99.26-4.96,1.34-2.87-1.17-1.38-4.79-1.84-7.12-.23-1.08-1.32-1.53-1.65-2.7-.31-1.08.16-2.28-.24-3.45-6.42-1.27-1.44,15.56-8.53,11.19-2.42-1.5-4.32-7.34-5.57-9.9-1.57-3.2-3.81-6.91-4.58-10.44-.59-2.77.33-5.52-.38-8.2-4.79-.38-6.42,4.96-7.71,8.46-.82,2.28-2.05,4.02-2.78,6.25-2.52-7.71-4.02-15.68-6.27-23.46-1.38-4.8-4.42-9.89-5.45-14.83-.64-3.01,1.62-11.35-1.34-12.77-4.07.7-7.07,9.43-9.1,12.64-1.48-2.05.3-9.05.57-11.42.44-3.64,1.22-7.08,1.9-10.67.87-4.59,1.72-10.48.54-15.16-2.92-.8-4.06,2.19-6.79,1.65,1.65-8.04,6.09-14.95,8.67-22.71,2.37-7.1,2.91-15.61,1.55-23.03-1.17-6.35-3.85-12.04-6.02-17.98.38-.24.75-.47,1.11-.7l-19.14-10.44c.14-2.11,1.6-3.25,2.92-4.75-1.06-1.5-2.54-3.93-4.19-5.6,3.06.68,6.18,1.51,8.96,3.25l16.67-3.34c.02.19.02.37,0,.52,4.02-2.45,11.17.26,14.36,2.21,12.18,7.5,18.34,18.19,23.79,31.1.59-5.29,3.31-16.64,8.84-7.76,1.57,2.51,2.73,6.28,5.92,4.46,1.46-.84,1.84-4.25,2.73-5.78,1.13-1.93,2.91-3.38,3.92-5.46,2.07-.16,3.52,1.81,4.8,3.22,3.13,3.43,4.94,5.95,9.05,8.34,3.22,1.86,17.93,12.1,20.69,5.83,1.71-3.85-2.56-7.87,4.21-7.17,1.72.19,3.81,1.9,5.33,1.83,3.88-.21,1.74-3.2,2.47-6.2,3.15-12.95,16.43,6.77,20.14,8.86,3.88,2.19,6.67-1.2,9.52-3.74.89-.8,2.56-3.46,3.9-3.83,3.1-.82,1.88.26,3.2,2.21,1.58,2.37,5.78,9.14,9.9,6.14,3.17-2.31,1.93-14.76,8.93-9.52,1.55,1.15,2.75,3.05,4.52,4.25,2.56,1.72,5.48,2.8,8.27,4.07,4.49,2.07,8.65,4.47,13.63,4.87,5.1.42,9.47-2.92,14.2-2.02,4.98.96,10.39,6.67,14.83,9.33,2.26,1.36,5.4,4.61,7.31,2.07,1.13-1.51-.8-4.56-.07-6.18,1.55-3.48,6.42-1.01,9.14.4,4.46,2.31,7.24,6.53,11.59,8.95,3.83,2.14,3.69.75,7.24-.17,5.85-1.53,6.61,5.67,11.24,6.7,6.89,1.55,5.47-4.68,7.4-8.79,6.72-14.31,20.1,4.79,29.87,1.51.17-1.78.68-5.43,2.33-6.51,2.56-1.67,5.88,2.02,7.78,3.22,4.59,2.87,8.81,5.15,14.31,5.38,5.78.24,14.05,1.2,19.68,0,8.02-1.69-3.13-5.92,2.96-8.95,4.11-2.04,13.37,2.35,17.39,3.43,0-1.9-1.36-2.89-1.39-4.79,6.8-1.57,10.2,1.24,15.49,5,1.32.96,3.69,3.18,5.31,3.18,2.14-.02,2.92-2.23,5.1-2.91,2.63-.82,2.99-.03,5.01,1.18,6.27,3.81,11.3,9.1,18.17,12.22,6.53,2.94,13.4,4.56,20.36,5.22,1.11,1.2,2.21,2.33,3.13,3.34,3.69,3.97,6.47,8.53,8.67,13.49,2.31,5.31,2.96,10.77,4.94,16.15,1.34,3.62,2.73,7.33,3.46,11.09.87,4.47,3.55,14.72,1.79,19.28Z" style="stroke-width:0px;fill:#cdb39c"/><path d="m571.3,245.74c0,3.71,1.29,10.09-.28,13.59-3.85.21-4.72.26-6.56,3.59-2.96,5.33-.99,11-2.59,16.45-4.26.07-3.5-8.13-7.52-3.78-2.58,2.77-.64,7.4-1.65,10.62-.99,3.15-4.46,8.02-6.18,11.17-2.04,3.69-5.45,5.52-4.19,10.16-2.75-2.26-6.2-4.65-9.24-6.61-5.24-3.34-4.44-1.55-5.46,2.8-1.24,5.26-6.35,1.67-9.76-.96-3.72-2.87-5.08-4.49-10.08-3.34-.17,1.58-.03,3.48-.54,4.99-2.26.49-7.08-4.39-9.15-5.31-3.79-1.69-8.46-3.81-12.46-5-5.85-1.71-5.4,3.32-10.88,3.31-9.17,0-18.47-4.77-26.92-7.9-6.91-2.58-4.86.31-6.11,5.85-4.02.38-9.75-2.75-13.47-4.3-3.32-1.39-8.02-5.46-11.57-4.39-1.83,6.21.92,10.55-8.41,8.79-5.8-1.08-10.25-5.27-16.33-5.41-7.48-.17-1.98,2.72-5.78,6.34-3.72,3.57-15.47-1.83-19.09-3.72-3.85-1.98-9.38-8.6-12.36-1.25-1.53,3.74.71,8.27-4.32,4.26-3.46-2.77-3.83-7.94-8.67-7.05-5.45,1.01-5.5,7.73-7.29,11.77-3.5-3.34-4.18-8.01-7.26-11.4-1.11-1.24-2.4-3.64-4.54-2.47-2.04,1.13-.37,2.8-.92,4.59-3.17,10.04-19.3-6.93-25.36-4.35-.94,3.38.5,6.98-.5,10.41-4.94.96-7.94-1.11-12.48-1.76-7.61-1.08-3.12,5.95-7.03,7.64-1.95.85-9.8-4.77-11.87-5.55-3.25-1.24-8.81-4.19-12.3-3.93-4.54.35-5.27,2.89-5.38,7.1-7.64,2.59-15.59-3.12-23.13-3.36-1.39-.05-6.35-.75-7.43.31-1.22,1.18-.12,5.13-.52,6.79-2.3.07-5.47-2.59-7.36-3.43-2.84-1.27-5.99-1.98-8.61-3.67-2.33-1.5-4.53-4.46-7.1-5.19-1.2,3.24.02,7.1-.47,10.48-4,.44-9.66-2.82-13.42-4.21-6.3-2.33-11.49-5.31-17.16-8.91-3.85-2.45-8.35-6.42-12.77-7.73-.5,1.32-.5,2.78-.02,4.16-9.87-5.38-23.51-10.88-30.32-20.26-3.81-5.29-5.01-12.93-8.67-18.62-1.95.89-2.19,3.34-4.91,3.76-4.46.71-5.83-4.26-6.63-7.36-1.86-7.31-1.67-17.09-.54-24.73-3.15,1.57-6.53,2.82-9.47,4.77-2.12,1.39-4.32,5.03-6.91,3.29-.02-6.96,1.72-13.17,4.11-19.61.99-2.68,3.83-7.59,2.61-10.51-2.65,1.65-8.16,3.1-11.45,1.58-4.4-2.02-4.56-10.93-4.63-15.26-.05-2.66,1.65-9.45-1.69-10.15-2.37-.49-7.55,3.34-9,4.91-2.47-5.06,1.04-16.81,2.09-22.24.77-4.07,2.35-8.75,1.32-12.95-5.76-.89-13.7-.68-19.61.1,10.3-7.76,23.57-24.31,23.25-38.08-3.55-5.08-1.91-6.79-.54-8.74-2.85-2.49-1.46-11.96-1.31-15.61.14-3.22,1.32-4.04,1.93-7,.66-3.2-.89-6.89-.21-10.06.82-3.93,3.95-7.9,5.48-11.71.92-2.31,2.21-4.26,3.74-5.99,3.71.38,7.22,1.46,10.96,1.72,2.19.16,4.61-.71,6.74.12,2.52,1.01,4.87,5.08,6.4,7.22-1.32,1.5-2.78,2.65-2.92,4.75l19.14,10.44c-.37.23-.73.45-1.11.7,2.18,5.93,4.86,11.63,6.02,17.98,1.36,7.41.82,15.92-1.55,23.03-2.58,7.76-7.01,14.67-8.67,22.71,2.73.54,3.86-2.45,6.79-1.65,1.18,4.68.33,10.56-.54,15.16-.68,3.59-1.46,7.03-1.9,10.67-.28,2.37-2.05,9.36-.57,11.42,2.04-3.2,5.03-11.94,9.1-12.64,2.96,1.43.7,9.76,1.34,12.77,1.03,4.94,4.07,10.02,5.45,14.83,2.25,7.78,3.74,15.75,6.27,23.46.73-2.23,1.97-3.97,2.78-6.25,1.29-3.5,2.92-8.84,7.71-8.46.71,2.68-.21,5.43.38,8.2.77,3.53,3.01,7.24,4.58,10.44,1.25,2.56,3.15,8.41,5.57,9.9,7.08,4.37,2.11-12.46,8.53-11.19.4,1.17-.07,2.37.24,3.45.33,1.17,1.43,1.62,1.65,2.7.47,2.33-1.03,5.95,1.84,7.12,1.97-1.08,2.68-5.05,4.96-1.34.61.99.9,4.23,1.15,5.33.59,2.56,1.67,5.71,2.8,8.27,3.53,7.99,6.14,16.67,11.3,23.77,3.05-.1,1.48-4.84,4.05-6,2.77-1.24,6.18,1.17,7.9,3.01,3.39,3.64,4.82,8.21,10.36,9.24,3.97.71,6.46-.57,6.54-4.91,7.97-2,16.15,1.57,24.05,1.57,3.64-.02,8.88.71,10.96-3.1,1.91-3.52-2.04-5.01-2.07-8.91,3.67-1.48,10.51,4.49,12.17-.14,1.58-4.33-4.79-7.12-.24-10.65,1.43-1.1,3.53.45,4.96-1.97.89-1.51.71-4.73.42-6.27-1.03-5.59-7.41-11.8-4.93-17.6,2.3.64,4.75,3.25,6.54,4.94,4.21,3.99,8.06,7.61,13.11,10.56,3.27,1.91,8.21,7.01,11.38,4.28,2.44-2.09,1.13-5.43,4.89-6.3,9.05-2.07,14.17,12.08,22.5,10.34,1.1-.23,1.38-1.5,2.98-1.53,2.16-.05,1.57.92,3.34,1.84,4.89,2.58,11,4.54,16.52,5.19,4.82.56,5.78.24,7.52-4.23,1.38-3.53,3.31-7.24,7.47-5.26,4.35,2.07,5.83,16.79,11.36,12.18,2.19-1.84.77-8.77,5.24-8.14,3.03.44.66,4.07,2.59,5.46,4.32,3.12,16.2-10.39,21.42-10.25,2.19,5.15,9.64,8.16,12.04,1.67,1.81-4.84.92-15.99,5.59-18.76,2.8,1.5,4.49,6.42,6.04,9.03,2.19,3.69,4.68,7.33,7.19,10.79,3.17,4.37,5.2,3.24,10.2,3.93,7.57,1.03,12.9,10.44,20.66,12.11,6.18,1.32,5.08-2.96,8.6-6.51,4.98,1.34,7.08,7.45,13.14,6.39,2.49-.44.19-1.67,3.79-1.08,2.11.33,5.05,2.63,7,3.6,5.67,2.85,8.41,5.47,10.48-1.67.78-2.65.45-7.38,3.36-8.98,1.79-1.01,4.26.05,6.18-.16,6.47-.75,7.97-4.84,7.88-10.89-.02-.35-.82-7.17.17-8.13,2.02-1.97,6.51.78,8.48,1.17,8.91,1.74,8.84-.35,10.91-8.42,1.44-5.62-.09-11.83,1.53-17.21,2.7-.26,3.52,2.75,5.4,3.08,2.94.54,2.12-.66,4.32-1.9,4.98-2.84,7.97.92,12.91,2.68.5.17,1.03.33,1.53.45.49,1.41.87,2.85,1.06,4.39.44,3.48-.96,7.5-.19,10.93.63,2.82,1.53,4.11,1.55,6.87-1.34,1.98-1.86,4.21-1.55,6.7.03,4.06.05,8.13.1,12.2Z" style="stroke-width:0px;fill:#ad9c8b"/><path d="m556.35,114.76c-6.96-.66-13.84-2.28-20.36-5.22-6.87-3.12-11.9-8.41-18.17-12.22-2.02-1.22-2.38-2-5.01-1.18-2.18.68-2.96,2.89-5.1,2.91-1.62,0-3.99-2.23-5.31-3.18-5.29-3.76-8.68-6.56-15.49-5,.03,1.9,1.39,2.89,1.39,4.79-4.02-1.08-13.28-5.46-17.39-3.43-6.09,3.03,5.06,7.26-2.96,8.95-5.64,1.2-13.91.24-19.68,0-5.5-.23-9.71-2.51-14.31-5.38-1.9-1.2-5.22-4.89-7.78-3.22-1.65,1.08-2.16,4.73-2.33,6.51-9.76,3.27-23.15-15.82-29.87-1.51-1.93,4.11-.5,10.34-7.4,8.79-4.63-1.03-5.4-8.23-11.24-6.7-3.55.92-3.41,2.31-7.24.17-4.35-2.42-7.14-6.63-11.59-8.95-2.71-1.41-7.59-3.88-9.14-.4-.73,1.62,1.2,4.66.07,6.18-1.91,2.54-5.05-.71-7.31-2.07-4.44-2.66-9.85-8.37-14.83-9.33-4.73-.91-9.1,2.44-14.2,2.02-4.98-.4-9.14-2.8-13.63-4.87-2.78-1.27-5.71-2.35-8.27-4.07-1.78-1.2-2.98-3.1-4.52-4.25-7-5.24-5.76,7.21-8.93,9.52-4.12,2.99-8.32-3.78-9.9-6.14-1.32-1.95-.1-3.03-3.2-2.21-1.34.37-3.01,3.03-3.9,3.83-2.85,2.54-5.64,5.93-9.52,3.74-3.71-2.09-16.99-21.81-20.14-8.86-.73,2.99,1.41,5.99-2.47,6.2-1.51.07-3.6-1.64-5.33-1.83-6.77-.7-2.51,3.32-4.21,7.17-2.77,6.27-17.47-3.97-20.69-5.83-4.11-2.38-5.92-4.91-9.05-8.34-1.29-1.41-2.73-3.38-4.8-3.22-1.01,2.09-2.78,3.53-3.92,5.46-.89,1.53-1.27,4.94-2.73,5.78-3.18,1.83-4.35-1.95-5.92-4.46-5.53-8.88-8.25,2.47-8.84,7.76-5.45-12.91-11.61-23.6-23.79-31.1-3.18-1.95-10.34-4.66-14.36-2.21.02-.16.02-.33,0-.52l-16.67,3.34c-2.78-1.74-5.9-2.58-8.96-3.25-.71-.73-1.44-1.31-2.21-1.62-1.38-.54-2.87-.37-4.35-.23-3.29-1.36-6.27-3.36-9.08-5.53,2.59-1.98,5.46-3.74,8.3-5.64,6.51-4.32,11.97-7.03,19.3-9.8,7.92-2.99,14.93-6.47,15.94-15.51,7.69-2.51,15.92-3.32,23.98-3.36,4.63,0,9.03.28,13.61.92,1.57.23,7.36.09,8.41,1.01,1.44,1.24.63,2.59,2.56,3.64,1.5.78,7.08-.12,8.51-.14,5.66-.05,6.18-.44,6.27,5.17,4.51,1.5,10.58-.5,15.09-1.46-.03,0,11.97-4.39,13.66-3.25-.78,2.44-2.85,7.64-1.11,10.08.45.61,4.46,1.27,5.2,1.58,3.72,1.58,7.27,3.29,11.28,4.16,6.68,1.43,13.17,1.78,20.08,1.74,3.65,0,6.86-.28,10.25.4,1.55.3,1.62,1.31,3.88,1.18,6.46-.38,13.14-4.51,19.86-5.13,3.79-.35,3.64-.14,5.74,1.71,1.1.96.66,2.28,2.56,3.29,1.71.91,4.65.37,6.53.35,8.28-.09,17.65-1.24,25.71.42,4.39.89,8.02,1.46,12.55,1.41,4.18-.05,6.02,1.6,10.01,1.81,5.66.28,11.4-.7,17.02.38,4.66.89,9.29.71,13.82,1.55,1.69.31,2.54,1.43,4.66,1.69,1.76.23,3.62-.33,5.38-.14,4.96.57,10.06,2.09,14.71,3.31,5.31,1.39,12.41.4,17.79.4,6.09,0,12.58-.64,18.52.4,4.05.71,7.38,1.51,11.75,1.43,2.16-.05,4.25-.33,6.32.28.17.99.35,1.97.52,2.94,2.37.57,10.46.9,10.93,3.92.4,2.45-3.9,4.42-2,8.02,4.98,9.35,43.82-4.11,44.03,6.13,3.59,1.31,7-.07,10.46,2.56-2.78,2.71,1.44,6.27,4.19,8.16.7.49,2.23.14,2.82.71,1.11,1.03,1.41,2.78,2.23,4.02,1.22,1.83,2.56,3.43,3.67,5.4,1.95,3.45,3.9,5.85,6.82,8.74,1.29,1.29,3.03,2.58,4.11,4.04,1.53,2.11,1.08,2.89,1.97,5.26,1.17,3.17,4.06,6.54,6.77,9.47Z" style="stroke-width:0px;fill:#edcab0"/><path d="m95.14,47.3c.77.31,1.5.89,2.21,1.62-.7-.16-1.39-.3-2.09-.44-1.57-.31-3.05-.8-4.47-1.41,1.48-.14,2.98-.31,4.35.23Z" style="stroke-width:0px;fill:#f1f1f2"/><path d="m106.32,52.18c.14.07.28.16.42.24-.38-.03-.77-.07-1.15-.1l.73-.14Z" style="stroke-width:0px;fill:#f1f1f2"/><path d="m121.82,50.32c.35-.38.75-.7,1.17-.96-.05.87-.45,1.2-1.17.96Z" style="stroke-width:0px;fill:#f1f1f2"/><path d="m143.79,68.45c-2.14,0-4.28,0-6.4.05-6.11.12-12.74.42-18.83,1.13-3.76.44-2.94.56-5.29,2.16-1.72,1.17-2.28.99-4.11,1.62-2.05.7-4.12,2.45-6.13,3.39-7.55,3.58-14.13,7.9-20.85,12.84-3.78,2.77-8.51,5.71-13.47,5.76-8.88.09-7.21-10.72-7.21-16.41-.02-2.16,1.18-7.62-.42-9.47-1.48-1.72-5.15-.97-7.07-.96-1.88,0-4.96-.75-6.79.02-2.18.91-2.91,3.81-4.3,5.48-2.21,2.7-8.14,7.69-4,11.56.87.8,2.84.75,3.81,1.65,1.32,1.25,1.88,3.6,2.66,5.2,2.26,4.49,3.05,4.99.1,8.86-1.72,2.28-2.28,5.41-1.79,8.41-3.72.57-7.19.91-10.42,1.06-.28-.4-.59-.75-.92-1.1-.16-.17-.33-.35-.49-.5-.82-.82-1.67-1.55-2.45-2.33-.16-.16-.31-.31-.45-.49-.17-.17-.33-.35-.47-.54-.14-.17-.26-.33-.38-.5-.14-.19-.26-.38-.38-.59-.12-.19-.24-.42-.35-.63-.14-.28-.28-.57-.37-.89-.09-.17-.14-.37-.19-.56-.09-.26-.16-.54-.21-.82-.94-4.65-5.33-6.32-5.74-11.05-.26-3.05-.12-3.08-2.92-3.71-1.72-.38-3.71-.02-5.45.02-3.86.09-5.87-.26-9.21-2.02-.44-.23-1.1-.44-1.9-.68.94-2.84,2.26-5.69,3.71-8.7,3.19-6.67,12.1-23.76,24.56-39.89.42,1.03.99,2.05,2.19,2.87,1.98,1.38,5.15,2.72,7.47,3.66,3.39,1.38,3.01.49,3.57-2.12.52-2.49.66-3.71,2.87-5.27,1.55-1.1,3.08-1.62,4.4-3.1,1.67-1.81,2.54-4.42,4.37-5.99,1.55-1.36,2.44-1.27,4.35-1.71,3.55-.84,6.6-.9,10.29-.84,1.95.02,3.52.17,5.34-.54,2.14-.85,3.55-1.86,6.06-1.9,1.38-.02,3.06.59,4.4.05,2.21-.87,4.49-5.33,5.1-7.29.57-1.88.57-3.83,1.17-5.69.82-2.63,2.21-5.2,3.36-7.8,21.67,1.62,38.9,14.58,46.42,31.76,6.21,14.27,4.79,28.04,2.77,36.51Z" style="stroke-width:0px;fill:#2b363c"/><path d="m94.6.18c-1.15,2.59-2.54,5.17-3.36,7.8-.59,1.86-.59,3.81-1.17,5.69-.61,1.97-2.89,6.42-5.1,7.29-1.34.54-3.03-.07-4.4-.05-2.51.03-3.92,1.04-6.06,1.9-1.83.71-3.39.56-5.34.54-3.69-.07-6.74,0-10.29.84-1.91.44-2.8.35-4.35,1.71-1.83,1.57-2.7,4.18-4.37,5.99-1.32,1.48-2.85,2-4.4,3.1-2.21,1.57-2.35,2.78-2.87,5.27-.56,2.61-.17,3.5-3.57,2.12-2.31-.94-5.48-2.28-7.47-3.66-1.2-.82-1.78-1.84-2.19-2.87C40.93,21.27,55.08,7.52,70.52,2.92,78.94.42,87.05-.4,94.6.18Z" style="stroke-width:0px;fill:#f1f1f2"/><path d="m143.79,68.45c-1.27,5.31-2.77,8.55-2.77,8.55,0,0-.63.78-1.86,2.12-2.35-2.37-3.99-3.74-3.99-3.74,0,0-41.77,21.75-77.01,31.33-5.15,1.39-9.97,2.38-14.45,3.05-.49-2.99.07-6.13,1.79-8.41,2.94-3.86,2.16-4.37-.1-8.86-.78-1.6-1.34-3.95-2.66-5.2-.97-.9-2.94-.85-3.81-1.65-4.14-3.86,1.79-8.86,4-11.56,1.39-1.67,2.12-4.58,4.3-5.48,1.83-.77,4.91-.02,6.79-.02,1.91-.02,5.59-.77,7.07.96,1.6,1.84.4,7.31.42,9.47,0,5.69-1.67,16.5,7.21,16.41,4.96-.05,9.69-2.99,13.47-5.76,6.72-4.94,13.3-9.26,20.85-12.84,2-.94,4.07-2.7,6.13-3.39,1.83-.63,2.38-.45,4.11-1.62,2.35-1.6,1.53-1.72,5.29-2.16,6.09-.71,12.72-1.01,18.83-1.13,2.12-.05,4.26-.05,6.4-.05Z" style="stroke-width:0px;fill:#f1f1f2"/><path d="m33.29,110.81c-12.69.68-21.56-1.29-26.21-2.73h-.02C-.87,99.13-1.08,91.91,1.41,84.43c.8.24,1.46.45,1.9.68,3.34,1.76,5.34,2.11,9.21,2.02,1.74-.03,3.72-.4,5.45-.02,2.8.63,2.66.66,2.92,3.71.42,4.73,4.8,6.4,5.74,11.05.05.28.12.56.21.82.05.19.1.38.19.56.09.31.23.61.37.89.1.23.21.44.35.63.1.21.24.4.38.59.12.17.24.35.38.5.14.19.3.37.47.54.14.17.3.33.45.49.78.78,1.64,1.51,2.45,2.33.16.16.33.33.49.5.33.35.64.7.92,1.1Z" style="stroke-width:0px;fill:#f1f1f2"/><path d="m139.16,79.12c-5.71,6.23-24.54,24.73-55.27,34.91-8.7,2.89-16.2,5.27-22.82,7.05-1.03-1.04-2.05-1.84-2.77-2.23-2.23-1.15-4.65.07-6.96-.3-4.28-.66-6.98-4.58-7.62-8.81,4.47-.66,9.29-1.65,14.45-3.05,35.24-9.57,77.01-31.33,77.01-31.33,0,0,1.64,1.37,3.99,3.74Z" style="stroke-width:0px;fill:#959595"/><path d="m61.07,121.08c-11.85,3.15-20.85,4.32-28.84,2.8.28-.54.59-1.11.94-1.69,1.76-3.01,2.73-6.89.94-10.13-.24-.45-.52-.87-.82-1.25,3.24-.16,6.7-.49,10.42-1.06.64,4.23,3.34,8.14,7.62,8.81,2.31.37,4.73-.85,6.96.3.71.38,1.74,1.18,2.77,2.23Z" style="stroke-width:0px;fill:#192023"/><path d="m33.17,122.19c-.35.57-.66,1.15-.94,1.69-6.68-1.27-12.67-4.42-19.02-9.85-2.42-2.07-4.46-4.06-6.13-5.95,4.65,1.44,13.52,3.41,26.21,2.73.3.38.57.8.82,1.25,1.79,3.24.82,7.12-.94,10.13Z" style="stroke-width:0px;fill:#959595"/><circle cx="73.9" cy="50.5" r="14.43" style="stroke-width:0px;fill:#f1f1f2"/><circle cx="71" cy="51.68" r="9.93" style="stroke-width:0px;fill:#231f20"/><path d="m64.69,44.42c0-1.48,1.2-2.67,2.67-2.67s2.67,1.2,2.67,2.67-1.2,2.67-2.67,2.67-2.67-1.2-2.67-2.67Z" style="stroke-width:0px;fill:#fff"/><path d="m157.64,62.25c-.2-.33-.41-.69-.61-1.06v-.02c-18.27-32.21-47.85-30.76-47.85-30.76-35.54,6.91-44.27,33.84-38.86,56.59.02.06.04.13.06.22,1.37,4.56,10.77,31.24,41.58,25.04,33.67-6.8,32.74-24.41,28.11-28.72-2.91-2.72-6.45-4.73-10.45-5.17-1.07,4.71-3.8,7.84-9.32,9.49-4.86,1.45-9.69-.76-11.88-5l-.02-.02c-1.98-3.87-1.78-9.41,2.63-15.36,5.56-7.51,11.27-6.32,14.95-4.19,1.74-.96,3.78-1.56,6.13-1.61,11.95-.26,23.22,13.49,23.59,29.83.63,1.02,1.22,1.8,1.8,2.21,1.32.91,2.46-.13,3.56-4.73,3.06-12.95-1.67-23.44-3.43-26.74Zm-24.98-28.74c6.32,3.39,13.71,6.17,20.29,8.25C140.66,12.45,104.55,7.25,104.55,7.25c0,0-1.09.37-2.3,1.33-.44,9.36,17.73,18.12,30.41,24.92Z" style="fill:#907965;stroke-width:0px"/><path d="m157.51,93.71c-1.26-.91-2.65-3.63-4.24-6.73-6.88-15.1-23.27-20.4-23.27-20.4,0,0-9.69-11.62-18.96.89-4.41,5.95-4.61,11.49-2.63,15.36-8.12-6.97-7.71-30.19,18.38-30.19s30,31.39,30.72,41.06Z" style="stroke-width:0px;fill:#8e746c"/><path d="m155.71,91.51c-.76-1.24-1.58-2.82-2.45-4.52-8.45,23.31-27.61,34.23-48.72,34.23-16.12,0-29.76-15.6-34.17-33.99,1.37,4.56,10.77,31.24,41.58,25.04,33.67-6.8,32.74-24.41,28.11-28.72-2.91-2.72-6.45-4.73-10.45-5.17.76-3.19.76-7.12.37-11.79,0,0-1.56-1.85-4-3.3,1.74-.96,3.78-1.56,6.13-1.61,11.95-.26,23.22,13.49,23.59,29.83Z" style="stroke-width:0px;fill:#685649"/><path d="m157.03,61.17c-18.27-32.21-47.85-30.76-47.85-30.76-.02,0-.02-.02-.04-.02-.59-.5-10.16-8.52-10.16-14.81,0-3.61,1.72-5.8,3.26-7-.44,9.36,17.73,18.12,30.41,24.92,6.32,3.39,13.71,6.17,20.29,8.25,1.63,3.87,2.84,8.19,3.48,12.95.3,2.19.5,4.35.59,6.47Z" style="stroke-width:0px;fill:#685649"/><path d="m70.38,74.58s1.12,8.03,12.55,7.41c11.43-.62,4.77-31.07,30.12-36.44,25.35-5.38,34.14,9.38,37.21,9.57,3.07.19-15.95-24.71-39.94-22.55-23.99,2.16-43.11,19.94-39.94,42Z" style="stroke-width:0px;fill:#b6947b"/></g></g></svg>