<?xml version="1.0" encoding="UTF-8"?><svg data-name="Layer 2" xmlns="http://www.w3.org/2000/svg" viewBox="0 0 88.45 85.5"><defs/><g data-name="100"><g><path d="m7.66,55.83c.26,1.02.5,2.1.74,3.25,2.64,13.07-3.63,16.32-7.88,17.07,1.63,1.19,6.79,1.37,10.18,1.37,4.31,0,11.77-3.73,12.34-5.45.54-1.62-10.68-28.7-15.37-16.24Z" style="stroke-width:0px;fill:#26221e"/><path d="m8.39,59.08c-.23-1.15-.48-2.23-.74-3.25-.28.75-.54,1.63-.77,2.67,0,0,1.37,5.53,0,10.12-1.37,4.59-5.96,4.02-6.82,6.31-.18.49,0,.89.44,1.21,4.26-.75,10.53-4,7.88-17.07Z" style="stroke-width:0px;fill:#312f2d"/><path d="m87.03,65.76c-9.18-14.42-37.31-16.14-40.71-21.52-3.4-5.38-4.57-15.71-6.94-24.26C37.02,11.43,31.01,2.24,21.74,2.69c-5.94.29-12.31,2.77-16.12,4.51-1.5,1.73-1.63,3.48-1.25,4.89.07.25.17.52.29.81h0s1.14,1.7,5.38,2.35c4.23.65,3.95,2.44,3.01,1.72-.81-.62-4.99-1.24-7.71-2.74.75,1.29,1.77,2.7,2.72,3.91-.54.49-1.15,1.35-1.15,1.95.24-.02.58.11.82.08-.59.77-1.26,1.51-1.84,2.33.26-.02.51-.1.75-.2-.05.43.1.86.29,1.24.31,0,.47-.05.66-.37.43.39.76-.04,1.08-.39.07.23.23.48.2.76.24-.12.53-.26.76-.38.35.64.93.38,1.3-.01-.02.17.09.42.08.6.29-.06.38.03.56-.33.04.1.07.21.08.32.64.22.68-.74.99-1.02.09,1.67.84-.5.97-.59.11.34.24.61.54.76-.03-.24.1-.58.08-.82.48.16.3.73.83.82.37-.61.91-1.07,1.46-1.46.08.34.01.68.08,1.03.29-.02.57-.17.78-.38.09,1,.57.37.95.19.37-.17.57-.48,1.04-.45.32.03.42.47.81.41.15-.02.26-.43.41-.46.29-.06.47.11.7.08.76-.11,1.12-.42,1.57-1.08.16.14.43.1.54.16.05-.51.57-.89.96-.42.38-.28.41-.83.99-.88.07-.4.01-.82.07-1.22.12-.02.24-.05.36-.07.03-.33.05-.68.07-1,.12-.02.23-.05.35-.07.22-.84.29-1.99.74-2.69.12.37.21.94.54,1.1.18.89.16,2.09.04,2.91-.09.69-.45,3.54-1.23,3.63-.03-.16-.12-.25-.27-.28-.08.2-.2.82-.41.93-.38.19-.6-.19-.88-.14-.7.12-.45.54-1.01.88-.25.15-.48-.04-.54-.02-.25.1-.51.23-.81.39-.48.26-.95.74-1.48.83.03-.17-.09-.42-.06-.59-.62-.22-.84.51-1.44.37.09-1.45-1.25.47-1.72.43-.05-.26-.19-.28-.26-.43-.33.33-.53.94-1.08,1.08-.11-.11-.21-.24-.27-.39-.27.11-.69.88-1.02.86-.4-.02-.49-.69-.8-.86-.18.42-.89,1.09-1.31,1.25.02-.17-.09-.42-.08-.6-.44.02-.56.36-1,.37-.11-1.08-1.67-.34-2.37-.43-.02-.12-.05-.24-.07-.36-.6-.22-1.1.38-1.7.41-.14,0-.45-.22-.64-.25-.08-.01-.48.18-.6.2-.03-.12-.06-.24-.08-.37-.22.12-.4-.02-.6.31-.23-.37-.55-.47-.9-.46.05.36.01.75.08,1.09.58.28.26,6.41.39,7.41.05.44.1.86.16,1.28,0,2.65-.12,5.87-.08,9.33,2.12,8.87,7.14,22.81,16.71,15.22l11.47,6.03s3.16,9.26,18.88,6.67c15.71-2.58,27.34-3.34,32.5-.92.7.33,1.3.92,1.75,1.69,2.42-1.72,1.97-4.2.26-7.44Z" style="stroke-width:0px;fill:#5f4b30"/><path d="m10.04,15.25c-4.23-.65-5.38-2.35-5.38-2.35h0c.18.42.41.87.68,1.33,2.72,1.5,6.91,2.12,7.71,2.74.93.72,1.22-1.08-3.01-1.72Z" style="stroke-width:0px;fill:#3e3122"/><path d="m4.55,25.47s.07-.04.11-.05c-.03,0-.06,0-.09.02,0,.01-.02.03-.02.04Z" style="stroke-width:0px;fill:#3e3122"/><path d="m4.67,25.42c.08-.02.17-.02.25-.03,0-.03,0-.05,0-.08-.07.04-.16.07-.24.11Z" style="stroke-width:0px;fill:#3e3122"/><path d="m5.81,25.85c.21-.34.38-.2.6-.31.03.12.06.24.08.37.11-.02.51-.21.6-.2.19.03.5.25.64.25.59-.03,1.1-.63,1.7-.41.02.12.05.24.07.36.71.09,2.27-.65,2.37.43.44-.01.55-.35,1-.37-.02.17.1.43.08.6.42-.16,1.12-.83,1.31-1.25.31.17.41.84.8.86.33.02.76-.75,1.02-.86.06.15.15.28.27.39.55-.14.75-.75,1.08-1.08.07.15.21.17.26.43.47.04,1.8-1.88,1.72-.43.6.14.82-.59,1.44-.37-.02.17.09.43.06.59.52-.1,1-.58,1.48-.83.3-.16.56-.29.81-.39.06-.02.29.17.54.02.57-.34.32-.77,1.01-.88.28-.05.5.33.88.14.21-.11.33-.72.41-.93.15.03.25.12.27.28.78-.09,1.14-2.94,1.23-3.63.11-.82.14-2.02-.04-2.91-.33-.16-.42-.74-.54-1.1-.45.7-.52,1.85-.74,2.69-.12.03-.24.05-.35.07-.02.33-.05.68-.07,1-.12.02-.24.05-.36.07-.06.4,0,.82-.07,1.22-.58.04-.6.6-.99.88-.38-.47-.91-.09-.96.42-.12-.06-.38-.02-.54-.16-.45.66-.81.97-1.57,1.08-.23.03-.41-.14-.7-.08-.16.03-.27.44-.41.46-.39.05-.49-.39-.81-.41-.47-.04-.67.27-1.04.45-.37.18-.86.81-.95-.19-.21.21-.49.36-.78.38-.07-.34,0-.68-.08-1.03-.55.39-1.09.85-1.46,1.46-.52-.09-.35-.66-.83-.82.02.24-.11.59-.08.82-.31-.16-.44-.42-.54-.76-.13.08-.88,2.25-.97.59-.31.29-.35,1.25-.99,1.02-.02-.11-.04-.22-.08-.32-.18.36-.27.27-.56.33.02-.17-.1-.43-.08-.6-.37.39-.96.65-1.3.01-.24.11-.53.26-.76.38.03-.28-.13-.53-.2-.76-.32.34-.65.78-1.08.39-.19.31-.35.36-.66.37-.19-.37-.34-.81-.29-1.24-.23.1-.49.18-.75.2-.24.33-.46.67-.65,1.04.11,0,.22-.04.31-.1.06.63-.66,1.45-.98,2,.03,0,.06-.01.09-.02.08-.04.17-.07.24-.11,0,.03,0,.05,0,.08.35-.02.66.09.9.46Z" style="stroke-width:0px;fill:#3e3122"/><path d="m18.41,40.91c.56-.73,1.95-1.33,2.8-1.98-.15.05-.39.04-.55.08-.05-.3.55-.61.09-.83.76-.07,1.5-.48.85-.85.49-.21.74.03,1.23-.18-.07-.13.02-.37-.04-.5.26-.03.52-.05.79-.08-.05-.09.03-.28-.01-.37.39-.12.8-.18,1.19-.31-.03-.21-.09-.42-.08-.63.47.02,1.44-.05,1.88-.18-.09-.24-.06-.51.33-.7.07.09.29.13.32.28.63-.37.38-.93,1.38-.55.39-.32.29-.66.25-1.02.18.04.44-.04.57-.02-.04-.1.04-.28,0-.38.47.14.83-.27,1.39-.35-.05-.09.03-.28-.02-.37.23-.03.54-.19.77-.22-.04-.1.04-.28,0-.38.38.03.83.08,1.24-.04-.07-.13.02-.37-.05-.5.42-.18.51.02.84-.06.26-.06.47-.26.82-.34.54-.13,1.54-.06,2.14-.08.14-.39-.41-.56-.81-.71.67.11,1.84.32,2.18.68.27.29.24.93.24,1.3-.45.1-1.02-.01-1.47-.04-.01.08-.02.16-.03.24-.51.15-1.5-.13-1.44.46-.45.15-.94.21-1.4.36.07.29-.18.52-.1.81-.99.13-.98.67-1.06,1.2-.5.18-.78-.18-1.29.01-.53.21-.31.55-.92.75-.13.04-.46-.02-.66.03-.42.11-.47.35-.78.46-.67.25-.52-.03-1.07.09-1.04.23-.87,1.02-1.93,1.27-.64.15-.67-.03-1.25.31-.34.2-.58.41-.78.68-.88-.11-.61-.09-1.03.36-.27.29-.58.51-.88.78-.45.41-.26.4-.96.63-.51.17-1.14.26-1.68.38l-.99.5Z" style="stroke-width:0px;fill:#3e3122"/><path d="m31.85,19.98c0,.68-.43,4.09-1.47,3.68-.08.44,0,.94-.07,1.39-1.03-.15-.97,1.3-2.08.69-.05.2-.27.4-.31.6-.08-.1-.33-.21-.43-.38-.38.19-.75,1.41-1.24.48-.06.21-.24,1.09-.47,1.18-.48.2-.92-.47-1.43-.37.04.23-.1.57-.06.8-.45.17-.92-.31-1.21-.14-.4.23-.28.84-.3,1.22-.5.18-.77-.26-1.22-.37-.08.35-.2.67-.29,1.02-.37.15-.74-.02-.99-.31-.33.18-.6,0-.92.12-.3.11-.61.54-.9.61-.79.2-1.37-.58-2.07-.57.03.23-.11.58-.07.81-.48-.21-1.01-.04-1.47-.23-.37-.14-.45-.57-.87-.64-.1-.02-.47.23-.63.25-.99.1-2.13.51-2.65-.63-.47.44-1.09,0-1.63-.15.04.2-.1.54-.07.74-.12.02-.24.05-.35.08.02.3-.17.25-.26.39l.48.03c-.13.18-.26.36-.25.53.18.06.32-.07.49-.05-.05.17-.14.39-.13.56.15.05.3-.01.41-.11.01.03.02.07.03.1.31.05.56-.16.84-.12.02.1.07.16.09.26.15.05.42-.07.66-.18.26.03.52.04.81.08-.06.15,0,.39-.11.58.31.02.65.04.96.07.03.12.05.24.07.36.5.19.68-.23,1.04-.24.59-.02.52.39.91.46.74.14.98-.59,1.63-.8.03.12.06.25.08.37.45.16.88-.12,1.2-.37.22.48.56,1.01.91,1.4.45-.45.72-.98,1.2-1.15-.1.07.82.04.57-.02.27.07.56.2.76.37.16-.74.46-.44.92-.58.14-.04.38.2.6.13.1-.03.21-.27.31-.33.28-.17.48-.56.75-.76.3-.22.79-.33.98-.58.28-.36.06-.72.41-1.05.11-.1.84-.26,1.03-.31.38-.1.92-.39,1.31-.4.4-.01.55.45,1.01.05.08.13.26.22.33.32.13-.41.34-.98.82-.65-.05-.18.05-.38.02-.53.22.04.57-.1.8-.06-.07-.57.29-.93.86-.86.09-.68-.02-1.4.07-2.09.16.03.42-.09.58-.06.19-1.5.03-3.12.03-4.64Z" style="stroke-width:0px;fill:#3e3122"/><path d="m69.52,50.55c-5.4-1.74-12.07-2.33-17.44-5.79-.05-.05-.1-.1-.14-.16-.81-.98-1.89-2.03-2.5-2.95-.33-.49-.85-.88-1.16-1.42-.35-.61.37-1.39-.8-1.5-.11-.74-.14-1.28-.35-1.94-.09-.28-.2-.73-.27-.94-.11-.35-.39-.57-.33-1.03-.16-.03-.32-.07-.49-.1.09-.67-.21-1.93.49-2.31-.18-.59-.67-.99-.89-1.58-.22-.6-.05-1.49-.75-1.86.45-.53-.5-2.92-1.15-3.15.36-.53.28-2.86-.28-3.16.07-.11.12-.33.2-.43-.12-.09-.58-.43-.61-.57,0-.04-.05-1.09.03-.95-.28-.52-.8-.97-1.09-1.43-.32-.51-1.23-2.88-.4-3.16-.6-.63-1.23-.99-1.09-1.95-.33-.06-.38-.25-.57-.33.18-.07.2-.24.52-.29-1.15-.22-1.73-2.31-2.4-3.24-.45-.63-2.43-2.65-1.93-3.37-.24-.08-.38-.3-.68-.34-.11-.71-1.28-.72-.73-1.39-.62-.08-.89-.52-.8-1.1-.62.08-1.2-.14-1.15-.86-.21.04-.56-.12-.77-.08.04-.22-.12-.56-.08-.78-1.03.16-1.51-.75-2.32-1.13-.69-.32-1.36-.53-2.02-.88-.12.08-.29.13-.42.2-.51-.76-.76-.14-1.22-.22-.56-.09-.85-.29-1.45-.32-.85-.03-1.7.25-2.5.24-.35,0-1.02-.25-1.52-.25-.24,0-.29.22-.54.26-.18-.14-.38-.22-.61-.27-.48.07-.8.34-1.42.33-.61,0-.69-.54-1.23-.06-.34-.24-.86-.37-1.31-.2.04.21-.12.56-.08.78-.21-.04-.56.12-.77.09-.03.16-.06.32-.1.48-.81,0-1.9.26-2.78.38.05.3-.13.76-.08,1.06-.64-.01-1,.38-1.64.37.06.44-.18.89-.46,1.22-1.76.88-2.97,1.81-3.79,2.75,3.81-1.74,10.17-4.22,16.12-4.51,9.27-.45,15.28,8.74,17.65,17.29,2.37,8.54,3.54,18.88,6.94,24.26,3.4,5.38,31.52,7.1,40.71,21.52-2.58-4.88-8.61-12.34-17.51-15.21Z" style="fill:#735c40;stroke-width:0px"/><path d="m19.43,75.23c16.8,7.46,52.67,1.44,61.28,0,2.89-.48,4.84-1.16,6.06-2.03-.45-.77-1.05-1.36-1.75-1.69-5.16-2.43-16.79-1.66-32.5.92-15.71,2.58-18.88-6.67-18.88-6.67l-11.47-6.03c-9.57,7.59-14.58-6.35-16.71-15.22.12,11.33,1.81,25.31,13.97,30.72Z" style="stroke-width:0px;fill:#3e3122"/><path d="m17.78,8.67s1.59-1.02,3.75-.25c2.16.76,2.67,2.1,1.84,1.46-.83-.63-6.67-.38-5.59-1.21Z" style="stroke-width:0px;fill:#3e3122"/><path d="m18.03,10.4s.38,1.59,2.32,1.62c1.94.03,2.99-1.27,2.99-1.27,0,0-2.42,1.3-5.31-.35Z" style="stroke-width:0px;fill:#3e3122"/><path d="m18.29,7.18s1.4-1.11,2.77-.98c1.37.13,2.59,1.05,2.69,2.13,0,0-1.45-2.1-5.46-1.14Z" style="fill:#735c40;stroke-width:0px"/><path d="m4.37,7.78s-.63,1.99-.36,2.94c.27.95.86.47,1.9-.93,1.04-1.4,1.37-2.73.61-3s-1.98.32-2.16.99Z" style="stroke-width:0px;fill:#26221e"/><path d="m16.1,27.87s0-.07-.02-.19c-.02-.12-.05-.3-.09-.53-.09-.46-.2-1.13-.42-1.94-.4-1.63-1.11-3.86-2.2-6.18-1.08-2.33-2.3-4.32-3.28-5.68-.48-.69-.91-1.22-1.21-1.58-.15-.18-.27-.32-.36-.41-.08-.09-.13-.14-.14-.13,0,0,.03.06.11.15.08.1.19.24.33.43.28.37.69.92,1.16,1.61.95,1.38,2.15,3.37,3.22,5.69,1.09,2.32,1.81,4.52,2.24,6.14.24.8.36,1.47.47,1.93.05.23.1.41.12.53.03.12.05.18.05.18Z" style="stroke-width:0px;fill:#e0d4a0"/><path d="m23.15,33.87s0-.4-.06-1.12c-.07-.72-.22-1.75-.51-3.01-.57-2.51-1.83-5.91-3.95-9.25-2.09-3.35-4.52-6.01-6.38-7.78-.93-.89-1.73-1.56-2.3-2.01-.28-.22-.51-.39-.66-.5-.16-.11-.24-.16-.25-.15-.01.02.29.27.83.75.54.48,1.31,1.17,2.22,2.08,1.81,1.81,4.19,4.47,6.26,7.79,2.1,3.31,3.37,6.65,4,9.13.31,1.24.5,2.26.61,2.97.1.71.16,1.1.18,1.1Z" style="stroke-width:0px;fill:#e0d4a0"/><path d="m24.58,24.95s-.11-.26-.35-.72c-.12-.23-.27-.51-.44-.83-.17-.33-.41-.67-.65-1.06-.97-1.57-2.5-3.62-4.47-5.64-1.95-2.03-3.95-3.63-5.45-4.7-.75-.54-1.37-.94-1.82-1.21-.22-.14-.39-.23-.51-.3-.12-.07-.19-.09-.19-.09,0,.02.23.17.65.46.42.29,1.03.72,1.76,1.27,1.46,1.11,3.43,2.72,5.37,4.74,1.95,2.01,3.49,4.03,4.5,5.56.25.39.49.72.67,1.04.19.31.34.59.47.81.26.44.42.68.43.67Z" style="stroke-width:0px;fill:#e0d4a0"/><path d="m9.68,19.55s.04-.12.08-.34c.01-.06.02-.12.04-.18,0-.07,0-.14,0-.22,0-.16.03-.34,0-.54-.04-.8-.27-1.88-.65-3.03-.38-1.15-.81-2.16-1.15-2.88-.17-.36-.31-.65-.42-.84-.1-.2-.17-.3-.18-.29-.01,0,.04.12.12.32.09.2.21.5.37.86.31.73.73,1.74,1.1,2.88.38,1.14.62,2.21.68,2.99.07.78-.05,1.26-.02,1.27Z" style="stroke-width:0px;fill:#e0d4a0"/><path d="m20.15,74.62c2.12,5.84,19.05,10.92,29.57,8.79-.69-1.17-3.07-2.56-5.46-3.44-5.17-1.9-10.29-2.71-9.59-8.42.66-5.37-5.92-17.95-11.72-12.84-1.66,3.76-4.47,11.28-2.8,15.9Z" style="stroke-width:0px;fill:#312f2d"/><path d="m21.88,59.88s-5.76,10.72-2.45,16.49c3.31,5.77,11.06,8.21,23.11,9.03,6.5.44,7.99-.62,7.18-1.99-10.52,2.13-27.45-2.95-29.57-8.79-1.67-4.62,1.14-12.14,2.8-15.9-.36.32-.72.7-1.07,1.16Z" style="stroke-width:0px;fill:#26221e"/><path d="m34.68,76.15s-5.74-1.75-8.75,0c-3,1.75,5.27,4.35,8.23,5,2.96.65,16.74,3.12,12.65,1.08-4.09-2.04-9.95-4.07-12.13-6.07Z" style="stroke-width:0px;fill:#5c5c5c"/><path d="m84.45,76.81c3.16-1.77,4.41-5.05,3.47-6.74-.63,2.79-2.88,5.98-6.88,7.46-3.48,1.28-11.28,1.59-15.64,1.66.64.43,1.82.75,3.55.93,5.45.57,10.62-.57,15.5-3.3Z" style="stroke-width:0px;fill:#26221e"/><path d="m85.44,69.02c.73,2.39-3.65,7.08-7.95,8.04-3.2.71-8.99.82-12.56.82-.2.52-.04.95.48,1.3,4.36-.07,12.16-.38,15.64-1.66,4.01-1.48,6.26-4.67,6.88-7.46-.4-.74-1.23-1.17-2.48-1.05Z" style="stroke-width:0px;fill:#312f2d"/><path d="m77.49,77.06c4.3-.96,8.68-5.64,7.95-8.04-.31.03-.63.08-.99.18,0,0-10,2.44-15.5,5.45-2.35,1.29-3.69,2.37-4.02,3.22,3.57,0,9.36-.11,12.56-.82Z" style="stroke-width:0px;fill:#5c5c5c"/></g></g></svg>