<?xml version="1.0" encoding="UTF-8"?>
<svg id="Layer_2" data-name="Layer 2" xmlns="http://www.w3.org/2000/svg" viewBox="0 0 128.35 40.06">
  <defs>
    <style>
      .cls-1 {
        fill: #d3a38d;
      }

      .cls-1, .cls-2, .cls-3, .cls-4, .cls-5, .cls-6, .cls-7, .cls-8, .cls-9, .cls-10 {
        stroke-width: 0px;
      }

      .cls-2 {
        fill: #a0715f;
      }

      .cls-3 {
        fill: #352721;
      }

      .cls-4 {
        fill: #fbc7b4;
      }

      .cls-5 {
        fill: #49362d;
      }

      .cls-6 {
        fill: #5c4639;
      }

      .cls-7 {
        fill: #fff;
      }

      .cls-8 {
        fill: #2c2c2d;
      }

      .cls-9 {
        fill: #231f20;
      }

      .cls-10 {
        fill: #f1f2f2;
      }
    </style>
  </defs>
  <g id="_100" data-name="100">
    <g>
      <path class="cls-3" d="m31.11,21.43s-2.17,4.24-3.01,5.74c-.85,1.51-6.03,4.24-6.5,6.78-.47,2.54.47,3.11,1.22,2.26.75-.85,1.69-2.54,3.95-3.11s6.97-1.98,10.26-6.4c3.3-4.43-2.92-11.02-5.93-5.27Z"/>
      <path class="cls-3" d="m72.57,16.13s-3.3,2.52-2.45,6.38,6.12,6.05,11.3,8.06c5.18,2.02,6.5,2.77,7.63,4.28,1.13,1.51-.47,2.35-1.98,3.11-1.51.76-1.22,2.1.09,2.1h4.9c2.64,0,1.98-2.1,2.64-4.37.66-2.27-3.41-6.47-4.72-7.6-1.31-1.13-2.43-2.61-2.34-4.32.08-1.71,2.52-5.49-3.86-8.31-6.38-2.83-11.21.67-11.21.67Z"/>
      <path class="cls-4" d="m3.41,9.49s-.35.11-.84.34c-.12.06-.25.12-.39.2-.13.07-.28.15-.41.24-.15.08-.28.19-.43.28-.13.11-.28.22-.4.35-.12.13-.24.26-.33.41-.05.07-.1.14-.15.22-.04.08-.07.15-.11.23-.08.15-.12.3-.17.45-.05.14-.08.29-.09.42-.01.13-.05.26-.04.37,0,.11,0,.21,0,.29,0,.16,0,.25,0,.25h-.02s0-.09-.02-.25c0-.08-.01-.18-.02-.29-.01-.11.01-.24.02-.37,0-.14.02-.29.07-.44.04-.15.07-.32.15-.48.03-.08.07-.16.11-.24.04-.08.09-.15.14-.23.09-.16.21-.3.33-.45.12-.14.26-.27.39-.39.15-.11.28-.23.43-.32.15-.09.3-.18.44-.24.14-.07.29-.12.42-.17.53-.18.9-.2.9-.2v.02Z"/>
      <path class="cls-4" d="m4.65,8.49s-.2-.16-.55-.31c-.17-.08-.38-.14-.61-.2-.23-.05-.47-.11-.73-.12-.25-.02-.51-.01-.75,0-.24.02-.46.06-.65.09-.19.03-.35.08-.46.1-.11.03-.17.04-.17.04v-.02s.05-.02.16-.06c.11-.03.26-.1.45-.14.19-.05.41-.11.65-.14.24-.04.51-.06.77-.06.13,0,.27,0,.4.02.13,0,.26.04.38.06.12.04.24.06.34.12.11.04.2.1.29.15.35.21.49.45.49.45h-.02Z"/>
      <path class="cls-6" d="m127.75,26.85c-20.98,1.21-23.54-2.9-32.98-6.81-9.53-3.95-15.33-3.2-15.33-3.2,0,0-11.68.47-13.37,4.61-1.69,4.14-10.45,0-14.03,1.25-3.58,1.25-8.76,0-8.76,0,0,0-7.72-2.19-10.36-.78-2.15,1.15-3.61,1.05-5.56-.51-1.13-3.61-1.47-7.34-2.35-8.16-1.51-1.41-2.54-2.16-4.14-3.33-1.6-1.17-3.95-1.85-7.06-1.19-3.11.66-4.52.75-5.18,1.41-.66.66-1.6.75-3.11.94-1.06.13-2.22-.39-2.81-.71-.01-1.35,1.63-2.49,1.63-2.49,0,0,1.88-4.52,6.97-6.68C16.4-.96,23.13-.11,29.06,2.99s10.47,6.17,15.57,6.07c5.1-.09,10.42-4.1,21.02-5.93,10.59-1.84,24.86,7.2,30.93,12.71,6.07,5.51,14.27,8.62,22.46,9.18,6.7.46,10.94,1.3,8.72,1.82Z"/>
      <path class="cls-1" d="m27.36,21.41c-.44-.35-.9-.78-1.41-1.28-2.73-2.73-3.58-4.24-3.48-5.51.09-1.27-.28-1.17-1.6-.7-1.32.47-5.37.19-7.72,0-2.36-.19-3.11-.85-5.56-.85s-4.25-1.23-4.25-1.23c-.19-.24-.37-.52-.5-.84-.08-.21-.12-.41-.12-.62.59.32,1.75.84,2.81.71,1.51-.19,2.45-.28,3.11-.94.66-.66,2.07-.75,5.18-1.41,3.11-.66,5.46.02,7.06,1.19,1.6,1.17,2.64,1.92,4.14,3.33.88.82,1.22,4.55,2.35,8.16Z"/>
      <path class="cls-2" d="m31.52,27.88c-2.62-1.22-4.27-3.02-5.28-4.27-1.84-2.26-5.84-5.88-7.77-6.78,0,0-2.35-1.41-5.18-1.69s-7.16-.28-8.1-1.98c0,0-1.08-.36-1.85-1.33,0,0,1.81,1.23,4.25,1.23s3.2.66,5.56.85c2.35.19,6.4.47,7.72,0,1.32-.47,1.69-.57,1.6.7-.1,1.28.75,2.78,3.48,5.51.5.5.97.93,1.41,1.28.82,2.6,2.04,5.14,4.16,6.47Z"/>
      <path class="cls-5" d="m127.75,26.85c-.5.12-1.32.22-2.5.3-6.5.42-19.63.85-26.41-1.84-6.78-2.68-13.7-2.83-18.5.14-4.8,2.97-19.35,3.03-23.87,2.01-4.52-1.02-8.33.82-16.39,1.66-3.62.38-6.41-.24-8.55-1.24,0,0,0,0,0,0-2.12-1.33-3.34-3.87-4.16-6.47,1.95,1.56,3.41,1.66,5.56.51,2.64-1.41,10.36.78,10.36.78,0,0,5.18,1.25,8.76,0,3.58-1.25,12.34,2.9,14.03-1.25,1.69-4.14,13.37-4.61,13.37-4.61,0,0,5.79-.75,15.33,3.2,9.44,3.92,12.01,8.02,32.98,6.81Z"/>
      <path class="cls-5" d="m16.99,7.02s1.98-.49,2.61-2.05c0,0,.85,2.19-2.61,2.05Z"/>
      <path class="cls-3" d="m15.93,5.57s.18-.81,1.06-1.2c.88-.39,1.77-.04,1.73.6s-.92,1.2-1.73,1.24-1.06-.64-1.06-.64Z"/>
      <path class="cls-8" d="m3.34,8.48s-.64-.12-1.07.96c-.42,1.08.38,1.41,1.6.8,1.22-.61,1-2.16-.53-1.76Z"/>
      <path class="cls-10" d="m11.81,6.84c0,.9-.73,1.64-1.64,1.64s-1.64-.73-1.64-1.64.73-1.64,1.64-1.64,1.64.73,1.64,1.64Z"/>
      <circle class="cls-9" cx="10.17" cy="6.84" r="1.24"/>
      <path class="cls-7" d="m11.42,5.97c0-.28-.23-.52-.52-.52s-.52.23-.52.52.23.52.52.52.52-.23.52-.52Z"/>
      <path class="cls-4" d="m5.31,11.83s.56.18,1.35.55c.4.19.85.42,1.32.69.23.15.47.29.71.45.24.17.48.32.71.5.23.17.47.35.69.53.23.18.44.37.63.56.2.18.38.38.55.57.18.18.3.38.43.56.14.17.22.36.3.52.04.08.08.15.11.22.02.07.04.14.06.2.08.24.12.38.12.38h-.02s-.05-.13-.13-.37c-.02-.06-.04-.12-.07-.2-.04-.07-.08-.14-.12-.21-.09-.15-.17-.33-.32-.5-.13-.17-.27-.36-.45-.54-.17-.18-.35-.37-.55-.55-.2-.18-.41-.36-.64-.53-.22-.18-.46-.34-.7-.51-.23-.17-.48-.31-.72-.47-.24-.15-.48-.29-.72-.43-.47-.27-.9-.53-1.29-.73-.76-.42-1.27-.69-1.27-.69v-.02Z"/>
      <path class="cls-4" d="m5.91,10.54s.38-.09.95-.13c.29-.01.63-.03.99,0,.36.02.74.08,1.12.15.19.04.38.07.56.12.18.05.37.09.54.15.17.06.34.1.49.17.15.07.3.12.43.19.26.13.47.24.61.34.14.09.22.14.22.14v.02s-.1-.05-.24-.13c-.14-.09-.36-.19-.62-.3-.13-.06-.28-.1-.43-.16-.15-.06-.32-.1-.49-.15-.17-.05-.35-.08-.53-.12-.18-.04-.37-.06-.56-.09-.38-.05-.75-.07-1.11-.09-.35-.02-.69-.04-.97-.05-.57-.01-.95-.02-.95-.02v-.02Z"/>
      <path class="cls-5" d="m45.09,27.36c-.92,2.41-.21,1.12-.02,2.63.19,1.51-1.04,5.79-1.23,6.8-.19,1.01.47,2.85-1.69,2.85s-5.18-.08-6.58,0c-1.4.08.46-1.93,2.53-2.35s1.69-1.97,1.13-4.12c-.56-2.14-5.65-4.28-7.34-8.82-.09-.25-.17-.49-.23-.73,0,0,1.8,4.2,6.76,4.26,4.96.06,6.35-4.37,5.56-8.7,1.59,2.88,1.58,6.93,1.11,8.17Z"/>
      <path class="cls-5" d="m86.5,25.28c-.85,5.21-1.93,5.38-5.57,7.89-3.64,2.52-6.67,3.53-7.94,4.79-1.27,1.26-2.12,2.14-2.65.75-.53-1.38,1.01-4.87,2.98-5.75s3.25-2.14,1.13-3.65c-2.12-1.51-7.39-.92-8.92-8.48-.3-1.48-.26-2.73,0-3.76-.04.24-.77,5.47,7.7,7.68,8.66,2.26,10.74-2.62,10.36-4.89-.16-.96-1.05-2.94-2.3-4.92,3.57,2.95,5.7,7.37,5.22,10.35Z"/>
      <path class="cls-6" d="m38.42,27.89c-4.96-.06-6.76-4.26-6.76-4.26-1.04-4.05,2.49-6.07,2.49-6.07,5.37-2.78,8.32-1.1,9.83,1.64.79,4.33-.6,8.76-5.56,8.7Z"/>
      <path class="cls-6" d="m73.23,24.75c-8.46-2.21-7.73-7.44-7.7-7.68,0,0,0,0,0,0h0c1.06-4.24,5.75-5.05,5.75-5.05,3.82-.68,7.32.71,10,2.92,1.25,1.98,2.14,3.96,2.3,4.92.38,2.27-1.69,7.15-10.36,4.89Z"/>
    </g>
  </g>
</svg>