<?xml version="1.0" encoding="UTF-8"?><svg data-name="Layer 2" xmlns="http://www.w3.org/2000/svg" viewBox="0 0 281.23 548.08"><defs/><g><g><path d="m42.74,97.21s-3.34,49.53-21.51,53.67c-18.17,4.14-20.47-6.45-20.47-6.45,0,0-6.29,19.43,17.44,18.88,0,0-10.54,4.07-11.92,16.08-1.38,12.01,15.58,22.68,15.58,22.68,0,0-12.4-16.27-.63-22.68,0,0-4.67,8.15,5.19,22.68s6.27,43.61,21.62,8.87c15.35-34.74,17.93-98.33,5.82-113.74-12.11-15.41-11.12,0-11.12,0Z" style="stroke-width:0px;fill:#10100b"/><path d="m197.25,369.6c-.87,9.78,4.84,23.89,6.24,38.24-8.34,5.6-21.53,2.86-26.73,1.44.15-1.25.22-2.32.22-3.11,0-10.48-9.21-27.01-8.29-45.87.92-18.86-1.92-45.59,13.32-67.61,15.23-22.01,30.89-10.22,28.13,22.01,0,0-11.97,44.52-12.89,54.89Z" style="stroke-width:0px"/><path d="m69.22,390.96c3.57,7.31,3.26,12.73,3.37,32.33-15.9,4.05-27.23,2.08-32.92.37-2.56-9.52,2.8-27.32.07-37.43-2.76-10.21-16.41-72.47-16.41-72.47,1.07-56.74,49.57-17.15,55.21,12.73,5.64,29.88-13.93,55.02-9.32,64.47Z" style="stroke-width:0px"/><path d="m269.87,262.44c-18.73-10.54-35.88-15-37.74-8.53-5.53,19.12-14.74,75.73-49.94,75.73s-38.48-16.3-38.48-16.3h-23.95s-8.34,39-48.82,34.74c-39.84-4.16-53.05-59.59-53.44-61.32v-.02c0-2.08.06-4.14.15-6.21.15-3.39.35-6.71.61-9.93,8.51-19.75,25.88-62.65,21.72-74.03-2.28-6.26-.77-19.67,3.26-33.21,1.33,8.4,2.56,18.57,2.54,27.39-.02,19.16,21.28,34.19,30.89,32.81,9.62-1.36,30.06-1.03,36.64-32.81,1.31-6.36,3.35-11.86,5.77-16.73,12.19,4.07,35.66,2.6,56.87,2.25,27.63-.44,65.47-11.7,88,29.84,5.08,15.25,6.26,36.03,5.93,56.33Z" style="stroke-width:0px;fill:#1e1e16"/><path d="m127.23,160.68c-5.67,7.99-11.27,17.24-13.93,30.06-6.58,31.78-27.02,31.44-36.64,32.81-9.62,1.38-30.91-13.65-30.89-32.81.02-14.7-3.41-33.14-4.99-40.93,5.27-26.6,10.67-53.4,10.67-53.4,2.97-28.53,44.3-9.91,52.89-1.01,8.6,8.92,15.55,63.55,15.55,63.55,0,0,1.6.92,7.35,1.73Z" style="stroke-width:0px;fill:#10100b"/><path d="m269.87,262.44c-.37,23.23-2.74,45.79-3.54,58.62-1.84,29.47-20.26,39.61-26.71,37.76-6.45-1.84-12.89-23.03-12.89-23.03-16.58,23.03-59.87,22.11-59.87,22.11,0,0-25.79,20.26-46.05,16.58-20.26-3.68-21.18,5.53-56.24,0-33.32-5.25-47.34-47.93-47.07-87.72.39,1.73,13.59,57.16,53.44,61.32,40.47,4.26,48.82-34.74,48.82-34.74h23.95s3.28,16.3,38.48,16.3,44.41-56.61,49.94-75.73c1.86-6.47,19.01-2.01,37.74,8.53Z" style="stroke-width:0px;fill:#10100b"/><path d="m39.97,196.57c4.16,11.38-13.21,54.29-21.72,74.03,2.84-36.25,11.51-62.06,12.53-69.1.53-3.65,5.21-27.59,10-51.69.63,3.11,1.57,7.94,2.45,13.54-4.03,13.54-5.54,26.95-3.26,33.21Z" style="stroke-width:0px;fill:#232219"/><path d="m263.93,206.11c-22.53-41.54-60.37-30.28-88-29.84-21.2.35-44.67,1.82-56.87-2.25,2.47-4.97,5.31-9.3,8.16-13.34h.02c5.77.81,15.66,1.49,32.24,1.03,33.16-.92,69.08,4.61,93.95,26.71,4.62,4.11,8.03,10.22,10.5,17.68Z" style="stroke-width:0px;fill:#232219"/><path d="m197.16,483.73c-1.47,14.5-3,20.17-5.08,22.07-.52-.42-1.09-.77-1.73-.9-.5-.11-1.16.02-1.68.05-.42.04-.76.09-1.16-.05-.77-.28-.96-1.44-1.69-1.68-.63-.2-.52.09-.96.37-.81.46-1.55.88-2.43,1.2-1.6.53-1.64-.57-2.98-.9-1.09-.28-2.36,1.38-3.22,1.9-.74.44-.83.35-1.36-.24-.55-.61-.87-1.36-1.49-1.92-.52-.44-.9-.88-1.53-.35-.24.22-.41.72-.57,1.01-.48-.35-.68-1.31-1.22-1.47-.74-.24-.92.63-1.18,1.09-.5.85-.72,1.2-1.66,1.16-1.09-.04-1.44-.41-2.21-1.05-.76.13-1.14.77-1.9.94-.35-.44-.55-.94-.66-1.49-.13-.48-.26-.94-.39-1.42-.28-.18-.48-.05-.7.17-.77.7-.18,2.08-.57,2.91-1.47.29-1.81-2.32-3.5-2.08-.85.13-1.12.63-1.68,1.27-.2.26-1.03.94-1.23,1.55-1.29-1.62.11-5.78,3.28-15.84,5.95-18.88,17.41-65.45,19.12-80.74,5.19,1.42,18.38,4.16,26.73-1.44.09.83.15,1.66.2,2.49.92,15.22-4.77,56.11-6.54,73.41Z" style="fill:#bbbdbf;stroke-width:0px"/><path d="m78.43,527.76c-.04.39-.09.76-.2,1.1-.42.11-.83.3-1.23.5-.68.35-1.2.68-1.99.77-.66.09-1.34.15-2.01.24-1.34.2-2.39.79-3.54,1.47-1.42.87-2.28-.2-3.44-1.05-1.27-.96-1.66-.87-2.65.29-.22-.53.22-1.45-.41-1.75-1.29.77-2.62,1.38-4.02,1.93-1.2.46-2.25,1.07-3.54,1.05-.24-.53-.5-1.05-.81-1.55-.66,0-.81.68-1.4.85-.37.11-.74.04-1.11-.07-.77-.26-2.8-2.03-3.5-1.12-.29.35.02.99-.24,1.42-.5.79-1.69.13-2.32-.22-.66-.37-1.2-.85-1.9-1.18-.76-.35-1.58-.63-2.41-.74-.04.46.28,1.29-.04,1.7-.18.22-1.03.31-1.29.31-.9.02-1.11-.22-1.51-1.09-.37-.77-.53-1.55-.57-2.39-.33.76-.48,1.64-.63,2.51-1.55-7.17,5.23-24.24,6.85-36.81,2.01-15.71-2.03-60.53-4.79-69.96-.04-.11-.06-.2-.07-.31,5.69,1.71,17.02,3.68,32.92-.37.04,5.71.11,12.62.31,21.13.92,37.73,6.45,72.32,5.53,83.34Z" style="fill:#bbbdbf;stroke-width:0px"/><path d="m266.4,416.22c-11.59,7.31-22.71,5.34-29.29,2.93.53-4.22,2.76-7.37,1.58-17.98-1.84-16.51-11.97-82.55-11.97-82.55,11.05-39.31,5.53-16.51,0-56.61-2.76-20.08.48-32.27,7.06-38.45-.24.59-6.01,15.14.02,41.23,6.15,26.62,15.36,52.87,16.28,61.16.92,8.29-.92,52.96,0,58.95.9,5.82,4.05,19.07,13.08,9.38,1.49,9.93,3.57,14.3,3.24,21.94Z" style="stroke-width:0px;fill:#10100b"/><path d="m147.53,429.17c-12.99,7.05-24.3,4.27-30.39,1.64.94-10.5,3.65-44.69-.02-60.29-3.68-15.73-11.05-30.67-11.05-30.67-3.61-21.18.44-36.27,7.63-45.41,0,0-5.43,23.93,5.38,50.29s10.02,59.21,15.01,71.81c2.8,7.02,7.77,6.83,13.06,2.36.15,2.91.28,6.15.37,9.8,0,.17,0,.33.02.48Z" style="stroke-width:0px;fill:#10100b"/><path d="m149.36,362.65c-5.78,30.32-3.41,30.93-2.21,56.24-5.29,4.48-10.26,4.66-13.06-2.36-4.99-12.6-4.2-45.44-15.01-71.81s-5.38-50.29-5.38-50.29c9.32-11.9,23.93-13.69,33.82-5.69,17.5,14.17,8.29,40.1,1.84,73.91Z" style="stroke-width:0px;fill:#1e1e16"/><path d="m163.39,541.32c-.29-.13-.59-.28-.85-.42-.87-.5-1.69-1.38-2.63-1.73-1.71-.68-.83,1.27-1.55,1.95-.28.24-.99.28-1.33.18-.96-.26-1.57-.99-2.62-1.2-2.54-.52-1.88,3.28-2.52,4.68-1.68-1.23-2.78-3.11-4.51-4.31-.55.35-.85.87-1.11,1.47-.15.37-.35,2.41-.85,2.58-.55-.98-3.28-5.25-4.68-3-.33.52-.7.99-.99,1.51-.53.98-.81,1.95-1.88,2.38-.85-.9-1.51-1.9-2.27-2.87-1.73,1.05-2.67,3.17-4.02,4.61-.29.33-.92.98-1.44.94-.57-.06-1.01-.87-1.23-1.27-.35-.63-.63-2.71-1.77-2.52-1.09.18-.64,2.1-1.36,2.67-.98-.7-3.04-2.95-4.38-2.16-.48.29-.94,1.12-1.57,1.2-.88.09-.81-1.22-.81-1.84,0-1.2.22-2.34-.31-3.44-1.09,0-1.82.79-2.62,1.46-1.14.94-2.21,1.99-3.22,3.08l-.09.09c-2.17-3.48.96-8.14.96-8.14,0,0-1.44-27.32-1.42-43.82.02-16.52,3.87-52.09,4.79-62.32,0-.07.02-.15.02-.24,6.1,2.63,17.41,5.42,30.39-1.64,6.36,35.55,6.36,51.52,8.58,71.58,2.27,20.5,5.84,38,5.84,38,0,0,1.12,1.07,1.44,2.56Z" style="stroke-width:0px;fill:#e6e7e8"/><path d="m124.36,454.11s-2.76,37.17,0,48.22c2.76,11.05,5.07,23.03,5.07,23.03v-37.66l5.55,19.17v-13.29l8.71,31.78v-47.89l10.21,29.41-10.19-63.48-.03,24.41-5.17-21.19v41.1l-5.86-44.31-2.3,25.33-2.3-25.33-1.91,31.32-1.77-20.59Z" style="stroke-width:0px;fill:#fff"/><path d="m261.72,372.08c0,9.91.63,16.86,1.44,22.2-9.03,9.69-12.18-3.56-13.08-9.38-.92-5.99.92-50.66,0-58.95-.92-8.29-10.13-34.54-16.28-61.16-6.02-26.08-.26-40.64-.02-41.23l.02-.02c6.56-6.15,16.43-6.34,27.01-2.41,21.18,7.87.92,117.14.92,150.94Z" style="stroke-width:0px;fill:#1e1e16"/><path d="m281.23,516.26c-.31-.28-.64-.44-.99-.39-1.4.24-.09,2.23-1.05,2.76-.68.39-1.22-.72-1.44-1.11-.72-1.14-.96-2.1-2.16-2.74-.92.96-.44,2.01-.64,3.15-.72.44-2.14-.28-2.67-.77-.44-.44-.81-.98-1.12-1.53-.28-.52-.39-1.07-.68-1.57-.64.46-1.14,1.22-1.68,1.79-.68.7-1.66,1.62-1.44,2.71-.92.07-1.68-.63-2.38-1.11-1.11-.76-1.27-.96-2.49-.85-.66.06-1.14-.22-1.75-.46-.44-.18-1.14-.72-1.68-.42-.48.28-.44,1.07-.98,1.34-.35.17-1.05,0-1.44,0-.83,0-1.73.15-2.56.02-.44-.06-.64-.29-1.03-.42-.87-.33-1.75-.2-2.65-.26-.76-.06-1.99-1.77-2.62-.85-.29.44,0,1.36-.79,1.42-.44.04-1.2-.61-1.55-.83-.96-.59-1.66-1.44-2.58-2.04-.76.26-1.42,1.69-1.82,2.32-.22.39-.44.79-.64,1.18-1.2-1.92-1.36-4.02-1.36-4.02,0,0,4.26-72.32-.35-84.9-1.64-4.49-1.88-7.18-1.58-9.54,6.58,2.41,17.7,4.38,29.29-2.93-.09,2.23-.41,4.73-.99,7.76-3.68,18.86,5.53,28.3,9.21,58.97,2.21,18.46,6.43,28.35,6.61,33.32Z" style="stroke-width:0px;fill:#e6e7e8"/><path d="m250.76,460.43l2.08,34.08,1.84-17.04,4.45,24.41v-20.72l7.31,17.19v-13.97l6.67,17.5s-5.05-30.39-6.67-39.61c-1.62-9.21-4.5-15.66-4.5-15.66l2.42,27.63-5.23-24.21v9.02l-5.37-12.44v19.35l-3-5.53Z" style="stroke-width:0px;fill:#fff"/><path d="m101.9,27.82s5.72-12.67,12.68-17.5c6.97-4.84,4.99-16.93,12.55-5.64s2.99,36.09-9.81,39c-12.8,2.91-18.82,4.87-15.42-15.85Z" style="stroke-width:0px;fill:#1e1e16"/><path d="m106.27,35.36s2.56-12.63,13.17-18.1c10.61-5.48,8.32-7.47,7.71,2.78-.62,10.25-10.75,24.07-20.88,15.32Z" style="stroke-width:0px;fill:#10100b"/><path d="m126.97,92.89c-1.56,18.99-20.12,37.28-20.12,57.7s2.31,42.22-30.19,42.22-30.19-21.81-30.19-42.22-18.56-38.7-20.12-57.7c-1.54-19.01,7.74-49.98,14.71-57.71,6.97-7.74,35.6-8.44,35.6-8.44,0,0,28.63.7,35.6,8.44,6.97,7.74,16.25,38.7,14.71,57.71Z" style="stroke-width:0px;fill:#1e1e16"/><path d="m51.43,27.82s-5.72-12.67-12.68-17.5c-6.97-4.84-4.99-16.93-12.55-5.64s-2.99,36.09,9.81,39c12.8,2.91,18.82,4.87,15.42-15.85Z" style="stroke-width:0px;fill:#1e1e16"/><path d="m76.67,186.03c-18.01,0-25.2-11.73-24.29-24.44.89-12.71,13.94-17.39,13.94-24.37s-2.69-27.39-2.69-59.33,13.05-32.42,13.05-32.42c0,0,13.05.5,13.05,32.42s-2.69,52.35-2.69,59.33,13.05,11.66,13.94,24.37c.91,12.71-6.28,24.44-24.29,24.44Z" style="stroke-width:0px;fill:#fff"/><path d="m70.36,173.06s.39-8.22-5.88-11.48c-6.27-3.26-7.59.46-5.16,5.74,2.43,5.28,10.53,13.57,11.04,5.74Z" style="fill:#bbbdbf;stroke-width:0px"/><path d="m47.06,35.36s-2.56-12.63-13.17-18.1-8.32-7.47-7.71,2.78c.62,10.25,10.75,24.07,20.88,15.32Z" style="stroke-width:0px;fill:#10100b"/><path d="m115.87,54.19l-7.02-15.49c.79,2.1,6.06,17.54-4.22,26.05,0,0,.54-14.57-7.49-21,0,0,.91,16.76-8,27.32l-5.36-24.17-7.11,24.17-7.11-24.17-5.36,24.17c-8.91-10.56-8-27.32-8-27.32-8.02,6.43-7.49,21-7.49,21-10.29-8.51-5.01-23.95-4.22-26.05l-7.02,15.49c-1.12-4.84-.82-9.74.09-14.18v-.02c1.68-2.78,6.06-8.71,14.37-11.7l-3.36,11.05s6.72-5.97,14.09-6.82c0,0-4.24,11.31-.26,16.19l7.02-10.57,7.25,12.88,7.25-12.88,7.02,10.57c3.99-4.88-.26-16.19-.26-16.19,7.37.85,14.09,6.82,14.09,6.82l-3.36-11.05c8.3,2.98,12.69,8.92,14.37,11.7v.02c.91,4.44,1.21,9.34.09,14.18Z" style="stroke-width:0px;fill:#10100b"/><path d="m101.41,28.29l3.36,11.05s-6.72-5.97-14.09-6.82c0,0,4.24,11.31.26,16.19l-7.02-10.57-7.25,12.88-7.25-12.88-7.02,10.57c-3.99-4.88.26-16.19.26-16.19-7.37.85-14.09,6.82-14.09,6.82l3.36-11.05c-8.3,2.98-12.69,8.92-14.37,11.7,1.98-9.73,7.02-17.26,7.02-17.26,8.89-12.45,32.09-10.76,32.09-10.76,0,0,23.21-1.7,32.09,10.76,0,0,5.04,7.53,7.02,17.26-1.68-2.78-6.06-8.71-14.37-11.7Z" style="stroke-width:0px;fill:#1e1e16"/><circle cx="45.71" cy="93.5" r="8.86" transform="translate(-53.88 123.69) rotate(-80.81)" style="stroke-width:0px;fill:#f1f1f2"/><path d="m51.38,93.5c0-3.09-2.51-5.6-5.6-5.6s-5.6,2.51-5.6,5.6,2.51,5.6,5.6,5.6,5.6-2.51,5.6-5.6Z" style="stroke-width:0px;fill:#231f20"/><path d="m53.72,90.36c0-1.73-1.4-3.13-3.13-3.13s-3.13,1.4-3.13,3.13,1.4,3.13,3.13,3.13,3.13-1.4,3.13-3.13Z" style="stroke-width:0px;fill:#fff"/><path d="m82.97,173.06s-.39-8.22,5.88-11.48c6.27-3.26,7.59.46,5.16,5.74-2.43,5.28-10.53,13.57-11.04,5.74Z" style="fill:#bbbdbf;stroke-width:0px"/><circle cx="107.62" cy="93.5" r="8.86" transform="translate(-18.54 27.11) rotate(-13.23)" style="stroke-width:0px;fill:#f1f1f2"/><path d="m101.96,93.5c0-3.09,2.51-5.6,5.6-5.6s5.6,2.51,5.6,5.6-2.51,5.6-5.6,5.6-5.6-2.51-5.6-5.6Z" style="stroke-width:0px;fill:#231f20"/><circle cx="102.75" cy="90.36" r="3.13" style="stroke-width:0px;fill:#fff"/></g></g></svg>