<?xml version="1.0" encoding="UTF-8"?>
<svg id="Layer_2" data-name="Layer 2" xmlns="http://www.w3.org/2000/svg" viewBox="0 0 194.65 606.31">
  <defs>
    <style>
      .cls-1 {
        fill: #5c7abd;
      }

      .cls-1, .cls-2, .cls-3, .cls-4, .cls-5, .cls-6, .cls-7, .cls-8, .cls-9, .cls-10, .cls-11, .cls-12 {
        stroke-width: 0px;
      }

      .cls-2 {
        fill: #010101;
      }

      .cls-3 {
        fill: #5c0d27;
      }

      .cls-4 {
        fill: #424143;
      }

      .cls-5 {
        fill: #405caa;
      }

      .cls-6 {
        fill: #fff;
      }

      .cls-7 {
        fill: #801a18;
      }

      .cls-8 {
        fill: #22386f;
      }

      .cls-9 {
        fill: #8d7969;
      }

      .cls-10 {
        fill: #231f20;
      }

      .cls-11 {
        fill: #595a5c;
      }

      .cls-12 {
        fill: #6e6055;
      }
    </style>
  </defs>
  <g id="CASSOWARY">
    <g>
      <path class="cls-12" d="m91.62,577.83c-1.25-5.15-.4-10.83-.6-16.19-.74-20.03-3.31-39.81-3.31-60.05,0-30.92,1.66-61.59,1.66-92.36,0-10.68.93-21.73-.06-32.32-.98-10.51-4.6-22.82-18.88-19.47-9.34,2.19-12.97,11.75-8.39,19.9l2.48,8.28c-.99,4.66,3.87,15.92,4.52,21.65.72,6.33.45,12.78.45,19.16-.04,34.7,0,69.39,0,104.09,0,8.92,1.81,19.11-1.66,27.04-5.81,13.3-23.15,15.41-32.42,24.38,6.1,3.22,14.34,2.23,21.53,2.59.3,4.26-2.49,7.03-2.23,11.35,6.72,1.03,12-4.14,17.06-7.54,4.02-2.7,3.29-4.09,7.76-3.63,1.71.18,6.13,4.09,8.8,4.71,2.36.54,5.25.2,7.54.68.02-4.78-3.19-7.94-4.24-12.28Z"/>
      <path class="cls-9" d="m60.65,578.68c-.05-2.98,2.64-5.58,4.29-7.81,2.45-3.33,4.86-7.2,6.29-11.06,2.94-7.94,1.74-17.8,1.34-26.07-.7-14.55-3.3-30.53-1.02-44.88,1.83-1.58,4.43.79,6.9.71-.41,3.28,1.26,7.59,1.42,11.15.55,12.15.72,24.31.72,36.53,0,7.64-1.34,15.86-.36,23.44.74,5.71,5.12,11.5,4.15,17.63-3.96-1.66-5.91-6.43-10.61-4.7-3.83,1.41-7.42,4.58-13.12,5.07Z"/>
      <path class="cls-12" d="m111.89,588.12c1.25-5.15.4-10.83.6-16.19.74-20.03,3.31-39.81,3.31-60.05,0-30.92-1.66-61.59-1.66-92.36,0-10.68-.93-21.73.06-32.32.98-10.51,4.6-22.82,18.88-19.47,9.34,2.19,12.97,11.75,8.39,19.9l-2.48,8.28c.99,4.66-3.87,15.92-4.52,21.65-.72,6.33-.45,12.78-.45,19.16.04,34.7,0,69.39,0,104.09,0,8.92-1.81,19.11,1.66,27.04,5.81,13.3,23.15,15.41,32.42,24.38-6.1,3.22-14.34,2.23-21.53,2.59-.3,4.26,2.49,7.03,2.23,11.35-6.72,1.03-12-4.14-17.06-7.54-4.02-2.7-3.29-4.09-7.76-3.63-1.71.18-6.13,4.09-8.8,4.71-2.36.54-5.25.2-7.54.68-.02-4.78,3.19-7.94,4.24-12.28Z"/>
      <path class="cls-9" d="m142.87,588.96c.05-2.98-2.64-5.58-4.29-7.81-2.45-3.33-4.86-7.2-6.29-11.06-2.94-7.94-1.74-17.8-1.34-26.07.7-14.55,3.3-30.53,1.02-44.88-1.83-1.58-4.43.79-6.9.71.41,3.28-1.26,7.59-1.42,11.15-.55,12.15-.72,24.31-.72,36.53,0,7.64,1.34,15.86.36,23.44-.74,5.71-5.12,11.5-4.15,17.63,3.96-1.66,5.91-6.43,10.61-4.7,3.83,1.41,7.42,4.58,13.12,5.07Z"/>
      <path class="cls-6" d="m79.55,264.05c-.25-.53-.46-1.2-.72-2.46.22.79.46,1.61.72,2.46Z"/>
      <path class="cls-2" d="m194.65,320.06c0,2.02-.04,4.05-.12,6.1-1.02,24.9-6.53,52.6-17.88,75.13-8.78,17.46-17.38,32.29-18.66,51.66-4.08-.82-8.67-2.83-10.96-6.52-.75,1.04-1.61,1.48-2.3,3.06-2.6-1.37-6.99-2.67-9.29-4.13-.06,1.4-.26,2.86-.45,4.25-4.85-7.8-6.61-5.32-13.6-7.75-5.25-1.83-15.27-3.37-18.78-6.95-1.42,1.4-3.09,2.53-3.95,4.48-5.75-.22-12.78,3.5-20.07,3.72-.96,8.47-10.6,5.63-14.66,1.08-2.44,2.71-4.25,6.22-5.14,9.9-8.39-5.96-15.17-15.01-21.51-22.97-15.65-19.65-25.41-46.3-31.15-70.48-4.58-19.35-7.8-37.56-5.21-56.93.32,7.57,1.79,14.6,4.76,22.06,2.19-6.47,1.59-16.26,6.28-22.55.47,7.52-1.22,16.57.99,23.41,3.42-4.87,4.19-11.26,7.37-16.52.45,1.45,1.89,3.21,2.17,5.47,2.93-3.33,5.34-7.71,7.42-11.96.47,3.31,2.1,7.08,2.51,10.07,2.18-3.62,3.69-9.36,5.65-13.51,2.88,6.41-.23,15.9,2.17,22.34,6.97-7.77,11.86-20.36,12.67-30.64,1.25-1.13.84.65,1.8,0,.46-6.5.29-13.22.17-19.8,3.64,7.13,11.29,21.6,19.06,22.06-.48-2.56.26-4.81-.86-7.41,3.64,4.43,8.94,6.75,14.38,8.27-.59-9.21-5.1-21.63-7.88-30.93.28.61.61,1.04,1.08,1.95-.21-2.31.38-5.18.33-7.51,1.27,1.81,4.31,3.79,5.3,5.26-1.06-12.46-6.93-60.01,2.48-68.58,30.77-28.04,33.22,56.52,29.67,73.29,3.55-2.42,5.66-6.85,8.41-10.4.55,7.86-.18,15.95.41,23.78,1.41-2.29,5.29-5.19,6.72-7.12-.83,6.36,1.71,12.23-.05,18.37,9.54-5.49,9.22-15.85,14.24-23.71,3.31,8.92-.89,19.67,2.45,28.11,1.35.15,1.71-.65,2.39-.65-.87,12.28,2.19,24.52,2.34,36.79,6.1-1.63,4.31-13.28,8.64-18.09,1.37,6.64,1.46,13.5,2.62,20.09,4.56-4.76,6.72-11.34,7.96-17.81,1.09.2,1.86.53,2.96.83.3-5.73,0-11.85.31-17.68,4.16,4.58,6.16,11.32,9.79,16.7-.23-2.73.55-5.86.33-8.62,2.3,3.11,4.46,7.01,6.7,11Z"/>
      <path class="cls-10" d="m187.94,309.06c2.3,3.11,4.46,7.01,6.7,11-.02-26.37-7.13-50.07-16.35-74.08-2.13-2.99-4.4-5.96-6.82-8.92-9.53-11.65-22.16-20.73-32.32-31.9-8.73-9.61-11.96-22.84-20.84-31.55-9.95-2.73-17.95-2.21-24.37.64-8.17.08-16.42,2.62-20.39,8.73-.09,8.74-5.57,13.67-12.88,19.19-13.22,9.98-25.74,20.1-37.45,31.21-1.45,4.08-2.63,8.18-3.86,11.56-5.84,16.05-12.69,32.15-16.6,48.74-.8,3.37-1.41,6.71-1.85,10v.02c.32,7.57,1.79,14.6,4.76,22.06,2.19-6.47,1.59-16.26,6.28-22.55.47,7.52-1.22,16.57.99,23.41,3.42-4.87,4.19-11.26,7.37-16.52.45,1.45,1.89,3.21,2.17,5.47,2.93-3.33,5.34-7.71,7.42-11.96.47,3.31,2.1,7.08,2.51,10.07,2.18-3.62,3.69-9.36,5.65-13.51,2.88,6.41-.23,15.9,2.17,22.34,6.97-7.77,11.86-20.36,12.67-30.64,1.25-1.13.84.65,1.8,0,.46-6.5.29-13.22.17-19.8,3.64,7.13,11.29,21.6,19.06,22.06-.48-2.56.26-4.81-.86-7.41,3.64,4.43,8.94,6.75,14.38,8.27-.59-9.21-5.1-21.63-7.88-30.93.28.61.61,1.04,1.08,1.95-.21-2.31.38-5.18.33-7.51,1.27,1.81,4.31,3.79,5.3,5.26-1.06-12.46-6.93-60.01,2.48-68.58,30.77-28.04,33.22,56.52,29.67,73.29,3.55-2.42,5.66-6.85,8.41-10.4.55,7.86-.18,15.95.41,23.78,1.41-2.29,5.29-5.19,6.72-7.12-.83,6.36,1.71,12.23-.05,18.37,9.54-5.49,9.22-15.85,14.24-23.71,3.31,8.92-.89,19.67,2.45,28.11,1.35.15,1.71-.65,2.39-.65-.87,12.28,2.19,24.52,2.34,36.79,6.1-1.63,4.31-13.28,8.64-18.09,1.37,6.64,1.46,13.5,2.62,20.09,4.56-4.76,6.72-11.34,7.96-17.81,1.09.2,1.86.53,2.96.83.3-5.73,0-11.85.31-17.68,4.16,4.58,6.16,11.32,9.79,16.7-.23-2.73.55-5.86.33-8.62Zm-109.1-47.46c.22.79.46,1.61.72,2.46-.25-.53-.46-1.2-.72-2.46Z"/>
      <path class="cls-6" d="m78.84,261.6c.22.79.46,1.61.72,2.46-.25-.53-.46-1.2-.72-2.46Z"/>
      <path class="cls-8" d="m121.82,82.38c-4.94,11.09-.65,28.02-.64,40.25.01,7.93.53,15.81,1.15,23.68-.47,14.8-1.09,29.6-1.15,44.39v.2c-.02,4.22,0,8.51.03,12.83-1.97-1.08-3.91-2-5.78-2.76-.93,2-3.01,3.53-3.53,5.69-.59-1.12-2.17-2.07-2.73-4.05-2.44.82-4.69,2.45-6.57,4.6-2.38-4.57-3.18-12.2-8.32-13.9-.09,2.51.02,5.03-.32,7.49-1.73-29.17-4.05-71.25-4.05-88.65,0-27.87-7.6-36.32-4.22-34.94,3,1.22,21.87-5.2,26.06-6.65,3.47,2.76,8.85,4.88,13.69,6.65-1.48,1.41-2.72,3.11-3.64,5.18Z"/>
      <path class="cls-5" d="m122.08,57.18c-.43.39-.86.78-1.29,1.17-.47.43-.95.87-1.42,1.28-1.74,1.55-3.52,3.04-5.46,4.32-.15.1-.29.2-.44.29-.28.19-.57.36-.86.53-1.26.74-2.58,1.41-4.02,1.95.61,1.4,1.73,2.67,3.19,3.82-4.2,1.45-23.06,7.87-26.06,6.65-3.38-1.37,4.22,7.07,4.22,34.94,0,17.4,2.31,59.48,4.05,88.65-.16,1.14-.42,2.26-.84,3.37-4.32-1.99-8.25-7.46-9.27.87-1.63-2-3.41-4.42-4.9-6.66-1.34.5-2.48,1.32-3.33,2.39-.3-5.34-.65-10.68-.91-16-.99-20.24-.52-40.36-2.53-59.92-1.42-13.73-5.02-27.12-7.91-40.59-.99-3.23-1.86-6.53-2.5-9.8.45-1.44.54-3.18,1.35-4.35,1.26-1.82,2.59-3.33,4.2-5.02,8.02-8.38,22.97-5.89,34.42-7.03,6.61-.65,13.44-.84,20.32-.87Z"/>
      <path class="cls-4" d="m172.48,71.07c-7.9-3.81-17.15-6.01-25.11-7.07-11-1.47-23.38-.22-34.77.78.29-.17.58-.35.86-.53.15-.09.29-.19.44-.29,1.94-1.29,3.72-2.77,5.46-4.32.47-.42.95-.85,1.42-1.28.43-.39.86-.78,1.29-1.17h0c6.04-.02,12.11.07,18.12.07,6.72,0,13.53-.39,20.69,2,3.97,1.33,10,5.32,15.09,6.54.51.48.83.91.88,1.23.41,2.52-1.59,3.63-4.38,4.05Z"/>
      <path class="cls-3" d="m104.29,82.58c-1.59,5.51-4.62,11.09-5.06,16.89-1.43,18.53,2.55,38.27,2.53,57.06-.02,14.8-3.88,41.75,4.04,55.17,4.52,7.66,11.03,4.95,12.01-3.46,1.17-9.96-6.03-19.77-7.6-29.38-2.09-12.77-2.73-27.22-3.38-40.53-.47-9.82.27-19.78-.19-29.56-.32-6.76-3.2-16.95-2.35-26.2Z"/>
      <path class="cls-3" d="m119.5,91.03c0,25.38.82,50.73,7.75,75.27.69,2.44,14.69,38.34-3.58,25.3-6.72-4.8-7.23-24.77-7.96-32.57-1.25-13.28-1.06-27.54-.42-40.9.38-8.04,1.13-15.97,4.22-27.1Z"/>
      <path class="cls-10" d="m172.48,71.07c-4.25.64-10.34-.31-12.49-.32-9.57-.02-23.37-1.13-32,4.45-.91.59-1.76,1.24-2.53,1.99-6.87-2.51-14.81-5.73-16.88-10.47,1.44-.55,2.77-1.21,4.02-1.95,11.39-1,23.77-2.25,34.77-.78,7.96,1.06,17.21,3.27,25.11,7.07Z"/>
      <path class="cls-11" d="m175.98,65.79c-5.08-1.22-11.12-5.21-15.09-6.54-7.17-2.39-13.98-1.99-20.69-2-6,0-12.08-.1-18.12-.07.35-.32.7-.64,1.06-.96.43-.38.86-.77,1.3-1.14.2-.17.39-.34.59-.51.2-.17.39-.34.6-.5.19-.16.38-.32.58-.48.02-.01.03-.03.06-.05.19-.15.38-.3.57-.46.21-.17.42-.33.63-.48.2-.15.39-.3.6-.45.01-.01.02-.02.03-.02.3-.23.6-.44.91-.65,8.77-6.05,16.3-2.57,25.54.15,3.11,2.48,6.59,4.61,10.15,6.88,1.42.91,8.73,4.85,11.29,7.29Z"/>
      <path class="cls-1" d="m128.08,52.13s-.02.01-.03.02c-.2.15-.4.3-.6.45-.21.15-.42.31-.63.48-.19.15-.38.3-.57.46-.02.02-.04.03-.06.05-.2.16-.39.32-.58.48-.2.16-.4.33-.6.5-.19.17-.39.34-.59.51-.44.38-.87.76-1.3,1.14-.35.32-.71.64-1.06.96h0c-6.88.03-13.71.21-20.32.87-11.45,1.14-26.4-1.36-34.42,7.03-1.61,1.69-2.95,3.2-4.2,5.02-.81,1.17-.9,2.91-1.35,4.35-1.59-8.14-1.7-16.09,1.73-22.24,2.04-3.66,4.79-5.78,6.79-9.02,2.21-.27,4.39-.65,6.53-1.12,16.05-3.51,39.68-3.82,51.24,10.07Z"/>
      <path class="cls-7" d="m154.54,51.62c-9.24-2.71-16.77-6.2-25.54-.15-.31.21-.61.43-.91.65-11.56-13.89-35.19-13.58-51.24-10.07-2.14.47-4.32.85-6.53,1.12.66-1.07,1.24-2.26,1.69-3.68,1.53-4.81,1.16-10.07,1.88-15.2,1.57-11.22,3.29-20.76,16.47-23.58,11.18-2.38,29.18,1.35,38.45,7.77,11.84,8.19,11.41,22.5,17.92,34.21,2.04,3.66,4.74,6.47,7.81,8.93Z"/>
      <circle class="cls-2" cx="108.43" cy="55.13" r="11.15"/>
      <path class="cls-2" d="m75.57,51.33c-6.7,1.49-1.23,5.97,2.53,2.53l-2.53-2.53Z"/>
      <circle class="cls-6" cx="109.52" cy="53.88" r="3.08"/>
    </g>
  </g>
</svg>