<?xml version="1.0" encoding="UTF-8"?>
<svg id="Layer_2" data-name="Layer 2" xmlns="http://www.w3.org/2000/svg" viewBox="0 0 113.9 105.97">
  <defs>
    <style>
      .cls-1 {
        fill: #9f9e84;
      }

      .cls-1, .cls-2, .cls-3, .cls-4, .cls-5, .cls-6, .cls-7, .cls-8, .cls-9 {
        stroke-width: 0px;
      }

      .cls-2 {
        fill: #8c8a88;
      }

      .cls-3 {
        fill: #e5ded4;
      }

      .cls-4 {
        fill: #777;
      }

      .cls-5 {
        fill: #fff;
      }

      .cls-6 {
        fill: #b5b2ae;
      }

      .cls-7 {
        fill: #231f20;
      }

      .cls-8 {
        fill: #f1f2f2;
      }

      .cls-9 {
        fill: #86866a;
      }
    </style>
  </defs>
  <g id="_100" data-name="100">
    <g>
      <path class="cls-2" d="m39.89,100.25c-3.35.53-5.54.4-6.85.18.2-3.23.36-9.02-.16-13.32-.66-5.46-1.53-8.3-3.93-12.87s-5.78-14.23-5.78-14.23c-1.63-9.41,9.28-7.63,13.21-2.39s2.84,24.03,2.84,31.46c0,4.16.69,8.32.67,11.18Z"/>
      <path class="cls-2" d="m79.41,65.92c-3.71,9.61.87,11.8-1.09,15.73s-3.57,12.95-4.86,16.6c-3.19.21-5.25.11-6.56-.07,1.12-2.94,2.29-7.71,3.77-12.16,1.75-5.24.44-7.86-1.31-13.11-1.75-5.24-1.09-13.98-1.09-13.98,1.53-6.55,3.93-18.35,13.65-11.13,9.72,7.22,1.21,8.51-2.51,18.12Z"/>
      <path class="cls-4" d="m39.89,100.25c-.01,2.24-.45,3.68-1.99,3.68-3.5,0-5.24.44-5.02-1.53.05-.42.1-1.1.16-1.97,1.31.23,3.5.35,6.85-.18Z"/>
      <path class="cls-4" d="m73.46,98.24c-.06.16-.11.31-.17.44-1.31,3.28-1.96,3.5-4.39,3.5s-3.91,0-2.6-2.62c.2-.39.39-.86.59-1.38,1.31.18,3.38.28,6.56.07Z"/>
      <path class="cls-3" d="m113.9,39.96c-3.69,6.41-10,5.58-10,5.58,2.13-.33,3.82-2.47,3.97-2.67-.11.11-1.03.91-5.83,1.27-5.16.39-8.14-3.3-8.14-3.3-.84-.71-1.61-1.14-2.29-1.34-.05-.13-.09-.27-.14-.4-2.29-7.33-1.35-7.29,1.48-5.76,0,1.5.52,2.75.52,2.75,0,0,3.09,7.13,9.28,6.43,5.71-.65,7.64-3.01,8.29-6.11,0,0,0,0,0,0,.09-.25.14-.52.14-.8,0,0,1.85,3.64-.39,5.94,0,0,1.17.08,3.11-1.58Z"/>
      <path class="cls-6" d="m113.9,39.96s-.29,4.95-5.34,7.09c-4.96,2.1-14.32-.11-16.95-7.56.68.2,1.45.64,2.29,1.34,0,0,2.99,3.69,8.14,3.3,4.79-.36,5.72-1.16,5.83-1.27-.15.2-1.84,2.35-3.97,2.67,0,0,6.31.83,10-5.58Z"/>
      <path class="cls-5" d="m111.04,36.4c-.65,3.1-2.58,5.46-8.29,6.11-6.19.7-9.28-6.43-9.28-6.43,0,0-.51-1.25-.52-2.75.17.09.35.19.53.29,0,0,3.62,6.31,7.12,7.62,3.49,1.31,6.6-1.86,6.6-6.23,0,0,2.43,1.94,1.56,3.88.06-.03,1.78-1.02,2.29-2.49Z"/>
      <path class="cls-3" d="m96.23,46.19c-.23,2.35-.92,6.69-2.76,10.93-2.32-6.37-5.89-11.13-7.39-10.64-4.03,1.31-9.08,7.21-9.97,10.49-.89,3.28-14.83,4.37-21.61,2.08-6.77-2.29-10.41-5.73-10.41-5.73,0,0-7.28,7.36-11.89,5.4-4.6-1.97-5.23-16.6-2.2-19.22,1.8-1.56,3.02-8.16,3.7-13.24,2.86,1.97,8.33,4.98,15.81,5.65,11.36,1.02,23.46-3.78,32.77-2.33,8.34,1.3,11.82,3.86,13.49,10.47.46,2.25.61,4.44.45,6.15Z"/>
      <path class="cls-6" d="m93.47,57.12c-1.71,3.94-4.39,7.79-8.6,9.89-8.74,4.37-33.86,1.31-39.1,1.09-5.24-.22-12.45,2.62-18.79,0-6.34-2.62-6.99-17.91-8.13-24.47-1.14-6.55-3.92-20.6-3.92-20.6-.56-2.85,1.12-4.52,4.84-6.27,3.44-1.62,7.63,1.63,14.3,6.63-.58,5.06-1.89,14.21-4.06,16.09-3.03,2.62-2.4,17.26,2.2,19.22,4.6,1.97,11.89-5.4,11.89-5.4,0,0,3.64,3.44,10.41,5.73,6.77,2.29,20.71,1.2,21.61-2.08.89-3.28,5.94-9.18,9.97-10.49,1.5-.49,5.07,4.28,7.39,10.64Z"/>
      <path class="cls-5" d="m95.78,40.04c-1.67-6.61-5.15-9.17-13.49-10.47-9.31-1.45-21.41,3.35-32.77,2.33-7.48-.67-12.95-3.68-15.81-5.65.14-1.03.26-2,.35-2.85.53.4,1.08.81,1.65,1.23,7.64,5.68,20.97,5.02,32.33,3.5,11.36-1.53,19-1.09,22.94,2.3,2.44,2.11,4.04,5.93,4.8,9.61Z"/>
      <path class="cls-6" d="m45.33,71.16c-.66,5.9-1.31,12.89-1.65,17.04-.32,3.85-.5,9-.18,13.22-2.71.67-4.84.34-6.06-.02.33-3.82-.41-10.26-.41-13.2,0-3.28,1.14-7.37-1.49-14.36-2.62-6.99-5.53-8.45-5.53-16.6,0-1.09.1-2.06.27-2.92,0,.09.18,4.28,3.43,8.74,3.29,4.51,4.4,7.72,6.17,10.05,1.77,2.33,4.69.44,5.27-10.92.09-1.71.12-3.25.15-4.63.88,5.05.34,10.75.03,13.6Z"/>
      <path class="cls-6" d="m93.01,61.77c-4.28,11.79-6.42,16.16-5.7,18.13.71,1.97-.46,10.49-1.65,17.69-.25,1.52-.47,2.77-.69,3.8-2.81.71-4.88.35-6.02-.01,1.14-3.36,1.51-9.42,2.2-14.06.71-4.81-2.16-5.24-3.11-9.18-.95-3.93-1.43-15.73,0-22.72.53-2.61,1.76-4.85,3.09-6.64-.68,4-1.97,13.39-.29,18.78,2.18,6.99,6.52,1.15,9.35-2.33,1.52-1.88,3.23-6.26,4.54-10.2-.32,2.15-.89,4.44-1.71,6.72Z"/>
      <path class="cls-2" d="m40.31,105.9c-2.62,0-3.71.22-3.03-3.28.07-.37.13-.77.16-1.22,1.22.36,3.34.69,6.06.02.02.33.05.66.09.98.44,4.37-.65,3.5-3.28,3.5Z"/>
      <path class="cls-2" d="m84.97,101.39c-.83,3.85-1.67,4.57-4.3,4.57-3.33,0-3.09-.95-1.85-4.22.04-.12.09-.24.13-.36,1.14.36,3.21.72,6.02.01Z"/>
      <path class="cls-3" d="m45.3,57.56h0c-.02,1.38-.06,2.92-.15,4.63-.58,11.36-3.5,13.25-5.27,10.92-1.77-2.33-2.89-5.53-6.17-10.05-3.25-4.46-3.43-8.65-3.43-8.74h0c1.11-5.56,5.26-6.53,5.26-6.53,6.23-.33,8.81,4.35,9.76,9.76Z"/>
      <path class="cls-3" d="m94.72,55.05s0,0,0,0c-1.31,3.94-3.01,8.32-4.54,10.2-2.83,3.48-7.16,9.32-9.35,2.33-1.68-5.39-.39-14.78.29-18.78h0c2.23-3.01,4.75-4.72,4.75-4.72,7.09-4.76,10.16,2,8.84,10.97Z"/>
      <path class="cls-3" d="m30.73,15.98c.13.64.54,1.26,1.32,1.65,1.75.87,3.35-2.91,4.95-1.89,1.6,1.02,3.79,2.91,6.84,2.48.84-.12,1.43-.37,1.82-.68-1.3.03-4.21-.25-6.05-3.12-2.41-3.78-5.71,2.24-8.9,1.56Z"/>
      <path class="cls-5" d="m30.73,15.98c3.19.68,6.48-5.34,8.9-1.56,1.83,2.87,4.75,3.15,6.05,3.12,1.03-.8.7-1.94.07-1.94-.87,0-4.37-1.31-5.39-2.99-1.02-1.67-4.37-2.84-5.68-1.38-1.31,1.46-3.28,2.77-3.28,2.77-.55.4-.83,1.2-.67,1.99Z"/>
      <path class="cls-9" d="m31.47,9.91s1.46-3.64,3.06-5.97.58-4.81-1.53-3.64c-2.11,1.17-5.07,5.56-5.48,7.73s3.28,3.44,3.95,1.88Z"/>
      <path class="cls-1" d="m31.5,6.03s2.73-3.4,2.78-4.56c.05-1.17-.76-1.5-2.78.92-2.02,2.43-2.7,3.69-1.78,3.88.92.19,1.09.66,1.78-.24Z"/>
      <path class="cls-9" d="m14.86,9.91s-1.46-3.64-3.06-5.97c-1.6-2.33-.58-4.81,1.53-3.64,2.11,1.17,5.07,5.56,5.48,7.73.41,2.17-3.28,3.44-3.95,1.88Z"/>
      <path class="cls-3" d="m15.61,15.98c-.13.64-.54,1.26-1.32,1.65-1.75.87-3.35-2.91-4.95-1.89-1.6,1.02-3.79,2.91-6.84,2.48-.84-.12-1.43-.37-1.82-.68,1.3.03,4.21-.25,6.05-3.12,2.41-3.78,5.71,2.24,8.9,1.56Z"/>
      <path class="cls-5" d="m15.61,15.98c-3.19.68-6.48-5.34-8.9-1.56-1.83,2.87-4.75,3.15-6.05,3.12-1.03-.8-.7-1.94-.07-1.94.87,0,4.37-1.31,5.39-2.99,1.02-1.67,4.37-2.84,5.68-1.38,1.31,1.46,3.28,2.77,3.28,2.77.55.4.83,1.2.67,1.99Z"/>
      <path class="cls-1" d="m14.83,6.03s-2.73-3.4-2.78-4.56c-.05-1.17.76-1.5,2.78.92,2.02,2.43,2.7,3.69,1.78,3.88-.92.19-1.09.66-1.78-.24Z"/>
      <path class="cls-4" d="m26.56,38.26c-.39.78-.49,2.53-.49,2.53l-.38-1.65s-.35,2.04-.37,3.01c-.02.97-1.14,1.8-1.14,1.8l.19-.87c.19-.87,0-2.04,0-2.04l-.34,1.26c-.34,1.26-.87,1.94-.87,1.94,0,0-.53-.68-.87-1.94l-.34-1.26s-.19,1.16,0,2.04l.19.87s-1.12-.83-1.14-1.8c-.03-.97-.37-3.01-.37-3.01l-.38,1.65s-.1-1.75-.49-2.53c-.39-.78-.24-2.94-.24-2.94l3.64.61,3.64-.61s.15,2.16-.24,2.94Z"/>
      <path class="cls-3" d="m33.21,19.67c-.44,4.22-3.93,11.65-5.24,15.15-1.31,3.5-4.81,3.64-4.81,3.64,0,0-3.5-.15-4.81-3.64-1.31-3.5-4.81-10.92-5.24-15.15-.44-4.22,1.31-7.14,1.75-9.76.44-2.62,1.68-2.48,3.24-2.04,1.56.44,3.31.29,5.06.29s3.5.15,5.06-.29c1.56-.44,2.8-.58,3.24,2.04.44,2.62,2.19,5.54,1.75,9.76Z"/>
      <path class="cls-4" d="m23.17,35.32c-2.34,0-2.25-2.42-2.09-2.92.17-.5,2.09-.5,2.09-.5,0,0,1.92,0,2.09.5.17.5.25,2.92-2.09,2.92Z"/>
      <path class="cls-5" d="m25.33,27.97c.02,1.02-.27,2.47-2.16,2.47s-2.19-1.45-2.16-2.47c.02-1.02-3.08-11.21-2.9-14.81.18-3.59.16-3.54,2.44-3.54h5.24c2.27,0,2.25-.05,2.44,3.54.18,3.59-2.92,13.79-2.9,14.81Z"/>
      <circle class="cls-8" cx="16.46" cy="20.2" r="1.93"/>
      <circle class="cls-7" cx="16.61" cy="20.19" r="1.28"/>
      <path class="cls-5" d="m17.89,19.36c0-.27-.22-.49-.49-.49s-.49.22-.49.49.22.49.49.49.49-.22.49-.49Z"/>
      <circle class="cls-8" cx="29.87" cy="20.2" r="1.93"/>
      <circle class="cls-7" cx="29.73" cy="20.19" r="1.28"/>
      <path class="cls-5" d="m28.45,19.36c0-.27.22-.49.49-.49s.49.22.49.49-.22.49-.49.49-.49-.22-.49-.49Z"/>
    </g>
  </g>
</svg>