<?xml version="1.0" encoding="UTF-8"?>
<svg id="Layer_2" data-name="Layer 2" xmlns="http://www.w3.org/2000/svg" viewBox="0 0 141.84 261">
  <defs>
    <style>
      .cls-1 {
        fill: #f29e4d;
      }

      .cls-1, .cls-2, .cls-3, .cls-4, .cls-5, .cls-6, .cls-7, .cls-8, .cls-9, .cls-10, .cls-11, .cls-12 {
        stroke-width: 0px;
      }

      .cls-2 {
        fill: #161510;
      }

      .cls-3 {
        fill: #be1622;
      }

      .cls-4 {
        fill: #87491c;
      }

      .cls-5 {
        fill: #333;
      }

      .cls-6 {
        fill: #ffeb00;
      }

      .cls-7 {
        fill: #dadada;
      }

      .cls-8 {
        fill: #fff;
      }

      .cls-9 {
        fill: #fdc100;
      }

      .cls-10 {
        fill: #1d1d1b;
      }

      .cls-11 {
        fill: #f2f2f2;
      }

      .cls-12 {
        fill: #c57032;
      }
    </style>
  </defs>
  <g id="MACARONI_PENGUIN" data-name="MACARONI PENGUIN">
    <g>
      <path class="cls-2" d="m33.03,217.62c-2.83-5.33-13.73-11.25-20.27-9.23.4,1.77.26,3.94-.63,6.52,0,0-.09,14.04-3.79,20.26-1.92,3.23-4.35,7.9-7.29,11.11.09.23.29.28.65.06,2.14-1.28,6.64-4.71,6.64-4.71,0,0-2.7,6.47-.57,5.35,2.13-1.12,4.36-4.31,4.36-4.31,0,0,.34,5.1,1.59,4.44,1.25-.67,5.07,1.45,9.7-3.55,4.63-5,13.59-18.44,9.6-25.93Z"/>
      <path class="cls-5" d="m12.13,214.91c.89-2.58,1.03-4.75.63-6.52-2.66.82-4.61,2.96-4.99,7,0,0-.58,14.99-2.82,19.94-1.86,4.11-4.33,9.84-3.9,10.95,2.94-3.21,5.37-7.88,7.29-11.11,3.71-6.22,3.79-20.26,3.79-20.26Z"/>
      <path class="cls-12" d="m96.76,250.87c-3.72-1.83-4.31-2.36-.84-1.22,3.47,1.14,5.74,4,7.82,4.5,2.07.5,4.63,2.74,5.36,4.28,0,0-.24-6.29-7.43-8.64-6.28-2.04-13.99-1.09-15.88-5.8h0s-4.94-2.49-8.41-2.36c-3.46.13-13.28,1.16-12.61,6.3.67,5.14,3.02,6.72,5.83,6.59,2.81-.13,12.87-.49,14.27,5.39,0,0,1.65-1.4,2.11-3.75,0,0,.63-3.22-1.43-5.72-2.06-2.51-9.76-2.66-9.76-2.66,0,0,6.55-.51,10.77,1.2,4.22,1.71,2.73,4.5,6.44,5.04,3.45.5,6.99,3.95,7.34,5.83.02.03.04.04.07.07,0,0,.98-1.81.47-3.8,0,0-.41-3.42-4.12-5.25Z"/>
      <path class="cls-4" d="m70.6,254.53c-2.81.13-5.16-1.45-5.83-6.59-.67-5.14,9.15-6.17,12.61-6.3,3.46-.13,8.41,2.37,8.41,2.37h0c-.27-.69-.43-1.49-.44-2.45-.05-7.51-10.39-15.48-17.96-6.14,0,0-6.57,6.57-5.88,12.93.69,6.35,4.33,8.73,8.33,8.27,4-.47,11.22-.37,15.03,3.31-1.4-5.88-11.47-5.53-14.27-5.39Z"/>
      <path class="cls-4" d="m93,254.02c-3.71-.54-2.22-3.33-6.44-5.04-4.22-1.71-10.77-1.2-10.77-1.2,0,0,7.7.15,9.76,2.66,2.06,2.5,1.43,5.72,1.43,5.72,0,0,9.16-1.56,13.36,3.69-.35-1.88-3.89-5.33-7.34-5.83Z"/>
      <path class="cls-4" d="m109.1,258.43c-.73-1.54-3.29-3.79-5.36-4.28-2.07-.5-4.35-3.35-7.82-4.5-3.47-1.14-2.88-.61.84,1.22,3.71,1.83,4.12,5.25,4.12,5.25,0,0,6.7.51,8.22,2.31Z"/>
      <path class="cls-1" d="m77.12,248.73c.22.01,4.89-.14,6.78,1.43,1.88,1.57,1.88,3.79.62,2.9-1.26-.89-2.32-1.99-6.02-2.66-3.69-.68-4.04-1.82-1.38-1.67Z"/>
      <path class="cls-1" d="m92.94,249.67s4.09,1.47,5.11,2.46c1.03.98,2.67,3.64,1.6,2.95-1.06-.69-1.65-2.53-5.24-4.05s-2.31-1.68-1.47-1.36Z"/>
      <path class="cls-1" d="m99.2,249.49s3.83.87,5.93,2.5c2.1,1.64,2.48,2.91,1.67,2.42-.81-.49-1.5-1.36-3.9-2.96-2.4-1.61-5.67-2.11-3.7-1.96Z"/>
      <path class="cls-12" d="m54,249.51c-4.28-1.63-4.98-2.16-1.05-1.27,3.94.89,6.74,3.84,9.08,4.16,2.33.32,5.38,2.56,6.35,4.2,0,0-.95-7.04-9.11-8.85-7.12-1.58-15.48.36-18.07-4.72h0s-5.7-2.24-9.49-1.7c-3.79.54-14.46,2.8-13.16,8.5,1.3,5.7,4.05,7.2,7.12,6.74,3.07-.47,14.08-2,16.26,4.44,0,0,1.66-1.76,1.9-4.45,0,0,.34-3.68-2.2-6.26-2.54-2.58-11.01-1.88-11.01-1.88,0,0,7.14-1.31,11.96.13,4.82,1.44,3.48,4.74,7.62,4.92,3.85.18,8.11,3.64,8.7,5.71.03.03.05.05.08.08,0,0,.88-2.14.1-4.31,0,0-.82-3.8-5.1-5.43Z"/>
      <path class="cls-4" d="m25.67,256.56c-3.07.46-5.82-1.04-7.12-6.74-1.3-5.7,9.37-7.96,13.16-8.5,3.79-.54,9.49,1.7,9.49,1.7h0c-.38-.74-.63-1.62-.75-2.7-.87-8.41-13.1-16.2-20.39-4.86,0,0-6.49,8.12-5.04,15.17,1.45,7.05,5.71,9.31,10.05,8.34,4.34-.97,12.27-1.68,16.86,2.02-2.18-6.44-13.19-4.9-16.26-4.44Z"/>
      <path class="cls-4" d="m50.21,253.46c-4.13-.19-2.79-3.48-7.62-4.92-4.82-1.44-11.96-.13-11.96-.13,0,0,8.47-.7,11.01,1.88,2.54,2.58,2.2,6.26,2.2,6.26,0,0,9.89-2.78,15.07,2.63-.59-2.07-4.85-5.54-8.7-5.71Z"/>
      <path class="cls-4" d="m68.37,256.6c-.97-1.64-4.02-3.88-6.35-4.2-2.33-.33-5.14-3.27-9.08-4.16-3.93-.89-3.23-.36,1.05,1.27,4.28,1.63,5.1,5.43,5.1,5.43,0,0,7.41-.18,9.28,1.66Z"/>
      <path class="cls-1" d="m32.2,249.32c.25,0,5.36-.71,7.59.84,2.24,1.55,2.48,4.04,1,3.19-1.48-.86-2.77-1.97-6.9-2.31-4.13-.34-4.64-1.59-1.7-1.72Z"/>
      <path class="cls-1" d="m49.67,248.6s4.65,1.19,5.88,2.18c1.23.99,3.33,3.79,2.08,3.13-1.24-.65-2.09-2.65-6.2-3.95-4.11-1.3-2.72-1.62-1.77-1.36Z"/>
      <path class="cls-1" d="m56.53,247.68s4.29.54,6.78,2.14c2.49,1.6,3.05,2.98,2.1,2.52-.95-.45-1.79-1.35-4.61-2.88-2.82-1.53-6.46-1.73-4.27-1.78Z"/>
      <path class="cls-5" d="m118.53,107.8c0,1.32-.01,2.68-.08,4.14,0,0,2.65,14.81,2.09,30.53-1.31,36.82-8.36,41.57-5.38,42.28.13.03.28.09.43.17,5.1-9.67,6.67-24.95,8.05-39.26,1.12-11.57-2.18-27.02-5.12-37.87Z"/>
      <path class="cls-10" d="m120.54,142.47c.56-15.73-2.09-30.53-2.09-30.53.07-1.46.09-2.82.08-4.14-2.09-7.71-3.99-13.09-3.99-13.09-9.43-16.02-11.63,27.35-14.5,41.71-2.87,14.36-3.51,62.86,7.98,56.8,3.18-1.68,5.63-4.59,7.58-8.29-.15-.07-.3-.13-.43-.17-2.98-.72,4.06-5.47,5.38-42.28Z"/>
      <path class="cls-8" d="m117.91,108.17c-.65-3.52-1.17-6.57-1.62-9.41,0,0-.17-.47-.5-1.27,0,0,0,0,0,0-.74-1.78-2.29-5.2-4.69-9,4.22,22.76,8.38,53.03,3.19,90.8,5.74-27.96,5.78-59.35,3.61-71.11Z"/>
      <path class="cls-11" d="m111.43,89.01c.19.31.39.63.57.94-.18-.31-.38-.62-.57-.94Z"/>
      <path class="cls-11" d="m113.36,92.38c.13.25.26.5.39.74-.13-.24-.25-.48-.39-.74Z"/>
      <path class="cls-11" d="m113.75,93.11c.18.36.36.71.53,1.04-.17-.33-.34-.68-.53-1.04Z"/>
      <path class="cls-11" d="m112,89.94c.18.3.35.6.52.9-.17-.3-.34-.59-.52-.9Z"/>
      <path class="cls-11" d="m114.28,94.15c.14.28.27.56.4.82-.12-.26-.26-.54-.4-.82Z"/>
      <path class="cls-11" d="m112.51,90.84c.14.24.27.48.4.71-.13-.23-.26-.47-.4-.71Z"/>
      <path class="cls-11" d="m112.91,91.55c.16.28.31.56.45.83-.14-.27-.3-.55-.45-.83Z"/>
      <path class="cls-11" d="m114.67,94.97c.09.19.17.37.26.55-.08-.18-.17-.36-.26-.55Z"/>
      <path class="cls-11" d="m115.42,96.6c.14.32.27.62.38.88-.11-.26-.24-.55-.38-.88Z"/>
      <path class="cls-11" d="m114.3,179.29c5.18-37.77,1.03-68.04-3.19-90.8.11.18.21.35.32.53-4.07-6.61-10.76-14.57-20.32-17.05-17.23-4.47-20.74,3.83-22.97,10.85-2.02,6.35-13.67,4.86-22.49,1.22,0,.02,0,.04,0,.05,0,0-.08-.05-.21-.14-.86-.36-1.7-.74-2.5-1.13-.5-.25-.97-.52-1.43-.79-3.96-1.26-8.77-.38-4.72,14.43,3.6,13.16-.96,32.79-8.62,45.47-7.66,12.68-19.54,24.82-20.34,50.97-.17,5.56.06,10.44.51,14.73.49,1.29,8.39,21.64,22.3,21.33,14.36-.32,25.69-17.23,26.49-14.52.8,2.71-4.76,11.81-1.26,12.76,3.5.96,10.52.48,15.14-4.31,4.63-4.79,8.3-8.46,6.54-3.99-1.76,4.47-4.31,12.08,1.44,10.91,5.74-1.17,8.83-1.12,17.72-8.31.84-1.02,1.68-2.08,2.54-3.24,7.1-9.46,11.92-23.71,15.05-38.97Z"/>
      <path class="cls-11" d="m115.24,96.2c.06.14.12.27.18.4-.06-.13-.12-.26-.18-.4Z"/>
      <path class="cls-11" d="m114.93,95.52c.11.23.21.46.31.68-.1-.22-.2-.44-.31-.68Z"/>
      <path class="cls-7" d="m77.55,218.89c1.76-4.47-1.91-.8-6.54,3.99-4.63,4.79-11.65,5.27-15.14,4.31-3.5-.96,2.06-10.05,1.26-12.76-.8-2.71-12.12,14.2-26.49,14.52-13.91.31-21.81-20.04-22.3-21.33,1.67,15.86,6.48,23.24,6.5,23.27,7.89,8.8,12.47,7.71,19.79,7.71,8.38,0,14.36-7.42,14.36-7.42,7.66,3.11,14.36.96,14.36.96,2.75,4.12,14.71,12.17,33.35-10.64-8.88,7.19-11.98,7.14-17.72,8.31-5.74,1.17-3.19-6.44-1.44-10.91Z"/>
      <path class="cls-5" d="m111.21,56c-3.35-28.24-24.89-38.29-47.38-38.29s-31.11,24.41-31.11,24.41c-1.15,3.74-1.52,7.97-1.49,12.2,1.34-.72,2.6-2.18,3.67-4.56,0,0,1.41-12.19,11.94-18.17s22.97-9.81,37.57-3.83c14.6,5.98,18.29,12.54,22.02,35.9,1.11,6.93,2.9,15.21,4.68,24.82,3.49,5.53,5.18,10.26,5.19,10.28-1.86-11.84-2.38-19.99-5.09-42.76Z"/>
      <path class="cls-2" d="m106.42,63.66c-3.73-23.36-7.42-29.92-22.02-35.9-14.6-5.98-27.04-2.15-37.57,3.83s-11.94,18.17-11.94,18.17c-1.07,2.38-2.32,3.83-3.67,4.56.04,5.87.85,11.74,1.43,16.38h0s1.97,7.64,5.16,8.6-3.51-.96-11.81,16.27c-8.3,17.23-28.16,59.49-23.66,107.91,1.98,9.97,5.08,17.96,8.82,22.92,1.3,1.73,2.52,3.21,3.67,4.49-.02-.04-7.82-11.88-7.02-37.99.8-26.16,12.68-38.29,20.34-50.97,7.66-12.68,12.21-32.31,8.62-45.47-4.05-14.81.76-15.69,4.72-14.43.45.27.93.54,1.43.79.8.4,1.64.77,2.5,1.13.13.09.21.14.21.14,0-.02,0-.04,0-.05,8.82,3.64,20.47,5.12,22.49-1.22,2.23-7.02,5.74-15.32,22.97-10.85,9.3,2.41,15.89,10.03,20,16.53-1.78-9.61-3.57-17.89-4.68-24.82Z"/>
      <path class="cls-12" d="m30.24,59.27c-3.19,1.12-9.33,1.99-8.14,3.35,1.2,1.36,16.59,1.44,15.56-4.71-.03-.15-.04-.28-.06-.43-1.69-2.91-1.42-9.02-4.89-8.99,0,0-4.31,1.28-10.53,1.91-6.22.64-12.28,4.94-13.56,13.7,1.2-1.04,3.67-2.83,7.5-3.81,5.58-1.44,17.31-2.16,14.12-1.04Z"/>
      <path class="cls-4" d="m18.36,64.14c6.7.96,16.11,2.23,19.3,0,3.19-2.23,1.76-3.67,0-6.54-.02-.03-.04-.07-.06-.11.02.14.03.28.06.43,1.04,6.14-14.36,6.06-15.56,4.71-1.2-1.36,4.94-2.23,8.14-3.35,3.19-1.12-8.54-.4-14.12,1.04-3.83.98-6.3,2.77-7.5,3.81,0,0,0,.01,0,.02,0,0,3.03-.96,9.73,0Z"/>
      <path class="cls-1" d="m10.62,59.43s2.63-4.79,6.06-6.14c3.43-1.36,11.88-2.23,13.48-2.71,1.6-.48,3.67-1.52,1.91.56-1.75,2.08-4.31,3.22-7.34,3.53-3.03.3-8.85.81-10.77,2.83-1.91,2.02-3.69,3.97-3.35,1.94Z"/>
      <path class="cls-3" d="m67.84,53.34c0-5.96-4.83-10.78-10.78-10.78s-10.78,4.83-10.78,10.78,4.83,10.78,10.78,10.78,10.78-4.83,10.78-10.78Z"/>
      <path class="cls-10" d="m60.79,53.38c0-3.32-2.7-6.02-6.02-6.02s-6.02,2.69-6.02,6.02,2.7,6.02,6.02,6.02,6.02-2.69,6.02-6.02Z"/>
      <circle class="cls-8" cx="58.48" cy="47.27" r="2.61"/>
      <path class="cls-9" d="m41.33,46.43s1.61-8.62,20.91-6.7c19.3,1.91,35.81,27.76,35.81,27.76,0,0-6.7-15.08-13.88-23.45,0,0,46.67,12.92,57.68,1.44,0,0-25.13,3.52-44.99-6.02,0,0,22.73,5.06,31.83-4.51,0,0-15.56,5.5-37.09,0,0,0,23.93-.24,32.31-14.84,0,0-12.21,12.92-34.46,11.49,0,0,17.49-3.83,25.74-13.88,0,0-14.47,10.62-25.74,9.33,0,0,19.27-6.7,26.86-27.04,0,0-12.27,20.79-30.69,24.76,0,0,19.65-9.2,25.5-22.84,0,0-20.71,19.38-30.53,20.1,0,0,15.08-7.42,20.34-16.75,0,0-13.4,11.73-20.82,13.88-7.42,2.15-40.68,12.68-38.77,27.28Z"/>
      <path class="cls-6" d="m92.18,57.49c.06-.04-.36-.74-1.19-1.97-.84-1.22-1.99-3.06-3.79-5.02-3.4-4.06-8.93-9.23-16.43-12.6-1.82-.96-3.78-1.42-5.59-2.08-.94-.21-1.87-.41-2.78-.6-.45-.1-.91-.19-1.35-.29-.46-.05-.91-.09-1.36-.14-3.59-.34-6.83.49-9.28,1.54-2.47,1.09-4.24,2.38-5.36,3.37-1.12.99-1.62,1.66-1.57,1.71.12.16,2.37-2.4,7.22-4.37,2.41-.93,5.5-1.64,8.9-1.26.42.05.85.1,1.28.15.43.1.87.2,1.31.3.88.2,1.78.4,2.69.61,1.76.66,3.66,1.11,5.44,2.05,7.3,3.28,12.8,8.25,16.3,12.12,1.86,1.87,3.08,3.62,4.02,4.76.93,1.15,1.47,1.77,1.53,1.73Z"/>
      <path class="cls-6" d="m138.61,46.33c-.06-.34-5.09,1.27-13.42.86-8.32-.19-19.61-2.8-31.6-7.09-6.03-2.08-11.64-4.36-17.01-5.99-5.42-1.61-10.59-1.64-14.78-1.24-4.21.48-7.52,1.39-9.74,2.2-2.22.8-3.36,1.45-3.32,1.54.04.09,1.25-.37,3.49-1,2.24-.63,5.53-1.38,9.66-1.71,4.11-.26,9.11-.13,14.31,1.5,5.2,1.65,10.86,4,16.91,6.08,12.05,4.31,23.58,6.81,32.05,6.75,2.11.07,4.02-.13,5.69-.23,1.66-.25,3.1-.39,4.25-.65,2.29-.56,3.54-.91,3.51-1.01Z"/>
      <path class="cls-6" d="m125.09,36.62c-.02-.05-.95.24-2.62.72-1.69.41-4.15.96-7.26,1.2-6.2.53-14.87-.26-24.07-2.69-2.31-.58-4.51-1.3-6.66-1.95-2.2-.57-4.31-1.18-6.38-1.41-4.11-.68-7.86-.74-10.99-.8-3.13,0-5.67.14-7.41.28-.87.09-1.55.16-2.01.21-.46.06-.7.11-.69.13,0,.02.25.03.71.01.46-.02,1.14-.04,2.01-.07,1.75-.05,4.27-.11,7.39-.05,3.11.13,6.84.24,10.89.95,2.05.24,4.11.85,6.27,1.42,2.15.65,4.38,1.39,6.7,1.97,9.26,2.44,18.03,3.16,24.3,2.49,3.14-.31,5.61-.94,7.29-1.44.84-.27,1.47-.54,1.9-.7.43-.17.65-.27.64-.3Z"/>
      <path class="cls-6" d="m119.47,24.76c-.13-.21-3.31,2.28-9.16,4.8-2.95,1.18-6.6,2.28-10.78,2.72-4.17.49-8.82.15-13.63-.59-2.4-.4-4.75-.85-7.01-1.32-1.13-.23-2.24-.46-3.33-.69-1.12-.15-2.21-.3-3.28-.45-2.13-.4-4.18-.21-6.09-.25-.95,0-1.87.19-2.75.27-.88.13-1.73.15-2.52.37-3.18.65-5.68,1.49-7.32,2.25-1.66.72-2.5,1.29-2.46,1.35.04.07.93-.36,2.62-.96,1.67-.63,4.16-1.34,7.3-1.89.77-.19,1.62-.19,2.48-.29.86-.06,1.76-.22,2.69-.2,1.86.09,3.87-.08,5.93.35,1.04.15,2.1.31,3.18.47,1.09.23,2.2.47,3.33.71,2.26.49,4.62.95,7.05,1.36,4.87.75,9.63,1.07,13.91.51,4.28-.5,8-1.71,10.97-3.01,2.94-1.38,5.19-2.73,6.66-3.78,1.47-1.06,2.25-1.67,2.21-1.73Z"/>
      <path class="cls-6" d="m111.1,20.94c-.06-.08-.75.28-1.93,1-.58.37-1.29.81-2.12,1.34-.8.55-1.85.94-2.93,1.51-.55.27-1.12.56-1.71.85-.63.21-1.28.44-1.96.67-.68.22-1.36.5-2.09.7-.74.15-1.51.3-2.29.46-.39.08-.79.16-1.19.24-.41.03-.82.06-1.24.09-.84.05-1.68.16-2.55.16-1.75-.05-3.55-.1-5.4-.36-3.65-.46-7.34-1.23-10.66-1.04-3.31.02-6.27.37-8.73.69-4.92.72-7.9,1.56-7.85,1.74.04.2,3.07-.27,7.97-.73,2.45-.19,5.38-.43,8.61-.38,3.25-.11,6.66.66,10.49,1.14,1.9.27,3.78.32,5.59.34.91,0,1.8-.13,2.67-.2.44-.04.87-.08,1.3-.12.42-.09.83-.19,1.24-.28.82-.19,1.61-.37,2.39-.54.76-.22,1.46-.54,2.16-.79.69-.27,1.36-.53,2-.78.6-.33,1.18-.65,1.73-.96,1.08-.65,2.12-1.11,2.9-1.74.79-.61,1.46-1.13,2.01-1.56,1.09-.87,1.66-1.38,1.6-1.46Z"/>
      <path class="cls-6" d="m113.72,4.73s-.42.48-1.11,1.38c-.71.89-1.76,2.15-3.11,3.66-2.73,2.99-6.84,6.85-11.96,10.32-5.08,3.52-10.39,5.52-14.39,6.08-1.99.32-3.63.32-4.76.28-1.13-.06-1.75-.16-1.76-.12-.01.05.6.25,1.74.4,1.14.13,2.81.21,4.85-.05,4.09-.43,9.58-2.41,14.73-5.99,5.17-3.52,9.28-7.47,11.94-10.58,1.32-1.57,2.32-2.89,2.96-3.83.63-.96.93-1.51.88-1.54Z"/>
      <path class="cls-6" d="m108.58,4.73c-.17-.14-2.06,1.99-5.51,5-3.45,2.97-8.44,6.97-14.67,10.01-3.11,1.5-6.24,2.56-9.17,2.97-3,.48-5.76.87-8.02,1.32-4.54,1.04-7.18,2.39-7.02,2.64.06.08.7-.19,1.94-.5,1.19-.43,3.06-.64,5.28-1.13,2.28-.28,4.99-.62,7.99-1,3.12-.36,6.42-1.44,9.63-2.99,6.44-3.14,11.41-7.35,14.73-10.56,3.32-3.26,4.95-5.65,4.81-5.75Z"/>
      <path class="cls-6" d="m97.65,8.7c-.27-.3-5.02,4.17-11.97,8.06-6.9,4-13.2,5.69-13.12,5.98.03.3,6.61-.96,13.65-5.04.87-.51,1.73-1.01,2.55-1.49.81-.51,1.53-1.08,2.25-1.58,1.42-1.02,2.71-1.94,3.65-2.88,1.95-1.79,3.1-2.95,2.99-3.06Z"/>
      <path class="cls-2" d="m31.23,117.5s-4.73,15.08-3.3,32.55c1.44,17.47-3.35,37.09-10.29,41.64-6.94,4.55-10.89,7.9-9.87-4.31,1.02-12.21-.66-19.38-2.81-24.17,0,0,11.01-36.86,16.03-41.88,5.03-5.03,12.15-12,10.24-3.83Z"/>
      <g>
        <path class="cls-5" d="m37.82,79.29c-3.19-.96-5.16-8.6-5.16-8.6.39,3.13.67,5.71.54,7.32-.48,5.74-18.67,22.5-28.24,60.31-6.1,24.08-6.07,47.67-2.6,65.15-.05-.5-.07-1-.12-1.5.23,1.78.39,2.82.39,2.82-.77-8.31,4.95-32.06,4.95-32.06-.37-3.76-2.63-9.53-2.63-9.53,5.26,4.79,5.74,22.73,4.79,28-.96,5.26,12.21-11.49,14.36-20.1,2.15-8.62-.72-26.33,0-37.23.72-10.9,6.05-20.13,6.05-20.13,1.74-.28,1.54,1.62,1.43,2.21.86-3.87.01-20.42-.35-22.31-.36-1.88-.02-4.33,0-4.43.11-.35.22-.71.32-1.03.76-2.34,1.29-3.56,1.3-3.57,4.6-5.39,7.21-4.66,4.98-5.33Z"/>
        <path class="cls-5" d="m31.58,115.96c-.01.06-.02.14-.04.19,0,0,.02-.08.04-.19Z"/>
      </g>
    </g>
  </g>
</svg>