<?xml version="1.0" encoding="UTF-8"?>
<svg id="Layer_2" data-name="Layer 2" xmlns="http://www.w3.org/2000/svg" viewBox="0 0 108.27 67.5">
  <defs>
    <style>
      .cls-1 {
        fill: #58595b;
      }

      .cls-1, .cls-2, .cls-3, .cls-4, .cls-5, .cls-6, .cls-7, .cls-8 {
        stroke-width: 0px;
      }

      .cls-2 {
        fill: #232323;
      }

      .cls-3 {
        fill: #fff;
      }

      .cls-4 {
        fill: #231f20;
      }

      .cls-5 {
        fill: #bcbec0;
      }

      .cls-6 {
        fill: #414042;
      }

      .cls-7 {
        fill: #f9a762;
      }

      .cls-8 {
        fill: #ed9444;
      }
    </style>
  </defs>
  <g id="_100" data-name="100">
    <g>
      <path class="cls-5" d="m43.91,33.39c-4.95.09-14.88,2.3-14.88,2.3,0,0,2.45,4.11,6.25,9.99s2.99,4.54,4.35,5.9c-.32,1.87-.95,3.07-1.64,3.84-1.57-1.8-3.78-4.95-5.38-7.91-2.34-4.33-7.56-9.37-8.1-12.87-.54-3.5,9.68-4.63,13.07-5.1s1.35-1.12-.57-4.93c-1.92-3.81,2.94-9.02,8.11-3.19,0,0,1.37,3.22,2.28,6.34.91,3.12,1.49,5.55-3.47,5.63Z"/>
      <path class="cls-4" d="m40.94,54.14c-.04.98-.23,3.15-1.3,2.78-.34-.12-.93-.66-1.66-1.49.69-.77,1.33-1.97,1.64-3.84,1.36,1.36,1.35,1.57,1.32,2.55Z"/>
      <path class="cls-5" d="m102.14,67.37c-.9-.16-2-.44-3.19-.74-3.48-.88-3.12.96-6.54-9.88-3.42-10.85-3.49-8.78-13.17-11.81-9.67-3.04-12.5-6.96-11.33-15.27,1.17-8.31,6.02-7.14,6.02-7.14,4.35.19,6.42,1.82,8.69,6.48,2.27,4.66-4.75,10.14,1.69,12.41,6.43,2.27,7.78,1.57,8.41,4.57.63,3,3.42,10.74,4.57,14.18,1.15,3.45,1.34,3.1,4.52,3.02.05,0,.09,0,.14,0,.4,1.14.73,2.76.2,4.18Z"/>
      <path class="cls-4" d="m102.14,67.37c.54-1.42.2-3.03-.2-4.18.75.09,1.89,1.06,2.51,2.98.44,1.35-.58,1.5-2.31,1.2Z"/>
      <path class="cls-3" d="m39.91,29.5c-1.22.22-3.34.55-5.51,1.06-4.59-2.75-8.24-2.16-11.34.25-3.19,2.48-6.76,3.43-6.76,3.43-2.44,1.68-4.34,2.52-5.77,2.75.35-1.04.9-2.15,1.66-3.33,0,0,1.09,1.48,7.18-2.72,6.09-4.2,8.48-4.16,13.05-4.07,1.37.03,2.56.11,3.61.1.06,0,.13,0,.19,0,.36,0,.71-.03,1.04-.08.05,0,.09-.01.14-.02.09-.01.18-.03.27-.05.14-.03.28-.06.42-.1.07-.02.14-.04.21-.07.04-.01.08-.03.12-.04.08-.03.16-.06.24-.1.04-.02.08-.03.12-.05.19-.09.38-.2.55-.32.03-.02.07-.05.11-.08.14-.1.27-.22.41-.35,1.78,2.74,3.09,3.26.09,3.79Z"/>
      <path class="cls-3" d="m70.27,33.42c-1.66-.17-3.48-.39-5.47-.64-4.84-.6-10.37-.46-15.44-.38,1.57-.98,1.02-2.84.28-5.05-.13-.38-.26-.77-.4-1.15.16-.15.31-.3.44-.45,1.3-1.41,1.49-1.82,4.82-1.78h0c5.52,1.24,12.31,3,15.8,3.82-.03.22-.06.44-.08.67-.19,1.86-.19,3.5.03,4.95Z"/>
      <path class="cls-4" d="m44.22,53.95c0,.98-.11,3.15-1.2,2.83-.34-.1-.95-.63-1.71-1.43.66-.79,1.25-2.02,1.5-3.9,1.41,1.3,1.41,1.52,1.41,2.5Z"/>
      <path class="cls-8" d="m105.88,64.84c-.91-.12-2.02-.36-3.22-.62-3.51-.74-3.08,1.08-6.91-9.63-1.07-2.99-1.84-4.98-2.61-6.36h0s0,0,0,0c0,0,0-.02-.01-.02-.15-.32-1.84-3.82-2.67-4.51-.87-.72-6.84-.02-14.62-5.22-2.39-1.6-3.73-3.33-4.43-4.95-.98-2.27-.72-4.34-.38-5.57,0,0,.02,0,.02,0,.08.02.16.04.24.05.14.03.28.06.4.08.05.01.1.02.15.03.13.03.24.05.34.06,1.71.29,6.07-1.2,8.23-2.98-.06-.11-.12-.2-.18-.27-1.74-2.01-7.86-2.43-21.48-4.33-13.62-1.9-15.75-1.92-17.45,2.58-.13.35-.27.67-.41.95-.32.66-.68,1.17-1.08,1.56-.13.13-.27.25-.41.35-.03.03-.07.05-.11.08-.18.13-.36.23-.55.32-.04.02-.08.03-.12.05-.08.03-.16.07-.24.1-.04.01-.08.03-.12.04-.07.02-.14.05-.21.07-.14.04-.28.07-.42.1-.09.02-.18.03-.27.05-.05,0-.09.01-.14.02-.33.04-.67.07-1.04.08-.06,0-.13,0-.19,0-1.05.02-2.24-.07-3.61-.1-4.57-.09-6.96-.13-13.05,4.07-6.09,4.21-7.18,2.72-7.18,2.72-.76,1.18-1.31,2.29-1.66,3.33-3.53.57-4.28-2.52-3.35-5.9h0c1.03-1.2,2.4-2.9,4.57-4.85,0,0,10.08-6.91,14.61-8.1,4.53-1.19,15.52-2.93,19.7-4.24,4.18-1.3,13.92-2.3,37.1,8.31,0,0,0,0,0,0,3.32,2.92,3.87,5.6,2.28,7.93-.31,3.86-3.56,7.82,1.63,9.43,6.52,2.02,7.83,1.27,8.58,4.25.74,2.98,3.83,10.6,5.1,14,1.28,3.4,1.46,3.04,4.64,2.84.05,0,.09,0,.14,0,.44,1.13.84,2.73.36,4.17Z"/>
      <path class="cls-3" d="m49.36,32.4c-.62.39-1.57.64-2.97.72-4.95.27-14.79,2.87-14.79,2.87,0,0,2.6,4.01,6.63,9.74,2.88,4.1,3.25,4.6,3.76,5.03-.85-.12-1.55-.23-1.87-.32-1.2-.33-7.72-9.89-8.7-11.46-.98-1.57-3.37-4.96-1.63-5.32.76-.16,4.12-.94,7.6-1.86,4.47-1.18,9.12-2.58,8.66-3.17,0,0,1.86-1.17,3.19-2.43.14.38.27.76.4,1.15.73,2.21,1.29,4.07-.28,5.05Z"/>
      <path class="cls-4" d="m105.88,64.84c.48-1.44.08-3.04-.36-4.17.75.07,1.92.98,2.62,2.88.49,1.33-.52,1.52-2.27,1.29Z"/>
      <path class="cls-7" d="m83.16,22.22c-23.18-10.61-32.92-9.62-37.1-8.31-4.18,1.3-15.17,3.04-19.7,4.24-4.53,1.19-14.61,8.1-14.61,8.1-2.17,1.95-3.54,3.66-4.57,4.85.4-1.44,1.1-2.94,2.03-4.22,3.98-5.53,12.98-8.61,17.15-12.09,4.17-3.48,7.79-5.87,16.34-6.48,8.56-.61,21.07,3.53,32.15,8.81,3.71,1.77,6.44,3.48,8.3,5.12Z"/>
      <path class="cls-8" d="m31.43,38.98c.98,1.57,7.5,11.13,8.7,11.46.32.09,1.02.2,1.87.32.2.17.41.33.82.7-.24,1.88-.84,3.1-1.5,3.9-1.64-1.74-3.97-4.8-5.68-7.7-2.5-4.24-7.91-9.07-8.59-12.55-.43-2.22,3.55-3.64,7.36-4.53,2.17-.51,4.29-.85,5.51-1.06,3-.53,1.69-1.05-.09-3.79.4-.39.76-.9,1.08-1.56,0,0,3.66.5,4.79,3.65.07.32.19.61.37.84.45.58-4.2,1.99-8.66,3.17-3.47.92-6.84,1.7-7.6,1.86-1.74.36.65,3.75,1.63,5.32Z"/>
      <path class="cls-4" d="m80.42,25.22c-2.15,1.78-6.51,3.27-8.23,2.98-.39-.07-1.04-.21-1.88-.4-3.49-.82-10.28-2.57-15.8-3.82h0c-3.33-.04-3.52.37-4.82,1.78-.14.15-.29.3-.44.45-1.33,1.26-3.19,2.43-3.19,2.43-.81-1.03-.39-3.42,0-4.01.39-.59,1.78-1.94,1.78-1.94-.95-.12-1.58-.13-1.78.02-.33.23-.91.45-1.6.65-1.09.32-2.46.6-3.56.79.15-.29.28-.6.41-.95,1.7-4.5,3.82-4.48,17.45-2.58,13.63,1.9,19.74,2.32,21.48,4.33.06.07.12.16.18.27Z"/>
      <path class="cls-3" d="m93.12,48.19c-1.98-3.51-3.96-2.98-10.98-4.9-7.6-2.07-11.09-4.83-11.87-9.87-.22-1.45-.23-3.09-.03-4.95.02-.23.05-.46.08-.67.26.06.5.11.72.16-.34,1.24-.6,3.3.38,5.57.7,1.62,2.04,3.35,4.43,4.95,7.77,5.2,13.75,4.49,14.62,5.22.82.68,2.46,4.08,2.66,4.49Z"/>
      <path class="cls-4" d="m47.84,22.69s-1.4,1.35-1.78,1.94c-.3.46-.63,2.02-.37,3.17-1.14-3.14-4.79-3.65-4.79-3.65,1.09-.19,2.46-.47,3.56-.79.69-.2,1.27-.42,1.6-.65.2-.14.83-.13,1.78-.02Z"/>
      <g>
        <path class="cls-2" d="m3.68,32s-1.83-3.24-1.33-7.68c.5-4.44.33-12.57-1.66-18.71C-1.3-.53,3.68.79,3.68.79c0,0-2.66.66-1,4.48,1.66,3.82,3.32,9.63,3.49,13.78s-1,6.97,1,10.46-1.49,5.48-3.49,2.49Z"/>
        <path class="cls-2" d="m2.68,26.15s.55-.21,1.61-.35,1.55-.69,0-.83c-1.55-.14-2.21,1.35-1.61,1.18Z"/>
        <path class="cls-2" d="m2.76,23.47s.56-.18,1.63-.26,1.59-.6.05-.83c-1.54-.23-2.28,1.23-1.68,1.09Z"/>
        <path class="cls-2" d="m2.94,21.47s.56-.18,1.63-.26,1.59-.6.05-.83c-1.54-.23-2.28,1.23-1.68,1.09Z"/>
        <path class="cls-2" d="m2.93,19.63s.53-.18,1.53-.27c1-.09,1.49-.6.05-.83-1.44-.22-2.14,1.23-1.57,1.1Z"/>
        <path class="cls-2" d="m2.91,17.62s.47-.16,1.35-.24c.89-.08,1.32-.53.04-.73-1.27-.2-1.89,1.09-1.39.97Z"/>
        <path class="cls-2" d="m2.83,15.68s.38-.13,1.09-.19c.72-.06,1.06-.43.03-.59-1.03-.16-1.53.88-1.13.78Z"/>
        <path class="cls-2" d="m2.68,13.89s.35-.12,1.02-.18c.67-.06.99-.4.03-.55-.96-.15-1.42.82-1.05.73Z"/>
      </g>
      <g>
        <path class="cls-6" d="m5.31,31.33s-1.83-3.24-1.33-7.68c.5-4.44.33-12.57-1.66-18.71C.33-1.21,5.31.12,5.31.12c0,0-2.66.66-1,4.48,1.66,3.82,3.32,9.63,3.49,13.78.17,4.15-1,6.97,1,10.46,1.99,3.49-1.49,5.48-3.49,2.49Z"/>
        <path class="cls-1" d="m4.32,25.48s.55-.21,1.61-.35c1.06-.15,1.55-.69,0-.83-1.55-.14-2.21,1.35-1.61,1.18Z"/>
        <path class="cls-1" d="m4.4,22.79s.56-.18,1.63-.26,1.59-.6.05-.83c-1.54-.23-2.28,1.23-1.68,1.09Z"/>
        <path class="cls-1" d="m4.58,20.79s.56-.18,1.63-.26,1.59-.6.05-.83c-1.54-.23-2.28,1.23-1.68,1.09Z"/>
        <path class="cls-1" d="m4.57,18.96s.53-.18,1.53-.27c1-.09,1.49-.6.05-.83-1.44-.22-2.14,1.23-1.57,1.1Z"/>
        <path class="cls-1" d="m4.54,16.95s.47-.16,1.35-.24c.89-.08,1.32-.53.04-.73-1.28-.2-1.89,1.09-1.39.97Z"/>
        <path class="cls-1" d="m4.47,15.01s.38-.13,1.09-.19c.72-.06,1.06-.43.03-.59-1.03-.16-1.53.88-1.13.78Z"/>
        <path class="cls-1" d="m4.32,13.22s.35-.12,1.02-.18c.67-.06.99-.4.03-.55-.96-.15-1.42.82-1.05.73Z"/>
      </g>
      <path class="cls-3" d="m18.52,31.77c-.74,3.16-2.18,4.3-3.91,5.66,0,0-4.63,3.52-7.35,6.23-1.49,1.49-3.31,1.59-4.34.73.47-.82.8-1.64.52-1.92-.31-.31-.87-.82-1.15-1.08.08-.27.19-.55.34-.84,1.92-3.92,1.92-9.67,1.92-11.59s2.03-1.39,5.33-3.96c.4.45.85.95,1.38,1.51,0,0,.21,2.63,1.45,4.38,1.24,1.76,2.67,4.47,5.82.87Z"/>
      <path class="cls-4" d="m7.8,29.67s-1.33.61-1.33,5.04-2.49,7.15-2.49,7.15c0,0,3.65-1.99,3.82-6.09s0-6.09,0-6.09Z"/>
      <circle class="cls-4" cx="9.13" cy="31.77" r="2.66"/>
      <circle class="cls-3" cx="9.55" cy="30.9" r=".87"/>
      <path class="cls-4" d="m2.92,44.39c-.71-.59-1.05-1.64-.63-3,.29.26.84.77,1.15,1.08.28.28-.05,1.1-.52,1.92Z"/>
      <path class="cls-3" d="m5.11,24.52s-3.56-1.49-4.85-4.98c-1.29-3.49,2.51-.78,6.34.86s4.66,4.95,4.66,6.11-2.63,0-3.06,0-3.08-1.99-3.08-1.99Z"/>
      <path class="cls-4" d="m9.13,24.28s-3-2.74-5.74-4.04c-2.74-1.3-3.08-1.52-1.93.56s5.66,4.7,6.84,4.69c1.18-.01,2.27.53.83-1.21Z"/>
    </g>
  </g>
</svg>