<?xml version="1.0" encoding="UTF-8"?><svg data-name="Layer 2" xmlns="http://www.w3.org/2000/svg" viewBox="0 0 39 83.89"><defs/><g data-name="100"><g><path d="m26.76,55.06c-1.59,10.38,2.12,19.4,7.25,19.4,2.47,0,4.03-2.32,4.97-4.89.05-1.68-.03-3.57-.23-5.69-1.41-15.04-2.81-18.85-2.81-18.85,1.24-12.5-2.2-22.76-2.2-22.76l-9.03,3.18c1.01,1.77,2.14,4.58,3.49,8.86,0,0-.4,7.37,1.98,9.17,2.11,1.61,3.07,1.78,3.25,1.8-.44-.03-5.17-.12-6.67,9.78Z" style="stroke-width:0px;fill:#af702a"/><path d="m28.46,79.42s3.88-.23,6.6,1.58c2.72,1.8,2.98,2.98,2.14,2.88-.84-.1-2.07-.78-3.88-.78,0,0,.19.78-.97.78s-3.24-.78-3.24-.78c0,0-.78.78-1.81.78s-1.49-.98-1.55-2.23.58-2.23,2.72-2.23Z" style="stroke-width:0px;fill:#253032"/><path d="m10.54,79.42s-3.88-.23-6.6,1.58c-2.72,1.8-2.98,2.98-2.14,2.88.84-.1,2.07-.78,3.88-.78,0,0-.19.78.97.78s3.24-.78,3.24-.78c0,0,.78.78,1.81.78s1.49-.98,1.55-2.23-.58-2.23-2.72-2.23Z" style="stroke-width:0px;fill:#253032"/><path d="m12.24,55.06c1.59,10.38-2.12,19.4-7.25,19.4-2.47,0-4.03-2.32-4.97-4.89-.05-1.68.03-3.57.23-5.69,1.41-15.04,2.81-18.85,2.81-18.85-1.25-12.5,2.2-22.76,2.2-22.76l9.03,3.18c-1.01,1.77-2.14,4.58-3.49,8.86,0,0,.4,7.37-1.98,9.17-2.11,1.61-3.07,1.78-3.25,1.8.44-.03,5.17-.12,6.67,9.78Z" style="stroke-width:0px;fill:#af702a"/><path d="m38.99,69.57c-.07,2.45-.42,4.48-1.1,6.12-1.46,1.34-4.3,3.06-8.27,1.52-5.98-2.3-4.22-10.13-10.11-10.13s-4.13,7.82-10.11,10.13c-3.97,1.53-6.82-.19-8.27-1.52-.69-1.65-1.03-3.67-1.1-6.12.95,2.57,2.51,4.89,4.97,4.89,5.13,0,8.84-9.02,7.25-19.4-1.51-9.9-6.24-9.81-6.67-9.78.18-.02,1.13-.2,3.25-1.8,2.38-1.8,1.98-9.17,1.98-9.17,1.35-4.28,2.48-7.09,3.49-8.86l5.21,1.83,5.21-1.83c1.01,1.77,2.14,4.58,3.49,8.86,0,0-.4,7.37,1.98,9.17,2.12,1.61,3.07,1.78,3.25,1.8-.44-.03-5.16-.12-6.67,9.78-1.59,10.38,2.12,19.4,7.25,19.4,2.47,0,4.03-2.32,4.97-4.89Z" style="stroke-width:0px;fill:#9e6227"/><path d="m37.89,75.69c-2.17,5.29-7.73,6.84-18.39,6.84s-16.21-1.55-18.39-6.84c1.46,1.34,4.3,3.06,8.27,1.52,5.98-2.3,4.22-10.13,10.11-10.13s4.13,7.82,10.11,10.13c3.97,1.53,6.82-.19,8.27-1.52Z" style="stroke-width:0px;fill:#7f4e20"/><path d="m33.75,22.27c-.61,3.34-2.58,5.09-6.96,5.84l-3.33-5.84s2.46-6.32,0-9.93c-.63-.93-2.14-1.67-3.95-2.03-1.81.36-3.32,1.11-3.95,2.03-2.46,3.61,0,9.93,0,9.93l-3.33,5.84c-4.38-.75-6.35-2.5-6.96-5.84-.88-4.81.44-13.54,3.08-17.15C10.97,1.51,14.32.91,15.46.41,16.6-.09,19.5,0,19.5,0c0,0,2.9-.1,4.05.4,1.14.5,4.48,1.1,7.12,4.71,2.64,3.61,3.96,12.33,3.08,17.15Z" style="stroke-width:0px;fill:#af702a"/><path d="m26.78,28.11h0c-1.93.34-4.33.48-7.28.48s-5.35-.14-7.28-.47h0s3.33-5.85,3.33-5.85c0,0-2.46-6.32,0-9.93.63-.93,2.14-1.67,3.95-2.03,1.81.36,3.32,1.11,3.95,2.03,2.46,3.61,0,9.93,0,9.93l3.33,5.84Z" style="stroke-width:0px;fill:#9e6227"/><path d="m6.7,12.87s-.29-2.6-2.6-3.86c.23-.39.56-.48.89-.48.56,0,1.53.42,1.53.42,1.1.49.81,2.56.18,3.92Z" style="stroke-width:0px;fill:#af702a"/><path d="m12.62,10.31c0,1-.81,1.8-1.8,1.8s-1.8-.81-1.8-1.8.81-1.8,1.8-1.8,1.8.81,1.8,1.8Z" style="stroke-width:0px;fill:#f1f2f2"/><path d="m12.18,10.31c0-.56-.45-1.02-1.02-1.02s-1.02.45-1.02,1.02.45,1.02,1.02,1.02,1.02-.45,1.02-1.02Z" style="stroke-width:0px;fill:#231f20"/><path d="m9.98,9.48c0-.26.21-.48.48-.48s.48.21.48.48-.21.48-.48.48-.48-.21-.48-.48Z" style="stroke-width:0px;fill:#fff"/><path d="m6.7,12.87h0c-.41.9-.96,1.49-1.34,1.09-.95-.99-1.6-1.87-1.56-3.53.02-.69.13-1.14.3-1.43,2.31,1.25,2.6,3.86,2.6,3.86Z" style="stroke-width:0px;fill:#7f4e20"/><path d="m27.12,30.02l-7.62,7.04-7.62-7.04s-.1-.21.79-1.52l4.76-4.73s.21.66.66.66h2.8c.45,0,.66-.66.66-.66l4.76,4.73c.89,1.31.79,1.52.79,1.52Z" style="stroke-width:0px;fill:#eeef9e"/><polygon points="27.12 30.02 27.12 31.29 19.5 38.61 11.88 31.29 11.88 30.02 19.5 37.06 27.12 30.02" style="fill:#d6a629;stroke-width:0px"/><path d="m21.56,23.77s-.21.66-.66.66h-2.8c-.45,0-.66-.66-.66-.66l2.06-2.05,2.06,2.05Z" style="stroke-width:0px;fill:#c9c87c"/><path d="m21.76,20.21s-.12,2.22-.45,2.71c-.32.49-1.29.45-1.53-.16-.24-.61-.28-2.22-.28-2.22,0,0-.04,1.61-.28,2.22-.24.6-1.21.64-1.54.16-.32-.49-.44-2.71-.44-2.71l2.26-2.22,2.26,2.22Z" style="stroke-width:0px;fill:#fff"/><path d="m26.03,19.26c-.06.22-.13.43-.2.61h0s-.34.69-2.9.69-2.56-6.52-1.43-7.9c.45-.55-.58-1.38-1.99-1.77-1.41.4-2.44,1.23-1.99,1.77,1.14,1.38,1.14,7.9-1.43,7.9s-2.9-.7-2.9-.7h0c-.08-.18-.14-.39-.2-.61-.72-2.71-.72-13.09,6.53-13.09s7.25,10.38,6.53,13.09Z" style="stroke-width:0px;fill:#e8a969"/><path d="m25.82,19.87c-.85,2.09-2.7,2.06-4.15,1.64-1.58-.45-2.18-1.91-2.18-1.91,0,0-.6,1.46-2.18,1.91-1.44.42-3.29.45-4.15-1.64h0s.34.69,2.9.69,2.56-6.52,1.43-7.9c-.45-.55.58-1.38,1.99-1.77,1.41.4,2.44,1.23,1.99,1.77-1.14,1.38-1.14,7.9,1.43,7.9s2.9-.7,2.9-.7h0Z" style="stroke-width:0px;fill:#d18f53"/><path d="m19.5,8.13s-3.42.3-3.42,1.8,1.11,3.31,3.42,3.31v-5.11Z" style="stroke-width:0px;fill:#414042"/><path d="m19.5,8.5s-2.63-.03-2.63.98,2.63.82,2.63.82v-1.8Z" style="stroke-width:0px;fill:#58595b"/><path d="m32.3,12.87s.29-2.6,2.6-3.86c-.23-.39-.56-.48-.89-.48-.56,0-1.53.42-1.53.42-1.1.49-.81,2.56-.18,3.92Z" style="stroke-width:0px;fill:#af702a"/><path d="m26.39,10.31c0,1,.81,1.8,1.8,1.8s1.8-.81,1.8-1.8-.81-1.8-1.8-1.8-1.8.81-1.8,1.8Z" style="stroke-width:0px;fill:#f1f2f2"/><path d="m26.82,10.31c0-.56.45-1.02,1.02-1.02s1.02.45,1.02,1.02-.45,1.02-1.02,1.02-1.02-.45-1.02-1.02Z" style="stroke-width:0px;fill:#231f20"/><path d="m29.03,9.48c0-.26-.21-.48-.48-.48s-.48.21-.48.48.21.48.48.48.48-.21.48-.48Z" style="stroke-width:0px;fill:#fff"/><path d="m32.3,12.87h0c.41.9.96,1.49,1.34,1.09.95-.99,1.6-1.87,1.56-3.53-.02-.69-.13-1.14-.3-1.43-2.31,1.25-2.6,3.86-2.6,3.86Z" style="stroke-width:0px;fill:#7f4e20"/><path d="m19.5,8.13s3.42.3,3.42,1.8-1.11,3.31-3.42,3.31v-5.11Z" style="stroke-width:0px;fill:#414042"/><path d="m19.5,8.5s2.63-.03,2.63.98-2.63.82-2.63.82v-1.8Z" style="stroke-width:0px;fill:#58595b"/><path d="m30,33.78s.82,6.35,3.31,7.81c2.48,1.47,1.92,3.53.13,3.68-1.79.15-9.95-1.61-9.27-5.75.68-4.14,2.79-9.16,5.83-5.75Z" style="stroke-width:0px;fill:#9e6227"/><path d="m9.53,33.78s-.82,6.35-3.31,7.81c-2.48,1.47-1.92,3.53-.13,3.68,1.79.15,9.95-1.61,9.27-5.75-.68-4.14-2.79-9.16-5.83-5.75Z" style="stroke-width:0px;fill:#9e6227"/><path d="m8.34,32.5s.19-1.24,1.2-1.88c0,0-.11-1.62,1.05-2.18,1.17-.56,3.31-.53,4.4,1.24,0,0-1.8-.11-2.41.9,0,0,1.35.6,1.58,1.32,0,0-1.58-.11-2.67.6,0,0,1.28.41,1.8,1.13,0,0-3.31.6-4.62,1.32-1.32.71-1.77-1.5-.34-2.44Z" style="stroke-width:0px;fill:#253032"/><path d="m12.13,32.82s-1.5-.7-2.76-.53c-1.26.17-1.54,1.07-1.54,1.49s1.2-.29,1.71-.54c.51-.24,4.39.32,2.59-.43Z" style="stroke-width:0px;fill:#58595b"/><path d="m13.25,30.97s-1.5-.7-2.76-.53c-1.26.17-1.54,1.07-1.54,1.49s1.2-.29,1.71-.54,4.39.32,2.59-.43Z" style="stroke-width:0px;fill:#58595b"/><path d="m13.79,28.79s-1.35-.7-2.49-.53c-1.14.17-1.39,1.07-1.39,1.49s1.09-.29,1.54-.54c.46-.24,3.96.32,2.34-.43Z" style="stroke-width:0px;fill:#58595b"/><path d="m30.67,32.5s-.19-1.24-1.2-1.88c0,0,.11-1.62-1.05-2.18-1.17-.56-3.31-.53-4.4,1.24,0,0,1.8-.11,2.41.9,0,0-1.35.6-1.58,1.32,0,0,1.58-.11,2.67.6,0,0-1.28.41-1.8,1.13,0,0,3.31.6,4.62,1.32,1.32.71,1.77-1.5.34-2.44Z" style="stroke-width:0px;fill:#253032"/><path d="m26.88,32.82s1.5-.7,2.76-.53c1.26.17,1.54,1.07,1.54,1.49s-1.2-.29-1.71-.54c-.51-.24-4.39.32-2.59-.43Z" style="stroke-width:0px;fill:#58595b"/><path d="m25.75,30.97s1.5-.7,2.76-.53,1.54,1.07,1.54,1.49-1.2-.29-1.71-.54-4.39.32-2.59-.43Z" style="stroke-width:0px;fill:#58595b"/><path d="m25.21,28.79s1.35-.7,2.49-.53c1.14.17,1.39,1.07,1.39,1.49s-1.09-.29-1.54-.54c-.46-.24-3.96.32-2.34-.43Z" style="stroke-width:0px;fill:#58595b"/></g></g></svg>