<?xml version="1.0" encoding="UTF-8"?>
<svg id="Layer_2" data-name="Layer 2" xmlns="http://www.w3.org/2000/svg" viewBox="0 0 80.27 72.69">
  <defs>
    <style>
      .cls-1 {
        fill: #010101;
      }

      .cls-1, .cls-2, .cls-3, .cls-4, .cls-5, .cls-6, .cls-7, .cls-8 {
        stroke-width: 0px;
      }

      .cls-2 {
        fill: #161616;
      }

      .cls-3 {
        fill: #fff;
      }

      .cls-4 {
        fill: #eeb799;
      }

      .cls-5 {
        fill: #0c0c0c;
      }

      .cls-6 {
        fill: #fccbb4;
      }

      .cls-7 {
        fill: #212121;
      }

      .cls-8 {
        fill: #f2f2f2;
      }
    </style>
  </defs>
  <g id="_100" data-name="100">
    <g>
      <path class="cls-5" d="m68.86,45.69s-3.41,16.87-1.71,18.32c1.71,1.44,6.16,5.98.62,5.98s-11.15,1.16-11.61-3.46c-.46-4.62-.52-16.46,0-19.42.52-2.96,13.71-6.96,12.7-1.41Z"/>
      <path class="cls-5" d="m.98,41.42s1.17,7.68,2.71,11.62c1.54,3.93,1.54,5.4,0,7.92-1.54,2.52-2.44,4.32-.78,6.08,1.66,1.76,4.97,4.12,8.28,4.12s5.68,1.02,3.81-3.32c-1.87-4.34.7-7.24,3.17-11.55,2.47-4.31,8.38-13.06.92-14.87-7.46-1.82-15.31-12.19-18.12,0Z"/>
      <path class="cls-2" d="m74.58,36.5c-.7,2.75-2.04,5.46-3.69,7.92.07-.13,2.78-5.65,1.16-10.28-1.65-4.69,0-8.01,0-8.01,0,0-14.08-9.35-15.73,1.54,0,0,2.99,3.12,4.23,7.92,1.24,4.79-.1,9.1-3.07,10.75-2.97,1.65-11.33,0-11.33,0,0,0-13.72,1.88-17.08-3.56-3.36-5.45-23.55.75-19.08,8.36,2.38,4.06,5.37,6.19,7.8,7.94-5.31-.68-10-2.33-12.77-5.26C3.04,51.7-.18,44.97,0,37.05c0,0,0,0,0,0C4.59,16.69,23.73,15.54,30.84,16.09c7.12.55,19.86-.35,19.86-.35,7.79-4.1,10.9-7.09,10.77-9.18,12.27.72,15.21,21.73,13.11,29.93Z"/>
      <path class="cls-1" d="m70.89,44.42h0c-4,5.95-9.86,10.42-13.09,10.42-6.56,0-9.73-.08-19.76,2.72-5.96,1.66-13.59,2.36-20.25,1.51-2.43-1.76-5.42-3.89-7.8-7.94-4.47-7.61,15.72-13.81,19.08-8.36,3.36,5.45,17.08,3.56,17.08,3.56,0,0,8.37,1.65,11.33,0,2.97-1.66,4.31-5.96,3.07-10.75-1.24-4.79-4.23-7.92-4.23-7.92,1.64-10.89,15.73-1.54,15.73-1.54,0,0-1.65,3.33,0,8.01,1.64,4.66-1.13,10.22-1.16,10.28Z"/>
      <path class="cls-7" d="m50.71,15.75s-12.74.9-19.86.35C23.73,15.54,4.59,16.69,0,37.05c0,0,0,0,0,0,.12-4.83,1.51-10.1,5.22-15.03,9.81-13.01,25.32-9.6,34.35-9.69,9.03-.08,15.85-4.67,15.85-4.67,2.23-.88,4.24-1.21,6.04-1.11.13,2.09-2.98,5.08-10.77,9.18Z"/>
      <path class="cls-1" d="m30.17,72.56c-3.31,0-11.55,1.07-12-3.11-.44-4.18-1.01-7.79-5.22-10.52-4.2-2.73-12.8-7.09-9.27-17.15.39-1.1.82-2.07,1.29-2.92-.02.13-1.91,10.65,5,14.18,6.95,3.55,18.51,7.02,19.93-1.91.25,3.79.29,7.33.03,9.68-.44,4.06.88,7.05,2.65,8.23,1.77,1.18.88,3.54-2.43,3.54Z"/>
      <path class="cls-2" d="m62.19,71.66c-11.78,1.2-10.4-2.41-10.4-3.85s-.33-5.96-2.98-13.35c-2.65-7.39-1.58-10.22-1.58-10.22,3.65-4.2,14.28-3.75,13.89,1.68,0,0,.47,12.94-.73,16.59-1.2,3.65.49,4.52,1.83,6.49.69,1.02.88,1.98-.03,2.66Z"/>
      <path class="cls-2" d="m29.92,51.12c-1.42,8.93-12.98,5.47-19.93,1.91-6.91-3.53-5.03-14.05-5-14.18,3.81-6.85,10.05-5.67,14.38-4.81,0,0,8.83,2.4,9.71,8.71.37,2.67.67,5.58.85,8.36Z"/>
      <path class="cls-2" d="m30.74,68.69s-3.55-.88-6.09,0c-2.54.88-.99,2.1,2.54,2.1s6.43-.55,3.55-2.1Z"/>
      <path class="cls-7" d="m20.13,35.58s-8-1.96-11.7,2.11c-3.7,4.08,2.98,10.04,10.81,11.36,7.83,1.32,10.7-9.3.88-13.48Z"/>
      <path class="cls-1" d="m62.19,71.66c-.85.63-2.64,1.03-5.85,1.03-6.67,0-7.22-.77-6.82-6.77.4-5.99-5.21-14.08-3.26-20,.21-.63.54-1.19.97-1.68,0,0-1.07,2.83,1.58,10.22,2.65,7.39,2.98,11.92,2.98,13.35s-1.39,5.05,10.4,3.85Z"/>
      <path class="cls-7" d="m55.8,42.92s-5.54-.26-5.98,4.37c-.44,4.63,2.65,9.63,6.51,9.23,3.86-.4,5.96-13.34-.53-13.6Z"/>
      <path class="cls-2" d="m48.79,9.49c-1.43,0-4.79-2.47-5.21-4.62.49-1.71,1.55-1.49,3.67-1.6,2.12-.11,4.01,1.6,4.01,1.6,0,0,.46-.3,1-.79.38.28.6.48.6.48,1.49,1.08-2.07,4.94-4.06,4.94Z"/>
      <path class="cls-2" d="m79.13,8.39c-2.24,2.9-3.97,1.99-3.97,1.99,0,0-2.05-2.37-2.16-3.87.3.05.7-.01,1.21-.23,0,0,2.79-4.16,5.39-3.28.92,1.23,1.05,3.43-.46,5.39Z"/>
      <path class="cls-7" d="m52.25,4.07c-.54.5-1,.79-1,.79,0,0-1.89-1.71-4.01-1.6-2.12.11-3.18-.11-3.67,1.6-.16-.85.12-1.64,1.15-2.23,2.85-1.61,6.18.44,7.52,1.43Z"/>
      <path class="cls-7" d="m79.59,3c-2.61-.88-5.39,3.28-5.39,3.28-.51.22-.91.28-1.21.23-.02-.29.03-.54.18-.74,0,0,2.43-3.72,4.63-3.72.72,0,1.34.36,1.79.95Z"/>
      <path class="cls-1" d="m73.38,25.03c-2.35,2.25-5.91,3.66-11.03,3.66-4.02,0-7.33-1.18-9.82-3.14,0,0,3.63,1.79,5.78-1.73,2.15-3.52,10.59-.14,10.59-.14,0,0-.3,3.43,4.48,1.35,0,0,0,0,0,0Z"/>
      <path class="cls-2" d="m73.38,25.03s0,0,0,0c-4.78,2.08-4.48-1.35-4.48-1.35,0,0-8.45-3.38-10.59.14-2.15,3.52-5.78,1.73-5.78,1.73-4.49-3.53-6.3-9.59-4.74-15.83.16-.63.35-1.23.57-1.78h0s2.05-3.23,5.53-3.56c3.48-.33,7.01,1.38,6.51,4.69-.5,3.31.29,4.41,3.62,4.41s3.27-2.45,2.94-3.98c-.33-1.53-1.38-4.76.66-5.16,1.97-.39,6.39-.15,8.04,2.68,1.02,2.19,1.39,4.72,1.47,7.33.12,4.09-.94,7.99-3.76,10.68Z"/>
      <path class="cls-4" d="m63.68,26.04c-5.3,0-6.62-2.65-5.52-7.06.22-.89.58-1.61,1.01-2.2h0s1.62-1.67,2.72-.69c1.1.98,3.25,1.4,3.74.88.48-.52,1.12-2.08,2.44-.61h0c.66,1.07.91,2.43,1.12,3.82.44,2.97-.22,5.86-5.52,5.86Z"/>
      <path class="cls-8" d="m58.31,12.97c0,1.1-.89,1.99-1.99,1.99s-1.99-.89-1.99-1.99.89-1.99,1.99-1.99,1.99.89,1.99,1.99Z"/>
      <path class="cls-1" d="m57.8,12.7c0-.64-.52-1.15-1.15-1.15s-1.15.52-1.15,1.15.52,1.15,1.15,1.15,1.15-.52,1.15-1.15Z"/>
      <path class="cls-3" d="m57.48,11.73c0-.23-.19-.42-.42-.42s-.42.19-.42.42.19.42.42.42.42-.19.42-.42Z"/>
      <path class="cls-8" d="m68.08,12.97c0,1.1.89,1.99,1.99,1.99s1.99-.89,1.99-1.99-.89-1.99-1.99-1.99-1.99.89-1.99,1.99Z"/>
      <path class="cls-1" d="m68.58,12.7c0-.64.52-1.15,1.15-1.15s1.15.52,1.15,1.15-.52,1.15-1.15,1.15-1.15-.52-1.15-1.15Z"/>
      <path class="cls-3" d="m68.9,11.73c0-.23.19-.42.42-.42s.42.19.42.42-.19.42-.42.42-.42-.19-.42-.42Z"/>
      <path class="cls-6" d="m68.08,16.36c-1.32-1.47-1.96.09-2.44.61-.48.52-2.64.1-3.74-.88-1.1-.98-2.72.69-2.72.69,1.7-2.31,4.51-2.46,4.51-2.46,2.36,0,3.64.82,4.4,2.04Z"/>
      <path class="cls-7" d="m75.67,7.01c-1.66-2.83-6.08-3.07-8.04-2.68-2.04.4-.99,3.63-.66,5.16.33,1.53.39,3.98-2.94,3.98s-4.12-1.1-3.62-4.41c.5-3.31-3.03-5.02-6.51-4.69-3.48.33-5.53,3.56-5.53,3.56C51.56,0,60.81,0,60.81,0c8.77,0,12.95,2.91,14.86,7.01Z"/>
      <path class="cls-1" d="m64.1,16.09s-2.07.08-2.54.74c-.47.66.44,2.26,2.54,2.26s2.65-1.41,2.48-2.04-.85-.97-2.48-.97Z"/>
      <path class="cls-2" d="m64.33,16.42s-1.36.03-1.99.22c-.63.19.17.5,1.99.5s2.4-.72,0-.72Z"/>
    </g>
  </g>
</svg>