<?xml version="1.0" encoding="UTF-8"?>
<svg id="Layer_2" data-name="Layer 2" xmlns="http://www.w3.org/2000/svg" viewBox="0 0 50.21 82.13">
  <defs>
    <style>
      .cls-1 {
        fill: #9f3d2c;
      }

      .cls-1, .cls-2, .cls-3, .cls-4, .cls-5, .cls-6, .cls-7, .cls-8, .cls-9, .cls-10, .cls-11 {
        stroke-width: 0px;
      }

      .cls-2 {
        fill: #4b494c;
      }

      .cls-3 {
        fill: #a83c24;
      }

      .cls-4 {
        fill: #603913;
      }

      .cls-5 {
        fill: #838084;
      }

      .cls-6 {
        fill: #c14d27;
      }

      .cls-7 {
        fill: #fff;
      }

      .cls-8 {
        fill: #f79246;
      }

      .cls-9 {
        fill: #231f20;
      }

      .cls-10 {
        fill: #e86b24;
      }

      .cls-11 {
        fill: #686469;
      }
    </style>
  </defs>
  <g id="_100" data-name="100">
    <g>
      <path class="cls-10" d="m19.91,77.03l1.74-.38c-.44,1.14-1.3,2.46-1.3,2.46,0,0-.64,1.4-.45,2.95h-2.35c-1.39-2.57-2.51-2.67-2.51-2.67l-2-1.62.42-1.03-.8-.65.38-.77s-2.17-3.88-2.35-5.96c0,0-3.21-1.7-4.81-5.39,0,0-.59,2.65-.92,3.88-.33,1.23-.42,2.27-.42,2.27l.98-.57-.56,2.13,1.1-.71-.09,2.18,1.07-1.47s-.18,2.81-.36,4.41c-.13,1.22-1.11,1.82-2.11,1.83-1.38-2.12-2.09-5.43-2.24-8.7.32-6.28,2.21-8.66,2.21-8.66l1.07,1.6-.65-3.92,1.75,1.75-.84-2.84,2.14,1.08c-.13-.18-2.26-3.08-2.13-8.04.13-5.11,2.14-8.52,2.14-8.52,1.18-2.78,2.01-5.2,2.53-7.22,5.17-.59,10.73,5.88,13.22,9.2-7.16-1.55-16.18-.64-16.29,2.32-.18,4.54,3.88,8.14,3.88,8.14v-1.8c.59,2.27,1.91,4.64,1.91,4.64l.8-1.04.97,3.79c.96,3.79,2.42,5.49,2.42,5.49l-.45,1.23.81.57-.81,1.14h1.53l-1.53,1.52h2.82l-1.83,2.74h1.92l-1.02.66h2.3l-1.28,1.7h1.28c-.71,1.52-1.28,2.27-1.28,2.27Z"/>
      <path class="cls-6" d="m42.73,46c.18,4.54-3.88,8.14-3.88,8.14v-1.8c-.59,2.27-1.91,4.64-1.91,4.64l-.8-1.04-.97,3.79c-.96,3.79-2.42,5.49-2.42,5.49l.45,1.23-.81.57.81,1.14h-1.53l1.53,1.52h-2.82l1.83,2.74h-1.92l1.02.66h-2.3l1.28,1.7h-1.28c.71,1.52,1.28,2.27,1.28,2.27l-1.74-.38c.44,1.14,1.3,2.46,1.3,2.46,0,0,.64,1.4.45,2.95h-3.9c-.1-.24-.5-1.35-.42-3.33.08-2.27,1.12-8.14,1.12-8.14l-.82,1.23v-1.7l-1.19.66-1.19-.66v1.7l-.82-1.23s1.04,5.86,1.12,8.14c.07,1.98-.32,3.09-.42,3.33h-3.9c-.19-1.56.45-2.95.45-2.95,0,0,.85-1.33,1.3-2.46l-1.74.38s.57-.76,1.28-2.27h-1.28l1.28-1.7h-2.3l1.02-.66h-1.92l1.83-2.74h-2.82l1.53-1.52h-1.53l.81-1.14-.81-.57.45-1.23s-1.46-1.7-2.42-5.49l-.97-3.79-.8,1.04s-1.32-2.37-1.91-4.64v1.8s-4.06-3.6-3.88-8.14c.11-2.96,9.13-3.87,16.29-2.32.85,1.14,1.34,1.9,1.34,1.9,0,0,.49-.77,1.34-1.9,7.16-1.55,16.18-.64,16.29,2.32Z"/>
      <path class="cls-3" d="m26.42,82.07h-2.63c.1-.24.5-1.35.42-3.33-.08-2.27-1.12-8.14-1.12-8.14l.82,1.23v-1.7l1.19.66,1.19-.66v1.7l.82-1.23s-1.04,5.86-1.12,8.14c-.07,1.98.32,3.09.42,3.33Z"/>
      <path class="cls-6" d="m17.54,82.07h-.45c-3.45,0-7.64.71-11.57-2.98-.35-.32-.66-.72-.95-1.16,1-.02,1.97-.61,2.11-1.83.18-1.6.36-4.41.36-4.41l-1.07,1.47.09-2.18-1.1.71.56-2.13-.98.57s.09-1.04.42-2.27c.33-1.23.92-3.88.92-3.88,1.6,3.69,4.81,5.39,4.81,5.39.18,2.08,2.35,5.96,2.35,5.96l-.38.77.8.65-.42,1.03,2,1.62s1.12.1,2.51,2.67Z"/>
      <path class="cls-8" d="m8.01,41.69s-2,3.41-2.14,8.52c-.13,4.96,2,7.86,2.13,8.04l-2.14-1.08.84,2.84-1.75-1.75.65,3.92-1.07-1.6s-1.89,2.38-2.21,8.66c-.17-3.73.39-7.41,1.52-9.2,0,0-1.95-22.43,5.31-25.21.46-.18.92-.29,1.39-.34-.52,2.02-1.36,4.43-2.53,7.22Z"/>
      <path class="cls-10" d="m30.3,77.03l-1.74-.38c.44,1.14,1.3,2.46,1.3,2.46,0,0,.64,1.4.45,2.95h2.35c1.39-2.57,2.51-2.67,2.51-2.67l2-1.62-.42-1.03.8-.65-.38-.77s2.17-3.88,2.35-5.96c0,0,3.21-1.7,4.81-5.39,0,0,.59,2.65.92,3.88.33,1.23.42,2.27.42,2.27l-.98-.57.56,2.13-1.1-.71.09,2.18-1.07-1.47s.18,2.81.36,4.41c.13,1.22,1.11,1.82,2.11,1.83,1.38-2.12,2.09-5.43,2.24-8.7-.32-6.28-2.21-8.66-2.21-8.66l-1.07,1.6.65-3.92-1.75,1.75.84-2.84-2.14,1.08c.13-.18,2.26-3.08,2.13-8.04-.13-5.11-2.14-8.52-2.14-8.52-1.18-2.78-2.01-5.2-2.53-7.22-5.17-.59-10.73,5.88-13.22,9.2,7.16-1.55,16.18-.64,16.29,2.32.18,4.54-3.88,8.14-3.88,8.14v-1.8c-.59,2.27-1.91,4.64-1.91,4.64l-.8-1.04-.97,3.79c-.96,3.79-2.42,5.49-2.42,5.49l.45,1.23-.81.57.81,1.14h-1.53l1.53,1.52h-2.82l1.83,2.74h-1.92l1.02.66h-2.3l1.28,1.7h-1.28c.71,1.52,1.28,2.27,1.28,2.27Z"/>
      <path class="cls-6" d="m32.67,82.07h.45c3.45,0,7.64.71,11.57-2.98.35-.32.66-.72.95-1.16-1-.02-1.97-.61-2.11-1.83-.18-1.6-.36-4.41-.36-4.41l1.07,1.47-.09-2.18,1.1.71-.56-2.13.98.57s-.09-1.04-.42-2.27c-.33-1.23-.92-3.88-.92-3.88-1.6,3.69-4.81,5.39-4.81,5.39-.18,2.08-2.35,5.96-2.35,5.96l.38.77-.8.65.42,1.03-2,1.62s-1.12.1-2.51,2.67Z"/>
      <path class="cls-8" d="m42.2,41.69s2,3.41,2.14,8.52c.13,4.96-2,7.86-2.13,8.04l2.14-1.08-.84,2.84,1.75-1.75-.65,3.92,1.07-1.6s1.89,2.38,2.21,8.66c.17-3.73-.39-7.41-1.52-9.2,0,0,1.95-22.43-5.31-25.21-.46-.18-.92-.29-1.39-.34.52,2.02,1.36,4.43,2.53,7.22Z"/>
      <path class="cls-8" d="m47.92,19.42c.15.46,3.24,9.99,1.43,20.47l-.68-3.24c-.02-3.48-.21-8.48-.97-11.61-1.11-4.62-3.48-7.37-3.97-7.91.91,1.14.42,5.25.42,5.25-1.11-4.68-5.44-7.41-5.71-7.58,2.33,2.04,3.64,7.81,3.72,8.17-1.47-2.63-5.93-4.74-5.93-4.74,2.01,2.47,3.31,6.23,3.59,7.11-1.05-2.73-4.78-4.89-4.78-4.89h0c-1.66-3.09-3.86-3.42-3.86-3.42l3.39-.67-2.43-.52c-2.43-.52-3.88-.11-3.88-.11l.41-1.66-2.18,2.29-1.39-1.04-1.39,1.04-2.18-2.29.41,1.66s-1.46-.41-3.88.11l-2.43.52,3.39.67s-2.21.33-3.86,3.42h0s-3.73,2.17-4.78,4.89c.28-.88,1.58-4.64,3.59-7.11,0,0-4.46,2.11-5.93,4.74.08-.36,1.39-6.13,3.72-8.17-.27.17-4.6,2.9-5.71,7.58,0,0-.49-4.11.43-5.25-.49.54-2.86,3.29-3.97,7.91-.76,3.13-.94,8.14-.97,11.61l-.68,3.24c-1.81-10.48,1.28-20.02,1.43-20.47l-2.29,4.28C1.46,8.44,12.92,4.53,12.92,4.53c-4.26-.66-9.14,1.59-9.4,1.72,6.42-3.96,14.1-3.33,14.1-3.33l-4.91-1.95c4.73-.26,7.75,1.39,8.26,1.69l-3.36-2.66c4.49.83,7.48,4.53,7.48,4.53,0,0,2.99-3.69,7.48-4.53l-3.36,2.66c.52-.3,3.53-1.95,8.26-1.69l-4.91,1.95s7.68-.63,14.1,3.33c-.26-.12-5.14-2.38-9.4-1.72,0,0,11.46,3.91,12.92,19.17l-2.29-4.28Z"/>
      <path class="cls-6" d="m34.59,22.37s1.24,2.62.93,7.05c-.31,4.43-.93,6.83-.93,6.83l-.43-5.68s.38,4.63-3.93,7.96l.93-3.36c-.19.39-1.79,3.64-3.31,4.61l.59-1.84s-1.68,1.64-3.34,2.58c-1.67-.94-3.34-2.58-3.34-2.58l.59,1.84c-1.52-.98-3.12-4.22-3.31-4.61l.93,3.36c-4.31-3.33-3.93-7.96-3.93-7.96l-.43,5.68s-.62-2.4-.93-6.83c-.31-4.43.93-7.05.93-7.05l-1.66,1.31c1.46-6.11,5.06-6.66,5.06-6.66l-3.39-.67,2.43-.52c2.43-.52,3.88-.11,3.88-.11l-.41-1.66,2.18,2.29,1.39-1.04,1.39,1.04,2.18-2.29-.41,1.66s1.46-.41,3.88.11l2.43.52-3.39.67s3.6.54,5.06,6.66l-1.66-1.31Z"/>
      <path class="cls-10" d="m48.68,36.65l-.76-3.68s-1.04,11.41-5.42,16.42l1.25-4.59s-4.64,6.78-7.85,8.96c-3.19,2.19-3.75,3.13-3.75,3.13v-3.03l-2.03,2.28-.44-2.28-2.23,3.03-.33-2.4-.63.84-1.39-2.14-1.39,2.14-.63-.84-.33,2.4-2.23-3.03-.44,2.28-2.03-2.28v3.03s-.56-.94-3.75-3.13c-3.2-2.19-7.85-8.96-7.85-8.96l1.25,4.59c-4.38-5-5.42-16.42-5.42-16.42l-.76,3.68c.03-3.48.21-8.48.97-11.61,1.11-4.62,3.48-7.37,3.97-7.91-.91,1.14-.43,5.25-.43,5.25,1.11-4.68,5.44-7.41,5.71-7.58-2.33,2.04-3.64,7.81-3.72,8.17,1.47-2.63,5.93-4.74,5.93-4.74-2.01,2.47-3.31,6.23-3.59,7.11,1.05-2.73,4.78-4.89,4.78-4.89h0c-.46.85-.88,1.91-1.19,3.24l1.66-1.31s-1.24,2.62-.93,7.05c.31,4.43.93,6.83.93,6.83l.43-5.68s-.38,4.63,3.93,7.96l-.93-3.36c.19.39,1.79,3.64,3.31,4.61l-.59-1.84s1.68,1.64,3.34,2.58c1.67-.94,3.34-2.58,3.34-2.58l-.59,1.84c1.52-.98,3.12-4.22,3.31-4.61l-.93,3.36c4.31-3.33,3.93-7.96,3.93-7.96l.43,5.68s.62-2.4.93-6.83c.31-4.43-.93-7.05-.93-7.05l1.66,1.31c-.32-1.33-.73-2.39-1.19-3.24h0s3.73,2.17,4.78,4.89c-.28-.88-1.58-4.64-3.59-7.11,0,0,4.46,2.11,5.93,4.74-.08-.36-1.39-6.13-3.72-8.17.27.17,4.6,2.9,5.71,7.58,0,0,.49-4.11-.42-5.25.49.54,2.86,3.29,3.97,7.91.76,3.13.94,8.14.97,11.61Z"/>
      <path class="cls-1" d="m19.52,82.13h-6.76c-2.06,0-1.66-.83,0-1.4,0,0-.13-.59,1.7-1.64,1.83-1.05,2.91-1.31,2.91-1.31l.93.96.62-.96.4,1.44,1.43-.85v1.85l.98-.25s.31.68.4,1.25c.09.57-.19.93-2.61.93Z"/>
      <path class="cls-1" d="m30.7,82.13h6.76c2.06,0,1.66-.83,0-1.4,0,0,.13-.59-1.7-1.64-1.83-1.05-2.91-1.31-2.91-1.31l-.93.96-.62-.96-.4,1.44-1.43-.85v1.85l-.98-.25s-.31.68-.4,1.25c-.09.57.19.93,2.61.93Z"/>
      <g>
        <path class="cls-11" d="m35.02,25.49s0,.01,0,.03c-.03.3-.36,2.75-3.99,3.45,0,0-.18.96.8,1.6,0,0,.36.41.59,1.01-.01.06-.19,1.08-2.24,1.22-2.12.15-2.32-.8-3.34-1-1.02-.2-1.18-.27-.38-.63.81-.36,1.02-1.26.65-1.01-.38.25-.92.65-1.78.65s-1.4-.4-1.78-.65c-.37-.25-.16.65.65,1.01.81.36.64.44-.38.63-1.02.2-1.22,1.14-3.34,1-2.05-.14-2.23-1.16-2.24-1.22.22-.61.59-1.01.59-1.01.98-.64.8-1.6.8-1.6-3.63-.7-3.96-3.15-3.99-3.45,0-.02,0-.03,0-.03-.02-2.98,2.34-5.85,3.51-7.3,1.26-1.55,6.19-1.11,6.19-1.11,0,0,4.93-.44,6.19,1.11,1.17,1.45,3.52,4.32,3.51,7.3Z"/>
        <path class="cls-2" d="m32.41,31.59c-.01.06-.19,1.08-2.24,1.22-2.12.15-2.32-.8-3.34-1-1.02-.2-1.18-.27-.38-.63.81-.36,1.02-1.26.65-1.01-.38.25-.92.65-1.78.65s-1.4-.4-1.78-.65c-.37-.25-.16.65.65,1.01.81.36.64.44-.38.63-1.02.2-1.22,1.14-3.34,1-2.05-.14-2.23-1.16-2.24-1.22-.19.52-.28,1.18.06,1.85.74,1.46,1.68,3.31,3.46,3.31h7.14c1.78,0,2.73-1.85,3.46-3.31.34-.67.25-1.33.06-1.85Zm-3.73,2.84c-1.29-.05-1.58-.4-2.02-.54s-.82-.36-1.35-.36-.92.22-1.35.36-.73.49-2.02.54c-1.29.05-1.94-.45-1.48-.35.45.1,2.26.15,2.77-.35.51-.5,2.08-.65,2.08-.65,0,0,1.56.15,2.08.65.51.5,2.32.45,2.77.35.45-.1-.19.4-1.48.35Z"/>
        <path class="cls-2" d="m18.81,30.58s-2.73-1.22-3.15-4.42c-.03-.21-.04-.42-.04-.63.03.3.36,2.75,3.99,3.46,0,0,.18.96-.8,1.6Z"/>
        <path class="cls-11" d="m28.68,34.43c-1.29-.05-1.58-.4-2.02-.54s-.82-.36-1.35-.36-.92.22-1.35.36-.73.49-2.02.54c-1.29.05-1.94-.45-1.48-.35.45.1,2.26.15,2.77-.35.51-.5,2.08-.65,2.08-.65,0,0,1.56.15,2.08.65.51.5,2.32.45,2.77.35.45-.1-.19.4-1.48.35Z"/>
        <path class="cls-2" d="m22.35,24.83c-.15-.88-.64-1.64-.78-1.84-.01-.02-.02-.03-.03-.04,0,0,0,0,0,0s0,0,0,0c0-.01-.01-.03-.02-.04-.13-.23-.82-1.29-2.23-.9-1.58.44-1.85,1.44-1.85,1.44,0,0-.15-.5.8-1.38.95-.88,2.05-.66,2.97,0,.93.66,1.52,2.76,1.52,2.76.14.43-.05.21-.36.01Z"/>
        <path class="cls-4" d="m21.54,24.69c-.21.08-.5.26-1.61.34-1.69.12-2.1-.98-2.1-.98.23-.69.64-1.41,1.66-1.63s2.04.53,2.04.53c0,0,.51.63,0,1.75Z"/>
        <path class="cls-5" d="m31.61,19.83c-1.11-.34-3.21.49-4.05,1.05-.84.56-2.24.49-2.24.49,0,0-1.4.07-2.24-.49-.84-.56-2.95-1.38-4.05-1.05s-1.59.82-.42-.52c1.17-1.35,1.65-1.87,6.71-1.87s5.54.52,6.71,1.87c1.17,1.34.69.86-.42.52Z"/>
        <path class="cls-5" d="m26.91,29.5c-.16.75-1.59.63-1.59.63,0,0-1.43.12-1.59-.63-.16-.75.84-2.99,1.59-2.99s1.75,2.24,1.59,2.99Z"/>
        <path class="cls-5" d="m20.47,29.61s-1.43.64-1.45,1.57c-.02.93,2.85,1.2,3.45.78l.61-.41s-1.34-.16-1.39-1.43v-.7s-.82-.03-1.22.19Z"/>
        <path class="cls-9" d="m31.61,33.44c-.92.51-2.94.68-4.04.03-1.1-.65-2.26-.6-2.26-.6,0,0-1.16-.05-2.26.6-1.1.65-3.12.49-4.04-.03,0,0,2.62.2,3.57-.48.94-.68,2.73-.68,2.73-.68,0,0,1.78,0,2.73.68.94.68,3.57.48,3.57.48Z"/>
        <path class="cls-7" d="m22.35,24.83c-.13-.08-.28-.16-.43-.18-.18-.03-.27,0-.38.04.42-.93.14-1.53.03-1.7.14.2.63.97.78,1.84Z"/>
        <path class="cls-9" d="m20.53,23.68c0-.31-.25-.56-.56-.56s-.56.25-.56.56.25.56.56.56.56-.25.56-.56Z"/>
        <path class="cls-7" d="m20.97,23.26c0-.24-.2-.44-.44-.44s-.44.2-.44.44.2.44.44.44.44-.2.44-.44Z"/>
        <path class="cls-9" d="m24.41,30.91s-.65-.24-.81-.33c-.16-.08-.09.1.29.43.38.33.7.38.7.38,0,0,.11-.38-.18-.48Z"/>
        <path class="cls-2" d="m31.82,30.58s2.73-1.22,3.15-4.42c.03-.21.04-.42.04-.63-.03.3-.36,2.75-3.99,3.46,0,0-.18.96.8,1.6Z"/>
        <path class="cls-2" d="m28.29,24.83c.15-.88.64-1.64.78-1.84.01-.02.02-.03.03-.04,0,0,0,0,0,0s0,0,0,0c0-.01.01-.03.02-.04.13-.23.82-1.29,2.23-.9,1.58.44,1.85,1.44,1.85,1.44,0,0,.15-.5-.8-1.38-.95-.88-2.05-.66-2.97,0-.93.66-1.52,2.76-1.52,2.76-.14.43.05.21.36.01Z"/>
        <path class="cls-4" d="m29.1,24.69c.21.08.5.26,1.61.34,1.69.12,2.1-.98,2.1-.98-.23-.69-.64-1.41-1.66-1.63-1.02-.22-2.04.53-2.04.53,0,0-.51.63,0,1.75Z"/>
        <path class="cls-5" d="m30.17,29.61s1.43.64,1.45,1.57c.02.93-2.85,1.2-3.45.78l-.61-.41s1.34-.16,1.39-1.43v-.7s.82-.03,1.22.19Z"/>
        <path class="cls-7" d="m28.29,24.83c.13-.08.28-.16.43-.18.18-.03.27,0,.38.04-.42-.93-.14-1.53-.03-1.7-.14.2-.63.97-.78,1.84Z"/>
        <path class="cls-9" d="m30.11,23.68c0-.31.25-.56.56-.56s.56.25.56.56-.25.56-.56.56-.56-.25-.56-.56Z"/>
        <path class="cls-7" d="m29.67,23.26c0-.24.2-.44.44-.44s.44.2.44.44-.2.44-.44.44-.44-.2-.44-.44Z"/>
        <path class="cls-9" d="m26.23,30.91s.65-.24.81-.33c.16-.08.09.1-.29.43-.38.33-.7.38-.7.38,0,0-.1-.38.18-.48Z"/>
      </g>
    </g>
  </g>
</svg>