<?xml version="1.0" encoding="UTF-8"?><svg data-name="Layer 2" xmlns="http://www.w3.org/2000/svg" viewBox="0 0 603.34 344.64"><defs/><g><g><path d="m414.81,137.08c-17.51,70.78-113.14,69.33-113.14,69.33,0,0-95.63,1.45-113.14-69.33-7.78-31.53-6.26-62.14,6.79-86.43-.25,1.28-5.8,30.44,16.45,27.39,22.78-3.11,41.83-27.45,89.9-27.45s67.13,24.34,89.9,27.45c22.25,3.05,16.7-26.11,16.45-27.39,13.05,24.29,14.58,54.9,6.79,86.43Z" style="stroke-width:0px"/><path d="m163.78,16.45s-20.06,33.57-30.69,50.61c-10.63,17.04-17.85,20.85-21.33,47.71-3.48,26.86-2.86,68.92-6.92,82.57-4.06,13.65,13.89,23.45,23.86,4.83,9.97-18.62,8.8-65.3,10.77-74.79,1.97-9.49,25.2-74.25,39.56-89.46,14.37-15.21-7.61-34.21-15.25-21.47Z" style="stroke-width:0px;fill:#231f20"/><path d="m391.58,78.05c-22.78-3.11-41.83-27.45-89.9-27.45s-67.13,24.34-89.9,27.45c-22.75,3.11-16.42-27.45-16.42-27.45C211.58,20.38,245.61,0,301.67,0s90.09,20.38,106.33,50.6c0,0,6.33,30.56-16.42,27.45Z" style="stroke-width:0px;fill:#281910"/><path d="m439.56,16.45s20.06,33.57,30.69,50.61c10.63,17.04,17.85,20.85,21.33,47.71,3.48,26.86,2.86,68.92,6.92,82.57,4.06,13.65-13.89,23.45-23.86,4.83-9.97-18.62-8.8-65.3-10.77-74.79-1.97-9.49-25.2-74.25-39.56-89.46-14.37-15.21,7.61-34.21,15.25-21.47Z" style="stroke-width:0px;fill:#231f20"/><path d="m238.21,89.03s-46.27-62.71-54.2-72.21c-7.93-9.5-28.18,1.9-24.99,19.95,3.19,18.05,36.53,66.29,58.51,77.8,21.98,11.52,37.78-2.45,20.68-25.54Z" style="stroke-width:0px;fill:#231f20"/><path d="m91.58,215.78c-4.75-15.27-10.91-33.89-14.15-50.15,9.61-.04,20.41-.6,30.44-1.34,3.03,12.25,6.44,26.85,7.39,33.36.77,5.24,1.51,8.76,1.94,13.16-6.93,3.38-16.15,5.17-25.62,4.96Z" style="stroke-width:0px;fill:#231f20"/><path d="m116.35,236.68c-.07.67-.14,1.34-.21,2.01-2.64,25.97-9.68,47.93-23.75,47.82-14.08-.11-10.56-25.41-5.42-33.54,1.9-3.03,3.17-8.55,3.94-14.29,5.42,1.37,14.64.53,25.44-2.01Z" style="stroke-width:0px;fill:#231f20"/><path d="m107.87,164.3c-10.03.74-20.83,1.3-30.44,1.34-2.01-9.82-2.89-18.79-1.76-25.62,13.65,4.54,27.27,4.64,27.27,4.64,0,0,2.29,8.9,4.93,19.64Z" style="stroke-width:0px;fill:#ffd877"/><path d="m116.35,236.68c-10.8,2.53-20.02,3.38-25.44,2.01,1.37-9.78,1.48-20.27,1.48-20.27-.28-.88-.53-1.76-.81-2.64,9.47.21,18.69-1.58,25.62-4.96.49,5.53.46,12.39-.84,25.87Z" style="stroke-width:0px;fill:#ffd877"/><path d="m58.52,280.8c-1.11.77-1.8,1.11-1.8,1.11,0,0-28.85,31.96-45.81,32.81-16.99.86-11.89-14.42,0-22.06,11.86-7.64,27.99-23.2,27.99-23.2,0,0,5.39,6.93,19.61,11.35Z" style="stroke-width:0px;fill:#231f20"/><path d="m88.99,216.49s-7.64,21.01-14.45,40.51c-.91,2.65-1.91,5.05-2.96,7.21-5.3.09-16.28-.85-26.77-8.98.51-.91,1.11-1.88,1.74-2.91,7.64-12.31,20.38-42.84,20.38-42.84,0,0,5.56,5.99,22.06,7.01Z" style="stroke-width:0px;fill:#231f20"/><path d="m139.05,156.09s-19.81,25.83-28.68,41.59c-7.07-1.06-20.21-3.65-30.16-9.32,12.23-13.85,37.97-50.17,37.97-50.17,0,0-3.99,9.18,20.87,17.9Z" style="stroke-width:0px;fill:#231f20"/><path d="m159.43,131.4l-4.25,11.86c-4.25,11.86-16.13,12.83-16.13,12.83-24.86-8.72-20.87-17.9-20.87-17.9.31-7.35,19.53-27.62,29.5-33.47,19.18,6.27,11.74,26.68,11.74,26.68Z" style="stroke-width:0px;fill:#ffd877"/><path d="m110.37,197.68c-.51.88-.97,1.74-1.4,2.54-7.98,15.34-19.98,16.28-19.98,16.28-16.5-1.03-22.06-7.01-22.06-7.01,0,0,.83-11.03,8.47-16.33,1.11-.77,2.79-2.45,4.82-4.79,9.95,5.67,23.09,8.27,30.16,9.32Z" style="stroke-width:0px;fill:#ffd877"/><path d="m71.57,264.21c-4.73,9.75-10.26,14.59-13.06,16.59-14.22-4.42-19.61-11.35-19.61-11.35,0,0,0-4.05,5.9-14.22,10.49,8.12,21.46,9.06,26.77,8.98Z" style="stroke-width:0px;fill:#ffd877"/><path d="m102.95,144.66s-13.62-.11-27.27-4.64c.46-2.96,1.34-5.52,2.64-7.6,5.1-8.02,16.64-29.91,29.88-47.93,5.07,7.99,13.2,19.35,22.1,25.65l-27.34,34.52Z" style="stroke-width:0px;fill:#231f20"/><path d="m214.78,144.66c-43.04-14.6-70.27-52.47-70.27-52.47,0,0-16.54-23.75,0-34.31,23.93,5.28,82.56,48.28,85.12,50.15,21.5,15.69,28.22,51.2-14.85,36.63Z" style="stroke-width:0px;fill:#231f20"/><path d="m144.5,92.19l-14.22,17.95c-8.9-6.3-17.03-17.67-22.1-25.65,11.82-16.08,25.02-29.1,36.32-26.6-16.54,10.56,0,34.31,0,34.31Z" style="stroke-width:0px;fill:#ffd877"/><path d="m228.61,148.99c-48.69,9.41-67.64-17.05-69.16-17.56l-.03-.03s7.44-20.41-11.74-26.68c1.48-.91,2.76-1.45,3.73-1.6,7.58-1.14,77.19,18.1,77.19,18.1,31.44,8.38,19.57,23.98,0,27.76Z" style="stroke-width:0px;fill:#231f20"/><path d="m365.13,89.03s46.27-62.71,54.2-72.21c7.93-9.5,28.18,1.9,24.99,19.95s-36.53,66.29-58.51,77.8c-21.98,11.52-37.78-2.45-20.68-25.54Z" style="stroke-width:0px;fill:#231f20"/><path d="m511.76,215.78c4.75-15.27,10.91-33.89,14.15-50.15-9.61-.04-20.41-.6-30.44-1.34-3.03,12.25-6.44,26.85-7.39,33.36-.77,5.24-1.51,8.76-1.94,13.16,6.93,3.38,16.15,5.17,25.62,4.96Z" style="stroke-width:0px;fill:#231f20"/><path d="m486.99,236.68c.07.67.14,1.34.21,2.01,2.64,25.97,9.68,47.93,23.75,47.82,14.08-.11,10.56-25.41,5.42-33.54-1.9-3.03-3.17-8.55-3.94-14.29-5.42,1.37-14.64.53-25.44-2.01Z" style="stroke-width:0px;fill:#231f20"/><path d="m495.47,164.3c10.03.74,20.83,1.3,30.44,1.34,2.01-9.82,2.89-18.79,1.76-25.62-13.65,4.54-27.27,4.64-27.27,4.64,0,0-2.29,8.9-4.93,19.64Z" style="stroke-width:0px;fill:#ffd877"/><path d="m486.99,236.68c10.8,2.53,20.02,3.38,25.44,2.01-1.37-9.78-1.48-20.27-1.48-20.27.28-.88.53-1.76.81-2.64-9.47.21-18.69-1.58-25.62-4.96-.49,5.53-.46,12.39.84,25.87Z" style="stroke-width:0px;fill:#ffd877"/><path d="m544.83,280.8c1.11.77,1.8,1.11,1.8,1.11,0,0,28.85,31.96,45.81,32.81,16.99.86,11.89-14.42,0-22.06-11.86-7.64-27.99-23.2-27.99-23.2,0,0-5.39,6.93-19.61,11.35Z" style="stroke-width:0px;fill:#231f20"/><path d="m514.35,216.49s7.64,21.01,14.45,40.51c.91,2.65,1.91,5.05,2.96,7.21,5.3.09,16.28-.85,26.77-8.98-.51-.91-1.11-1.88-1.74-2.91-7.64-12.31-20.38-42.84-20.38-42.84,0,0-5.56,5.99-22.06,7.01Z" style="stroke-width:0px;fill:#231f20"/><path d="m464.3,156.09s19.81,25.83,28.68,41.59c7.07-1.06,20.21-3.65,30.16-9.32-12.23-13.85-37.97-50.17-37.97-50.17,0,0,3.99,9.18-20.87,17.9Z" style="stroke-width:0px;fill:#231f20"/><path d="m443.92,131.4l4.25,11.86c4.25,11.86,16.13,12.83,16.13,12.83,24.86-8.72,20.87-17.9,20.87-17.9-.31-7.35-19.53-27.62-29.5-33.47-19.18,6.27-11.74,26.68-11.74,26.68Z" style="stroke-width:0px;fill:#ffd877"/><path d="m492.97,197.68c.51.88.97,1.74,1.4,2.54,7.98,15.34,19.98,16.28,19.98,16.28,16.51-1.03,22.06-7.01,22.06-7.01,0,0-.83-11.03-8.47-16.33-1.11-.77-2.79-2.45-4.82-4.79-9.95,5.67-23.09,8.27-30.16,9.32Z" style="stroke-width:0px;fill:#ffd877"/><path d="m531.77,264.21c4.73,9.75,10.26,14.59,13.06,16.59,14.22-4.42,19.61-11.35,19.61-11.35,0,0,0-4.05-5.9-14.22-10.49,8.12-21.47,9.06-26.77,8.98Z" style="stroke-width:0px;fill:#ffd877"/><path d="m500.4,144.66s13.62-.11,27.27-4.64c-.46-2.96-1.34-5.52-2.64-7.6-5.1-8.02-16.64-29.91-29.88-47.93-5.07,7.99-13.2,19.35-22.1,25.65l27.34,34.52Z" style="stroke-width:0px;fill:#231f20"/><path d="m388.56,144.66c43.04-14.6,70.27-52.47,70.27-52.47,0,0,16.54-23.75,0-34.31-23.93,5.28-82.56,48.28-85.12,50.15-21.5,15.69-28.22,51.2,14.85,36.63Z" style="stroke-width:0px;fill:#231f20"/><path d="m458.84,92.19l14.22,17.95c8.9-6.3,17.03-17.67,22.1-25.65-11.82-16.08-25.02-29.1-36.32-26.6,16.54,10.56,0,34.31,0,34.31Z" style="stroke-width:0px;fill:#ffd877"/><path d="m374.73,148.99c48.69,9.41,67.64-17.05,69.16-17.56l.03-.03s-7.44-20.41,11.74-26.68c-1.48-.91-2.76-1.45-3.73-1.6-7.58-1.14-77.19,18.1-77.19,18.1-31.44,8.38-19.57,23.98,0,27.76Z" style="stroke-width:0px;fill:#231f20"/><path d="m379.35,142.26c-11.06,36.06-77.48,36.09-77.68,36.09s-66.62-.03-77.68-36.09c-6.76-21.92-6.56-46.64,12.74-62.66-.63,1.14-15.31,27.42-1.82,39.08,13.8,11.92,37.54-4.87,38.14,11.72.6,16.59,4.5,16.79,14.31,7.78,3.28-2.99,8.64-2.31,14.31-.03,5.67-2.28,11.03-2.96,14.31.03,9.81,9.01,13.71,8.81,14.31-7.78.6-16.59,24.34.2,38.14-11.72,13.48-11.66-1.2-37.94-1.82-39.08,19.3,16.02,19.5,40.73,12.74,62.66Z" style="stroke-width:0px"/><path d="m368.43,118.69c-13.8,11.92-37.54-4.87-38.14,11.72-.6,16.59-4.5,16.79-14.31,7.78-3.28-2.99-8.64-2.31-14.31-.03-5.67-2.28-11.03-2.96-14.31.03-9.81,9.01-13.71,8.81-14.31-7.78-.6-16.59-24.34.2-38.14-11.72-13.48-11.66,1.2-37.94,1.82-39.08l.03-.03c12.51-10.4,33.04-17.16,64.91-17.16s52.39,6.76,64.91,17.16l.03.03c.63,1.14,15.31,27.42,1.82,39.08Z" style="stroke-width:0px;fill:#281910"/><path d="m137.54,300.7c5.46.25,13.1.52,21.87.59-1.05,7.08-2.55,16.3-4.04,22.38-2.73,11.09,2.73,20.95-18.19,20.95-15.25,0-5.86-28.47.36-43.93Z" style="stroke-width:0px;fill:#231f20"/><path d="m176.3,242.94c-7.02,39.79-12.55,46.74-14.63,47.88-.55.32-.84.2-.84.2,0,0-10.3,1.97-19.25-.22-1.71-4.12,14.7-51.47,14.7-51.47,0,0,10.92-5.62,20.01,3.62Z" style="stroke-width:0px;fill:#231f20"/><path d="m218.15,191.71c-8.22,14.47-14.88,25-20.23,32.64l-.04.02c-.58.12-14.77,3.48-27.33-10.53,10.55-15.9,23.03-33.33,23.03-33.33,0,0,6.44-7.12,16.85-4.71,10.44,2.42,7.71,15.9,7.71,15.9Z" style="stroke-width:0px;fill:#231f20"/><path d="m254.21,165.29s5.02-14.55,2.37-15.7c-2.66-1.13-11.75,4.29-19.03,7.94-7.28,3.65,3.06-4.98,4.26-9.91,1.2-4.93-5.46-5.33-11.54,0-6.04,5.35-16.96,9.05-12.12,3.7,2.84-3.08,6.48-6.9,7.57-10.99.84-.76,1.67-1.48,2.44-2.14,12.74-11.09,26.05-9.86,26.05-9.86,10.63-1.38,22.16,10.48,0,36.98Z" style="stroke-width:0px;fill:#231f20"/><path d="m254.21,165.29c-8.37,10.01-15.54,16.22-21.25,20.09-.95-7.22-4.37-15.38-10.55-19.38-5.42-3.53-13.54-3.4-20.34-2.37,6.88-8.14,16.48-17.01,23.65-23.32-1.09,4.09-4.73,7.91-7.57,10.99-4.84,5.35,6.08,1.65,12.12-3.7,6.08-5.33,12.74-4.93,11.54,0-1.2,4.93-11.54,13.56-4.26,9.91,7.28-3.65,16.38-9.07,19.03-7.94,2.66,1.16-2.37,15.7-2.37,15.7Z" style="stroke-width:0px;fill:#e19444"/><path d="m197.88,224.38c-13.54,19.28-18.89,20.12-20.74,19.3,0,0,0-.02-.04-.02-.29-.22-.55-.44-.76-.67,0-.02-.04-.02-.04-.05-9.1-9.24-20.01-3.62-20.01-3.62-.8-1.85,6.15-13.21,14.26-25.47,12.55,14,26.75,10.65,27.33,10.53Z" style="stroke-width:0px;fill:#ffd877"/><path d="m160.83,291.02s-.58,4.41-1.42,10.28c-8.77-.07-16.41-.34-21.87-.59,2.29-5.74,4.18-9.69,4.18-9.69-.07-.05-.11-.12-.15-.22,8.95,2.19,19.25.22,19.25.22Z" style="stroke-width:0px;fill:#ffd877"/><path d="m218.15,191.71s2.73-13.49-7.71-15.9c-10.41-2.42-16.85,4.71-16.85,4.71-1.16-3.77,2.69-10.06,8.48-16.89,6.8-1.04,14.92-1.16,20.34,2.37,6.19,3.99,9.61,12.15,10.55,19.38-9.35,6.31-14.74,6.34-14.81,6.34Z" style="stroke-width:0px;fill:#ffd877"/><path d="m301.67,186.73v25.83c-13.77,22.32-26.6,2.37-25.66-5.22.37-2.91.06-9.55-.48-16.82.2-.66.31-1.4.4-2.19.26-2.11.86-3.99,1.68-5.96.8-1.94,1.43-4.19,2.65-5.93.77,2.91-1.31,6.33,1.77,8.52,2.22,1.6,3.93-.63,4.48-2.82,1.08-4.56,3.22-8.61,4.87-13-.51,1.65-.14,3.82-.14,5.56v4.79c-.03,2.37-.83,5.39,1.2,6.98,1.31-1.71.4-3.56.66-5.53.09-.8.54-1.2.77-1.88.17-.54-.03-2.31.74-2.42,1.14,1,1.85,2.11,2.62,3.39.48.8,1.23,1.45,1.85,2.17,1.2,1.34,1.82,2.96,2.59,4.53Z" style="stroke-width:0px;fill:#ffd877"/><path d="m266.01,179.35c-1.74,3.51-3.71,7.81-4.62,10.97-9.32-5.62-17.99-6.98-24.63-6.76.03-.11.06-.2.09-.31l.03-.03c.43-.63,5.56-7.78,10.95-13.83,2.79-.14,5.9.2,9.21,1.34,5.42,1.88,7.92,5.33,8.98,8.61Z" style="stroke-width:0px;fill:#ffd877"/><path d="m278.87,300.93c-5.7,25.66-28.51,14.25-26.6,0,.91-6.78,2.28-19-2.85-35.66,14.4,5.79,23.89,1.54,28.08-1.31-1.47,20.11,3.36,28.02,1.37,36.97Z" style="stroke-width:0px;fill:#231f20"/><path d="m277.5,263.95c-4.19,2.85-13.68,7.1-28.08,1.31-1.8-16.42-1.51-25.91-.97-30.99,5.53-.03,12.09-1.45,18.44-6.21,4.76,12.63,10.2,34.26,10.58,35.8.03.06.03.09.03.09Z" style="stroke-width:0px;fill:#ffd877"/><path d="m266.75,183.25c-.23-4.02-2.02-9.83-9.72-12.51-5.05-1.74-9.66-1.6-13.37-.8,9.24-13.8,17.16-15.34,17.16-15.34,17.1-3.82,12.11,2.37,13.31,12.83.6,5.16-3.48,10.58-7.38,15.82Z" style="stroke-width:0px;fill:#231f20"/><path d="m301.67,149.85v36.89c-.77-1.57-1.4-3.19-2.59-4.53-.63-.71-1.37-1.37-1.85-2.17-.77-1.28-1.48-2.39-2.62-3.39-.77.11-.57,1.88-.74,2.42-.23.68-.68,1.08-.77,1.88-.26,1.97.66,3.82-.66,5.53-2.02-1.6-1.23-4.62-1.2-6.98v-4.79c0-1.74-.37-3.91.14-5.56-1.65,4.39-3.79,8.44-4.87,13-.54,2.19-2.25,4.42-4.48,2.82-3.08-2.19-1-5.62-1.77-8.52-1.23,1.74-1.85,3.99-2.65,5.93-.83,1.97-1.43,3.85-1.68,5.96-.09.8-.2,1.54-.4,2.19-.88-11.8-2.37-25.31-2.37-27.37,0-3.33-1.88-10.95,9.52-17.1,11.4-6.19,18.99,3.79,18.99,3.79Z" style="stroke-width:0px;fill:#231f20"/><path d="m269.23,226.13c-9.06,8.12-18.93,8.78-25.71,7.81-.97-4.36-1.88-8.15-2.71-11.12-3.99-14.28-8.49-25.6-4.05-39.25,6.64-.23,15.31,1.14,24.63,6.76-.37,1.17-.57,2.19-.57,2.96v.03c-.51,1.71-.6,3.39,0,4.99,1.71,4.65,5.02,15.08,8.41,27.82Z" style="stroke-width:0px;fill:#231f20"/><path d="m465.8,300.7c-5.46.25-13.1.52-21.87.59,1.05,7.08,2.55,16.3,4.04,22.38,2.73,11.09-2.73,20.95,18.19,20.95,15.25,0,5.86-28.47-.36-43.93Z" style="stroke-width:0px;fill:#231f20"/><path d="m427.04,242.94c7.02,39.79,12.55,46.74,14.63,47.88.55.32.84.2.84.2,0,0,10.3,1.97,19.25-.22,1.71-4.12-14.7-51.47-14.7-51.47,0,0-10.92-5.62-20.01,3.62Z" style="stroke-width:0px;fill:#231f20"/><path d="m385.2,191.71c8.22,14.47,14.88,25,20.23,32.64l.04.02c.58.12,14.77,3.48,27.33-10.53-10.55-15.9-23.03-33.33-23.03-33.33,0,0-6.44-7.12-16.85-4.71-10.44,2.42-7.71,15.9-7.71,15.9Z" style="stroke-width:0px;fill:#231f20"/><path d="m349.14,165.29s-5.02-14.55-2.37-15.7c2.66-1.13,11.75,4.29,19.03,7.94,7.28,3.65-3.06-4.98-4.26-9.91-1.2-4.93,5.46-5.33,11.54,0,6.04,5.35,16.96,9.05,12.12,3.7-2.84-3.08-6.48-6.9-7.57-10.99-.84-.76-1.67-1.48-2.44-2.14-12.74-11.09-26.05-9.86-26.05-9.86-10.63-1.38-22.16,10.48,0,36.98Z" style="stroke-width:0px;fill:#231f20"/><path d="m349.14,165.29c8.37,10.01,15.54,16.22,21.25,20.09.95-7.22,4.37-15.38,10.55-19.38,5.42-3.53,13.54-3.4,20.34-2.37-6.88-8.14-16.48-17.01-23.65-23.32,1.09,4.09,4.73,7.91,7.57,10.99,4.84,5.35-6.08,1.65-12.12-3.7-6.08-5.33-12.74-4.93-11.54,0,1.2,4.93,11.54,13.56,4.26,9.91-7.28-3.65-16.38-9.07-19.03-7.94-2.66,1.16,2.37,15.7,2.37,15.7Z" style="stroke-width:0px;fill:#e19444"/><path d="m405.47,224.38c13.54,19.28,18.89,20.12,20.74,19.3,0,0,0-.02.04-.02.29-.22.55-.44.76-.67,0-.02.04-.02.04-.05,9.1-9.24,20.01-3.62,20.01-3.62.8-1.85-6.15-13.21-14.26-25.47-12.55,14-26.75,10.65-27.33,10.53Z" style="stroke-width:0px;fill:#ffd877"/><path d="m442.51,291.02s.58,4.41,1.42,10.28c8.77-.07,16.41-.34,21.87-.59-2.29-5.74-4.18-9.69-4.18-9.69.07-.05.11-.12.15-.22-8.95,2.19-19.25.22-19.25.22Z" style="stroke-width:0px;fill:#ffd877"/><path d="m385.2,191.71s-2.73-13.49,7.71-15.9c10.41-2.42,16.85,4.71,16.85,4.71,1.16-3.77-2.69-10.06-8.48-16.89-6.8-1.04-14.92-1.16-20.34,2.37-6.19,3.99-9.61,12.15-10.55,19.38,9.35,6.31,14.74,6.34,14.81,6.34Z" style="stroke-width:0px;fill:#ffd877"/><path d="m301.67,186.73v25.83c13.77,22.32,26.6,2.37,25.66-5.22-.37-2.91-.06-9.55.48-16.82-.2-.66-.31-1.4-.4-2.19-.26-2.11-.86-3.99-1.68-5.96-.8-1.94-1.43-4.19-2.65-5.93-.77,2.91,1.31,6.33-1.77,8.52-2.22,1.6-3.93-.63-4.48-2.82-1.08-4.56-3.22-8.61-4.87-13,.51,1.65.14,3.82.14,5.56v4.79c.03,2.37.83,5.39-1.2,6.98-1.31-1.71-.4-3.56-.66-5.53-.09-.8-.54-1.2-.77-1.88-.17-.54.03-2.31-.74-2.42-1.14,1-1.85,2.11-2.62,3.39-.48.8-1.23,1.45-1.85,2.17-1.2,1.34-1.82,2.96-2.59,4.53Z" style="stroke-width:0px;fill:#ffd877"/><path d="m337.33,179.35c1.74,3.51,3.71,7.81,4.62,10.97,9.32-5.62,17.99-6.98,24.63-6.76-.03-.11-.06-.2-.09-.31l-.03-.03c-.43-.63-5.56-7.78-10.95-13.83-2.79-.14-5.9.2-9.21,1.34-5.42,1.88-7.92,5.33-8.98,8.61Z" style="stroke-width:0px;fill:#ffd877"/><path d="m324.48,300.93c5.7,25.66,28.51,14.25,26.6,0-.91-6.78-2.28-19,2.85-35.66-14.4,5.79-23.89,1.54-28.08-1.31,1.47,20.11-3.36,28.02-1.37,36.97Z" style="stroke-width:0px;fill:#231f20"/><path d="m325.84,263.95c4.19,2.85,13.68,7.1,28.08,1.31,1.8-16.42,1.51-25.91.97-30.99-5.53-.03-12.09-1.45-18.44-6.21-4.76,12.63-10.2,34.26-10.58,35.8-.03.06-.03.09-.03.09Z" style="stroke-width:0px;fill:#ffd877"/><path d="m336.59,183.25c.23-4.02,2.02-9.83,9.72-12.51,5.05-1.74,9.66-1.6,13.37-.8-9.24-13.8-17.16-15.34-17.16-15.34-17.1-3.82-12.11,2.37-13.31,12.83-.6,5.16,3.48,10.58,7.38,15.82Z" style="stroke-width:0px;fill:#231f20"/><path d="m301.67,149.85v36.89c.77-1.57,1.4-3.19,2.59-4.53.63-.71,1.37-1.37,1.85-2.17.77-1.28,1.48-2.39,2.62-3.39.77.11.57,1.88.74,2.42.23.68.68,1.08.77,1.88.26,1.97-.66,3.82.66,5.53,2.02-1.6,1.23-4.62,1.2-6.98v-4.79c0-1.74.37-3.91-.14-5.56,1.65,4.39,3.79,8.44,4.87,13,.54,2.19,2.25,4.42,4.48,2.82,3.08-2.19,1-5.62,1.77-8.52,1.23,1.74,1.85,3.99,2.65,5.93.83,1.97,1.43,3.85,1.68,5.96.09.8.2,1.54.4,2.19.88-11.8,2.37-25.31,2.37-27.37,0-3.33,1.88-10.95-9.52-17.1-11.4-6.19-18.99,3.79-18.99,3.79Z" style="stroke-width:0px;fill:#231f20"/><path d="m334.11,226.13c9.06,8.12,18.93,8.78,25.71,7.81.97-4.36,1.88-8.15,2.71-11.12,3.99-14.28,8.49-25.6,4.05-39.25-6.64-.23-15.31,1.14-24.63,6.76.37,1.17.57,2.19.57,2.96v.03c.51,1.71.6,3.39,0,4.99-1.71,4.65-5.02,15.08-8.41,27.82Z" style="stroke-width:0px;fill:#231f20"/></g></g></svg>