<?xml version="1.0" encoding="UTF-8"?><svg data-name="Layer 2" xmlns="http://www.w3.org/2000/svg" viewBox="0 0 88.89 90.73"><defs/><g data-name="100"><g><path d="m66.42,55.99c-2.07.7-8.04,2.7-9.53,3.16-1.81.55-2.78.16-4.99,0-2.2-.16-3.24,2.17-3.24,2.17,2.16-1.51,3.62-1.18,7.6-.94,3.78.23,5.78,2.03,5.97,2.2-.87-1.99-4.69-2.91-4.69-2.91l1.32-.51,7.82-1.91c.87-.51.31-.97-.26-1.24Z" style="stroke-width:0px;fill:#515864"/><path d="m51.91,59.15c2.2.16,3.17.55,4.99,0,1.49-.46,7.46-2.46,9.53-3.16-.37-.18-.74-.28-.74-.28l-10.01,3.09s-1.21-.95-4.14-.48c-2.94.48-2.85,3-2.85,3,0,0,1.04-2.33,3.24-2.17Z" style="stroke-width:0px;fill:#818ca3"/><path d="m62.23,62.58s.02.02.02.02c-.01-.1-.03-.19-.05-.29-.56-2.46-3.34-3.15-3.34-3.15l-1.32.51s3.82.92,4.69,2.91Z" style="stroke-width:0px;fill:#818ca3"/><path d="m60.07,44.48s2.33,10.23,4.92,11.88c2.59,1.65,3.62,1.65,4.14-3.33.52-4.98-.52-12.34-9.06-8.55Z" style="stroke-width:0px"/><path d="m56.14,58.62c-2.07.7-8.04,2.7-9.53,3.16-1.81.55-2.78.16-4.99,0-2.2-.16-3.24,2.17-3.24,2.17,2.16-1.51,3.63-1.18,7.6-.94,3.78.23,5.78,2.03,5.97,2.2-.87-1.99-4.69-2.91-4.69-2.91l1.32-.51,7.82-1.91c.87-.51.31-.97-.26-1.24Z" style="stroke-width:0px;fill:#515864"/><path d="m41.63,61.78c2.2.16,3.17.55,4.99,0,1.49-.46,7.46-2.46,9.53-3.16-.37-.18-.75-.28-.75-.28l-10.01,3.09s-1.21-.95-4.14-.47c-2.93.47-2.85,3-2.85,3,0,0,1.04-2.33,3.24-2.17Z" style="stroke-width:0px;fill:#818ca3"/><path d="m51.95,65.2s.02.02.02.02c-.01-.1-.03-.19-.05-.29-.56-2.46-3.34-3.15-3.34-3.15l-1.32.51s3.82.92,4.69,2.91Z" style="stroke-width:0px;fill:#818ca3"/><path d="m49.78,47.1s2.33,10.23,4.92,11.88c2.59,1.65,3.63,1.65,4.14-3.33.52-4.98-.52-12.34-9.06-8.54Z" style="stroke-width:0px"/><path d="m29.39,12.15s.88,4.59,4.34,7.29c3.45,2.7,5.4-.49,5.72,1.37.32,1.86-.69,3.95,1.2,11.45,1.55,6.15,5.57,12.37,10.44,15.84,2.69-7.1-2.25-13.41-5.98-20.46-4.16-7.89-3.09-8.42-3.03-12.57.05-4.14-.9-11.44-8.6-12.82-2.96-.53-7,.77-9.54,1.78-1.66,2.83-2.36,6.61-2.04,9.73,1.68-4,4.91-4.49,7.5-1.61Z" style="stroke-width:0px;fill:#f5eb18"/><path d="m26.23,19.58s9.2,2.88,10.86,9.74c0,0,1.66,11.38,7.17,17.08,1.5,1.55,3.37,2.99,5.52,4.26.55-.87.98-1.72,1.3-2.56-4.87-3.46-8.89-9.68-10.44-15.84-1.89-7.5-.87-9.6-1.2-11.45-.32-1.86-2.27,1.34-5.72-1.37-3.45-2.7-4.34-7.29-4.34-7.29-2.59-2.89-5.82-2.39-7.5,1.61.33,3.23,1.76,5.77,4.35,5.82Z" style="stroke-width:0px;fill:#bbb033"/><path d="m53.57,19.3c-2.26-3.88-6.54-8.73-11.5-14.25-1.53-1.71-3.89-2.25-6.41-2.19,5.69,2.25,6.46,8.49,6.41,12.2-.05,4.14-1.13,4.67,3.03,12.57,4.17,7.89,9.86,14.85,4.68,23.03,5.76,3.39,13.5,5.42,21.24,4.29,3.78-.55,5.79-1.37,6.74-2.62-1.21-13.85-21.93-29.14-24.19-33.02Z" style="stroke-width:0px"/><path d="m76.72,40.19c-1.4-8.62-12.86-18.29-21.94-22.41,0,0-4.67-8.24-11.05-14.15-1.19-1.71-2.95-2.96-5.39-3.32-10.41-1.55-14.2,3.37-14.2,3.37-.08.12-.14.24-.22.36,2.54-1.01,6.57-2.31,9.54-1.78.8.14,1.53.35,2.19.62,2.52-.06,4.88.48,6.41,2.19,4.95,5.52,9.24,10.38,11.5,14.25,2.26,3.88,22.98,19.17,24.19,33.02,1.71-2.27-.04-5.97-1.04-12.14Z" style="stroke-width:0px;fill:#424143"/><path d="m7.98,25.53c-.7.63-1.36,1.26-1.96,1.89.06-.03.48-.22,1.73-.76l.24-1.13Z" style="stroke-width:0px;fill:#5b1925"/><path d="m12.14,24.8c.92-.38,1.9-.79,2.9-1.2-.14-.53.17-1.45,1.91-3.08,3-2.8,9.89-5.22,11.89-5.89,0-.25,0-.49-.01-.74-2.67,1.12-9.14,3.95-15.55,7.74-1.99,1.18-3.76,2.53-5.29,3.9l-.24,1.13c.94-.4,2.34-1,4.4-1.86Z" style="stroke-width:0px;fill:#81cfce"/><path d="m15.04,23.59c4.48-1.86,9.41-3.93,11.18-5.06,1.09-.69,1.95-1.86,2.53-2.85.05-.35.08-.7.08-1.05-2,.67-8.89,3.09-11.89,5.89-1.74,1.62-2.05,2.55-1.91,3.08Z" style="stroke-width:0px;fill:#c5d92f"/><path d="m7.35,28.53l.39-1.87c-1.25.54-1.67.73-1.73.76-1.75,1.81-3.09,3.53-4,4.84,1.22-.98,3-2.31,5.34-3.73Z" style="stroke-width:0px;fill:#281217"/><path d="m15.04,23.59c-1,.42-1.98.82-2.9,1.2-2.06.86-3.46,1.46-4.4,1.86l-.39,1.87c1.38-.84,2.96-1.72,4.72-2.59,1.22-.6,2.47-1.16,3.71-1.69-.01,0-.61-.12-.75-.65Z" style="stroke-width:0px;fill:#6eafae"/><path d="m26.22,18.53c-1.77,1.13-6.7,3.2-11.18,5.06.14.54.74.65.75.65,4.7-2.03,9.28-3.67,11.74-5.51.7-.95,1.07-1.98,1.23-3.06-.59.99-1.45,2.16-2.53,2.85Z" style="stroke-width:0px;fill:#adb738"/><path d="m6.39,18.88c-.4.49-.78.98-1.13,1.47.16.56.48,1.12,1.13,1.28.06.01.12.04.17.06.02,0,.03.01.05.02.04.02.09.05.13.08.01,0,.02.01.03.02.05.04.1.08.14.12.01.01.02.02.03.03.04.04.07.08.1.12.01.02.03.03.04.05.04.05.08.11.11.16,0,.01.01.02.02.03.03.05.06.11.09.16.01.02.03.05.04.07.02.04.04.09.06.13.01.03.02.05.03.08.03.06.05.13.08.19.01.04.03.07.04.11.01.03.02.07.03.1.01.04.03.08.04.13,0,.02.01.05.02.07.03.1.05.2.08.3,0,0,0,.01,0,.02.01.06.03.12.04.18,0,0,0,0,0,0,.94-.41,2.53-1.22,4.62-2.74,3.48-2.53,8.18-9.05,10.64-10.22,2.46-1.17,4.1-.17,4.23.99.13,1.17-.22,1.92-1.04,2.69h0c1.07-.48,1.91-.88,2.57-1.24-.17-1.72-.7-3.5-1.27-5.21-.26-.79-.6-1.44-.97-1.97-4.76-.33-13.75,4.83-20.16,12.69Z" style="stroke-width:0px;fill:#f5eb18"/><path d="m23.58,3.96c-2.46,1.29-12.44,6.8-18.08,14.47-.13.18-.26.36-.38.54,0,.03-.04.71.14,1.38.35-.49.73-.98,1.13-1.47,6.41-7.85,15.4-13.01,20.16-12.69-1.3-1.88-2.96-2.23-2.97-2.23Z" style="stroke-width:0px;fill:#f2e65b"/><path d="m29.36,16.1c.22-3.63-.82-13.21-5.22-12.43,0,0-.2.1-.56.29,0,0,2.72.58,3.93,4.2,1.21,3.62,2.25,7.54,0,10.58,1.11-.83,1.78-1.69,1.84-2.64Z" style="fill:#ef4524;stroke-width:0px"/><path d="m19.12,18.21s.17.12.27.28c.1.16.01-.15.07-.45.06-.3-.44.08-.34.17Z" style="stroke-width:0px;fill:none"/><path d="m17.33,18.74c3.99-1.96,6.85-3.21,8.89-4.13h0c.82-.78,1.17-1.53,1.04-2.69-.13-1.16-1.77-2.16-4.23-.99-2.46,1.17-7.16,7.68-10.64,10.22-2.09,1.52-3.68,2.33-4.62,2.74.08.39.14.77.17,1.07,2.49-2.16,5.58-4.33,9.4-6.2Z" style="stroke-width:0px;fill:#f36d24"/><path d="m10.87,22.58s-.41-1-.86-1.77c0,0,1.04,1.15,1.89,1.09.85-.06-.83.78-1.03.68Z" style="stroke-width:0px;fill:#262414;opacity:.8"/><path d="m9.76,23.45s-1.34-.6-1.83-1.09c-.49-.49.89,1.52.67,2.02-.22.5,1.11-.38,1.16-.93Z" style="stroke-width:0px;fill:#262414;opacity:.8"/><path d="m13.34,20.95s.05-.63-.31-1.51c-.27-.66.69,1.27,1.24.95.55-.32-.44,1.27-.93.56Z" style="stroke-width:0px;fill:#262414;opacity:.8"/><path d="m8.17,25.35s.35.09.61.29c.26.19-.06-.23-.13-.7-.07-.47-.69.34-.47.41Z" style="stroke-width:0px;fill:#262414;opacity:.8"/><path d="m9.92,23.89s.54.11.8.43c.26.32-.26-.52-.2-.88.07-.35-.58.06-.6.44Z" style="stroke-width:0px;fill:#262414;opacity:.8"/><path d="m11.73,22.63s.33.15.55.38c.22.23-.03-.23-.02-.71,0-.48-.73.22-.53.33Z" style="stroke-width:0px;fill:#262414;opacity:.8"/><path d="m13.57,21.47s.51.2.72.56c.2.36-.17-.56-.05-.9.12-.34-.58-.04-.67.34Z" style="stroke-width:0px;fill:#262414;opacity:.8"/><path d="m15.14,20.55s.33.14.55.38-.03-.23-.03-.71-.73.23-.53.33Z" style="stroke-width:0px;fill:#262414;opacity:.8"/><path d="m17.09,19.37s.52.19.72.55c.21.36-.18-.56-.06-.9.12-.34-.58-.03-.67.35Z" style="stroke-width:0px;fill:#262414;opacity:.8"/><path d="m13.27,21.63c6.41-3.79,12.88-6.62,15.55-7.74,0-.17-.02-.35-.04-.52-1.91,1.05-5.38,2.39-11.46,5.38C7.83,23.41,2.76,29.92.53,33.53c.33-.3.82-.73,1.48-1.27,1.93-2.75,5.72-7.36,11.26-10.63Z" style="stroke-width:0px;fill:#262414"/><path d="m12.38,12.04s-2.52,2.03-3,2.85c-.47.82-.13.95.63.22.75-.73,1.91-2.03,2.37-2.29.46-.26.82-1.46,0-.78Z" style="stroke-width:0px;fill:#fff"/><path d="m8.93,15.99s-.41-.13-.6.19c-.19.32.13.41.39.32.26-.09.51-.5.22-.52Z" style="stroke-width:0px;fill:#fff"/><path d="m7.72,23.68c-.02-.1-.05-.2-.08-.3,0-.02-.01-.05-.02-.07-.01-.04-.03-.08-.04-.13-.01-.04-.02-.07-.03-.1-.01-.04-.03-.07-.04-.11-.02-.07-.05-.13-.08-.19,0-.03-.02-.05-.03-.08-.02-.05-.04-.09-.06-.13-.01-.02-.02-.05-.04-.07-.03-.06-.06-.11-.09-.16,0,0-.01-.02-.02-.03-.04-.06-.07-.11-.11-.16-.01-.02-.03-.03-.04-.05-.03-.04-.07-.08-.1-.12-.01-.01-.02-.02-.03-.03-.05-.04-.09-.09-.14-.12-.01,0-.02-.02-.03-.02-.04-.03-.08-.05-.13-.08-.02,0-.03-.02-.05-.02-.06-.03-.11-.05-.17-.06-.65-.16-.97-.71-1.13-1.28C-.01,27.61.06,33.97.06,33.97c0,0,.16-.16.47-.44,1.34-2.16,3.69-5.36,7.4-8.58-.03-.29-.09-.67-.17-1.07-.01-.06-.03-.12-.04-.18,0,0,0-.01,0-.02Z" style="stroke-width:0px;fill:#5b1925"/><path d="m6.91,21.93s.02.02.03.03c-.01-.01-.02-.02-.03-.03Z" style="stroke-width:0px;fill:#5b1925"/><path d="m7.04,22.08s.03.03.04.05c-.01-.02-.03-.03-.04-.05Z" style="stroke-width:0px;fill:#5b1925"/><path d="m6.73,21.79s.02.01.03.02c-.01,0-.02-.02-.03-.02Z" style="stroke-width:0px;fill:#5b1925"/><path d="m7.58,23.18s.03.08.04.13c-.01-.04-.03-.08-.04-.13Z" style="stroke-width:0px;fill:#5b1925"/><path d="m6.56,21.69s.03.01.05.02c-.02,0-.03-.02-.05-.02Z" style="stroke-width:0px;fill:#5b1925"/><path d="m7.19,22.29s.01.02.02.03c0,0-.01-.02-.02-.03Z" style="stroke-width:0px;fill:#5b1925"/><path d="m7.51,22.97s.03.07.04.11c-.01-.04-.03-.07-.04-.11Z" style="stroke-width:0px;fill:#5b1925"/><path d="m7.64,23.38c.03.1.05.2.08.3-.02-.1-.05-.2-.08-.3Z" style="stroke-width:0px;fill:#5b1925"/><path d="m7.4,22.7s.02.05.03.08c0-.03-.02-.05-.03-.08Z" style="stroke-width:0px;fill:#5b1925"/><path d="m7.3,22.49s.03.05.04.07c-.01-.02-.02-.05-.04-.07Z" style="stroke-width:0px;fill:#5b1925"/><path d="m7.76,23.88c-.01-.06-.03-.12-.04-.18.01.06.03.12.04.18Z" style="stroke-width:0px;fill:#5b1925"/><path d="m5.26,20.35c-.19-.67-.14-1.35-.14-1.38C-.93,27.51.06,33.97.06,33.97c0,0-.07-6.36,5.2-13.62Z" style="stroke-width:0px;fill:#61333d"/><path d="m30.42,9.16c0,1.65,1.34,2.99,2.99,2.99s2.99-1.34,2.99-2.99-1.34-2.99-2.99-2.99-2.99,1.34-2.99,2.99Z" style="stroke-width:0px;fill:#29aae1"/><path d="m31.01,9.28c0,1.28,1.04,2.32,2.32,2.32s2.32-1.04,2.32-2.32-1.04-2.32-2.32-2.32-2.32,1.04-2.32,2.32Z" style="stroke-width:0px"/><path d="m31.48,8.11c0-.31.25-.56.56-.56s.56.25.56.56-.25.56-.56.56-.56-.25-.56-.56Z" style="stroke-width:0px;fill:#fff"/><path d="m77.49,48.73c-.59-1.81-3.65-4.78-6.64-6.49l1.6,9.32,6.86,2.8c-1.09-3.38-1.82-5.62-1.82-5.62Z" style="stroke-width:0px;fill:#a8aaad"/><path d="m79.49,59.74c-2.61-.77-5.82-1.68-5.82-1.68,1.56,6.16,8.3,32.17,10.81,32.62,1.78.32,2.95-1.37,3.64-2.94h0l-8.64-28Z" style="stroke-width:0px"/><path d="m77.62,53.66h0l-5.16-2.1.89,5.2s.12.47.33,1.3c0,0,3.2.91,5.82,1.68l-1.88-6.08Z" style="stroke-width:0px;fill:#bdbec0"/><path d="m81.22,60.26c-.51-.15-1.1-.33-1.73-.52l8.64,28h0c.42-.95.66-1.85.76-2.24.16-.64-4.28-14.7-7.67-25.24Z" style="stroke-width:0px;fill:#424143"/><path d="m79.49,59.74c.63.19,1.22.36,1.73.52-.7-2.17-1.35-4.18-1.9-5.91l-1.7-.69h0l1.88,6.08Z" style="stroke-width:0px;fill:#fff"/><path d="m65.17,47.31c2.37,9.49,8.18,9.45,8.18,9.45l-.89-5.2h0s-4.21-2.23-7.29-4.25Z" style="stroke-width:0px;fill:#c32328"/><path d="m64.86,45.91c.1.49.2.96.31,1.4,3.08,2.01,7.29,4.25,7.29,4.25h0l-1.6-9.32c-3.64-2.08-7.16-2.31-6,3.67Z" style="stroke-width:0px;fill:#68151e"/><path d="m57.81,21.67c-2.15-1.11-3.9-1.1-5.12-.82-.48,1.49-.66,3.87-.58,7.43,0,0,0,9.84,10.1,16.06,10.1,6.22,18.13,9.06,19.16,9.32.07.02.13,0,.18-.02-1.53-4.44-4.28-12.53-6.27-17.42-2.46-6.05-13.21-12.34-17.48-14.54Z" style="stroke-width:0px"/><path d="m78.48,39.15c-3.05-9.58-12.12-15.09-18.13-18.33-4.14-2.23-6.6-3.26-7.65.03,1.21-.28,2.97-.28,5.12.82,4.27,2.2,15.02,8.48,17.48,14.54,1.99,4.89,4.74,12.98,6.27,17.42.73-.43-.23-5.54-3.08-14.48Z" style="stroke-width:0px;fill:#424143"/></g></g></svg>