<?xml version="1.0" encoding="UTF-8"?><svg data-name="Layer 2" xmlns="http://www.w3.org/2000/svg" viewBox="0 0 96.14 78.83"><defs/><g data-name="100"><g><path d="m60.23,42.23s-1.8-10.78-1.31-19.11c.49-8.33,3.69-15.45,6.37-15.68s5.97,3.27,6.01,18.62-5.03,30.86-11.07,16.17Z" style="stroke-width:0px;fill:#a08665"/><path d="m61.15,38.9s-2.18-9.36-.76-16.87c1.42-7.51,3.46-12.74,5.11-12.52,1.64.22,4.26,2.83,4.58,10.02s-1.63,33.09-8.93,19.37Z" style="stroke-width:0px;fill:#786550"/><path d="m41.54,78.82c-24.25.49-29.76-12.95-29.76-12.95-2.85-5.13-3.32-9.28-2.18-12.64,2.66-.47,5.16,1.39,5.97,5.8,0,0,1.46,12.11,23.14,12.76,21.6.65,38.25-6.47,41.74-19.53.02.2.03.4.03.61.24,12-14.7,25.47-38.95,25.96Z" style="stroke-width:0px;fill:#786550"/><path d="m32.28,42.57s.49-5.14-1.13-12.49c-1.61-7.35-6.04-24.75-1.3-27.04,4.74-2.29,9.31,2.61,11.76,8.82,2.45,6.21,4.9,16.49,4.74,22.86-.16,6.37-13.73,15.81-14.06,7.85Z" style="stroke-width:0px;fill:#a08665"/><path d="m80.45,52.25c-3.49,13.07-20.14,20.18-41.74,19.53-21.68-.65-23.14-12.76-23.14-12.76-.81-4.41-3.32-6.27-5.97-5.8,2.22-6.54,10.51-10.1,19.12-12,.54.85,1.01,1.79,1.38,2.8,2.26.84,4.34.93,5.66.02.78-.54,2.78-2.44,4.54-4.54,4.63-.4,8.4-.42,10.06-.36.66.02,1.45.06,2.34.11.83,4.85,2.78,8.52,2.78,8.52,0,0,2-4.98,4.43-5.67,2.44-.69,4.29,3.52,4.29,3.52,0,0,2.48-6.12,2.89-10.92,2.75,1.52,5.73,4.51,7.01,6.75.46.81.87,1.94,1.18,3.25,2.88,1.84,4.89,4.29,5.17,7.55Z" style="stroke-width:0px;fill:#a08665"/><path d="m29.53,57.09c-.52.99-1.15,1.87-1.86,2.66-5.2,4.13-12.77,6.17-20.19,3.32C.05,60.22,0,52.08,0,52.08c.05-2.43.67-4.97,1.92-7.4,5.68-11.01,16.76-9.85,22.44-7.24.07.61.55,3.88,3.36,5.47.8.45,1.59.83,2.37,1.11,1.49,4.05,1.5,9.13-.57,13.07Z" style="stroke-width:0px;fill:#a08665"/><path d="m24.38,59.13c-2.19,2.11-5.05,3.11-7.83,3.18,0-.03,0-.05-.01-.08,0,0-1.63-2.29-1.63-5.27s1.78-6.25.52-7.43c-1.26-1.18-3.54,1.18-4.6,4.69-.82,2.72-.71,5.3.25,6.93-2.41-1.2-4.13-3.29-4.26-6.04-.39-8.22,8.41-9.68,8.41-9.68,0-1.7.3-3.01.81-4,0,0,0,0,0,0,1.78-3.42,6.05-2.91,8.7-1.24-.67,0-1.4.08-2.08.24-.79.19-1.53.49-2.07.92-1.81,1.41-1.13,4.03.72,3.05,1.28-.68,4.04-.65,5.62-.57.3.01.55.03.75.05.41.96.74,2.06.91,3.25.56,3.7-.3,8.24-4.21,12Z" style="stroke-width:0px;fill:#fbf7e7"/><path d="m22.79,45.96s-2.57-.79-4.12,1.66c-1.55,2.45-.41,4,.9,4s2.45-.24,3.67-1.8c1.22-1.55,1.13-3.42-.45-3.87Z" style="stroke-width:0px;fill:#504e50"/><path d="m21.31,46.04s-1.4-.04-2.36,1.62c-.96,1.66-.35,1.88-.35,1.88,0,0,3-.31,3.93-2.09.94-1.78-1.22-1.41-1.22-1.41Z" style="fill:#676767;stroke-width:0px"/><path d="m25.75,46.41s-.22,3.17-1.98,5.09c-1.76,1.91-3.92,3.37-4.82,3.2-.9-.17-.96,1.02-.23.96.73-.06,4.23-1.34,6.11-4.25,1.88-2.91,1.69-5.18,1.35-5.73-.33-.55-.74.02-.43.73Z" style="stroke-width:0px;fill:#8f8a76"/><path d="m16.55,62.32c-1.96.05-3.87-.35-5.48-1.15-.97-1.63-1.07-4.21-.25-6.93,1.06-3.51,3.35-5.88,4.6-4.69,1.26,1.18-.52,4.45-.52,7.43s1.63,5.27,1.63,5.27c0,.03,0,.06.01.08Z" style="stroke-width:0px;fill:#4d4b42"/><path d="m27.68,43.88c-.2-.01-.45-.03-.75-.05-1.58-.08-4.34-.11-5.62.57-1.85.98-2.53-1.63-.72-3.05.55-.43,1.28-.73,2.07-.92.68-.16,1.41-.24,2.08-.24.32.2.61.41.87.64.77.67,1.51,1.73,2.07,3.04Z" style="stroke-width:0px;fill:#4d4b42"/><path d="m27.67,59.75c-1.23,1.39-2.67,2.47-4.07,3.3-3.04,1.81-5.85,2.45-5.85,2.45C7.75,67.69,1.19,61.93.15,54.5c-.11-.79-.16-1.6-.14-2.41,0,0,.05,8.14,7.48,10.99,7.42,2.85,14.99.81,20.19-3.32Z" style="stroke-width:0px;fill:#786550"/><path d="m15.3,50.39s.36-1.37-.98-.26c-1.34,1.11-1.48,2.38-1.41,3.64.07,1.26,1.02.7,1.04,0s-.48-1.69,1.34-3.39Z" style="stroke-width:0px;fill:#010101"/><path d="m22.66,41.87s-1.2,0-1.9.46c-1.12.75-.98,2-.52,1.5s1.07-1.16,2.41-1.3c1.34-.15.52-.71,0-.66Z" style="stroke-width:0px;fill:#010101"/><path d="m14.72,36.54s-4.56.24-7.92,3.84c-3.35,3.59.89,1.68,3.67.7,2.78-.98,7.05-2.59,7.45-3.34s-.67-1.72-3.2-1.21Z" style="stroke-width:0px;fill:#c1a280"/><path d="m34.19,42.24s-.62-12.05-1.91-17.6c-1.29-5.55-4.55-17.2-2.37-20.25s5.66-.49,7.13,2.09c1.47,2.59,6.12,13.17,6.79,18.93s-3.17,14.19-5.11,16.83c-1.95,2.65-4.39,2.14-4.52,0" style="stroke-width:0px;fill:#786550"/><path d="m30.1,44.02c-.78-.29-1.58-.66-2.37-1.11-2.81-1.6-3.3-4.86-3.36-5.47.39.18.75.36,1.08.55,2.07,1.16,3.68,3.38,4.65,6.04Z" style="stroke-width:0px;fill:#786550"/><path d="m40.3,39.51c-1.76,2.09-3.76,4-4.54,4.54-1.32.91-3.4.81-5.66-.02-.37-1.01-.83-1.95-1.38-2.8,3.98-.88,8.03-1.41,11.57-1.71Z" style="stroke-width:0px;fill:#786550"/><path d="m32.72,44.66s.3,2.48-.25,4.88,2.46,1.79,4.26-1.19c1.81-2.98-1.51-8.73-4.02-3.69Z" style="stroke-width:0px;fill:#786550"/><path d="m67.09,34.7c-.42,4.8-2.89,10.92-2.89,10.92,0,0-1.85-4.21-4.29-3.52-2.44.69-4.43,5.67-4.43,5.67,0,0-1.95-3.68-2.78-8.52.14,0,.28.02.42.02,1.07.07,2.27.16,3.55.28.67.07,3.19-.21,5.2-4.46.9-1.9,2.99-1.64,5.22-.4Z" style="stroke-width:0px;fill:#786550"/><path d="m38.86,28.37c.34,3.85-3.32,13.14-3.32,13.14-.66.29-1.35.52-2.06.71-4.1,1.04-8.27-1.17-9.03-6.06-.91-5.91,4.33-8.21,4.33-8.21,4.37-1.89,7.92-1.54,10.09.42Z" style="stroke-width:0px;fill:#a08665"/><path d="m35.92,34.4c.65.06,1.26.37,1.78.74-.52,1.8-1.11,3.51-1.54,4.71-.55.27-1.17.5-1.88.68-1.81.46-3.31.46-4.51.16,0,0,0,0,0,0,0,0,0,0-.01,0-.08-.04-.46-.26-.41-1.18.06-1.04.72-3,1.39-3.55.67-.54,0-1.29-.76-1.22-.77.07-3.2,1.66-2.79,4.46-1.18-1.31-1.95-3.6-1.11-4.9,2.26-3.49,5.81-1.65,5.81-1.65.46-2.78,4.58-3.45,6.03-2.14.25.23.49.52.7.85-.1.54-.22,1.1-.35,1.66-1.31-.52-3.03-.39-3.39-.1-.5.4-.72,1.31,1.05,1.49Z" style="stroke-width:0px;fill:#fbf7e7"/><path d="m30.74,35.96c-.67.54-1.33,2.51-1.39,3.55-.05.92.32,1.14.41,1.18-1.11-.28-1.96-.82-2.56-1.48-.41-2.81,2.02-4.4,2.79-4.46.77-.07,1.43.68.76,1.22Z" style="stroke-width:0px;fill:#4d4b42"/><path d="m39.21,36.58s-1.52-2-3.29-2.17c-1.77-.18-1.55-1.09-1.05-1.49.5-.4,3.58-.49,4.62,1h0c.1.86.03,1.78-.28,2.66Z" style="stroke-width:0px;fill:#4d4b42"/><path d="m34.05,35.95c-.07.03-1.31.36-1.6.88-.29.52.55,1.04,1.34.95.79-.09,1.21-.7,1.29-1.39.08-.69-.62-.61-1.04-.44Z" style="stroke-width:0px;fill:#504e50"/><path d="m34.6,36.03s-1.6.22-2.07.9c0,0,.49.21,1.3-.08.81-.29.77-.82.77-.82Z" style="fill:#676767;stroke-width:0px"/><path d="m34.48,37.97s-1.55.62-1.99.31c-.44-.31-.46.32.04.42.49.1,1.75-.13,2.61-.57.86-.44,1.26-.98,1.33-1.38s-.25-.35-.37-.01c-.12.33-.94,1-1.62,1.23Z" style="stroke-width:0px;fill:#8f8a76"/><path d="m32.83,27.61s-3.52.07-5,1.79c-1.48,1.72-.74,1.82-.07,1.41.67-.41,2.07-1.48,3.61-1.75,1.54-.27,3.76-1.21,1.46-1.45Z" style="stroke-width:0px;fill:#c1a280"/><path d="m28.52,35.83c.06.69.67,1.21,1.36,1.15.69-.06,1.21-.67,1.15-1.36-.06-.69-.67-1.21-1.36-1.15-.69.06-1.21.67-1.15,1.36Z" style="stroke-width:0px;fill:#010101"/><path d="m34.52,33.62c.06.69.67,1.21,1.36,1.15.69-.06,1.21-.67,1.15-1.36-.06-.69-.67-1.21-1.36-1.15-.69.06-1.21.67-1.15,1.36Z" style="stroke-width:0px;fill:#010101"/><path d="m30.39,35.01c-.01-.13-.12-.22-.25-.21-.13.01-.22.12-.21.25.01.13.12.22.25.21.13-.01.22-.12.21-.25Z" style="stroke-width:0px;fill:#fff"/><path d="m36.16,32.65c-.01-.13-.12-.22-.25-.21-.13.01-.22.12-.21.25s.12.22.25.21c.13-.01.22-.12.21-.25Z" style="stroke-width:0px;fill:#fff"/><path d="m39.49,33.92c-.28-.41-.73-.7-1.23-.9.14-.57.26-1.13.35-1.66.44.7.76,1.6.87,2.56Z" style="stroke-width:0px;fill:#d3c99f"/><path d="m39.21,36.58c-.45,1.27-1.4,2.46-3.05,3.27.43-1.2,1.02-2.91,1.54-4.71.9.63,1.51,1.44,1.51,1.44Z" style="stroke-width:0px;fill:#d3c99f"/><path d="m35.54,41.5s.26-.67.62-1.65c1.66-.82,2.6-2,3.05-3.27,0,0-.61-.81-1.51-1.44.2-.7.4-1.42.56-2.12.5.2.94.49,1.23.9-.11-.97-.43-1.87-.87-2.56.21-1.14.31-2.19.24-2.99,1.06.96,1.79,2.3,2.12,3.94.86,4.27-1.71,7.56-5.44,9.19Z" style="stroke-width:0px;fill:#786550"/><path d="m52.7,30.71s5.49-.39,8.18,1.93c2.69,2.32,3.41,5.17.81,7.21s-7.59,2.33-9.79-.34-4.11-8.14.8-8.8Z" style="stroke-width:0px;fill:#786550"/><path d="m58.83,31.95s-2.45-1.12-2.16.48.7,4.93,2.53,4.91c1.84-.01,2.4-4.28-.37-5.39Z" style="stroke-width:0px;fill:#a08665"/><path d="m34.32,7.44s-4.74.55-14.42.64c-6.45.06-12.23-.24-15.38-.45-.34-.68.24-1.33,2.28-1.71,0,0,13.99.17,21.7-.47.03.05.57.87,1.76.94.93.05,2.82.18,3.84-.02.12.66.22,1.07.22,1.07Z" style="stroke-width:0px;fill:#736759"/><path d="m34.1,6.37c-1.02.21-2.91.08-3.84.02-1.19-.07-1.72-.89-1.76-.94h0c1-.08,1.9-.18,2.65-.29.93-.14,1.84-.3,2.71-.46.07.64.16,1.21.24,1.67Z" style="stroke-width:0px;fill:#5a4b43"/><path d="m47.93,4.26c3.72,1.21,10.7,3.32,16.38,4.69-.66,1.12-1,1.97-1,1.97l-13.03-3.48c-.19-.52-1.08-1.74-2.36-3.18Z" style="stroke-width:0px;fill:#736759"/><path d="m95.02,20.26c-2.2.49-7.49.58-9.04-.19-1.74-.87-12.63-5.14-17.31-5.89-4.68-.75-20.12-6.55-24.76-6.1-4.63.45-11.02.77-15.39,1.43-4.38.66-12.54.55-17.44.44-3.03-.07-6-1.22-6.55-2.32,3.15.21,8.93.51,15.38.45,9.68-.09,14.42-.64,14.42-.64,0,0-.3-1.18-.46-2.74,5.17-.96,9.24-2.08,12.49-.96.42.14.95.32,1.57.52,1.28,1.43,2.17,2.66,2.36,3.18l13.03,3.48s.34-.85,1-1.97c2.01.48,3.85.88,5.34,1.1,1.89.29,3.82.74,5.73,1.28.36,1.61.51,2.84.51,2.84,0,0,12.48,4.63,19.14,6.09Z" style="stroke-width:0px;fill:#5a4b43"/><path d="m95.66,20.07c-.16.07-.38.14-.65.19-6.66-1.46-19.14-6.09-19.14-6.09,0,0-.15-1.23-.51-2.84,4.54,1.29,8.99,3.11,12.67,4.49,5.23,1.96,6.53,1.53,6.53,1.53,0,0,2.61,2.07,1.09,2.72Z" style="stroke-width:0px;fill:#736759"/><path d="m32.72,48.94s6.12-12.25,6.61-15.68-6.37-29.15-2.45-32.09,9.06,0,11.76,4.9c2.69,4.9,6.86,21.55,7.59,28.17.73,6.61.98,11.76-2.94,17.88-3.92,6.12-24.25,7.84-20.58-3.18Z" style="stroke-width:0px;fill:#a08665"/><path d="m64.31,50.53s-2.79-11.6-2.41-16.98c.39-5.38,1.32-23.98,6.06-26.33,4.74-2.35,8.25,1.15,8.94,7.78.69,6.63.3,12.01,1.02,17.42.72,5.4,4.32,12.91,2.05,20.62-2.26,7.71-14.28,4.18-15.67-2.51Z" style="stroke-width:0px;fill:#a08665"/><path d="m46.35,37.34s-7.19-.52-10.46,8.67c-2.06,5.78-.33,9.44,4.03,9.77,4.35.33,11.21-.99,13.06-6.08,3.69-10.14,2.12-12.22-6.63-12.35Z" style="stroke-width:0px;fill:#786550"/><path d="m40.04,3.65s-.96,4.72,0,9.71c.96,4.98,2.22,10.91,6.06,12.47,3.84,1.56,6.02-2.64,4.88-8.06s-3.02-9.16-4.07-12.33c-.89-2.71-6.09-4.77-6.87-1.79Z" style="stroke-width:0px;fill:#c1a280"/><path d="m70.73,8.2s-2.72-.22-4.35,6.64c-1.63,6.86.44,12.39,4.35,12.95s5.66-3.69,5.55-7.72-.23-13.17-5.55-11.87Z" style="stroke-width:0px;fill:#c1a280"/><path d="m66.92,40.2s-2.63,1.43-1.86,6.38c.77,4.95,3.93,9.4,8.39,9.08,4.46-.32,6.1-5.32,5.77-9.08-.33-3.76-3.7-10.52-12.3-6.38Z" style="stroke-width:0px;fill:#786550"/><path d="m30.59,4.26s-.61-.44-1.14,0c-.53.44-.41.97.24,1.59s.86.24,1.1-.45c.24-.69-.01-1.03-.2-1.14Z" style="stroke-width:0px;fill:#231f20"/><path d="m29.86,4.25s-.3.03-.46.36c-.16.33.19.47.48.5.29.03.76-.18.78-.42.01-.24-.41-.56-.79-.44Z" style="stroke-width:0px;fill:#6e6f72"/><path d="m34.21,3.76s-.61-.44-1.14,0c-.53.44-.41.97.24,1.59s.86.24,1.1-.45c.24-.69-.01-1.03-.2-1.14Z" style="stroke-width:0px;fill:#231f20"/><path d="m33.51,3.74s-.32.03-.48.36.19.47.48.5c.29.03.76-.18.78-.42.01-.24-.35-.57-.77-.45Z" style="stroke-width:0px;fill:#6e6f72"/><path d="m32.37,3.79s-.61-.53-1.14,0c-.53.53-.41,1.16.24,1.89.65.73.86.29,1.1-.53.24-.83-.01-1.23-.2-1.35Z" style="stroke-width:0px;fill:#231f20"/><path d="m31.64,3.78s-.29.03-.46.42.19.56.48.6.76-.22.78-.5c.01-.28-.4-.7-.8-.53Z" style="stroke-width:0px;fill:#6e6f72"/><path d="m65.51,8.17s-.82-.2-1.12.55.35,1.26.65,1.45c.31.19.95-.67,1.02-1.01.07-.34.01-1.01-.55-.99Z" style="stroke-width:0px;fill:#231f20"/><path d="m65.42,8.41s-.57-.11-.73.31.32.67.51.67.66-.2.68-.44c.01-.23-.17-.54-.45-.54Z" style="stroke-width:0px;fill:#6e6f72"/><path d="m23.48,7.11s-.02,0-.04,0c-.03,0-.07,0-.13,0-.11,0-.28,0-.5.01-.22,0-.48.02-.79.03-.31,0-.66,0-1.05.01-.39,0-.81,0-1.27.01-.46,0-.95,0-1.46,0-1.03,0-2.16,0-3.35-.01-2.37-.02-4.52-.03-6.08-.05-.78,0-1.41,0-1.84-.01-.22,0-.39,0-.5,0-.06,0-.1,0-.13,0-.03,0-.04,0-.04,0s.01,0,.04,0c.03,0,.07,0,.13,0,.11,0,.28,0,.5.02.43,0,1.06.02,1.84.04,1.56.03,3.7.06,6.08.07,1.19,0,2.32.01,3.35,0,.51,0,1,0,1.46,0,.46,0,.88-.02,1.27-.02.39,0,.74-.01,1.05-.03.31-.02.57-.03.79-.04.22-.01.39-.02.5-.03.06,0,.1,0,.13-.01.03,0,.04,0,.04,0Z" style="stroke-width:0px;fill:#5a4b43"/><path d="m29.11,6.16s-.04,0-.13.01c-.08.01-.2.03-.35.05-.31.03-.76.07-1.31.1-1.11.06-2.65.11-4.34.12-1.7.02-3.23.02-4.35.02-.56,0-1.01,0-1.32,0-.16,0-.28,0-.36,0-.08,0-.12,0-.12,0s.04,0,.12.01c.08,0,.2,0,.36.01.31,0,.76.02,1.32.03,1.11.02,2.65.03,4.35,0,1.7-.02,3.24-.07,4.35-.15.56-.04,1-.09,1.31-.13.15-.03.27-.05.35-.06.08-.02.12-.03.12-.03Z" style="stroke-width:0px;fill:#5a4b43"/><path d="m35.08,7.22s-.09,0-.27,0c-.17,0-.42.01-.72.03-.61.03-1.45.07-2.38.12-.93.05-1.77.1-2.38.14-.3.02-.55.04-.72.05-.17.02-.26.03-.26.03,0,0,.09,0,.27,0,.17,0,.42-.01.72-.02.61-.03,1.45-.07,2.38-.12.93-.05,1.77-.1,2.38-.14.3-.02.55-.04.72-.05.17-.01.26-.03.26-.03Z" style="stroke-width:0px;fill:#5a4b43"/><path d="m57.98,8.08s-.03-.01-.09-.03c-.06-.02-.15-.05-.27-.08-.23-.07-.57-.16-.98-.28-.83-.23-1.98-.55-3.26-.89-1.27-.34-2.43-.65-3.27-.87-.42-.11-.76-.19-.99-.25-.12-.03-.21-.05-.27-.06-.06-.01-.1-.02-.1-.02,0,0,.03.01.09.03.06.02.15.05.27.08.23.07.57.16.98.28.83.23,1.98.55,3.26.89,1.27.34,2.43.65,3.27.87.42.11.76.19.99.25.12.03.21.05.27.06.06.01.1.02.1.02Z" style="stroke-width:0px;fill:#5a4b43"/><path d="m64.31,10.62s-.03-.01-.09-.03c-.06-.02-.14-.04-.25-.07-.11-.03-.24-.06-.39-.1-.15-.04-.33-.09-.52-.15-.38-.11-.84-.24-1.34-.39-.5-.15-1.06-.32-1.64-.49-1.16-.35-2.22-.67-2.98-.9-.38-.11-.69-.21-.91-.27-.11-.03-.19-.05-.25-.07-.06-.01-.09-.02-.09-.02,0,0,.03.02.08.04.06.02.14.05.24.09.21.07.52.17.9.3.76.24,1.81.58,2.97.93.58.18,1.14.34,1.65.48.51.15.96.27,1.35.37.19.05.37.1.52.13.16.03.29.06.4.08.11.02.19.04.25.05.06.01.09.01.09.01Z" style="stroke-width:0px;fill:#5a4b43"/><path d="m89.87,17.96s-.04-.02-.13-.04c-.09-.02-.21-.05-.38-.09-.33-.08-.8-.2-1.39-.35-1.17-.31-2.77-.77-4.53-1.32-1.76-.55-3.34-1.08-4.47-1.49-.57-.2-1.02-.38-1.34-.51-.16-.06-.28-.12-.35-.16-.08-.04-.11-.07-.11-.07,0,0,.03.04.1.09.08.05.19.11.35.18.31.14.76.32,1.33.53,1.13.42,2.71.97,4.47,1.52,1.76.55,3.37,1,4.54,1.3.59.15,1.06.25,1.39.32.17.04.29.06.38.07.09.02.13.02.13.02Z" style="stroke-width:0px;fill:#5a4b43"/><path d="m94.27,17.96s-.05,0-.14-.01c-.09,0-.23,0-.4-.01-.09,0-.18,0-.29,0-.11,0-.22-.02-.34-.03-.12-.01-.26-.02-.4-.04-.14-.01-.29-.03-.44-.05-1.24-.16-2.93-.54-4.76-1.06-1.84-.52-3.47-1.09-4.64-1.51-.59-.21-1.06-.4-1.39-.52-.16-.07-.29-.12-.37-.15-.08-.04-.13-.06-.13-.06,0,0,.04.03.12.07.08.04.21.1.37.17.32.14.79.33,1.38.55,1.17.44,2.8,1.02,4.64,1.54,1.84.53,3.53.89,4.78,1.04.15.02.3.04.44.05.14.01.27.02.4.03.12,0,.24.02.35.02.11,0,.2,0,.29,0,.18,0,.31,0,.4,0,.09,0,.14,0,.14,0Z" style="stroke-width:0px;fill:#5a4b43"/><path d="m87.62,16.23s-.04-.02-.11-.04c-.08-.02-.19-.06-.33-.1-.29-.09-.7-.21-1.21-.38-.51-.16-1.11-.38-1.77-.64-.65-.28-1.37-.58-2.12-.9-1.51-.64-2.87-1.21-3.87-1.6-.5-.2-.9-.35-1.18-.46-.14-.05-.25-.09-.32-.12-.07-.03-.11-.04-.11-.04,0,0,.04.02.11.05.07.03.18.08.32.14.28.12.68.28,1.17.49.99.4,2.35.99,3.86,1.62.75.32,1.47.62,2.12.89.66.25,1.27.47,1.78.62.51.16.93.28,1.22.35.15.04.26.06.33.08.08.02.12.03.12.02Z" style="stroke-width:0px;fill:#5a4b43"/></g></g></svg>