<?xml version="1.0" encoding="UTF-8"?>
<svg id="Layer_2" data-name="Layer 2" xmlns="http://www.w3.org/2000/svg" viewBox="0 0 82.88 66.81">
  <defs>
    <style>
      .cls-1 {
        fill: #171717;
      }

      .cls-1, .cls-2, .cls-3, .cls-4, .cls-5, .cls-6, .cls-7, .cls-8, .cls-9, .cls-10 {
        stroke-width: 0px;
      }

      .cls-2 {
        fill: #d4af96;
      }

      .cls-3 {
        fill: #fff;
      }

      .cls-4 {
        fill: #70442e;
      }

      .cls-5 {
        fill: #231f20;
      }

      .cls-6 {
        fill: #bcbcbc;
      }

      .cls-7 {
        fill: #efcdb7;
      }

      .cls-8 {
        fill: #524030;
      }

      .cls-9 {
        fill: #b18e76;
      }

      .cls-10 {
        fill: #996048;
      }
    </style>
  </defs>
  <g id="_100" data-name="100">
    <g>
      <g>
        <path class="cls-2" d="m16.49,24.97c-2.6,3.72-2.21-2.23-2.25-4.91-.04-2.68-2.06-9.98-1.9-9.18.17.81,0,7.39-.04,9.75-.02,2.36-2.11,5.47-2.96,4.68-.85-.79-1.46-4.61-2.64-3.7-1.18.92-.84,4.2-1.89,3.25-.81-.74-2.34-5.24-2.99-7.25-.16-1.15-.28-2.39-.36-3.72C.78,2.2,10.58.59,10.58.59h0c8.45,1.17,4.94,19.29,5.36,22.03.13.86.36,1.62.55,2.36Z"/>
        <path class="cls-2" d="m16.79,28.14c-.15.92-.56,1.94-1.39,3.19-1.02,1.53-1.72,2.69-2.27,3.56-.14.03-.26.04-.44,0-.19-.05-.21-.1-.41-.1-.28,0-.42.19-.65.26-.32.1-.3-.11-.6-.12-.19.31-.67.52-1.04.39-.26-.09-.36-.34-.48-.58-.37-.03-.17.47-.37.57-.11.06-.12.01-.22.02-.18.01-.35-.07-.59,0-.25.08-.46.25-.7.36-.23.11-.69.14-.82.33-.02-.47-.02-.98-.11-1.44-.09.32-.12.69-.31.97-.2-.04-.41-.07-.59-.15-.23-.09-.36-.33-.56-.43-.02,0-.03-.01-.04-.02-.32-1.33-1.05-3.72-2.36-5.39C.92,27.13-4.42,3.55,7.68.77c1.1-.25,2.06-.3,2.9-.19C10.58.59.78,2.2,1.47,13.9c.7,11.7,4.84,16.63,4.84,16.63,0,0-.34-3.17,2.36-2.18,2.71.99,2.87,4.06,3.89,3.71.76-.26,2.8-1.97,4.21-3.91Z"/>
        <path class="cls-2" d="m16.79,28.14c-1.41,1.94-3.45,3.65-4.21,3.91-1.02.35-1.19-2.72-3.9-3.71-2.71-.99-2.36,2.18-2.36,2.18,0,0-3.26-3.88-4.48-12.91.65,2.01,2.18,6.51,2.99,7.25,1.05.96.71-2.33,1.89-3.25,1.18-.91,1.79,2.91,2.64,3.7.85.79,2.93-2.33,2.96-4.68.03-2.36.2-8.94.04-9.75-.17-.81,1.85,6.5,1.9,9.18.04,2.68-.35,8.63,2.25,4.91.27,1.03.48,2.01.29,3.17Z"/>
      </g>
      <path class="cls-8" d="m3.85,42.4c-1.31-.89-1.26-1.98-1.26-1.98,0,0-2.21-.39-2.21-1.83s1.71-2.08,1.71-2.08l.79-.72c.41.36.97.78,1.49.98,1,.39,0,2.95,0,2.95,0,0,1.75,1.26-.53,2.68Z"/>
      <path class="cls-5" d="m1.55,38.53s.29-.74.9-.78-.71,1.61-.9.78Z"/>
      <path class="cls-3" d="m27.21,30.77c.02-.32.33-.53.51-.77.18-.25.3-.52.45-.8.1-.18.17-.4.28-.57.09-.14.25-.23.3-.37-.17-.07-.16-.43-.13-.56.07-.26.09-.18.3-.34.29-.22.51-.56.69-.87.15-.27.29-.43.14-.67-.13-.21-.39-.29-.54-.46-.1-.11-.13-.22-.13-.34.23.05.25.18.46.36.34.28.75.08,1.13,0,.43-.1.74-.3,1.11-.5.19-.1.45-.24.68-.1.48.28-.25.79.11,1.01.19.12.85-.17,1.03-.25.27-.12.53-.25.79-.37.16.15.42.16.6.25.16.08.3.21.45.31-.13.28-.33.55-.59.72.06.42.93.3,1.06.71-.29.17-.59.3-.89.44-.28.12-.45.27-.71.43-.33.2-.77.3-1.05.6.21.13.02.39-.06.54-.13.26-.24.21-.06.53.13.23.76.57,1.03.64-.68.15-1.31.26-1.97.46-.28.08-.43.24-.7.22-.4-.03-.78-.29-1.16-.41-.48-.15-1-.31-1.56-.28-.24.01-.54.09-.77.16-.21.06-.55.39-.79.27Z"/>
      <path class="cls-3" d="m69.25,45.74s.06.07.08.11c-.03.02-.06.04-.1.06-.6.33-1.11.77-1.7,1.12-.26.16-.82.47-1.15.25-.22-.15-.06-.23-.02-.42.06-.27.04-.54.04-.81-.1.4-1.37,1.69-1.66.96-.49.99-2.17-1.53-2.47-1.81-.44.63-.64,1.53-1.33,1.97-.51.33-1.2.58-1.78.7-.76.17-1.47.31-2.25.29-.34-.01-.45-.08-.33-.46.05-.17.19-.31.27-.47.1-.22.12-.46.22-.68-.16.28-.54.33-.82.42-.48.15-.96.29-1.44.43-.63.18-1.43.64-1.67-.18-.06-.21-.06-.56-.27-.65-.2-.09-.57.04-.75.11-.41.15-.71.42-1.04.69-.21.17-.48.42-.76.34-.19-.45.64-1.74-.41-1.52-.08.02-.21.09-.31.11-.12.02-.24.04-.36.07-.25.07-.47.18-.71.29-.37.17-1.24.42-1.51.08-.23-.29-.07-.55,0-.86.06-.32,0-.56.14-.84-.14-.02-.44.1-.58.14-.4.13-.73.34-1.15.43-.47.11-1.15.71-1.66.52-.02-.2.14-.42.2-.61.11-.36.17-.74.3-1.1-.31.42-1.24.36-1.68.27-.34-.07-.72-.09-1-.22-.17-.08-.17,0-.27-.15-.1-.15.06-.58.1-.73-.3-.07-.97.35-1.23.5-.38.22-.82.45-1.27.33,0-.34.35-.86.51-1.15-.25.01-.54.33-.77.43-.42.18-.99.27-1.44.15-.25-.07-.62-.29-.78-.5-.12-.16-.14-.38-.25-.54-.41-.58-1.14.5-1.67.61-.43.09-.64.08-.75-.35-.07-.28-.03-.81-.28-.99-.42.38-.75.82-1.08,1.28-.15.21-.82,1.34-1.1.82-.43.2-.74.57-1.23.72-.05.5-.49.62-.87.79-.44.19-.57.43-.89.72-.24.22-.65.27-.93.34-.27.07-.57.24-.89.26-.36.02-.69.05-.96-.18-.3-.26-.41-.31-.78-.15-.51.23-.61.15-1.11.03-.2-.05-.45.02-.64.04-.06.09-.14.12-.24.08-.12-.07-.24-.1-.37-.09-.1.21-.34.15-.51.05-.31-.18-.16-.31-.24-.6-.28.11-.53.42-.83.4-.69-.05-.17-.87-.57-1.01-.39.18-.84.78-1.35.56-.47-.21-.44-1.11-.5-1.52-.15.21-.42.3-.6.49.18-.24.17-.45.16-.73,0-.35.06-.6.13-.93.06-.3,0-.63.01-.93.01-.3.13-.55.15-.85.04-.75-.04-1.28-.39-1.93-.31-.57-.93-.9-1.35-1.39,0,.19.17.55.14.7-.03.16-.16.24-.23.41-.13.32-.19.68-.32,1-.23.61-.34,1.12-.89,1.53-.34.26-.6-.01-.97.06-.36.07-.58.33-.85.54-.35.28-.73.37-1.07,0-.12-.13-.14-.28-.23-.42-.14-.23-.41-.36-.48-.6-.11.26-.14.33-.42.45-.24.11-.64.25-.9.11-.33-.18-.47-.65-.74-.86-.17-.14-.35-.23-.53-.22-.02.08-.07.11-.15.09-.14,0-.27-.02-.4-.08-.14-.03-.28-.06-.43-.04-.5.05-.88.28-1.35-.07-.29-.22-.24-.49-.6-.39-.21.06-.34.19-.53.29-.31.16-.35.09-.54-.06-.02-.32-.17-.58-.32-.77.35-.29.74-.37,1.06-.71.29-.3.65-.34,1-.57.45-.3,1,.02,1.5-.16-.1-.25-.36-.44-.57-.6.18-.18.5-.13.72-.27-.09-.14-.3-.29-.37-.47-.14-.33.09-.4.08-.71,0-.21-.18-.42-.26-.61.23-.25.52-.44.76-.68.22-.22.57-.62.65-.92.15-.57-.03-1.43.63-1.71.3-.12.68-.11,1-.14.42-.04.68-.25,1-.49.15-.11.34-.15.5-.25.16-.11.26-.28.43-.38.27-.15.69-.28.99-.31.33-.04.71-.14,1-.32.3-.19.69-.35.97-.57.1-.08.15-.19.25-.24.12-.06.26-.06.38-.12.35-.17.74-.57.94-.93.15-.26.18-.57.38-.82.25-.31.58-.36.93-.53.13-.06.24-.16.39-.16.11,0,.36.24.53.26.21.02.38-.13.56-.11.07,0,.29.14.36.18.18.11.25.17.43.15.15-.01.31-.08.5-.08.42,0,.77-.03,1.18-.11.4-.08.78-.11,1.17-.21.32-.08.68-.11.96-.23.16.27.34.05.5,0,.21-.06.42-.02.64-.05-.21.18-.36.42-.57.6-.17.14-.33.22-.46.41-.17.25-.45.65-.34.98.25.06.56.06.81,0-.23.27-.39.53-.64.77-.13.13-.48.46-.46.65.26.14.59.1.8.31-.26.23-.54.47-.77.72-.24.26-.23.23-.58.31,0,.28-.31.54-.41.8.11.05.23.1.34.16.1.26-.26.42-.39.58-.17.2-.19.36-.31.57-.19.34-.51.62-.74.92-.15.2-.33.53-.37.78-.06.37.07.56-.14.92-.12.2-.3.34-.43.53-.18.27-.21.54-.31.84-.16.47-.41.52,0,.88.29.25.66.57.75.95.12.52-.23,1.25.09,1.72.11.16.31.2.42.37.14.22.03.45-.02.67-.12.59.15.47.66.67.31.12.04-.13.33.16.22.22.28.42.63.42.38,0,.55-.37.61-.74.06-.4-.02-.74.09-1.14.07-.23.12-.64.27-.81.09.11.18.22.27.32.25-.24-.02-.62-.07-.87-.04-.26-.01-.46.06-.7.14-.47.37-.94.49-1.43.11-.49.19-.87.8-.93.41-.04.9-.04,1.3.02-.12-.1-.1-.26-.1-.41,0-.29-.02-.26.22-.32.28-.08.61.04.86.13.34.13.58.12.93.16.3.04.47.21.72.4.24.18.4.3.71.32.1,0,.33.03.43,0,.18-.04.28-.25.43-.28.24-.05.59.25.85.27.14.01.26,0,.4.03.16.03.23.17.46.11.47-.12.16-.46.35-.79.14-.25.5-.34.79-.35.29-.01.58,0,.86.04.05.03.1.06.15.08.08.03.14,0,.17-.08.09-.01.29-.02.37-.06.62-.39-.54-1.02-.82-1.25-.16-.13-.28-.28-.4-.44-.08-.11-.21-.21-.28-.31-.15-.2-.1-.72-.26-.83.3-.27,1.06.06,1.28-.38.11-.22-.15-.43.03-.7.16-.24.38-.2.63-.2.46,0,.92.05,1.36-.07.57-.16,1.01-.61,1.21-1.18.08.4.34.86.78.96.29.06.42-.09.64-.24.16-.11.57-.58.71-.6.4-.06.32.57.51.78.14.16.5.23.7.29.49.13,1.01.09,1.49-.04.25-.07,1.17-.15,1.4,0,.37.23.04.81.25,1.11.31.45,1.06.28,1.52.28.27,0,.56-.02.82,0,.23.02.44.12.67.01-.13.26-1.06,1.23-.68,1.43.21.1.79,0,1.04-.01.39,0,.68.1,1.06.16-.31.49-.66,1.26.25,1.11.41-.07,1.37-.39,1.69.11.14.22-.11.47.18.6.25.12.66-.17.91-.24.52-.14,1.03-.34,1.55-.5.29-.09.7-.36,1.01-.23.12.43-.12.79.45.84.4.04.84-.09,1.22.06.4.16.41.58.85.72.19.06.38.09.57.14.2.05.43.03.63.1-.1.34-.48.48-.36.86.13.4.52.51.87.54.47.04.82.37,1.35.29.42-.06.81-.33,1.24-.31-.16.15-.34.34-.37.56.18.17.31.34.56.42.26.09.44.11.64.31.23.23.23.28.57.29.46.02.52,0,.61-.51.06-.34,0-.6-.14-.92-.16-.33-.34-.84-.57-1.11-.55-.67-1.46-.75-2.24-.91-.28-.72,1.73-1.23,1.26-1.89-.13-.18-.38-.06-.56,0-.29.08-.51.11-.79,0-.56-.21-.54-.37-.24-.82.08-.12.29-.39.27-.54-.04-.28-.33-.2-.49-.31-.24-.17-.66-.74-.61-1.04.03-.2.19-.27.17-.49-.02-.19-.23-.33-.38-.43-.24-.15-.6-.44-.89-.45-.11-.31-.04-.61-.24-.91-.16-.25-.32-.32-.62-.38-.01-.38-.38-.64-.74-.69-.27-.04-.72.15-.89-.11-.04.03-.16.06-.2.1-.16-.29-.78-.28-1.07-.27-.34.01-.63.19-.97.15-.34-.05-.46-.11-.29-.43.24-.45.56-.87.9-1.25.22-.24.42-.63.7-.79.23-.13.58-.16.88-.23.22.05.44.11.66.16.28.05.58-.04.86.02.24.05.46.11.44.36-.03.27-.33.35-.31.66.03.44.47.56.86.65.26.05.45.09.71.13.3.04.68.09.97.16.17.04.52.19.54.39.03.22-.28.43-.36.6.49.14,1.13-.02,1.64.03.33.04.63.04.6.34-.02.23-.22.36-.01.59.15.17.44.25.64.35.37.2.74.32,1.12.5.95.43.03.64.14,1.32.3.01.53.14.84.14.36,0,.8-.07,1.14.02.15.37-.67.53-.29.95.28.31.83.39,1.22.47.12.02.51.1.52.24,0,.07-.28.32-.34.39-.32.38-.78.69-.95,1.15.24.12.22.41.35.6.13.19.36.32.5.52.28.41.08.68-.42.75-.11.42.06.87.26,1.25.19.35.81,1.05.52,1.46-.12,0-.25.02-.37.04.09.22,1.08.37,1.35.47.17.06.33.08.33.27,0,.17-.3.53-.4.68-.26.39-.83,1.03-.55,1.54.05.08.19.13.26.2.1.1.15.23.25.32.18.18.46.28.57.51-.15.15-.48.18-.53.39Z"/>
      <path class="cls-6" d="m69.92,49c-.36,0-.74.06-1.1.16.11.18.28.59.06.75-.03.02-.06.03-.1.04,0,2.99-1.29,3.12-7.55,3.12h-10.44c-.25.13-.54.22-.92.23-.19,0-.45.04-.63,0-.15-.04-.26-.15-.39-.23h-1.94c-.28.06-.54.17-.83.23-.43.08-.79-.16-1.2-.06-.29.07-.47.02-.78-.08-.07-.02-.13-.05-.19-.09h-1.37c-.09.04-.18.08-.29.1-.18.03-.39-.04-.59-.1h-8.21c-4.71,0-8.34-.3-11.12-.75-.31.14-.64.24-.97.2-.39-.04-.58-.38-.99-.4-.45-.02-.81.12-1.25.14-.52.01-.81-.29-1.29-.37-.19.32-.88-.37-.99-.53-.15-.2-.24-.44-.35-.65-.19-.09-.37-.18-.54-.28-.16.21-.36.47-.54.39-.07-.26-.09-.58-.19-.86,0,0-.01,0-.02-.01-1.85-1.43-8.12-6.12-10.4-7.03-.38-.15-.69-.32-.95-.5.94-.58,1.19-1.14,1.17-1.59.19.15.23.21.54.06.19-.1.32-.23.53-.29.37-.1.31.16.6.39.47.35.85.12,1.35.07.15-.02.29.01.43.04.13.06.26.09.4.08.08.02.13,0,.15-.09.18-.01.36.08.53.22.27.22.41.68.74.86.26.14.67,0,.9-.11.27-.12.3-.19.42-.45.07.24.35.38.48.6.09.14.11.3.23.42.34.37.72.28,1.07,0,.28-.22.49-.47.85-.54.37-.07.63.2.97-.06.55-.42.66-.92.89-1.53.12-.33.19-.68.32-1,.07-.17.2-.25.23-.41.02-.15-.14-.51-.14-.7.42.5,1.03.82,1.35,1.39.36.65.43,1.17.39,1.93-.02.3-.13.55-.15.85-.01.31.05.63-.01.93-.07.33-.14.58-.13.93,0,.28.02.49-.16.73.18-.19.45-.28.6-.49.07.41.04,1.32.5,1.52.51.22.96-.37,1.35-.56.4.14-.12.96.57,1.01.3.02.55-.29.83-.4.08.29-.07.42.24.6.17.1.41.16.51-.05.13-.01.26.02.37.09.1.04.18,0,.24-.08.2-.02.44-.09.64-.04.51.11.6.2,1.11-.03.36-.16.48-.12.78.15.27.24.6.21.96.18.32-.02.62-.19.89-.26.29-.07.7-.13.93-.34.32-.29.45-.54.89-.72.38-.16.82-.28.87-.79.49-.15.8-.52,1.23-.72.28.52.95-.61,1.1-.82.33-.47.66-.91,1.08-1.28.25.17.21.71.28.99.1.43.32.44.75.35.53-.11,1.26-1.2,1.67-.61.11.16.13.38.25.54.16.21.53.43.78.5.45.12,1.02.03,1.44-.15.23-.1.52-.42.77-.43-.16.3-.51.81-.51,1.15.45.12.89-.12,1.27-.33.26-.15.93-.57,1.23-.5-.04.15-.2.58-.1.73.1.15.1.07.27.15.29.13.66.15,1,.22.45.09,1.37.15,1.68-.27-.13.36-.19.73-.3,1.1-.06.19-.22.41-.2.61.51.19,1.19-.41,1.66-.52.42-.1.75-.31,1.15-.43.14-.04.44-.16.58-.14-.14.28-.08.51-.14.84-.06.31-.22.57,0,.86.27.34,1.14.09,1.51-.08.24-.11.45-.22.71-.29.12-.04.24-.05.36-.07.1-.02.24-.09.31-.11,1.05-.22.23,1.08.41,1.52.28.08.56-.17.76-.34.33-.27.64-.54,1.04-.69.18-.07.56-.2.75-.11.21.09.21.44.27.65.25.82,1.05.36,1.67.18.48-.14.96-.28,1.44-.43.28-.09.66-.14.82-.42-.1.21-.12.46-.22.68-.07.16-.22.3-.27.47-.11.38,0,.45.33.46.78.02,1.49-.12,2.25-.29.58-.13,1.28-.38,1.78-.7.69-.45.89-1.34,1.33-1.97.3.28,1.97,2.8,2.47,1.81.28.73,1.56-.56,1.66-.96,0,.27.01.54-.04.81-.04.2-.2.27.02.42.32.22.89-.1,1.15-.25.59-.36,1.1-.79,1.7-1.12.04-.02.07-.04.1-.06.1.16.17.38.25.53.16.3.34.6.47.91-.32.03-.78.16-1.06.29.25.51.61.93.92,1.41Z"/>
      <path class="cls-1" d="m64.23,40.82c-.09.5-.15.52-.61.51-.34-.01-.34-.06-.57-.29-.2-.2-.39-.23-.64-.31-.24-.08-.37-.25-.56-.42.03-.22.21-.41.37-.56-.42-.02-.82.25-1.24.31-.53.07-.88-.25-1.35-.29-.35-.03-.74-.14-.87-.54-.13-.38.26-.52.36-.86-.19-.07-.42-.05-.63-.1-.19-.05-.38-.08-.57-.14-.44-.14-.46-.56-.85-.72-.38-.15-.82-.02-1.22-.06-.57-.06-.33-.41-.45-.84-.31-.13-.72.15-1.01.23-.52.16-1.02.36-1.55.5-.24.07-.65.36-.91.24-.28-.14-.04-.39-.18-.6-.32-.5-1.28-.18-1.69-.11-.91.15-.56-.62-.25-1.11-.38-.06-.68-.16-1.06-.16-.25,0-.84.11-1.04.01-.38-.19.55-1.17.68-1.43-.23.1-.44,0-.67-.01-.27-.02-.56,0-.82,0-.46,0-1.21.17-1.52-.28-.21-.3.13-.88-.25-1.11-.24-.15-1.16-.06-1.4,0-.48.13-1,.17-1.49.04-.2-.05-.56-.13-.7-.29-.19-.21-.11-.84-.51-.78-.14.02-.55.49-.71.6-.23.15-.35.3-.64.24-.44-.1-.7-.56-.78-.96-.21.57-.65,1.02-1.21,1.18-.43.12-.9.07-1.36.07-.25,0-.47-.04-.63.2-.18.26.08.48-.03.7-.22.44-.97.12-1.28.38.16.11.11.62.26.83.07.1.2.2.28.31.12.16.24.31.4.44.28.23,1.45.86.82,1.25-.07.05-.28.05-.37.06-.03.08-.08.11-.17.08-.05-.03-.1-.06-.15-.08-.28-.03-.57-.05-.86-.04-.29.02-.65.1-.79.35-.18.33.12.67-.35.79-.23.06-.31-.07-.46-.11-.14-.03-.26-.02-.4-.03-.26-.02-.62-.32-.85-.27-.15.03-.25.24-.43.28-.1.02-.33,0-.43,0-.31-.02-.47-.14-.71-.32-.25-.19-.42-.36-.72-.4-.35-.04-.58-.03-.93-.16-.25-.09-.58-.21-.86-.13-.23.06-.21.04-.22.32,0,.14-.02.31.1.41-.4-.05-.89-.06-1.3-.02-.61.05-.68.43-.8.93-.11.48-.35.95-.49,1.43-.07.24-.1.44-.06.7.05.25.32.64.07.87-.09-.11-.18-.21-.27-.32-.15.17-.21.58-.27.81-.12.4-.03.74-.09,1.14-.06.37-.23.74-.61.74-.35,0-.41-.2-.63-.42-.29-.29-.02-.04-.33-.16-.51-.2-.78-.08-.66-.67.05-.22.16-.45.02-.67-.11-.17-.31-.21-.42-.37-.32-.47.03-1.2-.09-1.72-.09-.38-.46-.7-.75-.95-.42-.36-.16-.42,0-.88.1-.29.13-.57.31-.84.13-.19.31-.33.43-.53.22-.36.08-.55.14-.92.04-.25.23-.58.37-.78.23-.31.55-.58.74-.92.12-.21.14-.38.31-.57.13-.16.49-.32.39-.58-.11-.06-.23-.11-.34-.16.1-.27.4-.52.41-.8.34-.08.34-.05.58-.31.23-.25.51-.49.77-.72-.21-.21-.54-.17-.8-.31-.02-.18.33-.52.46-.65.25-.24.41-.51.64-.77-.25.06-.56.06-.81,0-.1-.33.18-.72.34-.98.13-.19.29-.27.46-.41.2-.18.36-.42.57-.6-.22.03-.43-.02-.64.05-.16.05-.34.27-.5,0-.28.12-.64.15-.96.23-.39.1-.78.12-1.17.21-.41.08-.76.12-1.18.11-.19,0-.35.06-.5.08-.18.02-.25-.04-.43-.15-.08-.05-.29-.18-.36-.18-.18-.02-.36.13-.56.11-.17-.02-.42-.25-.53-.26-.15,0-.26.09-.39.16-.34.17-.68.22-.93.53-.2.25-.24.56-.38.82-.2.36-.59.76-.94.93-.12.06-.26.06-.38.12-.11.05-.16.16-.25.24-.28.22-.66.38-.97.57-.29.18-.67.28-1,.32-.31.03-.73.16-.99.31-.17.1-.27.27-.43.38-.16.1-.35.14-.5.25-.32.24-.58.45-1,.49-.32.03-.71.02-1,.14-.66.28-.48,1.14-.63,1.71-.08.3-.43.7-.65.92-.24.24-.53.43-.76.68.08.19.25.4.26.61,0,.31-.23.38-.08.71.07.17.28.33.37.47-.22.14-.53.1-.72.27.22.16.47.35.57.6-.5.17-1.05-.15-1.5.16-.35.23-.7.27-1,.57-.32.34-.72.42-1.06.71-.16-.2-.32-.31-.32-.31,0,0,1-2.56,0-2.95-.52-.2-1.08-.62-1.49-.98l1.92-1.75c3.41-2.87,10.26-7.82,15.53-7.56.29.01.63.02,1.02.03.53-.21,1.07-.39,1.59-.55.6-.19,1.25-.22,1.84-.38.6-.17,1.16-.17,1.79-.16.54,0,.93-.26,1.46-.36.28-.05.6-.04.89-.03.06,0,.1,0,.14.01,0,.11.03.22.13.34.15.17.41.25.54.46.15.24,0,.4-.14.67-.17.31-.4.65-.69.87-.21.16-.23.07-.3.34-.03.13-.03.48.13.56-.05.14-.2.24-.3.37-.12.17-.18.39-.28.57-.14.27-.27.55-.45.8-.18.24-.5.45-.51.77.24.12.58-.2.79-.27.23-.07.53-.15.77-.16.55-.03,1.08.13,1.56.28.38.12.76.37,1.16.41.27.02.42-.14.7-.22.66-.2,1.29-.31,1.97-.46-.27-.07-.9-.4-1.03-.64-.18-.32-.06-.27.06-.53.08-.16.27-.41.06-.54.28-.3.72-.4,1.05-.6.26-.16.42-.31.71-.43.3-.13.61-.27.89-.44-.13-.41-1-.29-1.06-.71.25-.17.46-.44.59-.72-.15-.1-.29-.23-.45-.31-.18-.09-.44-.11-.6-.25.14-.06.28-.13.42-.19.24-.1.74-.48.97-.48.36,0,.24.27.27.51.12,1.03,2.32-.57,2.84-.64.13.32-.34.82-.55,1.03-.18.18-.84.71-.7,1.02.05,0,.1,0,.16,0,.47-.06,1.08-.51,1.4-.73.6-.41,1.08-.93,1.63-1.4.13-.11.31-.29.52-.21.2.07.09.09.13.27.03.13.09.27.12.39.06.31-.21.47-.26.77.44.13.65.5,1.14.55.46.05.95-.28,1.38-.37.32-.07.66.02.98-.04.19-.04.38-.14.57-.19.34-.09.78-.1,1.14-.07.39.04.76.19,1.17.11.3-.06.58-.09.89-.13.27-.04.44-.12.73-.03.2.06.28.17.43.25.25.12.81.11,1.12.06.15-.03.28-.11.42-.13.13-.02.27.03.39.01.31-.04.57-.22.89-.13,0,.18-.13.31-.13.5.28.02.49.14.78.15.4.01.81,0,1.21,0,.27,0,1.4-.13,1.56.07.16.2-.22.5-.12.69.07.13.41.22.55.25.02,0,.03,0,.05.01-.29.07-.65.1-.88.23-.28.16-.48.54-.7.79-.34.38-.65.81-.9,1.25-.17.32-.05.38.29.43.34.04.63-.13.97-.15.29-.01.92-.03,1.07.27.04-.04.17-.07.2-.1.17.27.63.07.89.11.36.06.73.31.74.69.3.05.46.13.62.38.19.3.12.6.24.91.29,0,.65.3.89.45.16.1.36.23.38.43.02.22-.14.29-.17.49-.05.3.37.87.61,1.04.16.11.46.03.49.31.02.15-.19.42-.27.54-.3.45-.32.61.24.82.29.11.5.07.79,0,.18-.05.44-.17.56,0,.47.66-1.54,1.17-1.26,1.89.78.16,1.69.24,2.24.91.23.28.41.79.57,1.11.15.31.2.58.14.92Z"/>
      <path class="cls-2" d="m20.82,26.43c-3.3,3.23-1.71-2.73-1.21-5.46.5-2.73,0-10.57,0-9.72s-1.5,7.5-2.01,9.89c-.5,2.39-3.18,5.12-3.84,4.14-.67-.98-.5-4.99-1.84-4.31-1.34.68-1.67,4.09-2.51,2.9-.65-.92-1.23-5.82-1.46-7.99.08-1.2.21-2.49.4-3.85C10.03,0,19.96.42,19.96.42h0c8.04,2.97.94,20.63.79,23.5-.04.9.02,1.72.07,2.51Z"/>
      <path class="cls-7" d="m20.46,29.71c-.34.9-.94,1.86-2.01,2.94-1.31,1.34-2.23,2.38-2.94,3.14-.15,0-.27-.01-.43-.09-.17-.09-.18-.15-.38-.19-.28-.05-.45.1-.69.12-.33.04-.27-.17-.56-.25-.25.28-.76.39-1.1.18-.23-.14-.28-.42-.36-.69-.35-.11-.26.44-.48.5-.12.04-.12-.01-.22-.02-.18-.02-.33-.15-.57-.12-.26.03-.5.15-.75.22-.24.07-.7,0-.87.16.08-.48.18-1,.18-1.48-.15.3-.25.67-.5.92-.18-.08-.38-.16-.55-.27-.2-.14-.28-.41-.46-.56-.01-.01-.03-.02-.04-.03-.05-1.42-.27-4-1.22-5.97C5.13,25.35,4.67.29,17.08,0c1.12-.03,2.08.12,2.88.42C19.96.42,10.03,0,8.35,12.03c-1.69,12.03,1.38,17.9,1.38,17.9,0,0,.31-3.29,2.76-1.72,2.45,1.58,1.99,4.73,3.06,4.58.8-.11,3.14-1.42,4.92-3.09Z"/>
      <path class="cls-9" d="m20.46,29.71c-1.77,1.67-4.12,2.98-4.91,3.09-1.07.14-.61-3.01-3.07-4.58-2.45-1.57-2.75,1.72-2.75,1.72,0,0-2.41-4.62-1.78-14.06.23,2.18.82,7.07,1.46,7.99.84,1.19,1.17-2.22,2.51-2.9,1.34-.68,1.17,3.33,1.84,4.31.67.98,3.34-1.75,3.84-4.14.5-2.39,2.01-9.04,2.01-9.89s.5,6.99,0,9.72c-.5,2.73-2.08,8.69,1.21,5.46.06,1.1.07,2.15-.36,3.28Z"/>
      <path class="cls-5" d="m7.77,35.8c0-.78-.63-1.42-1.42-1.42s-1.42.63-1.42,1.42.63,1.42,1.42,1.42,1.42-.63,1.42-1.42Z"/>
      <path class="cls-3" d="m7.29,35.33c0-.26-.21-.47-.47-.47s-.47.21-.47.47.21.47.47.47.47-.21.47-.47Z"/>
      <path class="cls-10" d="m81.98,43.85c-1.02,1.14-3.03,3.85-3.27,2.71-.2-.96-.02-2.11-1.6-2.38-.37-1.7-2.67-2.88-4.73-1.78-2.28,1.22,1.14-3.78,2.57-4.77.77-.54,3.19-1.03,5.25-1.37.93.76,1.87,1.91,2.29,2.29.66.59.52,4.16-.5,5.3Z"/>
      <path class="cls-4" d="m77.11,44.18c-.3-.05-.68-.07-1.13-.05-2.8.14-8.72,2.7-8.72,2.7,0,0,2.61,2.01,4.26,4.14,1.65,2.14,3.68,1.85,2.27,3.28-1.4,1.42-2.02,3.13-6.54,3.13s-6.54.57-7.31.86c-.78.28,1.56-2.99,3.27-3.56,1.71-.57.21-2.28-8.84-5.42-9.05-3.13-12.95-4.42-12.95-4.42,0,0-24.17,16.96-27.96,20.09-3.79,3.13-5.86,2.14-4.28-1.57,1.58-3.7,13.72-14.68,17.76-18.53,4.05-3.85,2.33-6.75,1.09-6.29-1.24.45-2.33,0-2.33,0l1.55-.87c1.74-.02,3.64-.02,4.33.07,1.43.19,4.45-1.02,2.74,1.35-1.71,2.37-23.09,21.18-23.8,23.75-.71,2.56,18.95-15.25,23.66-18.1,4.7-2.85-7.7,7.22-4.13,5.61,3.56-1.62,17.1-14.42,18.95-16.36,1.28-1.34,10.94-12.44,17.34-19.59.52-.37.88-.6,1.07-.68.27-.11.61-.12,1-.06-2.75,3.65-6.04,7.84-6.13,7.95h0c-1.4,1.28-9.03,9.59-11.27,13.59,0,0,0,0,0,0,0,0,0,0,0,.01-.21.34-3.28,5.28-3.28,6.25s11.4,6.56,14.25,7.84,9.91,3.7,7.81,1.57c-2.1-2.13-12.82-9.08-14.44-9.84,2.79,1.14,6.05,1.73,7.72,1.11,3.42-1.28,8.25-4.4,9.81-5.19,1.56-.79,1-1.64,2.21-1.64s2.47.43,3.63.28c.42-.05.95.25,1.48.68-2.05.34-4.47.84-5.25,1.37-1.43.99-4.85,5.99-2.57,4.77,2.06-1.1,4.36.07,4.73,1.78Z"/>
      <path class="cls-10" d="m69.78,50.87c2.11,2.14-4.96-.28-7.81-1.57s-14.25-6.84-14.25-7.84,3.07-5.91,3.28-6.25c-.25.45-.43.84-.53,1.17-.49,1.63,1.93,3.44,4.87,4.64,1.62.77,12.34,7.72,14.44,9.84Z"/>
      <path class="cls-10" d="m62.29,21.62c.09-.11,3.38-4.31,6.13-7.95,2.85.48,8.35,5.05,6.16,4.68-2.49-.43-10.73,1.85-12.29,3.28Z"/>
      <path class="cls-10" d="m66.35,14.4c-6.41,7.15-16.06,18.26-17.34,19.59-1.85,1.93-15.39,14.74-18.95,16.36-3.56,1.61,8.84-8.45,4.13-5.61-4.7,2.85-24.37,20.66-23.66,18.1.71-2.57,22.09-21.38,23.8-23.75,1.71-2.37-1.32-1.16-2.74-1.35-.7-.09-2.59-.09-4.33-.07l.32-.18h-1.24l.47-1.11-.93-.81s8.09-.71,10.43,0c2.26.69,1.02,2.19.94,2.28.4-.33,23.54-19.5,29.12-23.46Z"/>
    </g>
  </g>
</svg>