<?xml version="1.0" encoding="UTF-8"?>
<svg id="Layer_2" data-name="Layer 2" xmlns="http://www.w3.org/2000/svg" viewBox="0 0 429.39 366.69">
  <defs>
    <style>
      .cls-1 {
        fill: #fac2b8;
      }

      .cls-1, .cls-2, .cls-3, .cls-4, .cls-5, .cls-6, .cls-7, .cls-8, .cls-9 {
        stroke-width: 0px;
      }

      .cls-2 {
        fill: #f7a29e;
      }

      .cls-3 {
        fill: #a97c50;
      }

      .cls-4 {
        fill: #fff;
      }

      .cls-5 {
        fill: #846244;
      }

      .cls-6 {
        fill: #231f20;
      }

      .cls-7 {
        fill: #414042;
      }

      .cls-8 {
        fill: #c59060;
      }

      .cls-9 {
        fill: #d8d8d8;
      }
    </style>
  </defs>
  <g id="AGILE_WALLABY" data-name="AGILE WALLABY">
    <g>
      <path class="cls-3" d="m229.28,341.32c-6.48-9.59,14.01-7.94,20.04-1.89,0,0,23.93,7.08,41.34,5.01,17.41-2.08,48.17-2.93,55.6,6.7h0c.97-.4,1.81-.9,2.5-1.53,1.08-.98,1.87-2.17,2.33-3.49-2.29-11.54-29.2-12.96-43.2-11.8-14,1.17-38.49-5.83-45.58-8.17-7.09-2.33-9.11-12.7-9.11-12.7-.52-5.71,15.93-39.02,22.15-81.87.42-2.92-.21-17.03.06-19.86,1.47-24.88-14.6-39.19-23.9-60.13-9.33-20.99-33.1-14.47-33.1-14.47h0c-4.35,2.6-7.21,5.26-7.21,5.26,0,0-41.5,47.19-37.65,80.5.41,3.59,1.34,7.02,2.92,10.21,16.21,32.81,49.76,6.22,45.1,19.18-4.66,12.96-.52,46.65,1.04,58.58,1.56,11.92,0,14-2.59,22.29-2.59,8.29-1.04,9.33,10.37,14,4.9,2,12.67,3.05,21.54,3.64-11.76-3.15-20.62-6.47-22.65-9.48Z"/>
      <path class="cls-8" d="m262.31,326.17c7.09,2.33,31.59,9.33,45.58,8.17,14-1.17,40.91.26,43.2,11.8,1.47-4.15-4.06-12.96-14.45-15.6-10.39-2.64-24.86.05-37.82,0-12.96-.05-45.1-11.36-45.62-17.06,0,0,2.02,10.36,9.11,12.7Z"/>
      <path class="cls-8" d="m351.62,191.76c-1.58-5.24-2.64-9.49-3.24-12.92-3.44,2.44-7.24,7.04-10.25,11.59,8.72-2.18,17.28-1.94,11.16,10.41,0,0-10.16,12.74-9.46,15.89.71,3.16,4.01,22.91,3.04,26.16-.97,3.24-4.28,5.38-6.03,8.69-1.75,3.3-1.36,10.68,9.9,7.59,2.45-2.2,4.47-5.17,6.12-8.52h0c6.69-26.4-1.25-58.88-1.25-58.88Z"/>
      <path class="cls-8" d="m357.32,184c-.98-7.87-4.69-8.17-8.95-5.15.61,3.42,1.67,7.68,3.24,12.92,0,0,7.94,32.48,1.25,58.88h0c3.75-7.61,5.59-17.22,5.97-24.4.74-13.74-1.52-42.24-1.52-42.24Z"/>
      <path class="cls-3" d="m336.84,251.58c1.75-3.31,5.06-5.44,6.03-8.69.97-3.24-2.33-23-3.04-26.16-.71-3.15,9.46-15.89,9.46-15.89,6.12-12.35-2.44-12.6-11.16-10.41-2.09,3.15-3.79,6.27-4.74,8.59-3.97,9.85,6.83,27.74,6.44,37.68-.38,9.94-2.31,7.78-2.31,7.78,0,0-14.94,18.98-.16,18.6,3.65-.1,6.76-1.57,9.39-3.91-11.26,3.1-11.65-4.28-9.9-7.59Z"/>
      <path class="cls-3" d="m269.69,242.83s-7.26,4.52-11.15,14.7c-3.89,10.18-19.85,57.1-18.74,65.13,1.11,8.04,3.32,12.25,8.83,15.98,5.5,3.72-20.67,13.05-21.2-3.01-.52-16.07,3.37-91.51,3.37-91.51,0,0,34.21-22.28,38.88-1.28Z"/>
      <path class="cls-3" d="m336.64,351.31c4.21.99,7.33.76,9.62-.17h0c-4.11-11.27-45.15-9.4-62.68-8.97-31.69.78-42.12-12.37-42.12-12.37-6.03-6.04-18.66,1.94-12.19,11.52,2.04,3.01,10.89,6.33,22.65,9.48,11.78.79,25.5.78,37.04,1.16,20.22.66,38.88-2.73,47.67-.66Z"/>
      <path class="cls-8" d="m141.16,219.77c20.22-70.5,45.95-103.25,75.68-111.84,29.73-8.59,90.2,0,90.2,0,57.46,6.86,65.61,27.7,65.63,27.76-12.87-34.97-57.95-38.15-71.53-40.01,0,0-62.52-12.76-106.07,15.23-43.54,27.99-49.77,72.05-59.62,104.19-9.85,32.14-26.95,110.93-81.38,118.71-33.49,4.79-49.3,8-53.14,11.21h0c112.23,3.44,120.01-54.76,140.23-125.25Z"/>
      <path class="cls-8" d="m132.34,296.48c8.81-21.77,19.18-38.36,34.73-43.02,15.55-4.67,40.43-49.76,55.21-52.87,14.78-3.11,38.1,5.44,56.24,5.44s38.88-12.44,46.39-20.22c7.52-7.77,12.7-27.73,5.7-34.47-7-6.74-13.35-19.55-13.35-19.55,13.35,7.92,57.3,10.22,57.3,10.22-.52-2.22-1.17-4.32-1.91-6.32-.02-.06-8.16-20.9-65.63-27.76,0,0-60.46-8.59-90.2,0-29.73,8.59-55.47,41.34-75.68,111.84-20.22,70.5-28,128.69-140.23,125.25-1.3,1.09-1.19,2.18.04,3.34,90.94,21.77,122.56-30.1,131.37-51.87Z"/>
      <path class="cls-3" d="m339.83,178.85c-8.53,19.6-29.39,33.18-49.23,40.53-19.86,7.35-57.74,25.02-69.01,32.93-8.59,6.01-21.42,16.23-35.16,21.94-14.63-3.97-20.37-13.19-32.3-5.22-12.44,8.29-19.7,58.05-52.36,77.76-32.66,19.69-80.87,10.88-95.38,4.67-2.56-1.1-4.38-2.11-5.42-3.08,90.95,21.77,122.57-30.1,131.38-51.87,8.81-21.77,19.18-38.36,34.73-43.03,15.56-4.67,40.43-49.76,55.21-52.87,14.78-3.11,38.1,5.44,56.24,5.44s38.87-12.43,46.39-20.21c7.52-7.78,12.7-27.73,5.71-34.47-7-6.75-13.35-19.56-13.35-19.56,4.76,2.82,13.4,4.94,22.55,6.48,0,0,8.53,20.98,0,40.58Z"/>
      <path class="cls-3" d="m233.81,166.24c9.3,20.93,18.17,45.58,16.71,70.46,3.68-38.77-6.71-69.32-20.72-83.89-9.53-9.9-21.55-5.56-29.08-1.05h0s23.76-6.52,33.09,14.47Z"/>
      <path class="cls-3" d="m314.82,207.15c3.8-5.89,8.03-14.71,8.03-24.96,0-10.84-8.47-14.12-18.39-12.51,1.47.27,25.19,5.15,10.37,37.48Z"/>
      <path class="cls-9" d="m294.08,238.43c-26.44,7.77-40.43,5.18-47.17,12.95-6.75,7.78-42.52,26.96-58.58,23.33-.66-.14-1.29-.31-1.91-.47,13.74-5.71,26.57-15.92,35.16-21.94,11.28-7.9,49.16-25.57,69.01-32.93,19.85-7.35,40.7-20.94,49.23-40.53,8.53-19.6,0-40.58,0-40.58,16.53,2.8,34.75,3.75,34.75,3.75,9.47,40.95-54.06,88.64-80.49,96.42Z"/>
      <path class="cls-8" d="m181.72,256.76c17.11-2.65,31.49-4.2,28.77,9.79-2.72,14-3.5,57.93-1.56,66.09,1.94,8.17-1.94,15.55,0,17.88,1.94,2.33,11.47,12.05,35.67,12.44,24.2.39,49.86,0,59.78-4.08,9.9-4.08,10.51,5.08,26.67,5.37,1.08-.98,1.87-2.17,2.33-3.49-2.29-11.54-29.2-12.96-43.2-11.8-14,1.17-38.49-5.83-45.58-8.16-7.09-2.33-9.11-12.7-9.11-12.7-.52-5.7,7.78-39.92,14-82.77.42-2.92.75-5.79,1.02-8.63,1.47-24.88-7.4-49.53-16.71-70.46-9.33-20.99-33.09-14.46-33.09-14.46h0c-4.35,2.6-7.21,5.26-7.21,5.26,0,0-41.5,47.19-37.65,80.51,1.54,3.47,10.37,21.61,25.85,19.21Z"/>
      <path class="cls-3" d="m203.88,266.94c-4.67,12.96-.52,46.65,1.04,58.58,1.56,11.92,0,14-2.59,22.29-2.6,8.29-1.04,9.33,10.37,14,11.4,4.67,38.36,4.15,58.57,4.81,20.22.66,38.88-2.73,47.67-.66,5.99,1.41,9.8.39,12.12-1.7-16.17-.29-16.77-9.45-26.67-5.37-9.91,4.08-35.58,4.47-59.78,4.08-24.2-.39-33.73-10.11-35.67-12.44-1.94-2.33,1.94-9.72,0-17.88-1.94-8.17-1.17-52.09,1.56-66.09,2.72-14-11.66-12.44-28.77-9.79-15.48,2.4-24.31-15.74-25.85-19.21.41,3.59,1.34,7.02,2.92,10.21,16.21,32.81,49.76,6.22,45.1,19.18Z"/>
      <path class="cls-8" d="m244.61,340.81c7.09,2.33,31.59,9.33,45.58,8.16,14-1.17,40.91.26,43.2,11.8,1.47-4.15-4.06-12.96-14.45-15.6-10.39-2.64-24.86.05-37.82,0-12.96-.05-45.1-11.36-45.62-17.06,0,0,2.02,10.36,9.11,12.7Z"/>
      <path class="cls-8" d="m333.39,236.61c-5.87-9.07-24.54-21.77-24.54-21.77,0,0,3.85,4.38,10.09,11.13,6.24,6.75,21.65,21.71,18.03,39.7,5.98-9.68,1.5-21.21-3.58-29.06Z"/>
      <path class="cls-8" d="m289.67,234.54c11.66,5.7,30.97,16.58,34.67,16.84,3.69.26,1.23,4,0,6.15-1.23,2.15-5.59,15.76,4.72,15.83,1.32-.77,2.76-1.84,4.33-3.32,1.48-1.4,2.65-2.87,3.58-4.38,3.62-17.98-11.79-32.94-18.03-39.7-6.24-6.75-10.09-11.13-10.09-11.13,0,0,2.84-2.86,5.97-7.69,14.82-32.33-8.9-37.21-10.37-37.48-7.16,1.16-15.08,4.85-21.12,10.18,0,0-16.73,15.04-14.14,34.22.13.92.36,1.8.61,2.67.64.93,8.68,12.33,19.87,17.8Z"/>
      <path class="cls-3" d="m311.18,250.35c9.85,6.22,9.29,5.18,7.75,13.48-1.32,7.11,2.19,14.18,10.12,9.54-10.31-.07-5.95-13.69-4.72-15.83,1.23-2.14,3.69-5.89,0-6.15-3.69-.26-23-11.15-34.67-16.84-11.19-5.47-19.23-16.88-19.87-17.8,4.82,17.52,32.01,27.69,41.38,33.61Z"/>
      <g>
        <path class="cls-4" d="m362.5,152.72c-30.47,2-52.48-25.35-59.48-44.01-2.76-7.34-3.94-14.87-4.37-21.29.42-.28.87-.52,1.33-.69,2.05,6.65,7.85,13.04,12.48,18.28,10.52,11.88,19.92,22.88,33.13,32.63,3.02,2.23,9.27,7.87,12.78,8.66,4.01.91,4.42-.67,6.69-2.76,5-4.57,9.67-10.14,13.5-15.46,7.24-10.03,13.02-23.37,14.89-35.07.68-4.27,2.42-8.8,2.79-13.25.21.69.42,1.41.63,2.14,2.42,27.6-12.51,69.4-34.37,70.83Z"/>
        <path class="cls-8" d="m381.68,25.12c-6.48,7.26-7.89,17.41-7.89,17.41-3.31,5.74-6.28,8.35-8.82,8.64,0,8.32,7.69,14.38,20.47,14.38,16.33,0,27.21-9.33,33.82-21.77,6.61-12.44,4.67-17.49,9.33-29.55,1.05-2.71,1.01-4.78.17-6.33-19.97-3.68-40.6,9.97-47.08,17.21Z"/>
        <path class="cls-8" d="m397.18,8.79c-20.14,6.61-30.41,34.99-30.41,34.99-1.25,2.59-1.81,5.07-1.8,7.39,2.54-.29,5.51-2.9,8.82-8.64,0,0,1.41-10.15,7.89-17.41,6.47-7.25,27.1-20.9,47.08-17.21-2.92-5.36-15.96-4.24-31.58.88Z"/>
        <path class="cls-2" d="m395.16,36.22c5.44-12.22,30.93-22.97,30.93-22.97.11-.43.17-.8.17-1.09,0-2.33-18.4-.45-34.21,10.89-8.47,6.07-16.83,25.92-16.83,25.92-2.32,9.07,1.8,9.59,8.88,12.18,3.13,1.15,6.32.98,9.52.11-4.6-7.35-3.9-12.83,1.53-25.03Z"/>
        <path class="cls-1" d="m421.6,29.27c.68-6.59,3.75-12.97,4.5-16.02,0,0-25.49,10.76-30.93,22.97-5.43,12.2-6.13,17.68-1.53,25.03,4.04-1.1,8.11-3.35,12.16-5.81,7.26-4.41,15.03-18.66,15.81-26.17Z"/>
        <path class="cls-8" d="m396.24,79.75c-.37,4.45-2.1,8.98-2.79,13.25-1.87,11.69-7.65,25.03-14.89,35.07-3.84,5.32-8.5,10.89-13.5,15.46-2.27,2.08-2.68,3.66-6.69,2.76-3.51-.79-9.76-6.43-12.78-8.66-13.21-9.74-22.61-20.75-33.13-32.63-4.64-5.24-10.43-11.63-12.48-18.28-.46.17-.91.41-1.33.69-.36-5.37-.18-9.97.05-13.05.05-.19,3.73-13.76,11.58-18.66,7.9-4.93,18.28-9.33,39.79-9.85,13.95-.34,25.42.54,34.41,10.54,4.41,4.91,8.21,12.01,11.41,22.24.13.37.24.74.36,1.13Z"/>
        <path class="cls-8" d="m317.28,44.3s-6.48-27.74-23.46-35.25c-16.97-7.51-31.82-6.73-31.83-6.73-.6,2.21,1.64,6.65,1.37,17.74-.35,14.75,13.92,38.65,35.88,49.74-.03.14-.08.27-.11.41,0,0-.23,1.54-.43,4.1,1.54-19.38,18.57-30.02,18.57-30.02Z"/>
        <path class="cls-8" d="m342.28,38.34c-8.24.63-15.18,2.18-20.97,4.63-1.72-7.74-5.01-19.21-10.52-26.4C301.85,4.9,271.91-1.32,265.31.24c-2.12.5-3.03,1.04-3.32,2.08,0,0,14.86-.78,31.83,6.73,16.98,7.51,23.46,35.25,23.46,35.25,0,0-17.03,10.64-18.57,30.02,0,.01,0,.03,0,.05.05-.19,3.73-13.77,11.58-18.66,7.9-4.93,18.27-9.33,39.78-9.85,21.51-.52,37.11,1.85,46.81,36.03-.45-5.18-1.4-9.95-2.87-14-9.33-25.66-26.05-31.49-51.71-29.55Z"/>
        <path class="cls-1" d="m301.07,44.04c.26-10.11-20.73-27.48-27.99-30.07-7.02-2.51-7.52,2.25-7.55,2.57.26,8.61,3.14,22.03,12.73,32.16,7.52,7.94,12.77,11.98,16.59,13.99,8.03-4.67,5.96-8.55,6.22-18.65Z"/>
        <path class="cls-2" d="m315.66,47.44c-1.04-6.51-4.17-15.9-13.29-23.36-15.55-12.7-34.73-18.4-36.04-15.36-.54,1.26-.91,4.09-.8,7.82.03-.32.53-5.07,7.55-2.57,7.26,2.59,28.25,19.96,27.99,30.07-.26,10.11,1.82,13.98-6.22,18.65,2.66,1.39,4.63,1.81,6.16,1.84,5.19-12.5,14.62-17.08,14.65-17.1Z"/>
        <path class="cls-5" d="m396.3,78.47c0,.42-.03.86-.06,1.28-.37,4.45-2.1,8.98-2.79,13.25-1.87,11.69-7.65,25.03-14.89,35.07-3.84,5.32-8.5,10.89-13.5,15.46-2.27,2.08-2.68,3.66-6.69,2.76-3.51-.79-9.76-6.43-12.78-8.66-13.21-9.74-22.61-20.75-33.13-32.63-4.64-5.24-10.43-11.63-12.48-18.28-.16-.51-.3-1.02-.4-1.53-1.56-7.16,2.47-17.55,13.39-24.51-3.97,2.6-3.94,8.65-3.46,12.82.64,5.51,5.84,8.03,9.89,12.06,4.25,4.25,7.4,8.42,11.06,12.94,3.94,4.88,8.59,9.82,13.31,14.55,4.4,4.41,8.99,11.85,15.19,14.61,3.01-2.88,2.27-6.11,3.7-9.59,1.39-3.38,3.85-6.31,5.69-9.54,3.53-6.2,7.1-12.44,9.9-18.7,2.33-5.22,5.21-10.96,5.97-16.63.65-4.95-1.72-12.11.27-16.81.12-.3.26-.58.41-.85,2.05,2.16,4.37,6.26,6.16,8.67,2.15,2.92,4.39,7.6,5.03,11.16.18,1.02.25,2.05.22,3.09Z"/>
        <path class="cls-6" d="m359.49,146.55s-10.89,0-12.34-11.89c-1.05-8.58,3.69-10.4,13.67-10.4s9.59,3.76,9.85,8.43c.26,4.67-4.66,13.93-11.18,13.86Z"/>
        <path class="cls-6" d="m311.18,95.68c0,6.76,5.49,12.25,12.25,12.25s12.25-5.49,12.25-12.25-5.48-12.25-12.25-12.25-12.25,5.48-12.25,12.25Z"/>
        <path class="cls-6" d="m333.39,94.56c0-3.99-3.23-7.22-7.22-7.22s-7.23,3.23-7.23,7.22,3.23,7.23,7.23,7.23,7.22-3.23,7.22-7.23Z"/>
        <path class="cls-4" d="m332.02,89.63c0-.97-.78-1.75-1.75-1.75s-1.75.78-1.75,1.75.78,1.75,1.75,1.75,1.75-.78,1.75-1.75Z"/>
        <path class="cls-6" d="m390.5,93.17c0,6.23-4.61,11.27-10.3,11.27s-10.31-5.05-10.31-11.27,4.62-11.27,10.31-11.27,10.3,5.05,10.3,11.27Z"/>
        <path class="cls-6" d="m372.66,92.06c0-3.47,2.57-6.28,5.74-6.28s5.74,2.81,5.74,6.28-2.57,6.27-5.74,6.27-5.74-2.81-5.74-6.27Z"/>
        <path class="cls-4" d="m373.8,88.08c0-.86.64-1.56,1.42-1.56s1.42.69,1.42,1.56-.64,1.55-1.42,1.55-1.42-.7-1.42-1.55Z"/>
        <path class="cls-7" d="m348.41,131.06s3.5-3.11,10.89-3.11,10.59,3.11,10.59,3.11c0,0,1.07-6.22-10.74-6.22s-10.74,6.22-10.74,6.22Z"/>
      </g>
    </g>
  </g>
</svg>