<?xml version="1.0" encoding="UTF-8"?>
<svg id="Layer_2" data-name="Layer 2" xmlns="http://www.w3.org/2000/svg" viewBox="0 0 87.3 91.34">
  <defs>
    <style>
      .cls-1 {
        fill: #ccc4be;
      }

      .cls-1, .cls-2, .cls-3, .cls-4, .cls-5, .cls-6, .cls-7 {
        stroke-width: 0px;
      }

      .cls-2 {
        fill: #fff;
      }

      .cls-3 {
        fill: #231f20;
      }

      .cls-4 {
        fill: #f1f2f2;
      }

      .cls-5 {
        fill: #a39e9a;
      }

      .cls-6 {
        fill: #848280;
      }

      .cls-7 {
        fill: #e5dcd6;
      }
    </style>
  </defs>
  <g id="_100" data-name="100">
    <g>
      <path class="cls-6" d="m15.45,55.73s1.71,4.61,1.63,8.64c-.09,4.03,3.55,15.55,3.27,18.42-.28,2.88-3.02,7.11,1.81,7.11s10.27.76,9.18-4.42c-1.09-5.18-2.54-7.05-3.16-12.64-.62-5.59,3.69-6.17,0-17.11-3.69-10.94-13.48-12.09-12.71,0Z"/>
      <path class="cls-6" d="m55.21,58.45s2.1,9.75,2.67,11.86c.57,2.11-1.87,10.75-2.67,11.9-.79,1.15-3.17,4.1,1.38,4.1s7.23.7,7.62-2.56c.38-3.26,2.11-10.7,4.41-15.14s-2.02-15.76-2.02-15.76c0,0-13.75-5.04-11.39,5.6Z"/>
      <path class="cls-5" d="m87.03,85.37c-1.7.43-3.56-.25-5.49.08-3.58.6-2.17-3.28-1.23-8.9.94-5.61,2.23-5.33,0-6.5-2.23-1.17-3.53-4.87-2.35-7.17s2.35-15.75,2.35-15.75c-1.2-7.57-3.39-9.54-5.78-7.63,1.37-7.43,2.43-10.23,6.46-4.15,0,0,4.14,8.96,4.14,19.52s1.53,11.52,1.34,16.7c-.17,4.54,1.45,10.98.56,13.81Z"/>
      <path class="cls-6" d="m87.03,85.37c-.12.4-.3.73-.54.97-1.93,1.92-2.15,1.15-5.5,1.34-3.35.19-5.46.38-4.88-5.76.58-6.14.58-9.41-.1-11.13-.67-1.73-5.47-9.98-2.98-23.03.6-3.13,1.06-5.92,1.49-8.27,2.39-1.91,4.58.05,5.78,7.63,0,0-1.16,13.45-2.35,15.75s.12,6,2.35,7.17c2.23,1.17.94.89,0,6.5-.94,5.61-2.35,9.5,1.23,8.9,1.93-.33,3.79.35,5.49-.08Z"/>
      <path class="cls-1" d="m82.54,44.59s-.83,3.65-1.08,9.41c-.26,5.76,2.55,11.6,2.91,3.26.35-8.34-1.73-19.96-1.82-12.67Z"/>
      <path class="cls-1" d="m84.4,74.73s-1.77,6.75-1.48,8.22c.29,1.47,2.11,1.38,2.98,1.09.86-.29.19-3.17,0-6.91s-1.17-3.7-1.49-2.4Z"/>
      <path class="cls-1" d="m81.09,36.09c-2.9,11.21-14.74,15.34-23.21,11.1-9.21-4.61-15.36-3.26-20.56-4.41-5.2-1.15-4.22-11.88-4.22-11.88l-23.45.9c-.18-7.3-.33-15.98,1.62-17.28.31-.2.75-.51,1.28-.88,2.47.86,6.06,1.48,10.89,1.73,0,0,5.11-4.89,10.18,2.04,5.06,6.93,15.14,16.27,30.4,13.42,9.53-1.78,13.22-3.07,13.95-6.59,1.33,3.42,2.55,7.51,3.13,11.85Z"/>
      <path class="cls-6" d="m81.4,43.17c-.31,5.8-2.15,11.65-6.64,16.68-12.67,14.2-36.66,11.13-51.24,5.37-7.41-2.93-10.86-9.32-12.46-14.9,1.12.47,2.2.72,3.15.6,4.61-.58,1.02-3.17-.59-4.32-1.61-1.15-3.75-5.89,3.46-5.25,7.21.64,13.95-3.41,13.95-3.41,0,0-.38,4.66-1.26,9.54-.88,4.87,6.41,2.61,7.08,0,.67-2.61,3.04-.08,7.99,0,4.96.07,7.14,1.04,6.72,4.49-.42,3.45,6.37,9.82,16.4,6.57,8.09-2.62,11.29-6.08,13.42-15.38Z"/>
      <path class="cls-5" d="m81.4,43.17c-2.14,9.3-5.34,12.76-13.42,15.38-10.04,3.25-16.82-3.11-16.4-6.57.42-3.45-1.76-4.42-6.72-4.49-4.96-.08-7.32-2.61-7.99,0-.67,2.61-7.97,4.87-7.08,0,.88-4.88,1.26-9.54,1.26-9.54,0,0-6.75,4.05-13.95,3.41-7.21-.64-5.08,4.1-3.46,5.25,1.62,1.15,5.2,3.74.59,4.32-.95.12-2.03-.13-3.15-.6-1.55-5.4-1.36-10.04-1.36-10.04.12-1.91.03-5.04-.05-8.49l23.45-.9s-.98,10.72,4.22,11.88c5.2,1.15,11.35-.19,20.56,4.41,8.48,4.24,20.31.12,23.21-11.1.31,2.31.44,4.69.31,7.08Z"/>
      <path class="cls-7" d="m77.96,24.24c-.72,3.52-4.41,4.8-13.95,6.59-15.26,2.86-25.33-6.49-30.4-13.42-5.06-6.93-10.18-2.04-10.18-2.04-4.83-.25-8.42-.87-10.89-1.73,3.91-7.8,15.71-10.69,18.48-6.64,3.1,4.55,15.55,10.23,20.54,7.9,4.99-2.33,15.7-7.46,23.19,2.5,1.16,1.54,2.11,4.03,3.2,6.83Z"/>
      <path class="cls-6" d="m46.18,75.17c-.48,5.85.64,6.62,1.13,11.54.48,4.93-1.45,4.62-8.47,4.62s-5.19-2.62-4.45-5.23.87-13.7.48-17.39c-.38-3.7,1.35-4.16,1.3-8.1-.01-1.02-.02-2.37,0-3.8,0,.02.01.03.01.03,0,0,1.83,4.75,1.13,7.63-.7,2.88-1.57,6.33-1.13,9.79.43,3.45-.35,10.77-1.02,13.57-.68,2.8,5.34,2.27,7.79,1.84,2.45-.43,1.87-4.17,1.01-7.63s.45-13.48,1.59-18.26c1.11-4.64,2.61-4.36,3.56-10.69.26,2.79-.07,6.77-1,9.63-1.45,4.47-1.45,6.62-1.93,12.47Z"/>
      <path class="cls-5" d="m45.55,63.76c-1.14,4.78-2.46,14.8-1.59,18.26s1.44,7.2-1.01,7.63c-2.45.43-8.46.96-7.79-1.84.68-2.8,1.45-10.11,1.02-13.57-.43-3.45.43-6.91,1.13-9.79.7-2.88-1.13-7.63-1.13-7.63,0,0,0,0-.01-.03.07-4.12.43-8.86,1.81-7.96,2.43,1.6,4.93.45,4.93.45,0,0,3.76-.45,5.21.63.52.39.86,1.58,1,3.15-.95,6.33-2.45,6.05-3.56,10.69Z"/>
      <path class="cls-1" d="m41.93,51.83s-3.77-.87-3.77,2.58.48,5.04,3.77,5.04,7.37-7.04,0-7.62Z"/>
      <path class="cls-1" d="m40.22,82.96s-2.66-.29-3.45,2.66c-.79,2.95,2.38,2.3,4.65,2.19,2.26-.11,3.13-5.1-1.19-4.86Z"/>
      <path class="cls-7" d="m32.13,17.42c-.96-1.92-2.43-3.9-4.58-3.99-2.15-.09-5.18,1.37-8.28.85s-4.32.74-3.89,1.1c.43.37.22,1.15-1.77,2.66-1.98,1.51-2.68.22-7.37.36-2.53.07-3.69-.94-4.22-1.88h0c1.32-2.56,3.01-3.44,3.93-3.44,1.44,0,3.31-2.02,9.07-3.02,5.76-1.01,11.37.48,11.37.48,2.88.72,4.65,3.43,5.73,6.89Z"/>
      <path class="cls-1" d="m33.47,24.28h0c-.7,9.2-3.62,6.93-4.71,3.91-1.09-3.02-2.36-4.17-4.81-4.75-2.45-.58-4.89.43-7.14-.58s-2.36,2.16-5.21,4.67c-2.86,2.51-5.49,2.82-8.08,1.95C.98,28.64.12,25.73.07,25.58c.06-1,.15-2.01.27-3.01.31-2.65.94-4.62,1.68-6.06.52.94,1.69,1.96,4.22,1.88,4.69-.14,5.39,1.15,7.37-.36,1.98-1.51,2.2-2.29,1.77-2.66-.43-.37.79-1.62,3.89-1.1s6.12-.93,8.28-.85c2.15.09,3.62,2.07,4.58,3.99.67,2.11,1.08,4.49,1.34,6.86Z"/>
      <path class="cls-1" d="m11.05,16.52c-5.08,2.73-3.46-8.4-4.51-7.72-1.06.67-1.34,3.36-1.82,6.58-.48,3.22-1,1.66-1,1.66,0,0,.11-1.39.39-3.4,0,0,0,0,0,0,.67-2.92,2.04-8.62,2.94-10.2,1.22-2.16.79,1.08,1.3,4.97.4,3.07,1.16,5.53,2.24,6.52.15.57.31,1.11.48,1.61Z"/>
      <path class="cls-1" d="m15.09,12.57c-2.08,1.58-2.23-.65-2.44-2.16-.22-1.51-.79-1.15-.86.79-.04,1.19-.31,1.71-.52,1.93-.01-.11-.02-.22-.02-.34,0,0-.13-.67-.07-1.9h0c.08-.67.43-3.22,1.18-3.87.86-.74.38,3.97,2.48,4.91.2.2.28.42.25.65Z"/>
      <path class="cls-1" d="m29.37,14.28s1.27-2.64,1.96-6.24c.68-3.6,4.33-3.6,5.53-.43s.1,9.36-3.74,9.07c-3.84-.29-5.3,2.07-3.74-2.39Z"/>
      <path class="cls-6" d="m31.03,14.39s1.23-1.21,1.33-4.56c.1-3.35.81-3.54,2.37-1.46,1.56,2.08-1.48,9.7-3.7,6.03Z"/>
      <path class="cls-6" d="m29.77,41.36c-3.66,5.15-8.87,3.66-13.02,3.66-5.33,0-5.61-1.3-11.23-4.32-2.15-1.16-3.54-3.02-4.39-5.28,1.44.14,3.87.48,4.89,1.36,1.51,1.3,1.94-1.3,6.26-1.44,4.32-.14,1.38,2.24,10.22,3.45,4.17.57,6.33,1.51,7.26,2.55Z"/>
      <path class="cls-5" d="m32.44,35.24c-.73,2.69-1.64,4.67-2.67,6.12-.93-1.05-3.09-1.98-7.26-2.55-8.84-1.21-5.9-3.6-10.22-3.45-4.32.14-4.75,2.74-6.26,1.44-1.03-.88-3.45-1.23-4.89-1.36C.07,32.59-.14,29.12.07,25.58c.04.15.91,3.06,3.43,3.9,2.59.86,5.23.56,8.08-1.95,2.86-2.51,2.97-5.68,5.21-4.67s4.7,0,7.14.58c2.45.58,3.72,1.73,4.81,4.75,1.09,3.02,4.01,5.29,4.71-3.9.35,3.18.09,6.84-1.03,10.96Z"/>
      <path class="cls-6" d="m12.29,32.04s.08-3.17,1.16-3.28c1.08-.11,2,2.15,1.21,3.28-.79,1.13-2.53,1.5-2.37,0Z"/>
      <path class="cls-6" d="m3.28,32.04s-.08-3.17-1.16-3.28c-1.08-.11-2,2.15-1.21,3.28.79,1.13,2.52,1.5,2.37,0Z"/>
      <ellipse class="cls-4" cx="25.84" cy="23.53" rx="2.32" ry="3.25"/>
      <path class="cls-3" d="m26.88,23.67c0-1.16-.61-2.1-1.36-2.1s-1.36.94-1.36,2.1.61,2.1,1.36,2.1,1.36-.94,1.36-2.1Z"/>
      <path class="cls-2" d="m27.25,21.8c0-.48-.39-.86-.86-.86s-.86.39-.86.86.39.86.86.86.86-.39.86-.86Z"/>
      <path class="cls-5" d="m3.7,17.04s.52,1.56,1-1.66c.48-3.22.77-5.91,1.82-6.58,1.06-.67-.57,10.46,4.51,7.72,1.26,3.89-7.49,5.8-7.34.51Z"/>
      <path class="cls-7" d="m10.57,14.91c-1.08-.99-1.84-3.45-2.24-6.52-.5-3.89-.07-7.13-1.3-4.97-.9,1.58-2.27,7.28-2.94,10.2.41-2.94,1.21-7.19,2.6-10.35,2.35-5.33,2.35-3.31,2.22,0-.11,2.88.64,7.83,1.66,11.63Z"/>
      <path class="cls-5" d="m15.09,12.57c-.12,1.33-3.54,2.78-3.82.56.2-.22.47-.73.52-1.93.07-1.94.65-2.3.86-.79.22,1.51.36,3.74,2.44,2.16Z"/>
      <path class="cls-7" d="m14.84,11.92c-2.09-.94-1.61-5.65-2.48-4.91-.75.65-1.1,3.2-1.18,3.85.05-1.05.25-2.49.77-4.27,1.15-3.89,1.44,3.89,2.88,5.33Z"/>
    </g>
  </g>
</svg>