<?xml version="1.0" encoding="UTF-8"?><svg data-name="Layer 2" xmlns="http://www.w3.org/2000/svg" viewBox="0 0 136.52 72.18"><g><g><path d="M.01,55.21c.5,8.5,13.3,14.8,28.8,14,7.6-.4,14.4-2.5,19.3-5.5,4,1.3,8.6,2,13.5,1.7,13.8-.7,24.6-8.2,24.1-16.8-.2-4.7-3.9-8.8-9.4-11.3.5-.9.7-1.8.6-2.8-.1-2.6-2.3-4.8-5.5-6.1,1.9-2.4,2.9-5.2,2.8-8.3-.4-7.5-7.9-13.1-16.7-12.6h-.5C55.51,2.91,51.51-.19,47.11,0s-8.1,3.8-9.1,8.6c-.5,0-1-.1-1.4,0-5,.3-8.8,4.5-8.5,9.5,0,.5.1.9.2,1.4-9.1,2-15.7,7.8-15.4,14.4.1,2.3,1.1,4.4,2.7,6.3C6.11,43.21-.29,48.91.01,55.21H.01ZM54.71,34.31c-1.1-.2-2.1-.5-3-.8.6-1.2,1.6-2.4,3-3.3.1.5.2,1.1.2,1.7s-.1,1.6-.2,2.4h0ZM51.11,36.01c1.1-.3,2.2-.6,3.3-.8-.4,1.4-1.1,2.7-2.1,3.9-.7-.9-1.2-2-1.2-3.1ZM44.71,22.51c.3-.5.6-1,.8-1.6,1.4.6,2.7,1.3,3.9,2.1-.3.1-.7.1-1,.1-1.3.1-2.5-.1-3.7-.6ZM40.51,19.41c.6.1,1.3.3,1.9.4-.1.4-.1.9-.1,1.3-.6-.5-1.2-1.1-1.8-1.7h0Z" style="fill: #0b8036; stroke-width: 0px;"/><path d="M29.61,64.61c.2,4.7,8.5,8.1,18.4,7.5,4.9-.3,9.3-1.4,12.5-3.1,4.2,1.3,9.2,2,14.5,1.7,5.3-.3,9.9-1.4,13.9-3h0c5.2,1.2,12.1,1.7,19.6,1.3,15.7-.8,28.3-5.3,28-10-.1-1.9-2.3-3.5-6-4.8.4-.9.6-1.9.5-2.9-.2-3.6-3.2-6.3-6.8-6.2-3.6.2-6.3,3.2-6.1,6.8v.1h-.8c1-2,1.5-4.2,1.4-6.6-.4-7.2-6.5-12.7-13.7-12.3h-.2c.1-.8.1-1.7.1-2.5-.4-7.5-6.7-13.2-14.2-12.8-5.9.3-10.7,4.4-12.3,9.8h-1.2c-1.7.1-3.3.7-4.6,1.7-1.2-5.9-5.5-10.2-10.3-9.9-3.6.2-6.6,2.8-8.2,6.7-4,1-8,4.4-10.5,9.3-.9,1.7-1.5,3.4-1.8,5.1-4.1.5-7.1,4.2-6.9,8.3.2,3.5,2.6,6.4,5.9,7.3,2-.5,4.1-.8,6.4-.9.1,0,.1-.1.2-.1v-.5c.3-2.5,1.5-4.8,3.5-6.9v.4c.1,2.7-1.1,5.2-3,6.7-.2.1-.3.2-.5.4v.1h-.2c-1.1.7-2.4,1.1-3.8,1.2-.9,0-1.8-.1-2.6-.3-6.8,1.5-11.4,4.9-11.2,8.4h0ZM80.31,39.01c1.7.2,3.4.5,5,.8,2.9.7,5.6,1.7,7.9,3,.8.5,1.6.9,2.3,1.5-.9.2-1.7.4-2.7.5h-.7c-3.2.2-6.2-.8-8.7-2.6-1.2-.8-2.3-2-3.1-3.2h0ZM69.71,39.11c.6-.1,1.3-.2,2-.2-.3.7-.6,1.4-1.1,2-.4-.5-.7-1.1-.9-1.8h0ZM57.31,42.91c2.3-1.2,4.9-2.1,7.8-2.8-.4,1.8-1,3.5-1.9,5.3-2.2-.1-4.3-1-5.9-2.5Z" style="fill: #51ae32; stroke-width: 0px;"/></g></g></svg>