<?xml version="1.0" encoding="UTF-8"?>
<svg id="Layer_2" data-name="Layer 2" xmlns="http://www.w3.org/2000/svg" viewBox="0 0 188.57 61.93">
  <g id="areas">
    <g>
      <g>
        <rect x="62.59" y="11.54" width="22.55" height="47.48" style="fill: #c62823; stroke-width: 0px;"/>
        <path d="M86.88,12.84h-26.05c.27-7.14,6-12.84,13.03-12.84s12.75,5.7,13.02,12.84Z" style="fill: #fff; stroke-width: 0px;"/>
      </g>
      <rect x="2.07" y="30.06" width="63.8" height="28.96" style="fill: #e62c28; stroke-width: 0px;"/>
      <polygon points="67.93 41.34 0 41.34 2 24.71 65.93 24.71 67.93 41.34" style="fill: #352a2a; stroke-width: 0px;"/>
      <g>
        <rect x="8.41" y="45.19" width="9.57" height="8.74" style="fill: #72160d; stroke: #fff; stroke-miterlimit: 10;"/>
        <rect x="50.06" y="45.19" width="9.47" height="8.74" style="fill: #72160d; stroke: #fff; stroke-miterlimit: 10;"/>
        <rect x="24.4" y="44.54" width="19.17" height="14.02" style="fill: #72160d; stroke: #fff; stroke-miterlimit: 10;"/>
      </g>
      <g>
        <path d="M188.3,54.24c-.22-.5-.6-1-.6-1.53.02-.3.16-.61.13-.92-.02-.22-.13-.44-.2-.66v-1.6c.03-.2.08-.4.11-.61.08-.59.06-1.31-1.07-1.36-1.98-.1-3.97-.08-5.94.07-.09-.1-.19-.19-.28-.29-.62.17-1.23.34-1.85.5-.17.05-.35.09-.53.09-.19,0-.37-.05-.55-.09-.95-.23-2.03-.26-3.01-.08.1-.34-.72-.42-1.25-.34-.66.11-1.31.22-1.95.36-.14-.23-.64-.24-1.03-.21-.71.06-1.43.11-2.14.17-.93,0-1.85,0-2.78,0-.33,0-.72-.03-.86-.22l-.84.35c-.52-.07-1.04-.15-1.56-.22-.32.18-.79.25-1.21.19-.44-.06-1.05-.21-1.2.06-.05-.24-.25-.46-.54-.62-.97.35-2.09.54-3.2.54-.57,0-1.15.08-1.68.22-.17-.15-.26-.33-.25-.52l-1.24.22c-.09-.09-.18-.18-.27-.27-.88.24-1.87.32-2.82.24-.59-.05-1.3-.26-1.29-.64l-1.19,1.36c-.12-.35-.27-.72-.55-1.03-.75.32-1.12.01-1.81.06s-1.14.32-1.71.57c-.15-.08-.3-.15-.45-.23.01.22-.49.32-.81.22s-.54-.29-.84-.4-.8-.08-.88.13c-.06-.12-.12-.25-.18-.37-.31.14-.63.29-.94.43-.13-.2-.25-.4-.38-.6-.43.47-1.52.64-2.24.35-.12.1-.24.21-.36.31.05-.16,0-.33-.13-.47-.28.21-.73.32-1.17.29.19.16-.19.39-.48.31s-.39-.31-.37-.5c-.22.12-.43.25-.65.37-.09-.09-.18-.18-.27-.28-.04.14-.17.26-.36.34-.05-.25-.27-.49-.6-.64l-.48.45-.16-.47-.34.4c-.15-.15-.21-.34-.17-.52-.53.96-1.65.71-2.37,0-.22.19-.25.41-.16.63l-.2-.49c-.11.04-.23.07-.34.11-.13-.19-.22-.4-.27-.61l-.51.89c-.09-.17-.18-.33-.27-.5-.12.06-.25.13-.37.19.07-.21-.09-.44-.38-.55-.24.38-.49.76-.73,1.13-.18-.4-.84-.66-1-1.07-.06-.14-.07-.32-.27-.38-.35.37-.68.76-1.09,1.1-1.16-.28-1.24-.73-2.59-.23-.31.12-1.22.75-1.32.55-.08-.16-.16-.32-.24-.47-.24.06-.49.12-.74.11s-.53-.1-.59-.26c-.03-.08-.04-.19-.16-.22-.01.54-.15,1.07-.42,1.58-.19-.27-.39-.54-.58-.81-.09-.13-.2-.27-.41-.34s-.52,0-.53.14l-.35-.14c-.07.09-.14.18-.22.27-.04-.22-.53-.34-.79-.2-.03-.18-.14-.36-.32-.5-.17.25-.32.51-.52.75-.19-.19-.35-.4-.45-.62-.7,1.25-2.92.05-4.37.77,0-.21-.22-.37-.31-.54-.14.05-1.23.47-1.36.39l-.61-.39-.5.48c-.02-.17-.13-.34-.31-.48l-.43.47-.41-.44c-.12.11-.24.21-.35.32-.19-.16-.37-.33-.56-.49-.17.15-.34.31-.51.46.02-.18-.03-.36-.14-.53-.37.12-.73.24-1.1.37-.31.1-.63.21-.98.19s-.7-.2-.64-.42c-.34.18-1.03.27-1.05,0-.2.1-.4.21-.6.31-.66-.23-1.53-.18-2.11.12-.2-.13-.4-.27-.59-.4-.07.23-.77.07-.6-.14-.13.21-.27.42-.4.63-.05-.11-.09-.23-.14-.34-.59-.12-1.14-.31-1.69-.48-.07.18-.22.37-.2.57-.08-.71-1.54-.16-1.71.3-.24.67.25,1.6.12,2.33-.17,1.07-.54,2.12-.58,3.19-.08,1.48.46,2.97.08,4.43-.11.39-.28.79-.14,1.17.08.24.27.45.39.68.19.35.24.73.22,1.1-.02.07-.14.98-.03.98h95.77c0-.28.06-.56.16-.83.09-.23.22-.46.33-.68l-.03,1.51h.35v-2.5c.02-.09.02-.18.03-.28.02-.29.03-.57.08-.85v-.07c.02-.16.05-.32.09-.48.13-.38.36-.74.52-1.11.32-.76.3-1.57-.05-2.33ZM187.59,49.68l-.03,1.22c-.11-.43-.06-.82.03-1.22Z" style="fill: #fdc619; stroke-width: 0px;"/>
        <path d="M94.13,50.06c.15,3.93.31,7.87.46,11.8" style="fill: none; stroke-width: 0px;"/>
        <path d="M99.33,50.39c-.12.78-.8,1.48-1.07,2.24-.5,1.39.38,2.82.93,4.2.67,1.66.88,3.39.63,5.1l-.5-11.54Z" style="fill: #e7b604; stroke-width: 0px;"/>
        <path d="M93.97,50.74c-.04.71-.23,1.41-.24,2.12,0,.43.05.87.04,1.3-.02.51-.13,1.02-.16,1.54-.06,1.01.23,2.04-.08,3.03-.1.34-.28.67-.26,1.01.01.35.21.68.38,1.01.18.35.32.71.43,1.08l-.1-11.1Z" style="fill: #e7b604; stroke-width: 0px;"/>
        <path d="M108.61,51.14l-.12,2.07c-.1,1.78-.2,3.56-.22,5.34,0,.48,0,.96.15,1.43.1.31.27.62.37.93.1.32.11.66.11.99l-.28-10.74Z" style="fill: #e7b604; stroke-width: 0px;"/>
        <path d="M101.32,50.73c-.1.62.02,1.25-.02,1.88-.04.67-.27,1.34-.34,2.01-.09.91.1,1.82.07,2.73-.01.37-.06.74.02,1.11.06.28.19.54.27.81.25.81.12,1.64,0,2.46v-11.01Z" style="fill: #e7b604; stroke-width: 0px;"/>
        <path d="M96.55,49.59c.01,1.53.02,3.06-.1,4.59-.1,1.19-.27,2.37-.23,3.56.03.86.17,1.72.36,2.57.07.32.15.64.14.97-.01.18-.05.36-.12.53l-.04-12.22Z" style="fill: #e7b604; stroke-width: 0px;"/>
        <path d="M97.69,49.52c.04,1.56.08,3.13,0,4.69-.04.86-.12,1.73-.05,2.59.06.75.25,1.49.18,2.24-.05.59-.26,1.17-.29,1.76-.02.36.02.72.06,1.08l.09-12.35Z" style="fill: #e7b604; stroke-width: 0px;"/>
        <path d="M103.13,49.54c.09,1.1-.03,2.2-.36,3.28-.12.39-.26.78-.26,1.17,0,.7.46,1.39.33,2.08-.29,1.52-.24,3.06-.19,4.59.01.36.02.73.03,1.09,0,.03-.05.06-.04.1s.09-.02.04-.01l.44-12.31Z" style="fill: #e7b604; stroke-width: 0px;"/>
        <path d="M103.83,50.11c.21,1.39-1.23,2.71-1.11,4.11.04.41.21.81.33,1.22.31,1.05.26,2.13.22,3.21.08-.01.16,0,.23.02-.48,1.02-.5,2.13-.07,3.16l.41-11.72Z" style="fill: #e7b604; stroke-width: 0px;"/>
        <path d="M105.07,61.68c.03.06.06.12.08.18h-.09l.02-.18Z" style="fill: #e7b604; stroke-width: 0px;"/>
        <path d="M105.07,61.66c-.03-.07-.08-.14-.11-.21-.11-.21-.11-.43-.11-.66-.02-.54-.02-1.08-.03-1.63-.03-2.11-.06-4.23.22-6.34.09-.77.22-1.53.24-2.3l-.2,11.14Z" style="fill: #e7b604; stroke-width: 0px;"/>
        <path d="M106.38,61.86c-.08-.56.02-1.12.19-1.67l-.09,1.67h-.09Z" style="fill: #e7b604; stroke-width: 0px;"/>
        <path d="M107.61,57.14c-.2,1.03-.74,2.04-1.04,3.05l.54-10.05c-.19,2.34.99,4.68.5,7Z" style="fill: #e7b604; stroke-width: 0px;"/>
        <path d="M110.15,50.17c.03,1.45.06,2.91.29,4.35.11.7.27,1.4.33,2.11.13,1.74-.39,3.47-.77,5.2,0,.03-.02.06-.07.06s-.02-.06,0-.03l.21-11.69Z" style="fill: #e7b604; stroke-width: 0px;"/>
        <path d="M112.1,61.86s.02-.02.02-.04v.04h-.02Z" style="fill: #e7b604; stroke-width: 0px;"/>
        <path d="M113.09,57.27c.02,1.53-.3,3.07-.98,4.55l-.27-11.81c.11.64.24,1.28.36,1.92.38,1.77.87,3.55.88,5.34Z" style="fill: #e7b604; stroke-width: 0px;"/>
        <path d="M91.86,50.13c-.23,1.23-.45,2.48-.2,3.71.06.31.16.63.13.94-.05.46-.36.9-.39,1.36-.02.28.07.56.15.83.44,1.59.44,3.23,0,4.82l.31-11.67Z" style="fill: #e7b604; stroke-width: 0px;"/>
        <path d="M93.21,49.7c.15,1.04-.06,2.08-.16,3.11-.1,1.05-.07,2.11-.06,3.16,0,.71,0,1.42-.19,2.11-.19.67-.56,1.33-.52,2.01.03.57.35,1.13.76,1.64l.17-12.03Z" style="fill: #e7b604; stroke-width: 0px;"/>
        <path d="M114.46,58.98l-.08-4.83c-.24-1.59-.36-3.17-.08-4.75l.08,4.75c.11.73.24,1.47.35,2.2.08.55.16,1.1.05,1.64-.06.34-.2.66-.32.99-.09.27-.19.54-.2.81-.05.64.25,1.29.25,1.93v.14-.14l-.05-2.74h0Z" style="fill: #e7b604; stroke-width: 0px;"/>
        <path d="M116.23,49.8c-.62,2.16-.67,4.36-.72,6.55-.04,1.76-.07,3.53.14,5.29l.58-11.84Z" style="fill: #e7b604; stroke-width: 0px;"/>
        <path d="M119.15,49.41c-.26,1.51-.25,3.03-.22,4.54.02,1.06.04,2.12-.08,3.17-.16,1.44-.58,2.88-.45,4.32l.74-12.03Z" style="fill: #e7b604; stroke-width: 0px;"/>
        <path d="M116.8,61.86l.32-3.3c0,1.11.05,2.22-.28,3.3h-.03Z" style="fill: #e7b604; stroke-width: 0px;"/>
        <path d="M117.14,57.21c.05-.59.16-1.18.27-1.77l-.3,3.12c0-.45,0-.9.03-1.35Z" style="fill: #e7b604; stroke-width: 0px;"/>
        <path d="M118.01,49.34c-.06,1.7-.13,3.39-.41,5.08-.06.34-.13.68-.19,1.02l.6-6.1Z" style="fill: #e7b604; stroke-width: 0px;"/>
        <path d="M116.45,49.93l.03,11.93c-.08-3.97-.08-7.96-.03-11.93Z" style="fill: #e7b604; stroke-width: 0px;"/>
        <path d="M121.24,51.15v1.02l-.03-.78-.02-.72-.03-1c.03.31.05.62.06.93.02.18.02.36.02.55Z" style="fill: #e7b604; stroke-width: 0px;"/>
        <path d="M121.24,52.17l.06,2.66c-.09-.89-.08-1.77-.06-2.66Z" style="fill: #e7b604; stroke-width: 0px;"/>
        <path d="M121.68,61.86h-.17l-.2-6.99c.03.18.06.37.09.55.14.82.41,1.64.54,2.46.21,1.33.03,2.66-.25,3.98Z" style="fill: #e7b604; stroke-width: 0px;"/>
        <path d="M124,56.95c-.05,1.64-.08,3.27-.13,4.91l-.02-11.98c.27,2.35.2,4.71.14,7.07Z" style="fill: #e7b604; stroke-width: 0px;"/>
        <path d="M122.77,61.47c.02.13.02.26.03.39h-.03v-.39Z" style="fill: #e7b604; stroke-width: 0px;"/>
        <path d="M122.94,50.09l-.17,11.38c-.19-3.8-.58-7.62.17-11.38Z" style="fill: #e7b604; stroke-width: 0px;"/>
        <path d="M121.32,50.4l-.08.72v.03l-.03.24h0s-1.15,10.47-1.15,10.47h-.03c-.24-1.51.16-3.02.35-4.53.16-1.32.17-2.65.24-3.98.03-.54.06-1.08.19-1.62.08-.36.21-.72.39-1.06-.02-.01,0-.01,0-.01,0-.02,0-.04.03-.06.02-.07.06-.13.09-.2Z" style="fill: #e7b604; stroke-width: 0px;"/>
        <path d="M124.98,49c.64,3.2-.86,6.47-.16,9.67.11.48.26.96.31,1.45.05.58-.06,1.17.11,1.74l-.26-12.85Z" style="fill: #e7b604; stroke-width: 0px;"/>
        <path d="M127.73,49.7c-1.04,1.93-1.38,4.02-.99,6.04.09.48.22.95.31,1.43.18.99.16,2,.14,3,0,.42-.02.85-.02,1.27.1-.14.21-.29.31-.43l.26-11.31Z" style="fill: #e7b604; stroke-width: 0px;"/>
        <path d="M128.98,49.56c-.54,1.15-.45,2.37-.61,3.57-.08.66-.24,1.31-.36,1.97-.36,2.07-.28,4.15-.21,6.23l1.17-11.77Z" style="fill: #e7b604; stroke-width: 0px;"/>
        <path d="M130.22,59.92c-.06.65-.13,1.3-.27,1.94h-.13l.08-4.24.13-6.4.03-1.37c.02.4.03.79.05,1.19.06,1.8.13,3.6.16,5.4.02,1.16.03,2.32-.05,3.48Z" style="fill: #e7b604; stroke-width: 0px;"/>
        <path d="M130.63,49.93l-.19,11.93h-.06c-.03-.65-.09-1.3-.16-1.94-.05-.38-.09-.75-.14-1.13-.05-.39-.11-.78-.17-1.17-.16-1.09-.33-2.19-.35-3.29-.02-1.04.11-2.1.47-3.11.02-.06.05-.12.08-.18.13-.38.3-.75.52-1.11Z" style="fill: #e7b604; stroke-width: 0px;"/>
        <path d="M131.81,50.45c-.02,1.57.14,3.14.47,4.7.46,2.14,1.25,4.27,1,6.42l-1.47-11.12Z" style="fill: #e7b604; stroke-width: 0px;"/>
        <path d="M133.19,50.89c.33,3.49.66,6.97.99,10.46l-.04-.53-.95-9.93Z" style="fill: #e7b604; stroke-width: 0px;"/>
        <path d="M135.04,61.82v.04h-.25c.09-3.76.09-7.53.02-11.29l.24,11.25Z" style="fill: #e7b604; stroke-width: 0px;"/>
        <path d="M135.04,61.82c.05-1.03.17-2.05.32-3.08l-.24,3.12h-.08v-.04Z" style="fill: #e7b604; stroke-width: 0px;"/>
        <path d="M135.36,58.74l.74-9.54c.41,3.18-.28,6.35-.74,9.54Z" style="fill: #e7b604; stroke-width: 0px;"/>
        <path d="M137.78,61.86h-.2l-.36-11.61c.05,1.26.16,2.51.32,3.76.14,1.12.32,2.24.41,3.36.11,1.49.06,3-.16,4.49Z" style="fill: #e7b604; stroke-width: 0px;"/>
        <path d="M139.53,49.16l.08,4.75c-.17-.69-.38-1.39-.47-2.08-.13-.9-.08-1.82.39-2.67Z" style="fill: #e7b604; stroke-width: 0px;"/>
        <path d="M139.63,61.86c.05-.18.08-.37.11-.55l.02.53s-.02.01-.02.02h-.11Z" style="fill: #e7b604; stroke-width: 0px;"/>
        <path d="M140.08,59.15c-.08.72-.2,1.44-.35,2.16l-.13-7.4c.06.2.11.39.16.59.36,1.54.46,3.1.32,4.65Z" style="fill: #e7b604; stroke-width: 0px;"/>
        <path d="M140.83,49.37c.59.96.56,2.01.61,3.04.07,1.52.32,3.03.39,4.54.04.86.03,1.72-.16,2.57-.17.77-.49,1.53-.51,2.31l-.33-12.46Z" style="fill: #e7b604; stroke-width: 0px;"/>
        <path d="M143.12,60.06c-.08.61-.3,1.2-.57,1.8h-.14l-.09-12.25c.19.36.19.74.19,1.12.02,1.99-.03,3.99.28,5.98.17,1.11.47,2.23.33,3.35Z" style="fill: #e7b604; stroke-width: 0px;"/>
        <path d="M143.22,49.32l.3,2.41c-.03-.07-.06-.15-.08-.22-.22-.72-.28-1.46-.22-2.19Z" style="fill: #e7b604; stroke-width: 0px;"/>
        <path d="M146.37,59.79c-.08.55-.33,1.09-.6,1.62-.08.15-.14.3-.22.45h-.79l-.82-6.64-.03-.25-.39-3.24c.13.41.3.82.49,1.22.03.07.08.14.11.21.17.36.35.72.52,1.08.33.69.61,1.39.87,2.09.17.44.33.89.47,1.33.02.01.02.02.02.03.24.69.46,1.39.38,2.1Z" style="fill: #e7b604; stroke-width: 0px;"/>
        <path d="M143.94,55.22l-.02.17c-.02-.14-.02-.28-.02-.42,0-.67.03-1.35.09-2.02.09-1.1.24-2.19.39-3.28l-.28,3.49-.17,2.06Z" style="fill: #e7b604; stroke-width: 0px;"/>
        <path d="M144.08,57.4c.13.85.33,1.7.32,2.56-.02.65-.16,1.31-.54,1.9h-.47l.54-6.47c0,.67.05,1.34.16,2.01Z" style="fill: #e7b604; stroke-width: 0px;"/>
        <path d="M145.11,61.63c-.02.08-.05.15-.08.23h-.02c.02-.08.05-.16.09-.23Z" style="fill: #e7b604; stroke-width: 0px;"/>
        <path d="M145.11,61.63c.13-.35.24-.7.33-1.06l-.02.68c-.14.12-.24.24-.32.38Z" style="fill: #e7b604; stroke-width: 0px;"/>
        <path d="M145.98,57.66c-.09.98-.27,1.95-.54,2.91l.06-4.24.13-7.28c.27,1.56.43,3.12.49,4.68.05,1.31.02,2.63-.14,3.93Z" style="fill: #e7b604; stroke-width: 0px;"/>
        <path d="M147.76,60.33c.03-.15.06-.3.09-.45l.17,1.98h-.44c0-.51.06-1.02.17-1.53Z" style="fill: #e7b604; stroke-width: 0px;"/>
        <path d="M148.1,58.78c-.06.37-.16.73-.25,1.1l-.99-10.85c.8,2.43,1.02,4.92,1.23,7.4.06.79.14,1.57.02,2.35Z" style="fill: #e7b604; stroke-width: 0px;"/>
        <path d="M150.47,61.75s-.03.08-.06.11h-.22c-.39-1.87-.79-3.76-1.18-5.63-.16-.76-.32-1.53-.32-2.29.02-.69.17-1.37.32-2.06.22-.97.44-1.95.9-2.88l.57,12.75Z" style="fill: #e7b604; stroke-width: 0px;"/>
        <path d="M152.01,56.21c-.05,1.34-.55,2.65-.72,3.99-.08.55-.09,1.1-.14,1.66h-.58l.61-11.6c.02,1.98.91,3.96.84,5.95Z" style="fill: #e7b604; stroke-width: 0px;"/>
        <path d="M152.69,50.58l.96,7.1c-.24-.68-.5-1.37-.68-2.06-.43-1.66-.39-3.36-.28-5.04Z" style="fill: #e7b604; stroke-width: 0px;"/>
        <path d="M154.47,61.86h-.25l-.57-4.18c.16.45.32.9.44,1.36.25.93.38,1.88.38,2.82Z" style="fill: #e7b604; stroke-width: 0px;"/>
        <path d="M154.26,51.61l1.32,8.51c-.17-.34-.39-.66-.55-1-.17-.33-.27-.67-.35-1.01-.52-2.14-.47-4.33-.43-6.5Z" style="fill: #e7b604; stroke-width: 0px;"/>
        <path d="M156,61.86h-.14l-.27-1.74s.03.07.05.1c.25.53.35,1.08.36,1.64Z" style="fill: #e7b604; stroke-width: 0px;"/>
        <path d="M157.8,49.73c-.21,1.29-.19,2.58-.33,3.87-.19,1.64-.66,3.26-.81,4.9-.08.81-.08,1.63-.37,2.41l1.52-11.18Z" style="fill: #e7b604; stroke-width: 0px;"/>
        <path d="M158.53,50.03c-.14.31-.19.63-.22.95-.29,2.54.14,5.1-.27,7.64-.12.77-.33,1.55-.19,2.32l.68-10.91Z" style="fill: #e7b604; stroke-width: 0px;"/>
        <path d="M160,50.48c-.03.37-.22.73-.39,1.08-.64,1.36-.97,2.78-.96,4.2,0,.47.04.94.22,1.4.16.4.42.78.57,1.18.26.72.14,1.48,0,2.21l.56-10.07Z" style="fill: #e7b604; stroke-width: 0px;"/>
        <path d="M161.4,50.86c-.18,2.62-.36,5.24-.09,7.85.09.91.24,1.82.08,2.73v-10.58Z" style="fill: #e7b604; stroke-width: 0px;"/>
        <path d="M162.74,50.68c-.85,1.56-.69,3.26-.7,4.91,0,.73-.04,1.47.03,2.2.12,1.25.56,2.49.5,3.74l.17-10.84Z" style="fill: #e7b604; stroke-width: 0px;"/>
        <path d="M163.7,50.79c-.28,3.39.64,6.78.33,10.17l-.33-10.17Z" style="fill: #e7b604; stroke-width: 0px;"/>
        <path d="M165.31,50.44c-.05,2.16.03,4.33.25,6.49.14,1.44.34,2.89.24,4.33l-.48-10.83Z" style="fill: #e7b604; stroke-width: 0px;"/>
        <path d="M166.7,61.86c-.02-.85.14-1.7.25-2.55l-.19,2.55h-.06Z" style="fill: #e7b604; stroke-width: 0px;"/>
        <path d="M167.61,49.77c-.13,2.03-.24,4.07-.36,6.1-.06,1.1-.13,2.21-.28,3.31,0,.04-.02.09-.02.13l.66-9.54Z" style="fill: #e7b604; stroke-width: 0px;"/>
        <path d="M168.25,49.88c-.02.95-.25,1.9-.2,2.85.09,1.47.86,2.89,1.55,4.3s1.31,2.88,1.06,4.34l-2.42-11.49Z" style="fill: #e7b604; stroke-width: 0px;"/>
        <path d="M171.31,61.85c-.03-.3-.11-.61-.19-.92-.13-.41-.28-.82-.39-1.22-.39-1.35-.44-2.74-.49-4.12-.06-1.71-.11-3.43-.17-5.14l1.1,10.05.14,1.35Z" style="fill: #e7b604; stroke-width: 0px;"/>
        <path d="M172.05,61.86h-.91c-.05-.31-.05-.62-.02-.93,0-.14.02-.29.05-.43.02-.14.03-.27.05-.41.43-3.32-.06-6.67.47-9.98l.36,11.75Z" style="fill: #e7b604; stroke-width: 0px;"/>
        <path d="M173.74,61.75s0,.07-.02.11h-.08l-.32-11.83c.13,3.9.27,7.81.41,11.72Z" style="fill: #e7b604; stroke-width: 0px;"/>
        <path d="M174.94,49.72c.01,3.98.09,7.97.22,11.95l-.22-11.95Z" style="fill: #e7b604; stroke-width: 0px;"/>
        <path d="M176.54,49.72c.15,4.03.31,8.07-.25,12.08l.25-12.08Z" style="fill: #e7b604; stroke-width: 0px;"/>
        <path d="M177.67,49.49c.12,1.17.21,2.33.26,3.5.11,2.39.07,4.78-.11,7.16-.03.41-.06.84.27,1.19.14-.06.21-.16.2-.27l-.61-11.6Z" style="fill: #e7b604; stroke-width: 0px;"/>
        <path d="M179.73,49.16c.07.28-.06.57-.21.84-.49.93-1.08,1.86-1.17,2.84-.05.51.04,1.01.08,1.52.04.52.03,1.05.12,1.57.08.46.24.91.35,1.36.2.79.27,1.59.34,2.38l.48-10.52Z" style="fill: #e7b604; stroke-width: 0px;"/>
        <path d="M180.42,49.62c-.25,1.73.55,3.43.93,5.15.52,2.33.27,4.74-.73,7.01-.08-.02-.12-.09-.08-.13l-.12-12.02Z" style="fill: #e7b604; stroke-width: 0px;"/>
        <path d="M182.23,50.24c-.28,2.57.44,5.14.88,7.7.2,1.14.34,2.31-.14,3.42-.02.04-.09.07-.11.04l-.63-11.15Z" style="fill: #e7b604; stroke-width: 0px;"/>
        <path d="M184.53,50.76c-.26,1.85.17,3.71.46,5.56s.44,3.75-.35,5.54c.07-.19.14-.38.21-.56l-.32-10.53Z" style="fill: #e7b604; stroke-width: 0px;"/>
        <path d="M183.62,50.49l-.16,1.86c0-.62.03-1.24.16-1.86Z" style="fill: #e7b604; stroke-width: 0px;"/>
        <path d="M183.92,58.91c.02.99-.05,2.04-.6,2.95h-.65l.13-1.5.24-2.85.43-5.16c.02,1.11.17,2.24.28,3.36.11,1.07.17,2.13.17,3.2Z" style="fill: #e7b604; stroke-width: 0px;"/>
        <path d="M185.95,60.39l-.33-9.74.24,5.28c.06,1.49.13,2.98.09,4.46Z" style="fill: #e7b604; stroke-width: 0px;"/>
        <path d="M186,61.86h-.11c.03-.46.06-.93.06-1.39l.05,1.39Z" style="fill: #e7b604; stroke-width: 0px;"/>
        <path d="M187.65,59.09h0c-.17-.43-.35-.86-.44-1.3-.13-.61-.13-1.23-.13-1.85-.02-1.95-.02-3.9-.02-5.85l.66,8.07v.07l.11,1.32c-.06-.15-.13-.3-.19-.46Z" style="fill: #e7b604; stroke-width: 0px;"/>
      </g>
    </g>
  </g>
</svg>