<?xml version="1.0" encoding="UTF-8"?>
<svg id="Layer_2" data-name="Layer 2" xmlns="http://www.w3.org/2000/svg" viewBox="0 0 175.34 73.92">
  <g id="areas">
    <g>
      <path d="M46.6,67.99C-4.15,39.02-5.87,58.18,6.2,15.51c0,0,.41-.11.73-.27,2.1-.64,4.54-6.22,24.88-9.37,5.47.73,8.69,4.04,12.81,2.49,1.98-.82,1.56-1.12,4.21-1.32,2.38-.13,5.83-.27,6.52.13,7.62,4.4,4.81-1.28,28.89.61l8.8-1.32c6.98-3.52,14.09-5.28,22.3-6.46,12.72.39,7.24,2.93,22.11,6.26,8.02-2.74,14.06,2,20.54,3.52,8.9.67,6.89,1.99,12.74,3.76l1.98,1.93c7.96,23.99-3.36,9.61-20.16,27.5-14.51,15.53-64.26,37.73-85.06,28.96" style="fill: #90d60d; stroke-width: 0px;"/>
      <path d="M28.42,21.56c-.57-.43-1.44-.43-2,0s-.79,1.28-.51,1.94c.08.18.19.37.17.56-.02.2-.15.36-.29.5-.63.68-1.41,1.58-.99,2.41.34.68,1.26.78,2.03.79.81.01,1.62.02,2.42.03.6,0,1.29-.03,1.65-.51.16-.21.21-.48.27-.74.2-.97.37-1.94.5-2.92.03-.22.05-.47-.08-.65-.11-.15-.3-.21-.48-.26-1.02-.3-2.04-.6-3.05-.9" style="fill: #3d5605; stroke-width: 0px;"/>
      <path d="M33.32,25.66c.45.2.98.09,1.47.11s1.08.3,1.09.8c1.04-.81,2.38-1.67,3.58-1.12.36.17.65.45,1.01.61.38.17.8.21,1.21.27,1.3.2,2.57.66,3.69,1.35.82.5,1.84,1.14,2.64.61,1.06-.7.58-2.81,1.79-3.21.43-.14.9.04,1.35.06,1.47.06,2.47-1.44,3.15-2.75.29-.56.59-1.23.31-1.8-.31-.64-1.15-.77-1.86-.83-1.11-.08-2.35-.12-3.21.58-.24.2-.46.46-.76.53-.18.04-.38,0-.56-.04-1.3-.3-2.52-.97-3.85-1.09s-2.91.57-3.1,1.9c-.88.89-2.31.91-3.55.74-.99-.13-3.46-.82-4.4-.21s-1.18,2.94,0,3.48Z" style="fill: #3d5605; stroke-width: 0px;"/>
      <path d="M94.21,15.97c-.55.16-.98.83-.68,1.32-1.59.32-3.17.65-4.76.97-.38.08-.82.2-.99.55-.19.41.13.91.55,1.08s.89.11,1.34.04c.15.63.04,1.32-.32,1.86.95.29,2.01.22,2.91-.2.72-.34,1.46-.9,2.22-.65.4.13.69.47,1.02.73,1.75,1.4,4.34.69,6.49,1.33,1.39.41,2.88,1.39,4.14.66.48-.28.8-.76,1.23-1.11,1.86-1.51,4.72-.03,7.01-.73,1.32-.41,2.3-1.5,3.21-2.55.31-.36.64-.77.61-1.24-.06-.88-1.22-1.15-2.1-1.14-2.41.02-4.82.29-7.17.82-.28.06-.59.12-.83-.02-.21-.13-.31-.37-.43-.58-.9-1.56-3.14-1.46-4.91-1.16-1.95.33-3.89.65-5.84.98-1.23.2-1.29-1.37-2.69-.96Z" style="fill: #3d5605; stroke-width: 0px;"/>
      <path d="M128.82,21.36c-.32.16-.65.36-.77.7-.17.45.13.96.55,1.19s.91.26,1.39.28c.69.03,1.45.04,1.99-.4.16-.13.3-.3.48-.38.77-.34,1.33.89,2.14,1.11.54.14,1.11-.19,1.66-.12.82.11,1.25,1,1.88,1.54.7.6,1.73.75,2.62.5s1.66-.86,2.21-1.6c.36-.48.88-1.1,1.43-.85.09.04.18.12.29.12.26.02.37-.31.39-.57.06-.55.11-1.14-.16-1.62-.84-1.51-6.12-1.34-7.73-1.57-2.85-.4-5.82.36-8.36,1.68Z" style="fill: #3d5605; stroke-width: 0px;"/>
      <path d="M148.18,22.36c.2.23.58.46.43.73-.06.1-.18.15-.29.19-1.15.4-2.29.8-3.44,1.2.72.62,1.44,1.24,2.16,1.86.53.45,1.07.92,1.74,1.12s1.48.08,1.89-.48c.43-.58.4-1.56,1.08-1.81.6-.22,1.16.34,1.62.77,1.21,1.15,2.92,1.75,4.58,1.62.83-.06,1.71-.3,2.48.04.33.14.61.38.94.51.83.32,1.8-.17,2.27-.92s.53-1.69.43-2.57c-.03-.29-.1-.61-.33-.78-.19-.15-.45-.15-.69-.16-.91-.01-1.83-.02-2.74-.04.19-1.13.27-2.53-.69-3.14-.45-.29-1.02-.3-1.56-.31-.59,0-12.17-.7-9.88,2.17Z" style="fill: #3d5605; stroke-width: 0px;"/>
      <path d="M61.72,18.23c-.52.23-1.06.46-1.46.87s-.63,1.03-.42,1.56c.33.81,1.41.93,2.29.9.2,0,.41-.02.56-.15.19-.15.23-.42.25-.67.05-.54.1-1.11-.1-1.62s-.73-.93-1.27-.82" style="fill: #3d5605; stroke-width: 0px;"/>
      <path d="M67,19.59c-.28-.3-.71-.46-1.13-.4.14.44-.41.73-.74,1.06-.64.64-.29,1.93.59,2.16.3.08.64.05.89.22.23.16.35.44.56.63.51.47,1.41.13,1.75-.47s.29-1.34.23-2.03c-.8-.27-1.59-.55-2.38-.84" style="fill: #3d5605; stroke-width: 0px;"/>
      <path d="M90.37,28.17c-4.36.04-7.91,4.17-12.26,4.09-1.1-.02-2.2-.32-3.3-.23s-2.29.71-2.51,1.8c-.32,1.59,1.53,2.73,3.11,3.1,3.76.89,7.69.45,11.55.19,5.66-.37,11.34-.32,16.99.14,1.65.13,3.38.29,4.9-.36s2.7-2.44,2.07-3.97c-.59-1.45-2.4-1.95-3.97-1.96-1.4,0-2.79.24-4.11.71-.44.16-.89.34-1.36.28-.46-.06-.85-.35-1.25-.6-1.64-1-3.36-.45-4.9-1.08-1.86-.76-2.63-2.13-4.95-2.11Z" style="fill: #717fff; stroke-width: 0px;"/>
    </g>
  </g>
</svg>