<?xml version="1.0" encoding="UTF-8"?>
<svg id="Layer_2" data-name="Layer 2" xmlns="http://www.w3.org/2000/svg" viewBox="0 0 259.77 190.73">
  <g id="areas">
    <g>
      <g>
        <path d="M169.52,15.66c2.41,2.06,3.35,5.58,3.53,8.9s-.25,6.67.06,9.98c.46,4.85,2.46,10.04.33,14.33-.4.8-1.03,1.59-1.87,1.64-.64.04-1.22-.35-1.73-.77-3.02-2.49-4.89-6.36-5.79-10.36s-.89-8.17-.75-12.28c.03-1.03.07-2.08-.25-3.05s-1.12-1.82-2.06-1.84c-.68,1.23-.77,2.73-.83,4.16-.25,5.48-.5,10.96-.75,16.44-.08,1.69-.16,3.43-.79,4.98s-1.9,2.91-3.46,3.06c-1.61.15-3.12-1.05-3.9-2.58s-.96-3.33-1-5.07c-.1-4.41.57-8.9,2.38-12.84.92-2.01,2.15-3.96,2.28-6.2.03-.45-.09-1.02-.49-1.1-.39-.08-.69.38-.86.77-2.34,5.1-4.67,10.2-7.01,15.29-.59,1.29-1.2,2.61-2.14,3.63s-2.29,1.71-3.6,1.43c-2.07-.43-3.16-3.02-3.16-5.3,0-4.53,2.79-8.41,4.85-12.35,1.98-3.79,3.43-8.04,6.38-10.99,2.63-2.62,7.32-4.81,10.97-4.56,1.68.12,2.98,1.39,4.58,2.1,1.73.78,3.58,1.3,5.08,2.58Z" style="fill: #203020; stroke-width: 0px;"/>
        <path d="M186.92,11.33c.57.97.96,2.05,1.34,3.13.93,2.6,1.87,5.27,1.91,8.06.01.81-.06,1.67-.48,2.34s-1.28,1.08-1.95.71c-.47-.26-.74-.81-.95-1.33-1.66-4.04-2.36-8.76-5.29-11.84-1.53,3.23-1.57,7.08-.99,10.66s1.71,7.03,2.42,10.58c.17.84.31,1.74.07,2.56s-1,1.53-1.78,1.36c-.72-.15-1.15-.92-1.5-1.61-1.72-3.43-3.46-6.91-4.28-10.71-1-4.68-.7-10.02-3.55-13.7-2.87,7.33-2.19,15.63-2.85,23.57-.06.76-.28,1.7-.98,1.84-.28.06-.57-.05-.85-.15-1-.39-2-.77-3-1.16-.54-.21-1.12-.44-1.48-.93-.33-.45-.44-1.04-.52-1.61-.74-4.93-1.05-9.97-.37-14.91.89-6.43,3.91-15.99,10.95-16.28,2.54-.1,4.21.63,6.25,2.19,2.67,2.05,6.09,4.18,7.89,7.23Z" style="fill: #213923; stroke-width: 0px;"/>
        <g id="tree">
          <path d="M191.4,134.23c-.37,2.4-12.64-5.4-23.72,9.8-11.81-1.29-20.2,1.85-20.48-.74-.18-1.66,3.51-4.61,3.97-4.98,3.51-2.77,11.62-2.04,13.28-3.7,1.85-1.85,3.61-25.59,3.98-49.76.18-17.53-3.32-19.83-4.7-23.89-2.68-7.38,5.15-18.07-3.24-26-20.94,1.96-33.05-9.18-32.31-12.13.65-2.4,6.14,4.5,17.65,6.76,10.24,7.57,14.89-6.85,20.79,1.46,2.68,3.88,2.55,20.51,9.65,12.2,7.56-8.86,11.26-12,13.65-14.4,8.67-8.49,9.59-.3,8.82-.15-4.55.85-15.52,9.59-20.26,30.42-1.2,3.88-.46,13.1,1.11,31.56,2.12,25.28,3.51,30.82,5.72,35.25,3.04,6.09,6.27,7.2,6.09,8.3Z" style="fill: #30290c; stroke-width: 0px;"/>
        </g>
        <path d="M198.75,4.43h-.18" style="fill: none; stroke-width: 0px;"/>
        <path d="M194.58,47.3c2.4,7.45,3.57,15.37,3.42,23.27-.02,1.14-.07,2.31-.5,3.35s-1.31,1.94-2.36,2.01c-4.08-7.64-5.42-16.58-8.1-24.92-.25-.78-.54-1.6-1.1-2.15s-1.51-.76-2.09-.23c-.68.61-.56,1.75-.37,2.68,1.66,8.55,3.2,17.21,2.97,25.95,0,.28-.03.59-.21.78-.45.47-1.13-.21-1.42-.82-3.51-7.44-6.04-15.37-8.45-23.32-.29-.95-.86-2.11-1.78-1.97-.78.12-1.11,1.12-1.27,1.95-1.41,7.23-1.46,14.93-4.5,21.54-.52,1.13-1.33,2.35-2.49,2.35-1.31,0-2.14-1.52-2.51-2.89-1.08-3.93-.79-8.19.19-12.15s2.63-7.69,4.26-11.39c2.06-4.67,4.28-9.53,8.15-12.56,2.82-2.21,7.57-4.78,10.86-2.63,3.75,2.44,5.91,6.81,7.31,11.14Z" style="fill: #123e23; stroke-width: 0px;"/>
        <path d="M119.77,40.87c-.89,3.24-1,7.31,1.45,9.39.84-3.12,1.19-6.39,2.07-9.5s2.39-6.19,4.94-7.91c.38-.26.83-.49,1.27-.36.89.26.9,1.6.71,2.57-1.1,5.65-2.6,11.34-2.18,17.1.43,5.76,3.31,11.76,8.36,13.63-2.9-8.58-5.83-17.93-3.33-26.66.3-1.04.97-2.25,1.96-2.08.52.09.91.56,1.23,1.02.97,1.35,1.81,2.8,2.49,4.33,2.28,5.11,2.78,10.96,4.89,16.16.46,1.13,1.02,2.26,1.9,3.03s2.17,1.13,3.19.58c.77-.41,1.27-1.27,1.5-2.17.57-2.23-.36-4.56-1.27-6.66-2.52-5.84-5.05-11.69-7.57-17.53-.68-1.57-1.37-3.16-2.37-4.53-1.5-2.04-3.68-3.57-5.79-4.77-2.35-1.33-3.5-.73-5.5,1.13-3.73,3.47-6.54,8.12-7.95,13.23Z" style="fill: #123e23; stroke-width: 0px;"/>
        <path d="M144.83,40.97c-.98,4.8-.93,9.76-.87,14.67.06,5.48.16,11.12,2.13,16.17.27.69.89,1.5,1.5,1.14.32-.19.44-.63.51-1.02,1.06-5.76.28-11.69.03-17.56-.25-5.86.12-12.09,3.12-16.97.56-.91,1.62-1.86,2.47-1.26.52.37.63,1.14.68,1.82.55,6.7,1.11,13.39,1.66,20.09.2,2.39.41,4.84,1.28,7.05s2.52,4.2,4.69,4.74c1.98-2.79.68-6.77-.47-10.06-1.95-5.56-3.27-11.36-3.95-17.26-.15-1.33.1-3.17,1.33-3.25.38-.02.74.16,1.08.34,6.03,3.35,9.61,10.13,14.2,15.53.87,1.03,1.82,2.03,2.99,2.6s2.63.64,3.69-.15c1.18-.87,1.6-2.61,1.36-4.14s-1.02-2.88-1.86-4.13c-2.79-4.2-6.3-7.77-10-11.04-4.22-3.73-8.99-7.21-14.41-7.81-1.43-.16-2.97-1.08-4.25-1.19-1.49-.12-2.23,1.13-3.14,2.43-1.89,2.7-3.09,5.94-3.76,9.23Z" style="fill: #024525; stroke-width: 0px;"/>
        <path d="M212.74,33.59c3.09,2.87,6.19,5.75,8.86,9.09,1.8,2.25,3.45,4.9,3.53,7.88-.81.84-2.14.08-2.98-.72-2.87-2.74-5.27-6.02-8.17-8.72s-6.52-4.85-10.34-4.66c0,1.05,1.18,1.54,2.13,1.79,3.58.94,7.02,2.46,10.18,4.51,2.27,1.47,4.51,3.36,5.39,6.06.36,1.09.47,2.26.82,3.36.52,1.6,1.55,3.04,1.67,4.73.12,1.7-.71,3.28-1.51,4.75-.37.67-.9,1.44-1.62,1.35-.42-.06-.75-.41-1.04-.74-3.25-3.76-5.91-8.08-8.27-12.55-1.1-2.08-2.21-4.29-4.07-5.61-1.93-1.36-4.35-1.53-6.65-1.66,1.02,4.21,2.91,8.12,4.12,12.28,1.21,4.16,1.69,8.84-.07,12.75-.45,1.01-1.42,2.08-2.37,1.61-.35-.17-.6-.53-.82-.88-3.44-5.44-5.12-12.01-5.71-18.58-.38-4.16-.34-8.36-.16-12.53.1-2.3-.59-8.96,1.58-10.23,1.58-.93,6.01.5,7.55,1.06,3.04,1.11,5.55,3.45,7.95,5.67Z" style="fill: #173a22; stroke-width: 0px;"/>
        <path d="M188.84,8.11c4.06.83,8.31,1.75,11.53,4.56,1.74,1.51,3.07,3.48,4.66,5.18,1.16,1.24,2.46,2.33,3.47,3.71,2.25,3.06,2.85,7.13,3.37,11,.07.56.15,1.14-.04,1.67-.34.94-1.45,1.32-2.35,1.07s-1.61-.99-2.2-1.77c-2.07-2.69-3.2-6.06-4.75-9.13s-3.77-6.06-6.9-6.96c-1.71,3.77.16,8.26,2.34,11.74,2.18,3.48,4.82,7.09,4.67,11.29-.02.57-.1,1.16-.38,1.64-.64,1.09-2.13,1.24-3.19.67s-1.8-1.66-2.47-2.72c-2.74-4.37-5.13-9-7.12-13.82-.96-2.32-1.97-4.86-4.03-6.08-1.37,4.05-.37,8.53.29,12.79.51,3.31.81,6.67.9,10.02.05,1.79.03,3.61-.46,5.32s-1.52,3.31-3.02,4.05c-2-.57-3.7-2.23-4.44-4.32-.41-1.16-.53-2.42-.65-3.66-.5-5.47-.87-10.96-1.11-16.45-.19-4.28-.28-8.73,1.25-12.69,2.07-5.38,7.3-9.21,12.68-9.06.62.02,1.29.1,1.75.56s.52,1.4-.02,1.74" style="fill: #024525; stroke-width: 0px;"/>
        <path d="M191.1,18.76c1.22.87,2.45,1.73,3.67,2.6,3.71,2.63,7.6,5.48,9.46,9.84.49,1.16.83,2.48.52,3.71s-1.44,2.29-2.6,2.05c-.92-.19-1.55-1.07-2.1-1.88-1.78-2.65-3.56-5.34-5.81-7.53s-5.07-3.85-8.09-4.03c-.43,1.16-.15,2.48.2,3.68,1.25,4.17,3.44,8,4.32,12.28s.01,9.49-3.49,11.69c-.88-1.11-1.76-2.21-2.64-3.32-.97-1.22-1.95-2.46-2.56-3.93-.88-2.13-.91-4.55-.92-6.88-.01-3.09-.02-6.18-.03-9.26,0-1.68-.46-3.91-2.01-4-1.2,1.76-1.39,4.07-1.57,6.25-.47,5.97-1.12,11.93-1.93,17.86-.13.96-.3,1.99-.96,2.65-.99.97-2.66.58-3.59-.45s-1.3-2.5-1.59-3.91c-.87-4.13-1.42-8.34-1.64-12.56-.15-2.77-.13-5.67.98-8.17,1.17-2.63,3.4-4.49,5.61-6.15,2.51-1.87,5.39-3.91,8.47-4.35s5.84,2.07,8.29,3.81Z" style="fill: #004f27; stroke-width: 0px;"/>
        <path d="M162.6,5.44c1.22,1.52,1.11,3.82.57,5.74s-1.44,3.76-1.57,5.77c-.2,2.99,1.31,5.82,1.52,8.81.24,3.4-1.22,6.65-2.64,9.69-.37.81-.76,1.63-1.37,2.24-3.62-6.59-5.04-14.57-3.92-22.15.15-.99.16-2.32-.71-2.65-1.66,1.54-2.46,3.94-2.71,6.3s0,4.74.04,7.11c.06,3.24-.25,6.49-.91,9.65-.36,1.71-.85,3.45-1.96,4.73-.19.22-.42.44-.7.47-.58.08-.97-.61-1.2-1.2-1.77-4.55-3.58-9.27-3.51-14.21.07-4.53,1.71-8.85,3.44-12.97-1.33.45-2.33,1.65-3.15,2.88-1.92,2.91-3.18,6.33-3.66,9.87-.15,1.1-.23,2.24-.7,3.22-.92,1.91-3.01,2.7-4.91,3.33-.76.25-1.64.48-2.3,0-.53-.38-.74-1.09-.88-1.76-1.25-5.82.13-12.24,3.63-16.86,1.01-1.33,2.18-2.51,3.36-3.67,3.86-3.77,8.18-7.5,13.28-9.02,1.76-.52,5.21-1.5,6.67,0,.63.64.68,1.78,1.52,2.54s1.99,1.14,2.75,2.1Z" style="fill: #004e27; stroke-width: 0px;"/>
      </g>
      <g>
        <path d="M60.27,32.67c-2.62,2.06-3.63,5.58-3.83,8.9s.27,6.67-.07,9.98c-.5,4.85-2.66,10.04-.36,14.33.43.8,1.12,1.59,2.02,1.64.69.04,1.32-.35,1.87-.77,3.28-2.49,5.31-6.36,6.27-10.36s.97-8.17.81-12.28c-.04-1.03-.08-2.08.27-3.05s1.21-1.82,2.24-1.84c.74,1.23.83,2.73.9,4.16.27,5.48.54,10.96.82,16.44.08,1.69.18,3.43.85,4.98s2.06,2.91,3.75,3.06c1.74.15,3.38-1.05,4.23-2.58s1.04-3.33,1.08-5.07c.11-4.41-.62-8.9-2.58-12.84-1-2.01-2.33-3.96-2.47-6.2-.03-.45.09-1.02.53-1.1.43-.08.74.38.94.77,2.53,5.1,5.06,10.2,7.59,15.29.64,1.29,1.3,2.61,2.32,3.63s2.48,1.71,3.9,1.43c2.24-.43,3.42-3.02,3.43-5.3,0-4.53-3.02-8.41-5.25-12.35-2.14-3.79-3.71-8.04-6.91-10.99-2.85-2.62-7.93-4.81-11.89-4.56-1.83.12-3.23,1.39-4.97,2.1-1.88.78-3.88,1.3-5.51,2.58Z" style="fill: #203020; stroke-width: 0px;"/>
        <path d="M41.41,28.34c-.62.97-1.04,2.05-1.46,3.13-1,2.6-2.02,5.27-2.07,8.06-.02.81.07,1.67.52,2.34s1.39,1.08,2.12.71c.51-.26.8-.81,1.03-1.33,1.8-4.04,2.56-8.76,5.73-11.84,1.66,3.23,1.7,7.08,1.08,10.66s-1.85,7.03-2.63,10.58c-.18.84-.34,1.74-.08,2.56s1.09,1.53,1.93,1.36c.78-.15,1.25-.92,1.63-1.61,1.87-3.43,3.75-6.91,4.64-10.71,1.09-4.68.75-10.02,3.85-13.7,3.11,7.33,2.38,15.63,3.09,23.57.07.76.31,1.7,1.06,1.84.31.06.62-.05.92-.15,1.09-.39,2.17-.77,3.26-1.16.59-.21,1.21-.44,1.6-.93.36-.45.47-1.04.57-1.61.8-4.93,1.14-9.97.4-14.91-.96-6.43-4.24-15.99-11.87-16.28-2.75-.1-4.57.63-6.78,2.19-2.9,2.05-6.6,4.18-8.55,7.23Z" style="fill: #213923; stroke-width: 0px;"/>
        <g id="tree-2" data-name="tree">
          <path d="M43.15,142.93c2.4-4.43,3.9-9.97,6.2-35.25,1.7-18.46,2.5-27.68,1.2-31.56-5.14-20.83-17.04-29.57-21.97-30.42-.83-.14.17-8.34,9.57.15,2.6,2.4,6.6,5.54,14.8,14.4,7.7,8.3,7.56-8.32,10.46-12.2,6.4-8.3,11.44,6.11,22.54-1.46,12.48-2.26,18.43-9.16,19.13-6.76.8,2.95-12.33,14.09-35.02,12.13-9.1,7.94-.61,18.62-3.51,26-1.5,4.06-5.3,6.35-5.1,23.89.4,24.18,2.31,47.92,4.31,49.76,1.8,1.66,10.6.93,14.4,3.7.5.37,4.5,3.32,4.3,4.98-.3,2.58-9.4-.55-22.2.74-12.3,1.29-25.31-7.4-25.71-9.8-.2-1.11,3.3-2.21,6.6-8.3Z" style="fill: #30290c; stroke-width: 0px;"/>
        </g>
        <path d="M28.59,21.44h.2" style="fill: none; stroke-width: 0px;"/>
        <path d="M33.1,64.31c-2.6,7.45-3.86,15.37-3.71,23.27.02,1.14.08,2.31.54,3.35s1.42,1.94,2.55,2.01c4.42-7.64,5.88-16.58,8.79-24.92.27-.78.58-1.6,1.2-2.15s1.63-.76,2.27-.23c.73.61.6,1.75.41,2.68-1.8,8.55-3.47,17.21-3.22,25.95,0,.28.03.59.23.78.49.47,1.23-.21,1.54-.82,3.8-7.44,6.55-15.37,9.16-23.32.31-.95.94-2.11,1.93-1.97.84.12,1.21,1.12,1.38,1.95,1.53,7.23,1.58,14.93,4.88,21.54.56,1.13,1.44,2.35,2.7,2.35,1.42,0,2.32-1.52,2.72-2.89,1.18-3.93.86-8.19-.21-12.15s-2.85-7.69-4.62-11.39c-2.24-4.67-4.63-9.53-8.83-12.56-3.06-2.21-8.2-4.78-11.78-2.63-4.06,2.44-6.41,6.81-7.92,11.14Z" style="fill: #123e23; stroke-width: 0px;"/>
        <path d="M114.2,57.88c.96,3.24,1.08,7.31-1.57,9.39-.91-3.12-1.29-6.39-2.24-9.5s-2.59-6.19-5.35-7.91c-.41-.26-.9-.49-1.37-.36-.96.26-.98,1.6-.77,2.57,1.2,5.65,2.82,11.34,2.36,17.1s-3.59,11.76-9.06,13.63c3.14-8.58,6.32-17.93,3.61-26.66-.32-1.04-1.05-2.25-2.13-2.08-.56.09-.98.56-1.33,1.02-1.05,1.35-1.96,2.8-2.7,4.33-2.48,5.11-3.01,10.96-5.3,16.16-.5,1.13-1.1,2.26-2.06,3.03s-2.35,1.13-3.45.58c-.83-.41-1.38-1.27-1.62-2.17-.62-2.23.39-4.56,1.37-6.66,2.74-5.84,5.47-11.69,8.21-17.53.74-1.57,1.48-3.16,2.56-4.53,1.62-2.04,3.98-3.57,6.28-4.77,2.55-1.33,3.8-.73,5.96,1.13,4.04,3.47,7.09,8.12,8.62,13.23Z" style="fill: #123e23; stroke-width: 0px;"/>
        <path d="M87.04,57.98c1.07,4.8,1.01,9.76.95,14.67-.07,5.48-.17,11.12-2.31,16.17-.29.69-.97,1.5-1.63,1.14-.35-.19-.47-.63-.55-1.02-1.15-5.76-.3-11.69-.03-17.56.28-5.86-.13-12.09-3.38-16.97-.61-.91-1.75-1.86-2.67-1.26-.57.37-.68,1.14-.74,1.82-.6,6.7-1.2,13.39-1.8,20.09-.21,2.39-.44,4.84-1.38,7.05s-2.74,4.2-5.08,4.74c-2.14-2.79-.74-6.77.51-10.06,2.11-5.56,3.55-11.36,4.28-17.26.16-1.33-.11-3.17-1.45-3.25-.41-.02-.8.16-1.17.34-6.53,3.35-10.42,10.13-15.4,15.53-.95,1.03-1.97,2.03-3.24,2.6s-2.85.64-4.01-.15c-1.27-.87-1.73-2.61-1.47-4.14s1.11-2.88,2.01-4.13c3.02-4.2,6.83-7.77,10.84-11.04,4.58-3.73,9.74-7.21,15.62-7.81,1.55-.16,3.22-1.08,4.61-1.19,1.62-.12,2.42,1.13,3.41,2.43,2.05,2.7,3.35,5.94,4.08,9.23Z" style="fill: #024525; stroke-width: 0px;"/>
        <path d="M13.42,50.6c-3.35,2.87-6.71,5.75-9.6,9.09-1.95,2.25-3.74,4.9-3.83,7.88.88.84,2.32.08,3.23-.72,3.11-2.74,5.71-6.02,8.85-8.72s7.07-4.85,11.21-4.66c0,1.05-1.28,1.54-2.31,1.79-3.88.94-7.61,2.46-11.04,4.51-2.46,1.47-4.89,3.36-5.84,6.06-.38,1.09-.51,2.26-.89,3.36-.56,1.6-1.68,3.04-1.81,4.73-.13,1.7.77,3.28,1.63,4.75.4.67.98,1.44,1.75,1.35.46-.06.81-.41,1.13-.74,3.52-3.76,6.41-8.08,8.97-12.55,1.19-2.08,2.4-4.29,4.41-5.61,2.09-1.36,4.71-1.53,7.2-1.66-1.11,4.21-3.16,8.12-4.47,12.28s-1.83,8.84.08,12.75c.49,1.01,1.54,2.08,2.57,1.61.38-.17.65-.53.89-.88,3.73-5.44,5.55-12.01,6.19-18.58.41-4.16.37-8.36.18-12.53-.11-2.3.64-8.96-1.71-10.23-1.72-.93-6.52.5-8.19,1.06-3.29,1.11-6.02,3.45-8.61,5.67Z" style="fill: #173a22; stroke-width: 0px;"/>
        <path d="M39.34,25.12c-4.4.83-9,1.75-12.5,4.56-1.88,1.51-3.33,3.48-5.05,5.18-1.26,1.24-2.66,2.33-3.76,3.71-2.44,3.06-3.09,7.13-3.65,11-.08.56-.16,1.14.05,1.67.37.94,1.57,1.32,2.55,1.07s1.74-.99,2.39-1.77c2.24-2.69,3.47-6.06,5.15-9.13s4.09-6.06,7.48-6.96c1.86,3.77-.18,8.26-2.54,11.74s-5.22,7.09-5.06,11.29c.02.57.11,1.16.42,1.64.69,1.09,2.31,1.24,3.46.67s1.95-1.66,2.67-2.72c2.97-4.37,5.56-9,7.72-13.82,1.04-2.32,2.13-4.86,4.37-6.08,1.48,4.05.4,8.53-.31,12.79-.56,3.31-.88,6.67-.98,10.02-.05,1.79-.03,3.61.5,5.32s1.64,3.31,3.27,4.05c2.16-.57,4.01-2.23,4.81-4.32.45-1.16.58-2.42.7-3.66.54-5.47.94-10.96,1.21-16.45.21-4.28.3-8.73-1.35-12.69-2.25-5.38-7.91-9.21-13.74-9.06-.67.02-1.4.1-1.9.56s-.57,1.4.02,1.74" style="fill: #024525; stroke-width: 0px;"/>
        <path d="M36.88,35.77c-1.33.87-2.65,1.73-3.98,2.6-4.02,2.63-8.24,5.48-10.25,9.84-.54,1.16-.9,2.48-.57,3.71s1.56,2.29,2.82,2.05c.99-.19,1.68-1.07,2.28-1.88,1.93-2.65,3.85-5.34,6.3-7.53s5.49-3.85,8.76-4.03c.46,1.16.17,2.48-.22,3.68-1.35,4.17-3.73,8-4.69,12.28s-.02,9.49,3.78,11.69c.95-1.11,1.91-2.21,2.86-3.32,1.05-1.22,2.12-2.46,2.78-3.93.96-2.13.98-4.55.99-6.88.01-3.09.02-6.18.03-9.26,0-1.68.5-3.91,2.18-4,1.3,1.76,1.51,4.07,1.7,6.25.51,5.97,1.21,11.93,2.09,17.86.14.96.33,1.99,1.04,2.65,1.07.97,2.88.58,3.89-.45s1.41-2.5,1.73-3.91c.94-4.13,1.54-8.34,1.78-12.56.16-2.77.14-5.67-1.06-8.17-1.27-2.63-3.68-4.49-6.09-6.15-2.72-1.87-5.84-3.91-9.19-4.35s-6.33,2.07-8.98,3.81Z" style="fill: #004f27; stroke-width: 0px;"/>
        <path d="M67.78,22.45c-1.32,1.52-1.2,3.82-.62,5.74s1.56,3.76,1.7,5.77c.22,2.99-1.42,5.82-1.65,8.81-.26,3.4,1.32,6.65,2.86,9.69.41.81.83,1.63,1.49,2.24,3.93-6.59,5.46-14.57,4.25-22.15-.16-.99-.18-2.32.77-2.65,1.8,1.54,2.67,3.94,2.93,6.3s0,4.74-.04,7.11c-.06,3.24.27,6.49.99,9.65.39,1.71.93,3.45,2.12,4.73.21.22.45.44.75.47.63.08,1.05-.61,1.3-1.2,1.92-4.55,3.88-9.27,3.8-14.21-.07-4.53-1.85-8.85-3.73-12.97,1.45.45,2.53,1.65,3.41,2.88,2.08,2.91,3.45,6.33,3.97,9.87.16,1.1.25,2.24.76,3.22,1,1.91,3.27,2.7,5.33,3.33.83.25,1.78.48,2.5,0,.57-.38.8-1.09.95-1.76,1.36-5.82-.14-12.24-3.94-16.86-1.1-1.33-2.36-2.51-3.64-3.67-4.18-3.77-8.87-7.5-14.39-9.02-1.9-.52-5.64-1.5-7.23,0-.68.64-.74,1.78-1.65,2.54s-2.15,1.14-2.99,2.1Z" style="fill: #004e27; stroke-width: 0px;"/>
      </g>
      <g>
        <path d="M117.2,35.66c-2.62,2.06-3.63,5.58-3.83,8.9s.27,6.67-.07,9.98c-.5,4.85-2.66,10.04-.36,14.33.43.8,1.12,1.59,2.02,1.64.69.04,1.32-.35,1.87-.77,3.28-2.49,5.31-6.36,6.27-10.36s.97-8.17.81-12.28c-.04-1.03-.08-2.08.27-3.05s1.21-1.82,2.24-1.84c.74,1.23.83,2.73.9,4.16.27,5.48.54,10.96.82,16.44.08,1.69.18,3.43.85,4.98s2.06,2.91,3.75,3.06c1.74.15,3.38-1.05,4.23-2.58s1.04-3.33,1.08-5.07c.11-4.41-.62-8.9-2.58-12.84-1-2.01-2.33-3.96-2.47-6.2-.03-.45.09-1.02.53-1.1.43-.08.74.38.94.77,2.53,5.1,5.06,10.2,7.59,15.29.64,1.29,1.3,2.61,2.32,3.63s2.48,1.71,3.9,1.43c2.24-.43,3.42-3.02,3.43-5.3,0-4.53-3.02-8.41-5.25-12.35-2.14-3.79-3.71-8.04-6.91-10.99-2.85-2.62-7.93-4.81-11.89-4.56-1.83.12-3.23,1.39-4.97,2.1-1.88.78-3.88,1.3-5.51,2.58Z" style="fill: #203020; stroke-width: 0px;"/>
        <path d="M98.34,31.33c-.62.97-1.04,2.05-1.46,3.13-1,2.6-2.02,5.27-2.07,8.06-.02.81.07,1.67.52,2.34s1.39,1.08,2.12.71c.51-.26.8-.81,1.03-1.33,1.8-4.04,2.56-8.76,5.73-11.84,1.66,3.23,1.7,7.08,1.08,10.66s-1.85,7.03-2.63,10.58c-.18.84-.34,1.74-.08,2.56s1.09,1.53,1.93,1.36c.78-.15,1.25-.92,1.63-1.61,1.87-3.43,3.75-6.91,4.64-10.71,1.09-4.68.75-10.02,3.85-13.7,3.11,7.33,2.38,15.63,3.09,23.57.07.76.31,1.7,1.06,1.84.31.06.62-.05.92-.15,1.09-.39,2.17-.77,3.26-1.16.59-.21,1.21-.44,1.6-.93.36-.45.47-1.04.57-1.61.8-4.93,1.14-9.97.4-14.91-.96-6.43-4.24-15.99-11.87-16.28-2.75-.1-4.57.63-6.78,2.19-2.9,2.05-6.6,4.18-8.55,7.23Z" style="fill: #213923; stroke-width: 0px;"/>
        <g id="tree-3" data-name="tree">
          <path d="M100.08,145.92c2.4-4.43,3.9-9.97,6.2-35.25,1.7-18.46,2.5-27.68,1.2-31.56-5.14-20.83-17.04-29.57-21.97-30.42-.83-.14.17-8.34,9.57.15,2.6,2.4,6.6,5.54,14.8,14.4,7.7,8.3,7.56-8.32,10.46-12.2,6.4-8.3,11.44,6.11,22.54-1.46,12.48-2.26,18.43-9.16,19.13-6.76.8,2.95-12.33,14.09-35.02,12.13-9.1,7.94-.61,18.62-3.51,26-1.5,4.06-5.3,6.35-5.1,23.89.4,24.18,2.31,47.92,4.31,49.76,1.8,1.66,10.6.93,14.4,3.7.5.37,4.5,3.32,4.3,4.98-.3,2.58-9.4-.55-22.2.74-12.3,1.29-25.31-7.4-25.71-9.8-.2-1.11,3.3-2.21,6.6-8.3Z" style="fill: #483e11; stroke-width: 0px;"/>
        </g>
        <path d="M85.52,24.43h.2" style="fill: none; stroke-width: 0px;"/>
        <path d="M90.03,67.3c-2.6,7.45-3.86,15.37-3.71,23.27.02,1.14.08,2.31.54,3.35s1.42,1.94,2.55,2.01c4.42-7.64,5.88-16.58,8.79-24.92.27-.78.58-1.6,1.2-2.15s1.63-.76,2.27-.23c.73.61.6,1.75.41,2.68-1.8,8.55-3.47,17.21-3.22,25.95,0,.28.03.59.23.78.49.47,1.23-.21,1.54-.82,3.8-7.44,6.55-15.37,9.16-23.32.31-.95.94-2.11,1.93-1.97.84.12,1.21,1.12,1.38,1.95,1.53,7.23,1.58,14.93,4.88,21.54.56,1.13,1.44,2.35,2.7,2.35,1.42,0,2.32-1.52,2.72-2.89,1.18-3.93.86-8.19-.21-12.15s-2.85-7.69-4.62-11.39c-2.24-4.67-4.63-9.53-8.83-12.56-3.06-2.21-8.2-4.78-11.78-2.63-4.06,2.44-6.41,6.81-7.92,11.14Z" style="fill: #123e23; stroke-width: 0px;"/>
        <path d="M171.12,60.87c.96,3.24,1.08,7.31-1.57,9.39-.91-3.12-1.29-6.39-2.24-9.5s-2.59-6.19-5.35-7.91c-.41-.26-.9-.49-1.37-.36-.96.26-.98,1.6-.77,2.57,1.2,5.65,2.82,11.34,2.36,17.1s-3.59,11.76-9.06,13.63c3.14-8.58,6.32-17.93,3.61-26.66-.32-1.04-1.05-2.25-2.13-2.08-.56.09-.98.56-1.33,1.02-1.05,1.35-1.96,2.8-2.7,4.33-2.48,5.11-3.01,10.96-5.3,16.16-.5,1.13-1.1,2.26-2.06,3.03s-2.35,1.13-3.45.58c-.83-.41-1.38-1.27-1.62-2.17-.62-2.23.39-4.56,1.37-6.66,2.74-5.84,5.47-11.69,8.21-17.53.74-1.57,1.48-3.16,2.56-4.53,1.62-2.04,3.98-3.57,6.28-4.77,2.55-1.33,3.8-.73,5.96,1.13,4.04,3.47,7.09,8.12,8.62,13.23Z" style="fill: #123e23; stroke-width: 0px;"/>
        <path d="M70.35,53.59c-3.35,2.87-6.71,5.75-9.6,9.09-1.95,2.25-3.74,4.9-3.83,7.88.88.84,2.32.08,3.23-.72,3.11-2.74,5.71-6.02,8.85-8.72s7.07-4.85,11.21-4.66c0,1.05-1.28,1.54-2.31,1.79-3.88.94-7.61,2.46-11.04,4.51-2.46,1.47-4.89,3.36-5.84,6.06-.38,1.09-.51,2.26-.89,3.36-.56,1.6-1.68,3.04-1.81,4.73-.13,1.7.77,3.28,1.63,4.75.4.67.98,1.44,1.75,1.35.46-.06.81-.41,1.13-.74,3.52-3.76,6.41-8.08,8.97-12.55,1.19-2.08,2.4-4.29,4.41-5.61,2.09-1.36,4.71-1.53,7.2-1.66-1.11,4.21-3.16,8.12-4.47,12.28s-1.83,8.84.08,12.75c.49,1.01,1.54,2.08,2.57,1.61.38-.17.65-.53.89-.88,3.73-5.44,5.55-12.01,6.19-18.58.41-4.16.37-8.36.18-12.53-.11-2.3.64-8.96-1.71-10.23-1.72-.93-6.52.5-8.19,1.06-3.29,1.11-6.02,3.45-8.61,5.67Z" style="fill: #173a22; stroke-width: 0px;"/>
        <path d="M96.26,28.1c-4.4.83-9,1.75-12.5,4.56-1.88,1.51-3.33,3.48-5.05,5.18-1.26,1.24-2.66,2.33-3.76,3.71-2.44,3.06-3.09,7.13-3.65,11-.08.56-.16,1.14.05,1.67.37.94,1.57,1.32,2.55,1.07s1.74-.99,2.39-1.77c2.24-2.69,3.47-6.06,5.15-9.13s4.09-6.06,7.48-6.96c1.86,3.77-.18,8.26-2.54,11.74s-5.22,7.09-5.06,11.29c.02.57.11,1.16.42,1.64.69,1.09,2.31,1.24,3.46.67s1.95-1.66,2.67-2.72c2.97-4.37,5.56-9,7.72-13.82,1.04-2.32,2.13-4.86,4.37-6.08,1.48,4.05.4,8.53-.31,12.79-.56,3.31-.88,6.67-.98,10.02-.05,1.79-.03,3.61.5,5.32s1.64,3.31,3.27,4.05c2.16-.57,4.01-2.23,4.81-4.32.45-1.16.58-2.42.7-3.66.54-5.47.94-10.96,1.21-16.45.21-4.28.3-8.73-1.35-12.69-2.25-5.38-7.91-9.21-13.74-9.06-.67.02-1.4.1-1.9.56s-.57,1.4.02,1.74" style="fill: #024525; stroke-width: 0px;"/>
        <path d="M93.8,38.75c-1.33.87-2.65,1.73-3.98,2.6-4.02,2.63-8.24,5.48-10.25,9.84-.54,1.16-.9,2.48-.57,3.71s1.56,2.29,2.82,2.05c.99-.19,1.68-1.07,2.28-1.88,1.93-2.65,3.85-5.34,6.3-7.53s5.49-3.85,8.76-4.03c.46,1.16.17,2.48-.22,3.68-1.35,4.17-3.73,8-4.69,12.28s-.02,9.49,3.78,11.69c.95-1.11,1.91-2.21,2.86-3.32,1.05-1.22,2.12-2.46,2.78-3.93.96-2.13.98-4.55.99-6.88.01-3.09.02-6.18.03-9.26,0-1.68.5-3.91,2.18-4,1.3,1.76,1.51,4.07,1.7,6.25.51,5.97,1.21,11.93,2.09,17.86.14.96.33,1.99,1.04,2.65,1.07.97,2.88.58,3.89-.45s1.41-2.5,1.73-3.91c.94-4.13,1.54-8.34,1.78-12.56.16-2.77.14-5.67-1.06-8.17-1.27-2.63-3.68-4.49-6.09-6.15-2.72-1.87-5.84-3.91-9.19-4.35s-6.33,2.07-8.98,3.81Z" style="fill: #004f27; stroke-width: 0px;"/>
        <path d="M124.7,25.44c-1.32,1.52-1.2,3.82-.62,5.74s1.56,3.76,1.7,5.77c.22,2.99-1.42,5.82-1.65,8.81-.26,3.4,1.32,6.65,2.86,9.69.41.81.83,1.63,1.49,2.24,3.93-6.59,5.46-14.57,4.25-22.15-.16-.99-.18-2.32.77-2.65,1.8,1.54,2.67,3.94,2.93,6.3s0,4.74-.04,7.11c-.06,3.24.27,6.49.99,9.65.39,1.71.93,3.45,2.12,4.73.21.22.45.44.75.47.63.08,1.05-.61,1.3-1.2,1.92-4.55,3.88-9.27,3.8-14.21-.07-4.53-1.85-8.85-3.73-12.97,1.45.45,2.53,1.65,3.41,2.88,2.08,2.91,3.45,6.33,3.97,9.87.16,1.1.25,2.24.76,3.22,1,1.91,3.27,2.7,5.33,3.33.83.25,1.78.48,2.5,0,.57-.38.8-1.09.95-1.76,1.36-5.82-.14-12.24-3.94-16.86-1.1-1.33-2.36-2.51-3.64-3.67-4.18-3.77-8.87-7.5-14.39-9.02-1.9-.52-5.64-1.5-7.23,0-.68.64-.74,1.78-1.65,2.54s-2.15,1.14-2.99,2.1Z" style="fill: #004e27; stroke-width: 0px;"/>
        <path d="M139.89,103.48c-1.15-3.22-3.71-5.72-5.22-8.79-3.6-7.29-.69-15.92-.14-24.03.3-4.51-.16-9.08-1.37-13.44-.39-1.39-.85-2.82-.62-4.24s1.43-2.81,2.87-2.68c1.12,5.38,2.05,10.81,2.77,16.26.2,1.5.38,3.02.18,4.51-.23,1.78-.99,3.44-1.52,5.15-1.09,3.49-1.24,7.28-.44,10.85,1.15,5.09,4.15,9.6,5.48,14.65,1.07,4.07,1.02,8.33.96,12.53-.02,1.24-.04,2.51-.51,3.66-.42,1.03-1.18,1.89-1.8,2.81-1.75,2.57-2.53,5.79-2.16,8.88.08.66-2.34-.67-2.56-1.12-.47-.98.04-1.06.14-1.95.24-2.08,1.4-4.94,2-7.04,1.46-5.14,3.87-10.67,1.96-16.02Z" style="fill: #29391d; stroke-width: 0px;"/>
      </g>
      <g>
        <path d="M79.81,62.04c-2.62,2.06-3.63,5.58-3.83,8.9s.27,6.67-.07,9.98c-.5,4.85-2.66,10.04-.36,14.33.43.8,1.12,1.59,2.02,1.64.69.04,1.32-.35,1.87-.77,3.28-2.49,5.31-6.36,6.27-10.36s.97-8.17.81-12.28c-.04-1.03-.08-2.08.27-3.05s1.21-1.82,2.24-1.84c.74,1.23.83,2.73.9,4.16.27,5.48.54,10.96.82,16.44.08,1.69.18,3.43.85,4.98s2.06,2.91,3.75,3.06c1.74.15,3.38-1.05,4.23-2.58s1.04-3.33,1.08-5.07c.11-4.41-.62-8.9-2.58-12.84-1-2.01-2.33-3.96-2.47-6.2-.03-.45.09-1.02.53-1.1.43-.08.74.38.94.77,2.53,5.1,5.06,10.2,7.59,15.29.64,1.29,1.3,2.61,2.32,3.63s2.48,1.71,3.9,1.43c2.24-.43,3.42-3.02,3.43-5.3,0-4.53-3.02-8.41-5.25-12.35-2.14-3.79-3.71-8.04-6.91-10.99-2.85-2.62-7.93-4.81-11.89-4.56-1.83.12-3.23,1.39-4.97,2.1-1.88.78-3.88,1.3-5.51,2.58Z" style="fill: #203020; stroke-width: 0px;"/>
        <path d="M60.95,57.71c-.62.97-1.04,2.05-1.46,3.13-1,2.6-2.02,5.27-2.07,8.06-.02.81.07,1.67.52,2.34s1.39,1.08,2.12.71c.51-.26.8-.81,1.03-1.33,1.8-4.04,2.56-8.76,5.73-11.84,1.66,3.23,1.7,7.08,1.08,10.66s-1.85,7.03-2.63,10.58c-.18.84-.34,1.74-.08,2.56s1.09,1.53,1.93,1.36c.78-.15,1.25-.92,1.63-1.61,1.87-3.43,3.75-6.91,4.64-10.71,1.09-4.68.75-10.02,3.85-13.7,3.11,7.33,2.38,15.63,3.09,23.57.07.76.31,1.7,1.06,1.84.31.06.62-.05.92-.15,1.09-.39,2.17-.77,3.26-1.16.59-.21,1.21-.44,1.6-.93.36-.45.47-1.04.57-1.61.8-4.93,1.14-9.97.4-14.91-.96-6.43-4.24-15.99-11.87-16.28-2.75-.1-4.57.63-6.78,2.19-2.9,2.05-6.6,4.18-8.55,7.23Z" style="fill: #213923; stroke-width: 0px;"/>
        <g id="tree-4" data-name="tree">
          <path d="M62.69,172.3c2.4-4.43,3.9-9.97,6.2-35.25,1.7-18.46,2.5-27.68,1.2-31.56-5.14-20.83-17.04-29.57-21.97-30.42-.83-.14.17-8.34,9.57.15,2.6,2.4,6.6,5.54,14.8,14.4,7.7,8.3,7.56-8.32,10.46-12.2,6.4-8.3,11.44,6.11,22.54-1.46,12.48-2.26,18.43-9.16,19.13-6.76.8,2.95-12.33,14.09-35.02,12.13-9.1,7.94-.61,18.62-3.51,26-1.5,4.06-5.3,6.35-5.1,23.89.4,24.18,2.31,47.92,4.31,49.76,1.8,1.66,10.6.93,14.4,3.7.5.37,4.5,3.32,4.3,4.98-.3,2.58-9.4-.55-22.2.74-12.3,1.29-25.31-7.4-25.71-9.8-.2-1.11,3.3-2.21,6.6-8.3Z" style="fill: #605217; stroke-width: 0px;"/>
        </g>
        <path d="M50.74,150.06c-.33-.87-.66-1.74-.76-2.66-.17-1.66.42-3.28.95-4.86.83-2.48,1.49-5.02,2.16-7.55.45-1.71.9-3.42,1.28-5.14,2.51-11.26,2.16-23.14-1.01-34.23-.47-1.65-1.01-3.3-1.07-5.01-.12-3.28,1.5-6.46,1.25-9.74-.11-1.42-.56-2.87-.15-4.23s2.31-2.34,3.26-1.28c1.18,4.12,1.52,8.48.98,12.73-.22,1.74-.59,3.47-.59,5.23,0,1.7.32,3.37.64,5.04,2.17,11.44,3.77,23.47.17,34.54-1.96,6.03-5.46,12.33-3.37,18.31.43,1.23,2.1,5.06-.48,5.02-1.76-.02-2.8-4.94-3.26-6.16Z" style="fill: #3a4b20; stroke-width: 0px;"/>
        <path d="M48.12,50.81h.2" style="fill: none; stroke-width: 0px;"/>
        <path d="M52.64,93.69c-2.6,7.45-3.86,15.37-3.71,23.27.02,1.14.08,2.31.54,3.35s1.42,1.94,2.55,2.01c4.42-7.64,5.88-16.58,8.79-24.92.27-.78.58-1.6,1.2-2.15s1.63-.76,2.27-.23c.73.61.6,1.75.41,2.68-1.8,8.55-3.47,17.21-3.22,25.95,0,.28.03.59.23.78.49.47,1.23-.21,1.54-.82,3.8-7.44,6.55-15.37,9.16-23.32.31-.95.94-2.11,1.93-1.97.84.12,1.21,1.12,1.38,1.95,1.53,7.23,1.58,14.93,4.88,21.54.56,1.13,1.44,2.35,2.7,2.35,1.42,0,2.32-1.52,2.72-2.89,1.18-3.93.86-8.19-.21-12.15s-2.85-7.69-4.62-11.39c-2.24-4.67-4.63-9.53-8.83-12.56-3.06-2.21-8.2-4.78-11.78-2.63-4.06,2.44-6.41,6.81-7.92,11.14Z" style="fill: #123e23; stroke-width: 0px;"/>
        <path d="M133.73,87.25c.96,3.24,1.08,7.31-1.57,9.39-.91-3.12-1.29-6.39-2.24-9.5s-2.59-6.19-5.35-7.91c-.41-.26-.9-.49-1.37-.36-.96.26-.98,1.6-.77,2.57,1.2,5.65,2.82,11.34,2.36,17.1s-3.59,11.76-9.06,13.63c3.14-8.58,6.32-17.93,3.61-26.66-.32-1.04-1.05-2.25-2.13-2.08-.56.09-.98.56-1.33,1.02-1.05,1.35-1.96,2.8-2.7,4.33-2.48,5.11-3.01,10.96-5.3,16.16-.5,1.13-1.1,2.26-2.06,3.03s-2.35,1.13-3.45.58c-.83-.41-1.38-1.27-1.62-2.17-.62-2.23.39-4.56,1.37-6.66,2.74-5.84,5.47-11.69,8.21-17.53.74-1.57,1.48-3.16,2.56-4.53,1.62-2.04,3.98-3.57,6.28-4.77,2.55-1.33,3.8-.73,5.96,1.13,4.04,3.47,7.09,8.12,8.62,13.23Z" style="fill: #123e23; stroke-width: 0px;"/>
        <path d="M106.57,87.35c1.07,4.8,1.01,9.76.95,14.67-.07,5.48-.17,11.12-2.31,16.17-.29.69-.97,1.5-1.63,1.14-.35-.19-.47-.63-.55-1.02-1.15-5.76-.3-11.69-.03-17.56.28-5.86-.13-12.09-3.38-16.97-.61-.91-1.75-1.86-2.67-1.26-.57.37-.68,1.14-.74,1.82-.6,6.7-1.2,13.39-1.8,20.09-.21,2.39-.44,4.84-1.38,7.05s-2.74,4.2-5.08,4.74c-2.14-2.79-.74-6.77.51-10.06,2.11-5.56,3.55-11.36,4.28-17.26.16-1.33-.11-3.17-1.45-3.25-.41-.02-.8.16-1.17.34-6.53,3.35-10.42,10.13-15.4,15.53-.95,1.03-1.97,2.03-3.24,2.6s-2.85.64-4.01-.15c-1.27-.87-1.73-2.61-1.47-4.14s1.11-2.88,2.01-4.13c3.02-4.2,6.83-7.77,10.84-11.04,4.58-3.73,9.74-7.21,15.62-7.81,1.55-.16,3.22-1.08,4.61-1.19,1.62-.12,2.42,1.13,3.41,2.43,2.05,2.7,3.35,5.94,4.08,9.23Z" style="fill: #024525; stroke-width: 0px;"/>
        <path d="M32.96,79.97c-3.35,2.87-6.71,5.75-9.6,9.09-1.95,2.25-3.74,4.9-3.83,7.88.88.84,2.32.08,3.23-.72,3.11-2.74,5.71-6.02,8.85-8.72s7.07-4.85,11.21-4.66c0,1.05-1.28,1.54-2.31,1.79-3.88.94-7.61,2.46-11.04,4.51-2.46,1.47-4.89,3.36-5.84,6.06-.38,1.09-.51,2.26-.89,3.36-.56,1.6-1.68,3.04-1.81,4.73-.13,1.7.77,3.28,1.63,4.75.4.67.98,1.44,1.75,1.35.46-.06.81-.41,1.13-.74,3.52-3.76,6.41-8.08,8.97-12.55,1.19-2.08,2.4-4.29,4.41-5.61,2.09-1.36,4.71-1.53,7.2-1.66-1.11,4.21-3.16,8.12-4.47,12.28s-1.83,8.84.08,12.75c.49,1.01,1.54,2.08,2.57,1.61.38-.17.65-.53.89-.88,3.73-5.44,5.55-12.01,6.19-18.58.41-4.16.37-8.36.18-12.53-.11-2.3.64-8.96-1.71-10.23-1.72-.93-6.52.5-8.19,1.06-3.29,1.11-6.02,3.45-8.61,5.67Z" style="fill: #173a22; stroke-width: 0px;"/>
        <path d="M58.87,54.49c-4.4.83-9,1.75-12.5,4.56-1.88,1.51-3.33,3.48-5.05,5.18-1.26,1.24-2.66,2.33-3.76,3.71-2.44,3.06-3.09,7.13-3.65,11-.08.56-.16,1.14.05,1.67.37.94,1.57,1.32,2.55,1.07s1.74-.99,2.39-1.77c2.24-2.69,3.47-6.06,5.15-9.13s4.09-6.06,7.48-6.96c1.86,3.77-.18,8.26-2.54,11.74s-5.22,7.09-5.06,11.29c.02.57.11,1.16.42,1.64.69,1.09,2.31,1.24,3.46.67s1.95-1.66,2.67-2.72c2.97-4.37,5.56-9,7.72-13.82,1.04-2.32,2.13-4.86,4.37-6.08,1.48,4.05.4,8.53-.31,12.79-.56,3.31-.88,6.67-.98,10.02-.05,1.79-.03,3.61.5,5.32s1.64,3.31,3.27,4.05c2.16-.57,4.01-2.23,4.81-4.32.45-1.16.58-2.42.7-3.66.54-5.47.94-10.96,1.21-16.45.21-4.28.3-8.73-1.35-12.69-2.25-5.38-7.91-9.21-13.74-9.06-.67.02-1.4.1-1.9.56s-.57,1.4.02,1.74" style="fill: #024525; stroke-width: 0px;"/>
        <path d="M56.41,65.14c-1.33.87-2.65,1.73-3.98,2.6-4.02,2.63-8.24,5.48-10.25,9.84-.54,1.16-.9,2.48-.57,3.71s1.56,2.29,2.82,2.05c.99-.19,1.68-1.07,2.28-1.88,1.93-2.65,3.85-5.34,6.3-7.53s5.49-3.85,8.76-4.03c.46,1.16.17,2.48-.22,3.68-1.35,4.17-3.73,8-4.69,12.28s-.02,9.49,3.78,11.69c.95-1.11,1.91-2.21,2.86-3.32,1.05-1.22,2.12-2.46,2.78-3.93.96-2.13.98-4.55.99-6.88.01-3.09.02-6.18.03-9.26,0-1.68.5-3.91,2.18-4,1.3,1.76,1.51,4.07,1.7,6.25.51,5.97,1.21,11.93,2.09,17.86.14.96.33,1.99,1.04,2.65,1.07.97,2.88.58,3.89-.45s1.41-2.5,1.73-3.91c.94-4.13,1.54-8.34,1.78-12.56.16-2.77.14-5.67-1.06-8.17-1.27-2.63-3.68-4.49-6.09-6.15-2.72-1.87-5.84-3.91-9.19-4.35s-6.33,2.07-8.98,3.81Z" style="fill: #004f27; stroke-width: 0px;"/>
        <path d="M87.31,51.82c-1.32,1.52-1.2,3.82-.62,5.74s1.56,3.76,1.7,5.77c.22,2.99-1.42,5.82-1.65,8.81-.26,3.4,1.32,6.65,2.86,9.69.41.81.83,1.63,1.49,2.24,3.93-6.59,5.46-14.57,4.25-22.15-.16-.99-.18-2.32.77-2.65,1.8,1.54,2.67,3.94,2.93,6.3s0,4.74-.04,7.11c-.06,3.24.27,6.49.99,9.65.39,1.71.93,3.45,2.12,4.73.21.22.45.44.75.47.63.08,1.05-.61,1.3-1.2,1.92-4.55,3.88-9.27,3.8-14.21-.07-4.53-1.85-8.85-3.73-12.97,1.45.45,2.53,1.65,3.41,2.88,2.08,2.91,3.45,6.33,3.97,9.87.16,1.1.25,2.24.76,3.22,1,1.91,3.27,2.7,5.33,3.33.83.25,1.78.48,2.5,0,.57-.38.8-1.09.95-1.76,1.36-5.82-.14-12.24-3.94-16.86-1.1-1.33-2.36-2.51-3.64-3.67-4.18-3.77-8.87-7.5-14.39-9.02-1.9-.52-5.64-1.5-7.23,0-.68.64-.74,1.78-1.65,2.54s-2.15,1.14-2.99,2.1Z" style="fill: #004e27; stroke-width: 0px;"/>
      </g>
      <g>
        <path d="M199.49,59.05c2.62,2.06,3.63,5.58,3.83,8.9s-.27,6.67.07,9.98c.5,4.85,2.66,10.04.36,14.33-.43.8-1.12,1.59-2.02,1.64-.69.04-1.32-.35-1.87-.77-3.28-2.49-5.31-6.36-6.27-10.36s-.97-8.17-.81-12.28c.04-1.03.08-2.08-.27-3.05s-1.21-1.82-2.24-1.84c-.74,1.23-.83,2.73-.9,4.16-.27,5.48-.54,10.96-.82,16.44-.08,1.69-.18,3.43-.85,4.98s-2.06,2.91-3.75,3.06c-1.74.15-3.38-1.05-4.23-2.58s-1.04-3.33-1.08-5.07c-.11-4.41.62-8.9,2.58-12.84,1-2.01,2.33-3.96,2.47-6.2.03-.45-.09-1.02-.53-1.1-.43-.08-.74.38-.94.77-2.53,5.1-5.06,10.2-7.59,15.29-.64,1.29-1.3,2.61-2.32,3.63s-2.48,1.71-3.9,1.43c-2.24-.43-3.42-3.02-3.43-5.3,0-4.53,3.02-8.41,5.25-12.35,2.14-3.79,3.71-8.04,6.91-10.99,2.85-2.62,7.93-4.81,11.89-4.56,1.83.12,3.23,1.39,4.97,2.1,1.88.78,3.88,1.3,5.51,2.58Z" style="fill: #203020; stroke-width: 0px;"/>
        <path d="M218.36,54.72c.62.97,1.04,2.05,1.46,3.13,1,2.6,2.02,5.27,2.07,8.06.02.81-.07,1.67-.52,2.34s-1.39,1.08-2.12.71c-.51-.26-.8-.81-1.03-1.33-1.8-4.04-2.56-8.76-5.73-11.84-1.66,3.23-1.7,7.08-1.08,10.66s1.85,7.03,2.63,10.58c.18.84.34,1.74.08,2.56s-1.09,1.53-1.93,1.36c-.78-.15-1.25-.92-1.63-1.61-1.87-3.43-3.75-6.91-4.64-10.71-1.09-4.68-.75-10.02-3.85-13.7-3.11,7.33-2.38,15.63-3.09,23.57-.07.76-.31,1.7-1.06,1.84-.31.06-.62-.05-.92-.15-1.09-.39-2.17-.77-3.26-1.16-.59-.21-1.21-.44-1.6-.93-.36-.45-.47-1.04-.57-1.61-.8-4.93-1.14-9.97-.4-14.91.96-6.43,4.24-15.99,11.87-16.28,2.75-.1,4.57.63,6.78,2.19,2.9,2.05,6.6,4.18,8.55,7.23Z" style="fill: #213923; stroke-width: 0px;"/>
        <g id="tree-5" data-name="tree">
          <path d="M223.21,177.62c-.4,2.4-13.41,11.09-25.71,9.8-12.8-1.29-21.9,1.85-22.2-.74-.2-1.66,3.8-4.61,4.3-4.98,3.8-2.77,12.6-2.04,14.4-3.7,2-1.85,3.91-25.59,4.31-49.76.2-17.53-3.6-19.83-5.1-23.89-2.9-7.38,5.59-18.07-3.51-26-22.7,1.96-35.82-9.18-35.02-12.13.7-2.4,6.65,4.5,19.13,6.76,11.1,7.57,16.14-6.85,22.54,1.46,2.9,3.88,2.76,20.51,10.46,12.2,8.2-8.86,12.2-12,14.8-14.4,9.4-8.49,10.39-.3,9.57-.15-4.93.85-16.83,9.59-21.97,30.42-1.3,3.88-.5,13.1,1.2,31.56,2.3,25.28,3.8,30.82,6.2,35.25,3.3,6.09,6.8,7.2,6.6,8.3Z" style="fill: #483e11; stroke-width: 0px;"/>
          <path d="M170.2,150.99c-.47-3.38.27-6.79.97-10.13,3.11-14.86,5.38-30.59.62-45.01-2.82-8.56-8.12-16.98-6.61-25.87,1-.22,2.01.47,2.53,1.35s.65,1.92.84,2.93c1.62,8.96,7.28,16.74,9.21,25.63,1.32,6.09.82,12.41.18,18.6-.8,7.74-1.82,15.49-4.01,22.96-.49,1.66-1.03,3.32-1.23,5.03-.29,2.51,2.19,7.7,1.23,9.6-1.68,3.31-3.54-3.81-3.72-5.09Z" style="fill: #1f4723; stroke-width: 0px;"/>
        </g>
        <path d="M231.18,47.83h-.2" style="fill: none; stroke-width: 0px;"/>
        <path d="M226.66,90.7c2.6,7.45,3.86,15.37,3.71,23.27-.02,1.14-.08,2.31-.54,3.35s-1.42,1.94-2.55,2.01c-4.42-7.64-5.88-16.58-8.79-24.92-.27-.78-.58-1.6-1.2-2.15s-1.63-.76-2.27-.23c-.73.61-.6,1.75-.41,2.68,1.8,8.55,3.47,17.21,3.22,25.95,0,.28-.03.59-.23.78-.49.47-1.23-.21-1.54-.82-3.8-7.44-6.55-15.37-9.16-23.32-.31-.95-.94-2.11-1.93-1.97-.84.12-1.21,1.12-1.38,1.95-1.53,7.23-1.58,14.93-4.88,21.54-.56,1.13-1.44,2.35-2.7,2.35-1.42,0-2.32-1.52-2.72-2.89-1.18-3.93-.86-8.19.21-12.15s2.85-7.69,4.62-11.39c2.24-4.67,4.63-9.53,8.83-12.56,3.06-2.21,8.2-4.78,11.78-2.63,4.06,2.44,6.41,6.81,7.92,11.14Z" style="fill: #123e23; stroke-width: 0px;"/>
        <path d="M145.57,84.27c-.96,3.24-1.08,7.31,1.57,9.39.91-3.12,1.29-6.39,2.24-9.5s2.59-6.19,5.35-7.91c.41-.26.9-.49,1.37-.36.96.26.98,1.6.77,2.57-1.2,5.65-2.82,11.34-2.36,17.1s3.59,11.76,9.06,13.63c-3.14-8.58-6.32-17.93-3.61-26.66.32-1.04,1.05-2.25,2.13-2.08.56.09.98.56,1.33,1.02,1.05,1.35,1.96,2.8,2.7,4.33,2.48,5.11,3.01,10.96,5.3,16.16.5,1.13,1.1,2.26,2.06,3.03s2.35,1.13,3.45.58c.83-.41,1.38-1.27,1.62-2.17.62-2.23-.39-4.56-1.37-6.66-2.74-5.84-5.47-11.69-8.21-17.53-.74-1.57-1.48-3.16-2.56-4.53-1.62-2.04-3.98-3.57-6.28-4.77-2.55-1.33-3.8-.73-5.96,1.13-4.04,3.47-7.09,8.12-8.62,13.23Z" style="fill: #123e23; stroke-width: 0px;"/>
        <path d="M172.73,84.36c-1.07,4.8-1.01,9.76-.95,14.67.07,5.48.17,11.12,2.31,16.17.29.69.97,1.5,1.63,1.14.35-.19.47-.63.55-1.02,1.15-5.76.3-11.69.03-17.56-.28-5.86.13-12.09,3.38-16.97.61-.91,1.75-1.86,2.67-1.26.57.37.68,1.14.74,1.82.6,6.7,1.2,13.39,1.8,20.09.21,2.39.44,4.84,1.38,7.05s2.74,4.2,5.08,4.74c2.14-2.79.74-6.77-.51-10.06-2.11-5.56-3.55-11.36-4.28-17.26-.16-1.33.11-3.17,1.45-3.25.41-.02.8.16,1.17.34,6.53,3.35,10.42,10.13,15.4,15.53.95,1.03,1.97,2.03,3.24,2.6s2.85.64,4.01-.15c1.27-.87,1.73-2.61,1.47-4.14s-1.11-2.88-2.01-4.13c-3.02-4.2-6.83-7.77-10.84-11.04-4.58-3.73-9.74-7.21-15.62-7.81-1.55-.16-3.22-1.08-4.61-1.19-1.62-.12-2.42,1.13-3.41,2.43-2.05,2.7-3.35,5.94-4.08,9.23Z" style="fill: #024525; stroke-width: 0px;"/>
        <path d="M246.34,76.98c3.35,2.87,6.71,5.75,9.6,9.09,1.95,2.25,3.74,4.9,3.83,7.88-.88.84-2.32.08-3.23-.72-3.11-2.74-5.71-6.02-8.85-8.72s-7.07-4.85-11.21-4.66c0,1.05,1.28,1.54,2.31,1.79,3.88.94,7.61,2.46,11.04,4.51,2.46,1.47,4.89,3.36,5.84,6.06.38,1.09.51,2.26.89,3.36.56,1.6,1.68,3.04,1.81,4.73.13,1.7-.77,3.28-1.63,4.75-.4.67-.98,1.44-1.75,1.35-.46-.06-.81-.41-1.13-.74-3.52-3.76-6.41-8.08-8.97-12.55-1.19-2.08-2.4-4.29-4.41-5.61-2.09-1.36-4.71-1.53-7.2-1.66,1.11,4.21,3.16,8.12,4.47,12.28,1.31,4.16,1.83,8.84-.08,12.75-.49,1.01-1.54,2.08-2.57,1.61-.38-.17-.65-.53-.89-.88-3.73-5.44-5.55-12.01-6.19-18.58-.41-4.16-.37-8.36-.18-12.53.11-2.3-.64-8.96,1.71-10.23,1.72-.93,6.52.5,8.19,1.06,3.29,1.11,6.02,3.45,8.61,5.67Z" style="fill: #173a22; stroke-width: 0px;"/>
        <path d="M220.43,51.5c4.4.83,9,1.75,12.5,4.56,1.88,1.51,3.33,3.48,5.05,5.18,1.26,1.24,2.66,2.33,3.76,3.71,2.44,3.06,3.09,7.13,3.65,11,.08.56.16,1.14-.05,1.67-.37.94-1.57,1.32-2.55,1.07s-1.74-.99-2.39-1.77c-2.24-2.69-3.47-6.06-5.15-9.13s-4.09-6.06-7.48-6.96c-1.86,3.77.18,8.26,2.54,11.74s5.22,7.09,5.06,11.29c-.02.57-.11,1.16-.42,1.64-.69,1.09-2.31,1.24-3.46.67s-1.95-1.66-2.67-2.72c-2.97-4.37-5.56-9-7.72-13.82-1.04-2.32-2.13-4.86-4.37-6.08-1.48,4.05-.4,8.53.31,12.79.56,3.31.88,6.67.98,10.02.05,1.79.03,3.61-.5,5.32s-1.64,3.31-3.27,4.05c-2.16-.57-4.01-2.23-4.81-4.32-.45-1.16-.58-2.42-.7-3.66-.54-5.47-.94-10.96-1.21-16.45-.21-4.28-.3-8.73,1.35-12.69,2.25-5.38,7.91-9.21,13.74-9.06.67.02,1.4.1,1.9.56s.57,1.4-.02,1.74" style="fill: #024525; stroke-width: 0px;"/>
        <path d="M222.89,62.15c1.33.87,2.65,1.73,3.98,2.6,4.02,2.63,8.24,5.48,10.25,9.84.54,1.16.9,2.48.57,3.71s-1.56,2.29-2.82,2.05c-.99-.19-1.68-1.07-2.28-1.88-1.93-2.65-3.85-5.34-6.3-7.53s-5.49-3.85-8.76-4.03c-.46,1.16-.17,2.48.22,3.68,1.35,4.17,3.73,8,4.69,12.28s.02,9.49-3.78,11.69c-.95-1.11-1.91-2.21-2.86-3.32-1.05-1.22-2.12-2.46-2.78-3.93-.96-2.13-.98-4.55-.99-6.88-.01-3.09-.02-6.18-.03-9.26,0-1.68-.5-3.91-2.18-4-1.3,1.76-1.51,4.07-1.7,6.25-.51,5.97-1.21,11.93-2.09,17.86-.14.96-.33,1.99-1.04,2.65-1.07.97-2.88.58-3.89-.45s-1.41-2.5-1.73-3.91c-.94-4.13-1.54-8.34-1.78-12.56-.16-2.77-.14-5.67,1.06-8.17,1.27-2.63,3.68-4.49,6.09-6.15,2.72-1.87,5.84-3.91,9.19-4.35s6.33,2.07,8.98,3.81Z" style="fill: #004f27; stroke-width: 0px;"/>
        <path d="M191.99,48.84c1.32,1.52,1.2,3.82.62,5.74s-1.56,3.76-1.7,5.77c-.22,2.99,1.42,5.82,1.65,8.81.26,3.4-1.32,6.65-2.86,9.69-.41.81-.83,1.63-1.49,2.24-3.93-6.59-5.46-14.57-4.25-22.15.16-.99.18-2.32-.77-2.65-1.8,1.54-2.67,3.94-2.93,6.3s0,4.74.04,7.11c.06,3.24-.27,6.49-.99,9.65-.39,1.71-.93,3.45-2.12,4.73-.21.22-.45.44-.75.47-.63.08-1.05-.61-1.3-1.2-1.92-4.55-3.88-9.27-3.8-14.21.07-4.53,1.85-8.85,3.73-12.97-1.45.45-2.53,1.65-3.41,2.88-2.08,2.91-3.45,6.33-3.97,9.87-.16,1.1-.25,2.24-.76,3.22-1,1.91-3.27,2.7-5.33,3.33-.83.25-1.78.48-2.5,0-.57-.38-.8-1.09-.95-1.76-1.36-5.82.14-12.24,3.94-16.86,1.1-1.33,2.36-2.51,3.64-3.67,4.18-3.77,8.87-7.5,14.39-9.02,1.9-.52,5.64-1.5,7.23,0,.68.64.74,1.78,1.65,2.54s2.15,1.14,2.99,2.1Z" style="fill: #004e27; stroke-width: 0px;"/>
      </g>
    </g>
  </g>
</svg>