<?xml version="1.0" encoding="UTF-8"?><svg data-name="Layer 2" xmlns="http://www.w3.org/2000/svg" viewBox="0 0 188.59 68.45"><g><g><path d="M126.43,53.55c-25.02,19.06-50.04,21.73-72.74-5-11.27,4.08-23.04,10.3-35.19,7.85-23.39-4.51-28.48-28.13,7.74-38.99C22.51,7.54,42.42,2.63,66.22.66c.09-.05.14.04.22-.01,23.66-1.42,47.28-.51,70.59,2.66,45.31,16.68,38.26,47.07-10.6,50.23Z" style="fill: #fff; stroke-width: 0px;"/><path d="M175.52,52.57c3.31,2.13-1.16,11.99-5.61,12.48-3.74-7.08-5.5,5.48-8.95,3.09-4.87-3.43-8.99-2.78-3.31-12.53-1.67-3.89,4.16-4.6,11.46-3.96,1.22-2.09,6.37.83,6.42.91" style="fill: #fff; stroke-width: 0px;"/><path d="M186.56,22.29c1,3.93,4.15,9.38-.22,9.82-4.2.92-2.36,1.71-4.96.21-3.67-2.15-6.27-.65-6.28-6.07-1.67-3.89,4.16-4.6,11.46-3.96" style="fill: #fff; stroke-width: 0px;"/></g></g></svg>