<?xml version="1.0" encoding="UTF-8"?><svg data-name="Layer 2" xmlns="http://www.w3.org/2000/svg" viewBox="0 0 74.39 63.69"><g><g><path d="M45.25,8.35c7.27,7.58-35.4,7.28-25.43-.44-1.77-1.87.38-3.34,3.34-4.01,4.05-8.58,57.32-1.11,22.09,4.45Z" style="fill: #008d22; stroke-width: 0px;"/><path d="M51.06,3.61c-1.93,1.46-3.01,3.59-4.33,5.5s-2.9,3.98-5.4,4.04c-4.1.29-9.5,2.94-13.01-.34-.71-.63-1.72.42-1.01,1.05,4.12,3.74,9.38,1.05,14.07.77,5.58-.33,6.93-7,10.6-10.04.95-.55-.09-1.56-.91-.98h0Z" style="fill: #a90; stroke-width: 0px;"/><path d="M45.51,31.41c-.06-.31-.16-.48-.31-.74-.3-.52-.97-.48-1.3-.06-.21.24-.25.37-.46.61-.16.32,0,.81.29,1.1.09-.05.16-.32.3-.29.08.53.19.93.08,1.34.35-.2.38-.34.68-.62-.31.06-.4.11-.71.18.27.07.68.18,1.04.21.63.1,1.18-.56.88-1.08.2.35.27-.73.31-.87-.03-.45-.05-.89-.13-1.43-.2-1.15-.49-2.26-.78-3.36-.8-2.19-1.3-4.45-1.93-6.74-.99-4.51-1.85-9.21-4.2-13.28-.48.16-.87.5-1.3.75.2.35.4.69.69.99-.01-.22-.03-.45-.04-.67-1.34,2.28-2.55,4.59-3.62,6.94-.39.92.81,1.61,1.34.73.8-1.62,1.82-3.25,2.62-4.86.25-.37.61-1.74,1.05-1.99-.17.1.68.18.68.18.5.06,1.03-.02,1.66.08,1.23.33,1.95,1.18,2.76,1.98.33-.42.77-.67,1.01-1.05-.42-.33-.62-.68-1.05-1.01-.25.37-.53.88-.69,1.21.68.18,1.44-.71,1.77-1.14.33-.42.8-.81,1.14-1.23.17-.1.3-.29.51-.52.33-.42.4-.11-.05-.09.89-.05.99-1.49-.04-1.48-.58,0-1.16.79-1.63,1.17-.33.42-.77.67-1.1,1.1-.17.1-.35.2-.47.39-.25.37-.53.08.1.17-.68-.18-1.3.75-.69,1.21.42.33.62.68,1.05,1.01.71.63,1.72-.42,1.01-1.05-1.48-1.57-3.16-2.68-5.39-2.54-.67.04-1.48.04-1.98.57-.16.32-.41.7-.62.93-1.05,1.99-2.09,3.98-3.19,5.88.37.25.88.53,1.34.73,1.16-2.4,2.36-4.71,3.62-6.94.12-.19.2-.46-.04-.67-.2-.35-.4-.69-.69-.99-.59-.82-1.8-.12-1.3.75,2.52,3.97,3.21,8.77,4.2,13.28.53,2.12.97,4.29,1.81,6.34.33.97.75,2.11.87,3.31.13.62.12,1.2.02,1.84-.07.27-.1.63.05.89.33-.42.49-.75.88-1.08-.41-.11-1.01-.34-1.4-.23-.31.06-.47.39-.64.49-.52.3-.5,1.33.08,1.34.72.05,1.58.13,1.85-.6.22-.82-.49-1.45-1-1.73.06.31.18.71.29,1.1.16-.32.25-.37.46-.61-.45.03-.86-.08-1.3-.06.05.09.06.31.11.4.29,1.1,1.7.75,1.51-.18h0Z" style="fill: #a90; stroke-width: 0px;"/><path d="M44.84,32.84c.16-.32.36-.78.47-1.19.07-.27.18-.68-.1-.98-.47-.42-1.18-.24-1.19.34-.09.05.01.22-.07.27.01.22.08.53.09.76.16.48.45.78.75,1.3.25-.37.53-.88.69-1.21q-.09.05.32.16l.2.35h0c.05.09.01.22-.02.36-.09.05-.16.32-.16.32l-.17.1h0s.09-.05,0,0,0,0,0,0l.09-.05c.09-.05.35-.2.48-.16.09-.05.35-.2.48-.16.17-.1.38-.34.41-.7.02-.36-.31-.74-.62-.68-.22.01-.36-.02-.53.08s-.3.29-.42.47c-.11.41.09.76.5.87.27.07.6.23.87.31.22-.01.5.06.81,0,.4-.11.69-.4.62-.93.02-.36-.16-.48-.36-.83-.29-.3-.57-.59-.81-.8-.42-.33-.71-.63-1.05-1.01-.05-.09-.1-.17-.24-.21l-.05-.09c-.05-.09-.1-.17,0,0l-.1-.17c-.05-.09.06.31.05.09h0c-.05-.09.01.22.05.09-.05-.09.01.22.05.09.11-.41-.05-.89-.5-.87-.41-.11-.89.05-.87.5-.04.14-.16.32,0,0-.04.14-.12.19-.16.32-.12.19-.16.32-.28.51-.09.05-.12.19-.16.32s-.12.19.09-.05l-.09.05q-.09.05-.12.19c-.12.19-.3.29-.46.61-.3.29-.63.71-.79,1.03-.33.42-.39.92-.06,1.3.52.51,1.22.11,1.6-.23-.09.05-.36-.02-.53.08.19.12.27.07.46.2.41.11.89-.05.87-.5.11-.41-.05-.89-.5-.87-.19-.12-.27-.07-.46-.2-.27-.07-.53.08-.79.23-.09.05-.17.1-.31.06-.09.05.31-.06.04-.14h0c-.05-.09,0,0,.09-.05-.05-.09,0,0,.22-.01s.37.25.52.51c.05.09.06.31-.02.36.09-.05-.12.19-.04.14q.04-.14.12-.19t.12-.19l.09-.05c.04-.14-.12.19-.09.05l.09-.05c.12-.19.3-.29.42-.47.33-.42.72-.76.91-1.22.3-.29.49-.75.69-1.21-.46-.2-1.04-.21-1.37-.37-.06.5.19.93.53,1.31.29.3.57.59.86.89s.57.59,1,.93c.14.04.19.12.1.17l.05.09c.05.09-.1-.17-.05-.09l.05.09c.05.09-.1-.17-.05-.09s-.01-.22-.05-.09c-.05-.09.07-.27.11-.41.12-.19.17-.1.35-.2h0c-.09.05.09-.05.09-.05,0,0-.05-.09-.09.05l-.05-.09c-.14-.04.22-.01.05.09-.27-.07-.63-.1-.91-.17-.2.46-.21,1.04-.37,1.37q.09-.05-.32-.16l-.2-.35h0c-.05-.09-.01-.22.02-.36.09-.05.21-.24.16-.32l.17-.1h0s-.09.05,0,0,0,0,0,0l-.09.05c-.09.05-.35.2-.48.16-.09.05-.35.2-.48.16,0,0-.26.15-.15.55-.07.27.18.71.49.64.27.07.67-.04.88-.28.21-.24.1-.63-.19-.93l-.1-.17c-.05-.09-.24-.21,0,0-.05-.09-.1-.17-.24-.21l-.05-.09-.14-.04c-.05-.09.05.09.05.09q-.05-.09-.06-.31l-.05-.09c-.05-.09.05.09.05.09l-.05-.09.09-.05c-.05-.09.01.22.05.09h0c-.12.19-.16.32-.42.47-.09.05-.31.06-.4.11h0c-.05-.09-.27-.07-.41-.11-.24-.21-.34-.38-.35-.61h0s-.01-.22.04-.14c-.04.14-.12.19.01.22q-.09.05-.12.19c-.04.14-.16.32-.09.05-.12.19-.16.32-.23.6-.16.32-.08.86.29,1.1.31-.06.84-.14.95-.55Z" style="fill: #a90; stroke-width: 0px;"/><g><path d="M34.12,30.23c-.68,2.15-.59,3.53-.59,3.53" style="fill: none; stroke: #449535; stroke-miterlimit: 10; stroke-width: .2px;"/><line x1="28.05" y1="30.23" x2="28.05" y2="33.37" style="fill: none; stroke: #449535; stroke-miterlimit: 10; stroke-width: .2px;"/><path d="M31.48,30.23c-.98,2.54-.59,3.14-.59,3.14" style="fill: none; stroke: #449535; stroke-miterlimit: 10; stroke-width: .2px;"/><polyline points="29.52 30.23 29.52 31.8 29.03 33.37" style="fill: none; stroke: #449535; stroke-miterlimit: 10; stroke-width: .2px;"/><path d="M35.39,30.82v2.56" style="fill: none; stroke: #449535; stroke-miterlimit: 10; stroke-width: .2px;"/><path d="M32.75,30.82c-.78,1.08,0,2.56,0,2.56" style="fill: none; stroke: #449535; stroke-miterlimit: 10; stroke-width: .2px;"/><path d="M24.76,50.28c-.06.93-.26,1.85-.61,2.72" style="fill: none; stroke: #449535; stroke-miterlimit: 10; stroke-width: .2px;"/><path d="M26.32,51.35c.17.81.21,1.64.13,2.46" style="fill: none; stroke: #449535; stroke-miterlimit: 10; stroke-width: .2px;"/><path d="M25.11,53.32c.06-.09.17.05.17.16.04.99-.03,1.99-.21,2.96" style="fill: none; stroke: #449535; stroke-miterlimit: 10; stroke-width: .2px;"/><path d="M22.81,50.77c.05,1.04.06,2.09.03,3.13" style="fill: none; stroke: #449535; stroke-miterlimit: 10; stroke-width: .2px;"/><path d="M20.4,49.31c-.05.72-.03,1.44.06,2.16" style="fill: none; stroke: #449535; stroke-miterlimit: 10; stroke-width: .2px;"/><path d="M18.91,53.78c.23.8.31,1.64.23,2.46" style="fill: none; stroke: #449535; stroke-miterlimit: 10; stroke-width: .2px;"/><path d="M21.2,53.8c0,.89.09,1.77.23,2.65" style="fill: none; stroke: #449535; stroke-miterlimit: 10; stroke-width: .2px;"/><path d="M23.8,57.19c.23.5.3,1.06.21,1.6" style="fill: none; stroke: #449535; stroke-miterlimit: 10; stroke-width: .2px;"/><path d="M28.07,57.71c.07.75.09,1.5.04,2.25" style="fill: none; stroke: #449535; stroke-miterlimit: 10; stroke-width: .2px;"/><path d="M18.83,47.54v2.05" style="fill: none; stroke: #449535; stroke-miterlimit: 10; stroke-width: .2px;"/><path d="M15.99,48.42l.34.03c.43.86.55,1.87.34,2.8" style="fill: none; stroke: #449535; stroke-miterlimit: 10; stroke-width: .2px;"/><path d="M17.65,54.78l.22-3.13" style="fill: none; stroke: #449535; stroke-miterlimit: 10; stroke-width: .2px;"/><path d="M14.65,55.28c.2-1.33.25-2.68.16-4.01" style="fill: none; stroke: #449535; stroke-miterlimit: 10; stroke-width: .2px;"/><path d="M21.54,46.46c.25.78-.25,1.59-.73,2.25" style="fill: none; stroke: #449535; stroke-miterlimit: 10; stroke-width: .2px;"/><path d="M23.72,47.15v2.15" style="fill: none; stroke: #449535; stroke-miterlimit: 10; stroke-width: .2px;"/><path d="M26.41,60.24c.65-1.35.9-2.89.71-4.38" style="fill: none; stroke: #449535; stroke-miterlimit: 10; stroke-width: .2px;"/><path d="M22.4,55.14c.23.21.4.48.47.78.07.26.07.54.07.81,0,1.01,0,2.03,0,3.04" style="fill: none; stroke: #449535; stroke-miterlimit: 10; stroke-width: .2px;"/><path d="M21.54,49.18c.46,1.15.65,2.41.54,3.64" style="fill: none; stroke: #449535; stroke-miterlimit: 10; stroke-width: .2px;"/><path d="M19.68,49.89c-.02,1.22.15,2.43.48,3.6" style="fill: none; stroke: #449535; stroke-miterlimit: 10; stroke-width: .2px;"/><path d="M16.93,52.73c-.25.66.03,1.4.27,2.06s.45,1.44.09,2.05" style="fill: none; stroke: #449535; stroke-miterlimit: 10; stroke-width: .2px;"/><path d="M15.72,52.34l-.14,6.46" style="fill: none; stroke: #449535; stroke-miterlimit: 10; stroke-width: .2px;"/><path d="M16.28,55.77c.3.59-.02,1.29.02,1.95.05.77.58,1.59.16,2.24" style="fill: none; stroke: #449535; stroke-miterlimit: 10; stroke-width: .2px;"/><path d="M18.21,55.36c.17,1.36.21,2.74.11,4.12" style="fill: none; stroke: #449535; stroke-miterlimit: 10; stroke-width: .2px;"/><path d="M20.3,54.88v4.79" style="fill: none; stroke: #449535; stroke-miterlimit: 10; stroke-width: .2px;"/><path d="M22.66,55.95c-.16-.06-.27.15-.31.31-.32,1.44-.44,2.92-.38,4.39" style="fill: none; stroke: #449535; stroke-miterlimit: 10; stroke-width: .2px;"/><path d="M17.96,46.66c-.06,1.51,0,3.02.19,4.51" style="fill: none; stroke: #449535; stroke-miterlimit: 10; stroke-width: .2px;"/><path d="M15.89,46.37l.02,3.11c0,.4-.01.84-.29,1.11" style="fill: none; stroke: #449535; stroke-miterlimit: 10; stroke-width: .2px;"/><path d="M13.9,45.79c.27.92.43,1.87.45,2.83.02.6-.05,1.28-.51,1.66" style="fill: none; stroke: #449535; stroke-miterlimit: 10; stroke-width: .2px;"/><path d="M12.24,45.98c.7.91.86,2.13.85,3.29s-.16,2.32.02,3.46" style="fill: none; stroke: #449535; stroke-miterlimit: 10; stroke-width: .2px;"/><path d="M11.24,46.59c.35.81.13,1.76.35,2.62.17.66.58,1.25.64,1.92.04.57-.18,1.12-.4,1.65" style="fill: none; stroke: #449535; stroke-miterlimit: 10; stroke-width: .2px;"/><path d="M10.32,47.83c.14.16.15.4.16.62.05.91.37,1.78.59,2.66s.31,1.85-.08,2.68" style="fill: none; stroke: #449535; stroke-miterlimit: 10; stroke-width: .2px;"/><path d="M14.1,52.05l-.26,3.52" style="fill: none; stroke: #449535; stroke-miterlimit: 10; stroke-width: .2px;"/><path d="M12.97,53.61c-.1,1.93.05,3.87.43,5.76" style="fill: none; stroke: #449535; stroke-miterlimit: 10; stroke-width: .2px;"/><path d="M11.34,54.88c.08,1.01.1,2.02.05,3.04" style="fill: none; stroke: #449535; stroke-miterlimit: 10; stroke-width: .2px;"/><path d="M9.55,54.18c.84.61,1,1.78,1.04,2.81.05,1.25.03,2.5.02,3.76" style="fill: none; stroke: #449535; stroke-miterlimit: 10; stroke-width: .2px;"/><path d="M8.67,46.66c-.04,1.14-.03,2.29.03,3.43.03.53.08,1.1.41,1.52.19.24.48.54.3.79" style="fill: none; stroke: #449535; stroke-miterlimit: 10; stroke-width: .2px;"/><path d="M7.75,47.23c-.3,1.62-.14,3.28.02,4.92.09.93.19,1.89.59,2.73" style="fill: none; stroke: #449535; stroke-miterlimit: 10; stroke-width: .2px;"/><path d="M6.91,52.81c.18.12.2.37.19.59-.04,2.43-.09,4.87-.13,7.3,0,.21-.08.49-.29.47" style="fill: none; stroke: #449535; stroke-miterlimit: 10; stroke-width: .2px;"/><path d="M9.55,55.17c-.04,1.4-.08,2.81.1,4.2.03.28.08.55.08.83,0,.51-.13,1.02-.38,1.47" style="fill: none; stroke: #449535; stroke-miterlimit: 10; stroke-width: .2px;"/><path d="M8.05,56.35l.14,4.24c0,.21-.11.52-.31.44" style="fill: none; stroke: #449535; stroke-miterlimit: 10; stroke-width: .2px;"/><path d="M11.78,58.69c.1-.06.2.08.23.19.18.7.28,1.43.3,2.15.02.63-.08,1.36-.61,1.7,0,.31-.02.63-.03.94" style="fill: none; stroke: #449535; stroke-miterlimit: 10; stroke-width: .2px;"/><path d="M6.34,44.42c-.14,1.22.09,2.48.65,3.57.06.12.13.23.14.36.03.29-.18.53-.34.77-.56.86-.49,1.97-.4,2.99" style="fill: none; stroke: #449535; stroke-miterlimit: 10; stroke-width: .2px;"/><path d="M9.44,43.24c.27,1.18.41,2.39.42,3.6,0,.25,0,.5-.08.73-.16.52-.65,1.03-.41,1.52" style="fill: none; stroke: #449535; stroke-miterlimit: 10; stroke-width: .2px;"/><path d="M7.74,42.76c.33,1.07.48,2.2.44,3.32" style="fill: none; stroke: #449535; stroke-miterlimit: 10; stroke-width: .2px;"/><path d="M4.55,45.19h.36c.01.99.02,1.96.03,2.94,0,.26,0,.52.07.78.17.64.72,1.24.49,1.86" style="fill: none; stroke: #449535; stroke-miterlimit: 10; stroke-width: .2px;"/><path d="M3.73,48.67c.14.18.26.37.37.56.6,1.1.65,2.41.55,3.66-.1,1.26-.36,2.5-.61,3.74" style="fill: none; stroke: #449535; stroke-miterlimit: 10; stroke-width: .2px;"/><path d="M5.5,54.66c.14.36.2.75.18,1.13-.03.65-.29,1.27-.46,1.9-.34,1.29-.31,2.67.09,3.94" style="fill: none; stroke: #449535; stroke-miterlimit: 10; stroke-width: .2px;"/><path d="M2.6,49.79c.32.34.38.84.4,1.31.11,2.37-.54,4.8.04,7.1" style="fill: none; stroke: #449535; stroke-miterlimit: 10; stroke-width: .2px;"/><path d="M3.46,59.58c.48,1.22.4,2.65-.23,3.8-.09.01-.17-.1-.12-.18" style="fill: none; stroke: #449535; stroke-miterlimit: 10; stroke-width: .2px;"/><path d="M3.35,44.71c.23.96.28,1.96.15,2.93" style="fill: none; stroke: #449535; stroke-miterlimit: 10; stroke-width: .2px;"/><path d="M.08,44.88c.36.56.58,1.2.8,1.84.29.84.58,1.73.38,2.59-.07.32-.21.62-.28.94-.09.38-.1.77-.11,1.15-.02.9-.04,1.8-.07,2.7" style="fill: none; stroke: #449535; stroke-miterlimit: 10; stroke-width: .2px;"/><path d="M27.06,33.37c-.86,1.65,0,2.53,0,2.53" style="fill: none; stroke: #449535; stroke-miterlimit: 10; stroke-width: .2px;"/><path d="M26.67,30.23l-.87,2.35" style="fill: none; stroke: #449535; stroke-miterlimit: 10; stroke-width: .2px;"/><path d="M30.81,35.9c-.12,1.76.66,2.05.66,2.05" style="fill: none; stroke: #449535; stroke-miterlimit: 10; stroke-width: .2px;"/><path d="M34.27,34.74c.14.61.09,1.27.35,1.84.18.4.5.73.88.96" style="fill: none; stroke: #449535; stroke-miterlimit: 10; stroke-width: .2px;"/><path d="M32.94,34.63v2.33c.01.18.14.44.29.34" style="fill: none; stroke: #449535; stroke-miterlimit: 10; stroke-width: .2px;"/><path d="M30.89,33.65v1.76" style="fill: none; stroke: #449535; stroke-miterlimit: 10; stroke-width: .2px;"/><path d="M29.32,34.2c-.18.75-.24,1.53-.18,2.3.02.26.12.59.39.62" style="fill: none; stroke: #449535; stroke-miterlimit: 10; stroke-width: .2px;"/><path d="M25.55,33.95l-.37,1.75" style="fill: none; stroke: #449535; stroke-miterlimit: 10; stroke-width: .2px;"/><path d="M26.59,37.86c-.43-.63-.65-1.39-.63-2.15" style="fill: none; stroke: #449535; stroke-miterlimit: 10; stroke-width: .2px;"/><path d="M25.24,28.84c-.26.71-.38,1.47-.34,2.23.01.26.08.56.32.65" style="fill: none; stroke: #449535; stroke-miterlimit: 10; stroke-width: .2px;"/><path d="M26.97,28.29c-.12.53-.04,1.11.22,1.59" style="fill: none; stroke: #449535; stroke-miterlimit: 10; stroke-width: .2px;"/><path d="M27.21,32.7c-.18-.5-.22-1.06-.12-1.58" style="fill: none; stroke: #449535; stroke-miterlimit: 10; stroke-width: .2px;"/><path d="M29.24,28.76c-.05-.46-.03-.92.06-1.37" style="fill: none; stroke: #449535; stroke-miterlimit: 10; stroke-width: .2px;"/><path d="M31.09,29.54c-.52-.72-.45-1.82.16-2.47" style="fill: none; stroke: #449535; stroke-miterlimit: 10; stroke-width: .2px;"/><path d="M34.49,37.03c-.42-.7-.71-1.48-.83-2.29" style="fill: none; stroke: #449535; stroke-miterlimit: 10; stroke-width: .2px;"/><path d="M32.91,34.73c-.08.57-.17,1.15-.1,1.72s.31,1.14.77,1.49" style="fill: none; stroke: #449535; stroke-miterlimit: 10; stroke-width: .2px;"/><path d="M37.44,34.34l-.12,1.7c0,.1-.01.21.03.31s.15.17.25.13" style="fill: none; stroke: #449535; stroke-miterlimit: 10; stroke-width: .2px;"/><path d="M36.01,34.52c.26.58.49,1.17.71,1.77" style="fill: none; stroke: #449535; stroke-miterlimit: 10; stroke-width: .2px;"/><path d="M36.83,29.77c.28.49.35,1.11.17,1.65" style="fill: none; stroke: #449535; stroke-miterlimit: 10; stroke-width: .2px;"/><path d="M35.52,28.47c-.02.74.03,1.49.15,2.22" style="fill: none; stroke: #449535; stroke-miterlimit: 10; stroke-width: .2px;"/><path d="M34.36,28.66c-.02.46-.07.92-.17,1.36" style="fill: none; stroke: #449535; stroke-miterlimit: 10; stroke-width: .2px;"/><path d="M32.99,28.67c-.13.53-.24,1.08-.3,1.62" style="fill: none; stroke: #449535; stroke-miterlimit: 10; stroke-width: .2px;"/><path d="M31.75,27.69s.01-.08.05-.06.05.06.06.1c.09.51,0,1.06-.27,1.51" style="fill: none; stroke: #449535; stroke-miterlimit: 10; stroke-width: .2px;"/><path d="M23.28,29.39c-.14.68-.48,1.31-.96,1.8" style="fill: none; stroke: #449535; stroke-miterlimit: 10; stroke-width: .2px;"/><path d="M23.7,31.89c.31.53.4,1.19.25,1.79" style="fill: none; stroke: #449535; stroke-miterlimit: 10; stroke-width: .2px;"/><path d="M22.71,33.16c.05.28.03.58-.04.85" style="fill: none; stroke: #449535; stroke-miterlimit: 10; stroke-width: .2px;"/><path d="M22.63,35.98c-.14.5-.06,1.06.2,1.51" style="fill: none; stroke: #449535; stroke-miterlimit: 10; stroke-width: .2px;"/><path d="M24.51,37.48c.07-.06.19-.02.25.05s.06.18.07.27c.02.34.04.68.06,1.03" style="fill: none; stroke: #449535; stroke-miterlimit: 10; stroke-width: .2px;"/><path d="M26.14,38.31c.26.48.41,1.02.43,1.57" style="fill: none; stroke: #449535; stroke-miterlimit: 10; stroke-width: .2px;"/><path d="M27.89,36.49c.18.01.26.24.28.42.08.62.08,1.25,0,1.88" style="fill: none; stroke: #449535; stroke-miterlimit: 10; stroke-width: .2px;"/><path d="M30.06,38.45c-.08.39-.05.8.09,1.18" style="fill: none; stroke: #449535; stroke-miterlimit: 10; stroke-width: .2px;"/><path d="M29.1,38.59c.15.57.24,1.16.24,1.75" style="fill: none; stroke: #449535; stroke-miterlimit: 10; stroke-width: .2px;"/><path d="M25.08,39.69c.17-.07.31.16.33.34.03.31-.04.63-.19.9" style="fill: none; stroke: #449535; stroke-miterlimit: 10; stroke-width: .2px;"/><path d="M22.78,39.28c.14.59-.31,1.15-.49,1.73-.03.09.05.24.11.16" style="fill: none; stroke: #449535; stroke-miterlimit: 10; stroke-width: .2px;"/><path d="M35.39,40.4v.98" style="fill: none; stroke: #449535; stroke-miterlimit: 10; stroke-width: .2px;"/><path d="M39.1,39.42c.14-.02.2.18.2.32,0,.7,0,1.4,0,2.1" style="fill: none; stroke: #449535; stroke-miterlimit: 10; stroke-width: .2px;"/><path d="M32.41,39.88c.06.32.07.66.03.98" style="fill: none; stroke: #449535; stroke-miterlimit: 10; stroke-width: .2px;"/><path d="M57.7,49.78c.11.07.14.21.16.34.09.54.01,1.1,0,1.65s.06,1.13.39,1.57" style="fill: none; stroke: #449535; stroke-miterlimit: 10; stroke-width: .2px;"/><path d="M59.39,50.32c.02.8,0,1.61-.07,2.41" style="fill: none; stroke: #449535; stroke-miterlimit: 10; stroke-width: .2px;"/><path d="M58.53,50.58c0,.72.08,1.44.22,2.15" style="fill: none; stroke: #449535; stroke-miterlimit: 10; stroke-width: .2px;"/><path d="M60.21,49.33c.1.65.15,1.31.15,1.96" style="fill: none; stroke: #449535; stroke-miterlimit: 10; stroke-width: .2px;"/><path d="M60.89,49.6c.08.76.1,1.52.06,2.28" style="fill: none; stroke: #449535; stroke-miterlimit: 10; stroke-width: .2px;"/><path d="M61.65,51.17c.17.78.01,1.62-.43,2.28" style="fill: none; stroke: #449535; stroke-miterlimit: 10; stroke-width: .2px;"/><path d="M59.98,52.21c.13.56.11,1.15-.04,1.7" style="fill: none; stroke: #449535; stroke-miterlimit: 10; stroke-width: .2px;"/><path d="M61.86,47.64c.11.86.11,1.74.02,2.61" style="fill: none; stroke: #449535; stroke-miterlimit: 10; stroke-width: .2px;"/><path d="M62.84,49.34c.15-.01.21.19.21.35,0,.49,0,.99,0,1.48" style="fill: none; stroke: #449535; stroke-miterlimit: 10; stroke-width: .2px;"/><path d="M63.09,52.35l-.22,1.46c-.02.14-.09.32-.23.29-.04-.05-.06-.13-.05-.2" style="fill: none; stroke: #449535; stroke-miterlimit: 10; stroke-width: .2px;"/><path d="M63.65,50.18c.31.65.41,1.39.29,2.09" style="fill: none; stroke: #449535; stroke-miterlimit: 10; stroke-width: .2px;"/><path d="M64.31,47.57c.19.75.24,1.53.13,2.29" style="fill: none; stroke: #449535; stroke-miterlimit: 10; stroke-width: .2px;"/><path d="M63.42,47.77l.15,1.11" style="fill: none; stroke: #449535; stroke-miterlimit: 10; stroke-width: .2px;"/><path d="M59.54,46.92c.2.7.25,1.44.17,2.16" style="fill: none; stroke: #449535; stroke-miterlimit: 10; stroke-width: .2px;"/><path d="M58.41,48.1c.22.38.35.8.39,1.24" style="fill: none; stroke: #449535; stroke-miterlimit: 10; stroke-width: .2px;"/><path d="M61.22,46.86l-.07,2.02" style="fill: none; stroke: #449535; stroke-miterlimit: 10; stroke-width: .2px;"/><path d="M63.2,43.27c.17.75.22,1.52.16,2.29" style="fill: none; stroke: #449535; stroke-miterlimit: 10; stroke-width: .2px;"/><path d="M62.07,44.58c.13-.04.22.13.26.26.13.51.17,1.04.13,1.56" style="fill: none; stroke: #449535; stroke-miterlimit: 10; stroke-width: .2px;"/><path d="M60.95,45.36c0,.37.05.75.17,1.1" style="fill: none; stroke: #449535; stroke-miterlimit: 10; stroke-width: .2px;"/><path d="M64.73,44.8c.39.64.5,1.45.3,2.18" style="fill: none; stroke: #449535; stroke-miterlimit: 10; stroke-width: .2px;"/><path d="M65.41,48.03c.03-.08.14.02.15.11.05.42.05.85-.02,1.27" style="fill: none; stroke: #449535; stroke-miterlimit: 10; stroke-width: .2px;"/><path d="M65.4,50.58c-.03.48-.17.95-.4,1.37" style="fill: none; stroke: #449535; stroke-miterlimit: 10; stroke-width: .2px;"/><path d="M64.87,52.86c.02.5,0,1-.07,1.5" style="fill: none; stroke: #449535; stroke-miterlimit: 10; stroke-width: .2px;"/><path d="M63.97,53.39l-.36,1.49" style="fill: none; stroke: #449535; stroke-miterlimit: 10; stroke-width: .2px;"/><path d="M67.41,37.93l.53,3.91" style="fill: none; stroke: #449535; stroke-miterlimit: 10; stroke-width: .2px;"/><path d="M65.16,38.7l.69,2.63" style="fill: none; stroke: #449535; stroke-miterlimit: 10; stroke-width: .2px;"/><path d="M69.3,34.79v3.39" style="fill: none; stroke: #449535; stroke-miterlimit: 10; stroke-width: .2px;"/><path d="M71.39,35.32v2.87" style="fill: none; stroke: #449535; stroke-miterlimit: 10; stroke-width: .2px;"/><path d="M70.08,40.01v2.61" style="fill: none; stroke: #449535; stroke-miterlimit: 10; stroke-width: .2px;"/><path d="M73.74,35.31c.44.88.62,1.89.51,2.87" style="fill: none; stroke: #449535; stroke-miterlimit: 10; stroke-width: .2px;"/><path d="M72.69,42.1v-2.09c.09.43-.09,1.65,0,2.09Z" style="fill: none; stroke: #449535; stroke-miterlimit: 10; stroke-width: .2px;"/></g></g></g></svg>