<?xml version="1.0" encoding="UTF-8"?><svg data-name="Layer 2" xmlns="http://www.w3.org/2000/svg" viewBox="0 0 79.21 97.54"><g><g><path d="M17.7,92.67c2.4-2.4,3.9-5.4,6.2-19.1,1.7-10,2.5-15,1.2-17.1-3.5-5.3-12.8-10.5-13.2-10.9s-8.6-10.1.8-5.5c2.6,1.3,6.6,3,14.8,7.8,7.7,4.5,9.9,4.8,12.8,2.7,6.4-4.5,9.1-6,20.2-10.1,4.4-1.6,11-3.3,11.7-2,.8,1.6-8.1,5.7-16.7,9.7-9.1,4.3-11.5,5.3-14.4,9.3-1.5,2.2-1.4,6.9-1.2,16.4.4,13.1,1.5,15.7,3.5,16.7,1.8.9,3.2.1,7,1.6.5.2,4.5,1.8,4.3,2.7-.3,1.4-9.4-.3-22.2.4-12.3.7-21,3.2-21.4,1.9-.2-.6,3.3-1.2,6.6-4.5h0Z" style="fill: #605217; stroke-width: 0px;"/><path d="M79.2,35.07c-.1-2.7-3.2-3.1-3.5-5.8-.2-2.6,2.3-3.9,1.6-5.5-.8-1.7-3.9-.6-5.1-2.3-1.4-2.2,2.2-5.5.8-7.8-1-1.6-3.2-.5-5.1-2.3-2.4-2.4-.8-6.3-2.3-7-1.9-.8-5.2,4.4-7,3.5-1.3-.7,0-3.9-2-5.4-1-.9-1.8-.2-4.7-.8-3.5-.7-4-2-5.5-1.6-2.4.7-2.2,4.3-4.3,4.7-2.2.4-3.5-3.5-5.8-3.1-2.4.4-2.9,4.8-4.7,4.7-1.5-.1-1.7-3.3-3.5-3.5-1.9-.2-2.9,3.3-5.1,3.1-1.6-.1-1.7-2-3.5-2.3-2.2-.4-5.2,1.9-5.5,4.3-.3,2.2,2,4.1,1.2,5.1-.3.4-.8.4-1.2.4-1.8.1-2.4-1.8-3.9-1.9-1.7-.2-3.9,1.8-4.3,3.9-.5,2.6,2.1,4.6,1.2,5.8-.5.7-1.3.2-2.7.8C2,22.87,0,25.47,0,27.87c0,2.7,2.5,3.3,2.3,5.8C2.1,35.87,0,36.17,0,38.37c-.1,2.1,1.9,2.4,3.1,5.5,1.4,3.6-.3,5.9,1.2,7,1.6,1.2,4.3-1.3,6.2,0,1.5,1.1.4,3.1,2,4.3,2,1.5,4.9-.9,7,.8,1,.8.8,1.8,1.6,2,1.5.3,2.3-3.8,4.7-4.3,2.5-.5,4.1,3.6,6.6,3.1,2-.4,2-3.2,3.9-3.5,2.4-.4,3.9,3.8,7,3.5,1.3-.1,1.2-.8,2.7-1.2,3.5-.7,5.7,2.8,7.4,2,1.8-.9.2-5.3,2.3-6.6,1.4-.8,2.6.8,4.7,0,2.2-.9,1.8-3.2,3.9-4.3,2.7-1.4,5.6,1.3,7,0,1.2-1.2-.6-3.5.8-5.1,1-1.2,2.4-.3,4.3-1.6,1.5-1.2,2.9-3,2.8-4.9h0ZM22,48.17v.4c0,.9-.6,1.6-1.4,1.9-2.8,1-5.1-1.7-6.6-3.6-.6-.8-.1-2.2.7-2.7.7-.4,1.4-.3,2,0,1.6-1.2,4.5-.4,5.7,1,.9,1,.5,2.3-.4,3h0ZM56,48.67c-3.4,3-7.8,3.3-11.8,5-2.3,1-4.2-2.4-2-3.4.4-.2.9-.4,1.3-.5.1-1.4.8-2.7,2.3-3.1.7-.2,1.4-.1,2.1,0,.5.1,1.4.5,1.9.4.6-.1.4-2.1.6-2.9.4-1.6,1.6-3,3.3-3.2,4.3-.2,4.8,5.5,2.3,7.7h0Z" style="fill: #51ae32; stroke-width: 0px;"/></g></g></svg>