<?xml version="1.0" encoding="UTF-8"?><svg data-name="Layer 2" xmlns="http://www.w3.org/2000/svg" viewBox="0 0 8.27 25.53"><g><g><path d="M4.91,24.39c.04,1.53-2.38,1.52-2.33.04.04-1.48,2.38-1.52,2.33-.04Z" style="fill: #e6f6ff; stroke-width: 0px;"/><path d="M2.64,18.92c.03,1.75-2.7,1.67-2.64-.02-.08-1.66,2.61-1.72,2.64.02Z" style="fill: #e6f6ff; stroke-width: 0px;"/><path d="M5.63,16.95c0,.81-1.31.86-1.39,0,.05-.89,1.44-.9,1.39,0Z" style="fill: #e6f6ff; stroke-width: 0px;"/><path d="M8.27,13.97c.06,1.3-2,1.27-1.97.02,0-1.39,2.05-1.36,1.97-.02Z" style="fill: #e6f6ff; stroke-width: 0px;"/><path d="M3.59,9.88c.06,1.3-2,1.27-1.97.02-.06-1.3,2-1.27,1.97-.02Z" style="fill: #e6f6ff; stroke-width: 0px;"/><path d="M7.63,1.48c.02,1.97-2.99,1.97-3,0s2.99-1.97,3,0Z" style="fill: #e6f6ff; stroke-width: 0px;"/></g></g></svg>