<?xml version="1.0" encoding="UTF-8"?>
<svg id="Layer_2" data-name="Layer 2" xmlns="http://www.w3.org/2000/svg" viewBox="0 0 458.73 378.67">
  <defs>
    <style>
      .cls-1 {
        fill: #d3243a;
      }

      .cls-1, .cls-2, .cls-3, .cls-4, .cls-5, .cls-6, .cls-7, .cls-8, .cls-9, .cls-10, .cls-11, .cls-12, .cls-13, .cls-14 {
        stroke-width: 0px;
      }

      .cls-2 {
        fill: #eb008b;
      }

      .cls-3 {
        fill: #e6e7e8;
      }

      .cls-4 {
        fill: #3f50a2;
      }

      .cls-5 {
        fill: #f9ec31;
      }

      .cls-6 {
        fill: #201d1e;
      }

      .cls-7 {
        fill: #fff;
      }

      .cls-8 {
        fill: #231f20;
      }

      .cls-9 {
        fill: #f8ea6f;
      }

      .cls-10 {
        fill: #a6a8ab;
      }

      .cls-11 {
        fill: #2b388f;
      }

      .cls-12 {
        fill: #e83b94;
      }

      .cls-13 {
        fill: #808184;
      }

      .cls-14 {
        fill: #be1e2d;
      }
    </style>
  </defs>
  <g id="UNICORN">
    <g>
      <path class="cls-3" d="m59.77,24.63c-.7.74-1.24,1.21-1.24,1.21,0,0-7.11,2.22-10.44,0-3.16-2.1.94-3.88,1.33-4.04-.45.15-5.92,1.88-9.8,0-3.7-1.79-.05-3.5.63-3.78-.8.22-6.26,1.68-9.11-.04-2.94-1.77.3-3.44.6-3.59-.35.06-4.33.71-7.84-.83-3.69-1.59,0-2.82,0-2.82,0,0-6.39.25-8.12-1.23-1.71-1.47.98-2.34.98-2.34,0,0-4.42.26-5.77-.85s1.47-1.23,1.47-1.23c0,0-1.97-.12-3.68,0-.92.06-3.38-.89-5.46-1.79C-1.49-.19-2.37-1.84,9.58,3.08c15.6,6.41,37.1,15.79,50.19,21.55Z"/>
      <path class="cls-10" d="m71.36,29.75s-5.4,1.29-7.98,6.19c0,0-35.27-16.81-42.73-21.51-3.73-2.36-12.5-7.66-17.32-11.13,2.08.89,4.54,1.85,5.46,1.79,1.72-.12,3.68,0,3.68,0,0,0-2.82.12-1.47,1.23s5.77.85,5.77.85c0,0-2.69.86-.98,2.34,1.73,1.47,8.12,1.23,8.12,1.23,0,0-3.69,1.23,0,2.82,3.51,1.53,7.49.88,7.84.83-.29.15-3.54,1.82-.6,3.59,2.85,1.72,8.31.26,9.11.04-.68.28-4.33,1.99-.63,3.78,3.88,1.89,9.34.16,9.8,0-.38.16-4.49,1.94-1.33,4.04,3.32,2.22,10.44,0,10.44,0,0,0,.54-.47,1.24-1.21,7,3.08,11.59,5.12,11.59,5.12Z"/>
      <path class="cls-13" d="m142.4,230.14c-6.45,5.98-21.84-3.1-31.52-5.17-9.67-2.07-42.29-10.85-42.29-10.85-5.99,6.91-20.12,10.9-21.05,18.19-.92,7.29-6.68,13.67-5.07,17.12.77,1.65,1.9,4.61,2.68,7.48l-15.37,7.29v-15.87c0-2.53,1.61-6.67,3.68-12.89,2.07-6.22,3.23-8.03,3.23-8.03,4.15-6.56,24.41-24.45,28.56-25.14,4.15-.7,45.6,9.44,48.37,8.06,2.77-1.39,5.53-16.13,5.53-16.13,3.22-17.27,30.63-6.45,33.63,12.9,3,19.35-3.92,17.04-10.37,23.03Z"/>
      <path class="cls-13" d="m332.57,226.74c-4.53,11.89-45.33,35.59-54.23,41.53s-8.3,27.9-14.24,31.45c-5.94,3.57-38.38,44.12-42.33,51.24-2.06,3.7-2.95,6.13-3.2,8.33l-14.21-.82c4.75-9.49,30.07-48.66,35.41-65.28,5.34-16.62,12.85-17.01,16.02-27.3,3.16-10.29,15.83-43.26,15.83-43.26,0,0,4.35-20.24,25.53-22.64,21.18-2.39,39.94,14.86,35.42,26.74Z"/>
      <path class="cls-2" d="m458.73,330.16c-.29-2.61-3.02-16.91-27.28-17.99-2.08-.1-4.24-.49-6.46-1.18h-.02c-1.06-.59-2.1-1.2-3.1-1.89-2.28-1.55-4.32-3.18-5.83-5.5-2.53-3.89-5.83-7.21-8.42-11.06-2.45-3.63-4.91-6.74-8.03-9.82-1.98-1.96-5.34-5.07-6.95-8.13.71,1.94,1.39,3.93,1.85,5.91-2.57-2.36-5.32-4.4-7.21-7.38-1.63-2.59-2.98-5.28-4.73-7.82-1.81-2.59-2.75-5.42-3.89-8.35-.73-1.89-1.81-3.65-2.47-5.56-1.22-3.53-1.63-7.68-2.28-11.37-.63-3.57-.96-7.11-1.77-10.68-.63-2.85-1.45-5.66-2.02-8.52-.45-2.28-.08-5.03-.71-7.21-2.91.26-1.3,7.25-3.73,7.99-.98-3.14-.53-6.75-.71-9.99-.08-1.45-.63-2.77-.73-4.22-.16-2.42.04-5.01.04-7.4.04-7.78-1.06-15.43-2.3-23.11-.77-4.79-1.3-10.13-2.98-14.77.1,1.59.33,3.48-.08,5.01-2.24-3.26-2.89-8.11-3.85-11.86-.08-.37-.39-3.12-1.28-3.26-.18-.04-.96.65-1.16.73-.14-2.06-2.32-3.71-3.75-4.91-1.47-1.26-2.4-2.28-2.98-4.18-.16-.47-.29-1.96-.63-2.75.31-.26.73-.45,1.32-.69,2.71-1.06,5.75-2.34,8.52-1.49,3.5,1.08,6.4,4.58,8.8,7.19,1.9,2.06,3.77,4.18,5.6,6.28,1.35,1.57,3.69,4.28,3.87,6.42-.65.27-1.22-.04-1.81-.33-.73,2.2.82,6.03,1.37,8.31.79,3.26,1.49,6.52,2.28,9.76.84,3.5,2.4,6.56,2.81,10.17.31,2.85.49,5.73.94,8.54.55,3.3,1.73,6.24,2.49,9.45.59,2.36,1.69,4.97,1.81,7.36.04.86-.06,1.75-.02,2.63.04,1.28.47,2.02.69,3.24.08.35.18,2.63-.1,2.95-.94,1.1-2.18-1.1-3.36-.61.94,3.53.61,6.93,1.14,10.56.77,5.18,2.49,10.52,5.05,15.14,1.36,2.42,2.63,4.71,3.79,7.19.84,1.81,2.55,3.67,2.67,5.71.06-2.95-.94-5.36-1.45-8.15,1.08,1.85,1.2,4.22,2.18,6.17,1.26,2.47,2.24,4.73,3.02,7.44.57,1.96.94,4.03,2.08,5.75.71,1.06,1.65,1.92,2.34,3.02.57.94.65,1.89,1.08,2.83.18.35.77.51.98.84.82,1.26,2.45,7.52,4.05,7.13.12-.84-.35-1.69-.67-2.45.9,2.14,3.42,3.81,4.67,5.85.71,1.2,1.14,2.59,1.96,3.73.61.84,1.14.88,1.81,1.53,1.53,1.45,3.02,3.51,4.32,5.16,1.73,2.2,3.75,3.81,5.67,5.79.81.84,1.24,2.18,2.45,2.57.65.22,1.51.12,2.22.22,4.03.51,7.3,2.08,10.94,3.91,2.32,1.14,4.36,2.49,6.87,3.2.88.26,1.79.45,2.69.63,7.34,7.07,8.27,14.49,8.38,16.3Z"/>
      <path class="cls-14" d="m424.97,311c-26.14-8.11-59.79-54.86-67.27-78.07-8.13-25.19-24.21-60.85-18.56-88.72,0,0,.24-.71.71-1.81.02.04.04.08.06.12.35.79.41,1.67.92,2.4,2.59.02,2.51-3.28,3.97-4.52.73.1.88,2.61,1.1,3.26.59,1.9,1.51,2.93,2.98,4.18,1.43,1.2,3.61,2.85,3.75,4.91.2-.08.98-.77,1.16-.73.88.14,1.2,2.89,1.28,3.26.96,3.75,1.61,8.6,3.85,11.86.41-1.53.18-3.42.08-5.01,1.69,4.63,2.22,9.98,2.98,14.77,1.24,7.68,2.34,15.34,2.3,23.11,0,2.4-.2,4.99-.04,7.4.1,1.45.65,2.77.73,4.22.18,3.24-.27,6.85.71,9.99,2.43-.75.82-7.74,3.73-7.99.63,2.18.26,4.93.71,7.21.57,2.87,1.39,5.68,2.02,8.52.8,3.57,1.14,7.11,1.77,10.68.65,3.69,1.06,7.83,2.28,11.37.67,1.9,1.75,3.67,2.47,5.56,1.14,2.93,2.08,5.75,3.89,8.35,1.75,2.53,3.1,5.22,4.73,7.82,1.89,2.98,4.63,5.03,7.21,7.38-.45-1.98-1.14-3.97-1.85-5.91,1.61,3.06,4.97,6.17,6.95,8.13,3.12,3.08,5.58,6.19,8.03,9.82,2.59,3.85,5.89,7.17,8.42,11.06,1.51,2.32,3.55,3.95,5.83,5.5,1,.69,2.04,1.3,3.1,1.89Z"/>
      <path class="cls-11" d="m450.34,313.87c-.9-.18-1.81-.37-2.69-.63-2.51-.71-4.56-2.06-6.87-3.2-3.63-1.83-6.91-3.4-10.94-3.91-.71-.1-1.57,0-2.22-.22-1.22-.39-1.65-1.73-2.45-2.57-1.92-1.98-3.95-3.59-5.67-5.79-1.3-1.65-2.79-3.71-4.32-5.16-.67-.65-1.2-.69-1.81-1.53-.82-1.14-1.26-2.53-1.96-3.73-1.26-2.04-3.77-3.71-4.67-5.85.31.77.79,1.61.67,2.45-1.59.39-3.22-5.87-4.05-7.13-.22-.33-.81-.49-.98-.84-.43-.94-.51-1.89-1.08-2.83-.69-1.1-1.63-1.96-2.34-3.02-1.14-1.73-1.51-3.79-2.08-5.75-.79-2.71-1.77-4.97-3.02-7.44-.98-1.94-1.1-4.32-2.18-6.17.51,2.79,1.51,5.2,1.45,8.15-.12-2.04-1.83-3.91-2.67-5.71-1.16-2.47-2.43-4.77-3.79-7.19-2.55-4.61-4.28-9.96-5.05-15.14-.53-3.63-.2-7.03-1.14-10.56,1.18-.49,2.42,1.71,3.36.61.27-.31.18-2.59.1-2.95-.22-1.22-.65-1.96-.69-3.24-.04-.88.06-1.77.02-2.63-.12-2.4-1.22-5.01-1.81-7.36-.77-3.2-1.94-6.15-2.49-9.45-.45-2.81-.63-5.69-.94-8.54-.41-3.61-1.96-6.68-2.81-10.17-.79-3.24-1.49-6.5-2.28-9.76-.55-2.28-2.1-6.11-1.37-8.31.59.29,1.16.61,1.81.33-.18-2.14-2.51-4.85-3.87-6.42-1.83-2.1-3.69-4.22-5.6-6.28-2.4-2.61-5.3-6.11-8.8-7.19-2.77-.84-5.81.43-8.52,1.49-.59.24-1,.43-1.32.69-.12-.29-.27-.47-.47-.51-1.45,1.24-1.37,4.54-3.97,4.52-.51-.73-.57-1.61-.92-2.4-.02-.04-.04-.08-.06-.12,2.16-5.05,9.29-18.54,20.99-11.23,14.24,8.91,24.92,30.28,29.08,74.78,4.14,44.52,26.12,90.82,47.48,99.71,5.71,2.38,9.9,5.26,12.94,8.21Z"/>
      <path class="cls-3" d="m352.42,215.47c-1.18,2.49-2.83,4.46-4.85,6.01-13.2-18.1-40.22-32.5-43.02-26.61-4.91,10.31-23.56,30.93-68.73,26.59-45.16-4.34-65.29-21.68-65.29-21.68,0,0-25.04,2.45-39.25-14.08-14.24-16.55.47-24.7,1.43-32.07.94-7.36-14.22-58.91-8.91-65.13,5.3-6.22,5.01-22.25,2.98-22.74-2.04-.49,2.51,4.91-6.32,14.73-8.84,9.82-37.31,13.75-45.69,14.73-8.4.98-8.31,3.93-16.65,12.76-6.79,7.19-15.81.73-18.93-1.92-.47-1.2-.81-2.45-.98-3.73,0,0,6.66-12.51,17.46-21.34,10.8-8.84,15.3-17.02,15.26-23.72-.04-6.72,8.29,5.85,14.33-11.68,1-2.91,2.32-6.2,3.61-9.64,4.97-2,11.96-3.14,21.21-2,35.03.82,56.14,44.4,65.61,70.24-3.59,5.75-3.71,13.02,5.99,23.49,0,0,6.54,6.13,46.3,15.32,39.76,9.19,47.91-4.58,79.9-2.57,30.48,1.9,44.2,9.96,49.15,36.6,1.67,13.31.33,28.06-4.59,38.47Z"/>
      <path class="cls-10" d="m347.57,221.48c-14.12,10.96-46.32,2.12-61.82,8.05-17.71,6.77-92.19,16.24-125.01,3.22-35.25-14-43.75-21.88-46.18-35.95-2.45-14.06,5.05-27.08,4.48-40.61-.55-13.55-8.97-61.5-8.97-61.5-8.33,3.83-40.98,11.47-43.75,15.98-2.77,4.52-10.76,6.6-15.63,6.24-4.03-.29-9.27-4.91-11.51-10.86,3.12,2.65,12.14,9.11,18.93,1.92,8.35-8.84,8.25-11.78,16.65-12.76,8.38-.98,36.86-4.91,45.69-14.73,8.84-9.82,4.28-15.22,6.32-14.73,2.02.49,2.32,16.51-2.98,22.74-5.3,6.22,9.86,57.77,8.91,65.13-.96,7.36-15.67,15.51-1.43,32.07,14.22,16.53,39.25,14.08,39.25,14.08,0,0,20.13,17.34,65.29,21.68,45.16,4.34,63.82-16.28,68.73-26.59,2.81-5.89,29.83,8.5,43.02,26.61Z"/>
      <path class="cls-7" d="m88.86,35.93c-1.3,3.44-2.61,6.74-3.61,9.64-6.05,17.54-14.37,4.97-14.33,11.68.04,6.7-4.46,14.88-15.26,23.72-10.8,8.84-17.46,21.34-17.46,21.34-1.04-7.64,4.16-12.84,8.68-17.36s18.05-21.17,18.05-21.17c0,0,.35-7.99,4.87-9.74,4.52-1.73,7.64-7.64,10.76-12.14,1.41-2.06,4.14-4.34,8.31-5.99Z"/>
      <path class="cls-7" d="m357.01,177c-4.95-26.65-18.67-34.7-49.15-36.6-31.99-2-40.14,11.76-79.9,2.57-39.76-9.19-46.3-15.32-46.3-15.32-9.7-10.47-9.58-17.73-5.99-23.49,3.99,10.92,5.91,18.67,5.91,18.67,11.98,0,26.04,8.86,46.87,14.59,20.83,5.73,51.57.94,65.62-.61,14.06-1.57,39.06.51,51.57,11.98,5.93,5.42,9.88,16.24,11.37,28.2Z"/>
      <path class="cls-10" d="m168.42,252.54c-4.1,6.11-6.38,17.01-8.19,30.53-1.83,13.53-6.32,32.3-6.32,32.3,0,0-.51,22.7-.06,34.03.45,11.35-1.81,9.17-3.63,13.53-.43,1.02-.55,2.42-.55,3.97-10.41,2.12-13.1-.9-13.1-.9,3.63-4.81,3.63-9.6,4.08-11.78,0,0,3.36,3.14,5.32-11.09,1.96-14.24-1.47-34.36,0-38.29,1.47-3.93,2.12-32.89,4.01-39.27,1.88-6.38-10.39-18.65-2.53-15.22,7.85,3.44,31.44-9.46,30.2-51.62,2.57,3.4,4.18,6.79,4.42,9.9,1.35,18.46-9.56,37.82-13.65,43.93Z"/>
      <path class="cls-10" d="m403.22,366.53c-5.03,1.32-10.86,1.96-15.22,2.28-3.67-9.17-30.5-65.47-35.46-72.65-5.34-7.72-42.73-57.55-51.64-73.52-8.9-15.94,0-41.02,0-41.02.61-2.18,3.97-5.14,8.86-7.68-.65.81-16.61,21.36,2.16,51.76,19.15,31.03,33.03,37.96,35.66,46.52,2.63,8.56,5.58,16.14,13.43,17.99,7.85,1.87,5.89,2.1,8.35,12.29,2.45,10.19,17.63,47.89,29.93,57.02l.02.02c1.3,2.38,2.71,4.71,3.93,6.99Z"/>
      <path class="cls-6" d="m147.94,378.65h-13.65c-4.56,0-1.35-7.85,2.28-12.65,0,0,2.69,3.02,13.1.9,0,5.09,1.41,11.74-1.73,11.74Z"/>
      <path class="cls-6" d="m393.48,378.65c-5.05,0-5.05-6.81-5.05-8.6,0-.12-.14-.55-.43-1.24,4.36-.31,10.19-.96,15.22-2.28,1.35,2.51,2.49,4.99,3.02,7.38,1.18,5.34-4.46,4.73-12.76,4.73Z"/>
      <path class="cls-3" d="m149.99,265.56c-1.89,6.38-2.53,35.35-4.01,39.27-1.47,3.93,1.96,24.05,0,38.29-1.96,14.24-5.32,11.09-5.32,11.09.47-2.18,0-30.12,0-37.98s-1.81-11.78-2.73-25.74c-.9-13.96-4.54-37.09-10.74-48.68-6.2-11.59-1.98-49.07-1.98-49.07,3.77-26.86,39.7-10.82,52.45,5.97,1.24,42.16-22.35,55.06-30.2,51.62-7.85-3.44,4.42,8.84,2.53,15.22Z"/>
      <path class="cls-3" d="m399.27,359.52c-12.29-9.13-27.47-46.83-29.93-57.02-2.45-10.19-.49-10.43-8.35-12.29-7.85-1.85-10.8-9.43-13.43-17.99-2.63-8.56-16.51-15.49-35.66-46.52-18.77-30.4-2.81-50.96-2.16-51.76l.02-.02c9.27-4.79,24.05-7.99,36.23-1,18.6,10.68,9.11,56.18,8.72,66.31-.41,10.15,4.34,32.6,9.09,37.05,4.75,4.46,9.5,9.19,8.6,15.14-.88,5.93,5.93,20.76,9.21,29.38,3.26,8.6,13.35,30.26,16.32,36.19.43.84.86,1.69,1.34,2.53Z"/>
      <path class="cls-8" d="m43.87,96.69s-1.47,1.62-.82,5.64c.65,4.02,3.11,3.04,3.6-2.04s2.44-8.42-2.78-3.6Z"/>
      <circle class="cls-8" cx="85.73" cy="63.55" r="7.94"/>
      <path class="cls-8" d="m78.51,64.62c0,3.28,2.66,5.94,5.94,5.94s5.94-2.66,5.94-5.94-2.66-5.94-5.94-5.94-5.94,2.66-5.94,5.94Z"/>
      <circle class="cls-7" cx="88.06" cy="60.32" r="2.33"/>
      <path class="cls-8" d="m45.46,264.18c-1.85,2.06-7.39,7.65-10.85,9.26-3.45,1.61-4.83.24-4.83-4.61v-4.63l15.37-7.29c.85,3.14,1.28,6.19.31,7.27Z"/>
      <path class="cls-8" d="m204.36,368.76c-4.35,0-4.75-.79,0-10.29l14.21.82c-.24,2.01.05,3.84.43,6.31.79,5.15-10.29,3.16-14.64,3.16Z"/>
      <path class="cls-14" d="m189.1,136.53c-.55-.17-2.72-.86-11.4-3.64-11.37-3.65-11.89-15.15-11.91-15.55h0c3.02-17.41-3.59-35.28-8.24-45.09-.6-6.74-2.47-18.09-8.22-27.69.47.41,15.47,13.61,18.69,21.14-.1-.62-1.79-10.67-5.59-21.14.21.12,2.92,1.68,6.34,3.8,4.09,5.38,8.54,12.28,9.05,17.36.98,9.61,3.61,13.22,3.61,13.22v-14.34s6.22,14,3.93,25.79c-1.58,8.09-.41,20.22,5.47,29.56-8.53-8.54-10.39-26.7-10.39-26.7,0,0,0,17.94,3.93,26.79,3.79,8.54,13.54,11.88,14.21,12.11-.76-.13-12.92-2.31-18.47-9.33-5.72-7.24-6.67-21.94-6.67-21.94,0,0-1.84,16.05,2.09,24.24,3.63,7.55,12.25,10.92,13.58,11.4Z"/>
      <path class="cls-1" d="m214.99,125.8c-.49.18-8.26,2.91-20-2.8-1.54-.75-2.93-1.79-4.18-3.04-5.89-9.34-7.06-21.47-5.47-29.56,2.29-11.79-3.93-25.79-3.93-25.79v14.34s-2.62-3.61-3.61-13.22c-.51-5.08-4.96-11.99-9.05-17.36,5.12,3.17,11.8,7.61,13.95,10.29-.29-.8-9.92-26.33-16.7-34.39l-6.88-8.21,8.19,3.6h0c14.08,11.16,23.91,45.86,24.56,62.89.66,17.04,18.67,17.04,18.67,17.04-14.74,5.24-20.64-7.86-20.64-7.86-.32,12.12,6.23,28.5,14.44,32.75,3.68,1.91,7.15,1.91,10.63,1.33Z"/>
      <path class="cls-4" d="m152.26,15.08c-3.32-.64-7.44-.78-11.22-.71-15.69-4.85-33.66-4.21-33.66-4.21,6.31,0,25.94,9.7,27.43,10.44-1.66-.57-24.65-8.3-46.74-3.89-19.14,3.83-28.02,23.64-30.42,30.08-.45-1.36-.7-2.87-.7-4.53,0-15.06,13.76-25.55,13.76-25.55C82.89,4.66,99.34,1.33,114.93,1.77h0c31.11,4.72,37.32,13.31,37.32,13.31Z"/>
      <path class="cls-11" d="m107.38,38.32c11.23,1.29,20.94,14.24,21.33,14.78-16.15-10.47-32.47-4.62-32.47-4.62,17.69,0,18.01,11.84,18.01,11.84,0,0-3.6-8.57-20.59-4.71-15.11,3.43-32.41,2.11-36.03-8.83,2.41-6.44,11.28-26.25,30.42-30.08,22.09-4.41,45.08,3.32,46.74,3.89-1.48-.74-21.12-10.44-27.43-10.44,0,0,17.96-.65,33.66,4.21-5.94.1-11.05.71-11.05.71,11.67,4.63,17.69,13.1,17.69,13.1-16.37-8.19-40.94-5.9-40.94-5.9,9.17,0,21.62,8.86,21.62,8.86-14.42-4.48-33.81.41-34.65.63,22.31-3.59,39.02,9.19,39.02,9.19-7.42-3.6-25.34-2.63-25.34-2.63Z"/>
      <path class="cls-2" d="m168.76,48.37c-3.42-2.12-6.13-3.68-6.34-3.8,3.8,10.47,5.49,20.52,5.59,21.14-3.22-7.53-18.22-20.72-18.69-21.14,5.76,9.6,7.63,20.95,8.22,27.69-2.16-4.57-3.91-7.4-4.05-7.63,6.78,23.33-12.71,29.73-12.71,29.73,0,0,14.74-14.1-3.6-34.03-2.76-3-5.6-5.36-8.46-7.2h0s0,0,0-.02c-.39-.54-10.1-13.49-21.33-14.78,0,0,17.92-.96,25.34,2.63,0,0-16.71-12.77-39.02-9.19.84-.22,20.23-5.11,34.65-.63,0,0-12.45-8.86-21.62-8.86,0,0,24.57-2.29,40.94,5.9,0,0-6.01-8.47-17.69-13.1,0,0,5.12-.61,11.05-.71,3.62,1.12,7.11,2.53,10.24,4.3,16.71,9.5,24.24,32.1,24.24,32.1l-13.72-10.77c.4.43,3.55,3.86,6.96,8.36Z"/>
      <path class="cls-12" d="m182.71,58.66c-2.15-2.68-8.83-7.11-13.95-10.29-3.41-4.5-6.55-7.93-6.96-8.36l13.72,10.77s-7.54-22.6-24.24-32.1c-3.12-1.78-6.62-3.18-10.24-4.3,3.78-.07,7.9.07,11.22.71,0,0-6.21-8.59-37.32-13.31,18.73.53,36.21,6.51,43.54,9.37,13.43,5.24,19.99-2.62,19.99-2.62-.33,11.79-11.14,11.13-11.14,11.13l-8.19-3.6,6.88,8.21c6.77,8.07,16.4,33.6,16.7,34.39Z"/>
      <path class="cls-5" d="m242.33,134.95c-.36-.38-9.4-9.6-20.46.51-11.3,10.33-62.41,10.63-56.51-15.9.17-.74.3-1.47.43-2.21.02.39.54,11.9,11.91,15.55,8.4,2.68,10.71,3.42,11.34,3.62-1.5-.56-9.94-3.94-13.52-11.38-3.93-8.2-2.09-24.24-2.09-24.24,0,0,.95,14.7,6.67,21.94,5.55,7.02,17.72,9.2,18.47,9.33-.67-.23-10.42-3.57-14.21-12.11-3.93-8.84-3.93-26.79-3.93-26.79,0,0,1.86,18.16,10.39,26.7,2.69,4.27,6.38,7.96,11.23,10.41,15.47,7.8,14.06-4.82,28.8-6.51h0c6.88,1.91,11.29,10.72,11.47,11.09Z"/>
      <path class="cls-9" d="m230.85,123.85c-14.74,1.69-13.33,14.32-28.8,6.51-4.85-2.45-8.54-6.13-11.23-10.41,1.25,1.25,2.63,2.29,4.18,3.04,11.73,5.71,19.51,2.98,20,2.8,0,0,.02,0,.02,0,4.27-.71,8.55-2.3,13.24-2.3.9,0,1.77.13,2.6.36Z"/>
    </g>
  </g>
</svg>