<?xml version="1.0" encoding="UTF-8"?><svg data-name="Layer 2" xmlns="http://www.w3.org/2000/svg" viewBox="0 0 1010.57 832.88"><defs/><g><g><path d="m998.37,201.52c-5.9,12.96-32.81,50.15-32.81,50.15,0,0,27.01,4.68.68,33.04,0,0,11.28,13.9-12.87,30.66,0,0,16.53,10.84-8.55,20.45,0,0,9.57,10.65-14.55,27.38,0,0,8.27,11.41-14.4,20.45,0,0-.32,19.87-25.44,23.5,0,0,4.57,18.74-14.18,19.47,0,0-7.07,18.73-24.52,18.7,0,0-8.18,18.51-29.56,20.78,0,0-2.52,25.29-20.36,21.3,0,0-5.04,14.18-21.38,14.34,0,0-3.22,10.75-15.08,12.01,0,0-15.31,13.64-33.57,11.47,0,0-4.98,13.7-27.35,9.04,0,0-21.36,14.43-30.54,13.82,0,0-3.92,14.29-21.9,11.17,0,0-18.46,5.19-32.01,3.13,0,0,21.68-6.12,13.72-14.01l-7.93-7.92s32.32-.16,23.52-19.28c0,0,29.01-.16,20.51-12.69,0,0,26.01,6.05,21.84-14.57,0,0,33.67-11.2,20.33-20.5,0,0,17.18-6.52,5.42-13.7,0,0,15.59-.31,6.11-10.89,0,0,22.88,2.94,17.93-11.31,0,0,19.07-5.57,11.48-18.71,0,0,18.47-.62,12.7-14.97,0,0,19.16-6.28,13.04-17.8,0,0,16.95,4.94,10.31-15.98,0,0,15.08-.31,8.23-12.64,0,0,10.75-5.87-.14-19.41,0,0,19.66,3.84,8.47-17.64,0,0,13.58-7.68,7.63-22.77,0,0,13.4-2.67-1.82-21.77,0,0,15.78-5.97,5.28-15.87,0,0,15.64-11.74-.22-18.7,0,0,1.94-22.75-10.41-10.61,0,0,.81-27.19-13.66-18.19,0,0,.7-10.69-9.45,3.16,0,0-1.95-13.57-5.36-25.39,1.13-9,1.94-19.18,2.16-30.56,1-53.66-22.69-75.72-10.12-74.53,12.56,1.19,39.72,65.7,33.63,97.57,0,0,18.74-73.53,5.12-117.77-13.62-44.24-2.96-51.36,10.24-29.12,13.17,22.21,22.58,94.64,18.3,116.81,0,0,24.56-73.51,24.23-126.41-.33-52.87,14.59-15.4,17.87,22.06,3.22,36.62-13.23,100.38-13.94,103.16,2.06-2.36,49.61-57.98,63.63-95.57,14.35-38.38-4.07-57.53,9.79-51.12,13.9,6.38,14.41,58.33-3.28,102.11-17.12,42.41-32.42,52.44-33.36,53.01,1.44-.6,44.63-19.06,71.96-66.25,27.8-48.03,29.32-43.79,20.46,2.53-8.74,45.59-46.2,82.36-47.38,83.51,1.52-.7,41.04-19.24,52.93-39.68,12.14-20.81,18.56.23-5.73,29.93-24.29,29.7-38.51,43.19-38.51,43.19,0,0,20.79-5.39,36.12-24.66,15.33-19.27,12.62.19,6.72,13.12Z" style="stroke-width:0px;fill:#3c2415"/><path d="m805.54,320.36c11.19,21.48-8.47,17.64-8.47,17.64,10.89,13.54.14,19.41.14,19.41,6.85,12.33-8.23,12.64-8.23,12.64,6.64,20.92-10.31,15.98-10.31,15.98,6.12,11.52-13.04,17.8-13.04,17.8,5.77,14.35-12.7,14.97-12.7,14.97,7.59,13.14-11.48,18.71-11.48,18.71,4.95,14.25-17.93,11.31-17.93,11.31,9.47,10.58-6.11,10.89-6.11,10.89,11.76,7.18-5.42,13.7-5.42,13.7,13.34,9.3-20.33,20.5-20.33,20.5,4.17,20.62-21.84,14.57-21.84,14.57,8.5,12.53-20.51,12.69-20.51,12.69,8.8,19.12-23.52,19.28-23.52,19.28l7.93,7.92c7.96,7.9-13.72,14.01-13.72,14.01,0,0-2.66,9.7-18.92,1.62-16.27-8.08-59.98-32.92-68.06-45.32-2.62-4-3.29-10.05-3.04-16.49,19.17-5.56,40.47-14.05,60.09-26.85,54.11-35.37,138.25-142.57,152.38-196.66,10.5-40.26,10.92-85.03,8.37-107.92,1.86-11.7,3.63-9.76,9.62,4.48,10.39,24.74,3.74,65.47,3.74,65.47,0,0,9.03-17,13.36-50.51,3.4,11.82,5.36,25.39,5.36,25.39,10.15-13.84,9.45-3.16,9.45-3.16,14.47-9.01,13.66,18.19,13.66,18.19,12.35-12.14,10.41,10.61,10.41,10.61,15.87,6.97.22,18.7.22,18.7,10.49,9.9-5.28,15.87-5.28,15.87,15.22,19.1,1.82,21.77,1.82,21.77,5.95,15.09-7.63,22.77-7.63,22.77Z" style="stroke-width:0px;fill:#3c2415"/><path d="m125.89,676.39c10.82,1.78,44.44,1.58,44.44,1.58,0,0-3.6,16.09,23.54,12.86,0,0,7.08,11.23,25.32,4.78,0,0,3.52,12.86,16.88,3.2,0,0,5.18,9.1,23.4,2.65,0,0,6.06,8.7,18.38.1,0,0,14.34,7.35,23.41-4.59,0,0,12.28,9.51,17.63-.15,0,0,15.26,3.34,19.73-5.92,0,0,15.39,2.67,22.53-7.8,0,0,18.8,8.23,20.53-2.73,0,0,11.48,2.69,15.8-5.91,0,0,8.55,2.36,12.5-3.45,0,0,13.73-2.95,16.88-13.45,0,0,11.12,2.54,13.53-11.08,0,0,15.85-5.86,17.79-10.96,0,0,11.26,3.33,13.66-7.38,0,0,8.47-7.82,10.49-15.78,0,0-9.97,9.18-13.59,1.97l-3.64-7.2s-8.44,17.07-19.89,5.17c0,0-7.59,15.31-14.39,6.07,0,0-2.35,16.07-16.08,6.06,0,0-16.71,13.61-19.95,3.02,0,0-9.1,6.64-11.23-2.31,0,0-4.23,8.14-9.39-.88,0,0-3.78,13.24-12.74,5.22,0,0-8.91,8-16.38-.99,0,0-5.2,9.55-14.01,1.07,0,0-9.44,7.78-16.13.18,0,0-.82,10.85-14.12-.58,0,0-4.11,7.88-11.19-.42,0,0-6.98,3.48-13.9-7.41,0,0-2.31,11.87-14.84-2.18,0,0-9.01,4.29-18.31-4.57,0,0-5.37,6.09-15.16-9.2,0,0-8.35,6.1-12.75-3.2,0,0-12.45,3.85-13.37-7.19,0,0-16.83-7.57-4.93-9.53,0,0-19.73-9.85-9.54-14.12,0,0-7.85-3.67,4.7-3.81,0,0-9.24-6.17-16.84-12.44-6.75-2.8-14.27-6.23-22.49-10.41-38.77-19.76-48.5-40.66-50.88-33.55-2.38,7.11,36.93,45.9,61.37,54.72,0,0-57.6-17.88-85.85-41.83-28.25-23.95-36.1-20.99-23.54-5.58,12.55,15.38,62.11,47.76,79.13,53.88,0,0-59.08-14.79-96.97-34.97-37.86-20.17-14.81,1.91,11.23,17.82,25.46,15.56,75.45,30.96,77.63,31.63-2.23.2-54.39,4.36-84.98-2.43-31.24-6.91-40.24-23.92-39.21-14.15,1,9.78,38.15,29.7,74.13,36.89,34.85,6.97,45.98,2.65,46.64,2.37-.8.54-25.17,16.44-66.08,13.07-41.63-3.43-38.98-1.02-3.45,11.8,34.97,12.61,71.01,6.66,72.13,6.48-.9.54-24.37,14.47-42.1,13.04-18.06-1.44-4.62,9.92,22.95,8.28,27.57-1.64,40.91-4.07,40.91-4.07,0,0-9.22,8.98-27,9.81-17.78.83-3.11,6.76,7.68,8.52Z" style="stroke-width:0px;fill:#3c2415"/><path d="m482.3,612.35s-9.96,9.18-13.58,1.97l-3.64-7.19s-8.44,17.06-19.9,5.16c0,0-7.57,15.33-14.38,6.07,0,0-2.35,16.07-16.08,6.07,0,0-16.71,13.6-19.94,3.03,0,0-9.11,6.63-11.23-2.32,0,0-4.24,8.14-9.38-.88,0,0-3.8,13.23-12.75,5.22,0,0-8.91,8.01-16.37-.98,0,0-5.2,9.55-14.03,1.06,0,0-9.43,7.77-16.13.16,0,0-.83,10.86-14.12-.56,0,0-4.11,7.88-11.19-.43,0,0-6.99,3.49-13.91-7.43,0,0-2.3,11.87-14.83-2.18,0,0-9,4.31-18.31-4.55,0,0-5.36,6.09-15.14-9.21,0,0-8.35,6.09-12.75-3.19,0,0-12.46,3.83-13.38-7.21,0,0-16.82-7.56-4.94-9.53,0,0-19.72-9.85-9.54-14.11,0,0-7.84-3.67,4.71-3.81,0,0-9.25-6.17-16.86-12.46,24.03,9.9,38.37,11.87,39.62,12-1.83-.72-31.34-12.32-45.94-26.72-.67-.67-1.3-1.28-1.88-1.86,19.81,11.1,66.94,33.08,140.04,40.43,73.44,7.37,134.74-19.27,161.77-33.67,2.14,1.41,3.93,2.9,5.11,4.47,6.81,8.97,13.4,41.54,15.01,53.23,1.61,11.66-6.05,9.39-6.05,9.39Z" style="stroke-width:0px;fill:#3c2415"/><path d="m742.45,278.69c-14.13,54.1-98.28,161.3-152.38,196.66-19.62,12.8-40.92,21.29-60.09,26.85.64-13.43,5.43-28.3,5.43-28.3l24.6-7.02s44.65-34.83,91.77-78.49c47.13-43.69,85.89-112.42,93.23-168.95,3.13-24.01,4.49-40.05,5.81-48.68,2.55,22.89,2.14,67.66-8.37,107.92Z" style="stroke-width:0px;fill:#603913"/><path d="m468.23,545.26c-27.02,14.4-88.33,41.04-161.77,33.67-73.1-7.35-120.23-29.33-140.04-40.43h-.02c-12.35-12.43-2.97-6.31,37.59,10.41,42.46,17.48,101.78,22.94,145.26,14.5,43.46-8.46,79.96-18.95,79.96-18.95l11.37-10.38s17.64,4.55,27.65,11.18Z" style="stroke-width:0px;fill:#603913"/><path d="m786.97,662.19c-18.85,16.61-35.34,8.2-47.52-3.07-12.18-11.27-22.88-40.43-17.87-42.6,5.02-2.18,11.52,2.9,17.8,16.96,0,0,3.29,22.25,24.67,23.3,21.38,1.05,24.47-22.76,17.55-31.08,0,0,3.07-.67,3.85-.07.75.58,3.33,1.18,3.5,1.22l-6.36-6.15,6.22,2.83-.14-3.65,1.77,1.66,1.44-2.72s13.96,26.77-4.9,43.38Z" style="fill:#aa7029;stroke-width:0px"/><path d="m781.7,578.56c-5.02,0-8.78,3.95-8.78,3.95l.69-3.94c-6.7,3.23-7.81,8.3-7.81,8.3l-.17-4.45s-5.59,5.61-7.15,14.77c-1.57,9.17,4.91,16.89,4.91,16.89,11.61,15.03,18.22,11.61,18.22,11.61,0,0,3.07-.67,3.85-.07.75.58,3.33,1.18,3.5,1.22l-6.36-6.15,6.22,2.83-.14-3.65,1.77,1.66,1.44-2.72.71-2.04c1.42-3.6-.71-12.04-13.01-19.94-12.31-7.9,2.12-18.26,2.12-18.26Z" style="stroke-width:0px;fill:#603913"/><path d="m765.35,613.14s-5.06-5.06-5.08-13.57c-.03-8.51,4.24-13.69,4.24-13.69v4.37s2.24-6.1,6.72-8.9l-.9,3.83s4.11-4.57,7.44-4.72c0,0-8.91,7.37-9.28,15.32l-.38,7.95-1.77-3.68s-3.98,4.83-.97,13.09Z" style="stroke-width:0px;fill:#754c29"/><path d="m707.22,821.18c-2.74,4.6-7.29,8.4-13.12,10.33-14.08,4.64-27.3-3.15-31.52-14.14-4.23-11-5.44-11.85-3.21-42.68,2.23-30.84.14-29.39-15.07-39.5-15.21-10.11-36.43-40.32-36.43-40.32-51.29-93.27,48.72-69.23,66.56-41.92-10.56,3.12-15.61,11.93-10.3,26.65,0,0,6.82,11.56,4.28,21.54-2.55,9.99,12.89,18.4,18.2,25.22,5.32,6.83,2.67,56.23,4.79,66.21,2.13,9.99,14.39,11.04,15.44,26.8.04.55.17,1.16.38,1.81Z" style="fill:#aa7029;stroke-width:0px"/><path d="m707.22,821.18c-.22-.65-.34-1.25-.38-1.81-1.05-15.76-13.31-16.81-15.44-26.8-2.12-9.98.53-59.38-4.79-66.21-5.31-6.83-20.75-15.24-18.2-25.22,2.55-9.98-4.28-21.54-4.28-21.54-5.31-14.72-.26-23.53,10.3-26.65.85,1.3,1.51,2.61,1.96,3.91,9.94,28.66-4.35,40.81,1.64,47.76,5.98,6.94,21.57,14.85,22.16,26.68.58,11.84-2.12,57.32-2.12,57.32l8.35,11.33c4.89,6.64,4.66,14.73.8,21.24Z" style="stroke-width:0px;fill:#edad3a"/><path d="m435.38,619.3s6.38,27.98,6.38,35.08v20.1s-24.34,53.65-31.52,61.11c-7.18,7.46-5.98,27.96,0,37.81,1.75,2.88,2.13,6.82,2.98,10.85-3.97-2.38-7.44-5.76-9.81-10.16-9.83-18.25-11.9-29.09-1.75-43.45,10.16-14.36,30.08-61.12,30.08-61.12l-3.59-21.44c-1.56-9.35,2.72-25.93,8.05-41.66-.67,4.12-.96,8.42-.83,12.87Z" style="stroke-width:0px;fill:#edad3a"/><path d="m491.53,680.1c-2.43,12.82-41.57,62.99-41.57,62.99,0,0,3.26,19.3-2.39,34.66-4.29,11.66-21.83,14.02-34.34,6.51-.85-4.04-1.24-7.97-2.98-10.85-5.98-9.85-7.18-30.35,0-37.81,7.18-7.46,31.52-61.11,31.52-61.11v-20.1c0-7.09-6.38-35.08-6.38-35.08-.13-4.45.16-8.75.83-12.87,2.88-8.47,6.05-16.68,8.78-23.38,9.5-15.39,25.2-26.75,43.13-33.15,14.3,9.22,25.07,34.01,29.27,44.48,7.32,18.22-23.44,72.9-25.86,85.72Z" style="fill:#aa7029;stroke-width:0px"/><path d="m747.38,622.41c-11.09-16.3-29.39-22.16-29.39-22.16,0,0-28.54-18.87-43.49-28.24-14.95-9.37-38.77-37.05-38.77-37.05-27.47-10.64-60.84-48.6-60.84-48.6,0,0-4.98-10.78-21.58-22.42,12.7-1.31,22.53-.06,27.23,4.26,36.19,33.11,64.95,51.47,87.85,64.56,0,0,0,0,.02.02.61.54,20.11,18.03,38.43,29.53,14.99,9.4,27.39,25.89,35.48,39.36,1.53,4.82,2.91,10.12,4.17,15.99.34,1.62.65,3.2.9,4.75Z" style="stroke-width:0px;fill:#edad3a"/><path d="m488.12,549.9c-17.93,6.4-33.63,17.77-43.13,33.15,3.82-9.4,6.76-15.83,6.76-15.83,13.24-22.44,25.77-24.16,36.37-17.33Z" style="stroke-width:0px;fill:#c3872b"/><path d="m623.84,679.14c-39.66-22.07-119.82,14.5-168.09-23.19-48.27-37.69-47.52-99.77-47.52-99.77,15.38-49.1,99.08-87.5,145.07-92.24,16.61,11.63,21.58,22.42,21.58,22.42,0,0,33.37,37.96,60.84,48.6,0,0,23.83,27.67,38.77,37.05,14.95,9.37,43.49,28.24,43.49,28.24,0,0,18.3,5.86,29.39,22.16,0,0,0,0,0,.02,12.7,77.26-84.67,78.35-123.54,56.71Z" style="fill:#aa7029;stroke-width:0px"/><path d="m742.31,601.67c-8.08-13.47-20.49-29.96-35.48-39.36-18.32-11.49-37.82-28.98-38.43-29.53,39.4,22.53,61.4,29.42,73.91,68.89Z" style="stroke-width:0px;fill:#fbbe59"/><path d="m444.99,583.05c-2.73,6.7-5.9,14.91-8.78,23.38,1.4-8.57,4.44-16.39,8.78-23.38Z" style="stroke-width:0px;fill:#c3872b"/><path d="m645.64,585.8c-13.17,7.49-39.63-4.73-48.75-23.65-9.1-18.91-6.85-41.37,0-52.41h0c9.71-7.73,21.18-3.31,21.18-3.31,17.78.33,30.27,19.36,37.7,42.77,0,.02,0,.02,0,.04,0,0,3.02,29.07-10.14,36.56Z" style="stroke-width:0px;fill:#edad3a"/><path d="m659.17,632.47c-13.1,22.33-65.63,9.83-65.63,9.83,0,0-1.86,13.39-7.44,24.25-5.59,10.86-7.18,25.76-33.46,13.31-21.35-10.11-19.64-45.06-10.97-61.66,0,0-2.94,17.41,20.2,20.1,23.14,2.68,28.73-10.05,28.73-10.05,0,0,3.68,1.14,9.27,2.33h.02c.82.17,1.69.35,2.59.52,11.49,1.75,26.42-3.1,26.42-12.97,0-10.64-35.35-11.93-35.35-11.93,0,0-14.63-27.3-9.04-68.92,2.01-14.98,6.93-23.17,12.39-27.52-6.84,11.04-9.09,33.5,0,52.41,9.11,18.92,35.58,31.14,48.75,23.65,13.17-7.49,10.14-36.56,10.14-36.56,9.95,31.32,10.88,70.46,3.38,83.23Z" style="stroke-width:0px;fill:#c3872b"/><path d="m621.71,509.75s-21.72-10.65-21.03,15.76,35.79,47.69,45.37,30.74c9.58-16.95-5.55-43.16-24.34-46.5Z" style="stroke-width:0px;fill:#fbbe59"/><path d="m749.34,767.37c-.19.98-.53,1.9-1.05,2.77-4.65,7.83-16.78,14.09-29.13,6.39-12.34-7.7-15.59-26.23-12.99-32.49,2.6-6.27,4.49-44.81,4.49-44.81,0,0-1.24-10-23.16-21.35-21.92-11.34-23.39-53.11-23.39-53.11.6-22.89,8.79-34.45,18.15-40.14,0,0,0,.02,0,.02,0,0-15.48,16.52-2.71,47.26,12.77,30.74,42.29,40.48,48.68,47.82,2.61,3,5.01,7.75,7.6,11.49h0s1.35,17.28,0,30.41c-1.36,13.14-3.48,15.43-3.48,15.43,0,0-3.9,1.91,2.03,9.79,3.97,5.25,10.72,12.44,14.95,20.51Z" style="stroke-width:0px;fill:#c3872b"/><path d="m749.54,689.75c0,1.03-.1,2.23-.27,3.57-9.63,11.18-14.71-6.3-21.03-13.58-6.38-7.35-35.91-17.08-48.68-47.82-12.77-30.74,2.71-47.26,2.71-47.26,0,0,0,0,0-.02,13.15-7.98,28.62-4.4,28.62-4.4,50.19,10.04,36.2,64.61,31.66,75.98-4.55,11.37,7.09,21.61,6.98,33.53Z" style="stroke-width:0px;fill:#edad3a"/><path d="m749.34,767.37c-4.23-8.07-10.98-15.26-14.95-20.51-5.94-7.88-2.03-9.79-2.03-9.79,0,0,2.12-2.29,3.48-15.43,1.35-13.13,0-30.4,0-30.4,3.69,5.34,7.77,8.65,13.43,2.08-1.72,14.05-11.04,42.96-8.66,49.15,2.31,6.04,10.28,17.03,8.73,24.9Z" style="stroke-width:0px;fill:#edad3a"/><path d="m583.48,453.84l-23.37,14.84,5.08,3.68-16.33,9.01,14.01,7.08-11.32,4.88,8.56,8.28-15,3.84,9.08,6.92-17.65,1.64,2.32,9.01-16-1.96v10.32l-24.13-13.2-55.9,6.2,5.32,12.32-3.96,14.32-8.04-16.28-5.33,6.96-3-8.32-7.48,4v-21.05c1.09-1.48,1.69-2.36,1.69-2.36,0,0-2.16-19.48,8.24-35.59-.25.52-3.99,8.65,3.46,14.93l7.7,6.49,2.79-10.07,9.92,10.07,5.95,5.77s19.7-20.71,27.85-24.21c8.15-3.5,23.16-6.2,23.16-6.2l-7.07-2.31s9.77-2.69,15.93-3.08c6.16-.38,45.45-17.17,45.45-17.17h0s21.17-4.5,21.17-4.5l-3.08,5.73Z" style="stroke-width:0px;fill:#603913"/><path d="m620.73,537.5l-31.49,8.12,13,9.24-18.45,8.68,4.36,22.81-10.88,1.08,10.88,16.29-18.49,2.16-13,20.65-17.41-13.04-5.4,16.29-16.29-9.76-3.28,23.89-23.89-23.89v14.12l-23.33-15.21-8.16,5.44-13-11.96-14.13,11.96v-17.41l-32.57,9.8,4.32-13.04h-14.08l-3.28-15.21h-7.6l4.36-18.45h-10.88s7.6-14.12,16.29-17.37c7.36-2.76,26.29-28.45,32.01-36.37v21.05l7.48-4,3,8.32,5.32-6.96,8.04,16.29,3.96-14.33-5.32-12.32,55.9-6.2,24.13,13.2v-10.32l16.01,1.96-2.32-9,17.65-1.64-9.08-6.92,15.01-3.84-8.56-8.28,11.32-4.88-14.01-7.08,16.33-9-5.08-3.68,23.37-14.85-2.92,5.48,15.21,1.08-10.88,18.45,19.57,1.08-13.04,16.29,20.65,3.28-17.41,14.49,33.69,10.48-34.77,7.6,27.17,5.44Z" style="stroke-width:0px;fill:#3c2415"/><path d="m503.97,518.34c-1.48,2.52-8.48,2.36-14.89,2.72-6.36.36-16.89,5.28-19.49,7.88-2.64,2.64-9.52,14.97-9.52,14.97v.04c-1.12,1.04-1.96,1.16-2.76-.16-2.56-4.12-4.92-11.56-4.92-11.56,0,0-.56-2.64-4.8-3.76-4.24-1.12-9.6-6.52-9.6-6.52.16-4.04,12.12-6.56,14.04-10.92,2.24-5.12,5.56-10.36,5.56-10.36,5.56-10.32,14.29,6.84,18.37,9.72,4.08,2.88,29.21,3.24,28.01,7.96Z" style="stroke-width:0px;fill:#f8ed34"/><path d="m507.85,492.69c-1.6,3.56-4.96,4.92-8.6,5.28-3.16.36-6.56-.12-9.08-.6-5.32-1-7.32-4.68-7.32-4.68,0,0,1.76-2.2,4.84-4.48l.08-.08c1.52-1.08,3.32-2.24,5.4-3.12,2.52-1.04,5-1.84,7.04-2.4,3.12-.88,5.32-1.24,5.32-1.24,0,0,5.32,4.64,2.32,11.32Z" style="stroke-width:0px;fill:#010101"/><path d="m499.25,497.97c-2.8,1.16-6.12,1.28-9.08-.6-6.64-4.24-3-8.56-2.48-9.16l.08-.08c1.52-1.08,3.32-2.24,5.4-3.12,2.52-1.04,5-1.84,7.04-2.4,0,0,4.4,2.08,5.4,7.12.6,2.96-2.36,6.64-6.36,8.24Z" style="stroke-width:0px;fill:#f8ed34"/><circle cx="496.29" cy="490.87" r="2.44" style="stroke-width:0px;fill:#010101"/><path d="m500.19,487.78c0-1.08-.87-1.95-1.95-1.95s-1.95.87-1.95,1.95.87,1.95,1.95,1.95,1.95-.87,1.95-1.95Z" style="stroke-width:0px;fill:#fff"/><path d="m460.5,503.03s-4.17,4.5-5.84,9c-1.67,4.5-12.34,7.05-10.17,9.03,2.17,1.98,11.5.31,11.67,5.65.17,5.34,2.17,12.5,4.33,4.33,2.17-8.17,8.5-11.5,13.34-13,4.84-1.5,18.93-1.5,12.38-3-6.55-1.5-13.55-2-17.88-5.5-4.33-3.5-6.34-11-7.84-6.5Z" style="stroke-width:0px;fill:#fff"/><path d="m503.97,518.34c-1.16,4.76-20.85,4.44-31.05,11.96-6.88,5.08-10.44,11.36-12.8,13.65-.04-.04-.04,0-.04,0v-.04s6.88-12.32,9.52-14.97c2.6-2.6,13.12-7.52,19.49-7.88,6.4-.36,13.4-.2,14.89-2.72Z" style="stroke-width:0px;fill:#9b8f33"/><path d="m452.39,532.22s-7.88-2.52-13.28-8c-.8-.8-1.16-1.56-1.12-2.28,0,0,5.36,5.4,9.6,6.52,4.24,1.12,4.8,3.76,4.8,3.76Z" style="stroke-width:0px;fill:#9b8f33"/><path d="m565.39,452.6h0s-39.29,16.8-45.45,17.18c-6.16.38-15.93,3.08-15.93,3.08l7.07,2.31s-15.01,2.69-23.16,6.2c-8.15,3.5-27.85,24.21-27.85,24.21l-5.95-5.77-9.92-10.07-2.79,10.07-7.7-6.49c-7.44-6.27-3.71-14.4-3.46-14.93,0-.02.02-.03.02-.03,4.4-6.81,11.04-13.01,21.03-16.88,33.69-13.04,55.38,0,68.42,0s43.82-8.48,43.82-8.48l1.84-.39Z" style="stroke-width:0px;fill:#754c29"/><path d="m633.59,623.17c0,10.2-15.23,15.21-26.95,13.4-.92-.18-1.81-.36-2.65-.54h-.02c-5.71-1.22-9.46-2.4-9.46-2.4,0,0-5.7,13.15-29.3,10.38-23.61-2.78-20.6-20.76-20.6-20.76,2.04-3.97,4.47-6.93,7.07-8.31,13.84-7.38,45.85-4.09,45.85-4.09,0,0,36.06,1.34,36.06,12.32Z" style="stroke-width:0px;fill:#edad3a"/></g></g></svg>