<?xml version="1.0" encoding="UTF-8"?>
<svg id="Layer_2" data-name="Layer 2" xmlns="http://www.w3.org/2000/svg" viewBox="0 0 663.01 440.93">
  <g id="DRAGON">
    <g>
      <path d="M320.32,248.3l-10.69,92.73c-.53.68-1.03,1.38-1.49,2.12v.02s-.02-.02-.02-.02c-7.15-22.38-46.67-29.71-46.67-29.71-52.47-86.97-106.68-52.12-106.68-52.12-16.11-56.49-110.56-58.98-110.56-58.98-11.24-29.98-43.13-18.11-44.21-17.7,39.52-46.46,147.33-50.38,176.76-50.57-.6.08-10.39,1.46-10.14,6.33.25,5.03,19.65,5.45,20.28,5.45s43.84,38.37,58.39,49.96c14.55,11.6,63.15,26.56,63.15,26.56,0,0,5.93,10.82,11.88,25.93Z" style="fill: #faaf40; stroke-width: 0px;"/>
      <path d="M322.66,228.04l-2.34,20.26c-5.95-15.11-11.88-25.93-11.88-25.93,0,0-48.61-14.97-63.15-26.56-14.55-11.59-57.76-49.96-58.39-49.96s-20.03-.42-20.28-5.45c-.25-4.87,9.54-6.25,10.14-6.33h0c4.79-.03,7.5.03,7.5.03h3.67l-.06.46s66.81,51.97,69.67,53.5c2.85,1.55,60.59,13.02,60.59,13.02l4.51,26.96h.02Z" style="fill: #8e1c1c; stroke-width: 0px;"/>
      <path d="M166.62,138.28s-119.4,16.03-141.58,31.88c-22.18,15.86-1.3,3.02,5.29,5.29,6.59,2.26,15.62,21.55,19.28,17.98s59.79-45.05,117-55.15Z" style="fill: #f9ec31; stroke-width: 0px;"/>
      <path d="M165.93,143.68s-84.76,28.52-112.76,54.23c0,0,91.45,6.84,102.43,53.68l28.1-103.41s-9.26-.39-17.77-4.5Z" style="fill: #f9ec31; stroke-width: 0px;"/>
      <path d="M187.26,149.07s-22.16,95.73-29.86,105.85c0,0,26.43-16.83,51.55-1.56,25.13,15.27,49.43,47,49.43,47,0,0,3.97-24.74,6.28-28.48,2.31-3.74,7.62-20.28,7.62-20.28,0,0,6.13-21.74,6.99-32.22,0,0-23.7-8.38-31.39-16.48-7.69-8.11-54.78-52.73-60.61-53.82Z" style="fill: #f9ec31; stroke-width: 0px;"/>
      <path d="M289.52,210.06c-14.44-4.6-28.77-6.27-32.55-10.5-3.78-4.23-64.84-54.34-67.47-55.18-2.65-.84-4.45-2.07-12.79-1.11-1.4.17-2.18-.03-2.5-.42,2.61-1.04,6.3-2.29,9.33-2.43,5.3-.28,9.53,2.51,14.88,7.36,5.35,4.85,59.3,49.71,61.43,50.99,2.13,1.28,34.72,10.01,34.72,10.01,0,0,1.42-.35,3.38-1.21,6.01,3.54,2.1,5.85-8.44,2.49Z" style="fill: #c03327; stroke-width: 0px;"/>
      <path d="M297.96,207.57c-1.96.86-3.38,1.21-3.38,1.21,0,0-32.59-8.73-34.72-10.01-2.13-1.28-56.08-46.14-61.43-50.99-5.35-4.85-9.58-7.64-14.88-7.36-3.03.14-6.72,1.39-9.33,2.43-1.58-1.97,8.8-9.16,16.06-4.61,8.7,5.47,68.19,55.67,69.22,56.85,1.02,1.2,27.55,8.26,27.55,8.26,5.1,1.43,8.69,2.91,10.91,4.22Z" style="fill: #c03327; stroke-width: 0px;"/>
      <path d="M342.69,248.3l10.69,92.73c.53.68,1.03,1.38,1.49,2.12v.02s.02-.02.02-.02c7.15-22.38,46.67-29.71,46.67-29.71,52.47-86.97,106.68-52.12,106.68-52.12,16.11-56.49,110.56-58.98,110.56-58.98,11.24-29.98,43.13-18.11,44.21-17.7-39.52-46.46-147.33-50.38-176.76-50.57.6.08,10.39,1.46,10.14,6.33-.25,5.03-19.65,5.45-20.28,5.45s-43.84,38.37-58.39,49.96c-14.55,11.6-63.15,26.56-63.15,26.56,0,0-5.93,10.82-11.88,25.93Z" style="fill: #faaf40; stroke-width: 0px;"/>
      <path d="M340.35,228.04l2.34,20.26c5.95-15.11,11.88-25.93,11.88-25.93,0,0,48.61-14.97,63.15-26.56,14.55-11.59,57.76-49.96,58.39-49.96s20.03-.42,20.28-5.45c.25-4.87-9.54-6.25-10.14-6.33h0c-4.79-.03-7.5.03-7.5.03h-3.67l.06.46s-66.81,51.97-69.68,53.5c-2.85,1.55-60.59,13.02-60.59,13.02l-4.51,26.96h-.02Z" style="fill: #8e1c1c; stroke-width: 0px;"/>
      <path d="M496.39,138.28s119.4,16.03,141.58,31.88c22.18,15.86,1.3,3.02-5.29,5.29-6.59,2.26-15.62,21.55-19.28,17.98s-59.79-45.05-117-55.15Z" style="fill: #f9ec31; stroke-width: 0px;"/>
      <path d="M497.08,143.68s84.76,28.52,112.76,54.23c0,0-91.45,6.84-102.43,53.68l-28.1-103.41s9.26-.39,17.77-4.5Z" style="fill: #f9ec31; stroke-width: 0px;"/>
      <path d="M475.75,149.07s22.16,95.73,29.86,105.85c0,0-26.43-16.83-51.55-1.56-25.13,15.27-49.43,47-49.43,47,0,0-3.97-24.74-6.28-28.48-2.31-3.74-7.62-20.28-7.62-20.28,0,0-6.13-21.74-6.99-32.22,0,0,23.7-8.38,31.39-16.48,7.69-8.11,54.78-52.73,60.61-53.82Z" style="fill: #f9ec31; stroke-width: 0px;"/>
      <path d="M373.49,210.06c14.44-4.6,28.77-6.27,32.55-10.5,3.78-4.23,64.84-54.34,67.47-55.18,2.65-.84,4.45-2.07,12.79-1.11,1.4.17,2.18-.03,2.5-.42-2.61-1.04-6.3-2.29-9.33-2.43-5.3-.28-9.53,2.51-14.88,7.36-5.35,4.85-59.3,49.71-61.43,50.99-2.13,1.28-34.72,10.01-34.72,10.01,0,0-1.42-.35-3.38-1.21-6.01,3.54-2.1,5.85,8.44,2.49Z" style="fill: #c03327; stroke-width: 0px;"/>
      <path d="M365.05,207.57c1.96.86,3.38,1.21,3.38,1.21,0,0,32.59-8.73,34.72-10.01,2.13-1.28,56.08-46.14,61.43-50.99,5.35-4.85,9.58-7.64,14.88-7.36,3.03.14,6.72,1.39,9.33,2.43,1.58-1.97-8.8-9.16-16.06-4.61-8.7,5.47-68.19,55.67-69.22,56.85-1.02,1.2-27.55,8.26-27.55,8.26-5.1,1.43-8.69,2.91-10.91,4.22Z" style="fill: #c03327; stroke-width: 0px;"/>
      <path d="M347.84,375.51c-1.45,9.51-6.54,58.86-40.32,64.74-33.78,5.89-41.77-28.07-35.96-42.6,5.81-14.53,14.17-6.3,10.53-6.3-2.05,0-5.96,5.21-6.3,12.19h0c-.12.37-4.54,14.22,8.35,23.31,13.06,9.21,28.78-3.1,33.26-19.51,4.48-16.41,0-38.58,0-38.58l-5.93,4.96c-.55-2.26-.93-3.65-.93-3.65-1.3-39.26,38.75-4.07,37.3,5.43Z" style="fill: #8e1c1c; stroke-width: 0px;"/>
      <path d="M317.4,407.35c-4.48,16.41-20.2,28.72-33.26,19.51-12.89-9.09-8.47-22.94-8.35-23.31-.25,5.37,1.61,11.78,8.06,17.69,14.84,13.58,30.93-10.87,31.03-23.09.07-8.62-2.12-19.03-3.42-24.42l5.93-4.96s4.48,22.17,0,38.58Z" style="fill: #c03327; stroke-width: 0px;"/>
      <path d="M365.21,342.35c-16.91,6.83-21.94-18.81-21.94-18.81,0,0-3.31,14.01-11.77,14.01s-11.77-14.01-11.77-14.01c0,0-5.03,25.64-21.94,18.81-16.91-6.83-23.61-37.61-23.61-37.61,1.03-5.57,12.66-63.16,14.14-67.91,5.05-16.24,15.97-34.85,19.63-56.93,5.84,2.78,13.94,5.42,23.54,5.42s17.69-2.64,23.54-5.42c3.66,22.08,14.58,40.7,19.63,56.93,1.48,4.76,11.05,62.34,12.09,67.91,0,0-4.65,30.78-21.55,37.61Z" style="fill: #c03327; stroke-width: 0px;"/>
      <path d="M368.61,358.82c-16.98,15.65-37.1,18.5-37.1,18.5,0,0-20.12-2.85-37.1-18.5-13.2-12.17-23.82-34.65-20.21-54.08,0,0,6.7,30.78,23.61,37.61,16.91,6.83,21.94-18.81,21.94-18.81,0,0,3.31,14.01,11.77,14.01s11.77-14.01,11.77-14.01c0,0,5.03,25.64,21.94,18.81,16.91-6.83,21.55-37.61,21.55-37.61,3.61,19.44-4.96,41.92-18.16,54.08Z" style="fill: #8e1c1c; stroke-width: 0px;"/>
      <path d="M331.51,312.25c-37.64,0-29.96-82.22-22.65-92.89,7.31-10.67,22.65-11.42,22.65-11.42,0,0,15.35.75,22.65,11.42,7.31,10.67,14.98,92.89-22.65,92.89Z" style="fill: #ef4d2a; stroke-width: 0px;"/>
      <path d="M311.64,100.54s-5.25,68.32-3.67,79.34c3.67,25.61,47.07,0,47.07,0,0,0-8.88-71.87,1.57-86.59,10.44-14.73-51.4-23.17-44.97,7.25Z" style="fill: #8e1c1c; stroke-width: 0px;"/>
      <path d="M320.86,331.41c-1.46,15.36-8.05,15.05-21.95,17.82-13.9,2.76-30.27-13.22-30.27-13.22-8.22-11.89-19.74-32.89-13.35-43.94,7.12-12.32,13.36-2.26,13.36-2.26,0,0,1.34-13.46,10.69-13.42,9.35.04,13.35,15.94,13.35,15.94,0,0,3.56-19.35,16.03-15.42,12.46,3.93,12.02,30.84,12.02,30.84-1.1,8.61,1.6,8.29.13,23.65Z" style="fill: #ef4d2a; stroke-width: 0px;"/>
      <path d="M263.09,297.41s3.47-3.22,2.88-6.32c-.6-3.11,1.27,4.76,5.41,4.76s12.48-8.02,12.14-11.88-1.58-4.69-.34-3.86c1.24.83,5.8,9.11,6.63,13.05.83,3.93,4.2,6.85,4.27,4.25.08-2.59,4.22-16.43,9.39-17.59,5.18-1.16,11.97,5.68,12.3,14.58.33,8.9,1.37,24.15,1.99,26.36.62,2.21,2.51,17.28-6.21,22.51-8.73,5.22-22.16,2.48-27.95,0-5.8-2.48-14.5-9.73-18.84-18.43-4.35-8.7-15.53-26.7-1.66-27.43Z" style="fill: #8e1c1c; stroke-width: 0px;"/>
      <path d="M307.15,280s-8.24-1.12-10.68,9.53c-2.45,10.65,1.34,20.47,3.12,23.55,1.78,3.08,5.34-10.97,10.68-16.56,5.34-5.59,2.23-16.25-3.12-16.53Z" style="fill: #231f20; stroke-width: 0px;"/>
      <path d="M277.77,279.96s-9.35-1.37-9.13,15.18c.22,16.54,12.47,23.03,12.24,18.38s.89-14.18,3.56-18.94c2.67-4.77-2.01-16.02-6.68-14.61Z" style="fill: #231f20; stroke-width: 0px;"/>
      <path d="M258.58,289.53s-7.3,2.52-7.3,13.18,8.46,16.54,11.13,16.54-.22-10.09,2.45-14.86c2.67-4.77-.32-16.82-6.28-14.86Z" style="fill: #231f20; stroke-width: 0px;"/>
      <path d="M304.35,282.65s-4.68-.31-5.77,8.23c-1.09,8.54,2.17,11.18,4.04,9.47,1.86-1.71,10.92-16.93,1.73-17.7Z" style="fill: #404041; stroke-width: 0px;"/>
      <path d="M276.93,282.65s-6.93-.31-5.99,9.79c.93,10.09,4.35,12.89,7.14,3.57s1.27-13.05-1.15-13.36Z" style="fill: #404041; stroke-width: 0px;"/>
      <path d="M258.56,291.75s-5.33.84-4.71,7.83,6.52,12.11,7.45,2.8c.93-9.32-.91-11.37-2.75-10.63Z" style="fill: #404041; stroke-width: 0px;"/>
      <path d="M342.15,331.41c1.46,15.36,8.05,15.05,21.95,17.82,13.9,2.76,30.27-13.22,30.27-13.22,8.22-11.89,19.74-32.89,13.35-43.94-7.12-12.32-13.36-2.26-13.36-2.26,0,0-1.34-13.46-10.69-13.42-9.35.04-13.35,15.94-13.35,15.94,0,0-3.56-19.35-16.03-15.42-12.46,3.93-12.02,30.84-12.02,30.84,1.1,8.61-1.6,8.29-.13,23.65Z" style="fill: #ef4d2a; stroke-width: 0px;"/>
      <path d="M399.92,297.41s-3.47-3.22-2.88-6.32c.6-3.11-1.27,4.76-5.41,4.76s-12.48-8.02-12.14-11.88,1.58-4.69.34-3.86c-1.24.83-5.8,9.11-6.63,13.05-.83,3.93-4.2,6.85-4.27,4.25-.08-2.59-4.22-16.43-9.39-17.59-5.18-1.16-11.97,5.68-12.3,14.58-.33,8.9-1.37,24.15-1.99,26.36-.62,2.21-2.51,17.28,6.21,22.51,8.73,5.22,22.16,2.48,27.95,0,5.8-2.48,14.5-9.73,18.84-18.43,4.35-8.7,15.53-26.7,1.66-27.43Z" style="fill: #8e1c1c; stroke-width: 0px;"/>
      <path d="M355.86,280s8.24-1.12,10.68,9.53c2.45,10.65-1.34,20.47-3.12,23.55-1.78,3.08-5.34-10.97-10.68-16.56s-2.23-16.25,3.12-16.53Z" style="fill: #231f20; stroke-width: 0px;"/>
      <path d="M385.24,279.96s9.35-1.37,9.13,15.18c-.22,16.54-12.47,23.03-12.24,18.38s-.89-14.18-3.56-18.94c-2.67-4.77,2.01-16.02,6.68-14.61Z" style="fill: #231f20; stroke-width: 0px;"/>
      <path d="M404.43,289.53s7.3,2.52,7.3,13.18-8.46,16.54-11.13,16.54.22-10.09-2.45-14.86c-2.67-4.77.32-16.82,6.28-14.86Z" style="fill: #231f20; stroke-width: 0px;"/>
      <path d="M358.66,282.65s4.68-.31,5.77,8.23c1.09,8.54-2.17,11.18-4.04,9.47-1.86-1.71-10.92-16.93-1.73-17.7Z" style="fill: #404041; stroke-width: 0px;"/>
      <path d="M386.08,282.65s6.93-.31,5.99,9.79c-.93,10.09-4.35,12.89-7.14,3.57s-1.27-13.05,1.15-13.36Z" style="fill: #404041; stroke-width: 0px;"/>
      <path d="M404.45,291.75s5.33.84,4.71,7.83-6.52,12.11-7.45,2.8.91-11.37,2.75-10.63Z" style="fill: #404041; stroke-width: 0px;"/>
      <path d="M307.84,53.27c-.38,3.08-1.46,5.24-3.02,6.67-.8,3.04-2.03,6.67-3.35,10.12-.47-1.28-.77-2.5-.81-3.6-.31-8.98-3.75-12.38-9.37-20.14-4.82-6.66-17.46-11.72-20.96-13.02-.53-.98-.88-1.59-.9-1.62.04,0,.73.18,12.49,3.05,12.49,3.05,25.92,18.55,25.92,18.55Z" style="fill: #ef4d2a; stroke-width: 0px;"/>
      <path d="M301.47,70.06c-2.77,7.22-5.95,13.63-6.43,12.16-.94-2.84-11.24-6.86-11.24-6.86.31-5.82-13.12-8.74-13.12-8.74,5.62-5.34,0-15.77,0-15.77,1.38-.36,2.69-.86,3.93-1.47,2.12-3.39-2.28-12.38-4.27-16.07,3.49,1.3,16.13,6.36,20.96,13.02,5.62,7.77,9.06,11.16,9.37,20.14.04,1.1.34,2.32.81,3.6Z" style="fill: #faaf40; stroke-width: 0px;"/>
      <path d="M295.17,54.83s-11.22-15.96-23.03-19.41c0,0,9.01,12.51,1.1,16.18,0,0,15.55,4.21,21.38,13.05l.56-9.82Z" style="fill: #f9ec31; stroke-width: 0px;"/>
      <path d="M293.78,66.04s-6.52-8.63-20.82-12.84c0,0,4.16,9.82,0,12.4,0,0,16.53.22,20.2,2.8l.62-2.37Z" style="fill: #f9ec31; stroke-width: 0px;"/>
      <path d="M275.6,67.09s10.69,2.8,9.58,7.67c0,0,5.29-2.6,7.99-3.99,0,0,.2-3.17-17.56-3.68Z" style="fill: #f9ec31; stroke-width: 0px;"/>
      <path d="M367.72,83.4c-1.55,10.64-4.2,22.74-8.7,26.54-4.5,3.8-7.51,13.65-11.43,21.22-3.92,7.57-15.8,6.81-15.8,6.81,0,0-11.88.76-15.8-6.81-3.92-7.57-6.93-17.41-11.43-21.22-4.5-3.8-7.15-15.9-8.7-26.54-.61-4.3.08-12.29,3.18-20.29,0,0,.44,12.72,1.82,18.6,1.41,5.88,4.94,7.01,4.94,7.01l9.92,11.5s-.77,7.44,2.29,13.98c3.09,6.54,8.01,11.1,13.78,11.1s10.69-4.56,13.78-11.1c3.07-6.54,2.29-13.98,2.29-13.98l9.92-11.5s3.54-1.12,4.94-7.01c1.38-5.88,1.82-18.6,1.82-18.6,3.09,8,3.78,15.99,3.18,20.29Z" style="fill: #c03327; stroke-width: 0px;"/>
      <path d="M364.55,63.11s-.44,12.72-1.82,18.6c-1.41,5.88-4.94,7.01-4.94,7.01l-9.92,11.5s.77,7.44-2.29,13.98c-3.09,6.54-8.01,11.1-13.78,11.1s-10.69-4.56-13.78-11.1c-3.07-6.54-2.29-13.98-2.29-13.98l-9.92-11.5s-3.54-1.12-4.94-7.01c-1.38-5.88-1.82-18.6-1.82-18.6,4.56-11.8,14.31-23.63,32.76-23.63s28.2,11.83,32.76,23.63Z" style="fill: #ef4d2a; stroke-width: 0px;"/>
      <path d="M355.65,101.97c-1.66,5.39-4.36,10.94-6.74,15.4v.03c-.8,1.49-1.55,2.81-2.21,4-.44.79-.86,1.52-1.22,2.18-.11.16-.19.36-.3.53-1.08,1.82-2.24,3.37-3.87,4.56-2.13,1.55-5.05,2.48-9.53,2.48s-7.4-.93-9.53-2.48c-1.63-1.19-2.79-2.74-3.87-4.56-.11-.17-.19-.36-.3-.53-.36-.66-.77-1.39-1.22-2.18-.66-1.19-1.41-2.51-2.21-4v-.03c-2.38-4.46-5.08-10.01-6.74-15.4-2.57-8.33-10.3-8.72-5.55-8.69,4,.03,9.03,12.36,12.76,20.75.28.66.55,1.29.86,1.88.36.83.72,1.62,1.08,2.31l.03.03c1.22,2.45,3.15,4.33,5.22,5.75.69.5,1.41.93,2.1,1.29,1.02.56,2.04,1.02,2.98,1.42,2.49.99,4.39,1.39,4.39,1.39,0,0,1.91-.4,4.39-1.39.94-.4,1.96-.86,2.98-1.42.69-.36,1.41-.79,2.1-1.29,2.07-1.42,4-3.3,5.22-5.75l.03-.03c.36-.69.72-1.49,1.08-2.31.3-.59.58-1.22.86-1.88,3.73-8.39,8.76-20.72,12.76-20.75,4.75-.03-2.98.36-5.55,8.69Z" style="fill: #981e1f; stroke-width: 0px;"/>
      <path d="M323.59,96.85s-6.67-1.45-9.56-7.7c-2.89-6.25-8.72-12.02-11.63-12.02s3.42,2.9,4.27,9.86c.85,6.96,5.96,12.25,9.03,13.21,3.07.96,5.48-4.3,7.89-3.35Z" style="fill: #c03327; stroke-width: 0px;"/>
      <path d="M318.01,99.49s-3.13,2.24-7.71-2.88c-4.55-5.11-5.34-8.91-4.95-15.73,0,0,2.62,2.14,4.97,5.16,1.05,1.36,2.03,2.92,2.73,4.53.98,2.34,2.1,4.33,3.04,5.89,1.08,1.9,1.92,3.02,1.92,3.02Z" style="fill: #fff100; stroke-width: 0px;"/>
      <path d="M316.09,96.47c-1.47,1.02-3.39.93-4.44-1.02-1.26-2.34-1.4-6.57-1.33-9.4,1.05,1.36,2.03,2.92,2.73,4.53.98,2.34,2.1,4.33,3.04,5.89Z" style="fill: #231f20; stroke-width: 0px;"/>
      <path d="M322.26,128.67c-.19,2.15-.8,3.07-2.1.2-.75-1.59-1.33-3.24-1.77-4.76-.72-2.38-1.1-4.49-1.3-5.85,1.22,2.45,3.15,4.33,5.22,5.75.08,1.62.08,3.37-.06,4.66Z" style="fill: #bbbdbf; stroke-width: 0px;"/>
      <path d="M314.66,117.4v-.03s-.14-2.35.47-3.34c.06-.13.14-.23.22-.3.41-.33.5.59.64,2.18.11,1.49.28,3.5.88,5.49-.66-1.19-1.41-2.51-2.21-4Z" style="fill: #bbbdbf; stroke-width: 0px;"/>
      <path d="M327.4,126.72c-.22,1.65-.61,3.21-1.24,2.25-.66-.99-1.3-2.51-1.74-3.67,1.02.56,2.04,1.02,2.98,1.42Z" style="fill: #bbbdbf; stroke-width: 0px;"/>
      <path d="M319.2,124.05s.55,3.33,1.66,4.74c1.11,1.41.4-3.03.4-3.03l-2.06-1.7Z" style="fill: #f1f1f2; stroke-width: 0px;"/>
      <path d="M314.85,115.97s0-1.18.4-1.7c.39-.52.49,1.96.52,2.59.03.63-1-.07-.92-.88Z" style="fill: #f1f1f2; stroke-width: 0px;"/>
      <path d="M355.74,53.27c.38,3.08,1.46,5.24,3.02,6.67.8,3.04,2.03,6.67,3.35,10.12.47-1.28.77-2.5.81-3.6.31-8.98,3.75-12.38,9.37-20.14,4.82-6.66,17.46-11.72,20.96-13.02.53-.98.88-1.59.9-1.62-.04,0-.73.18-12.49,3.05-12.49,3.05-25.92,18.55-25.92,18.55Z" style="fill: #ef4d2a; stroke-width: 0px;"/>
      <path d="M362.11,70.06c2.77,7.22,5.95,13.63,6.43,12.16.94-2.84,11.24-6.86,11.24-6.86-.31-5.82,13.12-8.74,13.12-8.74-5.62-5.34,0-15.77,0-15.77-1.38-.36-2.69-.86-3.93-1.47-2.12-3.39,2.28-12.38,4.27-16.07-3.49,1.3-16.13,6.36-20.96,13.02-5.62,7.77-9.06,11.16-9.37,20.14-.04,1.1-.34,2.32-.81,3.6Z" style="fill: #faaf40; stroke-width: 0px;"/>
      <path d="M368.41,54.83s11.22-15.96,23.03-19.41c0,0-9.01,12.51-1.1,16.18,0,0-15.55,4.21-21.38,13.05l-.56-9.82Z" style="fill: #f9ec31; stroke-width: 0px;"/>
      <path d="M369.79,66.04s6.52-8.63,20.82-12.84c0,0-4.16,9.82,0,12.4,0,0-16.53.22-20.2,2.8l-.62-2.37Z" style="fill: #f9ec31; stroke-width: 0px;"/>
      <path d="M387.98,67.09s-10.69,2.8-9.58,7.67c0,0-5.29-2.6-7.99-3.99,0,0-.2-3.17,17.56-3.68Z" style="fill: #f9ec31; stroke-width: 0px;"/>
      <path d="M339.99,96.85s6.67-1.45,9.56-7.7c2.89-6.25,8.72-12.02,11.63-12.02s-3.42,2.9-4.27,9.86c-.85,6.96-5.96,12.25-9.03,13.21s-5.48-4.3-7.89-3.35Z" style="fill: #c03327; stroke-width: 0px;"/>
      <path d="M345.56,99.49s3.13,2.24,7.71-2.88c4.55-5.11,5.34-8.91,4.95-15.73,0,0-2.62,2.14-4.97,5.16-1.05,1.36-2.03,2.92-2.73,4.53-.98,2.34-2.1,4.33-3.04,5.89-1.08,1.9-1.92,3.02-1.92,3.02Z" style="fill: #fff100; stroke-width: 0px;"/>
      <path d="M347.49,96.47c1.47,1.02,3.39.93,4.44-1.02,1.26-2.34,1.4-6.57,1.33-9.4-1.05,1.36-2.03,2.92-2.73,4.53-.98,2.34-2.1,4.33-3.04,5.89Z" style="fill: #231f20; stroke-width: 0px;"/>
      <path d="M341.32,128.67c.19,2.15.8,3.07,2.1.2.75-1.59,1.33-3.24,1.77-4.76.72-2.38,1.1-4.49,1.3-5.85-1.22,2.45-3.15,4.33-5.22,5.75-.08,1.62-.08,3.37.06,4.66Z" style="fill: #bbbdbf; stroke-width: 0px;"/>
      <path d="M348.91,117.4v-.03s.14-2.35-.47-3.34c-.06-.13-.14-.23-.22-.3-.41-.33-.5.59-.64,2.18-.11,1.49-.28,3.5-.88,5.49.66-1.19,1.41-2.51,2.21-4Z" style="fill: #bbbdbf; stroke-width: 0px;"/>
      <path d="M336.18,126.72c.22,1.65.61,3.21,1.24,2.25.66-.99,1.3-2.51,1.74-3.67-1.02.56-2.04,1.02-2.98,1.42Z" style="fill: #bbbdbf; stroke-width: 0px;"/>
      <path d="M344.38,124.05s-.55,3.33-1.66,4.74c-1.11,1.41-.4-3.03-.4-3.03l2.06-1.7Z" style="fill: #f1f1f2; stroke-width: 0px;"/>
      <path d="M348.73,115.97s0-1.18-.4-1.7c-.39-.52-.49,1.96-.52,2.59-.03.63,1-.07.92-.88Z" style="fill: #f1f1f2; stroke-width: 0px;"/>
      <path d="M356.64,60.21c-1.88,4.4-5.32,14.9-5.32,14.9l-2.68-7.37s-2.31,2.68-5.19,6.11c-3.04,6.68-6.77,13.09-10.48,19.43-.96-4.2-3.47-8-6.91-10.54-.13.43-.26.86-.43,1.32-2.02-4.36-3.77-8.82-5.25-13.35-.23-.79-.46-1.55-.63-2.28-1.52-3.34-3.34-5.52-3.34-5.52l-.76,8.43s-9.98-21.22-10.71-24.26c-.73-3.04,0-5.25,0-5.25,0,0,4.33-13.62,4.26-17.05-.07-3.4-6.18-13.09-6.18-13.09l14.21,5.02c-.46-.66-8.33-11.57-14.14-16.66,8.89,5.29,16.09,13.42,20.22,22.93-3.14-1.95-6.77-3.07-10.44-3.21,1.29.07,3.64,6.31,4.03,7.44.99,2.64,1.85,5.68,1.78,8.53-3.07-2.45-7.34-1.19-7.6,3.17-.23,4.3,3.17,9.78,5.49,13.22,0-1.45.03-2.91.07-4.4,3.67,8.49,7.34,16.95,11,25.45.63-2.78,1.22-5.55,1.82-8.33.73,5.16,1.82,10.28,3.27,15.27,4.13-12.49,6.97-25.45,8.43-38.56,1.59,4.36,3.21,8.72,4.82,13.05,1.12-3.44,1.92-6.97,2.38-10.57,1.62,2.28,2.71,4.92,3.17,7.7,2.41-11.8-1.02-24.42-8.29-34.04,10.61,11.27,12.66,16.52,12.66,16.52v5.06s2.61,16.52.73,20.92Z" style="fill: #3d1213; stroke-width: 0px;"/>
      <path d="M351.55,51.75c-.46-2.78-1.55-5.42-3.17-7.7-.46,3.6-1.26,7.14-2.38,10.57-1.62-4.33-3.24-8.69-4.82-13.05-1.45,13.12-4.3,26.07-8.43,38.56-1.45-4.99-2.54-10.11-3.27-15.27-.59,2.78-1.19,5.55-1.82,8.33-3.67-8.49-7.34-16.95-11-25.45-.03,1.49-.07,2.94-.07,4.4-2.31-3.44-5.72-8.92-5.49-13.22.26-4.36,4.53-5.62,7.6-3.17.07-2.84-.79-5.88-1.78-8.53-.4-1.12-2.74-7.37-4.03-7.44,3.67.13,7.3,1.26,10.44,3.21-4.13-9.52-11.34-17.65-20.22-22.93-.03-.03-.07-.07-.07-.07,0,0,25.41,2.51,37.97,15.4.76.79,1.49,1.52,2.18,2.25,0,.03.07.07.07.07,7.27,9.62,10.71,22.24,8.29,34.04Z" style="fill: #4e181b; stroke-width: 0px;"/>
      <path d="M308.16,50.03c1.49,1.19,1.12,3.44,1.69,5.12-.13.13-.23.26-.36.4-2.74,2.61-7.27-.69-7.27-.69,0,0-4.03-4.92-6.64-21.58-2.61-16.69,1.19-23.07,2.45-16.69,1.02,5.25,9.29,22.93,12.16,28.95-.16,1.55-.13,3.17-.63,4.66-.4-.1-.99,0-1.39-.17Z" style="fill: #bbbdbf; stroke-width: 0px;"/>
      <path d="M297.03,22.04s3.8,19.51,6.81,25.01c3.01,5.49,3.87,2.28,4.91,0s-10.13-24.82-10.92-27.47c-.79-2.65-.79,2.46-.79,2.46Z" style="fill: #f1f1f2; stroke-width: 0px;"/>
      <path d="M368.04,33.28c-2.61,16.66-6.64,21.58-6.64,21.58,0,0-2.87,2.08-5.45,1.62.73-1.39.79-3.14.76-4.76-.89.03-1.78.07-2.68.1-.63-2.58-.16-5.22.17-7.87,3.3-7.07,10.44-22.5,11.37-27.36,1.26-6.38,5.09,0,2.48,16.69Z" style="fill: #bbbdbf; stroke-width: 0px;"/>
      <path d="M366.54,22.04s-3.8,19.51-6.81,25.01c-3.01,5.49-3.87,2.28-4.91,0-1.04-2.28,10.13-24.82,10.92-27.47.79-2.65.79,2.46.79,2.46Z" style="fill: #f1f1f2; stroke-width: 0px;"/>
    </g>
  </g>
</svg>