<?xml version="1.0" encoding="utf-8"?>
<!-- Generator: Adobe Illustrator 28.0.0, SVG Export Plug-In . SVG Version: 6.00 Build 0)  -->
<svg version="1.1" id="Layer_2_00000070823960483742466770000015290104140096023181_"
	 xmlns="http://www.w3.org/2000/svg" xmlns:xlink="http://www.w3.org/1999/xlink" x="0px" y="0px" viewBox="0 0 885 884"
	 style="enable-background:new 0 0 885 884;" xml:space="preserve">
<style type="text/css">
	.st0{fill:url(#SVGID_1_);}
	.st1{fill:#3ECF4D;}
	.st2{fill:#49A5DD;}
	.st3{fill:#605217;}
	.st4{fill:#51AE32;}
	.st5{fill:#976503;}
	.st6{fill:#7D5404;}
	.st7{fill:#474747;}
	.st9{font-size:16px;}
	.st10{fill:none;stroke:#FFFFFF;stroke-width:0.1;}
	.st11{fill:#0B8036;}
	.st12{fill:#FFC017;}
</style>
<g>
	
		<radialGradient id="SVGID_1_" cx="-491.98" cy="474.46" r="88.52" gradientTransform="matrix(-1 0 0 1 -49.07 322.11)" gradientUnits="userSpaceOnUse">
		<stop  offset="0.68" style="stop-color:#DA3D8E"/>
		<stop  offset="0.71" style="stop-color:#C33D9B"/>
		<stop  offset="0.77" style="stop-color:#883DBC"/>
		<stop  offset="0.77" style="stop-color:#863DBE"/>
		<stop  offset="0.83" style="stop-color:#153EFF"/>
		<stop  offset="0.88" style="stop-color:#75B72A"/>
		<stop  offset="0.92" style="stop-color:#EEE535"/>
		<stop  offset="1" style="stop-color:#E52D12"/>
	</radialGradient>
	<path class="st0" d="M443.5,884c48,0,87-39,87-87c0-0.3,0-0.7,0-1h-21c0,0.3,0,0.7,0,1c0,36.5-29.5,66-66,66s-66-29.5-66-66
		c0-0.3,0-0.7,0-1h-21c0,0.3,0,0.7,0,1C356.5,845,395.4,884,443.5,884L443.5,884z"/>
	<circle class="st1" cx="442.6" cy="446" r="368"/>
	<path class="st2" d="M498.5,761.7c38.3,16.6,9.2,38.2-10.4,40.5c-24.4,2.8-49.5,3.3-75,1c-12.6-1.1-25.1-2.8-37.3-5.2
		c-23.4-4.5,21.1-0.2,13-21.9C380.7,754.4,486.9,756.7,498.5,761.7L498.5,761.7z"/>
	<g>
		<path class="st3" d="M92.7,456.1c-2.4-2.4-5.4-3.9-19.1-6.2c-10-1.7-15-2.5-17.1-1.2c-5.3,3.5-10.5,12.8-10.9,13.2
			s-10.1,8.6-5.5-0.8c1.3-2.6,3-6.6,7.8-14.8c4.5-7.7,4.8-9.9,2.7-12.8c-4.5-6.4-6-9.1-10.1-20.2c-1.6-4.4-3.3-11-2-11.7
			c1.6-0.8,5.7,8.1,9.7,16.7c4.3,9.1,5.3,11.5,9.3,14.4c2.2,1.5,6.9,1.4,16.4,1.2c13.1-0.4,15.7-1.5,16.7-3.5c0.9-1.8,0.1-3.2,1.6-7
			c0.2-0.5,1.8-4.5,2.7-4.3c1.4,0.3-0.3,9.4,0.4,22.2c0.7,12.3,3.2,21,1.9,21.4C96.6,462.9,96,459.4,92.7,456.1L92.7,456.1z"/>
		<path class="st4" d="M35.1,394.6c-2.7,0.1-3.1,3.2-5.8,3.5c-2.6,0.2-3.9-2.3-5.5-1.6c-1.7,0.8-0.6,3.9-2.3,5.1
			c-2.2,1.4-5.5-2.2-7.8-0.8c-1.6,1-0.5,3.2-2.3,5.1c-2.4,2.4-6.3,0.8-7,2.3c-0.8,1.9,4.4,5.2,3.5,7c-0.7,1.3-3.9,0-5.4,2
			c-0.9,1-0.2,1.8-0.8,4.7c-0.7,3.5-2,4-1.6,5.5c0.7,2.4,4.3,2.2,4.7,4.3c0.4,2.2-3.5,3.5-3.1,5.8c0.4,2.4,4.8,2.9,4.7,4.7
			c-0.1,1.5-3.3,1.7-3.5,3.5c-0.2,1.9,3.3,2.9,3.1,5.1c-0.1,1.6-2,1.7-2.3,3.5c-0.4,2.2,1.9,5.2,4.3,5.5c2.2,0.3,4.1-2,5.1-1.2
			c0.4,0.3,0.4,0.8,0.4,1.2c0.1,1.8-1.8,2.4-1.9,3.9c-0.2,1.7,1.8,3.9,3.9,4.3c2.6,0.5,4.6-2.1,5.8-1.2c0.7,0.5,0.2,1.3,0.8,2.7
			c0.8,2.3,3.4,4.3,5.8,4.3c2.7,0,3.3-2.5,5.8-2.3c2.2,0.2,2.5,2.3,4.7,2.3c2.1,0.1,2.4-1.9,5.5-3.1c3.6-1.4,5.9,0.3,7-1.2
			c1.2-1.6-1.3-4.3,0-6.2c1.1-1.5,3.1-0.4,4.3-2c1.5-2-0.9-4.9,0.8-7c0.8-1,1.8-0.8,2-1.6c0.3-1.5-3.8-2.3-4.3-4.7
			c-0.5-2.5,3.6-4.1,3.1-6.6c-0.4-2-3.2-2-3.5-3.9c-0.4-2.4,3.8-3.9,3.5-7c-0.1-1.3-0.8-1.2-1.2-2.7c-0.7-3.5,2.8-5.7,2-7.4
			c-0.9-1.8-5.3-0.2-6.6-2.3c-0.8-1.4,0.8-2.6,0-4.7c-0.9-2.2-3.2-1.8-4.3-3.9c-1.4-2.7,1.3-5.6,0-7c-1.2-1.2-3.5,0.6-5.1-0.8
			c-1.2-1-0.3-2.4-1.6-4.3C38.8,395.9,37,394.5,35.1,394.6L35.1,394.6z M48.2,451.8c0.1,0,0.2,0,0.4,0c0.9,0,1.6,0.6,1.9,1.4
			c1,2.8-1.7,5.1-3.6,6.6c-0.8,0.6-2.2,0.1-2.7-0.7c-0.4-0.7-0.3-1.4,0-2c-1.2-1.6-0.4-4.5,1-5.7C46.2,450.5,47.5,450.9,48.2,451.8
			L48.2,451.8z M48.7,417.8c3,3.4,3.3,7.8,5,11.8c1,2.3-2.4,4.2-3.4,2c-0.2-0.4-0.4-0.9-0.5-1.3c-1.4-0.1-2.7-0.8-3.1-2.3
			c-0.2-0.7-0.1-1.4,0-2.1c0.1-0.5,0.5-1.4,0.4-1.9c-0.1-0.6-2.1-0.4-2.9-0.6c-1.6-0.4-3-1.6-3.2-3.3
			C40.8,415.8,46.5,415.3,48.7,417.8L48.7,417.8z"/>
	</g>
	<g id="Group_18">
		<g id="Group_5">
			<g id="Rectangle_1">
				<rect x="369.3" y="0" class="st5" width="146.2" height="20.9"/>
			</g>
			<g id="Rectangle_2">
				<rect x="375.3" y="20.9" class="st6" width="16.1" height="83.1"/>
			</g>
			<g id="Rectangle_10">
				<rect x="493.4" y="20.9" class="st6" width="16.1" height="83.1"/>
			</g>
		</g>
		<g id="Benji_s_World">
			<text transform="matrix(1 0 0 1 392.99 15.26)" class="st7 st8 st9 zoo-name">Benji&apos;s World</text>
		</g>
	</g>
	<g>
		<path class="st3" d="M792.3,456.8c2.4-2.4,5.4-3.9,19.1-6.2c10-1.7,15-2.5,17.1-1.2c5.3,3.5,10.5,12.8,10.9,13.2s10.1,8.6,5.5-0.8
			c-1.3-2.6-3-6.6-7.8-14.8c-4.5-7.7-4.8-9.9-2.7-12.8c4.5-6.4,6-9.1,10.1-20.2c1.6-4.4,3.3-11,2-11.7c-1.6-0.8-5.7,8.1-9.7,16.7
			c-4.3,9.1-5.3,11.5-9.3,14.4c-2.2,1.5-6.9,1.4-16.3,1.2c-13.1-0.4-15.7-1.5-16.7-3.5c-0.9-1.8-0.1-3.2-1.6-7
			c-0.2-0.5-1.8-4.5-2.7-4.3c-1.4,0.3,0.3,9.4-0.4,22.2c-0.7,12.3-3.2,21-2,21.4C788.5,463.6,789.1,460.1,792.3,456.8L792.3,456.8z"
			/>
		<path class="st4" d="M845.3,398c-1.2,1.9-0.4,3.3-1.6,4.3c-1.6,1.4-3.9-0.4-5.1,0.8c-1.3,1.4,1.4,4.3,0,7
			c-1.1,2.1-3.4,1.7-4.3,3.9c-0.8,2,0.8,3.3,0,4.7c-1.3,2.1-5.7,0.5-6.6,2.3c-0.9,1.7,2.7,3.9,2,7.4c-0.3,1.5-1,1.4-1.2,2.7
			c-0.3,3.1,3.9,4.6,3.5,7c-0.3,1.9-3.1,1.9-3.5,3.9c-0.5,2.5,3.6,4.1,3.1,6.6c-0.4,2.4-4.6,3.2-4.3,4.7c0.1,0.7,1.1,0.6,2,1.6
			c1.7,2.1-0.7,5.1,0.8,7c1.2,1.5,3.2,0.4,4.3,2c1.3,1.9-1.2,4.6,0,6.2c1.1,1.5,3.4-0.2,7,1.2c3,1.2,3.3,3.2,5.5,3.1
			c2.1-0.1,2.4-2.1,4.7-2.3c2.5-0.2,3.1,2.4,5.8,2.3c2.4,0,5-2,5.8-4.3c0.5-1.4,0.1-2.2,0.8-2.7c1.3-0.9,3.2,1.6,5.8,1.2
			c2.1-0.4,4.1-2.6,3.9-4.3c-0.2-1.5-2-2.1-2-3.9c0-0.4,0-0.9,0.4-1.2c1-0.8,2.8,1.4,5.1,1.2c2.4-0.3,4.7-3.3,4.3-5.5
			c-0.3-1.8-2.2-1.9-2.3-3.5c-0.2-2.2,3.3-3.2,3.1-5.1c-0.2-1.8-3.4-2-3.5-3.5c-0.1-1.8,4.3-2.3,4.7-4.7c0.3-2.3-3.5-3.6-3.1-5.8
			c0.4-2.1,4-1.9,4.7-4.3c0.4-1.5-0.8-1.9-1.6-5.5c-0.6-2.9,0.1-3.6-0.8-4.7c-1.6-1.9-4.8-0.6-5.5-2c-0.9-1.8,4.3-5.1,3.5-7
			c-0.7-1.6-4.6,0-7-2.3c-1.8-1.8-0.7-4-2.3-5.1c-2.3-1.4-5.6,2.2-7.8,0.8c-1.8-1.2-0.7-4.3-2.3-5.1c-1.5-0.7-2.9,1.8-5.5,1.6
			c-2.8-0.3-3.1-3.4-5.8-3.5C848,395.2,846.2,396.6,845.3,398L845.3,398z M839.9,452.1c1.4,1.2,2.2,4.1,1,5.7c0.4,0.6,0.5,1.3,0,2
			c-0.5,0.8-1.8,1.3-2.7,0.7c-2-1.5-4.7-3.8-3.6-6.6c0.3-0.8,1-1.5,1.9-1.4c0.1,0,0.2,0,0.4,0C837.5,451.6,838.8,451.2,839.9,452.1
			L839.9,452.1z M843.9,420.7c-0.1,1.8-1.5,3-3.2,3.3c-0.8,0.2-2.8,0-2.9,0.6c-0.1,0.5,0.3,1.4,0.4,1.9c0.1,0.7,0.2,1.4,0,2.1
			c-0.4,1.5-1.7,2.2-3.1,2.3c-0.2,0.5-0.3,0.9-0.5,1.3c-1,2.3-4.3,0.3-3.4-2c1.7-4,2-8.4,5-11.8C838.6,416,844.2,416.5,843.9,420.7
			L843.9,420.7z"/>
	</g>
	<g>
		<path class="st11" d="M774,360.8c-8.5,0.5-14.8,13.3-14,28.8c0.4,7.6,2.5,14.4,5.5,19.3c-1.3,4-2,8.6-1.7,13.5
			c0.7,13.8,8.2,24.6,16.8,24.1c4.7-0.2,8.8-3.9,11.3-9.4c0.9,0.5,1.8,0.7,2.8,0.6c2.6-0.1,4.8-2.3,6.1-5.5c2.4,1.9,5.2,2.9,8.3,2.8
			c7.5-0.4,13.1-7.9,12.6-16.7c0-0.2,0-0.3,0-0.5c4.6-1.5,7.7-5.5,7.5-9.9s-3.8-8.1-8.6-9.1c0-0.5,0.1-1,0-1.4
			c-0.3-5-4.5-8.8-9.5-8.5c-0.5,0-0.9,0.1-1.4,0.2c-2-9.1-7.8-15.7-14.4-15.4c-2.3,0.1-4.4,1.1-6.3,2.7
			C786,366.9,780.3,360.5,774,360.8L774,360.8z M794.9,415.5c0.2-1.1,0.5-2.1,0.8-3c1.2,0.6,2.4,1.6,3.3,3c-0.5,0.1-1.1,0.2-1.7,0.2
			C796.6,415.7,795.7,415.6,794.9,415.5L794.9,415.5z M793.2,411.9c0.3,1.1,0.6,2.2,0.8,3.3c-1.4-0.4-2.7-1.1-3.9-2.1
			C791,412.4,792.1,411.9,793.2,411.9z M806.7,405.5c0.5,0.3,1,0.6,1.6,0.8c-0.6,1.4-1.3,2.7-2.1,3.9c-0.1-0.3-0.1-0.7-0.1-1
			C806,407.9,806.2,406.7,806.7,405.5z M809.8,401.3c-0.1,0.6-0.3,1.3-0.4,1.9c-0.4-0.1-0.9-0.1-1.3-0.1
			C808.6,402.5,809.2,401.9,809.8,401.3L809.8,401.3z"/>
		<path class="st4" d="M764.6,390.4c-4.7,0.2-8.1,8.5-7.5,18.4c0.3,4.9,1.4,9.3,3.1,12.5c-1.3,4.2-2,9.2-1.7,14.5s1.4,9.9,3,13.9
			l0,0c-1.2,5.2-1.7,12.1-1.3,19.6c0.8,15.7,5.3,28.3,10,28c1.9-0.1,3.5-2.3,4.8-6c0.9,0.4,1.9,0.6,2.9,0.5c3.6-0.2,6.3-3.2,6.2-6.8
			c-0.2-3.6-3.2-6.3-6.8-6.1h-0.1c0-0.2,0-0.5,0-0.8c2,1,4.2,1.5,6.6,1.4c7.2-0.4,12.7-6.5,12.3-13.7c0-0.1,0-0.1,0-0.2
			c0.8,0.1,1.7,0.1,2.5,0.1c7.5-0.4,13.2-6.7,12.8-14.2c-0.3-5.9-4.4-10.7-9.8-12.3c0-0.4,0-0.8,0-1.2c-0.1-1.7-0.7-3.3-1.7-4.6
			c5.9-1.2,10.2-5.5,9.9-10.3c-0.2-3.6-2.8-6.6-6.7-8.2c-1-4-4.4-8-9.3-10.5c-1.7-0.9-3.4-1.5-5.1-1.8c-0.5-4.1-4.2-7.1-8.3-6.9
			c-3.5,0.2-6.4,2.6-7.3,5.9c0.5,2,0.8,4.1,0.9,6.4c0,0.1,0.1,0.1,0.1,0.2c0.2,0,0.3,0,0.5,0c2.5,0.3,4.8,1.5,6.9,3.5
			c-0.1,0-0.2,0-0.4,0c-2.7,0.1-5.2-1.1-6.7-3c-0.1-0.2-0.2-0.3-0.4-0.5c0,0-0.1,0-0.1,0v-0.2c-0.7-1.1-1.1-2.4-1.2-3.8
			c0-0.9,0.1-1.8,0.3-2.6C771.5,394.8,768.1,390.2,764.6,390.4L764.6,390.4z M790.2,441.1c-0.2,1.7-0.5,3.4-0.8,5
			c-0.7,2.9-1.7,5.6-3,7.9c-0.5,0.8-0.9,1.6-1.5,2.3c-0.2-0.9-0.4-1.7-0.5-2.7c0-0.2,0-0.4,0-0.7c-0.2-3.2,0.8-6.2,2.6-8.7
			C787.8,443,789,441.9,790.2,441.1L790.2,441.1z M790.1,430.5c0.1,0.6,0.2,1.3,0.2,2c-0.7-0.3-1.4-0.6-2-1.1
			C788.8,431,789.4,430.7,790.1,430.5L790.1,430.5z M786.3,418.1c1.2,2.3,2.1,4.9,2.8,7.8c-1.8-0.4-3.5-1-5.3-1.9
			C783.9,421.8,784.8,419.7,786.3,418.1z"/>
	</g>
	<g>
		<rect x="181.2" y="85.6" transform="matrix(0.866 -0.5 0.5 0.866 -29.1845 146.2024)" class="st12" width="154" height="84"/>
		<text transform="matrix(0.866 -0.5 0.5 0.866 257.2106 132.97)" class="area">8</text>
	</g>
	<g>
		<rect x="46.3" y="220.5" transform="matrix(0.5 -0.866 0.866 0.5 -165.655 238.0279)" class="st12" width="154" height="84"/>
		<text transform="matrix(0.5 -0.866 0.866 0.5 123.3102 267.3834)" class="area">7</text>
	</g>
	<g>
		<rect x="82" y="553.5" transform="matrix(0.866 -0.5 0.5 0.866 -298.6544 146.4768)" class="st12" width="84" height="154"/>
		<text transform="matrix(-0.5 -0.866 0.866 -0.5 127.5591 632.7304)" class="area">6</text>
	</g>
	<g>
		<rect x="216.6" y="687.7" transform="matrix(0.5 -0.866 0.866 0.5 -532.9222 606.3241)" class="st12" width="84" height="154"/>
		<text transform="matrix(-0.866 -0.5 0.5 -0.866 262.9064 763.3643)" class="area">5</text>
	</g>
	<g>
		<rect x="549.8" y="723" transform="matrix(0.866 -0.5 0.5 0.866 -298.4992 415.8882)" class="st12" width="154" height="84"/>
		<text transform="matrix(-0.866 0.5 -0.5 -0.866 631.9752 761.0087)" class="area">4</text>
	</g>
	<g>
		<rect x="684.7" y="588.2" transform="matrix(0.5 -0.866 0.866 0.5 -164.905 974.7024)" class="st12" width="154" height="84"/>
		<text transform="matrix(-0.5 0.866 -0.866 -0.5 763.901 628.8273)" class="area">3</text>
	</g>
	<g>
		<rect x="719.7" y="184.4" transform="matrix(0.866 -0.5 0.5 0.866 -28.6485 415.8802)" class="st12" width="84" height="154"/>
		<text transform="matrix(0.5 0.866 -0.866 0.5 761.7192 261.3994)" class="area">2</text>
	</g>
	<g>
		<rect x="584.7" y="50.1" transform="matrix(0.5 -0.866 0.866 0.5 203.2994 606.228)" class="st12" width="84" height="154"/>
		<text transform="matrix(0.866 0.5 -0.5 0.866 622.3772 129.7104)" class="area">1</text>
	</g>
</g>
</svg>
