<?xml version="1.0" encoding="utf-8"?><!--Generator: Adobe Illustrator 28.2.0, SVG Export Plug-In . SVG Version: 6.00 Build 0)--><svg version="1.1" xmlns="http://www.w3.org/2000/svg" xmlns:xlink="http://www.w3.org/1999/xlink" x="0px" y="0px" viewBox="0 0 885 884" style="enable-background:new 0 0 885 884;" xml:space="preserve"><style type="text/css">.st0{fill:url(#rainbow_00000064344595891554460020000002154892434130819243_)}.st20{clip-path:url(#SVGID_00000160174390935195973410000013213877151114369923_);enable-background:new}.st21{clip-path:url(#SVGID_00000049942400181888053560000011525897703829959311_);enable-background:new}.st27{clip-path:url(#SVGID_00000139976877842104024420000014878028924404129164_)}.st28{clip-path:url(#SVGID_00000179622214630519166010000000909217562084186503_);fill:url(#SVGID_00000080185344195565955250000016887282362592017033_)}.st29{mask:url(#SVGID_00000052103166659167687390000000714852244196565687_);fill:url(#SVGID_00000064324986407714897910000001364753356006744241_)}.st30{fill:url(#SVGID_00000055675921287970194180000007315958967138073230_)}.st31{fill:url(#SVGID_00000129198841282159699770000018248225643628218005_)}.st32{fill:url(#SVGID_00000076603172272425736550000007713615662747839386_)}.st33{fill:url(#SVGID_00000168807593290388714120000008242016303921883793_)}.st34{fill:url(#SVGID_00000132054133060150868660000006040381551261727922_)}.st35{fill:url(#SVGID_00000118376900893357711880000010164422000337339799_)}.st36{fill:url(#SVGID_00000148623294286434664060000003724196676613128367_)}.st37{fill:url(#SVGID_00000042002304672169908460000004840672535440677780_)}.st38{fill:url(#SVGID_00000165947041045513908200000006881298162759429054_)}.st39{fill:url(#SVGID_00000161597021779674946300000013812953147139613622_)}.st40{fill:url(#SVGID_00000145772664891603817130000003426101510323307415_)}.st41{fill:url(#SVGID_00000095338065930398264420000006768149309244392873_)}.st42{fill:url(#SVGID_00000172419519947354864360000001528226906862278832_)}.st43{fill:url(#SVGID_00000124141475266583906630000016386770883930344844_)}.st44{fill:url(#SVGID_00000183219329427066754060000012330857621439683004_)}.st45{fill:url(#SVGID_00000150072935669371088510000008703526413738898871_)}.st46{fill:url(#SVGID_00000076562866162364262410000004111842451368711832_)}.st47{fill:url(#SVGID_00000108296359501844811830000003419727544620238513_)}.st48{fill:url(#SVGID_00000140717080862148562600000016601224096789182858_)}.st49{fill:url(#SVGID_00000063635435959407649000000002342791283611642794_)}.st51{fill:url(#SVGID_00000076576791197154528500000001961376534618238593_)}.st52{fill:url(#SVGID_00000047032315686678422410000011303368881258945921_)}</style><g><radialGradient id="a" cx="668.02" cy="394.46" r="88.52" gradientTransform="matrix(-1 0 0 1 1110.9299 402.11)" gradientUnits="userSpaceOnUse"><stop offset="0.68" style="stop-color:#DA3D8E"/><stop offset="0.71" style="stop-color:#C33D9B"/><stop offset="0.77" style="stop-color:#883DBC"/><stop offset="0.77" style="stop-color:#863DBE"/><stop offset="0.83" style="stop-color:#153EFF"/><stop offset="0.88" style="stop-color:#75B72A"/><stop offset="0.92" style="stop-color:#EEE535"/><stop offset="1" style="stop-color:#E52D12"/></radialGradient><path style="fill:url(#a);" d="M443.5,884
		c48,0,87-39,87-87c0-0.3,0-0.7,0-1h-21c0,0.3,0,0.7,0,1c0,36.5-29.5,66-66,66s-66-29.5-66-66c0-0.3,0-0.7,0-1h-21c0,0.3,0,0.7,0,1
		C356.5,845,395.4,884,443.5,884L443.5,884z"/></g><g><circle cx="442.6" cy="446" r="368" style="fill:#3ECF4D"/><path d="M803,520.8C789.5,586,758.8,645,715.8,692.6c-8.4,9.3-16,16.6-16,16.6c-2.7,2.6-3.1,2.9-3.7,3.5
		c0,0-0.3,0.3-0.5,0.6c-1.5,1.6-8.2,18.2-17.2,21.9c-5.1,2.1-9.2-0.5-12,2.9c-1.3,1.7-1.5,3.7-3.7,5.2c-2,1.3-4.2,1.2-5,1.2
		c-8.8,0-17.7,11.7-39.5,22.1c0,0,0,0,0,0c-2,5.8-3.9,11.5-5.9,17.3c-6.5-1.7-13-3.3-19.5-5c-4.4,3.3-10,6.9-16.8,10.2
		c-7.9,3.8-15.2,6.1-21.1,7.5c-1-0.2-2-0.4-3-0.6c-18.9-16.8-1.9-10,3.7-33.9c4.8-20.7-6-33.5,16.4-36.3c29-26.7,30-73.3,97.6-104
		c26.7-0.5,57.2-98.9,57.2-98.9C726.8,522.9,754.8,507.7,803,520.8z" style="fill:#F7E719"/><path d="M598,758.9c0.5,2.1,1,4.2,1.6,6.3" style="fill:#F7E719"/><path d="M578,808.2" style="fill:#F7E719"/><path d="M498.5,761.7c38.3,16.6,9.2,38.2-10.4,40.5c-24.4,2.8-49.5,3.3-75,1c-12.6-1.1-25.1-2.8-37.3-5.2
		c-23.4-4.5,21.1-0.2,13-21.9C380.7,754.4,486.9,756.7,498.5,761.7L498.5,761.7z" style="fill:#49A5DD"/><g><path d="M92.7,456.1c-2.4-2.4-5.4-3.9-19.1-6.2c-10-1.7-15-2.5-17.1-1.2c-5.3,3.5-10.5,12.8-10.9,13.2
			s-10.1,8.6-5.5-0.8c1.3-2.6,3-6.6,7.8-14.8c4.5-7.7,4.8-9.9,2.7-12.8c-4.5-6.4-6-9.1-10.1-20.2c-1.6-4.4-3.3-11-2-11.7
			c1.6-0.8,5.7,8.1,9.7,16.7c4.3,9.1,5.3,11.5,9.3,14.4c2.2,1.5,6.9,1.4,16.4,1.2c13.1-0.4,15.7-1.5,16.7-3.5c0.9-1.8,0.1-3.2,1.6-7
			c0.2-0.5,1.8-4.5,2.7-4.3c1.4,0.3-0.3,9.4,0.4,22.2c0.7,12.3,3.2,21,1.9,21.4C96.6,462.9,96,459.4,92.7,456.1L92.7,456.1z" style="fill:#605217"/><path d="M35.1,394.6c-2.7,0.1-3.1,3.2-5.8,3.5c-2.6,0.2-3.9-2.3-5.5-1.6c-1.7,0.8-0.6,3.9-2.3,5.1
			c-2.2,1.4-5.5-2.2-7.8-0.8c-1.6,1-0.5,3.2-2.3,5.1c-2.4,2.4-6.3,0.8-7,2.3c-0.8,1.9,4.4,5.2,3.5,7c-0.7,1.3-3.9,0-5.4,2
			c-0.9,1-0.2,1.8-0.8,4.7c-0.7,3.5-2,4-1.6,5.5c0.7,2.4,4.3,2.2,4.7,4.3c0.4,2.2-3.5,3.5-3.1,5.8c0.4,2.4,4.8,2.9,4.7,4.7
			c-0.1,1.5-3.3,1.7-3.5,3.5c-0.2,1.9,3.3,2.9,3.1,5.1c-0.1,1.6-2,1.7-2.3,3.5c-0.4,2.2,1.9,5.2,4.3,5.5c2.2,0.3,4.1-2,5.1-1.2
			c0.4,0.3,0.4,0.8,0.4,1.2c0.1,1.8-1.8,2.4-1.9,3.9c-0.2,1.7,1.8,3.9,3.9,4.3c2.6,0.5,4.6-2.1,5.8-1.2c0.7,0.5,0.2,1.3,0.8,2.7
			c0.8,2.3,3.4,4.3,5.8,4.3c2.7,0,3.3-2.5,5.8-2.3c2.2,0.2,2.5,2.3,4.7,2.3c2.1,0.1,2.4-1.9,5.5-3.1c3.6-1.4,5.9,0.3,7-1.2
			c1.2-1.6-1.3-4.3,0-6.2c1.1-1.5,3.1-0.4,4.3-2c1.5-2-0.9-4.9,0.8-7c0.8-1,1.8-0.8,2-1.6c0.3-1.5-3.8-2.3-4.3-4.7
			c-0.5-2.5,3.6-4.1,3.1-6.6c-0.4-2-3.2-2-3.5-3.9c-0.4-2.4,3.8-3.9,3.5-7c-0.1-1.3-0.8-1.2-1.2-2.7c-0.7-3.5,2.8-5.7,2-7.4
			c-0.9-1.8-5.3-0.2-6.6-2.3c-0.8-1.4,0.8-2.6,0-4.7c-0.9-2.2-3.2-1.8-4.3-3.9c-1.4-2.7,1.3-5.6,0-7c-1.2-1.2-3.5,0.6-5.1-0.8
			c-1.2-1-0.3-2.4-1.6-4.3C38.8,395.9,37,394.5,35.1,394.6L35.1,394.6z M48.2,451.8c0.1,0,0.2,0,0.4,0c0.9,0,1.6,0.6,1.9,1.4
			c1,2.8-1.7,5.1-3.6,6.6c-0.8,0.6-2.2,0.1-2.7-0.7c-0.4-0.7-0.3-1.4,0-2c-1.2-1.6-0.4-4.5,1-5.7C46.2,450.5,47.5,450.9,48.2,451.8
			L48.2,451.8z M48.7,417.8c3,3.4,3.3,7.8,5,11.8c1,2.3-2.4,4.2-3.4,2c-0.2-0.4-0.4-0.9-0.5-1.3c-1.4-0.1-2.7-0.8-3.1-2.3
			c-0.2-0.7-0.1-1.4,0-2.1c0.1-0.5,0.5-1.4,0.4-1.9c-0.1-0.6-2.1-0.4-2.9-0.6c-1.6-0.4-3-1.6-3.2-3.3
			C40.8,415.8,46.5,415.3,48.7,417.8L48.7,417.8z" style="fill:#51AE32"/></g><g><g><g><rect x="369.3" y="0" width="146.2" height="20.9" style="fill:#976503"/></g><g><rect x="375.3" y="20.9" width="16.1" height="83.1" style="fill:#7D5404"/></g><g><rect x="493.4" y="20.9" width="16.1" height="83.1" style="fill:#7D5404"/></g></g><g><text transform="matrix(1 0 0 1 392.99 15.26)" class="st9" style="fill:#474747;font-size:16px">Benji&apos;s World</text></g></g><g><path d="M792.3,456.8c2.4-2.4,5.4-3.9,19.1-6.2c10-1.7,15-2.5,17.1-1.2c5.3,3.5,10.5,12.8,10.9,13.2s10.1,8.6,5.5-0.8
			c-1.3-2.6-3-6.6-7.8-14.8c-4.5-7.7-4.8-9.9-2.7-12.8c4.5-6.4,6-9.1,10.1-20.2c1.6-4.4,3.3-11,2-11.7c-1.6-0.8-5.7,8.1-9.7,16.7
			c-4.3,9.1-5.3,11.5-9.3,14.4c-2.2,1.5-6.9,1.4-16.3,1.2c-13.1-0.4-15.7-1.5-16.7-3.5c-0.9-1.8-0.1-3.2-1.6-7
			c-0.2-0.5-1.8-4.5-2.7-4.3c-1.4,0.3,0.3,9.4-0.4,22.2c-0.7,12.3-3.2,21-2,21.4C788.5,463.6,789.1,460.1,792.3,456.8L792.3,456.8z" style="fill:#605217"/><path d="M845.3,398c-1.2,1.9-0.4,3.3-1.6,4.3c-1.6,1.4-3.9-0.4-5.1,0.8c-1.3,1.4,1.4,4.3,0,7
			c-1.1,2.1-3.4,1.7-4.3,3.9c-0.8,2,0.8,3.3,0,4.7c-1.3,2.1-5.7,0.5-6.6,2.3c-0.9,1.7,2.7,3.9,2,7.4c-0.3,1.5-1,1.4-1.2,2.7
			c-0.3,3.1,3.9,4.6,3.5,7c-0.3,1.9-3.1,1.9-3.5,3.9c-0.5,2.5,3.6,4.1,3.1,6.6c-0.4,2.4-4.6,3.2-4.3,4.7c0.1,0.7,1.1,0.6,2,1.6
			c1.7,2.1-0.7,5.1,0.8,7c1.2,1.5,3.2,0.4,4.3,2c1.3,1.9-1.2,4.6,0,6.2c1.1,1.5,3.4-0.2,7,1.2c3,1.2,3.3,3.2,5.5,3.1
			c2.1-0.1,2.4-2.1,4.7-2.3c2.5-0.2,3.1,2.4,5.8,2.3c2.4,0,5-2,5.8-4.3c0.5-1.4,0.1-2.2,0.8-2.7c1.3-0.9,3.2,1.6,5.8,1.2
			c2.1-0.4,4.1-2.6,3.9-4.3c-0.2-1.5-2-2.1-2-3.9c0-0.4,0-0.9,0.4-1.2c1-0.8,2.8,1.4,5.1,1.2c2.4-0.3,4.7-3.3,4.3-5.5
			c-0.3-1.8-2.2-1.9-2.3-3.5c-0.2-2.2,3.3-3.2,3.1-5.1c-0.2-1.8-3.4-2-3.5-3.5c-0.1-1.8,4.3-2.3,4.7-4.7c0.3-2.3-3.5-3.6-3.1-5.8
			c0.4-2.1,4-1.9,4.7-4.3c0.4-1.5-0.8-1.9-1.6-5.5c-0.6-2.9,0.1-3.6-0.8-4.7c-1.6-1.9-4.8-0.6-5.5-2c-0.9-1.8,4.3-5.1,3.5-7
			c-0.7-1.6-4.6,0-7-2.3c-1.8-1.8-0.7-4-2.3-5.1c-2.3-1.4-5.6,2.2-7.8,0.8c-1.8-1.2-0.7-4.3-2.3-5.1c-1.5-0.7-2.9,1.8-5.5,1.6
			c-2.8-0.3-3.1-3.4-5.8-3.5C848,395.2,846.2,396.6,845.3,398L845.3,398z M839.9,452.1c1.4,1.2,2.2,4.1,1,5.7c0.4,0.6,0.5,1.3,0,2
			c-0.5,0.8-1.8,1.3-2.7,0.7c-2-1.5-4.7-3.8-3.6-6.6c0.3-0.8,1-1.5,1.9-1.4c0.1,0,0.2,0,0.4,0C837.5,451.6,838.8,451.2,839.9,452.1
			L839.9,452.1z M843.9,420.7c-0.1,1.8-1.5,3-3.2,3.3c-0.8,0.2-2.8,0-2.9,0.6c-0.1,0.5,0.3,1.4,0.4,1.9c0.1,0.7,0.2,1.4,0,2.1
			c-0.4,1.5-1.7,2.2-3.1,2.3c-0.2,0.5-0.3,0.9-0.5,1.3c-1,2.3-4.3,0.3-3.4-2c1.7-4,2-8.4,5-11.8C838.6,416,844.2,416.5,843.9,420.7
			L843.9,420.7z" style="fill:#51AE32"/></g><g><path d="M774,360.8c-8.5,0.5-14.8,13.3-14,28.8c0.4,7.6,2.5,14.4,5.5,19.3c-1.3,4-2,8.6-1.7,13.5
			c0.7,13.8,8.2,24.6,16.8,24.1c4.7-0.2,8.8-3.9,11.3-9.4c0.9,0.5,1.8,0.7,2.8,0.6c2.6-0.1,4.8-2.3,6.1-5.5c2.4,1.9,5.2,2.9,8.3,2.8
			c7.5-0.4,13.1-7.9,12.6-16.7c0-0.2,0-0.3,0-0.5c4.6-1.5,7.7-5.5,7.5-9.9s-3.8-8.1-8.6-9.1c0-0.5,0.1-1,0-1.4
			c-0.3-5-4.5-8.8-9.5-8.5c-0.5,0-0.9,0.1-1.4,0.2c-2-9.1-7.8-15.7-14.4-15.4c-2.3,0.1-4.4,1.1-6.3,2.7
			C786,366.9,780.3,360.5,774,360.8L774,360.8z M794.9,415.5c0.2-1.1,0.5-2.1,0.8-3c1.2,0.6,2.4,1.6,3.3,3c-0.5,0.1-1.1,0.2-1.7,0.2
			C796.6,415.7,795.7,415.6,794.9,415.5L794.9,415.5z M793.2,411.9c0.3,1.1,0.6,2.2,0.8,3.3c-1.4-0.4-2.7-1.1-3.9-2.1
			C791,412.4,792.1,411.9,793.2,411.9z M806.7,405.5c0.5,0.3,1,0.6,1.6,0.8c-0.6,1.4-1.3,2.7-2.1,3.9c-0.1-0.3-0.1-0.7-0.1-1
			C806,407.9,806.2,406.7,806.7,405.5z M809.8,401.3c-0.1,0.6-0.3,1.3-0.4,1.9c-0.4-0.1-0.9-0.1-1.3-0.1
			C808.6,402.5,809.2,401.9,809.8,401.3L809.8,401.3z" style="fill:#0B8036"/><path d="M764.6,390.4c-4.7,0.2-8.1,8.5-7.5,18.4c0.3,4.9,1.4,9.3,3.1,12.5c-1.3,4.2-2,9.2-1.7,14.5s1.4,9.9,3,13.9
			l0,0c-1.2,5.2-1.7,12.1-1.3,19.6c0.8,15.7,5.3,28.3,10,28c1.9-0.1,3.5-2.3,4.8-6c0.9,0.4,1.9,0.6,2.9,0.5c3.6-0.2,6.3-3.2,6.2-6.8
			c-0.2-3.6-3.2-6.3-6.8-6.1h-0.1c0-0.2,0-0.5,0-0.8c2,1,4.2,1.5,6.6,1.4c7.2-0.4,12.7-6.5,12.3-13.7c0-0.1,0-0.1,0-0.2
			c0.8,0.1,1.7,0.1,2.5,0.1c7.5-0.4,13.2-6.7,12.8-14.2c-0.3-5.9-4.4-10.7-9.8-12.3c0-0.4,0-0.8,0-1.2c-0.1-1.7-0.7-3.3-1.7-4.6
			c5.9-1.2,10.2-5.5,9.9-10.3c-0.2-3.6-2.8-6.6-6.7-8.2c-1-4-4.4-8-9.3-10.5c-1.7-0.9-3.4-1.5-5.1-1.8c-0.5-4.1-4.2-7.1-8.3-6.9
			c-3.5,0.2-6.4,2.6-7.3,5.9c0.5,2,0.8,4.1,0.9,6.4c0,0.1,0.1,0.1,0.1,0.2c0.2,0,0.3,0,0.5,0c2.5,0.3,4.8,1.5,6.9,3.5
			c-0.1,0-0.2,0-0.4,0c-2.7,0.1-5.2-1.1-6.7-3c-0.1-0.2-0.2-0.3-0.4-0.5h-0.1V408c-0.7-1.1-1.1-2.4-1.2-3.8c0-0.9,0.1-1.8,0.3-2.6
			C771.5,394.8,768.1,390.2,764.6,390.4L764.6,390.4z M790.2,441.1c-0.2,1.7-0.5,3.4-0.8,5c-0.7,2.9-1.7,5.6-3,7.9
			c-0.5,0.8-0.9,1.6-1.5,2.3c-0.2-0.9-0.4-1.7-0.5-2.7c0-0.2,0-0.4,0-0.7c-0.2-3.2,0.8-6.2,2.6-8.7C787.8,443,789,441.9,790.2,441.1
			L790.2,441.1z M790.1,430.5c0.1,0.6,0.2,1.3,0.2,2c-0.7-0.3-1.4-0.6-2-1.1C788.8,431,789.4,430.7,790.1,430.5L790.1,430.5z
			 M786.3,418.1c1.2,2.3,2.1,4.9,2.8,7.8c-1.8-0.4-3.5-1-5.3-1.9C783.9,421.8,784.8,419.7,786.3,418.1z" style="fill:#51AE32"/></g><g><rect x="46.3" y="220.5" transform="matrix(0.5 -0.866 0.866 0.5 -165.684 237.9995)" width="154" height="84" style="fill:#FFC017"/><text transform="matrix(0.5 -0.866 0.866 0.5 123.3101 267.3833)" class="st9" style="font-size:12px">7</text></g><g><rect x="82" y="553.5" transform="matrix(0.866 -0.5 0.5 0.866 -298.6371 146.4744)" width="84" height="154" style="fill:#FFC017"/><text transform="matrix(-0.5 -0.866 0.866 -0.5 127.5589 632.731)" class="st9" style="font-size:12px">6</text></g><g><rect x="216.6" y="687.6" transform="matrix(0.5 -0.866 0.866 0.5 -532.9052 606.2473)" width="84" height="154" style="fill:#FFC017"/><text transform="matrix(-0.866 -0.5 0.5 -0.866 262.9064 763.3648)" class="st9" style="font-size:12px">5</text></g><g><rect x="603.2" y="793.9" transform="matrix(0.866 -0.5 0.5 0.866 -326.8131 452.1086)" width="154" height="84" style="fill:#FFC017"/><text transform="matrix(-0.866 0.5 -0.5 -0.866 631.9757 761.0084)" class="st9" style="font-size:12px">4</text></g><path d="M796.7,344.8c-0.6,27.6-38.3,11.3-59.5-20.4c-29-12.1-62.1-15.4-50.3-48.4c-40.3-9.1-69.1-52.5-73.2-64.2
		c-5.9-17,7.5-65,26.3-76.4c36.7,23.3,69,53,95.3,87.5c19.7,27.2,15.2,20,34.2,53.9C780.8,298.2,789.9,321,796.7,344.8z" style="fill:#49A5DD"/><path d="M633,192.6c-31.2,4-54.2-6.2-60.5-40.7c-11.8-2.1-25.1-2.6-34.4-10.8c-18-15.6-10.6-38.6,26.2-29.9
		c1.7-10.4,21.4-4.7,43,5.5c0.1,0,0.1,0.1,0.2,0.1c21.2,10.6,41.2,23.2,59.8,37.6C698.2,191.5,676.9,214.3,633,192.6z" style="fill:#FFFFFF"/><path d="M676,216.3c1.8,3.5-7,9.8-11.1,8c0.3-8-7.5,2-9.3-1.8c-2.5-5.4-6.4-6.9,3.4-12.5c0.5-4.2,5.9-1.9,11.9,2.3
		C673,211.1,676,216.2,676,216.3" style="fill:#FFFFFF"/><path d="M700.7,195.6c-1.1,3.9-1.1,10.2-5.1,8.4c-4.1-1.3-2.9,0.3-4.4-2.3c-2.1-3.7-5.1-3.7-2.4-8.4
		C689.3,189.1,694.7,191.4,700.7,195.6" style="fill:#FFFFFF"/></g><g><g><path d="M620.2,127.5c-2.7,2.5-6.9,5.1-9.9,1.7c4.2,0,7-3.4,10.2-4.8C621.2,124.8,621.1,126.4,620.2,127.5z" style="fill:#A7A8AC"/><path d="M630.2,139.6c-0.3,0.8-5-1.1-4.4-2.2c2.7,0.2,6-4.5,6.6-5.7c1.9-0.5,2.9,2.8,2,4.5
			C633.3,138.3,631.2,138.9,630.2,139.6z" style="fill:#A7A8AC"/><path d="M620.5,124.3c-3.1,1.4-6,4.8-10.2,4.8c-0.2-0.4,1.1-0.6,2.2-0.9C615.5,127.3,618.7,123.4,620.5,124.3z" style="fill:#E5E6E6"/><path d="M632.2,132.4c-0.7,0.7-4,5.5-6.4,5.1c2.5-0.8,4.7-5.1,6.6-5.7C632.3,132.1,632.2,132.4,632.2,132.4z" style="fill:#E5E6E6"/><path d="M638.8,135.4c-0.2,0.2-0.5,0.4-0.7,0.6c-0.8-1.2-2.1-2.2-2.9-2c-4.5,1.5-9.7-6.9-12.2-7.9
			c0,0-1.6-2.4-3.4-2.5c-1.8-0.2-3.5-3.2-3.8-4s1.4-1.1-0.5-1.2c-1.3-0.1-4.1-1.4-5.8-2.3c-0.3-0.5-0.3-0.9-0.1-1.3
			c10.7-2.1,6.7,2,14.3,4.1c1.2,0.3,2.9,0.9,4.1,2.4c1.2,1.5,2.5,0.7,4.5,1.6C635.2,123.1,641.6,131.1,638.8,135.4z" style="fill:#E5E6E6"/><path d="M638.1,136c-5.1,4.5-12.1-4.5-14.7-6.5c-3.4-2.4-5.1-3.4-5.5-4.8l0,0c-1.8-2-2.8-4.3-3.2-4.9
			c-2.2-1.2-4.7-2.8-5.2-3.7c1.7,0.9,4.5,2.2,5.8,2.3c1.9,0.1,0.2,0.4,0.5,1.2s1.9,3.9,3.8,4c1.8,0.2,3.4,2.5,3.4,2.5s3,1.6,4.6,4.1
			C630.9,135.7,635.6,132.3,638.1,136z" style="fill:#A7A8AC"/><path d="M612.4,114.9c0,0,1.1-0.4,1.2,0.4C613.6,115.3,613.4,115.8,612.4,114.9z"/><path d="M612.9,114.9c0.1-0.1,0.3,0,0.2,0.1C613,115.2,612.8,115,612.9,114.9z" style="fill:#FFFFFF"/><path d="M617.2,116.5c0-0.2,0.1-0.4,0.1-0.7c0,0,0.6-0.6,1-0.2C618.1,116.2,617.2,116.5,617.2,116.5z" style="fill:#E5E6E6"/><path d="M638.8,135.4c2.8-4.3-3.5-12.3-6.5-12.5c-2-0.9-3.3-0.2-4.5-1.6c-1.2-1.5-2.9-2-4.1-2.4
			c-7.6-2.1-3.6-6.2-14.3-4.1c0.2-0.5-0.1-0.4,4.5-1.3c4.3-0.3,7.5,4.8,10.4,4.4c3.3,0.8,4.2,2.9,8.7,4.4
			C638.2,124.2,643,131,638.8,135.4z" style="fill:#FFFFFF"/><path d="M617.4,116.8c-0.2,0.1-0.2,0-0.2-0.2l0,0c0,0,0.8-0.2,1.1-0.9C618.2,116,617.7,116.7,617.4,116.8z" style="fill:#BCBDBF"/><path d="M618.3,115.6c-0.4-0.3-1,0.2-1,0.2c0-0.1,0-0.1,0-0.2C617.2,115.5,618.2,115,618.3,115.6z" style="fill:#FFFFFF"/><path d="M609.6,114.3c0,0-0.8,0.8-0.4,1.1C609.5,115.7,610.9,114.1,609.6,114.3z"/><path d="M609.9,114.4c0,0-0.3-0.1-0.5,0.2C609.3,115.2,610.3,114.8,609.9,114.4z" style="fill:#231F20"/><path d="M621.5,133.6c-1.8,3-5.2,1-3.3-0.6c0.9-0.2,0.8-9.6,1.5-9.9C624,123.8,623.7,130.8,621.5,133.6z" style="fill:#E5E6E6"/><path d="M638,143.6c-0.1,0.1-0.2,0.2-0.2,0.3c-4.4,1.1-2.1-0.8-3.7-5.2c-1-3.3-0.2-5.9-0.2-5.9
			c1.4-1.3,3.2-1,4.7-0.1c1.9,1.2-0.2,5.5-0.5,7.2C637.7,141.6,638.6,142.7,638,143.6z" style="fill:#E5E6E6"/><path d="M618.5,135.1c-1.1-0.5-3.2-2-1.8-2.2c2.4-0.6,0.4-9.9,3.1-9.9c-0.7,0.4-0.7,9.7-1.5,9.9
			C617.7,133.4,617,133.8,618.5,135.1z" style="fill:#BCBDBF"/><path d="M637.7,144c-0.9,2-5.2,0.2-4-1c0.7-0.4-0.4-1.9-0.7-3.9c-0.2-3.5-0.8-4.7,0.8-6.1c0,0-0.8,2.6,0.2,5.9
			C635.7,143.2,633.3,145,637.7,144z" style="fill:#BCBDBF"/><path d="M621.4,124.7c-2.7-0.3-1.1,5.2,0.7,4C622.6,127.9,622.6,124.8,621.4,124.7z" style="fill:#FFFFFF"/><path d="M637.9,133.3c-2.7-1.7-3.7,2.2-1.4,3.7C637.4,137.6,639.8,134.1,637.9,133.3z" style="fill:#FFFFFF"/></g><text transform="matrix(0.866 0.5 -0.5 0.866 626.8773 70.3441)" class="st9" style="fill:#474747;font-size:7.9083px">POLAR WORLD</text></g><g><g><g><g><defs><path id="b" d="M722.9,270.3c-0.3-0.3-0.7-0.6-1-0.8c0.2,0.5,0.8,0.8,1.1,1.3c-0.4-0.3-0.9-0.5-1.3-0.8
						c0.3,0.3,0.7,0.5,0.8,0.9c-0.1-0.1-0.3-0.1-0.5-0.1c0.9,0.4,1.4,1.1,1.3,2c-0.2,6.6,4.3,18.5,8.3,14.8
						c-2.7,2.4,1.1,4.1,2.6,4.5l0,0c0.6,0,0.7-0.3,0.7-0.3c1.6,0.6,0.7-1,1.1-2.2c0.2-1.3,0.7-0.5,0.7-4c1.1-8.4-8.2-15.1-10.2-14.5
						c-1.4-0.3-1.2-1.2-1.4-2.3c0,0.3,0,0.6-0.1,0.8c-0.2-0.7-0.5-1.4-0.9-1.9c0,0.7,0.6,1.4,0.6,2c-0.2-0.4-0.4-0.7-0.6-1
						c0.1,0.3,0.2,0.7,0.3,1c-0.3-0.5-0.7-1.2-1.1-1.6c0.1,0.6,0.7,1.1,0.8,1.7c-0.2-0.4-0.5-0.7-0.8-1.1c0.1,0.4,0.2,0.7,0.4,1
						c-0.3-0.3-0.6-0.8-0.9-1.1c0.1,0.4,0.4,0.8,0.4,1.2c-0.3-0.5-0.6-0.9-0.9-1.3c0.2,0.6,0.6,1.3,0.9,1.8
						c-0.5-0.2-0.8-0.8-1.2-1.1C722.4,269.5,722.6,269.9,722.9,270.3z"/></defs><clipPath id="c"><use xlink:href="#b" style="overflow:visible;"/></clipPath><g transform="matrix(1 0 0 1 0 -3.051758e-05)" style="clip-path:url(#c);enable-background:new    ;"><image style="overflow:visible;enable-background:new    ;" width="5" height="6" xlink:href="assets/9345EC9E.png" transform="matrix(0.8918 0 0 0.8976 732.2985 285.5723)"/></g></g></g></g><g><g><g><defs><path id="d" d="M727.2,273.4c-0.9-1-1.4-1.5-1.6-2.2
						c0.1-0.8,1.5-3.2,2.6-3.4c1.3-0.7,4.9,2.4,6,4.9l0,0c1.9,2.9,3.5,8.8,2.5,10.9c0,0-0.1-0.1-0.2-0.2"/></defs><clipPath id="e"><use xlink:href="#d" style="overflow:visible;"/></clipPath><g style="clip-path:url(#e);enable-background:new    ;"><image style="overflow:visible;enable-background:new    ;" width="13" height="18" xlink:href="assets/9345ECA2.png" transform="matrix(0.9372 0 0 0.9372 724.6979 267.5607)"/></g></g></g></g><g><path d="M718.8,277.3c0.5,1.5,4.3,4.6,4.6,4.2l-0.6,0.3c6.1,1.8,3.5-7.2,0.9-9.4
			C721.2,270.9,715.9,273.3,718.8,277.3z" style="fill:#284B9F"/><path d="M725,274c-1.2-2.8-4.3-2.4-6.4-0.5c-2.3,2.1,3.4,8.2,5,8.1c-0.1,0-0.5,0.3-0.6,0.3
			C728.2,283.4,726.8,276.8,725,274L725,274z M725,274c1.9,2.9,3.1,9.7-2.2,7.9l0.5-0.3c-1.5,0-7.2-5.8-4.9-8.1
			C720.6,271.5,723.8,271.2,725,274L725,274z" style="fill:#253068"/></g><path d="M723.4,272.4c-8.9-1-4.5,8.1,1,9.4C725.1,281.7,724.9,273.4,723.4,272.4z" style="fill:#F3C918"/><g><path d="M725.7,271.5c0.2,0.3,0.6,0.8,1.2,1.6c-0.8-1.2-1.2-1.9-1.2-2c4.4-10.2,12.6,7.5,10.8,12.3l0.2,0.2
			C739.1,279.1,729.2,260.1,725.7,271.5z" style="fill:#284B9F"/><path d="M734.3,273.1c1.6,3,2.9,7.5,2.2,10.3l0.1,0.1C737.6,281.1,736.1,276,734.3,273.1L734.3,273.1z M727,268.9
			c-1.3,1.7-1.8,2.3-0.3,3.8c-0.6-1-1-1.5-1-1.6C725.7,271,726.4,269.7,727,268.9L727,268.9z M734.2,272.7c1.9,2.9,3.5,8.8,2.5,10.9
			c0,0-0.1-0.1-0.2-0.2c1.7-4.8-6.4-22.5-10.8-12.3c0,0,0.6,0.9,1.5,2.3c-0.9-1-1.4-1.5-1.6-2.2c0.1-0.8,1.5-3.2,2.6-3.4
			C729.5,267.1,733.1,270.2,734.2,272.7L734.2,272.7z" style="fill:#253068"/></g><path d="M727.9,288.8c0.3,0.4-6.1-3.9-3.6-3.7C725.5,285.2,729,288.1,727.9,288.8z" style="fill:#F3C918"/><path d="M722.9,270.3c-0.3-0.3-0.7-0.6-1-0.8c0.2,0.5,0.8,0.8,1.1,1.3c-0.4-0.3-0.9-0.5-1.3-0.8
		c0.3,0.3,0.7,0.5,0.8,0.9c-0.1-0.1-0.3-0.1-0.5-0.1c0.9,0.4,1.4,1.1,1.3,2c-0.2,6.6,4.3,18.5,8.3,14.8c-2.7,2.4,1.1,4.1,2.6,4.5
		l0,0c0.6,0,0.7-0.3,0.7-0.3c1.6,0.6,0.7-1,1.1-2.2c-4.3,0.1-2.3-3.8,0.7-4c1.1-8.4-8.2-15.1-10.2-14.5c-1.4-0.3-1.2-1.2-1.4-2.3
		c0,0.3,0,0.6-0.1,0.8c-0.2-0.7-0.5-1.4-0.9-1.9c0,0.7,0.6,1.4,0.6,2c-0.2-0.4-0.4-0.7-0.6-1c0.1,0.3,0.2,0.7,0.3,1
		c-0.3-0.5-0.7-1.2-1.1-1.6c0.1,0.6,0.7,1.1,0.8,1.7c-0.2-0.4-0.5-0.7-0.8-1.1c0.1,0.4,0.2,0.7,0.4,1c-0.3-0.3-0.6-0.8-0.9-1.1
		c0.1,0.4,0.4,0.8,0.4,1.2c-0.3-0.5-0.6-0.9-0.9-1.3c0.2,0.6,0.6,1.3,0.9,1.8c-0.5-0.2-0.8-0.8-1.2-1.1
		C722.4,269.5,722.6,269.9,722.9,270.3z" style="fill:#F6EB12"/><path d="M723.3,272.8c-2.3,4.9,3.8,19.8,10.9,19.4c-1.5-0.4-5.3-2.1-2.6-4.5C727.6,291.3,723.1,279.3,723.3,272.8z" style="fill:#F3C918"/><g><g><defs><filter id="f" filterUnits="userSpaceOnUse" x="719.8" y="266.2" width="5.4" height="4.6"><feColorMatrix type="matrix" values="1 0 0 0 0  0 1 0 0 0  0 0 1 0 0  0 0 0 1 0"/></filter></defs><mask maskUnits="userSpaceOnUse" x="719.8" y="266.2" width="5.4" height="4.6" id="m"><g style="filter:url(#f)"><g><g/><g><g><defs><polygon id="g" points="-28.1,18.4 -27.1,18.4 -28.1,19.4 
																			"/></defs><clipPath><use xlink:href="#g" style="overflow:visible;"/></clipPath></g><g><defs><polygon id="h" points="-28.1,18.4 -27.1,18.4 -28.1,19.4 
																			"/></defs><defs><polygon id="j" points="-30.1,16.4 -31.1,16.4 -30.1,15.4 
																			"/></defs><clipPath id="i"><use xlink:href="#h" style="overflow:visible;"/></clipPath><clipPath id="k" style="clip-path:url(#i);"><use xlink:href="#j" style="overflow:visible;"/></clipPath><linearGradient id="l" gradientUnits="userSpaceOnUse" x1="15.176" y1="515.3824" x2="18.4605" y2="515.3824" gradientTransform="matrix(-0.5 -0.866 0.866 -0.5 284.9068 541.3009)"><stop offset="0.1624" style="stop-color:#FFFFFF"/><stop offset="0.1773" style="stop-color:#F9F9F9"/><stop offset="0.3431" style="stop-color:#BEBEBE"/><stop offset="0.5027" style="stop-color:#8C8C8C"/><stop offset="0.6523" style="stop-color:#656565"/><stop offset="0.7893" style="stop-color:#4A4A4A"/><stop offset="0.9096" style="stop-color:#393939"/><stop offset="1" style="stop-color:#333333"/></linearGradient><path style="clip-path:url(#k);fill:url(#l);" d="
									M719.8,269.4c0.3,0.5,1.5,1,2.2,1.3c0.2,0,0.3,0,0.5,0.1c-0.2-0.4-0.6-0.6-0.8-0.9c0.4,0.3,0.9,0.5,1.3,0.8
									c-0.3-0.5-0.9-0.8-1.1-1.3c0.4,0.2,0.7,0.5,1,0.8c-0.3-0.3-0.5-0.7-0.7-1c0.4,0.3,0.7,0.9,1.2,1.1c-0.3-0.5-0.7-1.2-0.9-1.8
									c0.3,0.4,0.6,0.8,0.9,1.3c0-0.4-0.3-0.8-0.4-1.2c0.3,0.3,0.6,0.7,0.9,1.1c-0.2-0.3-0.3-0.6-0.4-1c0.2,0.4,0.5,0.7,0.8,1.1
									c0-0.2-0.2-0.5-0.3-0.7c-0.1-0.3-0.5-0.7-0.5-1c0.4,0.5,0.8,1.1,1.1,1.6c-0.1-0.3-0.2-0.7-0.3-1c0.2,0.3,0.5,0.7,0.6,1
									c0-0.2-0.1-0.4-0.2-0.5c-0.2-0.4-0.4-1-0.5-1.5c0.4,0.6,0.7,1.3,0.9,1.9c0.1-0.2,0.1-0.5,0.1-0.8c-0.3-1-0.8-2.6-0.8-2.6
									C722.3,268.9,719.8,269.4,719.8,269.4z"/></g></g></g></g></mask><linearGradient id="n" gradientUnits="userSpaceOnUse" x1="15.176" y1="515.3824" x2="18.4605" y2="515.3824" gradientTransform="matrix(-0.5 -0.866 0.866 -0.5 284.9068 541.3009)"><stop offset="0.1624" style="stop-color:#FFFFFF"/><stop offset="0.1773" style="stop-color:#F9F9F9"/><stop offset="0.3431" style="stop-color:#BEBEBE"/><stop offset="0.5027" style="stop-color:#8C8C8C"/><stop offset="0.6523" style="stop-color:#656565"/><stop offset="0.7893" style="stop-color:#4A4A4A"/><stop offset="0.9096" style="stop-color:#393939"/><stop offset="1" style="stop-color:#333333"/></linearGradient><path style="mask:url(#m);fill:url(#n);" d="
				M719.8,269.4c0.3,0.5,1.5,1,2.2,1.3c0.2,0,0.3,0,0.5,0.1c-0.2-0.4-0.6-0.6-0.8-0.9c0.4,0.3,0.9,0.5,1.3,0.8
				c-0.3-0.5-0.9-0.8-1.1-1.3c0.4,0.2,0.7,0.5,1,0.8c-0.3-0.3-0.5-0.7-0.7-1c0.4,0.3,0.7,0.9,1.2,1.1c-0.3-0.5-0.7-1.2-0.9-1.8
				c0.3,0.4,0.6,0.8,0.9,1.3c0-0.4-0.3-0.8-0.4-1.2c0.3,0.3,0.6,0.7,0.9,1.1c-0.2-0.3-0.3-0.6-0.4-1c0.2,0.4,0.5,0.7,0.8,1.1
				c0-0.2-0.2-0.5-0.3-0.7c-0.1-0.3-0.5-0.7-0.5-1c0.4,0.5,0.8,1.1,1.1,1.6c-0.1-0.3-0.2-0.7-0.3-1c0.2,0.3,0.5,0.7,0.6,1
				c0-0.2-0.1-0.4-0.2-0.5c-0.2-0.4-0.4-1-0.5-1.5c0.4,0.6,0.7,1.3,0.9,1.9c0.1-0.2,0.1-0.5,0.1-0.8c-0.3-1-0.8-2.6-0.8-2.6
				C722.3,268.9,719.8,269.4,719.8,269.4z"/></g></g><linearGradient id="o" gradientUnits="userSpaceOnUse" x1="15.1762" y1="515.3824" x2="18.4605" y2="515.3824" gradientTransform="matrix(-0.5 -0.866 0.866 -0.5 284.9068 541.3009)"><stop offset="0.1624" style="stop-color:#F6EB12"/><stop offset="1" style="stop-color:#F6EB12"/></linearGradient><path style="fill:url(#o);" d="M719.8,269.4c0.5,0.5,1.8,1.2,2.6,1.4
		c-0.2-0.4-0.6-0.6-0.8-0.9c0.4,0.3,0.9,0.5,1.3,0.8c-0.3-0.5-0.9-0.8-1.1-1.3c0.4,0.2,0.7,0.5,1,0.8c-0.3-0.3-0.5-0.7-0.7-1
		c0.4,0.3,0.7,0.9,1.2,1.1c-0.3-0.5-0.7-1.2-0.9-1.8c0.3,0.4,0.6,0.8,0.9,1.3c0-0.4-0.3-0.8-0.4-1.2c0.3,0.3,0.6,0.7,0.9,1.1
		c-0.2-0.3-0.3-0.6-0.4-1c0.2,0.4,0.5,0.7,0.8,1.1c-0.1-0.5-0.8-1.1-0.8-1.7c0.4,0.5,0.8,1.1,1.1,1.6c-0.1-0.3-0.2-0.7-0.3-1
		c0.2,0.3,0.5,0.7,0.6,1c-0.1-0.6-0.7-1.3-0.6-2c0.4,0.6,0.7,1.3,0.9,1.9c0.3-0.8-0.8-3.3-0.7-3.4
		C722.3,268.9,719.8,269.4,719.8,269.4z"/><linearGradient id="p" gradientUnits="userSpaceOnUse" x1="-6.2285" y1="513.7591" x2="-6.2285" y2="517.5891" gradientTransform="matrix(-0.5 -0.866 0.866 -0.5 284.9068 541.3009)"><stop offset="0" style="stop-color:#224199"/><stop offset="0.5067" style="stop-color:#EBF1E9"/><stop offset="0.5502" style="stop-color:#D2DBDF"/><stop offset="0.6691" style="stop-color:#94A5C6"/><stop offset="0.7778" style="stop-color:#637AB3"/><stop offset="0.8727" style="stop-color:#405BA5"/><stop offset="0.9499" style="stop-color:#2A489C"/><stop offset="1" style="stop-color:#224199"/></linearGradient><path style="fill:url(#p);" d="M732.9,289.8c0.6,0,1.3-0.8,2-1
		c0.6-0.2,1.4-0.5,1.3-1C735.4,288.7,733.7,288.7,732.9,289.8z"/><linearGradient id="q" gradientUnits="userSpaceOnUse" x1="-6.1569" y1="510.9217" x2="-6.1569" y2="520.3468" gradientTransform="matrix(-0.5 -0.866 0.866 -0.5 284.9068 541.3009)"><stop offset="0.3689" style="stop-color:#224199"/><stop offset="0.3781" style="stop-color:#2A4086"/><stop offset="0.3956" style="stop-color:#363F68"/><stop offset="0.415" style="stop-color:#403E50"/><stop offset="0.4369" style="stop-color:#483D3D"/><stop offset="0.4624" style="stop-color:#4E3C30"/><stop offset="0.4951" style="stop-color:#513C28"/><stop offset="0.56" style="stop-color:#523C26"/><stop offset="0.637" style="stop-color:#453D45"/><stop offset="0.7429" style="stop-color:#363F69"/><stop offset="0.842" style="stop-color:#2B4084"/><stop offset="0.9306" style="stop-color:#244193"/><stop offset="1" style="stop-color:#224199"/></linearGradient><path style="fill:url(#q);" d="M736.2,287.9c-0.8,0.8-2.4,0.8-3.1,1.8
		C733.8,289.2,735.7,288.6,736.2,287.9L736.2,287.9z M736.3,287.5c0.1,0.8-1.1,1.2-1.7,1.4c-0.5,0.2-1.3,1-1.8,0.9
		C733.6,288.5,735.6,288.7,736.3,287.5L736.3,287.5z"/><linearGradient id="r" gradientUnits="userSpaceOnUse" x1="-7.4186" y1="515.0337" x2="-7.4186" y2="516.8068" gradientTransform="matrix(-0.5 -0.866 0.866 -0.5 284.9068 541.3009)"><stop offset="0.2533" style="stop-color:#224199"/><stop offset="0.2618" style="stop-color:#3854A2"/><stop offset="0.28" style="stop-color:#6279B2"/><stop offset="0.2999" style="stop-color:#8799C1"/><stop offset="0.3211" style="stop-color:#A6B5CE"/><stop offset="0.3442" style="stop-color:#BFCBD8"/><stop offset="0.3697" style="stop-color:#D3DCDF"/><stop offset="0.3991" style="stop-color:#E1E8E5"/><stop offset="0.4357" style="stop-color:#E9EFE8"/><stop offset="0.5022" style="stop-color:#EBF1E9"/><stop offset="0.5386" style="stop-color:#E7EDE7"/><stop offset="0.5762" style="stop-color:#DAE2E2"/><stop offset="0.6145" style="stop-color:#C6D0DA"/><stop offset="0.6531" style="stop-color:#A9B7CF"/><stop offset="0.6921" style="stop-color:#8396C0"/><stop offset="0.7307" style="stop-color:#566FAE"/><stop offset="0.7689" style="stop-color:#224199"/></linearGradient><path style="fill:url(#r);" d="M734.7,290.3c0.7,0.5,0.7-1,1.3-1.2V289
		C735.5,289.4,735.2,289.9,734.7,290.3L734.7,290.3L734.7,290.3z"/><linearGradient id="s" gradientUnits="userSpaceOnUse" x1="-7.3828" y1="510.657" x2="-7.3828" y2="520.7154" gradientTransform="matrix(-0.5 -0.866 0.866 -0.5 284.9068 541.3009)"><stop offset="0.4622" style="stop-color:#224199"/><stop offset="0.4668" style="stop-color:#2E407C"/><stop offset="0.4722" style="stop-color:#393F61"/><stop offset="0.4784" style="stop-color:#423E4B"/><stop offset="0.4857" style="stop-color:#493D3A"/><stop offset="0.4946" style="stop-color:#4E3C2F"/><stop offset="0.5072" style="stop-color:#513C28"/><stop offset="0.5422" style="stop-color:#523C26"/><stop offset="0.5682" style="stop-color:#463D43"/><stop offset="0.5992" style="stop-color:#3B3E5E"/><stop offset="0.6347" style="stop-color:#323F74"/><stop offset="0.6763" style="stop-color:#2B4085"/><stop offset="0.7277" style="stop-color:#264190"/><stop offset="0.7998" style="stop-color:#234197"/><stop offset="1" style="stop-color:#224199"/></linearGradient><path style="fill:url(#s);" d="M735.7,289.3c-0.4,0.3-0.5,0.7-0.9,1
		C735.5,290.5,735.3,289.6,735.7,289.3L735.7,289.3z M736.1,288.7v0.4c-0.5,0.3-0.7,2-1.4,1.2C735.1,289.9,735.9,289.2,736.1,288.7z
		"/><linearGradient id="t" gradientUnits="userSpaceOnUse" x1="-2.9725" y1="510.4116" x2="-2.9725" y2="519.345" gradientTransform="matrix(-0.5 -0.866 0.866 -0.5 284.9068 541.3009)"><stop offset="9.333329e-02" style="stop-color:#224199"/><stop offset="0.1116" style="stop-color:#3854A2"/><stop offset="0.1511" style="stop-color:#6279B2"/><stop offset="0.194" style="stop-color:#8799C1"/><stop offset="0.2399" style="stop-color:#A6B5CE"/><stop offset="0.2896" style="stop-color:#BFCBD8"/><stop offset="0.3448" style="stop-color:#D3DCDF"/><stop offset="0.4082" style="stop-color:#E1E8E5"/><stop offset="0.4874" style="stop-color:#E9EFE8"/><stop offset="0.6311" style="stop-color:#EBF1E9"/><stop offset="0.6596" style="stop-color:#E7EDE7"/><stop offset="0.6891" style="stop-color:#DAE2E2"/><stop offset="0.719" style="stop-color:#C6D0DA"/><stop offset="0.7493" style="stop-color:#A9B7CF"/><stop offset="0.7798" style="stop-color:#8396C0"/><stop offset="0.8101" style="stop-color:#566FAE"/><stop offset="0.84" style="stop-color:#224199"/></linearGradient><path style="fill:url(#t);" d="M727.6,287.2c1.2,1.1,2.8,0.9,4.2,0.4
		c-0.4,0.4-0.7,0.7-0.9,1.3c1.1-1.7,5.3-1.6,5.7-3.8c0-0.1,0-0.1,0-0.2c-1.1,1.7-3,1.8-4.6,2.6C730.5,287.3,729,288.1,727.6,287.2z"/><linearGradient id="u" gradientUnits="userSpaceOnUse" x1="-2.7497" y1="510.9216" x2="-2.7497" y2="520.3468" gradientTransform="matrix(-0.5 -0.866 0.866 -0.5 284.9068 541.3009)"><stop offset="0" style="stop-color:#224199"/><stop offset="9.082518e-03" style="stop-color:#234196"/><stop offset="0.1885" style="stop-color:#373F66"/><stop offset="0.3465" style="stop-color:#463D43"/><stop offset="0.4758" style="stop-color:#4F3C2E"/><stop offset="0.56" style="stop-color:#523C26"/><stop offset="0.6247" style="stop-color:#473D40"/><stop offset="0.7373" style="stop-color:#373F66"/><stop offset="0.8412" style="stop-color:#2C4082"/><stop offset="0.9321" style="stop-color:#244193"/><stop offset="1" style="stop-color:#224199"/></linearGradient><path style="fill:url(#u);" d="M736.5,285.2c-1.1,1.5-2.9,1.8-4.5,2.3
		c-0.2,0.2-0.4,0.4-0.6,0.7C732.9,287.4,736,286.7,736.5,285.2L736.5,285.2z M731.6,287.5c-1.1,0-2.1,0.5-3.3,0
		C729.3,288.1,730.5,288,731.6,287.5L731.6,287.5z M736.7,284.7c0,0.1,0,0.2,0,0.4c-0.6,2.6-5.3,1.9-5.9,4.4
		c-0.3-0.6,0.4-1.3,0.8-1.7c-1.5,0.7-3.6,0.4-4.5-1.1c1.3,1.5,3.2,0.8,4.9,0.8C733.6,286.7,735.6,286.4,736.7,284.7L736.7,284.7z"/><linearGradient id="v" gradientUnits="userSpaceOnUse" x1="-2.037296e-02" y1="510.1894" x2="-2.037296e-02" y2="521.0036" gradientTransform="matrix(-0.5 -0.866 0.866 -0.5 284.9068 541.3009)"><stop offset="0.16" style="stop-color:#224199"/><stop offset="0.176" style="stop-color:#3854A2"/><stop offset="0.2106" style="stop-color:#6279B2"/><stop offset="0.2482" style="stop-color:#8799C1"/><stop offset="0.2884" style="stop-color:#A6B5CE"/><stop offset="0.3319" style="stop-color:#BFCBD8"/><stop offset="0.3803" style="stop-color:#D3DCDF"/><stop offset="0.4359" style="stop-color:#E1E8E5"/><stop offset="0.5052" style="stop-color:#E9EFE8"/><stop offset="0.6311" style="stop-color:#EBF1E9"/><stop offset="0.6572" style="stop-color:#E7EDE7"/><stop offset="0.6841" style="stop-color:#DAE2E2"/><stop offset="0.7116" style="stop-color:#C6D0DA"/><stop offset="0.7392" style="stop-color:#A9B7CF"/><stop offset="0.7672" style="stop-color:#8396C0"/><stop offset="0.7949" style="stop-color:#566FAE"/><stop offset="0.8222" style="stop-color:#224199"/></linearGradient><path style="fill:url(#v);" d="M725.9,284.7c3,2.4,10.1-0.1,10.1-4.2
		C734.8,283.9,729.1,285.4,725.9,284.7z"/><linearGradient id="w" gradientUnits="userSpaceOnUse" x1="0.1627" y1="510.9216" x2="0.1627" y2="520.3468" gradientTransform="matrix(-0.5 -0.866 0.866 -0.5 284.9068 541.3009)"><stop offset="0" style="stop-color:#224199"/><stop offset="3.180794e-02" style="stop-color:#2E407C"/><stop offset="6.965870e-02" style="stop-color:#393F61"/><stop offset="0.1132" style="stop-color:#423E4B"/><stop offset="0.164" style="stop-color:#493D3A"/><stop offset="0.2269" style="stop-color:#4E3C2F"/><stop offset="0.3151" style="stop-color:#513C28"/><stop offset="0.56" style="stop-color:#523C26"/><stop offset="0.7524" style="stop-color:#513C28"/><stop offset="0.8217" style="stop-color:#4E3C2F"/><stop offset="0.8711" style="stop-color:#493D3A"/><stop offset="0.9111" style="stop-color:#423E4B"/><stop offset="0.9453" style="stop-color:#393F61"/><stop offset="0.975" style="stop-color:#2E407C"/><stop offset="1" style="stop-color:#224199"/></linearGradient><path style="fill:url(#w);" d="M735.8,281.4c-1.9,2.7-6.2,3.8-9.4,3.6
		C729.5,286.4,734.8,284.7,735.8,281.4L735.8,281.4z M735.9,280.1c1.1,4.5-7.9,7.7-10.5,4.3C728.3,285.8,735.5,283.6,735.9,280.1
		L735.9,280.1z"/><g><path d="M735,275.3c-0.1-0.1-0.1-0.3-0.2-0.4C734.9,275,734.9,275.1,735,275.3z" style="fill:#284B9F"/><path d="M734.8,274.9c0.1,0.1,0.1,0.2,0.2,0.4C734.9,275.1,734.9,275,734.8,274.9L734.8,274.9L734.8,274.9z" style="fill:#253068"/></g><linearGradient id="x" gradientUnits="userSpaceOnUse" x1="4.9172" y1="510.6243" x2="4.9172" y2="521.2757" gradientTransform="matrix(-0.5 -0.866 0.866 -0.5 284.9068 541.3009)"><stop offset="0.1378" style="stop-color:#224199"/><stop offset="0.1545" style="stop-color:#3854A2"/><stop offset="0.1907" style="stop-color:#6279B2"/><stop offset="0.2301" style="stop-color:#8799C1"/><stop offset="0.2722" style="stop-color:#A6B5CE"/><stop offset="0.3178" style="stop-color:#BFCBD8"/><stop offset="0.3685" style="stop-color:#D3DCDF"/><stop offset="0.4267" style="stop-color:#E1E8E5"/><stop offset="0.4993" style="stop-color:#E9EFE8"/><stop offset="0.6311" style="stop-color:#EBF1E9"/><stop offset="0.6669" style="stop-color:#E7EDE7"/><stop offset="0.7039" style="stop-color:#DAE2E2"/><stop offset="0.7415" style="stop-color:#C6D0DA"/><stop offset="0.7795" style="stop-color:#A9B7CF"/><stop offset="0.8178" style="stop-color:#8396C0"/><stop offset="0.8558" style="stop-color:#566FAE"/><stop offset="0.8933" style="stop-color:#224199"/></linearGradient><path style="fill:url(#x);" d="M724.7,281.7c0,0,0,0.1,0.1,0.1
		c1.9-3.1,8.4-1.9,9.4-5.1c-0.2-0.3-0.3-0.5-0.5-0.8C732.4,279.3,725.8,277.4,724.7,281.7z"/><linearGradient id="y" gradientUnits="userSpaceOnUse" x1="4.9389" y1="510.9634" x2="4.9389" y2="520.351" gradientTransform="matrix(-0.5 -0.866 0.866 -0.5 284.9068 541.3009)"><stop offset="0" style="stop-color:#224199"/><stop offset="3.180794e-02" style="stop-color:#2E407C"/><stop offset="6.965870e-02" style="stop-color:#393F61"/><stop offset="0.1132" style="stop-color:#423E4B"/><stop offset="0.164" style="stop-color:#493D3A"/><stop offset="0.2269" style="stop-color:#4E3C2F"/><stop offset="0.3151" style="stop-color:#513C28"/><stop offset="0.56" style="stop-color:#523C26"/><stop offset="0.7524" style="stop-color:#513C28"/><stop offset="0.8217" style="stop-color:#4E3C2F"/><stop offset="0.8711" style="stop-color:#493D3A"/><stop offset="0.9111" style="stop-color:#423E4B"/><stop offset="0.9453" style="stop-color:#393F61"/><stop offset="0.975" style="stop-color:#2E407C"/><stop offset="1" style="stop-color:#224199"/></linearGradient><path style="fill:url(#y);" d="M734,276.8c-0.1-0.2-0.2-0.3-0.4-0.5
		c-1.7,3.1-7.4,1.4-8.9,5.3C726.7,278.7,732.9,279.7,734,276.8L734,276.8z M734.2,276.7c-0.8,3.4-7.7,2-9.4,5.3
		c-1-0.9,1.1-2,1.7-2.7c2-1.8,6.4-0.5,7-3.6C733.7,276,734,276.4,734.2,276.7L734.2,276.7z"/><linearGradient id="z" gradientUnits="userSpaceOnUse" x1="2.2266" y1="510.3758" x2="2.2266" y2="521.3014" gradientTransform="matrix(-0.5 -0.866 0.866 -0.5 284.9068 541.3009)"><stop offset="0.1867" style="stop-color:#224199"/><stop offset="0.2018" style="stop-color:#3854A2"/><stop offset="0.2344" style="stop-color:#6279B2"/><stop offset="0.2698" style="stop-color:#8799C1"/><stop offset="0.3078" style="stop-color:#A6B5CE"/><stop offset="0.3489" style="stop-color:#BFCBD8"/><stop offset="0.3945" style="stop-color:#D3DCDF"/><stop offset="0.4469" style="stop-color:#E1E8E5"/><stop offset="0.5124" style="stop-color:#E9EFE8"/><stop offset="0.6311" style="stop-color:#EBF1E9"/><stop offset="0.6626" style="stop-color:#E7EDE7"/><stop offset="0.6952" style="stop-color:#DAE2E2"/><stop offset="0.7284" style="stop-color:#C6D0DA"/><stop offset="0.7619" style="stop-color:#A9B7CF"/><stop offset="0.7956" style="stop-color:#8396C0"/><stop offset="0.8291" style="stop-color:#566FAE"/><stop offset="0.8622" style="stop-color:#224199"/></linearGradient><path style="fill:url(#z);" d="M725.3,283.2c0.1,0.1,0.1,0.1,0.2,0.2l0,0
		c3.5,0.1,8.6-1.4,9.4-5.2c-0.1-0.1-0.1-0.3-0.2-0.4c-0.9,2.7-3.5,3.4-6,4C727.7,282.2,726.4,283.3,725.3,283.2L725.3,283.2z"/><linearGradient id="A" gradientUnits="userSpaceOnUse" x1="2.3489" y1="510.9217" x2="2.3489" y2="520.3468" gradientTransform="matrix(-0.5 -0.866 0.866 -0.5 284.9068 541.3009)"><stop offset="0" style="stop-color:#224199"/><stop offset="3.180794e-02" style="stop-color:#2E407C"/><stop offset="6.965870e-02" style="stop-color:#393F61"/><stop offset="0.1132" style="stop-color:#423E4B"/><stop offset="0.164" style="stop-color:#493D3A"/><stop offset="0.2269" style="stop-color:#4E3C2F"/><stop offset="0.3151" style="stop-color:#513C28"/><stop offset="0.56" style="stop-color:#523C26"/><stop offset="0.7524" style="stop-color:#513C28"/><stop offset="0.8217" style="stop-color:#4E3C2F"/><stop offset="0.8711" style="stop-color:#493D3A"/><stop offset="0.9111" style="stop-color:#423E4B"/><stop offset="0.9453" style="stop-color:#393F61"/><stop offset="0.975" style="stop-color:#2E407C"/><stop offset="1" style="stop-color:#224199"/></linearGradient><path style="fill:url(#A);" d="M734.7,278c-1.6,3.6-6.1,3.6-9.1,5.3
		c3.4-0.1,8.3-1.4,9.2-5.2C734.8,278.1,734.8,278.1,734.7,278L734.7,278z M734.7,277.5c0.1,0.2,0.2,0.4,0.4,0.6
		c-0.8,3.9-6.1,5.5-9.6,5.4h-0.2c0.1,0,0.1-0.1,0.1-0.1c-0.1-0.1-0.3-0.2-0.4-0.4c1.2,0.3,2.7-0.9,3.8-1.4
		C731.2,281,734,280.2,734.7,277.5L734.7,277.5z"/><g><path d="M736.2,280.6c0-1.6-0.1-3.6-1-5c0.4,1.5,0.8,2.8,0.8,4.4C736,280.1,736.1,280.3,736.2,280.6z" style="fill:#284B9F"/><path d="M735.3,275.9c0.5,1.5,0.6,2.9,0.8,4.6C736.1,279,736,277.2,735.3,275.9L735.3,275.9z M735.3,275.7
			c0.8,1.5,1,3.4,0.9,5.1c-0.4-2-0.4-3.7-1.2-5.5C735.1,275.4,735.2,275.6,735.3,275.7L735.3,275.7z" style="fill:#253068"/></g><g><path d="M733.5,275.7c0.2,0.3,0.5,0.6,0.7,0.9c0.1-2.6-0.9-5.3-2.7-7.2c0.7,0.8,1.1,1.6,1.5,2.6l-0.1-0.1
			C733.4,273.1,733.8,274.3,733.5,275.7z" style="fill:#284B9F"/><path d="M733.2,271.9c-0.5-0.8-0.9-1.6-1.5-2.2c0.6,0.7,1,1.6,1.4,2.5L733,272c0.5,1.2,0.8,2.3,0.6,3.7
			c0.2,0.3,0.4,0.6,0.6,0.9C734.2,274.8,733.9,273.6,733.2,271.9L733.2,271.9z M733.3,271.9c0.7,1.5,1.1,3.1,0.9,4.8
			c-0.2-0.4-0.5-0.7-0.7-1c0.3-1.4-0.2-2.6-0.6-3.9l0,0c-0.4-0.9-0.9-1.7-1.5-2.5C732.3,270,732.7,271,733.3,271.9L733.3,271.9z" style="fill:#253068"/></g><g><path d="M735,278c0.1-1.3-0.2-2.6-0.5-3.8l0,0c-0.3-0.7-0.5-1.5-0.9-2.1c0.6,1.7,1.5,3.6,1.1,5.4
			C734.8,277.7,734.9,277.8,735,278z" style="fill:#284B9F"/><path d="M733.8,272.4c0.6,1.6,1.4,3.4,1,5.1c0.1,0.1,0.2,0.3,0.3,0.5C735.1,276,734.6,274.1,733.8,272.4L733.8,272.4
			z M733.8,272.3c0.4,0.6,0.5,1.3,0.8,2l0,0c0.3,1.2,0.6,2.6,0.5,3.8c-0.1-0.2-0.2-0.4-0.4-0.6c0.5-1.9-0.6-3.8-1.1-5.5
			C733.6,272.1,733.7,272.2,733.8,272.3L733.8,272.3z" style="fill:#253068"/></g><g><path d="M732,274c0.2,0.2,0.5,0.5,0.7,0.7c0.2-0.8,0.1-1.4,0.2-2.3l0,0c-0.5-1.6-1.5-3-2.8-4c1.2,0.8,2,2.2,2.5,3.6
			l-0.1-0.1C732.6,272.8,732.4,273.6,732,274z" style="fill:#284B9F"/><path d="M732.2,270.8c-0.3-0.5-0.6-0.8-0.9-1.2c0.6,0.7,1,1.6,1.3,2.5l-0.1-0.1c0.1,0.8,0,1.5-0.4,2
			c0.2,0.2,0.4,0.4,0.7,0.7c0.2-0.8,0.1-1.4,0.1-2.2l0,0C732.8,271.9,732.4,271.3,732.2,270.8L732.2,270.8z M732.2,270.8
			c0.3,0.5,0.6,1,0.7,1.6c0,1,0.1,1.6-0.2,2.4c-0.3-0.3-0.5-0.5-0.8-0.8c0.4-0.5,0.5-1.3,0.4-2.1c0,0,0,0,0.1,0
			c-0.4-1.5-1.4-2.7-2.6-3.6C730.9,268.8,731.6,269.9,732.2,270.8L732.2,270.8z" style="fill:#253068"/></g><g><path d="M730.1,272.5c0.3,0.2,0.6,0.4,0.8,0.6c0.5-0.3,0.5-1,0.8-1.5l0,0l0,0c-0.4-1.4-1.5-3-3-3.5
			c1.1,0.7,2.2,1.9,2.4,3.2c0,0-0.1,0-0.1-0.1C730.9,271.8,730.6,272.3,730.1,272.5z" style="fill:#284B9F"/><path d="M731.1,270.2c-0.5-0.9-1.3-1.7-2.2-2.1c1.1,0.7,2.2,1.9,2.3,3.2l-0.1-0.1c-0.1,0.6-0.4,1-0.9,1.3
			c0.3,0.2,0.5,0.3,0.8,0.5c0.4-0.3,0.5-1,0.7-1.5C731.7,271.1,731.3,270.6,731.1,270.2L731.1,270.2z M731.1,270.2
			c0.2,0.4,0.6,0.9,0.6,1.4l0,0c-0.2,0.7-0.3,1.3-0.8,1.6c-0.3-0.2-0.6-0.4-0.9-0.6c0.5-0.2,0.8-0.7,1-1.4c0,0,0,0,0.1,0
			c-0.2-1.4-1.3-2.5-2.5-3.2C729.7,268.2,730.5,269.2,731.1,270.2L731.1,270.2z" style="fill:#253068"/></g><g><path d="M728.7,271.8c0.1,0.1,0.3,0.1,0.4,0.2c2.1-0.5,0.1-3.7-1.3-3.7C729,268.6,730.6,271.3,728.7,271.8
			L728.7,271.8z" style="fill:#284B9F"/><path d="M729.6,269.8L729.6,269.8c-0.5-0.6-0.9-1.3-1.7-1.5c1.2,0.4,2.7,3,0.9,3.5c0.1,0,0.2,0.1,0.3,0.1
			C730.2,271.8,730.1,270.5,729.6,269.8L729.6,269.8L729.6,269.8z M729.6,269.8c0.6,0.8,0.7,2.1-0.5,2.2c-0.2-0.1-0.4-0.2-0.5-0.2
			c0.1,0,0.1,0,0.2,0c1.9-0.6,0.2-3.2-1.1-3.5C728.6,268.2,729.2,269.1,729.6,269.8L729.6,269.8z" style="fill:#253068"/></g><linearGradient id="B" gradientUnits="userSpaceOnUse" x1="11.8034" y1="512.6647" x2="11.8034" y2="519.0975" gradientTransform="matrix(-0.5 -0.866 0.866 -0.5 284.9068 541.3009)"><stop offset="0.1511" style="stop-color:#224199"/><stop offset="0.1674" style="stop-color:#3854A2"/><stop offset="0.2026" style="stop-color:#6279B2"/><stop offset="0.2409" style="stop-color:#8799C1"/><stop offset="0.2819" style="stop-color:#A6B5CE"/><stop offset="0.3263" style="stop-color:#BFCBD8"/><stop offset="0.3756" style="stop-color:#D3DCDF"/><stop offset="0.4322" style="stop-color:#E1E8E5"/><stop offset="0.5029" style="stop-color:#E9EFE8"/><stop offset="0.6311" style="stop-color:#EBF1E9"/><stop offset="0.6632" style="stop-color:#E7EDE7"/><stop offset="0.6965" style="stop-color:#DAE2E2"/><stop offset="0.7303" style="stop-color:#C6D0DA"/><stop offset="0.7644" style="stop-color:#A9B7CF"/><stop offset="0.7988" style="stop-color:#8396C0"/><stop offset="0.833" style="stop-color:#566FAE"/><stop offset="0.8667" style="stop-color:#224199"/></linearGradient><path style="fill:url(#B);" d="M723.1,274.9c1.6-1.4,3.7-2.3,5.8-2.9
		C727.2,271.9,723.4,273,723.1,274.9z"/><linearGradient id="C" gradientUnits="userSpaceOnUse" x1="11.7889" y1="510.9234" x2="11.7889" y2="520.3466" gradientTransform="matrix(-0.5 -0.866 0.866 -0.5 284.9068 541.3009)"><stop offset="0" style="stop-color:#224199"/><stop offset="8.974383e-02" style="stop-color:#27418E"/><stop offset="0.2476" style="stop-color:#333F71"/><stop offset="0.4535" style="stop-color:#473D41"/><stop offset="0.56" style="stop-color:#523C26"/><stop offset="0.6247" style="stop-color:#473D40"/><stop offset="0.7373" style="stop-color:#373F66"/><stop offset="0.8412" style="stop-color:#2C4082"/><stop offset="0.9321" style="stop-color:#244193"/><stop offset="1" style="stop-color:#224199"/></linearGradient><path style="fill:url(#C);" d="M728.6,272c-1.8,0.3-4.6,0.9-5.5,2.7
		C724.6,273.4,726.6,272.6,728.6,272L728.6,272z M729.1,272C729.1,272.1,729.1,272.1,729.1,272C729,272.1,729,272,729.1,272
		c-2.2,0.6-4.4,1.5-6,2.9C722.7,273.1,727.7,271.5,729.1,272z"/><linearGradient id="D" gradientUnits="userSpaceOnUse" x1="13.0437" y1="513.588" x2="13.0437" y2="518.0331" gradientTransform="matrix(-0.5 -0.866 0.866 -0.5 284.9068 541.3009)"><stop offset="0.1556" style="stop-color:#224199"/><stop offset="0.1717" style="stop-color:#3854A2"/><stop offset="0.2066" style="stop-color:#6279B2"/><stop offset="0.2446" style="stop-color:#8799C1"/><stop offset="0.2851" style="stop-color:#A6B5CE"/><stop offset="0.3291" style="stop-color:#BFCBD8"/><stop offset="0.3779" style="stop-color:#D3DCDF"/><stop offset="0.434" style="stop-color:#E1E8E5"/><stop offset="0.504" style="stop-color:#E9EFE8"/><stop offset="0.6311" style="stop-color:#EBF1E9"/><stop offset="0.6675" style="stop-color:#E7EDE7"/><stop offset="0.7051" style="stop-color:#DAE2E2"/><stop offset="0.7434" style="stop-color:#C6D0DA"/><stop offset="0.782" style="stop-color:#A9B7CF"/><stop offset="0.821" style="stop-color:#8396C0"/><stop offset="0.8596" style="stop-color:#566FAE"/><stop offset="0.8978" style="stop-color:#224199"/></linearGradient><path style="fill:url(#D);" d="M723.3,273.4c1.1-1,2.4-2,4-2
		C725.9,270.7,723.5,272.1,723.3,273.4z"/><linearGradient id="E" gradientUnits="userSpaceOnUse" x1="13.0926" y1="510.9216" x2="13.0926" y2="520.3468" gradientTransform="matrix(-0.5 -0.866 0.866 -0.5 284.9068 541.3009)"><stop offset="0" style="stop-color:#224199"/><stop offset="0.1807" style="stop-color:#234197"/><stop offset="0.2459" style="stop-color:#264190"/><stop offset="0.2923" style="stop-color:#2B4085"/><stop offset="0.3298" style="stop-color:#323F74"/><stop offset="0.3619" style="stop-color:#3B3E5E"/><stop offset="0.3899" style="stop-color:#463D43"/><stop offset="0.4133" style="stop-color:#523C26"/><stop offset="1" style="stop-color:#224199"/></linearGradient><path style="fill:url(#E);" d="M726.9,271.3c-1.2-0.3-3,0.8-3.4,1.9
		C724.2,272.2,725.6,271.4,726.9,271.3L726.9,271.3z M727.5,271.3c-1.8,0.1-3.1,1.1-4.4,2.1C723.4,272,726,270.5,727.5,271.3
		L727.5,271.3z"/><linearGradient id="F" gradientUnits="userSpaceOnUse" x1="7.6713" y1="510.6653" x2="7.6713" y2="520.9577" gradientTransform="matrix(-0.5 -0.866 0.866 -0.5 284.9068 541.3009)"><stop offset="0.1822" style="stop-color:#224199"/><stop offset="0.1975" style="stop-color:#3854A2"/><stop offset="0.2304" style="stop-color:#6279B2"/><stop offset="0.2662" style="stop-color:#8799C1"/><stop offset="0.3045" style="stop-color:#A6B5CE"/><stop offset="0.3461" style="stop-color:#BFCBD8"/><stop offset="0.3921" style="stop-color:#D3DCDF"/><stop offset="0.4451" style="stop-color:#E1E8E5"/><stop offset="0.5112" style="stop-color:#E9EFE8"/><stop offset="0.6311" style="stop-color:#EBF1E9"/><stop offset="0.6699" style="stop-color:#E7EDE7"/><stop offset="0.71" style="stop-color:#DAE2E2"/><stop offset="0.7508" style="stop-color:#C6D0DA"/><stop offset="0.7921" style="stop-color:#A9B7CF"/><stop offset="0.8336" style="stop-color:#8396C0"/><stop offset="0.8748" style="stop-color:#566FAE"/><stop offset="0.9156" style="stop-color:#224199"/></linearGradient><path style="fill:url(#F);" d="M723.5,279.5c0.8,1.1,1.8-0.8,2.5-1.4
		c1.6-2.3,4.7-1.9,6.7-3.3c-0.2-0.2-0.4-0.4-0.6-0.6c-1.2,1-3.1,0.5-4.4,1.6C725.9,276.6,725.3,279,723.5,279.5L723.5,279.5z"/><linearGradient id="G" gradientUnits="userSpaceOnUse" x1="7.7389" y1="510.9216" x2="7.7389" y2="520.3468" gradientTransform="matrix(-0.5 -0.866 0.866 -0.5 284.9068 541.3009)"><stop offset="0" style="stop-color:#224199"/><stop offset="3.180794e-02" style="stop-color:#2E407C"/><stop offset="6.965870e-02" style="stop-color:#393F61"/><stop offset="0.1132" style="stop-color:#423E4B"/><stop offset="0.164" style="stop-color:#493D3A"/><stop offset="0.2269" style="stop-color:#4E3C2F"/><stop offset="0.3151" style="stop-color:#513C28"/><stop offset="0.56" style="stop-color:#523C26"/><stop offset="0.7524" style="stop-color:#513C28"/><stop offset="0.8217" style="stop-color:#4E3C2F"/><stop offset="0.8711" style="stop-color:#493D3A"/><stop offset="0.9111" style="stop-color:#423E4B"/><stop offset="0.9453" style="stop-color:#393F61"/><stop offset="0.975" style="stop-color:#2E407C"/><stop offset="1" style="stop-color:#224199"/></linearGradient><path style="fill:url(#G);" d="M732.5,274.8c-0.2-0.2-0.3-0.3-0.5-0.5
		c-1.2,1-3.1,0.5-4.4,1.5c-1.6,0.8-2.2,3.2-4,3.7c0.8,0.7,1.6-1,2.2-1.5C727.4,275.8,730.4,276,732.5,274.8L732.5,274.8z
		 M732.8,274.8c-0.9,1.3-2.9,0.9-4.2,1.5c-1.9,0.2-4,5-5.3,3.1c1.9-0.5,2.5-2.9,4.2-3.8c1.3-1,3.3-0.5,4.5-1.6
		C732.2,274.3,732.5,274.5,732.8,274.8L732.8,274.8z"/><linearGradient id="H" gradientUnits="userSpaceOnUse" x1="9.9711" y1="511.278" x2="9.9711" y2="520.1737" gradientTransform="matrix(-0.5 -0.866 0.866 -0.5 284.9068 541.3009)"><stop offset="0.1689" style="stop-color:#224199"/><stop offset="0.1846" style="stop-color:#3854A2"/><stop offset="0.2185" style="stop-color:#6279B2"/><stop offset="0.2554" style="stop-color:#8799C1"/><stop offset="0.2948" style="stop-color:#A6B5CE"/><stop offset="0.3376" style="stop-color:#BFCBD8"/><stop offset="0.385" style="stop-color:#D3DCDF"/><stop offset="0.4396" style="stop-color:#E1E8E5"/><stop offset="0.5076" style="stop-color:#E9EFE8"/><stop offset="0.6311" style="stop-color:#EBF1E9"/><stop offset="0.6681" style="stop-color:#E7EDE7"/><stop offset="0.7063" style="stop-color:#DAE2E2"/><stop offset="0.7452" style="stop-color:#C6D0DA"/><stop offset="0.7845" style="stop-color:#A9B7CF"/><stop offset="0.8241" style="stop-color:#8396C0"/><stop offset="0.8634" style="stop-color:#566FAE"/><stop offset="0.9022" style="stop-color:#224199"/></linearGradient><path style="fill:url(#H);" d="M723,277.5c0.6,0.3,1.2-0.2,1.4-0.7
		C724.1,277.3,723.2,277.2,723,277.5z M723,276.2c0.5,0.1,1.8-1.3,2-0.2v0.1c1.5-1.8,3.7-2.3,5.7-2.9c-0.2-0.2-0.5-0.3-0.7-0.5
		C728.5,273.4,723,275,723,276.2z"/><path d="M730.5,273.1c-0.2-0.1-0.3-0.2-0.5-0.3c-1.4,0.6-6.8,2.5-6.9,3.3c0.6-0.2,1.6-1.1,2-0.3
		C726.6,274.2,728.6,273.6,730.5,273.1 M723.8,277.4c-0.2,0.1-0.4,0.1-0.6,0.1C723.4,277.5,723.6,277.5,723.8,277.4 M730.9,273.1
		c-3,0.7-5.3,2.2-7.3,4.5c-0.2,0.1-1.1,0-0.7-0.4c0.9,0,1.5-0.6,2-1.3c-0.3-0.9-1.8,0.8-2,0.3c1.3-2.2,5-2.5,7.1-3.7
		C730.3,272.7,730.6,272.9,730.9,273.1L730.9,273.1z" style="fill:none"/><g><path d="M727.6,271.2c0.1,0.2,0.7,0.1,0.8,0C728.4,271.1,727.5,270.9,727.6,271.2L727.6,271.2z" style="fill:#284B9F"/><path d="M728.4,271.2L728.4,271.2C727.5,270.8,727.4,271.5,728.4,271.2L728.4,271.2 M728.4,271.2
			c0.1,0.2-0.4,0.1-0.5,0.1C727,271.2,728.1,270.8,728.4,271.2L728.4,271.2z" style="fill:none"/></g><g><path d="M729,271.5c0,0,0.1,0,0.1-0.1c-0.1,0-0.1,0-0.2-0.1C728.9,271.4,728.9,271.4,729,271.5L729,271.5z" style="fill:#284B9F"/><path d="M729,271.4L729,271.4L729,271.4L729,271.4L729,271.4 M729.1,271.4c0,0.1-0.1,0.1-0.2,0.1v-0.1l-0.1-0.1
			C728.9,271.3,729,271.4,729.1,271.4z" style="fill:none"/></g><g><path d="M729.1,271C729.1,271,729.1,271.1,729.1,271c0.1,0,0.1,0,0.2-0.1C729.2,270.8,729.1,270.9,729.1,271
			L729.1,271z" style="fill:#284B9F"/><path d="M729.3,270.9c-0.1,0-0.2,0.1-0.1,0.1C729.2,271,729.2,271,729.3,270.9C729.2,271,729.3,270.9,729.3,270.9
			 M729.3,270.9L729.3,270.9c-0.1,0.1-0.1,0.1-0.2,0.2C729,271,729.2,270.7,729.3,270.9L729.3,270.9z" style="fill:none"/></g><g><path d="M727.3,270.8L727.3,270.8C727.4,270.8,727.4,270.8,727.3,270.8l0.1-0.1C727.3,270.7,727.3,270.7,727.3,270.8
			L727.3,270.8z" style="fill:#284B9F"/><path d="M727.4,270.7C727.3,270.7,727.3,270.8,727.4,270.7L727.4,270.7 M727.4,270.7v0.2c0.1,0,0,0-0.1,0.1
			C727.2,270.8,727.3,270.6,727.4,270.7z" style="fill:none"/></g><g><path d="M728.4,270.7C728.4,270.7,728.4,270.8,728.4,270.7C728.5,270.8,728.5,270.7,728.4,270.7
			C728.5,270.7,728.5,270.7,728.4,270.7L728.4,270.7L728.4,270.7L728.4,270.7z" style="fill:#284B9F"/><path d="M728.5,270.7L728.5,270.7L728.5,270.7C728.4,270.7,728.4,270.7,728.5,270.7L728.5,270.7 M728.5,270.7
			L728.5,270.7c0,0.1,0,0.1,0,0.1C728.4,270.8,728.4,270.7,728.5,270.7L728.5,270.7z" style="fill:none"/></g><g><path d="M728.7,271.2L728.7,271.2c0.1,0,0.1,0,0.2,0C728.9,271.1,728.8,271.1,728.7,271.2
			C728.7,271.1,728.7,271.1,728.7,271.2C728.7,271.1,728.7,271.1,728.7,271.2z" style="fill:#284B9F"/><path d="M728.8,271.1L728.8,271.1C728.8,271.1,728.7,271.1,728.8,271.1C728.7,271.1,728.7,271.1,728.8,271.1
			L728.8,271.1 M728.9,271.1L728.9,271.1c0,0.1-0.1,0.1-0.2,0.1l-0.1-0.1l0.1-0.1C728.8,271.1,728.9,271.1,728.9,271.1L728.9,271.1z
			" style="fill:none"/></g><g><path d="M729.1,270.7L729.1,270.7c0.1,0,0.1,0,0.2-0.1l0,0L729.1,270.7C729,270.6,729,270.7,729.1,270.7L729.1,270.7
			z" style="fill:#284B9F"/><path d="M729.2,270.6L729.2,270.6L729.2,270.6C729.1,270.6,729.1,270.6,729.2,270.6
			C729.1,270.6,729.1,270.6,729.2,270.6 M729.2,270.6L729.2,270.6c0,0.1-0.1,0.1-0.2,0.2c-0.1,0,0-0.1,0-0.1L729.2,270.6
			C729.2,270.5,729.2,270.5,729.2,270.6L729.2,270.6z" style="fill:none"/></g><g><path d="M729.1,270.2L729.1,270.2c0.1,0,0.1-0.1,0-0.1l0,0C729.1,270.1,729.1,270.1,729.1,270.2z" style="fill:#284B9F"/><path d="M729.1,270.1L729.1,270.1C729.1,270.1,729.1,270.2,729.1,270.1C729.1,270.2,729.1,270.2,729.1,270.1
			 M729.2,270.1C729.2,270.1,729.2,270.2,729.2,270.1c-0.1,0.2-0.2,0.1-0.1-0.1v-0.1C729.1,270,729.1,270.1,729.2,270.1L729.2,270.1
			z" style="fill:none"/></g><g><path d="M728.8,269.6C728.8,269.7,728.9,269.7,728.8,269.6C729,269.5,728.9,269.5,728.8,269.6L728.8,269.6
			C728.8,269.5,728.8,269.5,728.8,269.6z" style="fill:#284B9F"/><path d="M728.9,269.6C728.9,269.5,728.9,269.5,728.9,269.6L728.9,269.6L728.9,269.6 M729,269.6
			c-0.1,0.1-0.2,0.1-0.2-0.1l0.1-0.1C728.9,269.5,729,269.5,729,269.6L729,269.6z" style="fill:none"/></g><g><path d="M728.4,269L728.4,269C728.9,269.1,728.2,269.4,728.4,269z" style="fill:#284B9F"/><path d="M728.6,269.1v0.1V269.1L728.6,269.1z M728.5,269.2c-0.1,0-0.2,0-0.2,0C728.4,269.2,728.5,269.2,728.5,269.2
			L728.5,269.2z" style="fill:#253068"/></g><g><path d="M728.5,269.7C728.5,269.8,728.5,269.8,728.5,269.7C728.6,269.7,728.6,269.7,728.5,269.7c0.1-0.1,0-0.1,0-0.1
			C728.5,269.7,728.5,269.7,728.5,269.7z" style="fill:#284B9F"/><path d="M728.6,269.7C728.6,269.7,728.5,269.7,728.6,269.7C728.5,269.7,728.5,269.7,728.6,269.7
			C728.5,269.7,728.6,269.7,728.6,269.7 M728.6,269.7L728.6,269.7c0,0.1-0.1,0.1-0.1,0.1C728.4,269.7,728.4,269.7,728.6,269.7
			C728.5,269.6,728.5,269.6,728.6,269.7C728.6,269.6,728.6,269.6,728.6,269.7L728.6,269.7z" style="fill:none"/></g><g><path d="M728.6,270.2C728.6,270.2,728.7,270.3,728.6,270.2L728.6,270.2L728.6,270.2z" style="fill:#284B9F"/><path d="M728.7,270.2L728.7,270.2L728.7,270.2L728.7,270.2 M728.8,270.3c-0.1,0.1-0.3-0.1-0.1-0.1L728.8,270.3
			L728.8,270.3z" style="fill:none"/></g><g><path d="M728.8,270.5L728.8,270.5C729,270.7,728.7,270.8,728.8,270.5z" style="fill:#284B9F"/><path d="M728.9,270.5c0,0.1,0,0.1,0,0.1C728.9,270.7,729,270.6,728.9,270.5L728.9,270.5z M728.9,270.7
			C728.9,270.7,728.8,270.7,728.9,270.7C728.8,270.7,728.9,270.7,728.9,270.7z" style="fill:#253068"/></g><g><path d="M728.3,270.3C728.4,270.3,728.4,270.3,728.3,270.3C728.4,270.3,728.4,270.3,728.3,270.3L728.3,270.3
			L728.3,270.3L728.3,270.3z" style="fill:#284B9F"/><path d="M728.4,270.3L728.4,270.3C728.4,270.3,728.4,270.4,728.4,270.3C728.3,270.3,728.3,270.3,728.4,270.3
			L728.4,270.3L728.4,270.3L728.4,270.3z" style="fill:#253068"/></g><g><path d="M728.2,269.9L728.2,269.9C728.2,269.9,728.2,269.8,728.2,269.9L728.2,269.9
			C728.2,269.9,728.1,269.9,728.2,269.9z" style="fill:#284B9F"/><path d="M728.3,269.9c0,0.1,0,0.1-0.1,0.1C728.2,269.9,728.2,269.9,728.3,269.9L728.3,269.9
			C728.2,269.8,728.3,269.8,728.3,269.9L728.3,269.9z" style="fill:#253068"/></g><g><path d="M727.9,270.4L727.9,270.4v-0.1C727.9,270.3,727.9,270.3,727.9,270.4L727.9,270.4z" style="fill:#284B9F"/><path d="M728,270.3L728,270.3C727.9,270.3,727.9,270.3,728,270.3L728,270.3 M728.1,270.3L728.1,270.3
			c-0.1,0.2-0.3,0-0.1-0.1C728,270.2,728,270.3,728.1,270.3L728.1,270.3z" style="fill:none"/></g><g><path d="M728.7,269.9L728.7,269.9L728.7,269.9L728.7,269.9L728.7,269.9z" style="fill:#284B9F"/><path d="M728.9,269.9c0,0.1-0.1,0.2-0.2,0.1c0-0.1,0,0,0.1-0.1H728.9z" style="fill:#253068"/></g><g><path d="M728.1,269.4C728.1,269.5,728.2,269.4,728.1,269.4C728.2,269.3,728.1,269.3,728.1,269.4
			C728,269.4,728,269.4,728.1,269.4L728.1,269.4z" style="fill:#284B9F"/><path d="M728.2,269.4C728.1,269.4,728.1,269.4,728.2,269.4C728.1,269.4,728.1,269.4,728.2,269.4 M728.2,269.4
			L728.2,269.4c-0.1,0.2-0.2,0.1-0.2-0.1C728.1,269.3,728.2,269.3,728.2,269.4L728.2,269.4z" style="fill:none"/></g><g><path d="M728,268.8L728,268.8C728.2,268.9,727.9,269.1,728,268.8z" style="fill:#284B9F"/><path d="M728.1,268.9C728.1,269,727.9,269,728.1,268.9L728.1,268.9L728.1,268.9L728.1,268.9z" style="fill:#253068"/></g><g><path d="M727.6,269L727.6,269C727.6,268.9,727.6,268.9,727.6,269C727.6,268.9,727.6,269,727.6,269z" style="fill:#284B9F"/><path d="M727.7,268.9C727.7,268.9,727.7,269,727.7,268.9C727.5,269,727.5,269,727.7,268.9
			C727.6,268.9,727.6,268.9,727.7,268.9L727.7,268.9z" style="fill:#253068"/></g><g><path d="M727.8,268.7L727.8,268.7C727.8,268.6,727.8,268.6,727.8,268.7C727.7,268.7,727.7,268.7,727.8,268.7z" style="fill:#284B9F"/><path d="M727.8,268.6L727.8,268.6C727.8,268.7,727.8,268.7,727.8,268.6C727.8,268.7,727.8,268.7,727.8,268.6
			 M727.9,268.6L727.9,268.6c0,0.1,0,0.1-0.1,0.1S727.8,268.6,727.9,268.6C727.8,268.6,727.8,268.6,727.9,268.6L727.9,268.6z" style="fill:none"/></g><g><path d="M727.3,268.8L727.3,268.8L727.3,268.8L727.3,268.8L727.3,268.8L727.3,268.8z" style="fill:#284B9F"/><path d="M727.3,268.8L727.3,268.8L727.3,268.8L727.3,268.8 M727.4,268.8L727.4,268.8c-0.1,0.1-0.2,0.1-0.2-0.1
			L727.4,268.8L727.4,268.8L727.4,268.8z" style="fill:none"/></g><g><path d="M727.8,269.4C727.8,269.5,727.9,269.4,727.8,269.4L727.8,269.4L727.8,269.4L727.8,269.4z" style="fill:#284B9F"/><path d="M727.9,269.4c0,0.1-0.2,0.1-0.2,0H727.9z" style="fill:#253068"/></g><g><path d="M727.8,269.7L727.8,269.7L727.8,269.7L727.8,269.7L727.8,269.7z" style="fill:#284B9F"/><path d="M727.9,269.7c0,0.1,0,0.1-0.1,0.1L727.9,269.7L727.9,269.7C727.8,269.7,727.9,269.6,727.9,269.7L727.9,269.7
			z" style="fill:#253068"/></g><g><path d="M727.4,270.1L727.4,270.1C727.4,270.1,727.4,270,727.4,270.1C727.4,270,727.4,270,727.4,270.1z M727.5,270.1
			C727.5,270,727.5,270,727.5,270.1L727.5,270.1C727.4,270.1,727.4,270.1,727.5,270.1z" style="fill:#284B9F"/><path d="M727.5,270c0,0,0,0.1-0.1,0.1c-0.1-0.1-0.1-0.1-0.1-0.2C727.4,269.9,727.4,270,727.5,270L727.5,270
			L727.5,270L727.5,270z" style="fill:#253068"/></g><g><path d="M727.6,270.5L727.6,270.5L727.6,270.5L727.6,270.5z" style="fill:#284B9F"/><path d="M727.6,270.5L727.6,270.5L727.6,270.5L727.6,270.5 M727.8,270.5c-0.1,0.1-0.1,0.1-0.2,0c0-0.1,0,0,0.1-0.1
			L727.8,270.5z" style="fill:none"/></g><g><path d="M727.9,270.8C728,270.8,728,270.9,727.9,270.8C728,270.8,728,270.8,727.9,270.8L727.9,270.8
			C728,270.8,728,270.8,727.9,270.8z" style="fill:#284B9F"/><path d="M728,270.8L728,270.8L728,270.8L728,270.8L728,270.8 M728.1,270.8c0,0,0,0-0.1,0.1l-0.1-0.1
			C727.9,270.8,728,270.7,728.1,270.8L728.1,270.8L728.1,270.8z" style="fill:none"/></g><g><path d="M727.7,270C727.8,270,727.8,270.1,727.7,270C727.8,270.1,727.8,270,727.7,270C727.9,270,727.8,270,727.7,270
			L727.7,270L727.7,270z" style="fill:#284B9F"/><path d="M727.8,270L727.8,270L727.8,270L727.8,270 M727.9,270L727.9,270c0,0.1-0.1,0.1-0.1,0.1l-0.1-0.1
			C727.8,270,727.9,270,727.9,270L727.9,270z" style="fill:none"/></g><g><path d="M727,269.5c0,0.1,0.3,0.1,0.3-0.1L727,269.5L727,269.5L727,269.5z M727.4,269.5
			C727.4,269.6,727.5,269.6,727.4,269.5C727.5,269.5,727.5,269.5,727.4,269.5L727.4,269.5L727.4,269.5z" style="fill:#284B9F"/><path d="M727.5,269.5L727.5,269.5L727.5,269.5C727.4,269.5,727.4,269.5,727.5,269.5L727.5,269.5 M727.3,269.5h-0.2
			C727.1,269.5,727.2,269.5,727.3,269.5 M727.5,269.4C727.5,269.5,727.5,269.5,727.5,269.4c-0.1,0.2-0.1,0.1-0.2,0
			c0,0.2-0.4,0.2-0.3,0H727.5L727.5,269.4L727.5,269.4z" style="fill:none"/></g><g><path d="M727.1,269.2L727.1,269.2C727.2,269.2,727.2,269.2,727.1,269.2L727.1,269.2L727.1,269.2z" style="fill:#284B9F"/><path d="M727.2,269.2L727.2,269.2C727.1,269.2,727.1,269.2,727.2,269.2C727.1,269.2,727.2,269.2,727.2,269.2
			 M727.3,269.2L727.3,269.2c-0.1,0-0.2,0-0.2-0.1h0.1C727.2,269.1,727.2,269.2,727.3,269.2L727.3,269.2z" style="fill:none"/></g><g><path d="M727.5,269.2c0,0.1-0.1,0-0.1-0.1L727.5,269.2z" style="fill:#284B9F"/><path d="M727.5,269.2L727.5,269.2L727.5,269.2 M727.5,269.2c0,0.1-0.1,0-0.1-0.1L727.5,269.2L727.5,269.2z" style="fill:none"/></g><g><path d="M727,270.1c0.1,0.2-0.2,0.3-0.2,0H727z" style="fill:#284B9F"/><path d="M727,270.1c0,0.1,0,0.1,0,0.1S727,270.2,727,270.1L727,270.1z M727,270.3L727,270.3
			C726.8,270.3,726.9,270.3,727,270.3z" style="fill:#253068"/></g><g><path d="M726.5,270.6c0.1,0,0.1,0.1,0.2,0.1l0,0C726.6,270.6,726.6,270.6,726.5,270.6
			C726.6,270.6,726.5,270.6,726.5,270.6z" style="fill:#284B9F"/><path d="M726.7,270.7L726.7,270.7c-0.1,0.1-0.2,0-0.2,0c0-0.1,0,0,0.1-0.1C726.6,270.6,726.7,270.6,726.7,270.7
			L726.7,270.7z" style="fill:#253068"/></g><g><path d="M727,270.8L727,270.8c0.1,0,0.1,0,0.1-0.1L727,270.8C727,270.7,727,270.7,727,270.8z" style="fill:#284B9F"/><path d="M727.1,270.7L727.1,270.7C727,270.7,727,270.8,727.1,270.7C727.1,270.8,727.1,270.8,727.1,270.7
			 M727.1,270.7c0,0.1,0,0.2-0.1,0.2s-0.1-0.1-0.1-0.2H727.1z" style="fill:none"/></g><g><path d="M727.2,270.4C727.3,270.4,727.3,270.4,727.2,270.4L727.2,270.4L727.2,270.4z" style="fill:#284B9F"/><path d="M727.3,270.4c0,0-0.1,0.1-0.2,0c0-0.1,0-0.1,0-0.1L727.3,270.4z" style="fill:#253068"/></g><g><path d="M726.5,270.2C726.5,270.3,726.5,270.3,726.5,270.2C726.6,270.2,726.5,270.2,726.5,270.2L726.5,270.2
			L726.5,270.2z" style="fill:#284B9F"/><path d="M726.5,270.2L726.5,270.2L726.5,270.2L726.5,270.2L726.5,270.2L726.5,270.2 M726.6,270.2L726.6,270.2
			C726.5,270.4,726.4,270.3,726.6,270.2L726.6,270.2C726.5,270.1,726.6,270.1,726.6,270.2L726.6,270.2z" style="fill:none"/></g><g><path d="M727,269.9L727,269.9L727,269.9C727,269.8,727,269.8,727,269.9C726.9,269.8,727,269.9,727,269.9z
			 M727.1,269.9c0.1,0.1,0.2,0.2,0.2,0.1L727.1,269.9L727.1,269.9z" style="fill:#284B9F"/><path d="M727.3,269.9L727.3,269.9C727.2,269.9,727.3,270,727.3,269.9C727.3,270,727.3,270,727.3,269.9 M727,269.9
			L727,269.9L727,269.9L727,269.9 M727.3,269.9c0.1,0.2-0.1,0.1-0.2,0c0,0,0,0-0.1,0.1c0,0-0.1-0.1-0.1-0.2h0.1c0,0,0,0,0-0.1
			c0,0,0,0,0.1,0l0,0L727.3,269.9z" style="fill:none"/></g><g><path d="M726.5,269.7L726.5,269.7c0.1,0,0.1,0,0.1-0.1L726.5,269.7L726.5,269.7L726.5,269.7z" style="fill:#284B9F"/><path d="M726.6,269.7L726.6,269.7L726.6,269.7L726.6,269.7L726.6,269.7 M726.7,269.6c0,0.1,0,0.1-0.1,0.1
			C726.5,269.6,726.5,269.6,726.7,269.6L726.7,269.6z" style="fill:none"/></g><g><path d="M726.9,269.2C726.9,269.2,726.9,269.3,726.9,269.2C727,269.2,727,269.2,726.9,269.2L726.9,269.2L726.9,269.2
			L726.9,269.2z" style="fill:#284B9F"/><path d="M726.9,269.2L726.9,269.2L726.9,269.2L726.9,269.2 M727,269.1c0,0.1,0,0.1-0.1,0.2v-0.1L727,269.1z" style="fill:none"/></g><g><path d="M728.1,268.8C728.1,268.8,728.2,268.8,728.1,268.8L728.1,268.8L728.1,268.8L728.1,268.8z" style="fill:#284B9F"/><path d="M728.2,268.8c0,0.1-0.2,0.1-0.1-0.1L728.2,268.8z" style="fill:#253068"/></g><g><g><path d="M719.7,277.3c0.9,1.5,2.3,2.7,3.8,3.6c-3.3-2.1-7.3-8.5-0.3-7.9c0-0.1,0-0.2,0-0.3
				C719.9,272.3,717.8,274.4,719.7,277.3z" style="fill:#284B9F"/><path d="M723.2,272.8c-6.6-0.7-4.2,5.7-0.5,7.6c-3.1-2.4-6.2-8,0.4-7.4C723.2,272.9,723.2,272.9,723.2,272.8
				L723.2,272.8z M723.3,272.7c0,0.1,0,0.2,0,0.4c-7.2-0.5-2.8,5.7,0.3,8C719.4,279.2,716,272.1,723.3,272.7z" style="fill:#253068"/></g><g><path d="M722,276c0.2,0.3,0.6,0.6,0.9,0.7c0-0.1,0-0.2,0-0.3c-0.8-0.4-0.8-1.7,0.1-1.9c0-0.1,0.1-0.3,0.1-0.4
				C722.1,274.5,721.5,275.1,722,276z" style="fill:#284B9F"/><path d="M723,274.1c-1.5,0.5-1.5,2-0.1,2.5c0-0.1,0-0.2,0-0.3c-0.8-0.4-0.8-1.7,0.1-2
				C722.9,274.3,723,274.2,723,274.1L723,274.1z M723.1,274.1c0,0.1-0.1,0.3-0.1,0.4c-0.9,0.3-0.9,1.5-0.1,1.9c0,0.1,0,0.3,0,0.4
				C721.4,276.2,721.4,274.5,723.1,274.1z" style="fill:#253068"/></g><g><path d="M721,277.5c0.6,1,1.2,1.9,2.4,2.3c0-0.2-0.1-0.3-0.1-0.5c-0.9-0.3-1.8-1.1-1.9-2.1c0.3,0.5,1.1,1.5,1.7,1.5
				c0-0.2-0.1-0.5-0.1-0.7c-2.4-0.9-3-4.2,0.1-4.4c0-0.1,0-0.2,0.1-0.3C720.7,273.4,719.5,275.4,721,277.5z" style="fill:#284B9F"/><path d="M723.1,273.4c-4.5,0.1-2.7,5.1,0.2,6.4c0-0.1-0.1-0.3-0.1-0.4c-0.9-0.3-1.9-1.2-1.9-2.2
				c0.3,0.5,1,1.5,1.7,1.6c0-0.2-0.1-0.4-0.1-0.6c-2.4-0.9-3-4.2,0.1-4.5C723.1,273.5,723.1,273.5,723.1,273.4L723.1,273.4z
				 M723.2,273.3c0,0.1,0,0.2-0.1,0.3c-3.1,0.3-2.5,3.5-0.1,4.4c0,0.2,0.1,0.5,0.1,0.7c-0.7,0-1.5-1.1-1.8-1.5c0.1,0.9,1,1.7,1.9,2
				c0,0.2,0.1,0.4,0.1,0.6C720.4,278.7,718.6,273.4,723.2,273.3z" style="fill:#253068"/></g></g><linearGradient id="I" gradientUnits="userSpaceOnUse" x1="14.248" y1="514.2831" x2="14.248" y2="516.8725" gradientTransform="matrix(-0.5 -0.866 0.866 -0.5 284.9068 541.3009)"><stop offset="9.777780e-02" style="stop-color:#224199"/><stop offset="0.1159" style="stop-color:#3854A2"/><stop offset="0.155" style="stop-color:#6279B2"/><stop offset="0.1976" style="stop-color:#8799C1"/><stop offset="0.2431" style="stop-color:#A6B5CE"/><stop offset="0.2924" style="stop-color:#BFCBD8"/><stop offset="0.3472" style="stop-color:#D3DCDF"/><stop offset="0.4101" style="stop-color:#E1E8E5"/><stop offset="0.4886" style="stop-color:#E9EFE8"/><stop offset="0.6311" style="stop-color:#EBF1E9"/><stop offset="0.6663" style="stop-color:#E7EDE7"/><stop offset="0.7026" style="stop-color:#DAE2E2"/><stop offset="0.7396" style="stop-color:#C6D0DA"/><stop offset="0.777" style="stop-color:#A9B7CF"/><stop offset="0.8146" style="stop-color:#8396C0"/><stop offset="0.852" style="stop-color:#566FAE"/><stop offset="0.8889" style="stop-color:#224199"/></linearGradient><path style="fill:url(#I);" d="M723.3,271.9c0.6-0.5,1.6-0.9,2.3-1.3
		c-0.1-0.1-0.1-0.2-0.2-0.2c-0.7,0.3-1.5,0.9-2.2,1.2C723.2,271.8,723.2,271.9,723.3,271.9z"/><linearGradient id="J" gradientUnits="userSpaceOnUse" x1="14.2393" y1="510.9216" x2="14.2393" y2="520.3468" gradientTransform="matrix(-0.5 -0.866 0.866 -0.5 284.9068 541.3009)"><stop offset="0" style="stop-color:#224199"/><stop offset="7.594243e-02" style="stop-color:#254192"/><stop offset="0.1846" style="stop-color:#2D407F"/><stop offset="0.313" style="stop-color:#3A3F60"/><stop offset="0.4553" style="stop-color:#4B3D36"/><stop offset="0.5022" style="stop-color:#523C26"/><stop offset="0.5123" style="stop-color:#503C2A"/><stop offset="0.6166" style="stop-color:#403E52"/><stop offset="0.7195" style="stop-color:#333F71"/><stop offset="0.8192" style="stop-color:#294087"/><stop offset="0.9143" style="stop-color:#244194"/><stop offset="1" style="stop-color:#224199"/></linearGradient><path style="fill:url(#J);" d="M725.4,270.7c0-0.1-0.1-0.1-0.1-0.2
		c-0.7,0.4-1.4,0.9-2.1,1.2c0,0.1,0,0.1,0.1,0.2C723.8,271.3,724.7,271,725.4,270.7L725.4,270.7z M725.6,270.7
		c-0.7,0.3-1.8,0.8-2.4,1.3c0-0.1-0.1-0.3-0.1-0.4c0.8-0.3,1.5-1,2.3-1.3C725.4,270.5,725.5,270.6,725.6,270.7L725.6,270.7z"/><path d="M728.8,285.4c0.5,2.2,1.7,2.9,1.7,2.9c-0.9-1.1-1-1.5-1-1.5c0.4,0.9,1,1.3,1.1,1.4c-0.9-0.8-1.2-2.2-1.3-2.3
		c0.5,1.5,1.4,2.3,1.4,2.3c-0.9-1.4-1.4-2.7-1.6-3.1c0.3,0.9,1.6,3,1.6,3c0-0.2-1.2-3.5-1.2-3.5c0.7,1.2,1.3,3.5,1.3,3.5
		c0.1-0.4-1-3.7-1-3.9c0.9,2.2,1.2,3.7,1.2,3.7c0.1-0.4-0.5-3.6-0.5-3.8c0.4,1.4,0.7,3.6,0.7,3.8l-0.2-3.3c0.3,1.2,0.3,3.3,0.3,3.4
		C732.7,283.9,728.6,281.1,728.8,285.4z" style="opacity:0.16;fill:#FFFFFF;enable-background:new"/><path d="M729.5,284.4c0,0,1.2,3.3,1.2,3.5c0,0-1.3-2.1-1.6-3c0.2,0.5,0.6,1.7,1.6,3.1c0,0-0.9-0.8-1.4-2.3
		c0,0.1,0.4,1.5,1.3,2.3c-0.1,0-0.7-0.5-1.1-1.4c0,0,0.1,0.5,1,1.5l0.9-0.5c0-0.1,0-2.2-0.3-3.4l0.2,3.3c0-0.1-0.3-2.4-0.7-3.8
		c0,0.2,0.7,3.4,0.5,3.8c0-0.1-0.3-1.5-1.2-3.7c0.1,0.2,1.2,3.5,1,3.9C730.8,287.9,730.2,285.7,729.5,284.4z" style="opacity:0.33;fill:#FFFFFF;enable-background:new"/><path d="M734.3,287.9c-0.9,0.5,0,2.1,0.9,1.5C736.1,288.9,735.2,287.4,734.3,287.9z" style="fill:#F1F1F2"/><path d="M734.2,288c-0.6,0.3,0,1.4,0.6,1C735.4,288.7,734.8,287.7,734.2,288z" style="fill:#231F20"/><path d="M734.6,287.9c0.2-0.1,0.5,0.3,0.2,0.4C734.6,288.4,734.4,288.1,734.6,287.9z" style="fill:#FFFFFF"/><g><path d="M742,289.4c-1.3,0.8-2.5-1.3-1.2-2C742.1,286.7,743.3,288.7,742,289.4z" style="fill:#E6F6FF"/><path d="M745.6,284.7c-1.5,0.9-2.8-1.5-1.3-2.3C745.7,281.5,747.1,283.8,745.6,284.7z" style="fill:#E6F6FF"/><path d="M748.8,286.3c-0.7,0.4-1.4-0.7-0.7-1.2C748.9,284.7,749.6,285.9,748.8,286.3z" style="fill:#E6F6FF"/><path d="M752.7,287.1c-1.1,0.7-2.1-1.1-1-1.7C752.9,284.7,753.9,286.5,752.7,287.1z" style="fill:#E6F6FF"/><path d="M753.9,281c-1.1,0.7-2.1-1.1-1-1.7C754,278.6,755,280.4,753.9,281z" style="fill:#E6F6FF"/><path d="M763.2,280.3c-1.7,1-3.2-1.6-1.5-2.6S764.9,279.3,763.2,280.3z" style="fill:#E6F6FF"/></g><text transform="matrix(0.5 0.866 -0.866 0.5 786.4504 216.1572)" class="st9" style="fill:#474747;font-size:7.9348px">WATERWORLD</text></g><g><path d="M785.8,610.1c-10.2,2.5,11.4-34.3,13.1-21.8c2.5-0.6,2.7,2,1.8,4.9C806.1,601,773,643.4,785.8,610.1z" style="fill:#008D22"/><g><g><path d="M787,617.5c-0.3-2.4-1.6-4.4-2.6-6.5s-2-4.5-0.8-6.7c1.8-3.7,2.2-9.7,6.8-11.1c0.9-0.3,0.5-1.7-0.4-1.4
				c-5.3,1.7-5.6,7.6-7.7,11.8c-2.5,5,2.6,9.5,3.4,14.2C785.7,618.9,787.1,618.5,787,617.5L787,617.5z" style="fill:#AA9900"/></g></g><g><g><path d="M765.7,598.8c0.3,0.1,0.5,0.1,0.8,0.1c0.6,0,0.9-0.6,0.7-1.1c-0.1-0.3-0.2-0.4-0.3-0.7
				c-0.2-0.3-0.7-0.4-1.1-0.3c0,0.1,0.2,0.3,0.1,0.4c-0.5-0.2-0.9-0.3-1.2-0.6c0,0.4,0.1,0.5,0.2,0.9c0.1-0.3,0.1-0.4,0.2-0.7
				c-0.2,0.2-0.5,0.5-0.7,0.8c-0.4,0.5-0.1,1.3,0.5,1.3c-0.4,0,0.5,0.6,0.6,0.7c0.4,0.2,0.8,0.4,1.3,0.6c1.1,0.4,2.2,0.7,3.3,1
				c2.3,0.4,4.5,1.1,6.8,1.7c4.4,1.4,8.9,3,13.6,3c0.1-0.5,0-1,0-1.5c-0.4,0-0.8,0-1.2,0.1c0.2,0.1,0.4,0.2,0.6,0.3
				c-1.3-2.3-2.7-4.5-4.2-6.6c-0.6-0.8-1.8-0.1-1.3,0.8c1,1.5,1.9,3.2,2.9,4.7c0.2,0.4,1.2,1.4,1.2,1.9c0-0.2-0.5,0.5-0.5,0.5
				c-0.3,0.4-0.5,0.9-0.9,1.4c-0.9,0.9-2,1.1-3.1,1.4c0.2,0.5,0.2,1,0.4,1.4c0.5-0.2,0.9-0.2,1.4-0.4c-0.2-0.4-0.5-0.9-0.7-1.2
				c-0.5,0.5-0.1,1.6,0.1,2.1c0.2,0.5,0.3,1.1,0.5,1.6c0,0.2,0.1,0.4,0.2,0.7c0.2,0.5-0.1,0.4,0.1,0c-0.4,0.8,0.8,1.6,1.3,0.7
				c0.3-0.5-0.1-1.4-0.2-2c-0.2-0.5-0.2-1-0.4-1.5c0-0.2,0-0.4-0.1-0.6c-0.2-0.4,0.2-0.5-0.2,0c0.5-0.5,0-1.5-0.7-1.2
				c-0.5,0.2-0.9,0.2-1.4,0.4c-0.9,0.3-0.5,1.7,0.4,1.4c2.1-0.5,3.9-1.4,4.9-3.4c0.3-0.6,0.7-1.3,0.5-2c-0.2-0.3-0.4-0.7-0.5-1
				c-1.2-1.9-2.4-3.8-3.5-5.7c-0.4,0.2-0.9,0.5-1.3,0.8c1.5,2.2,2.9,4.4,4.2,6.6c0.1,0.2,0.3,0.4,0.6,0.3c0.4,0,0.8,0,1.2-0.1
				c1-0.1,1-1.5,0-1.5c-4.7,0.2-9.2-1.6-13.6-3c-2.1-0.6-4.2-1.3-6.4-1.6c-1-0.2-2.2-0.4-3.3-0.9c-0.6-0.2-1.1-0.5-1.6-0.9
				c-0.2-0.2-0.5-0.4-0.8-0.4c0.2,0.5,0.4,0.8,0.5,1.3c0.3-0.3,0.8-0.7,0.9-1.1c0.1-0.3-0.1-0.6-0.1-0.8c0-0.6-0.9-1.1-1.2-0.6
				c-0.4,0.6-0.9,1.3-0.4,1.9c0.6,0.6,1.5,0.3,2,0c-0.3-0.1-0.7-0.2-1.1-0.3c0.2,0.3,0.2,0.4,0.3,0.7c0.2-0.4,0.5-0.7,0.7-1.1
				c-0.1,0-0.3-0.1-0.4-0.1C765.2,597.1,764.8,598.5,765.7,598.8L765.7,598.8z" style="fill:#AA9900"/></g></g><g><g><path d="M764.8,597.5c0.2,0.3,0.5,0.7,0.8,1c0.2,0.2,0.5,0.5,0.9,0.4c0.6-0.2,0.8-0.9,0.3-1.2
				c0-0.1-0.2-0.1-0.2-0.2c-0.2-0.1-0.5-0.2-0.7-0.3c-0.5-0.1-0.9,0-1.5,0c0.2,0.4,0.5,0.9,0.7,1.2c0-0.1,0-0.1-0.3,0.2
				c-0.1,0-0.2,0-0.4,0l0,0c-0.1,0-0.2-0.1-0.3-0.2c0-0.1-0.2-0.3-0.2-0.3c0-0.2,0-0.2,0-0.2l0,0c0,0,0,0.1,0,0s0,0,0,0v0.1
				c0,0.1,0,0.4-0.1,0.5c0,0.1,0,0.4-0.1,0.5c0,0.2,0.1,0.5,0.4,0.7c0.3,0.2,0.8,0.1,0.9-0.2c0.1-0.2,0.2-0.3,0.2-0.5
				s-0.1-0.4-0.2-0.6c-0.3-0.3-0.7-0.3-1,0c-0.2,0.2-0.5,0.4-0.7,0.6c-0.1,0.2-0.3,0.4-0.4,0.7c-0.1,0.4,0,0.8,0.5,1
				c0.3,0.2,0.5,0.1,0.9,0.1c0.4-0.1,0.8-0.2,1.1-0.3c0.5-0.2,0.9-0.3,1.4-0.4c0.1,0,0.2,0,0.3-0.1c0.1,0,0.1,0,0.1,0
				c0.1,0,0.2,0,0,0c0.1,0,0.1,0,0.2,0c0.1,0-0.3-0.1-0.1,0l0,0c0.1,0-0.2-0.1-0.1,0c0.1,0-0.2-0.1-0.1,0c0.3,0.3,0.8,0.4,1,0
				c0.3-0.3,0.4-0.8,0-1c-0.1-0.1-0.2-0.3,0,0c-0.1-0.1-0.1-0.2-0.2-0.3c-0.1-0.2-0.2-0.3-0.3-0.5c0-0.1-0.1-0.2-0.2-0.3
				s-0.1-0.2,0,0.1v-0.1c0-0.1,0-0.1-0.1-0.2c-0.1-0.2-0.1-0.4-0.3-0.7c-0.1-0.4-0.3-0.9-0.5-1.2c-0.2-0.5-0.6-0.8-1.1-0.7
				c-0.7,0.2-0.7,1-0.6,1.5c0-0.1,0.2-0.3,0.2-0.5c-0.2,0.1-0.2,0.2-0.4,0.3c-0.3,0.3-0.4,0.8,0,1c0.3,0.3,0.8,0.4,1,0
				c0.2-0.1,0.2-0.2,0.4-0.3c0.2-0.2,0.2-0.5,0.2-0.8c0-0.1,0-0.2,0.1-0.3c0-0.1-0.1,0.3,0.1,0.1l0,0l0,0c0.1,0,0,0,0,0.1
				c0.1,0,0,0-0.1,0.2s-0.4,0.2-0.7,0.2c-0.1,0-0.3-0.1-0.3-0.2c0,0.1-0.1-0.2-0.1-0.1c0.1,0.1,0.1,0.1,0.1,0.2s0,0.1,0.1,0.2
				c0,0,0,0,0,0.1c0.1,0.1-0.1-0.2,0-0.1v0.1c0.1,0.2,0.1,0.4,0.2,0.6c0.2,0.5,0.3,1,0.6,1.4c0.1,0.4,0.4,0.8,0.7,1.2
				c0.4-0.3,0.7-0.8,1-1c-0.4-0.3-0.9-0.3-1.4-0.2c-0.4,0.1-0.8,0.2-1.2,0.3s-0.8,0.2-1.3,0.4c-0.1,0.1-0.2,0.1-0.2,0h-0.1
				c-0.1,0,0.2,0,0.1,0c0,0,0,0-0.1,0s0.2,0,0.1,0c-0.1,0,0.2,0.1,0.1,0c0.1,0,0.2,0.2,0.3,0.3c0.1,0.2,0,0.2,0,0.4l0,0
				c0-0.1,0,0.1,0,0.1s0.1,0,0-0.1c0,0,0,0,0.1,0c0.1-0.1-0.1,0.2-0.1,0c0.2-0.2,0.4-0.5,0.6-0.7c-0.3-0.4-0.8-0.7-1-1
				c0,0.1,0,0.1,0.3-0.2c0.1,0,0.2,0,0.4,0l0,0c0.1,0,0.2,0.1,0.3,0.2c0,0.1,0.1,0.3,0.2,0.3c0,0.2,0,0.2,0,0.2l0,0c0,0,0-0.1,0,0
				s0,0,0,0v-0.1c0-0.1,0-0.4,0.1-0.5c0-0.1,0-0.4,0.1-0.5C765.2,597.9,765.2,597.6,764.8,597.5c-0.2-0.2-0.7-0.2-0.8,0.1
				c-0.2,0.2-0.3,0.6-0.2,0.9c0.1,0.3,0.5,0.4,0.9,0.3c0.1,0,0.1,0,0.2,0c0.1,0,0.3-0.1,0,0c0.1,0,0.2,0,0.3-0.1h0.1
				c0,0,0,0,0.1-0.1c0.1,0-0.1,0-0.1,0c0.1,0,0.1,0,0.3,0.1c0,0,0,0,0.1,0s-0.1,0-0.1,0h0.1c0,0,0,0,0,0.1c0.1,0-0.2-0.1-0.1,0l0,0
				c-0.1-0.2-0.2-0.3-0.2-0.6c0-0.1,0.1-0.3,0.1-0.4l0,0c0.1,0,0.2-0.2,0.3-0.3c0.3-0.1,0.5-0.1,0.7,0l0,0c0,0,0.2,0.1,0.1,0.1
				c-0.1-0.1-0.1-0.2-0.2-0.1c0-0.1,0-0.1-0.1-0.2s-0.2-0.3,0-0.1c-0.1-0.2-0.2-0.3-0.4-0.5c-0.2-0.3-0.7-0.5-1.1-0.3
				C764.7,596.7,764.5,597.2,764.8,597.5z" style="fill:#AA9900"/></g></g><g><path d="M744.3,617.8c-0.6,0.1,0.2-0.5,0.2-0.4c-0.3-0.2,0.3-0.5,0.3-0.5c-0.3-0.4,1-1.9,1.4-1.2
			c0.5,0.5-0.1,0.8-0.4,0.8c-0.3-0.2-0.6,1.2-0.7,1.1C745.3,618.1,743.3,618.6,744.3,617.8z" style="fill:#131510"/><path d="M748.6,610.3c-0.2-0.1,0.2-0.4,0.2-0.4c-0.6,0.1,0.2-0.5,0.2-0.4c-0.3-0.2,0.2-0.6,0.4-0.6
			c-0.3-0.3,1-2.1,1.5-1.2c0.4,0.6-0.1,0.9-0.3,0.9c-0.3-0.2-0.6,1.3-0.7,1.2C749.9,609.9,748.8,610.5,748.6,610.3z" style="fill:#131510"/><path d="M745.6,616.4c0-0.1-0.1,0-0.2-0.1C745.4,616.2,745.5,616.3,745.6,616.4c0-0.3,0.1-0.5,0.2-0.8
			c0.2,0.1,0.2-0.1,0.2-0.2c0.1,0.2,0.2,0.3,0.4,0.5c0.6,0.2,3.8,1.6,4.3,1.9c0.2,0,0.5,0.1,0.6,0.3c0,0.1,0.2,0.1,0.2,0.2
			c0,0,0.1,0,0.2-0.1c0.1,0,0.3,0.5,0.5,0.2c0.2,0.1,0.1,0.5,0.3,0.4c0,0.1,0.2,0.2,0.3,0.3c-0.2,0-0.5-0.1-0.7-0.2
			c-0.3-0.1-0.3-0.1-0.5-0.1c0,0.1,0,0.2-0.2,0.2c0,0.1-0.1,0.4,0.1,0.6c-0.3,0.2,0.2,0.3,0.3,0.5h-0.1c0,0.2,0.3,0.4,0.5,0.5
			c-0.3,0.1,0.4,0.6,0.6,0.6c0,0-0.1,0-0.2,0.1c0.2,0.2,0.6,0.4,0.8,0.7c-0.3,0.2,0.4,0.3,0.6,0.4c-0.1,0-0.1,0-0.1,0s0.1,0,0.2,0.1
			l0,0v0.1c-0.2-0.1-0.5-0.1-0.7,0c0,0,0.1-0.1,0-0.1c-0.3-0.2-0.8-0.4-0.8-0.7c0-0.1-0.7-0.3-0.5-0.5c-0.6-0.5-1.2-1.1-1.6-1.8
			c-0.7-0.8-4.4-2.4-4.7-2.9c-0.1,0.1-0.2,0.1-0.2,0C745.4,616.6,745.6,616.5,745.6,616.4z" style="fill:#443629"/><path d="M750,608.7c0-0.1,0.1-0.2,0.1-0.2c0-0.1-0.1-0.3,0.2-0.3c0.1-0.1,0-0.1,0.1-0.2c0.1-0.2,0.3-0.5,0.4-0.7
			c0,0.1,0.1,0.3,0.2,0.4c1.4,0.2,3.7,3,4.7,2.9c0.1,0.2,0.2,0.1,0.3-0.1c0,0,0.2,0.3,0.2,0.2c0.1-0.2,0.3-0.1,0.4,0
			c0.1,0,0.3-0.3,0.3-0.1c0.2-0.1,0.5-0.2,0.6-0.1c0,0.1-0.2,0.2-0.1,0.4c1-0.2,2.4,0.8,3,1.5c-0.7,0-1.3-0.7-2.3-0.6
			c0,0.4-0.6-0.2-0.7,0.3c-0.6-0.5-1.3,0.2-2,0c0.4,0.6,0,0.4-0.2,0.7c-0.1,0-0.2,0-0.3-0.1c0.1,0,0.1,0,0.1,0
			c-0.4-0.1-0.6-0.3-1-0.6l0,0c-0.7-0.4-3.8-2.3-4-3.3C750.1,608.7,750,608.7,750,608.7z" style="fill:#443629"/><g><g><path d="M758.1,622.1L758.1,622.1L758.1,622.1z" style="fill:#6E5A3F"/></g></g><path d="M758.1,610.2L758.1,610.2L758.1,610.2L758.1,610.2C758.3,610.2,758.3,610.2,758.1,610.2z" style="fill:#564432"/><path d="M753.1,623.6L753.1,623.6C753.2,623.7,753.2,623.7,753.1,623.6L753.1,623.6z" style="fill:#564432"/><path d="M757.5,623.1L757.5,623.1L757.5,623.1L757.5,623.1z" style="fill:#84684B"/><path d="M755.6,626.8c0.1-0.1,0.2-0.1,0.3-0.2c0.1,0.2,0.1,0,0.2,0c0.2,0.1,0.2,0.1,0.4,0l0,0c0.1,0,0.1,0,0.2-0.1
			c0.1,0,0.3-0.1,0.2-0.2c0.2,0.1,0.3-0.5,0.4-0.2c0.2-0.3,0.5-0.5,0.7-0.8c0.1-0.3,0.2-0.7-0.1-0.9c0.2-0.1-0.1-0.2-0.1-0.3
			s-0.1-0.2-0.1-0.3c0.1,0,0.1-0.2,0-0.2c0,0.1-0.2,0.2-0.2,0.4c-0.1-0.2-0.2-0.3-0.2-0.5l0.1-0.2l0,0c0.1-0.1,0.1-0.3,0-0.4v-0.1
			c-0.1,0,0.1-0.2-0.1-0.3c-0.1,0-0.1-0.2-0.1-0.3c0.1-0.2,0-0.2-0.2-0.3c0.1-0.2-0.1-0.2-0.2-0.3c0.2-0.2-0.2-0.3,0-0.7
			c-0.5-0.5-0.2-1.7,0.3-2c0.8-1.8,2.2-3.9,3.3-5.1c0.9,0.3,2,0.7,3,0.7c1.9-0.7,2.2-1.4,1.3-3.2c2,2.2-0.7,4.2-2.7,3.3
			c-0.6-0.4-1.1-0.3-1.4-0.2c0.1,0.1,0.2,0.1,0.2,0.1c-0.1,0.2-0.5,0.1-0.5,0.4c-0.1,0-0.3,0.2-0.2,0.2c0,0.1-0.2,0.1-0.3,0.1v0.1
			c-1.4,1.6-2.9,3.9-2.8,5.9c0,0.1,0.2,0.1,0.3,0.2c-0.1,0-0.1,0-0.1,0.2c0,0.1,0.2,0,0.3,0.1c-0.1,0-0.2,0.1-0.2,0.2
			c0.2,0.1,0.3,0.2,0.5,0.2c-0.1,0.1-0.2,0.1-0.3,0.2c0.3,0.1,0.1,0.2-0.1,0.3c0.1,0.2,0,0.4,0.2,0.7c0.6,0.6,0.7,1.6,0.5,2.3
			c-0.3,0.1-0.6,0.3-0.8,0.7c-0.2,0-0.2,0.2-0.3,0.3c-0.1,0.2,0,0.1-0.3,0.2c0,0.2-0.5,0.2-0.6,0.3H756c0,0.1-0.3-0.1-0.3-0.2
			S755.6,626.8,755.6,626.8z" style="fill:#84684B"/><path d="M753.4,624.5c0.1,0,0.1,0,0.4,0c0,0.1,0,0.1-0.1,0.3c0.1,0.2,0.3,0.1,0.4,0.1c0,0-0.1,0,0,0.1
			s0.3-0.1,0.4-0.1c0,0,0,0,0,0.1v0.1c0,0-0.1,0,0,0.1c0.1,0,0.3-0.1,0.4,0c0,0-0.1,0.1,0,0.1s0.2,0,0.4,0c0.1,0.2,0.4,0.1,0.5,0.3
			c0,0,0,0-0.1,0c0,0.1,0.3,0.1,0.2,0.2c0.1-0.1,0.1,0,0.1,0c-0.1,0.1-0.1,0.3-0.3,0.2c0,0.2-0.5,0.5-0.1,0.8c0.1,0,0.2-0.1,0.3-0.1
			c0.1,0.2,0.1-0.1,0.2,0c0.2,0.1,0.2,0.1,0.4,0l0,0c0.1,0,0.1,0,0.2-0.1c0.1,0,0.3-0.2,0.2-0.2c0.2,0.1,0.3-0.5,0.4-0.2
			c0.2-0.3,0.5-0.5,0.7-0.8c0.1-0.3,0.2-0.7-0.1-0.9c0.1,0,0-0.1,0-0.2c-0.1-0.2,0-0.2-0.2-0.3c0.1-0.2-0.2-0.3-0.1-0.5
			c0.1-0.2,0-0.2-0.1-0.4l0,0c-0.1-0.1-0.1-0.1,0-0.1v-0.1c-0.1,0,0.1-0.2-0.1-0.3c-0.1,0-0.1-0.2-0.2-0.3c0.1-0.2,0-0.2-0.2-0.3
			c0.1-0.2-0.1-0.2-0.1-0.3c0.2-0.2-0.2-0.3,0-0.7c-0.5-0.5-0.2-1.7,0.3-2c0.8-1.8,2.2-3.9,3.3-5.1c0.9,0.3,2,0.7,3,0.7
			c2.9-0.8,1.8-3.3-0.2-4.6c-0.1,0.2,0.2,0.2,0.2,0.5c0,0,0,0-0.1,0.1c2,1.4,2.6,3.9-0.6,3.8c-0.8-0.2-1.7-1-2.3-1.2
			c0-0.4-0.1-1.1-0.6-1.3h-0.1c-0.7-0.4-1.3-0.6-2-0.7c0,0.4-0.6-0.2-0.7,0.3c-0.6-0.5-1.3,0.2-2,0c0.4,0.6,0,0.4-0.3,0.7
			c0,0,0.1,0,0.2,0.1c-0.1,0-0.1,0-0.2,0.1c0.8,0.1,1.5,0.3,2.1,0.6l0,0c-0.3,0.1-0.2,0.7-0.5,0.7s-0.3,0.5-0.6,0.5
			c-0.1,0-0.1,0.2-0.1,0.2c-0.1,0-0.1,0-0.2,0c0,0.1,0,0.4-0.2,0.4c-0.1,0.2-0.3,0.4-0.4,0.7c-0.2,0-0.1,0.3-0.1,0.4
			c0,0.1-0.1,0.3-0.2,0.2c-0.1,0.1,0,0.7-0.2,0.5c-0.1,0.3,0,0.6,0,0.9l-0.2-0.1c-0.1,0.6-0.3,1.3,0,1.8c-0.1,0-0.1,0-0.2,0
			c0,0.1,0.1,0.2,0.1,0.3c-0.4-0.6-1.1-0.7-1.6-1.2c-0.2,0-0.5-0.1-0.7-0.2c-0.3-0.1-0.2-0.1-0.5-0.1c0,0.1,0,0.2-0.2,0.2
			c0,0.2-0.1,0.4,0.1,0.6c-0.3,0.2,0.2,0.3,0.3,0.5c0,0,0,0-0.1,0.1c0,0.2,0.4,0.3,0.5,0.5c-0.3,0.2,0.4,0.6,0.6,0.7
			c0,0-0.1,0-0.2,0.1c0.2,0.3,0.6,0.5,0.8,0.7c-0.2,0.1,0,0.1,0.1,0.2c-0.1,0.5,0.5,0.4,0.8,0.7c0.2,0,0.4,0,0.4,0.3
			c0.1,0,0.5-0.1,0.5,0.2c0.1,0,0.3,0.2,0.5,0.1c-0.3,0.1-0.5,0.4-0.7,0.4c0,0.1-0.1,0.3-0.3,0.2c-0.1,0,0,0.1-0.1,0.2l0,0
			c-0.1,0,0,0.1-0.2,0.1c-0.1,0-0.1,0-0.2,0.1s0.1,0.1,0,0.2C753.6,624,753.5,624.4,753.4,624.5
			C753.3,624.3,753.3,624.4,753.4,624.5C753.3,624.4,753.3,624.4,753.4,624.5z M757.5,623.1L757.5,623.1L757.5,623.1L757.5,623.1z" style="fill:#6E5A3F"/><path d="M760,611.6L760,611.6c0.1,0,0.1,0.1,0.2,0.2C760.2,611.7,760,611.6,760,611.6L760,611.6z" style="fill:#6E5A3F"/><path d="M748.2,609.3c-0.2-0.1,0.2-0.4,0.2-0.4s-0.3,0.2-0.2-0.1c0.1-0.2,0.4-0.3,0.4-0.3c-0.3-0.2,0.2-0.6,0.4-0.6
			c-0.3-0.3,1-2.1,1.5-1.2c0.4,0.6-0.1,0.9-0.3,0.9c-0.3-0.2-0.6,1.3-0.7,1.2C749.6,609,748.3,609.6,748.2,609.3z" style="fill:#2A2B2A"/><path d="M743.9,616.9c-0.6,0.1,0.2-0.5,0.2-0.4c-0.3-0.2,0.3-0.5,0.3-0.5c-0.3-0.4,1-1.9,1.4-1.2
			c0.5,0.5-0.1,0.8-0.4,0.8c-0.3-0.2-0.6,1.2-0.7,1.1C744.9,617.3,742.9,617.7,743.9,616.9z" style="fill:#2A2B2A"/><path d="M752.9,626.5C752.9,626.5,752.8,626.4,752.9,626.5c-0.5-0.5,0.4-1.9,1-1.2c0.1,0.5,2.2,0,1.4,0.9
			c0,0,0,0,0-0.1c0.2-0.4,0-0.4-0.4-0.5c-0.4-0.2-0.8,0.1-1.3,0C753.5,625.6,753.2,625.8,752.9,626.5z" style="fill:#2A2B2A"/><path d="M745.3,615.5c0-0.1-0.1,0-0.2-0.1C745.1,615.3,745.2,615.4,745.3,615.5c0-0.3,0.1-0.5,0.2-0.8
			c0.2,0.1,0.2-0.1,0.2-0.2c0.1,0.2,0.2,0.3,0.4,0.5c0.6,0.2,3.8,1.6,4.3,1.9c0.4,0,0.5,0.3,0.9,0.5c0,0,0.1,0,0.2-0.1
			c0.1,0,0.1,0.2,0.2,0.2c0,0,0,0,0-0.1c0.1,0,0.1-0.2,0.2-0.2c0.3-0.1,0.3-0.6,0.6-0.8c0,0,0,0,0,0.1c0.2-0.2,0.2-0.6,0.3-0.9
			c0.2,0.1,0.1-0.3,0.2-0.2c0.1-0.2,0.2-0.5,0.3-0.6c0-0.2,0-0.4,0.2-0.1c0.1,0,0.1-0.3,0.2-0.4c0.2,0.1,0.1-0.5,0.3-0.2
			c0.1-0.1,0.1-0.3,0.1-0.3c0.3,0.2,0.3-0.3,0.5-0.5l0,0c0.7-0.5,0.9-1.4,1.8-1.9c-0.3,0.1-0.7,0.3-1,0.1c0.4,0.6,0,0.4-0.3,0.7
			c0-0.1-0.2,0-0.3-0.1l0.1-0.1c-0.4,0-0.6-0.3-1-0.6c-0.7-0.4-3.8-2.3-4.1-3.3l0,0h-0.1c0-0.1,0.1-0.2,0.1-0.2
			c0-0.1-0.1-0.3,0.2-0.3c0.2-0.2,0.4-0.6,0.5-0.9c0,0.1,0.1,0.3,0.2,0.4c1.1,0.3,3.6,2.5,4.3,3c0.1,0,0.2,0,0.4-0.1
			c0.1,0.2,0.3,0.1,0.3-0.1c0,0.1,0.1,0.3,0.2,0.2c0.2-0.1,0.3-0.1,0.4,0c0.1,0,0.3-0.4,0.3-0.2c0.2-0.1,0.5-0.2,0.6-0.1
			c0,0.1-0.2,0.3-0.1,0.4c0.3-0.2,0.6,0.1,1,0.1c0.1,0,0.1,0,0.3,0.1c0.1,0,0-0.1-0.1-0.2c1.4,0.1,2.3,1,2.7,2.4
			c0.8,1,4.9,2.3,3.8-0.6c-0.9-1.8-6-4.5-7-4.6c-0.9-0.2-1-0.1-0.5-0.4c0.3-0.3,5.1,1.8,6.2,3.3c0,0,0,0-0.1,0.1
			c2,1.4,2.6,3.9-0.6,3.8c-0.8-0.2-1.7-1-2.3-1.2c0-0.4-0.1-1.1-0.6-1.3s-1.1-0.4-1.4,0.1c-0.5-0.1-1.1,0.5-1.3,1
			c-0.5-0.1-0.4,0.6-0.8,0.7c-0.4,0-0.3,0.5-0.6,0.5c-0.1,0-0.1,0.2-0.1,0.2c-0.1,0.1-0.1,0-0.2,0c0,0.1,0,0.4-0.2,0.4
			c-0.1,0.2-0.3,0.4-0.4,0.7c-0.2,0-0.1,0.3-0.1,0.4c0,0.1-0.1,0.3-0.2,0.2c-0.1,0,0,0.7-0.2,0.5c-0.1,0.3,0,0.6,0,0.9l-0.2-0.1
			c-0.1,0.6-0.3,1.3,0,1.8c-0.1,0-0.1,0-0.2,0c0,0.2,0.1,0.4-0.1,0.4c-0.1,0.2,0.2,0.3-0.1,0.5c-0.1,0.3,0,0.6-0.1,0.9
			c0.1,0.4-0.6-0.1-0.6,0.4c0.2,0.1,0.4,0.1,0.5,0.2h-0.1c0,0,0,0.1,0.2,0.1v0.1c-0.1,0-0.2-0.1-0.3-0.1c0.2,0.1,0.3,0.2,0.5,0.3
			c0.2,0,0.4,0,0.4,0.3c0.1,0,0.5-0.1,0.5,0.2c0.1-0.1,0.1,0,0.1,0c0.2,0,0.5-0.1,0.8-0.1c-0.2,0.1-0.3,0.1-0.5,0.2l0,0
			c0.7,0.6,0.7,1.1,0.3,1.9c-0.1,0-0.4,0-0.5-0.1c-0.7,0.4-1.3,0.1-1.6-0.4c0,0.1-0.1,0.2-0.2,0.3c-0.1,0.1-0.1,0.2-0.1,0.2
			c0-0.1-0.1,0-0.2-0.1c0,0,0.1,0,0-0.1c0,0,0,0-0.1,0c0,0,0.1,0,0-0.1c0,0,0,0,0-0.1v-0.1c0.2-0.1,0.3-0.3,0.4-0.5
			c-0.1-0.1-0.2-0.1-0.2-0.1s0,0,0.1-0.1c0-0.1-0.5-0.4-0.3-0.5c0-0.1-0.4-0.3-0.1-0.3c-0.1-0.2-0.4-0.2-0.4-0.5h0.1
			c-0.2-0.2-0.2-0.2-0.2-0.4c0-0.1-0.2-0.2-0.1-0.3c0-0.1-0.3-0.3-0.2-0.4l0.1-0.1c-0.2-0.1-0.5-0.3-0.4-0.3
			c-0.7-0.5-1.2-1.3-1.7-1.9c-0.7-0.6-4.3-2.4-4.6-2.7l0,0c-0.1,0-0.2,0.1-0.2,0C745.1,615.8,745.2,615.6,745.3,615.5z" style="fill:#564432"/><path d="M757.5,623.1L757.5,623.1L757.5,623.1L757.5,623.1z" style="fill:#6E5A3F"/><path d="M756.4,623.7L756.4,623.7c0.3-0.3,1.1,0.2,1.2,0.6c-0.1,0.5-0.4,0.2-0.5,0.2c-0.1-0.1,0-0.2-0.1-0.2
			C756.9,624.2,756.5,623.9,756.4,623.7z" style="fill:#131510"/><path d="M752.1,624.7c0.2-0.3,0.6-0.7,0.9-0.9v0.1c0,0,0,0,0,0.1c0.1,0.1,0,0.1,0,0.1s0,0.1,0.1,0c0,0-0.1,0,0,0.1
			c0.2,0.1,0.4,0.2,0.6,0.2c0,0.1,0,0.1-0.1,0.3c0.1,0.2,0.3,0.1,0.4,0.1c0,0-0.1,0,0,0.1s0.3-0.1,0.4-0.1c0,0,0,0,0,0.1l0.1,0.1
			c0,0-0.1,0.1,0,0.1s0.3-0.1,0.4,0c0,0-0.1,0,0,0.1c0.1,0,0.2,0,0.4,0c0.1,0.2,0.4,0.1,0.5,0.3c0,0,0,0-0.1,0.1
			c0.1,0.1,0.3,0.1,0.2,0.2c0.1,0,0.1,0,0.1,0c-0.1,0-0.1,0.3-0.3,0.1c0,0.2-0.1,0.2-0.2,0.4c-0.1-0.1-0.1-0.2-0.1-0.2
			c0.8-0.9-1.3-0.5-1.4-0.9c-0.6-0.7-1.4,0.4-1.2,0.9C752.4,625.9,752.1,625.2,752.1,624.7z" style="fill:#131510"/><path d="M754.9,625.7c-0.4-0.2-0.8,0.1-1.2,0c-0.1-0.2-0.4,0-0.8,0.8c0.4,0.2,1.6-0.7,1.6-0.6c0,0,0.4,0.1,0.7,0.3
			C755.5,625.9,755.3,625.9,754.9,625.7z" style="fill:#424243"/><path d="M757.6,623c0,0,0-0.1-0.1-0.2C757.5,622.9,757.6,622.9,757.6,623C757.6,622.9,757.6,623,757.6,623L757.6,623
			z" style="fill:#84684B"/></g><g><path d="M769.2,589.9c0.1-0.2,0.3-0.6,0.5-0.5c0.1,1.1,3.5,1,3.3,2.1c-0.6,1-1.1-0.1-1.9-0.4
			C770.5,590.7,769.4,590.4,769.2,589.9z" style="fill:#261D13"/><path d="M768.7,591.1c-0.1-1.7,1.4,0.1,2.2,0.4c0.8,0.6,1.9,0.5,1.3,1.4C771.3,593.6,769.7,590.7,768.7,591.1z" style="fill:#261D13"/><path d="M772.7,594.5c0-0.1-0.1-0.2-0.1-0.3c0,0.1,0.2,0.1,0.1,0c0.2,0,0.6,0.4,0.7,0.3c0.2-0.3,0.6,0,0.8-0.1
			c0.2-0.2,0.5-0.6,0.5-1l1.1,0.7l0,0l0,0l-1.1-0.7c0.6-0.6,0.6-0.9,0.2-1.6c0.1-0.2-0.5-0.3-0.6-0.5c0.2-0.1,0-0.1-0.1-0.2
			c0.3-0.2,0.9,0.1,1.2,0.2l0,0c0.1,0,0.2,0.1,0.2,0.2c0.3,0.2,0.6,0.3,0.7,0.5c0.1,0,0.3,0.2,0.2,0.3c0,0.1,0.2,0.1,0.2,0.2
			c0,0.1,0.1,0.2,0.1,0.3l0,0c0,0.1,0.2,0.3,0.1,0.4c0,0.1,0.2,0.2,0.2,0.3c0.1,0.3-0.1,0.6,0.2,0.9c-0.1,0.1,0.3,0.3,0,0.4
			c0,0.2-0.2,0.2-0.3,0.2l0,0c-0.1,0-0.2,0-0.3-0.1l0,0c0,0,0,0-0.1,0c-0.2,0.1-0.3,0.3-0.5,0.3c-0.2,0.1-0.4,0-0.4,0.1
			c-0.1,0-0.2,0-0.3,0.1s-0.2,0-0.2,0l0,0c-0.1,0-0.2-0.1-0.2-0.1c-0.1,0.3-0.3-0.1-0.4-0.1c-0.2,0.2-0.7-0.4-0.9-0.4
			c0-0.1-0.1,0-0.2-0.1l0,0C773.2,595,772.9,594.8,772.7,594.5z" style="fill:#45351C"/><path d="M770,589.3L770,589.3L770,589.3L770,589.3z" style="fill:#45351C"/><path d="M769.6,590C769.5,589.9,769.5,589.9,769.6,590C769.5,589.9,769.5,589.9,769.6,590c-0.1-0.2-0.1-0.4,0.1-0.3
			c0.1,0,0-0.1-0.1-0.2c0.1-0.1,0.1,0,0.1-0.1l0,0c0.6,0.2,1.2,0.6,1.9,0.7l0,0c0.4,0,0.6,0.1,0.8,0.2l-0.1-0.1
			c0.1,0.2,0.2,0.2,0.4,0.3l0,0c0,0.1,0,0.1,0.1,0.2h0.1c0.3,0.4,0.9,0.5,1.4,0.6c-0.1,0-0.2,0-0.3,0.1c0.1,0,0.2,0.1,0.1,0.2
			c0.1,0.3,0.7,0.3,0.7,0.5c0.5,0.6,0.4,1.1-0.2,1.6l-2.6-1.5c-0.1-0.1-0.2-0.1-0.2-0.2c0.1-0.1,0.1-0.1,0.2-0.1
			c0-0.1-0.2-0.1-0.2-0.1c0.1-0.1,0.1,0,0.2,0c0-0.1,0-0.1-0.1-0.2l0,0c-0.3-0.4-0.9-0.5-1.3-0.8c-0.1-0.2-0.4-0.1-0.5-0.3
			c0,0,0,0,0.1,0C770.2,590.2,769.8,590.2,769.6,590z" style="fill:#352817"/><path d="M768.7,591.3L768.7,591.3c0.1-0.1,0-0.1,0-0.2c0,0,0.1,0,0.2,0c-0.2-0.1,0-0.2,0.2-0.3
			c0.3,0.2,0.6,0.4,1,0.5c0,0,0,0,0-0.1c0.2,0,0.3,0.3,0.5,0.3c0.3,0.2,0.5,0.5,0.9,0.5l0,0c0.1,0,0.3,0.1,0.5,0.2l0,0h0.1
			c0-0.1-0.1-0.2-0.1-0.2c0,0.1,0.2,0.1,0.3,0.1c0-0.1,0-0.1-0.1-0.2c0.1,0,0.2,0.1,0.2,0.1l0,0l2.6,1.5c-0.2,0.3-0.3,0.7-0.5,1
			c-0.3,0.2-0.7-0.2-0.8,0.1c-0.2,0.1-0.4-0.3-0.7-0.3c0,0.1-0.1,0.1-0.1,0.1c0,0.1,0.1,0.2,0.1,0.3c-0.3-0.4-0.7-0.8-1.2-0.9v-0.1
			c-0.1,0-0.1,0-0.2,0l0,0c-0.2-0.1-0.3-0.2-0.5-0.2l0.1-0.1C770.3,592.6,769.5,591.9,768.7,591.3z" style="fill:#352817"/><path d="M773.3,595.1C773.3,595.1,773.3,595.2,773.3,595.1L773.3,595.1c0.1,0.1,0.2,0,0.3,0.1
			c0.3-0.1,0.7,0.5,0.9,0.4c0.1,0,0.3,0.3,0.4,0.1c0.1,0,0.2,0.1,0.2,0.1l0,0c0.1-0.1,0.3,0.1,0.2,0c0.1,0,0.3,0.1,0.3-0.1
			c0.2-0.1,0.6,0,0.8-0.2h-0.1v-0.1l0,0v-0.1c0.1,0,0.3,0.1,0.4,0.1h0.1l0,0l0,0c0.1,0,0.1,0,0.2,0l0,0c0.2,0,0.4,0,0.3-0.2
			c0.3-0.2-0.1-0.3,0-0.4c0-0.1-0.1-0.2-0.1-0.2l0,0v-0.1c0,0,0,0,0-0.1c-0.1-0.2-0.2-0.3-0.3-0.3c0,0,0,0,0.1,0l0,0
			c0,0,0.1-0.1,0.1,0c0,0,0,0.1,0.1,0.2c0.1-0.3-0.1-0.8-0.3-1.1l0,0c0-0.1-0.1-0.2-0.1-0.3c-0.1-0.1-0.2-0.1-0.2-0.2
			c0.1-0.2-0.1-0.2-0.2-0.3c0-0.2-0.5-0.4-0.7-0.5c-0.1,0-0.2-0.1-0.2-0.2l0,0c0,0,0,0-0.1-0.1c1.2,0.3,2.3,1.6,2.1,2.8l0,0v0.1l0,0
			c0,0.1,0.2,0.1,0.1,0.2c0,0,0.2,0.1,0.1,0.2c0,0,0,0.1,0.1,0c-0.1,0.1,0.2,0.1,0,0.1l0.1,0.1c0,0,0,0-0.1,0c0,0,0.1,0,0,0.1h-0.1
			c0,0,0,0,0,0.1c0-0.1-0.1,0-0.1,0l0,0h-0.1c0,0.1,0.1,0.2,0.2,0.2c0,0,0,0,0-0.1v0.1c0,0,0-0.1-0.1,0v0.1h-0.1v0.1h-0.1h-0.1
			c-0.1,0-0.1,0-0.2,0c-0.1,0-0.1,0-0.3-0.1c0.1,0.1-0.1,0.1-0.1,0.1l0,0C775.9,596.3,774.2,596,773.3,595.1z" style="fill:#594324"/><path d="M777.4,594.4L777.4,594.4C777.5,594.4,777.5,594.4,777.4,594.4z" style="fill:#594324"/><path d="M768.7,591.5L768.7,591.5L768.7,591.5L768.7,591.5z" style="fill:#45351C"/><path d="M772.7,594.6L772.7,594.6L772.7,594.6z" style="fill:#534230"/><path d="M777,595.4L777,595.4C777,595.4,777.1,595.3,777,595.4C777.1,595.3,777,595.4,777,595.4z" style="fill:#594324"/><path d="M776.8,595.4C776.8,595.4,776.9,595.3,776.8,595.4C777,595.4,776.9,595.4,776.8,595.4z" style="fill:#594324"/><path d="M776.9,595.3L776.9,595.3L776.9,595.3z" style="fill:#594324"/><path d="M772.8,593.1L772.8,593.1c0-0.1-0.2-0.2-0.4-0.2c0,0-0.1-0.1-0.1-0.2l0,0c0-0.1,0-0.1-0.1-0.2l0,0
			c0-0.1-0.1-0.2-0.1-0.2l0,0c-0.1-0.1-0.2-0.1-0.1-0.2l0,0c0-0.1-0.1-0.2-0.1-0.3c0.1,0,0.3,0.1,0.4,0l0,0c0.1,0,0.1,0,0.2,0l0,0
			c0.1-0.1,0.1,0,0.2,0l0,0c0.1,0,0.1,0,0.2,0l0,0c0.1-0.1,0.1,0,0.2,0c0.1,0,0.3,0.2,0.5,0.2l0,0c0.1,0,0.2,0.1,0.2,0.2l0,0
			c-0.4-0.1-0.8-0.4-1.2,0c-0.1,0.5,0.3,0.7,0.6,1c0,0-0.1,0,0,0C772.9,593.2,772.8,593.2,772.8,593.1z" style="fill:#EFE057"/><path d="M773.1,594.3c0.1,0,0-0.1,0-0.2c0.1,0-0.1-0.2-0.1-0.3c0,0,0,0,0.1,0c-0.1-0.2-0.2-0.3-0.2-0.4l0,0v-0.1
			v-0.1l-0.1-0.1l0,0c0-0.1-0.1-0.3-0.1-0.4h0.1c0.1,0,0.2,0.1,0.3,0.2l0.1-0.3l0.2-0.2c-0.1,0-0.2-0.1-0.3-0.2
			c0-0.2,0.3-0.1,0.4-0.2c0,0,0,0.1,0.1,0l0,0c0,0,0,0.1,0.1-0.1h0.1c0,0,0,0,0-0.1c0.1,0,0.3-0.1,0.4,0c0,0,0,0,0-0.1
			c0.1,0,0.3,0.1,0.3-0.1c0.1-0.1,0.1,0,0.1,0s0.1,0,0-0.1h0.1l-0.1-0.1h0.1l0,0h0.1l0,0c0,0.1,0.2,0.2,0.3,0.3c0.1-0.1,0.1,0,0.1,0
			l0,0c0,0,0,0.1,0.1,0.2c0-0.1,0.1,0,0.2,0.1l0,0c0.2,0.2,0.1,0,0.3,0.3c0.1,0,0.1,0.1,0.2,0.1l0,0v0.1l0,0l0,0c0,0,0,0.1,0.1,0.2
			c0.1-0.2,0.1,0.2,0.2,0.3c0.2,0,0.2,0.3,0.3,0.3c0.1,0.2,0,0.1,0.2,0.3c0,0.1,0.1,0,0,0.2l0,0l0,0c-0.1,0-0.1,0-0.3-0.1l0,0h-0.1
			l0,0c-0.1,0-0.1,0-0.2-0.1l0,0c-0.2-0.1-0.3-0.1-0.5-0.2c-0.3,0.1-0.5,0.4-0.5,0.7c0,0,0,0.1,0.1,0.2v0.1c0,0.1,0.1,0.2,0.3,0.3
			l0,0c0,0,0.3,0.2,0.2,0.1c0,0.1,0,0.1,0,0.1l0,0c0,0.1,0.2,0.1,0.2,0.1l0,0l0,0c-0.1,0.3-0.1,0.1-0.2,0.1c-0.1-0.1-0.1,0-0.2-0.1
			c-0.1,0.1-0.1,0.1-0.2,0.1c0-0.1-0.2,0-0.3-0.1c-0.3-0.1,0-0.1-0.4,0c-0.1,0.1-0.2,0.1-0.1,0h-0.1l0,0l0,0c-0.1,0-0.2-0.1-0.4-0.1
			c0-0.1-0.1,0-0.2-0.1l0,0c0,0-0.2,0-0.2-0.1h-0.1c0-0.1-0.2,0-0.2-0.1c-0.1,0-0.3-0.1-0.4-0.1l0,0l0,0c0,0,0-0.1-0.1,0l0,0
			C773.2,594.5,773.2,594.5,773.1,594.3C773.1,594.4,773.1,594.4,773.1,594.3C773.1,594.4,773.1,594.4,773.1,594.3z" style="fill:#D3BD66"/><path d="M777.4,594.4L777.4,594.4C777.5,594.4,777.5,594.4,777.4,594.4z" style="fill:#45351C"/><path d="M775.9,594.2l-0.2-0.1l0,0c0.1-0.2,0.2-0.3,0.4-0.3l0,0C776,594,775.9,594.2,775.9,594.2z" style="fill:#45351C"/><path d="M773.4,594.7c0.1,0,0.3,0.1,0.4,0c0,0.1,0.1,0,0.2,0.1h0.1c0,0.1,0.1,0,0.2,0.1l0,0c0,0.1,0.2,0,0.2,0.1
			c0.1,0,0.3,0.1,0.4,0.1l0,0l0,0h0.1c0,0.1,0.1,0.1,0.1,0c0.3-0.1,0.1,0,0.4,0c0,0.1,0.2-0.1,0.3,0.1c0.1,0,0.1,0,0.2-0.1
			c0.1,0,0.1,0,0.2,0.1c0-0.1,0.1,0.2,0.2-0.1l0,0v0.1l0,0l0.1,0.1c-0.1,0.1-0.1,0.1-0.2,0h-0.1c0,0,0,0-0.1,0c0-0.1-0.2-0.1-0.2,0
			c-0.2,0-0.1,0-0.2,0c0-0.1-0.2,0-0.3-0.1s-0.3,0.1-0.3-0.1c-0.1,0-0.2-0.1-0.3-0.1h-0.1c0-0.1-0.2,0-0.2-0.1c0,0-0.1,0-0.2,0
			c0,0,0,0,0-0.1l0,0c-0.1,0-0.2,0-0.2-0.1l0,0H774c0-0.1-0.1,0-0.1,0c0-0.1-0.1-0.1-0.1-0.1l0,0c0,0-0.2,0-0.1,0
			c0-0.1-0.1,0-0.3-0.1l0,0C773.6,594.7,773.5,594.7,773.4,594.7z" style="fill:#F8E281"/><path d="M775.2,591.9c-0.1-0.1-0.1-0.1-0.1-0.2C775.1,591.7,775.1,591.8,775.2,591.9
			C775.3,591.9,775.3,591.9,775.2,591.9L775.2,591.9c0.1,0,0.2,0.1,0.3,0.1s0,0.1,0.1,0l0,0c0,0,0.1,0.2,0.1,0c-0.1,0,0,0.1,0.1,0.2
			v0.1c0,0,0,0,0.1-0.1c0.1,0,0,0.1,0.2,0.1c0-0.1,0.2,0.1,0.2,0.1c0-0.1,0.1,0.2,0.2,0.1c0,0.1,0.2,0.1,0.2,0.3
			c0.1-0.1,0.1,0.2,0.2,0.2c0.1,0,0.2,0.3,0.2,0.2c0.1,0.2,0,0.1,0.2,0.3c0,0.1,0,0.1,0.1,0.2h-0.1v0.1c0.1,0.1,0.1,0,0.1,0.2h-0.1
			l0,0c0,0,0-0.1-0.1,0l0,0c0.2-0.2,0-0.1,0-0.2c-0.2-0.2-0.1-0.2-0.2-0.3c-0.1,0-0.2-0.3-0.3-0.3s0-0.4-0.1-0.3l-0.1-0.2l0,0l0,0
			v-0.1l0,0c-0.1,0,0-0.1-0.2-0.1c-0.2-0.3,0-0.1-0.3-0.3l0,0c0,0-0.1-0.2-0.2-0.1c0,0-0.1-0.1-0.1-0.2l0,0c0-0.1,0-0.1-0.1,0
			C775.3,591.9,775.2,591.9,775.2,591.9z" style="fill:#F8E281"/><path d="M775.1,591.7L775.1,591.7L775.1,591.7z" style="fill:#F8E281"/><path d="M774.7,593.5L774.7,593.5L774.7,593.5z" style="fill:#0D0F11"/><path d="M775.7,594.5L775.7,594.5c-0.1-0.2-0.1-0.3,0.1-0.5l0,0l0.2,0.1C775.9,594.2,775.8,594.4,775.7,594.5z" style="fill:#45351C"/><path d="M774.7,593.5L774.7,593.5L774.7,593.5z" style="fill:#0D0F11"/><path d="M769.2,589.8c-0.6,0.2-0.2-0.1,0.1-0.3c0.2-0.1,0.1-0.2,0.1-0.5c0.1-0.4,0.2-0.4,0.2-0.4
			c0.6-0.8,0,0.6,0.1,0.8l0,0c0,0.1-0.1,0-0.1,0s0,0.1,0.1,0.2c-0.2-0.1-0.2,0.1-0.2,0.2l0,0C769.4,589.8,769.2,589.8,769.2,589.8z" style="fill:#534230"/><path d="M767.9,591.9c0-0.1,0.1-0.3,0.1-0.3s-0.1-0.1,0.2-0.4c0.3-0.3,0.4-0.3,0.3-0.4c0-0.1,0-0.2,0.1-0.4
			s0.1,0.4,0.3,0.5c-0.1,0.1-0.3,0.2-0.2,0.3c0,0-0.1,0-0.2,0c0,0.1,0.1,0.2,0,0.1l0,0C768.4,591.2,768,592,767.9,591.9z" style="fill:#534230"/><path d="M772.5,592.9c0.2,0.2,0.9,0.5,1.2,0.7l0,0c0.8,0.4,0.9,0.9,1.5,1.1c0.6-0.1,0.9-0.8,0.8-1.4
			c-0.5-0.5-1-0.3-1.7-0.7c-0.4-0.3-1.6-1.2-1.9-0.4C772.4,592.1,772.1,592.5,772.5,592.9z M774.2,593.2L774.2,593.2l0.5,0.3
			L774.2,593.2z" style="fill:#534230"/><path d="M775,594.3c-0.4,0-0.4-0.7-0.3-0.9c0.1-0.3,0.6-0.5,0.9-0.2c0.1,0,0.3-0.1,0.3,0.2
			C776,593.9,775.4,595,775,594.3z" style="fill:#0D0F11"/><path d="M774.8,593.6c-0.4-0.1-0.9,0.3-0.2,0.6c0,0,0.2-0.5,0.1-0.2c0,0.1,0,0.2,0,0.2c0-0.2,0-0.4,0.1,0
			c0.2,0.3,0-0.2,0-0.2c0.1,0,0,0.2,0.1,0.3c0.1,0,0.1,0,0.1,0s-0.2-0.1-0.2-0.3c0-0.1,0.3,0.3,0.4,0.2c0.1-0.1,0,0,0,0
			s-0.2-0.1-0.2-0.2c-0.1-0.2,0.5,0.2,0.5,0.1l0,0C775.5,594.1,774.9,593.7,774.8,593.6z" style="fill:#93A7B8"/><path d="M775.4,594c-0.1,0-0.6-0.3-0.5-0.1s0.4,0.2,0.3,0.3s-0.3-0.4-0.4-0.2c0.1,0.1,0.2,0.3,0.2,0.3s0,0.1-0.1,0
			c-0.1,0-0.2-0.3-0.2-0.3c-0.1,0,0.2,0.5,0,0.2c-0.1-0.3-0.1-0.2-0.1,0c0,0.1-0.1-0.1,0-0.2c0.1-0.3-0.2,0.1-0.1,0.2
			C774.8,594.3,775.3,594.3,775.4,594z" style="fill:#DEEAF7"/><path d="M774.8,593.5c-0.3-0.3-0.2-0.9,0.4-0.6c0-0.1-0.2,0.4-0.1,0.2c0.1-0.1,0.3-0.2,0.2-0.1
			c-0.2,0.1-0.3,0.2,0,0.1c0.2,0-0.2,0.1-0.2,0.1s0.2-0.1,0.4,0c0.1,0,0.1,0.1,0.1,0.1c-0.1-0.1-0.2-0.1-0.4,0s0.4,0.1,0.4,0.2
			c0,0.1,0,0,0,0s-0.2-0.1-0.3-0.1c-0.2,0,0.4,0.3,0.3,0.4l0,0C775.5,593.9,775,593.5,774.8,593.5z" style="fill:#93A7B8"/><path d="M773.2,593.2c-0.2-0.1-0.9-0.4-0.6-1c0.5-0.7,1.3,0.3,1.7,0.3l-0.1,0.6l-0.5,0.4
			C773.7,593.6,773.4,593.3,773.2,593.2z" style="fill:#9E3F49"/><path d="M773.8,593.5c0.6,0.1,0.9-0.4,0.5-0.9c-0.4,0-1.1-1-1.6-0.4C772.3,593,773.5,593.2,773.8,593.5z
			 M772.7,592.4c0.1-0.8,1.2,0.2,1.5,0.3C775.1,593.9,772.8,593.1,772.7,592.4z" style="fill:#231F20"/><path d="M772.7,592.4c0.1-0.8,1.2,0.2,1.5,0.3C775.1,593.9,772.8,593.1,772.7,592.4z" style="fill:#905C6E"/><path d="M773.9,593.2C773.9,593.2,773.8,593.2,773.9,593.2c0-0.1,0.1-0.3,0.1-0.3c0.3,0.1,0.2,0.3,0,0.1
			C774.1,593.1,774.1,593.4,773.9,593.2z" style="fill:#E4D87C"/><path d="M774.1,592.9C774,592.9,774,592.9,774.1,592.9c0-0.2,0.1-0.1,0.2-0.1c0,0,0,0,0,0.1
			C774.3,592.9,774.2,593,774.1,592.9z" style="fill:#E4D87C"/><path d="M773.1,592.2C773,592.2,772.9,592.2,773.1,592.2C773,592,773.5,592.2,773.1,592.2z" style="fill:#E4D87C"/><path d="M773.9,592.5c-1-0.3,0.9-0.3,0.5,0.2C774.4,592.9,774.2,592.7,773.9,592.5z" style="fill:#E4D87C"/><path d="M773.8,593.2c0,0.1,0.1,0.3,0.1,0.3l0,0C773.9,593.3,773.7,593.2,773.8,593.2z" style="fill:#E4D87C"/><path d="M773.5,593.2c0.2,0.2,0.5,0.3,0.5,0.3C773.8,594.1,772.8,592.4,773.5,593.2z" style="fill:#E4D87C"/><path d="M772.7,592.6c0-0.1,0.3,0.4,0.2,0.3C772.7,592.8,772.7,592.6,772.7,592.6z" style="fill:#E4D87C"/><path d="M772.8,592.5c-0.1,0,0.1-0.4,0.2-0.3s-0.1,0.1-0.1,0.1s0,0.1-0.1,0C772.8,592.4,772.7,592.4,772.8,592.5
			L772.8,592.5z" style="fill:#E4D87C"/><path d="M775.5,593.8c0.1-0.1-0.6-0.4-0.3-0.4c0.1,0,0.4,0.1,0.4,0.1c0-0.1-0.5-0.1-0.4-0.2c0.1-0.1,0.2,0,0.4,0
			c0,0.1,0.1,0-0.1-0.1c-0.1,0-0.3,0.1-0.4,0c-0.1-0.1,0.5-0.2,0.2-0.1c-0.3,0.2-0.2,0,0-0.1c0.1,0-0.1,0-0.2,0.1
			c-0.2,0.2,0-0.2,0.1-0.2C775.6,593.2,775.7,593.6,775.5,593.8z" style="fill:#DEEAF7"/><path d="M775.7,593.7c-0.1,0,0-0.2,0.1-0.2S775.8,593.8,775.7,593.7z" style="fill:#FFF100"/><path d="M774.1,593.1L774.1,593.1C774.2,593.2,774.3,593,774.1,593.1L774.1,593.1C774,593.1,774.4,593,774.1,593.1
			C774.3,593,774.1,593.1,774.1,593.1z" style="fill:#9E3F49"/><path d="M773.6,593.6c-0.1-0.1,0.2,0,0.5-0.5s0.1-0.6,0.2-0.7c0.2,0,1,0.5,0.6,0.8c-0.2,0.1,0.8,0.6,0.6,0.7
			c0,0.1-0.9-0.4-0.9-0.2C774.6,594.2,773.8,593.9,773.6,593.6z" style="fill:#D95B61"/><path d="M774.6,593.2c0,0,0.3,0.1,0.3-0.1C775,592.6,774.3,593.1,774.6,593.2z" style="fill:#231F20"/><path d="M774.6,593.7c-0.3-0.3-0.2-0.4,0.2-0.4c0.1,0,0.1,0,0,0.1c-0.1,0,0.8,0.6,0.7,0.5
			C775.6,594,774.6,593.5,774.6,593.7C774.7,593.7,774.6,593.7,774.6,593.7z" style="fill:#F27A7C"/><path d="M773,592.7c-0.6-0.4,0.3-0.7,0.4-0.2c0.1,0.2,0.5,0.2,0.3,0.4C773.6,593.2,773.3,592.9,773,592.7z" style="fill:#C17491"/><path d="M775.7,593.7C775.8,593.8,775.8,593.6,775.7,593.7C775.7,593.6,775.6,593.6,775.7,593.7z" style="fill:#231F20"/><path d="M775.7,593.7C775.8,593.8,775.8,593.6,775.7,593.7L775.7,593.7z" style="fill:#FFFFFF"/><path d="M775.5,594.2c-0.1,0-0.3,0.1-0.1,0.2C775.5,594.4,775.6,594.2,775.5,594.2z" style="fill:#FFF100"/><path d="M774.1,593.1L774.1,593.1c0.1,0.1,0,0.3-0.3,0.1l0,0c0,0.1,0.2,0.3,0.2,0.3
			C774.1,593.4,774.1,593.1,774.1,593.1z" style="fill:#9E3F49"/><path d="M774.5,593.5c0,0,0.2,0.1,0.1,0.3C774.2,594.1,774.2,593.3,774.5,593.5z" style="fill:#231F20"/><path d="M775.4,594.2C775.5,594.3,775.4,594.3,775.4,594.2C775.3,594.3,775.3,594.1,775.4,594.2z" style="fill:#231F20"/><path d="M775.5,594.3C775.5,594.3,775.4,594.3,775.5,594.3C775.4,594.2,775.4,594.2,775.5,594.3z" style="fill:#FFFFFF"/><path d="M774,592.6c-0.1,0-0.3-0.1-0.3-0.2c0.1-0.1,0.4,0,0.5,0.1C774.3,592.7,774.3,592.7,774,592.6z" style="fill:#FFF8D2"/><path d="M772.8,592.7C772.8,592.5,773,592.9,772.8,592.7L772.8,592.7z" style="fill:#FFF8D2"/><path d="M773.6,593.4c0-0.1-0.3-0.4-0.2-0.4C773.1,593,774.1,593.6,773.6,593.4z" style="fill:#FFF8D2"/><path d="M773,592.1c0.1,0,0.1,0,0.2,0C773.1,592.2,773.1,592.2,773,592.1z" style="fill:#FFF8D2"/></g><text transform="matrix(-0.5 0.866 -0.866 -0.5 816.4319 617.3533)" class="st9" style="fill:#474747;font-size:7.9322px">SAVANNA</text></g><path d="M574.6,781.5" style="fill:#F7E719"/></svg>